<?xml version="1.0" encoding="UTF-8" standalone="no"?>
<!DOCTYPE svg PUBLIC "-//W3C//DTD SVG 1.1//EN"
 "http://www.w3.org/Graphics/SVG/1.1/DTD/svg11.dtd">
<!-- Generated by graphviz version 2.40.1 (20161225.0304)
 -->
<!-- Title: src/events/AudioEvents.hxx Pages: 1 -->
<svg width="616pt" height="252pt"
 viewBox="0.00 0.00 616.00 252.00" xmlns="http://www.w3.org/2000/svg" xmlns:xlink="http://www.w3.org/1999/xlink">
<g id="graph0" class="graph" transform="scale(1 1) rotate(0) translate(4 248)">
<title>src/events/AudioEvents.hxx</title>
<!-- Node0 -->
<g id="node1" class="node">
<title>Node0</title>
<polygon fill="#bfbfbf" stroke="#000000" points="196,-224.5 196,-243.5 348,-243.5 348,-224.5 196,-224.5"/>
<text text-anchor="middle" x="272" y="-231.5" font-family="Helvetica,sans-Serif" font-size="10.00" fill="#000000">src/events/AudioEvents.hxx</text>
</g>
<!-- Node1 -->
<g id="node2" class="node">
<title>Node1</title>
<g id="a_node2"><a xlink:href="Soundtrack_8hxx.html" target="_top" xlink:title="../engine/audio/Soundtrack.hxx">
<polygon fill="none" stroke="#000000" points="70.5,-112.5 70.5,-131.5 237.5,-131.5 237.5,-112.5 70.5,-112.5"/>
<text text-anchor="middle" x="154" y="-119.5" font-family="Helvetica,sans-Serif" font-size="10.00" fill="#000000">../engine/audio/Soundtrack.hxx</text>
</a>
</g>
</g>
<!-- Node0&#45;&gt;Node1 -->
<g id="edge1" class="edge">
<title>Node0&#45;&gt;Node1</title>
<path fill="none" stroke="#191970" d="M261.9394,-224.4509C241.823,-205.3574 196.427,-162.2697 171.3906,-138.5063"/>
<polygon fill="#191970" stroke="#191970" points="173.6977,-135.8706 164.0351,-131.5249 168.8787,-140.9478 173.6977,-135.8706"/>
</g>
<!-- Node10 -->
<g id="node11" class="node">
<title>Node10</title>
<g id="a_node11"><a xlink:href="AudioConfig_8hxx.html" target="_top" xlink:title="../engine/audio/AudioConfig.hxx">
<polygon fill="none" stroke="#000000" points="260.5,-168.5 260.5,-187.5 431.5,-187.5 431.5,-168.5 260.5,-168.5"/>
<text text-anchor="middle" x="346" y="-175.5" font-family="Helvetica,sans-Serif" font-size="10.00" fill="#000000">../engine/audio/AudioConfig.hxx</text>
</a>
</g>
</g>
<!-- Node0&#45;&gt;Node10 -->
<g id="edge10" class="edge">
<title>Node0&#45;&gt;Node10</title>
<path fill="none" stroke="#191970" d="M284.8898,-224.2455C295.9254,-215.8943 312.0292,-203.7076 324.9353,-193.9408"/>
<polygon fill="#191970" stroke="#191970" points="327.3959,-196.4681 333.2579,-187.6427 323.1717,-190.8862 327.3959,-196.4681"/>
</g>
<!-- Node2 -->
<g id="node3" class="node">
<title>Node2</title>
<polygon fill="none" stroke="#bfbfbf" points="0,-56.5 0,-75.5 58,-75.5 58,-56.5 0,-56.5"/>
<text text-anchor="middle" x="29" y="-63.5" font-family="Helvetica,sans-Serif" font-size="10.00" fill="#000000">memory</text>
</g>
<!-- Node1&#45;&gt;Node2 -->
<g id="edge2" class="edge">
<title>Node1&#45;&gt;Node2</title>
<path fill="none" stroke="#191970" d="M132.5117,-112.3733C112.356,-103.3435 82.012,-89.7494 59.382,-79.6111"/>
<polygon fill="#191970" stroke="#191970" points="60.7649,-76.3955 50.2079,-75.5011 57.9029,-82.7838 60.7649,-76.3955"/>
</g>
<!-- Node3 -->
<g id="node4" class="node">
<title>Node3</title>
<polygon fill="none" stroke="#bfbfbf" points="76.5,-56.5 76.5,-75.5 153.5,-75.5 153.5,-56.5 76.5,-56.5"/>
<text text-anchor="middle" x="115" y="-63.5" font-family="Helvetica,sans-Serif" font-size="10.00" fill="#000000">SDL_mixer.h</text>
</g>
<!-- Node1&#45;&gt;Node3 -->
<g id="edge3" class="edge">
<title>Node1&#45;&gt;Node3</title>
<path fill="none" stroke="#191970" d="M147.2067,-112.2455C141.7822,-104.4564 134.0339,-93.3308 127.4967,-83.9439"/>
<polygon fill="#191970" stroke="#191970" points="130.3025,-81.8485 121.7154,-75.6427 124.5583,-85.849 130.3025,-81.8485"/>
</g>
<!-- Node4 -->
<g id="node5" class="node">
<title>Node4</title>
<polygon fill="none" stroke="#bfbfbf" points="172,-56.5 172,-75.5 216,-75.5 216,-56.5 172,-56.5"/>
<text text-anchor="middle" x="194" y="-63.5" font-family="Helvetica,sans-Serif" font-size="10.00" fill="#000000">string</text>
</g>
<!-- Node1&#45;&gt;Node4 -->
<g id="edge4" class="edge">
<title>Node1&#45;&gt;Node4</title>
<path fill="none" stroke="#191970" d="M160.9675,-112.2455C166.5311,-104.4564 174.478,-93.3308 181.1829,-83.9439"/>
<polygon fill="#191970" stroke="#191970" points="184.148,-85.8144 187.1124,-75.6427 178.4519,-81.7457 184.148,-85.8144"/>
</g>
<!-- Node5 -->
<g id="node6" class="node">
<title>Node5</title>
<g id="a_node6"><a xlink:href="Meta_8hxx.html" target="_top" xlink:title="../../util/Meta.hxx">
<polygon fill="none" stroke="#000000" points="234,-56.5 234,-75.5 332,-75.5 332,-56.5 234,-56.5"/>
<text text-anchor="middle" x="283" y="-63.5" font-family="Helvetica,sans-Serif" font-size="10.00" fill="#000000">../../util/Meta.hxx</text>
</a>
</g>
</g>
<!-- Node1&#45;&gt;Node5 -->
<g id="edge5" class="edge">
<title>Node1&#45;&gt;Node5</title>
<path fill="none" stroke="#191970" d="M176.1759,-112.3733C196.9766,-103.3435 228.2917,-89.7494 251.6458,-79.6111"/>
<polygon fill="#191970" stroke="#191970" points="253.3343,-82.6938 261.1135,-75.5011 250.5468,-76.2727 253.3343,-82.6938"/>
</g>
<!-- Node6 -->
<g id="node7" class="node">
<title>Node6</title>
<polygon fill="none" stroke="#bfbfbf" points="131,-.5 131,-19.5 191,-19.5 191,-.5 131,-.5"/>
<text text-anchor="middle" x="161" y="-7.5" font-family="Helvetica,sans-Serif" font-size="10.00" fill="#000000">iostream</text>
</g>
<!-- Node5&#45;&gt;Node6 -->
<g id="edge6" class="edge">
<title>Node5&#45;&gt;Node6</title>
<path fill="none" stroke="#191970" d="M262.0275,-56.3733C242.4433,-47.3838 213.0039,-33.8706 190.949,-23.7471"/>
<polygon fill="#191970" stroke="#191970" points="192.2473,-20.4919 181.6989,-19.5011 189.3271,-26.8538 192.2473,-20.4919"/>
</g>
<!-- Node7 -->
<g id="node8" class="node">
<title>Node7</title>
<polygon fill="none" stroke="#bfbfbf" points="209.5,-.5 209.5,-19.5 278.5,-19.5 278.5,-.5 209.5,-.5"/>
<text text-anchor="middle" x="244" y="-7.5" font-family="Helvetica,sans-Serif" font-size="10.00" fill="#000000">type_traits</text>
</g>
<!-- Node5&#45;&gt;Node7 -->
<g id="edge7" class="edge">
<title>Node5&#45;&gt;Node7</title>
<path fill="none" stroke="#191970" d="M276.2067,-56.2455C270.7822,-48.4564 263.0339,-37.3308 256.4967,-27.9439"/>
<polygon fill="#191970" stroke="#191970" points="259.3025,-25.8485 250.7154,-19.6427 253.5583,-29.849 259.3025,-25.8485"/>
</g>
<!-- Node8 -->
<g id="node9" class="node">
<title>Node8</title>
<polygon fill="none" stroke="#bfbfbf" points="296.5,-.5 296.5,-19.5 347.5,-19.5 347.5,-.5 296.5,-.5"/>
<text text-anchor="middle" x="322" y="-7.5" font-family="Helvetica,sans-Serif" font-size="10.00" fill="#000000">variant</text>
</g>
<!-- Node5&#45;&gt;Node8 -->
<g id="edge8" class="edge">
<title>Node5&#45;&gt;Node8</title>
<path fill="none" stroke="#191970" d="M289.7933,-56.2455C295.2178,-48.4564 302.9661,-37.3308 309.5033,-27.9439"/>
<polygon fill="#191970" stroke="#191970" points="312.4417,-29.849 315.2846,-19.6427 306.6975,-25.8485 312.4417,-29.849"/>
</g>
<!-- Node9 -->
<g id="node10" class="node">
<title>Node9</title>
<polygon fill="none" stroke="#bfbfbf" points="365.5,-.5 365.5,-19.5 406.5,-19.5 406.5,-.5 365.5,-.5"/>
<text text-anchor="middle" x="386" y="-7.5" font-family="Helvetica,sans-Serif" font-size="10.00" fill="#000000">tuple</text>
</g>
<!-- Node5&#45;&gt;Node9 -->
<g id="edge9" class="edge">
<title>Node5&#45;&gt;Node9</title>
<path fill="none" stroke="#191970" d="M300.9412,-56.2455C317.04,-47.4928 340.8879,-34.527 359.2391,-24.5496"/>
<polygon fill="#191970" stroke="#191970" points="361.1507,-27.4942 368.2644,-19.6427 357.8071,-21.3444 361.1507,-27.4942"/>
</g>
<!-- Node10&#45;&gt;Node1 -->
<g id="edge11" class="edge">
<title>Node10&#45;&gt;Node1</title>
<path fill="none" stroke="#191970" d="M312.994,-168.3733C280.7909,-158.9807 231.6558,-144.6496 196.5361,-134.4064"/>
<polygon fill="#191970" stroke="#191970" points="197.1553,-130.9412 186.5753,-131.5011 195.1953,-137.6612 197.1553,-130.9412"/>
</g>
<!-- Node11 -->
<g id="node12" class="node">
<title>Node11</title>
<polygon fill="none" stroke="#bfbfbf" points="255.5,-112.5 255.5,-131.5 348.5,-131.5 348.5,-112.5 255.5,-112.5"/>
<text text-anchor="middle" x="302" y="-119.5" font-family="Helvetica,sans-Serif" font-size="10.00" fill="#000000">unordered_map</text>
</g>
<!-- Node10&#45;&gt;Node11 -->
<g id="edge12" class="edge">
<title>Node10&#45;&gt;Node11</title>
<path fill="none" stroke="#191970" d="M338.3358,-168.2455C332.1527,-160.3761 323.2937,-149.101 315.8711,-139.6542"/>
<polygon fill="#191970" stroke="#191970" points="318.5068,-137.3435 309.5764,-131.6427 313.0025,-141.6683 318.5068,-137.3435"/>
</g>
<!-- Node12 -->
<g id="node13" class="node">
<title>Node12</title>
<polygon fill="none" stroke="#bfbfbf" points="366.5,-112.5 366.5,-131.5 413.5,-131.5 413.5,-112.5 366.5,-112.5"/>
<text text-anchor="middle" x="390" y="-119.5" font-family="Helvetica,sans-Serif" font-size="10.00" fill="#000000">vector</text>
</g>
<!-- Node10&#45;&gt;Node12 -->
<g id="edge13" class="edge">
<title>Node10&#45;&gt;Node12</title>
<path fill="none" stroke="#191970" d="M353.6642,-168.2455C359.8473,-160.3761 368.7063,-149.101 376.1289,-139.6542"/>
<polygon fill="#191970" stroke="#191970" points="378.9975,-141.6683 382.4236,-131.6427 373.4932,-137.3435 378.9975,-141.6683"/>
</g>
<!-- Node13 -->
<g id="node14" class="node">
<title>Node13</title>
<polygon fill="none" stroke="#bfbfbf" points="432,-112.5 432,-131.5 532,-131.5 532,-112.5 432,-112.5"/>
<text text-anchor="middle" x="482" y="-119.5" font-family="Helvetica,sans-Serif" font-size="10.00" fill="#000000">betterEnums.hxx</text>
</g>
<!-- Node10&#45;&gt;Node13 -->
<g id="edge14" class="edge">
<title>Node10&#45;&gt;Node13</title>
<path fill="none" stroke="#191970" d="M369.3792,-168.3733C391.5045,-159.2629 424.9134,-145.5062 449.6019,-135.3404"/>
<polygon fill="#191970" stroke="#191970" points="451.0117,-138.5451 458.9258,-131.5011 448.3464,-132.0723 451.0117,-138.5451"/>
</g>
<!-- Node14 -->
<g id="node15" class="node">
<title>Node14</title>
<polygon fill="none" stroke="#bfbfbf" points="550,-112.5 550,-131.5 608,-131.5 608,-112.5 550,-112.5"/>
<text text-anchor="middle" x="579" y="-119.5" font-family="Helvetica,sans-Serif" font-size="10.00" fill="#000000">json.hxx</text>
</g>
<!-- Node10&#45;&gt;Node14 -->
<g id="edge15" class="edge">
<title>Node10&#45;&gt;Node14</title>
<path fill="none" stroke="#191970" d="M387.9176,-168.4392C425.3725,-159.8229 481.9887,-146.6192 540.2339,-132.1484"/>
<polygon fill="#191970" stroke="#191970" points="541.1171,-135.5355 549.9736,-129.7205 539.4239,-128.7433 541.1171,-135.5355"/>
</g>
</g>
</svg>
