<?xml version="1.0" encoding="UTF-8" standalone="no"?>
<!DOCTYPE svg PUBLIC "-//W3C//DTD SVG 1.1//EN"
 "http://www.w3.org/Graphics/SVG/1.1/DTD/svg11.dtd">
<!-- Generated by graphviz version 2.40.1 (20161225.0304)
 -->
<!-- Title: src/services/AudioMixer.hxx Pages: 1 -->
<!--zoomable 308 -->
<svg id="main" version="1.1" xmlns="http://www.w3.org/2000/svg" xmlns:xlink="http://www.w3.org/1999/xlink" xml:space="preserve" onload="init(evt)">
<style type="text/css"><![CDATA[
.edge:hover path { stroke: red; }
.edge:hover polygon { stroke: red; fill: red; }
]]></style>
<script type="text/javascript"><![CDATA[
var edges = document.getElementsByTagName('g');
if (edges && edges.length) {
  for (var i=0;i<edges.length;i++) {
    if (edges[i].id.substr(0,4)=='edge') {
      edges[i].setAttribute('class','edge');
    }
  }
}
]]></script>
        <defs>
                <circle id="rim" cx="0" cy="0" r="7"/>
                <circle id="rim2" cx="0" cy="0" r="3.5"/>
                <g id="zoomPlus">
                        <use xlink:href="#rim" fill="#404040">
                                <set attributeName="fill" to="#808080" begin="zoomplus.mouseover" end="zoomplus.mouseout"/>
                        </use>
                        <path d="M-4,0h8M0,-4v8" fill="none" stroke="white" stroke-width="1.5" pointer-events="none"/>
                </g>
                <g id="zoomMin">
                        <use xlink:href="#rim" fill="#404040">
                                <set attributeName="fill" to="#808080" begin="zoomminus.mouseover" end="zoomminus.mouseout"/>
                        </use>
                        <path d="M-4,0h8" fill="none" stroke="white" stroke-width="1.5" pointer-events="none"/>
                </g>
                <g id="dirArrow">
                        <path fill="none" stroke="white" stroke-width="1.5" d="M0,-3.0v7 M-2.5,-0.5L0,-3.0L2.5,-0.5"/>
                </g>
               <g id="resetDef">
                       <use xlink:href="#rim2" fill="#404040">
                               <set attributeName="fill" to="#808080" begin="reset.mouseover" end="reset.mouseout"/>
                       </use>
               </g>
        </defs>

<script type="text/javascript">
var viewWidth = 1019;
var viewHeight = 308;
var sectionId = 'dynsection-0';
</script>
<script xlink:href="svgpan.js"/>
<svg id="graph" class="graph">
<g id="viewport">
<title>src/services/AudioMixer.hxx</title>
<!-- Node0 -->
<g id="node1" class="node">
<title>Node0</title>
<polygon fill="#bfbfbf" stroke="#000000" points="323,-280.5 323,-299.5 475,-299.5 475,-280.5 323,-280.5"/>
<text text-anchor="middle" x="399" y="-287.5" font-family="Helvetica,sans-Serif" font-size="10.00" fill="#000000">src/services/AudioMixer.hxx</text>
</g>
<!-- Node1 -->
<g id="node2" class="node">
<title>Node1</title>
<polygon fill="none" stroke="#bfbfbf" points="0,-224.5 0,-243.5 42,-243.5 42,-224.5 0,-224.5"/>
<text text-anchor="middle" x="21" y="-231.5" font-family="Helvetica,sans-Serif" font-size="10.00" fill="#000000">array</text>
</g>
<!-- Node0&#45;&gt;Node1 -->
<g id="edge1" class="edge">
<title>Node0&#45;&gt;Node1</title>
<path fill="none" stroke="#191970" d="M322.9064,-284.1412C254.1903,-277.8956 150.3008,-266.0821 51.9662,-243.8633"/>
<polygon fill="#191970" stroke="#191970" points="52.6927,-240.4391 42.1626,-241.6089 51.1239,-247.261 52.6927,-240.4391"/>
</g>
<!-- Node2 -->
<g id="node3" class="node">
<title>Node2</title>
<polygon fill="none" stroke="#bfbfbf" points="60,-224.5 60,-243.5 146,-243.5 146,-224.5 60,-224.5"/>
<text text-anchor="middle" x="103" y="-231.5" font-family="Helvetica,sans-Serif" font-size="10.00" fill="#000000">unordered_set</text>
</g>
<!-- Node0&#45;&gt;Node2 -->
<g id="edge2" class="edge">
<title>Node0&#45;&gt;Node2</title>
<path fill="none" stroke="#191970" d="M348.4521,-280.4369C294.935,-270.312 210.8145,-254.3973 156.2821,-244.0804"/>
<polygon fill="#191970" stroke="#191970" points="156.5996,-240.5784 146.1232,-242.1584 155.2983,-247.4564 156.5996,-240.5784"/>
</g>
<!-- Node3 -->
<g id="node4" class="node">
<title>Node3</title>
<polygon fill="none" stroke="#bfbfbf" points="202.5,-112.5 202.5,-131.5 249.5,-131.5 249.5,-112.5 202.5,-112.5"/>
<text text-anchor="middle" x="226" y="-119.5" font-family="Helvetica,sans-Serif" font-size="10.00" fill="#000000">vector</text>
</g>
<!-- Node0&#45;&gt;Node3 -->
<g id="edge3" class="edge">
<title>Node0&#45;&gt;Node3</title>
<path fill="none" stroke="#191970" d="M389.2031,-280.4862C361.0271,-253.1246 279.499,-173.9528 243.4712,-138.9663"/>
<polygon fill="#191970" stroke="#191970" points="245.7327,-136.2836 236.1204,-131.8279 240.8561,-141.3055 245.7327,-136.2836"/>
</g>
<!-- Node4 -->
<g id="node5" class="node">
<title>Node4</title>
<polygon fill="none" stroke="#bfbfbf" points="285,-56.5 285,-75.5 343,-75.5 343,-56.5 285,-56.5"/>
<text text-anchor="middle" x="314" y="-63.5" font-family="Helvetica,sans-Serif" font-size="10.00" fill="#000000">memory</text>
</g>
<!-- Node0&#45;&gt;Node4 -->
<g id="edge4" class="edge">
<title>Node0&#45;&gt;Node4</title>
<path fill="none" stroke="#191970" d="M374.8659,-280.4254C329.005,-260.7159 230.5038,-210.739 193,-132 175.6991,-95.6768 233.3193,-78.5965 274.9097,-71.1508"/>
<polygon fill="#191970" stroke="#191970" points="275.5304,-74.5957 284.8194,-69.5002 274.3802,-67.6908 275.5304,-74.5957"/>
</g>
<!-- Node5 -->
<g id="node6" class="node">
<title>Node5</title>
<polygon fill="none" stroke="#bfbfbf" points="927,-224.5 927,-243.5 959,-243.5 959,-224.5 927,-224.5"/>
<text text-anchor="middle" x="943" y="-231.5" font-family="Helvetica,sans-Serif" font-size="10.00" fill="#000000">list</text>
</g>
<!-- Node0&#45;&gt;Node5 -->
<g id="edge5" class="edge">
<title>Node0&#45;&gt;Node5</title>
<path fill="none" stroke="#191970" d="M475.3421,-285.9746C594.4247,-279.2503 819.9692,-264.6153 917.0076,-243.5277"/>
<polygon fill="#191970" stroke="#191970" points="917.8595,-246.9231 926.8167,-241.2647 916.2858,-240.1023 917.8595,-246.9231"/>
</g>
<!-- Node6 -->
<g id="node7" class="node">
<title>Node6</title>
<g id="a_node7"><a xlink:href="AudioEvents_8hxx.html" target="_top" xlink:title="../events/AudioEvents.hxx">
<polygon fill="none" stroke="#000000" points="377.5,-224.5 377.5,-243.5 520.5,-243.5 520.5,-224.5 377.5,-224.5"/>
<text text-anchor="middle" x="449" y="-231.5" font-family="Helvetica,sans-Serif" font-size="10.00" fill="#000000">../events/AudioEvents.hxx</text>
</a>
</g>
</g>
<!-- Node0&#45;&gt;Node6 -->
<g id="edge6" class="edge">
<title>Node0&#45;&gt;Node6</title>
<path fill="none" stroke="#191970" d="M407.7093,-280.2455C414.8073,-272.2958 425.0084,-260.8706 433.495,-251.3656"/>
<polygon fill="#191970" stroke="#191970" points="436.3411,-253.4331 440.3905,-243.6427 431.1195,-248.771 436.3411,-253.4331"/>
</g>
<!-- Node7 -->
<g id="node8" class="node">
<title>Node7</title>
<g id="a_node8"><a xlink:href="Soundtrack_8hxx.html" target="_top" xlink:title="../engine/audio/Soundtrack.hxx">
<polygon fill="none" stroke="#000000" points="455.5,-112.5 455.5,-131.5 622.5,-131.5 622.5,-112.5 455.5,-112.5"/>
<text text-anchor="middle" x="539" y="-119.5" font-family="Helvetica,sans-Serif" font-size="10.00" fill="#000000">../engine/audio/Soundtrack.hxx</text>
</a>
</g>
</g>
<!-- Node0&#45;&gt;Node7 -->
<g id="edge22" class="edge">
<title>Node0&#45;&gt;Node7</title>
<path fill="none" stroke="#191970" d="M441.4527,-280.4255C475.3484,-271.8581 518.9375,-258.4506 530,-244 552.7053,-214.3406 548.4609,-167.8517 543.5797,-141.6563"/>
<polygon fill="#191970" stroke="#191970" points="546.9886,-140.858 541.5255,-131.7803 540.1353,-142.2836 546.9886,-140.858"/>
</g>
<!-- Node10 -->
<g id="node11" class="node">
<title>Node10</title>
<g id="a_node11"><a xlink:href="Meta_8hxx.html" target="_top" xlink:title="../../util/Meta.hxx">
<polygon fill="none" stroke="#000000" points="707,-56.5 707,-75.5 805,-75.5 805,-56.5 707,-56.5"/>
<text text-anchor="middle" x="756" y="-63.5" font-family="Helvetica,sans-Serif" font-size="10.00" fill="#000000">../../util/Meta.hxx</text>
</a>
</g>
</g>
<!-- Node0&#45;&gt;Node10 -->
<g id="edge31" class="edge">
<title>Node0&#45;&gt;Node10</title>
<path fill="none" stroke="#191970" d="M471.7302,-280.4641C555.1866,-265.2109 688.4344,-226.681 750,-132 758.8093,-118.4523 759.7583,-99.9036 758.8203,-85.9195"/>
<polygon fill="#191970" stroke="#191970" points="762.2907,-85.4514 757.7777,-75.8658 755.328,-86.1735 762.2907,-85.4514"/>
</g>
<!-- Node15 -->
<g id="node16" class="node">
<title>Node15</title>
<g id="a_node16"><a xlink:href="AudioConfig_8hxx.html" target="_top" xlink:title="../engine/audio/AudioConfig.hxx">
<polygon fill="none" stroke="#000000" points="311.5,-168.5 311.5,-187.5 482.5,-187.5 482.5,-168.5 311.5,-168.5"/>
<text text-anchor="middle" x="397" y="-175.5" font-family="Helvetica,sans-Serif" font-size="10.00" fill="#000000">../engine/audio/AudioConfig.hxx</text>
</a>
</g>
</g>
<!-- Node0&#45;&gt;Node15 -->
<g id="edge23" class="edge">
<title>Node0&#45;&gt;Node15</title>
<path fill="none" stroke="#191970" d="M390.2139,-280.2709C382.9314,-271.5036 373.1295,-257.8915 369,-244 363.9859,-227.1328 373.0491,-208.7669 382.1706,-195.7017"/>
<polygon fill="#191970" stroke="#191970" points="385.0703,-197.6703 388.3225,-187.5869 379.492,-193.4414 385.0703,-197.6703"/>
</g>
<!-- Node19 -->
<g id="node20" class="node">
<title>Node19</title>
<g id="a_node20"><a xlink:href="GameService_8hxx.html" target="_top" xlink:title="../GameService.hxx">
<polygon fill="none" stroke="#000000" points="797,-224.5 797,-243.5 909,-243.5 909,-224.5 797,-224.5"/>
<text text-anchor="middle" x="853" y="-231.5" font-family="Helvetica,sans-Serif" font-size="10.00" fill="#000000">../GameService.hxx</text>
</a>
</g>
</g>
<!-- Node0&#45;&gt;Node19 -->
<g id="edge24" class="edge">
<title>Node0&#45;&gt;Node19</title>
<path fill="none" stroke="#191970" d="M475.2008,-281.3874C552.7282,-272.5036 676.3186,-258.008 783,-244 784.2666,-243.8337 785.5459,-243.6644 786.8348,-243.4926"/>
<polygon fill="#191970" stroke="#191970" points="787.4119,-246.9464 796.8515,-242.1354 786.4721,-240.0098 787.4119,-246.9464"/>
</g>
<!-- Node6&#45;&gt;Node7 -->
<g id="edge7" class="edge">
<title>Node6&#45;&gt;Node7</title>
<path fill="none" stroke="#191970" d="M458.6172,-224.4708C467.6005,-215.3972 481.207,-201.2041 492,-188 504.7306,-172.4255 517.904,-153.6568 527.0532,-140.1222"/>
<polygon fill="#191970" stroke="#191970" points="530.0411,-141.9503 532.6895,-131.6918 524.2219,-138.0597 530.0411,-141.9503"/>
</g>
<!-- Node6&#45;&gt;Node15 -->
<g id="edge16" class="edge">
<title>Node6&#45;&gt;Node15</title>
<path fill="none" stroke="#191970" d="M439.9423,-224.2455C432.4858,-216.2155 421.7366,-204.6394 412.8583,-195.0781"/>
<polygon fill="#191970" stroke="#191970" points="415.3232,-192.589 405.9539,-187.6427 410.1937,-197.3522 415.3232,-192.589"/>
</g>
<!-- Node7&#45;&gt;Node4 -->
<g id="edge8" class="edge">
<title>Node7&#45;&gt;Node4</title>
<path fill="none" stroke="#191970" d="M500.5768,-112.4369C459.4136,-102.1918 394.4321,-86.0187 353.0349,-75.7154"/>
<polygon fill="#191970" stroke="#191970" points="353.8519,-72.312 343.3026,-73.2931 352.1612,-79.1047 353.8519,-72.312"/>
</g>
<!-- Node8 -->
<g id="node9" class="node">
<title>Node8</title>
<polygon fill="none" stroke="#bfbfbf" points="500.5,-56.5 500.5,-75.5 577.5,-75.5 577.5,-56.5 500.5,-56.5"/>
<text text-anchor="middle" x="539" y="-63.5" font-family="Helvetica,sans-Serif" font-size="10.00" fill="#000000">SDL_mixer.h</text>
</g>
<!-- Node7&#45;&gt;Node8 -->
<g id="edge9" class="edge">
<title>Node7&#45;&gt;Node8</title>
<path fill="none" stroke="#191970" d="M539,-112.2455C539,-104.9382 539,-94.6944 539,-85.7046"/>
<polygon fill="#191970" stroke="#191970" points="542.5001,-85.6426 539,-75.6427 535.5001,-85.6427 542.5001,-85.6426"/>
</g>
<!-- Node9 -->
<g id="node10" class="node">
<title>Node9</title>
<polygon fill="none" stroke="#bfbfbf" points="823,-56.5 823,-75.5 867,-75.5 867,-56.5 823,-56.5"/>
<text text-anchor="middle" x="845" y="-63.5" font-family="Helvetica,sans-Serif" font-size="10.00" fill="#000000">string</text>
</g>
<!-- Node7&#45;&gt;Node9 -->
<g id="edge10" class="edge">
<title>Node7&#45;&gt;Node9</title>
<path fill="none" stroke="#191970" d="M614.0068,-112.4757C667.2455,-105.0175 740.4809,-93.3497 812.9989,-75.9787"/>
<polygon fill="#191970" stroke="#191970" points="813.871,-79.3687 822.7604,-73.6043 812.2165,-72.567 813.871,-79.3687"/>
</g>
<!-- Node7&#45;&gt;Node10 -->
<g id="edge11" class="edge">
<title>Node7&#45;&gt;Node10</title>
<path fill="none" stroke="#191970" d="M576.3036,-112.3733C613.1685,-102.8598 669.666,-88.2797 709.4506,-78.0127"/>
<polygon fill="#191970" stroke="#191970" points="710.375,-81.3889 719.1831,-75.5011 708.6258,-74.611 710.375,-81.3889"/>
</g>
<!-- Node11 -->
<g id="node12" class="node">
<title>Node11</title>
<polygon fill="none" stroke="#bfbfbf" points="604,-.5 604,-19.5 664,-19.5 664,-.5 604,-.5"/>
<text text-anchor="middle" x="634" y="-7.5" font-family="Helvetica,sans-Serif" font-size="10.00" fill="#000000">iostream</text>
</g>
<!-- Node10&#45;&gt;Node11 -->
<g id="edge12" class="edge">
<title>Node10&#45;&gt;Node11</title>
<path fill="none" stroke="#191970" d="M735.0275,-56.3733C715.4433,-47.3838 686.0039,-33.8706 663.949,-23.7471"/>
<polygon fill="#191970" stroke="#191970" points="665.2473,-20.4919 654.6989,-19.5011 662.3271,-26.8538 665.2473,-20.4919"/>
</g>
<!-- Node12 -->
<g id="node13" class="node">
<title>Node12</title>
<polygon fill="none" stroke="#bfbfbf" points="682.5,-.5 682.5,-19.5 751.5,-19.5 751.5,-.5 682.5,-.5"/>
<text text-anchor="middle" x="717" y="-7.5" font-family="Helvetica,sans-Serif" font-size="10.00" fill="#000000">type_traits</text>
</g>
<!-- Node10&#45;&gt;Node12 -->
<g id="edge13" class="edge">
<title>Node10&#45;&gt;Node12</title>
<path fill="none" stroke="#191970" d="M749.2067,-56.2455C743.7822,-48.4564 736.0339,-37.3308 729.4967,-27.9439"/>
<polygon fill="#191970" stroke="#191970" points="732.3025,-25.8485 723.7154,-19.6427 726.5583,-29.849 732.3025,-25.8485"/>
</g>
<!-- Node13 -->
<g id="node14" class="node">
<title>Node13</title>
<polygon fill="none" stroke="#bfbfbf" points="769.5,-.5 769.5,-19.5 820.5,-19.5 820.5,-.5 769.5,-.5"/>
<text text-anchor="middle" x="795" y="-7.5" font-family="Helvetica,sans-Serif" font-size="10.00" fill="#000000">variant</text>
</g>
<!-- Node10&#45;&gt;Node13 -->
<g id="edge14" class="edge">
<title>Node10&#45;&gt;Node13</title>
<path fill="none" stroke="#191970" d="M762.7933,-56.2455C768.2178,-48.4564 775.9661,-37.3308 782.5033,-27.9439"/>
<polygon fill="#191970" stroke="#191970" points="785.4417,-29.849 788.2846,-19.6427 779.6975,-25.8485 785.4417,-29.849"/>
</g>
<!-- Node14 -->
<g id="node15" class="node">
<title>Node14</title>
<polygon fill="none" stroke="#bfbfbf" points="838.5,-.5 838.5,-19.5 879.5,-19.5 879.5,-.5 838.5,-.5"/>
<text text-anchor="middle" x="859" y="-7.5" font-family="Helvetica,sans-Serif" font-size="10.00" fill="#000000">tuple</text>
</g>
<!-- Node10&#45;&gt;Node14 -->
<g id="edge15" class="edge">
<title>Node10&#45;&gt;Node14</title>
<path fill="none" stroke="#191970" d="M773.9412,-56.2455C790.04,-47.4928 813.8879,-34.527 832.2391,-24.5496"/>
<polygon fill="#191970" stroke="#191970" points="834.1507,-27.4942 841.2644,-19.6427 830.8071,-21.3444 834.1507,-27.4942"/>
</g>
<!-- Node15&#45;&gt;Node3 -->
<g id="edge19" class="edge">
<title>Node15&#45;&gt;Node3</title>
<path fill="none" stroke="#191970" d="M367.6041,-168.3733C337.446,-158.4969 290.6146,-143.1603 259.154,-132.8575"/>
<polygon fill="#191970" stroke="#191970" points="260.113,-129.4887 249.5203,-129.7026 257.9344,-136.141 260.113,-129.4887"/>
</g>
<!-- Node15&#45;&gt;Node7 -->
<g id="edge17" class="edge">
<title>Node15&#45;&gt;Node7</title>
<path fill="none" stroke="#191970" d="M421.4107,-168.3733C444.6142,-159.2226 479.7038,-145.3844 505.5142,-135.2057"/>
<polygon fill="#191970" stroke="#191970" points="506.8892,-138.4258 514.9079,-131.5011 504.3211,-131.9139 506.8892,-138.4258"/>
</g>
<!-- Node16 -->
<g id="node17" class="node">
<title>Node16</title>
<polygon fill="none" stroke="#bfbfbf" points="267.5,-112.5 267.5,-131.5 360.5,-131.5 360.5,-112.5 267.5,-112.5"/>
<text text-anchor="middle" x="314" y="-119.5" font-family="Helvetica,sans-Serif" font-size="10.00" fill="#000000">unordered_map</text>
</g>
<!-- Node15&#45;&gt;Node16 -->
<g id="edge18" class="edge">
<title>Node15&#45;&gt;Node16</title>
<path fill="none" stroke="#191970" d="M382.5425,-168.2455C369.9268,-159.7337 351.4056,-147.2375 336.7955,-137.3801"/>
<polygon fill="#191970" stroke="#191970" points="338.5391,-134.3343 328.2918,-131.6427 334.6239,-140.1371 338.5391,-134.3343"/>
</g>
<!-- Node17 -->
<g id="node18" class="node">
<title>Node17</title>
<polygon fill="none" stroke="#bfbfbf" points="641,-112.5 641,-131.5 741,-131.5 741,-112.5 641,-112.5"/>
<text text-anchor="middle" x="691" y="-119.5" font-family="Helvetica,sans-Serif" font-size="10.00" fill="#000000">betterEnums.hxx</text>
</g>
<!-- Node15&#45;&gt;Node17 -->
<g id="edge20" class="edge">
<title>Node15&#45;&gt;Node17</title>
<path fill="none" stroke="#191970" d="M447.2063,-168.4369C498.0507,-158.7522 576.706,-143.7703 630.8513,-133.4569"/>
<polygon fill="#191970" stroke="#191970" points="631.8323,-136.8331 641.0007,-131.5237 630.5224,-129.9567 631.8323,-136.8331"/>
</g>
<!-- Node18 -->
<g id="node19" class="node">
<title>Node18</title>
<polygon fill="none" stroke="#bfbfbf" points="379,-112.5 379,-131.5 437,-131.5 437,-112.5 379,-112.5"/>
<text text-anchor="middle" x="408" y="-119.5" font-family="Helvetica,sans-Serif" font-size="10.00" fill="#000000">json.hxx</text>
</g>
<!-- Node15&#45;&gt;Node18 -->
<g id="edge21" class="edge">
<title>Node15&#45;&gt;Node18</title>
<path fill="none" stroke="#191970" d="M398.9161,-168.2455C400.3514,-160.9382 402.3636,-150.6944 404.1295,-141.7046"/>
<polygon fill="#191970" stroke="#191970" points="407.6127,-142.1298 406.1059,-131.6427 400.744,-140.7805 407.6127,-142.1298"/>
</g>
<!-- Node20 -->
<g id="node21" class="node">
<title>Node20</title>
<g id="a_node21"><a xlink:href="Events_8hxx.html" target="_top" xlink:title="Events.hxx">
<polygon fill="none" stroke="#000000" points="803.5,-168.5 803.5,-187.5 874.5,-187.5 874.5,-168.5 803.5,-168.5"/>
<text text-anchor="middle" x="839" y="-175.5" font-family="Helvetica,sans-Serif" font-size="10.00" fill="#000000">Events.hxx</text>
</a>
</g>
</g>
<!-- Node19&#45;&gt;Node20 -->
<g id="edge25" class="edge">
<title>Node19&#45;&gt;Node20</title>
<path fill="none" stroke="#191970" d="M850.5614,-224.2455C848.7145,-216.8579 846.1172,-206.4689 843.8522,-197.4087"/>
<polygon fill="#191970" stroke="#191970" points="847.2316,-196.4952 841.4107,-187.6427 840.4406,-198.193 847.2316,-196.4952"/>
</g>
<!-- Node22 -->
<g id="node23" class="node">
<title>Node22</title>
<g id="a_node23"><a xlink:href="GameService_8inl_8hxx.html" target="_top" xlink:title="GameService.inl.hxx">
<polygon fill="none" stroke="#000000" points="893,-168.5 893,-187.5 1011,-187.5 1011,-168.5 893,-168.5"/>
<text text-anchor="middle" x="952" y="-175.5" font-family="Helvetica,sans-Serif" font-size="10.00" fill="#000000">GameService.inl.hxx</text>
</a>
</g>
</g>
<!-- Node19&#45;&gt;Node22 -->
<g id="edge30" class="edge">
<title>Node19&#45;&gt;Node22</title>
<path fill="none" stroke="#191970" d="M870.2445,-224.2455C885.5761,-215.5731 908.2199,-202.7645 925.7916,-192.825"/>
<polygon fill="#191970" stroke="#191970" points="927.9724,-195.6126 934.9531,-187.6427 924.5259,-189.5198 927.9724,-195.6126"/>
</g>
<!-- Node20&#45;&gt;Node9 -->
<g id="edge26" class="edge">
<title>Node20&#45;&gt;Node9</title>
<path fill="none" stroke="#191970" d="M839.5116,-168.4509C840.4901,-150.184 842.6453,-109.9553 843.9448,-85.6976"/>
<polygon fill="#191970" stroke="#191970" points="847.4497,-85.6978 844.4897,-75.5249 840.4597,-85.3233 847.4497,-85.6978"/>
</g>
<!-- Node20&#45;&gt;Node10 -->
<g id="edge28" class="edge">
<title>Node20&#45;&gt;Node10</title>
<path fill="none" stroke="#191970" d="M831.9235,-168.4509C818.0188,-149.688 786.9433,-107.7548 769.1599,-83.758"/>
<polygon fill="#191970" stroke="#191970" points="771.8247,-81.4753 763.0586,-75.5249 766.2006,-85.6431 771.8247,-81.4753"/>
</g>
<!-- Node20&#45;&gt;Node17 -->
<g id="edge27" class="edge">
<title>Node20&#45;&gt;Node17</title>
<path fill="none" stroke="#191970" d="M813.5579,-168.3733C789.2674,-159.1822 752.4792,-145.2624 725.5457,-135.0713"/>
<polygon fill="#191970" stroke="#191970" points="726.7016,-131.7666 716.1101,-131.5011 724.2243,-138.3136 726.7016,-131.7666"/>
</g>
<!-- Node21 -->
<g id="node22" class="node">
<title>Node21</title>
<g id="a_node22"><a xlink:href="UIEvents_8hxx.html" target="_top" xlink:title="events/UIEvents.hxx">
<polygon fill="none" stroke="#000000" points="873.5,-112.5 873.5,-131.5 990.5,-131.5 990.5,-112.5 873.5,-112.5"/>
<text text-anchor="middle" x="932" y="-119.5" font-family="Helvetica,sans-Serif" font-size="10.00" fill="#000000">events/UIEvents.hxx</text>
</a>
</g>
</g>
<!-- Node20&#45;&gt;Node21 -->
<g id="edge29" class="edge">
<title>Node20&#45;&gt;Node21</title>
<path fill="none" stroke="#191970" d="M855.1994,-168.2455C869.6018,-159.5731 890.8732,-146.7645 907.3799,-136.825"/>
<polygon fill="#191970" stroke="#191970" points="909.225,-139.7996 915.9863,-131.6427 905.614,-133.8028 909.225,-139.7996"/>
</g>
</g>
</svg>
        <g id="navigator" transform="translate(0 0)" fill="#404254">
                <rect fill="#f2f5e9" fill-opacity="0.5" stroke="#606060" stroke-width=".5" x="0" y="0" width="60" height="60"/>
                <use id="zoomplus" xlink:href="#zoomPlus" x="17" y="9" onmousedown="handleZoom(evt,'in')"/>
                <use id="zoomminus" xlink:href="#zoomMin" x="42" y="9" onmousedown="handleZoom(evt,'out')"/>
                <use id="reset" xlink:href="#resetDef" x="30" y="36" onmousedown="handleReset()"/>
                <g id="arrowUp" xlink:href="#dirArrow" transform="translate(30 24)" onmousedown="handlePan(0,-1)">
                  <use xlink:href="#rim" fill="#404040">
                        <set attributeName="fill" to="#808080" begin="arrowUp.mouseover" end="arrowUp.mouseout"/>
                  </use>
                  <path fill="none" stroke="white" stroke-width="1.5" d="M0,-3.0v7 M-2.5,-0.5L0,-3.0L2.5,-0.5"/>
                </g>
                <g id="arrowRight" xlink:href="#dirArrow" transform="rotate(90) translate(36 -43)" onmousedown="handlePan(1,0)">
                  <use xlink:href="#rim" fill="#404040">
                        <set attributeName="fill" to="#808080" begin="arrowRight.mouseover" end="arrowRight.mouseout"/>
                  </use>
                  <path fill="none" stroke="white" stroke-width="1.5" d="M0,-3.0v7 M-2.5,-0.5L0,-3.0L2.5,-0.5"/>
                </g>
                <g id="arrowDown" xlink:href="#dirArrow" transform="rotate(180) translate(-30 -48)" onmousedown="handlePan(0,1)">
                  <use xlink:href="#rim" fill="#404040">
                        <set attributeName="fill" to="#808080" begin="arrowDown.mouseover" end="arrowDown.mouseout"/>
                  </use>
                  <path fill="none" stroke="white" stroke-width="1.5" d="M0,-3.0v7 M-2.5,-0.5L0,-3.0L2.5,-0.5"/>
                </g>
                <g id="arrowLeft" xlink:href="#dirArrow" transform="rotate(270) translate(-36 17)" onmousedown="handlePan(-1,0)">
                  <use xlink:href="#rim" fill="#404040">
                        <set attributeName="fill" to="#808080" begin="arrowLeft.mouseover" end="arrowLeft.mouseout"/>
                  </use>
                  <path fill="none" stroke="white" stroke-width="1.5" d="M0,-3.0v7 M-2.5,-0.5L0,-3.0L2.5,-0.5"/>
                </g>
        </g>
        <svg viewBox="0 0 15 15" width="100%" height="30px" preserveAspectRatio="xMaxYMin meet">
         <g id="arrow_out" transform="scale(0.3 0.3)">
          <a xlink:href="AudioMixer_8hxx__incl_org.svg" target="_base">
           <rect id="button" ry="5" rx="5" y="6" x="6" height="38" width="38"
                fill="#f2f5e9" fill-opacity="0.5" stroke="#606060" stroke-width="1.0"/>
           <path id="arrow"
             d="M 11.500037,31.436501 C 11.940474,20.09759 22.043105,11.32322 32.158766,21.979434 L 37.068811,17.246167 C 37.068811,17.246167 37.088388,32 37.088388,32 L 22.160133,31.978069 C 22.160133,31.978069 26.997745,27.140456 26.997745,27.140456 C 18.528582,18.264221 13.291696,25.230495 11.500037,31.436501 z"
             style="fill:#404040;"/>
          </a>
         </g>
        </svg>
</svg>
