<?xml version="1.0" encoding="UTF-8" standalone="no"?>
<!DOCTYPE svg PUBLIC "-//W3C//DTD SVG 1.1//EN"
 "http://www.w3.org/Graphics/SVG/1.1/DTD/svg11.dtd">
<!-- Generated by graphviz version 2.40.1 (20161225.0304)
 -->
<!-- Title: src/engine/ui/widgets/Button.cxx Pages: 1 -->
<svg width="2082pt" height="487pt"
 viewBox="0.00 0.00 2082.16 487.00" xmlns="http://www.w3.org/2000/svg" xmlns:xlink="http://www.w3.org/1999/xlink">
<g id="graph0" class="graph" transform="scale(1 1) rotate(0) translate(4 483)">
<title>src/engine/ui/widgets/Button.cxx</title>
<!-- Node0 -->
<g id="node1" class="node">
<title>Node0</title>
<polygon fill="#bfbfbf" stroke="#000000" points="658.1619,-448.5 658.1619,-478.5 778.1619,-478.5 778.1619,-448.5 658.1619,-448.5"/>
<text text-anchor="start" x="666.1619" y="-466.5" font-family="Helvetica,sans-Serif" font-size="10.00" fill="#000000">src/engine/ui/widgets</text>
<text text-anchor="middle" x="718.1619" y="-455.5" font-family="Helvetica,sans-Serif" font-size="10.00" fill="#000000">/Button.cxx</text>
</g>
<!-- Node1 -->
<g id="node2" class="node">
<title>Node1</title>
<g id="a_node2"><a xlink:href="Button_8hxx.html" target="_top" xlink:title="Button.hxx">
<polygon fill="none" stroke="#000000" points="636.1619,-392.5 636.1619,-411.5 706.1619,-411.5 706.1619,-392.5 636.1619,-392.5"/>
<text text-anchor="middle" x="671.1619" y="-399.5" font-family="Helvetica,sans-Serif" font-size="10.00" fill="#000000">Button.hxx</text>
</a>
</g>
</g>
<!-- Node0&#45;&gt;Node1 -->
<g id="edge1" class="edge">
<title>Node0&#45;&gt;Node1</title>
<path fill="none" stroke="#191970" d="M706.5439,-448.2977C699.9518,-439.672 691.667,-428.8312 684.7717,-419.8087"/>
<polygon fill="#191970" stroke="#191970" points="687.5402,-417.6671 678.6872,-411.8469 681.9784,-421.9176 687.5402,-417.6671"/>
</g>
<!-- Node25 -->
<g id="node26" class="node">
<title>Node25</title>
<g id="a_node26"><a xlink:href="LOG_8hxx.html" target="_top" xlink:title="LOG.hxx">
<polygon fill="none" stroke="#000000" points="1432.1619,-224.5 1432.1619,-243.5 1490.1619,-243.5 1490.1619,-224.5 1432.1619,-224.5"/>
<text text-anchor="middle" x="1461.1619" y="-231.5" font-family="Helvetica,sans-Serif" font-size="10.00" fill="#000000">LOG.hxx</text>
</a>
</g>
</g>
<!-- Node0&#45;&gt;Node25 -->
<g id="edge39" class="edge">
<title>Node0&#45;&gt;Node25</title>
<path fill="none" stroke="#191970" d="M766.9122,-448.4419C905.0621,-405.7697 1297.2257,-284.6371 1422.3135,-245.9996"/>
<polygon fill="#191970" stroke="#191970" points="1423.3565,-249.3407 1431.8781,-243.0452 1421.2906,-242.6525 1423.3565,-249.3407"/>
</g>
<!-- Node2 -->
<g id="node3" class="node">
<title>Node2</title>
<g id="a_node3"><a xlink:href="UIElement_8hxx.html" target="_top" xlink:title="../basics/UIElement.hxx">
<polygon fill="none" stroke="#000000" points="577.6619,-280.5 577.6619,-299.5 708.6619,-299.5 708.6619,-280.5 577.6619,-280.5"/>
<text text-anchor="middle" x="643.1619" y="-287.5" font-family="Helvetica,sans-Serif" font-size="10.00" fill="#000000">../basics/UIElement.hxx</text>
</a>
</g>
</g>
<!-- Node1&#45;&gt;Node2 -->
<g id="edge2" class="edge">
<title>Node1&#45;&gt;Node2</title>
<path fill="none" stroke="#191970" d="M668.7746,-392.4509C664.1872,-374.1013 654.0596,-333.5908 648.0042,-309.3693"/>
<polygon fill="#191970" stroke="#191970" points="651.364,-308.3774 645.5431,-299.5249 644.573,-310.0752 651.364,-308.3774"/>
</g>
<!-- Node24 -->
<g id="node25" class="node">
<title>Node24</title>
<g id="a_node25"><a xlink:href="Text_8hxx.html" target="_top" xlink:title="Text.hxx">
<polygon fill="none" stroke="#000000" points="585.1619,-336.5 585.1619,-355.5 643.1619,-355.5 643.1619,-336.5 585.1619,-336.5"/>
<text text-anchor="middle" x="614.1619" y="-343.5" font-family="Helvetica,sans-Serif" font-size="10.00" fill="#000000">Text.hxx</text>
</a>
</g>
</g>
<!-- Node1&#45;&gt;Node24 -->
<g id="edge36" class="edge">
<title>Node1&#45;&gt;Node24</title>
<path fill="none" stroke="#191970" d="M661.2332,-392.2455C652.9781,-384.1352 641.0409,-372.4075 631.2536,-362.7919"/>
<polygon fill="#191970" stroke="#191970" points="633.563,-360.1542 623.9767,-355.6427 628.6572,-365.1476 633.563,-360.1542"/>
</g>
<!-- Node3 -->
<g id="node4" class="node">
<title>Node3</title>
<polygon fill="none" stroke="#bfbfbf" points="486.1619,-56.5 486.1619,-75.5 530.1619,-75.5 530.1619,-56.5 486.1619,-56.5"/>
<text text-anchor="middle" x="508.1619" y="-63.5" font-family="Helvetica,sans-Serif" font-size="10.00" fill="#000000">string</text>
</g>
<!-- Node2&#45;&gt;Node3 -->
<g id="edge3" class="edge">
<title>Node2&#45;&gt;Node3</title>
<path fill="none" stroke="#191970" d="M581.8529,-280.4158C559.9513,-273.8329 537.2351,-262.729 523.1619,-244 487.6917,-196.7955 496.6849,-121.3481 503.6238,-85.7783"/>
<polygon fill="#191970" stroke="#191970" points="507.1067,-86.2242 505.7456,-75.7172 500.2573,-84.7797 507.1067,-86.2242"/>
</g>
<!-- Node4 -->
<g id="node5" class="node">
<title>Node4</title>
<g id="a_node5"><a xlink:href="mapEdit_8hxx.html" target="_top" xlink:title="../../basics/mapEdit.hxx">
<polygon fill="none" stroke="#000000" points="532.1619,-224.5 532.1619,-243.5 662.1619,-243.5 662.1619,-224.5 532.1619,-224.5"/>
<text text-anchor="middle" x="597.1619" y="-231.5" font-family="Helvetica,sans-Serif" font-size="10.00" fill="#000000">../../basics/mapEdit.hxx</text>
</a>
</g>
</g>
<!-- Node2&#45;&gt;Node4 -->
<g id="edge4" class="edge">
<title>Node2&#45;&gt;Node4</title>
<path fill="none" stroke="#191970" d="M635.1493,-280.2455C628.6851,-272.3761 619.4234,-261.101 611.6635,-251.6542"/>
<polygon fill="#191970" stroke="#191970" points="614.1346,-249.1484 605.0826,-243.6427 608.7255,-253.5916 614.1346,-249.1484"/>
</g>
<!-- Node5 -->
<g id="node6" class="node">
<title>Node5</title>
<g id="a_node6"><a xlink:href="ResourcesManager_8hxx.html" target="_top" xlink:title="../../ResourcesManager.hxx">
<polygon fill="none" stroke="#000000" points="330.1619,-224.5 330.1619,-243.5 476.1619,-243.5 476.1619,-224.5 330.1619,-224.5"/>
<text text-anchor="middle" x="403.1619" y="-231.5" font-family="Helvetica,sans-Serif" font-size="10.00" fill="#000000">../../ResourcesManager.hxx</text>
</a>
</g>
</g>
<!-- Node2&#45;&gt;Node5 -->
<g id="edge6" class="edge">
<title>Node2&#45;&gt;Node5</title>
<path fill="none" stroke="#191970" d="M602.1771,-280.4369C561.1892,-270.8731 498.0614,-256.1432 453.9262,-245.845"/>
<polygon fill="#191970" stroke="#191970" points="454.5113,-242.3876 443.9776,-243.5237 452.9207,-249.2045 454.5113,-242.3876"/>
</g>
<!-- Node8 -->
<g id="node9" class="node">
<title>Node8</title>
<polygon fill="none" stroke="#bfbfbf" points="672.1619,-112.5 672.1619,-131.5 716.1619,-131.5 716.1619,-112.5 672.1619,-112.5"/>
<text text-anchor="middle" x="694.1619" y="-119.5" font-family="Helvetica,sans-Serif" font-size="10.00" fill="#000000">SDL.h</text>
</g>
<!-- Node2&#45;&gt;Node8 -->
<g id="edge35" class="edge">
<title>Node2&#45;&gt;Node8</title>
<path fill="none" stroke="#191970" d="M650.4973,-280.313C656.9172,-271.3574 666.0015,-257.4413 671.1619,-244 684.3662,-209.606 690.1914,-166.7518 692.6047,-142.0685"/>
<polygon fill="#191970" stroke="#191970" points="696.117,-142.0834 693.5104,-131.8142 689.1441,-141.4675 696.117,-142.0834"/>
</g>
<!-- Node18 -->
<g id="node19" class="node">
<title>Node18</title>
<g id="a_node19"><a xlink:href="WindowManager_8hxx.html" target="_top" xlink:title="../../WindowManager.hxx">
<polygon fill="none" stroke="#000000" points="701.1619,-168.5 701.1619,-187.5 837.1619,-187.5 837.1619,-168.5 701.1619,-168.5"/>
<text text-anchor="middle" x="769.1619" y="-175.5" font-family="Helvetica,sans-Serif" font-size="10.00" fill="#000000">../../WindowManager.hxx</text>
</a>
</g>
</g>
<!-- Node2&#45;&gt;Node18 -->
<g id="edge23" class="edge">
<title>Node2&#45;&gt;Node18</title>
<path fill="none" stroke="#191970" d="M657.1802,-280.323C669.8454,-271.3742 688.7994,-257.4624 704.1619,-244 721.7906,-228.5516 740.4154,-209.3004 753.1877,-195.584"/>
<polygon fill="#191970" stroke="#191970" points="756.1193,-197.5677 760.3228,-187.8424 750.972,-192.8237 756.1193,-197.5677"/>
</g>
<!-- Node19 -->
<g id="node20" class="node">
<title>Node19</title>
<g id="a_node20"><a xlink:href="signal_8hxx.html" target="_top" xlink:title="../../basics/signal.hxx">
<polygon fill="none" stroke="#000000" points="975.6619,-224.5 975.6619,-243.5 1094.6619,-243.5 1094.6619,-224.5 975.6619,-224.5"/>
<text text-anchor="middle" x="1035.1619" y="-231.5" font-family="Helvetica,sans-Serif" font-size="10.00" fill="#000000">../../basics/signal.hxx</text>
</a>
</g>
</g>
<!-- Node2&#45;&gt;Node19 -->
<g id="edge29" class="edge">
<title>Node2&#45;&gt;Node19</title>
<path fill="none" stroke="#191970" d="M708.7739,-280.6269C779.8618,-270.4714 892.8299,-254.3331 965.4725,-243.9556"/>
<polygon fill="#191970" stroke="#191970" points="966.042,-247.4099 975.4465,-242.5308 965.052,-240.4802 966.042,-247.4099"/>
</g>
<!-- Node4&#45;&gt;Node3 -->
<g id="edge5" class="edge">
<title>Node4&#45;&gt;Node3</title>
<path fill="none" stroke="#191970" d="M604.1084,-224.1966C618.7787,-202.1769 649.6344,-147.9177 625.1619,-112 615.2521,-97.4558 571.3966,-82.981 540.2968,-74.2601"/>
<polygon fill="#191970" stroke="#191970" points="540.8753,-70.79 530.3064,-71.5314 539.0309,-77.5426 540.8753,-70.79"/>
</g>
<!-- Node6 -->
<g id="node7" class="node">
<title>Node6</title>
<polygon fill="none" stroke="#bfbfbf" points="911.1619,-112.5 911.1619,-131.5 971.1619,-131.5 971.1619,-112.5 911.1619,-112.5"/>
<text text-anchor="middle" x="941.1619" y="-119.5" font-family="Helvetica,sans-Serif" font-size="10.00" fill="#000000">iostream</text>
</g>
<!-- Node5&#45;&gt;Node6 -->
<g id="edge7" class="edge">
<title>Node5&#45;&gt;Node6</title>
<path fill="none" stroke="#191970" d="M476.2366,-227.37C597.5842,-216.2246 829.1033,-194.33 846.1619,-188 862.0224,-182.1145 898.1525,-155.3903 921.0035,-137.8049"/>
<polygon fill="#191970" stroke="#191970" points="923.2815,-140.4675 929.0412,-131.5751 918.9932,-134.9348 923.2815,-140.4675"/>
</g>
<!-- Node7 -->
<g id="node8" class="node">
<title>Node7</title>
<polygon fill="none" stroke="#bfbfbf" points="29.6619,-112.5 29.6619,-131.5 122.6619,-131.5 122.6619,-112.5 29.6619,-112.5"/>
<text text-anchor="middle" x="76.1619" y="-119.5" font-family="Helvetica,sans-Serif" font-size="10.00" fill="#000000">unordered_map</text>
</g>
<!-- Node5&#45;&gt;Node7 -->
<g id="edge8" class="edge">
<title>Node5&#45;&gt;Node7</title>
<path fill="none" stroke="#191970" d="M375.282,-224.4509C316.5191,-204.3242 179.9152,-157.5363 113.6071,-134.8253"/>
<polygon fill="#191970" stroke="#191970" points="114.5657,-131.4541 103.9711,-131.5249 112.2975,-138.0764 114.5657,-131.4541"/>
</g>
<!-- Node5&#45;&gt;Node8 -->
<g id="edge9" class="edge">
<title>Node5&#45;&gt;Node8</title>
<path fill="none" stroke="#191970" d="M427.9724,-224.4509C480.7234,-204.1481 603.963,-156.7157 662.3731,-134.2348"/>
<polygon fill="#191970" stroke="#191970" points="663.7579,-137.4522 671.8333,-130.5938 661.2435,-130.9194 663.7579,-137.4522"/>
</g>
<!-- Node9 -->
<g id="node10" class="node">
<title>Node9</title>
<g id="a_node10"><a xlink:href="TileManager_8hxx.html" target="_top" xlink:title="TileManager.hxx">
<polygon fill="none" stroke="#000000" points="312.6619,-168.5 312.6619,-187.5 409.6619,-187.5 409.6619,-168.5 312.6619,-168.5"/>
<text text-anchor="middle" x="361.1619" y="-175.5" font-family="Helvetica,sans-Serif" font-size="10.00" fill="#000000">TileManager.hxx</text>
</a>
</g>
</g>
<!-- Node5&#45;&gt;Node9 -->
<g id="edge10" class="edge">
<title>Node5&#45;&gt;Node9</title>
<path fill="none" stroke="#191970" d="M395.846,-224.2455C389.944,-216.3761 381.4876,-205.101 374.4025,-195.6542"/>
<polygon fill="#191970" stroke="#191970" points="377.1939,-193.5427 368.3939,-187.6427 371.5939,-197.7427 377.1939,-193.5427"/>
</g>
<!-- Node9&#45;&gt;Node3 -->
<g id="edge13" class="edge">
<title>Node9&#45;&gt;Node3</title>
<path fill="none" stroke="#191970" d="M312.5175,-173.074C261.8866,-166.8241 187.5746,-154.1043 170.1619,-132 164.6613,-125.0174 164.2538,-118.6413 170.1619,-112 213.9443,-62.7835 394.3619,-88.2947 476.0341,-75.5871"/>
<polygon fill="#191970" stroke="#191970" points="476.7639,-79.0114 485.9531,-73.738 475.481,-72.13 476.7639,-79.0114"/>
</g>
<!-- Node9&#45;&gt;Node7 -->
<g id="edge12" class="edge">
<title>Node9&#45;&gt;Node7</title>
<path fill="none" stroke="#191970" d="M312.4924,-168.4369C262.6071,-158.6349 185.1047,-143.4063 132.5712,-133.0839"/>
<polygon fill="#191970" stroke="#191970" points="133.2264,-129.6458 122.7392,-131.152 131.8767,-136.5145 133.2264,-129.6458"/>
</g>
<!-- Node9&#45;&gt;Node8 -->
<g id="edge11" class="edge">
<title>Node9&#45;&gt;Node8</title>
<path fill="none" stroke="#191970" d="M409.9395,-169.7971C478.9868,-158.1856 603.3345,-137.2743 661.9405,-127.4186"/>
<polygon fill="#191970" stroke="#191970" points="662.8092,-130.8218 672.0903,-125.7117 661.6483,-123.9187 662.8092,-130.8218"/>
</g>
<!-- Node10 -->
<g id="node11" class="node">
<title>Node10</title>
<g id="a_node11"><a xlink:href="tileData_8hxx.html" target="_top" xlink:title="tileData.hxx">
<polygon fill="none" stroke="#000000" points="398.6619,-112.5 398.6619,-131.5 475.6619,-131.5 475.6619,-112.5 398.6619,-112.5"/>
<text text-anchor="middle" x="437.1619" y="-119.5" font-family="Helvetica,sans-Serif" font-size="10.00" fill="#000000">tileData.hxx</text>
</a>
</g>
</g>
<!-- Node9&#45;&gt;Node10 -->
<g id="edge14" class="edge">
<title>Node9&#45;&gt;Node10</title>
<path fill="none" stroke="#191970" d="M374.4001,-168.2455C385.8428,-159.814 402.5915,-147.4729 415.9093,-137.6598"/>
<polygon fill="#191970" stroke="#191970" points="418.101,-140.3924 424.0754,-131.6427 413.9486,-134.757 418.101,-140.3924"/>
</g>
<!-- Node15 -->
<g id="node16" class="node">
<title>Node15</title>
<polygon fill="none" stroke="#bfbfbf" points="179.1619,-112.5 179.1619,-131.5 237.1619,-131.5 237.1619,-112.5 179.1619,-112.5"/>
<text text-anchor="middle" x="208.1619" y="-119.5" font-family="Helvetica,sans-Serif" font-size="10.00" fill="#000000">json.hxx</text>
</g>
<!-- Node9&#45;&gt;Node15 -->
<g id="edge20" class="edge">
<title>Node9&#45;&gt;Node15</title>
<path fill="none" stroke="#191970" d="M334.8602,-168.3733C309.7491,-159.1822 271.718,-145.2624 243.8747,-135.0713"/>
<polygon fill="#191970" stroke="#191970" points="244.7141,-131.6516 234.1203,-131.5011 242.308,-138.2251 244.7141,-131.6516"/>
</g>
<!-- Node16 -->
<g id="node17" class="node">
<title>Node16</title>
<g id="a_node17"><a xlink:href="Singleton_8hxx.html" target="_top" xlink:title="Singleton.hxx">
<polygon fill="none" stroke="#000000" points="532.6619,-112.5 532.6619,-131.5 615.6619,-131.5 615.6619,-112.5 532.6619,-112.5"/>
<text text-anchor="middle" x="574.1619" y="-119.5" font-family="Helvetica,sans-Serif" font-size="10.00" fill="#000000">Singleton.hxx</text>
</a>
</g>
</g>
<!-- Node9&#45;&gt;Node16 -->
<g id="edge21" class="edge">
<title>Node9&#45;&gt;Node16</title>
<path fill="none" stroke="#191970" d="M397.7779,-168.3733C433.8098,-158.9001 488.9497,-144.4032 527.9732,-134.1435"/>
<polygon fill="#191970" stroke="#191970" points="529.2423,-137.4289 538.0237,-131.5011 527.4624,-130.6589 529.2423,-137.4289"/>
</g>
<!-- Node17 -->
<g id="node18" class="node">
<title>Node17</title>
<polygon fill="none" stroke="#bfbfbf" points="255.6619,-112.5 255.6619,-131.5 380.6619,-131.5 380.6619,-112.5 255.6619,-112.5"/>
<text text-anchor="middle" x="318.1619" y="-119.5" font-family="Helvetica,sans-Serif" font-size="10.00" fill="#000000">../common/enums.hxx</text>
</g>
<!-- Node9&#45;&gt;Node17 -->
<g id="edge22" class="edge">
<title>Node9&#45;&gt;Node17</title>
<path fill="none" stroke="#191970" d="M353.6718,-168.2455C347.6292,-160.3761 338.9716,-149.101 331.7178,-139.6542"/>
<polygon fill="#191970" stroke="#191970" points="334.4324,-137.4426 325.5661,-131.6427 328.8803,-141.7058 334.4324,-137.4426"/>
</g>
<!-- Node10&#45;&gt;Node3 -->
<g id="edge15" class="edge">
<title>Node10&#45;&gt;Node3</title>
<path fill="none" stroke="#191970" d="M449.5291,-112.2455C460.1173,-103.8943 475.5683,-91.7076 487.9512,-81.9408"/>
<polygon fill="#191970" stroke="#191970" points="490.2522,-84.5837 495.9363,-75.6427 485.9171,-79.0875 490.2522,-84.5837"/>
</g>
<!-- Node11 -->
<g id="node12" class="node">
<title>Node11</title>
<polygon fill="none" stroke="#bfbfbf" points="758.6619,-56.5 758.6619,-75.5 805.6619,-75.5 805.6619,-56.5 758.6619,-56.5"/>
<text text-anchor="middle" x="782.1619" y="-63.5" font-family="Helvetica,sans-Serif" font-size="10.00" fill="#000000">vector</text>
</g>
<!-- Node10&#45;&gt;Node11 -->
<g id="edge16" class="edge">
<title>Node10&#45;&gt;Node11</title>
<path fill="none" stroke="#191970" d="M475.7335,-115.7391C543.6903,-104.7084 683.6559,-81.9894 748.1964,-71.5132"/>
<polygon fill="#191970" stroke="#191970" points="748.9386,-74.9387 758.2486,-69.8816 747.817,-68.0291 748.9386,-74.9387"/>
</g>
<!-- Node12 -->
<g id="node13" class="node">
<title>Node12</title>
<g id="a_node13"><a xlink:href="enums_8hxx.html" target="_top" xlink:title="enums.hxx">
<polygon fill="none" stroke="#000000" points="396.6619,-56.5 396.6619,-75.5 467.6619,-75.5 467.6619,-56.5 396.6619,-56.5"/>
<text text-anchor="middle" x="432.1619" y="-63.5" font-family="Helvetica,sans-Serif" font-size="10.00" fill="#000000">enums.hxx</text>
</a>
</g>
</g>
<!-- Node10&#45;&gt;Node12 -->
<g id="edge17" class="edge">
<title>Node10&#45;&gt;Node12</title>
<path fill="none" stroke="#191970" d="M436.2909,-112.2455C435.6385,-104.9382 434.7239,-94.6944 433.9212,-85.7046"/>
<polygon fill="#191970" stroke="#191970" points="437.3984,-85.2918 433.0228,-75.6427 430.4261,-85.9143 437.3984,-85.2918"/>
</g>
<!-- Node13 -->
<g id="node14" class="node">
<title>Node13</title>
<polygon fill="none" stroke="#bfbfbf" points="356.1619,-.5 356.1619,-19.5 412.1619,-19.5 412.1619,-.5 356.1619,-.5"/>
<text text-anchor="middle" x="384.1619" y="-7.5" font-family="Helvetica,sans-Serif" font-size="10.00" fill="#000000">stddef.h</text>
</g>
<!-- Node12&#45;&gt;Node13 -->
<g id="edge18" class="edge">
<title>Node12&#45;&gt;Node13</title>
<path fill="none" stroke="#191970" d="M423.8009,-56.2455C416.9869,-48.2958 407.1938,-36.8706 399.0466,-27.3656"/>
<polygon fill="#191970" stroke="#191970" points="401.5924,-24.9575 392.427,-19.6427 396.2776,-29.513 401.5924,-24.9575"/>
</g>
<!-- Node14 -->
<g id="node15" class="node">
<title>Node14</title>
<polygon fill="none" stroke="#bfbfbf" points="430.1619,-.5 430.1619,-19.5 530.1619,-19.5 530.1619,-.5 430.1619,-.5"/>
<text text-anchor="middle" x="480.1619" y="-7.5" font-family="Helvetica,sans-Serif" font-size="10.00" fill="#000000">betterEnums.hxx</text>
</g>
<!-- Node12&#45;&gt;Node14 -->
<g id="edge19" class="edge">
<title>Node12&#45;&gt;Node14</title>
<path fill="none" stroke="#191970" d="M440.5228,-56.2455C447.3369,-48.2958 457.13,-36.8706 465.2771,-27.3656"/>
<polygon fill="#191970" stroke="#191970" points="468.0462,-29.513 471.8967,-19.6427 462.7314,-24.9575 468.0462,-29.513"/>
</g>
<!-- Node18&#45;&gt;Node3 -->
<g id="edge24" class="edge">
<title>Node18&#45;&gt;Node3</title>
<path fill="none" stroke="#191970" d="M765.4579,-168.1698C759.3938,-153.4903 745.9064,-126.0658 725.1619,-112 695.3418,-91.7805 593.1891,-76.5441 540.3692,-69.808"/>
<polygon fill="#191970" stroke="#191970" points="540.5511,-66.3036 530.1946,-68.5379 539.684,-73.2497 540.5511,-66.3036"/>
</g>
<!-- Node18&#45;&gt;Node6 -->
<g id="edge25" class="edge">
<title>Node18&#45;&gt;Node6</title>
<path fill="none" stroke="#191970" d="M798.7297,-168.3733C827.3307,-159.0613 870.8407,-144.8953 902.2437,-134.671"/>
<polygon fill="#191970" stroke="#191970" points="903.5547,-137.9251 911.9798,-131.5011 901.3876,-131.269 903.5547,-137.9251"/>
</g>
<!-- Node18&#45;&gt;Node8 -->
<g id="edge27" class="edge">
<title>Node18&#45;&gt;Node8</title>
<path fill="none" stroke="#191970" d="M756.0979,-168.2455C744.8056,-159.814 728.2774,-147.4729 715.1348,-137.6598"/>
<polygon fill="#191970" stroke="#191970" points="717.183,-134.8211 707.0762,-131.6427 712.995,-140.4301 717.183,-134.8211"/>
</g>
<!-- Node18&#45;&gt;Node11 -->
<g id="edge26" class="edge">
<title>Node18&#45;&gt;Node11</title>
<path fill="none" stroke="#191970" d="M770.2702,-168.4509C772.3905,-150.184 777.0599,-109.9553 779.8755,-85.6976"/>
<polygon fill="#191970" stroke="#191970" points="783.3799,-85.8618 781.0563,-75.5249 776.4266,-85.0546 783.3799,-85.8618"/>
</g>
<!-- Node18&#45;&gt;Node16 -->
<g id="edge28" class="edge">
<title>Node18&#45;&gt;Node16</title>
<path fill="none" stroke="#191970" d="M735.6402,-168.3733C702.7935,-158.9404 652.6023,-144.5265 616.9041,-134.2747"/>
<polygon fill="#191970" stroke="#191970" points="617.8238,-130.8974 607.2461,-131.5011 615.8915,-137.6255 617.8238,-130.8974"/>
</g>
<!-- Node19&#45;&gt;Node11 -->
<g id="edge33" class="edge">
<title>Node19&#45;&gt;Node11</title>
<path fill="none" stroke="#191970" d="M1054.9516,-224.3812C1077.0646,-212.2616 1108.0574,-190.3075 1094.1619,-168 1064.0075,-119.5913 890.2788,-84.5271 815.9194,-71.5329"/>
<polygon fill="#191970" stroke="#191970" points="816.1466,-68.0207 805.6983,-69.7768 814.9613,-74.9196 816.1466,-68.0207"/>
</g>
<!-- Node20 -->
<g id="node21" class="node">
<title>Node20</title>
<polygon fill="none" stroke="#bfbfbf" points="893.1619,-168.5 893.1619,-187.5 951.1619,-187.5 951.1619,-168.5 893.1619,-168.5"/>
<text text-anchor="middle" x="922.1619" y="-175.5" font-family="Helvetica,sans-Serif" font-size="10.00" fill="#000000">memory</text>
</g>
<!-- Node19&#45;&gt;Node20 -->
<g id="edge30" class="edge">
<title>Node19&#45;&gt;Node20</title>
<path fill="none" stroke="#191970" d="M1015.7365,-224.3733C997.7597,-215.4644 970.8178,-202.1127 950.4528,-192.0203"/>
<polygon fill="#191970" stroke="#191970" points="951.848,-188.8055 941.3338,-187.5011 948.7397,-195.0776 951.848,-188.8055"/>
</g>
<!-- Node21 -->
<g id="node22" class="node">
<title>Node21</title>
<polygon fill="none" stroke="#bfbfbf" points="969.6619,-168.5 969.6619,-187.5 1034.6619,-187.5 1034.6619,-168.5 969.6619,-168.5"/>
<text text-anchor="middle" x="1002.1619" y="-175.5" font-family="Helvetica,sans-Serif" font-size="10.00" fill="#000000">functional</text>
</g>
<!-- Node19&#45;&gt;Node21 -->
<g id="edge31" class="edge">
<title>Node19&#45;&gt;Node21</title>
<path fill="none" stroke="#191970" d="M1029.4137,-224.2455C1024.9183,-216.617 1018.537,-205.7881 1013.0794,-196.5267"/>
<polygon fill="#191970" stroke="#191970" points="1015.9365,-194.4811 1007.8442,-187.6427 1009.9057,-198.035 1015.9365,-194.4811"/>
</g>
<!-- Node22 -->
<g id="node23" class="node">
<title>Node22</title>
<polygon fill="none" stroke="#bfbfbf" points="1053.1619,-168.5 1053.1619,-187.5 1085.1619,-187.5 1085.1619,-168.5 1053.1619,-168.5"/>
<text text-anchor="middle" x="1069.1619" y="-175.5" font-family="Helvetica,sans-Serif" font-size="10.00" fill="#000000">list</text>
</g>
<!-- Node19&#45;&gt;Node22 -->
<g id="edge32" class="edge">
<title>Node19&#45;&gt;Node22</title>
<path fill="none" stroke="#191970" d="M1041.0842,-224.2455C1045.7646,-216.5367 1052.4291,-205.5598 1058.0907,-196.2348"/>
<polygon fill="#191970" stroke="#191970" points="1061.1093,-198.007 1063.3074,-187.6427 1055.1258,-194.3741 1061.1093,-198.007"/>
</g>
<!-- Node23 -->
<g id="node24" class="node">
<title>Node23</title>
<polygon fill="none" stroke="#bfbfbf" points="1141.1619,-168.5 1141.1619,-187.5 1205.1619,-187.5 1205.1619,-168.5 1141.1619,-168.5"/>
<text text-anchor="middle" x="1173.1619" y="-175.5" font-family="Helvetica,sans-Serif" font-size="10.00" fill="#000000">algorithm</text>
</g>
<!-- Node19&#45;&gt;Node23 -->
<g id="edge34" class="edge">
<title>Node19&#45;&gt;Node23</title>
<path fill="none" stroke="#191970" d="M1058.8849,-224.3733C1081.3355,-215.2629 1115.2358,-201.5062 1140.2873,-191.3404"/>
<polygon fill="#191970" stroke="#191970" points="1141.7983,-194.5045 1149.7484,-187.5011 1139.1662,-188.0182 1141.7983,-194.5045"/>
</g>
<!-- Node24&#45;&gt;Node2 -->
<g id="edge38" class="edge">
<title>Node24&#45;&gt;Node2</title>
<path fill="none" stroke="#191970" d="M619.2133,-336.2455C623.1638,-328.617 628.7716,-317.7881 633.5677,-308.5267"/>
<polygon fill="#191970" stroke="#191970" points="636.6777,-310.1321 638.1683,-299.6427 630.4618,-306.9131 636.6777,-310.1321"/>
</g>
<!-- Node24&#45;&gt;Node3 -->
<g id="edge37" class="edge">
<title>Node24&#45;&gt;Node3</title>
<path fill="none" stroke="#191970" d="M585.008,-343.8076C463.1854,-334.2648 1.1619,-294.1105 1.1619,-234 1.1619,-234 1.1619,-234 1.1619,-178 1.1619,-147.4754 -3.4856,-131.3016 20.1619,-112 96.7687,-49.4718 361.1021,-93.0449 475.9902,-75.594"/>
<polygon fill="#191970" stroke="#191970" points="476.73,-79.0177 485.9748,-73.8426 475.5205,-72.123 476.73,-79.0177"/>
</g>
<!-- Node25&#45;&gt;Node3 -->
<g id="edge40" class="edge">
<title>Node25&#45;&gt;Node3</title>
<path fill="none" stroke="#191970" d="M1432.0483,-224.8816C1404.8893,-216.1521 1363.3849,-202.2391 1328.1619,-188 1308.621,-180.1005 1305.2442,-174.399 1285.1619,-168 1153.8456,-126.1574 1116.6471,-131.1457 980.1619,-112 815.8,-88.9438 617.6171,-73.6754 540.7934,-68.2263"/>
<polygon fill="#191970" stroke="#191970" points="540.5784,-64.7027 530.3578,-67.4938 540.0882,-71.6855 540.5784,-64.7027"/>
</g>
<!-- Node25&#45;&gt;Node6 -->
<g id="edge44" class="edge">
<title>Node25&#45;&gt;Node6</title>
<path fill="none" stroke="#191970" d="M1432.0382,-227.0983C1398.6264,-218.9119 1342.3677,-204.3042 1295.1619,-188 1273.317,-180.4551 1269.4233,-174.209 1247.1619,-168 1153.9235,-141.9946 1040.3467,-129.8086 981.2499,-124.8715"/>
<polygon fill="#191970" stroke="#191970" points="981.4603,-121.3771 971.2106,-124.0591 980.8957,-128.3543 981.4603,-121.3771"/>
</g>
<!-- Node25&#45;&gt;Node8 -->
<g id="edge49" class="edge">
<title>Node25&#45;&gt;Node8</title>
<path fill="none" stroke="#191970" d="M1431.8836,-230.8374C1389.8145,-225.603 1310.3748,-213.1234 1247.1619,-188 1231.2244,-181.6658 1230.4598,-173.3386 1214.1619,-168 1167.8962,-152.8451 832.9615,-130.7239 726.5333,-124.007"/>
<polygon fill="#191970" stroke="#191970" points="726.5972,-120.5042 716.3975,-123.3704 726.1584,-127.4905 726.5972,-120.5042"/>
</g>
<!-- Node25&#45;&gt;Node23 -->
<g id="edge50" class="edge">
<title>Node25&#45;&gt;Node23</title>
<path fill="none" stroke="#191970" d="M1432.0577,-228.7226C1386.5599,-220.4151 1295.8491,-203.6212 1219.1619,-188 1217.9006,-187.7431 1216.6204,-187.4799 1215.3283,-187.2123"/>
<polygon fill="#191970" stroke="#191970" points="1215.8167,-183.7384 1205.3098,-185.1011 1214.3732,-190.5879 1215.8167,-183.7384"/>
</g>
<!-- Node26 -->
<g id="node27" class="node">
<title>Node26</title>
<g id="a_node27"><a xlink:href="Exception_8hxx.html" target="_top" xlink:title="Exception.hxx">
<polygon fill="none" stroke="#000000" points="1681.1619,-168.5 1681.1619,-187.5 1767.1619,-187.5 1767.1619,-168.5 1681.1619,-168.5"/>
<text text-anchor="middle" x="1724.1619" y="-175.5" font-family="Helvetica,sans-Serif" font-size="10.00" fill="#000000">Exception.hxx</text>
</a>
</g>
</g>
<!-- Node25&#45;&gt;Node26 -->
<g id="edge41" class="edge">
<title>Node25&#45;&gt;Node26</title>
<path fill="none" stroke="#191970" d="M1490.3123,-227.7931C1533.8753,-218.5173 1616.6562,-200.8909 1671.1241,-189.2932"/>
<polygon fill="#191970" stroke="#191970" points="1671.8973,-192.7071 1680.9491,-187.2012 1670.4394,-185.8606 1671.8973,-192.7071"/>
</g>
<!-- Node29 -->
<g id="node30" class="node">
<title>Node29</title>
<polygon fill="none" stroke="#bfbfbf" points="1337.1619,-168.5 1337.1619,-187.5 1387.1619,-187.5 1387.1619,-168.5 1337.1619,-168.5"/>
<text text-anchor="middle" x="1362.1619" y="-175.5" font-family="Helvetica,sans-Serif" font-size="10.00" fill="#000000">chrono</text>
</g>
<!-- Node25&#45;&gt;Node29 -->
<g id="edge45" class="edge">
<title>Node25&#45;&gt;Node29</title>
<path fill="none" stroke="#191970" d="M1443.9174,-224.2455C1428.5858,-215.5731 1405.942,-202.7645 1388.3703,-192.825"/>
<polygon fill="#191970" stroke="#191970" points="1389.636,-189.5198 1379.2087,-187.6427 1386.1895,-195.6126 1389.636,-189.5198"/>
</g>
<!-- Node30 -->
<g id="node31" class="node">
<title>Node30</title>
<polygon fill="none" stroke="#bfbfbf" points="1405.1619,-168.5 1405.1619,-187.5 1449.1619,-187.5 1449.1619,-168.5 1405.1619,-168.5"/>
<text text-anchor="middle" x="1427.1619" y="-175.5" font-family="Helvetica,sans-Serif" font-size="10.00" fill="#000000">ctime</text>
</g>
<!-- Node25&#45;&gt;Node30 -->
<g id="edge46" class="edge">
<title>Node25&#45;&gt;Node30</title>
<path fill="none" stroke="#191970" d="M1455.2395,-224.2455C1450.5592,-216.5367 1443.8946,-205.5598 1438.233,-196.2348"/>
<polygon fill="#191970" stroke="#191970" points="1441.1979,-194.3741 1433.0163,-187.6427 1435.2144,-198.007 1441.1979,-194.3741"/>
</g>
<!-- Node31 -->
<g id="node32" class="node">
<title>Node31</title>
<polygon fill="none" stroke="#bfbfbf" points="1467.6619,-168.5 1467.6619,-187.5 1522.6619,-187.5 1522.6619,-168.5 1467.6619,-168.5"/>
<text text-anchor="middle" x="1495.1619" y="-175.5" font-family="Helvetica,sans-Serif" font-size="10.00" fill="#000000">fstream</text>
</g>
<!-- Node25&#45;&gt;Node31 -->
<g id="edge47" class="edge">
<title>Node25&#45;&gt;Node31</title>
<path fill="none" stroke="#191970" d="M1467.0842,-224.2455C1471.7646,-216.5367 1478.4291,-205.5598 1484.0907,-196.2348"/>
<polygon fill="#191970" stroke="#191970" points="1487.1093,-198.007 1489.3074,-187.6427 1481.1258,-194.3741 1487.1093,-198.007"/>
</g>
<!-- Node32 -->
<g id="node33" class="node">
<title>Node32</title>
<polygon fill="none" stroke="#bfbfbf" points="1541.1619,-168.5 1541.1619,-187.5 1597.1619,-187.5 1597.1619,-168.5 1541.1619,-168.5"/>
<text text-anchor="middle" x="1569.1619" y="-175.5" font-family="Helvetica,sans-Serif" font-size="10.00" fill="#000000">sstream</text>
</g>
<!-- Node25&#45;&gt;Node32 -->
<g id="edge48" class="edge">
<title>Node25&#45;&gt;Node32</title>
<path fill="none" stroke="#191970" d="M1479.974,-224.2455C1497.0091,-215.4125 1522.3194,-202.2887 1541.63,-192.2758"/>
<polygon fill="#191970" stroke="#191970" points="1543.2989,-195.353 1550.5653,-187.6427 1540.0766,-189.1388 1543.2989,-195.353"/>
</g>
<!-- Node33 -->
<g id="node34" class="node">
<title>Node33</title>
<polygon fill="none" stroke="#bfbfbf" points="1615.1619,-168.5 1615.1619,-187.5 1663.1619,-187.5 1663.1619,-168.5 1615.1619,-168.5"/>
<text text-anchor="middle" x="1639.1619" y="-175.5" font-family="Helvetica,sans-Serif" font-size="10.00" fill="#000000">mutex</text>
</g>
<!-- Node25&#45;&gt;Node33 -->
<g id="edge51" class="edge">
<title>Node25&#45;&gt;Node33</title>
<path fill="none" stroke="#191970" d="M1490.5549,-224.7527C1522.1438,-214.8147 1572.2737,-199.0435 1605.443,-188.6082"/>
<polygon fill="#191970" stroke="#191970" points="1606.6644,-191.8931 1615.1531,-185.5533 1604.5636,-185.2158 1606.6644,-191.8931"/>
</g>
<!-- Node34 -->
<g id="node35" class="node">
<title>Node34</title>
<g id="a_node35"><a xlink:href="Meta_8hxx.html" target="_top" xlink:title="Meta.hxx">
<polygon fill="none" stroke="#000000" points="1877.1619,-168.5 1877.1619,-187.5 1939.1619,-187.5 1939.1619,-168.5 1877.1619,-168.5"/>
<text text-anchor="middle" x="1908.1619" y="-175.5" font-family="Helvetica,sans-Serif" font-size="10.00" fill="#000000">Meta.hxx</text>
</a>
</g>
</g>
<!-- Node25&#45;&gt;Node34 -->
<g id="edge52" class="edge">
<title>Node25&#45;&gt;Node34</title>
<path fill="none" stroke="#191970" d="M1490.2216,-232.0439C1555.7409,-227.3513 1720.0799,-214.001 1866.7252,-188.0643"/>
<polygon fill="#191970" stroke="#191970" points="1867.5792,-191.4671 1876.8041,-186.2565 1866.3433,-184.5771 1867.5792,-191.4671"/>
</g>
<!-- Node38 -->
<g id="node39" class="node">
<title>Node38</title>
<g id="a_node39"><a xlink:href="filesystem_8hxx.html" target="_top" xlink:title="filesystem.hxx">
<polygon fill="none" stroke="#000000" points="1980.6619,-168.5 1980.6619,-187.5 2069.6619,-187.5 2069.6619,-168.5 1980.6619,-168.5"/>
<text text-anchor="middle" x="2025.1619" y="-175.5" font-family="Helvetica,sans-Serif" font-size="10.00" fill="#000000">filesystem.hxx</text>
</a>
</g>
</g>
<!-- Node25&#45;&gt;Node38 -->
<g id="edge57" class="edge">
<title>Node25&#45;&gt;Node38</title>
<path fill="none" stroke="#191970" d="M1490.2912,-231.6064C1565.9225,-225.314 1774.728,-207.4468 1948.1619,-188 1955.3457,-187.1945 1962.8985,-186.2877 1970.3506,-185.3573"/>
<polygon fill="#191970" stroke="#191970" points="1970.9261,-188.8124 1980.4059,-184.0813 1970.0448,-181.8681 1970.9261,-188.8124"/>
</g>
<!-- Node40 -->
<g id="node41" class="node">
<title>Node40</title>
<g id="a_node41"><a xlink:href="LOG_8inl_8hxx.html" target="_top" xlink:title="LOG.inl.hxx">
<polygon fill="none" stroke="#000000" points="1785.6619,-168.5 1785.6619,-187.5 1858.6619,-187.5 1858.6619,-168.5 1785.6619,-168.5"/>
<text text-anchor="middle" x="1822.1619" y="-175.5" font-family="Helvetica,sans-Serif" font-size="10.00" fill="#000000">LOG.inl.hxx</text>
</a>
</g>
</g>
<!-- Node25&#45;&gt;Node40 -->
<g id="edge59" class="edge">
<title>Node25&#45;&gt;Node40</title>
<path fill="none" stroke="#191970" d="M1490.3683,-230.42C1544.4859,-223.6394 1664.1961,-207.9531 1775.4967,-188.0147"/>
<polygon fill="#191970" stroke="#191970" points="1776.3311,-191.4207 1785.5492,-186.1979 1775.0861,-184.5323 1776.3311,-191.4207"/>
</g>
<!-- Node27 -->
<g id="node28" class="node">
<title>Node27</title>
<polygon fill="none" stroke="#bfbfbf" points="1618.6619,-112.5 1618.6619,-131.5 1683.6619,-131.5 1683.6619,-112.5 1618.6619,-112.5"/>
<text text-anchor="middle" x="1651.1619" y="-119.5" font-family="Helvetica,sans-Serif" font-size="10.00" fill="#000000">stdexcept</text>
</g>
<!-- Node26&#45;&gt;Node27 -->
<g id="edge42" class="edge">
<title>Node26&#45;&gt;Node27</title>
<path fill="none" stroke="#191970" d="M1711.4462,-168.2455C1700.5598,-159.8943 1684.6736,-147.7076 1671.9419,-137.9408"/>
<polygon fill="#191970" stroke="#191970" points="1673.7964,-134.9523 1663.7318,-131.6427 1669.5358,-140.5063 1673.7964,-134.9523"/>
</g>
<!-- Node28 -->
<g id="node29" class="node">
<title>Node28</title>
<polygon fill="none" stroke="#bfbfbf" points="1701.6619,-112.5 1701.6619,-131.5 1766.6619,-131.5 1766.6619,-112.5 1701.6619,-112.5"/>
<text text-anchor="middle" x="1734.1619" y="-119.5" font-family="Helvetica,sans-Serif" font-size="10.00" fill="#000000">exception</text>
</g>
<!-- Node26&#45;&gt;Node28 -->
<g id="edge43" class="edge">
<title>Node26&#45;&gt;Node28</title>
<path fill="none" stroke="#191970" d="M1725.9037,-168.2455C1727.2086,-160.9382 1729.0379,-150.6944 1730.6432,-141.7046"/>
<polygon fill="#191970" stroke="#191970" points="1734.1275,-142.1022 1732.44,-131.6427 1727.2365,-140.8717 1734.1275,-142.1022"/>
</g>
<!-- Node34&#45;&gt;Node6 -->
<g id="edge53" class="edge">
<title>Node34&#45;&gt;Node6</title>
<path fill="none" stroke="#191970" d="M1876.8354,-169.5535C1873.9179,-168.9532 1870.9941,-168.4202 1868.1619,-168 1693.0693,-142.0242 1135.7503,-126.7537 981.2265,-122.9455"/>
<polygon fill="#191970" stroke="#191970" points="981.305,-119.4464 971.2225,-122.7011 981.134,-126.4443 981.305,-119.4464"/>
</g>
<!-- Node35 -->
<g id="node36" class="node">
<title>Node35</title>
<polygon fill="none" stroke="#bfbfbf" points="1863.6619,-112.5 1863.6619,-131.5 1932.6619,-131.5 1932.6619,-112.5 1863.6619,-112.5"/>
<text text-anchor="middle" x="1898.1619" y="-119.5" font-family="Helvetica,sans-Serif" font-size="10.00" fill="#000000">type_traits</text>
</g>
<!-- Node34&#45;&gt;Node35 -->
<g id="edge54" class="edge">
<title>Node34&#45;&gt;Node35</title>
<path fill="none" stroke="#191970" d="M1906.42,-168.2455C1905.1151,-160.9382 1903.2859,-150.6944 1901.6805,-141.7046"/>
<polygon fill="#191970" stroke="#191970" points="1905.0873,-140.8717 1899.8838,-131.6427 1898.1963,-142.1022 1905.0873,-140.8717"/>
</g>
<!-- Node36 -->
<g id="node37" class="node">
<title>Node36</title>
<polygon fill="none" stroke="#bfbfbf" points="1950.6619,-112.5 1950.6619,-131.5 2001.6619,-131.5 2001.6619,-112.5 1950.6619,-112.5"/>
<text text-anchor="middle" x="1976.1619" y="-119.5" font-family="Helvetica,sans-Serif" font-size="10.00" fill="#000000">variant</text>
</g>
<!-- Node34&#45;&gt;Node36 -->
<g id="edge55" class="edge">
<title>Node34&#45;&gt;Node36</title>
<path fill="none" stroke="#191970" d="M1920.0066,-168.2455C1930.0498,-159.9746 1944.6613,-147.9416 1956.4622,-138.2232"/>
<polygon fill="#191970" stroke="#191970" points="1958.9586,-140.7015 1964.4529,-131.6427 1954.5086,-135.298 1958.9586,-140.7015"/>
</g>
<!-- Node37 -->
<g id="node38" class="node">
<title>Node37</title>
<polygon fill="none" stroke="#bfbfbf" points="1804.6619,-112.5 1804.6619,-131.5 1845.6619,-131.5 1845.6619,-112.5 1804.6619,-112.5"/>
<text text-anchor="middle" x="1825.1619" y="-119.5" font-family="Helvetica,sans-Serif" font-size="10.00" fill="#000000">tuple</text>
</g>
<!-- Node34&#45;&gt;Node37 -->
<g id="edge56" class="edge">
<title>Node34&#45;&gt;Node37</title>
<path fill="none" stroke="#191970" d="M1893.7044,-168.2455C1881.0886,-159.7337 1862.5674,-147.2375 1847.9573,-137.3801"/>
<polygon fill="#191970" stroke="#191970" points="1849.7009,-134.3343 1839.4537,-131.6427 1845.7858,-140.1371 1849.7009,-134.3343"/>
</g>
<!-- Node39 -->
<g id="node40" class="node">
<title>Node39</title>
<polygon fill="none" stroke="#bfbfbf" points="2020.1619,-112.5 2020.1619,-131.5 2074.1619,-131.5 2074.1619,-112.5 2020.1619,-112.5"/>
<text text-anchor="middle" x="2047.1619" y="-119.5" font-family="Helvetica,sans-Serif" font-size="10.00" fill="#000000">ciso646</text>
</g>
<!-- Node38&#45;&gt;Node39 -->
<g id="edge58" class="edge">
<title>Node38&#45;&gt;Node39</title>
<path fill="none" stroke="#191970" d="M2028.994,-168.2455C2031.9278,-160.7776 2036.0665,-150.2427 2039.6529,-141.1137"/>
<polygon fill="#191970" stroke="#191970" points="2042.9747,-142.23 2043.3737,-131.6427 2036.4595,-139.6704 2042.9747,-142.23"/>
</g>
</g>
</svg>
