<?xml version="1.0" encoding="UTF-8" standalone="no"?>
<!DOCTYPE svg PUBLIC "-//W3C//DTD SVG 1.1//EN"
 "http://www.w3.org/Graphics/SVG/1.1/DTD/svg11.dtd">
<!-- Generated by graphviz version 2.40.1 (20161225.0304)
 -->
<!-- Title: src/engine/ui/widgets/Button.hxx Pages: 1 -->
<svg width="838pt" height="296pt"
 viewBox="0.00 0.00 838.00 296.00" xmlns="http://www.w3.org/2000/svg" xmlns:xlink="http://www.w3.org/1999/xlink">
<g id="graph0" class="graph" transform="scale(1 1) rotate(0) translate(4 292)">
<title>src/engine/ui/widgets/Button.hxx</title>
<!-- Node24 -->
<g id="node1" class="node">
<title>Node24</title>
<polygon fill="#bfbfbf" stroke="#000000" points="575,-257.5 575,-287.5 695,-287.5 695,-257.5 575,-257.5"/>
<text text-anchor="start" x="583" y="-275.5" font-family="Helvetica,sans-Serif" font-size="10.00" fill="#000000">src/engine/ui/widgets</text>
<text text-anchor="middle" x="635" y="-264.5" font-family="Helvetica,sans-Serif" font-size="10.00" fill="#000000">/Button.hxx</text>
</g>
<!-- Node25 -->
<g id="node2" class="node">
<title>Node25</title>
<g id="a_node2"><a xlink:href="ButtonGroup_8hxx.html" target="_top" xlink:title="src/engine/ui/basics\l/ButtonGroup.hxx">
<polygon fill="none" stroke="#000000" points="578.5,-190.5 578.5,-220.5 691.5,-220.5 691.5,-190.5 578.5,-190.5"/>
<text text-anchor="start" x="586.5" y="-208.5" font-family="Helvetica,sans-Serif" font-size="10.00" fill="#000000">src/engine/ui/basics</text>
<text text-anchor="middle" x="635" y="-197.5" font-family="Helvetica,sans-Serif" font-size="10.00" fill="#000000">/ButtonGroup.hxx</text>
</a>
</g>
</g>
<!-- Node24&#45;&gt;Node25 -->
<g id="edge1" class="edge">
<title>Node24&#45;&gt;Node25</title>
<path fill="none" stroke="#191970" d="M635,-247.0249C635,-238.128 635,-228.4287 635,-220.6432"/>
<polygon fill="#191970" stroke="#191970" points="631.5001,-247.2966 635,-257.2967 638.5001,-247.2967 631.5001,-247.2966"/>
</g>
<!-- Node26 -->
<g id="node3" class="node">
<title>Node26</title>
<g id="a_node3"><a xlink:href="UIManager_8hxx.html" target="_top" xlink:title="src/engine/UIManager.hxx">
<polygon fill="none" stroke="#000000" points="467.5,-129 467.5,-148 610.5,-148 610.5,-129 467.5,-129"/>
<text text-anchor="middle" x="539" y="-136" font-family="Helvetica,sans-Serif" font-size="10.00" fill="#000000">src/engine/UIManager.hxx</text>
</a>
</g>
</g>
<!-- Node24&#45;&gt;Node26 -->
<g id="edge13" class="edge">
<title>Node24&#45;&gt;Node26</title>
<path fill="none" stroke="#191970" d="M600.7301,-251.4349C589.3914,-243.1054 577.5113,-232.7109 569,-221 552.2446,-197.9459 543.9603,-164.5517 540.7117,-148.2249"/>
<polygon fill="#191970" stroke="#191970" points="599.0321,-254.5188 609.2306,-257.3896 603.0483,-248.7855 599.0321,-254.5188"/>
</g>
<!-- Node35 -->
<g id="node12" class="node">
<title>Node35</title>
<g id="a_node12"><a xlink:href="Button_8cxx.html" target="_top" xlink:title="src/engine/ui/widgets\l/Button.cxx">
<polygon fill="none" stroke="#000000" points="710,-190.5 710,-220.5 830,-220.5 830,-190.5 710,-190.5"/>
<text text-anchor="start" x="718" y="-208.5" font-family="Helvetica,sans-Serif" font-size="10.00" fill="#000000">src/engine/ui/widgets</text>
<text text-anchor="middle" x="770" y="-197.5" font-family="Helvetica,sans-Serif" font-size="10.00" fill="#000000">/Button.cxx</text>
</a>
</g>
</g>
<!-- Node24&#45;&gt;Node35 -->
<g id="edge14" class="edge">
<title>Node24&#45;&gt;Node35</title>
<path fill="none" stroke="#191970" d="M674.466,-252.9132C695.1555,-242.645 720.1182,-230.2561 739.3374,-220.7177"/>
<polygon fill="#191970" stroke="#191970" points="672.6982,-249.8831 665.2966,-257.4639 675.8101,-256.1534 672.6982,-249.8831"/>
</g>
<!-- Node25&#45;&gt;Node26 -->
<g id="edge2" class="edge">
<title>Node25&#45;&gt;Node26</title>
<path fill="none" stroke="#191970" d="M604.9755,-184.5454C587.4778,-172.3335 566.2552,-157.5219 552.6907,-148.055"/>
<polygon fill="#191970" stroke="#191970" points="603.0126,-187.4436 613.2161,-190.2967 607.0189,-181.7033 603.0126,-187.4436"/>
</g>
<!-- Node31 -->
<g id="node8" class="node">
<title>Node31</title>
<g id="a_node8"><a xlink:href="ButtonGroup_8cxx.html" target="_top" xlink:title="src/engine/ui/basics\l/ButtonGroup.cxx">
<polygon fill="none" stroke="#000000" points="701.5,-56.5 701.5,-86.5 814.5,-86.5 814.5,-56.5 701.5,-56.5"/>
<text text-anchor="start" x="709.5" y="-74.5" font-family="Helvetica,sans-Serif" font-size="10.00" fill="#000000">src/engine/ui/basics</text>
<text text-anchor="middle" x="758" y="-63.5" font-family="Helvetica,sans-Serif" font-size="10.00" fill="#000000">/ButtonGroup.cxx</text>
</a>
</g>
</g>
<!-- Node25&#45;&gt;Node31 -->
<g id="edge11" class="edge">
<title>Node25&#45;&gt;Node31</title>
<path fill="none" stroke="#191970" d="M636.7494,-180.2708C639.1442,-162.559 644.7798,-139.23 658,-123 671.5047,-106.4208 691.7522,-94.6023 710.5035,-86.5052"/>
<polygon fill="#191970" stroke="#191970" points="633.2431,-180.1388 635.6382,-190.4594 640.2018,-180.8978 633.2431,-180.1388"/>
</g>
<!-- Node34 -->
<g id="node11" class="node">
<title>Node34</title>
<g id="a_node11"><a xlink:href="IMenuGroup_8hxx.html" target="_top" xlink:title="src/engine/ui/menuGroups\l/IMenuGroup.hxx">
<polygon fill="none" stroke="#000000" points="667,-123.5 667,-153.5 811,-153.5 811,-123.5 667,-123.5"/>
<text text-anchor="start" x="675" y="-141.5" font-family="Helvetica,sans-Serif" font-size="10.00" fill="#000000">src/engine/ui/menuGroups</text>
<text text-anchor="middle" x="739" y="-130.5" font-family="Helvetica,sans-Serif" font-size="10.00" fill="#000000">/IMenuGroup.hxx</text>
</a>
</g>
</g>
<!-- Node25&#45;&gt;Node34 -->
<g id="edge12" class="edge">
<title>Node25&#45;&gt;Node34</title>
<path fill="none" stroke="#191970" d="M667.139,-184.7951C682.7223,-174.7558 701.1061,-162.9124 715.3784,-153.7177"/>
<polygon fill="#191970" stroke="#191970" points="664.8506,-182.1058 658.3396,-190.4639 668.6417,-187.9904 664.8506,-182.1058"/>
</g>
<!-- Node27 -->
<g id="node4" class="node">
<title>Node27</title>
<g id="a_node4"><a xlink:href="EventManager_8hxx.html" target="_top" xlink:title="src/engine/EventManager.hxx">
<polygon fill="none" stroke="#000000" points="185,-62 185,-81 345,-81 345,-62 185,-62"/>
<text text-anchor="middle" x="265" y="-69" font-family="Helvetica,sans-Serif" font-size="10.00" fill="#000000">src/engine/EventManager.hxx</text>
</a>
</g>
</g>
<!-- Node26&#45;&gt;Node27 -->
<g id="edge3" class="edge">
<title>Node26&#45;&gt;Node27</title>
<path fill="none" stroke="#191970" d="M490.1691,-126.5596C437.0803,-113.578 353.2807,-93.0869 304.2757,-81.1039"/>
<polygon fill="#191970" stroke="#191970" points="489.4883,-129.9962 500.0335,-128.9717 491.151,-123.1965 489.4883,-129.9962"/>
</g>
<!-- Node30 -->
<g id="node7" class="node">
<title>Node30</title>
<g id="a_node7"><a xlink:href="Game_8cxx.html" target="_top" xlink:title="src/Game.cxx">
<polygon fill="none" stroke="#000000" points="347.5,-.5 347.5,-19.5 430.5,-19.5 430.5,-.5 347.5,-.5"/>
<text text-anchor="middle" x="389" y="-7.5" font-family="Helvetica,sans-Serif" font-size="10.00" fill="#000000">src/Game.cxx</text>
</a>
</g>
</g>
<!-- Node26&#45;&gt;Node30 -->
<g id="edge10" class="edge">
<title>Node26&#45;&gt;Node30</title>
<path fill="none" stroke="#191970" d="M462.9733,-126.0887C439.487,-118.5558 415.6951,-106.4511 400,-87 384.2274,-67.4529 385.5675,-35.6624 387.4797,-19.7385"/>
<polygon fill="#191970" stroke="#191970" points="462.0595,-129.4683 472.6416,-128.9493 464.0455,-122.7559 462.0595,-129.4683"/>
</g>
<!-- Node26&#45;&gt;Node31 -->
<g id="edge7" class="edge">
<title>Node26&#45;&gt;Node31</title>
<path fill="none" stroke="#191970" d="M580.2081,-125.893C616.7427,-114.7157 670.1597,-98.3735 708.899,-86.5218"/>
<polygon fill="#191970" stroke="#191970" points="578.9159,-122.6281 570.3774,-128.9005 580.9638,-129.3218 578.9159,-122.6281"/>
</g>
<!-- Node32 -->
<g id="node9" class="node">
<title>Node32</title>
<g id="a_node9"><a xlink:href="Layout_8cxx.html" target="_top" xlink:title="src/engine/ui/basics\l/Layout.cxx">
<polygon fill="none" stroke="#000000" points="409.5,-56.5 409.5,-86.5 522.5,-86.5 522.5,-56.5 409.5,-56.5"/>
<text text-anchor="start" x="417.5" y="-74.5" font-family="Helvetica,sans-Serif" font-size="10.00" fill="#000000">src/engine/ui/basics</text>
<text text-anchor="middle" x="466" y="-63.5" font-family="Helvetica,sans-Serif" font-size="10.00" fill="#000000">/Layout.cxx</text>
</a>
</g>
</g>
<!-- Node26&#45;&gt;Node32 -->
<g id="edge8" class="edge">
<title>Node26&#45;&gt;Node32</title>
<path fill="none" stroke="#191970" d="M521.0106,-121.9892C509.1894,-111.1395 493.8453,-97.0566 482.367,-86.5218"/>
<polygon fill="#191970" stroke="#191970" points="518.8069,-124.7173 528.5409,-128.9005 523.5401,-119.5601 518.8069,-124.7173"/>
</g>
<!-- Node33 -->
<g id="node10" class="node">
<title>Node33</title>
<g id="a_node10"><a xlink:href="UIManager_8cxx.html" target="_top" xlink:title="src/engine/UIManager.cxx">
<polygon fill="none" stroke="#000000" points="541,-62 541,-81 683,-81 683,-62 541,-62"/>
<text text-anchor="middle" x="612" y="-69" font-family="Helvetica,sans-Serif" font-size="10.00" fill="#000000">src/engine/UIManager.cxx</text>
</a>
</g>
</g>
<!-- Node26&#45;&gt;Node33 -->
<g id="edge9" class="edge">
<title>Node26&#45;&gt;Node33</title>
<path fill="none" stroke="#191970" d="M557.0429,-121.94C571.046,-109.0879 589.9679,-91.7212 601.5603,-81.0817"/>
<polygon fill="#191970" stroke="#191970" points="554.4599,-119.5601 549.4591,-128.9005 559.1931,-124.7173 554.4599,-119.5601"/>
</g>
<!-- Node28 -->
<g id="node5" class="node">
<title>Node28</title>
<g id="a_node5"><a xlink:href="Timer_8cxx.html" target="_top" xlink:title="src/engine/basics/Timer.cxx">
<polygon fill="none" stroke="#000000" points="0,-.5 0,-19.5 152,-19.5 152,-.5 0,-.5"/>
<text text-anchor="middle" x="76" y="-7.5" font-family="Helvetica,sans-Serif" font-size="10.00" fill="#000000">src/engine/basics/Timer.cxx</text>
</a>
</g>
</g>
<!-- Node27&#45;&gt;Node28 -->
<g id="edge4" class="edge">
<title>Node27&#45;&gt;Node28</title>
<path fill="none" stroke="#191970" d="M225.8194,-58.7507C189.9587,-47.0818 137.6946,-30.0752 105.3239,-19.5419"/>
<polygon fill="#191970" stroke="#191970" points="224.8765,-62.1245 235.4688,-61.8906 227.0425,-55.4681 224.8765,-62.1245"/>
</g>
<!-- Node29 -->
<g id="node6" class="node">
<title>Node29</title>
<g id="a_node6"><a xlink:href="EventManager_8cxx.html" target="_top" xlink:title="src/engine/EventManager.cxx">
<polygon fill="none" stroke="#000000" points="170.5,-.5 170.5,-19.5 329.5,-19.5 329.5,-.5 170.5,-.5"/>
<text text-anchor="middle" x="250" y="-7.5" font-family="Helvetica,sans-Serif" font-size="10.00" fill="#000000">src/engine/EventManager.cxx</text>
</a>
</g>
</g>
<!-- Node27&#45;&gt;Node29 -->
<g id="edge5" class="edge">
<title>Node27&#45;&gt;Node29</title>
<path fill="none" stroke="#191970" d="M260.2642,-52.0832C257.6392,-41.3205 254.4888,-28.4042 252.3768,-19.7449"/>
<polygon fill="#191970" stroke="#191970" points="256.8863,-53.0048 262.6563,-61.8906 263.6869,-51.346 256.8863,-53.0048"/>
</g>
<!-- Node27&#45;&gt;Node30 -->
<g id="edge6" class="edge">
<title>Node27&#45;&gt;Node30</title>
<path fill="none" stroke="#191970" d="M293.4669,-57.3813C316.8518,-45.7832 349.34,-29.6701 369.7611,-19.5419"/>
<polygon fill="#191970" stroke="#191970" points="291.7785,-54.3118 284.375,-61.8906 294.8888,-60.5829 291.7785,-54.3118"/>
</g>
</g>
</svg>
