<?xml version="1.0" encoding="UTF-8" standalone="no"?>
<!DOCTYPE svg PUBLIC "-//W3C//DTD SVG 1.1//EN"
 "http://www.w3.org/Graphics/SVG/1.1/DTD/svg11.dtd">
<!-- Generated by graphviz version 2.40.1 (20161225.0304)
 -->
<!-- Title: src/engine/ui/basics/ButtonGroup.hxx Pages: 1 -->
<svg width="878pt" height="229pt"
 viewBox="0.00 0.00 878.00 229.00" xmlns="http://www.w3.org/2000/svg" xmlns:xlink="http://www.w3.org/1999/xlink">
<g id="graph0" class="graph" transform="scale(1 1) rotate(0) translate(4 225)">
<title>src/engine/ui/basics/ButtonGroup.hxx</title>
<!-- Node25 -->
<g id="node1" class="node">
<title>Node25</title>
<polygon fill="#bfbfbf" stroke="#000000" points="641.5,-190.5 641.5,-220.5 754.5,-220.5 754.5,-190.5 641.5,-190.5"/>
<text text-anchor="start" x="649.5" y="-208.5" font-family="Helvetica,sans-Serif" font-size="10.00" fill="#000000">src/engine/ui/basics</text>
<text text-anchor="middle" x="698" y="-197.5" font-family="Helvetica,sans-Serif" font-size="10.00" fill="#000000">/ButtonGroup.hxx</text>
</g>
<!-- Node26 -->
<g id="node2" class="node">
<title>Node26</title>
<g id="a_node2"><a xlink:href="UIManager_8hxx.html" target="_top" xlink:title="src/engine/UIManager.hxx">
<polygon fill="none" stroke="#000000" points="467.5,-129 467.5,-148 610.5,-148 610.5,-129 467.5,-129"/>
<text text-anchor="middle" x="539" y="-136" font-family="Helvetica,sans-Serif" font-size="10.00" fill="#000000">src/engine/UIManager.hxx</text>
</a>
</g>
</g>
<!-- Node25&#45;&gt;Node26 -->
<g id="edge1" class="edge">
<title>Node25&#45;&gt;Node26</title>
<path fill="none" stroke="#191970" d="M652.9681,-186.5243C623.2225,-173.99 585.4935,-158.0916 561.7914,-148.1039"/>
<polygon fill="#191970" stroke="#191970" points="651.7429,-189.806 662.3173,-190.4639 654.4612,-183.3553 651.7429,-189.806"/>
</g>
<!-- Node31 -->
<g id="node7" class="node">
<title>Node31</title>
<g id="a_node7"><a xlink:href="ButtonGroup_8cxx.html" target="_top" xlink:title="src/engine/ui/basics\l/ButtonGroup.cxx">
<polygon fill="none" stroke="#000000" points="701.5,-56.5 701.5,-86.5 814.5,-86.5 814.5,-56.5 701.5,-56.5"/>
<text text-anchor="start" x="709.5" y="-74.5" font-family="Helvetica,sans-Serif" font-size="10.00" fill="#000000">src/engine/ui/basics</text>
<text text-anchor="middle" x="758" y="-63.5" font-family="Helvetica,sans-Serif" font-size="10.00" fill="#000000">/ButtonGroup.cxx</text>
</a>
</g>
</g>
<!-- Node25&#45;&gt;Node31 -->
<g id="edge10" class="edge">
<title>Node25&#45;&gt;Node31</title>
<path fill="none" stroke="#191970" d="M700.8769,-180.0442C703.4851,-163.2191 708.3059,-141.0274 717,-123 723.4537,-109.618 733.9257,-96.5466 742.6706,-86.9213"/>
<polygon fill="#191970" stroke="#191970" points="697.3716,-179.8419 699.464,-190.228 704.3051,-180.8039 697.3716,-179.8419"/>
</g>
<!-- Node34 -->
<g id="node10" class="node">
<title>Node34</title>
<g id="a_node10"><a xlink:href="IMenuGroup_8hxx.html" target="_top" xlink:title="src/engine/ui/menuGroups\l/IMenuGroup.hxx">
<polygon fill="none" stroke="#000000" points="726,-123.5 726,-153.5 870,-153.5 870,-123.5 726,-123.5"/>
<text text-anchor="start" x="734" y="-141.5" font-family="Helvetica,sans-Serif" font-size="10.00" fill="#000000">src/engine/ui/menuGroups</text>
<text text-anchor="middle" x="798" y="-130.5" font-family="Helvetica,sans-Serif" font-size="10.00" fill="#000000">/IMenuGroup.hxx</text>
</a>
</g>
</g>
<!-- Node25&#45;&gt;Node34 -->
<g id="edge11" class="edge">
<title>Node25&#45;&gt;Node34</title>
<path fill="none" stroke="#191970" d="M729.1513,-184.6286C744.1225,-174.5979 761.7349,-162.7976 775.3983,-153.6432"/>
<polygon fill="#191970" stroke="#191970" points="727.0511,-181.8228 720.6915,-190.2967 730.9474,-187.6382 727.0511,-181.8228"/>
</g>
<!-- Node27 -->
<g id="node3" class="node">
<title>Node27</title>
<g id="a_node3"><a xlink:href="EventManager_8hxx.html" target="_top" xlink:title="src/engine/EventManager.hxx">
<polygon fill="none" stroke="#000000" points="185,-62 185,-81 345,-81 345,-62 185,-62"/>
<text text-anchor="middle" x="265" y="-69" font-family="Helvetica,sans-Serif" font-size="10.00" fill="#000000">src/engine/EventManager.hxx</text>
</a>
</g>
</g>
<!-- Node26&#45;&gt;Node27 -->
<g id="edge2" class="edge">
<title>Node26&#45;&gt;Node27</title>
<path fill="none" stroke="#191970" d="M490.1691,-126.5596C437.0803,-113.578 353.2807,-93.0869 304.2757,-81.1039"/>
<polygon fill="#191970" stroke="#191970" points="489.4883,-129.9962 500.0335,-128.9717 491.151,-123.1965 489.4883,-129.9962"/>
</g>
<!-- Node30 -->
<g id="node6" class="node">
<title>Node30</title>
<g id="a_node6"><a xlink:href="Game_8cxx.html" target="_top" xlink:title="src/Game.cxx">
<polygon fill="none" stroke="#000000" points="347.5,-.5 347.5,-19.5 430.5,-19.5 430.5,-.5 347.5,-.5"/>
<text text-anchor="middle" x="389" y="-7.5" font-family="Helvetica,sans-Serif" font-size="10.00" fill="#000000">src/Game.cxx</text>
</a>
</g>
</g>
<!-- Node26&#45;&gt;Node30 -->
<g id="edge9" class="edge">
<title>Node26&#45;&gt;Node30</title>
<path fill="none" stroke="#191970" d="M462.9733,-126.0887C439.487,-118.5558 415.6951,-106.4511 400,-87 384.2274,-67.4529 385.5675,-35.6624 387.4797,-19.7385"/>
<polygon fill="#191970" stroke="#191970" points="462.0595,-129.4683 472.6416,-128.9493 464.0455,-122.7559 462.0595,-129.4683"/>
</g>
<!-- Node26&#45;&gt;Node31 -->
<g id="edge6" class="edge">
<title>Node26&#45;&gt;Node31</title>
<path fill="none" stroke="#191970" d="M580.2081,-125.893C616.7427,-114.7157 670.1597,-98.3735 708.899,-86.5218"/>
<polygon fill="#191970" stroke="#191970" points="578.9159,-122.6281 570.3774,-128.9005 580.9638,-129.3218 578.9159,-122.6281"/>
</g>
<!-- Node32 -->
<g id="node8" class="node">
<title>Node32</title>
<g id="a_node8"><a xlink:href="Layout_8cxx.html" target="_top" xlink:title="src/engine/ui/basics\l/Layout.cxx">
<polygon fill="none" stroke="#000000" points="409.5,-56.5 409.5,-86.5 522.5,-86.5 522.5,-56.5 409.5,-56.5"/>
<text text-anchor="start" x="417.5" y="-74.5" font-family="Helvetica,sans-Serif" font-size="10.00" fill="#000000">src/engine/ui/basics</text>
<text text-anchor="middle" x="466" y="-63.5" font-family="Helvetica,sans-Serif" font-size="10.00" fill="#000000">/Layout.cxx</text>
</a>
</g>
</g>
<!-- Node26&#45;&gt;Node32 -->
<g id="edge7" class="edge">
<title>Node26&#45;&gt;Node32</title>
<path fill="none" stroke="#191970" d="M521.0106,-121.9892C509.1894,-111.1395 493.8453,-97.0566 482.367,-86.5218"/>
<polygon fill="#191970" stroke="#191970" points="518.8069,-124.7173 528.5409,-128.9005 523.5401,-119.5601 518.8069,-124.7173"/>
</g>
<!-- Node33 -->
<g id="node9" class="node">
<title>Node33</title>
<g id="a_node9"><a xlink:href="UIManager_8cxx.html" target="_top" xlink:title="src/engine/UIManager.cxx">
<polygon fill="none" stroke="#000000" points="541,-62 541,-81 683,-81 683,-62 541,-62"/>
<text text-anchor="middle" x="612" y="-69" font-family="Helvetica,sans-Serif" font-size="10.00" fill="#000000">src/engine/UIManager.cxx</text>
</a>
</g>
</g>
<!-- Node26&#45;&gt;Node33 -->
<g id="edge8" class="edge">
<title>Node26&#45;&gt;Node33</title>
<path fill="none" stroke="#191970" d="M557.0429,-121.94C571.046,-109.0879 589.9679,-91.7212 601.5603,-81.0817"/>
<polygon fill="#191970" stroke="#191970" points="554.4599,-119.5601 549.4591,-128.9005 559.1931,-124.7173 554.4599,-119.5601"/>
</g>
<!-- Node28 -->
<g id="node4" class="node">
<title>Node28</title>
<g id="a_node4"><a xlink:href="Timer_8cxx.html" target="_top" xlink:title="src/engine/basics/Timer.cxx">
<polygon fill="none" stroke="#000000" points="0,-.5 0,-19.5 152,-19.5 152,-.5 0,-.5"/>
<text text-anchor="middle" x="76" y="-7.5" font-family="Helvetica,sans-Serif" font-size="10.00" fill="#000000">src/engine/basics/Timer.cxx</text>
</a>
</g>
</g>
<!-- Node27&#45;&gt;Node28 -->
<g id="edge3" class="edge">
<title>Node27&#45;&gt;Node28</title>
<path fill="none" stroke="#191970" d="M225.8194,-58.7507C189.9587,-47.0818 137.6946,-30.0752 105.3239,-19.5419"/>
<polygon fill="#191970" stroke="#191970" points="224.8765,-62.1245 235.4688,-61.8906 227.0425,-55.4681 224.8765,-62.1245"/>
</g>
<!-- Node29 -->
<g id="node5" class="node">
<title>Node29</title>
<g id="a_node5"><a xlink:href="EventManager_8cxx.html" target="_top" xlink:title="src/engine/EventManager.cxx">
<polygon fill="none" stroke="#000000" points="170.5,-.5 170.5,-19.5 329.5,-19.5 329.5,-.5 170.5,-.5"/>
<text text-anchor="middle" x="250" y="-7.5" font-family="Helvetica,sans-Serif" font-size="10.00" fill="#000000">src/engine/EventManager.cxx</text>
</a>
</g>
</g>
<!-- Node27&#45;&gt;Node29 -->
<g id="edge4" class="edge">
<title>Node27&#45;&gt;Node29</title>
<path fill="none" stroke="#191970" d="M260.2642,-52.0832C257.6392,-41.3205 254.4888,-28.4042 252.3768,-19.7449"/>
<polygon fill="#191970" stroke="#191970" points="256.8863,-53.0048 262.6563,-61.8906 263.6869,-51.346 256.8863,-53.0048"/>
</g>
<!-- Node27&#45;&gt;Node30 -->
<g id="edge5" class="edge">
<title>Node27&#45;&gt;Node30</title>
<path fill="none" stroke="#191970" d="M293.4669,-57.3813C316.8518,-45.7832 349.34,-29.6701 369.7611,-19.5419"/>
<polygon fill="#191970" stroke="#191970" points="291.7785,-54.3118 284.375,-61.8906 294.8888,-60.5829 291.7785,-54.3118"/>
</g>
</g>
</svg>
