<?xml version="1.0" encoding="UTF-8" standalone="no"?>
<!DOCTYPE svg PUBLIC "-//W3C//DTD SVG 1.1//EN"
 "http://www.w3.org/Graphics/SVG/1.1/DTD/svg11.dtd">
<!-- Generated by graphviz version 2.40.1 (20161225.0304)
 -->
<!-- Title: src/engine/basics/Camera.hxx Pages: 1 -->
<svg width="171pt" height="84pt"
 viewBox="0.00 0.00 171.00 84.00" xmlns="http://www.w3.org/2000/svg" xmlns:xlink="http://www.w3.org/1999/xlink">
<g id="graph0" class="graph" transform="scale(1 1) rotate(0) translate(4 80)">
<title>src/engine/basics/Camera.hxx</title>
<!-- Node0 -->
<g id="node1" class="node">
<title>Node0</title>
<polygon fill="#bfbfbf" stroke="#000000" points="0,-56.5 0,-75.5 163,-75.5 163,-56.5 0,-56.5"/>
<text text-anchor="middle" x="81.5" y="-63.5" font-family="Helvetica,sans-Serif" font-size="10.00" fill="#000000">src/engine/basics/Camera.hxx</text>
</g>
<!-- Node1 -->
<g id="node2" class="node">
<title>Node1</title>
<polygon fill="none" stroke="#bfbfbf" points="24.5,-.5 24.5,-19.5 68.5,-19.5 68.5,-.5 24.5,-.5"/>
<text text-anchor="middle" x="46.5" y="-7.5" font-family="Helvetica,sans-Serif" font-size="10.00" fill="#000000">SDL.h</text>
</g>
<!-- Node0&#45;&gt;Node1 -->
<g id="edge1" class="edge">
<title>Node0&#45;&gt;Node1</title>
<path fill="none" stroke="#191970" d="M75.4035,-56.2455C70.5855,-48.5367 63.7249,-37.5598 57.8968,-28.2348"/>
<polygon fill="#191970" stroke="#191970" points="60.7947,-26.2677 52.5267,-19.6427 54.8587,-29.9777 60.7947,-26.2677"/>
</g>
<!-- Node2 -->
<g id="node3" class="node">
<title>Node2</title>
<g id="a_node3"><a xlink:href="point_8hxx.html" target="_top" xlink:title="point.hxx">
<polygon fill="none" stroke="#000000" points="86.5,-.5 86.5,-19.5 148.5,-19.5 148.5,-.5 86.5,-.5"/>
<text text-anchor="middle" x="117.5" y="-7.5" font-family="Helvetica,sans-Serif" font-size="10.00" fill="#000000">point.hxx</text>
</a>
</g>
</g>
<!-- Node0&#45;&gt;Node2 -->
<g id="edge2" class="edge">
<title>Node0&#45;&gt;Node2</title>
<path fill="none" stroke="#191970" d="M87.7707,-56.2455C92.7264,-48.5367 99.783,-37.5598 105.7776,-28.2348"/>
<polygon fill="#191970" stroke="#191970" points="108.8376,-29.9471 111.3011,-19.6427 102.9494,-26.1618 108.8376,-29.9471"/>
</g>
</g>
</svg>
