<?xml version="1.0" encoding="UTF-8" standalone="no"?>
<!DOCTYPE svg PUBLIC "-//W3C//DTD SVG 1.1//EN"
 "http://www.w3.org/Graphics/SVG/1.1/DTD/svg11.dtd">
<!-- Generated by graphviz version 2.40.1 (20161225.0304)
 -->
<!-- Title: src/engine/basics/Camera.cxx Pages: 1 -->
<!--zoomable 476 -->
<svg id="main" version="1.1" xmlns="http://www.w3.org/2000/svg" xmlns:xlink="http://www.w3.org/1999/xlink" xml:space="preserve" onload="init(evt)">
<style type="text/css"><![CDATA[
.edge:hover path { stroke: red; }
.edge:hover polygon { stroke: red; fill: red; }
]]></style>
<script type="text/javascript"><![CDATA[
var edges = document.getElementsByTagName('g');
if (edges && edges.length) {
  for (var i=0;i<edges.length;i++) {
    if (edges[i].id.substr(0,4)=='edge') {
      edges[i].setAttribute('class','edge');
    }
  }
}
]]></script>
        <defs>
                <circle id="rim" cx="0" cy="0" r="7"/>
                <circle id="rim2" cx="0" cy="0" r="3.5"/>
                <g id="zoomPlus">
                        <use xlink:href="#rim" fill="#404040">
                                <set attributeName="fill" to="#808080" begin="zoomplus.mouseover" end="zoomplus.mouseout"/>
                        </use>
                        <path d="M-4,0h8M0,-4v8" fill="none" stroke="white" stroke-width="1.5" pointer-events="none"/>
                </g>
                <g id="zoomMin">
                        <use xlink:href="#rim" fill="#404040">
                                <set attributeName="fill" to="#808080" begin="zoomminus.mouseover" end="zoomminus.mouseout"/>
                        </use>
                        <path d="M-4,0h8" fill="none" stroke="white" stroke-width="1.5" pointer-events="none"/>
                </g>
                <g id="dirArrow">
                        <path fill="none" stroke="white" stroke-width="1.5" d="M0,-3.0v7 M-2.5,-0.5L0,-3.0L2.5,-0.5"/>
                </g>
               <g id="resetDef">
                       <use xlink:href="#rim2" fill="#404040">
                               <set attributeName="fill" to="#808080" begin="reset.mouseover" end="reset.mouseout"/>
                       </use>
               </g>
        </defs>

<script type="text/javascript">
var viewWidth = 1656;
var viewHeight = 476;
var sectionId = 'dynsection-0';
</script>
<script xlink:href="svgpan.js"/>
<svg id="graph" class="graph">
<g id="viewport">
<title>src/engine/basics/Camera.cxx</title>
<!-- Node0 -->
<g id="node1" class="node">
<title>Node0</title>
<polygon fill="#bfbfbf" stroke="#000000" points="544,-448.5 544,-467.5 706,-467.5 706,-448.5 544,-448.5"/>
<text text-anchor="middle" x="625" y="-455.5" font-family="Helvetica,sans-Serif" font-size="10.00" fill="#000000">src/engine/basics/Camera.cxx</text>
</g>
<!-- Node1 -->
<g id="node2" class="node">
<title>Node1</title>
<g id="a_node2"><a xlink:href="Camera_8hxx.html" target="_top" xlink:title="Camera.hxx">
<polygon fill="none" stroke="#000000" points="134,-168.5 134,-187.5 210,-187.5 210,-168.5 134,-168.5"/>
<text text-anchor="middle" x="172" y="-175.5" font-family="Helvetica,sans-Serif" font-size="10.00" fill="#000000">Camera.hxx</text>
</a>
</g>
</g>
<!-- Node0&#45;&gt;Node1 -->
<g id="edge1" class="edge">
<title>Node0&#45;&gt;Node1</title>
<path fill="none" stroke="#191970" d="M544.4941,-448.4907C441.426,-434.0268 276,-402.0773 276,-346 276,-346 276,-346 276,-290 276,-245.5129 231.394,-211.2585 200.6076,-192.9145"/>
<polygon fill="#191970" stroke="#191970" points="201.9795,-189.667 191.5616,-187.7386 198.5031,-195.7428 201.9795,-189.667"/>
</g>
<!-- Node4 -->
<g id="node5" class="node">
<title>Node4</title>
<g id="a_node5"><a xlink:href="isoMath_8hxx.html" target="_top" xlink:title="isoMath.hxx">
<polygon fill="none" stroke="#000000" points="40,-168.5 40,-187.5 116,-187.5 116,-168.5 40,-168.5"/>
<text text-anchor="middle" x="78" y="-175.5" font-family="Helvetica,sans-Serif" font-size="10.00" fill="#000000">isoMath.hxx</text>
</a>
</g>
</g>
<!-- Node0&#45;&gt;Node4 -->
<g id="edge4" class="edge">
<title>Node0&#45;&gt;Node4</title>
<path fill="none" stroke="#191970" d="M543.9147,-451.5228C377.3123,-437.1218 12,-399.4503 12,-346 12,-346 12,-346 12,-290 12,-251.944 40.6331,-215.4306 60.1802,-194.9377"/>
<polygon fill="#191970" stroke="#191970" points="62.8422,-197.2238 67.396,-187.6575 57.8705,-192.2961 62.8422,-197.2238"/>
</g>
<!-- Node7 -->
<g id="node8" class="node">
<title>Node7</title>
<g id="a_node8"><a xlink:href="Settings_8hxx.html" target="_top" xlink:title="Settings.hxx">
<polygon fill="none" stroke="#000000" points="1250.5,-224.5 1250.5,-243.5 1327.5,-243.5 1327.5,-224.5 1250.5,-224.5"/>
<text text-anchor="middle" x="1289" y="-231.5" font-family="Helvetica,sans-Serif" font-size="10.00" fill="#000000">Settings.hxx</text>
</a>
</g>
</g>
<!-- Node0&#45;&gt;Node7 -->
<g id="edge9" class="edge">
<title>Node0&#45;&gt;Node7</title>
<path fill="none" stroke="#191970" d="M688.6168,-448.4845C774.9085,-434.38 932.9786,-404.2705 1061,-356 1139.917,-326.2443 1225.7941,-274.4594 1265.916,-249.0023"/>
<polygon fill="#191970" stroke="#191970" points="1267.8948,-251.8914 1274.4341,-243.5554 1264.1237,-245.994 1267.8948,-251.8914"/>
</g>
<!-- Node16 -->
<g id="node17" class="node">
<title>Node16</title>
<g id="a_node17"><a xlink:href="Engine_8hxx.html" target="_top" xlink:title="../Engine.hxx">
<polygon fill="none" stroke="#000000" points="655,-392.5 655,-411.5 735,-411.5 735,-392.5 655,-392.5"/>
<text text-anchor="middle" x="695" y="-399.5" font-family="Helvetica,sans-Serif" font-size="10.00" fill="#000000">../Engine.hxx</text>
</a>
</g>
</g>
<!-- Node0&#45;&gt;Node16 -->
<g id="edge18" class="edge">
<title>Node0&#45;&gt;Node16</title>
<path fill="none" stroke="#191970" d="M637.1931,-448.2455C647.6321,-439.8943 662.8655,-427.7076 675.074,-417.9408"/>
<polygon fill="#191970" stroke="#191970" points="677.3244,-420.6227 682.9467,-411.6427 672.9515,-415.1566 677.3244,-420.6227"/>
</g>
<!-- Node2 -->
<g id="node3" class="node">
<title>Node2</title>
<polygon fill="none" stroke="#bfbfbf" points="407,-112.5 407,-131.5 451,-131.5 451,-112.5 407,-112.5"/>
<text text-anchor="middle" x="429" y="-119.5" font-family="Helvetica,sans-Serif" font-size="10.00" fill="#000000">SDL.h</text>
</g>
<!-- Node1&#45;&gt;Node2 -->
<g id="edge2" class="edge">
<title>Node1&#45;&gt;Node2</title>
<path fill="none" stroke="#191970" d="M210.198,-169.6767C260.8968,-158.6295 349.5171,-139.3192 396.9249,-128.9891"/>
<polygon fill="#191970" stroke="#191970" points="397.9143,-132.3557 406.9398,-126.8069 396.4239,-125.5162 397.9143,-132.3557"/>
</g>
<!-- Node3 -->
<g id="node4" class="node">
<title>Node3</title>
<g id="a_node4"><a xlink:href="point_8hxx.html" target="_top" xlink:title="point.hxx">
<polygon fill="none" stroke="#000000" points="141,-112.5 141,-131.5 203,-131.5 203,-112.5 141,-112.5"/>
<text text-anchor="middle" x="172" y="-119.5" font-family="Helvetica,sans-Serif" font-size="10.00" fill="#000000">point.hxx</text>
</a>
</g>
</g>
<!-- Node1&#45;&gt;Node3 -->
<g id="edge3" class="edge">
<title>Node1&#45;&gt;Node3</title>
<path fill="none" stroke="#191970" d="M172,-168.2455C172,-160.9382 172,-150.6944 172,-141.7046"/>
<polygon fill="#191970" stroke="#191970" points="175.5001,-141.6426 172,-131.6427 168.5001,-141.6427 175.5001,-141.6426"/>
</g>
<!-- Node4&#45;&gt;Node2 -->
<g id="edge6" class="edge">
<title>Node4&#45;&gt;Node2</title>
<path fill="none" stroke="#191970" d="M116.182,-169.6778C119.1616,-169.089 122.1273,-168.5225 125,-168 223.6746,-150.0536 341.2637,-133.6714 396.8488,-126.2247"/>
<polygon fill="#191970" stroke="#191970" points="397.3518,-129.6887 406.8018,-124.8982 396.427,-122.75 397.3518,-129.6887"/>
</g>
<!-- Node4&#45;&gt;Node3 -->
<g id="edge5" class="edge">
<title>Node4&#45;&gt;Node3</title>
<path fill="none" stroke="#191970" d="M94.3736,-168.2455C108.9308,-159.5731 130.431,-146.7645 147.1152,-136.825"/>
<polygon fill="#191970" stroke="#191970" points="149.0144,-139.7676 155.8141,-131.6427 145.4317,-133.7539 149.0144,-139.7676"/>
</g>
<!-- Node5 -->
<g id="node6" class="node">
<title>Node5</title>
<polygon fill="none" stroke="#bfbfbf" points="815.5,-56.5 815.5,-75.5 862.5,-75.5 862.5,-56.5 815.5,-56.5"/>
<text text-anchor="middle" x="839" y="-63.5" font-family="Helvetica,sans-Serif" font-size="10.00" fill="#000000">vector</text>
</g>
<!-- Node4&#45;&gt;Node5 -->
<g id="edge7" class="edge">
<title>Node4&#45;&gt;Node5</title>
<path fill="none" stroke="#191970" d="M82.6631,-168.2311C90.477,-153.1038 107.7751,-124.4588 132,-112 192.2452,-81.0161 672.3936,-69.2931 805.114,-66.6264"/>
<polygon fill="#191970" stroke="#191970" points="805.5373,-70.1188 815.4665,-66.4227 805.3995,-63.1202 805.5373,-70.1188"/>
</g>
<!-- Node6 -->
<g id="node7" class="node">
<title>Node6</title>
<polygon fill="none" stroke="#bfbfbf" points="0,-112.5 0,-131.5 64,-131.5 64,-112.5 0,-112.5"/>
<text text-anchor="middle" x="32" y="-119.5" font-family="Helvetica,sans-Serif" font-size="10.00" fill="#000000">algorithm</text>
</g>
<!-- Node4&#45;&gt;Node6 -->
<g id="edge8" class="edge">
<title>Node4&#45;&gt;Node6</title>
<path fill="none" stroke="#191970" d="M69.9874,-168.2455C63.5232,-160.3761 54.2615,-149.101 46.5017,-139.6542"/>
<polygon fill="#191970" stroke="#191970" points="48.9727,-137.1484 39.9208,-131.6427 43.5636,-141.5916 48.9727,-137.1484"/>
</g>
<!-- Node8 -->
<g id="node9" class="node">
<title>Node8</title>
<polygon fill="none" stroke="#bfbfbf" points="1174,-56.5 1174,-75.5 1218,-75.5 1218,-56.5 1174,-56.5"/>
<text text-anchor="middle" x="1196" y="-63.5" font-family="Helvetica,sans-Serif" font-size="10.00" fill="#000000">string</text>
</g>
<!-- Node7&#45;&gt;Node8 -->
<g id="edge10" class="edge">
<title>Node7&#45;&gt;Node8</title>
<path fill="none" stroke="#191970" d="M1300.7607,-224.315C1314.7087,-211.5854 1334.8962,-188.441 1325,-168 1304.7616,-126.197 1258.156,-96.3348 1226.8645,-80.1173"/>
<polygon fill="#191970" stroke="#191970" points="1228.1999,-76.8718 1217.6911,-75.5243 1225.0659,-83.131 1228.1999,-76.8718"/>
</g>
<!-- Node9 -->
<g id="node10" class="node">
<title>Node9</title>
<g id="a_node10"><a xlink:href="Singleton_8hxx.html" target="_top" xlink:title="../../util/Singleton.hxx">
<polygon fill="none" stroke="#000000" points="1010,-112.5 1010,-131.5 1130,-131.5 1130,-112.5 1010,-112.5"/>
<text text-anchor="middle" x="1070" y="-119.5" font-family="Helvetica,sans-Serif" font-size="10.00" fill="#000000">../../util/Singleton.hxx</text>
</a>
</g>
</g>
<!-- Node7&#45;&gt;Node9 -->
<g id="edge11" class="edge">
<title>Node7&#45;&gt;Node9</title>
<path fill="none" stroke="#191970" d="M1250.488,-230.7712C1196.3475,-225.3979 1101.7818,-212.6842 1079,-188 1067.7499,-175.8105 1066.2813,-156.5606 1067.1648,-141.989"/>
<polygon fill="#191970" stroke="#191970" points="1070.6558,-142.2529 1068.1759,-131.9524 1063.6911,-141.5512 1070.6558,-142.2529"/>
</g>
<!-- Node10 -->
<g id="node11" class="node">
<title>Node10</title>
<g id="a_node11"><a xlink:href="Meta_8hxx.html" target="_top" xlink:title="../../util/Meta.hxx">
<polygon fill="none" stroke="#000000" points="1436,-168.5 1436,-187.5 1534,-187.5 1534,-168.5 1436,-168.5"/>
<text text-anchor="middle" x="1485" y="-175.5" font-family="Helvetica,sans-Serif" font-size="10.00" fill="#000000">../../util/Meta.hxx</text>
</a>
</g>
</g>
<!-- Node7&#45;&gt;Node10 -->
<g id="edge12" class="edge">
<title>Node7&#45;&gt;Node10</title>
<path fill="none" stroke="#191970" d="M1322.6936,-224.3733C1355.7087,-214.9404 1406.1573,-200.5265 1442.0386,-190.2747"/>
<polygon fill="#191970" stroke="#191970" points="1443.0924,-193.6137 1451.7461,-187.5011 1441.1693,-186.8831 1443.0924,-193.6137"/>
</g>
<!-- Node15 -->
<g id="node16" class="node">
<title>Node15</title>
<polygon fill="none" stroke="#bfbfbf" points="1262.5,-168.5 1262.5,-187.5 1315.5,-187.5 1315.5,-168.5 1262.5,-168.5"/>
<text text-anchor="middle" x="1289" y="-175.5" font-family="Helvetica,sans-Serif" font-size="10.00" fill="#000000">cstddef</text>
</g>
<!-- Node7&#45;&gt;Node15 -->
<g id="edge17" class="edge">
<title>Node7&#45;&gt;Node15</title>
<path fill="none" stroke="#191970" d="M1289,-224.2455C1289,-216.9382 1289,-206.6944 1289,-197.7046"/>
<polygon fill="#191970" stroke="#191970" points="1292.5001,-197.6426 1289,-187.6427 1285.5001,-197.6427 1292.5001,-197.6426"/>
</g>
<!-- Node11 -->
<g id="node12" class="node">
<title>Node11</title>
<polygon fill="none" stroke="#bfbfbf" points="1372,-112.5 1372,-131.5 1432,-131.5 1432,-112.5 1372,-112.5"/>
<text text-anchor="middle" x="1402" y="-119.5" font-family="Helvetica,sans-Serif" font-size="10.00" fill="#000000">iostream</text>
</g>
<!-- Node10&#45;&gt;Node11 -->
<g id="edge13" class="edge">
<title>Node10&#45;&gt;Node11</title>
<path fill="none" stroke="#191970" d="M1470.5425,-168.2455C1457.9268,-159.7337 1439.4056,-147.2375 1424.7955,-137.3801"/>
<polygon fill="#191970" stroke="#191970" points="1426.5391,-134.3343 1416.2918,-131.6427 1422.6239,-140.1371 1426.5391,-134.3343"/>
</g>
<!-- Node12 -->
<g id="node13" class="node">
<title>Node12</title>
<polygon fill="none" stroke="#bfbfbf" points="1450.5,-112.5 1450.5,-131.5 1519.5,-131.5 1519.5,-112.5 1450.5,-112.5"/>
<text text-anchor="middle" x="1485" y="-119.5" font-family="Helvetica,sans-Serif" font-size="10.00" fill="#000000">type_traits</text>
</g>
<!-- Node10&#45;&gt;Node12 -->
<g id="edge14" class="edge">
<title>Node10&#45;&gt;Node12</title>
<path fill="none" stroke="#191970" d="M1485,-168.2455C1485,-160.9382 1485,-150.6944 1485,-141.7046"/>
<polygon fill="#191970" stroke="#191970" points="1488.5001,-141.6426 1485,-131.6427 1481.5001,-141.6427 1488.5001,-141.6426"/>
</g>
<!-- Node13 -->
<g id="node14" class="node">
<title>Node13</title>
<polygon fill="none" stroke="#bfbfbf" points="1537.5,-112.5 1537.5,-131.5 1588.5,-131.5 1588.5,-112.5 1537.5,-112.5"/>
<text text-anchor="middle" x="1563" y="-119.5" font-family="Helvetica,sans-Serif" font-size="10.00" fill="#000000">variant</text>
</g>
<!-- Node10&#45;&gt;Node13 -->
<g id="edge15" class="edge">
<title>Node10&#45;&gt;Node13</title>
<path fill="none" stroke="#191970" d="M1498.5866,-168.2455C1510.3305,-159.814 1527.5199,-147.4729 1541.1882,-137.6598"/>
<polygon fill="#191970" stroke="#191970" points="1543.4871,-140.3179 1549.5691,-131.6427 1539.4046,-134.6316 1543.4871,-140.3179"/>
</g>
<!-- Node14 -->
<g id="node15" class="node">
<title>Node14</title>
<polygon fill="none" stroke="#bfbfbf" points="1606.5,-112.5 1606.5,-131.5 1647.5,-131.5 1647.5,-112.5 1606.5,-112.5"/>
<text text-anchor="middle" x="1627" y="-119.5" font-family="Helvetica,sans-Serif" font-size="10.00" fill="#000000">tuple</text>
</g>
<!-- Node10&#45;&gt;Node14 -->
<g id="edge16" class="edge">
<title>Node10&#45;&gt;Node14</title>
<path fill="none" stroke="#191970" d="M1509.4107,-168.3733C1533.5986,-158.8343 1570.7025,-144.2018 1596.7475,-133.9306"/>
<polygon fill="#191970" stroke="#191970" points="1598.1193,-137.152 1606.138,-130.2273 1595.5512,-130.6401 1598.1193,-137.152"/>
</g>
<!-- Node16&#45;&gt;Node2 -->
<g id="edge19" class="edge">
<title>Node16&#45;&gt;Node2</title>
<path fill="none" stroke="#191970" d="M679.149,-392.4609C653.0769,-375.4246 604,-337.1008 604,-290 604,-290 604,-290 604,-234 604,-200.3521 511.0591,-156.2645 460.6405,-134.8234"/>
<polygon fill="#191970" stroke="#191970" points="461.7392,-131.4888 451.1639,-130.8469 459.0307,-137.9436 461.7392,-131.4888"/>
</g>
<!-- Node16&#45;&gt;Node3 -->
<g id="edge26" class="edge">
<title>Node16&#45;&gt;Node3</title>
<path fill="none" stroke="#191970" d="M654.7998,-395.3099C522.9302,-372.4683 107.5662,-293.121 31,-188 3.0866,-149.6765 79.6288,-132.8844 130.5834,-126.11"/>
<polygon fill="#191970" stroke="#191970" points="131.2173,-129.5582 140.7079,-124.8488 130.3519,-122.6119 131.2173,-129.5582"/>
</g>
<!-- Node16&#45;&gt;Node9 -->
<g id="edge59" class="edge">
<title>Node16&#45;&gt;Node9</title>
<path fill="none" stroke="#191970" d="M735.301,-396.8112C822.5225,-384.4544 1021,-349.7694 1021,-290 1021,-290 1021,-290 1021,-234 1021,-198.3181 1042.133,-161.1985 1056.6419,-139.9186"/>
<polygon fill="#191970" stroke="#191970" points="1059.6329,-141.7512 1062.558,-131.5681 1053.9211,-137.7046 1059.6329,-141.7512"/>
</g>
<!-- Node17 -->
<g id="node18" class="node">
<title>Node17</title>
<g id="a_node18"><a xlink:href="WindowManager_8hxx.html" target="_top" xlink:title="WindowManager.hxx">
<polygon fill="none" stroke="#000000" points="1088,-168.5 1088,-187.5 1206,-187.5 1206,-168.5 1088,-168.5"/>
<text text-anchor="middle" x="1147" y="-175.5" font-family="Helvetica,sans-Serif" font-size="10.00" fill="#000000">WindowManager.hxx</text>
</a>
</g>
</g>
<!-- Node16&#45;&gt;Node17 -->
<g id="edge20" class="edge">
<title>Node16&#45;&gt;Node17</title>
<path fill="none" stroke="#191970" d="M735.0915,-400.7746C814.0122,-397.6941 986.1001,-387.4694 1035,-356 1094.5215,-317.6952 1128.123,-235.3274 1140.928,-197.5992"/>
<polygon fill="#191970" stroke="#191970" points="1144.3452,-198.4091 1144.117,-187.8167 1137.6899,-196.2395 1144.3452,-198.4091"/>
</g>
<!-- Node18 -->
<g id="node19" class="node">
<title>Node18</title>
<g id="a_node19"><a xlink:href="Map_8hxx.html" target="_top" xlink:title="Map.hxx">
<polygon fill="none" stroke="#000000" points="725,-336.5 725,-355.5 783,-355.5 783,-336.5 725,-336.5"/>
<text text-anchor="middle" x="754" y="-343.5" font-family="Helvetica,sans-Serif" font-size="10.00" fill="#000000">Map.hxx</text>
</a>
</g>
</g>
<!-- Node16&#45;&gt;Node18 -->
<g id="edge27" class="edge">
<title>Node16&#45;&gt;Node18</title>
<path fill="none" stroke="#191970" d="M705.277,-392.2455C713.8218,-384.1352 726.1778,-372.4075 736.3085,-362.7919"/>
<polygon fill="#191970" stroke="#191970" points="738.9972,-365.0655 743.8408,-355.6427 734.1782,-359.9884 738.9972,-365.0655"/>
</g>
<!-- Node17&#45;&gt;Node2 -->
<g id="edge24" class="edge">
<title>Node17&#45;&gt;Node2</title>
<path fill="none" stroke="#191970" d="M1087.8721,-175.8277C944.342,-170.2658 580.5296,-154.3588 461,-132 460.8999,-131.9813 460.7996,-131.9623 460.6993,-131.9432"/>
<polygon fill="#191970" stroke="#191970" points="461.7492,-128.5956 451.2096,-129.6764 460.1228,-135.404 461.7492,-128.5956"/>
</g>
<!-- Node17&#45;&gt;Node5 -->
<g id="edge23" class="edge">
<title>Node17&#45;&gt;Node5</title>
<path fill="none" stroke="#191970" d="M1149.0454,-168.4256C1151.4945,-154.0803 1153.6181,-127.0863 1139,-112 1120.6522,-93.0644 947.6035,-75.6188 872.9791,-68.9086"/>
<polygon fill="#191970" stroke="#191970" points="872.9835,-65.3953 862.7132,-67.9976 872.3646,-72.3679 872.9835,-65.3953"/>
</g>
<!-- Node17&#45;&gt;Node8 -->
<g id="edge21" class="edge">
<title>Node17&#45;&gt;Node8</title>
<path fill="none" stroke="#191970" d="M1152.7976,-168.3444C1158.1662,-159.1815 1166.1756,-144.9279 1172,-132 1178.9552,-116.5623 1185.4271,-98.451 1189.8933,-85.1101"/>
<polygon fill="#191970" stroke="#191970" points="1193.2295,-86.1685 1193.016,-75.5758 1186.5772,-83.9897 1193.2295,-86.1685"/>
</g>
<!-- Node17&#45;&gt;Node9 -->
<g id="edge25" class="edge">
<title>Node17&#45;&gt;Node9</title>
<path fill="none" stroke="#191970" d="M1133.5876,-168.2455C1121.9943,-159.814 1105.0252,-147.4729 1091.5322,-137.6598"/>
<polygon fill="#191970" stroke="#191970" points="1093.4047,-134.6938 1083.2587,-131.6427 1089.2874,-140.355 1093.4047,-134.6938"/>
</g>
<!-- Node17&#45;&gt;Node11 -->
<g id="edge22" class="edge">
<title>Node17&#45;&gt;Node11</title>
<path fill="none" stroke="#191970" d="M1190.5463,-168.4369C1238.5517,-157.8945 1315.1408,-141.075 1361.7763,-130.8334"/>
<polygon fill="#191970" stroke="#191970" points="1362.8016,-134.1918 1371.8181,-128.6282 1361.3001,-127.3547 1362.8016,-134.1918"/>
</g>
<!-- Node18&#45;&gt;Node5 -->
<g id="edge28" class="edge">
<title>Node18&#45;&gt;Node5</title>
<path fill="none" stroke="#191970" d="M783.3403,-338.2118C844.9194,-321.0004 982,-277.7706 982,-234 982,-234 982,-234 982,-178 982,-122.531 914.4881,-90.4114 872.2397,-75.7419"/>
<polygon fill="#191970" stroke="#191970" points="873.207,-72.3753 862.6135,-72.5472 871.002,-79.0189 873.207,-72.3753"/>
</g>
<!-- Node19 -->
<g id="node20" class="node">
<title>Node19</title>
<g id="a_node20"><a xlink:href="MapNode_8hxx.html" target="_top" xlink:title="GameObjects/MapNode.hxx">
<polygon fill="none" stroke="#000000" points="408,-224.5 408,-243.5 560,-243.5 560,-224.5 408,-224.5"/>
<text text-anchor="middle" x="484" y="-231.5" font-family="Helvetica,sans-Serif" font-size="10.00" fill="#000000">GameObjects/MapNode.hxx</text>
</a>
</g>
</g>
<!-- Node18&#45;&gt;Node19 -->
<g id="edge29" class="edge">
<title>Node18&#45;&gt;Node19</title>
<path fill="none" stroke="#191970" d="M730.98,-336.4509C682.8586,-316.4895 571.5164,-270.3031 516.2788,-247.3897"/>
<polygon fill="#191970" stroke="#191970" points="517.5397,-244.1236 506.9618,-243.5249 514.8575,-250.5894 517.5397,-244.1236"/>
</g>
<!-- Node30 -->
<g id="node31" class="node">
<title>Node30</title>
<g id="a_node31"><a xlink:href="TerrainGenerator_8hxx.html" target="_top" xlink:title="map/TerrainGenerator.hxx">
<polygon fill="none" stroke="#000000" points="739.5,-280.5 739.5,-299.5 882.5,-299.5 882.5,-280.5 739.5,-280.5"/>
<text text-anchor="middle" x="811" y="-287.5" font-family="Helvetica,sans-Serif" font-size="10.00" fill="#000000">map/TerrainGenerator.hxx</text>
</a>
</g>
</g>
<!-- Node18&#45;&gt;Node30 -->
<g id="edge55" class="edge">
<title>Node18&#45;&gt;Node30</title>
<path fill="none" stroke="#191970" d="M763.9286,-336.2455C772.1838,-328.1352 784.1209,-316.4075 793.9082,-306.7919"/>
<polygon fill="#191970" stroke="#191970" points="796.5046,-309.1476 801.1851,-299.6427 791.5989,-304.1542 796.5046,-309.1476"/>
</g>
<!-- Node19&#45;&gt;Node2 -->
<g id="edge30" class="edge">
<title>Node19&#45;&gt;Node2</title>
<path fill="none" stroke="#191970" d="M489.847,-224.4721C497.2266,-211.1102 507.8381,-186.3826 498,-168 489.9195,-152.9015 474.4521,-141.9029 460.2066,-134.4538"/>
<polygon fill="#191970" stroke="#191970" points="461.6388,-131.2588 451.1116,-130.0639 458.596,-137.5629 461.6388,-131.2588"/>
</g>
<!-- Node19&#45;&gt;Node3 -->
<g id="edge43" class="edge">
<title>Node19&#45;&gt;Node3</title>
<path fill="none" stroke="#191970" d="M407.7821,-226.3943C363.7495,-220.0208 308.1226,-208.5159 262,-188 234.1582,-175.6156 206.559,-153.5395 189.4115,-138.3531"/>
<polygon fill="#191970" stroke="#191970" points="191.6376,-135.6471 181.8779,-131.524 186.9363,-140.8334 191.6376,-135.6471"/>
</g>
<!-- Node19&#45;&gt;Node5 -->
<g id="edge34" class="edge">
<title>Node19&#45;&gt;Node5</title>
<path fill="none" stroke="#191970" d="M483.5346,-224.4192C482.3966,-210.5462 478.4792,-184.7019 465,-168 440.6264,-137.799 372.0201,-140.8308 398,-112 425.1626,-81.8567 706.7322,-70.1626 805.2153,-66.9751"/>
<polygon fill="#191970" stroke="#191970" points="805.6109,-70.4645 815.496,-66.652 805.3909,-63.468 805.6109,-70.4645"/>
</g>
<!-- Node19&#45;&gt;Node6 -->
<g id="edge33" class="edge">
<title>Node19&#45;&gt;Node6</title>
<path fill="none" stroke="#191970" d="M407.9213,-231.7343C285.4546,-227.2942 55.7436,-215.3834 31,-188 19.8717,-175.6844 21.6562,-156.1768 25.3039,-141.5581"/>
<polygon fill="#191970" stroke="#191970" points="28.6658,-142.5316 28.1314,-131.9502 21.9506,-140.5554 28.6658,-142.5316"/>
</g>
<!-- Node19&#45;&gt;Node8 -->
<g id="edge32" class="edge">
<title>Node19&#45;&gt;Node8</title>
<path fill="none" stroke="#191970" d="M560.1537,-231.9839C742.8951,-226.776 1192.8302,-211.6087 1215,-188 1241.2832,-160.0108 1221.4856,-111.4636 1207.2235,-84.8284"/>
<polygon fill="#191970" stroke="#191970" points="1210.0885,-82.7823 1202.1361,-75.7815 1203.987,-86.2135 1210.0885,-82.7823"/>
</g>
<!-- Node20 -->
<g id="node21" class="node">
<title>Node20</title>
<polygon fill="none" stroke="#bfbfbf" points="304,-168.5 304,-187.5 362,-187.5 362,-168.5 304,-168.5"/>
<text text-anchor="middle" x="333" y="-175.5" font-family="Helvetica,sans-Serif" font-size="10.00" fill="#000000">memory</text>
</g>
<!-- Node19&#45;&gt;Node20 -->
<g id="edge31" class="edge">
<title>Node19&#45;&gt;Node20</title>
<path fill="none" stroke="#191970" d="M458.0422,-224.3733C433.2593,-215.1822 395.7254,-201.2624 368.246,-191.0713"/>
<polygon fill="#191970" stroke="#191970" points="369.2121,-187.6968 358.6191,-187.5011 366.7781,-194.26 369.2121,-187.6968"/>
</g>
<!-- Node21 -->
<g id="node22" class="node">
<title>Node21</title>
<g id="a_node22"><a xlink:href="Sprite_8hxx.html" target="_top" xlink:title="../Sprite.hxx">
<polygon fill="none" stroke="#000000" points="380.5,-168.5 380.5,-187.5 455.5,-187.5 455.5,-168.5 380.5,-168.5"/>
<text text-anchor="middle" x="418" y="-175.5" font-family="Helvetica,sans-Serif" font-size="10.00" fill="#000000">../Sprite.hxx</text>
</a>
</g>
</g>
<!-- Node19&#45;&gt;Node21 -->
<g id="edge35" class="edge">
<title>Node19&#45;&gt;Node21</title>
<path fill="none" stroke="#191970" d="M472.5037,-224.2455C462.7558,-215.9746 448.5741,-203.9416 437.1202,-194.2232"/>
<polygon fill="#191970" stroke="#191970" points="439.2541,-191.4437 429.3646,-187.6427 434.7253,-196.7813 439.2541,-191.4437"/>
</g>
<!-- Node22 -->
<g id="node23" class="node">
<title>Node22</title>
<g id="a_node23"><a xlink:href="enums_8hxx.html" target="_top" xlink:title="common/enums.hxx">
<polygon fill="none" stroke="#000000" points="245,-56.5 245,-75.5 361,-75.5 361,-56.5 245,-56.5"/>
<text text-anchor="middle" x="303" y="-63.5" font-family="Helvetica,sans-Serif" font-size="10.00" fill="#000000">common/enums.hxx</text>
</a>
</g>
</g>
<!-- Node19&#45;&gt;Node22 -->
<g id="edge42" class="edge">
<title>Node19&#45;&gt;Node22</title>
<path fill="none" stroke="#191970" d="M407.9546,-225.095C361.8356,-217.9536 309.2147,-206.0893 295,-188 271.8313,-158.516 284.4487,-111.6271 294.4949,-85.3953"/>
<polygon fill="#191970" stroke="#191970" points="297.8611,-86.4099 298.4006,-75.8288 291.3804,-83.764 297.8611,-86.4099"/>
</g>
<!-- Node25 -->
<g id="node26" class="node">
<title>Node25</title>
<g id="a_node26"><a xlink:href="TileManager_8hxx.html" target="_top" xlink:title="../TileManager.hxx">
<polygon fill="none" stroke="#000000" points="652,-168.5 652,-187.5 758,-187.5 758,-168.5 652,-168.5"/>
<text text-anchor="middle" x="705" y="-175.5" font-family="Helvetica,sans-Serif" font-size="10.00" fill="#000000">../TileManager.hxx</text>
</a>
</g>
</g>
<!-- Node19&#45;&gt;Node25 -->
<g id="edge44" class="edge">
<title>Node19&#45;&gt;Node25</title>
<path fill="none" stroke="#191970" d="M521.7401,-224.4369C559.2448,-214.9335 616.8799,-200.3291 657.4824,-190.0407"/>
<polygon fill="#191970" stroke="#191970" points="658.5816,-193.3728 667.4155,-187.5237 656.8621,-186.5873 658.5816,-193.3728"/>
</g>
<!-- Node21&#45;&gt;Node2 -->
<g id="edge36" class="edge">
<title>Node21&#45;&gt;Node2</title>
<path fill="none" stroke="#191970" d="M419.9161,-168.2455C421.3514,-160.9382 423.3636,-150.6944 425.1295,-141.7046"/>
<polygon fill="#191970" stroke="#191970" points="428.6127,-142.1298 427.1059,-131.6427 421.744,-140.7805 428.6127,-142.1298"/>
</g>
<!-- Node21&#45;&gt;Node3 -->
<g id="edge38" class="edge">
<title>Node21&#45;&gt;Node3</title>
<path fill="none" stroke="#191970" d="M380.3701,-169.4338C335.1033,-159.1292 259.3964,-141.8951 212.7726,-131.2816"/>
<polygon fill="#191970" stroke="#191970" points="213.5302,-127.8646 203.0027,-129.0575 211.9764,-134.6899 213.5302,-127.8646"/>
</g>
<!-- Node21&#45;&gt;Node5 -->
<g id="edge37" class="edge">
<title>Node21&#45;&gt;Node5</title>
<path fill="none" stroke="#191970" d="M400.6148,-168.3032C379.1864,-155.1651 347.617,-131.1516 365,-112 394.5173,-79.4794 701.5758,-69.2536 805.1216,-66.7167"/>
<polygon fill="#191970" stroke="#191970" points="805.4143,-70.2108 815.3288,-66.4756 805.2489,-63.2128 805.4143,-70.2108"/>
</g>
<!-- Node21&#45;&gt;Node22 -->
<g id="edge39" class="edge">
<title>Node21&#45;&gt;Node22</title>
<path fill="none" stroke="#191970" d="M385.5482,-168.3801C366.2184,-161.1622 342.509,-149.4784 327,-132 315.5065,-119.047 309.3789,-100.1512 306.2009,-85.894"/>
<polygon fill="#191970" stroke="#191970" points="309.5586,-84.8188 304.2385,-75.6565 302.6838,-86.1367 309.5586,-84.8188"/>
</g>
<!-- Node23 -->
<g id="node24" class="node">
<title>Node23</title>
<polygon fill="none" stroke="#bfbfbf" points="227,-.5 227,-19.5 283,-19.5 283,-.5 227,-.5"/>
<text text-anchor="middle" x="255" y="-7.5" font-family="Helvetica,sans-Serif" font-size="10.00" fill="#000000">stddef.h</text>
</g>
<!-- Node22&#45;&gt;Node23 -->
<g id="edge40" class="edge">
<title>Node22&#45;&gt;Node23</title>
<path fill="none" stroke="#191970" d="M294.639,-56.2455C287.825,-48.2958 278.0319,-36.8706 269.8848,-27.3656"/>
<polygon fill="#191970" stroke="#191970" points="272.4305,-24.9575 263.2651,-19.6427 267.1157,-29.513 272.4305,-24.9575"/>
</g>
<!-- Node24 -->
<g id="node25" class="node">
<title>Node24</title>
<polygon fill="none" stroke="#bfbfbf" points="301,-.5 301,-19.5 401,-19.5 401,-.5 301,-.5"/>
<text text-anchor="middle" x="351" y="-7.5" font-family="Helvetica,sans-Serif" font-size="10.00" fill="#000000">betterEnums.hxx</text>
</g>
<!-- Node22&#45;&gt;Node24 -->
<g id="edge41" class="edge">
<title>Node22&#45;&gt;Node24</title>
<path fill="none" stroke="#191970" d="M311.361,-56.2455C318.175,-48.2958 327.9681,-36.8706 336.1152,-27.3656"/>
<polygon fill="#191970" stroke="#191970" points="338.8843,-29.513 342.7349,-19.6427 333.5695,-24.9575 338.8843,-29.513"/>
</g>
<!-- Node25&#45;&gt;Node2 -->
<g id="edge45" class="edge">
<title>Node25&#45;&gt;Node2</title>
<path fill="none" stroke="#191970" d="M651.7813,-169.8038C602.0903,-161.7182 526.0365,-148.2337 461,-132 460.9012,-131.9753 460.8022,-131.9505 460.7031,-131.9256"/>
<polygon fill="#191970" stroke="#191970" points="461.8562,-128.613 451.2855,-129.3284 459.9951,-135.3611 461.8562,-128.613"/>
</g>
<!-- Node25&#45;&gt;Node8 -->
<g id="edge47" class="edge">
<title>Node25&#45;&gt;Node8</title>
<path fill="none" stroke="#191970" d="M746.8624,-168.4509C843.0359,-146.5132 1078.0699,-92.9006 1163.9252,-73.3165"/>
<polygon fill="#191970" stroke="#191970" points="1164.8974,-76.6847 1173.8686,-71.0483 1163.3406,-69.86 1164.8974,-76.6847"/>
</g>
<!-- Node25&#45;&gt;Node9 -->
<g id="edge53" class="edge">
<title>Node25&#45;&gt;Node9</title>
<path fill="none" stroke="#191970" d="M758.0741,-169.8571C821.8646,-160.0701 929.1202,-143.6144 999.7327,-132.7807"/>
<polygon fill="#191970" stroke="#191970" points="1000.5219,-136.2007 1009.8755,-131.2246 999.4603,-129.2816 1000.5219,-136.2007"/>
</g>
<!-- Node26 -->
<g id="node27" class="node">
<title>Node26</title>
<polygon fill="none" stroke="#bfbfbf" points="469.5,-112.5 469.5,-131.5 562.5,-131.5 562.5,-112.5 469.5,-112.5"/>
<text text-anchor="middle" x="516" y="-119.5" font-family="Helvetica,sans-Serif" font-size="10.00" fill="#000000">unordered_map</text>
</g>
<!-- Node25&#45;&gt;Node26 -->
<g id="edge46" class="edge">
<title>Node25&#45;&gt;Node26</title>
<path fill="none" stroke="#191970" d="M672.5097,-168.3733C640.8098,-158.9807 592.4424,-144.6496 557.8714,-134.4064"/>
<polygon fill="#191970" stroke="#191970" points="558.6486,-130.9863 548.0663,-131.5011 556.6599,-137.6979 558.6486,-130.9863"/>
</g>
<!-- Node27 -->
<g id="node28" class="node">
<title>Node27</title>
<g id="a_node28"><a xlink:href="tileData_8hxx.html" target="_top" xlink:title="tileData.hxx">
<polygon fill="none" stroke="#000000" points="800.5,-112.5 800.5,-131.5 877.5,-131.5 877.5,-112.5 800.5,-112.5"/>
<text text-anchor="middle" x="839" y="-119.5" font-family="Helvetica,sans-Serif" font-size="10.00" fill="#000000">tileData.hxx</text>
</a>
</g>
</g>
<!-- Node25&#45;&gt;Node27 -->
<g id="edge48" class="edge">
<title>Node25&#45;&gt;Node27</title>
<path fill="none" stroke="#191970" d="M728.0354,-168.3733C749.7388,-159.3032 782.4618,-145.6279 806.755,-135.4755"/>
<polygon fill="#191970" stroke="#191970" points="808.3881,-138.5865 816.2652,-131.5011 805.6889,-132.1278 808.3881,-138.5865"/>
</g>
<!-- Node28 -->
<g id="node29" class="node">
<title>Node28</title>
<polygon fill="none" stroke="#bfbfbf" points="581,-112.5 581,-131.5 639,-131.5 639,-112.5 581,-112.5"/>
<text text-anchor="middle" x="610" y="-119.5" font-family="Helvetica,sans-Serif" font-size="10.00" fill="#000000">json.hxx</text>
</g>
<!-- Node25&#45;&gt;Node28 -->
<g id="edge52" class="edge">
<title>Node25&#45;&gt;Node28</title>
<path fill="none" stroke="#191970" d="M688.4523,-168.2455C673.7401,-159.5731 652.0112,-146.7645 635.1495,-136.825"/>
<polygon fill="#191970" stroke="#191970" points="636.7502,-133.7057 626.3581,-131.6427 633.1954,-139.736 636.7502,-133.7057"/>
</g>
<!-- Node29 -->
<g id="node30" class="node">
<title>Node29</title>
<polygon fill="none" stroke="#bfbfbf" points="657.5,-112.5 657.5,-131.5 782.5,-131.5 782.5,-112.5 657.5,-112.5"/>
<text text-anchor="middle" x="720" y="-119.5" font-family="Helvetica,sans-Serif" font-size="10.00" fill="#000000">../common/enums.hxx</text>
</g>
<!-- Node25&#45;&gt;Node29 -->
<g id="edge54" class="edge">
<title>Node25&#45;&gt;Node29</title>
<path fill="none" stroke="#191970" d="M707.6128,-168.2455C709.5916,-160.8579 712.3744,-150.4689 714.8012,-141.4087"/>
<polygon fill="#191970" stroke="#191970" points="718.2105,-142.2078 717.4171,-131.6427 711.4489,-140.3966 718.2105,-142.2078"/>
</g>
<!-- Node27&#45;&gt;Node5 -->
<g id="edge50" class="edge">
<title>Node27&#45;&gt;Node5</title>
<path fill="none" stroke="#191970" d="M839,-112.2455C839,-104.9382 839,-94.6944 839,-85.7046"/>
<polygon fill="#191970" stroke="#191970" points="842.5001,-85.6426 839,-75.6427 835.5001,-85.6427 842.5001,-85.6426"/>
</g>
<!-- Node27&#45;&gt;Node8 -->
<g id="edge49" class="edge">
<title>Node27&#45;&gt;Node8</title>
<path fill="none" stroke="#191970" d="M877.7581,-114.5191C882.5498,-113.6438 887.3843,-112.7844 892,-112 990.8757,-95.1971 1108.3707,-78.2798 1163.8915,-70.4675"/>
<polygon fill="#191970" stroke="#191970" points="1164.4157,-73.9283 1173.8325,-69.0729 1163.4432,-66.9962 1164.4157,-73.9283"/>
</g>
<!-- Node27&#45;&gt;Node22 -->
<g id="edge51" class="edge">
<title>Node27&#45;&gt;Node22</title>
<path fill="none" stroke="#191970" d="M800.3366,-113.4028C797.5221,-112.891 794.7214,-112.4161 792,-112 642.7635,-89.183 466.0582,-75.9242 371.2596,-69.9163"/>
<polygon fill="#191970" stroke="#191970" points="371.4277,-66.4201 361.2285,-69.2884 370.9902,-73.4064 371.4277,-66.4201"/>
</g>
<!-- Node30&#45;&gt;Node5 -->
<g id="edge58" class="edge">
<title>Node30&#45;&gt;Node5</title>
<path fill="none" stroke="#191970" d="M817.6574,-280.2342C833.5237,-256.2955 873.2639,-192.2449 887,-132 888.976,-123.3335 890.4888,-120.1756 887,-112 881.8844,-100.0122 871.9425,-89.6498 862.4273,-81.8114"/>
<polygon fill="#191970" stroke="#191970" points="864.3754,-78.8949 854.3074,-75.5954 860.1203,-84.4532 864.3754,-78.8949"/>
</g>
<!-- Node30&#45;&gt;Node19 -->
<g id="edge56" class="edge">
<title>Node30&#45;&gt;Node19</title>
<path fill="none" stroke="#191970" d="M755.1582,-280.4369C698.2542,-270.6918 610.0304,-255.5832 549.7764,-245.2645"/>
<polygon fill="#191970" stroke="#191970" points="550.0588,-241.7619 539.6114,-243.5237 548.8771,-248.6615 550.0588,-241.7619"/>
</g>
<!-- Node31 -->
<g id="node32" class="node">
<title>Node31</title>
<polygon fill="none" stroke="#bfbfbf" points="916,-224.5 916,-243.5 954,-243.5 954,-224.5 916,-224.5"/>
<text text-anchor="middle" x="935" y="-231.5" font-family="Helvetica,sans-Serif" font-size="10.00" fill="#000000">map</text>
</g>
<!-- Node30&#45;&gt;Node31 -->
<g id="edge57" class="edge">
<title>Node30&#45;&gt;Node31</title>
<path fill="none" stroke="#191970" d="M832.3164,-280.3733C852.8248,-271.1114 883.9662,-257.0475 906.5767,-246.8363"/>
<polygon fill="#191970" stroke="#191970" points="908.3188,-249.89 915.9919,-242.5843 905.4377,-243.5104 908.3188,-249.89"/>
</g>
</g>
</svg>
        <g id="navigator" transform="translate(0 0)" fill="#404254">
                <rect fill="#f2f5e9" fill-opacity="0.5" stroke="#606060" stroke-width=".5" x="0" y="0" width="60" height="60"/>
                <use id="zoomplus" xlink:href="#zoomPlus" x="17" y="9" onmousedown="handleZoom(evt,'in')"/>
                <use id="zoomminus" xlink:href="#zoomMin" x="42" y="9" onmousedown="handleZoom(evt,'out')"/>
                <use id="reset" xlink:href="#resetDef" x="30" y="36" onmousedown="handleReset()"/>
                <g id="arrowUp" xlink:href="#dirArrow" transform="translate(30 24)" onmousedown="handlePan(0,-1)">
                  <use xlink:href="#rim" fill="#404040">
                        <set attributeName="fill" to="#808080" begin="arrowUp.mouseover" end="arrowUp.mouseout"/>
                  </use>
                  <path fill="none" stroke="white" stroke-width="1.5" d="M0,-3.0v7 M-2.5,-0.5L0,-3.0L2.5,-0.5"/>
                </g>
                <g id="arrowRight" xlink:href="#dirArrow" transform="rotate(90) translate(36 -43)" onmousedown="handlePan(1,0)">
                  <use xlink:href="#rim" fill="#404040">
                        <set attributeName="fill" to="#808080" begin="arrowRight.mouseover" end="arrowRight.mouseout"/>
                  </use>
                  <path fill="none" stroke="white" stroke-width="1.5" d="M0,-3.0v7 M-2.5,-0.5L0,-3.0L2.5,-0.5"/>
                </g>
                <g id="arrowDown" xlink:href="#dirArrow" transform="rotate(180) translate(-30 -48)" onmousedown="handlePan(0,1)">
                  <use xlink:href="#rim" fill="#404040">
                        <set attributeName="fill" to="#808080" begin="arrowDown.mouseover" end="arrowDown.mouseout"/>
                  </use>
                  <path fill="none" stroke="white" stroke-width="1.5" d="M0,-3.0v7 M-2.5,-0.5L0,-3.0L2.5,-0.5"/>
                </g>
                <g id="arrowLeft" xlink:href="#dirArrow" transform="rotate(270) translate(-36 17)" onmousedown="handlePan(-1,0)">
                  <use xlink:href="#rim" fill="#404040">
                        <set attributeName="fill" to="#808080" begin="arrowLeft.mouseover" end="arrowLeft.mouseout"/>
                  </use>
                  <path fill="none" stroke="white" stroke-width="1.5" d="M0,-3.0v7 M-2.5,-0.5L0,-3.0L2.5,-0.5"/>
                </g>
        </g>
        <svg viewBox="0 0 15 15" width="100%" height="30px" preserveAspectRatio="xMaxYMin meet">
         <g id="arrow_out" transform="scale(0.3 0.3)">
          <a xlink:href="Camera_8cxx__incl_org.svg" target="_base">
           <rect id="button" ry="5" rx="5" y="6" x="6" height="38" width="38"
                fill="#f2f5e9" fill-opacity="0.5" stroke="#606060" stroke-width="1.0"/>
           <path id="arrow"
             d="M 11.500037,31.436501 C 11.940474,20.09759 22.043105,11.32322 32.158766,21.979434 L 37.068811,17.246167 C 37.068811,17.246167 37.088388,32 37.088388,32 L 22.160133,31.978069 C 22.160133,31.978069 26.997745,27.140456 26.997745,27.140456 C 18.528582,18.264221 13.291696,25.230495 11.500037,31.436501 z"
             style="fill:#404040;"/>
          </a>
         </g>
        </svg>
</svg>
