<?xml version="1.0" encoding="UTF-8" standalone="no"?>
<!DOCTYPE svg PUBLIC "-//W3C//DTD SVG 1.1//EN"
 "http://www.w3.org/Graphics/SVG/1.1/DTD/svg11.dtd">
<!-- Generated by graphviz version 2.40.1 (20161225.0304)
 -->
<!-- Title: src/engine/basics/Camera.hxx Pages: 1 -->
<svg width="1036pt" height="84pt"
 viewBox="0.00 0.00 1035.50 84.00" xmlns="http://www.w3.org/2000/svg" xmlns:xlink="http://www.w3.org/1999/xlink">
<g id="graph0" class="graph" transform="scale(1 1) rotate(0) translate(4 80)">
<title>src/engine/basics/Camera.hxx</title>
<!-- Node3 -->
<g id="node1" class="node">
<title>Node3</title>
<polygon fill="#bfbfbf" stroke="#000000" points="499.5,-56.5 499.5,-75.5 662.5,-75.5 662.5,-56.5 499.5,-56.5"/>
<text text-anchor="middle" x="581" y="-63.5" font-family="Helvetica,sans-Serif" font-size="10.00" fill="#000000">src/engine/basics/Camera.hxx</text>
</g>
<!-- Node4 -->
<g id="node2" class="node">
<title>Node4</title>
<g id="a_node2"><a xlink:href="Camera_8cxx.html" target="_top" xlink:title="src/engine/basics/Camera.cxx">
<polygon fill="none" stroke="#000000" points="0,-.5 0,-19.5 162,-19.5 162,-.5 0,-.5"/>
<text text-anchor="middle" x="81" y="-7.5" font-family="Helvetica,sans-Serif" font-size="10.00" fill="#000000">src/engine/basics/Camera.cxx</text>
</a>
</g>
</g>
<!-- Node3&#45;&gt;Node4 -->
<g id="edge1" class="edge">
<title>Node3&#45;&gt;Node4</title>
<path fill="none" stroke="#191970" d="M489.2523,-55.7243C395.6915,-45.2454 251.9136,-29.1423 162.3158,-19.1074"/>
<polygon fill="#191970" stroke="#191970" points="488.947,-59.2119 499.2745,-56.8467 489.7262,-52.2554 488.947,-59.2119"/>
</g>
<!-- Node5 -->
<g id="node3" class="node">
<title>Node5</title>
<g id="a_node3"><a xlink:href="isoMath_8cxx.html" target="_top" xlink:title="src/engine/basics/isoMath.cxx">
<polygon fill="none" stroke="#000000" points="180,-.5 180,-19.5 342,-19.5 342,-.5 180,-.5"/>
<text text-anchor="middle" x="261" y="-7.5" font-family="Helvetica,sans-Serif" font-size="10.00" fill="#000000">src/engine/basics/isoMath.cxx</text>
</a>
</g>
</g>
<!-- Node3&#45;&gt;Node5 -->
<g id="edge2" class="edge">
<title>Node3&#45;&gt;Node5</title>
<path fill="none" stroke="#191970" d="M516.3926,-54.6937C457.3547,-44.3621 371.0241,-29.2542 315.421,-19.5237"/>
<polygon fill="#191970" stroke="#191970" points="515.9,-58.1606 526.3536,-56.4369 517.1067,-51.2654 515.9,-58.1606"/>
</g>
<!-- Node6 -->
<g id="node4" class="node">
<title>Node6</title>
<g id="a_node4"><a xlink:href="Engine_8cxx.html" target="_top" xlink:title="src/engine/Engine.cxx">
<polygon fill="none" stroke="#000000" points="360.5,-.5 360.5,-19.5 483.5,-19.5 483.5,-.5 360.5,-.5"/>
<text text-anchor="middle" x="422" y="-7.5" font-family="Helvetica,sans-Serif" font-size="10.00" fill="#000000">src/engine/Engine.cxx</text>
</a>
</g>
</g>
<!-- Node3&#45;&gt;Node6 -->
<g id="edge3" class="edge">
<title>Node3&#45;&gt;Node6</title>
<path fill="none" stroke="#191970" d="M543.871,-52.9231C514.805,-42.686 475.0631,-28.6889 448.9764,-19.5011"/>
<polygon fill="#191970" stroke="#191970" points="543.0721,-56.3524 553.6669,-56.3733 545.3975,-49.75 543.0721,-56.3524"/>
</g>
<!-- Node7 -->
<g id="node5" class="node">
<title>Node7</title>
<g id="a_node5"><a xlink:href="EventManager_8cxx.html" target="_top" xlink:title="src/engine/EventManager.cxx">
<polygon fill="none" stroke="#000000" points="501.5,-.5 501.5,-19.5 660.5,-19.5 660.5,-.5 501.5,-.5"/>
<text text-anchor="middle" x="581" y="-7.5" font-family="Helvetica,sans-Serif" font-size="10.00" fill="#000000">src/engine/EventManager.cxx</text>
</a>
</g>
</g>
<!-- Node3&#45;&gt;Node7 -->
<g id="edge4" class="edge">
<title>Node3&#45;&gt;Node7</title>
<path fill="none" stroke="#191970" d="M581,-46.1575C581,-37.155 581,-26.9199 581,-19.6427"/>
<polygon fill="#191970" stroke="#191970" points="577.5001,-46.2455 581,-56.2455 584.5001,-46.2456 577.5001,-46.2455"/>
</g>
<!-- Node8 -->
<g id="node6" class="node">
<title>Node8</title>
<g id="a_node6"><a xlink:href="Map_8cxx.html" target="_top" xlink:title="src/engine/Map.cxx">
<polygon fill="none" stroke="#000000" points="679,-.5 679,-19.5 789,-19.5 789,-.5 679,-.5"/>
<text text-anchor="middle" x="734" y="-7.5" font-family="Helvetica,sans-Serif" font-size="10.00" fill="#000000">src/engine/Map.cxx</text>
</a>
</g>
</g>
<!-- Node3&#45;&gt;Node8 -->
<g id="edge5" class="edge">
<title>Node3&#45;&gt;Node8</title>
<path fill="none" stroke="#191970" d="M616.7279,-52.9231C644.6971,-42.686 682.9393,-28.6889 708.0416,-19.5011"/>
<polygon fill="#191970" stroke="#191970" points="615.4894,-49.6493 607.3016,-56.3733 617.8954,-56.2228 615.4894,-49.6493"/>
</g>
<!-- Node9 -->
<g id="node7" class="node">
<title>Node9</title>
<g id="a_node7"><a xlink:href="Sprite_8cxx.html" target="_top" xlink:title="src/engine/Sprite.cxx">
<polygon fill="none" stroke="#000000" points="807.5,-.5 807.5,-19.5 926.5,-19.5 926.5,-.5 807.5,-.5"/>
<text text-anchor="middle" x="867" y="-7.5" font-family="Helvetica,sans-Serif" font-size="10.00" fill="#000000">src/engine/Sprite.cxx</text>
</a>
</g>
</g>
<!-- Node3&#45;&gt;Node9 -->
<g id="edge6" class="edge">
<title>Node3&#45;&gt;Node9</title>
<path fill="none" stroke="#191970" d="M639.7268,-54.501C692.4635,-44.175 768.974,-29.1939 818.3613,-19.5237"/>
<polygon fill="#191970" stroke="#191970" points="638.9813,-51.0805 629.8402,-56.4369 640.3264,-57.95 638.9813,-51.0805"/>
</g>
<!-- Node10 -->
<g id="node8" class="node">
<title>Node10</title>
<g id="a_node8"><a xlink:href="Game_8cxx.html" target="_top" xlink:title="src/Game.cxx">
<polygon fill="none" stroke="#000000" points="944.5,-.5 944.5,-19.5 1027.5,-19.5 1027.5,-.5 944.5,-.5"/>
<text text-anchor="middle" x="986" y="-7.5" font-family="Helvetica,sans-Serif" font-size="10.00" fill="#000000">src/Game.cxx</text>
</a>
</g>
</g>
<!-- Node3&#45;&gt;Node10 -->
<g id="edge7" class="edge">
<title>Node3&#45;&gt;Node10</title>
<path fill="none" stroke="#191970" d="M673.0282,-55.8289C744.843,-47.4687 847.0134,-34.6463 936,-20 938.7078,-19.5543 941.493,-19.0699 944.2972,-18.5628"/>
<polygon fill="#191970" stroke="#191970" points="672.189,-52.4026 662.658,-57.0297 672.9942,-59.3561 672.189,-52.4026"/>
</g>
</g>
</svg>
