<?xml version="1.0" encoding="UTF-8" standalone="no"?>
<!DOCTYPE svg PUBLIC "-//W3C//DTD SVG 1.1//EN"
 "http://www.w3.org/Graphics/SVG/1.1/DTD/svg11.dtd">
<!-- Generated by graphviz version 2.40.1 (20161225.0304)
 -->
<!-- Title: src/engine/ui/widgets/Checkbox.cxx Pages: 1 -->
<!--zoomable 431 -->
<svg id="main" version="1.1" xmlns="http://www.w3.org/2000/svg" xmlns:xlink="http://www.w3.org/1999/xlink" xml:space="preserve" onload="init(evt)">
<style type="text/css"><![CDATA[
.edge:hover path { stroke: red; }
.edge:hover polygon { stroke: red; fill: red; }
]]></style>
<script type="text/javascript"><![CDATA[
var edges = document.getElementsByTagName('g');
if (edges && edges.length) {
  for (var i=0;i<edges.length;i++) {
    if (edges[i].id.substr(0,4)=='edge') {
      edges[i].setAttribute('class','edge');
    }
  }
}
]]></script>
        <defs>
                <circle id="rim" cx="0" cy="0" r="7"/>
                <circle id="rim2" cx="0" cy="0" r="3.5"/>
                <g id="zoomPlus">
                        <use xlink:href="#rim" fill="#404040">
                                <set attributeName="fill" to="#808080" begin="zoomplus.mouseover" end="zoomplus.mouseout"/>
                        </use>
                        <path d="M-4,0h8M0,-4v8" fill="none" stroke="white" stroke-width="1.5" pointer-events="none"/>
                </g>
                <g id="zoomMin">
                        <use xlink:href="#rim" fill="#404040">
                                <set attributeName="fill" to="#808080" begin="zoomminus.mouseover" end="zoomminus.mouseout"/>
                        </use>
                        <path d="M-4,0h8" fill="none" stroke="white" stroke-width="1.5" pointer-events="none"/>
                </g>
                <g id="dirArrow">
                        <path fill="none" stroke="white" stroke-width="1.5" d="M0,-3.0v7 M-2.5,-0.5L0,-3.0L2.5,-0.5"/>
                </g>
               <g id="resetDef">
                       <use xlink:href="#rim2" fill="#404040">
                               <set attributeName="fill" to="#808080" begin="reset.mouseover" end="reset.mouseout"/>
                       </use>
               </g>
        </defs>

<script type="text/javascript">
var viewWidth = 1006;
var viewHeight = 431;
var sectionId = 'dynsection-0';
</script>
<script xlink:href="svgpan.js"/>
<svg id="graph" class="graph">
<g id="viewport">
<title>src/engine/ui/widgets/Checkbox.cxx</title>
<!-- Node0 -->
<g id="node1" class="node">
<title>Node0</title>
<polygon fill="#bfbfbf" stroke="#000000" points="378.9588,-392.5 378.9588,-422.5 498.9588,-422.5 498.9588,-392.5 378.9588,-392.5"/>
<text text-anchor="start" x="386.9588" y="-410.5" font-family="Helvetica,sans-Serif" font-size="10.00" fill="#000000">src/engine/ui/widgets</text>
<text text-anchor="middle" x="438.9588" y="-399.5" font-family="Helvetica,sans-Serif" font-size="10.00" fill="#000000">/Checkbox.cxx</text>
</g>
<!-- Node1 -->
<g id="node2" class="node">
<title>Node1</title>
<g id="a_node2"><a xlink:href="Checkbox_8hxx.html" target="_top" xlink:title="Checkbox.hxx">
<polygon fill="none" stroke="#000000" points="395.9588,-336.5 395.9588,-355.5 481.9588,-355.5 481.9588,-336.5 395.9588,-336.5"/>
<text text-anchor="middle" x="438.9588" y="-343.5" font-family="Helvetica,sans-Serif" font-size="10.00" fill="#000000">Checkbox.hxx</text>
</a>
</g>
</g>
<!-- Node0&#45;&gt;Node1 -->
<g id="edge1" class="edge">
<title>Node0&#45;&gt;Node1</title>
<path fill="none" stroke="#191970" d="M438.9588,-392.2977C438.9588,-384.3834 438.9588,-374.6043 438.9588,-366.0759"/>
<polygon fill="#191970" stroke="#191970" points="442.4589,-365.8469 438.9588,-355.8469 435.4589,-365.847 442.4589,-365.8469"/>
</g>
<!-- Node2 -->
<g id="node3" class="node">
<title>Node2</title>
<g id="a_node3"><a xlink:href="UIElement_8hxx.html" target="_top" xlink:title="../basics/UIElement.hxx">
<polygon fill="none" stroke="#000000" points="373.4588,-280.5 373.4588,-299.5 504.4588,-299.5 504.4588,-280.5 373.4588,-280.5"/>
<text text-anchor="middle" x="438.9588" y="-287.5" font-family="Helvetica,sans-Serif" font-size="10.00" fill="#000000">../basics/UIElement.hxx</text>
</a>
</g>
</g>
<!-- Node1&#45;&gt;Node2 -->
<g id="edge2" class="edge">
<title>Node1&#45;&gt;Node2</title>
<path fill="none" stroke="#191970" d="M438.9588,-336.2455C438.9588,-328.9382 438.9588,-318.6944 438.9588,-309.7046"/>
<polygon fill="#191970" stroke="#191970" points="442.4589,-309.6426 438.9588,-299.6427 435.4589,-309.6427 442.4589,-309.6426"/>
</g>
<!-- Node3 -->
<g id="node4" class="node">
<title>Node3</title>
<polygon fill="none" stroke="#bfbfbf" points="134.9588,-56.5 134.9588,-75.5 178.9588,-75.5 178.9588,-56.5 134.9588,-56.5"/>
<text text-anchor="middle" x="156.9588" y="-63.5" font-family="Helvetica,sans-Serif" font-size="10.00" fill="#000000">string</text>
</g>
<!-- Node2&#45;&gt;Node3 -->
<g id="edge3" class="edge">
<title>Node2&#45;&gt;Node3</title>
<path fill="none" stroke="#191970" d="M373.3765,-287.8482C282.1598,-283.8369 122.5926,-272.8259 72.9588,-244 17.546,-211.8178 -22.7295,-163.8253 14.9588,-112 27.9846,-94.0881 86.9217,-79.5881 124.6536,-71.9291"/>
<polygon fill="#191970" stroke="#191970" points="125.5435,-75.3211 134.6778,-69.9531 124.1897,-68.4533 125.5435,-75.3211"/>
</g>
<!-- Node4 -->
<g id="node5" class="node">
<title>Node4</title>
<g id="a_node5"><a xlink:href="mapEdit_8hxx.html" target="_top" xlink:title="../../basics/mapEdit.hxx">
<polygon fill="none" stroke="#000000" points="81.9588,-224.5 81.9588,-243.5 211.9588,-243.5 211.9588,-224.5 81.9588,-224.5"/>
<text text-anchor="middle" x="146.9588" y="-231.5" font-family="Helvetica,sans-Serif" font-size="10.00" fill="#000000">../../basics/mapEdit.hxx</text>
</a>
</g>
</g>
<!-- Node2&#45;&gt;Node4 -->
<g id="edge4" class="edge">
<title>Node2&#45;&gt;Node4</title>
<path fill="none" stroke="#191970" d="M389.094,-280.4369C338.5955,-270.7522 260.4753,-255.7703 206.6983,-245.4569"/>
<polygon fill="#191970" stroke="#191970" points="207.0982,-241.9699 196.6179,-243.5237 205.7797,-248.8446 207.0982,-241.9699"/>
</g>
<!-- Node5 -->
<g id="node6" class="node">
<title>Node5</title>
<g id="a_node6"><a xlink:href="ResourcesManager_8hxx.html" target="_top" xlink:title="../../ResourcesManager.hxx">
<polygon fill="none" stroke="#000000" points="315.9588,-224.5 315.9588,-243.5 461.9588,-243.5 461.9588,-224.5 315.9588,-224.5"/>
<text text-anchor="middle" x="388.9588" y="-231.5" font-family="Helvetica,sans-Serif" font-size="10.00" fill="#000000">../../ResourcesManager.hxx</text>
</a>
</g>
</g>
<!-- Node2&#45;&gt;Node5 -->
<g id="edge6" class="edge">
<title>Node2&#45;&gt;Node5</title>
<path fill="none" stroke="#191970" d="M430.2495,-280.2455C423.1515,-272.2958 412.9504,-260.8706 404.4638,-251.3656"/>
<polygon fill="#191970" stroke="#191970" points="406.8393,-248.771 397.5683,-243.6427 401.6177,-253.4331 406.8393,-248.771"/>
</g>
<!-- Node8 -->
<g id="node9" class="node">
<title>Node8</title>
<polygon fill="none" stroke="#bfbfbf" points="601.9588,-112.5 601.9588,-131.5 645.9588,-131.5 645.9588,-112.5 601.9588,-112.5"/>
<text text-anchor="middle" x="623.9588" y="-119.5" font-family="Helvetica,sans-Serif" font-size="10.00" fill="#000000">SDL.h</text>
</g>
<!-- Node2&#45;&gt;Node8 -->
<g id="edge35" class="edge">
<title>Node2&#45;&gt;Node8</title>
<path fill="none" stroke="#191970" d="M445.9501,-280.2248C461.9884,-258.263 503.4104,-204.1144 546.9588,-168 561.7489,-155.7346 580.1701,-144.6063 595.2859,-136.3684"/>
<polygon fill="#191970" stroke="#191970" points="597.0194,-139.4107 604.2086,-131.6283 593.7353,-133.2289 597.0194,-139.4107"/>
</g>
<!-- Node18 -->
<g id="node19" class="node">
<title>Node18</title>
<g id="a_node19"><a xlink:href="WindowManager_8hxx.html" target="_top" xlink:title="../../WindowManager.hxx">
<polygon fill="none" stroke="#000000" points="555.9588,-168.5 555.9588,-187.5 691.9588,-187.5 691.9588,-168.5 555.9588,-168.5"/>
<text text-anchor="middle" x="623.9588" y="-175.5" font-family="Helvetica,sans-Serif" font-size="10.00" fill="#000000">../../WindowManager.hxx</text>
</a>
</g>
</g>
<!-- Node2&#45;&gt;Node18 -->
<g id="edge23" class="edge">
<title>Node2&#45;&gt;Node18</title>
<path fill="none" stroke="#191970" d="M454.7318,-280.4509C486.9529,-260.9441 560.5414,-216.3932 599.1971,-192.9909"/>
<polygon fill="#191970" stroke="#191970" points="601.4839,-195.6979 608.2257,-187.5249 597.8586,-189.7098 601.4839,-195.6979"/>
</g>
<!-- Node19 -->
<g id="node20" class="node">
<title>Node19</title>
<g id="a_node20"><a xlink:href="signal_8hxx.html" target="_top" xlink:title="../../basics/signal.hxx">
<polygon fill="none" stroke="#000000" points="792.4588,-224.5 792.4588,-243.5 911.4588,-243.5 911.4588,-224.5 792.4588,-224.5"/>
<text text-anchor="middle" x="851.9588" y="-231.5" font-family="Helvetica,sans-Serif" font-size="10.00" fill="#000000">../../basics/signal.hxx</text>
</a>
</g>
</g>
<!-- Node2&#45;&gt;Node19 -->
<g id="edge29" class="edge">
<title>Node2&#45;&gt;Node19</title>
<path fill="none" stroke="#191970" d="M504.8566,-281.0647C580.7035,-270.7804 704.7446,-253.9612 782.1881,-243.4604"/>
<polygon fill="#191970" stroke="#191970" points="782.8899,-246.8974 792.3289,-242.0854 781.9493,-239.9609 782.8899,-246.8974"/>
</g>
<!-- Node4&#45;&gt;Node3 -->
<g id="edge5" class="edge">
<title>Node4&#45;&gt;Node3</title>
<path fill="none" stroke="#191970" d="M123.5556,-224.4563C79.6857,-205.1686 -7.5909,-159.3388 25.9588,-112 37.6295,-95.5326 90.0916,-80.9248 124.9813,-72.7908"/>
<polygon fill="#191970" stroke="#191970" points="125.766,-76.2018 134.7436,-70.5757 124.217,-69.3753 125.766,-76.2018"/>
</g>
<!-- Node6 -->
<g id="node7" class="node">
<title>Node6</title>
<polygon fill="none" stroke="#bfbfbf" points="663.9588,-112.5 663.9588,-131.5 723.9588,-131.5 723.9588,-112.5 663.9588,-112.5"/>
<text text-anchor="middle" x="693.9588" y="-119.5" font-family="Helvetica,sans-Serif" font-size="10.00" fill="#000000">iostream</text>
</g>
<!-- Node5&#45;&gt;Node6 -->
<g id="edge7" class="edge">
<title>Node5&#45;&gt;Node6</title>
<path fill="none" stroke="#191970" d="M410.1779,-224.3986C440.2763,-210.9494 497.2424,-186.1187 546.9588,-168 582.8498,-154.9199 624.4583,-142.1141 654.2276,-133.3493"/>
<polygon fill="#191970" stroke="#191970" points="655.2283,-136.7033 663.844,-130.5373 653.2636,-129.9847 655.2283,-136.7033"/>
</g>
<!-- Node7 -->
<g id="node8" class="node">
<title>Node7</title>
<polygon fill="none" stroke="#bfbfbf" points="35.4588,-112.5 35.4588,-131.5 128.4588,-131.5 128.4588,-112.5 35.4588,-112.5"/>
<text text-anchor="middle" x="81.9588" y="-119.5" font-family="Helvetica,sans-Serif" font-size="10.00" fill="#000000">unordered_map</text>
</g>
<!-- Node5&#45;&gt;Node7 -->
<g id="edge8" class="edge">
<title>Node5&#45;&gt;Node7</title>
<path fill="none" stroke="#191970" d="M362.7842,-224.4509C307.7286,-204.3655 179.8928,-157.7284 117.4981,-134.9655"/>
<polygon fill="#191970" stroke="#191970" points="118.6611,-131.6642 108.0672,-131.5249 116.262,-138.2402 118.6611,-131.6642"/>
</g>
<!-- Node5&#45;&gt;Node8 -->
<g id="edge9" class="edge">
<title>Node5&#45;&gt;Node8</title>
<path fill="none" stroke="#191970" d="M399.1274,-224.3654C414.5871,-210.1877 445.442,-183.6923 475.9588,-168 523.965,-143.3143 540.419,-148.0506 591.9588,-132 592.0595,-131.9686 592.1604,-131.9372 592.2615,-131.9057"/>
<polygon fill="#191970" stroke="#191970" points="593.4223,-135.21 601.9267,-128.8913 591.3381,-128.5275 593.4223,-135.21"/>
</g>
<!-- Node9 -->
<g id="node10" class="node">
<title>Node9</title>
<g id="a_node10"><a xlink:href="TileManager_8hxx.html" target="_top" xlink:title="TileManager.hxx">
<polygon fill="none" stroke="#000000" points="313.4588,-168.5 313.4588,-187.5 410.4588,-187.5 410.4588,-168.5 313.4588,-168.5"/>
<text text-anchor="middle" x="361.9588" y="-175.5" font-family="Helvetica,sans-Serif" font-size="10.00" fill="#000000">TileManager.hxx</text>
</a>
</g>
</g>
<!-- Node5&#45;&gt;Node9 -->
<g id="edge10" class="edge">
<title>Node5&#45;&gt;Node9</title>
<path fill="none" stroke="#191970" d="M384.2558,-224.2455C380.6164,-216.6973 375.4664,-206.0158 371.0326,-196.8197"/>
<polygon fill="#191970" stroke="#191970" points="374.1037,-195.1303 366.6079,-187.6427 367.7983,-198.1704 374.1037,-195.1303"/>
</g>
<!-- Node9&#45;&gt;Node3 -->
<g id="edge13" class="edge">
<title>Node9&#45;&gt;Node3</title>
<path fill="none" stroke="#191970" d="M313.4394,-171.5757C265.1252,-164.2282 195.4283,-150.7462 175.9588,-132 163.5015,-120.0056 159.0609,-100.4185 157.5519,-85.6914"/>
<polygon fill="#191970" stroke="#191970" points="161.0358,-85.3309 156.8851,-75.583 154.051,-85.7917 161.0358,-85.3309"/>
</g>
<!-- Node9&#45;&gt;Node7 -->
<g id="edge12" class="edge">
<title>Node9&#45;&gt;Node7</title>
<path fill="none" stroke="#191970" d="M314.1432,-168.4369C265.5278,-158.7138 190.2152,-143.6513 138.6304,-133.3343"/>
<polygon fill="#191970" stroke="#191970" points="139.137,-129.8664 128.6447,-131.3372 137.7641,-136.7305 139.137,-129.8664"/>
</g>
<!-- Node9&#45;&gt;Node8 -->
<g id="edge11" class="edge">
<title>Node9&#45;&gt;Node8</title>
<path fill="none" stroke="#191970" d="M410.7546,-169.783C457.5437,-161.5415 530.016,-147.8258 591.9588,-132 592.0575,-131.9748 592.1563,-131.9494 592.2553,-131.924"/>
<polygon fill="#191970" stroke="#191970" points="592.975,-135.357 601.6652,-129.2964 591.0923,-128.6149 592.975,-135.357"/>
</g>
<!-- Node10 -->
<g id="node11" class="node">
<title>Node10</title>
<g id="a_node11"><a xlink:href="tileData_8hxx.html" target="_top" xlink:title="tileData.hxx">
<polygon fill="none" stroke="#000000" points="405.4588,-112.5 405.4588,-131.5 482.4588,-131.5 482.4588,-112.5 405.4588,-112.5"/>
<text text-anchor="middle" x="443.9588" y="-119.5" font-family="Helvetica,sans-Serif" font-size="10.00" fill="#000000">tileData.hxx</text>
</a>
</g>
</g>
<!-- Node9&#45;&gt;Node10 -->
<g id="edge14" class="edge">
<title>Node9&#45;&gt;Node10</title>
<path fill="none" stroke="#191970" d="M376.2421,-168.2455C388.7058,-159.7337 407.0039,-147.2375 421.438,-137.3801"/>
<polygon fill="#191970" stroke="#191970" points="423.555,-140.1726 429.8392,-131.6427 419.6073,-134.392 423.555,-140.1726"/>
</g>
<!-- Node15 -->
<g id="node16" class="node">
<title>Node15</title>
<polygon fill="none" stroke="#bfbfbf" points="328.9588,-112.5 328.9588,-131.5 386.9588,-131.5 386.9588,-112.5 328.9588,-112.5"/>
<text text-anchor="middle" x="357.9588" y="-119.5" font-family="Helvetica,sans-Serif" font-size="10.00" fill="#000000">json.hxx</text>
</g>
<!-- Node9&#45;&gt;Node15 -->
<g id="edge20" class="edge">
<title>Node9&#45;&gt;Node15</title>
<path fill="none" stroke="#191970" d="M361.2621,-168.2455C360.7401,-160.9382 360.0084,-150.6944 359.3663,-141.7046"/>
<polygon fill="#191970" stroke="#191970" points="362.8512,-141.3679 358.6476,-131.6427 355.869,-141.8667 362.8512,-141.3679"/>
</g>
<!-- Node16 -->
<g id="node17" class="node">
<title>Node16</title>
<g id="a_node17"><a xlink:href="Singleton_8hxx.html" target="_top" xlink:title="Singleton.hxx">
<polygon fill="none" stroke="#000000" points="500.4588,-112.5 500.4588,-131.5 583.4588,-131.5 583.4588,-112.5 500.4588,-112.5"/>
<text text-anchor="middle" x="541.9588" y="-119.5" font-family="Helvetica,sans-Serif" font-size="10.00" fill="#000000">Singleton.hxx</text>
</a>
</g>
</g>
<!-- Node9&#45;&gt;Node16 -->
<g id="edge21" class="edge">
<title>Node9&#45;&gt;Node16</title>
<path fill="none" stroke="#191970" d="M392.9019,-168.3733C422.9627,-159.021 468.7614,-144.7725 501.6566,-134.5385"/>
<polygon fill="#191970" stroke="#191970" points="502.9107,-137.8139 511.4195,-131.5011 500.8311,-131.1299 502.9107,-137.8139"/>
</g>
<!-- Node17 -->
<g id="node18" class="node">
<title>Node17</title>
<polygon fill="none" stroke="#bfbfbf" points="185.4588,-112.5 185.4588,-131.5 310.4588,-131.5 310.4588,-112.5 185.4588,-112.5"/>
<text text-anchor="middle" x="247.9588" y="-119.5" font-family="Helvetica,sans-Serif" font-size="10.00" fill="#000000">../common/enums.hxx</text>
</g>
<!-- Node9&#45;&gt;Node17 -->
<g id="edge22" class="edge">
<title>Node9&#45;&gt;Node17</title>
<path fill="none" stroke="#191970" d="M342.3615,-168.3733C324.2257,-159.4644 297.0453,-146.1127 276.5001,-136.0203"/>
<polygon fill="#191970" stroke="#191970" points="277.8191,-132.7688 267.3004,-131.5011 274.7327,-139.0517 277.8191,-132.7688"/>
</g>
<!-- Node10&#45;&gt;Node3 -->
<g id="edge15" class="edge">
<title>Node10&#45;&gt;Node3</title>
<path fill="none" stroke="#191970" d="M405.457,-113.9249C402.2451,-113.2677 399.0469,-112.6188 395.9588,-112 321.9677,-97.173 234.8983,-80.6465 189.0065,-72.0074"/>
<polygon fill="#191970" stroke="#191970" points="189.5321,-68.545 179.0575,-70.1367 188.2385,-75.4244 189.5321,-68.545"/>
</g>
<!-- Node11 -->
<g id="node12" class="node">
<title>Node11</title>
<polygon fill="none" stroke="#bfbfbf" points="766.4588,-56.5 766.4588,-75.5 813.4588,-75.5 813.4588,-56.5 766.4588,-56.5"/>
<text text-anchor="middle" x="789.9588" y="-63.5" font-family="Helvetica,sans-Serif" font-size="10.00" fill="#000000">vector</text>
</g>
<!-- Node10&#45;&gt;Node11 -->
<g id="edge16" class="edge">
<title>Node10&#45;&gt;Node11</title>
<path fill="none" stroke="#191970" d="M482.6528,-113.5847C485.4601,-113.0302 488.2509,-112.496 490.9588,-112 586.8119,-94.4443 700.7851,-78.1728 756.2612,-70.5459"/>
<polygon fill="#191970" stroke="#191970" points="756.8046,-74.0042 766.2378,-69.1809 755.8557,-67.0688 756.8046,-74.0042"/>
</g>
<!-- Node12 -->
<g id="node13" class="node">
<title>Node12</title>
<g id="a_node13"><a xlink:href="enums_8hxx.html" target="_top" xlink:title="enums.hxx">
<polygon fill="none" stroke="#000000" points="408.4588,-56.5 408.4588,-75.5 479.4588,-75.5 479.4588,-56.5 408.4588,-56.5"/>
<text text-anchor="middle" x="443.9588" y="-63.5" font-family="Helvetica,sans-Serif" font-size="10.00" fill="#000000">enums.hxx</text>
</a>
</g>
</g>
<!-- Node10&#45;&gt;Node12 -->
<g id="edge17" class="edge">
<title>Node10&#45;&gt;Node12</title>
<path fill="none" stroke="#191970" d="M443.9588,-112.2455C443.9588,-104.9382 443.9588,-94.6944 443.9588,-85.7046"/>
<polygon fill="#191970" stroke="#191970" points="447.4589,-85.6426 443.9588,-75.6427 440.4589,-85.6427 447.4589,-85.6426"/>
</g>
<!-- Node13 -->
<g id="node14" class="node">
<title>Node13</title>
<polygon fill="none" stroke="#bfbfbf" points="367.9588,-.5 367.9588,-19.5 423.9588,-19.5 423.9588,-.5 367.9588,-.5"/>
<text text-anchor="middle" x="395.9588" y="-7.5" font-family="Helvetica,sans-Serif" font-size="10.00" fill="#000000">stddef.h</text>
</g>
<!-- Node12&#45;&gt;Node13 -->
<g id="edge18" class="edge">
<title>Node12&#45;&gt;Node13</title>
<path fill="none" stroke="#191970" d="M435.5978,-56.2455C428.7838,-48.2958 418.9907,-36.8706 410.8436,-27.3656"/>
<polygon fill="#191970" stroke="#191970" points="413.3893,-24.9575 404.2239,-19.6427 408.0745,-29.513 413.3893,-24.9575"/>
</g>
<!-- Node14 -->
<g id="node15" class="node">
<title>Node14</title>
<polygon fill="none" stroke="#bfbfbf" points="441.9588,-.5 441.9588,-19.5 541.9588,-19.5 541.9588,-.5 441.9588,-.5"/>
<text text-anchor="middle" x="491.9588" y="-7.5" font-family="Helvetica,sans-Serif" font-size="10.00" fill="#000000">betterEnums.hxx</text>
</g>
<!-- Node12&#45;&gt;Node14 -->
<g id="edge19" class="edge">
<title>Node12&#45;&gt;Node14</title>
<path fill="none" stroke="#191970" d="M452.3198,-56.2455C459.1338,-48.2958 468.9269,-36.8706 477.074,-27.3656"/>
<polygon fill="#191970" stroke="#191970" points="479.8431,-29.513 483.6936,-19.6427 474.5283,-24.9575 479.8431,-29.513"/>
</g>
<!-- Node18&#45;&gt;Node3 -->
<g id="edge24" class="edge">
<title>Node18&#45;&gt;Node3</title>
<path fill="none" stroke="#191970" d="M667.0883,-168.4895C707.1635,-157.7665 757.2706,-138.3308 732.9588,-112 714.3775,-91.8756 308.1607,-72.604 189.3328,-67.3811"/>
<polygon fill="#191970" stroke="#191970" points="189.2077,-63.8724 179.0647,-66.9334 188.9028,-70.8657 189.2077,-63.8724"/>
</g>
<!-- Node18&#45;&gt;Node6 -->
<g id="edge25" class="edge">
<title>Node18&#45;&gt;Node6</title>
<path fill="none" stroke="#191970" d="M636.1519,-168.2455C646.5909,-159.8943 661.8243,-147.7076 674.0328,-137.9408"/>
<polygon fill="#191970" stroke="#191970" points="676.2832,-140.6227 681.9055,-131.6427 671.9103,-135.1566 676.2832,-140.6227"/>
</g>
<!-- Node18&#45;&gt;Node8 -->
<g id="edge27" class="edge">
<title>Node18&#45;&gt;Node8</title>
<path fill="none" stroke="#191970" d="M623.9588,-168.2455C623.9588,-160.9382 623.9588,-150.6944 623.9588,-141.7046"/>
<polygon fill="#191970" stroke="#191970" points="627.4589,-141.6426 623.9588,-131.6427 620.4589,-141.6427 627.4589,-141.6426"/>
</g>
<!-- Node18&#45;&gt;Node11 -->
<g id="edge26" class="edge">
<title>Node18&#45;&gt;Node11</title>
<path fill="none" stroke="#191970" d="M667.14,-168.4248C703.4453,-159.5987 751.6478,-145.8119 765.9588,-132 778.5425,-119.8552 784.5594,-100.5999 787.4177,-86.015"/>
<polygon fill="#191970" stroke="#191970" points="790.9012,-86.3981 789.0443,-75.9672 783.9912,-85.2794 790.9012,-86.3981"/>
</g>
<!-- Node18&#45;&gt;Node16 -->
<g id="edge28" class="edge">
<title>Node18&#45;&gt;Node16</title>
<path fill="none" stroke="#191970" d="M609.6755,-168.2455C597.2117,-159.7337 578.9137,-147.2375 564.4796,-137.3801"/>
<polygon fill="#191970" stroke="#191970" points="566.3103,-134.392 556.0784,-131.6427 562.3626,-140.1726 566.3103,-134.392"/>
</g>
<!-- Node19&#45;&gt;Node11 -->
<g id="edge33" class="edge">
<title>Node19&#45;&gt;Node11</title>
<path fill="none" stroke="#191970" d="M911.679,-227.7895C959.3441,-220.116 1014.8067,-203.4285 992.9588,-168 955.8119,-107.7625 871.0122,-81.8574 823.6077,-71.7498"/>
<polygon fill="#191970" stroke="#191970" points="824.0249,-68.2636 813.5306,-69.7196 822.6423,-75.1257 824.0249,-68.2636"/>
</g>
<!-- Node20 -->
<g id="node21" class="node">
<title>Node20</title>
<polygon fill="none" stroke="#bfbfbf" points="709.9588,-168.5 709.9588,-187.5 767.9588,-187.5 767.9588,-168.5 709.9588,-168.5"/>
<text text-anchor="middle" x="738.9588" y="-175.5" font-family="Helvetica,sans-Serif" font-size="10.00" fill="#000000">memory</text>
</g>
<!-- Node19&#45;&gt;Node20 -->
<g id="edge30" class="edge">
<title>Node19&#45;&gt;Node20</title>
<path fill="none" stroke="#191970" d="M832.5334,-224.3733C814.5567,-215.4644 787.6147,-202.1127 767.2498,-192.0203"/>
<polygon fill="#191970" stroke="#191970" points="768.6449,-188.8055 758.1307,-187.5011 765.5366,-195.0776 768.6449,-188.8055"/>
</g>
<!-- Node21 -->
<g id="node22" class="node">
<title>Node21</title>
<polygon fill="none" stroke="#bfbfbf" points="786.4588,-168.5 786.4588,-187.5 851.4588,-187.5 851.4588,-168.5 786.4588,-168.5"/>
<text text-anchor="middle" x="818.9588" y="-175.5" font-family="Helvetica,sans-Serif" font-size="10.00" fill="#000000">functional</text>
</g>
<!-- Node19&#45;&gt;Node21 -->
<g id="edge31" class="edge">
<title>Node19&#45;&gt;Node21</title>
<path fill="none" stroke="#191970" d="M846.2106,-224.2455C841.7153,-216.617 835.334,-205.7881 829.8763,-196.5267"/>
<polygon fill="#191970" stroke="#191970" points="832.7334,-194.4811 824.6411,-187.6427 826.7027,-198.035 832.7334,-194.4811"/>
</g>
<!-- Node22 -->
<g id="node23" class="node">
<title>Node22</title>
<polygon fill="none" stroke="#bfbfbf" points="869.9588,-168.5 869.9588,-187.5 901.9588,-187.5 901.9588,-168.5 869.9588,-168.5"/>
<text text-anchor="middle" x="885.9588" y="-175.5" font-family="Helvetica,sans-Serif" font-size="10.00" fill="#000000">list</text>
</g>
<!-- Node19&#45;&gt;Node22 -->
<g id="edge32" class="edge">
<title>Node19&#45;&gt;Node22</title>
<path fill="none" stroke="#191970" d="M857.8811,-224.2455C862.5615,-216.5367 869.2261,-205.5598 874.8877,-196.2348"/>
<polygon fill="#191970" stroke="#191970" points="877.9063,-198.007 880.1043,-187.6427 871.9227,-194.3741 877.9063,-198.007"/>
</g>
<!-- Node23 -->
<g id="node24" class="node">
<title>Node23</title>
<polygon fill="none" stroke="#bfbfbf" points="919.9588,-168.5 919.9588,-187.5 983.9588,-187.5 983.9588,-168.5 919.9588,-168.5"/>
<text text-anchor="middle" x="951.9588" y="-175.5" font-family="Helvetica,sans-Serif" font-size="10.00" fill="#000000">algorithm</text>
</g>
<!-- Node19&#45;&gt;Node23 -->
<g id="edge34" class="edge">
<title>Node19&#45;&gt;Node23</title>
<path fill="none" stroke="#191970" d="M869.3775,-224.2455C885.0073,-215.4928 908.1607,-202.527 925.9773,-192.5496"/>
<polygon fill="#191970" stroke="#191970" points="927.7248,-195.5825 934.7397,-187.6427 924.3045,-189.475 927.7248,-195.5825"/>
</g>
</g>
</svg>
        <g id="navigator" transform="translate(0 0)" fill="#404254">
                <rect fill="#f2f5e9" fill-opacity="0.5" stroke="#606060" stroke-width=".5" x="0" y="0" width="60" height="60"/>
                <use id="zoomplus" xlink:href="#zoomPlus" x="17" y="9" onmousedown="handleZoom(evt,'in')"/>
                <use id="zoomminus" xlink:href="#zoomMin" x="42" y="9" onmousedown="handleZoom(evt,'out')"/>
                <use id="reset" xlink:href="#resetDef" x="30" y="36" onmousedown="handleReset()"/>
                <g id="arrowUp" xlink:href="#dirArrow" transform="translate(30 24)" onmousedown="handlePan(0,-1)">
                  <use xlink:href="#rim" fill="#404040">
                        <set attributeName="fill" to="#808080" begin="arrowUp.mouseover" end="arrowUp.mouseout"/>
                  </use>
                  <path fill="none" stroke="white" stroke-width="1.5" d="M0,-3.0v7 M-2.5,-0.5L0,-3.0L2.5,-0.5"/>
                </g>
                <g id="arrowRight" xlink:href="#dirArrow" transform="rotate(90) translate(36 -43)" onmousedown="handlePan(1,0)">
                  <use xlink:href="#rim" fill="#404040">
                        <set attributeName="fill" to="#808080" begin="arrowRight.mouseover" end="arrowRight.mouseout"/>
                  </use>
                  <path fill="none" stroke="white" stroke-width="1.5" d="M0,-3.0v7 M-2.5,-0.5L0,-3.0L2.5,-0.5"/>
                </g>
                <g id="arrowDown" xlink:href="#dirArrow" transform="rotate(180) translate(-30 -48)" onmousedown="handlePan(0,1)">
                  <use xlink:href="#rim" fill="#404040">
                        <set attributeName="fill" to="#808080" begin="arrowDown.mouseover" end="arrowDown.mouseout"/>
                  </use>
                  <path fill="none" stroke="white" stroke-width="1.5" d="M0,-3.0v7 M-2.5,-0.5L0,-3.0L2.5,-0.5"/>
                </g>
                <g id="arrowLeft" xlink:href="#dirArrow" transform="rotate(270) translate(-36 17)" onmousedown="handlePan(-1,0)">
                  <use xlink:href="#rim" fill="#404040">
                        <set attributeName="fill" to="#808080" begin="arrowLeft.mouseover" end="arrowLeft.mouseout"/>
                  </use>
                  <path fill="none" stroke="white" stroke-width="1.5" d="M0,-3.0v7 M-2.5,-0.5L0,-3.0L2.5,-0.5"/>
                </g>
        </g>
        <svg viewBox="0 0 15 15" width="100%" height="30px" preserveAspectRatio="xMaxYMin meet">
         <g id="arrow_out" transform="scale(0.3 0.3)">
          <a xlink:href="Checkbox_8cxx__incl_org.svg" target="_base">
           <rect id="button" ry="5" rx="5" y="6" x="6" height="38" width="38"
                fill="#f2f5e9" fill-opacity="0.5" stroke="#606060" stroke-width="1.0"/>
           <path id="arrow"
             d="M 11.500037,31.436501 C 11.940474,20.09759 22.043105,11.32322 32.158766,21.979434 L 37.068811,17.246167 C 37.068811,17.246167 37.088388,32 37.088388,32 L 22.160133,31.978069 C 22.160133,31.978069 26.997745,27.140456 26.997745,27.140456 C 18.528582,18.264221 13.291696,25.230495 11.500037,31.436501 z"
             style="fill:#404040;"/>
          </a>
         </g>
        </svg>
</svg>
