<?xml version="1.0" encoding="UTF-8" standalone="no"?>
<!DOCTYPE svg PUBLIC "-//W3C//DTD SVG 1.1//EN"
 "http://www.w3.org/Graphics/SVG/1.1/DTD/svg11.dtd">
<!-- Generated by graphviz version 2.40.1 (20161225.0304)
 -->
<!-- Title: MapLayers::disableLayer Pages: 1 -->
<!--zoomable 268 -->
<svg id="main" version="1.1" xmlns="http://www.w3.org/2000/svg" xmlns:xlink="http://www.w3.org/1999/xlink" xml:space="preserve" onload="init(evt)">
<style type="text/css"><![CDATA[
.edge:hover path { stroke: red; }
.edge:hover polygon { stroke: red; fill: red; }
]]></style>
<script type="text/javascript"><![CDATA[
var edges = document.getElementsByTagName('g');
if (edges && edges.length) {
  for (var i=0;i<edges.length;i++) {
    if (edges[i].id.substr(0,4)=='edge') {
      edges[i].setAttribute('class','edge');
    }
  }
}
]]></script>
        <defs>
                <circle id="rim" cx="0" cy="0" r="7"/>
                <circle id="rim2" cx="0" cy="0" r="3.5"/>
                <g id="zoomPlus">
                        <use xlink:href="#rim" fill="#404040">
                                <set attributeName="fill" to="#808080" begin="zoomplus.mouseover" end="zoomplus.mouseout"/>
                        </use>
                        <path d="M-4,0h8M0,-4v8" fill="none" stroke="white" stroke-width="1.5" pointer-events="none"/>
                </g>
                <g id="zoomMin">
                        <use xlink:href="#rim" fill="#404040">
                                <set attributeName="fill" to="#808080" begin="zoomminus.mouseover" end="zoomminus.mouseout"/>
                        </use>
                        <path d="M-4,0h8" fill="none" stroke="white" stroke-width="1.5" pointer-events="none"/>
                </g>
                <g id="dirArrow">
                        <path fill="none" stroke="white" stroke-width="1.5" d="M0,-3.0v7 M-2.5,-0.5L0,-3.0L2.5,-0.5"/>
                </g>
               <g id="resetDef">
                       <use xlink:href="#rim2" fill="#404040">
                               <set attributeName="fill" to="#808080" begin="reset.mouseover" end="reset.mouseout"/>
                       </use>
               </g>
        </defs>

<script type="text/javascript">
var viewWidth = 1850;
var viewHeight = 268;
var sectionId = 'dynsection-5';
</script>
<script xlink:href="svgpan.js"/>
<svg id="graph" class="graph">
<g id="viewport">
<title>MapLayers::disableLayer</title>
<!-- Node55 -->
<g id="node1" class="node">
<title>Node55</title>
<polygon fill="#bfbfbf" stroke="#000000" points="0,-95.5 0,-114.5 137,-114.5 137,-95.5 0,-95.5"/>
<text text-anchor="middle" x="68.5" y="-102.5" font-family="Helvetica,sans-Serif" font-size="10.00" fill="#000000">MapLayers::disableLayer</text>
</g>
<!-- Node56 -->
<g id="node2" class="node">
<title>Node56</title>
<g id="a_node2"><a xlink:href="classMapLayers.html#a0a64d01a42e8864b78e1bc54007cb7d9" target="_top" xlink:title="Toggle Drawing Layer Toggle Drawing Layer (use bitwise XOR to toggle layer) ">
<polygon fill="none" stroke="#000000" points="173,-90 173,-120 313,-120 313,-90 173,-90"/>
<text text-anchor="start" x="181" y="-108" font-family="Helvetica,sans-Serif" font-size="10.00" fill="#000000">MapLayers::deactivateAll</text>
<text text-anchor="middle" x="243" y="-97" font-family="Helvetica,sans-Serif" font-size="10.00" fill="#000000">Layers</text>
</a>
</g>
</g>
<!-- Node55&#45;&gt;Node56 -->
<g id="edge1" class="edge">
<title>Node55&#45;&gt;Node56</title>
<path fill="none" stroke="#191970" d="M147.4852,-105C155.9643,-105 164.5484,-105 172.9134,-105"/>
<polygon fill="#191970" stroke="#191970" points="147.2166,-101.5001 137.2165,-105 147.2165,-108.5001 147.2166,-101.5001"/>
</g>
<!-- Node57 -->
<g id="node3" class="node">
<title>Node57</title>
<g id="a_node3"><a xlink:href="classMapLayers.html#ab663dfc9e4c144f904ad85543b66ac8f" target="_top" xlink:title="Toggle Drawing Layer Toggle Drawing Layer (use bitwise XOR to toggle layer) ">
<polygon fill="none" stroke="#000000" points="349,-95.5 349,-114.5 511,-114.5 511,-95.5 349,-95.5"/>
<text text-anchor="middle" x="430" y="-102.5" font-family="Helvetica,sans-Serif" font-size="10.00" fill="#000000">MapLayers::setLayerEditMode</text>
</a>
</g>
</g>
<!-- Node56&#45;&gt;Node57 -->
<g id="edge2" class="edge">
<title>Node56&#45;&gt;Node57</title>
<path fill="none" stroke="#191970" d="M323.3393,-105C331.7557,-105 340.3173,-105 348.744,-105"/>
<polygon fill="#191970" stroke="#191970" points="323.164,-101.5001 313.1639,-105 323.1639,-108.5001 323.164,-101.5001"/>
</g>
<!-- Node58 -->
<g id="node4" class="node">
<title>Node58</title>
<g id="a_node4"><a xlink:href="classMapLayers.html#a1d810628821913c499b8348107b66891" target="_top" xlink:title="Check if given Layer is being drawn. ">
<polygon fill="none" stroke="#000000" points="565.5,-114.5 565.5,-133.5 706.5,-133.5 706.5,-114.5 565.5,-114.5"/>
<text text-anchor="middle" x="636" y="-121.5" font-family="Helvetica,sans-Serif" font-size="10.00" fill="#000000">MapLayers::isLayerActive</text>
</a>
</g>
</g>
<!-- Node57&#45;&gt;Node58 -->
<g id="edge3" class="edge">
<title>Node57&#45;&gt;Node58</title>
<path fill="none" stroke="#191970" d="M521.2731,-113.4184C536.0344,-114.7799 551.1213,-116.1714 565.2996,-117.4791"/>
<polygon fill="#191970" stroke="#191970" points="521.4002,-109.9153 511.1209,-112.482 520.7572,-116.8858 521.4002,-109.9153"/>
</g>
<!-- Node73 -->
<g id="node19" class="node">
<title>Node73</title>
<g id="a_node19"><a xlink:href="classUIManager.html#aa78e356fc3b356d790c848319d1c387e" target="_top" xlink:title="UIManager::setCallbackFunctions">
<polygon fill="none" stroke="#000000" points="547,-76.5 547,-95.5 725,-95.5 725,-76.5 547,-76.5"/>
<text text-anchor="middle" x="636" y="-83.5" font-family="Helvetica,sans-Serif" font-size="10.00" fill="#000000">UIManager::setCallbackFunctions</text>
</a>
</g>
</g>
<!-- Node57&#45;&gt;Node73 -->
<g id="edge18" class="edge">
<title>Node57&#45;&gt;Node73</title>
<path fill="none" stroke="#191970" d="M521.0803,-96.5994C529.6198,-95.8118 538.2701,-95.0139 546.7921,-94.2279"/>
<polygon fill="#191970" stroke="#191970" points="520.7572,-93.1142 511.1209,-97.518 521.4002,-100.0847 520.7572,-93.1142"/>
</g>
<!-- Node59 -->
<g id="node5" class="node">
<title>Node59</title>
<g id="a_node5"><a xlink:href="classMapNode.html#ac307762dc7ad609974c6b13774c3c00d" target="_top" xlink:title="return topmost active layer. check layers in order of significance for the topmost active layer that ...">
<polygon fill="none" stroke="#000000" points="761,-229 761,-259 916,-259 916,-229 761,-229"/>
<text text-anchor="start" x="769" y="-247" font-family="Helvetica,sans-Serif" font-size="10.00" fill="#000000">MapNode::getTopMostActive</text>
<text text-anchor="middle" x="838.5" y="-236" font-family="Helvetica,sans-Serif" font-size="10.00" fill="#000000">Layer</text>
</a>
</g>
</g>
<!-- Node58&#45;&gt;Node59 -->
<g id="edge4" class="edge">
<title>Node58&#45;&gt;Node59</title>
<path fill="none" stroke="#191970" d="M653.803,-140.6828C676.9137,-161.5597 719.247,-197.2122 761,-219 768.1442,-222.728 775.9492,-226.0353 783.7664,-228.9244"/>
<polygon fill="#191970" stroke="#191970" points="655.9327,-137.8872 646.1949,-133.7129 651.2042,-143.0487 655.9327,-137.8872"/>
</g>
<!-- Node61 -->
<g id="node7" class="node">
<title>Node61</title>
<g id="a_node7"><a xlink:href="classMapNode.html#a002b868485074599fbf087fc4c96b2c9" target="_top" xlink:title="Demolish a node Removes all tiles on a node. This effects all layers where something to demolish is p...">
<polygon fill="none" stroke="#000000" points="769,-190.5 769,-209.5 908,-209.5 908,-190.5 769,-190.5"/>
<text text-anchor="middle" x="838.5" y="-197.5" font-family="Helvetica,sans-Serif" font-size="10.00" fill="#000000">MapNode::demolishNode</text>
</a>
</g>
</g>
<!-- Node58&#45;&gt;Node61 -->
<g id="edge6" class="edge">
<title>Node58&#45;&gt;Node61</title>
<path fill="none" stroke="#191970" d="M663.3829,-138.2948C688.3079,-150.8663 726.3885,-168.9849 761,-181 771.3389,-184.5891 782.6771,-187.7724 793.4132,-190.4586"/>
<polygon fill="#191970" stroke="#191970" points="664.6902,-135.0327 654.1914,-133.609 661.5108,-141.269 664.6902,-135.0327"/>
</g>
<!-- Node62 -->
<g id="node8" class="node">
<title>Node62</title>
<g id="a_node8"><a xlink:href="classMap.html#a1f87a6ce8b3be8d140bcee1b1e473903" target="_top" xlink:title="Map::isClickWithinTile">
<polygon fill="none" stroke="#000000" points="776,-152.5 776,-171.5 901,-171.5 901,-152.5 776,-152.5"/>
<text text-anchor="middle" x="838.5" y="-159.5" font-family="Helvetica,sans-Serif" font-size="10.00" fill="#000000">Map::isClickWithinTile</text>
</a>
</g>
</g>
<!-- Node58&#45;&gt;Node62 -->
<g id="edge7" class="edge">
<title>Node58&#45;&gt;Node62</title>
<path fill="none" stroke="#191970" d="M696.8466,-135.4181C725.8207,-140.8552 760.0752,-147.2832 787.6412,-152.4561"/>
<polygon fill="#191970" stroke="#191970" points="697.3119,-131.9444 686.8379,-133.54 696.0208,-138.8243 697.3119,-131.9444"/>
</g>
<!-- Node69 -->
<g id="node15" class="node">
<title>Node69</title>
<g id="a_node15"><a xlink:href="classSprite.html#abdf111e2030274680af0f00f296d8605" target="_top" xlink:title="Sprite::render">
<polygon fill="none" stroke="#000000" points="797,-114.5 797,-133.5 880,-133.5 880,-114.5 797,-114.5"/>
<text text-anchor="middle" x="838.5" y="-121.5" font-family="Helvetica,sans-Serif" font-size="10.00" fill="#000000">Sprite::render</text>
</a>
</g>
</g>
<!-- Node58&#45;&gt;Node69 -->
<g id="edge14" class="edge">
<title>Node58&#45;&gt;Node69</title>
<path fill="none" stroke="#191970" d="M716.556,-124C744.0455,-124 773.6608,-124 796.8219,-124"/>
<polygon fill="#191970" stroke="#191970" points="716.5404,-120.5001 706.5404,-124 716.5404,-127.5001 716.5404,-120.5001"/>
</g>
<!-- Node70 -->
<g id="node16" class="node">
<title>Node70</title>
<g id="a_node16"><a xlink:href="classSprite.html#a87428873289f8ec84f4b75d9162c9d7c" target="_top" xlink:title="Sprite::getActiveClipRect">
<polygon fill="none" stroke="#000000" points="770,-76.5 770,-95.5 907,-95.5 907,-76.5 770,-76.5"/>
<text text-anchor="middle" x="838.5" y="-83.5" font-family="Helvetica,sans-Serif" font-size="10.00" fill="#000000">Sprite::getActiveClipRect</text>
</a>
</g>
</g>
<!-- Node58&#45;&gt;Node70 -->
<g id="edge15" class="edge">
<title>Node58&#45;&gt;Node70</title>
<path fill="none" stroke="#191970" d="M696.8466,-112.5819C725.8207,-107.1448 760.0752,-100.7168 787.6412,-95.5439"/>
<polygon fill="#191970" stroke="#191970" points="696.0208,-109.1757 686.8379,-114.46 697.3119,-116.0556 696.0208,-109.1757"/>
</g>
<!-- Node71 -->
<g id="node17" class="node">
<title>Node71</title>
<g id="a_node17"><a xlink:href="classSprite.html#a7376c698bf914312fbcc7c2b8180cbed" target="_top" xlink:title="Sprite::isLayerUsed">
<polygon fill="none" stroke="#000000" points="783,-38.5 783,-57.5 894,-57.5 894,-38.5 783,-38.5"/>
<text text-anchor="middle" x="838.5" y="-45.5" font-family="Helvetica,sans-Serif" font-size="10.00" fill="#000000">Sprite::isLayerUsed</text>
</a>
</g>
</g>
<!-- Node58&#45;&gt;Node71 -->
<g id="edge16" class="edge">
<title>Node58&#45;&gt;Node71</title>
<path fill="none" stroke="#191970" d="M712.4496,-110.9483C716.7991,-109.2075 721.0172,-107.235 725,-105 745.2883,-93.615 740.8853,-78.689 761,-67 767.7075,-63.1021 775.189,-60.0004 782.7849,-57.533"/>
<polygon fill="#191970" stroke="#191970" points="711.0036,-107.7479 702.7582,-114.4011 713.3529,-114.3419 711.0036,-107.7479"/>
</g>
<!-- Node72 -->
<g id="node18" class="node">
<title>Node72</title>
<g id="a_node18"><a xlink:href="classSprite.html#aedfac1c3b8a22c5ae4d97bd9586a6a26" target="_top" xlink:title="Sprite::getActiveDestRect">
<polygon fill="none" stroke="#000000" points="768,-.5 768,-19.5 909,-19.5 909,-.5 768,-.5"/>
<text text-anchor="middle" x="838.5" y="-7.5" font-family="Helvetica,sans-Serif" font-size="10.00" fill="#000000">Sprite::getActiveDestRect</text>
</a>
</g>
</g>
<!-- Node58&#45;&gt;Node72 -->
<g id="edge17" class="edge">
<title>Node58&#45;&gt;Node72</title>
<path fill="none" stroke="#191970" d="M716.0223,-110.9635C719.1772,-109.2034 722.189,-107.2242 725,-105 754.3104,-81.8086 732.0419,-52.6298 761,-29 765.7227,-25.1463 771.1114,-22.056 776.7976,-19.5806"/>
<polygon fill="#191970" stroke="#191970" points="714.3171,-107.8991 706.8002,-115.3655 717.3325,-114.2163 714.3171,-107.8991"/>
</g>
<!-- Node60 -->
<g id="node6" class="node">
<title>Node60</title>
<g id="a_node6"><a xlink:href="classMapNode.html#a0b089ef93b46bbfed8ccf71dc516c4ef" target="_top" xlink:title="MapNode::getActiveMapNodeData">
<polygon fill="none" stroke="#000000" points="952,-234.5 952,-253.5 1136,-253.5 1136,-234.5 952,-234.5"/>
<text text-anchor="middle" x="1044" y="-241.5" font-family="Helvetica,sans-Serif" font-size="10.00" fill="#000000">MapNode::getActiveMapNodeData</text>
</a>
</g>
</g>
<!-- Node59&#45;&gt;Node60 -->
<g id="edge5" class="edge">
<title>Node59&#45;&gt;Node60</title>
<path fill="none" stroke="#191970" d="M926.3425,-244C934.7329,-244 943.2587,-244 951.6899,-244"/>
<polygon fill="#191970" stroke="#191970" points="926.1908,-240.5001 916.1907,-244 926.1907,-247.5001 926.1908,-240.5001"/>
</g>
<!-- Node63 -->
<g id="node9" class="node">
<title>Node63</title>
<g id="a_node9"><a xlink:href="classMap.html#a8cc1c9d35ae2c3ede6bc0fcc59b9aa41" target="_top" xlink:title="Returns the node at given screencoordinates. ">
<polygon fill="none" stroke="#000000" points="986,-152.5 986,-171.5 1102,-171.5 1102,-152.5 986,-152.5"/>
<text text-anchor="middle" x="1044" y="-159.5" font-family="Helvetica,sans-Serif" font-size="10.00" fill="#000000">Map::findNodeInMap</text>
</a>
</g>
</g>
<!-- Node62&#45;&gt;Node63 -->
<g id="edge8" class="edge">
<title>Node62&#45;&gt;Node63</title>
<path fill="none" stroke="#191970" d="M911.5506,-162C935.921,-162 962.73,-162 985.816,-162"/>
<polygon fill="#191970" stroke="#191970" points="911.2734,-158.5001 901.2734,-162 911.2734,-165.5001 911.2734,-158.5001"/>
</g>
<!-- Node64 -->
<g id="node10" class="node">
<title>Node64</title>
<g id="a_node10"><a xlink:href="isoMath_8hxx.html#ad3c5f070c4a876bc6e8978635d02ce52" target="_top" xlink:title="converts screen space coordinates to isometric space coordinates. To convert screen coordinates in to...">
<polygon fill="none" stroke="#000000" points="1172,-152.5 1172,-171.5 1342,-171.5 1342,-152.5 1172,-152.5"/>
<text text-anchor="middle" x="1257" y="-159.5" font-family="Helvetica,sans-Serif" font-size="10.00" fill="#000000">convertScreenToIsoCoordinates</text>
</a>
</g>
</g>
<!-- Node63&#45;&gt;Node64 -->
<g id="edge9" class="edge">
<title>Node63&#45;&gt;Node64</title>
<path fill="none" stroke="#191970" d="M1112.2123,-162C1131.1416,-162 1151.9326,-162 1171.707,-162"/>
<polygon fill="#191970" stroke="#191970" points="1112.2032,-158.5001 1102.2032,-162 1112.2032,-165.5001 1112.2032,-158.5001"/>
</g>
<!-- Node65 -->
<g id="node11" class="node">
<title>Node65</title>
<g id="a_node11"><a xlink:href="classEventManager.html#a65ec91fd5016d4f9c4167fb8babed2df" target="_top" xlink:title="EventManager::checkEvents">
<polygon fill="none" stroke="#000000" points="1378,-152.5 1378,-171.5 1532,-171.5 1532,-152.5 1378,-152.5"/>
<text text-anchor="middle" x="1455" y="-159.5" font-family="Helvetica,sans-Serif" font-size="10.00" fill="#000000">EventManager::checkEvents</text>
</a>
</g>
</g>
<!-- Node64&#45;&gt;Node65 -->
<g id="edge10" class="edge">
<title>Node64&#45;&gt;Node65</title>
<path fill="none" stroke="#191970" d="M1352.161,-162C1360.7436,-162 1369.3647,-162 1377.7658,-162"/>
<polygon fill="#191970" stroke="#191970" points="1352.1189,-158.5001 1342.1189,-162 1352.1189,-165.5001 1352.1189,-158.5001"/>
</g>
<!-- Node66 -->
<g id="node12" class="node">
<title>Node66</title>
<g id="a_node12"><a xlink:href="classGame.html#a1c2ab25d5216b2f4b2fe41efd2c09114" target="_top" xlink:title="begins the game starts running the game ">
<polygon fill="none" stroke="#000000" points="1568,-152.5 1568,-171.5 1636,-171.5 1636,-152.5 1568,-152.5"/>
<text text-anchor="middle" x="1602" y="-159.5" font-family="Helvetica,sans-Serif" font-size="10.00" fill="#000000">Game::run</text>
</a>
</g>
</g>
<!-- Node65&#45;&gt;Node66 -->
<g id="edge11" class="edge">
<title>Node65&#45;&gt;Node66</title>
<path fill="none" stroke="#191970" d="M1542.5248,-162C1551.4338,-162 1560.0572,-162 1567.845,-162"/>
<polygon fill="#191970" stroke="#191970" points="1542.3744,-158.5001 1532.3744,-162 1542.3743,-165.5001 1542.3744,-158.5001"/>
</g>
<!-- Node67 -->
<g id="node13" class="node">
<title>Node67</title>
<g id="a_node13"><a xlink:href="main_8cxx.html#af582d708d899e67ead623eac34a22387" target="_top" xlink:title="protected_main">
<polygon fill="none" stroke="#000000" points="1672,-152.5 1672,-171.5 1765,-171.5 1765,-152.5 1672,-152.5"/>
<text text-anchor="middle" x="1718.5" y="-159.5" font-family="Helvetica,sans-Serif" font-size="10.00" fill="#000000">protected_main</text>
</a>
</g>
</g>
<!-- Node66&#45;&gt;Node67 -->
<g id="edge12" class="edge">
<title>Node66&#45;&gt;Node67</title>
<path fill="none" stroke="#191970" d="M1646.2653,-162C1654.5757,-162 1663.2897,-162 1671.6749,-162"/>
<polygon fill="#191970" stroke="#191970" points="1646.0098,-158.5001 1636.0098,-162 1646.0098,-165.5001 1646.0098,-158.5001"/>
</g>
<!-- Node68 -->
<g id="node14" class="node">
<title>Node68</title>
<g id="a_node14"><a xlink:href="main_8cxx.html#a3c04138a5bfe5d72780bb7e82a18e627" target="_top" xlink:title="main">
<polygon fill="none" stroke="#000000" points="1801,-152.5 1801,-171.5 1842,-171.5 1842,-152.5 1801,-152.5"/>
<text text-anchor="middle" x="1821.5" y="-159.5" font-family="Helvetica,sans-Serif" font-size="10.00" fill="#000000">main</text>
</a>
</g>
</g>
<!-- Node67&#45;&gt;Node68 -->
<g id="edge13" class="edge">
<title>Node67&#45;&gt;Node68</title>
<path fill="none" stroke="#191970" d="M1775.2133,-162C1784.4322,-162 1793.4259,-162 1800.9965,-162"/>
<polygon fill="#191970" stroke="#191970" points="1775.1782,-158.5001 1765.1782,-162 1775.1781,-165.5001 1775.1782,-158.5001"/>
</g>
</g>
</svg>
        <g id="navigator" transform="translate(0 0)" fill="#404254">
                <rect fill="#f2f5e9" fill-opacity="0.5" stroke="#606060" stroke-width=".5" x="0" y="0" width="60" height="60"/>
                <use id="zoomplus" xlink:href="#zoomPlus" x="17" y="9" onmousedown="handleZoom(evt,'in')"/>
                <use id="zoomminus" xlink:href="#zoomMin" x="42" y="9" onmousedown="handleZoom(evt,'out')"/>
                <use id="reset" xlink:href="#resetDef" x="30" y="36" onmousedown="handleReset()"/>
                <g id="arrowUp" xlink:href="#dirArrow" transform="translate(30 24)" onmousedown="handlePan(0,-1)">
                  <use xlink:href="#rim" fill="#404040">
                        <set attributeName="fill" to="#808080" begin="arrowUp.mouseover" end="arrowUp.mouseout"/>
                  </use>
                  <path fill="none" stroke="white" stroke-width="1.5" d="M0,-3.0v7 M-2.5,-0.5L0,-3.0L2.5,-0.5"/>
                </g>
                <g id="arrowRight" xlink:href="#dirArrow" transform="rotate(90) translate(36 -43)" onmousedown="handlePan(1,0)">
                  <use xlink:href="#rim" fill="#404040">
                        <set attributeName="fill" to="#808080" begin="arrowRight.mouseover" end="arrowRight.mouseout"/>
                  </use>
                  <path fill="none" stroke="white" stroke-width="1.5" d="M0,-3.0v7 M-2.5,-0.5L0,-3.0L2.5,-0.5"/>
                </g>
                <g id="arrowDown" xlink:href="#dirArrow" transform="rotate(180) translate(-30 -48)" onmousedown="handlePan(0,1)">
                  <use xlink:href="#rim" fill="#404040">
                        <set attributeName="fill" to="#808080" begin="arrowDown.mouseover" end="arrowDown.mouseout"/>
                  </use>
                  <path fill="none" stroke="white" stroke-width="1.5" d="M0,-3.0v7 M-2.5,-0.5L0,-3.0L2.5,-0.5"/>
                </g>
                <g id="arrowLeft" xlink:href="#dirArrow" transform="rotate(270) translate(-36 17)" onmousedown="handlePan(-1,0)">
                  <use xlink:href="#rim" fill="#404040">
                        <set attributeName="fill" to="#808080" begin="arrowLeft.mouseover" end="arrowLeft.mouseout"/>
                  </use>
                  <path fill="none" stroke="white" stroke-width="1.5" d="M0,-3.0v7 M-2.5,-0.5L0,-3.0L2.5,-0.5"/>
                </g>
        </g>
        <svg viewBox="0 0 15 15" width="100%" height="30px" preserveAspectRatio="xMaxYMin meet">
         <g id="arrow_out" transform="scale(0.3 0.3)">
          <a xlink:href="classMapLayers_a3b1b1f10dd431fa83e098a20e4c836b9_icgraph_org.svg" target="_base">
           <rect id="button" ry="5" rx="5" y="6" x="6" height="38" width="38"
                fill="#f2f5e9" fill-opacity="0.5" stroke="#606060" stroke-width="1.0"/>
           <path id="arrow"
             d="M 11.500037,31.436501 C 11.940474,20.09759 22.043105,11.32322 32.158766,21.979434 L 37.068811,17.246167 C 37.068811,17.246167 37.088388,32 37.088388,32 L 22.160133,31.978069 C 22.160133,31.978069 26.997745,27.140456 26.997745,27.140456 C 18.528582,18.264221 13.291696,25.230495 11.500037,31.436501 z"
             style="fill:#404040;"/>
          </a>
         </g>
        </svg>
</svg>
