<?xml version="1.0" encoding="UTF-8" standalone="no"?>
<!DOCTYPE svg PUBLIC "-//W3C//DTD SVG 1.1//EN"
 "http://www.w3.org/Graphics/SVG/1.1/DTD/svg11.dtd">
<!-- Generated by graphviz version 2.40.1 (20161225.0304)
 -->
<!-- Title: MapLayers::isLayerActive Pages: 1 -->
<svg width="1266pt" height="268pt"
 viewBox="0.00 0.00 1266.00 267.50" xmlns="http://www.w3.org/2000/svg" xmlns:xlink="http://www.w3.org/1999/xlink">
<g id="graph0" class="graph" transform="scale(1 1) rotate(0) translate(4 263.5)">
<title>MapLayers::isLayerActive</title>
<!-- Node101 -->
<g id="node1" class="node">
<title>Node101</title>
<polygon fill="#bfbfbf" stroke="#000000" points="0,-114.5 0,-133.5 141,-133.5 141,-114.5 0,-114.5"/>
<text text-anchor="middle" x="70.5" y="-121.5" font-family="Helvetica,sans-Serif" font-size="10.00" fill="#000000">MapLayers::isLayerActive</text>
</g>
<!-- Node102 -->
<g id="node2" class="node">
<title>Node102</title>
<g id="a_node2"><a xlink:href="classMapNode.html#ac307762dc7ad609974c6b13774c3c00d" target="_top" xlink:title="return topmost active layer. check layers in order of significance for the topmost active layer that ...">
<polygon fill="none" stroke="#000000" points="177,-229 177,-259 332,-259 332,-229 177,-229"/>
<text text-anchor="start" x="185" y="-247" font-family="Helvetica,sans-Serif" font-size="10.00" fill="#000000">MapNode::getTopMostActive</text>
<text text-anchor="middle" x="254.5" y="-236" font-family="Helvetica,sans-Serif" font-size="10.00" fill="#000000">Layer</text>
</a>
</g>
</g>
<!-- Node101&#45;&gt;Node102 -->
<g id="edge1" class="edge">
<title>Node101&#45;&gt;Node102</title>
<path fill="none" stroke="#191970" d="M85.3808,-141.0759C104.5961,-162.1527 139.9897,-197.7987 177,-219 183.6244,-222.7948 190.9024,-226.101 198.2636,-228.9559"/>
<polygon fill="#191970" stroke="#191970" points="87.8953,-138.6373 78.6179,-133.5205 82.6795,-143.3059 87.8953,-138.6373"/>
</g>
<!-- Node104 -->
<g id="node4" class="node">
<title>Node104</title>
<g id="a_node4"><a xlink:href="classMapNode.html#a002b868485074599fbf087fc4c96b2c9" target="_top" xlink:title="Demolish a node Removes all tiles on a node. This effects all layers where something to demolish is p...">
<polygon fill="none" stroke="#000000" points="185,-190.5 185,-209.5 324,-209.5 324,-190.5 185,-190.5"/>
<text text-anchor="middle" x="254.5" y="-197.5" font-family="Helvetica,sans-Serif" font-size="10.00" fill="#000000">MapNode::demolishNode</text>
</a>
</g>
</g>
<!-- Node101&#45;&gt;Node104 -->
<g id="edge3" class="edge">
<title>Node101&#45;&gt;Node104</title>
<path fill="none" stroke="#191970" d="M94.0281,-138.8206C115.0841,-151.5339 147.1477,-169.5613 177,-181 186.5728,-184.668 197.0869,-187.8031 207.1984,-190.4068"/>
<polygon fill="#191970" stroke="#191970" points="95.8021,-135.8029 85.4464,-133.5643 92.1459,-141.7722 95.8021,-135.8029"/>
</g>
<!-- Node105 -->
<g id="node5" class="node">
<title>Node105</title>
<g id="a_node5"><a xlink:href="classMap.html#a1f87a6ce8b3be8d140bcee1b1e473903" target="_top" xlink:title="Map::isClickWithinTile">
<polygon fill="none" stroke="#000000" points="192,-152.5 192,-171.5 317,-171.5 317,-152.5 192,-152.5"/>
<text text-anchor="middle" x="254.5" y="-159.5" font-family="Helvetica,sans-Serif" font-size="10.00" fill="#000000">Map::isClickWithinTile</text>
</a>
</g>
</g>
<!-- Node101&#45;&gt;Node105 -->
<g id="edge4" class="edge">
<title>Node101&#45;&gt;Node105</title>
<path fill="none" stroke="#191970" d="M127.0606,-135.681C153.1542,-141.0699 183.7378,-147.3861 208.4029,-152.4799"/>
<polygon fill="#191970" stroke="#191970" points="127.4322,-132.184 116.931,-133.589 126.0164,-139.0393 127.4322,-132.184"/>
</g>
<!-- Node112 -->
<g id="node12" class="node">
<title>Node112</title>
<g id="a_node12"><a xlink:href="classSprite.html#abdf111e2030274680af0f00f296d8605" target="_top" xlink:title="Sprite::render">
<polygon fill="none" stroke="#000000" points="213,-114.5 213,-133.5 296,-133.5 296,-114.5 213,-114.5"/>
<text text-anchor="middle" x="254.5" y="-121.5" font-family="Helvetica,sans-Serif" font-size="10.00" fill="#000000">Sprite::render</text>
</a>
</g>
</g>
<!-- Node101&#45;&gt;Node112 -->
<g id="edge11" class="edge">
<title>Node101&#45;&gt;Node112</title>
<path fill="none" stroke="#191970" d="M151.1466,-124C172.4342,-124 194.5452,-124 212.8266,-124"/>
<polygon fill="#191970" stroke="#191970" points="151.113,-120.5001 141.113,-124 151.1129,-127.5001 151.113,-120.5001"/>
</g>
<!-- Node113 -->
<g id="node13" class="node">
<title>Node113</title>
<g id="a_node13"><a xlink:href="classSprite.html#a87428873289f8ec84f4b75d9162c9d7c" target="_top" xlink:title="Sprite::getActiveClipRect">
<polygon fill="none" stroke="#000000" points="186,-76.5 186,-95.5 323,-95.5 323,-76.5 186,-76.5"/>
<text text-anchor="middle" x="254.5" y="-83.5" font-family="Helvetica,sans-Serif" font-size="10.00" fill="#000000">Sprite::getActiveClipRect</text>
</a>
</g>
</g>
<!-- Node101&#45;&gt;Node113 -->
<g id="edge12" class="edge">
<title>Node101&#45;&gt;Node113</title>
<path fill="none" stroke="#191970" d="M127.0606,-112.319C153.1542,-106.9301 183.7378,-100.6139 208.4029,-95.5201"/>
<polygon fill="#191970" stroke="#191970" points="126.0164,-108.9607 116.931,-114.411 127.4322,-115.816 126.0164,-108.9607"/>
</g>
<!-- Node114 -->
<g id="node14" class="node">
<title>Node114</title>
<g id="a_node14"><a xlink:href="classSprite.html#a7376c698bf914312fbcc7c2b8180cbed" target="_top" xlink:title="Sprite::isLayerUsed">
<polygon fill="none" stroke="#000000" points="199,-38.5 199,-57.5 310,-57.5 310,-38.5 199,-38.5"/>
<text text-anchor="middle" x="254.5" y="-45.5" font-family="Helvetica,sans-Serif" font-size="10.00" fill="#000000">Sprite::isLayerUsed</text>
</a>
</g>
</g>
<!-- Node101&#45;&gt;Node114 -->
<g id="edge13" class="edge">
<title>Node101&#45;&gt;Node114</title>
<path fill="none" stroke="#191970" d="M94.0281,-109.1794C115.0841,-96.4661 147.1477,-78.4387 177,-67 186.5728,-63.332 197.0869,-60.1969 207.1984,-57.5932"/>
<polygon fill="#191970" stroke="#191970" points="92.1459,-106.2278 85.4464,-114.4357 95.8021,-112.1971 92.1459,-106.2278"/>
</g>
<!-- Node115 -->
<g id="node15" class="node">
<title>Node115</title>
<g id="a_node15"><a xlink:href="classSprite.html#aedfac1c3b8a22c5ae4d97bd9586a6a26" target="_top" xlink:title="Sprite::getActiveDestRect">
<polygon fill="none" stroke="#000000" points="184,-.5 184,-19.5 325,-19.5 325,-.5 184,-.5"/>
<text text-anchor="middle" x="254.5" y="-7.5" font-family="Helvetica,sans-Serif" font-size="10.00" fill="#000000">Sprite::getActiveDestRect</text>
</a>
</g>
</g>
<!-- Node101&#45;&gt;Node115 -->
<g id="edge14" class="edge">
<title>Node101&#45;&gt;Node115</title>
<path fill="none" stroke="#191970" d="M85.1441,-106.4932C104.1144,-84.9703 139.2544,-48.8626 177,-29 184.3557,-25.1293 192.5206,-22.0292 200.7114,-19.5513"/>
<polygon fill="#191970" stroke="#191970" points="82.3589,-104.3635 78.476,-114.2212 87.6588,-108.9365 82.3589,-104.3635"/>
</g>
<!-- Node103 -->
<g id="node3" class="node">
<title>Node103</title>
<g id="a_node3"><a xlink:href="classMapNode.html#a0b089ef93b46bbfed8ccf71dc516c4ef" target="_top" xlink:title="MapNode::getActiveMapNodeData">
<polygon fill="none" stroke="#000000" points="368,-234.5 368,-253.5 552,-253.5 552,-234.5 368,-234.5"/>
<text text-anchor="middle" x="460" y="-241.5" font-family="Helvetica,sans-Serif" font-size="10.00" fill="#000000">MapNode::getActiveMapNodeData</text>
</a>
</g>
</g>
<!-- Node102&#45;&gt;Node103 -->
<g id="edge2" class="edge">
<title>Node102&#45;&gt;Node103</title>
<path fill="none" stroke="#191970" d="M342.3425,-244C350.7329,-244 359.2587,-244 367.6899,-244"/>
<polygon fill="#191970" stroke="#191970" points="342.1908,-240.5001 332.1907,-244 342.1907,-247.5001 342.1908,-240.5001"/>
</g>
<!-- Node106 -->
<g id="node6" class="node">
<title>Node106</title>
<g id="a_node6"><a xlink:href="classMap.html#a8cc1c9d35ae2c3ede6bc0fcc59b9aa41" target="_top" xlink:title="Returns the node at given screencoordinates. ">
<polygon fill="none" stroke="#000000" points="402,-152.5 402,-171.5 518,-171.5 518,-152.5 402,-152.5"/>
<text text-anchor="middle" x="460" y="-159.5" font-family="Helvetica,sans-Serif" font-size="10.00" fill="#000000">Map::findNodeInMap</text>
</a>
</g>
</g>
<!-- Node105&#45;&gt;Node106 -->
<g id="edge5" class="edge">
<title>Node105&#45;&gt;Node106</title>
<path fill="none" stroke="#191970" d="M327.5506,-162C351.921,-162 378.73,-162 401.816,-162"/>
<polygon fill="#191970" stroke="#191970" points="327.2734,-158.5001 317.2734,-162 327.2734,-165.5001 327.2734,-158.5001"/>
</g>
<!-- Node107 -->
<g id="node7" class="node">
<title>Node107</title>
<g id="a_node7"><a xlink:href="isoMath_8hxx.html#ad3c5f070c4a876bc6e8978635d02ce52" target="_top" xlink:title="converts screen space coordinates to isometric space coordinates. To convert screen coordinates in to...">
<polygon fill="none" stroke="#000000" points="588,-152.5 588,-171.5 758,-171.5 758,-152.5 588,-152.5"/>
<text text-anchor="middle" x="673" y="-159.5" font-family="Helvetica,sans-Serif" font-size="10.00" fill="#000000">convertScreenToIsoCoordinates</text>
</a>
</g>
</g>
<!-- Node106&#45;&gt;Node107 -->
<g id="edge6" class="edge">
<title>Node106&#45;&gt;Node107</title>
<path fill="none" stroke="#191970" d="M528.2123,-162C547.1416,-162 567.9326,-162 587.707,-162"/>
<polygon fill="#191970" stroke="#191970" points="528.2032,-158.5001 518.2032,-162 528.2032,-165.5001 528.2032,-158.5001"/>
</g>
<!-- Node108 -->
<g id="node8" class="node">
<title>Node108</title>
<g id="a_node8"><a xlink:href="classEventManager.html#a65ec91fd5016d4f9c4167fb8babed2df" target="_top" xlink:title="EventManager::checkEvents">
<polygon fill="none" stroke="#000000" points="794,-152.5 794,-171.5 948,-171.5 948,-152.5 794,-152.5"/>
<text text-anchor="middle" x="871" y="-159.5" font-family="Helvetica,sans-Serif" font-size="10.00" fill="#000000">EventManager::checkEvents</text>
</a>
</g>
</g>
<!-- Node107&#45;&gt;Node108 -->
<g id="edge7" class="edge">
<title>Node107&#45;&gt;Node108</title>
<path fill="none" stroke="#191970" d="M768.161,-162C776.7436,-162 785.3647,-162 793.7658,-162"/>
<polygon fill="#191970" stroke="#191970" points="768.1189,-158.5001 758.1189,-162 768.1189,-165.5001 768.1189,-158.5001"/>
</g>
<!-- Node109 -->
<g id="node9" class="node">
<title>Node109</title>
<g id="a_node9"><a xlink:href="classGame.html#a1c2ab25d5216b2f4b2fe41efd2c09114" target="_top" xlink:title="begins the game starts running the game ">
<polygon fill="none" stroke="#000000" points="984,-152.5 984,-171.5 1052,-171.5 1052,-152.5 984,-152.5"/>
<text text-anchor="middle" x="1018" y="-159.5" font-family="Helvetica,sans-Serif" font-size="10.00" fill="#000000">Game::run</text>
</a>
</g>
</g>
<!-- Node108&#45;&gt;Node109 -->
<g id="edge8" class="edge">
<title>Node108&#45;&gt;Node109</title>
<path fill="none" stroke="#191970" d="M958.5248,-162C967.4338,-162 976.0572,-162 983.845,-162"/>
<polygon fill="#191970" stroke="#191970" points="958.3744,-158.5001 948.3744,-162 958.3743,-165.5001 958.3744,-158.5001"/>
</g>
<!-- Node110 -->
<g id="node10" class="node">
<title>Node110</title>
<g id="a_node10"><a xlink:href="main_8cxx.html#af582d708d899e67ead623eac34a22387" target="_top" xlink:title="protected_main">
<polygon fill="none" stroke="#000000" points="1088,-152.5 1088,-171.5 1181,-171.5 1181,-152.5 1088,-152.5"/>
<text text-anchor="middle" x="1134.5" y="-159.5" font-family="Helvetica,sans-Serif" font-size="10.00" fill="#000000">protected_main</text>
</a>
</g>
</g>
<!-- Node109&#45;&gt;Node110 -->
<g id="edge9" class="edge">
<title>Node109&#45;&gt;Node110</title>
<path fill="none" stroke="#191970" d="M1062.2653,-162C1070.5757,-162 1079.2897,-162 1087.6749,-162"/>
<polygon fill="#191970" stroke="#191970" points="1062.0098,-158.5001 1052.0098,-162 1062.0098,-165.5001 1062.0098,-158.5001"/>
</g>
<!-- Node111 -->
<g id="node11" class="node">
<title>Node111</title>
<g id="a_node11"><a xlink:href="main_8cxx.html#a3c04138a5bfe5d72780bb7e82a18e627" target="_top" xlink:title="main">
<polygon fill="none" stroke="#000000" points="1217,-152.5 1217,-171.5 1258,-171.5 1258,-152.5 1217,-152.5"/>
<text text-anchor="middle" x="1237.5" y="-159.5" font-family="Helvetica,sans-Serif" font-size="10.00" fill="#000000">main</text>
</a>
</g>
</g>
<!-- Node110&#45;&gt;Node111 -->
<g id="edge10" class="edge">
<title>Node110&#45;&gt;Node111</title>
<path fill="none" stroke="#191970" d="M1191.2133,-162C1200.4322,-162 1209.4259,-162 1216.9965,-162"/>
<polygon fill="#191970" stroke="#191970" points="1191.1782,-158.5001 1181.1782,-162 1191.1781,-165.5001 1191.1782,-158.5001"/>
</g>
</g>
</svg>
