<?xml version="1.0" encoding="UTF-8" standalone="no"?>
<!DOCTYPE svg PUBLIC "-//W3C//DTD SVG 1.1//EN"
 "http://www.w3.org/Graphics/SVG/1.1/DTD/svg11.dtd">
<!-- Generated by graphviz version 2.40.1 (20161225.0304)
 -->
<!-- Title: TileManager::init Pages: 1 -->
<svg width="835pt" height="139pt"
 viewBox="0.00 0.00 835.00 139.10" xmlns="http://www.w3.org/2000/svg" xmlns:xlink="http://www.w3.org/1999/xlink">
<g id="graph0" class="graph" transform="scale(1 1) rotate(0) translate(4 135.1034)">
<title>TileManager::init</title>
<!-- Node96 -->
<g id="node1" class="node">
<title>Node96</title>
<polygon fill="#bfbfbf" stroke="#000000" points="0,-99 0,-118 98,-118 98,-99 0,-99"/>
<text text-anchor="middle" x="49" y="-106" font-family="Helvetica,sans-Serif" font-size="10.00" fill="#000000">TileManager::init</text>
</g>
<!-- Node97 -->
<g id="node2" class="node">
<title>Node97</title>
<g id="a_node2"><a xlink:href="classSingleton.html#af5cb1e5749949e2b68416cfb8d378044" target="_top" xlink:title="Get an instance of the singleton. ">
<polygon fill="none" stroke="#000000" points="714,-93.5 714,-123.5 827,-123.5 827,-93.5 714,-93.5"/>
<text text-anchor="start" x="722" y="-111.5" font-family="Helvetica,sans-Serif" font-size="10.00" fill="#000000">Singleton&lt; Settings</text>
<text text-anchor="middle" x="770.5" y="-100.5" font-family="Helvetica,sans-Serif" font-size="10.00" fill="#000000"> &gt;::instance</text>
</a>
</g>
</g>
<!-- Node96&#45;&gt;Node97 -->
<g id="edge1" class="edge">
<title>Node96&#45;&gt;Node97</title>
<path fill="none" stroke="#191970" d="M83.4487,-118.0079C98.7929,-121.7725 117.1666,-125.6416 134,-127.5 223.3362,-137.3629 540.137,-124.4092 678,-116.5 686.3279,-116.0222 695.0687,-115.4107 703.7153,-114.739"/>
<polygon fill="#191970" stroke="#191970" points="704.1053,-118.2191 713.7919,-113.9273 703.5431,-111.2417 704.1053,-118.2191"/>
</g>
<!-- Node98 -->
<g id="node3" class="node">
<title>Node98</title>
<g id="a_node3"><a xlink:href="structStrongType.html#acc66e6d6b9c95193a97a839560499933" target="_top" xlink:title="StrongType::get">
<polygon fill="none" stroke="#000000" points="166,-99 166,-118 258,-118 258,-99 166,-99"/>
<text text-anchor="middle" x="212" y="-106" font-family="Helvetica,sans-Serif" font-size="10.00" fill="#000000">StrongType::get</text>
</a>
</g>
</g>
<!-- Node96&#45;&gt;Node98 -->
<g id="edge2" class="edge">
<title>Node96&#45;&gt;Node98</title>
<path fill="none" stroke="#191970" d="M98.3477,-108.5C116.4526,-108.5 137.0785,-108.5 155.7443,-108.5"/>
<polygon fill="#191970" stroke="#191970" points="155.884,-112.0001 165.884,-108.5 155.884,-105.0001 155.884,-112.0001"/>
</g>
<!-- Node99 -->
<g id="node4" class="node">
<title>Node99</title>
<g id="a_node4"><a xlink:href="classTileManager.html#a9e03faf9425ee26a2f5fb1fa4c94d173" target="_top" xlink:title="TileManager::addJSONObject\lToTileData">
<polygon fill="none" stroke="#000000" points="134,-49.5 134,-79.5 290,-79.5 290,-49.5 134,-49.5"/>
<text text-anchor="start" x="142" y="-67.5" font-family="Helvetica,sans-Serif" font-size="10.00" fill="#000000">TileManager::addJSONObject</text>
<text text-anchor="middle" x="212" y="-56.5" font-family="Helvetica,sans-Serif" font-size="10.00" fill="#000000">ToTileData</text>
</a>
</g>
</g>
<!-- Node96&#45;&gt;Node99 -->
<g id="edge3" class="edge">
<title>Node96&#45;&gt;Node99</title>
<path fill="none" stroke="#191970" d="M84.3686,-98.9527C102.4747,-94.0651 125.1101,-87.9549 146.2708,-82.2429"/>
<polygon fill="#191970" stroke="#191970" points="147.4474,-85.5506 156.1897,-79.5654 145.6231,-78.7925 147.4474,-85.5506"/>
</g>
<!-- Node99&#45;&gt;Node97 -->
<g id="edge4" class="edge">
<title>Node99&#45;&gt;Node97</title>
<path fill="none" stroke="#191970" d="M290.0312,-78.6623C302.0467,-80.5076 314.334,-82.2037 326,-83.5 459.5626,-98.3415 616.7351,-104.555 703.8399,-107.0143"/>
<polygon fill="#191970" stroke="#191970" points="703.7587,-110.5133 713.851,-107.289 703.9509,-103.5159 703.7587,-110.5133"/>
</g>
<!-- Node100 -->
<g id="node5" class="node">
<title>Node100</title>
<g id="a_node5"><a xlink:href="classResourcesManager.html#ab376a89547592db4cca25309eac2931c" target="_top" xlink:title="ResourcesManager::loadTexture">
<polygon fill="none" stroke="#000000" points="326,-55 326,-74 497,-74 497,-55 326,-55"/>
<text text-anchor="middle" x="411.5" y="-62" font-family="Helvetica,sans-Serif" font-size="10.00" fill="#000000">ResourcesManager::loadTexture</text>
</a>
</g>
</g>
<!-- Node99&#45;&gt;Node100 -->
<g id="edge5" class="edge">
<title>Node99&#45;&gt;Node100</title>
<path fill="none" stroke="#191970" d="M290.2751,-64.5C298.6703,-64.5 307.2787,-64.5 315.8466,-64.5"/>
<polygon fill="#191970" stroke="#191970" points="315.8709,-68.0001 325.8709,-64.5 315.8709,-61.0001 315.8709,-68.0001"/>
</g>
<!-- Node101 -->
<g id="node6" class="node">
<title>Node101</title>
<g id="a_node6"><a xlink:href="classResourcesManager.html#a54721d26f52c4887b735d2cdaf60b078" target="_top" xlink:title="ResourcesManager::create\lSurfaceFromFile">
<polygon fill="none" stroke="#000000" points="533,-49.5 533,-79.5 678,-79.5 678,-49.5 533,-49.5"/>
<text text-anchor="start" x="541" y="-67.5" font-family="Helvetica,sans-Serif" font-size="10.00" fill="#000000">ResourcesManager::create</text>
<text text-anchor="middle" x="605.5" y="-56.5" font-family="Helvetica,sans-Serif" font-size="10.00" fill="#000000">SurfaceFromFile</text>
</a>
</g>
</g>
<!-- Node100&#45;&gt;Node101 -->
<g id="edge6" class="edge">
<title>Node100&#45;&gt;Node101</title>
<path fill="none" stroke="#191970" d="M497.1559,-64.5C505.599,-64.5 514.1583,-64.5 522.5732,-64.5"/>
<polygon fill="#191970" stroke="#191970" points="522.7485,-68.0001 532.7484,-64.5 522.7484,-61.0001 522.7485,-68.0001"/>
</g>
<!-- Node102 -->
<g id="node7" class="node">
<title>Node102</title>
<g id="a_node7"><a xlink:href="classResourcesManager.html#ad7712ca96233a151d8bc22cd2ba17d01" target="_top" xlink:title="ResourcesManager::create\lTextureFromSurface">
<polygon fill="none" stroke="#000000" points="533,-.5 533,-30.5 678,-30.5 678,-.5 533,-.5"/>
<text text-anchor="start" x="541" y="-18.5" font-family="Helvetica,sans-Serif" font-size="10.00" fill="#000000">ResourcesManager::create</text>
<text text-anchor="middle" x="605.5" y="-7.5" font-family="Helvetica,sans-Serif" font-size="10.00" fill="#000000">TextureFromSurface</text>
</a>
</g>
</g>
<!-- Node100&#45;&gt;Node102 -->
<g id="edge7" class="edge">
<title>Node100&#45;&gt;Node102</title>
<path fill="none" stroke="#191970" d="M449.3657,-54.936C474.034,-48.7053 506.9534,-40.3906 536.204,-33.0026"/>
<polygon fill="#191970" stroke="#191970" points="537.1275,-36.3793 545.9659,-30.537 535.4132,-29.5925 537.1275,-36.3793"/>
</g>
<!-- Node102&#45;&gt;Node97 -->
<g id="edge8" class="edge">
<title>Node102&#45;&gt;Node97</title>
<path fill="none" stroke="#191970" d="M655.8634,-30.6472C663.4422,-33.5572 671.0432,-36.8518 678,-40.5 702.2708,-53.228 727.1545,-71.9005 744.9908,-86.4598"/>
<polygon fill="#191970" stroke="#191970" points="743.2178,-89.5369 753.1472,-93.2327 747.6898,-84.1515 743.2178,-89.5369"/>
</g>
</g>
</svg>
