<?xml version="1.0" encoding="UTF-8" standalone="no"?>
<!DOCTYPE svg PUBLIC "-//W3C//DTD SVG 1.1//EN"
 "http://www.w3.org/Graphics/SVG/1.1/DTD/svg11.dtd">
<!-- Generated by graphviz version 2.40.1 (20161225.0304)
 -->
<!-- Title: MapNode::getActiveMapNodeData Pages: 1 -->
<svg width="1107pt" height="132pt"
 viewBox="0.00 0.00 1107.00 131.50" xmlns="http://www.w3.org/2000/svg" xmlns:xlink="http://www.w3.org/1999/xlink">
<g id="graph0" class="graph" transform="scale(1 1) rotate(0) translate(4 127.5)">
<title>MapNode::getActiveMapNodeData</title>
<!-- Node44 -->
<g id="node1" class="node">
<title>Node44</title>
<polygon fill="#bfbfbf" stroke="#000000" points="0,-38.5 0,-57.5 184,-57.5 184,-38.5 0,-38.5"/>
<text text-anchor="middle" x="92" y="-45.5" font-family="Helvetica,sans-Serif" font-size="10.00" fill="#000000">MapNode::getActiveMapNodeData</text>
</g>
<!-- Node45 -->
<g id="node2" class="node">
<title>Node45</title>
<g id="a_node2"><a xlink:href="classMapNode.html#ac307762dc7ad609974c6b13774c3c00d" target="_top" xlink:title="return topmost active layer. check layers in order of significance for the topmost active layer that ...">
<polygon fill="none" stroke="#000000" points="220,-33 220,-63 375,-63 375,-33 220,-33"/>
<text text-anchor="start" x="228" y="-51" font-family="Helvetica,sans-Serif" font-size="10.00" fill="#000000">MapNode::getTopMostActive</text>
<text text-anchor="middle" x="297.5" y="-40" font-family="Helvetica,sans-Serif" font-size="10.00" fill="#000000">Layer</text>
</a>
</g>
</g>
<!-- Node44&#45;&gt;Node45 -->
<g id="edge1" class="edge">
<title>Node44&#45;&gt;Node45</title>
<path fill="none" stroke="#191970" d="M184.2305,-48C192.6507,-48 201.166,-48 209.5472,-48"/>
<polygon fill="#191970" stroke="#191970" points="209.6886,-51.5001 219.6885,-48 209.6885,-44.5001 209.6886,-51.5001"/>
</g>
<!-- Node46 -->
<g id="node3" class="node">
<title>Node46</title>
<g id="a_node3"><a xlink:href="classMapLayers.html#a1d810628821913c499b8348107b66891" target="_top" xlink:title="Check if given Layer is being drawn. ">
<polygon fill="none" stroke="#000000" points="411,-38.5 411,-57.5 552,-57.5 552,-38.5 411,-38.5"/>
<text text-anchor="middle" x="481.5" y="-45.5" font-family="Helvetica,sans-Serif" font-size="10.00" fill="#000000">MapLayers::isLayerActive</text>
</a>
</g>
</g>
<!-- Node45&#45;&gt;Node46 -->
<g id="edge2" class="edge">
<title>Node45&#45;&gt;Node46</title>
<path fill="none" stroke="#191970" d="M375.2659,-48C383.6335,-48 392.162,-48 400.5656,-48"/>
<polygon fill="#191970" stroke="#191970" points="400.735,-51.5001 410.735,-48 400.7349,-44.5001 400.735,-51.5001"/>
</g>
<!-- Node47 -->
<g id="node4" class="node">
<title>Node47</title>
<g id="a_node4"><a xlink:href="classMapLayers.html#ab663dfc9e4c144f904ad85543b66ac8f" target="_top" xlink:title="Toggle Drawing Layer Toggle Drawing Layer (use bitwise XOR to toggle layer) ">
<polygon fill="none" stroke="#000000" points="588,-76.5 588,-95.5 750,-95.5 750,-76.5 588,-76.5"/>
<text text-anchor="middle" x="669" y="-83.5" font-family="Helvetica,sans-Serif" font-size="10.00" fill="#000000">MapLayers::setLayerEditMode</text>
</a>
</g>
</g>
<!-- Node46&#45;&gt;Node47 -->
<g id="edge3" class="edge">
<title>Node46&#45;&gt;Node47</title>
<path fill="none" stroke="#191970" d="M528.8142,-57.589C554.1141,-62.7165 585.4502,-69.0672 612.075,-74.4632"/>
<polygon fill="#191970" stroke="#191970" points="611.5301,-77.9238 622.0261,-76.4799 612.9205,-71.0633 611.5301,-77.9238"/>
</g>
<!-- Node51 -->
<g id="node8" class="node">
<title>Node51</title>
<g id="a_node8"><a xlink:href="classMapLayers.html#a53d7fcd90e70eaf36239d7a75c0c5dda" target="_top" xlink:title="MapLayers::MapLayers">
<polygon fill="none" stroke="#000000" points="605,-38.5 605,-57.5 733,-57.5 733,-38.5 605,-38.5"/>
<text text-anchor="middle" x="669" y="-45.5" font-family="Helvetica,sans-Serif" font-size="10.00" fill="#000000">MapLayers::MapLayers</text>
</a>
</g>
</g>
<!-- Node46&#45;&gt;Node51 -->
<g id="edge7" class="edge">
<title>Node46&#45;&gt;Node51</title>
<path fill="none" stroke="#191970" d="M552.1185,-48C566.0688,-48 580.7479,-48 594.8122,-48"/>
<polygon fill="#191970" stroke="#191970" points="594.9254,-51.5001 604.9254,-48 594.9254,-44.5001 594.9254,-51.5001"/>
</g>
<!-- Node52 -->
<g id="node9" class="node">
<title>Node52</title>
<g id="a_node9"><a xlink:href="classMapLayers.html#aa7fa21110e27ec69f131692b0a510d66" target="_top" xlink:title="MapLayers::~MapLayers">
<polygon fill="none" stroke="#000000" points="601,-.5 601,-19.5 737,-19.5 737,-.5 601,-.5"/>
<text text-anchor="middle" x="669" y="-7.5" font-family="Helvetica,sans-Serif" font-size="10.00" fill="#000000">MapLayers::~MapLayers</text>
</a>
</g>
</g>
<!-- Node46&#45;&gt;Node52 -->
<g id="edge8" class="edge">
<title>Node46&#45;&gt;Node52</title>
<path fill="none" stroke="#191970" d="M528.8142,-38.411C554.1141,-33.2835 585.4502,-26.9328 612.075,-21.5368"/>
<polygon fill="#191970" stroke="#191970" points="612.9205,-24.9367 622.0261,-19.5201 611.5301,-18.0762 612.9205,-24.9367"/>
</g>
<!-- Node48 -->
<g id="node5" class="node">
<title>Node48</title>
<g id="a_node5"><a xlink:href="classMapLayers.html#a0a64d01a42e8864b78e1bc54007cb7d9" target="_top" xlink:title="Toggle Drawing Layer Toggle Drawing Layer (use bitwise XOR to toggle layer) ">
<polygon fill="none" stroke="#000000" points="786,-93 786,-123 926,-123 926,-93 786,-93"/>
<text text-anchor="start" x="794" y="-111" font-family="Helvetica,sans-Serif" font-size="10.00" fill="#000000">MapLayers::deactivateAll</text>
<text text-anchor="middle" x="856" y="-100" font-family="Helvetica,sans-Serif" font-size="10.00" fill="#000000">Layers</text>
</a>
</g>
</g>
<!-- Node47&#45;&gt;Node48 -->
<g id="edge4" class="edge">
<title>Node47&#45;&gt;Node48</title>
<path fill="none" stroke="#191970" d="M749.9333,-95.5216C758.5179,-96.5315 767.2464,-97.5584 775.8223,-98.5673"/>
<polygon fill="#191970" stroke="#191970" points="775.4613,-102.0489 785.8018,-99.7414 776.2792,-95.0969 775.4613,-102.0489"/>
</g>
<!-- Node50 -->
<g id="node7" class="node">
<title>Node50</title>
<g id="a_node7"><a xlink:href="classMapLayers.html#a54ce1eeef2a8998a728ac7074efe8787" target="_top" xlink:title="Enable Drawing Layer Enable Drawing Layer (use bitwise OR to add layer) ">
<polygon fill="none" stroke="#000000" points="788.5,-54.5 788.5,-73.5 923.5,-73.5 923.5,-54.5 788.5,-54.5"/>
<text text-anchor="middle" x="856" y="-61.5" font-family="Helvetica,sans-Serif" font-size="10.00" fill="#000000">MapLayers::enableLayer</text>
</a>
</g>
</g>
<!-- Node47&#45;&gt;Node50 -->
<g id="edge6" class="edge">
<title>Node47&#45;&gt;Node50</title>
<path fill="none" stroke="#191970" d="M749.9333,-76.4784C759.3569,-75.3698 768.954,-74.2407 778.3322,-73.1374"/>
<polygon fill="#191970" stroke="#191970" points="778.8815,-76.597 788.404,-71.9525 778.0636,-69.6449 778.8815,-76.597"/>
</g>
<!-- Node49 -->
<g id="node6" class="node">
<title>Node49</title>
<g id="a_node6"><a xlink:href="classMapLayers.html#a3b1b1f10dd431fa83e098a20e4c836b9" target="_top" xlink:title="Disable Drawing Layer Disable Drawing Layer ( Turned off by using bitwise AND with inversed pattern) ...">
<polygon fill="none" stroke="#000000" points="962,-98.5 962,-117.5 1099,-117.5 1099,-98.5 962,-98.5"/>
<text text-anchor="middle" x="1030.5" y="-105.5" font-family="Helvetica,sans-Serif" font-size="10.00" fill="#000000">MapLayers::disableLayer</text>
</a>
</g>
</g>
<!-- Node48&#45;&gt;Node49 -->
<g id="edge5" class="edge">
<title>Node48&#45;&gt;Node49</title>
<path fill="none" stroke="#191970" d="M926.2215,-108C934.5704,-108 943.1356,-108 951.5953,-108"/>
<polygon fill="#191970" stroke="#191970" points="951.8402,-111.5001 961.8402,-108 951.8402,-104.5001 951.8402,-111.5001"/>
</g>
</g>
</svg>
