<?xml version="1.0" encoding="UTF-8" standalone="no"?>
<!DOCTYPE svg PUBLIC "-//W3C//DTD SVG 1.1//EN"
 "http://www.w3.org/Graphics/SVG/1.1/DTD/svg11.dtd">
<!-- Generated by graphviz version 2.40.1 (20161225.0304)
 -->
<!-- Title: Map::decreaseHeight Pages: 1 -->
<!--zoomable 365 -->
<svg id="main" version="1.1" xmlns="http://www.w3.org/2000/svg" xmlns:xlink="http://www.w3.org/1999/xlink" xml:space="preserve" onload="init(evt)">
<style type="text/css"><![CDATA[
.edge:hover path { stroke: red; }
.edge:hover polygon { stroke: red; fill: red; }
]]></style>
<script type="text/javascript"><![CDATA[
var edges = document.getElementsByTagName('g');
if (edges && edges.length) {
  for (var i=0;i<edges.length;i++) {
    if (edges[i].id.substr(0,4)=='edge') {
      edges[i].setAttribute('class','edge');
    }
  }
}
]]></script>
        <defs>
                <circle id="rim" cx="0" cy="0" r="7"/>
                <circle id="rim2" cx="0" cy="0" r="3.5"/>
                <g id="zoomPlus">
                        <use xlink:href="#rim" fill="#404040">
                                <set attributeName="fill" to="#808080" begin="zoomplus.mouseover" end="zoomplus.mouseout"/>
                        </use>
                        <path d="M-4,0h8M0,-4v8" fill="none" stroke="white" stroke-width="1.5" pointer-events="none"/>
                </g>
                <g id="zoomMin">
                        <use xlink:href="#rim" fill="#404040">
                                <set attributeName="fill" to="#808080" begin="zoomminus.mouseover" end="zoomminus.mouseout"/>
                        </use>
                        <path d="M-4,0h8" fill="none" stroke="white" stroke-width="1.5" pointer-events="none"/>
                </g>
                <g id="dirArrow">
                        <path fill="none" stroke="white" stroke-width="1.5" d="M0,-3.0v7 M-2.5,-0.5L0,-3.0L2.5,-0.5"/>
                </g>
               <g id="resetDef">
                       <use xlink:href="#rim2" fill="#404040">
                               <set attributeName="fill" to="#808080" begin="reset.mouseover" end="reset.mouseout"/>
                       </use>
               </g>
        </defs>

<script type="text/javascript">
var viewWidth = 1498;
var viewHeight = 365;
var sectionId = 'dynsection-6';
</script>
<script xlink:href="svgpan.js"/>
<svg id="graph" class="graph">
<g id="viewport">
<title>Map::decreaseHeight</title>
<!-- Node57 -->
<g id="node1" class="node">
<title>Node57</title>
<polygon fill="#bfbfbf" stroke="#000000" points="0,-252.4723 0,-271.4723 119,-271.4723 119,-252.4723 0,-252.4723"/>
<text text-anchor="middle" x="59.5" y="-259.4723" font-family="Helvetica,sans-Serif" font-size="10.00" fill="#000000">Map::decreaseHeight</text>
</g>
<!-- Node58 -->
<g id="node2" class="node">
<title>Node58</title>
<g id="a_node2"><a xlink:href="classEngine.html#a13572fdd7f6470dca48a14497f58980e" target="_top" xlink:title="Decrease Height Decreases the height of the given map node Calls the according function of the Map ob...">
<polygon fill="none" stroke="#000000" points="170.5,-328.4723 170.5,-347.4723 302.5,-347.4723 302.5,-328.4723 170.5,-328.4723"/>
<text text-anchor="middle" x="236.5" y="-335.4723" font-family="Helvetica,sans-Serif" font-size="10.00" fill="#000000">Engine::decreaseHeight</text>
</a>
</g>
</g>
<!-- Node57&#45;&gt;Node58 -->
<g id="edge1" class="edge">
<title>Node57&#45;&gt;Node58</title>
<path fill="none" stroke="#191970" d="M91.328,-275.6386C126.8015,-290.8702 183.2431,-315.105 214.2648,-328.425"/>
<polygon fill="#191970" stroke="#191970" points="92.4869,-272.3272 81.9172,-271.5978 89.725,-278.7594 92.4869,-272.3272"/>
</g>
<!-- Node63 -->
<g id="node7" class="node">
<title>Node63</title>
<g id="a_node7"><a xlink:href="classMap.html#a59d21f2688713fbcfe320eb1b24405ca" target="_top" xlink:title="Update mapNode and its adjacent tiles Updates mapNode height information, draws slopes for adjacent t...">
<polygon fill="none" stroke="#000000" points="155,-233.4723 155,-252.4723 318,-252.4723 318,-233.4723 155,-233.4723"/>
<text text-anchor="middle" x="236.5" y="-240.4723" font-family="Helvetica,sans-Serif" font-size="10.00" fill="#000000">Map::updateNeighborsOfNode</text>
</a>
</g>
</g>
<!-- Node57&#45;&gt;Node63 -->
<g id="edge6" class="edge">
<title>Node57&#45;&gt;Node63</title>
<path fill="none" stroke="#191970" d="M106.1917,-250.93C121.1835,-248.7634 138.2534,-246.6974 154.9879,-244.991"/>
<polygon fill="#191970" stroke="#191970" points="105.5397,-247.4887 96.1745,-252.4428 106.5851,-254.4102 105.5397,-247.4887"/>
</g>
<!-- Node59 -->
<g id="node3" class="node">
<title>Node59</title>
<g id="a_node3"><a xlink:href="classEventManager.html#a65ec91fd5016d4f9c4167fb8babed2df" target="_top" xlink:title="EventManager::checkEvents">
<polygon fill="none" stroke="#000000" points="1014,-252.4723 1014,-271.4723 1168,-271.4723 1168,-252.4723 1014,-252.4723"/>
<text text-anchor="middle" x="1091" y="-259.4723" font-family="Helvetica,sans-Serif" font-size="10.00" fill="#000000">EventManager::checkEvents</text>
</a>
</g>
</g>
<!-- Node58&#45;&gt;Node59 -->
<g id="edge2" class="edge">
<title>Node58&#45;&gt;Node59</title>
<path fill="none" stroke="#191970" d="M312.9444,-344.7606C381.0017,-350.2155 483.3043,-356.9723 572.5,-356.9723 572.5,-356.9723 572.5,-356.9723 732.5,-356.9723 837.6431,-356.9723 865.3861,-349.4993 966,-318.9723 1006.1698,-306.7845 1050.1882,-284.4136 1073.7768,-271.6219"/>
<polygon fill="#191970" stroke="#191970" points="312.991,-341.253 302.7405,-343.9319 312.4243,-348.23 312.991,-341.253"/>
</g>
<!-- Node60 -->
<g id="node4" class="node">
<title>Node60</title>
<g id="a_node4"><a xlink:href="classGame.html#a1c2ab25d5216b2f4b2fe41efd2c09114" target="_top" xlink:title="begins the game starts running the game ">
<polygon fill="none" stroke="#000000" points="1216,-195.4723 1216,-214.4723 1284,-214.4723 1284,-195.4723 1216,-195.4723"/>
<text text-anchor="middle" x="1250" y="-202.4723" font-family="Helvetica,sans-Serif" font-size="10.00" fill="#000000">Game::run</text>
</a>
</g>
</g>
<!-- Node59&#45;&gt;Node60 -->
<g id="edge3" class="edge">
<title>Node59&#45;&gt;Node60</title>
<path fill="none" stroke="#191970" d="M1127.0636,-249.0439C1156.3193,-238.556 1196.8994,-224.0084 1223.3002,-214.544"/>
<polygon fill="#191970" stroke="#191970" points="1125.8453,-245.7624 1117.613,-252.4318 1128.2076,-252.3518 1125.8453,-245.7624"/>
</g>
<!-- Node61 -->
<g id="node5" class="node">
<title>Node61</title>
<g id="a_node5"><a xlink:href="main_8cxx.html#af582d708d899e67ead623eac34a22387" target="_top" xlink:title="protected_main">
<polygon fill="none" stroke="#000000" points="1320,-176.4723 1320,-195.4723 1413,-195.4723 1413,-176.4723 1320,-176.4723"/>
<text text-anchor="middle" x="1366.5" y="-183.4723" font-family="Helvetica,sans-Serif" font-size="10.00" fill="#000000">protected_main</text>
</a>
</g>
</g>
<!-- Node60&#45;&gt;Node61 -->
<g id="edge4" class="edge">
<title>Node60&#45;&gt;Node61</title>
<path fill="none" stroke="#191970" d="M1293.9884,-197.7983C1302.382,-196.4293 1311.1965,-194.9918 1319.6749,-193.609"/>
<polygon fill="#191970" stroke="#191970" points="1293.316,-194.3616 1284.0098,-199.4257 1294.4428,-201.2703 1293.316,-194.3616"/>
</g>
<!-- Node62 -->
<g id="node6" class="node">
<title>Node62</title>
<g id="a_node6"><a xlink:href="main_8cxx.html#a3c04138a5bfe5d72780bb7e82a18e627" target="_top" xlink:title="main">
<polygon fill="none" stroke="#000000" points="1449,-176.4723 1449,-195.4723 1490,-195.4723 1490,-176.4723 1449,-176.4723"/>
<text text-anchor="middle" x="1469.5" y="-183.4723" font-family="Helvetica,sans-Serif" font-size="10.00" fill="#000000">main</text>
</a>
</g>
</g>
<!-- Node61&#45;&gt;Node62 -->
<g id="edge5" class="edge">
<title>Node61&#45;&gt;Node62</title>
<path fill="none" stroke="#191970" d="M1423.2133,-185.9723C1432.4322,-185.9723 1441.4259,-185.9723 1448.9965,-185.9723"/>
<polygon fill="#191970" stroke="#191970" points="1423.1782,-182.4724 1413.1782,-185.9723 1423.1781,-189.4724 1423.1782,-182.4724"/>
</g>
<!-- Node63&#45;&gt;Node57 -->
<g id="edge11" class="edge">
<title>Node63&#45;&gt;Node57</title>
<path fill="none" stroke="#191970" d="M189.9641,-253.9921C168.3765,-257.1159 142.4543,-260.0327 119.4241,-261.9668"/>
<polygon fill="#191970" stroke="#191970" points="190.5012,-257.4508 199.8658,-252.4955 189.455,-250.5294 190.5012,-257.4508"/>
</g>
<!-- Node64 -->
<g id="node8" class="node">
<title>Node64</title>
<g id="a_node8"><a xlink:href="classMap.html#aba5154a4d917900679a3c0f7ec701561" target="_top" xlink:title="Increase Height Increases the height of the node and checks the surrounding tiles. Either draw a slope sprite or elevate the tile if necessary. ">
<polygon fill="none" stroke="#000000" points="514.5,-195.4723 514.5,-214.4723 630.5,-214.4723 630.5,-195.4723 514.5,-195.4723"/>
<text text-anchor="middle" x="572.5" y="-202.4723" font-family="Helvetica,sans-Serif" font-size="10.00" fill="#000000">Map::increaseHeight</text>
</a>
</g>
</g>
<!-- Node63&#45;&gt;Node64 -->
<g id="edge7" class="edge">
<title>Node63&#45;&gt;Node64</title>
<path fill="none" stroke="#191970" d="M269.2875,-231.4637C292.8494,-227.1378 325.3754,-223.2496 354,-219.9723 408.2177,-213.7648 470.042,-207.0036 514.0574,-203.8129"/>
<polygon fill="#191970" stroke="#191970" points="268.5864,-228.0345 259.4579,-233.4124 269.9477,-234.9009 268.5864,-228.0345"/>
</g>
<!-- Node66 -->
<g id="node10" class="node">
<title>Node66</title>
<g id="a_node10"><a xlink:href="classMap.html#a481b37ba71ef0e51e836fc42805762dd" target="_top" xlink:title="Update all mapNodes Updates all mapNode and its adjacent tiles regarding height information, draws slopes for adjacent tiles and sets tiling for mapNode sprite if applicable. ">
<polygon fill="none" stroke="#000000" points="354,-139.4723 354,-158.4723 474,-158.4723 474,-139.4723 354,-139.4723"/>
<text text-anchor="middle" x="414" y="-146.4723" font-family="Helvetica,sans-Serif" font-size="10.00" fill="#000000">Map::updateAllNodes</text>
</a>
</g>
</g>
<!-- Node63&#45;&gt;Node66 -->
<g id="edge12" class="edge">
<title>Node63&#45;&gt;Node66</title>
<path fill="none" stroke="#191970" d="M259.4001,-227.8642C282.6541,-212.8767 319.9836,-189.779 354,-172.9723 364.7625,-167.6549 377.0101,-162.5897 387.6211,-158.4949"/>
<polygon fill="#191970" stroke="#191970" points="257.4036,-224.9875 250.9244,-233.3703 261.217,-230.8576 257.4036,-224.9875"/>
</g>
<!-- Node75 -->
<g id="node19" class="node">
<title>Node75</title>
<g id="a_node19"><a xlink:href="classMap.html#a404c38b33d61f8c63ce2c2efb864d6dd" target="_top" xlink:title="Set the Tile ID Of Node object Also invokes all necessary texture updates (auto&#45;tiling, slopes, ...) ">
<polygon fill="none" stroke="#000000" points="671,-252.4723 671,-271.4723 794,-271.4723 794,-252.4723 671,-252.4723"/>
<text text-anchor="middle" x="732.5" y="-259.4723" font-family="Helvetica,sans-Serif" font-size="10.00" fill="#000000">Map::setTileIDOfNode</text>
</a>
</g>
</g>
<!-- Node63&#45;&gt;Node75 -->
<g id="edge38" class="edge">
<title>Node63&#45;&gt;Node75</title>
<path fill="none" stroke="#191970" d="M328.1994,-246.485C427.9737,-250.307 584.7222,-256.3115 670.7973,-259.6087"/>
<polygon fill="#191970" stroke="#191970" points="328.2531,-242.9846 318.1264,-246.0991 327.9851,-249.9795 328.2531,-242.9846"/>
</g>
<!-- Node77 -->
<g id="node21" class="node">
<title>Node77</title>
<g id="a_node21"><a xlink:href="classMap.html#aa8cc2ed983007621bce12dd9d1b8ec5b" target="_top" xlink:title="Demolish a node This function gathers all tiles that should be demolished and invokes the nodes demol...">
<polygon fill="none" stroke="#000000" points="357.5,-271.4723 357.5,-290.4723 470.5,-290.4723 470.5,-271.4723 357.5,-271.4723"/>
<text text-anchor="middle" x="414" y="-278.4723" font-family="Helvetica,sans-Serif" font-size="10.00" fill="#000000">Map::demolishNode</text>
</a>
</g>
</g>
<!-- Node63&#45;&gt;Node77 -->
<g id="edge32" class="edge">
<title>Node63&#45;&gt;Node77</title>
<path fill="none" stroke="#191970" d="M322.4174,-254.619C347.9373,-260.0273 373.7699,-266.2474 391.4632,-271.4698"/>
<polygon fill="#191970" stroke="#191970" points="322.7941,-251.1225 312.2908,-252.5123 321.3684,-257.9758 322.7941,-251.1225"/>
</g>
<!-- Node64&#45;&gt;Node63 -->
<g id="edge10" class="edge">
<title>Node64&#45;&gt;Node63</title>
<path fill="none" stroke="#191970" d="M530.6088,-216.1769C486.6154,-223.1961 415.4259,-230.9396 354,-237.9723 342.3662,-239.3043 330.0878,-240.7372 318.0288,-242.0607"/>
<polygon fill="#191970" stroke="#191970" points="531.3579,-219.6004 540.6461,-214.5035 530.2067,-212.6957 531.3579,-219.6004"/>
</g>
<!-- Node65 -->
<g id="node9" class="node">
<title>Node65</title>
<g id="a_node9"><a xlink:href="classEngine.html#a4851ae1ff696c893741167fc0194fd77" target="_top" xlink:title="Increase Height Increases the height of the given map node Calls the according function of the Map ob...">
<polygon fill="none" stroke="#000000" points="833.5,-233.4723 833.5,-252.4723 962.5,-252.4723 962.5,-233.4723 833.5,-233.4723"/>
<text text-anchor="middle" x="898" y="-240.4723" font-family="Helvetica,sans-Serif" font-size="10.00" fill="#000000">Engine::increaseHeight</text>
</a>
</g>
</g>
<!-- Node64&#45;&gt;Node65 -->
<g id="edge8" class="edge">
<title>Node64&#45;&gt;Node65</title>
<path fill="none" stroke="#191970" d="M640.6467,-212.928C697.3756,-219.5507 777.5953,-228.9159 833.3345,-235.4231"/>
<polygon fill="#191970" stroke="#191970" points="641.0313,-209.4492 630.6929,-211.766 640.2195,-216.402 641.0313,-209.4492"/>
</g>
<!-- Node65&#45;&gt;Node59 -->
<g id="edge9" class="edge">
<title>Node65&#45;&gt;Node59</title>
<path fill="none" stroke="#191970" d="M972.7051,-250.3267C986.182,-251.6535 1000.2573,-253.0391 1013.8036,-254.3727"/>
<polygon fill="#191970" stroke="#191970" points="972.8294,-246.8221 962.5345,-249.3255 972.1435,-253.7884 972.8294,-246.8221"/>
</g>
<!-- Node67 -->
<g id="node11" class="node">
<title>Node67</title>
<g id="a_node11"><a xlink:href="classMap.html#a482ac34426e8aa66abb46f60ec329402" target="_top" xlink:title="Initialize the Map with node objects Initialize the Map with node objects. ">
<polygon fill="none" stroke="#000000" points="533,-81.4723 533,-100.4723 612,-100.4723 612,-81.4723 533,-81.4723"/>
<text text-anchor="middle" x="572.5" y="-88.4723" font-family="Helvetica,sans-Serif" font-size="10.00" fill="#000000">Map::initMap</text>
</a>
</g>
</g>
<!-- Node66&#45;&gt;Node67 -->
<g id="edge13" class="edge">
<title>Node66&#45;&gt;Node67</title>
<path fill="none" stroke="#191970" d="M449.6402,-135.9305C478.9759,-125.1957 519.8889,-110.2243 546.2881,-100.5641"/>
<polygon fill="#191970" stroke="#191970" points="448.3613,-132.6714 440.1731,-139.3948 450.7668,-139.2451 448.3613,-132.6714"/>
</g>
<!-- Node72 -->
<g id="node16" class="node">
<title>Node72</title>
<g id="a_node16"><a xlink:href="classMap.html#afefe996cc1f62b61ec60d0ae415953bf" target="_top" xlink:title="Map::loadMapFromFile">
<polygon fill="none" stroke="#000000" points="510,-157.4723 510,-176.4723 635,-176.4723 635,-157.4723 510,-157.4723"/>
<text text-anchor="middle" x="572.5" y="-164.4723" font-family="Helvetica,sans-Serif" font-size="10.00" fill="#000000">Map::loadMapFromFile</text>
</a>
</g>
</g>
<!-- Node66&#45;&gt;Node72 -->
<g id="edge21" class="edge">
<title>Node66&#45;&gt;Node72</title>
<path fill="none" stroke="#191970" d="M484.5826,-156.988C493.0271,-157.947 501.6045,-158.9211 509.9251,-159.866"/>
<polygon fill="#191970" stroke="#191970" points="484.7053,-153.4795 474.3742,-155.8287 483.9154,-160.4348 484.7053,-153.4795"/>
</g>
<!-- Node68 -->
<g id="node12" class="node">
<title>Node68</title>
<g id="a_node12"><a xlink:href="classEngine.html#a260d4834150eae6eec2bde34df6dc827" target="_top" xlink:title="Creates a new game Creates a new game. ">
<polygon fill="none" stroke="#000000" points="680,-43.4723 680,-62.4723 785,-62.4723 785,-43.4723 680,-43.4723"/>
<text text-anchor="middle" x="732.5" y="-50.4723" font-family="Helvetica,sans-Serif" font-size="10.00" fill="#000000">Engine::newGame</text>
</a>
</g>
</g>
<!-- Node67&#45;&gt;Node68 -->
<g id="edge14" class="edge">
<title>Node67&#45;&gt;Node68</title>
<path fill="none" stroke="#191970" d="M621.8098,-79.2613C644.429,-73.8892 670.9064,-67.6008 692.2931,-62.5215"/>
<polygon fill="#191970" stroke="#191970" points="620.9712,-75.863 612.0506,-81.5791 622.5887,-82.6735 620.9712,-75.863"/>
</g>
<!-- Node68&#45;&gt;Node60 -->
<g id="edge20" class="edge">
<title>Node68&#45;&gt;Node60</title>
<path fill="none" stroke="#191970" d="M768.0711,-40.1566C849.9604,-13.1237 1054.3927,39.9553 1180,-52.9723 1228.8136,-89.0859 1244.5801,-167.5437 1248.724,-195.1351"/>
<polygon fill="#191970" stroke="#191970" points="766.8364,-36.8792 758.4787,-43.3907 769.0728,-43.5124 766.8364,-36.8792"/>
</g>
<!-- Node69 -->
<g id="node13" class="node">
<title>Node69</title>
<g id="a_node13"><a xlink:href="classEngine.html#ab5a909990be40701ebb4b57c3e716ed4" target="_top" xlink:title="Engine::saveGame">
<polygon fill="none" stroke="#000000" points="844,-43.4723 844,-62.4723 952,-62.4723 952,-43.4723 844,-43.4723"/>
<text text-anchor="middle" x="898" y="-50.4723" font-family="Helvetica,sans-Serif" font-size="10.00" fill="#000000">Engine::saveGame</text>
</a>
</g>
</g>
<!-- Node68&#45;&gt;Node69 -->
<g id="edge15" class="edge">
<title>Node68&#45;&gt;Node69</title>
<path fill="none" stroke="#191970" d="M795.6194,-52.9723C811.5588,-52.9723 828.5294,-52.9723 843.9755,-52.9723"/>
<polygon fill="#191970" stroke="#191970" points="795.3203,-49.4724 785.3203,-52.9723 795.3202,-56.4724 795.3203,-49.4724"/>
</g>
<!-- Node70 -->
<g id="node14" class="node">
<title>Node70</title>
<g id="a_node14"><a xlink:href="classUIManager.html#aa78e356fc3b356d790c848319d1c387e" target="_top" xlink:title="UIManager::setCallbackFunctions">
<polygon fill="none" stroke="#000000" points="1002,-62.4723 1002,-81.4723 1180,-81.4723 1180,-62.4723 1002,-62.4723"/>
<text text-anchor="middle" x="1091" y="-69.4723" font-family="Helvetica,sans-Serif" font-size="10.00" fill="#000000">UIManager::setCallbackFunctions</text>
</a>
</g>
</g>
<!-- Node68&#45;&gt;Node70 -->
<g id="edge17" class="edge">
<title>Node68&#45;&gt;Node70</title>
<path fill="none" stroke="#191970" d="M781.893,-41.4345C797.22,-38.3715 814.229,-35.4947 830,-33.9723 890.1648,-28.1647 906.2124,-25.0854 966,-33.9723 1002.1212,-39.3414 1042.2491,-52.9871 1067.0572,-62.3753"/>
<polygon fill="#191970" stroke="#191970" points="781.1772,-38.0084 772.0937,-43.4619 782.5955,-44.8633 781.1772,-38.0084"/>
</g>
<!-- Node71 -->
<g id="node15" class="node">
<title>Node71</title>
<g id="a_node15"><a xlink:href="classGame.html#a5ed7fc5be77080f7f6dd5363f7f007a1" target="_top" xlink:title="initializes and displays the main menu initializes and displays the main menu ">
<polygon fill="none" stroke="#000000" points="1039.5,-157.4723 1039.5,-176.4723 1142.5,-176.4723 1142.5,-157.4723 1039.5,-157.4723"/>
<text text-anchor="middle" x="1091" y="-164.4723" font-family="Helvetica,sans-Serif" font-size="10.00" fill="#000000">Game::mainMenu</text>
</a>
</g>
</g>
<!-- Node68&#45;&gt;Node71 -->
<g id="edge18" class="edge">
<title>Node68&#45;&gt;Node71</title>
<path fill="none" stroke="#191970" d="M772.106,-65.5667C844.4107,-88.559 996.2829,-136.8531 1060.8842,-157.3958"/>
<polygon fill="#191970" stroke="#191970" points="773.0393,-62.1909 762.4489,-62.4958 770.918,-68.8617 773.0393,-62.1909"/>
</g>
<!-- Node69&#45;&gt;Node70 -->
<g id="edge16" class="edge">
<title>Node69&#45;&gt;Node70</title>
<path fill="none" stroke="#191970" d="M962.0508,-59.2779C974.8151,-60.5344 988.4367,-61.8754 1001.8668,-63.1976"/>
<polygon fill="#191970" stroke="#191970" points="962.3127,-55.7868 952.0179,-58.2902 961.6269,-62.7531 962.3127,-55.7868"/>
</g>
<!-- Node71&#45;&gt;Node61 -->
<g id="edge19" class="edge">
<title>Node71&#45;&gt;Node61</title>
<path fill="none" stroke="#191970" d="M1152.9861,-171.2472C1203.6117,-174.7387 1274.055,-179.5968 1319.9575,-182.7625"/>
<polygon fill="#191970" stroke="#191970" points="1153.0366,-167.7425 1142.8194,-170.5461 1152.5549,-174.7259 1153.0366,-167.7425"/>
</g>
<!-- Node73 -->
<g id="node17" class="node">
<title>Node73</title>
<g id="a_node17"><a xlink:href="classEngine.html#a83b7dbeee899b36a13d5b07c7ad87ebc" target="_top" xlink:title="Loads a saved game Loads a saved Game. ">
<polygon fill="none" stroke="#000000" points="679.5,-157.4723 679.5,-176.4723 785.5,-176.4723 785.5,-157.4723 679.5,-157.4723"/>
<text text-anchor="middle" x="732.5" y="-164.4723" font-family="Helvetica,sans-Serif" font-size="10.00" fill="#000000">Engine::loadGame</text>
</a>
</g>
</g>
<!-- Node72&#45;&gt;Node73 -->
<g id="edge22" class="edge">
<title>Node72&#45;&gt;Node73</title>
<path fill="none" stroke="#191970" d="M645.3143,-166.9723C656.8222,-166.9723 668.53,-166.9723 679.4749,-166.9723"/>
<polygon fill="#191970" stroke="#191970" points="645.2771,-163.4724 635.277,-166.9723 645.277,-170.4724 645.2771,-163.4724"/>
</g>
<!-- Node72&#45;&gt;Node75 -->
<g id="edge29" class="edge">
<title>Node72&#45;&gt;Node75</title>
<path fill="none" stroke="#191970" d="M621.3948,-179.9116C626.0874,-181.7225 630.6965,-183.7395 635,-185.9723 670.6243,-204.4561 706.2282,-236.4886 722.833,-252.4134"/>
<polygon fill="#191970" stroke="#191970" points="622.3112,-176.5231 611.7164,-176.4807 619.9723,-183.1208 622.3112,-176.5231"/>
</g>
<!-- Node73&#45;&gt;Node70 -->
<g id="edge27" class="edge">
<title>Node73&#45;&gt;Node70</title>
<path fill="none" stroke="#191970" d="M778.2482,-154.8494C850.4631,-135.7129 989.3971,-98.8964 1055.0082,-81.5099"/>
<polygon fill="#191970" stroke="#191970" points="777.2856,-151.4836 768.5158,-157.4284 779.0787,-158.25 777.2856,-151.4836"/>
</g>
<!-- Node73&#45;&gt;Node71 -->
<g id="edge28" class="edge">
<title>Node73&#45;&gt;Node71</title>
<path fill="none" stroke="#191970" d="M781.893,-178.5101C797.22,-181.5731 814.229,-184.45 830,-185.9723 890.1648,-191.7799 905.7274,-190.5269 966,-185.9723 990.5148,-184.1198 1017.505,-180.2516 1040.1122,-176.4859"/>
<polygon fill="#191970" stroke="#191970" points="782.5955,-175.0814 772.0937,-176.4827 781.1772,-181.9362 782.5955,-175.0814"/>
</g>
<!-- Node74 -->
<g id="node18" class="node">
<title>Node74</title>
<g id="a_node18"><a xlink:href="classEngine.html#a0ba57971ffb5173ecc425461f65a4cd8" target="_top" xlink:title="Quits the game Sets m_running to false and quitting the game. ">
<polygon fill="none" stroke="#000000" points="846,-157.4723 846,-176.4723 950,-176.4723 950,-157.4723 846,-157.4723"/>
<text text-anchor="middle" x="898" y="-164.4723" font-family="Helvetica,sans-Serif" font-size="10.00" fill="#000000">Engine::quitGame</text>
</a>
</g>
</g>
<!-- Node73&#45;&gt;Node74 -->
<g id="edge23" class="edge">
<title>Node73&#45;&gt;Node74</title>
<path fill="none" stroke="#191970" d="M795.9079,-166.9723C812.4475,-166.9723 830.0792,-166.9723 845.9541,-166.9723"/>
<polygon fill="#191970" stroke="#191970" points="795.7763,-163.4724 785.7762,-166.9723 795.7762,-170.4724 795.7763,-163.4724"/>
</g>
<!-- Node74&#45;&gt;Node59 -->
<g id="edge24" class="edge">
<title>Node74&#45;&gt;Node59</title>
<path fill="none" stroke="#191970" d="M926.7537,-181.1257C966.6083,-200.7433 1037.5738,-235.6745 1071.6672,-252.4562"/>
<polygon fill="#191970" stroke="#191970" points="928.0857,-177.8804 917.568,-176.6042 924.9943,-184.1608 928.0857,-177.8804"/>
</g>
<!-- Node74&#45;&gt;Node70 -->
<g id="edge25" class="edge">
<title>Node74&#45;&gt;Node70</title>
<path fill="none" stroke="#191970" d="M926.7537,-152.819C966.6083,-133.2014 1037.5738,-98.2702 1071.6672,-81.4885"/>
<polygon fill="#191970" stroke="#191970" points="924.9943,-149.7839 917.568,-157.3404 928.0857,-156.0643 924.9943,-149.7839"/>
</g>
<!-- Node74&#45;&gt;Node71 -->
<g id="edge26" class="edge">
<title>Node74&#45;&gt;Node71</title>
<path fill="none" stroke="#191970" d="M960.5372,-166.9723C986.0304,-166.9723 1015.1483,-166.9723 1039.3984,-166.9723"/>
<polygon fill="#191970" stroke="#191970" points="960.2286,-163.4724 950.2286,-166.9723 960.2285,-170.4724 960.2286,-163.4724"/>
</g>
<!-- Node76 -->
<g id="node20" class="node">
<title>Node76</title>
<g id="a_node20"><a xlink:href="classEngine.html#a7a1521fd7fc731f961ebaf3f723127d9" target="_top" xlink:title="Engine::setTileIDOfNode">
<polygon fill="none" stroke="#000000" points="830,-271.4723 830,-290.4723 966,-290.4723 966,-271.4723 830,-271.4723"/>
<text text-anchor="middle" x="898" y="-278.4723" font-family="Helvetica,sans-Serif" font-size="10.00" fill="#000000">Engine::setTileIDOfNode</text>
</a>
</g>
</g>
<!-- Node75&#45;&gt;Node76 -->
<g id="edge30" class="edge">
<title>Node75&#45;&gt;Node76</title>
<path fill="none" stroke="#191970" d="M804.094,-270.1916C812.6681,-271.1759 821.405,-272.1789 829.9273,-273.1573"/>
<polygon fill="#191970" stroke="#191970" points="804.4601,-266.7107 794.1261,-269.0472 803.6616,-273.665 804.4601,-266.7107"/>
</g>
<!-- Node76&#45;&gt;Node59 -->
<g id="edge31" class="edge">
<title>Node76&#45;&gt;Node59</title>
<path fill="none" stroke="#191970" d="M976.292,-273.2648C988.6288,-272.0503 1001.3776,-270.7953 1013.6918,-269.583"/>
<polygon fill="#191970" stroke="#191970" points="975.6535,-269.8107 966.0446,-274.2736 976.3394,-276.777 975.6535,-269.8107"/>
</g>
<!-- Node77&#45;&gt;Node57 -->
<g id="edge35" class="edge">
<title>Node77&#45;&gt;Node57</title>
<path fill="none" stroke="#191970" d="M347.0112,-277.382C281.3705,-273.8638 182.2628,-268.552 119.2352,-265.1739"/>
<polygon fill="#191970" stroke="#191970" points="347.0751,-280.8903 357.2481,-277.9306 347.4498,-273.9003 347.0751,-280.8903"/>
</g>
<!-- Node77&#45;&gt;Node59 -->
<g id="edge33" class="edge">
<title>Node77&#45;&gt;Node59</title>
<path fill="none" stroke="#191970" d="M480.8712,-291.0406C585.1429,-304.998 792.5143,-325.7595 966,-299.9723 1002.1212,-294.6032 1042.2491,-280.9576 1067.0572,-271.5693"/>
<polygon fill="#191970" stroke="#191970" points="481.1831,-287.5509 470.8026,-289.6709 480.2395,-294.487 481.1831,-287.5509"/>
</g>
<!-- Node77&#45;&gt;Node63 -->
<g id="edge36" class="edge">
<title>Node77&#45;&gt;Node63</title>
<path fill="none" stroke="#191970" d="M347.4071,-273.2753C316.4108,-267.1829 281.5622,-259.1033 259.3416,-252.5647"/>
<polygon fill="#191970" stroke="#191970" points="346.8337,-276.729 357.3146,-275.179 348.1547,-269.8548 346.8337,-276.729"/>
</g>
<!-- Node77&#45;&gt;Node64 -->
<g id="edge34" class="edge">
<title>Node77&#45;&gt;Node64</title>
<path fill="none" stroke="#191970" d="M443.3199,-266.9136C475.1295,-251.661 525.0469,-227.7259 552.5889,-214.5196"/>
<polygon fill="#191970" stroke="#191970" points="441.5779,-263.8673 434.0741,-271.3469 444.6044,-270.1792 441.5779,-263.8673"/>
</g>
<!-- Node77&#45;&gt;Node75 -->
<g id="edge37" class="edge">
<title>Node77&#45;&gt;Node75</title>
<path fill="none" stroke="#191970" d="M480.7516,-276.9903C536.7736,-273.6483 616.1712,-268.9119 670.7422,-265.6565"/>
<polygon fill="#191970" stroke="#191970" points="480.3482,-273.508 470.5744,-277.5974 480.7651,-280.4956 480.3482,-273.508"/>
</g>
</g>
</svg>
        <g id="navigator" transform="translate(0 0)" fill="#404254">
                <rect fill="#f2f5e9" fill-opacity="0.5" stroke="#606060" stroke-width=".5" x="0" y="0" width="60" height="60"/>
                <use id="zoomplus" xlink:href="#zoomPlus" x="17" y="9" onmousedown="handleZoom(evt,'in')"/>
                <use id="zoomminus" xlink:href="#zoomMin" x="42" y="9" onmousedown="handleZoom(evt,'out')"/>
                <use id="reset" xlink:href="#resetDef" x="30" y="36" onmousedown="handleReset()"/>
                <g id="arrowUp" xlink:href="#dirArrow" transform="translate(30 24)" onmousedown="handlePan(0,-1)">
                  <use xlink:href="#rim" fill="#404040">
                        <set attributeName="fill" to="#808080" begin="arrowUp.mouseover" end="arrowUp.mouseout"/>
                  </use>
                  <path fill="none" stroke="white" stroke-width="1.5" d="M0,-3.0v7 M-2.5,-0.5L0,-3.0L2.5,-0.5"/>
                </g>
                <g id="arrowRight" xlink:href="#dirArrow" transform="rotate(90) translate(36 -43)" onmousedown="handlePan(1,0)">
                  <use xlink:href="#rim" fill="#404040">
                        <set attributeName="fill" to="#808080" begin="arrowRight.mouseover" end="arrowRight.mouseout"/>
                  </use>
                  <path fill="none" stroke="white" stroke-width="1.5" d="M0,-3.0v7 M-2.5,-0.5L0,-3.0L2.5,-0.5"/>
                </g>
                <g id="arrowDown" xlink:href="#dirArrow" transform="rotate(180) translate(-30 -48)" onmousedown="handlePan(0,1)">
                  <use xlink:href="#rim" fill="#404040">
                        <set attributeName="fill" to="#808080" begin="arrowDown.mouseover" end="arrowDown.mouseout"/>
                  </use>
                  <path fill="none" stroke="white" stroke-width="1.5" d="M0,-3.0v7 M-2.5,-0.5L0,-3.0L2.5,-0.5"/>
                </g>
                <g id="arrowLeft" xlink:href="#dirArrow" transform="rotate(270) translate(-36 17)" onmousedown="handlePan(-1,0)">
                  <use xlink:href="#rim" fill="#404040">
                        <set attributeName="fill" to="#808080" begin="arrowLeft.mouseover" end="arrowLeft.mouseout"/>
                  </use>
                  <path fill="none" stroke="white" stroke-width="1.5" d="M0,-3.0v7 M-2.5,-0.5L0,-3.0L2.5,-0.5"/>
                </g>
        </g>
        <svg viewBox="0 0 15 15" width="100%" height="30px" preserveAspectRatio="xMaxYMin meet">
         <g id="arrow_out" transform="scale(0.3 0.3)">
          <a xlink:href="classMap_afb8cc864df90d273a5074872d635dc40_icgraph_org.svg" target="_base">
           <rect id="button" ry="5" rx="5" y="6" x="6" height="38" width="38"
                fill="#f2f5e9" fill-opacity="0.5" stroke="#606060" stroke-width="1.0"/>
           <path id="arrow"
             d="M 11.500037,31.436501 C 11.940474,20.09759 22.043105,11.32322 32.158766,21.979434 L 37.068811,17.246167 C 37.068811,17.246167 37.088388,32 37.088388,32 L 22.160133,31.978069 C 22.160133,31.978069 26.997745,27.140456 26.997745,27.140456 C 18.528582,18.264221 13.291696,25.230495 11.500037,31.436501 z"
             style="fill:#404040;"/>
          </a>
         </g>
        </svg>
</svg>
