<?xml version="1.0" encoding="UTF-8" standalone="no"?>
<!DOCTYPE svg PUBLIC "-//W3C//DTD SVG 1.1//EN"
 "http://www.w3.org/Graphics/SVG/1.1/DTD/svg11.dtd">
<!-- Generated by graphviz version 2.40.1 (20161225.0304)
 -->
<!-- Title: Text::Text Pages: 1 -->
<!--zoomable 167 -->
<svg id="main" version="1.1" xmlns="http://www.w3.org/2000/svg" xmlns:xlink="http://www.w3.org/1999/xlink" xml:space="preserve" onload="init(evt)">
<style type="text/css"><![CDATA[
.edge:hover path { stroke: red; }
.edge:hover polygon { stroke: red; fill: red; }
]]></style>
<script type="text/javascript"><![CDATA[
var edges = document.getElementsByTagName('g');
if (edges && edges.length) {
  for (var i=0;i<edges.length;i++) {
    if (edges[i].id.substr(0,4)=='edge') {
      edges[i].setAttribute('class','edge');
    }
  }
}
]]></script>
        <defs>
                <circle id="rim" cx="0" cy="0" r="7"/>
                <circle id="rim2" cx="0" cy="0" r="3.5"/>
                <g id="zoomPlus">
                        <use xlink:href="#rim" fill="#404040">
                                <set attributeName="fill" to="#808080" begin="zoomplus.mouseover" end="zoomplus.mouseout"/>
                        </use>
                        <path d="M-4,0h8M0,-4v8" fill="none" stroke="white" stroke-width="1.5" pointer-events="none"/>
                </g>
                <g id="zoomMin">
                        <use xlink:href="#rim" fill="#404040">
                                <set attributeName="fill" to="#808080" begin="zoomminus.mouseover" end="zoomminus.mouseout"/>
                        </use>
                        <path d="M-4,0h8" fill="none" stroke="white" stroke-width="1.5" pointer-events="none"/>
                </g>
                <g id="dirArrow">
                        <path fill="none" stroke="white" stroke-width="1.5" d="M0,-3.0v7 M-2.5,-0.5L0,-3.0L2.5,-0.5"/>
                </g>
               <g id="resetDef">
                       <use xlink:href="#rim2" fill="#404040">
                               <set attributeName="fill" to="#808080" begin="reset.mouseover" end="reset.mouseout"/>
                       </use>
               </g>
        </defs>

<script type="text/javascript">
var viewWidth = 698;
var viewHeight = 167;
var sectionId = 'dynsection-2';
</script>
<script xlink:href="svgpan.js"/>
<svg id="graph" class="graph">
<g id="viewport">
<title>Text::Text</title>
<!-- Node0 -->
<g id="node1" class="node">
<title>Node0</title>
<polygon fill="#bfbfbf" stroke="#000000" points="0,-82.5 0,-101.5 63,-101.5 63,-82.5 0,-82.5"/>
<text text-anchor="middle" x="31.5" y="-89.5" font-family="Helvetica,sans-Serif" font-size="10.00" fill="#000000">Text::Text</text>
</g>
<!-- Node1 -->
<g id="node2" class="node">
<title>Node1</title>
<g id="a_node2"><a xlink:href="classText.html#a342401fbc97a2b4c902c076e86ba43bd" target="_top" xlink:title="Destructor. ">
<polygon fill="none" stroke="#000000" points="113,-139.5 113,-158.5 184,-158.5 184,-139.5 113,-139.5"/>
<text text-anchor="middle" x="148.5" y="-146.5" font-family="Helvetica,sans-Serif" font-size="10.00" fill="#000000">Text::~Text</text>
</a>
</g>
</g>
<!-- Node0&#45;&gt;Node1 -->
<g id="edge1" class="edge">
<title>Node0&#45;&gt;Node1</title>
<path fill="none" stroke="#191970" d="M46.9772,-101.5723C60.4418,-109.6897 80.6242,-121.3576 99,-130 103.1415,-131.9478 107.5414,-133.8557 111.9431,-135.6657"/>
<polygon fill="#191970" stroke="#191970" points="110.8966,-139.0158 121.4826,-139.4492 113.4774,-132.5089 110.8966,-139.0158"/>
</g>
<!-- Node2 -->
<g id="node3" class="node">
<title>Node2</title>
<g id="a_node3"><a xlink:href="classText.html#a8f486a54a21fafc7a5dfb75975f1621f" target="_top" xlink:title="implements draw function. Renders the SDL_Texture generated from the TTF. ">
<polygon fill="none" stroke="#000000" points="115,-101.5 115,-120.5 182,-120.5 182,-101.5 115,-101.5"/>
<text text-anchor="middle" x="148.5" y="-108.5" font-family="Helvetica,sans-Serif" font-size="10.00" fill="#000000">Text::draw</text>
</a>
</g>
</g>
<!-- Node0&#45;&gt;Node2 -->
<g id="edge2" class="edge">
<title>Node0&#45;&gt;Node2</title>
<path fill="none" stroke="#191970" d="M63.1619,-97.1417C75.8892,-99.2085 90.7803,-101.6267 104.5285,-103.8593"/>
<polygon fill="#191970" stroke="#191970" points="104.3325,-107.3733 114.7642,-105.5215 105.4546,-100.4638 104.3325,-107.3733"/>
</g>
<!-- Node5 -->
<g id="node6" class="node">
<title>Node5</title>
<g id="a_node6"><a xlink:href="classText.html#a14b9f0937696af5fd95317eb8313bf92" target="_top" xlink:title="sets the text for this text widget. ">
<polygon fill="none" stroke="#000000" points="265.5,-44.5 265.5,-63.5 343.5,-63.5 343.5,-44.5 265.5,-44.5"/>
<text text-anchor="middle" x="304.5" y="-51.5" font-family="Helvetica,sans-Serif" font-size="10.00" fill="#000000">Text::setText</text>
</a>
</g>
</g>
<!-- Node0&#45;&gt;Node5 -->
<g id="edge5" class="edge">
<title>Node0&#45;&gt;Node5</title>
<path fill="none" stroke="#191970" d="M63.0833,-87.6038C110.2542,-81.0379 199.5185,-68.6128 255.2903,-60.8497"/>
<polygon fill="#191970" stroke="#191970" points="255.8747,-64.3022 265.2967,-59.4569 254.9096,-57.369 255.8747,-64.3022"/>
</g>
<!-- Node9 -->
<g id="node10" class="node">
<title>Node9</title>
<g id="a_node10"><a xlink:href="classText.html#a398a47abd355749d9e99bf74aa6a4a8d" target="_top" xlink:title="Sets the Font size of this element. ">
<polygon fill="none" stroke="#000000" points="99,-25.5 99,-44.5 198,-44.5 198,-25.5 99,-25.5"/>
<text text-anchor="middle" x="148.5" y="-32.5" font-family="Helvetica,sans-Serif" font-size="10.00" fill="#000000">Text::setFontSize</text>
</a>
</g>
</g>
<!-- Node0&#45;&gt;Node9 -->
<g id="edge10" class="edge">
<title>Node0&#45;&gt;Node9</title>
<path fill="none" stroke="#191970" d="M50.987,-82.4522C64.465,-75.8536 82.8152,-66.8798 99,-59 105.5771,-55.7978 112.6496,-52.3634 119.3323,-49.1223"/>
<polygon fill="#191970" stroke="#191970" points="121.2693,-52.073 128.7413,-44.5617 118.2161,-45.774 121.2693,-52.073"/>
</g>
<!-- Node3 -->
<g id="node4" class="node">
<title>Node3</title>
<g id="a_node4"><a xlink:href="classUIElement.html#abba9217ad94f67e16654cf236577b6c2" target="_top" xlink:title="Check the UI Elements visibility. Check if the UI Element is visibile. ">
<polygon fill="none" stroke="#000000" points="247,-129.5 247,-148.5 362,-148.5 362,-129.5 247,-129.5"/>
<text text-anchor="middle" x="304.5" y="-136.5" font-family="Helvetica,sans-Serif" font-size="10.00" fill="#000000">UIElement::isVisible</text>
</a>
</g>
</g>
<!-- Node2&#45;&gt;Node3 -->
<g id="edge3" class="edge">
<title>Node2&#45;&gt;Node3</title>
<path fill="none" stroke="#191970" d="M182.3497,-117.0756C199.5981,-120.1714 221.1412,-124.0382 241.3124,-127.6586"/>
<polygon fill="#191970" stroke="#191970" points="240.9302,-131.1459 251.3913,-129.4677 242.1669,-124.256 240.9302,-131.1459"/>
</g>
<!-- Node4 -->
<g id="node5" class="node">
<title>Node4</title>
<g id="a_node5"><a xlink:href="classUIElement.html#a0a6d27dea5d855c208e9bd9043b7ea62" target="_top" xlink:title="UIElement::renderTexture">
<polygon fill="none" stroke="#000000" points="234,-91.5 234,-110.5 375,-110.5 375,-91.5 234,-91.5"/>
<text text-anchor="middle" x="304.5" y="-98.5" font-family="Helvetica,sans-Serif" font-size="10.00" fill="#000000">UIElement::renderTexture</text>
</a>
</g>
</g>
<!-- Node2&#45;&gt;Node4 -->
<g id="edge4" class="edge">
<title>Node2&#45;&gt;Node4</title>
<path fill="none" stroke="#191970" d="M182.3497,-108.8301C194.6544,-108.0414 209.1448,-107.1125 223.7636,-106.1754"/>
<polygon fill="#191970" stroke="#191970" points="224.1239,-109.6596 233.8794,-105.527 223.676,-102.6739 224.1239,-109.6596"/>
</g>
<!-- Node6 -->
<g id="node7" class="node">
<title>Node6</title>
<g id="a_node7"><a xlink:href="classText.html#a3bf5a064fd37d06b8d3dc5a700556897" target="_top" xlink:title="Draws a text string to the screen Draws a text string to the screen. This could either be a standalon...">
<polygon fill="none" stroke="#000000" points="411,-44.5 411,-63.5 541,-63.5 541,-44.5 411,-44.5"/>
<text text-anchor="middle" x="476" y="-51.5" font-family="Helvetica,sans-Serif" font-size="10.00" fill="#000000">Text::createTextTexture</text>
</a>
</g>
</g>
<!-- Node5&#45;&gt;Node6 -->
<g id="edge6" class="edge">
<title>Node5&#45;&gt;Node6</title>
<path fill="none" stroke="#191970" d="M343.8456,-54C360.7723,-54 381.1512,-54 400.7824,-54"/>
<polygon fill="#191970" stroke="#191970" points="400.9579,-57.5001 410.9578,-54 400.9578,-50.5001 400.9579,-57.5001"/>
</g>
<!-- Node7 -->
<g id="node8" class="node">
<title>Node7</title>
<g id="a_node8"><a xlink:href="classSingleton.html#af5cb1e5749949e2b68416cfb8d378044" target="_top" xlink:title="Get an instance of the singleton. ">
<polygon fill="none" stroke="#000000" points="577,-39 577,-69 690,-69 690,-39 577,-39"/>
<text text-anchor="start" x="585" y="-57" font-family="Helvetica,sans-Serif" font-size="10.00" fill="#000000">Singleton&lt; Settings</text>
<text text-anchor="middle" x="633.5" y="-46" font-family="Helvetica,sans-Serif" font-size="10.00" fill="#000000"> &gt;::instance</text>
</a>
</g>
</g>
<!-- Node6&#45;&gt;Node7 -->
<g id="edge7" class="edge">
<title>Node6&#45;&gt;Node7</title>
<path fill="none" stroke="#191970" d="M541.4259,-47.3366C549.7178,-47.2279 558.2128,-47.2215 566.5285,-47.3176"/>
<polygon fill="#191970" stroke="#191970" points="566.4999,-50.8175 576.5571,-47.4855 566.6172,-43.8185 566.4999,-50.8175"/>
</g>
<!-- Node6&#45;&gt;Node7 -->
<g id="edge9" class="edge">
<title>Node6&#45;&gt;Node7</title>
<path fill="none" stroke="#191970" d="M541.4259,-60.6634C549.7178,-60.7721 558.2128,-60.7785 566.5285,-60.6824"/>
<polygon fill="#191970" stroke="#191970" points="566.6172,-64.1815 576.5571,-60.5145 566.4999,-57.1825 566.6172,-64.1815"/>
</g>
<!-- Node8 -->
<g id="node9" class="node">
<title>Node8</title>
<g id="a_node9"><a xlink:href="structStrongType.html#acc66e6d6b9c95193a97a839560499933" target="_top" xlink:title="StrongType::get">
<polygon fill="none" stroke="#000000" points="587.5,-.5 587.5,-19.5 679.5,-19.5 679.5,-.5 587.5,-.5"/>
<text text-anchor="middle" x="633.5" y="-7.5" font-family="Helvetica,sans-Serif" font-size="10.00" fill="#000000">StrongType::get</text>
</a>
</g>
</g>
<!-- Node6&#45;&gt;Node8 -->
<g id="edge8" class="edge">
<title>Node6&#45;&gt;Node8</title>
<path fill="none" stroke="#191970" d="M510.1752,-44.4527C533.4973,-37.9373 564.5968,-29.2492 589.7302,-22.2278"/>
<polygon fill="#191970" stroke="#191970" points="590.7021,-25.5903 599.3915,-19.5287 588.8186,-18.8485 590.7021,-25.5903"/>
</g>
<!-- Node9&#45;&gt;Node5 -->
<g id="edge11" class="edge">
<title>Node9&#45;&gt;Node5</title>
<path fill="none" stroke="#191970" d="M198.2883,-41.064C216.4861,-43.2804 237.0516,-45.7851 255.206,-47.9962"/>
<polygon fill="#191970" stroke="#191970" points="254.9461,-51.4904 265.2959,-49.2251 255.7924,-44.5417 254.9461,-51.4904"/>
</g>
</g>
</svg>
        <g id="navigator" transform="translate(0 0)" fill="#404254">
                <rect fill="#f2f5e9" fill-opacity="0.5" stroke="#606060" stroke-width=".5" x="0" y="0" width="60" height="60"/>
                <use id="zoomplus" xlink:href="#zoomPlus" x="17" y="9" onmousedown="handleZoom(evt,'in')"/>
                <use id="zoomminus" xlink:href="#zoomMin" x="42" y="9" onmousedown="handleZoom(evt,'out')"/>
                <use id="reset" xlink:href="#resetDef" x="30" y="36" onmousedown="handleReset()"/>
                <g id="arrowUp" xlink:href="#dirArrow" transform="translate(30 24)" onmousedown="handlePan(0,-1)">
                  <use xlink:href="#rim" fill="#404040">
                        <set attributeName="fill" to="#808080" begin="arrowUp.mouseover" end="arrowUp.mouseout"/>
                  </use>
                  <path fill="none" stroke="white" stroke-width="1.5" d="M0,-3.0v7 M-2.5,-0.5L0,-3.0L2.5,-0.5"/>
                </g>
                <g id="arrowRight" xlink:href="#dirArrow" transform="rotate(90) translate(36 -43)" onmousedown="handlePan(1,0)">
                  <use xlink:href="#rim" fill="#404040">
                        <set attributeName="fill" to="#808080" begin="arrowRight.mouseover" end="arrowRight.mouseout"/>
                  </use>
                  <path fill="none" stroke="white" stroke-width="1.5" d="M0,-3.0v7 M-2.5,-0.5L0,-3.0L2.5,-0.5"/>
                </g>
                <g id="arrowDown" xlink:href="#dirArrow" transform="rotate(180) translate(-30 -48)" onmousedown="handlePan(0,1)">
                  <use xlink:href="#rim" fill="#404040">
                        <set attributeName="fill" to="#808080" begin="arrowDown.mouseover" end="arrowDown.mouseout"/>
                  </use>
                  <path fill="none" stroke="white" stroke-width="1.5" d="M0,-3.0v7 M-2.5,-0.5L0,-3.0L2.5,-0.5"/>
                </g>
                <g id="arrowLeft" xlink:href="#dirArrow" transform="rotate(270) translate(-36 17)" onmousedown="handlePan(-1,0)">
                  <use xlink:href="#rim" fill="#404040">
                        <set attributeName="fill" to="#808080" begin="arrowLeft.mouseover" end="arrowLeft.mouseout"/>
                  </use>
                  <path fill="none" stroke="white" stroke-width="1.5" d="M0,-3.0v7 M-2.5,-0.5L0,-3.0L2.5,-0.5"/>
                </g>
        </g>
        <svg viewBox="0 0 15 15" width="100%" height="30px" preserveAspectRatio="xMaxYMin meet">
         <g id="arrow_out" transform="scale(0.3 0.3)">
          <a xlink:href="classText_ab3e26143fccc52699bcc5149cae852bc_cgraph_org.svg" target="_base">
           <rect id="button" ry="5" rx="5" y="6" x="6" height="38" width="38"
                fill="#f2f5e9" fill-opacity="0.5" stroke="#606060" stroke-width="1.0"/>
           <path id="arrow"
             d="M 11.500037,31.436501 C 11.940474,20.09759 22.043105,11.32322 32.158766,21.979434 L 37.068811,17.246167 C 37.068811,17.246167 37.088388,32 37.088388,32 L 22.160133,31.978069 C 22.160133,31.978069 26.997745,27.140456 26.997745,27.140456 C 18.528582,18.264221 13.291696,25.230495 11.500037,31.436501 z"
             style="fill:#404040;"/>
          </a>
         </g>
        </svg>
</svg>
