<?xml version="1.0" encoding="UTF-8" standalone="no"?>
<!DOCTYPE svg PUBLIC "-//W3C//DTD SVG 1.1//EN"
 "http://www.w3.org/Graphics/SVG/1.1/DTD/svg11.dtd">
<!-- Generated by graphviz version 2.40.1 (20161225.0304)
 -->
<!-- Title: Layout::arrangeChildElements Pages: 1 -->
<svg width="783pt" height="145pt"
 viewBox="0.00 0.00 783.00 145.00" xmlns="http://www.w3.org/2000/svg" xmlns:xlink="http://www.w3.org/1999/xlink">
<g id="graph0" class="graph" transform="scale(1 1) rotate(0) translate(4 141)">
<title>Layout::arrangeChildElements</title>
<!-- Node12 -->
<g id="node1" class="node">
<title>Node12</title>
<polygon fill="#bfbfbf" stroke="#000000" points="0,-60.5 0,-79.5 164,-79.5 164,-60.5 0,-60.5"/>
<text text-anchor="middle" x="82" y="-67.5" font-family="Helvetica,sans-Serif" font-size="10.00" fill="#000000">Layout::arrangeChildElements</text>
</g>
<!-- Node13 -->
<g id="node2" class="node">
<title>Node13</title>
<g id="a_node2"><a xlink:href="classLayout.html#afa734c5af10f59f3dadb066054fe81ab" target="_top" xlink:title="Arrange the layout elements. ">
<polygon fill="none" stroke="#000000" points="200,-60.5 200,-79.5 339,-79.5 339,-60.5 200,-60.5"/>
<text text-anchor="middle" x="269.5" y="-67.5" font-family="Helvetica,sans-Serif" font-size="10.00" fill="#000000">Layout::arrangeElements</text>
</a>
</g>
</g>
<!-- Node12&#45;&gt;Node13 -->
<g id="edge1" class="edge">
<title>Node12&#45;&gt;Node13</title>
<path fill="none" stroke="#191970" d="M174.3281,-70C182.9426,-70 191.5731,-70 199.9286,-70"/>
<polygon fill="#191970" stroke="#191970" points="174.2403,-66.5001 164.2402,-70 174.2402,-73.5001 174.2403,-66.5001"/>
</g>
<!-- Node14 -->
<g id="node3" class="node">
<title>Node14</title>
<g id="a_node3"><a xlink:href="UIManager_8cxx.html#a93ebc51d97942bf4e32123b5c61c4141" target="_top" xlink:title="BETTER_ENUM">
<polygon fill="none" stroke="#000000" points="423.5,-117.5 423.5,-136.5 512.5,-136.5 512.5,-117.5 423.5,-117.5"/>
<text text-anchor="middle" x="468" y="-124.5" font-family="Helvetica,sans-Serif" font-size="10.00" fill="#000000">BETTER_ENUM</text>
</a>
</g>
</g>
<!-- Node13&#45;&gt;Node14 -->
<g id="edge2" class="edge">
<title>Node13&#45;&gt;Node14</title>
<path fill="none" stroke="#191970" d="M302.6055,-83.3152C323.1955,-91.2471 350.3551,-101.083 375,-108 390.5489,-112.3641 407.822,-116.1712 423.2204,-119.2084"/>
<polygon fill="#191970" stroke="#191970" points="303.6536,-79.9673 293.0653,-79.5955 301.1107,-86.4891 303.6536,-79.9673"/>
</g>
<!-- Node15 -->
<g id="node4" class="node">
<title>Node15</title>
<g id="a_node4"><a xlink:href="classUIManager.html#a3ccb2fc669262f18ebdcdf3d5c43a3e8" target="_top" xlink:title="CallbackFunction that sets the Build Menu Position Used as callback function for the ComboBox that ho...">
<polygon fill="none" stroke="#000000" points="378,-79.5 378,-98.5 558,-98.5 558,-79.5 378,-79.5"/>
<text text-anchor="middle" x="468" y="-86.5" font-family="Helvetica,sans-Serif" font-size="10.00" fill="#000000">UIManager::setBuildMenuPosition</text>
</a>
</g>
</g>
<!-- Node13&#45;&gt;Node15 -->
<g id="edge3" class="edge">
<title>Node13&#45;&gt;Node15</title>
<path fill="none" stroke="#191970" d="M349.3037,-77.6386C358.7142,-78.5394 368.3674,-79.4634 377.9068,-80.3765"/>
<polygon fill="#191970" stroke="#191970" points="349.4926,-74.1408 339.2046,-76.672 348.8255,-81.109 349.4926,-74.1408"/>
</g>
<!-- Node17 -->
<g id="node6" class="node">
<title>Node17</title>
<g id="a_node6"><a xlink:href="classUIManager.html#ac927e1cd3dea979202ea9dbf1195b583" target="_top" xlink:title="UIManager::changeResolution">
<polygon fill="none" stroke="#000000" points="387.5,-3.5 387.5,-22.5 548.5,-22.5 548.5,-3.5 387.5,-3.5"/>
<text text-anchor="middle" x="468" y="-10.5" font-family="Helvetica,sans-Serif" font-size="10.00" fill="#000000">UIManager::changeResolution</text>
</a>
</g>
</g>
<!-- Node13&#45;&gt;Node17 -->
<g id="edge5" class="edge">
<title>Node13&#45;&gt;Node17</title>
<path fill="none" stroke="#191970" d="M302.6055,-56.6848C323.1955,-48.7529 350.3551,-38.917 375,-32 387.693,-28.4375 401.5349,-25.2461 414.5681,-22.5418"/>
<polygon fill="#191970" stroke="#191970" points="301.1107,-53.5109 293.0653,-60.4045 303.6536,-60.0327 301.1107,-53.5109"/>
</g>
<!-- Node19 -->
<g id="node8" class="node">
<title>Node19</title>
<g id="a_node8"><a xlink:href="classUIManager.html#af2ffb4ee45e57152164643ef6cddda37" target="_top" xlink:title="UIManager::changeFullScreenMode">
<polygon fill="none" stroke="#000000" points="375,-41.5 375,-60.5 561,-60.5 561,-41.5 375,-41.5"/>
<text text-anchor="middle" x="468" y="-48.5" font-family="Helvetica,sans-Serif" font-size="10.00" fill="#000000">UIManager::changeFullScreenMode</text>
</a>
</g>
</g>
<!-- Node13&#45;&gt;Node19 -->
<g id="edge8" class="edge">
<title>Node13&#45;&gt;Node19</title>
<path fill="none" stroke="#191970" d="M349.3118,-62.3606C357.69,-61.5586 366.2605,-60.7383 374.7717,-59.9236"/>
<polygon fill="#191970" stroke="#191970" points="348.8255,-58.891 339.2046,-63.328 349.4926,-65.8592 348.8255,-58.891"/>
</g>
<!-- Node16 -->
<g id="node5" class="node">
<title>Node16</title>
<g id="a_node5"><a xlink:href="classUIManager.html#a5c4cb8e02504ffa0d3faf45181feab9d" target="_top" xlink:title="Fill UI Widgets whose ID start with a $ with data Used for filling widgets with data, like BuildMenu Position combobox, Screen Resolution ComboBox and so on. ">
<polygon fill="none" stroke="#000000" points="613,-39 613,-69 759,-69 759,-39 613,-39"/>
<text text-anchor="start" x="621" y="-57" font-family="Helvetica,sans-Serif" font-size="10.00" fill="#000000">UIManager::initializeDollar</text>
<text text-anchor="middle" x="686" y="-46" font-family="Helvetica,sans-Serif" font-size="10.00" fill="#000000">Variables</text>
</a>
</g>
</g>
<!-- Node15&#45;&gt;Node16 -->
<g id="edge4" class="edge">
<title>Node15&#45;&gt;Node16</title>
<path fill="none" stroke="#191970" d="M537.378,-77.8613C561.3995,-74.0047 588.3928,-69.6709 612.7179,-65.7655"/>
<polygon fill="#191970" stroke="#191970" points="536.6002,-74.4413 527.2815,-79.4823 537.7099,-81.3528 536.6002,-74.4413"/>
</g>
<!-- Node17&#45;&gt;Node16 -->
<g id="edge7" class="edge">
<title>Node17&#45;&gt;Node16</title>
<path fill="none" stroke="#191970" d="M528.7056,-24.4171C554.8423,-29.3327 585.6226,-35.1217 612.9923,-40.2692"/>
<polygon fill="#191970" stroke="#191970" points="529.0362,-20.918 518.5615,-22.5093 527.7423,-27.7974 529.0362,-20.918"/>
</g>
<!-- Node18 -->
<g id="node7" class="node">
<title>Node18</title>
<g id="a_node7"><a xlink:href="classUIManager.html#aa78e356fc3b356d790c848319d1c387e" target="_top" xlink:title="UIManager::setCallbackFunctions">
<polygon fill="none" stroke="#000000" points="597,-.5 597,-19.5 775,-19.5 775,-.5 597,-.5"/>
<text text-anchor="middle" x="686" y="-7.5" font-family="Helvetica,sans-Serif" font-size="10.00" fill="#000000">UIManager::setCallbackFunctions</text>
</a>
</g>
</g>
<!-- Node17&#45;&gt;Node18 -->
<g id="edge6" class="edge">
<title>Node17&#45;&gt;Node18</title>
<path fill="none" stroke="#191970" d="M558.6341,-11.7527C571.309,-11.5783 584.3251,-11.3992 596.9699,-11.2252"/>
<polygon fill="#191970" stroke="#191970" points="558.5066,-8.2541 548.5558,-11.8914 558.603,-15.2534 558.5066,-8.2541"/>
</g>
<!-- Node19&#45;&gt;Node16 -->
<g id="edge9" class="edge">
<title>Node19&#45;&gt;Node16</title>
<path fill="none" stroke="#191970" d="M571.3047,-52.4216C585.3906,-52.6155 599.6036,-52.8111 612.9995,-52.9954"/>
<polygon fill="#191970" stroke="#191970" points="571.1312,-48.919 561.084,-52.281 571.0348,-55.9183 571.1312,-48.919"/>
</g>
</g>
</svg>
