<?xml version="1.0" encoding="UTF-8" standalone="no"?>
<!DOCTYPE svg PUBLIC "-//W3C//DTD SVG 1.1//EN"
 "http://www.w3.org/Graphics/SVG/1.1/DTD/svg11.dtd">
<!-- Generated by graphviz version 2.40.1 (20161225.0304)
 -->
<!-- Title: ResourcesManager::createTextureFromSurface Pages: 1 -->
<svg width="1072pt" height="102pt"
 viewBox="0.00 0.00 1072.00 101.50" xmlns="http://www.w3.org/2000/svg" xmlns:xlink="http://www.w3.org/1999/xlink">
<g id="graph0" class="graph" transform="scale(1 1) rotate(0) translate(4 97.5)">
<title>ResourcesManager::createTextureFromSurface</title>
<!-- Node23 -->
<g id="node1" class="node">
<title>Node23</title>
<polygon fill="#bfbfbf" stroke="#000000" points="0,-24.5 0,-54.5 145,-54.5 145,-24.5 0,-24.5"/>
<text text-anchor="start" x="8" y="-42.5" font-family="Helvetica,sans-Serif" font-size="10.00" fill="#000000">ResourcesManager::create</text>
<text text-anchor="middle" x="72.5" y="-31.5" font-family="Helvetica,sans-Serif" font-size="10.00" fill="#000000">TextureFromSurface</text>
</g>
<!-- Node24 -->
<g id="node2" class="node">
<title>Node24</title>
<g id="a_node2"><a xlink:href="classResourcesManager.html#ab376a89547592db4cca25309eac2931c" target="_top" xlink:title="ResourcesManager::loadTexture">
<polygon fill="none" stroke="#000000" points="186.5,-52 186.5,-71 357.5,-71 357.5,-52 186.5,-52"/>
<text text-anchor="middle" x="272" y="-59" font-family="Helvetica,sans-Serif" font-size="10.00" fill="#000000">ResourcesManager::loadTexture</text>
</a>
</g>
</g>
<!-- Node23&#45;&gt;Node24 -->
<g id="edge1" class="edge">
<title>Node23&#45;&gt;Node24</title>
<path fill="none" stroke="#191970" d="M155.2308,-48.6232C165.4721,-49.7526 175.9599,-50.9091 186.2453,-52.0433"/>
<polygon fill="#191970" stroke="#191970" points="155.4118,-45.122 145.0884,-47.5047 154.6445,-52.0798 155.4118,-45.122"/>
</g>
<!-- Node29 -->
<g id="node7" class="node">
<title>Node29</title>
<g id="a_node7"><a xlink:href="classResourcesManager.html#ac221a499e20ca7aedd00028842c7a101" target="_top" xlink:title="ResourcesManager::loadUITexture">
<polygon fill="none" stroke="#000000" points="181,-11 181,-30 363,-30 363,-11 181,-11"/>
<text text-anchor="middle" x="272" y="-18" font-family="Helvetica,sans-Serif" font-size="10.00" fill="#000000">ResourcesManager::loadUITexture</text>
</a>
</g>
</g>
<!-- Node23&#45;&gt;Node29 -->
<g id="edge7" class="edge">
<title>Node23&#45;&gt;Node29</title>
<path fill="none" stroke="#191970" d="M155.2522,-31.6188C163.6659,-30.8175 172.2459,-30.0004 180.7431,-29.1911"/>
<polygon fill="#191970" stroke="#191970" points="154.7115,-28.1544 145.0884,-32.5868 155.3752,-35.1229 154.7115,-28.1544"/>
</g>
<!-- Node25 -->
<g id="node3" class="node">
<title>Node25</title>
<g id="a_node3"><a xlink:href="classTileManager.html#a9e03faf9425ee26a2f5fb1fa4c94d173" target="_top" xlink:title="TileManager::addJSONObject\lToTileData">
<polygon fill="none" stroke="#000000" points="403,-49.5 403,-79.5 559,-79.5 559,-49.5 403,-49.5"/>
<text text-anchor="start" x="411" y="-67.5" font-family="Helvetica,sans-Serif" font-size="10.00" fill="#000000">TileManager::addJSONObject</text>
<text text-anchor="middle" x="481" y="-56.5" font-family="Helvetica,sans-Serif" font-size="10.00" fill="#000000">ToTileData</text>
</a>
</g>
</g>
<!-- Node24&#45;&gt;Node25 -->
<g id="edge2" class="edge">
<title>Node24&#45;&gt;Node25</title>
<path fill="none" stroke="#191970" d="M367.8697,-62.8761C379.6028,-63.0445 391.482,-63.2151 402.9103,-63.3791"/>
<polygon fill="#191970" stroke="#191970" points="367.6606,-59.3729 357.6113,-62.7289 367.56,-66.3721 367.6606,-59.3729"/>
</g>
<!-- Node26 -->
<g id="node4" class="node">
<title>Node26</title>
<g id="a_node4"><a xlink:href="classTileManager.html#a1575d9a9530e13fe0286b8fece9e47ea" target="_top" xlink:title="TileManager::init">
<polygon fill="none" stroke="#000000" points="599,-55 599,-74 697,-74 697,-55 599,-55"/>
<text text-anchor="middle" x="648" y="-62" font-family="Helvetica,sans-Serif" font-size="10.00" fill="#000000">TileManager::init</text>
</a>
</g>
</g>
<!-- Node25&#45;&gt;Node26 -->
<g id="edge3" class="edge">
<title>Node25&#45;&gt;Node26</title>
<path fill="none" stroke="#191970" d="M569.3214,-64.5C579.5119,-64.5 589.6063,-64.5 598.9948,-64.5"/>
<polygon fill="#191970" stroke="#191970" points="569.1215,-61.0001 559.1215,-64.5 569.1214,-68.0001 569.1215,-61.0001"/>
</g>
<!-- Node27 -->
<g id="node5" class="node">
<title>Node27</title>
<g id="a_node5"><a xlink:href="classTileManager.html#ac6f5d9eb4db57f9ad597223658574394" target="_top" xlink:title="TileManager::TileManager">
<polygon fill="none" stroke="#000000" points="733,-74 733,-93 876,-93 876,-74 733,-74"/>
<text text-anchor="middle" x="804.5" y="-81" font-family="Helvetica,sans-Serif" font-size="10.00" fill="#000000">TileManager::TileManager</text>
</a>
</g>
</g>
<!-- Node26&#45;&gt;Node27 -->
<g id="edge4" class="edge">
<title>Node26&#45;&gt;Node27</title>
<path fill="none" stroke="#191970" d="M707.1731,-71.684C715.5918,-72.706 724.3242,-73.7662 732.9473,-74.8131"/>
<polygon fill="#191970" stroke="#191970" points="707.4371,-68.1904 697.0882,-70.4596 706.5934,-75.1394 707.4371,-68.1904"/>
</g>
<!-- Node28 -->
<g id="node6" class="node">
<title>Node28</title>
<g id="a_node6"><a xlink:href="classTileManager.html#af094937b10637c493557e22b42cf25ed" target="_top" xlink:title="TileManager::getAllTileData">
<polygon fill="none" stroke="#000000" points="912,-55 912,-74 1064,-74 1064,-55 912,-55"/>
<text text-anchor="middle" x="988" y="-62" font-family="Helvetica,sans-Serif" font-size="10.00" fill="#000000">TileManager::getAllTileData</text>
</a>
</g>
</g>
<!-- Node26&#45;&gt;Node28 -->
<g id="edge6" class="edge">
<title>Node26&#45;&gt;Node28</title>
<path fill="none" stroke="#191970" d="M707.3322,-64.5C764.1451,-64.5 850.1219,-64.5 911.9405,-64.5"/>
<polygon fill="#191970" stroke="#191970" points="707.0758,-61.0001 697.0758,-64.5 707.0758,-68.0001 707.0758,-61.0001"/>
</g>
<!-- Node27&#45;&gt;Node28 -->
<g id="edge5" class="edge">
<title>Node27&#45;&gt;Node28</title>
<path fill="none" stroke="#191970" d="M886.4402,-75.0157C894.8686,-74.143 903.4087,-73.2588 911.7716,-72.3929"/>
<polygon fill="#191970" stroke="#191970" points="885.8206,-71.5611 876.2343,-76.0725 886.5416,-78.5239 885.8206,-71.5611"/>
</g>
<!-- Node30 -->
<g id="node8" class="node">
<title>Node30</title>
<g id="a_node8"><a xlink:href="classResourcesManager.html#a7fe5ff24c1df6a60214bea3ca474d155" target="_top" xlink:title="ResourcesManager::Resources\lManager">
<polygon fill="none" stroke="#000000" points="399,-.5 399,-30.5 563,-30.5 563,-.5 399,-.5"/>
<text text-anchor="start" x="407" y="-18.5" font-family="Helvetica,sans-Serif" font-size="10.00" fill="#000000">ResourcesManager::Resources</text>
<text text-anchor="middle" x="481" y="-7.5" font-family="Helvetica,sans-Serif" font-size="10.00" fill="#000000">Manager</text>
</a>
</g>
</g>
<!-- Node29&#45;&gt;Node30 -->
<g id="edge8" class="edge">
<title>Node29&#45;&gt;Node30</title>
<path fill="none" stroke="#191970" d="M373.1284,-18.0807C381.7268,-17.875 390.3558,-17.6685 398.782,-17.4669"/>
<polygon fill="#191970" stroke="#191970" points="372.9759,-14.5832 363.0625,-18.3215 373.1433,-21.5812 372.9759,-14.5832"/>
</g>
</g>
</svg>
