<?xml version="1.0" encoding="UTF-8" standalone="no"?>
<!DOCTYPE svg PUBLIC "-//W3C//DTD SVG 1.1//EN"
 "http://www.w3.org/Graphics/SVG/1.1/DTD/svg11.dtd">
<!-- Generated by graphviz version 2.40.1 (20161225.0304)
 -->
<!-- Title: ResourcesManager::getUITexture Pages: 1 -->
<svg width="813pt" height="116pt"
 viewBox="0.00 0.00 813.00 116.00" xmlns="http://www.w3.org/2000/svg" xmlns:xlink="http://www.w3.org/1999/xlink">
<g id="graph0" class="graph" transform="scale(1 1) rotate(0) translate(4 112)">
<title>ResourcesManager::getUITexture</title>
<!-- Node40 -->
<g id="node1" class="node">
<title>Node40</title>
<polygon fill="#bfbfbf" stroke="#000000" points="0,-44.5 0,-63.5 176,-63.5 176,-44.5 0,-44.5"/>
<text text-anchor="middle" x="88" y="-51.5" font-family="Helvetica,sans-Serif" font-size="10.00" fill="#000000">ResourcesManager::getUITexture</text>
</g>
<!-- Node41 -->
<g id="node2" class="node">
<title>Node41</title>
<g id="a_node2"><a xlink:href="classUIElement.html#a452ffed1ff191ababc8c15d4c455f6c2" target="_top" xlink:title="Set the uiElements sprite ID Set the sprite ID this ui element. The texture will be retrieved from th...">
<polygon fill="none" stroke="#000000" points="212,-44.5 212,-63.5 347,-63.5 347,-44.5 212,-44.5"/>
<text text-anchor="middle" x="279.5" y="-51.5" font-family="Helvetica,sans-Serif" font-size="10.00" fill="#000000">UIElement::setTextureID</text>
</a>
</g>
</g>
<!-- Node40&#45;&gt;Node41 -->
<g id="edge1" class="edge">
<title>Node40&#45;&gt;Node41</title>
<path fill="none" stroke="#191970" d="M186.3086,-54C194.9375,-54 203.5387,-54 211.8316,-54"/>
<polygon fill="#191970" stroke="#191970" points="186.1831,-50.5001 176.183,-54 186.183,-57.5001 186.1831,-50.5001"/>
</g>
<!-- Node42 -->
<g id="node3" class="node">
<title>Node42</title>
<g id="a_node3"><a xlink:href="classUIElement.html#a9c4439b91bcb765d0616616fbfe2a44a" target="_top" xlink:title="Get the uiElements tooltip text Get the tooltip text for this ui element. Tooltip is shown when hover...">
<polygon fill="none" stroke="#000000" points="384,-88.5 384,-107.5 534,-107.5 534,-88.5 384,-88.5"/>
<text text-anchor="middle" x="459" y="-95.5" font-family="Helvetica,sans-Serif" font-size="10.00" fill="#000000">UIElement::setUIElementID</text>
</a>
</g>
</g>
<!-- Node41&#45;&gt;Node42 -->
<g id="edge2" class="edge">
<title>Node41&#45;&gt;Node42</title>
<path fill="none" stroke="#191970" d="M328.3281,-65.969C357.1802,-73.0414 393.2116,-81.8736 420.1272,-88.4713"/>
<polygon fill="#191970" stroke="#191970" points="328.9946,-62.5288 318.4488,-63.5473 327.328,-69.3276 328.9946,-62.5288"/>
</g>
<!-- Node44 -->
<g id="node5" class="node">
<title>Node44</title>
<g id="a_node5"><a xlink:href="classUIManager.html#a007e9b56a4835b98db2b203df96ea79d" target="_top" xlink:title="Draws the tile (defined by the string, tiledata pair) onto the button. ">
<polygon fill="none" stroke="#000000" points="383,-39 383,-69 535,-69 535,-39 383,-39"/>
<text text-anchor="start" x="391" y="-57" font-family="Helvetica,sans-Serif" font-size="10.00" fill="#000000">UIManager::setupButtonTile</text>
<text text-anchor="middle" x="459" y="-46" font-family="Helvetica,sans-Serif" font-size="10.00" fill="#000000">Image</text>
</a>
</g>
</g>
<!-- Node41&#45;&gt;Node44 -->
<g id="edge4" class="edge">
<title>Node41&#45;&gt;Node44</title>
<path fill="none" stroke="#191970" d="M357.3008,-54C365.7342,-54 374.3109,-54 382.7259,-54"/>
<polygon fill="#191970" stroke="#191970" points="357.1055,-50.5001 347.1055,-54 357.1054,-57.5001 357.1055,-50.5001"/>
</g>
<!-- Node45 -->
<g id="node6" class="node">
<title>Node45</title>
<g id="a_node6"><a xlink:href="classGame.html#a5ed7fc5be77080f7f6dd5363f7f007a1" target="_top" xlink:title="initializes and displays the main menu initializes and displays the main menu ">
<polygon fill="none" stroke="#000000" points="407.5,-.5 407.5,-19.5 510.5,-19.5 510.5,-.5 407.5,-.5"/>
<text text-anchor="middle" x="459" y="-7.5" font-family="Helvetica,sans-Serif" font-size="10.00" fill="#000000">Game::mainMenu</text>
</a>
</g>
</g>
<!-- Node41&#45;&gt;Node45 -->
<g id="edge6" class="edge">
<title>Node41&#45;&gt;Node45</title>
<path fill="none" stroke="#191970" d="M328.3281,-42.031C357.1802,-34.9586 393.2116,-26.1264 420.1272,-19.5287"/>
<polygon fill="#191970" stroke="#191970" points="327.328,-38.6724 318.4488,-44.4527 328.9946,-45.4712 327.328,-38.6724"/>
</g>
<!-- Node43 -->
<g id="node4" class="node">
<title>Node43</title>
<g id="a_node4"><a xlink:href="classUIManager.html#aae7a89e9d50bb6192e4140e07bd5f94b" target="_top" xlink:title="UIManager::createBuildMenu">
<polygon fill="none" stroke="#000000" points="571,-66.5 571,-85.5 728,-85.5 728,-66.5 571,-66.5"/>
<text text-anchor="middle" x="649.5" y="-73.5" font-family="Helvetica,sans-Serif" font-size="10.00" fill="#000000">UIManager::createBuildMenu</text>
</a>
</g>
</g>
<!-- Node42&#45;&gt;Node43 -->
<g id="edge3" class="edge">
<title>Node42&#45;&gt;Node43</title>
<path fill="none" stroke="#191970" d="M544.01,-88.1826C552.9212,-87.1535 561.9534,-86.1104 570.7896,-85.0899"/>
<polygon fill="#191970" stroke="#191970" points="543.5496,-84.7124 534.0172,-89.3366 544.3527,-91.6662 543.5496,-84.7124"/>
</g>
<!-- Node44&#45;&gt;Node43 -->
<g id="edge5" class="edge">
<title>Node44&#45;&gt;Node43</title>
<path fill="none" stroke="#191970" d="M545.0719,-63.9401C553.6093,-64.926 562.246,-65.9234 570.7042,-66.9002"/>
<polygon fill="#191970" stroke="#191970" points="545.4475,-60.4603 535.1119,-62.7898 544.6443,-67.414 545.4475,-60.4603"/>
</g>
<!-- Node46 -->
<g id="node7" class="node">
<title>Node46</title>
<g id="a_node7"><a xlink:href="main_8cxx.html#af582d708d899e67ead623eac34a22387" target="_top" xlink:title="protected_main">
<polygon fill="none" stroke="#000000" points="603,-.5 603,-19.5 696,-19.5 696,-.5 603,-.5"/>
<text text-anchor="middle" x="649.5" y="-7.5" font-family="Helvetica,sans-Serif" font-size="10.00" fill="#000000">protected_main</text>
</a>
</g>
</g>
<!-- Node45&#45;&gt;Node46 -->
<g id="edge7" class="edge">
<title>Node45&#45;&gt;Node46</title>
<path fill="none" stroke="#191970" d="M520.5661,-10C547.2673,-10 578.0221,-10 602.7965,-10"/>
<polygon fill="#191970" stroke="#191970" points="520.5521,-6.5001 510.552,-10 520.552,-13.5001 520.5521,-6.5001"/>
</g>
<!-- Node47 -->
<g id="node8" class="node">
<title>Node47</title>
<g id="a_node8"><a xlink:href="main_8cxx.html#a3c04138a5bfe5d72780bb7e82a18e627" target="_top" xlink:title="main">
<polygon fill="none" stroke="#000000" points="764,-.5 764,-19.5 805,-19.5 805,-.5 764,-.5"/>
<text text-anchor="middle" x="784.5" y="-7.5" font-family="Helvetica,sans-Serif" font-size="10.00" fill="#000000">main</text>
</a>
</g>
</g>
<!-- Node46&#45;&gt;Node47 -->
<g id="edge8" class="edge">
<title>Node46&#45;&gt;Node47</title>
<path fill="none" stroke="#191970" d="M706.4949,-10C726.8277,-10 748.4643,-10 763.7793,-10"/>
<polygon fill="#191970" stroke="#191970" points="706.3376,-6.5001 696.3376,-10 706.3375,-13.5001 706.3376,-6.5001"/>
</g>
</g>
</svg>
