<?xml version="1.0" encoding="UTF-8" standalone="no"?>
<!DOCTYPE svg PUBLIC "-//W3C//DTD SVG 1.1//EN"
 "http://www.w3.org/Graphics/SVG/1.1/DTD/svg11.dtd">
<!-- Generated by graphviz version 2.40.1 (20161225.0304)
 -->
<!-- Title: Camera::centerScreenOnPoint Pages: 1 -->
<svg width="526pt" height="160pt"
 viewBox="0.00 0.00 526.00 160.00" xmlns="http://www.w3.org/2000/svg" xmlns:xlink="http://www.w3.org/1999/xlink">
<g id="graph0" class="graph" transform="scale(1 1) rotate(0) translate(4 156)">
<title>Camera::centerScreenOnPoint</title>
<!-- Node14 -->
<g id="node1" class="node">
<title>Node14</title>
<polygon fill="#bfbfbf" stroke="#000000" points="0,-85.5 0,-104.5 163,-104.5 163,-85.5 0,-85.5"/>
<text text-anchor="middle" x="81.5" y="-92.5" font-family="Helvetica,sans-Serif" font-size="10.00" fill="#000000">Camera::centerScreenOnPoint</text>
</g>
<!-- Node15 -->
<g id="node2" class="node">
<title>Node15</title>
<g id="a_node2"><a xlink:href="isoMath_8cxx.html#a7fa61c3d8ef446fb1c48dc4838023649" target="_top" xlink:title="Check if given coordinates are within map boundaries Checks if coordinates are within map boundaries...">
<polygon fill="none" stroke="#000000" points="206,-132.5 206,-151.5 362,-151.5 362,-132.5 206,-132.5"/>
<text text-anchor="middle" x="284" y="-139.5" font-family="Helvetica,sans-Serif" font-size="10.00" fill="#000000">isPointWithinMapBoundaries</text>
</a>
</g>
</g>
<!-- Node14&#45;&gt;Node15 -->
<g id="edge1" class="edge">
<title>Node14&#45;&gt;Node15</title>
<path fill="none" stroke="#191970" d="M122.4789,-104.5112C154.3501,-111.9084 198.7483,-122.2132 232.9323,-130.1473"/>
<polygon fill="#191970" stroke="#191970" points="232.2026,-133.5709 242.735,-132.4224 233.7853,-126.7521 232.2026,-133.5709"/>
</g>
<!-- Node16 -->
<g id="node3" class="node">
<title>Node16</title>
<g id="a_node3"><a xlink:href="classSingleton.html#af5cb1e5749949e2b68416cfb8d378044" target="_top" xlink:title="Get an instance of the singleton. ">
<polygon fill="none" stroke="#000000" points="405,-80 405,-110 518,-110 518,-80 405,-80"/>
<text text-anchor="start" x="413" y="-98" font-family="Helvetica,sans-Serif" font-size="10.00" fill="#000000">Singleton&lt; Settings</text>
<text text-anchor="middle" x="461.5" y="-87" font-family="Helvetica,sans-Serif" font-size="10.00" fill="#000000"> &gt;::instance</text>
</a>
</g>
</g>
<!-- Node14&#45;&gt;Node16 -->
<g id="edge4" class="edge">
<title>Node14&#45;&gt;Node16</title>
<path fill="none" stroke="#191970" d="M163.0195,-89.3427C232.1591,-87.7705 330.1202,-87.8949 394.699,-89.7159"/>
<polygon fill="#191970" stroke="#191970" points="394.6654,-93.2164 404.7674,-90.0227 394.8787,-86.2196 394.6654,-93.2164"/>
</g>
<!-- Node14&#45;&gt;Node16 -->
<g id="edge5" class="edge">
<title>Node14&#45;&gt;Node16</title>
<path fill="none" stroke="#191970" d="M163.0195,-100.6573C232.1591,-102.2295 330.1202,-102.1051 394.699,-100.2841"/>
<polygon fill="#191970" stroke="#191970" points="394.8787,-103.7804 404.7674,-99.9773 394.6654,-96.7836 394.8787,-103.7804"/>
</g>
<!-- Node17 -->
<g id="node4" class="node">
<title>Node17</title>
<g id="a_node4"><a xlink:href="isoMath_8cxx.html#a229d5dd54cd4e1f43ed5911e4fd266d3" target="_top" xlink:title="converts coordinates from isometric to screen space The given isometric coordinates (which contain he...">
<polygon fill="none" stroke="#000000" points="199,-38.5 199,-57.5 369,-57.5 369,-38.5 199,-38.5"/>
<text text-anchor="middle" x="284" y="-45.5" font-family="Helvetica,sans-Serif" font-size="10.00" fill="#000000">convertIsoToScreenCoordinates</text>
</a>
</g>
</g>
<!-- Node14&#45;&gt;Node17 -->
<g id="edge3" class="edge">
<title>Node14&#45;&gt;Node17</title>
<path fill="none" stroke="#191970" d="M122.4789,-85.4888C154.3501,-78.0916 198.7483,-67.7868 232.9323,-59.8527"/>
<polygon fill="#191970" stroke="#191970" points="233.7853,-63.2479 242.735,-57.5776 232.2026,-56.4291 233.7853,-63.2479"/>
</g>
<!-- Node18 -->
<g id="node5" class="node">
<title>Node18</title>
<g id="a_node5"><a xlink:href="classMap.html#ab69938ac0e56eb0da1d1701221f3d185" target="_top" xlink:title="Refresh all the map tile textures. ">
<polygon fill="none" stroke="#000000" points="245.5,-.5 245.5,-19.5 322.5,-19.5 322.5,-.5 245.5,-.5"/>
<text text-anchor="middle" x="284" y="-7.5" font-family="Helvetica,sans-Serif" font-size="10.00" fill="#000000">Map::refresh</text>
</a>
</g>
</g>
<!-- Node14&#45;&gt;Node18 -->
<g id="edge6" class="edge">
<title>Node14&#45;&gt;Node18</title>
<path fill="none" stroke="#191970" d="M95.31,-85.4626C116.6228,-71.1655 159.2354,-44.2336 199,-29 210.4728,-24.6048 223.2253,-21.0856 235.2895,-18.3291"/>
<polygon fill="#191970" stroke="#191970" points="236.1795,-21.7178 245.2183,-16.1906 234.7055,-14.8747 236.1795,-21.7178"/>
</g>
<!-- Node15&#45;&gt;Node16 -->
<g id="edge2" class="edge">
<title>Node15&#45;&gt;Node16</title>
<path fill="none" stroke="#191970" d="M319.9198,-132.4888C341.3829,-126.8057 369.3273,-119.4063 394.7135,-112.6843"/>
<polygon fill="#191970" stroke="#191970" points="395.8957,-115.992 404.6666,-110.0488 394.1038,-109.2252 395.8957,-115.992"/>
</g>
</g>
</svg>
