<?xml version="1.0" encoding="UTF-8" standalone="no"?>
<!DOCTYPE svg PUBLIC "-//W3C//DTD SVG 1.1//EN"
 "http://www.w3.org/Graphics/SVG/1.1/DTD/svg11.dtd">
<!-- Generated by graphviz version 2.40.1 (20161225.0304)
 -->
<!-- Title: UIElement::getUiElementRect Pages: 1 -->
<svg width="414pt" height="66pt"
 viewBox="0.00 0.00 414.00 66.00" xmlns="http://www.w3.org/2000/svg" xmlns:xlink="http://www.w3.org/1999/xlink">
<g id="graph0" class="graph" transform="scale(1 1) rotate(0) translate(4 62)">
<title>UIElement::getUiElementRect</title>
<!-- Node120 -->
<g id="node1" class="node">
<title>Node120</title>
<polygon fill="#bfbfbf" stroke="#000000" points="0,-19.5 0,-38.5 161,-38.5 161,-19.5 0,-19.5"/>
<text text-anchor="middle" x="80.5" y="-26.5" font-family="Helvetica,sans-Serif" font-size="10.00" fill="#000000">UIElement::getUiElementRect</text>
</g>
<!-- Node121 -->
<g id="node2" class="node">
<title>Node121</title>
<g id="a_node2"><a xlink:href="classUIElement.html#aa7f624963eaeb31043d74219ee24386c" target="_top" xlink:title="Checks if the mouse cursor is over the current UI Element Check if the coordinates match the ones sto...">
<polygon fill="none" stroke="#000000" points="233,-38.5 233,-57.5 370,-57.5 370,-38.5 233,-38.5"/>
<text text-anchor="middle" x="301.5" y="-45.5" font-family="Helvetica,sans-Serif" font-size="10.00" fill="#000000">UIElement::isMouseOver</text>
</a>
</g>
</g>
<!-- Node120&#45;&gt;Node121 -->
<g id="edge1" class="edge">
<title>Node120&#45;&gt;Node121</title>
<path fill="none" stroke="#191970" d="M161.2242,-35.9401C181.3714,-37.6722 202.9457,-39.527 222.9843,-41.2498"/>
<polygon fill="#191970" stroke="#191970" points="222.732,-44.7409 232.9951,-42.1104 223.3317,-37.7666 222.732,-44.7409"/>
</g>
<!-- Node122 -->
<g id="node3" class="node">
<title>Node122</title>
<g id="a_node3"><a xlink:href="classUIElement.html#a570841bf8b7970ca935b1a00e571036a" target="_top" xlink:title="Handling for the hovering event Check, if the mouse cursor is hovering over the element. virtual function to provide custom handling if necessary (e.g. Combobox) Per default, it&#39;s the same implementation as isMouseOver. ">
<polygon fill="none" stroke="#000000" points="197,-.5 197,-19.5 406,-19.5 406,-.5 197,-.5"/>
<text text-anchor="middle" x="301.5" y="-7.5" font-family="Helvetica,sans-Serif" font-size="10.00" fill="#000000">UIElement::isMouseOverHoverableArea</text>
</a>
</g>
</g>
<!-- Node120&#45;&gt;Node122 -->
<g id="edge2" class="edge">
<title>Node120&#45;&gt;Node122</title>
<path fill="none" stroke="#191970" d="M161.2242,-22.0599C169.5549,-21.3437 178.1296,-20.6065 186.7389,-19.8663"/>
<polygon fill="#191970" stroke="#191970" points="187.1853,-23.341 196.8487,-18.9972 186.5857,-16.3667 187.1853,-23.341"/>
</g>
</g>
</svg>
