<?xml version="1.0" encoding="UTF-8" standalone="no"?>
<!DOCTYPE svg PUBLIC "-//W3C//DTD SVG 1.1//EN"
 "http://www.w3.org/Graphics/SVG/1.1/DTD/svg11.dtd">
<!-- Generated by graphviz version 2.40.1 (20161225.0304)
 -->
<!-- Title: Map::isNodeMultiObject Pages: 1 -->
<!--zoomable 436 -->
<svg id="main" version="1.1" xmlns="http://www.w3.org/2000/svg" xmlns:xlink="http://www.w3.org/1999/xlink" xml:space="preserve" onload="init(evt)">
<style type="text/css"><![CDATA[
.edge:hover path { stroke: red; }
.edge:hover polygon { stroke: red; fill: red; }
]]></style>
<script type="text/javascript"><![CDATA[
var edges = document.getElementsByTagName('g');
if (edges && edges.length) {
  for (var i=0;i<edges.length;i++) {
    if (edges[i].id.substr(0,4)=='edge') {
      edges[i].setAttribute('class','edge');
    }
  }
}
]]></script>
        <defs>
                <circle id="rim" cx="0" cy="0" r="7"/>
                <circle id="rim2" cx="0" cy="0" r="3.5"/>
                <g id="zoomPlus">
                        <use xlink:href="#rim" fill="#404040">
                                <set attributeName="fill" to="#808080" begin="zoomplus.mouseover" end="zoomplus.mouseout"/>
                        </use>
                        <path d="M-4,0h8M0,-4v8" fill="none" stroke="white" stroke-width="1.5" pointer-events="none"/>
                </g>
                <g id="zoomMin">
                        <use xlink:href="#rim" fill="#404040">
                                <set attributeName="fill" to="#808080" begin="zoomminus.mouseover" end="zoomminus.mouseout"/>
                        </use>
                        <path d="M-4,0h8" fill="none" stroke="white" stroke-width="1.5" pointer-events="none"/>
                </g>
                <g id="dirArrow">
                        <path fill="none" stroke="white" stroke-width="1.5" d="M0,-3.0v7 M-2.5,-0.5L0,-3.0L2.5,-0.5"/>
                </g>
               <g id="resetDef">
                       <use xlink:href="#rim2" fill="#404040">
                               <set attributeName="fill" to="#808080" begin="reset.mouseover" end="reset.mouseout"/>
                       </use>
               </g>
        </defs>

<script type="text/javascript">
var viewWidth = 1819;
var viewHeight = 436;
var sectionId = 'dynsection-32';
</script>
<script xlink:href="svgpan.js"/>
<svg id="graph" class="graph">
<g id="viewport">
<title>Map::isNodeMultiObject</title>
<!-- Node360 -->
<g id="node1" class="node">
<title>Node360</title>
<polygon fill="#bfbfbf" stroke="#000000" points="0,-214.6209 0,-233.6209 132,-233.6209 132,-214.6209 0,-214.6209"/>
<text text-anchor="middle" x="66" y="-221.6209" font-family="Helvetica,sans-Serif" font-size="10.00" fill="#000000">Map::isNodeMultiObject</text>
</g>
<!-- Node361 -->
<g id="node2" class="node">
<title>Node361</title>
<g id="a_node2"><a xlink:href="classMap.html#aa8cc2ed983007621bce12dd9d1b8ec5b" target="_top" xlink:title="Demolish a node This function gathers all tiles that should be demolished and invokes the nodes demol...">
<polygon fill="none" stroke="#000000" points="168,-257.6209 168,-276.6209 281,-276.6209 281,-257.6209 168,-257.6209"/>
<text text-anchor="middle" x="224.5" y="-264.6209" font-family="Helvetica,sans-Serif" font-size="10.00" fill="#000000">Map::demolishNode</text>
</a>
</g>
</g>
<!-- Node360&#45;&gt;Node361 -->
<g id="edge1" class="edge">
<title>Node360&#45;&gt;Node361</title>
<path fill="none" stroke="#191970" d="M111.1013,-236.3566C135.9583,-243.1002 166.3574,-251.3472 189.422,-257.6045"/>
<polygon fill="#191970" stroke="#191970" points="111.7439,-232.9045 101.1763,-233.664 109.911,-239.6603 111.7439,-232.9045"/>
</g>
<!-- Node380 -->
<g id="node21" class="node">
<title>Node380</title>
<g id="a_node21"><a xlink:href="classMap.html#a404c38b33d61f8c63ce2c2efb864d6dd" target="_top" xlink:title="Set the Tile ID Of Node object Also invokes all necessary texture updates (auto&#45;tiling, slopes, ...) ">
<polygon fill="none" stroke="#000000" points="992,-285.6209 992,-304.6209 1115,-304.6209 1115,-285.6209 992,-285.6209"/>
<text text-anchor="middle" x="1053.5" y="-292.6209" font-family="Helvetica,sans-Serif" font-size="10.00" fill="#000000">Map::setTileIDOfNode</text>
</a>
</g>
</g>
<!-- Node360&#45;&gt;Node380 -->
<g id="edge40" class="edge">
<title>Node360&#45;&gt;Node380</title>
<path fill="none" stroke="#191970" d="M142.4934,-227.8106C251.3111,-233.2347 457.0283,-244.1362 632,-257.1209 760.0435,-266.6231 909.6824,-280.8593 991.7699,-288.9388"/>
<polygon fill="#191970" stroke="#191970" points="142.4308,-224.3033 132.2695,-227.3029 142.0836,-231.2947 142.4308,-224.3033"/>
</g>
<!-- Node362 -->
<g id="node3" class="node">
<title>Node362</title>
<g id="a_node3"><a xlink:href="classEventManager.html#a65ec91fd5016d4f9c4167fb8babed2df" target="_top" xlink:title="EventManager::checkEvents">
<polygon fill="none" stroke="#000000" points="1335,-266.6209 1335,-285.6209 1489,-285.6209 1489,-266.6209 1335,-266.6209"/>
<text text-anchor="middle" x="1412" y="-273.6209" font-family="Helvetica,sans-Serif" font-size="10.00" fill="#000000">EventManager::checkEvents</text>
</a>
</g>
</g>
<!-- Node361&#45;&gt;Node362 -->
<g id="edge2" class="edge">
<title>Node361&#45;&gt;Node362</title>
<path fill="none" stroke="#191970" d="M291.0005,-257.66C377.5849,-245.8629 533.729,-226.3659 668,-219.1209 795.8141,-212.2244 828.2473,-211.1674 956,-219.1209 1029.8555,-223.719 1236.105,-251.5818 1344.1022,-266.5794"/>
<polygon fill="#191970" stroke="#191970" points="290.4808,-254.1985 281.0487,-259.0239 291.4313,-261.1336 290.4808,-254.1985"/>
</g>
<!-- Node366 -->
<g id="node7" class="node">
<title>Node366</title>
<g id="a_node7"><a xlink:href="classMap.html#aba5154a4d917900679a3c0f7ec701561" target="_top" xlink:title="Increase Height Increases the height of the node and checks the surrounding tiles. Either draw a slope sprite or elevate the tile if necessary. ">
<polygon fill="none" stroke="#000000" points="317,-304.6209 317,-323.6209 433,-323.6209 433,-304.6209 317,-304.6209"/>
<text text-anchor="middle" x="375" y="-311.6209" font-family="Helvetica,sans-Serif" font-size="10.00" fill="#000000">Map::increaseHeight</text>
</a>
</g>
</g>
<!-- Node361&#45;&gt;Node366 -->
<g id="edge6" class="edge">
<title>Node361&#45;&gt;Node366</title>
<path fill="none" stroke="#191970" d="M264.5324,-279.6227C289.5614,-287.4391 321.3023,-297.3516 344.3315,-304.5434"/>
<polygon fill="#191970" stroke="#191970" points="265.5446,-276.2722 254.9559,-276.6321 263.4579,-282.954 265.5446,-276.2722"/>
</g>
<!-- Node368 -->
<g id="node9" class="node">
<title>Node368</title>
<g id="a_node9"><a xlink:href="classMap.html#a59d21f2688713fbcfe320eb1b24405ca" target="_top" xlink:title="Update mapNode and its adjacent tiles Updates mapNode height information, draws slopes for adjacent t...">
<polygon fill="none" stroke="#000000" points="469,-266.6209 469,-285.6209 632,-285.6209 632,-266.6209 469,-266.6209"/>
<text text-anchor="middle" x="550.5" y="-273.6209" font-family="Helvetica,sans-Serif" font-size="10.00" fill="#000000">Map::updateNeighborsOfNode</text>
</a>
</g>
</g>
<!-- Node361&#45;&gt;Node368 -->
<g id="edge38" class="edge">
<title>Node361&#45;&gt;Node368</title>
<path fill="none" stroke="#191970" d="M291.2853,-263.3931C342.6659,-263.3755 413.9116,-265.2189 468.7098,-267.9208"/>
<polygon fill="#191970" stroke="#191970" points="291.2748,-259.8931 281.2849,-263.4218 291.2949,-266.893 291.2748,-259.8931"/>
</g>
<!-- Node369 -->
<g id="node10" class="node">
<title>Node369</title>
<g id="a_node10"><a xlink:href="classMap.html#afb8cc864df90d273a5074872d635dc40" target="_top" xlink:title="Decrease Height Decreases the height of the node and checks the surrounding tiles. Either draw a slope sprite or lower the tile if necessary. ">
<polygon fill="none" stroke="#000000" points="668.5,-342.6209 668.5,-361.6209 787.5,-361.6209 787.5,-342.6209 668.5,-342.6209"/>
<text text-anchor="middle" x="728" y="-349.6209" font-family="Helvetica,sans-Serif" font-size="10.00" fill="#000000">Map::decreaseHeight</text>
</a>
</g>
</g>
<!-- Node361&#45;&gt;Node369 -->
<g id="edge37" class="edge">
<title>Node361&#45;&gt;Node369</title>
<path fill="none" stroke="#191970" d="M241.796,-284.2151C259.1663,-300.1441 287.5187,-322.925 317,-333.1209 436.1502,-374.3282 586.3705,-367.7461 668.1806,-359.684"/>
<polygon fill="#191970" stroke="#191970" points="243.8661,-281.3557 234.1941,-277.0309 239.058,-286.4433 243.8661,-281.3557"/>
</g>
<!-- Node361&#45;&gt;Node380 -->
<g id="edge39" class="edge">
<title>Node361&#45;&gt;Node380</title>
<path fill="none" stroke="#191970" d="M236.6323,-285.0859C252.3632,-306.7464 281.973,-342.3289 317,-359.1209 378.2969,-388.5068 401.1286,-372.3373 469,-376.1209 610.5754,-384.0134 647.9139,-393.07 788,-371.1209 878.2344,-356.9828 981.194,-321.8016 1027.9733,-304.7242"/>
<polygon fill="#191970" stroke="#191970" points="239.383,-282.9132 230.7648,-276.7506 233.659,-286.9425 239.383,-282.9132"/>
</g>
<!-- Node363 -->
<g id="node4" class="node">
<title>Node363</title>
<g id="a_node4"><a xlink:href="classGame.html#a1c2ab25d5216b2f4b2fe41efd2c09114" target="_top" xlink:title="begins the game starts running the game ">
<polygon fill="none" stroke="#000000" points="1537,-209.6209 1537,-228.6209 1605,-228.6209 1605,-209.6209 1537,-209.6209"/>
<text text-anchor="middle" x="1571" y="-216.6209" font-family="Helvetica,sans-Serif" font-size="10.00" fill="#000000">Game::run</text>
</a>
</g>
</g>
<!-- Node362&#45;&gt;Node363 -->
<g id="edge3" class="edge">
<title>Node362&#45;&gt;Node363</title>
<path fill="none" stroke="#191970" d="M1448.0636,-263.1925C1477.3193,-252.7046 1517.8994,-238.157 1544.3002,-228.6926"/>
<polygon fill="#191970" stroke="#191970" points="1446.8453,-259.9111 1438.613,-266.5804 1449.2076,-266.5004 1446.8453,-259.9111"/>
</g>
<!-- Node364 -->
<g id="node5" class="node">
<title>Node364</title>
<g id="a_node5"><a xlink:href="main_8cxx.html#af582d708d899e67ead623eac34a22387" target="_top" xlink:title="protected_main">
<polygon fill="none" stroke="#000000" points="1641,-190.6209 1641,-209.6209 1734,-209.6209 1734,-190.6209 1641,-190.6209"/>
<text text-anchor="middle" x="1687.5" y="-197.6209" font-family="Helvetica,sans-Serif" font-size="10.00" fill="#000000">protected_main</text>
</a>
</g>
</g>
<!-- Node363&#45;&gt;Node364 -->
<g id="edge4" class="edge">
<title>Node363&#45;&gt;Node364</title>
<path fill="none" stroke="#191970" d="M1614.9884,-211.9469C1623.382,-210.578 1632.1965,-209.1404 1640.6749,-207.7577"/>
<polygon fill="#191970" stroke="#191970" points="1614.316,-208.5102 1605.0098,-213.5743 1615.4428,-215.4189 1614.316,-208.5102"/>
</g>
<!-- Node365 -->
<g id="node6" class="node">
<title>Node365</title>
<g id="a_node6"><a xlink:href="main_8cxx.html#a3c04138a5bfe5d72780bb7e82a18e627" target="_top" xlink:title="main">
<polygon fill="none" stroke="#000000" points="1770,-190.6209 1770,-209.6209 1811,-209.6209 1811,-190.6209 1770,-190.6209"/>
<text text-anchor="middle" x="1790.5" y="-197.6209" font-family="Helvetica,sans-Serif" font-size="10.00" fill="#000000">main</text>
</a>
</g>
</g>
<!-- Node364&#45;&gt;Node365 -->
<g id="edge5" class="edge">
<title>Node364&#45;&gt;Node365</title>
<path fill="none" stroke="#191970" d="M1744.2133,-200.1209C1753.4322,-200.1209 1762.4259,-200.1209 1769.9965,-200.1209"/>
<polygon fill="#191970" stroke="#191970" points="1744.1782,-196.621 1734.1782,-200.1209 1744.1781,-203.621 1744.1782,-196.621"/>
</g>
<!-- Node367 -->
<g id="node8" class="node">
<title>Node367</title>
<g id="a_node8"><a xlink:href="classEngine.html#a4851ae1ff696c893741167fc0194fd77" target="_top" xlink:title="Increase Height Increases the height of the given map node Calls the according function of the Map ob...">
<polygon fill="none" stroke="#000000" points="486,-304.6209 486,-323.6209 615,-323.6209 615,-304.6209 486,-304.6209"/>
<text text-anchor="middle" x="550.5" y="-311.6209" font-family="Helvetica,sans-Serif" font-size="10.00" fill="#000000">Engine::increaseHeight</text>
</a>
</g>
</g>
<!-- Node366&#45;&gt;Node367 -->
<g id="edge7" class="edge">
<title>Node366&#45;&gt;Node367</title>
<path fill="none" stroke="#191970" d="M443.4777,-314.1209C457.4606,-314.1209 472.1304,-314.1209 485.9699,-314.1209"/>
<polygon fill="#191970" stroke="#191970" points="443.439,-310.621 433.439,-314.1209 443.4389,-317.621 443.439,-310.621"/>
</g>
<!-- Node366&#45;&gt;Node368 -->
<g id="edge9" class="edge">
<title>Node366&#45;&gt;Node368</title>
<path fill="none" stroke="#191970" d="M407.3035,-301.7557C426.484,-296.485 451.6517,-290.5972 475.5293,-285.6679"/>
<polygon fill="#191970" stroke="#191970" points="406.2403,-298.4193 397.5843,-304.5286 408.1608,-305.1507 406.2403,-298.4193"/>
</g>
<!-- Node367&#45;&gt;Node362 -->
<g id="edge8" class="edge">
<title>Node367&#45;&gt;Node362</title>
<path fill="none" stroke="#191970" d="M575.4456,-328.7552C630.3349,-359.5274 766.5344,-428.1209 890,-428.1209 890,-428.1209 890,-428.1209 1053.5,-428.1209 1200.1981,-428.1209 1355.7869,-318.9057 1399.7882,-285.6292"/>
<polygon fill="#191970" stroke="#191970" points="576.8814,-325.5453 566.4585,-323.6444 573.421,-331.6303 576.8814,-325.5453"/>
</g>
<!-- Node368&#45;&gt;Node361 -->
<g id="edge35" class="edge">
<title>Node368&#45;&gt;Node361</title>
<path fill="none" stroke="#191970" d="M458.6055,-279.7273C401.5984,-279.1903 330.1589,-276.9259 281.2849,-273.9555"/>
<polygon fill="#191970" stroke="#191970" points="458.6831,-283.2279 468.7098,-279.8051 458.7371,-276.2281 458.6831,-283.2279"/>
</g>
<!-- Node368&#45;&gt;Node366 -->
<g id="edge10" class="edge">
<title>Node368&#45;&gt;Node366</title>
<path fill="none" stroke="#191970" d="M517.9376,-288.5572C494.2681,-295.0501 461.5814,-302.4668 433.439,-307.871"/>
<polygon fill="#191970" stroke="#191970" points="519.1509,-291.8509 527.8093,-285.745 517.233,-285.1188 519.1509,-291.8509"/>
</g>
<!-- Node368&#45;&gt;Node369 -->
<g id="edge11" class="edge">
<title>Node368&#45;&gt;Node369</title>
<path fill="none" stroke="#191970" d="M639.825,-291.2148C651.2457,-300.1474 652.7827,-309.5544 668,-319.1209 683.7669,-329.0329 704.3144,-336.1816 716.8131,-342.4368"/>
<polygon fill="#191970" stroke="#191970" points="641.5367,-288.1549 631.2262,-285.717 637.766,-294.0526 641.5367,-288.1549"/>
</g>
<!-- Node371 -->
<g id="node12" class="node">
<title>Node371</title>
<g id="a_node12"><a xlink:href="classMap.html#a481b37ba71ef0e51e836fc42805762dd" target="_top" xlink:title="Update all mapNodes Updates all mapNode and its adjacent tiles regarding height information, draws slopes for adjacent tiles and sets tiling for mapNode sprite if applicable. ">
<polygon fill="none" stroke="#000000" points="668,-228.6209 668,-247.6209 788,-247.6209 788,-228.6209 668,-228.6209"/>
<text text-anchor="middle" x="728" y="-235.6209" font-family="Helvetica,sans-Serif" font-size="10.00" fill="#000000">Map::updateAllNodes</text>
</a>
</g>
</g>
<!-- Node368&#45;&gt;Node371 -->
<g id="edge15" class="edge">
<title>Node368&#45;&gt;Node371</title>
<path fill="none" stroke="#191970" d="M605.3969,-264.3684C630.4954,-258.9952 659.8428,-252.7123 683.5313,-247.641"/>
<polygon fill="#191970" stroke="#191970" points="604.3365,-261.016 595.2907,-266.5319 605.8019,-267.8609 604.3365,-261.016"/>
</g>
<!-- Node368&#45;&gt;Node380 -->
<g id="edge36" class="edge">
<title>Node368&#45;&gt;Node380</title>
<path fill="none" stroke="#191970" d="M630.0527,-286.7516C642.7255,-288.1125 655.7069,-289.3111 668,-290.1209 782.2074,-297.6443 915.8441,-297.3478 991.9965,-296.3216"/>
<polygon fill="#191970" stroke="#191970" points="630.3005,-283.2577 619.9747,-285.6298 629.526,-290.2147 630.3005,-283.2577"/>
</g>
<!-- Node369&#45;&gt;Node368 -->
<g id="edge14" class="edge">
<title>Node369&#45;&gt;Node368</title>
<path fill="none" stroke="#191970" d="M668.5719,-337.478C668.3806,-337.3594 668.19,-337.2404 668,-337.1209 649.6244,-325.5689 651.197,-314.2495 632,-304.1209 613.4962,-294.3581 590.0221,-289.5668 573.0239,-285.6412"/>
<polygon fill="#191970" stroke="#191970" points="667.126,-340.68 677.5592,-342.5234 670.5527,-334.5761 667.126,-340.68"/>
</g>
<!-- Node370 -->
<g id="node11" class="node">
<title>Node370</title>
<g id="a_node11"><a xlink:href="classEngine.html#a13572fdd7f6470dca48a14497f58980e" target="_top" xlink:title="Decrease Height Decreases the height of the given map node Calls the according function of the Map ob...">
<polygon fill="none" stroke="#000000" points="824,-380.6209 824,-399.6209 956,-399.6209 956,-380.6209 824,-380.6209"/>
<text text-anchor="middle" x="890" y="-387.6209" font-family="Helvetica,sans-Serif" font-size="10.00" fill="#000000">Engine::decreaseHeight</text>
</a>
</g>
</g>
<!-- Node369&#45;&gt;Node370 -->
<g id="edge12" class="edge">
<title>Node369&#45;&gt;Node370</title>
<path fill="none" stroke="#191970" d="M778.7148,-364.017C801.4856,-369.3583 827.9867,-375.5746 849.4145,-380.6009"/>
<polygon fill="#191970" stroke="#191970" points="779.4145,-360.5862 768.8794,-361.7099 777.8159,-367.4012 779.4145,-360.5862"/>
</g>
<!-- Node370&#45;&gt;Node362 -->
<g id="edge13" class="edge">
<title>Node370&#45;&gt;Node362</title>
<path fill="none" stroke="#191970" d="M960.5613,-378.9367C1040.3233,-365.7573 1173.8093,-342.0769 1287,-314.1209 1320.4709,-305.8543 1358.2625,-294.0078 1383.4442,-285.7468"/>
<polygon fill="#191970" stroke="#191970" points="959.9275,-375.4939 950.6277,-380.5697 961.0631,-382.4012 959.9275,-375.4939"/>
</g>
<!-- Node372 -->
<g id="node13" class="node">
<title>Node372</title>
<g id="a_node13"><a xlink:href="classMap.html#a482ac34426e8aa66abb46f60ec329402" target="_top" xlink:title="Initialize the Map with node objects Initialize the Map with node objects. ">
<polygon fill="none" stroke="#000000" points="850.5,-114.6209 850.5,-133.6209 929.5,-133.6209 929.5,-114.6209 850.5,-114.6209"/>
<text text-anchor="middle" x="890" y="-121.6209" font-family="Helvetica,sans-Serif" font-size="10.00" fill="#000000">Map::initMap</text>
</a>
</g>
</g>
<!-- Node371&#45;&gt;Node372 -->
<g id="edge16" class="edge">
<title>Node371&#45;&gt;Node372</title>
<path fill="none" stroke="#191970" d="M749.8415,-222.751C783.7231,-198.9084 847.9768,-153.6929 876.1617,-133.859"/>
<polygon fill="#191970" stroke="#191970" points="747.6972,-219.9801 741.5334,-228.5974 751.7257,-225.7048 747.6972,-219.9801"/>
</g>
<!-- Node377 -->
<g id="node18" class="node">
<title>Node377</title>
<g id="a_node18"><a xlink:href="classMap.html#afefe996cc1f62b61ec60d0ae415953bf" target="_top" xlink:title="Map::loadMapFromFile">
<polygon fill="none" stroke="#000000" points="827.5,-228.6209 827.5,-247.6209 952.5,-247.6209 952.5,-228.6209 827.5,-228.6209"/>
<text text-anchor="middle" x="890" y="-235.6209" font-family="Helvetica,sans-Serif" font-size="10.00" fill="#000000">Map::loadMapFromFile</text>
</a>
</g>
</g>
<!-- Node371&#45;&gt;Node377 -->
<g id="edge24" class="edge">
<title>Node371&#45;&gt;Node377</title>
<path fill="none" stroke="#191970" d="M798.3256,-238.1209C808.0192,-238.1209 817.9204,-238.1209 827.4607,-238.1209"/>
<polygon fill="#191970" stroke="#191970" points="798.3229,-234.621 788.3228,-238.1209 798.3228,-241.621 798.3229,-234.621"/>
</g>
<!-- Node373 -->
<g id="node14" class="node">
<title>Node373</title>
<g id="a_node14"><a xlink:href="classEngine.html#a260d4834150eae6eec2bde34df6dc827" target="_top" xlink:title="Creates a new game Creates a new game. ">
<polygon fill="none" stroke="#000000" points="1001,-57.6209 1001,-76.6209 1106,-76.6209 1106,-57.6209 1001,-57.6209"/>
<text text-anchor="middle" x="1053.5" y="-64.6209" font-family="Helvetica,sans-Serif" font-size="10.00" fill="#000000">Engine::newGame</text>
</a>
</g>
</g>
<!-- Node372&#45;&gt;Node373 -->
<g id="edge17" class="edge">
<title>Node372&#45;&gt;Node373</title>
<path fill="none" stroke="#191970" d="M927.0842,-111.1925C957.168,-100.7046 998.8966,-86.157 1026.0445,-76.6926"/>
<polygon fill="#191970" stroke="#191970" points="925.6567,-107.9835 917.3662,-114.5804 927.9611,-114.5934 925.6567,-107.9835"/>
</g>
<!-- Node373&#45;&gt;Node363 -->
<g id="edge23" class="edge">
<title>Node373&#45;&gt;Node363</title>
<path fill="none" stroke="#191970" d="M1073.2142,-51.3203C1091.9615,-37.3833 1121.5915,-18.0866 1151,-10.1209 1209.3421,5.6817 1227.4333,.1423 1287,-10.1209 1386.4654,-27.2587 1424.7072,-20.0417 1501,-86.1209 1541.4333,-121.1413 1561.9977,-185.3607 1568.5866,-209.5582"/>
<polygon fill="#191970" stroke="#191970" points="1070.9871,-48.6173 1065.1701,-57.4724 1075.2396,-54.1776 1070.9871,-48.6173"/>
</g>
<!-- Node374 -->
<g id="node15" class="node">
<title>Node374</title>
<g id="a_node15"><a xlink:href="classEngine.html#ab5a909990be40701ebb4b57c3e716ed4" target="_top" xlink:title="Engine::saveGame">
<polygon fill="none" stroke="#000000" points="1165,-19.6209 1165,-38.6209 1273,-38.6209 1273,-19.6209 1165,-19.6209"/>
<text text-anchor="middle" x="1219" y="-26.6209" font-family="Helvetica,sans-Serif" font-size="10.00" fill="#000000">Engine::saveGame</text>
</a>
</g>
</g>
<!-- Node373&#45;&gt;Node374 -->
<g id="edge18" class="edge">
<title>Node373&#45;&gt;Node374</title>
<path fill="none" stroke="#191970" d="M1105.3105,-55.2249C1128.5733,-49.8836 1155.6469,-43.6673 1177.5377,-38.641"/>
<polygon fill="#191970" stroke="#191970" points="1104.2258,-51.8828 1095.2626,-57.5319 1105.7923,-58.7053 1104.2258,-51.8828"/>
</g>
<!-- Node375 -->
<g id="node16" class="node">
<title>Node375</title>
<g id="a_node16"><a xlink:href="classUIManager.html#aa78e356fc3b356d790c848319d1c387e" target="_top" xlink:title="UIManager::setCallbackFunctions">
<polygon fill="none" stroke="#000000" points="1323,-95.6209 1323,-114.6209 1501,-114.6209 1501,-95.6209 1323,-95.6209"/>
<text text-anchor="middle" x="1412" y="-102.6209" font-family="Helvetica,sans-Serif" font-size="10.00" fill="#000000">UIManager::setCallbackFunctions</text>
</a>
</g>
</g>
<!-- Node373&#45;&gt;Node375 -->
<g id="edge20" class="edge">
<title>Node373&#45;&gt;Node375</title>
<path fill="none" stroke="#191970" d="M1116.4069,-73.43C1163.4139,-78.1825 1229.2441,-84.9186 1287,-91.1209 1300.2445,-92.5433 1314.2744,-94.0826 1327.9634,-95.6026"/>
<polygon fill="#191970" stroke="#191970" points="1116.6752,-69.9394 1106.3741,-72.4169 1115.9718,-76.9039 1116.6752,-69.9394"/>
</g>
<!-- Node376 -->
<g id="node17" class="node">
<title>Node376</title>
<g id="a_node17"><a xlink:href="classGame.html#a5ed7fc5be77080f7f6dd5363f7f007a1" target="_top" xlink:title="initializes and displays the main menu initializes and displays the main menu ">
<polygon fill="none" stroke="#000000" points="1360.5,-171.6209 1360.5,-190.6209 1463.5,-190.6209 1463.5,-171.6209 1360.5,-171.6209"/>
<text text-anchor="middle" x="1412" y="-178.6209" font-family="Helvetica,sans-Serif" font-size="10.00" fill="#000000">Game::mainMenu</text>
</a>
</g>
</g>
<!-- Node373&#45;&gt;Node376 -->
<g id="edge21" class="edge">
<title>Node373&#45;&gt;Node376</title>
<path fill="none" stroke="#191970" d="M1093.106,-79.7153C1165.4107,-102.7076 1317.2829,-151.0017 1381.8842,-171.5444"/>
<polygon fill="#191970" stroke="#191970" points="1094.0393,-76.3395 1083.4489,-76.6444 1091.918,-83.0103 1094.0393,-76.3395"/>
</g>
<!-- Node374&#45;&gt;Node375 -->
<g id="edge19" class="edge">
<title>Node374&#45;&gt;Node375</title>
<path fill="none" stroke="#191970" d="M1256.8128,-42.052C1266.6783,-45.5389 1277.2708,-49.3836 1287,-53.1209 1323.4223,-67.1121 1365.1683,-84.823 1390.0193,-95.5467"/>
<polygon fill="#191970" stroke="#191970" points="1257.8434,-38.7045 1247.2485,-38.7015 1255.529,-45.3109 1257.8434,-38.7045"/>
</g>
<!-- Node376&#45;&gt;Node364 -->
<g id="edge22" class="edge">
<title>Node376&#45;&gt;Node364</title>
<path fill="none" stroke="#191970" d="M1473.9861,-185.3958C1524.6117,-188.8873 1595.055,-193.7454 1640.9575,-196.9111"/>
<polygon fill="#191970" stroke="#191970" points="1474.0366,-181.8911 1463.8194,-184.6947 1473.5549,-188.8745 1474.0366,-181.8911"/>
</g>
<!-- Node378 -->
<g id="node19" class="node">
<title>Node378</title>
<g id="a_node19"><a xlink:href="classEngine.html#a83b7dbeee899b36a13d5b07c7ad87ebc" target="_top" xlink:title="Loads a saved game Loads a saved Game. ">
<polygon fill="none" stroke="#000000" points="1000.5,-180.6209 1000.5,-199.6209 1106.5,-199.6209 1106.5,-180.6209 1000.5,-180.6209"/>
<text text-anchor="middle" x="1053.5" y="-187.6209" font-family="Helvetica,sans-Serif" font-size="10.00" fill="#000000">Engine::loadGame</text>
</a>
</g>
</g>
<!-- Node377&#45;&gt;Node378 -->
<g id="edge25" class="edge">
<title>Node377&#45;&gt;Node378</title>
<path fill="none" stroke="#191970" d="M932.471,-225.6524C960.0609,-217.5526 995.4806,-207.1542 1020.863,-199.7025"/>
<polygon fill="#191970" stroke="#191970" points="931.3028,-222.3476 922.6937,-228.5228 933.2747,-229.0641 931.3028,-222.3476"/>
</g>
<!-- Node377&#45;&gt;Node380 -->
<g id="edge32" class="edge">
<title>Node377&#45;&gt;Node380</title>
<path fill="none" stroke="#191970" d="M927.0842,-251.0494C957.168,-261.5373 998.8966,-276.0849 1026.0445,-285.5493"/>
<polygon fill="#191970" stroke="#191970" points="927.9611,-247.6485 917.3662,-247.6615 925.6567,-254.2584 927.9611,-247.6485"/>
</g>
<!-- Node378&#45;&gt;Node375 -->
<g id="edge30" class="edge">
<title>Node378&#45;&gt;Node375</title>
<path fill="none" stroke="#191970" d="M1103.7364,-178.2099C1175.5575,-161.1812 1306.1515,-130.2175 1371.9031,-114.6279"/>
<polygon fill="#191970" stroke="#191970" points="1102.5037,-174.9051 1093.581,-180.6178 1104.1187,-181.7163 1102.5037,-174.9051"/>
</g>
<!-- Node378&#45;&gt;Node376 -->
<g id="edge31" class="edge">
<title>Node378&#45;&gt;Node376</title>
<path fill="none" stroke="#191970" d="M1117.1405,-188.5233C1186.5338,-186.7812 1296.2452,-184.0269 1360.461,-182.4148"/>
<polygon fill="#191970" stroke="#191970" points="1116.6929,-185.0333 1106.784,-188.7833 1116.8687,-192.0311 1116.6929,-185.0333"/>
</g>
<!-- Node379 -->
<g id="node20" class="node">
<title>Node379</title>
<g id="a_node20"><a xlink:href="classEngine.html#a0ba57971ffb5173ecc425461f65a4cd8" target="_top" xlink:title="Quits the game Sets m_running to false and quitting the game. ">
<polygon fill="none" stroke="#000000" points="1167,-209.6209 1167,-228.6209 1271,-228.6209 1271,-209.6209 1167,-209.6209"/>
<text text-anchor="middle" x="1219" y="-216.6209" font-family="Helvetica,sans-Serif" font-size="10.00" fill="#000000">Engine::quitGame</text>
</a>
</g>
</g>
<!-- Node378&#45;&gt;Node379 -->
<g id="edge26" class="edge">
<title>Node378&#45;&gt;Node379</title>
<path fill="none" stroke="#191970" d="M1116.9079,-201.2317C1133.4475,-204.1299 1151.0792,-207.2194 1166.9541,-210.0011"/>
<polygon fill="#191970" stroke="#191970" points="1117.2303,-197.7349 1106.7762,-199.4564 1116.022,-204.6299 1117.2303,-197.7349"/>
</g>
<!-- Node379&#45;&gt;Node362 -->
<g id="edge27" class="edge">
<title>Node379&#45;&gt;Node362</title>
<path fill="none" stroke="#191970" d="M1260.9351,-231.5059C1296.5685,-242.0298 1346.9873,-256.9203 1379.5907,-266.5493"/>
<polygon fill="#191970" stroke="#191970" points="1261.8857,-228.1373 1251.3039,-228.6615 1259.903,-234.8506 1261.8857,-228.1373"/>
</g>
<!-- Node379&#45;&gt;Node375 -->
<g id="edge28" class="edge">
<title>Node379&#45;&gt;Node375</title>
<path fill="none" stroke="#191970" d="M1243.7686,-204.4908C1283.8907,-180.7917 1362.0043,-134.6521 1395.787,-114.6975"/>
<polygon fill="#191970" stroke="#191970" points="1241.9532,-201.498 1235.1231,-209.5974 1245.5133,-207.5252 1241.9532,-201.498"/>
</g>
<!-- Node379&#45;&gt;Node376 -->
<g id="edge29" class="edge">
<title>Node379&#45;&gt;Node376</title>
<path fill="none" stroke="#191970" d="M1277.6016,-207.5828C1305.1289,-202.1629 1337.5476,-195.78 1363.6482,-190.641"/>
<polygon fill="#191970" stroke="#191970" points="1276.8375,-204.166 1267.702,-209.5319 1278.1898,-211.0341 1276.8375,-204.166"/>
</g>
<!-- Node381 -->
<g id="node22" class="node">
<title>Node381</title>
<g id="a_node22"><a xlink:href="classEngine.html#a7a1521fd7fc731f961ebaf3f723127d9" target="_top" xlink:title="Engine::setTileIDOfNode">
<polygon fill="none" stroke="#000000" points="1151,-285.6209 1151,-304.6209 1287,-304.6209 1287,-285.6209 1151,-285.6209"/>
<text text-anchor="middle" x="1219" y="-292.6209" font-family="Helvetica,sans-Serif" font-size="10.00" fill="#000000">Engine::setTileIDOfNode</text>
</a>
</g>
</g>
<!-- Node380&#45;&gt;Node381 -->
<g id="edge33" class="edge">
<title>Node380&#45;&gt;Node381</title>
<path fill="none" stroke="#191970" d="M1125.3736,-295.1209C1133.858,-295.1209 1142.4976,-295.1209 1150.9273,-295.1209"/>
<polygon fill="#191970" stroke="#191970" points="1125.1261,-291.621 1115.1261,-295.1209 1125.1261,-298.621 1125.1261,-291.621"/>
</g>
<!-- Node381&#45;&gt;Node362 -->
<g id="edge34" class="edge">
<title>Node381&#45;&gt;Node362</title>
<path fill="none" stroke="#191970" d="M1297.292,-287.4134C1309.6288,-286.1989 1322.3776,-284.9439 1334.6918,-283.7316"/>
<polygon fill="#191970" stroke="#191970" points="1296.6535,-283.9593 1287.0446,-288.4223 1297.3394,-290.9256 1296.6535,-283.9593"/>
</g>
</g>
</svg>
        <g id="navigator" transform="translate(0 0)" fill="#404254">
                <rect fill="#f2f5e9" fill-opacity="0.5" stroke="#606060" stroke-width=".5" x="0" y="0" width="60" height="60"/>
                <use id="zoomplus" xlink:href="#zoomPlus" x="17" y="9" onmousedown="handleZoom(evt,'in')"/>
                <use id="zoomminus" xlink:href="#zoomMin" x="42" y="9" onmousedown="handleZoom(evt,'out')"/>
                <use id="reset" xlink:href="#resetDef" x="30" y="36" onmousedown="handleReset()"/>
                <g id="arrowUp" xlink:href="#dirArrow" transform="translate(30 24)" onmousedown="handlePan(0,-1)">
                  <use xlink:href="#rim" fill="#404040">
                        <set attributeName="fill" to="#808080" begin="arrowUp.mouseover" end="arrowUp.mouseout"/>
                  </use>
                  <path fill="none" stroke="white" stroke-width="1.5" d="M0,-3.0v7 M-2.5,-0.5L0,-3.0L2.5,-0.5"/>
                </g>
                <g id="arrowRight" xlink:href="#dirArrow" transform="rotate(90) translate(36 -43)" onmousedown="handlePan(1,0)">
                  <use xlink:href="#rim" fill="#404040">
                        <set attributeName="fill" to="#808080" begin="arrowRight.mouseover" end="arrowRight.mouseout"/>
                  </use>
                  <path fill="none" stroke="white" stroke-width="1.5" d="M0,-3.0v7 M-2.5,-0.5L0,-3.0L2.5,-0.5"/>
                </g>
                <g id="arrowDown" xlink:href="#dirArrow" transform="rotate(180) translate(-30 -48)" onmousedown="handlePan(0,1)">
                  <use xlink:href="#rim" fill="#404040">
                        <set attributeName="fill" to="#808080" begin="arrowDown.mouseover" end="arrowDown.mouseout"/>
                  </use>
                  <path fill="none" stroke="white" stroke-width="1.5" d="M0,-3.0v7 M-2.5,-0.5L0,-3.0L2.5,-0.5"/>
                </g>
                <g id="arrowLeft" xlink:href="#dirArrow" transform="rotate(270) translate(-36 17)" onmousedown="handlePan(-1,0)">
                  <use xlink:href="#rim" fill="#404040">
                        <set attributeName="fill" to="#808080" begin="arrowLeft.mouseover" end="arrowLeft.mouseout"/>
                  </use>
                  <path fill="none" stroke="white" stroke-width="1.5" d="M0,-3.0v7 M-2.5,-0.5L0,-3.0L2.5,-0.5"/>
                </g>
        </g>
        <svg viewBox="0 0 15 15" width="100%" height="30px" preserveAspectRatio="xMaxYMin meet">
         <g id="arrow_out" transform="scale(0.3 0.3)">
          <a xlink:href="classMap_ab6685363fde5a50c749adab9df96c231_icgraph_org.svg" target="_base">
           <rect id="button" ry="5" rx="5" y="6" x="6" height="38" width="38"
                fill="#f2f5e9" fill-opacity="0.5" stroke="#606060" stroke-width="1.0"/>
           <path id="arrow"
             d="M 11.500037,31.436501 C 11.940474,20.09759 22.043105,11.32322 32.158766,21.979434 L 37.068811,17.246167 C 37.068811,17.246167 37.088388,32 37.088388,32 L 22.160133,31.978069 C 22.160133,31.978069 26.997745,27.140456 26.997745,27.140456 C 18.528582,18.264221 13.291696,25.230495 11.500037,31.436501 z"
             style="fill:#404040;"/>
          </a>
         </g>
        </svg>
</svg>
