<?xml version="1.0" encoding="UTF-8" standalone="no"?>
<!DOCTYPE svg PUBLIC "-//W3C//DTD SVG 1.1//EN"
 "http://www.w3.org/Graphics/SVG/1.1/DTD/svg11.dtd">
<!-- Generated by graphviz version 2.40.1 (20161225.0304)
 -->
<!-- Title: ButtonGroup::onMouseButtonUp Pages: 1 -->
<svg width="959pt" height="111pt"
 viewBox="0.00 0.00 959.00 110.50" xmlns="http://www.w3.org/2000/svg" xmlns:xlink="http://www.w3.org/1999/xlink">
<g id="graph0" class="graph" transform="scale(1 1) rotate(0) translate(4 106.5)">
<title>ButtonGroup::onMouseButtonUp</title>
<!-- Node12 -->
<g id="node1" class="node">
<title>Node12</title>
<polygon fill="#bfbfbf" stroke="#000000" points="0,-44.5 0,-63.5 173,-63.5 173,-44.5 0,-44.5"/>
<text text-anchor="middle" x="86.5" y="-51.5" font-family="Helvetica,sans-Serif" font-size="10.00" fill="#000000">ButtonGroup::onMouseButtonUp</text>
</g>
<!-- Node13 -->
<g id="node2" class="node">
<title>Node13</title>
<g id="a_node2"><a xlink:href="classButtonGroup.html#aa1a05dec9459ad23e5d7028fa9d35850" target="_top" xlink:title="Function to call the uncheck event of buttons. Function to call the uncheck event of buttons...">
<polygon fill="none" stroke="#000000" points="209,-44.5 209,-63.5 384,-63.5 384,-44.5 209,-44.5"/>
<text text-anchor="middle" x="296.5" y="-51.5" font-family="Helvetica,sans-Serif" font-size="10.00" fill="#000000">ButtonGroup::uncheckAllButtons</text>
</a>
</g>
</g>
<!-- Node12&#45;&gt;Node13 -->
<g id="edge1" class="edge">
<title>Node12&#45;&gt;Node13</title>
<path fill="none" stroke="#191970" d="M173.1275,-54C181.4811,-54 189.9948,-54 198.4483,-54"/>
<polygon fill="#191970" stroke="#191970" points="198.7149,-57.5001 208.7149,-54 198.7148,-50.5001 198.7149,-57.5001"/>
</g>
<!-- Node14 -->
<g id="node3" class="node">
<title>Node14</title>
<g id="a_node3"><a xlink:href="classSingleton.html#af5cb1e5749949e2b68416cfb8d378044" target="_top" xlink:title="Get an instance of the singleton. ">
<polygon fill="none" stroke="#000000" points="815.5,-72 815.5,-102 941.5,-102 941.5,-72 815.5,-72"/>
<text text-anchor="start" x="823.5" y="-90" font-family="Helvetica,sans-Serif" font-size="10.00" fill="#000000">Singleton&lt; UIManager</text>
<text text-anchor="middle" x="878.5" y="-79" font-family="Helvetica,sans-Serif" font-size="10.00" fill="#000000"> &gt;::instance</text>
</a>
</g>
</g>
<!-- Node13&#45;&gt;Node14 -->
<g id="edge2" class="edge">
<title>Node13&#45;&gt;Node14</title>
<path fill="none" stroke="#191970" d="M334.3293,-63.5207C358.6299,-69.1723 390.9677,-75.835 420,-79 555.2673,-93.7465 714.2844,-92.3684 805.0467,-89.8233"/>
<polygon fill="#191970" stroke="#191970" points="805.338,-93.3164 815.2311,-89.5247 805.1328,-86.3194 805.338,-93.3164"/>
</g>
<!-- Node15 -->
<g id="node4" class="node">
<title>Node15</title>
<g id="a_node4"><a xlink:href="classUIManager.html#ae36c85bbe403bcf7f441174caedb6606" target="_top" xlink:title="Get the UiElements Of aroup get Elements that are in UiGroup (m_uiGroups) ">
<polygon fill="none" stroke="#000000" points="420,-39 420,-69 567,-69 567,-39 420,-39"/>
<text text-anchor="start" x="428" y="-57" font-family="Helvetica,sans-Serif" font-size="10.00" fill="#000000">UIManager::getUiElements</text>
<text text-anchor="middle" x="493.5" y="-46" font-family="Helvetica,sans-Serif" font-size="10.00" fill="#000000">OfGroup</text>
</a>
</g>
</g>
<!-- Node13&#45;&gt;Node15 -->
<g id="edge3" class="edge">
<title>Node13&#45;&gt;Node15</title>
<path fill="none" stroke="#191970" d="M384.0543,-54C392.5289,-54 401.113,-54 409.5513,-54"/>
<polygon fill="#191970" stroke="#191970" points="409.7549,-57.5001 419.7548,-54 409.7548,-50.5001 409.7549,-57.5001"/>
</g>
<!-- Node16 -->
<g id="node5" class="node">
<title>Node16</title>
<g id="a_node5"><a xlink:href="classButton.html#a25f11ea415fdbb64cb897421bf746918" target="_top" xlink:title="Button::setCheckState">
<polygon fill="none" stroke="#000000" points="431,-.5 431,-19.5 556,-19.5 556,-.5 431,-.5"/>
<text text-anchor="middle" x="493.5" y="-7.5" font-family="Helvetica,sans-Serif" font-size="10.00" fill="#000000">Button::setCheckState</text>
</a>
</g>
</g>
<!-- Node13&#45;&gt;Node16 -->
<g id="edge4" class="edge">
<title>Node13&#45;&gt;Node16</title>
<path fill="none" stroke="#191970" d="M339.2461,-44.4527C369.0627,-37.7931 409.0423,-28.8637 440.8284,-21.7642"/>
<polygon fill="#191970" stroke="#191970" points="441.8408,-25.1244 450.8374,-19.5287 440.3149,-18.2927 441.8408,-25.1244"/>
</g>
<!-- Node17 -->
<g id="node6" class="node">
<title>Node17</title>
<g id="a_node6"><a xlink:href="classUIElement.html#ade4162d6216022e143c769369b64add7" target="_top" xlink:title="Set the button state Sets the mouse button pressed state. ">
<polygon fill="none" stroke="#000000" points="603,-11.5 603,-30.5 770,-30.5 770,-11.5 603,-11.5"/>
<text text-anchor="middle" x="686.5" y="-18.5" font-family="Helvetica,sans-Serif" font-size="10.00" fill="#000000">UIElement::changeButtonState</text>
</a>
</g>
</g>
<!-- Node16&#45;&gt;Node17 -->
<g id="edge5" class="edge">
<title>Node16&#45;&gt;Node17</title>
<path fill="none" stroke="#191970" d="M556.1616,-13.5714C567.7703,-14.233 580.1271,-14.9373 592.4311,-15.6386"/>
<polygon fill="#191970" stroke="#191970" points="592.5535,-19.1511 602.7365,-16.2259 592.9519,-12.1625 592.5535,-19.1511"/>
</g>
<!-- Node17&#45;&gt;Node14 -->
<g id="edge7" class="edge">
<title>Node17&#45;&gt;Node14</title>
<path fill="none" stroke="#191970" d="M714.4184,-30.597C743.2239,-40.4988 788.8781,-56.1925 824.7239,-68.5145"/>
<polygon fill="#191970" stroke="#191970" points="823.9573,-71.9519 834.552,-71.8929 826.2329,-65.3321 823.9573,-71.9519"/>
</g>
<!-- Node18 -->
<g id="node7" class="node">
<title>Node18</title>
<g id="a_node7"><a xlink:href="classUIElement.html#afdf67550d4140097c7a328d4b22fc1fe" target="_top" xlink:title="UIElement::changeTexture">
<polygon fill="none" stroke="#000000" points="806,-11.5 806,-30.5 951,-30.5 951,-11.5 806,-11.5"/>
<text text-anchor="middle" x="878.5" y="-18.5" font-family="Helvetica,sans-Serif" font-size="10.00" fill="#000000">UIElement::changeTexture</text>
</a>
</g>
</g>
<!-- Node17&#45;&gt;Node18 -->
<g id="edge6" class="edge">
<title>Node17&#45;&gt;Node18</title>
<path fill="none" stroke="#191970" d="M770.1555,-21C778.633,-21 787.2412,-21 795.7095,-21"/>
<polygon fill="#191970" stroke="#191970" points="795.9516,-24.5001 805.9515,-21 795.9515,-17.5001 795.9516,-24.5001"/>
</g>
</g>
</svg>
