<?xml version="1.0" encoding="UTF-8" standalone="no"?>
<!DOCTYPE svg PUBLIC "-//W3C//DTD SVG 1.1//EN"
 "http://www.w3.org/Graphics/SVG/1.1/DTD/svg11.dtd">
<!-- Generated by graphviz version 2.40.1 (20161225.0304)
 -->
<!-- Title: Engine::quitGame Pages: 1 -->
<svg width="671pt" height="85pt"
 viewBox="0.00 0.00 671.00 85.00" xmlns="http://www.w3.org/2000/svg" xmlns:xlink="http://www.w3.org/1999/xlink">
<g id="graph0" class="graph" transform="scale(1 1) rotate(0) translate(4 81)">
<title>Engine::quitGame</title>
<!-- Node131 -->
<g id="node1" class="node">
<title>Node131</title>
<polygon fill="#bfbfbf" stroke="#000000" points="0,-19.5 0,-38.5 104,-38.5 104,-19.5 0,-19.5"/>
<text text-anchor="middle" x="52" y="-26.5" font-family="Helvetica,sans-Serif" font-size="10.00" fill="#000000">Engine::quitGame</text>
</g>
<!-- Node132 -->
<g id="node2" class="node">
<title>Node132</title>
<g id="a_node2"><a xlink:href="classEventManager.html#a65ec91fd5016d4f9c4167fb8babed2df" target="_top" xlink:title="EventManager::checkEvents">
<polygon fill="none" stroke="#000000" points="152,-57.5 152,-76.5 306,-76.5 306,-57.5 152,-57.5"/>
<text text-anchor="middle" x="229" y="-64.5" font-family="Helvetica,sans-Serif" font-size="10.00" fill="#000000">EventManager::checkEvents</text>
</a>
</g>
</g>
<!-- Node131&#45;&gt;Node132 -->
<g id="edge1" class="edge">
<title>Node131&#45;&gt;Node132</title>
<path fill="none" stroke="#191970" d="M106.3541,-40.7562C117.4832,-43.1575 129.119,-45.6639 140,-48 154.3662,-51.0844 170.0401,-54.4352 184.1756,-57.4519"/>
<polygon fill="#191970" stroke="#191970" points="106.8256,-37.2774 96.3121,-38.5884 105.3484,-44.1198 106.8256,-37.2774"/>
</g>
<!-- Node136 -->
<g id="node6" class="node">
<title>Node136</title>
<g id="a_node6"><a xlink:href="classUIManager.html#aa78e356fc3b356d790c848319d1c387e" target="_top" xlink:title="UIManager::setCallbackFunctions">
<polygon fill="none" stroke="#000000" points="140,-19.5 140,-38.5 318,-38.5 318,-19.5 140,-19.5"/>
<text text-anchor="middle" x="229" y="-26.5" font-family="Helvetica,sans-Serif" font-size="10.00" fill="#000000">UIManager::setCallbackFunctions</text>
</a>
</g>
</g>
<!-- Node131&#45;&gt;Node136 -->
<g id="edge5" class="edge">
<title>Node131&#45;&gt;Node136</title>
<path fill="none" stroke="#191970" d="M114.3639,-29C122.5875,-29 131.1418,-29 139.706,-29"/>
<polygon fill="#191970" stroke="#191970" points="114.1485,-25.5001 104.1485,-29 114.1485,-32.5001 114.1485,-25.5001"/>
</g>
<!-- Node137 -->
<g id="node7" class="node">
<title>Node137</title>
<g id="a_node7"><a xlink:href="classGame.html#a5ed7fc5be77080f7f6dd5363f7f007a1" target="_top" xlink:title="initializes and displays the main menu initializes and displays the main menu ">
<polygon fill="none" stroke="#000000" points="354,-.5 354,-19.5 457,-19.5 457,-.5 354,-.5"/>
<text text-anchor="middle" x="405.5" y="-7.5" font-family="Helvetica,sans-Serif" font-size="10.00" fill="#000000">Game::mainMenu</text>
</a>
</g>
</g>
<!-- Node131&#45;&gt;Node137 -->
<g id="edge6" class="edge">
<title>Node131&#45;&gt;Node137</title>
<path fill="none" stroke="#191970" d="M97.7147,-17.2021C111.234,-14.2379 126.1292,-11.4804 140,-10 214.021,-2.1001 300.313,-4.1677 353.9342,-6.7706"/>
<polygon fill="#191970" stroke="#191970" points="96.6549,-13.8539 87.6844,-19.4914 98.2125,-20.6784 96.6549,-13.8539"/>
</g>
<!-- Node133 -->
<g id="node3" class="node">
<title>Node133</title>
<g id="a_node3"><a xlink:href="classGame.html#a1c2ab25d5216b2f4b2fe41efd2c09114" target="_top" xlink:title="begins the game starts running the game ">
<polygon fill="none" stroke="#000000" points="371.5,-47.5 371.5,-66.5 439.5,-66.5 439.5,-47.5 371.5,-47.5"/>
<text text-anchor="middle" x="405.5" y="-54.5" font-family="Helvetica,sans-Serif" font-size="10.00" fill="#000000">Game::run</text>
</a>
</g>
</g>
<!-- Node132&#45;&gt;Node133 -->
<g id="edge2" class="edge">
<title>Node132&#45;&gt;Node133</title>
<path fill="none" stroke="#191970" d="M316.3664,-62.0501C335.9355,-60.9413 355.5625,-59.8293 371.398,-58.9321"/>
<polygon fill="#191970" stroke="#191970" points="315.9447,-58.5682 306.1587,-62.6284 316.3407,-65.557 315.9447,-58.5682"/>
</g>
<!-- Node134 -->
<g id="node4" class="node">
<title>Node134</title>
<g id="a_node4"><a xlink:href="main_8cxx.html#af582d708d899e67ead623eac34a22387" target="_top" xlink:title="protected_main">
<polygon fill="none" stroke="#000000" points="493,-19.5 493,-38.5 586,-38.5 586,-19.5 493,-19.5"/>
<text text-anchor="middle" x="539.5" y="-26.5" font-family="Helvetica,sans-Serif" font-size="10.00" fill="#000000">protected_main</text>
</a>
</g>
</g>
<!-- Node133&#45;&gt;Node134 -->
<g id="edge3" class="edge">
<title>Node133&#45;&gt;Node134</title>
<path fill="none" stroke="#191970" d="M449.6996,-47.7643C463.9237,-44.7921 479.7045,-41.4946 494.0191,-38.5035"/>
<polygon fill="#191970" stroke="#191970" points="448.7333,-44.3905 439.6606,-49.862 450.1651,-51.2425 448.7333,-44.3905"/>
</g>
<!-- Node135 -->
<g id="node5" class="node">
<title>Node135</title>
<g id="a_node5"><a xlink:href="main_8cxx.html#a3c04138a5bfe5d72780bb7e82a18e627" target="_top" xlink:title="main">
<polygon fill="none" stroke="#000000" points="622,-19.5 622,-38.5 663,-38.5 663,-19.5 622,-19.5"/>
<text text-anchor="middle" x="642.5" y="-26.5" font-family="Helvetica,sans-Serif" font-size="10.00" fill="#000000">main</text>
</a>
</g>
</g>
<!-- Node134&#45;&gt;Node135 -->
<g id="edge4" class="edge">
<title>Node134&#45;&gt;Node135</title>
<path fill="none" stroke="#191970" d="M596.2133,-29C605.4322,-29 614.4259,-29 621.9965,-29"/>
<polygon fill="#191970" stroke="#191970" points="596.1782,-25.5001 586.1782,-29 596.1781,-32.5001 596.1782,-25.5001"/>
</g>
<!-- Node137&#45;&gt;Node134 -->
<g id="edge7" class="edge">
<title>Node137&#45;&gt;Node134</title>
<path fill="none" stroke="#191970" d="M467.2457,-18.755C475.7846,-19.9657 484.438,-21.1927 492.6465,-22.3566"/>
<polygon fill="#191970" stroke="#191970" points="467.7003,-15.2845 457.3079,-17.3459 466.7175,-22.2152 467.7003,-15.2845"/>
</g>
</g>
</svg>
