<?xml version="1.0" encoding="UTF-8" standalone="no"?>
<!DOCTYPE svg PUBLIC "-//W3C//DTD SVG 1.1//EN"
 "http://www.w3.org/Graphics/SVG/1.1/DTD/svg11.dtd">
<!-- Generated by graphviz version 2.40.1 (20161225.0304)
 -->
<!-- Title: Map::isPlacementOnNodeAllowed Pages: 1 -->
<!--zoomable 47 -->
<svg id="main" version="1.1" xmlns="http://www.w3.org/2000/svg" xmlns:xlink="http://www.w3.org/1999/xlink" xml:space="preserve" onload="init(evt)">
<style type="text/css"><![CDATA[
.edge:hover path { stroke: red; }
.edge:hover polygon { stroke: red; fill: red; }
]]></style>
<script type="text/javascript"><![CDATA[
var edges = document.getElementsByTagName('g');
if (edges && edges.length) {
  for (var i=0;i<edges.length;i++) {
    if (edges[i].id.substr(0,4)=='edge') {
      edges[i].setAttribute('class','edge');
    }
  }
}
]]></script>
        <defs>
                <circle id="rim" cx="0" cy="0" r="7"/>
                <circle id="rim2" cx="0" cy="0" r="3.5"/>
                <g id="zoomPlus">
                        <use xlink:href="#rim" fill="#404040">
                                <set attributeName="fill" to="#808080" begin="zoomplus.mouseover" end="zoomplus.mouseout"/>
                        </use>
                        <path d="M-4,0h8M0,-4v8" fill="none" stroke="white" stroke-width="1.5" pointer-events="none"/>
                </g>
                <g id="zoomMin">
                        <use xlink:href="#rim" fill="#404040">
                                <set attributeName="fill" to="#808080" begin="zoomminus.mouseover" end="zoomminus.mouseout"/>
                        </use>
                        <path d="M-4,0h8" fill="none" stroke="white" stroke-width="1.5" pointer-events="none"/>
                </g>
                <g id="dirArrow">
                        <path fill="none" stroke="white" stroke-width="1.5" d="M0,-3.0v7 M-2.5,-0.5L0,-3.0L2.5,-0.5"/>
                </g>
               <g id="resetDef">
                       <use xlink:href="#rim2" fill="#404040">
                               <set attributeName="fill" to="#808080" begin="reset.mouseover" end="reset.mouseout"/>
                       </use>
               </g>
        </defs>

<script type="text/javascript">
var viewWidth = 1020;
var viewHeight = 47;
var sectionId = 'dynsection-34';
</script>
<script xlink:href="svgpan.js"/>
<svg id="graph" class="graph">
<g id="viewport">
<title>Map::isPlacementOnNodeAllowed</title>
<!-- Node384 -->
<g id="node1" class="node">
<title>Node384</title>
<polygon fill="#bfbfbf" stroke="#000000" points="0,-19.5 0,-38.5 181,-38.5 181,-19.5 0,-19.5"/>
<text text-anchor="middle" x="90.5" y="-26.5" font-family="Helvetica,sans-Serif" font-size="10.00" fill="#000000">Map::isPlacementOnNodeAllowed</text>
</g>
<!-- Node385 -->
<g id="node2" class="node">
<title>Node385</title>
<g id="a_node2"><a xlink:href="classEventManager.html#a65ec91fd5016d4f9c4167fb8babed2df" target="_top" xlink:title="EventManager::checkEvents">
<polygon fill="none" stroke="#000000" points="548,-19.5 548,-38.5 702,-38.5 702,-19.5 548,-19.5"/>
<text text-anchor="middle" x="625" y="-26.5" font-family="Helvetica,sans-Serif" font-size="10.00" fill="#000000">EventManager::checkEvents</text>
</a>
</g>
</g>
<!-- Node384&#45;&gt;Node385 -->
<g id="edge1" class="edge">
<title>Node384&#45;&gt;Node385</title>
<path fill="none" stroke="#191970" d="M191.3269,-29C294.8808,-29 453.8118,-29 547.7876,-29"/>
<polygon fill="#191970" stroke="#191970" points="191.1707,-25.5001 181.1706,-29 191.1706,-32.5001 191.1707,-25.5001"/>
</g>
<!-- Node389 -->
<g id="node6" class="node">
<title>Node389</title>
<g id="a_node6"><a xlink:href="classMap.html#a404c38b33d61f8c63ce2c2efb864d6dd" target="_top" xlink:title="Set the Tile ID Of Node object Also invokes all necessary texture updates (auto&#45;tiling, slopes, ...) ">
<polygon fill="none" stroke="#000000" points="217,-.5 217,-19.5 340,-19.5 340,-.5 217,-.5"/>
<text text-anchor="middle" x="278.5" y="-7.5" font-family="Helvetica,sans-Serif" font-size="10.00" fill="#000000">Map::setTileIDOfNode</text>
</a>
</g>
</g>
<!-- Node384&#45;&gt;Node389 -->
<g id="edge5" class="edge">
<title>Node384&#45;&gt;Node389</title>
<path fill="none" stroke="#191970" d="M191.4154,-18.8011C200.1052,-17.9229 208.7158,-17.0527 216.9479,-16.2207"/>
<polygon fill="#191970" stroke="#191970" points="190.7933,-15.3461 181.1959,-19.8339 191.4972,-22.3106 190.7933,-15.3461"/>
</g>
<!-- Node386 -->
<g id="node3" class="node">
<title>Node386</title>
<g id="a_node3"><a xlink:href="classGame.html#a1c2ab25d5216b2f4b2fe41efd2c09114" target="_top" xlink:title="begins the game starts running the game ">
<polygon fill="none" stroke="#000000" points="738,-19.5 738,-38.5 806,-38.5 806,-19.5 738,-19.5"/>
<text text-anchor="middle" x="772" y="-26.5" font-family="Helvetica,sans-Serif" font-size="10.00" fill="#000000">Game::run</text>
</a>
</g>
</g>
<!-- Node385&#45;&gt;Node386 -->
<g id="edge2" class="edge">
<title>Node385&#45;&gt;Node386</title>
<path fill="none" stroke="#191970" d="M712.5248,-29C721.4338,-29 730.0572,-29 737.845,-29"/>
<polygon fill="#191970" stroke="#191970" points="712.3744,-25.5001 702.3744,-29 712.3743,-32.5001 712.3744,-25.5001"/>
</g>
<!-- Node387 -->
<g id="node4" class="node">
<title>Node387</title>
<g id="a_node4"><a xlink:href="main_8cxx.html#af582d708d899e67ead623eac34a22387" target="_top" xlink:title="protected_main">
<polygon fill="none" stroke="#000000" points="842,-19.5 842,-38.5 935,-38.5 935,-19.5 842,-19.5"/>
<text text-anchor="middle" x="888.5" y="-26.5" font-family="Helvetica,sans-Serif" font-size="10.00" fill="#000000">protected_main</text>
</a>
</g>
</g>
<!-- Node386&#45;&gt;Node387 -->
<g id="edge3" class="edge">
<title>Node386&#45;&gt;Node387</title>
<path fill="none" stroke="#191970" d="M816.2653,-29C824.5757,-29 833.2897,-29 841.6749,-29"/>
<polygon fill="#191970" stroke="#191970" points="816.0098,-25.5001 806.0098,-29 816.0098,-32.5001 816.0098,-25.5001"/>
</g>
<!-- Node388 -->
<g id="node5" class="node">
<title>Node388</title>
<g id="a_node5"><a xlink:href="main_8cxx.html#a3c04138a5bfe5d72780bb7e82a18e627" target="_top" xlink:title="main">
<polygon fill="none" stroke="#000000" points="971,-19.5 971,-38.5 1012,-38.5 1012,-19.5 971,-19.5"/>
<text text-anchor="middle" x="991.5" y="-26.5" font-family="Helvetica,sans-Serif" font-size="10.00" fill="#000000">main</text>
</a>
</g>
</g>
<!-- Node387&#45;&gt;Node388 -->
<g id="edge4" class="edge">
<title>Node387&#45;&gt;Node388</title>
<path fill="none" stroke="#191970" d="M945.2133,-29C954.4322,-29 963.4259,-29 970.9965,-29"/>
<polygon fill="#191970" stroke="#191970" points="945.1782,-25.5001 935.1782,-29 945.1781,-32.5001 945.1782,-25.5001"/>
</g>
<!-- Node390 -->
<g id="node7" class="node">
<title>Node390</title>
<g id="a_node7"><a xlink:href="classEngine.html#a7a1521fd7fc731f961ebaf3f723127d9" target="_top" xlink:title="Engine::setTileIDOfNode">
<polygon fill="none" stroke="#000000" points="376,-.5 376,-19.5 512,-19.5 512,-.5 376,-.5"/>
<text text-anchor="middle" x="444" y="-7.5" font-family="Helvetica,sans-Serif" font-size="10.00" fill="#000000">Engine::setTileIDOfNode</text>
</a>
</g>
</g>
<!-- Node389&#45;&gt;Node390 -->
<g id="edge6" class="edge">
<title>Node389&#45;&gt;Node390</title>
<path fill="none" stroke="#191970" d="M350.3736,-10C358.858,-10 367.4976,-10 375.9273,-10"/>
<polygon fill="#191970" stroke="#191970" points="350.1261,-6.5001 340.1261,-10 350.1261,-13.5001 350.1261,-6.5001"/>
</g>
<!-- Node390&#45;&gt;Node385 -->
<g id="edge7" class="edge">
<title>Node390&#45;&gt;Node385</title>
<path fill="none" stroke="#191970" d="M522.3623,-18.2259C530.7925,-19.1108 539.3658,-20.0108 547.7824,-20.8943"/>
<polygon fill="#191970" stroke="#191970" points="522.4812,-14.7192 512.1704,-17.156 521.7504,-21.681 522.4812,-14.7192"/>
</g>
</g>
</svg>
        <g id="navigator" transform="translate(0 0)" fill="#404254">
                <rect fill="#f2f5e9" fill-opacity="0.5" stroke="#606060" stroke-width=".5" x="0" y="0" width="60" height="60"/>
                <use id="zoomplus" xlink:href="#zoomPlus" x="17" y="9" onmousedown="handleZoom(evt,'in')"/>
                <use id="zoomminus" xlink:href="#zoomMin" x="42" y="9" onmousedown="handleZoom(evt,'out')"/>
                <use id="reset" xlink:href="#resetDef" x="30" y="36" onmousedown="handleReset()"/>
                <g id="arrowUp" xlink:href="#dirArrow" transform="translate(30 24)" onmousedown="handlePan(0,-1)">
                  <use xlink:href="#rim" fill="#404040">
                        <set attributeName="fill" to="#808080" begin="arrowUp.mouseover" end="arrowUp.mouseout"/>
                  </use>
                  <path fill="none" stroke="white" stroke-width="1.5" d="M0,-3.0v7 M-2.5,-0.5L0,-3.0L2.5,-0.5"/>
                </g>
                <g id="arrowRight" xlink:href="#dirArrow" transform="rotate(90) translate(36 -43)" onmousedown="handlePan(1,0)">
                  <use xlink:href="#rim" fill="#404040">
                        <set attributeName="fill" to="#808080" begin="arrowRight.mouseover" end="arrowRight.mouseout"/>
                  </use>
                  <path fill="none" stroke="white" stroke-width="1.5" d="M0,-3.0v7 M-2.5,-0.5L0,-3.0L2.5,-0.5"/>
                </g>
                <g id="arrowDown" xlink:href="#dirArrow" transform="rotate(180) translate(-30 -48)" onmousedown="handlePan(0,1)">
                  <use xlink:href="#rim" fill="#404040">
                        <set attributeName="fill" to="#808080" begin="arrowDown.mouseover" end="arrowDown.mouseout"/>
                  </use>
                  <path fill="none" stroke="white" stroke-width="1.5" d="M0,-3.0v7 M-2.5,-0.5L0,-3.0L2.5,-0.5"/>
                </g>
                <g id="arrowLeft" xlink:href="#dirArrow" transform="rotate(270) translate(-36 17)" onmousedown="handlePan(-1,0)">
                  <use xlink:href="#rim" fill="#404040">
                        <set attributeName="fill" to="#808080" begin="arrowLeft.mouseover" end="arrowLeft.mouseout"/>
                  </use>
                  <path fill="none" stroke="white" stroke-width="1.5" d="M0,-3.0v7 M-2.5,-0.5L0,-3.0L2.5,-0.5"/>
                </g>
        </g>
        <svg viewBox="0 0 15 15" width="100%" height="30px" preserveAspectRatio="xMaxYMin meet">
         <g id="arrow_out" transform="scale(0.3 0.3)">
          <a xlink:href="classMap_a609379595b9b172ad3d0e6363817c00f_icgraph_org.svg" target="_base">
           <rect id="button" ry="5" rx="5" y="6" x="6" height="38" width="38"
                fill="#f2f5e9" fill-opacity="0.5" stroke="#606060" stroke-width="1.0"/>
           <path id="arrow"
             d="M 11.500037,31.436501 C 11.940474,20.09759 22.043105,11.32322 32.158766,21.979434 L 37.068811,17.246167 C 37.068811,17.246167 37.088388,32 37.088388,32 L 22.160133,31.978069 C 22.160133,31.978069 26.997745,27.140456 26.997745,27.140456 C 18.528582,18.264221 13.291696,25.230495 11.500037,31.436501 z"
             style="fill:#404040;"/>
          </a>
         </g>
        </svg>
</svg>
