<?xml version="1.0" encoding="UTF-8" standalone="no"?>
<!DOCTYPE svg PUBLIC "-//W3C//DTD SVG 1.1//EN"
 "http://www.w3.org/Graphics/SVG/1.1/DTD/svg11.dtd">
<!-- Generated by graphviz version 2.40.1 (20161225.0304)
 -->
<!-- Title: Map::isNodeMultiObject Pages: 1 -->
<svg width="481pt" height="72pt"
 viewBox="0.00 0.00 481.00 71.50" xmlns="http://www.w3.org/2000/svg" xmlns:xlink="http://www.w3.org/1999/xlink">
<g id="graph0" class="graph" transform="scale(1 1) rotate(0) translate(4 67.5)">
<title>Map::isNodeMultiObject</title>
<!-- Node356 -->
<g id="node1" class="node">
<title>Node356</title>
<polygon fill="#bfbfbf" stroke="#000000" points="0,-19.5 0,-38.5 132,-38.5 132,-19.5 0,-19.5"/>
<text text-anchor="middle" x="66" y="-26.5" font-family="Helvetica,sans-Serif" font-size="10.00" fill="#000000">Map::isNodeMultiObject</text>
</g>
<!-- Node357 -->
<g id="node2" class="node">
<title>Node357</title>
<g id="a_node2"><a xlink:href="isoMath_8cxx.html#a7fa61c3d8ef446fb1c48dc4838023649" target="_top" xlink:title="Check if given coordinates are within map boundaries Checks if coordinates are within map boundaries...">
<polygon fill="none" stroke="#000000" points="168,-38.5 168,-57.5 324,-57.5 324,-38.5 168,-38.5"/>
<text text-anchor="middle" x="246" y="-45.5" font-family="Helvetica,sans-Serif" font-size="10.00" fill="#000000">isPointWithinMapBoundaries</text>
</a>
</g>
</g>
<!-- Node356&#45;&gt;Node357 -->
<g id="edge1" class="edge">
<title>Node356&#45;&gt;Node357</title>
<path fill="none" stroke="#191970" d="M132.0033,-35.967C140.3688,-36.85 149.0327,-37.7646 157.6759,-38.6769"/>
<polygon fill="#191970" stroke="#191970" points="157.4816,-42.1758 167.7938,-39.7449 158.2165,-35.2144 157.4816,-42.1758"/>
</g>
<!-- Node359 -->
<g id="node4" class="node">
<title>Node359</title>
<g id="a_node4"><a xlink:href="classMapNode.html#adf88174897b884c97d327e710dea7f5e" target="_top" xlink:title="MapNode::getTileData">
<polygon fill="none" stroke="#000000" points="183.5,-.5 183.5,-19.5 308.5,-19.5 308.5,-.5 183.5,-.5"/>
<text text-anchor="middle" x="246" y="-7.5" font-family="Helvetica,sans-Serif" font-size="10.00" fill="#000000">MapNode::getTileData</text>
</a>
</g>
</g>
<!-- Node356&#45;&gt;Node359 -->
<g id="edge3" class="edge">
<title>Node356&#45;&gt;Node359</title>
<path fill="none" stroke="#191970" d="M132.0033,-22.033C145.3558,-20.6236 159.4685,-19.1339 173.0442,-17.7009"/>
<polygon fill="#191970" stroke="#191970" points="173.7221,-21.1489 183.2994,-16.6184 172.9872,-14.1875 173.7221,-21.1489"/>
</g>
<!-- Node358 -->
<g id="node3" class="node">
<title>Node358</title>
<g id="a_node3"><a xlink:href="classSingleton.html#af5cb1e5749949e2b68416cfb8d378044" target="_top" xlink:title="Get an instance of the singleton. ">
<polygon fill="none" stroke="#000000" points="360,-33 360,-63 473,-63 473,-33 360,-33"/>
<text text-anchor="start" x="368" y="-51" font-family="Helvetica,sans-Serif" font-size="10.00" fill="#000000">Singleton&lt; Settings</text>
<text text-anchor="middle" x="416.5" y="-40" font-family="Helvetica,sans-Serif" font-size="10.00" fill="#000000"> &gt;::instance</text>
</a>
</g>
</g>
<!-- Node357&#45;&gt;Node358 -->
<g id="edge2" class="edge">
<title>Node357&#45;&gt;Node358</title>
<path fill="none" stroke="#191970" d="M324.2638,-48C332.635,-48 341.0967,-48 349.323,-48"/>
<polygon fill="#191970" stroke="#191970" points="349.5927,-51.5001 359.5927,-48 349.5926,-44.5001 349.5927,-51.5001"/>
</g>
</g>
</svg>
