<?xml version="1.0" encoding="UTF-8" standalone="no"?>
<!DOCTYPE svg PUBLIC "-//W3C//DTD SVG 1.1//EN"
 "http://www.w3.org/Graphics/SVG/1.1/DTD/svg11.dtd">
<!-- Generated by graphviz version 2.40.1 (20161225.0304)
 -->
<!-- Title: TerrainGenerator::generateTerrain Pages: 1 -->
<svg width="847pt" height="142pt"
 viewBox="0.00 0.00 847.00 142.00" xmlns="http://www.w3.org/2000/svg" xmlns:xlink="http://www.w3.org/1999/xlink">
<g id="graph0" class="graph" transform="scale(1 1) rotate(0) translate(4 138)">
<title>TerrainGenerator::generateTerrain</title>
<!-- Node7 -->
<g id="node1" class="node">
<title>Node7</title>
<polygon fill="#bfbfbf" stroke="#000000" points="0,-52 0,-82 148,-82 148,-52 0,-52"/>
<text text-anchor="start" x="8" y="-70" font-family="Helvetica,sans-Serif" font-size="10.00" fill="#000000">TerrainGenerator::generate</text>
<text text-anchor="middle" x="74" y="-59" font-family="Helvetica,sans-Serif" font-size="10.00" fill="#000000">Terrain</text>
</g>
<!-- Node8 -->
<g id="node2" class="node">
<title>Node8</title>
<g id="a_node2"><a xlink:href="classMap.html#a482ac34426e8aa66abb46f60ec329402" target="_top" xlink:title="Initialize the Map with node objects Initialize the Map with node objects. ">
<polygon fill="none" stroke="#000000" points="184,-57.5 184,-76.5 263,-76.5 263,-57.5 184,-57.5"/>
<text text-anchor="middle" x="223.5" y="-64.5" font-family="Helvetica,sans-Serif" font-size="10.00" fill="#000000">Map::initMap</text>
</a>
</g>
</g>
<!-- Node7&#45;&gt;Node8 -->
<g id="edge1" class="edge">
<title>Node7&#45;&gt;Node8</title>
<path fill="none" stroke="#191970" d="M158.3874,-67C167.2662,-67 175.9604,-67 183.9578,-67"/>
<polygon fill="#191970" stroke="#191970" points="158.312,-63.5001 148.312,-67 158.312,-70.5001 158.312,-63.5001"/>
</g>
<!-- Node9 -->
<g id="node3" class="node">
<title>Node9</title>
<g id="a_node3"><a xlink:href="classEngine.html#a260d4834150eae6eec2bde34df6dc827" target="_top" xlink:title="Creates a new game Creates a new game. ">
<polygon fill="none" stroke="#000000" points="299,-57.5 299,-76.5 404,-76.5 404,-57.5 299,-57.5"/>
<text text-anchor="middle" x="351.5" y="-64.5" font-family="Helvetica,sans-Serif" font-size="10.00" fill="#000000">Engine::newGame</text>
</a>
</g>
</g>
<!-- Node8&#45;&gt;Node9 -->
<g id="edge2" class="edge">
<title>Node8&#45;&gt;Node9</title>
<path fill="none" stroke="#191970" d="M273.4938,-67C281.7142,-67 290.2587,-67 298.5482,-67"/>
<polygon fill="#191970" stroke="#191970" points="273.2984,-63.5001 263.2984,-67 273.2983,-70.5001 273.2984,-63.5001"/>
</g>
<!-- Node10 -->
<g id="node4" class="node">
<title>Node10</title>
<g id="a_node4"><a xlink:href="classEngine.html#ab5a909990be40701ebb4b57c3e716ed4" target="_top" xlink:title="Engine::saveGame">
<polygon fill="none" stroke="#000000" points="440,-114.5 440,-133.5 548,-133.5 548,-114.5 440,-114.5"/>
<text text-anchor="middle" x="494" y="-121.5" font-family="Helvetica,sans-Serif" font-size="10.00" fill="#000000">Engine::saveGame</text>
</a>
</g>
</g>
<!-- Node9&#45;&gt;Node10 -->
<g id="edge3" class="edge">
<title>Node9&#45;&gt;Node10</title>
<path fill="none" stroke="#191970" d="M384.8522,-80.3409C410.9875,-90.795 446.7185,-105.0874 470.0709,-114.4284"/>
<polygon fill="#191970" stroke="#191970" points="385.936,-77.0048 375.3513,-76.5405 383.3362,-83.5042 385.936,-77.0048"/>
</g>
<!-- Node11 -->
<g id="node5" class="node">
<title>Node11</title>
<g id="a_node5"><a xlink:href="classUIManager.html#aa78e356fc3b356d790c848319d1c387e" target="_top" xlink:title="UIManager::setCallbackFunctions">
<polygon fill="none" stroke="#000000" points="584,-85.5 584,-104.5 762,-104.5 762,-85.5 584,-85.5"/>
<text text-anchor="middle" x="673" y="-92.5" font-family="Helvetica,sans-Serif" font-size="10.00" fill="#000000">UIManager::setCallbackFunctions</text>
</a>
</g>
</g>
<!-- Node9&#45;&gt;Node11 -->
<g id="edge5" class="edge">
<title>Node9&#45;&gt;Node11</title>
<path fill="none" stroke="#191970" d="M414.2308,-72.4633C462.5135,-76.6684 529.8789,-82.5353 583.7721,-87.229"/>
<polygon fill="#191970" stroke="#191970" points="414.4952,-68.9732 404.2292,-71.5923 413.8878,-75.9468 414.4952,-68.9732"/>
</g>
<!-- Node12 -->
<g id="node6" class="node">
<title>Node12</title>
<g id="a_node6"><a xlink:href="classGame.html#a5ed7fc5be77080f7f6dd5363f7f007a1" target="_top" xlink:title="initializes and displays the main menu initializes and displays the main menu ">
<polygon fill="none" stroke="#000000" points="442.5,-38.5 442.5,-57.5 545.5,-57.5 545.5,-38.5 442.5,-38.5"/>
<text text-anchor="middle" x="494" y="-45.5" font-family="Helvetica,sans-Serif" font-size="10.00" fill="#000000">Game::mainMenu</text>
</a>
</g>
</g>
<!-- Node9&#45;&gt;Node12 -->
<g id="edge6" class="edge">
<title>Node9&#45;&gt;Node12</title>
<path fill="none" stroke="#191970" d="M414.1522,-58.6464C423.4637,-57.4048 432.9741,-56.1368 442.0345,-54.9287"/>
<polygon fill="#191970" stroke="#191970" points="413.6066,-55.1881 404.1569,-59.9791 414.5318,-62.1267 413.6066,-55.1881"/>
</g>
<!-- Node15 -->
<g id="node9" class="node">
<title>Node15</title>
<g id="a_node9"><a xlink:href="classGame.html#a1c2ab25d5216b2f4b2fe41efd2c09114" target="_top" xlink:title="begins the game starts running the game ">
<polygon fill="none" stroke="#000000" points="460,-.5 460,-19.5 528,-19.5 528,-.5 460,-.5"/>
<text text-anchor="middle" x="494" y="-7.5" font-family="Helvetica,sans-Serif" font-size="10.00" fill="#000000">Game::run</text>
</a>
</g>
</g>
<!-- Node9&#45;&gt;Node15 -->
<g id="edge9" class="edge">
<title>Node9&#45;&gt;Node15</title>
<path fill="none" stroke="#191970" d="M382.1902,-53.2196C399.125,-45.7683 420.5973,-36.5691 440,-29 448.3329,-25.7493 457.481,-22.4359 465.8411,-19.5057"/>
<polygon fill="#191970" stroke="#191970" points="380.5208,-50.131 372.7934,-57.3793 383.3543,-56.5318 380.5208,-50.131"/>
</g>
<!-- Node10&#45;&gt;Node11 -->
<g id="edge4" class="edge">
<title>Node10&#45;&gt;Node11</title>
<path fill="none" stroke="#191970" d="M558.1852,-113.6013C576.4981,-110.6344 596.3517,-107.4179 614.318,-104.5071"/>
<polygon fill="#191970" stroke="#191970" points="557.5032,-110.1661 548.1917,-115.2203 558.6227,-117.076 557.5032,-110.1661"/>
</g>
<!-- Node13 -->
<g id="node7" class="node">
<title>Node13</title>
<g id="a_node7"><a xlink:href="main_8cxx.html#af582d708d899e67ead623eac34a22387" target="_top" xlink:title="protected_main">
<polygon fill="none" stroke="#000000" points="626.5,-28.5 626.5,-47.5 719.5,-47.5 719.5,-28.5 626.5,-28.5"/>
<text text-anchor="middle" x="673" y="-35.5" font-family="Helvetica,sans-Serif" font-size="10.00" fill="#000000">protected_main</text>
</a>
</g>
</g>
<!-- Node12&#45;&gt;Node13 -->
<g id="edge7" class="edge">
<title>Node12&#45;&gt;Node13</title>
<path fill="none" stroke="#191970" d="M555.8215,-44.5463C578.908,-43.2565 604.7198,-41.8145 626.2292,-40.6129"/>
<polygon fill="#191970" stroke="#191970" points="555.5634,-41.0552 545.7742,-45.1076 555.9539,-48.0443 555.5634,-41.0552"/>
</g>
<!-- Node14 -->
<g id="node8" class="node">
<title>Node14</title>
<g id="a_node8"><a xlink:href="main_8cxx.html#a3c04138a5bfe5d72780bb7e82a18e627" target="_top" xlink:title="main">
<polygon fill="none" stroke="#000000" points="798,-28.5 798,-47.5 839,-47.5 839,-28.5 798,-28.5"/>
<text text-anchor="middle" x="818.5" y="-35.5" font-family="Helvetica,sans-Serif" font-size="10.00" fill="#000000">main</text>
</a>
</g>
</g>
<!-- Node13&#45;&gt;Node14 -->
<g id="edge8" class="edge">
<title>Node13&#45;&gt;Node14</title>
<path fill="none" stroke="#191970" d="M729.8931,-38C753.7718,-38 780.0463,-38 797.7355,-38"/>
<polygon fill="#191970" stroke="#191970" points="729.838,-34.5001 719.838,-38 729.838,-41.5001 729.838,-34.5001"/>
</g>
<!-- Node15&#45;&gt;Node13 -->
<g id="edge10" class="edge">
<title>Node15&#45;&gt;Node13</title>
<path fill="none" stroke="#191970" d="M538.3122,-16.9315C565.0315,-21.1111 599.035,-26.4301 626.1909,-30.6779"/>
<polygon fill="#191970" stroke="#191970" points="538.5107,-13.4201 528.0899,-15.3325 537.4288,-20.336 538.5107,-13.4201"/>
</g>
</g>
</svg>
