<?xml version="1.0" encoding="UTF-8" standalone="no"?>
<!DOCTYPE svg PUBLIC "-//W3C//DTD SVG 1.1//EN"
 "http://www.w3.org/Graphics/SVG/1.1/DTD/svg11.dtd">
<!-- Generated by graphviz version 2.40.1 (20161225.0304)
 -->
<!-- Title: UIManager::setBuildMenuPosition Pages: 1 -->
<!--zoomable 320 -->
<svg id="main" version="1.1" xmlns="http://www.w3.org/2000/svg" xmlns:xlink="http://www.w3.org/1999/xlink" xml:space="preserve" onload="init(evt)">
<style type="text/css"><![CDATA[
.edge:hover path { stroke: red; }
.edge:hover polygon { stroke: red; fill: red; }
]]></style>
<script type="text/javascript"><![CDATA[
var edges = document.getElementsByTagName('g');
if (edges && edges.length) {
  for (var i=0;i<edges.length;i++) {
    if (edges[i].id.substr(0,4)=='edge') {
      edges[i].setAttribute('class','edge');
    }
  }
}
]]></script>
        <defs>
                <circle id="rim" cx="0" cy="0" r="7"/>
                <circle id="rim2" cx="0" cy="0" r="3.5"/>
                <g id="zoomPlus">
                        <use xlink:href="#rim" fill="#404040">
                                <set attributeName="fill" to="#808080" begin="zoomplus.mouseover" end="zoomplus.mouseout"/>
                        </use>
                        <path d="M-4,0h8M0,-4v8" fill="none" stroke="white" stroke-width="1.5" pointer-events="none"/>
                </g>
                <g id="zoomMin">
                        <use xlink:href="#rim" fill="#404040">
                                <set attributeName="fill" to="#808080" begin="zoomminus.mouseover" end="zoomminus.mouseout"/>
                        </use>
                        <path d="M-4,0h8" fill="none" stroke="white" stroke-width="1.5" pointer-events="none"/>
                </g>
                <g id="dirArrow">
                        <path fill="none" stroke="white" stroke-width="1.5" d="M0,-3.0v7 M-2.5,-0.5L0,-3.0L2.5,-0.5"/>
                </g>
               <g id="resetDef">
                       <use xlink:href="#rim2" fill="#404040">
                               <set attributeName="fill" to="#808080" begin="reset.mouseover" end="reset.mouseout"/>
                       </use>
               </g>
        </defs>

<script type="text/javascript">
var viewWidth = 1050;
var viewHeight = 320;
var sectionId = 'dynsection-21';
</script>
<script xlink:href="svgpan.js"/>
<svg id="graph" class="graph">
<g id="viewport">
<title>UIManager::setBuildMenuPosition</title>
<!-- Node167 -->
<g id="node1" class="node">
<title>Node167</title>
<polygon fill="#bfbfbf" stroke="#000000" points="0,-145 0,-164 180,-164 180,-145 0,-145"/>
<text text-anchor="middle" x="90" y="-152" font-family="Helvetica,sans-Serif" font-size="10.00" fill="#000000">UIManager::setBuildMenuPosition</text>
</g>
<!-- Node168 -->
<g id="node2" class="node">
<title>Node168</title>
<g id="a_node2"><a xlink:href="classSingleton.html#af5cb1e5749949e2b68416cfb8d378044" target="_top" xlink:title="Get an instance of the singleton. ">
<polygon fill="none" stroke="#000000" points="655,-205.5 655,-235.5 768,-235.5 768,-205.5 655,-205.5"/>
<text text-anchor="start" x="663" y="-223.5" font-family="Helvetica,sans-Serif" font-size="10.00" fill="#000000">Singleton&lt; Settings</text>
<text text-anchor="middle" x="711.5" y="-212.5" font-family="Helvetica,sans-Serif" font-size="10.00" fill="#000000"> &gt;::instance</text>
</a>
</g>
</g>
<!-- Node167&#45;&gt;Node168 -->
<g id="edge1" class="edge">
<title>Node167&#45;&gt;Node168</title>
<path fill="none" stroke="#191970" d="M105.6324,-164.1611C152.1737,-192.2541 294.7655,-273.5062 426,-298.5 497.6019,-312.1367 520.0586,-319.0182 590,-298.5 627.2742,-287.5651 663.9438,-261.2864 687.0818,-242.2475"/>
<polygon fill="#191970" stroke="#191970" points="689.577,-244.722 694.9702,-235.6025 685.0672,-239.3683 689.577,-244.722"/>
</g>
<!-- Node169 -->
<g id="node3" class="node">
<title>Node169</title>
<g id="a_node3"><a xlink:href="classComboBox.html#afddbdfd25efa15206eb724b641665cfc" target="_top" xlink:title="Get ID of selected element returns the ID of the selected element in the comboBox. ">
<polygon fill="none" stroke="#000000" points="236.5,-107 236.5,-126 369.5,-126 369.5,-107 236.5,-107"/>
<text text-anchor="middle" x="303" y="-114" font-family="Helvetica,sans-Serif" font-size="10.00" fill="#000000">ComboBox::getActiveID</text>
</a>
</g>
</g>
<!-- Node167&#45;&gt;Node169 -->
<g id="edge2" class="edge">
<title>Node167&#45;&gt;Node169</title>
<path fill="none" stroke="#191970" d="M143.474,-144.96C172.5923,-139.7652 208.8108,-133.3037 239.3743,-127.8511"/>
<polygon fill="#191970" stroke="#191970" points="240.2742,-131.2459 249.504,-126.0439 239.0447,-124.3547 240.2742,-131.2459"/>
</g>
<!-- Node171 -->
<g id="node5" class="node">
<title>Node171</title>
<g id="a_node5"><a xlink:href="classUIManager.html#af885d42286536573cd418ed008abfc07" target="_top" xlink:title="UIManager::setBuildMenuLayout">
<polygon fill="none" stroke="#000000" points="216,-50 216,-69 390,-69 390,-50 216,-50"/>
<text text-anchor="middle" x="303" y="-57" font-family="Helvetica,sans-Serif" font-size="10.00" fill="#000000">UIManager::setBuildMenuLayout</text>
</a>
</g>
</g>
<!-- Node167&#45;&gt;Node171 -->
<g id="edge4" class="edge">
<title>Node167&#45;&gt;Node171</title>
<path fill="none" stroke="#191970" d="M110.9192,-144.936C135.8877,-133.5441 178.9231,-113.9828 216,-97.5 234.3813,-89.3284 255.0101,-80.3115 271.5657,-73.1125"/>
<polygon fill="#191970" stroke="#191970" points="273.0169,-76.2982 280.7948,-69.1041 270.2282,-69.8776 273.0169,-76.2982"/>
</g>
<!-- Node174 -->
<g id="node8" class="node">
<title>Node174</title>
<g id="a_node8"><a xlink:href="classLayout.html#afa734c5af10f59f3dadb066054fe81ab" target="_top" xlink:title="Arrange the layout elements. ">
<polygon fill="none" stroke="#000000" points="233.5,-187 233.5,-206 372.5,-206 372.5,-187 233.5,-187"/>
<text text-anchor="middle" x="303" y="-194" font-family="Helvetica,sans-Serif" font-size="10.00" fill="#000000">Layout::arrangeElements</text>
</a>
</g>
</g>
<!-- Node167&#45;&gt;Node174 -->
<g id="edge7" class="edge">
<title>Node167&#45;&gt;Node174</title>
<path fill="none" stroke="#191970" d="M138.333,-164.0305C169.8125,-170.2377 211.0725,-178.3735 244.4159,-184.9482"/>
<polygon fill="#191970" stroke="#191970" points="244.0019,-188.4339 254.4901,-186.9347 245.3561,-181.5661 244.0019,-188.4339"/>
</g>
<!-- Node170 -->
<g id="node4" class="node">
<title>Node170</title>
<g id="a_node4"><a xlink:href="classComboBox.html#ad0dba514b01ed2bb3c41c738c80a7d6a" target="_top" xlink:title="Set ID of selected element sets the ID of the selected element in the comboBox. ">
<polygon fill="none" stroke="#000000" points="442,-88 442,-107 574,-107 574,-88 442,-88"/>
<text text-anchor="middle" x="508" y="-95" font-family="Helvetica,sans-Serif" font-size="10.00" fill="#000000">ComboBox::setActiveID</text>
</a>
</g>
</g>
<!-- Node169&#45;&gt;Node170 -->
<g id="edge3" class="edge">
<title>Node169&#45;&gt;Node170</title>
<path fill="none" stroke="#191970" d="M369.5576,-110.3312C389.3604,-108.4959 411.2126,-106.4705 431.5908,-104.5818"/>
<polygon fill="#191970" stroke="#191970" points="432.142,-108.0458 441.7763,-103.6378 431.496,-101.0757 432.142,-108.0458"/>
</g>
<!-- Node172 -->
<g id="node6" class="node">
<title>Node172</title>
<g id="a_node6"><a xlink:href="namespaceutils_1_1strings.html#a1460a4e19b93604e32bb76f8407c4221" target="_top" xlink:title="checks if a string ends with a certain substring ">
<polygon fill="none" stroke="#000000" points="444,-50 444,-69 572,-69 572,-50 444,-50"/>
<text text-anchor="middle" x="508" y="-57" font-family="Helvetica,sans-Serif" font-size="10.00" fill="#000000">utils::strings::endsWith</text>
</a>
</g>
</g>
<!-- Node171&#45;&gt;Node172 -->
<g id="edge5" class="edge">
<title>Node171&#45;&gt;Node172</title>
<path fill="none" stroke="#191970" d="M390.2357,-59.5C404.7049,-59.5 419.5891,-59.5 433.7001,-59.5"/>
<polygon fill="#191970" stroke="#191970" points="433.8215,-63.0001 443.8215,-59.5 433.8215,-56.0001 433.8215,-63.0001"/>
</g>
<!-- Node173 -->
<g id="node7" class="node">
<title>Node173</title>
<g id="a_node7"><a xlink:href="namespaceutils_1_1strings.html#ab8a6e07e519cb0ee76d762fe635901c1" target="_top" xlink:title="Erase First Occurrence of given substring from main string. ">
<polygon fill="none" stroke="#000000" points="439,-.5 439,-30.5 577,-30.5 577,-.5 439,-.5"/>
<text text-anchor="start" x="447" y="-18.5" font-family="Helvetica,sans-Serif" font-size="10.00" fill="#000000">utils::strings::removeSub</text>
<text text-anchor="middle" x="508" y="-7.5" font-family="Helvetica,sans-Serif" font-size="10.00" fill="#000000">String</text>
</a>
</g>
</g>
<!-- Node171&#45;&gt;Node173 -->
<g id="edge6" class="edge">
<title>Node171&#45;&gt;Node173</title>
<path fill="none" stroke="#191970" d="M347.4819,-49.9527C371.1844,-44.8653 401.0587,-38.4533 428.5889,-32.5443"/>
<polygon fill="#191970" stroke="#191970" points="429.5669,-35.9142 438.6098,-30.3935 428.0979,-29.0701 429.5669,-35.9142"/>
</g>
<!-- Node174&#45;&gt;Node168 -->
<g id="edge8" class="edge">
<title>Node174&#45;&gt;Node168</title>
<path fill="none" stroke="#191970" d="M372.7595,-195.3689C448.8244,-197.7846 569.687,-204.9118 644.6044,-211.4191"/>
<polygon fill="#191970" stroke="#191970" points="644.5901,-214.9316 654.8612,-212.3327 645.2112,-207.9592 644.5901,-214.9316"/>
</g>
<!-- Node174&#45;&gt;Node168 -->
<g id="edge11" class="edge">
<title>Node174&#45;&gt;Node168</title>
<path fill="none" stroke="#191970" d="M372.7595,-205.828C448.8244,-212.3502 569.687,-219.4248 644.6044,-221.7204"/>
<polygon fill="#191970" stroke="#191970" points="644.7657,-225.2263 654.8612,-222.0121 644.9648,-218.2292 644.7657,-225.2263"/>
</g>
<!-- Node175 -->
<g id="node9" class="node">
<title>Node175</title>
<g id="a_node9"><a xlink:href="classLayout.html#a79480df6d9dd2d32b23468c05c6ac944" target="_top" xlink:title="Calculates height and width of layout groups. ">
<polygon fill="none" stroke="#000000" points="427,-258.5 427,-288.5 589,-288.5 589,-258.5 427,-258.5"/>
<text text-anchor="start" x="435" y="-276.5" font-family="Helvetica,sans-Serif" font-size="10.00" fill="#000000">Layout::calculateLayoutGroup</text>
<text text-anchor="middle" x="508" y="-265.5" font-family="Helvetica,sans-Serif" font-size="10.00" fill="#000000">Dimensions</text>
</a>
</g>
</g>
<!-- Node174&#45;&gt;Node175 -->
<g id="edge9" class="edge">
<title>Node174&#45;&gt;Node175</title>
<path fill="none" stroke="#191970" d="M327.9316,-206.1462C352.7523,-215.7213 391.9552,-230.7685 426,-243.5 435.8991,-247.2019 446.4882,-251.1125 456.6572,-254.8436"/>
<polygon fill="#191970" stroke="#191970" points="455.6483,-258.2013 466.242,-258.3531 458.0551,-251.6281 455.6483,-258.2013"/>
</g>
<!-- Node176 -->
<g id="node10" class="node">
<title>Node176</title>
<g id="a_node10"><a xlink:href="classUIManager.html#a0d32c5b63c4110ff8e43ab06c1c7d761" target="_top" xlink:title="Get the Layoutgroup container Returns the container, that holds LayoutGroups. ">
<polygon fill="none" stroke="#000000" points="626,-164 626,-183 797,-183 797,-164 626,-164"/>
<text text-anchor="middle" x="711.5" y="-171" font-family="Helvetica,sans-Serif" font-size="10.00" fill="#000000">UIManager::getAllLayoutGroups</text>
</a>
</g>
</g>
<!-- Node174&#45;&gt;Node176 -->
<g id="edge12" class="edge">
<title>Node174&#45;&gt;Node176</title>
<path fill="none" stroke="#191970" d="M372.7595,-192.5723C439.5748,-188.8104 540.9551,-183.1023 615.399,-178.9108"/>
<polygon fill="#191970" stroke="#191970" points="615.9308,-182.3865 625.7182,-178.3298 615.5372,-175.3976 615.9308,-182.3865"/>
</g>
<!-- Node177 -->
<g id="node11" class="node">
<title>Node177</title>
<g id="a_node11"><a xlink:href="classLayout.html#a99004e4afcea6a945e3890b19cce6236" target="_top" xlink:title="Arrange Elements that are aligned to a parent This is a seperate function, so it can recurse if a par...">
<polygon fill="none" stroke="#000000" points="426,-126 426,-145 590,-145 590,-126 426,-126"/>
<text text-anchor="middle" x="508" y="-133" font-family="Helvetica,sans-Serif" font-size="10.00" fill="#000000">Layout::arrangeChildElements</text>
</a>
</g>
</g>
<!-- Node174&#45;&gt;Node177 -->
<g id="edge13" class="edge">
<title>Node174&#45;&gt;Node177</title>
<path fill="none" stroke="#191970" d="M334.5804,-186.9294C359.4146,-179.4205 394.895,-168.7302 426,-159.5 438.7917,-155.7041 452.7183,-151.6126 465.4028,-147.9019"/>
<polygon fill="#191970" stroke="#191970" points="466.6469,-151.1848 475.2639,-145.0205 464.6836,-144.4658 466.6469,-151.1848"/>
</g>
<!-- Node175&#45;&gt;Node168 -->
<g id="edge10" class="edge">
<title>Node175&#45;&gt;Node168</title>
<path fill="none" stroke="#191970" d="M565.7706,-258.4541C590.4599,-252.024 619.427,-244.4797 645.0033,-237.8186"/>
<polygon fill="#191970" stroke="#191970" points="646.1963,-241.1247 654.9913,-235.2173 644.432,-234.3507 646.1963,-241.1247"/>
</g>
<!-- Node177&#45;&gt;Node168 -->
<g id="edge14" class="edge">
<title>Node177&#45;&gt;Node168</title>
<path fill="none" stroke="#191970" d="M540.5312,-145.1397C563.9381,-155.6594 596.4591,-171.59 626,-183.5 642.1614,-190.0158 660.4744,-196.1701 675.9945,-201.7855"/>
<polygon fill="#191970" stroke="#191970" points="675.1463,-205.2037 685.7394,-205.3961 677.5784,-198.6397 675.1463,-205.2037"/>
</g>
<!-- Node177&#45;&gt;Node168 -->
<g id="edge15" class="edge">
<title>Node177&#45;&gt;Node168</title>
<path fill="none" stroke="#191970" d="M516.9928,-145.1938C536.4805,-159.7698 584.2208,-184.6558 626,-201.5 632.1318,-203.9722 638.5734,-206.3923 645.0546,-208.6694"/>
<polygon fill="#191970" stroke="#191970" points="643.9529,-211.9915 654.5473,-211.8925 646.2036,-205.3631 643.9529,-211.9915"/>
</g>
<!-- Node177&#45;&gt;Node176 -->
<g id="edge18" class="edge">
<title>Node177&#45;&gt;Node176</title>
<path fill="none" stroke="#191970" d="M559.089,-145.04C586.7877,-150.2122 621.211,-156.6401 650.3309,-162.0778"/>
<polygon fill="#191970" stroke="#191970" points="649.9174,-165.561 660.39,-163.9561 651.2024,-158.6799 649.9174,-165.561"/>
</g>
<!-- Node178 -->
<g id="node12" class="node">
<title>Node178</title>
<g id="a_node12"><a xlink:href="classUIManager.html#aa5b6dbe1a9d5c50b588c55e9c9673f58" target="_top" xlink:title="Get the Ui Element By ID Finds and returns an UiElement by its elementID parameter. ">
<polygon fill="none" stroke="#000000" points="629,-126 629,-145 794,-145 794,-126 629,-126"/>
<text text-anchor="middle" x="711.5" y="-133" font-family="Helvetica,sans-Serif" font-size="10.00" fill="#000000">UIManager::getUiElementByID</text>
</a>
</g>
</g>
<!-- Node177&#45;&gt;Node178 -->
<g id="edge16" class="edge">
<title>Node177&#45;&gt;Node178</title>
<path fill="none" stroke="#191970" d="M590.1847,-135.5C599.5007,-135.5 609.0441,-135.5 618.4865,-135.5"/>
<polygon fill="#191970" stroke="#191970" points="618.6772,-139.0001 628.6772,-135.5 618.6771,-132.0001 618.6772,-139.0001"/>
</g>
<!-- Node179 -->
<g id="node13" class="node">
<title>Node179</title>
<g id="a_node13"><a xlink:href="classUIElement.html#a6451228b4c9bc058d69e4d4f2b03c719" target="_top" xlink:title="UIElement::getUiElementData">
<polygon fill="none" stroke="#000000" points="629.5,-88 629.5,-107 793.5,-107 793.5,-88 629.5,-88"/>
<text text-anchor="middle" x="711.5" y="-95" font-family="Helvetica,sans-Serif" font-size="10.00" fill="#000000">UIElement::getUiElementData</text>
</a>
</g>
</g>
<!-- Node177&#45;&gt;Node179 -->
<g id="edge17" class="edge">
<title>Node177&#45;&gt;Node179</title>
<path fill="none" stroke="#191970" d="M559.089,-125.96C586.7877,-120.7878 621.211,-114.3599 650.3309,-108.9222"/>
<polygon fill="#191970" stroke="#191970" points="651.2024,-112.3201 660.39,-107.0439 649.9174,-105.439 651.2024,-112.3201"/>
</g>
<!-- Node180 -->
<g id="node14" class="node">
<title>Node180</title>
<g id="a_node14"><a xlink:href="classUIElement.html#ad1c0d7431b71bdd9a3704a6d5c8a4643" target="_top" xlink:title="Get the position and the size of this ui element Gets the position and the size of this ui element...">
<polygon fill="none" stroke="#000000" points="631,-50 631,-69 792,-69 792,-50 631,-50"/>
<text text-anchor="middle" x="711.5" y="-57" font-family="Helvetica,sans-Serif" font-size="10.00" fill="#000000">UIElement::getUiElementRect</text>
</a>
</g>
</g>
<!-- Node177&#45;&gt;Node180 -->
<g id="edge19" class="edge">
<title>Node177&#45;&gt;Node180</title>
<path fill="none" stroke="#191970" d="M568.2326,-125.8661C575.8261,-123.4182 583.2789,-120.3487 590,-116.5 610.1887,-104.9393 605.7594,-89.9696 626,-78.5 629.9771,-76.2463 634.1992,-74.26 638.5539,-72.5092"/>
<polygon fill="#191970" stroke="#191970" points="640.0175,-75.7029 648.2553,-69.0404 637.6607,-69.1116 640.0175,-75.7029"/>
</g>
<!-- Node181 -->
<g id="node15" class="node">
<title>Node181</title>
<g id="a_node15"><a xlink:href="classUIElement.html#aa7f624963eaeb31043d74219ee24386c" target="_top" xlink:title="Checks if the mouse cursor is over the current UI Element Check if the coordinates match the ones sto...">
<polygon fill="none" stroke="#000000" points="869,-69 869,-88 1006,-88 1006,-69 869,-69"/>
<text text-anchor="middle" x="937.5" y="-76" font-family="Helvetica,sans-Serif" font-size="10.00" fill="#000000">UIElement::isMouseOver</text>
</a>
</g>
</g>
<!-- Node180&#45;&gt;Node181 -->
<g id="edge20" class="edge">
<title>Node180&#45;&gt;Node181</title>
<path fill="none" stroke="#191970" d="M792.134,-66.279C813.802,-68.1006 837.204,-70.068 858.7673,-71.8809"/>
<polygon fill="#191970" stroke="#191970" points="858.6016,-75.3792 868.8597,-72.7294 859.1881,-68.4038 858.6016,-75.3792"/>
</g>
<!-- Node182 -->
<g id="node16" class="node">
<title>Node182</title>
<g id="a_node16"><a xlink:href="classUIElement.html#a570841bf8b7970ca935b1a00e571036a" target="_top" xlink:title="Handling for the hovering event Check, if the mouse cursor is hovering over the element. virtual function to provide custom handling if necessary (e.g. Combobox) Per default, it&#39;s the same implementation as isMouseOver. ">
<polygon fill="none" stroke="#000000" points="833,-31 833,-50 1042,-50 1042,-31 833,-31"/>
<text text-anchor="middle" x="937.5" y="-38" font-family="Helvetica,sans-Serif" font-size="10.00" fill="#000000">UIElement::isMouseOverHoverableArea</text>
</a>
</g>
</g>
<!-- Node180&#45;&gt;Node182 -->
<g id="edge21" class="edge">
<title>Node180&#45;&gt;Node182</title>
<path fill="none" stroke="#191970" d="M792.134,-52.721C802.0217,-51.8898 812.2705,-51.0281 822.5409,-50.1647"/>
<polygon fill="#191970" stroke="#191970" points="823.1343,-53.6273 832.8059,-49.3017 822.5478,-46.6519 823.1343,-53.6273"/>
</g>
</g>
</svg>
        <g id="navigator" transform="translate(0 0)" fill="#404254">
                <rect fill="#f2f5e9" fill-opacity="0.5" stroke="#606060" stroke-width=".5" x="0" y="0" width="60" height="60"/>
                <use id="zoomplus" xlink:href="#zoomPlus" x="17" y="9" onmousedown="handleZoom(evt,'in')"/>
                <use id="zoomminus" xlink:href="#zoomMin" x="42" y="9" onmousedown="handleZoom(evt,'out')"/>
                <use id="reset" xlink:href="#resetDef" x="30" y="36" onmousedown="handleReset()"/>
                <g id="arrowUp" xlink:href="#dirArrow" transform="translate(30 24)" onmousedown="handlePan(0,-1)">
                  <use xlink:href="#rim" fill="#404040">
                        <set attributeName="fill" to="#808080" begin="arrowUp.mouseover" end="arrowUp.mouseout"/>
                  </use>
                  <path fill="none" stroke="white" stroke-width="1.5" d="M0,-3.0v7 M-2.5,-0.5L0,-3.0L2.5,-0.5"/>
                </g>
                <g id="arrowRight" xlink:href="#dirArrow" transform="rotate(90) translate(36 -43)" onmousedown="handlePan(1,0)">
                  <use xlink:href="#rim" fill="#404040">
                        <set attributeName="fill" to="#808080" begin="arrowRight.mouseover" end="arrowRight.mouseout"/>
                  </use>
                  <path fill="none" stroke="white" stroke-width="1.5" d="M0,-3.0v7 M-2.5,-0.5L0,-3.0L2.5,-0.5"/>
                </g>
                <g id="arrowDown" xlink:href="#dirArrow" transform="rotate(180) translate(-30 -48)" onmousedown="handlePan(0,1)">
                  <use xlink:href="#rim" fill="#404040">
                        <set attributeName="fill" to="#808080" begin="arrowDown.mouseover" end="arrowDown.mouseout"/>
                  </use>
                  <path fill="none" stroke="white" stroke-width="1.5" d="M0,-3.0v7 M-2.5,-0.5L0,-3.0L2.5,-0.5"/>
                </g>
                <g id="arrowLeft" xlink:href="#dirArrow" transform="rotate(270) translate(-36 17)" onmousedown="handlePan(-1,0)">
                  <use xlink:href="#rim" fill="#404040">
                        <set attributeName="fill" to="#808080" begin="arrowLeft.mouseover" end="arrowLeft.mouseout"/>
                  </use>
                  <path fill="none" stroke="white" stroke-width="1.5" d="M0,-3.0v7 M-2.5,-0.5L0,-3.0L2.5,-0.5"/>
                </g>
        </g>
        <svg viewBox="0 0 15 15" width="100%" height="30px" preserveAspectRatio="xMaxYMin meet">
         <g id="arrow_out" transform="scale(0.3 0.3)">
          <a xlink:href="classUIManager_a3ccb2fc669262f18ebdcdf3d5c43a3e8_cgraph_org.svg" target="_base">
           <rect id="button" ry="5" rx="5" y="6" x="6" height="38" width="38"
                fill="#f2f5e9" fill-opacity="0.5" stroke="#606060" stroke-width="1.0"/>
           <path id="arrow"
             d="M 11.500037,31.436501 C 11.940474,20.09759 22.043105,11.32322 32.158766,21.979434 L 37.068811,17.246167 C 37.068811,17.246167 37.088388,32 37.088388,32 L 22.160133,31.978069 C 22.160133,31.978069 26.997745,27.140456 26.997745,27.140456 C 18.528582,18.264221 13.291696,25.230495 11.500037,31.436501 z"
             style="fill:#404040;"/>
          </a>
         </g>
        </svg>
</svg>
