<?xml version="1.0" encoding="UTF-8" standalone="no"?>
<!DOCTYPE svg PUBLIC "-//W3C//DTD SVG 1.1//EN"
 "http://www.w3.org/Graphics/SVG/1.1/DTD/svg11.dtd">
<!-- Generated by graphviz version 2.40.1 (20161225.0304)
 -->
<!-- Title: Engine::loadGame Pages: 1 -->
<!--zoomable 253 -->
<svg id="main" version="1.1" xmlns="http://www.w3.org/2000/svg" xmlns:xlink="http://www.w3.org/1999/xlink" xml:space="preserve" onload="init(evt)">
<style type="text/css"><![CDATA[
.edge:hover path { stroke: red; }
.edge:hover polygon { stroke: red; fill: red; }
]]></style>
<script type="text/javascript"><![CDATA[
var edges = document.getElementsByTagName('g');
if (edges && edges.length) {
  for (var i=0;i<edges.length;i++) {
    if (edges[i].id.substr(0,4)=='edge') {
      edges[i].setAttribute('class','edge');
    }
  }
}
]]></script>
        <defs>
                <circle id="rim" cx="0" cy="0" r="7"/>
                <circle id="rim2" cx="0" cy="0" r="3.5"/>
                <g id="zoomPlus">
                        <use xlink:href="#rim" fill="#404040">
                                <set attributeName="fill" to="#808080" begin="zoomplus.mouseover" end="zoomplus.mouseout"/>
                        </use>
                        <path d="M-4,0h8M0,-4v8" fill="none" stroke="white" stroke-width="1.5" pointer-events="none"/>
                </g>
                <g id="zoomMin">
                        <use xlink:href="#rim" fill="#404040">
                                <set attributeName="fill" to="#808080" begin="zoomminus.mouseover" end="zoomminus.mouseout"/>
                        </use>
                        <path d="M-4,0h8" fill="none" stroke="white" stroke-width="1.5" pointer-events="none"/>
                </g>
                <g id="dirArrow">
                        <path fill="none" stroke="white" stroke-width="1.5" d="M0,-3.0v7 M-2.5,-0.5L0,-3.0L2.5,-0.5"/>
                </g>
               <g id="resetDef">
                       <use xlink:href="#rim2" fill="#404040">
                               <set attributeName="fill" to="#808080" begin="reset.mouseover" end="reset.mouseout"/>
                       </use>
               </g>
        </defs>

<script type="text/javascript">
var viewWidth = 1532;
var viewHeight = 253;
var sectionId = 'dynsection-7';
</script>
<script xlink:href="svgpan.js"/>
<svg id="graph" class="graph">
<g id="viewport">
<title>Engine::loadGame</title>
<!-- Node53 -->
<g id="node1" class="node">
<title>Node53</title>
<polygon fill="#bfbfbf" stroke="#000000" points="0,-114.5 0,-133.5 106,-133.5 106,-114.5 0,-114.5"/>
<text text-anchor="middle" x="53" y="-121.5" font-family="Helvetica,sans-Serif" font-size="10.00" fill="#000000">Engine::loadGame</text>
</g>
<!-- Node54 -->
<g id="node2" class="node">
<title>Node54</title>
<g id="a_node2"><a xlink:href="classMap.html#afefe996cc1f62b61ec60d0ae415953bf" target="_top" xlink:title="Map::loadMapFromFile">
<polygon fill="none" stroke="#000000" points="142,-114.5 142,-133.5 267,-133.5 267,-114.5 142,-114.5"/>
<text text-anchor="middle" x="204.5" y="-121.5" font-family="Helvetica,sans-Serif" font-size="10.00" fill="#000000">Map::loadMapFromFile</text>
</a>
</g>
</g>
<!-- Node53&#45;&gt;Node54 -->
<g id="edge1" class="edge">
<title>Node53&#45;&gt;Node54</title>
<path fill="none" stroke="#191970" d="M106.4132,-124C114.6794,-124 123.3353,-124 131.9364,-124"/>
<polygon fill="#191970" stroke="#191970" points="131.9814,-127.5001 141.9814,-124 131.9814,-120.5001 131.9814,-127.5001"/>
</g>
<!-- Node55 -->
<g id="node3" class="node">
<title>Node55</title>
<g id="a_node3"><a xlink:href="compression_8hxx.html#a25f341059256700f2f3ffd62d8113956" target="_top" xlink:title="decompresses given string Decompresses a given string. ">
<polygon fill="none" stroke="#000000" points="311,-152.5 311,-171.5 415,-171.5 415,-152.5 311,-152.5"/>
<text text-anchor="middle" x="363" y="-159.5" font-family="Helvetica,sans-Serif" font-size="10.00" fill="#000000">decompressString</text>
</a>
</g>
</g>
<!-- Node54&#45;&gt;Node55 -->
<g id="edge2" class="edge">
<title>Node54&#45;&gt;Node55</title>
<path fill="none" stroke="#191970" d="M244.4962,-133.589C265.412,-138.6035 291.2081,-144.7881 313.3864,-150.1053"/>
<polygon fill="#191970" stroke="#191970" points="312.7509,-153.552 323.2914,-152.4799 314.383,-146.7449 312.7509,-153.552"/>
</g>
<!-- Node56 -->
<g id="node4" class="node">
<title>Node56</title>
<g id="a_node4"><a xlink:href="classMap.html#a1197ab65e40dd20b891ba165471e3163" target="_top" xlink:title="Map::Map">
<polygon fill="none" stroke="#000000" points="331.5,-114.5 331.5,-133.5 394.5,-133.5 394.5,-114.5 331.5,-114.5"/>
<text text-anchor="middle" x="363" y="-121.5" font-family="Helvetica,sans-Serif" font-size="10.00" fill="#000000">Map::Map</text>
</a>
</g>
</g>
<!-- Node54&#45;&gt;Node56 -->
<g id="edge3" class="edge">
<title>Node54&#45;&gt;Node56</title>
<path fill="none" stroke="#191970" d="M267.1434,-124C285.1728,-124 304.4028,-124 320.8704,-124"/>
<polygon fill="#191970" stroke="#191970" points="321.2527,-127.5001 331.2526,-124 321.2526,-120.5001 321.2527,-127.5001"/>
</g>
<!-- Node57 -->
<g id="node5" class="node">
<title>Node57</title>
<g id="a_node5"><a xlink:href="classMap.html#a481b37ba71ef0e51e836fc42805762dd" target="_top" xlink:title="Update all mapNodes Updates all mapNode and its adjacent tiles regarding height information, draws slopes for adjacent tiles and sets tiling for mapNode sprite if applicable. ">
<polygon fill="none" stroke="#000000" points="303,-76.5 303,-95.5 423,-95.5 423,-76.5 303,-76.5"/>
<text text-anchor="middle" x="363" y="-83.5" font-family="Helvetica,sans-Serif" font-size="10.00" fill="#000000">Map::updateAllNodes</text>
</a>
</g>
</g>
<!-- Node54&#45;&gt;Node57 -->
<g id="edge4" class="edge">
<title>Node54&#45;&gt;Node57</title>
<path fill="none" stroke="#191970" d="M244.4962,-114.411C265.412,-109.3965 291.2081,-103.2119 313.3864,-97.8947"/>
<polygon fill="#191970" stroke="#191970" points="314.383,-101.2551 323.2914,-95.5201 312.7509,-94.448 314.383,-101.2551"/>
</g>
<!-- Node58 -->
<g id="node6" class="node">
<title>Node58</title>
<g id="a_node6"><a xlink:href="classMap.html#a59d21f2688713fbcfe320eb1b24405ca" target="_top" xlink:title="Update mapNode and its adjacent tiles Updates mapNode height information, draws slopes for adjacent t...">
<polygon fill="none" stroke="#000000" points="459,-76.5 459,-95.5 622,-95.5 622,-76.5 459,-76.5"/>
<text text-anchor="middle" x="540.5" y="-83.5" font-family="Helvetica,sans-Serif" font-size="10.00" fill="#000000">Map::updateNeighborsOfNode</text>
</a>
</g>
</g>
<!-- Node57&#45;&gt;Node58 -->
<g id="edge5" class="edge">
<title>Node57&#45;&gt;Node58</title>
<path fill="none" stroke="#191970" d="M423.0934,-86C431.3342,-86 439.9443,-86 448.5944,-86"/>
<polygon fill="#191970" stroke="#191970" points="448.7476,-89.5001 458.7476,-86 448.7475,-82.5001 448.7476,-89.5001"/>
</g>
<!-- Node59 -->
<g id="node7" class="node">
<title>Node59</title>
<g id="a_node7"><a xlink:href="classMap.html#aab37e4a52faf81e9b696b8cf1bd9a690" target="_top" xlink:title="Get neighbor MapNode Objects Stores pointers to the neighboring nodes of the given coordinates in the...">
<polygon fill="none" stroke="#000000" points="865.5,-38.5 865.5,-57.5 973.5,-57.5 973.5,-38.5 865.5,-38.5"/>
<text text-anchor="middle" x="919.5" y="-45.5" font-family="Helvetica,sans-Serif" font-size="10.00" fill="#000000">Map::getNeighbors</text>
</a>
</g>
</g>
<!-- Node58&#45;&gt;Node59 -->
<g id="edge6" class="edge">
<title>Node58&#45;&gt;Node59</title>
<path fill="none" stroke="#191970" d="M593.0046,-76.4996C613.2603,-73.1002 636.6546,-69.4964 658,-67 724.9686,-59.1679 801.9878,-54.0383 855.0061,-51.1058"/>
<polygon fill="#191970" stroke="#191970" points="855.484,-54.5852 865.2797,-50.5485 855.1048,-47.5954 855.484,-54.5852"/>
</g>
<!-- Node60 -->
<g id="node8" class="node">
<title>Node60</title>
<g id="a_node8"><a xlink:href="classMap.html#a0ff55eb041cdf29aa582a21145319ce0" target="_top" xlink:title="Get elevated neighbor positions in a bitmask Checks all neighboring tiles and returns the elevated ne...">
<polygon fill="none" stroke="#000000" points="668,-171 668,-201 814,-201 814,-171 668,-171"/>
<text text-anchor="start" x="676" y="-189" font-family="Helvetica,sans-Serif" font-size="10.00" fill="#000000">Map::getElevatedNeighbor</text>
<text text-anchor="middle" x="741" y="-178" font-family="Helvetica,sans-Serif" font-size="10.00" fill="#000000">Bitmask</text>
</a>
</g>
</g>
<!-- Node58&#45;&gt;Node60 -->
<g id="edge7" class="edge">
<title>Node58&#45;&gt;Node60</title>
<path fill="none" stroke="#191970" d="M554.4863,-95.5312C576.0293,-109.9315 618.9385,-137.5122 658,-156 666.5313,-160.0379 675.7628,-163.8696 684.8636,-167.3605"/>
<polygon fill="#191970" stroke="#191970" points="683.6727,-170.6518 694.2653,-170.8695 686.1204,-164.0937 683.6727,-170.6518"/>
</g>
<!-- Node61 -->
<g id="node9" class="node">
<title>Node61</title>
<g id="a_node9"><a xlink:href="classMap.html#aa8cc2ed983007621bce12dd9d1b8ec5b" target="_top" xlink:title="Demolish a node This function gathers all tiles that should be demolished and invokes the nodes demol...">
<polygon fill="none" stroke="#000000" points="863,-123.5 863,-142.5 976,-142.5 976,-123.5 863,-123.5"/>
<text text-anchor="middle" x="919.5" y="-130.5" font-family="Helvetica,sans-Serif" font-size="10.00" fill="#000000">Map::demolishNode</text>
</a>
</g>
</g>
<!-- Node58&#45;&gt;Node61 -->
<g id="edge8" class="edge">
<title>Node58&#45;&gt;Node61</title>
<path fill="none" stroke="#191970" d="M622.274,-90.8977C634.2414,-92.6526 646.4286,-94.4461 658,-96 732.4547,-105.9985 819.2214,-114.7107 871.7197,-122.0493"/>
<polygon fill="#191970" stroke="#191970" points="871.3509,-125.5323 881.7487,-123.4987 872.3522,-118.6042 871.3509,-125.5323"/>
</g>
<!-- Node69 -->
<g id="node17" class="node">
<title>Node69</title>
<g id="a_node17"><a xlink:href="classMap.html#a3f5c7dd50cdc712e1ef18047cf619888" target="_top" xlink:title="Get a bitmask that represents same&#45;tile neighbors Checks all neighboring tiles and returns the elevat...">
<polygon fill="none" stroke="#000000" points="658,-220.5 658,-239.5 824,-239.5 824,-220.5 658,-220.5"/>
<text text-anchor="middle" x="741" y="-227.5" font-family="Helvetica,sans-Serif" font-size="10.00" fill="#000000">Map::calculateAutotileBitmask</text>
</a>
</g>
</g>
<!-- Node58&#45;&gt;Node69 -->
<g id="edge19" class="edge">
<title>Node58&#45;&gt;Node69</title>
<path fill="none" stroke="#191970" d="M546.5505,-95.6359C561.9739,-119.3446 605.2925,-180.7743 658,-211 661.9292,-213.2532 666.1069,-215.2393 670.4172,-216.9898"/>
<polygon fill="#191970" stroke="#191970" points="669.4261,-220.3531 680.0204,-220.4582 671.804,-213.7693 669.4261,-220.3531"/>
</g>
<!-- Node71 -->
<g id="node19" class="node">
<title>Node71</title>
<g id="a_node19"><a xlink:href="classMap.html#aba5154a4d917900679a3c0f7ec701561" target="_top" xlink:title="Increase Height Increases the height of the node and checks the surrounding tiles. Either draw a slope sprite or elevate the tile if necessary. ">
<polygon fill="none" stroke="#000000" points="683,-.5 683,-19.5 799,-19.5 799,-.5 683,-.5"/>
<text text-anchor="middle" x="741" y="-7.5" font-family="Helvetica,sans-Serif" font-size="10.00" fill="#000000">Map::increaseHeight</text>
</a>
</g>
</g>
<!-- Node58&#45;&gt;Node71 -->
<g id="edge21" class="edge">
<title>Node58&#45;&gt;Node71</title>
<path fill="none" stroke="#191970" d="M549.7662,-76.4834C569.3842,-62.7213 616.7041,-40.0303 658,-25 662.8101,-23.2493 667.8126,-21.5389 672.8708,-19.9104"/>
<polygon fill="#191970" stroke="#191970" points="674.112,-23.1902 682.6308,-16.8908 672.043,-16.5029 674.112,-23.1902"/>
</g>
<!-- Node72 -->
<g id="node20" class="node">
<title>Node72</title>
<g id="a_node20"><a xlink:href="classMap.html#afb8cc864df90d273a5074872d635dc40" target="_top" xlink:title="Decrease Height Decreases the height of the node and checks the surrounding tiles. Either draw a slope sprite or lower the tile if necessary. ">
<polygon fill="none" stroke="#000000" points="681.5,-76.5 681.5,-95.5 800.5,-95.5 800.5,-76.5 681.5,-76.5"/>
<text text-anchor="middle" x="741" y="-83.5" font-family="Helvetica,sans-Serif" font-size="10.00" fill="#000000">Map::decreaseHeight</text>
</a>
</g>
</g>
<!-- Node58&#45;&gt;Node72 -->
<g id="edge27" class="edge">
<title>Node58&#45;&gt;Node72</title>
<path fill="none" stroke="#191970" d="M622.051,-79.3555C638.3263,-79.1699 655.2832,-79.2292 671.123,-79.5332"/>
<polygon fill="#191970" stroke="#191970" points="671.2746,-83.0376 681.3524,-79.7683 671.4354,-76.0394 671.2746,-83.0376"/>
</g>
<!-- Node61&#45;&gt;Node58 -->
<g id="edge18" class="edge">
<title>Node61&#45;&gt;Node58</title>
<path fill="none" stroke="#191970" d="M862.7727,-134.7944C809.7331,-131.7504 728.3678,-123.4497 658,-114 627.3145,-109.8793 592.2994,-104.0738 568.5334,-98.1628"/>
<polygon fill="#191970" stroke="#191970" points="569.3381,-94.7549 558.7722,-95.5369 567.5196,-101.5146 569.3381,-94.7549"/>
</g>
<!-- Node62 -->
<g id="node10" class="node">
<title>Node62</title>
<g id="a_node10"><a xlink:href="isoMath_8cxx.html#a7fa61c3d8ef446fb1c48dc4838023649" target="_top" xlink:title="Check if given coordinates are within map boundaries Checks if coordinates are within map boundaries...">
<polygon fill="none" stroke="#000000" points="1219,-70.5 1219,-89.5 1375,-89.5 1375,-70.5 1219,-70.5"/>
<text text-anchor="middle" x="1297" y="-77.5" font-family="Helvetica,sans-Serif" font-size="10.00" fill="#000000">isPointWithinMapBoundaries</text>
</a>
</g>
</g>
<!-- Node61&#45;&gt;Node62 -->
<g id="edge9" class="edge">
<title>Node61&#45;&gt;Node62</title>
<path fill="none" stroke="#191970" d="M976.0156,-125.0654C1040.6455,-115.9915 1146.8436,-101.0816 1219.2456,-90.9165"/>
<polygon fill="#191970" stroke="#191970" points="1219.8134,-94.3712 1229.2297,-89.5148 1218.8401,-87.4392 1219.8134,-94.3712"/>
</g>
<!-- Node64 -->
<g id="node12" class="node">
<title>Node64</title>
<g id="a_node12"><a xlink:href="classMapNode.html#a6b57e4355d0780fb37c34d63bbcdfdf9" target="_top" xlink:title="MapNode::getMapNodeDataFor\lLayer">
<polygon fill="none" stroke="#000000" points="1015,-214 1015,-244 1183,-244 1183,-214 1015,-214"/>
<text text-anchor="start" x="1023" y="-232" font-family="Helvetica,sans-Serif" font-size="10.00" fill="#000000">MapNode::getMapNodeDataFor</text>
<text text-anchor="middle" x="1099" y="-221" font-family="Helvetica,sans-Serif" font-size="10.00" fill="#000000">Layer</text>
</a>
</g>
</g>
<!-- Node61&#45;&gt;Node64 -->
<g id="edge11" class="edge">
<title>Node61&#45;&gt;Node64</title>
<path fill="none" stroke="#191970" d="M929.8473,-142.6501C946.5451,-157.7463 981.0099,-186.9778 1015,-204 1019.5597,-206.2835 1024.3653,-208.3976 1029.2742,-210.3475"/>
<polygon fill="#191970" stroke="#191970" points="1028.2115,-213.6865 1038.8043,-213.8963 1030.6543,-207.1266 1028.2115,-213.6865"/>
</g>
<!-- Node65 -->
<g id="node13" class="node">
<title>Node65</title>
<g id="a_node13"><a xlink:href="classMap.html#ab6685363fde5a50c749adab9df96c231" target="_top" xlink:title="whether a node is a multiobject or not (bigger than 1x1 building) ">
<polygon fill="none" stroke="#000000" points="1033,-137.5 1033,-156.5 1165,-156.5 1165,-137.5 1033,-137.5"/>
<text text-anchor="middle" x="1099" y="-144.5" font-family="Helvetica,sans-Serif" font-size="10.00" fill="#000000">Map::isNodeMultiObject</text>
</a>
</g>
</g>
<!-- Node61&#45;&gt;Node65 -->
<g id="edge12" class="edge">
<title>Node61&#45;&gt;Node65</title>
<path fill="none" stroke="#191970" d="M976.2949,-137.4297C991.0395,-138.5797 1007.1622,-139.8372 1022.731,-141.0514"/>
<polygon fill="#191970" stroke="#191970" points="1022.62,-144.5533 1032.8619,-141.8416 1023.1643,-137.5745 1022.62,-144.5533"/>
</g>
<!-- Node67 -->
<g id="node15" class="node">
<title>Node67</title>
<g id="a_node15"><a xlink:href="classMap.html#a3952b445c55efce61c1ccac6f362fe89" target="_top" xlink:title="Return vector of Points of an Object Tiles selection. ">
<polygon fill="none" stroke="#000000" points="1037,-175.5 1037,-194.5 1161,-194.5 1161,-175.5 1037,-175.5"/>
<text text-anchor="middle" x="1099" y="-182.5" font-family="Helvetica,sans-Serif" font-size="10.00" fill="#000000">Map::getObjectCoords</text>
</a>
</g>
</g>
<!-- Node61&#45;&gt;Node67 -->
<g id="edge15" class="edge">
<title>Node61&#45;&gt;Node67</title>
<path fill="none" stroke="#191970" d="M944.7936,-142.595C963.9039,-149.6348 990.8754,-159.1261 1015,-166 1023.8703,-168.5274 1033.3432,-170.94 1042.6132,-173.1464"/>
<polygon fill="#191970" stroke="#191970" points="1042.0217,-176.6022 1052.5543,-175.4553 1043.6054,-169.7836 1042.0217,-176.6022"/>
</g>
<!-- Node63 -->
<g id="node11" class="node">
<title>Node63</title>
<g id="a_node11"><a xlink:href="classSingleton.html#af5cb1e5749949e2b68416cfb8d378044" target="_top" xlink:title="Get an instance of the singleton. ">
<polygon fill="none" stroke="#000000" points="1411,-65 1411,-95 1524,-95 1524,-65 1411,-65"/>
<text text-anchor="start" x="1419" y="-83" font-family="Helvetica,sans-Serif" font-size="10.00" fill="#000000">Singleton&lt; Settings</text>
<text text-anchor="middle" x="1467.5" y="-72" font-family="Helvetica,sans-Serif" font-size="10.00" fill="#000000"> &gt;::instance</text>
</a>
</g>
</g>
<!-- Node62&#45;&gt;Node63 -->
<g id="edge10" class="edge">
<title>Node62&#45;&gt;Node63</title>
<path fill="none" stroke="#191970" d="M1375.2638,-80C1383.635,-80 1392.0967,-80 1400.323,-80"/>
<polygon fill="#191970" stroke="#191970" points="1400.5927,-83.5001 1410.5927,-80 1400.5926,-76.5001 1400.5927,-83.5001"/>
</g>
<!-- Node65&#45;&gt;Node62 -->
<g id="edge13" class="edge">
<title>Node65&#45;&gt;Node62</title>
<path fill="none" stroke="#191970" d="M1134.7574,-137.484C1149.7466,-133.3142 1167.3047,-128.1925 1183,-123 1210.4649,-113.9138 1241.1202,-102.2637 1263.7186,-93.3822"/>
<polygon fill="#191970" stroke="#191970" points="1265.1733,-96.5708 1273.1854,-89.6385 1262.599,-90.0613 1265.1733,-96.5708"/>
</g>
<!-- Node66 -->
<g id="node14" class="node">
<title>Node66</title>
<g id="a_node14"><a xlink:href="classMapNode.html#adf88174897b884c97d327e710dea7f5e" target="_top" xlink:title="MapNode::getTileData">
<polygon fill="none" stroke="#000000" points="1234.5,-127.5 1234.5,-146.5 1359.5,-146.5 1359.5,-127.5 1234.5,-127.5"/>
<text text-anchor="middle" x="1297" y="-134.5" font-family="Helvetica,sans-Serif" font-size="10.00" fill="#000000">MapNode::getTileData</text>
</a>
</g>
</g>
<!-- Node65&#45;&gt;Node66 -->
<g id="edge14" class="edge">
<title>Node65&#45;&gt;Node66</title>
<path fill="none" stroke="#191970" d="M1165.2064,-143.6562C1184.0748,-142.7033 1204.735,-141.6599 1223.9846,-140.6876"/>
<polygon fill="#191970" stroke="#191970" points="1224.3974,-144.1714 1234.2081,-140.1713 1224.0443,-137.1803 1224.3974,-144.1714"/>
</g>
<!-- Node67&#45;&gt;Node63 -->
<g id="edge16" class="edge">
<title>Node67&#45;&gt;Node63</title>
<path fill="none" stroke="#191970" d="M1161.2558,-188.4702C1218.9,-189.4031 1305.8843,-184.9156 1375,-156 1403.4328,-144.1047 1429.963,-120.4895 1447.2545,-102.7233"/>
<polygon fill="#191970" stroke="#191970" points="1450.1963,-104.7064 1454.5229,-95.0352 1445.1096,-99.8974 1450.1963,-104.7064"/>
</g>
<!-- Node68 -->
<g id="node16" class="node">
<title>Node68</title>
<g id="a_node16"><a xlink:href="classTileManager.html#a8ee071ff8b24926288437d310f9bc714" target="_top" xlink:title="TileManager::getTileData">
<polygon fill="none" stroke="#000000" points="1227,-203.5 1227,-222.5 1367,-222.5 1367,-203.5 1227,-203.5"/>
<text text-anchor="middle" x="1297" y="-210.5" font-family="Helvetica,sans-Serif" font-size="10.00" fill="#000000">TileManager::getTileData</text>
</a>
</g>
</g>
<!-- Node67&#45;&gt;Node68 -->
<g id="edge17" class="edge">
<title>Node67&#45;&gt;Node68</title>
<path fill="none" stroke="#191970" d="M1161.1052,-193.7826C1179.648,-196.4048 1200.206,-199.312 1219.6012,-202.0547"/>
<polygon fill="#191970" stroke="#191970" points="1219.2292,-205.5369 1229.6208,-203.4716 1220.2095,-198.6058 1219.2292,-205.5369"/>
</g>
<!-- Node70 -->
<g id="node18" class="node">
<title>Node70</title>
<g id="a_node18"><a xlink:href="classMap.html#a4700614f8c7d02b9ca18ad7e916a2312" target="_top" xlink:title="Map::isLayerAutoTile">
<polygon fill="none" stroke="#000000" points="860,-220.5 860,-239.5 979,-239.5 979,-220.5 860,-220.5"/>
<text text-anchor="middle" x="919.5" y="-227.5" font-family="Helvetica,sans-Serif" font-size="10.00" fill="#000000">Map::isLayerAutoTile</text>
</a>
</g>
</g>
<!-- Node69&#45;&gt;Node70 -->
<g id="edge20" class="edge">
<title>Node69&#45;&gt;Node70</title>
<path fill="none" stroke="#191970" d="M824.2401,-230C832.7696,-230 841.3725,-230 849.7355,-230"/>
<polygon fill="#191970" stroke="#191970" points="849.7965,-233.5001 859.7965,-230 849.7964,-226.5001 849.7965,-233.5001"/>
</g>
<!-- Node71&#45;&gt;Node58 -->
<g id="edge26" class="edge">
<title>Node71&#45;&gt;Node58</title>
<path fill="none" stroke="#191970" d="M727.5972,-19.5968C711.0392,-26.466 682.1032,-34.2273 658,-43 633.6226,-51.8725 607.1461,-63.4145 585.5079,-72.5262"/>
<polygon fill="#191970" stroke="#191970" points="584.1214,-69.3123 576.2421,-76.3951 586.8186,-75.7718 584.1214,-69.3123"/>
</g>
<!-- Node71&#45;&gt;Node59 -->
<g id="edge23" class="edge">
<title>Node71&#45;&gt;Node59</title>
<path fill="none" stroke="#191970" d="M786.0431,-19.589C810.0225,-24.6939 839.6979,-31.0113 864.9721,-36.3918"/>
<polygon fill="#191970" stroke="#191970" points="864.2712,-39.821 874.7808,-38.4799 865.7288,-32.9744 864.2712,-39.821"/>
</g>
<!-- Node71&#45;&gt;Node61 -->
<g id="edge25" class="edge">
<title>Node71&#45;&gt;Node61</title>
<path fill="none" stroke="#191970" d="M755.1072,-19.6694C771.6285,-30.9979 799.8162,-50.3393 824,-67 849.0734,-84.2736 877.8121,-104.1447 897.1581,-117.532"/>
<polygon fill="#191970" stroke="#191970" points="895.3764,-120.5554 905.591,-123.3685 899.3601,-114.7995 895.3764,-120.5554"/>
</g>
<!-- Node71&#45;&gt;Node62 -->
<g id="edge24" class="edge">
<title>Node71&#45;&gt;Node62</title>
<path fill="none" stroke="#191970" d="M799.3256,-13.3604C847.5867,-16.4517 917.8832,-21.6713 979,-29 1068.7165,-39.7582 1171.8854,-57.2572 1235.7706,-68.6994"/>
<polygon fill="#191970" stroke="#191970" points="1235.2167,-72.1559 1245.6784,-70.4819 1236.4562,-65.2665 1235.2167,-72.1559"/>
</g>
<!-- Node71&#45;&gt;Node63 -->
<g id="edge22" class="edge">
<title>Node71&#45;&gt;Node63</title>
<path fill="none" stroke="#191970" d="M799.2293,-9.9809C847.4339,-10.2049 917.7013,-11.0838 979,-14 1156.0351,-22.4223 1200.6706,-29.0374 1375,-61 1383.345,-62.53 1392.096,-64.2179 1400.7479,-65.9372"/>
<polygon fill="#191970" stroke="#191970" points="1400.3352,-69.4242 1410.8287,-67.9625 1401.714,-62.5613 1400.3352,-69.4242"/>
</g>
<!-- Node72&#45;&gt;Node58 -->
<g id="edge31" class="edge">
<title>Node72&#45;&gt;Node58</title>
<path fill="none" stroke="#191970" d="M681.3524,-92.2317C665.9429,-92.6469 648.9933,-92.8127 632.3544,-92.7289"/>
<polygon fill="#191970" stroke="#191970" points="632.0794,-89.2266 622.051,-92.6445 632.022,-96.2264 632.0794,-89.2266"/>
</g>
<!-- Node72&#45;&gt;Node59 -->
<g id="edge28" class="edge">
<title>Node72&#45;&gt;Node59</title>
<path fill="none" stroke="#191970" d="M786.0431,-76.411C810.0225,-71.3061 839.6979,-64.9887 864.9721,-59.6082"/>
<polygon fill="#191970" stroke="#191970" points="865.7288,-63.0256 874.7808,-57.5201 864.2712,-56.179 865.7288,-63.0256"/>
</g>
<!-- Node72&#45;&gt;Node61 -->
<g id="edge30" class="edge">
<title>Node72&#45;&gt;Node61</title>
<path fill="none" stroke="#191970" d="M777.1221,-95.5112C804.8543,-102.8132 843.3463,-112.9483 873.3164,-120.8396"/>
<polygon fill="#191970" stroke="#191970" points="872.5641,-124.2607 883.1257,-123.4224 874.3465,-117.4915 872.5641,-124.2607"/>
</g>
<!-- Node72&#45;&gt;Node62 -->
<g id="edge29" class="edge">
<title>Node72&#45;&gt;Node62</title>
<path fill="none" stroke="#191970" d="M800.5017,-85.3579C898.5343,-84.3 1094.4938,-82.1853 1208.7248,-80.9526"/>
<polygon fill="#191970" stroke="#191970" points="1208.8777,-84.4513 1218.8393,-80.8435 1208.8021,-77.4517 1208.8777,-84.4513"/>
</g>
</g>
</svg>
        <g id="navigator" transform="translate(0 0)" fill="#404254">
                <rect fill="#f2f5e9" fill-opacity="0.5" stroke="#606060" stroke-width=".5" x="0" y="0" width="60" height="60"/>
                <use id="zoomplus" xlink:href="#zoomPlus" x="17" y="9" onmousedown="handleZoom(evt,'in')"/>
                <use id="zoomminus" xlink:href="#zoomMin" x="42" y="9" onmousedown="handleZoom(evt,'out')"/>
                <use id="reset" xlink:href="#resetDef" x="30" y="36" onmousedown="handleReset()"/>
                <g id="arrowUp" xlink:href="#dirArrow" transform="translate(30 24)" onmousedown="handlePan(0,-1)">
                  <use xlink:href="#rim" fill="#404040">
                        <set attributeName="fill" to="#808080" begin="arrowUp.mouseover" end="arrowUp.mouseout"/>
                  </use>
                  <path fill="none" stroke="white" stroke-width="1.5" d="M0,-3.0v7 M-2.5,-0.5L0,-3.0L2.5,-0.5"/>
                </g>
                <g id="arrowRight" xlink:href="#dirArrow" transform="rotate(90) translate(36 -43)" onmousedown="handlePan(1,0)">
                  <use xlink:href="#rim" fill="#404040">
                        <set attributeName="fill" to="#808080" begin="arrowRight.mouseover" end="arrowRight.mouseout"/>
                  </use>
                  <path fill="none" stroke="white" stroke-width="1.5" d="M0,-3.0v7 M-2.5,-0.5L0,-3.0L2.5,-0.5"/>
                </g>
                <g id="arrowDown" xlink:href="#dirArrow" transform="rotate(180) translate(-30 -48)" onmousedown="handlePan(0,1)">
                  <use xlink:href="#rim" fill="#404040">
                        <set attributeName="fill" to="#808080" begin="arrowDown.mouseover" end="arrowDown.mouseout"/>
                  </use>
                  <path fill="none" stroke="white" stroke-width="1.5" d="M0,-3.0v7 M-2.5,-0.5L0,-3.0L2.5,-0.5"/>
                </g>
                <g id="arrowLeft" xlink:href="#dirArrow" transform="rotate(270) translate(-36 17)" onmousedown="handlePan(-1,0)">
                  <use xlink:href="#rim" fill="#404040">
                        <set attributeName="fill" to="#808080" begin="arrowLeft.mouseover" end="arrowLeft.mouseout"/>
                  </use>
                  <path fill="none" stroke="white" stroke-width="1.5" d="M0,-3.0v7 M-2.5,-0.5L0,-3.0L2.5,-0.5"/>
                </g>
        </g>
        <svg viewBox="0 0 15 15" width="100%" height="30px" preserveAspectRatio="xMaxYMin meet">
         <g id="arrow_out" transform="scale(0.3 0.3)">
          <a xlink:href="classEngine_a83b7dbeee899b36a13d5b07c7ad87ebc_cgraph_org.svg" target="_base">
           <rect id="button" ry="5" rx="5" y="6" x="6" height="38" width="38"
                fill="#f2f5e9" fill-opacity="0.5" stroke="#606060" stroke-width="1.0"/>
           <path id="arrow"
             d="M 11.500037,31.436501 C 11.940474,20.09759 22.043105,11.32322 32.158766,21.979434 L 37.068811,17.246167 C 37.068811,17.246167 37.088388,32 37.088388,32 L 22.160133,31.978069 C 22.160133,31.978069 26.997745,27.140456 26.997745,27.140456 C 18.528582,18.264221 13.291696,25.230495 11.500037,31.436501 z"
             style="fill:#404040;"/>
          </a>
         </g>
        </svg>
</svg>
