<?xml version="1.0" encoding="UTF-8" standalone="no"?>
<!DOCTYPE svg PUBLIC "-//W3C//DTD SVG 1.1//EN"
 "http://www.w3.org/Graphics/SVG/1.1/DTD/svg11.dtd">
<!-- Generated by graphviz version 2.40.1 (20161225.0304)
 -->
<!-- Title: Slider::overSliderButton Pages: 1 -->
<svg width="330pt" height="66pt"
 viewBox="0.00 0.00 330.00 66.00" xmlns="http://www.w3.org/2000/svg" xmlns:xlink="http://www.w3.org/1999/xlink">
<g id="graph0" class="graph" transform="scale(1 1) rotate(0) translate(4 62)">
<title>Slider::overSliderButton</title>
<!-- Node31 -->
<g id="node1" class="node">
<title>Node31</title>
<polygon fill="#bfbfbf" stroke="#000000" points="0,-19.5 0,-38.5 132,-38.5 132,-19.5 0,-19.5"/>
<text text-anchor="middle" x="66" y="-26.5" font-family="Helvetica,sans-Serif" font-size="10.00" fill="#000000">Slider::overSliderButton</text>
</g>
<!-- Node32 -->
<g id="node2" class="node">
<title>Node32</title>
<g id="a_node2"><a xlink:href="classSlider.html#a8a7b5110db76b3975b6797f27a4f3017" target="_top" xlink:title="Slider::onMouseButtonDown">
<polygon fill="none" stroke="#000000" points="168,-38.5 168,-57.5 322,-57.5 322,-38.5 168,-38.5"/>
<text text-anchor="middle" x="245" y="-45.5" font-family="Helvetica,sans-Serif" font-size="10.00" fill="#000000">Slider::onMouseButtonDown</text>
</a>
</g>
</g>
<!-- Node31&#45;&gt;Node32 -->
<g id="edge1" class="edge">
<title>Node31&#45;&gt;Node32</title>
<path fill="none" stroke="#191970" d="M142.0913,-37.0767C150.6465,-37.9848 159.369,-38.9107 167.9364,-39.8201"/>
<polygon fill="#191970" stroke="#191970" points="142.458,-33.5961 132.1444,-36.0209 141.7191,-40.557 142.458,-33.5961"/>
</g>
<!-- Node33 -->
<g id="node3" class="node">
<title>Node33</title>
<g id="a_node3"><a xlink:href="classSlider.html#acdd85acda044f24f9c242361e45584c8" target="_top" xlink:title="Only overridden to enable dragging functionality this was only redeclared and redefined because the r...">
<polygon fill="none" stroke="#000000" points="188.5,-.5 188.5,-19.5 301.5,-19.5 301.5,-.5 188.5,-.5"/>
<text text-anchor="middle" x="245" y="-7.5" font-family="Helvetica,sans-Serif" font-size="10.00" fill="#000000">Slider::isMouseOver</text>
</a>
</g>
</g>
<!-- Node31&#45;&gt;Node33 -->
<g id="edge2" class="edge">
<title>Node31&#45;&gt;Node33</title>
<path fill="none" stroke="#191970" d="M142.1939,-20.9124C157.6352,-19.2734 173.617,-17.577 188.2451,-16.0243"/>
<polygon fill="#191970" stroke="#191970" points="141.7191,-17.443 132.1444,-21.9791 142.458,-24.4039 141.7191,-17.443"/>
</g>
</g>
</svg>
