<?xml version="1.0" encoding="UTF-8" standalone="no"?>
<!DOCTYPE svg PUBLIC "-//W3C//DTD SVG 1.1//EN"
 "http://www.w3.org/Graphics/SVG/1.1/DTD/svg11.dtd">
<!-- Generated by graphviz version 2.40.1 (20161225.0304)
 -->
<!-- Title: Settings Pages: 1 -->
<svg width="283pt" height="431pt"
 viewBox="0.00 0.00 283.00 431.00" xmlns="http://www.w3.org/2000/svg" xmlns:xlink="http://www.w3.org/1999/xlink">
<g id="graph0" class="graph" transform="scale(1 1) rotate(0) translate(4 427)">
<title>Settings</title>
<!-- Node0 -->
<g id="node1" class="node">
<title>Node0</title>
<polygon fill="#bfbfbf" stroke="#000000" points="8,-.5 8,-90.5 144,-90.5 144,-.5 8,-.5"/>
<text text-anchor="middle" x="76" y="-78.5" font-family="Helvetica,sans-Serif" font-size="10.00" fill="#000000">Settings</text>
<polyline fill="none" stroke="#000000" points="8,-71.5 144,-71.5 "/>
<text text-anchor="start" x="16" y="-59.5" font-family="Helvetica,sans-Serif" font-size="10.00" fill="#000000">+ Singleton&lt; Settings &gt;</text>
<polyline fill="none" stroke="#000000" points="8,-52.5 144,-52.5 "/>
<text text-anchor="start" x="16" y="-40.5" font-family="Helvetica,sans-Serif" font-size="10.00" fill="#000000">+ readFile()</text>
<text text-anchor="start" x="16" y="-29.5" font-family="Helvetica,sans-Serif" font-size="10.00" fill="#000000">+ writeFile()</text>
<text text-anchor="start" x="16" y="-18.5" font-family="Helvetica,sans-Serif" font-size="10.00" fill="#000000">&#45; Settings()</text>
<text text-anchor="start" x="16" y="-7.5" font-family="Helvetica,sans-Serif" font-size="10.00" fill="#000000">&#45; ~Settings()</text>
</g>
<!-- Node1 -->
<g id="node2" class="node">
<title>Node1</title>
<g id="a_node2"><a xlink:href="structSettingsData.html" target="_top" xlink:title="{SettingsData\n|+ mapSize\l+ screenWidth\l+ screenHeight\l+ currentScreenWidth\l+ currentScreenHeight\l+ maxElevationHeight\l+ vSync\l+ fullScreen\l+ fullScreenMode\l+ musicVolume\land 16 more...\l|}">
<polygon fill="none" stroke="#000000" points="0,-128.5 0,-295.5 128,-295.5 128,-128.5 0,-128.5"/>
<text text-anchor="middle" x="64" y="-283.5" font-family="Helvetica,sans-Serif" font-size="10.00" fill="#000000">SettingsData</text>
<polyline fill="none" stroke="#000000" points="0,-276.5 128,-276.5 "/>
<text text-anchor="start" x="8" y="-264.5" font-family="Helvetica,sans-Serif" font-size="10.00" fill="#000000">+ mapSize</text>
<text text-anchor="start" x="8" y="-253.5" font-family="Helvetica,sans-Serif" font-size="10.00" fill="#000000">+ screenWidth</text>
<text text-anchor="start" x="8" y="-242.5" font-family="Helvetica,sans-Serif" font-size="10.00" fill="#000000">+ screenHeight</text>
<text text-anchor="start" x="8" y="-231.5" font-family="Helvetica,sans-Serif" font-size="10.00" fill="#000000">+ currentScreenWidth</text>
<text text-anchor="start" x="8" y="-220.5" font-family="Helvetica,sans-Serif" font-size="10.00" fill="#000000">+ currentScreenHeight</text>
<text text-anchor="start" x="8" y="-209.5" font-family="Helvetica,sans-Serif" font-size="10.00" fill="#000000">+ maxElevationHeight</text>
<text text-anchor="start" x="8" y="-198.5" font-family="Helvetica,sans-Serif" font-size="10.00" fill="#000000">+ vSync</text>
<text text-anchor="start" x="8" y="-187.5" font-family="Helvetica,sans-Serif" font-size="10.00" fill="#000000">+ fullScreen</text>
<text text-anchor="start" x="8" y="-176.5" font-family="Helvetica,sans-Serif" font-size="10.00" fill="#000000">+ fullScreenMode</text>
<text text-anchor="start" x="8" y="-165.5" font-family="Helvetica,sans-Serif" font-size="10.00" fill="#000000">+ musicVolume</text>
<text text-anchor="start" x="8" y="-154.5" font-family="Helvetica,sans-Serif" font-size="10.00" fill="#000000">and 16 more...</text>
<polyline fill="none" stroke="#000000" points="0,-147.5 128,-147.5 "/>
<text text-anchor="middle" x="64" y="-135.5" font-family="Helvetica,sans-Serif" font-size="10.00" fill="#000000"> </text>
</a>
</g>
</g>
<!-- Node1&#45;&gt;Node0 -->
<g id="edge1" class="edge">
<title>Node1&#45;&gt;Node0</title>
<path fill="none" stroke="#191970" d="M70.7556,-118.2656C71.4438,-108.7172 72.1185,-99.3557 72.7427,-90.6945"/>
<polygon fill="none" stroke="#191970" points="67.2632,-118.0364 70.0352,-128.2622 74.245,-118.5397 67.2632,-118.0364"/>
</g>
<!-- Node2 -->
<g id="node3" class="node">
<title>Node2</title>
<g id="a_node3"><a xlink:href="classSingleton.html" target="_top" xlink:title="{Singleton\&lt; Settings \&gt;\n||+ instance()\l# Singleton()\l# ~Singleton()\l}">
<polygon fill="none" stroke="#000000" points="146.5,-172.5 146.5,-251.5 271.5,-251.5 271.5,-172.5 146.5,-172.5"/>
<text text-anchor="middle" x="209" y="-239.5" font-family="Helvetica,sans-Serif" font-size="10.00" fill="#000000">Singleton&lt; Settings &gt;</text>
<polyline fill="none" stroke="#000000" points="146.5,-232.5 271.5,-232.5 "/>
<text text-anchor="middle" x="209" y="-220.5" font-family="Helvetica,sans-Serif" font-size="10.00" fill="#000000"> </text>
<polyline fill="none" stroke="#000000" points="146.5,-213.5 271.5,-213.5 "/>
<text text-anchor="start" x="154.5" y="-201.5" font-family="Helvetica,sans-Serif" font-size="10.00" fill="#000000">+ instance()</text>
<text text-anchor="start" x="154.5" y="-190.5" font-family="Helvetica,sans-Serif" font-size="10.00" fill="#000000"># Singleton()</text>
<text text-anchor="start" x="154.5" y="-179.5" font-family="Helvetica,sans-Serif" font-size="10.00" fill="#000000"># ~Singleton()</text>
</a>
</g>
</g>
<!-- Node2&#45;&gt;Node0 -->
<g id="edge2" class="edge">
<title>Node2&#45;&gt;Node0</title>
<path fill="none" stroke="#191970" d="M170.7691,-164.1395C152.2921,-141.0086 130.2377,-113.399 112.0554,-90.6371"/>
<polygon fill="none" stroke="#191970" points="168.1673,-166.4903 177.1432,-172.1191 173.6366,-162.1214 168.1673,-166.4903"/>
</g>
<!-- Node3 -->
<g id="node4" class="node">
<title>Node3</title>
<g id="a_node4"><a xlink:href="classSingleton.html" target="_top" xlink:title="Abstract Singleton implementation. ">
<polygon fill="none" stroke="#000000" points="163.5,-343.5 163.5,-422.5 254.5,-422.5 254.5,-343.5 163.5,-343.5"/>
<text text-anchor="middle" x="209" y="-410.5" font-family="Helvetica,sans-Serif" font-size="10.00" fill="#000000">Singleton&lt; T &gt;</text>
<polyline fill="none" stroke="#000000" points="163.5,-403.5 254.5,-403.5 "/>
<text text-anchor="middle" x="209" y="-391.5" font-family="Helvetica,sans-Serif" font-size="10.00" fill="#000000"> </text>
<polyline fill="none" stroke="#000000" points="163.5,-384.5 254.5,-384.5 "/>
<text text-anchor="start" x="171.5" y="-372.5" font-family="Helvetica,sans-Serif" font-size="10.00" fill="#000000">+ instance()</text>
<text text-anchor="start" x="171.5" y="-361.5" font-family="Helvetica,sans-Serif" font-size="10.00" fill="#000000"># Singleton()</text>
<text text-anchor="start" x="171.5" y="-350.5" font-family="Helvetica,sans-Serif" font-size="10.00" fill="#000000"># ~Singleton()</text>
</a>
</g>
</g>
<!-- Node3&#45;&gt;Node2 -->
<g id="edge3" class="edge">
<title>Node3&#45;&gt;Node2</title>
<path fill="none" stroke="#ffa500" d="M209,-333.3201C209,-307.3749 209,-276.0579 209,-251.7414"/>
<polygon fill="#ffa500" stroke="#ffa500" points="205.5001,-333.3393 209,-343.3394 212.5001,-333.3394 205.5001,-333.3393"/>
<text text-anchor="middle" x="242" y="-317" font-family="Helvetica,sans-Serif" font-size="10.00" fill="#000000"> &lt; Settings &gt;</text>
</g>
</g>
</svg>
