<?xml version="1.0" encoding="UTF-8" standalone="no"?>
<!DOCTYPE svg PUBLIC "-//W3C//DTD SVG 1.1//EN"
 "http://www.w3.org/Graphics/SVG/1.1/DTD/svg11.dtd">
<!-- Generated by graphviz version 2.40.1 (20161225.0304)
 -->
<!-- Title: Game::mainMenu Pages: 1 -->
<svg width="1999pt" height="632pt"
 viewBox="0.00 0.00 1999.00 632.25" xmlns="http://www.w3.org/2000/svg" xmlns:xlink="http://www.w3.org/1999/xlink">
<g id="graph0" class="graph" transform="scale(1 1) rotate(0) translate(4 628.2506)">
<title>Game::mainMenu</title>
<!-- Node12 -->
<g id="node1" class="node">
<title>Node12</title>
<polygon fill="#bfbfbf" stroke="#000000" points="0,-308.5 0,-327.5 103,-327.5 103,-308.5 0,-308.5"/>
<text text-anchor="middle" x="51.5" y="-315.5" font-family="Helvetica,sans-Serif" font-size="10.00" fill="#000000">Game::mainMenu</text>
</g>
<!-- Node13 -->
<g id="node2" class="node">
<title>Node13</title>
<g id="a_node2"><a xlink:href="classSingleton.html#af5cb1e5749949e2b68416cfb8d378044" target="_top" xlink:title="Get an instance of the singleton. ">
<polygon fill="none" stroke="#000000" points="1878,-455 1878,-485 1991,-485 1991,-455 1878,-455"/>
<text text-anchor="start" x="1886" y="-473" font-family="Helvetica,sans-Serif" font-size="10.00" fill="#000000">Singleton&lt; Settings</text>
<text text-anchor="middle" x="1934.5" y="-462" font-family="Helvetica,sans-Serif" font-size="10.00" fill="#000000"> &gt;::instance</text>
</a>
</g>
</g>
<!-- Node12&#45;&gt;Node13 -->
<g id="edge1" class="edge">
<title>Node12&#45;&gt;Node13</title>
<path fill="none" stroke="#191970" d="M56.0903,-327.855C65.1906,-356.2479 89.1054,-428.9196 139,-464 249.7788,-541.8876 305.0806,-508 440.5,-508 440.5,-508 440.5,-508 1566,-508 1672.4562,-508 1794.2681,-484.8738 1867.7367,-473.1213"/>
<polygon fill="#191970" stroke="#191970" points="1868.4414,-476.5536 1877.776,-471.542 1867.3536,-469.6386 1868.4414,-476.5536"/>
</g>
<!-- Node12&#45;&gt;Node13 -->
<g id="edge17" class="edge">
<title>Node12&#45;&gt;Node13</title>
<path fill="none" stroke="#191970" d="M53.497,-327.7904C59.9752,-356.8203 83.2976,-442.8362 139,-482 249.7788,-559.8876 305.0806,-526 440.5,-526 440.5,-526 440.5,-526 1566,-526 1672.4562,-526 1794.2681,-502.8738 1867.7367,-486.3444"/>
<polygon fill="#191970" stroke="#191970" points="1868.8024,-489.6914 1877.776,-484.0589 1867.2485,-482.866 1868.8024,-489.6914"/>
</g>
<!-- Node12&#45;&gt;Node13 -->
<g id="edge60" class="edge">
<title>Node12&#45;&gt;Node13</title>
<path fill="none" stroke="#191970" d="M52.3071,-327.6652C56.6243,-361.5058 79.0737,-457.8664 139,-500 249.7788,-577.8876 305.0806,-544 440.5,-544 440.5,-544 440.5,-544 1566,-544 1690.9981,-544 1837.1669,-512.1162 1901.3895,-488.7319"/>
<polygon fill="#191970" stroke="#191970" points="1902.8918,-491.9044 1910.9774,-485.058 1900.3871,-485.3678 1902.8918,-491.9044"/>
</g>
<!-- Node14 -->
<g id="node3" class="node">
<title>Node14</title>
<g id="a_node3"><a xlink:href="classUIElement.html#a452ffed1ff191ababc8c15d4c455f6c2" target="_top" xlink:title="Set the uiElements sprite ID Set the sprite ID this ui element. The texture will be retrieved from th...">
<polygon fill="none" stroke="#000000" points="152,-422.5 152,-441.5 287,-441.5 287,-422.5 152,-422.5"/>
<text text-anchor="middle" x="219.5" y="-429.5" font-family="Helvetica,sans-Serif" font-size="10.00" fill="#000000">UIElement::setTextureID</text>
</a>
</g>
</g>
<!-- Node12&#45;&gt;Node14 -->
<g id="edge2" class="edge">
<title>Node12&#45;&gt;Node14</title>
<path fill="none" stroke="#191970" d="M58.2533,-327.71C71.5611,-346.1213 103.0256,-386.2096 139,-408 146.3517,-412.4531 154.5851,-416.1278 162.9045,-419.1466"/>
<polygon fill="#191970" stroke="#191970" points="162.0691,-422.5573 172.6627,-422.3963 164.2809,-415.9159 162.0691,-422.5573"/>
</g>
<!-- Node16 -->
<g id="node5" class="node">
<title>Node16</title>
<g id="a_node5"><a xlink:href="classUIElement.html#a440d645aa10dbf7d3c763ba6e1fc33a6" target="_top" xlink:title="Sets the UI Elements visibility. Set the UI Elements visibility. ">
<polygon fill="none" stroke="#000000" points="154,-308.5 154,-327.5 285,-327.5 285,-308.5 154,-308.5"/>
<text text-anchor="middle" x="219.5" y="-315.5" font-family="Helvetica,sans-Serif" font-size="10.00" fill="#000000">UIElement::setVisibility</text>
</a>
</g>
</g>
<!-- Node12&#45;&gt;Node16 -->
<g id="edge5" class="edge">
<title>Node12&#45;&gt;Node16</title>
<path fill="none" stroke="#191970" d="M103.2764,-318C116.0297,-318 129.9511,-318 143.5858,-318"/>
<polygon fill="#191970" stroke="#191970" points="143.9323,-321.5001 153.9322,-318 143.9322,-314.5001 143.9323,-321.5001"/>
</g>
<!-- Node17 -->
<g id="node6" class="node">
<title>Node17</title>
<g id="a_node6"><a xlink:href="classUIElement.html#a4c86f107c0e436dbeea3a899fc42fa48" target="_top" xlink:title="Sets the x,y position of this ui element Sets the x,y position of the ui element. ...">
<polygon fill="none" stroke="#000000" points="155.5,-270.5 155.5,-289.5 283.5,-289.5 283.5,-270.5 155.5,-270.5"/>
<text text-anchor="middle" x="219.5" y="-277.5" font-family="Helvetica,sans-Serif" font-size="10.00" fill="#000000">UIElement::setPosition</text>
</a>
</g>
</g>
<!-- Node12&#45;&gt;Node17 -->
<g id="edge6" class="edge">
<title>Node12&#45;&gt;Node17</title>
<path fill="none" stroke="#191970" d="M93.8935,-308.411C116.2626,-303.3513 143.8982,-297.1004 167.5472,-291.7512"/>
<polygon fill="#191970" stroke="#191970" points="168.4299,-295.1401 177.4114,-289.5201 166.8856,-288.3125 168.4299,-295.1401"/>
</g>
<!-- Node18 -->
<g id="node7" class="node">
<title>Node18</title>
<g id="a_node7"><a xlink:href="classUIElement.html#ad1c0d7431b71bdd9a3704a6d5c8a4643" target="_top" xlink:title="Get the position and the size of this ui element Gets the position and the size of this ui element...">
<polygon fill="none" stroke="#000000" points="139,-232.5 139,-251.5 300,-251.5 300,-232.5 139,-232.5"/>
<text text-anchor="middle" x="219.5" y="-239.5" font-family="Helvetica,sans-Serif" font-size="10.00" fill="#000000">UIElement::getUiElementRect</text>
</a>
</g>
</g>
<!-- Node12&#45;&gt;Node18 -->
<g id="edge7" class="edge">
<title>Node12&#45;&gt;Node18</title>
<path fill="none" stroke="#191970" d="M63.2007,-308.4596C79.3097,-295.7916 109.6674,-273.5603 139,-261 144.8041,-258.5147 150.9891,-256.3226 157.2529,-254.3964"/>
<polygon fill="#191970" stroke="#191970" points="158.4603,-257.6917 167.1177,-251.5843 156.5413,-250.9599 158.4603,-257.6917"/>
</g>
<!-- Node20 -->
<g id="node9" class="node">
<title>Node20</title>
<g id="a_node9"><a xlink:href="classUIElement.html#a570841bf8b7970ca935b1a00e571036a" target="_top" xlink:title="Handling for the hovering event Check, if the mouse cursor is hovering over the element. virtual function to provide custom handling if necessary (e.g. Combobox) Per default, it&#39;s the same implementation as isMouseOver. ">
<polygon fill="none" stroke="#000000" points="336,-194.5 336,-213.5 545,-213.5 545,-194.5 336,-194.5"/>
<text text-anchor="middle" x="440.5" y="-201.5" font-family="Helvetica,sans-Serif" font-size="10.00" fill="#000000">UIElement::isMouseOverHoverableArea</text>
</a>
</g>
</g>
<!-- Node12&#45;&gt;Node20 -->
<g id="edge61" class="edge">
<title>Node12&#45;&gt;Node20</title>
<path fill="none" stroke="#191970" d="M56.9464,-308.2159C68.8037,-288.0161 99.1232,-242.0028 139,-223 209.6382,-189.3382 300.3447,-188.4587 363.7365,-193.5841"/>
<polygon fill="#191970" stroke="#191970" points="363.7934,-197.1025 374.0614,-194.4913 364.4062,-190.1294 363.7934,-197.1025"/>
</g>
<!-- Node21 -->
<g id="node10" class="node">
<title>Node21</title>
<g id="a_node10"><a xlink:href="classText.html#a14b9f0937696af5fd95317eb8313bf92" target="_top" xlink:title="sets the text for this text widget. ">
<polygon fill="none" stroke="#000000" points="604.5,-572.5 604.5,-591.5 682.5,-591.5 682.5,-572.5 604.5,-572.5"/>
<text text-anchor="middle" x="643.5" y="-579.5" font-family="Helvetica,sans-Serif" font-size="10.00" fill="#000000">Text::setText</text>
</a>
</g>
</g>
<!-- Node12&#45;&gt;Node21 -->
<g id="edge10" class="edge">
<title>Node12&#45;&gt;Node21</title>
<path fill="none" stroke="#191970" d="M53.5614,-327.7516C62.5013,-369.0497 99.2601,-528.7587 139,-558 279.9144,-661.6874 507.6256,-618.3299 601.2433,-594.1517"/>
<polygon fill="#191970" stroke="#191970" points="602.4208,-597.4608 611.1948,-591.5222 600.6324,-590.693 602.4208,-597.4608"/>
</g>
<!-- Node24 -->
<g id="node13" class="node">
<title>Node24</title>
<g id="a_node13"><a xlink:href="classButton.html#ac6a233c876164a52d54ef7f1b3fb78d1" target="_top" xlink:title="Sets the button&#39;s text sets the button&#39;s text to the string passed as an argument. ">
<polygon fill="none" stroke="#000000" points="174.5,-156.5 174.5,-175.5 264.5,-175.5 264.5,-156.5 174.5,-156.5"/>
<text text-anchor="middle" x="219.5" y="-163.5" font-family="Helvetica,sans-Serif" font-size="10.00" fill="#000000">Button::setText</text>
</a>
</g>
</g>
<!-- Node12&#45;&gt;Node24 -->
<g id="edge15" class="edge">
<title>Node12&#45;&gt;Node24</title>
<path fill="none" stroke="#191970" d="M55.3736,-308.3088C65.4168,-284.4324 94.6434,-222.3721 139,-190 146.6938,-184.3849 155.7016,-180.0728 164.852,-176.7643"/>
<polygon fill="#191970" stroke="#191970" points="165.96,-180.0845 174.3903,-173.6673 163.7982,-173.4267 165.96,-180.0845"/>
</g>
<!-- Node26 -->
<g id="node15" class="node">
<title>Node26</title>
<g id="a_node15"><a xlink:href="classEngine.html#a260d4834150eae6eec2bde34df6dc827" target="_top" xlink:title="Creates a new game Creates a new game. ">
<polygon fill="none" stroke="#000000" points="388,-460.5 388,-479.5 493,-479.5 493,-460.5 388,-460.5"/>
<text text-anchor="middle" x="440.5" y="-467.5" font-family="Helvetica,sans-Serif" font-size="10.00" fill="#000000">Engine::newGame</text>
</a>
</g>
</g>
<!-- Node12&#45;&gt;Node26 -->
<g id="edge18" class="edge">
<title>Node12&#45;&gt;Node26</title>
<path fill="none" stroke="#191970" d="M54.4514,-327.5959C62.8482,-353.0466 89.5183,-422.2788 139,-451 213.9186,-494.4858 317.6649,-489.7686 381.8566,-480.9461"/>
<polygon fill="#191970" stroke="#191970" points="382.4153,-484.4018 391.8089,-479.5016 381.4098,-477.4743 382.4153,-484.4018"/>
</g>
<!-- Node45 -->
<g id="node34" class="node">
<title>Node45</title>
<g id="a_node34"><a xlink:href="classEngine.html#a83b7dbeee899b36a13d5b07c7ad87ebc" target="_top" xlink:title="Loads a saved game Loads a saved Game. ">
<polygon fill="none" stroke="#000000" points="387.5,-296.5 387.5,-315.5 493.5,-315.5 493.5,-296.5 387.5,-296.5"/>
<text text-anchor="middle" x="440.5" y="-303.5" font-family="Helvetica,sans-Serif" font-size="10.00" fill="#000000">Engine::loadGame</text>
</a>
</g>
</g>
<!-- Node12&#45;&gt;Node45 -->
<g id="edge52" class="edge">
<title>Node12&#45;&gt;Node45</title>
<path fill="none" stroke="#191970" d="M61.785,-327.6317C77.1668,-341.3037 107.7166,-365.7093 139,-375 207.5944,-395.3716 235.5067,-405.9971 300,-375 323.0846,-363.905 314.312,-343.6246 336,-330 348.4228,-322.1959 363.1009,-316.9223 377.4684,-313.3607"/>
<polygon fill="#191970" stroke="#191970" points="378.3366,-316.7531 387.3339,-311.1585 376.8115,-309.9213 378.3366,-316.7531"/>
</g>
<!-- Node49 -->
<g id="node38" class="node">
<title>Node49</title>
<g id="a_node38"><a xlink:href="classEngine.html#a0ba57971ffb5173ecc425461f65a4cd8" target="_top" xlink:title="Quits the game Sets m_running to false and quitting the game. ">
<polygon fill="none" stroke="#000000" points="167.5,-346.5 167.5,-365.5 271.5,-365.5 271.5,-346.5 167.5,-346.5"/>
<text text-anchor="middle" x="219.5" y="-353.5" font-family="Helvetica,sans-Serif" font-size="10.00" fill="#000000">Engine::quitGame</text>
</a>
</g>
</g>
<!-- Node12&#45;&gt;Node49 -->
<g id="edge57" class="edge">
<title>Node12&#45;&gt;Node49</title>
<path fill="none" stroke="#191970" d="M93.8935,-327.589C116.2626,-332.6487 143.8982,-338.8996 167.5472,-344.2488"/>
<polygon fill="#191970" stroke="#191970" points="166.8856,-347.6875 177.4114,-346.4799 168.4299,-340.8599 166.8856,-347.6875"/>
</g>
<!-- Node50 -->
<g id="node39" class="node">
<title>Node50</title>
<g id="a_node39"><a xlink:href="classImage.html#aea00862523c7a5c9551655f2660d91a8" target="_top" xlink:title="sets the opacity of the image ">
<polygon fill="none" stroke="#000000" points="166.5,-118.5 166.5,-137.5 272.5,-137.5 272.5,-118.5 166.5,-118.5"/>
<text text-anchor="middle" x="219.5" y="-125.5" font-family="Helvetica,sans-Serif" font-size="10.00" fill="#000000">Image::setOpacity</text>
</a>
</g>
</g>
<!-- Node12&#45;&gt;Node50 -->
<g id="edge59" class="edge">
<title>Node12&#45;&gt;Node50</title>
<path fill="none" stroke="#191970" d="M53.4348,-308.4472C59.8663,-279.2628 83.3578,-190.6146 139,-147 144.3153,-142.8337 150.3945,-139.5569 156.7777,-136.9835"/>
<polygon fill="#191970" stroke="#191970" points="157.9855,-140.2693 166.2936,-133.6947 155.6988,-133.6533 157.9855,-140.2693"/>
</g>
<!-- Node51 -->
<g id="node40" class="node">
<title>Node51</title>
<g id="a_node40"><a xlink:href="classUIElement.html#a43b9f5f4be71c672ca8ed528fce1dfc5" target="_top" xlink:title="UIElement::onMouseLeave">
<polygon fill="none" stroke="#000000" points="146.5,-80.5 146.5,-99.5 292.5,-99.5 292.5,-80.5 146.5,-80.5"/>
<text text-anchor="middle" x="219.5" y="-87.5" font-family="Helvetica,sans-Serif" font-size="10.00" fill="#000000">UIElement::onMouseLeave</text>
</a>
</g>
</g>
<!-- Node12&#45;&gt;Node51 -->
<g id="edge62" class="edge">
<title>Node12&#45;&gt;Node51</title>
<path fill="none" stroke="#191970" d="M52.4936,-308.3105C56.4516,-274.9571 74.1811,-163.9346 139,-109 140.965,-107.3347 143.0498,-105.8094 145.2281,-104.4128"/>
<polygon fill="#191970" stroke="#191970" points="146.9124,-107.481 154.037,-99.6394 143.5773,-101.3265 146.9124,-107.481"/>
</g>
<!-- Node52 -->
<g id="node41" class="node">
<title>Node52</title>
<g id="a_node41"><a xlink:href="classUIElement.html#a8e089719777f393d720e3cb1708f8070" target="_top" xlink:title="UIElement::onMouseMove">
<polygon fill="none" stroke="#000000" points="148,-42.5 148,-61.5 291,-61.5 291,-42.5 148,-42.5"/>
<text text-anchor="middle" x="219.5" y="-49.5" font-family="Helvetica,sans-Serif" font-size="10.00" fill="#000000">UIElement::onMouseMove</text>
</a>
</g>
</g>
<!-- Node12&#45;&gt;Node52 -->
<g id="edge63" class="edge">
<title>Node12&#45;&gt;Node52</title>
<path fill="none" stroke="#191970" d="M51.7953,-308.4343C53.4738,-271.5992 64.6595,-137.6708 139,-71 140.7372,-69.442 142.5782,-68.0053 144.5028,-66.6807"/>
<polygon fill="#191970" stroke="#191970" points="146.4858,-69.5781 153.4145,-61.5629 142.9997,-63.5078 146.4858,-69.5781"/>
</g>
<!-- Node53 -->
<g id="node42" class="node">
<title>Node53</title>
<g id="a_node42"><a xlink:href="classUIElement.html#aaf7e8be5b7a5668c0b8aab27d01d6a30" target="_top" xlink:title="UIElement::onMouseEnter">
<polygon fill="none" stroke="#000000" points="148,-4.5 148,-23.5 291,-23.5 291,-4.5 148,-4.5"/>
<text text-anchor="middle" x="219.5" y="-11.5" font-family="Helvetica,sans-Serif" font-size="10.00" fill="#000000">UIElement::onMouseEnter</text>
</a>
</g>
</g>
<!-- Node12&#45;&gt;Node53 -->
<g id="edge64" class="edge">
<title>Node12&#45;&gt;Node53</title>
<path fill="none" stroke="#191970" d="M53.1683,-308.2251C61.1125,-262.7925 96.4882,-72.7907 139,-33 140.5333,-31.5649 142.1541,-30.2317 143.8474,-28.9936"/>
<polygon fill="#191970" stroke="#191970" points="146.0951,-31.7252 152.8491,-23.5622 142.4787,-25.7317 146.0951,-31.7252"/>
</g>
<!-- Node14&#45;&gt;Node13 -->
<g id="edge3" class="edge">
<title>Node14&#45;&gt;Node13</title>
<path fill="none" stroke="#191970" d="M246.3795,-422.4149C312.8239,-399.6073 490.5091,-344 643.5,-344 643.5,-344 643.5,-344 1566,-344 1690.3587,-344 1729.4389,-337.1315 1842,-390 1870.9226,-403.5846 1897.808,-428.8459 1915.0554,-447.3596"/>
<polygon fill="#191970" stroke="#191970" points="1912.5217,-449.7759 1921.8349,-454.8272 1917.7045,-445.0706 1912.5217,-449.7759"/>
</g>
<!-- Node15 -->
<g id="node4" class="node">
<title>Node15</title>
<g id="a_node4"><a xlink:href="classResourcesManager.html#aae2a2032792aaa57862eb9c494ae1cf2" target="_top" xlink:title="ResourcesManager::getUITexture">
<polygon fill="none" stroke="#000000" points="352.5,-422.5 352.5,-441.5 528.5,-441.5 528.5,-422.5 352.5,-422.5"/>
<text text-anchor="middle" x="440.5" y="-429.5" font-family="Helvetica,sans-Serif" font-size="10.00" fill="#000000">ResourcesManager::getUITexture</text>
</a>
</g>
</g>
<!-- Node14&#45;&gt;Node15 -->
<g id="edge4" class="edge">
<title>Node14&#45;&gt;Node15</title>
<path fill="none" stroke="#191970" d="M287.0081,-432C304.3589,-432 323.3851,-432 341.9556,-432"/>
<polygon fill="#191970" stroke="#191970" points="342.2121,-435.5001 352.2121,-432 342.2121,-428.5001 342.2121,-435.5001"/>
</g>
<!-- Node19 -->
<g id="node8" class="node">
<title>Node19</title>
<g id="a_node8"><a xlink:href="classUIElement.html#aa7f624963eaeb31043d74219ee24386c" target="_top" xlink:title="Checks if the mouse cursor is over the current UI Element Check if the coordinates match the ones sto...">
<polygon fill="none" stroke="#000000" points="372,-232.5 372,-251.5 509,-251.5 509,-232.5 372,-232.5"/>
<text text-anchor="middle" x="440.5" y="-239.5" font-family="Helvetica,sans-Serif" font-size="10.00" fill="#000000">UIElement::isMouseOver</text>
</a>
</g>
</g>
<!-- Node18&#45;&gt;Node19 -->
<g id="edge8" class="edge">
<title>Node18&#45;&gt;Node19</title>
<path fill="none" stroke="#191970" d="M300.2242,-242C320.3714,-242 341.9457,-242 361.9843,-242"/>
<polygon fill="#191970" stroke="#191970" points="361.9952,-245.5001 371.9951,-242 361.9951,-238.5001 361.9952,-245.5001"/>
</g>
<!-- Node18&#45;&gt;Node20 -->
<g id="edge9" class="edge">
<title>Node18&#45;&gt;Node20</title>
<path fill="none" stroke="#191970" d="M274.9824,-232.46C305.3257,-227.2426 343.1001,-220.7475 374.8979,-215.28"/>
<polygon fill="#191970" stroke="#191970" points="375.7326,-218.6879 384.9948,-213.5439 374.5463,-211.7892 375.7326,-218.6879"/>
</g>
<!-- Node22 -->
<g id="node11" class="node">
<title>Node22</title>
<g id="a_node11"><a xlink:href="classText.html#a3bf5a064fd37d06b8d3dc5a700556897" target="_top" xlink:title="Draws a text string to the screen Draws a text string to the screen. This could either be a standalon...">
<polygon fill="none" stroke="#000000" points="1699,-572.5 1699,-591.5 1829,-591.5 1829,-572.5 1699,-572.5"/>
<text text-anchor="middle" x="1764" y="-579.5" font-family="Helvetica,sans-Serif" font-size="10.00" fill="#000000">Text::createTextTexture</text>
</a>
</g>
</g>
<!-- Node21&#45;&gt;Node22 -->
<g id="edge11" class="edge">
<title>Node21&#45;&gt;Node22</title>
<path fill="none" stroke="#191970" d="M682.5537,-582C749.1985,-582 889.1684,-582 1007.5,-582 1007.5,-582 1007.5,-582 1386.5,-582 1491.1886,-582 1612.2079,-582 1688.4186,-582"/>
<polygon fill="#191970" stroke="#191970" points="1688.8685,-585.5001 1698.8685,-582 1688.8685,-578.5001 1688.8685,-585.5001"/>
</g>
<!-- Node22&#45;&gt;Node13 -->
<g id="edge12" class="edge">
<title>Node22&#45;&gt;Node13</title>
<path fill="none" stroke="#191970" d="M1780.4257,-572.434C1796.8575,-566.9625 1822.435,-560.4499 1842,-549 1867.7137,-533.9517 1891.9258,-510.4457 1909.1244,-492.8148"/>
<polygon fill="#191970" stroke="#191970" points="1912.0744,-494.7993 1916.5131,-485.179 1907.044,-489.9315 1912.0744,-494.7993"/>
</g>
<!-- Node22&#45;&gt;Node13 -->
<g id="edge14" class="edge">
<title>Node22&#45;&gt;Node13</title>
<path fill="none" stroke="#191970" d="M1829.2599,-573.4502C1833.6737,-571.5131 1837.9647,-569.3615 1842,-567 1874.2568,-548.1225 1904.1507,-515.9353 1920.8002,-493.5896"/>
<polygon fill="#191970" stroke="#191970" points="1923.7741,-495.4466 1926.705,-485.2652 1918.0646,-491.3966 1923.7741,-495.4466"/>
</g>
<!-- Node23 -->
<g id="node12" class="node">
<title>Node23</title>
<g id="a_node12"><a xlink:href="structStrongType.html#acc66e6d6b9c95193a97a839560499933" target="_top" xlink:title="StrongType::get">
<polygon fill="none" stroke="#000000" points="1888.5,-572.5 1888.5,-591.5 1980.5,-591.5 1980.5,-572.5 1888.5,-572.5"/>
<text text-anchor="middle" x="1934.5" y="-579.5" font-family="Helvetica,sans-Serif" font-size="10.00" fill="#000000">StrongType::get</text>
</a>
</g>
</g>
<!-- Node22&#45;&gt;Node23 -->
<g id="edge13" class="edge">
<title>Node22&#45;&gt;Node23</title>
<path fill="none" stroke="#191970" d="M1829.4321,-582C1845.5326,-582 1862.6314,-582 1878.2546,-582"/>
<polygon fill="#191970" stroke="#191970" points="1878.283,-585.5001 1888.283,-582 1878.2829,-578.5001 1878.283,-585.5001"/>
</g>
<!-- Node25 -->
<g id="node14" class="node">
<title>Node25</title>
<g id="a_node14"><a xlink:href="classButton.html#af1d30ec3cf56aec6aabbd319e2be8359" target="_top" xlink:title="Button::centerTextLabel">
<polygon fill="none" stroke="#000000" points="374.5,-156.5 374.5,-175.5 506.5,-175.5 506.5,-156.5 374.5,-156.5"/>
<text text-anchor="middle" x="440.5" y="-163.5" font-family="Helvetica,sans-Serif" font-size="10.00" fill="#000000">Button::centerTextLabel</text>
</a>
</g>
</g>
<!-- Node24&#45;&gt;Node25 -->
<g id="edge16" class="edge">
<title>Node24&#45;&gt;Node25</title>
<path fill="none" stroke="#191970" d="M264.7559,-166C293.3667,-166 331.0692,-166 364.2149,-166"/>
<polygon fill="#191970" stroke="#191970" points="364.3401,-169.5001 374.3401,-166 364.3401,-162.5001 364.3401,-169.5001"/>
</g>
<!-- Node26&#45;&gt;Node13 -->
<g id="edge19" class="edge">
<title>Node26&#45;&gt;Node13</title>
<path fill="none" stroke="#191970" d="M493.0493,-470C565.6612,-470 700.775,-470 816,-470 816,-470 816,-470 1566,-470 1671.5533,-470 1794.1137,-470 1867.9158,-470"/>
<polygon fill="#191970" stroke="#191970" points="1867.9992,-473.5001 1877.9991,-470 1867.9991,-466.5001 1867.9992,-473.5001"/>
</g>
<!-- Node27 -->
<g id="node16" class="node">
<title>Node27</title>
<g id="a_node16"><a xlink:href="classMap.html#a482ac34426e8aa66abb46f60ec329402" target="_top" xlink:title="Initialize the Map with node objects Initialize the Map with node objects. ">
<polygon fill="none" stroke="#000000" points="604,-397.5 604,-416.5 683,-416.5 683,-397.5 604,-397.5"/>
<text text-anchor="middle" x="643.5" y="-404.5" font-family="Helvetica,sans-Serif" font-size="10.00" fill="#000000">Map::initMap</text>
</a>
</g>
</g>
<!-- Node26&#45;&gt;Node27 -->
<g id="edge20" class="edge">
<title>Node26&#45;&gt;Node27</title>
<path fill="none" stroke="#191970" d="M493.1851,-462.9573C509.9527,-460.0443 528.4407,-456.122 545,-451 569.9501,-443.2826 596.9439,-430.918 616.3526,-421.2585"/>
<polygon fill="#191970" stroke="#191970" points="618.1536,-424.2698 625.4939,-416.6297 614.9913,-418.0248 618.1536,-424.2698"/>
</g>
<!-- Node28 -->
<g id="node17" class="node">
<title>Node28</title>
<g id="a_node17"><a xlink:href="classTerrainGenerator.html#adcc251757a1f3a06471a49f17886b8ce" target="_top" xlink:title="TerrainGenerator::generate\lTerrain">
<polygon fill="none" stroke="#000000" points="742,-392 742,-422 890,-422 890,-392 742,-392"/>
<text text-anchor="start" x="750" y="-410" font-family="Helvetica,sans-Serif" font-size="10.00" fill="#000000">TerrainGenerator::generate</text>
<text text-anchor="middle" x="816" y="-399" font-family="Helvetica,sans-Serif" font-size="10.00" fill="#000000">Terrain</text>
</a>
</g>
</g>
<!-- Node27&#45;&gt;Node28 -->
<g id="edge21" class="edge">
<title>Node27&#45;&gt;Node28</title>
<path fill="none" stroke="#191970" d="M683.075,-407C697.4902,-407 714.3945,-407 731.224,-407"/>
<polygon fill="#191970" stroke="#191970" points="731.6702,-410.5001 741.6702,-407 731.6701,-403.5001 731.6702,-410.5001"/>
</g>
<!-- Node30 -->
<g id="node19" class="node">
<title>Node30</title>
<g id="a_node19"><a xlink:href="classMap.html#a481b37ba71ef0e51e836fc42805762dd" target="_top" xlink:title="Update all mapNodes Updates all mapNode and its adjacent tiles regarding height information, draws slopes for adjacent tiles and sets tiling for mapNode sprite if applicable. ">
<polygon fill="none" stroke="#000000" points="756,-296.5 756,-315.5 876,-315.5 876,-296.5 756,-296.5"/>
<text text-anchor="middle" x="816" y="-303.5" font-family="Helvetica,sans-Serif" font-size="10.00" fill="#000000">Map::updateAllNodes</text>
</a>
</g>
</g>
<!-- Node27&#45;&gt;Node30 -->
<g id="edge24" class="edge">
<title>Node27&#45;&gt;Node30</title>
<path fill="none" stroke="#191970" d="M659.7284,-397.4982C689.9085,-379.8275 754.8575,-341.7994 790.7952,-320.7576"/>
<polygon fill="#191970" stroke="#191970" points="792.8279,-323.6233 799.6891,-315.5502 789.291,-317.5825 792.8279,-323.6233"/>
</g>
<!-- Node28&#45;&gt;Node13 -->
<g id="edge23" class="edge">
<title>Node28&#45;&gt;Node13</title>
<path fill="none" stroke="#191970" d="M890.3299,-399.4313C969.1056,-392.0732 1097.185,-382 1208,-382 1208,-382 1208,-382 1566,-382 1684.3301,-382 1818.3319,-425.4587 1887.5419,-451.2954"/>
<polygon fill="#191970" stroke="#191970" points="1886.6819,-454.7119 1897.2735,-454.9722 1889.156,-448.1637 1886.6819,-454.7119"/>
</g>
<!-- Node29 -->
<g id="node18" class="node">
<title>Node29</title>
<g id="a_node18"><a xlink:href="classTerrainGenerator.html#ac94cfaeb9dc89453018399361da5174a" target="_top" xlink:title="TerrainGenerator::loadTerrain\lDataFromJSON">
<polygon fill="none" stroke="#000000" points="928.5,-411 928.5,-441 1086.5,-441 1086.5,-411 928.5,-411"/>
<text text-anchor="start" x="936.5" y="-429" font-family="Helvetica,sans-Serif" font-size="10.00" fill="#000000">TerrainGenerator::loadTerrain</text>
<text text-anchor="middle" x="1007.5" y="-418" font-family="Helvetica,sans-Serif" font-size="10.00" fill="#000000">DataFromJSON</text>
</a>
</g>
</g>
<!-- Node28&#45;&gt;Node29 -->
<g id="edge22" class="edge">
<title>Node28&#45;&gt;Node29</title>
<path fill="none" stroke="#191970" d="M890.0389,-414.3459C899.2368,-415.2585 908.7168,-416.1991 918.1147,-417.1315"/>
<polygon fill="#191970" stroke="#191970" points="917.9662,-420.6339 928.263,-418.1384 918.6574,-413.6681 917.9662,-420.6339"/>
</g>
<!-- Node31 -->
<g id="node20" class="node">
<title>Node31</title>
<g id="a_node20"><a xlink:href="classMap.html#a59d21f2688713fbcfe320eb1b24405ca" target="_top" xlink:title="Update mapNode and its adjacent tiles Updates mapNode height information, draws slopes for adjacent t...">
<polygon fill="none" stroke="#000000" points="926,-144.5 926,-163.5 1089,-163.5 1089,-144.5 926,-144.5"/>
<text text-anchor="middle" x="1007.5" y="-151.5" font-family="Helvetica,sans-Serif" font-size="10.00" fill="#000000">Map::updateNeighborsOfNode</text>
</a>
</g>
</g>
<!-- Node30&#45;&gt;Node31 -->
<g id="edge25" class="edge">
<title>Node30&#45;&gt;Node31</title>
<path fill="none" stroke="#191970" d="M869.326,-296.4301C876.5602,-293.9682 883.6648,-290.8777 890,-287 938.4,-257.3749 977.9763,-201.5352 996.3731,-172.5355"/>
<polygon fill="#191970" stroke="#191970" points="999.4899,-174.1503 1001.7821,-163.8064 993.5397,-170.4631 999.4899,-174.1503"/>
</g>
<!-- Node32 -->
<g id="node21" class="node">
<title>Node32</title>
<g id="a_node21"><a xlink:href="classMap.html#aab37e4a52faf81e9b696b8cf1bd9a690" target="_top" xlink:title="Get neighbor MapNode Objects Stores pointers to the neighboring nodes of the given coordinates in the...">
<polygon fill="none" stroke="#000000" points="1332.5,-182.5 1332.5,-201.5 1440.5,-201.5 1440.5,-182.5 1332.5,-182.5"/>
<text text-anchor="middle" x="1386.5" y="-189.5" font-family="Helvetica,sans-Serif" font-size="10.00" fill="#000000">Map::getNeighbors</text>
</a>
</g>
</g>
<!-- Node31&#45;&gt;Node32 -->
<g id="edge26" class="edge">
<title>Node31&#45;&gt;Node32</title>
<path fill="none" stroke="#191970" d="M1060.0046,-163.5004C1080.2603,-166.8998 1103.6546,-170.5036 1125,-173 1191.9686,-180.8321 1268.9878,-185.9617 1322.0061,-188.8942"/>
<polygon fill="#191970" stroke="#191970" points="1322.1048,-192.4046 1332.2797,-189.4515 1322.484,-185.4148 1322.1048,-192.4046"/>
</g>
<!-- Node33 -->
<g id="node22" class="node">
<title>Node33</title>
<g id="a_node22"><a xlink:href="classMap.html#a0ff55eb041cdf29aa582a21145319ce0" target="_top" xlink:title="Get elevated neighbor positions in a bitmask Checks all neighboring tiles and returns the elevated ne...">
<polygon fill="none" stroke="#000000" points="1135,-95 1135,-125 1281,-125 1281,-95 1135,-95"/>
<text text-anchor="start" x="1143" y="-113" font-family="Helvetica,sans-Serif" font-size="10.00" fill="#000000">Map::getElevatedNeighbor</text>
<text text-anchor="middle" x="1208" y="-102" font-family="Helvetica,sans-Serif" font-size="10.00" fill="#000000">Bitmask</text>
</a>
</g>
</g>
<!-- Node31&#45;&gt;Node33 -->
<g id="edge27" class="edge">
<title>Node31&#45;&gt;Node33</title>
<path fill="none" stroke="#191970" d="M1051.0055,-144.4527C1073.8818,-139.4324 1102.636,-133.1223 1129.2649,-127.2785"/>
<polygon fill="#191970" stroke="#191970" points="1130.3326,-130.6276 1139.3499,-125.0654 1128.8321,-123.7903 1130.3326,-130.6276"/>
</g>
<!-- Node34 -->
<g id="node23" class="node">
<title>Node34</title>
<g id="a_node23"><a xlink:href="classMap.html#aa8cc2ed983007621bce12dd9d1b8ec5b" target="_top" xlink:title="Demolish a node This function gathers all tiles that should be demolished and invokes the nodes demol...">
<polygon fill="none" stroke="#000000" points="1330,-141.5 1330,-160.5 1443,-160.5 1443,-141.5 1330,-141.5"/>
<text text-anchor="middle" x="1386.5" y="-148.5" font-family="Helvetica,sans-Serif" font-size="10.00" fill="#000000">Map::demolishNode</text>
</a>
</g>
</g>
<!-- Node31&#45;&gt;Node34 -->
<g id="edge28" class="edge">
<title>Node31&#45;&gt;Node34</title>
<path fill="none" stroke="#191970" d="M1013.8143,-144.2845C1030.547,-125.6738 1077.9749,-88.7865 1125,-76 1196.1929,-56.642 1220.5691,-54.0306 1291,-76 1325.2032,-86.6689 1357.956,-114.3474 1374.7791,-133.2806"/>
<polygon fill="#191970" stroke="#191970" points="1372.2868,-135.7609 1381.3356,-141.2718 1377.6984,-131.3208 1372.2868,-135.7609"/>
</g>
<!-- Node41 -->
<g id="node30" class="node">
<title>Node41</title>
<g id="a_node30"><a xlink:href="classMap.html#a3f5c7dd50cdc712e1ef18047cf619888" target="_top" xlink:title="Get a bitmask that represents same&#45;tile neighbors Checks all neighboring tiles and returns the elevat...">
<polygon fill="none" stroke="#000000" points="1125,-.5 1125,-19.5 1291,-19.5 1291,-.5 1125,-.5"/>
<text text-anchor="middle" x="1208" y="-7.5" font-family="Helvetica,sans-Serif" font-size="10.00" fill="#000000">Map::calculateAutotileBitmask</text>
</a>
</g>
</g>
<!-- Node31&#45;&gt;Node41 -->
<g id="edge39" class="edge">
<title>Node31&#45;&gt;Node41</title>
<path fill="none" stroke="#191970" d="M1014.2302,-144.2678C1030.5136,-121.4617 1074.4433,-64.216 1125,-34 1132.5775,-29.4712 1141.0575,-25.7562 1149.6246,-22.7203"/>
<polygon fill="#191970" stroke="#191970" points="1150.8651,-25.9973 1159.2907,-19.574 1148.6984,-19.3411 1150.8651,-25.9973"/>
</g>
<!-- Node43 -->
<g id="node32" class="node">
<title>Node43</title>
<g id="a_node32"><a xlink:href="classMap.html#aba5154a4d917900679a3c0f7ec701561" target="_top" xlink:title="Increase Height Increases the height of the node and checks the surrounding tiles. Either draw a slope sprite or elevate the tile if necessary. ">
<polygon fill="none" stroke="#000000" points="1150,-220.5 1150,-239.5 1266,-239.5 1266,-220.5 1150,-220.5"/>
<text text-anchor="middle" x="1208" y="-227.5" font-family="Helvetica,sans-Serif" font-size="10.00" fill="#000000">Map::increaseHeight</text>
</a>
</g>
</g>
<!-- Node31&#45;&gt;Node43 -->
<g id="edge41" class="edge">
<title>Node31&#45;&gt;Node43</title>
<path fill="none" stroke="#191970" d="M1043.2421,-163.6049C1066.264,-173.111 1097.0152,-186.8145 1125,-197 1144.9605,-204.2649 1168.2352,-210.8362 1185.0499,-216.7816"/>
<polygon fill="#191970" stroke="#191970" points="1184.0059,-220.1289 1194.5972,-220.4032 1186.4886,-213.5839 1184.0059,-220.1289"/>
</g>
<!-- Node44 -->
<g id="node33" class="node">
<title>Node44</title>
<g id="a_node33"><a xlink:href="classMap.html#afb8cc864df90d273a5074872d635dc40" target="_top" xlink:title="Decrease Height Decreases the height of the node and checks the surrounding tiles. Either draw a slope sprite or lower the tile if necessary. ">
<polygon fill="none" stroke="#000000" points="1148.5,-144.5 1148.5,-163.5 1267.5,-163.5 1267.5,-144.5 1148.5,-144.5"/>
<text text-anchor="middle" x="1208" y="-151.5" font-family="Helvetica,sans-Serif" font-size="10.00" fill="#000000">Map::decreaseHeight</text>
</a>
</g>
</g>
<!-- Node31&#45;&gt;Node44 -->
<g id="edge47" class="edge">
<title>Node31&#45;&gt;Node44</title>
<path fill="none" stroke="#191970" d="M1089.051,-147.3555C1105.3263,-147.1699 1122.2832,-147.2292 1138.123,-147.5332"/>
<polygon fill="#191970" stroke="#191970" points="1138.2746,-151.0376 1148.3524,-147.7683 1138.4354,-144.0394 1138.2746,-151.0376"/>
</g>
<!-- Node34&#45;&gt;Node31 -->
<g id="edge38" class="edge">
<title>Node34&#45;&gt;Node31</title>
<path fill="none" stroke="#191970" d="M1369.9349,-141.491C1352.1324,-127.5696 1322.1684,-103.7223 1291,-94 1220.5691,-72.0306 1196.1929,-74.642 1125,-94 1091.9497,-102.9866 1058.7005,-123.878 1036.0485,-138.7063"/>
<polygon fill="#191970" stroke="#191970" points="1034.0486,-135.8324 1027.6132,-144.2488 1037.8925,-141.6825 1034.0486,-135.8324"/>
</g>
<!-- Node35 -->
<g id="node24" class="node">
<title>Node35</title>
<g id="a_node24"><a xlink:href="isoMath_8cxx.html#a7fa61c3d8ef446fb1c48dc4838023649" target="_top" xlink:title="Check if given coordinates are within map boundaries Checks if coordinates are within map boundaries...">
<polygon fill="none" stroke="#000000" points="1686,-144.5 1686,-163.5 1842,-163.5 1842,-144.5 1686,-144.5"/>
<text text-anchor="middle" x="1764" y="-151.5" font-family="Helvetica,sans-Serif" font-size="10.00" fill="#000000">isPointWithinMapBoundaries</text>
</a>
</g>
</g>
<!-- Node34&#45;&gt;Node35 -->
<g id="edge29" class="edge">
<title>Node34&#45;&gt;Node35</title>
<path fill="none" stroke="#191970" d="M1411.9996,-141.362C1430.9875,-134.7204 1457.7146,-126.4868 1482,-123 1555.9088,-112.3886 1575.9903,-113.1167 1650,-123 1676.2685,-126.5079 1705.0617,-134.372 1727.1392,-141.3013"/>
<polygon fill="#191970" stroke="#191970" points="1726.1857,-144.6712 1736.7771,-144.4003 1728.3285,-138.0072 1726.1857,-144.6712"/>
</g>
<!-- Node36 -->
<g id="node25" class="node">
<title>Node36</title>
<g id="a_node25"><a xlink:href="classMapNode.html#a6b57e4355d0780fb37c34d63bbcdfdf9" target="_top" xlink:title="MapNode::getMapNodeDataFor\lLayer">
<polygon fill="none" stroke="#000000" points="1482,-133 1482,-163 1650,-163 1650,-133 1482,-133"/>
<text text-anchor="start" x="1490" y="-151" font-family="Helvetica,sans-Serif" font-size="10.00" fill="#000000">MapNode::getMapNodeDataFor</text>
<text text-anchor="middle" x="1566" y="-140" font-family="Helvetica,sans-Serif" font-size="10.00" fill="#000000">Layer</text>
</a>
</g>
</g>
<!-- Node34&#45;&gt;Node36 -->
<g id="edge31" class="edge">
<title>Node34&#45;&gt;Node36</title>
<path fill="none" stroke="#191970" d="M1443.2949,-150.0508C1452.3664,-149.8992 1461.9594,-149.7388 1471.6242,-149.5773"/>
<polygon fill="#191970" stroke="#191970" points="1471.7629,-153.0756 1481.703,-149.4089 1471.6459,-146.0766 1471.7629,-153.0756"/>
</g>
<!-- Node37 -->
<g id="node26" class="node">
<title>Node37</title>
<g id="a_node26"><a xlink:href="classMap.html#ab6685363fde5a50c749adab9df96c231" target="_top" xlink:title="whether a node is a multiobject or not (bigger than 1x1 building) ">
<polygon fill="none" stroke="#000000" points="1500,-182.5 1500,-201.5 1632,-201.5 1632,-182.5 1500,-182.5"/>
<text text-anchor="middle" x="1566" y="-189.5" font-family="Helvetica,sans-Serif" font-size="10.00" fill="#000000">Map::isNodeMultiObject</text>
</a>
</g>
</g>
<!-- Node34&#45;&gt;Node37 -->
<g id="edge32" class="edge">
<title>Node34&#45;&gt;Node37</title>
<path fill="none" stroke="#191970" d="M1428.1321,-160.5093C1453.8668,-166.3874 1487.0952,-173.9772 1514.4822,-180.2327"/>
<polygon fill="#191970" stroke="#191970" points="1513.7548,-183.6566 1524.2832,-182.4714 1515.3136,-176.8324 1513.7548,-183.6566"/>
</g>
<!-- Node39 -->
<g id="node28" class="node">
<title>Node39</title>
<g id="a_node28"><a xlink:href="classMap.html#a3952b445c55efce61c1ccac6f362fe89" target="_top" xlink:title="Return vector of Points of an Object Tiles selection. ">
<polygon fill="none" stroke="#000000" points="1504,-258.5 1504,-277.5 1628,-277.5 1628,-258.5 1504,-258.5"/>
<text text-anchor="middle" x="1566" y="-265.5" font-family="Helvetica,sans-Serif" font-size="10.00" fill="#000000">Map::getObjectCoords</text>
</a>
</g>
</g>
<!-- Node34&#45;&gt;Node39 -->
<g id="edge35" class="edge">
<title>Node34&#45;&gt;Node39</title>
<path fill="none" stroke="#191970" d="M1420.5287,-160.5482C1429.218,-163.7845 1438.2784,-167.9047 1446,-173 1465.4178,-185.8134 1464.2711,-195.9361 1482,-211 1500.5844,-226.7908 1523.6203,-242.1646 1540.8656,-252.9585"/>
<polygon fill="#191970" stroke="#191970" points="1539.4364,-256.1891 1549.7855,-258.4576 1543.1099,-250.2304 1539.4364,-256.1891"/>
</g>
<!-- Node35&#45;&gt;Node13 -->
<g id="edge30" class="edge">
<title>Node35&#45;&gt;Node13</title>
<path fill="none" stroke="#191970" d="M1828.2018,-163.6032C1833.2371,-166.0965 1837.9357,-169.1839 1842,-173 1882.5677,-211.0896 1917.7632,-380.3154 1929.9473,-444.8675"/>
<polygon fill="#191970" stroke="#191970" points="1926.5575,-445.783 1931.8274,-454.9741 1933.4394,-444.5027 1926.5575,-445.783"/>
</g>
<!-- Node37&#45;&gt;Node35 -->
<g id="edge33" class="edge">
<title>Node37&#45;&gt;Node35</title>
<path fill="none" stroke="#191970" d="M1615.7082,-182.46C1642.5406,-177.3104 1675.8588,-170.916 1704.1126,-165.4935"/>
<polygon fill="#191970" stroke="#191970" points="1705.1103,-168.866 1714.2714,-163.5439 1703.7909,-161.9915 1705.1103,-168.866"/>
</g>
<!-- Node38 -->
<g id="node27" class="node">
<title>Node38</title>
<g id="a_node27"><a xlink:href="classMapNode.html#adf88174897b884c97d327e710dea7f5e" target="_top" xlink:title="MapNode::getTileData">
<polygon fill="none" stroke="#000000" points="1701.5,-182.5 1701.5,-201.5 1826.5,-201.5 1826.5,-182.5 1701.5,-182.5"/>
<text text-anchor="middle" x="1764" y="-189.5" font-family="Helvetica,sans-Serif" font-size="10.00" fill="#000000">MapNode::getTileData</text>
</a>
</g>
</g>
<!-- Node37&#45;&gt;Node38 -->
<g id="edge34" class="edge">
<title>Node37&#45;&gt;Node38</title>
<path fill="none" stroke="#191970" d="M1632.2064,-192C1651.0748,-192 1671.735,-192 1690.9846,-192"/>
<polygon fill="#191970" stroke="#191970" points="1691.2082,-195.5001 1701.2081,-192 1691.2081,-188.5001 1691.2082,-195.5001"/>
</g>
<!-- Node39&#45;&gt;Node13 -->
<g id="edge36" class="edge">
<title>Node39&#45;&gt;Node13</title>
<path fill="none" stroke="#191970" d="M1618.9339,-258.4676C1678.4039,-250.7442 1775.3181,-247.4357 1842,-292 1895.5774,-327.8064 1920.0288,-404.8442 1929.4679,-444.8034"/>
<polygon fill="#191970" stroke="#191970" points="1926.1042,-445.8002 1931.6965,-454.7989 1932.9364,-444.2769 1926.1042,-445.8002"/>
</g>
<!-- Node40 -->
<g id="node29" class="node">
<title>Node40</title>
<g id="a_node29"><a xlink:href="classTileManager.html#a8ee071ff8b24926288437d310f9bc714" target="_top" xlink:title="TileManager::getTileData">
<polygon fill="none" stroke="#000000" points="1694,-220.5 1694,-239.5 1834,-239.5 1834,-220.5 1694,-220.5"/>
<text text-anchor="middle" x="1764" y="-227.5" font-family="Helvetica,sans-Serif" font-size="10.00" fill="#000000">TileManager::getTileData</text>
</a>
</g>
</g>
<!-- Node39&#45;&gt;Node40 -->
<g id="edge37" class="edge">
<title>Node39&#45;&gt;Node40</title>
<path fill="none" stroke="#191970" d="M1615.7082,-258.46C1642.5406,-253.3104 1675.8588,-246.916 1704.1126,-241.4935"/>
<polygon fill="#191970" stroke="#191970" points="1705.1103,-244.866 1714.2714,-239.5439 1703.7909,-237.9915 1705.1103,-244.866"/>
</g>
<!-- Node42 -->
<g id="node31" class="node">
<title>Node42</title>
<g id="a_node31"><a xlink:href="classMap.html#a4700614f8c7d02b9ca18ad7e916a2312" target="_top" xlink:title="Map::isLayerAutoTile">
<polygon fill="none" stroke="#000000" points="1327,-.5 1327,-19.5 1446,-19.5 1446,-.5 1327,-.5"/>
<text text-anchor="middle" x="1386.5" y="-7.5" font-family="Helvetica,sans-Serif" font-size="10.00" fill="#000000">Map::isLayerAutoTile</text>
</a>
</g>
</g>
<!-- Node41&#45;&gt;Node42 -->
<g id="edge40" class="edge">
<title>Node41&#45;&gt;Node42</title>
<path fill="none" stroke="#191970" d="M1291.2401,-10C1299.7696,-10 1308.3725,-10 1316.7355,-10"/>
<polygon fill="#191970" stroke="#191970" points="1316.7965,-13.5001 1326.7965,-10 1316.7964,-6.5001 1316.7965,-13.5001"/>
</g>
<!-- Node43&#45;&gt;Node13 -->
<g id="edge42" class="edge">
<title>Node43&#45;&gt;Node13</title>
<path fill="none" stroke="#191970" d="M1248.6461,-239.6011C1301.9676,-251.9322 1398.564,-273.3645 1482,-287 1561.5138,-299.9945 1773.4358,-287.6885 1842,-330 1885.398,-356.7812 1912.6966,-412.399 1925.6209,-444.8933"/>
<polygon fill="#191970" stroke="#191970" points="1922.4771,-446.4717 1929.3143,-454.5651 1929.0165,-443.9744 1922.4771,-446.4717"/>
</g>
<!-- Node43&#45;&gt;Node31 -->
<g id="edge46" class="edge">
<title>Node43&#45;&gt;Node31</title>
<path fill="none" stroke="#191970" d="M1149.6308,-223.1092C1141.3052,-220.6374 1132.8935,-217.8729 1125,-215 1088.8661,-201.8485 1048.1201,-182.8318 1025.3556,-169.0635"/>
<polygon fill="#191970" stroke="#191970" points="1027.0655,-166.0014 1016.7662,-163.5166 1023.268,-171.8818 1027.0655,-166.0014"/>
</g>
<!-- Node43&#45;&gt;Node32 -->
<g id="edge43" class="edge">
<title>Node43&#45;&gt;Node32</title>
<path fill="none" stroke="#191970" d="M1253.0431,-220.411C1277.0225,-215.3061 1306.6979,-208.9887 1331.9721,-203.6082"/>
<polygon fill="#191970" stroke="#191970" points="1332.7288,-207.0256 1341.7808,-201.5201 1331.2712,-200.179 1332.7288,-207.0256"/>
</g>
<!-- Node43&#45;&gt;Node34 -->
<g id="edge45" class="edge">
<title>Node43&#45;&gt;Node34</title>
<path fill="none" stroke="#191970" d="M1226.7149,-220.3713C1249.9496,-208.5724 1290.927,-188.2697 1327,-173 1334.193,-169.9552 1341.9672,-166.909 1349.4484,-164.0958"/>
<polygon fill="#191970" stroke="#191970" points="1350.8739,-167.3004 1359.0411,-160.5515 1348.4478,-160.7343 1350.8739,-167.3004"/>
</g>
<!-- Node43&#45;&gt;Node35 -->
<g id="edge44" class="edge">
<title>Node43&#45;&gt;Node35</title>
<path fill="none" stroke="#191970" d="M1266.1064,-232.8314C1370.0648,-237.0259 1583.2563,-241.4236 1650,-211 1671.1689,-201.3506 1665.8766,-184.6741 1686,-173 1689.7298,-170.8363 1693.6972,-168.918 1697.7904,-167.2175"/>
<polygon fill="#191970" stroke="#191970" points="1699.3448,-170.3748 1707.5168,-163.6318 1696.9234,-163.8069 1699.3448,-170.3748"/>
</g>
<!-- Node44&#45;&gt;Node31 -->
<g id="edge51" class="edge">
<title>Node44&#45;&gt;Node31</title>
<path fill="none" stroke="#191970" d="M1148.3524,-160.2317C1132.9429,-160.6469 1115.9933,-160.8127 1099.3544,-160.7289"/>
<polygon fill="#191970" stroke="#191970" points="1099.0794,-157.2266 1089.051,-160.6445 1099.022,-164.2264 1099.0794,-157.2266"/>
</g>
<!-- Node44&#45;&gt;Node32 -->
<g id="edge48" class="edge">
<title>Node44&#45;&gt;Node32</title>
<path fill="none" stroke="#191970" d="M1253.0431,-163.589C1277.0225,-168.6939 1306.6979,-175.0113 1331.9721,-180.3918"/>
<polygon fill="#191970" stroke="#191970" points="1331.2712,-183.821 1341.7808,-182.4799 1332.7288,-176.9744 1331.2712,-183.821"/>
</g>
<!-- Node44&#45;&gt;Node34 -->
<g id="edge50" class="edge">
<title>Node44&#45;&gt;Node34</title>
<path fill="none" stroke="#191970" d="M1267.9345,-152.9927C1284.4576,-152.715 1302.4888,-152.412 1319.3893,-152.1279"/>
<polygon fill="#191970" stroke="#191970" points="1319.8029,-155.6215 1329.7427,-151.9539 1319.6852,-148.6225 1319.8029,-155.6215"/>
</g>
<!-- Node44&#45;&gt;Node35 -->
<g id="edge49" class="edge">
<title>Node44&#45;&gt;Node35</title>
<path fill="none" stroke="#191970" d="M1256.2436,-144.4638C1277.8406,-140.3542 1303.6494,-135.6622 1327,-132 1469.0936,-109.7149 1508.4039,-86.7462 1650,-112 1680.0258,-117.3551 1712.5037,-130.0609 1735.0838,-140.1047"/>
<polygon fill="#191970" stroke="#191970" points="1733.8666,-143.3962 1744.4178,-144.3563 1736.7682,-137.0259 1733.8666,-143.3962"/>
</g>
<!-- Node46 -->
<g id="node35" class="node">
<title>Node46</title>
<g id="a_node35"><a xlink:href="classMap.html#afefe996cc1f62b61ec60d0ae415953bf" target="_top" xlink:title="Map::loadMapFromFile">
<polygon fill="none" stroke="#000000" points="581,-277.5 581,-296.5 706,-296.5 706,-277.5 581,-277.5"/>
<text text-anchor="middle" x="643.5" y="-284.5" font-family="Helvetica,sans-Serif" font-size="10.00" fill="#000000">Map::loadMapFromFile</text>
</a>
</g>
</g>
<!-- Node45&#45;&gt;Node46 -->
<g id="edge53" class="edge">
<title>Node45&#45;&gt;Node46</title>
<path fill="none" stroke="#191970" d="M493.5707,-301.0328C517.1125,-298.8294 545.1942,-296.201 570.6555,-293.818"/>
<polygon fill="#191970" stroke="#191970" points="571.0094,-297.3002 580.6397,-292.8835 570.357,-290.3307 571.0094,-297.3002"/>
</g>
<!-- Node46&#45;&gt;Node30 -->
<g id="edge56" class="edge">
<title>Node46&#45;&gt;Node30</title>
<path fill="none" stroke="#191970" d="M706.2644,-293.9132C719.0344,-295.3197 732.548,-296.8082 745.564,-298.2418"/>
<polygon fill="#191970" stroke="#191970" points="745.5491,-301.7613 755.8722,-299.3772 746.3155,-294.8034 745.5491,-301.7613"/>
</g>
<!-- Node47 -->
<g id="node36" class="node">
<title>Node47</title>
<g id="a_node36"><a xlink:href="compression_8hxx.html#a25f341059256700f2f3ffd62d8113956" target="_top" xlink:title="decompresses given string Decompresses a given string. ">
<polygon fill="none" stroke="#000000" points="764,-258.5 764,-277.5 868,-277.5 868,-258.5 764,-258.5"/>
<text text-anchor="middle" x="816" y="-265.5" font-family="Helvetica,sans-Serif" font-size="10.00" fill="#000000">decompressString</text>
</a>
</g>
</g>
<!-- Node46&#45;&gt;Node47 -->
<g id="edge54" class="edge">
<title>Node46&#45;&gt;Node47</title>
<path fill="none" stroke="#191970" d="M706.2644,-280.0868C721.7528,-278.3808 738.335,-276.5544 753.7966,-274.8514"/>
<polygon fill="#191970" stroke="#191970" points="754.2159,-278.3265 763.7725,-273.7526 753.4494,-271.3685 754.2159,-278.3265"/>
</g>
<!-- Node48 -->
<g id="node37" class="node">
<title>Node48</title>
<g id="a_node37"><a xlink:href="classMap.html#a1197ab65e40dd20b891ba165471e3163" target="_top" xlink:title="Map::Map">
<polygon fill="none" stroke="#000000" points="784.5,-220.5 784.5,-239.5 847.5,-239.5 847.5,-220.5 784.5,-220.5"/>
<text text-anchor="middle" x="816" y="-227.5" font-family="Helvetica,sans-Serif" font-size="10.00" fill="#000000">Map::Map</text>
</a>
</g>
</g>
<!-- Node46&#45;&gt;Node48 -->
<g id="edge55" class="edge">
<title>Node46&#45;&gt;Node48</title>
<path fill="none" stroke="#191970" d="M665.9232,-277.486C685.7158,-269.2968 715.4657,-257.4927 742,-249 752.4348,-245.6602 763.8399,-242.4976 774.5029,-239.7454"/>
<polygon fill="#191970" stroke="#191970" points="775.6015,-243.0781 784.4429,-237.2402 773.8907,-236.2904 775.6015,-243.0781"/>
</g>
<!-- Node49&#45;&gt;Node45 -->
<g id="edge58" class="edge">
<title>Node49&#45;&gt;Node45</title>
<path fill="none" stroke="#191970" d="M261.5886,-346.4777C297.5721,-338.3366 349.5125,-326.5854 388.1684,-317.8397"/>
<polygon fill="#191970" stroke="#191970" points="389.2112,-321.1924 398.1923,-315.5719 387.6664,-314.3649 389.2112,-321.1924"/>
</g>
</g>
</svg>
