<?xml version="1.0" encoding="UTF-8" standalone="no"?>
<!DOCTYPE svg PUBLIC "-//W3C//DTD SVG 1.1//EN"
 "http://www.w3.org/Graphics/SVG/1.1/DTD/svg11.dtd">
<!-- Generated by graphviz version 2.40.1 (20161225.0304)
 -->
<!-- Title: MapNode::getTileData Pages: 1 -->
<!--zoomable 436 -->
<svg id="main" version="1.1" xmlns="http://www.w3.org/2000/svg" xmlns:xlink="http://www.w3.org/1999/xlink" xml:space="preserve" onload="init(evt)">
<style type="text/css"><![CDATA[
.edge:hover path { stroke: red; }
.edge:hover polygon { stroke: red; fill: red; }
]]></style>
<script type="text/javascript"><![CDATA[
var edges = document.getElementsByTagName('g');
if (edges && edges.length) {
  for (var i=0;i<edges.length;i++) {
    if (edges[i].id.substr(0,4)=='edge') {
      edges[i].setAttribute('class','edge');
    }
  }
}
]]></script>
        <defs>
                <circle id="rim" cx="0" cy="0" r="7"/>
                <circle id="rim2" cx="0" cy="0" r="3.5"/>
                <g id="zoomPlus">
                        <use xlink:href="#rim" fill="#404040">
                                <set attributeName="fill" to="#808080" begin="zoomplus.mouseover" end="zoomplus.mouseout"/>
                        </use>
                        <path d="M-4,0h8M0,-4v8" fill="none" stroke="white" stroke-width="1.5" pointer-events="none"/>
                </g>
                <g id="zoomMin">
                        <use xlink:href="#rim" fill="#404040">
                                <set attributeName="fill" to="#808080" begin="zoomminus.mouseover" end="zoomminus.mouseout"/>
                        </use>
                        <path d="M-4,0h8" fill="none" stroke="white" stroke-width="1.5" pointer-events="none"/>
                </g>
                <g id="dirArrow">
                        <path fill="none" stroke="white" stroke-width="1.5" d="M0,-3.0v7 M-2.5,-0.5L0,-3.0L2.5,-0.5"/>
                </g>
               <g id="resetDef">
                       <use xlink:href="#rim2" fill="#404040">
                               <set attributeName="fill" to="#808080" begin="reset.mouseover" end="reset.mouseout"/>
                       </use>
               </g>
        </defs>

<script type="text/javascript">
var viewWidth = 1980;
var viewHeight = 436;
var sectionId = 'dynsection-9';
</script>
<script xlink:href="svgpan.js"/>
<svg id="graph" class="graph">
<g id="viewport">
<title>MapNode::getTileData</title>
<!-- Node99 -->
<g id="node1" class="node">
<title>Node99</title>
<polygon fill="#bfbfbf" stroke="#000000" points="0,-214.6209 0,-233.6209 125,-233.6209 125,-214.6209 0,-214.6209"/>
<text text-anchor="middle" x="62.5" y="-221.6209" font-family="Helvetica,sans-Serif" font-size="10.00" fill="#000000">MapNode::getTileData</text>
</g>
<!-- Node100 -->
<g id="node2" class="node">
<title>Node100</title>
<g id="a_node2"><a xlink:href="classMap.html#ab6685363fde5a50c749adab9df96c231" target="_top" xlink:title="whether a node is a multiobject or not (bigger than 1x1 building) ">
<polygon fill="none" stroke="#000000" points="161,-214.6209 161,-233.6209 293,-233.6209 293,-214.6209 161,-214.6209"/>
<text text-anchor="middle" x="227" y="-221.6209" font-family="Helvetica,sans-Serif" font-size="10.00" fill="#000000">Map::isNodeMultiObject</text>
</a>
</g>
</g>
<!-- Node99&#45;&gt;Node100 -->
<g id="edge1" class="edge">
<title>Node99&#45;&gt;Node100</title>
<path fill="none" stroke="#191970" d="M135.433,-224.1209C143.9303,-224.1209 152.562,-224.1209 160.9589,-224.1209"/>
<polygon fill="#191970" stroke="#191970" points="135.1597,-220.621 125.1597,-224.1209 135.1596,-227.621 135.1597,-220.621"/>
</g>
<!-- Node101 -->
<g id="node3" class="node">
<title>Node101</title>
<g id="a_node3"><a xlink:href="classMap.html#aa8cc2ed983007621bce12dd9d1b8ec5b" target="_top" xlink:title="Demolish a node This function gathers all tiles that should be demolished and invokes the nodes demol...">
<polygon fill="none" stroke="#000000" points="329,-257.6209 329,-276.6209 442,-276.6209 442,-257.6209 329,-257.6209"/>
<text text-anchor="middle" x="385.5" y="-264.6209" font-family="Helvetica,sans-Serif" font-size="10.00" fill="#000000">Map::demolishNode</text>
</a>
</g>
</g>
<!-- Node100&#45;&gt;Node101 -->
<g id="edge2" class="edge">
<title>Node100&#45;&gt;Node101</title>
<path fill="none" stroke="#191970" d="M272.1013,-236.3566C296.9583,-243.1002 327.3574,-251.3472 350.422,-257.6045"/>
<polygon fill="#191970" stroke="#191970" points="272.7439,-232.9045 262.1763,-233.664 270.911,-239.6603 272.7439,-232.9045"/>
</g>
<!-- Node120 -->
<g id="node22" class="node">
<title>Node120</title>
<g id="a_node22"><a xlink:href="classMap.html#a404c38b33d61f8c63ce2c2efb864d6dd" target="_top" xlink:title="Set the Tile ID Of Node object Also invokes all necessary texture updates (auto&#45;tiling, slopes, ...) ">
<polygon fill="none" stroke="#000000" points="1153,-285.6209 1153,-304.6209 1276,-304.6209 1276,-285.6209 1153,-285.6209"/>
<text text-anchor="middle" x="1214.5" y="-292.6209" font-family="Helvetica,sans-Serif" font-size="10.00" fill="#000000">Map::setTileIDOfNode</text>
</a>
</g>
</g>
<!-- Node100&#45;&gt;Node120 -->
<g id="edge41" class="edge">
<title>Node100&#45;&gt;Node120</title>
<path fill="none" stroke="#191970" d="M303.4934,-227.8106C412.3111,-233.2347 618.0283,-244.1362 793,-257.1209 921.0435,-266.6231 1070.6824,-280.8593 1152.7699,-288.9388"/>
<polygon fill="#191970" stroke="#191970" points="303.4308,-224.3033 293.2695,-227.3029 303.0836,-231.2947 303.4308,-224.3033"/>
</g>
<!-- Node102 -->
<g id="node4" class="node">
<title>Node102</title>
<g id="a_node4"><a xlink:href="classEventManager.html#a65ec91fd5016d4f9c4167fb8babed2df" target="_top" xlink:title="EventManager::checkEvents">
<polygon fill="none" stroke="#000000" points="1496,-266.6209 1496,-285.6209 1650,-285.6209 1650,-266.6209 1496,-266.6209"/>
<text text-anchor="middle" x="1573" y="-273.6209" font-family="Helvetica,sans-Serif" font-size="10.00" fill="#000000">EventManager::checkEvents</text>
</a>
</g>
</g>
<!-- Node101&#45;&gt;Node102 -->
<g id="edge3" class="edge">
<title>Node101&#45;&gt;Node102</title>
<path fill="none" stroke="#191970" d="M452.0005,-257.66C538.5849,-245.8629 694.729,-226.3659 829,-219.1209 956.8141,-212.2244 989.2473,-211.1674 1117,-219.1209 1190.8555,-223.719 1397.105,-251.5818 1505.1022,-266.5794"/>
<polygon fill="#191970" stroke="#191970" points="451.4808,-254.1985 442.0487,-259.0239 452.4313,-261.1336 451.4808,-254.1985"/>
</g>
<!-- Node106 -->
<g id="node8" class="node">
<title>Node106</title>
<g id="a_node8"><a xlink:href="classMap.html#aba5154a4d917900679a3c0f7ec701561" target="_top" xlink:title="Increase Height Increases the height of the node and checks the surrounding tiles. Either draw a slope sprite or elevate the tile if necessary. ">
<polygon fill="none" stroke="#000000" points="478,-304.6209 478,-323.6209 594,-323.6209 594,-304.6209 478,-304.6209"/>
<text text-anchor="middle" x="536" y="-311.6209" font-family="Helvetica,sans-Serif" font-size="10.00" fill="#000000">Map::increaseHeight</text>
</a>
</g>
</g>
<!-- Node101&#45;&gt;Node106 -->
<g id="edge7" class="edge">
<title>Node101&#45;&gt;Node106</title>
<path fill="none" stroke="#191970" d="M425.5324,-279.6227C450.5614,-287.4391 482.3023,-297.3516 505.3315,-304.5434"/>
<polygon fill="#191970" stroke="#191970" points="426.5446,-276.2722 415.9559,-276.6321 424.4579,-282.954 426.5446,-276.2722"/>
</g>
<!-- Node108 -->
<g id="node10" class="node">
<title>Node108</title>
<g id="a_node10"><a xlink:href="classMap.html#a59d21f2688713fbcfe320eb1b24405ca" target="_top" xlink:title="Update mapNode and its adjacent tiles Updates mapNode height information, draws slopes for adjacent t...">
<polygon fill="none" stroke="#000000" points="630,-266.6209 630,-285.6209 793,-285.6209 793,-266.6209 630,-266.6209"/>
<text text-anchor="middle" x="711.5" y="-273.6209" font-family="Helvetica,sans-Serif" font-size="10.00" fill="#000000">Map::updateNeighborsOfNode</text>
</a>
</g>
</g>
<!-- Node101&#45;&gt;Node108 -->
<g id="edge39" class="edge">
<title>Node101&#45;&gt;Node108</title>
<path fill="none" stroke="#191970" d="M452.2853,-263.3931C503.6659,-263.3755 574.9116,-265.2189 629.7098,-267.9208"/>
<polygon fill="#191970" stroke="#191970" points="452.2748,-259.8931 442.2849,-263.4218 452.2949,-266.893 452.2748,-259.8931"/>
</g>
<!-- Node109 -->
<g id="node11" class="node">
<title>Node109</title>
<g id="a_node11"><a xlink:href="classMap.html#afb8cc864df90d273a5074872d635dc40" target="_top" xlink:title="Decrease Height Decreases the height of the node and checks the surrounding tiles. Either draw a slope sprite or lower the tile if necessary. ">
<polygon fill="none" stroke="#000000" points="829.5,-342.6209 829.5,-361.6209 948.5,-361.6209 948.5,-342.6209 829.5,-342.6209"/>
<text text-anchor="middle" x="889" y="-349.6209" font-family="Helvetica,sans-Serif" font-size="10.00" fill="#000000">Map::decreaseHeight</text>
</a>
</g>
</g>
<!-- Node101&#45;&gt;Node109 -->
<g id="edge38" class="edge">
<title>Node101&#45;&gt;Node109</title>
<path fill="none" stroke="#191970" d="M402.796,-284.2151C420.1663,-300.1441 448.5187,-322.925 478,-333.1209 597.1502,-374.3282 747.3705,-367.7461 829.1806,-359.684"/>
<polygon fill="#191970" stroke="#191970" points="404.8661,-281.3557 395.1941,-277.0309 400.058,-286.4433 404.8661,-281.3557"/>
</g>
<!-- Node101&#45;&gt;Node120 -->
<g id="edge40" class="edge">
<title>Node101&#45;&gt;Node120</title>
<path fill="none" stroke="#191970" d="M397.6323,-285.0859C413.3632,-306.7464 442.973,-342.3289 478,-359.1209 539.2969,-388.5068 562.1286,-372.3373 630,-376.1209 771.5754,-384.0134 808.9139,-393.07 949,-371.1209 1039.2344,-356.9828 1142.194,-321.8016 1188.9733,-304.7242"/>
<polygon fill="#191970" stroke="#191970" points="400.383,-282.9132 391.7648,-276.7506 394.659,-286.9425 400.383,-282.9132"/>
</g>
<!-- Node103 -->
<g id="node5" class="node">
<title>Node103</title>
<g id="a_node5"><a xlink:href="classGame.html#a1c2ab25d5216b2f4b2fe41efd2c09114" target="_top" xlink:title="begins the game starts running the game ">
<polygon fill="none" stroke="#000000" points="1698,-209.6209 1698,-228.6209 1766,-228.6209 1766,-209.6209 1698,-209.6209"/>
<text text-anchor="middle" x="1732" y="-216.6209" font-family="Helvetica,sans-Serif" font-size="10.00" fill="#000000">Game::run</text>
</a>
</g>
</g>
<!-- Node102&#45;&gt;Node103 -->
<g id="edge4" class="edge">
<title>Node102&#45;&gt;Node103</title>
<path fill="none" stroke="#191970" d="M1609.0636,-263.1925C1638.3193,-252.7046 1678.8994,-238.157 1705.3002,-228.6926"/>
<polygon fill="#191970" stroke="#191970" points="1607.8453,-259.9111 1599.613,-266.5804 1610.2076,-266.5004 1607.8453,-259.9111"/>
</g>
<!-- Node104 -->
<g id="node6" class="node">
<title>Node104</title>
<g id="a_node6"><a xlink:href="main_8cxx.html#af582d708d899e67ead623eac34a22387" target="_top" xlink:title="protected_main">
<polygon fill="none" stroke="#000000" points="1802,-190.6209 1802,-209.6209 1895,-209.6209 1895,-190.6209 1802,-190.6209"/>
<text text-anchor="middle" x="1848.5" y="-197.6209" font-family="Helvetica,sans-Serif" font-size="10.00" fill="#000000">protected_main</text>
</a>
</g>
</g>
<!-- Node103&#45;&gt;Node104 -->
<g id="edge5" class="edge">
<title>Node103&#45;&gt;Node104</title>
<path fill="none" stroke="#191970" d="M1775.9884,-211.9469C1784.382,-210.578 1793.1965,-209.1404 1801.6749,-207.7577"/>
<polygon fill="#191970" stroke="#191970" points="1775.316,-208.5102 1766.0098,-213.5743 1776.4428,-215.4189 1775.316,-208.5102"/>
</g>
<!-- Node105 -->
<g id="node7" class="node">
<title>Node105</title>
<g id="a_node7"><a xlink:href="main_8cxx.html#a3c04138a5bfe5d72780bb7e82a18e627" target="_top" xlink:title="main">
<polygon fill="none" stroke="#000000" points="1931,-190.6209 1931,-209.6209 1972,-209.6209 1972,-190.6209 1931,-190.6209"/>
<text text-anchor="middle" x="1951.5" y="-197.6209" font-family="Helvetica,sans-Serif" font-size="10.00" fill="#000000">main</text>
</a>
</g>
</g>
<!-- Node104&#45;&gt;Node105 -->
<g id="edge6" class="edge">
<title>Node104&#45;&gt;Node105</title>
<path fill="none" stroke="#191970" d="M1905.2133,-200.1209C1914.4322,-200.1209 1923.4259,-200.1209 1930.9965,-200.1209"/>
<polygon fill="#191970" stroke="#191970" points="1905.1782,-196.621 1895.1782,-200.1209 1905.1781,-203.621 1905.1782,-196.621"/>
</g>
<!-- Node107 -->
<g id="node9" class="node">
<title>Node107</title>
<g id="a_node9"><a xlink:href="classEngine.html#a4851ae1ff696c893741167fc0194fd77" target="_top" xlink:title="Increase Height Increases the height of the given map node Calls the according function of the Map ob...">
<polygon fill="none" stroke="#000000" points="647,-304.6209 647,-323.6209 776,-323.6209 776,-304.6209 647,-304.6209"/>
<text text-anchor="middle" x="711.5" y="-311.6209" font-family="Helvetica,sans-Serif" font-size="10.00" fill="#000000">Engine::increaseHeight</text>
</a>
</g>
</g>
<!-- Node106&#45;&gt;Node107 -->
<g id="edge8" class="edge">
<title>Node106&#45;&gt;Node107</title>
<path fill="none" stroke="#191970" d="M604.4777,-314.1209C618.4606,-314.1209 633.1304,-314.1209 646.9699,-314.1209"/>
<polygon fill="#191970" stroke="#191970" points="604.439,-310.621 594.439,-314.1209 604.4389,-317.621 604.439,-310.621"/>
</g>
<!-- Node106&#45;&gt;Node108 -->
<g id="edge10" class="edge">
<title>Node106&#45;&gt;Node108</title>
<path fill="none" stroke="#191970" d="M568.3035,-301.7557C587.484,-296.485 612.6517,-290.5972 636.5293,-285.6679"/>
<polygon fill="#191970" stroke="#191970" points="567.2403,-298.4193 558.5843,-304.5286 569.1608,-305.1507 567.2403,-298.4193"/>
</g>
<!-- Node107&#45;&gt;Node102 -->
<g id="edge9" class="edge">
<title>Node107&#45;&gt;Node102</title>
<path fill="none" stroke="#191970" d="M736.4456,-328.7552C791.3349,-359.5274 927.5344,-428.1209 1051,-428.1209 1051,-428.1209 1051,-428.1209 1214.5,-428.1209 1361.1981,-428.1209 1516.7869,-318.9057 1560.7882,-285.6292"/>
<polygon fill="#191970" stroke="#191970" points="737.8814,-325.5453 727.4585,-323.6444 734.421,-331.6303 737.8814,-325.5453"/>
</g>
<!-- Node108&#45;&gt;Node101 -->
<g id="edge36" class="edge">
<title>Node108&#45;&gt;Node101</title>
<path fill="none" stroke="#191970" d="M619.6055,-279.7273C562.5984,-279.1903 491.1589,-276.9259 442.2849,-273.9555"/>
<polygon fill="#191970" stroke="#191970" points="619.6831,-283.2279 629.7098,-279.8051 619.7371,-276.2281 619.6831,-283.2279"/>
</g>
<!-- Node108&#45;&gt;Node106 -->
<g id="edge11" class="edge">
<title>Node108&#45;&gt;Node106</title>
<path fill="none" stroke="#191970" d="M678.9376,-288.5572C655.2681,-295.0501 622.5814,-302.4668 594.439,-307.871"/>
<polygon fill="#191970" stroke="#191970" points="680.1509,-291.8509 688.8093,-285.745 678.233,-285.1188 680.1509,-291.8509"/>
</g>
<!-- Node108&#45;&gt;Node109 -->
<g id="edge12" class="edge">
<title>Node108&#45;&gt;Node109</title>
<path fill="none" stroke="#191970" d="M800.825,-291.2148C812.2457,-300.1474 813.7827,-309.5544 829,-319.1209 844.7669,-329.0329 865.3144,-336.1816 877.8131,-342.4368"/>
<polygon fill="#191970" stroke="#191970" points="802.5367,-288.1549 792.2262,-285.717 798.766,-294.0526 802.5367,-288.1549"/>
</g>
<!-- Node111 -->
<g id="node13" class="node">
<title>Node111</title>
<g id="a_node13"><a xlink:href="classMap.html#a481b37ba71ef0e51e836fc42805762dd" target="_top" xlink:title="Update all mapNodes Updates all mapNode and its adjacent tiles regarding height information, draws slopes for adjacent tiles and sets tiling for mapNode sprite if applicable. ">
<polygon fill="none" stroke="#000000" points="829,-228.6209 829,-247.6209 949,-247.6209 949,-228.6209 829,-228.6209"/>
<text text-anchor="middle" x="889" y="-235.6209" font-family="Helvetica,sans-Serif" font-size="10.00" fill="#000000">Map::updateAllNodes</text>
</a>
</g>
</g>
<!-- Node108&#45;&gt;Node111 -->
<g id="edge16" class="edge">
<title>Node108&#45;&gt;Node111</title>
<path fill="none" stroke="#191970" d="M766.3969,-264.3684C791.4954,-258.9952 820.8428,-252.7123 844.5313,-247.641"/>
<polygon fill="#191970" stroke="#191970" points="765.3365,-261.016 756.2907,-266.5319 766.8019,-267.8609 765.3365,-261.016"/>
</g>
<!-- Node108&#45;&gt;Node120 -->
<g id="edge37" class="edge">
<title>Node108&#45;&gt;Node120</title>
<path fill="none" stroke="#191970" d="M791.0527,-286.7516C803.7255,-288.1125 816.7069,-289.3111 829,-290.1209 943.2074,-297.6443 1076.8441,-297.3478 1152.9965,-296.3216"/>
<polygon fill="#191970" stroke="#191970" points="791.3005,-283.2577 780.9747,-285.6298 790.526,-290.2147 791.3005,-283.2577"/>
</g>
<!-- Node109&#45;&gt;Node108 -->
<g id="edge15" class="edge">
<title>Node109&#45;&gt;Node108</title>
<path fill="none" stroke="#191970" d="M829.5719,-337.478C829.3806,-337.3594 829.19,-337.2404 829,-337.1209 810.6244,-325.5689 812.197,-314.2495 793,-304.1209 774.4962,-294.3581 751.0221,-289.5668 734.0239,-285.6412"/>
<polygon fill="#191970" stroke="#191970" points="828.126,-340.68 838.5592,-342.5234 831.5527,-334.5761 828.126,-340.68"/>
</g>
<!-- Node110 -->
<g id="node12" class="node">
<title>Node110</title>
<g id="a_node12"><a xlink:href="classEngine.html#a13572fdd7f6470dca48a14497f58980e" target="_top" xlink:title="Decrease Height Decreases the height of the given map node Calls the according function of the Map ob...">
<polygon fill="none" stroke="#000000" points="985,-380.6209 985,-399.6209 1117,-399.6209 1117,-380.6209 985,-380.6209"/>
<text text-anchor="middle" x="1051" y="-387.6209" font-family="Helvetica,sans-Serif" font-size="10.00" fill="#000000">Engine::decreaseHeight</text>
</a>
</g>
</g>
<!-- Node109&#45;&gt;Node110 -->
<g id="edge13" class="edge">
<title>Node109&#45;&gt;Node110</title>
<path fill="none" stroke="#191970" d="M939.7148,-364.017C962.4856,-369.3583 988.9867,-375.5746 1010.4145,-380.6009"/>
<polygon fill="#191970" stroke="#191970" points="940.4145,-360.5862 929.8794,-361.7099 938.8159,-367.4012 940.4145,-360.5862"/>
</g>
<!-- Node110&#45;&gt;Node102 -->
<g id="edge14" class="edge">
<title>Node110&#45;&gt;Node102</title>
<path fill="none" stroke="#191970" d="M1121.5613,-378.9367C1201.3233,-365.7573 1334.8093,-342.0769 1448,-314.1209 1481.4709,-305.8543 1519.2625,-294.0078 1544.4442,-285.7468"/>
<polygon fill="#191970" stroke="#191970" points="1120.9275,-375.4939 1111.6277,-380.5697 1122.0631,-382.4012 1120.9275,-375.4939"/>
</g>
<!-- Node112 -->
<g id="node14" class="node">
<title>Node112</title>
<g id="a_node14"><a xlink:href="classMap.html#a482ac34426e8aa66abb46f60ec329402" target="_top" xlink:title="Initialize the Map with node objects Initialize the Map with node objects. ">
<polygon fill="none" stroke="#000000" points="1011.5,-114.6209 1011.5,-133.6209 1090.5,-133.6209 1090.5,-114.6209 1011.5,-114.6209"/>
<text text-anchor="middle" x="1051" y="-121.6209" font-family="Helvetica,sans-Serif" font-size="10.00" fill="#000000">Map::initMap</text>
</a>
</g>
</g>
<!-- Node111&#45;&gt;Node112 -->
<g id="edge17" class="edge">
<title>Node111&#45;&gt;Node112</title>
<path fill="none" stroke="#191970" d="M910.8415,-222.751C944.7231,-198.9084 1008.9768,-153.6929 1037.1617,-133.859"/>
<polygon fill="#191970" stroke="#191970" points="908.6972,-219.9801 902.5334,-228.5974 912.7257,-225.7048 908.6972,-219.9801"/>
</g>
<!-- Node117 -->
<g id="node19" class="node">
<title>Node117</title>
<g id="a_node19"><a xlink:href="classMap.html#afefe996cc1f62b61ec60d0ae415953bf" target="_top" xlink:title="Map::loadMapFromFile">
<polygon fill="none" stroke="#000000" points="988.5,-228.6209 988.5,-247.6209 1113.5,-247.6209 1113.5,-228.6209 988.5,-228.6209"/>
<text text-anchor="middle" x="1051" y="-235.6209" font-family="Helvetica,sans-Serif" font-size="10.00" fill="#000000">Map::loadMapFromFile</text>
</a>
</g>
</g>
<!-- Node111&#45;&gt;Node117 -->
<g id="edge25" class="edge">
<title>Node111&#45;&gt;Node117</title>
<path fill="none" stroke="#191970" d="M959.3256,-238.1209C969.0192,-238.1209 978.9204,-238.1209 988.4607,-238.1209"/>
<polygon fill="#191970" stroke="#191970" points="959.3229,-234.621 949.3228,-238.1209 959.3228,-241.621 959.3229,-234.621"/>
</g>
<!-- Node113 -->
<g id="node15" class="node">
<title>Node113</title>
<g id="a_node15"><a xlink:href="classEngine.html#a260d4834150eae6eec2bde34df6dc827" target="_top" xlink:title="Creates a new game Creates a new game. ">
<polygon fill="none" stroke="#000000" points="1162,-57.6209 1162,-76.6209 1267,-76.6209 1267,-57.6209 1162,-57.6209"/>
<text text-anchor="middle" x="1214.5" y="-64.6209" font-family="Helvetica,sans-Serif" font-size="10.00" fill="#000000">Engine::newGame</text>
</a>
</g>
</g>
<!-- Node112&#45;&gt;Node113 -->
<g id="edge18" class="edge">
<title>Node112&#45;&gt;Node113</title>
<path fill="none" stroke="#191970" d="M1088.0842,-111.1925C1118.168,-100.7046 1159.8966,-86.157 1187.0445,-76.6926"/>
<polygon fill="#191970" stroke="#191970" points="1086.6567,-107.9835 1078.3662,-114.5804 1088.9611,-114.5934 1086.6567,-107.9835"/>
</g>
<!-- Node113&#45;&gt;Node103 -->
<g id="edge24" class="edge">
<title>Node113&#45;&gt;Node103</title>
<path fill="none" stroke="#191970" d="M1234.2142,-51.3203C1252.9615,-37.3833 1282.5915,-18.0866 1312,-10.1209 1370.3421,5.6817 1388.4333,.1423 1448,-10.1209 1547.4654,-27.2587 1585.7072,-20.0417 1662,-86.1209 1702.4333,-121.1413 1722.9977,-185.3607 1729.5866,-209.5582"/>
<polygon fill="#191970" stroke="#191970" points="1231.9871,-48.6173 1226.1701,-57.4724 1236.2396,-54.1776 1231.9871,-48.6173"/>
</g>
<!-- Node114 -->
<g id="node16" class="node">
<title>Node114</title>
<g id="a_node16"><a xlink:href="classEngine.html#ab5a909990be40701ebb4b57c3e716ed4" target="_top" xlink:title="Engine::saveGame">
<polygon fill="none" stroke="#000000" points="1326,-19.6209 1326,-38.6209 1434,-38.6209 1434,-19.6209 1326,-19.6209"/>
<text text-anchor="middle" x="1380" y="-26.6209" font-family="Helvetica,sans-Serif" font-size="10.00" fill="#000000">Engine::saveGame</text>
</a>
</g>
</g>
<!-- Node113&#45;&gt;Node114 -->
<g id="edge19" class="edge">
<title>Node113&#45;&gt;Node114</title>
<path fill="none" stroke="#191970" d="M1266.3105,-55.2249C1289.5733,-49.8836 1316.6469,-43.6673 1338.5377,-38.641"/>
<polygon fill="#191970" stroke="#191970" points="1265.2258,-51.8828 1256.2626,-57.5319 1266.7923,-58.7053 1265.2258,-51.8828"/>
</g>
<!-- Node115 -->
<g id="node17" class="node">
<title>Node115</title>
<g id="a_node17"><a xlink:href="classUIManager.html#aa78e356fc3b356d790c848319d1c387e" target="_top" xlink:title="UIManager::setCallbackFunctions">
<polygon fill="none" stroke="#000000" points="1484,-95.6209 1484,-114.6209 1662,-114.6209 1662,-95.6209 1484,-95.6209"/>
<text text-anchor="middle" x="1573" y="-102.6209" font-family="Helvetica,sans-Serif" font-size="10.00" fill="#000000">UIManager::setCallbackFunctions</text>
</a>
</g>
</g>
<!-- Node113&#45;&gt;Node115 -->
<g id="edge21" class="edge">
<title>Node113&#45;&gt;Node115</title>
<path fill="none" stroke="#191970" d="M1277.4069,-73.43C1324.4139,-78.1825 1390.2441,-84.9186 1448,-91.1209 1461.2445,-92.5433 1475.2744,-94.0826 1488.9634,-95.6026"/>
<polygon fill="#191970" stroke="#191970" points="1277.6752,-69.9394 1267.3741,-72.4169 1276.9718,-76.9039 1277.6752,-69.9394"/>
</g>
<!-- Node116 -->
<g id="node18" class="node">
<title>Node116</title>
<g id="a_node18"><a xlink:href="classGame.html#a5ed7fc5be77080f7f6dd5363f7f007a1" target="_top" xlink:title="initializes and displays the main menu initializes and displays the main menu ">
<polygon fill="none" stroke="#000000" points="1521.5,-171.6209 1521.5,-190.6209 1624.5,-190.6209 1624.5,-171.6209 1521.5,-171.6209"/>
<text text-anchor="middle" x="1573" y="-178.6209" font-family="Helvetica,sans-Serif" font-size="10.00" fill="#000000">Game::mainMenu</text>
</a>
</g>
</g>
<!-- Node113&#45;&gt;Node116 -->
<g id="edge22" class="edge">
<title>Node113&#45;&gt;Node116</title>
<path fill="none" stroke="#191970" d="M1254.106,-79.7153C1326.4107,-102.7076 1478.2829,-151.0017 1542.8842,-171.5444"/>
<polygon fill="#191970" stroke="#191970" points="1255.0393,-76.3395 1244.4489,-76.6444 1252.918,-83.0103 1255.0393,-76.3395"/>
</g>
<!-- Node114&#45;&gt;Node115 -->
<g id="edge20" class="edge">
<title>Node114&#45;&gt;Node115</title>
<path fill="none" stroke="#191970" d="M1417.8128,-42.052C1427.6783,-45.5389 1438.2708,-49.3836 1448,-53.1209 1484.4223,-67.1121 1526.1683,-84.823 1551.0193,-95.5467"/>
<polygon fill="#191970" stroke="#191970" points="1418.8434,-38.7045 1408.2485,-38.7015 1416.529,-45.3109 1418.8434,-38.7045"/>
</g>
<!-- Node116&#45;&gt;Node104 -->
<g id="edge23" class="edge">
<title>Node116&#45;&gt;Node104</title>
<path fill="none" stroke="#191970" d="M1634.9861,-185.3958C1685.6117,-188.8873 1756.055,-193.7454 1801.9575,-196.9111"/>
<polygon fill="#191970" stroke="#191970" points="1635.0366,-181.8911 1624.8194,-184.6947 1634.5549,-188.8745 1635.0366,-181.8911"/>
</g>
<!-- Node118 -->
<g id="node20" class="node">
<title>Node118</title>
<g id="a_node20"><a xlink:href="classEngine.html#a83b7dbeee899b36a13d5b07c7ad87ebc" target="_top" xlink:title="Loads a saved game Loads a saved Game. ">
<polygon fill="none" stroke="#000000" points="1161.5,-180.6209 1161.5,-199.6209 1267.5,-199.6209 1267.5,-180.6209 1161.5,-180.6209"/>
<text text-anchor="middle" x="1214.5" y="-187.6209" font-family="Helvetica,sans-Serif" font-size="10.00" fill="#000000">Engine::loadGame</text>
</a>
</g>
</g>
<!-- Node117&#45;&gt;Node118 -->
<g id="edge26" class="edge">
<title>Node117&#45;&gt;Node118</title>
<path fill="none" stroke="#191970" d="M1093.471,-225.6524C1121.0609,-217.5526 1156.4806,-207.1542 1181.863,-199.7025"/>
<polygon fill="#191970" stroke="#191970" points="1092.3028,-222.3476 1083.6937,-228.5228 1094.2747,-229.0641 1092.3028,-222.3476"/>
</g>
<!-- Node117&#45;&gt;Node120 -->
<g id="edge33" class="edge">
<title>Node117&#45;&gt;Node120</title>
<path fill="none" stroke="#191970" d="M1088.0842,-251.0494C1118.168,-261.5373 1159.8966,-276.0849 1187.0445,-285.5493"/>
<polygon fill="#191970" stroke="#191970" points="1088.9611,-247.6485 1078.3662,-247.6615 1086.6567,-254.2584 1088.9611,-247.6485"/>
</g>
<!-- Node118&#45;&gt;Node115 -->
<g id="edge31" class="edge">
<title>Node118&#45;&gt;Node115</title>
<path fill="none" stroke="#191970" d="M1264.7364,-178.2099C1336.5575,-161.1812 1467.1515,-130.2175 1532.9031,-114.6279"/>
<polygon fill="#191970" stroke="#191970" points="1263.5037,-174.9051 1254.581,-180.6178 1265.1187,-181.7163 1263.5037,-174.9051"/>
</g>
<!-- Node118&#45;&gt;Node116 -->
<g id="edge32" class="edge">
<title>Node118&#45;&gt;Node116</title>
<path fill="none" stroke="#191970" d="M1278.1405,-188.5233C1347.5338,-186.7812 1457.2452,-184.0269 1521.461,-182.4148"/>
<polygon fill="#191970" stroke="#191970" points="1277.6929,-185.0333 1267.784,-188.7833 1277.8687,-192.0311 1277.6929,-185.0333"/>
</g>
<!-- Node119 -->
<g id="node21" class="node">
<title>Node119</title>
<g id="a_node21"><a xlink:href="classEngine.html#a0ba57971ffb5173ecc425461f65a4cd8" target="_top" xlink:title="Quits the game Sets m_running to false and quitting the game. ">
<polygon fill="none" stroke="#000000" points="1328,-209.6209 1328,-228.6209 1432,-228.6209 1432,-209.6209 1328,-209.6209"/>
<text text-anchor="middle" x="1380" y="-216.6209" font-family="Helvetica,sans-Serif" font-size="10.00" fill="#000000">Engine::quitGame</text>
</a>
</g>
</g>
<!-- Node118&#45;&gt;Node119 -->
<g id="edge27" class="edge">
<title>Node118&#45;&gt;Node119</title>
<path fill="none" stroke="#191970" d="M1277.9079,-201.2317C1294.4475,-204.1299 1312.0792,-207.2194 1327.9541,-210.0011"/>
<polygon fill="#191970" stroke="#191970" points="1278.2303,-197.7349 1267.7762,-199.4564 1277.022,-204.6299 1278.2303,-197.7349"/>
</g>
<!-- Node119&#45;&gt;Node102 -->
<g id="edge28" class="edge">
<title>Node119&#45;&gt;Node102</title>
<path fill="none" stroke="#191970" d="M1421.9351,-231.5059C1457.5685,-242.0298 1507.9873,-256.9203 1540.5907,-266.5493"/>
<polygon fill="#191970" stroke="#191970" points="1422.8857,-228.1373 1412.3039,-228.6615 1420.903,-234.8506 1422.8857,-228.1373"/>
</g>
<!-- Node119&#45;&gt;Node115 -->
<g id="edge29" class="edge">
<title>Node119&#45;&gt;Node115</title>
<path fill="none" stroke="#191970" d="M1404.7686,-204.4908C1444.8907,-180.7917 1523.0043,-134.6521 1556.787,-114.6975"/>
<polygon fill="#191970" stroke="#191970" points="1402.9532,-201.498 1396.1231,-209.5974 1406.5133,-207.5252 1402.9532,-201.498"/>
</g>
<!-- Node119&#45;&gt;Node116 -->
<g id="edge30" class="edge">
<title>Node119&#45;&gt;Node116</title>
<path fill="none" stroke="#191970" d="M1438.6016,-207.5828C1466.1289,-202.1629 1498.5476,-195.78 1524.6482,-190.641"/>
<polygon fill="#191970" stroke="#191970" points="1437.8375,-204.166 1428.702,-209.5319 1439.1898,-211.0341 1437.8375,-204.166"/>
</g>
<!-- Node121 -->
<g id="node23" class="node">
<title>Node121</title>
<g id="a_node23"><a xlink:href="classEngine.html#a7a1521fd7fc731f961ebaf3f723127d9" target="_top" xlink:title="Engine::setTileIDOfNode">
<polygon fill="none" stroke="#000000" points="1312,-285.6209 1312,-304.6209 1448,-304.6209 1448,-285.6209 1312,-285.6209"/>
<text text-anchor="middle" x="1380" y="-292.6209" font-family="Helvetica,sans-Serif" font-size="10.00" fill="#000000">Engine::setTileIDOfNode</text>
</a>
</g>
</g>
<!-- Node120&#45;&gt;Node121 -->
<g id="edge34" class="edge">
<title>Node120&#45;&gt;Node121</title>
<path fill="none" stroke="#191970" d="M1286.3736,-295.1209C1294.858,-295.1209 1303.4976,-295.1209 1311.9273,-295.1209"/>
<polygon fill="#191970" stroke="#191970" points="1286.1261,-291.621 1276.1261,-295.1209 1286.1261,-298.621 1286.1261,-291.621"/>
</g>
<!-- Node121&#45;&gt;Node102 -->
<g id="edge35" class="edge">
<title>Node121&#45;&gt;Node102</title>
<path fill="none" stroke="#191970" d="M1458.292,-287.4134C1470.6288,-286.1989 1483.3776,-284.9439 1495.6918,-283.7316"/>
<polygon fill="#191970" stroke="#191970" points="1457.6535,-283.9593 1448.0446,-288.4223 1458.3394,-290.9256 1457.6535,-283.9593"/>
</g>
</g>
</svg>
        <g id="navigator" transform="translate(0 0)" fill="#404254">
                <rect fill="#f2f5e9" fill-opacity="0.5" stroke="#606060" stroke-width=".5" x="0" y="0" width="60" height="60"/>
                <use id="zoomplus" xlink:href="#zoomPlus" x="17" y="9" onmousedown="handleZoom(evt,'in')"/>
                <use id="zoomminus" xlink:href="#zoomMin" x="42" y="9" onmousedown="handleZoom(evt,'out')"/>
                <use id="reset" xlink:href="#resetDef" x="30" y="36" onmousedown="handleReset()"/>
                <g id="arrowUp" xlink:href="#dirArrow" transform="translate(30 24)" onmousedown="handlePan(0,-1)">
                  <use xlink:href="#rim" fill="#404040">
                        <set attributeName="fill" to="#808080" begin="arrowUp.mouseover" end="arrowUp.mouseout"/>
                  </use>
                  <path fill="none" stroke="white" stroke-width="1.5" d="M0,-3.0v7 M-2.5,-0.5L0,-3.0L2.5,-0.5"/>
                </g>
                <g id="arrowRight" xlink:href="#dirArrow" transform="rotate(90) translate(36 -43)" onmousedown="handlePan(1,0)">
                  <use xlink:href="#rim" fill="#404040">
                        <set attributeName="fill" to="#808080" begin="arrowRight.mouseover" end="arrowRight.mouseout"/>
                  </use>
                  <path fill="none" stroke="white" stroke-width="1.5" d="M0,-3.0v7 M-2.5,-0.5L0,-3.0L2.5,-0.5"/>
                </g>
                <g id="arrowDown" xlink:href="#dirArrow" transform="rotate(180) translate(-30 -48)" onmousedown="handlePan(0,1)">
                  <use xlink:href="#rim" fill="#404040">
                        <set attributeName="fill" to="#808080" begin="arrowDown.mouseover" end="arrowDown.mouseout"/>
                  </use>
                  <path fill="none" stroke="white" stroke-width="1.5" d="M0,-3.0v7 M-2.5,-0.5L0,-3.0L2.5,-0.5"/>
                </g>
                <g id="arrowLeft" xlink:href="#dirArrow" transform="rotate(270) translate(-36 17)" onmousedown="handlePan(-1,0)">
                  <use xlink:href="#rim" fill="#404040">
                        <set attributeName="fill" to="#808080" begin="arrowLeft.mouseover" end="arrowLeft.mouseout"/>
                  </use>
                  <path fill="none" stroke="white" stroke-width="1.5" d="M0,-3.0v7 M-2.5,-0.5L0,-3.0L2.5,-0.5"/>
                </g>
        </g>
        <svg viewBox="0 0 15 15" width="100%" height="30px" preserveAspectRatio="xMaxYMin meet">
         <g id="arrow_out" transform="scale(0.3 0.3)">
          <a xlink:href="classMapNode_adf88174897b884c97d327e710dea7f5e_icgraph_org.svg" target="_base">
           <rect id="button" ry="5" rx="5" y="6" x="6" height="38" width="38"
                fill="#f2f5e9" fill-opacity="0.5" stroke="#606060" stroke-width="1.0"/>
           <path id="arrow"
             d="M 11.500037,31.436501 C 11.940474,20.09759 22.043105,11.32322 32.158766,21.979434 L 37.068811,17.246167 C 37.068811,17.246167 37.088388,32 37.088388,32 L 22.160133,31.978069 C 22.160133,31.978069 26.997745,27.140456 26.997745,27.140456 C 18.528582,18.264221 13.291696,25.230495 11.500037,31.436501 z"
             style="fill:#404040;"/>
          </a>
         </g>
        </svg>
</svg>
