<?xml version="1.0" encoding="UTF-8" standalone="no"?>
<!DOCTYPE svg PUBLIC "-//W3C//DTD SVG 1.1//EN"
 "http://www.w3.org/Graphics/SVG/1.1/DTD/svg11.dtd">
<!-- Generated by graphviz version 2.40.1 (20161225.0304)
 -->
<!-- Title: Map::demolishNode Pages: 1 -->
<!--zoomable 396 -->
<svg id="main" version="1.1" xmlns="http://www.w3.org/2000/svg" xmlns:xlink="http://www.w3.org/1999/xlink" xml:space="preserve" onload="init(evt)">
<style type="text/css"><![CDATA[
.edge:hover path { stroke: red; }
.edge:hover polygon { stroke: red; fill: red; }
]]></style>
<script type="text/javascript"><![CDATA[
var edges = document.getElementsByTagName('g');
if (edges && edges.length) {
  for (var i=0;i<edges.length;i++) {
    if (edges[i].id.substr(0,4)=='edge') {
      edges[i].setAttribute('class','edge');
    }
  }
}
]]></script>
        <defs>
                <circle id="rim" cx="0" cy="0" r="7"/>
                <circle id="rim2" cx="0" cy="0" r="3.5"/>
                <g id="zoomPlus">
                        <use xlink:href="#rim" fill="#404040">
                                <set attributeName="fill" to="#808080" begin="zoomplus.mouseover" end="zoomplus.mouseout"/>
                        </use>
                        <path d="M-4,0h8M0,-4v8" fill="none" stroke="white" stroke-width="1.5" pointer-events="none"/>
                </g>
                <g id="zoomMin">
                        <use xlink:href="#rim" fill="#404040">
                                <set attributeName="fill" to="#808080" begin="zoomminus.mouseover" end="zoomminus.mouseout"/>
                        </use>
                        <path d="M-4,0h8" fill="none" stroke="white" stroke-width="1.5" pointer-events="none"/>
                </g>
                <g id="dirArrow">
                        <path fill="none" stroke="white" stroke-width="1.5" d="M0,-3.0v7 M-2.5,-0.5L0,-3.0L2.5,-0.5"/>
                </g>
               <g id="resetDef">
                       <use xlink:href="#rim2" fill="#404040">
                               <set attributeName="fill" to="#808080" begin="reset.mouseover" end="reset.mouseout"/>
                       </use>
               </g>
        </defs>

<script type="text/javascript">
var viewWidth = 1651;
var viewHeight = 396;
var sectionId = 'dynsection-8';
</script>
<script xlink:href="svgpan.js"/>
<svg id="graph" class="graph">
<g id="viewport">
<title>Map::demolishNode</title>
<!-- Node93 -->
<g id="node1" class="node">
<title>Node93</title>
<polygon fill="#bfbfbf" stroke="#000000" points="0,-245.757 0,-264.757 113,-264.757 113,-245.757 0,-245.757"/>
<text text-anchor="middle" x="56.5" y="-252.757" font-family="Helvetica,sans-Serif" font-size="10.00" fill="#000000">Map::demolishNode</text>
</g>
<!-- Node94 -->
<g id="node2" class="node">
<title>Node94</title>
<g id="a_node2"><a xlink:href="classEventManager.html#a65ec91fd5016d4f9c4167fb8babed2df" target="_top" xlink:title="EventManager::checkEvents">
<polygon fill="none" stroke="#000000" points="1167,-283.757 1167,-302.757 1321,-302.757 1321,-283.757 1167,-283.757"/>
<text text-anchor="middle" x="1244" y="-290.757" font-family="Helvetica,sans-Serif" font-size="10.00" fill="#000000">EventManager::checkEvents</text>
</a>
</g>
</g>
<!-- Node93&#45;&gt;Node94 -->
<g id="edge1" class="edge">
<title>Node93&#45;&gt;Node94</title>
<path fill="none" stroke="#191970" d="M77.8166,-270.7945C128.1373,-305.89 259.3547,-388.257 382.5,-388.257 382.5,-388.257 382.5,-388.257 885.5,-388.257 990.8654,-388.257 1018.0584,-377.4673 1119,-347.257 1158.1798,-335.531 1201.4907,-314.9927 1225.4566,-302.9075"/>
<polygon fill="#191970" stroke="#191970" points="79.566,-267.7446 69.3823,-264.822 75.5207,-273.4574 79.566,-267.7446"/>
</g>
<!-- Node98 -->
<g id="node6" class="node">
<title>Node98</title>
<g id="a_node6"><a xlink:href="classMap.html#aba5154a4d917900679a3c0f7ec701561" target="_top" xlink:title="Increase Height Increases the height of the node and checks the surrounding tiles. Either draw a slope sprite or elevate the tile if necessary. ">
<polygon fill="none" stroke="#000000" points="149,-226.757 149,-245.757 265,-245.757 265,-226.757 149,-226.757"/>
<text text-anchor="middle" x="207" y="-233.757" font-family="Helvetica,sans-Serif" font-size="10.00" fill="#000000">Map::increaseHeight</text>
</a>
</g>
</g>
<!-- Node93&#45;&gt;Node98 -->
<g id="edge5" class="edge">
<title>Node93&#45;&gt;Node98</title>
<path fill="none" stroke="#191970" d="M123.5571,-246.7913C131.9658,-245.7297 140.5126,-244.6507 148.7707,-243.6082"/>
<polygon fill="#191970" stroke="#191970" points="122.8804,-243.3489 113.3976,-248.0739 123.7573,-250.2937 122.8804,-243.3489"/>
</g>
<!-- Node100 -->
<g id="node8" class="node">
<title>Node100</title>
<g id="a_node8"><a xlink:href="classMap.html#a59d21f2688713fbcfe320eb1b24405ca" target="_top" xlink:title="Update mapNode and its adjacent tiles Updates mapNode height information, draws slopes for adjacent t...">
<polygon fill="none" stroke="#000000" points="301,-188.757 301,-207.757 464,-207.757 464,-188.757 301,-188.757"/>
<text text-anchor="middle" x="382.5" y="-195.757" font-family="Helvetica,sans-Serif" font-size="10.00" fill="#000000">Map::updateNeighborsOfNode</text>
</a>
</g>
</g>
<!-- Node93&#45;&gt;Node100 -->
<g id="edge37" class="edge">
<title>Node93&#45;&gt;Node100</title>
<path fill="none" stroke="#191970" d="M73.1915,-239.8973C91.3221,-228.5434 121.3977,-214.88 149,-208.257 198.5359,-196.3712 255.4938,-191.5677 300.7536,-190.8156"/>
<polygon fill="#191970" stroke="#191970" points="71.161,-237.0456 64.8756,-245.5746 75.1079,-242.8268 71.161,-237.0456"/>
</g>
<!-- Node101 -->
<g id="node9" class="node">
<title>Node101</title>
<g id="a_node9"><a xlink:href="classMap.html#afb8cc864df90d273a5074872d635dc40" target="_top" xlink:title="Decrease Height Decreases the height of the node and checks the surrounding tiles. Either draw a slope sprite or lower the tile if necessary. ">
<polygon fill="none" stroke="#000000" points="500.5,-264.757 500.5,-283.757 619.5,-283.757 619.5,-264.757 500.5,-264.757"/>
<text text-anchor="middle" x="560" y="-271.757" font-family="Helvetica,sans-Serif" font-size="10.00" fill="#000000">Map::decreaseHeight</text>
</a>
</g>
</g>
<!-- Node93&#45;&gt;Node101 -->
<g id="edge36" class="edge">
<title>Node93&#45;&gt;Node101</title>
<path fill="none" stroke="#191970" d="M123.449,-257.7834C222.3075,-261.5139 405.801,-268.4382 500.3133,-272.0047"/>
<polygon fill="#191970" stroke="#191970" points="123.404,-254.2793 113.2791,-257.3996 123.14,-261.2743 123.404,-254.2793"/>
</g>
<!-- Node112 -->
<g id="node20" class="node">
<title>Node112</title>
<g id="a_node20"><a xlink:href="classMap.html#a404c38b33d61f8c63ce2c2efb864d6dd" target="_top" xlink:title="Set the Tile ID Of Node object Also invokes all necessary texture updates (auto&#45;tiling, slopes, ...) ">
<polygon fill="none" stroke="#000000" points="824,-245.757 824,-264.757 947,-264.757 947,-245.757 824,-245.757"/>
<text text-anchor="middle" x="885.5" y="-252.757" font-family="Helvetica,sans-Serif" font-size="10.00" fill="#000000">Map::setTileIDOfNode</text>
</a>
</g>
</g>
<!-- Node93&#45;&gt;Node112 -->
<g id="edge38" class="edge">
<title>Node93&#45;&gt;Node112</title>
<path fill="none" stroke="#191970" d="M98.7993,-267.483C160.5774,-284.2313 279.3628,-312.257 382.5,-312.257 382.5,-312.257 382.5,-312.257 560,-312.257 661.6846,-312.257 688.9329,-316.18 788,-293.257 815.9654,-286.7861 846.5507,-273.8277 865.8695,-264.8548"/>
<polygon fill="#191970" stroke="#191970" points="99.5942,-264.0718 89.0242,-264.7975 97.7397,-270.8217 99.5942,-264.0718"/>
</g>
<!-- Node95 -->
<g id="node3" class="node">
<title>Node95</title>
<g id="a_node3"><a xlink:href="classGame.html#a1c2ab25d5216b2f4b2fe41efd2c09114" target="_top" xlink:title="begins the game starts running the game ">
<polygon fill="none" stroke="#000000" points="1369,-226.757 1369,-245.757 1437,-245.757 1437,-226.757 1369,-226.757"/>
<text text-anchor="middle" x="1403" y="-233.757" font-family="Helvetica,sans-Serif" font-size="10.00" fill="#000000">Game::run</text>
</a>
</g>
</g>
<!-- Node94&#45;&gt;Node95 -->
<g id="edge2" class="edge">
<title>Node94&#45;&gt;Node95</title>
<path fill="none" stroke="#191970" d="M1280.0636,-280.3285C1309.3193,-269.8406 1349.8994,-255.293 1376.3002,-245.8286"/>
<polygon fill="#191970" stroke="#191970" points="1278.8453,-277.0471 1270.613,-283.7165 1281.2076,-283.6365 1278.8453,-277.0471"/>
</g>
<!-- Node96 -->
<g id="node4" class="node">
<title>Node96</title>
<g id="a_node4"><a xlink:href="main_8cxx.html#af582d708d899e67ead623eac34a22387" target="_top" xlink:title="protected_main">
<polygon fill="none" stroke="#000000" points="1473,-207.757 1473,-226.757 1566,-226.757 1566,-207.757 1473,-207.757"/>
<text text-anchor="middle" x="1519.5" y="-214.757" font-family="Helvetica,sans-Serif" font-size="10.00" fill="#000000">protected_main</text>
</a>
</g>
</g>
<!-- Node95&#45;&gt;Node96 -->
<g id="edge3" class="edge">
<title>Node95&#45;&gt;Node96</title>
<path fill="none" stroke="#191970" d="M1446.9884,-229.0829C1455.382,-227.714 1464.1965,-226.2764 1472.6749,-224.8937"/>
<polygon fill="#191970" stroke="#191970" points="1446.316,-225.6462 1437.0098,-230.7103 1447.4428,-232.555 1446.316,-225.6462"/>
</g>
<!-- Node97 -->
<g id="node5" class="node">
<title>Node97</title>
<g id="a_node5"><a xlink:href="main_8cxx.html#a3c04138a5bfe5d72780bb7e82a18e627" target="_top" xlink:title="main">
<polygon fill="none" stroke="#000000" points="1602,-207.757 1602,-226.757 1643,-226.757 1643,-207.757 1602,-207.757"/>
<text text-anchor="middle" x="1622.5" y="-214.757" font-family="Helvetica,sans-Serif" font-size="10.00" fill="#000000">main</text>
</a>
</g>
</g>
<!-- Node96&#45;&gt;Node97 -->
<g id="edge4" class="edge">
<title>Node96&#45;&gt;Node97</title>
<path fill="none" stroke="#191970" d="M1576.2133,-217.257C1585.4322,-217.257 1594.4259,-217.257 1601.9965,-217.257"/>
<polygon fill="#191970" stroke="#191970" points="1576.1782,-213.7571 1566.1782,-217.257 1576.1781,-220.7571 1576.1782,-213.7571"/>
</g>
<!-- Node99 -->
<g id="node7" class="node">
<title>Node99</title>
<g id="a_node7"><a xlink:href="classEngine.html#a4851ae1ff696c893741167fc0194fd77" target="_top" xlink:title="Increase Height Increases the height of the given map node Calls the according function of the Map ob...">
<polygon fill="none" stroke="#000000" points="318,-226.757 318,-245.757 447,-245.757 447,-226.757 318,-226.757"/>
<text text-anchor="middle" x="382.5" y="-233.757" font-family="Helvetica,sans-Serif" font-size="10.00" fill="#000000">Engine::increaseHeight</text>
</a>
</g>
</g>
<!-- Node98&#45;&gt;Node99 -->
<g id="edge6" class="edge">
<title>Node98&#45;&gt;Node99</title>
<path fill="none" stroke="#191970" d="M275.4777,-236.257C289.4606,-236.257 304.1304,-236.257 317.9699,-236.257"/>
<polygon fill="#191970" stroke="#191970" points="275.439,-232.7571 265.439,-236.257 275.4389,-239.7571 275.439,-232.7571"/>
</g>
<!-- Node98&#45;&gt;Node100 -->
<g id="edge8" class="edge">
<title>Node98&#45;&gt;Node100</title>
<path fill="none" stroke="#191970" d="M239.3035,-223.8918C258.484,-218.6211 283.6517,-212.7333 307.5293,-207.804"/>
<polygon fill="#191970" stroke="#191970" points="238.2403,-220.5553 229.5843,-226.6646 240.1608,-227.2868 238.2403,-220.5553"/>
</g>
<!-- Node99&#45;&gt;Node94 -->
<g id="edge7" class="edge">
<title>Node99&#45;&gt;Node94</title>
<path fill="none" stroke="#191970" d="M407.4456,-250.8912C462.3349,-281.6634 598.5344,-350.257 722,-350.257 722,-350.257 722,-350.257 885.5,-350.257 1004.9255,-350.257 1143.9843,-319.024 1208.171,-302.7975"/>
<polygon fill="#191970" stroke="#191970" points="408.8814,-247.6814 398.4585,-245.7805 405.421,-253.7663 408.8814,-247.6814"/>
</g>
<!-- Node100&#45;&gt;Node93 -->
<g id="edge34" class="edge">
<title>Node100&#45;&gt;Node93</title>
<path fill="none" stroke="#191970" d="M290.7653,-207.36C247.3004,-210.299 194.9562,-215.2301 149,-226.257 129.7543,-230.8749 109.3063,-238.9155 92.5432,-245.6199"/>
<polygon fill="#191970" stroke="#191970" points="291.003,-210.852 300.7536,-206.7075 290.5467,-203.8669 291.003,-210.852"/>
</g>
<!-- Node100&#45;&gt;Node98 -->
<g id="edge9" class="edge">
<title>Node100&#45;&gt;Node98</title>
<path fill="none" stroke="#191970" d="M349.9376,-210.6933C326.2681,-217.1862 293.5814,-224.6029 265.439,-230.0071"/>
<polygon fill="#191970" stroke="#191970" points="351.1509,-213.987 359.8093,-207.881 349.233,-207.2548 351.1509,-213.987"/>
</g>
<!-- Node100&#45;&gt;Node101 -->
<g id="edge10" class="edge">
<title>Node100&#45;&gt;Node101</title>
<path fill="none" stroke="#191970" d="M471.825,-213.3508C483.2457,-222.2835 484.7827,-231.6905 500,-241.257 515.7669,-251.169 536.3144,-258.3177 548.8131,-264.5728"/>
<polygon fill="#191970" stroke="#191970" points="473.5367,-210.291 463.2262,-207.8531 469.766,-216.1886 473.5367,-210.291"/>
</g>
<!-- Node103 -->
<g id="node11" class="node">
<title>Node103</title>
<g id="a_node11"><a xlink:href="classMap.html#a481b37ba71ef0e51e836fc42805762dd" target="_top" xlink:title="Update all mapNodes Updates all mapNode and its adjacent tiles regarding height information, draws slopes for adjacent tiles and sets tiling for mapNode sprite if applicable. ">
<polygon fill="none" stroke="#000000" points="500,-188.757 500,-207.757 620,-207.757 620,-188.757 500,-188.757"/>
<text text-anchor="middle" x="560" y="-195.757" font-family="Helvetica,sans-Serif" font-size="10.00" fill="#000000">Map::updateAllNodes</text>
</a>
</g>
</g>
<!-- Node100&#45;&gt;Node103 -->
<g id="edge14" class="edge">
<title>Node100&#45;&gt;Node103</title>
<path fill="none" stroke="#191970" d="M474.3911,-198.257C483.0427,-198.257 491.6544,-198.257 499.8969,-198.257"/>
<polygon fill="#191970" stroke="#191970" points="474.2363,-194.7571 464.2362,-198.257 474.2362,-201.7571 474.2363,-194.7571"/>
</g>
<!-- Node100&#45;&gt;Node112 -->
<g id="edge35" class="edge">
<title>Node100&#45;&gt;Node112</title>
<path fill="none" stroke="#191970" d="M446.7754,-209.3893C464.0291,-212.1754 482.6988,-215.0077 500,-217.257 614.0402,-232.0834 747.7331,-244.0576 823.9412,-250.3746"/>
<polygon fill="#191970" stroke="#191970" points="447.235,-205.918 436.8014,-207.759 446.1058,-212.8264 447.235,-205.918"/>
</g>
<!-- Node101&#45;&gt;Node100 -->
<g id="edge13" class="edge">
<title>Node101&#45;&gt;Node100</title>
<path fill="none" stroke="#191970" d="M500.5719,-259.614C500.3806,-259.4954 500.19,-259.3764 500,-259.257 481.6244,-247.705 483.197,-236.3855 464,-226.257 445.4962,-216.4942 422.0221,-211.7028 405.0239,-207.7772"/>
<polygon fill="#191970" stroke="#191970" points="499.126,-262.8161 509.5592,-264.6594 502.5527,-256.7121 499.126,-262.8161"/>
</g>
<!-- Node102 -->
<g id="node10" class="node">
<title>Node102</title>
<g id="a_node10"><a xlink:href="classEngine.html#a13572fdd7f6470dca48a14497f58980e" target="_top" xlink:title="Decrease Height Decreases the height of the given map node Calls the according function of the Map ob...">
<polygon fill="none" stroke="#000000" points="656,-264.757 656,-283.757 788,-283.757 788,-264.757 656,-264.757"/>
<text text-anchor="middle" x="722" y="-271.757" font-family="Helvetica,sans-Serif" font-size="10.00" fill="#000000">Engine::decreaseHeight</text>
</a>
</g>
</g>
<!-- Node101&#45;&gt;Node102 -->
<g id="edge11" class="edge">
<title>Node101&#45;&gt;Node102</title>
<path fill="none" stroke="#191970" d="M629.8755,-274.257C638.4925,-274.257 647.2807,-274.257 655.8401,-274.257"/>
<polygon fill="#191970" stroke="#191970" points="629.8626,-270.7571 619.8626,-274.257 629.8625,-277.7571 629.8626,-270.7571"/>
</g>
<!-- Node102&#45;&gt;Node94 -->
<g id="edge12" class="edge">
<title>Node102&#45;&gt;Node94</title>
<path fill="none" stroke="#191970" d="M798.3132,-281.2804C850.3115,-285.705 920.749,-290.9941 983,-293.257 1044.8107,-295.5038 1114.9099,-295.3546 1166.8855,-294.7257"/>
<polygon fill="#191970" stroke="#191970" points="798.4304,-277.7776 788.1673,-280.4081 797.8307,-284.7519 798.4304,-277.7776"/>
</g>
<!-- Node104 -->
<g id="node12" class="node">
<title>Node104</title>
<g id="a_node12"><a xlink:href="classMap.html#a482ac34426e8aa66abb46f60ec329402" target="_top" xlink:title="Initialize the Map with node objects Initialize the Map with node objects. ">
<polygon fill="none" stroke="#000000" points="682.5,-112.757 682.5,-131.757 761.5,-131.757 761.5,-112.757 682.5,-112.757"/>
<text text-anchor="middle" x="722" y="-119.757" font-family="Helvetica,sans-Serif" font-size="10.00" fill="#000000">Map::initMap</text>
</a>
</g>
</g>
<!-- Node103&#45;&gt;Node104 -->
<g id="edge15" class="edge">
<title>Node103&#45;&gt;Node104</title>
<path fill="none" stroke="#191970" d="M589.9674,-184.1982C622.4794,-168.9457 673.4991,-145.0105 701.6492,-131.8043"/>
<polygon fill="#191970" stroke="#191970" points="588.0841,-181.2156 580.5174,-188.6315 591.0572,-187.5529 588.0841,-181.2156"/>
</g>
<!-- Node109 -->
<g id="node17" class="node">
<title>Node109</title>
<g id="a_node17"><a xlink:href="classMap.html#afefe996cc1f62b61ec60d0ae415953bf" target="_top" xlink:title="Map::loadMapFromFile">
<polygon fill="none" stroke="#000000" points="659.5,-188.757 659.5,-207.757 784.5,-207.757 784.5,-188.757 659.5,-188.757"/>
<text text-anchor="middle" x="722" y="-195.757" font-family="Helvetica,sans-Serif" font-size="10.00" fill="#000000">Map::loadMapFromFile</text>
</a>
</g>
</g>
<!-- Node103&#45;&gt;Node109 -->
<g id="edge23" class="edge">
<title>Node103&#45;&gt;Node109</title>
<path fill="none" stroke="#191970" d="M630.3256,-198.257C640.0192,-198.257 649.9204,-198.257 659.4607,-198.257"/>
<polygon fill="#191970" stroke="#191970" points="630.3229,-194.7571 620.3228,-198.257 630.3228,-201.7571 630.3229,-194.7571"/>
</g>
<!-- Node105 -->
<g id="node13" class="node">
<title>Node105</title>
<g id="a_node13"><a xlink:href="classEngine.html#a260d4834150eae6eec2bde34df6dc827" target="_top" xlink:title="Creates a new game Creates a new game. ">
<polygon fill="none" stroke="#000000" points="833,-74.757 833,-93.757 938,-93.757 938,-74.757 833,-74.757"/>
<text text-anchor="middle" x="885.5" y="-81.757" font-family="Helvetica,sans-Serif" font-size="10.00" fill="#000000">Engine::newGame</text>
</a>
</g>
</g>
<!-- Node104&#45;&gt;Node105 -->
<g id="edge16" class="edge">
<title>Node104&#45;&gt;Node105</title>
<path fill="none" stroke="#191970" d="M771.3213,-110.7939C794.724,-105.3548 822.3582,-98.9321 844.5782,-93.7679"/>
<polygon fill="#191970" stroke="#191970" points="770.5268,-107.3852 761.5788,-113.0582 772.1115,-114.2035 770.5268,-107.3852"/>
</g>
<!-- Node105&#45;&gt;Node95 -->
<g id="edge22" class="edge">
<title>Node105&#45;&gt;Node95</title>
<path fill="none" stroke="#191970" d="M905.2142,-68.4564C923.9615,-54.5193 953.5915,-35.2226 983,-27.257 1135.1233,13.9475 1212.4335,17.2468 1333,-84.257 1379.4505,-123.3633 1396.7124,-199.9272 1401.485,-226.7224"/>
<polygon fill="#191970" stroke="#191970" points="902.9871,-65.7533 897.1701,-74.6085 907.2396,-71.3136 902.9871,-65.7533"/>
</g>
<!-- Node106 -->
<g id="node14" class="node">
<title>Node106</title>
<g id="a_node14"><a xlink:href="classEngine.html#ab5a909990be40701ebb4b57c3e716ed4" target="_top" xlink:title="Engine::saveGame">
<polygon fill="none" stroke="#000000" points="997,-36.757 997,-55.757 1105,-55.757 1105,-36.757 997,-36.757"/>
<text text-anchor="middle" x="1051" y="-43.757" font-family="Helvetica,sans-Serif" font-size="10.00" fill="#000000">Engine::saveGame</text>
</a>
</g>
</g>
<!-- Node105&#45;&gt;Node106 -->
<g id="edge17" class="edge">
<title>Node105&#45;&gt;Node106</title>
<path fill="none" stroke="#191970" d="M937.3105,-72.3609C960.5733,-67.0196 987.6469,-60.8033 1009.5377,-55.777"/>
<polygon fill="#191970" stroke="#191970" points="936.2258,-69.0188 927.2626,-74.668 937.7923,-75.8413 936.2258,-69.0188"/>
</g>
<!-- Node107 -->
<g id="node15" class="node">
<title>Node107</title>
<g id="a_node15"><a xlink:href="classUIManager.html#aa78e356fc3b356d790c848319d1c387e" target="_top" xlink:title="UIManager::setCallbackFunctions">
<polygon fill="none" stroke="#000000" points="1155,-93.757 1155,-112.757 1333,-112.757 1333,-93.757 1155,-93.757"/>
<text text-anchor="middle" x="1244" y="-100.757" font-family="Helvetica,sans-Serif" font-size="10.00" fill="#000000">UIManager::setCallbackFunctions</text>
</a>
</g>
</g>
<!-- Node105&#45;&gt;Node107 -->
<g id="edge19" class="edge">
<title>Node105&#45;&gt;Node107</title>
<path fill="none" stroke="#191970" d="M948.0043,-87.5696C1005.2186,-90.6019 1090.5184,-95.1227 1154.8714,-98.5333"/>
<polygon fill="#191970" stroke="#191970" points="948.1842,-84.0743 938.0129,-87.0401 947.8136,-91.0645 948.1842,-84.0743"/>
</g>
<!-- Node108 -->
<g id="node16" class="node">
<title>Node108</title>
<g id="a_node16"><a xlink:href="classGame.html#a5ed7fc5be77080f7f6dd5363f7f007a1" target="_top" xlink:title="initializes and displays the main menu initializes and displays the main menu ">
<polygon fill="none" stroke="#000000" points="1192.5,-188.757 1192.5,-207.757 1295.5,-207.757 1295.5,-188.757 1192.5,-188.757"/>
<text text-anchor="middle" x="1244" y="-195.757" font-family="Helvetica,sans-Serif" font-size="10.00" fill="#000000">Game::mainMenu</text>
</a>
</g>
</g>
<!-- Node105&#45;&gt;Node108 -->
<g id="edge20" class="edge">
<title>Node105&#45;&gt;Node108</title>
<path fill="none" stroke="#191970" d="M925.106,-96.8514C997.4107,-119.8437 1149.2829,-168.1377 1213.8842,-188.6804"/>
<polygon fill="#191970" stroke="#191970" points="926.0393,-93.4755 915.4489,-93.7805 923.918,-100.1464 926.0393,-93.4755"/>
</g>
<!-- Node106&#45;&gt;Node107 -->
<g id="edge18" class="edge">
<title>Node106&#45;&gt;Node107</title>
<path fill="none" stroke="#191970" d="M1092.9351,-58.642C1128.5685,-69.1658 1178.9873,-84.0563 1211.5907,-93.6853"/>
<polygon fill="#191970" stroke="#191970" points="1093.8857,-55.2733 1083.3039,-55.7975 1091.903,-61.9867 1093.8857,-55.2733"/>
</g>
<!-- Node108&#45;&gt;Node96 -->
<g id="edge21" class="edge">
<title>Node108&#45;&gt;Node96</title>
<path fill="none" stroke="#191970" d="M1305.9861,-202.5319C1356.6117,-206.0233 1427.055,-210.8815 1472.9575,-214.0472"/>
<polygon fill="#191970" stroke="#191970" points="1306.0366,-199.0271 1295.8194,-201.8307 1305.5549,-206.0106 1306.0366,-199.0271"/>
</g>
<!-- Node110 -->
<g id="node18" class="node">
<title>Node110</title>
<g id="a_node18"><a xlink:href="classEngine.html#a83b7dbeee899b36a13d5b07c7ad87ebc" target="_top" xlink:title="Loads a saved game Loads a saved Game. ">
<polygon fill="none" stroke="#000000" points="832.5,-188.757 832.5,-207.757 938.5,-207.757 938.5,-188.757 832.5,-188.757"/>
<text text-anchor="middle" x="885.5" y="-195.757" font-family="Helvetica,sans-Serif" font-size="10.00" fill="#000000">Engine::loadGame</text>
</a>
</g>
</g>
<!-- Node109&#45;&gt;Node110 -->
<g id="edge24" class="edge">
<title>Node109&#45;&gt;Node110</title>
<path fill="none" stroke="#191970" d="M794.8281,-198.257C807.5068,-198.257 820.4752,-198.257 832.4939,-198.257"/>
<polygon fill="#191970" stroke="#191970" points="794.7458,-194.7571 784.7458,-198.257 794.7457,-201.7571 794.7458,-194.7571"/>
</g>
<!-- Node109&#45;&gt;Node112 -->
<g id="edge31" class="edge">
<title>Node109&#45;&gt;Node112</title>
<path fill="none" stroke="#191970" d="M759.0842,-211.1854C789.168,-221.6734 830.8966,-236.2209 858.0445,-245.6853"/>
<polygon fill="#191970" stroke="#191970" points="759.9611,-207.7846 749.3662,-207.7975 757.6567,-214.3944 759.9611,-207.7846"/>
</g>
<!-- Node110&#45;&gt;Node107 -->
<g id="edge29" class="edge">
<title>Node110&#45;&gt;Node107</title>
<path fill="none" stroke="#191970" d="M931.2482,-186.134C1003.4631,-166.9976 1142.3971,-130.181 1208.0082,-112.7946"/>
<polygon fill="#191970" stroke="#191970" points="930.2856,-182.7682 921.5158,-188.7131 932.0787,-189.5347 930.2856,-182.7682"/>
</g>
<!-- Node110&#45;&gt;Node108 -->
<g id="edge30" class="edge">
<title>Node110&#45;&gt;Node108</title>
<path fill="none" stroke="#191970" d="M934.893,-209.7948C950.22,-212.8578 967.229,-215.7346 983,-217.257 1043.1648,-223.0646 1058.7274,-221.8115 1119,-217.257 1143.5148,-215.4045 1170.505,-211.5362 1193.1122,-207.7705"/>
<polygon fill="#191970" stroke="#191970" points="935.5955,-206.3661 925.0937,-207.7674 934.1772,-213.2209 935.5955,-206.3661"/>
</g>
<!-- Node111 -->
<g id="node19" class="node">
<title>Node111</title>
<g id="a_node19"><a xlink:href="classEngine.html#a0ba57971ffb5173ecc425461f65a4cd8" target="_top" xlink:title="Quits the game Sets m_running to false and quitting the game. ">
<polygon fill="none" stroke="#000000" points="999,-188.757 999,-207.757 1103,-207.757 1103,-188.757 999,-188.757"/>
<text text-anchor="middle" x="1051" y="-195.757" font-family="Helvetica,sans-Serif" font-size="10.00" fill="#000000">Engine::quitGame</text>
</a>
</g>
</g>
<!-- Node110&#45;&gt;Node111 -->
<g id="edge25" class="edge">
<title>Node110&#45;&gt;Node111</title>
<path fill="none" stroke="#191970" d="M948.9079,-198.257C965.4475,-198.257 983.0792,-198.257 998.9541,-198.257"/>
<polygon fill="#191970" stroke="#191970" points="948.7763,-194.7571 938.7762,-198.257 948.7762,-201.7571 948.7763,-194.7571"/>
</g>
<!-- Node111&#45;&gt;Node94 -->
<g id="edge26" class="edge">
<title>Node111&#45;&gt;Node94</title>
<path fill="none" stroke="#191970" d="M1079.7537,-212.4104C1119.6083,-232.0279 1190.5738,-266.9591 1224.6672,-283.7408"/>
<polygon fill="#191970" stroke="#191970" points="1081.0857,-209.165 1070.568,-207.8889 1077.9943,-215.4454 1081.0857,-209.165"/>
</g>
<!-- Node111&#45;&gt;Node107 -->
<g id="edge27" class="edge">
<title>Node111&#45;&gt;Node107</title>
<path fill="none" stroke="#191970" d="M1079.7537,-184.1036C1119.6083,-164.486 1190.5738,-129.5549 1224.6672,-112.7731"/>
<polygon fill="#191970" stroke="#191970" points="1077.9943,-181.0686 1070.568,-188.6251 1081.0857,-187.349 1077.9943,-181.0686"/>
</g>
<!-- Node111&#45;&gt;Node108 -->
<g id="edge28" class="edge">
<title>Node111&#45;&gt;Node108</title>
<path fill="none" stroke="#191970" d="M1113.5372,-198.257C1139.0304,-198.257 1168.1483,-198.257 1192.3984,-198.257"/>
<polygon fill="#191970" stroke="#191970" points="1113.2286,-194.7571 1103.2286,-198.257 1113.2285,-201.7571 1113.2286,-194.7571"/>
</g>
<!-- Node113 -->
<g id="node21" class="node">
<title>Node113</title>
<g id="a_node21"><a xlink:href="classEngine.html#a7a1521fd7fc731f961ebaf3f723127d9" target="_top" xlink:title="Engine::setTileIDOfNode">
<polygon fill="none" stroke="#000000" points="983,-264.757 983,-283.757 1119,-283.757 1119,-264.757 983,-264.757"/>
<text text-anchor="middle" x="1051" y="-271.757" font-family="Helvetica,sans-Serif" font-size="10.00" fill="#000000">Engine::setTileIDOfNode</text>
</a>
</g>
</g>
<!-- Node112&#45;&gt;Node113 -->
<g id="edge32" class="edge">
<title>Node112&#45;&gt;Node113</title>
<path fill="none" stroke="#191970" d="M957.094,-263.4762C965.6681,-264.4606 974.405,-265.4636 982.9273,-266.442"/>
<polygon fill="#191970" stroke="#191970" points="957.4601,-259.9954 947.1261,-262.3319 956.6616,-266.9497 957.4601,-259.9954"/>
</g>
<!-- Node113&#45;&gt;Node94 -->
<g id="edge33" class="edge">
<title>Node113&#45;&gt;Node94</title>
<path fill="none" stroke="#191970" d="M1129.292,-281.9645C1141.6288,-283.179 1154.3776,-284.4341 1166.6918,-285.6463"/>
<polygon fill="#191970" stroke="#191970" points="1129.3394,-278.4523 1119.0446,-280.9557 1128.6535,-285.4186 1129.3394,-278.4523"/>
</g>
</g>
</svg>
        <g id="navigator" transform="translate(0 0)" fill="#404254">
                <rect fill="#f2f5e9" fill-opacity="0.5" stroke="#606060" stroke-width=".5" x="0" y="0" width="60" height="60"/>
                <use id="zoomplus" xlink:href="#zoomPlus" x="17" y="9" onmousedown="handleZoom(evt,'in')"/>
                <use id="zoomminus" xlink:href="#zoomMin" x="42" y="9" onmousedown="handleZoom(evt,'out')"/>
                <use id="reset" xlink:href="#resetDef" x="30" y="36" onmousedown="handleReset()"/>
                <g id="arrowUp" xlink:href="#dirArrow" transform="translate(30 24)" onmousedown="handlePan(0,-1)">
                  <use xlink:href="#rim" fill="#404040">
                        <set attributeName="fill" to="#808080" begin="arrowUp.mouseover" end="arrowUp.mouseout"/>
                  </use>
                  <path fill="none" stroke="white" stroke-width="1.5" d="M0,-3.0v7 M-2.5,-0.5L0,-3.0L2.5,-0.5"/>
                </g>
                <g id="arrowRight" xlink:href="#dirArrow" transform="rotate(90) translate(36 -43)" onmousedown="handlePan(1,0)">
                  <use xlink:href="#rim" fill="#404040">
                        <set attributeName="fill" to="#808080" begin="arrowRight.mouseover" end="arrowRight.mouseout"/>
                  </use>
                  <path fill="none" stroke="white" stroke-width="1.5" d="M0,-3.0v7 M-2.5,-0.5L0,-3.0L2.5,-0.5"/>
                </g>
                <g id="arrowDown" xlink:href="#dirArrow" transform="rotate(180) translate(-30 -48)" onmousedown="handlePan(0,1)">
                  <use xlink:href="#rim" fill="#404040">
                        <set attributeName="fill" to="#808080" begin="arrowDown.mouseover" end="arrowDown.mouseout"/>
                  </use>
                  <path fill="none" stroke="white" stroke-width="1.5" d="M0,-3.0v7 M-2.5,-0.5L0,-3.0L2.5,-0.5"/>
                </g>
                <g id="arrowLeft" xlink:href="#dirArrow" transform="rotate(270) translate(-36 17)" onmousedown="handlePan(-1,0)">
                  <use xlink:href="#rim" fill="#404040">
                        <set attributeName="fill" to="#808080" begin="arrowLeft.mouseover" end="arrowLeft.mouseout"/>
                  </use>
                  <path fill="none" stroke="white" stroke-width="1.5" d="M0,-3.0v7 M-2.5,-0.5L0,-3.0L2.5,-0.5"/>
                </g>
        </g>
        <svg viewBox="0 0 15 15" width="100%" height="30px" preserveAspectRatio="xMaxYMin meet">
         <g id="arrow_out" transform="scale(0.3 0.3)">
          <a xlink:href="classMap_aa8cc2ed983007621bce12dd9d1b8ec5b_icgraph_org.svg" target="_base">
           <rect id="button" ry="5" rx="5" y="6" x="6" height="38" width="38"
                fill="#f2f5e9" fill-opacity="0.5" stroke="#606060" stroke-width="1.0"/>
           <path id="arrow"
             d="M 11.500037,31.436501 C 11.940474,20.09759 22.043105,11.32322 32.158766,21.979434 L 37.068811,17.246167 C 37.068811,17.246167 37.088388,32 37.088388,32 L 22.160133,31.978069 C 22.160133,31.978069 26.997745,27.140456 26.997745,27.140456 C 18.528582,18.264221 13.291696,25.230495 11.500037,31.436501 z"
             style="fill:#404040;"/>
          </a>
         </g>
        </svg>
</svg>
