<?xml version="1.0" encoding="UTF-8" standalone="no"?>
<!DOCTYPE svg PUBLIC "-//W3C//DTD SVG 1.1//EN"
 "http://www.w3.org/Graphics/SVG/1.1/DTD/svg11.dtd">
<!-- Generated by graphviz version 2.40.1 (20161225.0304)
 -->
<!-- Title: UIManager::changeFullScreenMode Pages: 1 -->
<!--zoomable 288 -->
<svg id="main" version="1.1" xmlns="http://www.w3.org/2000/svg" xmlns:xlink="http://www.w3.org/1999/xlink" xml:space="preserve" onload="init(evt)">
<style type="text/css"><![CDATA[
.edge:hover path { stroke: red; }
.edge:hover polygon { stroke: red; fill: red; }
]]></style>
<script type="text/javascript"><![CDATA[
var edges = document.getElementsByTagName('g');
if (edges && edges.length) {
  for (var i=0;i<edges.length;i++) {
    if (edges[i].id.substr(0,4)=='edge') {
      edges[i].setAttribute('class','edge');
    }
  }
}
]]></script>
        <defs>
                <circle id="rim" cx="0" cy="0" r="7"/>
                <circle id="rim2" cx="0" cy="0" r="3.5"/>
                <g id="zoomPlus">
                        <use xlink:href="#rim" fill="#404040">
                                <set attributeName="fill" to="#808080" begin="zoomplus.mouseover" end="zoomplus.mouseout"/>
                        </use>
                        <path d="M-4,0h8M0,-4v8" fill="none" stroke="white" stroke-width="1.5" pointer-events="none"/>
                </g>
                <g id="zoomMin">
                        <use xlink:href="#rim" fill="#404040">
                                <set attributeName="fill" to="#808080" begin="zoomminus.mouseover" end="zoomminus.mouseout"/>
                        </use>
                        <path d="M-4,0h8" fill="none" stroke="white" stroke-width="1.5" pointer-events="none"/>
                </g>
                <g id="dirArrow">
                        <path fill="none" stroke="white" stroke-width="1.5" d="M0,-3.0v7 M-2.5,-0.5L0,-3.0L2.5,-0.5"/>
                </g>
               <g id="resetDef">
                       <use xlink:href="#rim2" fill="#404040">
                               <set attributeName="fill" to="#808080" begin="reset.mouseover" end="reset.mouseout"/>
                       </use>
               </g>
        </defs>

<script type="text/javascript">
var viewWidth = 1076;
var viewHeight = 288;
var sectionId = 'dynsection-4';
</script>
<script xlink:href="svgpan.js"/>
<svg id="graph" class="graph">
<g id="viewport">
<title>UIManager::changeFullScreenMode</title>
<!-- Node8 -->
<g id="node1" class="node">
<title>Node8</title>
<polygon fill="#bfbfbf" stroke="#000000" points="0,-220.5 0,-239.5 186,-239.5 186,-220.5 0,-220.5"/>
<text text-anchor="middle" x="93" y="-227.5" font-family="Helvetica,sans-Serif" font-size="10.00" fill="#000000">UIManager::changeFullScreenMode</text>
</g>
<!-- Node9 -->
<g id="node2" class="node">
<title>Node9</title>
<g id="a_node2"><a xlink:href="classSingleton.html#af5cb1e5749949e2b68416cfb8d378044" target="_top" xlink:title="Get an instance of the singleton. ">
<polygon fill="none" stroke="#000000" points="660,-206 660,-236 815,-236 815,-206 660,-206"/>
<text text-anchor="start" x="668" y="-224" font-family="Helvetica,sans-Serif" font-size="10.00" fill="#000000">Singleton&lt; WindowManager</text>
<text text-anchor="middle" x="737.5" y="-213" font-family="Helvetica,sans-Serif" font-size="10.00" fill="#000000"> &gt;::instance</text>
</a>
</g>
</g>
<!-- Node8&#45;&gt;Node9 -->
<g id="edge1" class="edge">
<title>Node8&#45;&gt;Node9</title>
<path fill="none" stroke="#191970" d="M122.5907,-239.5239C148.4919,-247.3316 187.3,-257.7604 222,-262 395.8208,-283.2373 443.1317,-287.9505 616,-260 641.4326,-255.8879 668.831,-247.4639 691.1612,-239.4941"/>
<polygon fill="#191970" stroke="#191970" points="692.5278,-242.7211 700.7189,-236.0012 690.125,-236.1464 692.5278,-242.7211"/>
</g>
<!-- Node10 -->
<g id="node3" class="node">
<title>Node10</title>
<g id="a_node3"><a xlink:href="classWindowManager.html#a92e1efc564e88b5d92ef674c2577997f" target="_top" xlink:title="sets the game&#39;s window mode Changes the game&#39;s window mode to fullscreen, borderless, or windowed ">
<polygon fill="none" stroke="#000000" points="222,-233.5 222,-252.5 416,-252.5 416,-233.5 222,-233.5"/>
<text text-anchor="middle" x="319" y="-240.5" font-family="Helvetica,sans-Serif" font-size="10.00" fill="#000000">WindowManager::setFullScreenMode</text>
</a>
</g>
</g>
<!-- Node8&#45;&gt;Node10 -->
<g id="edge2" class="edge">
<title>Node8&#45;&gt;Node10</title>
<path fill="none" stroke="#191970" d="M186.2276,-235.3627C194.7048,-235.8503 203.3351,-236.3467 211.9198,-236.8405"/>
<polygon fill="#191970" stroke="#191970" points="211.78,-240.3382 221.9646,-237.4183 212.1821,-233.3497 211.78,-240.3382"/>
</g>
<!-- Node11 -->
<g id="node4" class="node">
<title>Node11</title>
<g id="a_node4"><a xlink:href="classComboBox.html#afddbdfd25efa15206eb724b641665cfc" target="_top" xlink:title="Get ID of selected element returns the ID of the selected element in the comboBox. ">
<polygon fill="none" stroke="#000000" points="252.5,-91.5 252.5,-110.5 385.5,-110.5 385.5,-91.5 252.5,-91.5"/>
<text text-anchor="middle" x="319" y="-98.5" font-family="Helvetica,sans-Serif" font-size="10.00" fill="#000000">ComboBox::getActiveID</text>
</a>
</g>
</g>
<!-- Node8&#45;&gt;Node11 -->
<g id="edge4" class="edge">
<title>Node8&#45;&gt;Node11</title>
<path fill="none" stroke="#191970" d="M109.9867,-220.304C149.2662,-197.8835 246.5732,-142.341 293.2366,-115.7056"/>
<polygon fill="#191970" stroke="#191970" points="295.1747,-118.6295 302.1244,-110.6325 291.7046,-112.5501 295.1747,-118.6295"/>
</g>
<!-- Node13 -->
<g id="node6" class="node">
<title>Node13</title>
<g id="a_node6"><a xlink:href="classLayout.html#afa734c5af10f59f3dadb066054fe81ab" target="_top" xlink:title="Arrange the layout elements. ">
<polygon fill="none" stroke="#000000" points="249.5,-170.5 249.5,-189.5 388.5,-189.5 388.5,-170.5 249.5,-170.5"/>
<text text-anchor="middle" x="319" y="-177.5" font-family="Helvetica,sans-Serif" font-size="10.00" fill="#000000">Layout::arrangeElements</text>
</a>
</g>
</g>
<!-- Node8&#45;&gt;Node13 -->
<g id="edge6" class="edge">
<title>Node8&#45;&gt;Node13</title>
<path fill="none" stroke="#191970" d="M136.0408,-220.4777C172.9167,-212.3193 226.18,-200.5354 265.7365,-191.784"/>
<polygon fill="#191970" stroke="#191970" points="266.7273,-195.1495 275.7351,-189.5719 265.2151,-188.3147 266.7273,-195.1495"/>
</g>
<!-- Node10&#45;&gt;Node9 -->
<g id="edge3" class="edge">
<title>Node10&#45;&gt;Node9</title>
<path fill="none" stroke="#191970" d="M416.1901,-248.0601C474.2968,-249.9082 549.5181,-250.2371 616,-244 630.4144,-242.6477 645.6659,-240.4118 660.3132,-237.8516"/>
<polygon fill="#191970" stroke="#191970" points="661.124,-241.2618 670.3394,-236.0343 659.8755,-234.374 661.124,-241.2618"/>
</g>
<!-- Node12 -->
<g id="node5" class="node">
<title>Node12</title>
<g id="a_node5"><a xlink:href="classComboBox.html#ad0dba514b01ed2bb3c41c738c80a7d6a" target="_top" xlink:title="Set ID of selected element sets the ID of the selected element in the comboBox. ">
<polygon fill="none" stroke="#000000" points="468,-38.5 468,-57.5 600,-57.5 600,-38.5 468,-38.5"/>
<text text-anchor="middle" x="534" y="-45.5" font-family="Helvetica,sans-Serif" font-size="10.00" fill="#000000">ComboBox::setActiveID</text>
</a>
</g>
</g>
<!-- Node11&#45;&gt;Node12 -->
<g id="edge5" class="edge">
<title>Node11&#45;&gt;Node12</title>
<path fill="none" stroke="#191970" d="M355.3549,-91.4703C382.0572,-84.5284 419.235,-74.9829 452,-67 461.6901,-64.6391 472.0417,-62.1866 482.0133,-59.8591"/>
<polygon fill="#191970" stroke="#191970" points="482.8709,-63.2532 491.8197,-57.5814 481.2871,-56.4347 482.8709,-63.2532"/>
</g>
<!-- Node13&#45;&gt;Node9 -->
<g id="edge7" class="edge">
<title>Node13&#45;&gt;Node9</title>
<path fill="none" stroke="#191970" d="M388.5765,-181.6373C460.2019,-186.7174 572.0092,-197.5253 649.6816,-206.7802"/>
<polygon fill="#191970" stroke="#191970" points="649.5831,-210.2936 659.9304,-208.0167 650.4217,-203.344 649.5831,-210.2936"/>
</g>
<!-- Node13&#45;&gt;Node9 -->
<g id="edge10" class="edge">
<title>Node13&#45;&gt;Node9</title>
<path fill="none" stroke="#191970" d="M369.4809,-189.53C438.8379,-198.8126 564.6495,-211.4826 649.6323,-218.009"/>
<polygon fill="#191970" stroke="#191970" points="649.5524,-221.5129 659.7871,-218.7739 650.0782,-214.5326 649.5524,-221.5129"/>
</g>
<!-- Node14 -->
<g id="node7" class="node">
<title>Node14</title>
<g id="a_node7"><a xlink:href="classLayout.html#a79480df6d9dd2d32b23468c05c6ac944" target="_top" xlink:title="Calculates height and width of layout groups. ">
<polygon fill="none" stroke="#000000" points="453,-153 453,-183 615,-183 615,-153 453,-153"/>
<text text-anchor="start" x="461" y="-171" font-family="Helvetica,sans-Serif" font-size="10.00" fill="#000000">Layout::calculateLayoutGroup</text>
<text text-anchor="middle" x="534" y="-160" font-family="Helvetica,sans-Serif" font-size="10.00" fill="#000000">Dimensions</text>
</a>
</g>
</g>
<!-- Node13&#45;&gt;Node14 -->
<g id="edge8" class="edge">
<title>Node13&#45;&gt;Node14</title>
<path fill="none" stroke="#191970" d="M388.5074,-176.1205C405.7947,-175.1556 424.5863,-174.1068 442.7448,-173.0933"/>
<polygon fill="#191970" stroke="#191970" points="442.9648,-176.5866 452.7542,-172.5346 442.5747,-169.5975 442.9648,-176.5866"/>
</g>
<!-- Node15 -->
<g id="node8" class="node">
<title>Node15</title>
<g id="a_node8"><a xlink:href="classUIManager.html#a0d32c5b63c4110ff8e43ab06c1c7d761" target="_top" xlink:title="Get the Layoutgroup container Returns the container, that holds LayoutGroups. ">
<polygon fill="none" stroke="#000000" points="652,-114.5 652,-133.5 823,-133.5 823,-114.5 652,-114.5"/>
<text text-anchor="middle" x="737.5" y="-121.5" font-family="Helvetica,sans-Serif" font-size="10.00" fill="#000000">UIManager::getAllLayoutGroups</text>
</a>
</g>
</g>
<!-- Node13&#45;&gt;Node15 -->
<g id="edge11" class="edge">
<title>Node13&#45;&gt;Node15</title>
<path fill="none" stroke="#191970" d="M347.6983,-170.4913C374.3942,-162.0646 415.4388,-150.1684 452,-144 514.6136,-133.4362 585.861,-128.4353 641.5187,-126.0758"/>
<polygon fill="#191970" stroke="#191970" points="641.873,-129.5644 651.7242,-125.6652 641.5915,-122.5701 641.873,-129.5644"/>
</g>
<!-- Node16 -->
<g id="node9" class="node">
<title>Node16</title>
<g id="a_node9"><a xlink:href="classLayout.html#a99004e4afcea6a945e3890b19cce6236" target="_top" xlink:title="Arrange Elements that are aligned to a parent This is a seperate function, so it can recurse if a par...">
<polygon fill="none" stroke="#000000" points="452,-76.5 452,-95.5 616,-95.5 616,-76.5 452,-76.5"/>
<text text-anchor="middle" x="534" y="-83.5" font-family="Helvetica,sans-Serif" font-size="10.00" fill="#000000">Layout::arrangeChildElements</text>
</a>
</g>
</g>
<!-- Node13&#45;&gt;Node16 -->
<g id="edge12" class="edge">
<title>Node13&#45;&gt;Node16</title>
<path fill="none" stroke="#191970" d="M334.8799,-170.3008C359.3283,-155.6811 407.9798,-127.8177 452,-110 462.7409,-105.6525 474.562,-101.7235 485.804,-98.3624"/>
<polygon fill="#191970" stroke="#191970" points="486.8597,-101.7006 495.4926,-95.5587 484.9138,-94.9765 486.8597,-101.7006"/>
</g>
<!-- Node14&#45;&gt;Node9 -->
<g id="edge9" class="edge">
<title>Node14&#45;&gt;Node9</title>
<path fill="none" stroke="#191970" d="M591.7706,-183.0459C616.0449,-189.368 644.4546,-196.767 669.7109,-203.3448"/>
<polygon fill="#191970" stroke="#191970" points="669.0256,-206.7831 679.5849,-205.9165 670.7899,-200.009 669.0256,-206.7831"/>
</g>
<!-- Node16&#45;&gt;Node9 -->
<g id="edge13" class="edge">
<title>Node16&#45;&gt;Node9</title>
<path fill="none" stroke="#191970" d="M555.0116,-95.6316C592.8396,-117.572 672.2198,-170.1328 712.6667,-199.9203"/>
<polygon fill="#191970" stroke="#191970" points="710.5734,-202.7253 720.6777,-205.9117 714.7659,-197.1196 710.5734,-202.7253"/>
</g>
<!-- Node16&#45;&gt;Node9 -->
<g id="edge14" class="edge">
<title>Node16&#45;&gt;Node9</title>
<path fill="none" stroke="#191970" d="M543.8152,-95.621C571.3204,-117.7459 650.2795,-170.9061 698.4685,-200.555"/>
<polygon fill="#191970" stroke="#191970" points="696.7276,-203.5928 707.089,-205.8047 700.3685,-197.6141 696.7276,-203.5928"/>
</g>
<!-- Node16&#45;&gt;Node15 -->
<g id="edge17" class="edge">
<title>Node16&#45;&gt;Node15</title>
<path fill="none" stroke="#191970" d="M585.089,-95.54C612.7877,-100.7122 647.211,-107.1401 676.3309,-112.5778"/>
<polygon fill="#191970" stroke="#191970" points="675.9174,-116.061 686.39,-114.4561 677.2024,-109.1799 675.9174,-116.061"/>
</g>
<!-- Node17 -->
<g id="node10" class="node">
<title>Node17</title>
<g id="a_node10"><a xlink:href="classUIManager.html#aa5b6dbe1a9d5c50b588c55e9c9673f58" target="_top" xlink:title="Get the Ui Element By ID Finds and returns an UiElement by its elementID parameter. ">
<polygon fill="none" stroke="#000000" points="655,-38.5 655,-57.5 820,-57.5 820,-38.5 655,-38.5"/>
<text text-anchor="middle" x="737.5" y="-45.5" font-family="Helvetica,sans-Serif" font-size="10.00" fill="#000000">UIManager::getUiElementByID</text>
</a>
</g>
</g>
<!-- Node16&#45;&gt;Node17 -->
<g id="edge15" class="edge">
<title>Node16&#45;&gt;Node17</title>
<path fill="none" stroke="#191970" d="M585.089,-76.46C612.7877,-71.2878 647.211,-64.8599 676.3309,-59.4222"/>
<polygon fill="#191970" stroke="#191970" points="677.2024,-62.8201 686.39,-57.5439 675.9174,-55.939 677.2024,-62.8201"/>
</g>
<!-- Node18 -->
<g id="node11" class="node">
<title>Node18</title>
<g id="a_node11"><a xlink:href="classUIElement.html#a6451228b4c9bc058d69e4d4f2b03c719" target="_top" xlink:title="UIElement::getUiElementData">
<polygon fill="none" stroke="#000000" points="655.5,-.5 655.5,-19.5 819.5,-19.5 819.5,-.5 655.5,-.5"/>
<text text-anchor="middle" x="737.5" y="-7.5" font-family="Helvetica,sans-Serif" font-size="10.00" fill="#000000">UIElement::getUiElementData</text>
</a>
</g>
</g>
<!-- Node16&#45;&gt;Node18 -->
<g id="edge16" class="edge">
<title>Node16&#45;&gt;Node18</title>
<path fill="none" stroke="#191970" d="M594.2326,-76.3661C601.8261,-73.9182 609.2789,-70.8487 616,-67 636.1887,-55.4393 631.7594,-40.4696 652,-29 655.9771,-26.7463 660.1992,-24.76 664.5539,-23.0092"/>
<polygon fill="#191970" stroke="#191970" points="666.0175,-26.2029 674.2553,-19.5404 663.6607,-19.6116 666.0175,-26.2029"/>
</g>
<!-- Node19 -->
<g id="node12" class="node">
<title>Node19</title>
<g id="a_node12"><a xlink:href="classUIElement.html#ad1c0d7431b71bdd9a3704a6d5c8a4643" target="_top" xlink:title="Get the position and the size of this ui element Gets the position and the size of this ui element...">
<polygon fill="none" stroke="#000000" points="657,-76.5 657,-95.5 818,-95.5 818,-76.5 657,-76.5"/>
<text text-anchor="middle" x="737.5" y="-83.5" font-family="Helvetica,sans-Serif" font-size="10.00" fill="#000000">UIElement::getUiElementRect</text>
</a>
</g>
</g>
<!-- Node16&#45;&gt;Node19 -->
<g id="edge18" class="edge">
<title>Node16&#45;&gt;Node19</title>
<path fill="none" stroke="#191970" d="M616.1847,-86C626.278,-86 636.6383,-86 646.8478,-86"/>
<polygon fill="#191970" stroke="#191970" points="646.9915,-89.5001 656.9915,-86 646.9915,-82.5001 646.9915,-89.5001"/>
</g>
<!-- Node20 -->
<g id="node13" class="node">
<title>Node20</title>
<g id="a_node13"><a xlink:href="classUIElement.html#aa7f624963eaeb31043d74219ee24386c" target="_top" xlink:title="Checks if the mouse cursor is over the current UI Element Check if the coordinates match the ones sto...">
<polygon fill="none" stroke="#000000" points="895,-95.5 895,-114.5 1032,-114.5 1032,-95.5 895,-95.5"/>
<text text-anchor="middle" x="963.5" y="-102.5" font-family="Helvetica,sans-Serif" font-size="10.00" fill="#000000">UIElement::isMouseOver</text>
</a>
</g>
</g>
<!-- Node19&#45;&gt;Node20 -->
<g id="edge19" class="edge">
<title>Node19&#45;&gt;Node20</title>
<path fill="none" stroke="#191970" d="M818.134,-92.779C839.802,-94.6006 863.204,-96.568 884.7673,-98.3809"/>
<polygon fill="#191970" stroke="#191970" points="884.6016,-101.8792 894.8597,-99.2294 885.1881,-94.9038 884.6016,-101.8792"/>
</g>
<!-- Node21 -->
<g id="node14" class="node">
<title>Node21</title>
<g id="a_node14"><a xlink:href="classUIElement.html#a570841bf8b7970ca935b1a00e571036a" target="_top" xlink:title="Handling for the hovering event Check, if the mouse cursor is hovering over the element. virtual function to provide custom handling if necessary (e.g. Combobox) Per default, it&#39;s the same implementation as isMouseOver. ">
<polygon fill="none" stroke="#000000" points="859,-57.5 859,-76.5 1068,-76.5 1068,-57.5 859,-57.5"/>
<text text-anchor="middle" x="963.5" y="-64.5" font-family="Helvetica,sans-Serif" font-size="10.00" fill="#000000">UIElement::isMouseOverHoverableArea</text>
</a>
</g>
</g>
<!-- Node19&#45;&gt;Node21 -->
<g id="edge20" class="edge">
<title>Node19&#45;&gt;Node21</title>
<path fill="none" stroke="#191970" d="M818.134,-79.221C828.0217,-78.3898 838.2705,-77.5281 848.5409,-76.6647"/>
<polygon fill="#191970" stroke="#191970" points="849.1343,-80.1273 858.8059,-75.8017 848.5478,-73.1519 849.1343,-80.1273"/>
</g>
</g>
</svg>
        <g id="navigator" transform="translate(0 0)" fill="#404254">
                <rect fill="#f2f5e9" fill-opacity="0.5" stroke="#606060" stroke-width=".5" x="0" y="0" width="60" height="60"/>
                <use id="zoomplus" xlink:href="#zoomPlus" x="17" y="9" onmousedown="handleZoom(evt,'in')"/>
                <use id="zoomminus" xlink:href="#zoomMin" x="42" y="9" onmousedown="handleZoom(evt,'out')"/>
                <use id="reset" xlink:href="#resetDef" x="30" y="36" onmousedown="handleReset()"/>
                <g id="arrowUp" xlink:href="#dirArrow" transform="translate(30 24)" onmousedown="handlePan(0,-1)">
                  <use xlink:href="#rim" fill="#404040">
                        <set attributeName="fill" to="#808080" begin="arrowUp.mouseover" end="arrowUp.mouseout"/>
                  </use>
                  <path fill="none" stroke="white" stroke-width="1.5" d="M0,-3.0v7 M-2.5,-0.5L0,-3.0L2.5,-0.5"/>
                </g>
                <g id="arrowRight" xlink:href="#dirArrow" transform="rotate(90) translate(36 -43)" onmousedown="handlePan(1,0)">
                  <use xlink:href="#rim" fill="#404040">
                        <set attributeName="fill" to="#808080" begin="arrowRight.mouseover" end="arrowRight.mouseout"/>
                  </use>
                  <path fill="none" stroke="white" stroke-width="1.5" d="M0,-3.0v7 M-2.5,-0.5L0,-3.0L2.5,-0.5"/>
                </g>
                <g id="arrowDown" xlink:href="#dirArrow" transform="rotate(180) translate(-30 -48)" onmousedown="handlePan(0,1)">
                  <use xlink:href="#rim" fill="#404040">
                        <set attributeName="fill" to="#808080" begin="arrowDown.mouseover" end="arrowDown.mouseout"/>
                  </use>
                  <path fill="none" stroke="white" stroke-width="1.5" d="M0,-3.0v7 M-2.5,-0.5L0,-3.0L2.5,-0.5"/>
                </g>
                <g id="arrowLeft" xlink:href="#dirArrow" transform="rotate(270) translate(-36 17)" onmousedown="handlePan(-1,0)">
                  <use xlink:href="#rim" fill="#404040">
                        <set attributeName="fill" to="#808080" begin="arrowLeft.mouseover" end="arrowLeft.mouseout"/>
                  </use>
                  <path fill="none" stroke="white" stroke-width="1.5" d="M0,-3.0v7 M-2.5,-0.5L0,-3.0L2.5,-0.5"/>
                </g>
        </g>
        <svg viewBox="0 0 15 15" width="100%" height="30px" preserveAspectRatio="xMaxYMin meet">
         <g id="arrow_out" transform="scale(0.3 0.3)">
          <a xlink:href="classUIManager_af2ffb4ee45e57152164643ef6cddda37_cgraph_org.svg" target="_base">
           <rect id="button" ry="5" rx="5" y="6" x="6" height="38" width="38"
                fill="#f2f5e9" fill-opacity="0.5" stroke="#606060" stroke-width="1.0"/>
           <path id="arrow"
             d="M 11.500037,31.436501 C 11.940474,20.09759 22.043105,11.32322 32.158766,21.979434 L 37.068811,17.246167 C 37.068811,17.246167 37.088388,32 37.088388,32 L 22.160133,31.978069 C 22.160133,31.978069 26.997745,27.140456 26.997745,27.140456 C 18.528582,18.264221 13.291696,25.230495 11.500037,31.436501 z"
             style="fill:#404040;"/>
          </a>
         </g>
        </svg>
</svg>
