<?xml version="1.0" encoding="UTF-8" standalone="no"?>
<!DOCTYPE svg PUBLIC "-//W3C//DTD SVG 1.1//EN"
 "http://www.w3.org/Graphics/SVG/1.1/DTD/svg11.dtd">
<!-- Generated by graphviz version 2.40.1 (20161225.0304)
 -->
<!-- Title: Game::initialize Pages: 1 -->
<svg width="296pt" height="88pt"
 viewBox="0.00 0.00 296.00 88.00" xmlns="http://www.w3.org/2000/svg" xmlns:xlink="http://www.w3.org/1999/xlink">
<g id="graph0" class="graph" transform="scale(1 1) rotate(0) translate(4 84)">
<title>Game::initialize</title>
<!-- Node4 -->
<g id="node1" class="node">
<title>Node4</title>
<polygon fill="#bfbfbf" stroke="#000000" points="0,-55 0,-74 94,-74 94,-55 0,-55"/>
<text text-anchor="middle" x="47" y="-62" font-family="Helvetica,sans-Serif" font-size="10.00" fill="#000000">Game::initialize</text>
</g>
<!-- Node5 -->
<g id="node2" class="node">
<title>Node5</title>
<g id="a_node2"><a xlink:href="classSingleton.html#af5cb1e5749949e2b68416cfb8d378044" target="_top" xlink:title="Get an instance of the singleton. ">
<polygon fill="none" stroke="#000000" points="131.5,-49.5 131.5,-79.5 286.5,-79.5 286.5,-49.5 131.5,-49.5"/>
<text text-anchor="start" x="139.5" y="-67.5" font-family="Helvetica,sans-Serif" font-size="10.00" fill="#000000">Singleton&lt; WindowManager</text>
<text text-anchor="middle" x="209" y="-56.5" font-family="Helvetica,sans-Serif" font-size="10.00" fill="#000000"> &gt;::instance</text>
</a>
</g>
</g>
<!-- Node4&#45;&gt;Node5 -->
<g id="edge1" class="edge">
<title>Node4&#45;&gt;Node5</title>
<path fill="none" stroke="#191970" d="M94.2926,-58.2989C102.8657,-58.0032 112.0519,-57.827 121.3558,-57.7702"/>
<polygon fill="#191970" stroke="#191970" points="121.4794,-61.2701 131.4743,-57.7555 121.4692,-54.2702 121.4794,-61.2701"/>
</g>
<!-- Node4&#45;&gt;Node5 -->
<g id="edge3" class="edge">
<title>Node4&#45;&gt;Node5</title>
<path fill="none" stroke="#191970" d="M94.2926,-70.7011C102.8657,-70.9968 112.0519,-71.173 121.3558,-71.2298"/>
<polygon fill="#191970" stroke="#191970" points="121.4692,-74.7298 131.4743,-71.2445 121.4794,-67.7299 121.4692,-74.7298"/>
</g>
<!-- Node6 -->
<g id="node3" class="node">
<title>Node6</title>
<g id="a_node3"><a xlink:href="classWindowManager.html#a2c3864d9a5b567c83b4799d97b38383a" target="_top" xlink:title="sets title of the window Sets title of the game window ">
<polygon fill="none" stroke="#000000" points="130,-.5 130,-30.5 288,-30.5 288,-.5 130,-.5"/>
<text text-anchor="start" x="138" y="-18.5" font-family="Helvetica,sans-Serif" font-size="10.00" fill="#000000">WindowManager::setWindow</text>
<text text-anchor="middle" x="209" y="-7.5" font-family="Helvetica,sans-Serif" font-size="10.00" fill="#000000">Title</text>
</a>
</g>
</g>
<!-- Node4&#45;&gt;Node6 -->
<g id="edge2" class="edge">
<title>Node4&#45;&gt;Node6</title>
<path fill="none" stroke="#191970" d="M78.6198,-54.936C98.7713,-48.8408 125.5166,-40.7512 149.537,-33.4857"/>
<polygon fill="#191970" stroke="#191970" points="150.7275,-36.7823 159.286,-30.537 148.7009,-30.0821 150.7275,-36.7823"/>
</g>
</g>
</svg>
