<?xml version="1.0" encoding="UTF-8" standalone="no"?>
<!DOCTYPE svg PUBLIC "-//W3C//DTD SVG 1.1//EN"
 "http://www.w3.org/Graphics/SVG/1.1/DTD/svg11.dtd">
<!-- Generated by graphviz version 2.40.1 (20161225.0304)
 -->
<!-- Title: UIManager::toggleDebugMenu Pages: 1 -->
<svg width="672pt" height="28pt"
 viewBox="0.00 0.00 672.00 28.00" xmlns="http://www.w3.org/2000/svg" xmlns:xlink="http://www.w3.org/1999/xlink">
<g id="graph0" class="graph" transform="scale(1 1) rotate(0) translate(4 24)">
<title>UIManager::toggleDebugMenu</title>
<!-- Node265 -->
<g id="node1" class="node">
<title>Node265</title>
<polygon fill="#bfbfbf" stroke="#000000" points="0,-.5 0,-19.5 164,-19.5 164,-.5 0,-.5"/>
<text text-anchor="middle" x="82" y="-7.5" font-family="Helvetica,sans-Serif" font-size="10.00" fill="#000000">UIManager::toggleDebugMenu</text>
</g>
<!-- Node266 -->
<g id="node2" class="node">
<title>Node266</title>
<g id="a_node2"><a xlink:href="classEventManager.html#a65ec91fd5016d4f9c4167fb8babed2df" target="_top" xlink:title="EventManager::checkEvents">
<polygon fill="none" stroke="#000000" points="200,-.5 200,-19.5 354,-19.5 354,-.5 200,-.5"/>
<text text-anchor="middle" x="277" y="-7.5" font-family="Helvetica,sans-Serif" font-size="10.00" fill="#000000">EventManager::checkEvents</text>
</a>
</g>
</g>
<!-- Node265&#45;&gt;Node266 -->
<g id="edge1" class="edge">
<title>Node265&#45;&gt;Node266</title>
<path fill="none" stroke="#191970" d="M174.2019,-10C182.8151,-10 191.4836,-10 199.9374,-10"/>
<polygon fill="#191970" stroke="#191970" points="174.1324,-6.5001 164.1324,-10 174.1324,-13.5001 174.1324,-6.5001"/>
</g>
<!-- Node267 -->
<g id="node3" class="node">
<title>Node267</title>
<g id="a_node3"><a xlink:href="classGame.html#a1c2ab25d5216b2f4b2fe41efd2c09114" target="_top" xlink:title="begins the game starts running the game ">
<polygon fill="none" stroke="#000000" points="390,-.5 390,-19.5 458,-19.5 458,-.5 390,-.5"/>
<text text-anchor="middle" x="424" y="-7.5" font-family="Helvetica,sans-Serif" font-size="10.00" fill="#000000">Game::run</text>
</a>
</g>
</g>
<!-- Node266&#45;&gt;Node267 -->
<g id="edge2" class="edge">
<title>Node266&#45;&gt;Node267</title>
<path fill="none" stroke="#191970" d="M364.5248,-10C373.4338,-10 382.0572,-10 389.845,-10"/>
<polygon fill="#191970" stroke="#191970" points="364.3744,-6.5001 354.3744,-10 364.3743,-13.5001 364.3744,-6.5001"/>
</g>
<!-- Node268 -->
<g id="node4" class="node">
<title>Node268</title>
<g id="a_node4"><a xlink:href="main_8cxx.html#af582d708d899e67ead623eac34a22387" target="_top" xlink:title="protected_main">
<polygon fill="none" stroke="#000000" points="494,-.5 494,-19.5 587,-19.5 587,-.5 494,-.5"/>
<text text-anchor="middle" x="540.5" y="-7.5" font-family="Helvetica,sans-Serif" font-size="10.00" fill="#000000">protected_main</text>
</a>
</g>
</g>
<!-- Node267&#45;&gt;Node268 -->
<g id="edge3" class="edge">
<title>Node267&#45;&gt;Node268</title>
<path fill="none" stroke="#191970" d="M468.2653,-10C476.5757,-10 485.2897,-10 493.6749,-10"/>
<polygon fill="#191970" stroke="#191970" points="468.0098,-6.5001 458.0098,-10 468.0098,-13.5001 468.0098,-6.5001"/>
</g>
<!-- Node269 -->
<g id="node5" class="node">
<title>Node269</title>
<g id="a_node5"><a xlink:href="main_8cxx.html#a3c04138a5bfe5d72780bb7e82a18e627" target="_top" xlink:title="main">
<polygon fill="none" stroke="#000000" points="623,-.5 623,-19.5 664,-19.5 664,-.5 623,-.5"/>
<text text-anchor="middle" x="643.5" y="-7.5" font-family="Helvetica,sans-Serif" font-size="10.00" fill="#000000">main</text>
</a>
</g>
</g>
<!-- Node268&#45;&gt;Node269 -->
<g id="edge4" class="edge">
<title>Node268&#45;&gt;Node269</title>
<path fill="none" stroke="#191970" d="M597.2133,-10C606.4322,-10 615.4259,-10 622.9965,-10"/>
<polygon fill="#191970" stroke="#191970" points="597.1782,-6.5001 587.1782,-10 597.1781,-13.5001 597.1782,-6.5001"/>
</g>
</g>
</svg>
