<?xml version="1.0" encoding="UTF-8" standalone="no"?>
<!DOCTYPE svg PUBLIC "-//W3C//DTD SVG 1.1//EN"
 "http://www.w3.org/Graphics/SVG/1.1/DTD/svg11.dtd">
<!-- Generated by graphviz version 2.40.1 (20161225.0304)
 -->
<!-- Title: UIManager::closeOpenMenus Pages: 1 -->
<svg width="904pt" height="66pt"
 viewBox="0.00 0.00 904.00 66.00" xmlns="http://www.w3.org/2000/svg" xmlns:xlink="http://www.w3.org/1999/xlink">
<g id="graph0" class="graph" transform="scale(1 1) rotate(0) translate(4 62)">
<title>UIManager::closeOpenMenus</title>
<!-- Node42 -->
<g id="node1" class="node">
<title>Node42</title>
<polygon fill="#bfbfbf" stroke="#000000" points="0,-19.5 0,-38.5 158,-38.5 158,-19.5 0,-19.5"/>
<text text-anchor="middle" x="79" y="-26.5" font-family="Helvetica,sans-Serif" font-size="10.00" fill="#000000">UIManager::closeOpenMenus</text>
</g>
<!-- Node43 -->
<g id="node2" class="node">
<title>Node43</title>
<g id="a_node2"><a xlink:href="classEventManager.html#a65ec91fd5016d4f9c4167fb8babed2df" target="_top" xlink:title="EventManager::checkEvents">
<polygon fill="none" stroke="#000000" points="420,-38.5 420,-57.5 574,-57.5 574,-38.5 420,-38.5"/>
<text text-anchor="middle" x="497" y="-45.5" font-family="Helvetica,sans-Serif" font-size="10.00" fill="#000000">EventManager::checkEvents</text>
</a>
</g>
</g>
<!-- Node42&#45;&gt;Node43 -->
<g id="edge1" class="edge">
<title>Node42&#45;&gt;Node43</title>
<path fill="none" stroke="#191970" d="M168.4592,-33.0663C243.2713,-36.4669 348.8699,-41.2668 419.9752,-44.4989"/>
<polygon fill="#191970" stroke="#191970" points="168.2627,-29.5539 158.114,-32.5961 167.9447,-36.5467 168.2627,-29.5539"/>
</g>
<!-- Node47 -->
<g id="node6" class="node">
<title>Node47</title>
<g id="a_node6"><a xlink:href="classUIManager.html#a23bbbe53c18c31ff1c68c105dfa0dbd3" target="_top" xlink:title="Callback function for toggling the visibility of an UiGroup Callback function for Ui Widgets with the...">
<polygon fill="none" stroke="#000000" points="194,-.5 194,-19.5 372,-19.5 372,-.5 194,-.5"/>
<text text-anchor="middle" x="283" y="-7.5" font-family="Helvetica,sans-Serif" font-size="10.00" fill="#000000">UIManager::toggleGroupVisibility</text>
</a>
</g>
</g>
<!-- Node42&#45;&gt;Node47 -->
<g id="edge5" class="edge">
<title>Node42&#45;&gt;Node47</title>
<path fill="none" stroke="#191970" d="M168.3538,-20.6778C176.7681,-19.8941 185.299,-19.0996 193.7128,-18.316"/>
<polygon fill="#191970" stroke="#191970" points="167.796,-17.2145 158.1637,-21.6269 168.4452,-24.1844 167.796,-17.2145"/>
</g>
<!-- Node44 -->
<g id="node3" class="node">
<title>Node44</title>
<g id="a_node3"><a xlink:href="classGame.html#a1c2ab25d5216b2f4b2fe41efd2c09114" target="_top" xlink:title="begins the game starts running the game ">
<polygon fill="none" stroke="#000000" points="622,-38.5 622,-57.5 690,-57.5 690,-38.5 622,-38.5"/>
<text text-anchor="middle" x="656" y="-45.5" font-family="Helvetica,sans-Serif" font-size="10.00" fill="#000000">Game::run</text>
</a>
</g>
</g>
<!-- Node43&#45;&gt;Node44 -->
<g id="edge2" class="edge">
<title>Node43&#45;&gt;Node44</title>
<path fill="none" stroke="#191970" d="M584.3849,-48C597.6982,-48 610.7136,-48 621.918,-48"/>
<polygon fill="#191970" stroke="#191970" points="584.1712,-44.5001 574.1712,-48 584.1712,-51.5001 584.1712,-44.5001"/>
</g>
<!-- Node45 -->
<g id="node4" class="node">
<title>Node45</title>
<g id="a_node4"><a xlink:href="main_8cxx.html#af582d708d899e67ead623eac34a22387" target="_top" xlink:title="protected_main">
<polygon fill="none" stroke="#000000" points="726,-38.5 726,-57.5 819,-57.5 819,-38.5 726,-38.5"/>
<text text-anchor="middle" x="772.5" y="-45.5" font-family="Helvetica,sans-Serif" font-size="10.00" fill="#000000">protected_main</text>
</a>
</g>
</g>
<!-- Node44&#45;&gt;Node45 -->
<g id="edge3" class="edge">
<title>Node44&#45;&gt;Node45</title>
<path fill="none" stroke="#191970" d="M700.2653,-48C708.5757,-48 717.2897,-48 725.6749,-48"/>
<polygon fill="#191970" stroke="#191970" points="700.0098,-44.5001 690.0098,-48 700.0098,-51.5001 700.0098,-44.5001"/>
</g>
<!-- Node46 -->
<g id="node5" class="node">
<title>Node46</title>
<g id="a_node5"><a xlink:href="main_8cxx.html#a3c04138a5bfe5d72780bb7e82a18e627" target="_top" xlink:title="main">
<polygon fill="none" stroke="#000000" points="855,-38.5 855,-57.5 896,-57.5 896,-38.5 855,-38.5"/>
<text text-anchor="middle" x="875.5" y="-45.5" font-family="Helvetica,sans-Serif" font-size="10.00" fill="#000000">main</text>
</a>
</g>
</g>
<!-- Node45&#45;&gt;Node46 -->
<g id="edge4" class="edge">
<title>Node45&#45;&gt;Node46</title>
<path fill="none" stroke="#191970" d="M829.2133,-48C838.4322,-48 847.4259,-48 854.9965,-48"/>
<polygon fill="#191970" stroke="#191970" points="829.1782,-44.5001 819.1782,-48 829.1781,-51.5001 829.1782,-44.5001"/>
</g>
<!-- Node47&#45;&gt;Node43 -->
<g id="edge6" class="edge">
<title>Node47&#45;&gt;Node43</title>
<path fill="none" stroke="#191970" d="M346.9013,-21.347C377.6053,-26.7991 413.9942,-33.2607 443.2529,-38.4561"/>
<polygon fill="#191970" stroke="#191970" points="347.1829,-17.8423 336.725,-19.54 345.959,-24.7345 347.1829,-17.8423"/>
</g>
<!-- Node48 -->
<g id="node7" class="node">
<title>Node48</title>
<g id="a_node7"><a xlink:href="classUIManager.html#aa78e356fc3b356d790c848319d1c387e" target="_top" xlink:title="UIManager::setCallbackFunctions">
<polygon fill="none" stroke="#000000" points="408,-.5 408,-19.5 586,-19.5 586,-.5 408,-.5"/>
<text text-anchor="middle" x="497" y="-7.5" font-family="Helvetica,sans-Serif" font-size="10.00" fill="#000000">UIManager::setCallbackFunctions</text>
</a>
</g>
</g>
<!-- Node47&#45;&gt;Node48 -->
<g id="edge7" class="edge">
<title>Node47&#45;&gt;Node48</title>
<path fill="none" stroke="#191970" d="M382.2299,-10C390.8066,-10 399.4503,-10 407.9388,-10"/>
<polygon fill="#191970" stroke="#191970" points="382.2057,-6.5001 372.2057,-10 382.2056,-13.5001 382.2057,-6.5001"/>
</g>
</g>
</svg>
