<?xml version="1.0" encoding="UTF-8" standalone="no"?>
<!DOCTYPE svg PUBLIC "-//W3C//DTD SVG 1.1//EN"
 "http://www.w3.org/Graphics/SVG/1.1/DTD/svg11.dtd">
<!-- Generated by graphviz version 2.40.1 (20161225.0304)
 -->
<!-- Title: TextField::draw Pages: 1 -->
<svg width="276pt" height="66pt"
 viewBox="0.00 0.00 276.00 66.00" xmlns="http://www.w3.org/2000/svg" xmlns:xlink="http://www.w3.org/1999/xlink">
<g id="graph0" class="graph" transform="scale(1 1) rotate(0) translate(4 62)">
<title>TextField::draw</title>
<!-- Node20 -->
<g id="node1" class="node">
<title>Node20</title>
<polygon fill="#bfbfbf" stroke="#000000" points="0,-19.5 0,-38.5 89,-38.5 89,-19.5 0,-19.5"/>
<text text-anchor="middle" x="44.5" y="-26.5" font-family="Helvetica,sans-Serif" font-size="10.00" fill="#000000">TextField::draw</text>
</g>
<!-- Node21 -->
<g id="node2" class="node">
<title>Node21</title>
<g id="a_node2"><a xlink:href="classUIElement.html#abba9217ad94f67e16654cf236577b6c2" target="_top" xlink:title="Check the UI Elements visibility. Check if the UI Element is visibile. ">
<polygon fill="none" stroke="#000000" points="139,-38.5 139,-57.5 254,-57.5 254,-38.5 139,-38.5"/>
<text text-anchor="middle" x="196.5" y="-45.5" font-family="Helvetica,sans-Serif" font-size="10.00" fill="#000000">UIElement::isVisible</text>
</a>
</g>
</g>
<!-- Node20&#45;&gt;Node21 -->
<g id="edge1" class="edge">
<title>Node20&#45;&gt;Node21</title>
<path fill="none" stroke="#191970" d="M89.2829,-34.5979C101.6345,-36.1418 115.3175,-37.8522 128.6611,-39.5201"/>
<polygon fill="#191970" stroke="#191970" points="128.4142,-43.0164 138.7712,-40.7839 129.2825,-36.0705 128.4142,-43.0164"/>
</g>
<!-- Node22 -->
<g id="node3" class="node">
<title>Node22</title>
<g id="a_node3"><a xlink:href="classUIElement.html#a4aca28b5f308b875340868697d0cc50c" target="_top" xlink:title="Draws a filled rectangle to the screen. Draws a filled rectangle to the screen. ">
<polygon fill="none" stroke="#000000" points="125,-.5 125,-19.5 268,-19.5 268,-.5 125,-.5"/>
<text text-anchor="middle" x="196.5" y="-7.5" font-family="Helvetica,sans-Serif" font-size="10.00" fill="#000000">UIElement::drawSolidRect</text>
</a>
</g>
</g>
<!-- Node20&#45;&gt;Node22 -->
<g id="edge2" class="edge">
<title>Node20&#45;&gt;Node22</title>
<path fill="none" stroke="#191970" d="M89.2829,-23.4021C97.427,-22.3841 106.1499,-21.2938 114.9727,-20.1909"/>
<polygon fill="#191970" stroke="#191970" points="115.4622,-23.657 124.9509,-18.9436 114.5939,-16.7111 115.4622,-23.657"/>
</g>
</g>
</svg>
