<?xml version="1.0" encoding="UTF-8" standalone="no"?>
<!DOCTYPE svg PUBLIC "-//W3C//DTD SVG 1.1//EN"
 "http://www.w3.org/Graphics/SVG/1.1/DTD/svg11.dtd">
<!-- Generated by graphviz version 2.40.1 (20161225.0304)
 -->
<!-- Title: TileManager::TileManager Pages: 1 -->
<svg width="1014pt" height="139pt"
 viewBox="0.00 0.00 1014.00 139.10" xmlns="http://www.w3.org/2000/svg" xmlns:xlink="http://www.w3.org/1999/xlink">
<g id="graph0" class="graph" transform="scale(1 1) rotate(0) translate(4 135.1034)">
<title>TileManager::TileManager</title>
<!-- Node2 -->
<g id="node1" class="node">
<title>Node2</title>
<polygon fill="#bfbfbf" stroke="#000000" points="0,-99 0,-118 143,-118 143,-99 0,-99"/>
<text text-anchor="middle" x="71.5" y="-106" font-family="Helvetica,sans-Serif" font-size="10.00" fill="#000000">TileManager::TileManager</text>
</g>
<!-- Node3 -->
<g id="node2" class="node">
<title>Node3</title>
<g id="a_node2"><a xlink:href="classTileManager.html#a1575d9a9530e13fe0286b8fece9e47ea" target="_top" xlink:title="TileManager::init">
<polygon fill="none" stroke="#000000" points="179,-99 179,-118 277,-118 277,-99 179,-99"/>
<text text-anchor="middle" x="228" y="-106" font-family="Helvetica,sans-Serif" font-size="10.00" fill="#000000">TileManager::init</text>
</a>
</g>
</g>
<!-- Node2&#45;&gt;Node3 -->
<g id="edge1" class="edge">
<title>Node2&#45;&gt;Node3</title>
<path fill="none" stroke="#191970" d="M143.3375,-108.5C151.9065,-108.5 160.5787,-108.5 168.9395,-108.5"/>
<polygon fill="#191970" stroke="#191970" points="168.9554,-112.0001 178.9554,-108.5 168.9553,-105.0001 168.9554,-112.0001"/>
</g>
<!-- Node4 -->
<g id="node3" class="node">
<title>Node4</title>
<g id="a_node3"><a xlink:href="classSingleton.html#af5cb1e5749949e2b68416cfb8d378044" target="_top" xlink:title="Get an instance of the singleton. ">
<polygon fill="none" stroke="#000000" points="893,-93.5 893,-123.5 1006,-123.5 1006,-93.5 893,-93.5"/>
<text text-anchor="start" x="901" y="-111.5" font-family="Helvetica,sans-Serif" font-size="10.00" fill="#000000">Singleton&lt; Settings</text>
<text text-anchor="middle" x="949.5" y="-100.5" font-family="Helvetica,sans-Serif" font-size="10.00" fill="#000000"> &gt;::instance</text>
</a>
</g>
</g>
<!-- Node3&#45;&gt;Node4 -->
<g id="edge2" class="edge">
<title>Node3&#45;&gt;Node4</title>
<path fill="none" stroke="#191970" d="M262.4487,-118.0079C277.7929,-121.7725 296.1666,-125.6416 313,-127.5 402.3362,-137.3629 719.137,-124.4092 857,-116.5 865.3279,-116.0222 874.0687,-115.4107 882.7153,-114.739"/>
<polygon fill="#191970" stroke="#191970" points="883.1053,-118.2191 892.7919,-113.9273 882.5431,-111.2417 883.1053,-118.2191"/>
</g>
<!-- Node5 -->
<g id="node4" class="node">
<title>Node5</title>
<g id="a_node4"><a xlink:href="structStrongType.html#acc66e6d6b9c95193a97a839560499933" target="_top" xlink:title="StrongType::get">
<polygon fill="none" stroke="#000000" points="345,-99 345,-118 437,-118 437,-99 345,-99"/>
<text text-anchor="middle" x="391" y="-106" font-family="Helvetica,sans-Serif" font-size="10.00" fill="#000000">StrongType::get</text>
</a>
</g>
</g>
<!-- Node3&#45;&gt;Node5 -->
<g id="edge3" class="edge">
<title>Node3&#45;&gt;Node5</title>
<path fill="none" stroke="#191970" d="M277.3477,-108.5C295.4526,-108.5 316.0785,-108.5 334.7443,-108.5"/>
<polygon fill="#191970" stroke="#191970" points="334.884,-112.0001 344.884,-108.5 334.884,-105.0001 334.884,-112.0001"/>
</g>
<!-- Node6 -->
<g id="node5" class="node">
<title>Node6</title>
<g id="a_node5"><a xlink:href="classTileManager.html#a9e03faf9425ee26a2f5fb1fa4c94d173" target="_top" xlink:title="TileManager::addJSONObject\lToTileData">
<polygon fill="none" stroke="#000000" points="313,-49.5 313,-79.5 469,-79.5 469,-49.5 313,-49.5"/>
<text text-anchor="start" x="321" y="-67.5" font-family="Helvetica,sans-Serif" font-size="10.00" fill="#000000">TileManager::addJSONObject</text>
<text text-anchor="middle" x="391" y="-56.5" font-family="Helvetica,sans-Serif" font-size="10.00" fill="#000000">ToTileData</text>
</a>
</g>
</g>
<!-- Node3&#45;&gt;Node6 -->
<g id="edge4" class="edge">
<title>Node3&#45;&gt;Node6</title>
<path fill="none" stroke="#191970" d="M263.3686,-98.9527C281.4747,-94.0651 304.1101,-87.9549 325.2708,-82.2429"/>
<polygon fill="#191970" stroke="#191970" points="326.4474,-85.5506 335.1897,-79.5654 324.6231,-78.7925 326.4474,-85.5506"/>
</g>
<!-- Node6&#45;&gt;Node4 -->
<g id="edge5" class="edge">
<title>Node6&#45;&gt;Node4</title>
<path fill="none" stroke="#191970" d="M469.0312,-78.6623C481.0467,-80.5076 493.334,-82.2037 505,-83.5 638.5626,-98.3415 795.7351,-104.555 882.8399,-107.0143"/>
<polygon fill="#191970" stroke="#191970" points="882.7587,-110.5133 892.851,-107.289 882.9509,-103.5159 882.7587,-110.5133"/>
</g>
<!-- Node7 -->
<g id="node6" class="node">
<title>Node7</title>
<g id="a_node6"><a xlink:href="classResourcesManager.html#ab376a89547592db4cca25309eac2931c" target="_top" xlink:title="ResourcesManager::loadTexture">
<polygon fill="none" stroke="#000000" points="505,-55 505,-74 676,-74 676,-55 505,-55"/>
<text text-anchor="middle" x="590.5" y="-62" font-family="Helvetica,sans-Serif" font-size="10.00" fill="#000000">ResourcesManager::loadTexture</text>
</a>
</g>
</g>
<!-- Node6&#45;&gt;Node7 -->
<g id="edge6" class="edge">
<title>Node6&#45;&gt;Node7</title>
<path fill="none" stroke="#191970" d="M469.2751,-64.5C477.6703,-64.5 486.2787,-64.5 494.8466,-64.5"/>
<polygon fill="#191970" stroke="#191970" points="494.8709,-68.0001 504.8709,-64.5 494.8709,-61.0001 494.8709,-68.0001"/>
</g>
<!-- Node8 -->
<g id="node7" class="node">
<title>Node8</title>
<g id="a_node7"><a xlink:href="classResourcesManager.html#a54721d26f52c4887b735d2cdaf60b078" target="_top" xlink:title="ResourcesManager::create\lSurfaceFromFile">
<polygon fill="none" stroke="#000000" points="712,-49.5 712,-79.5 857,-79.5 857,-49.5 712,-49.5"/>
<text text-anchor="start" x="720" y="-67.5" font-family="Helvetica,sans-Serif" font-size="10.00" fill="#000000">ResourcesManager::create</text>
<text text-anchor="middle" x="784.5" y="-56.5" font-family="Helvetica,sans-Serif" font-size="10.00" fill="#000000">SurfaceFromFile</text>
</a>
</g>
</g>
<!-- Node7&#45;&gt;Node8 -->
<g id="edge7" class="edge">
<title>Node7&#45;&gt;Node8</title>
<path fill="none" stroke="#191970" d="M676.1559,-64.5C684.599,-64.5 693.1583,-64.5 701.5732,-64.5"/>
<polygon fill="#191970" stroke="#191970" points="701.7485,-68.0001 711.7484,-64.5 701.7484,-61.0001 701.7485,-68.0001"/>
</g>
<!-- Node9 -->
<g id="node8" class="node">
<title>Node9</title>
<g id="a_node8"><a xlink:href="classResourcesManager.html#ad7712ca96233a151d8bc22cd2ba17d01" target="_top" xlink:title="ResourcesManager::create\lTextureFromSurface">
<polygon fill="none" stroke="#000000" points="712,-.5 712,-30.5 857,-30.5 857,-.5 712,-.5"/>
<text text-anchor="start" x="720" y="-18.5" font-family="Helvetica,sans-Serif" font-size="10.00" fill="#000000">ResourcesManager::create</text>
<text text-anchor="middle" x="784.5" y="-7.5" font-family="Helvetica,sans-Serif" font-size="10.00" fill="#000000">TextureFromSurface</text>
</a>
</g>
</g>
<!-- Node7&#45;&gt;Node9 -->
<g id="edge8" class="edge">
<title>Node7&#45;&gt;Node9</title>
<path fill="none" stroke="#191970" d="M628.3657,-54.936C653.034,-48.7053 685.9534,-40.3906 715.204,-33.0026"/>
<polygon fill="#191970" stroke="#191970" points="716.1275,-36.3793 724.9659,-30.537 714.4132,-29.5925 716.1275,-36.3793"/>
</g>
<!-- Node9&#45;&gt;Node4 -->
<g id="edge9" class="edge">
<title>Node9&#45;&gt;Node4</title>
<path fill="none" stroke="#191970" d="M834.8634,-30.6472C842.4422,-33.5572 850.0432,-36.8518 857,-40.5 881.2708,-53.228 906.1545,-71.9005 923.9908,-86.4598"/>
<polygon fill="#191970" stroke="#191970" points="922.2178,-89.5369 932.1472,-93.2327 926.6898,-84.1515 922.2178,-89.5369"/>
</g>
</g>
</svg>
