<?xml version="1.0" encoding="UTF-8" standalone="no"?>
<!DOCTYPE svg PUBLIC "-//W3C//DTD SVG 1.1//EN"
 "http://www.w3.org/Graphics/SVG/1.1/DTD/svg11.dtd">
<!-- Generated by graphviz version 2.40.1 (20161225.0304)
 -->
<!-- Title: Map::unHighlightNode Pages: 1 -->
<svg width="818pt" height="39pt"
 viewBox="0.00 0.00 818.00 39.00" xmlns="http://www.w3.org/2000/svg" xmlns:xlink="http://www.w3.org/1999/xlink">
<g id="graph0" class="graph" transform="scale(1 1) rotate(0) translate(4 35)">
<title>Map::unHighlightNode</title>
<!-- Node488 -->
<g id="node1" class="node">
<title>Node488</title>
<polygon fill="#bfbfbf" stroke="#000000" points="0,-6 0,-25 125,-25 125,-6 0,-6"/>
<text text-anchor="middle" x="62.5" y="-13" font-family="Helvetica,sans-Serif" font-size="10.00" fill="#000000">Map::unHighlightNode</text>
</g>
<!-- Node489 -->
<g id="node2" class="node">
<title>Node489</title>
<g id="a_node2"><a xlink:href="classEventManager.html#a3752a20641730fdf249e6525020461e5" target="_top" xlink:title="Unhighlight Highlited Nodes. This sets a node to be unhighlited. ">
<polygon fill="none" stroke="#000000" points="161,-.5 161,-30.5 310,-30.5 310,-.5 161,-.5"/>
<text text-anchor="start" x="169" y="-18.5" font-family="Helvetica,sans-Serif" font-size="10.00" fill="#000000">EventManager::unHighlight</text>
<text text-anchor="middle" x="235.5" y="-7.5" font-family="Helvetica,sans-Serif" font-size="10.00" fill="#000000">Nodes</text>
</a>
</g>
</g>
<!-- Node488&#45;&gt;Node489 -->
<g id="edge1" class="edge">
<title>Node488&#45;&gt;Node489</title>
<path fill="none" stroke="#191970" d="M135.5451,-15.5C143.912,-15.5 152.4511,-15.5 160.8389,-15.5"/>
<polygon fill="#191970" stroke="#191970" points="135.4464,-12.0001 125.4464,-15.5 135.4463,-19.0001 135.4464,-12.0001"/>
</g>
<!-- Node490 -->
<g id="node3" class="node">
<title>Node490</title>
<g id="a_node3"><a xlink:href="classEventManager.html#a65ec91fd5016d4f9c4167fb8babed2df" target="_top" xlink:title="EventManager::checkEvents">
<polygon fill="none" stroke="#000000" points="346,-6 346,-25 500,-25 500,-6 346,-6"/>
<text text-anchor="middle" x="423" y="-13" font-family="Helvetica,sans-Serif" font-size="10.00" fill="#000000">EventManager::checkEvents</text>
</a>
</g>
</g>
<!-- Node489&#45;&gt;Node490 -->
<g id="edge2" class="edge">
<title>Node489&#45;&gt;Node490</title>
<path fill="none" stroke="#191970" d="M320.4141,-15.5C328.8889,-15.5 337.4609,-15.5 345.8498,-15.5"/>
<polygon fill="#191970" stroke="#191970" points="320.1438,-12.0001 310.1437,-15.5 320.1437,-19.0001 320.1438,-12.0001"/>
</g>
<!-- Node491 -->
<g id="node4" class="node">
<title>Node491</title>
<g id="a_node4"><a xlink:href="classGame.html#a1c2ab25d5216b2f4b2fe41efd2c09114" target="_top" xlink:title="begins the game starts running the game ">
<polygon fill="none" stroke="#000000" points="536,-6 536,-25 604,-25 604,-6 536,-6"/>
<text text-anchor="middle" x="570" y="-13" font-family="Helvetica,sans-Serif" font-size="10.00" fill="#000000">Game::run</text>
</a>
</g>
</g>
<!-- Node490&#45;&gt;Node491 -->
<g id="edge3" class="edge">
<title>Node490&#45;&gt;Node491</title>
<path fill="none" stroke="#191970" d="M510.5248,-15.5C519.4338,-15.5 528.0572,-15.5 535.845,-15.5"/>
<polygon fill="#191970" stroke="#191970" points="510.3744,-12.0001 500.3744,-15.5 510.3743,-19.0001 510.3744,-12.0001"/>
</g>
<!-- Node492 -->
<g id="node5" class="node">
<title>Node492</title>
<g id="a_node5"><a xlink:href="main_8cxx.html#af582d708d899e67ead623eac34a22387" target="_top" xlink:title="protected_main">
<polygon fill="none" stroke="#000000" points="640,-6 640,-25 733,-25 733,-6 640,-6"/>
<text text-anchor="middle" x="686.5" y="-13" font-family="Helvetica,sans-Serif" font-size="10.00" fill="#000000">protected_main</text>
</a>
</g>
</g>
<!-- Node491&#45;&gt;Node492 -->
<g id="edge4" class="edge">
<title>Node491&#45;&gt;Node492</title>
<path fill="none" stroke="#191970" d="M614.2653,-15.5C622.5757,-15.5 631.2897,-15.5 639.6749,-15.5"/>
<polygon fill="#191970" stroke="#191970" points="614.0098,-12.0001 604.0098,-15.5 614.0098,-19.0001 614.0098,-12.0001"/>
</g>
<!-- Node493 -->
<g id="node6" class="node">
<title>Node493</title>
<g id="a_node6"><a xlink:href="main_8cxx.html#a3c04138a5bfe5d72780bb7e82a18e627" target="_top" xlink:title="main">
<polygon fill="none" stroke="#000000" points="769,-6 769,-25 810,-25 810,-6 769,-6"/>
<text text-anchor="middle" x="789.5" y="-13" font-family="Helvetica,sans-Serif" font-size="10.00" fill="#000000">main</text>
</a>
</g>
</g>
<!-- Node492&#45;&gt;Node493 -->
<g id="edge5" class="edge">
<title>Node492&#45;&gt;Node493</title>
<path fill="none" stroke="#191970" d="M743.2133,-15.5C752.4322,-15.5 761.4259,-15.5 768.9965,-15.5"/>
<polygon fill="#191970" stroke="#191970" points="743.1782,-12.0001 733.1782,-15.5 743.1781,-19.0001 743.1782,-12.0001"/>
</g>
</g>
</svg>
