<?xml version="1.0" encoding="UTF-8" standalone="no"?>
<!DOCTYPE svg PUBLIC "-//W3C//DTD SVG 1.1//EN"
 "http://www.w3.org/Graphics/SVG/1.1/DTD/svg11.dtd">
<!-- Generated by graphviz version 2.40.1 (20161225.0304)
 -->
<!-- Title: Map::renderMap Pages: 1 -->
<svg width="413pt" height="28pt"
 viewBox="0.00 0.00 413.00 28.00" xmlns="http://www.w3.org/2000/svg" xmlns:xlink="http://www.w3.org/1999/xlink">
<g id="graph0" class="graph" transform="scale(1 1) rotate(0) translate(4 24)">
<title>Map::renderMap</title>
<!-- Node435 -->
<g id="node1" class="node">
<title>Node435</title>
<polygon fill="#bfbfbf" stroke="#000000" points="0,-.5 0,-19.5 95,-19.5 95,-.5 0,-.5"/>
<text text-anchor="middle" x="47.5" y="-7.5" font-family="Helvetica,sans-Serif" font-size="10.00" fill="#000000">Map::renderMap</text>
</g>
<!-- Node436 -->
<g id="node2" class="node">
<title>Node436</title>
<g id="a_node2"><a xlink:href="classGame.html#a1c2ab25d5216b2f4b2fe41efd2c09114" target="_top" xlink:title="begins the game starts running the game ">
<polygon fill="none" stroke="#000000" points="131,-.5 131,-19.5 199,-19.5 199,-.5 131,-.5"/>
<text text-anchor="middle" x="165" y="-7.5" font-family="Helvetica,sans-Serif" font-size="10.00" fill="#000000">Game::run</text>
</a>
</g>
</g>
<!-- Node435&#45;&gt;Node436 -->
<g id="edge1" class="edge">
<title>Node435&#45;&gt;Node436</title>
<path fill="none" stroke="#191970" d="M105.4728,-10C114.1937,-10 122.9375,-10 130.9352,-10"/>
<polygon fill="#191970" stroke="#191970" points="105.2918,-6.5001 95.2917,-10 105.2917,-13.5001 105.2918,-6.5001"/>
</g>
<!-- Node437 -->
<g id="node3" class="node">
<title>Node437</title>
<g id="a_node3"><a xlink:href="main_8cxx.html#af582d708d899e67ead623eac34a22387" target="_top" xlink:title="protected_main">
<polygon fill="none" stroke="#000000" points="235,-.5 235,-19.5 328,-19.5 328,-.5 235,-.5"/>
<text text-anchor="middle" x="281.5" y="-7.5" font-family="Helvetica,sans-Serif" font-size="10.00" fill="#000000">protected_main</text>
</a>
</g>
</g>
<!-- Node436&#45;&gt;Node437 -->
<g id="edge2" class="edge">
<title>Node436&#45;&gt;Node437</title>
<path fill="none" stroke="#191970" d="M209.2653,-10C217.5757,-10 226.2897,-10 234.6749,-10"/>
<polygon fill="#191970" stroke="#191970" points="209.0098,-6.5001 199.0098,-10 209.0098,-13.5001 209.0098,-6.5001"/>
</g>
<!-- Node438 -->
<g id="node4" class="node">
<title>Node438</title>
<g id="a_node4"><a xlink:href="main_8cxx.html#a3c04138a5bfe5d72780bb7e82a18e627" target="_top" xlink:title="main">
<polygon fill="none" stroke="#000000" points="364,-.5 364,-19.5 405,-19.5 405,-.5 364,-.5"/>
<text text-anchor="middle" x="384.5" y="-7.5" font-family="Helvetica,sans-Serif" font-size="10.00" fill="#000000">main</text>
</a>
</g>
</g>
<!-- Node437&#45;&gt;Node438 -->
<g id="edge3" class="edge">
<title>Node437&#45;&gt;Node438</title>
<path fill="none" stroke="#191970" d="M338.2133,-10C347.4322,-10 356.4259,-10 363.9965,-10"/>
<polygon fill="#191970" stroke="#191970" points="338.1782,-6.5001 328.1782,-10 338.1781,-13.5001 338.1782,-6.5001"/>
</g>
</g>
</svg>
