<?xml version="1.0" encoding="UTF-8" standalone="no"?>
<!DOCTYPE svg PUBLIC "-//W3C//DTD SVG 1.1//EN"
 "http://www.w3.org/Graphics/SVG/1.1/DTD/svg11.dtd">
<!-- Generated by graphviz version 2.40.1 (20161225.0304)
 -->
<!-- Title: Button::centerTextLabel Pages: 1 -->
<svg width="630pt" height="104pt"
 viewBox="0.00 0.00 630.00 104.00" xmlns="http://www.w3.org/2000/svg" xmlns:xlink="http://www.w3.org/1999/xlink">
<g id="graph0" class="graph" transform="scale(1 1) rotate(0) translate(4 100)">
<title>Button::centerTextLabel</title>
<!-- Node6 -->
<g id="node1" class="node">
<title>Node6</title>
<polygon fill="#bfbfbf" stroke="#000000" points="0,-38.5 0,-57.5 132,-57.5 132,-38.5 0,-38.5"/>
<text text-anchor="middle" x="66" y="-45.5" font-family="Helvetica,sans-Serif" font-size="10.00" fill="#000000">Button::centerTextLabel</text>
</g>
<!-- Node7 -->
<g id="node2" class="node">
<title>Node7</title>
<g id="a_node2"><a xlink:href="classButton.html#aca8bc669addb66b461b69ee5000186da" target="_top" xlink:title="Button::Button">
<polygon fill="none" stroke="#000000" points="179,-76.5 179,-95.5 266,-95.5 266,-76.5 179,-76.5"/>
<text text-anchor="middle" x="222.5" y="-83.5" font-family="Helvetica,sans-Serif" font-size="10.00" fill="#000000">Button::Button</text>
</a>
</g>
</g>
<!-- Node6&#45;&gt;Node7 -->
<g id="edge1" class="edge">
<title>Node6&#45;&gt;Node7</title>
<path fill="none" stroke="#191970" d="M115.2892,-59.968C137.2203,-65.2931 162.6849,-71.4762 183.2924,-76.4799"/>
<polygon fill="#191970" stroke="#191970" points="116.0351,-56.5475 105.4916,-57.589 114.3833,-63.3498 116.0351,-56.5475"/>
</g>
<!-- Node8 -->
<g id="node3" class="node">
<title>Node8</title>
<g id="a_node3"><a xlink:href="classButton.html#ac6a233c876164a52d54ef7f1b3fb78d1" target="_top" xlink:title="Sets the button&#39;s text sets the button&#39;s text to the string passed as an argument. ">
<polygon fill="none" stroke="#000000" points="177.5,-38.5 177.5,-57.5 267.5,-57.5 267.5,-38.5 177.5,-38.5"/>
<text text-anchor="middle" x="222.5" y="-45.5" font-family="Helvetica,sans-Serif" font-size="10.00" fill="#000000">Button::setText</text>
</a>
</g>
</g>
<!-- Node6&#45;&gt;Node8 -->
<g id="edge2" class="edge">
<title>Node6&#45;&gt;Node8</title>
<path fill="none" stroke="#191970" d="M142.3832,-48C154.349,-48 166.3732,-48 177.3354,-48"/>
<polygon fill="#191970" stroke="#191970" points="142.3701,-44.5001 132.3701,-48 142.3701,-51.5001 142.3701,-44.5001"/>
</g>
<!-- Node12 -->
<g id="node7" class="node">
<title>Node12</title>
<g id="a_node7"><a xlink:href="classButton.html#a5cb5a9c1bf8659fa775f34a28262bd75" target="_top" xlink:title="Sets the x,y position of this ui element Sets the x,y position of the ui element. ...">
<polygon fill="none" stroke="#000000" points="168,-.5 168,-19.5 277,-19.5 277,-.5 168,-.5"/>
<text text-anchor="middle" x="222.5" y="-7.5" font-family="Helvetica,sans-Serif" font-size="10.00" fill="#000000">Button::setPosition</text>
</a>
</g>
</g>
<!-- Node6&#45;&gt;Node12 -->
<g id="edge6" class="edge">
<title>Node6&#45;&gt;Node12</title>
<path fill="none" stroke="#191970" d="M115.2892,-36.032C137.2203,-30.7069 162.6849,-24.5238 183.2924,-19.5201"/>
<polygon fill="#191970" stroke="#191970" points="114.3833,-32.6502 105.4916,-38.411 116.0351,-39.4525 114.3833,-32.6502"/>
</g>
<!-- Node9 -->
<g id="node4" class="node">
<title>Node9</title>
<g id="a_node4"><a xlink:href="classGame.html#a5ed7fc5be77080f7f6dd5363f7f007a1" target="_top" xlink:title="initializes and displays the main menu initializes and displays the main menu ">
<polygon fill="none" stroke="#000000" points="313,-38.5 313,-57.5 416,-57.5 416,-38.5 313,-38.5"/>
<text text-anchor="middle" x="364.5" y="-45.5" font-family="Helvetica,sans-Serif" font-size="10.00" fill="#000000">Game::mainMenu</text>
</a>
</g>
</g>
<!-- Node8&#45;&gt;Node9 -->
<g id="edge3" class="edge">
<title>Node8&#45;&gt;Node9</title>
<path fill="none" stroke="#191970" d="M278.0927,-48C289.4878,-48 301.4393,-48 312.6948,-48"/>
<polygon fill="#191970" stroke="#191970" points="277.8201,-44.5001 267.8201,-48 277.8201,-51.5001 277.8201,-44.5001"/>
</g>
<!-- Node10 -->
<g id="node5" class="node">
<title>Node10</title>
<g id="a_node5"><a xlink:href="main_8cxx.html#af582d708d899e67ead623eac34a22387" target="_top" xlink:title="protected_main">
<polygon fill="none" stroke="#000000" points="452,-38.5 452,-57.5 545,-57.5 545,-38.5 452,-38.5"/>
<text text-anchor="middle" x="498.5" y="-45.5" font-family="Helvetica,sans-Serif" font-size="10.00" fill="#000000">protected_main</text>
</a>
</g>
</g>
<!-- Node9&#45;&gt;Node10 -->
<g id="edge4" class="edge">
<title>Node9&#45;&gt;Node10</title>
<path fill="none" stroke="#191970" d="M426.5242,-48C434.9726,-48 443.5272,-48 451.6465,-48"/>
<polygon fill="#191970" stroke="#191970" points="426.3079,-44.5001 416.3079,-48 426.3079,-51.5001 426.3079,-44.5001"/>
</g>
<!-- Node11 -->
<g id="node6" class="node">
<title>Node11</title>
<g id="a_node6"><a xlink:href="main_8cxx.html#a3c04138a5bfe5d72780bb7e82a18e627" target="_top" xlink:title="main">
<polygon fill="none" stroke="#000000" points="581,-38.5 581,-57.5 622,-57.5 622,-38.5 581,-38.5"/>
<text text-anchor="middle" x="601.5" y="-45.5" font-family="Helvetica,sans-Serif" font-size="10.00" fill="#000000">main</text>
</a>
</g>
</g>
<!-- Node10&#45;&gt;Node11 -->
<g id="edge5" class="edge">
<title>Node10&#45;&gt;Node11</title>
<path fill="none" stroke="#191970" d="M555.2133,-48C564.4322,-48 573.4259,-48 580.9965,-48"/>
<polygon fill="#191970" stroke="#191970" points="555.1782,-44.5001 545.1782,-48 555.1781,-51.5001 555.1782,-44.5001"/>
</g>
</g>
</svg>
