<?xml version="1.0" encoding="UTF-8" standalone="no"?>
<!DOCTYPE svg PUBLIC "-//W3C//DTD SVG 1.1//EN"
 "http://www.w3.org/Graphics/SVG/1.1/DTD/svg11.dtd">
<!-- Generated by graphviz version 2.40.1 (20161225.0304)
 -->
<!-- Title: ResourcesManager::ResourcesManager Pages: 1 -->
<svg width="720pt" height="142pt"
 viewBox="0.00 0.00 720.00 142.23" xmlns="http://www.w3.org/2000/svg" xmlns:xlink="http://www.w3.org/1999/xlink">
<g id="graph0" class="graph" transform="scale(1 1) rotate(0) translate(4 138.2302)">
<title>ResourcesManager::ResourcesManager</title>
<!-- Node2 -->
<g id="node1" class="node">
<title>Node2</title>
<polygon fill="#bfbfbf" stroke="#000000" points="0,-71.5 0,-101.5 164,-101.5 164,-71.5 0,-71.5"/>
<text text-anchor="start" x="8" y="-89.5" font-family="Helvetica,sans-Serif" font-size="10.00" fill="#000000">ResourcesManager::Resources</text>
<text text-anchor="middle" x="82" y="-78.5" font-family="Helvetica,sans-Serif" font-size="10.00" fill="#000000">Manager</text>
</g>
<!-- Node3 -->
<g id="node2" class="node">
<title>Node3</title>
<g id="a_node2"><a xlink:href="classResourcesManager.html#ac221a499e20ca7aedd00028842c7a101" target="_top" xlink:title="ResourcesManager::loadUITexture">
<polygon fill="none" stroke="#000000" points="200,-77 200,-96 382,-96 382,-77 200,-77"/>
<text text-anchor="middle" x="291" y="-84" font-family="Helvetica,sans-Serif" font-size="10.00" fill="#000000">ResourcesManager::loadUITexture</text>
</a>
</g>
</g>
<!-- Node2&#45;&gt;Node3 -->
<g id="edge1" class="edge">
<title>Node2&#45;&gt;Node3</title>
<path fill="none" stroke="#191970" d="M164.0025,-86.5C172.4687,-86.5 181.1418,-86.5 189.7849,-86.5"/>
<polygon fill="#191970" stroke="#191970" points="189.9032,-90.0001 199.9031,-86.5 189.9031,-83.0001 189.9032,-90.0001"/>
</g>
<!-- Node4 -->
<g id="node3" class="node">
<title>Node4</title>
<g id="a_node3"><a xlink:href="classSingleton.html#af5cb1e5749949e2b68416cfb8d378044" target="_top" xlink:title="Get an instance of the singleton. ">
<polygon fill="none" stroke="#000000" points="599,-90.5 599,-120.5 712,-120.5 712,-90.5 599,-90.5"/>
<text text-anchor="start" x="607" y="-108.5" font-family="Helvetica,sans-Serif" font-size="10.00" fill="#000000">Singleton&lt; Settings</text>
<text text-anchor="middle" x="655.5" y="-97.5" font-family="Helvetica,sans-Serif" font-size="10.00" fill="#000000"> &gt;::instance</text>
</a>
</g>
</g>
<!-- Node3&#45;&gt;Node4 -->
<g id="edge2" class="edge">
<title>Node3&#45;&gt;Node4</title>
<path fill="none" stroke="#191970" d="M313.4183,-96.1054C338.3937,-106.2414 380.236,-121.5553 418,-127.5 481.6605,-137.5213 498.9943,-135.0068 563,-127.5 572.3693,-126.4011 582.1651,-124.6965 591.7301,-122.7114"/>
<polygon fill="#191970" stroke="#191970" points="592.566,-126.1114 601.5868,-120.5548 591.0698,-119.2732 592.566,-126.1114"/>
</g>
<!-- Node5 -->
<g id="node4" class="node">
<title>Node5</title>
<g id="a_node4"><a xlink:href="structStrongType.html#acc66e6d6b9c95193a97a839560499933" target="_top" xlink:title="StrongType::get">
<polygon fill="none" stroke="#000000" points="444.5,-99 444.5,-118 536.5,-118 536.5,-99 444.5,-99"/>
<text text-anchor="middle" x="490.5" y="-106" font-family="Helvetica,sans-Serif" font-size="10.00" fill="#000000">StrongType::get</text>
</a>
</g>
</g>
<!-- Node3&#45;&gt;Node5 -->
<g id="edge3" class="edge">
<title>Node3&#45;&gt;Node5</title>
<path fill="none" stroke="#191970" d="M377.3433,-96.0216C396.6219,-98.1475 416.5809,-100.3485 434.2691,-102.2991"/>
<polygon fill="#191970" stroke="#191970" points="434.0755,-105.7989 444.3989,-103.4162 434.8428,-98.8411 434.0755,-105.7989"/>
</g>
<!-- Node6 -->
<g id="node5" class="node">
<title>Node6</title>
<g id="a_node5"><a xlink:href="classResourcesManager.html#ad7712ca96233a151d8bc22cd2ba17d01" target="_top" xlink:title="ResourcesManager::create\lTextureFromSurface">
<polygon fill="none" stroke="#000000" points="418,-49.5 418,-79.5 563,-79.5 563,-49.5 418,-49.5"/>
<text text-anchor="start" x="426" y="-67.5" font-family="Helvetica,sans-Serif" font-size="10.00" fill="#000000">ResourcesManager::create</text>
<text text-anchor="middle" x="490.5" y="-56.5" font-family="Helvetica,sans-Serif" font-size="10.00" fill="#000000">TextureFromSurface</text>
</a>
</g>
</g>
<!-- Node3&#45;&gt;Node6 -->
<g id="edge4" class="edge">
<title>Node3&#45;&gt;Node6</title>
<path fill="none" stroke="#191970" d="M377.3433,-76.9784C387.4528,-75.8636 397.7494,-74.7281 407.8075,-73.619"/>
<polygon fill="#191970" stroke="#191970" points="408.2143,-77.0954 417.7704,-72.5203 407.4469,-70.1376 408.2143,-77.0954"/>
</g>
<!-- Node7 -->
<g id="node6" class="node">
<title>Node7</title>
<g id="a_node6"><a xlink:href="classResourcesManager.html#a54721d26f52c4887b735d2cdaf60b078" target="_top" xlink:title="ResourcesManager::create\lSurfaceFromFile">
<polygon fill="none" stroke="#000000" points="418,-.5 418,-30.5 563,-30.5 563,-.5 418,-.5"/>
<text text-anchor="start" x="426" y="-18.5" font-family="Helvetica,sans-Serif" font-size="10.00" fill="#000000">ResourcesManager::create</text>
<text text-anchor="middle" x="490.5" y="-7.5" font-family="Helvetica,sans-Serif" font-size="10.00" fill="#000000">SurfaceFromFile</text>
</a>
</g>
</g>
<!-- Node3&#45;&gt;Node7 -->
<g id="edge6" class="edge">
<title>Node3&#45;&gt;Node7</title>
<path fill="none" stroke="#191970" d="M317.2266,-76.8668C342.8774,-67.4768 383.0668,-52.8486 418,-40.5 424.0136,-38.3742 430.3154,-36.1686 436.587,-33.9874"/>
<polygon fill="#191970" stroke="#191970" points="438.0699,-37.1777 446.3715,-30.595 435.7768,-30.564 438.0699,-37.1777"/>
</g>
<!-- Node6&#45;&gt;Node4 -->
<g id="edge5" class="edge">
<title>Node6&#45;&gt;Node4</title>
<path fill="none" stroke="#191970" d="M551.003,-79.5341C563.3405,-82.5998 576.3861,-85.8414 588.9218,-88.9563"/>
<polygon fill="#191970" stroke="#191970" points="588.2937,-92.4066 598.8426,-91.4215 589.9818,-85.6132 588.2937,-92.4066"/>
</g>
</g>
</svg>
