<?xml version="1.0" encoding="UTF-8" standalone="no"?>
<!DOCTYPE svg PUBLIC "-//W3C//DTD SVG 1.1//EN"
 "http://www.w3.org/Graphics/SVG/1.1/DTD/svg11.dtd">
<!-- Generated by graphviz version 2.40.1 (20161225.0304)
 -->
<!-- Title: MapNode::isLayerAutoTile Pages: 1 -->
<svg width="651pt" height="120pt"
 viewBox="0.00 0.00 651.00 119.61" xmlns="http://www.w3.org/2000/svg" xmlns:xlink="http://www.w3.org/1999/xlink">
<g id="graph0" class="graph" transform="scale(1 1) rotate(0) translate(4 115.611)">
<title>MapNode::isLayerAutoTile</title>
<!-- Node164 -->
<g id="node1" class="node">
<title>Node164</title>
<polygon fill="#bfbfbf" stroke="#000000" points="0,-57.5 0,-76.5 144,-76.5 144,-57.5 0,-57.5"/>
<text text-anchor="middle" x="72" y="-64.5" font-family="Helvetica,sans-Serif" font-size="10.00" fill="#000000">MapNode::isLayerAutoTile</text>
</g>
<!-- Node165 -->
<g id="node2" class="node">
<title>Node165</title>
<g id="a_node2"><a xlink:href="classMapNode.html#aabbb10c19ddd79e9c519eb4af5e995e0" target="_top" xlink:title="MapNode::updateTexture">
<polygon fill="none" stroke="#000000" points="180,-57.5 180,-76.5 318,-76.5 318,-57.5 180,-57.5"/>
<text text-anchor="middle" x="249" y="-64.5" font-family="Helvetica,sans-Serif" font-size="10.00" fill="#000000">MapNode::updateTexture</text>
</a>
</g>
</g>
<!-- Node164&#45;&gt;Node165 -->
<g id="edge1" class="edge">
<title>Node164&#45;&gt;Node165</title>
<path fill="none" stroke="#191970" d="M154.5224,-67C162.9926,-67 171.5362,-67 179.8409,-67"/>
<polygon fill="#191970" stroke="#191970" points="154.248,-63.5001 144.248,-67 154.2479,-70.5001 154.248,-63.5001"/>
</g>
<!-- Node166 -->
<g id="node3" class="node">
<title>Node166</title>
<g id="a_node3"><a xlink:href="classMapNode.html#ae515fc96b543bf97237bfb1ca53fe571" target="_top" xlink:title="MapNode::MapNode">
<polygon fill="none" stroke="#000000" points="529,-76.5 529,-95.5 643,-95.5 643,-76.5 529,-76.5"/>
<text text-anchor="middle" x="586" y="-83.5" font-family="Helvetica,sans-Serif" font-size="10.00" fill="#000000">MapNode::MapNode</text>
</a>
</g>
</g>
<!-- Node165&#45;&gt;Node166 -->
<g id="edge2" class="edge">
<title>Node165&#45;&gt;Node166</title>
<path fill="none" stroke="#191970" d="M278.1224,-80.6421C298.7885,-89.5438 327.4605,-100.3453 354,-105 414.849,-115.6721 431.5356,-111.2144 493,-105 511.3632,-103.1434 531.4594,-99.2746 548.2574,-95.5096"/>
<polygon fill="#191970" stroke="#191970" points="279.5078,-77.4278 268.9464,-76.5876 276.6787,-83.8307 279.5078,-77.4278"/>
</g>
<!-- Node167 -->
<g id="node4" class="node">
<title>Node167</title>
<g id="a_node4"><a xlink:href="classMapNode.html#a92b521fa20e0a75d81523a52ba1d8250" target="_top" xlink:title="MapNode::setBitmask">
<polygon fill="none" stroke="#000000" points="361.5,-76.5 361.5,-95.5 485.5,-95.5 485.5,-76.5 361.5,-76.5"/>
<text text-anchor="middle" x="423.5" y="-83.5" font-family="Helvetica,sans-Serif" font-size="10.00" fill="#000000">MapNode::setBitmask</text>
</a>
</g>
</g>
<!-- Node165&#45;&gt;Node167 -->
<g id="edge3" class="edge">
<title>Node165&#45;&gt;Node167</title>
<path fill="none" stroke="#191970" d="M328.3436,-75.6391C339.4451,-76.8479 350.7186,-78.0754 361.4375,-79.2425"/>
<polygon fill="#191970" stroke="#191970" points="328.5378,-72.1397 318.2177,-74.5366 327.78,-79.0985 328.5378,-72.1397"/>
</g>
<!-- Node168 -->
<g id="node5" class="node">
<title>Node168</title>
<g id="a_node5"><a xlink:href="classMapNode.html#a26e55c94192a56990f8a59e7af139a73" target="_top" xlink:title="MapNode::setTileID">
<polygon fill="none" stroke="#000000" points="367.5,-38.5 367.5,-57.5 479.5,-57.5 479.5,-38.5 367.5,-38.5"/>
<text text-anchor="middle" x="423.5" y="-45.5" font-family="Helvetica,sans-Serif" font-size="10.00" fill="#000000">MapNode::setTileID</text>
</a>
</g>
</g>
<!-- Node165&#45;&gt;Node168 -->
<g id="edge4" class="edge">
<title>Node165&#45;&gt;Node168</title>
<path fill="none" stroke="#191970" d="M328.2213,-58.3742C341.392,-56.9401 354.8088,-55.4793 367.2575,-54.1238"/>
<polygon fill="#191970" stroke="#191970" points="327.78,-54.9015 318.2177,-59.4634 328.5378,-61.8603 327.78,-54.9015"/>
</g>
<!-- Node169 -->
<g id="node6" class="node">
<title>Node169</title>
<g id="a_node6"><a xlink:href="classMapNode.html#a002b868485074599fbf087fc4c96b2c9" target="_top" xlink:title="Demolish a node Removes all tiles on a node. This effects all layers where something to demolish is p...">
<polygon fill="none" stroke="#000000" points="354,-.5 354,-19.5 493,-19.5 493,-.5 354,-.5"/>
<text text-anchor="middle" x="423.5" y="-7.5" font-family="Helvetica,sans-Serif" font-size="10.00" fill="#000000">MapNode::demolishNode</text>
</a>
</g>
</g>
<!-- Node165&#45;&gt;Node169 -->
<g id="edge6" class="edge">
<title>Node165&#45;&gt;Node169</title>
<path fill="none" stroke="#191970" d="M283.3286,-53.7868C303.7244,-46.1347 330.1787,-36.5532 354,-29 364.4928,-25.6729 375.9843,-22.3881 386.5479,-19.5096"/>
<polygon fill="#191970" stroke="#191970" points="281.9588,-50.5627 273.8409,-57.3709 284.4326,-57.1111 281.9588,-50.5627"/>
</g>
<!-- Node168&#45;&gt;Node166 -->
<g id="edge5" class="edge">
<title>Node168&#45;&gt;Node166</title>
<path fill="none" stroke="#191970" d="M474.3714,-59.8961C497.2124,-65.2374 523.7953,-71.4537 545.2893,-76.4799"/>
<polygon fill="#191970" stroke="#191970" points="475.0399,-56.4581 464.5056,-57.589 473.4459,-63.2742 475.0399,-56.4581"/>
</g>
</g>
</svg>
