<?xml version="1.0" encoding="UTF-8" standalone="no"?>
<!DOCTYPE svg PUBLIC "-//W3C//DTD SVG 1.1//EN"
 "http://www.w3.org/Graphics/SVG/1.1/DTD/svg11.dtd">
<!-- Generated by graphviz version 2.40.1 (20161225.0304)
 -->
<!-- Title: Text::setFontSize Pages: 1 -->
<svg width="536pt" height="78pt"
 viewBox="0.00 0.00 536.00 77.50" xmlns="http://www.w3.org/2000/svg" xmlns:xlink="http://www.w3.org/1999/xlink">
<g id="graph0" class="graph" transform="scale(1 1) rotate(0) translate(4 73.5)">
<title>Text::setFontSize</title>
<!-- Node36 -->
<g id="node1" class="node">
<title>Node36</title>
<polygon fill="#bfbfbf" stroke="#000000" points="0,-44.5 0,-63.5 99,-63.5 99,-44.5 0,-44.5"/>
<text text-anchor="middle" x="49.5" y="-51.5" font-family="Helvetica,sans-Serif" font-size="10.00" fill="#000000">Text::setFontSize</text>
</g>
<!-- Node37 -->
<g id="node2" class="node">
<title>Node37</title>
<g id="a_node2"><a xlink:href="classText.html#a14b9f0937696af5fd95317eb8313bf92" target="_top" xlink:title="sets the text for this text widget. ">
<polygon fill="none" stroke="#000000" points="135,-44.5 135,-63.5 213,-63.5 213,-44.5 135,-44.5"/>
<text text-anchor="middle" x="174" y="-51.5" font-family="Helvetica,sans-Serif" font-size="10.00" fill="#000000">Text::setText</text>
</a>
</g>
</g>
<!-- Node36&#45;&gt;Node37 -->
<g id="edge1" class="edge">
<title>Node36&#45;&gt;Node37</title>
<path fill="none" stroke="#191970" d="M99.0634,-54C107.5482,-54 116.3614,-54 124.8358,-54"/>
<polygon fill="#191970" stroke="#191970" points="124.9597,-57.5001 134.9597,-54 124.9596,-50.5001 124.9597,-57.5001"/>
</g>
<!-- Node38 -->
<g id="node3" class="node">
<title>Node38</title>
<g id="a_node3"><a xlink:href="classText.html#a3bf5a064fd37d06b8d3dc5a700556897" target="_top" xlink:title="Draws a text string to the screen Draws a text string to the screen. This could either be a standalon...">
<polygon fill="none" stroke="#000000" points="249,-44.5 249,-63.5 379,-63.5 379,-44.5 249,-44.5"/>
<text text-anchor="middle" x="314" y="-51.5" font-family="Helvetica,sans-Serif" font-size="10.00" fill="#000000">Text::createTextTexture</text>
</a>
</g>
</g>
<!-- Node37&#45;&gt;Node38 -->
<g id="edge2" class="edge">
<title>Node37&#45;&gt;Node38</title>
<path fill="none" stroke="#191970" d="M213.3704,-54C221.3341,-54 229.9567,-54 238.6902,-54"/>
<polygon fill="#191970" stroke="#191970" points="238.9607,-57.5001 248.9606,-54 238.9606,-50.5001 238.9607,-57.5001"/>
</g>
<!-- Node39 -->
<g id="node4" class="node">
<title>Node39</title>
<g id="a_node4"><a xlink:href="classSingleton.html#af5cb1e5749949e2b68416cfb8d378044" target="_top" xlink:title="Get an instance of the singleton. ">
<polygon fill="none" stroke="#000000" points="415,-39 415,-69 528,-69 528,-39 415,-39"/>
<text text-anchor="start" x="423" y="-57" font-family="Helvetica,sans-Serif" font-size="10.00" fill="#000000">Singleton&lt; Settings</text>
<text text-anchor="middle" x="471.5" y="-46" font-family="Helvetica,sans-Serif" font-size="10.00" fill="#000000"> &gt;::instance</text>
</a>
</g>
</g>
<!-- Node38&#45;&gt;Node39 -->
<g id="edge3" class="edge">
<title>Node38&#45;&gt;Node39</title>
<path fill="none" stroke="#191970" d="M379.4259,-47.3366C387.7178,-47.2279 396.2128,-47.2215 404.5285,-47.3176"/>
<polygon fill="#191970" stroke="#191970" points="404.4999,-50.8175 414.5571,-47.4855 404.6172,-43.8185 404.4999,-50.8175"/>
</g>
<!-- Node38&#45;&gt;Node39 -->
<g id="edge5" class="edge">
<title>Node38&#45;&gt;Node39</title>
<path fill="none" stroke="#191970" d="M379.4259,-60.6634C387.7178,-60.7721 396.2128,-60.7785 404.5285,-60.6824"/>
<polygon fill="#191970" stroke="#191970" points="404.6172,-64.1815 414.5571,-60.5145 404.4999,-57.1825 404.6172,-64.1815"/>
</g>
<!-- Node40 -->
<g id="node5" class="node">
<title>Node40</title>
<g id="a_node5"><a xlink:href="structStrongType.html#acc66e6d6b9c95193a97a839560499933" target="_top" xlink:title="StrongType::get">
<polygon fill="none" stroke="#000000" points="425.5,-.5 425.5,-19.5 517.5,-19.5 517.5,-.5 425.5,-.5"/>
<text text-anchor="middle" x="471.5" y="-7.5" font-family="Helvetica,sans-Serif" font-size="10.00" fill="#000000">StrongType::get</text>
</a>
</g>
</g>
<!-- Node38&#45;&gt;Node40 -->
<g id="edge4" class="edge">
<title>Node38&#45;&gt;Node40</title>
<path fill="none" stroke="#191970" d="M348.1752,-44.4527C371.4973,-37.9373 402.5968,-29.2492 427.7302,-22.2278"/>
<polygon fill="#191970" stroke="#191970" points="428.7021,-25.5903 437.3915,-19.5287 426.8186,-18.8485 428.7021,-25.5903"/>
</g>
</g>
</svg>
