<?xml version="1.0" encoding="UTF-8" standalone="no"?>
<!DOCTYPE svg PUBLIC "-//W3C//DTD SVG 1.1//EN"
 "http://www.w3.org/Graphics/SVG/1.1/DTD/svg11.dtd">
<!-- Generated by graphviz version 2.40.1 (20161225.0304)
 -->
<!-- Title: Text::setText Pages: 1 -->
<svg width="401pt" height="78pt"
 viewBox="0.00 0.00 401.00 77.50" xmlns="http://www.w3.org/2000/svg" xmlns:xlink="http://www.w3.org/1999/xlink">
<g id="graph0" class="graph" transform="scale(1 1) rotate(0) translate(4 73.5)">
<title>Text::setText</title>
<!-- Node43 -->
<g id="node1" class="node">
<title>Node43</title>
<polygon fill="#bfbfbf" stroke="#000000" points="0,-44.5 0,-63.5 78,-63.5 78,-44.5 0,-44.5"/>
<text text-anchor="middle" x="39" y="-51.5" font-family="Helvetica,sans-Serif" font-size="10.00" fill="#000000">Text::setText</text>
</g>
<!-- Node44 -->
<g id="node2" class="node">
<title>Node44</title>
<g id="a_node2"><a xlink:href="classText.html#a3bf5a064fd37d06b8d3dc5a700556897" target="_top" xlink:title="Draws a text string to the screen Draws a text string to the screen. This could either be a standalon...">
<polygon fill="none" stroke="#000000" points="114,-44.5 114,-63.5 244,-63.5 244,-44.5 114,-44.5"/>
<text text-anchor="middle" x="179" y="-51.5" font-family="Helvetica,sans-Serif" font-size="10.00" fill="#000000">Text::createTextTexture</text>
</a>
</g>
</g>
<!-- Node43&#45;&gt;Node44 -->
<g id="edge1" class="edge">
<title>Node43&#45;&gt;Node44</title>
<path fill="none" stroke="#191970" d="M78.3704,-54C86.3341,-54 94.9567,-54 103.6902,-54"/>
<polygon fill="#191970" stroke="#191970" points="103.9607,-57.5001 113.9606,-54 103.9606,-50.5001 103.9607,-57.5001"/>
</g>
<!-- Node45 -->
<g id="node3" class="node">
<title>Node45</title>
<g id="a_node3"><a xlink:href="classSingleton.html#af5cb1e5749949e2b68416cfb8d378044" target="_top" xlink:title="Get an instance of the singleton. ">
<polygon fill="none" stroke="#000000" points="280,-39 280,-69 393,-69 393,-39 280,-39"/>
<text text-anchor="start" x="288" y="-57" font-family="Helvetica,sans-Serif" font-size="10.00" fill="#000000">Singleton&lt; Settings</text>
<text text-anchor="middle" x="336.5" y="-46" font-family="Helvetica,sans-Serif" font-size="10.00" fill="#000000"> &gt;::instance</text>
</a>
</g>
</g>
<!-- Node44&#45;&gt;Node45 -->
<g id="edge2" class="edge">
<title>Node44&#45;&gt;Node45</title>
<path fill="none" stroke="#191970" d="M244.4259,-47.3366C252.7178,-47.2279 261.2128,-47.2215 269.5285,-47.3176"/>
<polygon fill="#191970" stroke="#191970" points="269.4999,-50.8175 279.5571,-47.4855 269.6172,-43.8185 269.4999,-50.8175"/>
</g>
<!-- Node44&#45;&gt;Node45 -->
<g id="edge4" class="edge">
<title>Node44&#45;&gt;Node45</title>
<path fill="none" stroke="#191970" d="M244.4259,-60.6634C252.7178,-60.7721 261.2128,-60.7785 269.5285,-60.6824"/>
<polygon fill="#191970" stroke="#191970" points="269.6172,-64.1815 279.5571,-60.5145 269.4999,-57.1825 269.6172,-64.1815"/>
</g>
<!-- Node46 -->
<g id="node4" class="node">
<title>Node46</title>
<g id="a_node4"><a xlink:href="structStrongType.html#acc66e6d6b9c95193a97a839560499933" target="_top" xlink:title="StrongType::get">
<polygon fill="none" stroke="#000000" points="290.5,-.5 290.5,-19.5 382.5,-19.5 382.5,-.5 290.5,-.5"/>
<text text-anchor="middle" x="336.5" y="-7.5" font-family="Helvetica,sans-Serif" font-size="10.00" fill="#000000">StrongType::get</text>
</a>
</g>
</g>
<!-- Node44&#45;&gt;Node46 -->
<g id="edge3" class="edge">
<title>Node44&#45;&gt;Node46</title>
<path fill="none" stroke="#191970" d="M213.1752,-44.4527C236.4973,-37.9373 267.5968,-29.2492 292.7302,-22.2278"/>
<polygon fill="#191970" stroke="#191970" points="293.7021,-25.5903 302.3915,-19.5287 291.8186,-18.8485 293.7021,-25.5903"/>
</g>
</g>
</svg>
