<?xml version="1.0" encoding="UTF-8" standalone="no"?>
<!DOCTYPE svg PUBLIC "-//W3C//DTD SVG 1.1//EN"
 "http://www.w3.org/Graphics/SVG/1.1/DTD/svg11.dtd">
<!-- Generated by graphviz version 2.40.1 (20161225.0304)
 -->
<!-- Title: TileManager::addJSONObjectToTileData Pages: 1 -->
<svg width="665pt" height="53pt"
 viewBox="0.00 0.00 665.00 52.50" xmlns="http://www.w3.org/2000/svg" xmlns:xlink="http://www.w3.org/1999/xlink">
<g id="graph0" class="graph" transform="scale(1 1) rotate(0) translate(4 48.5)">
<title>TileManager::addJSONObjectToTileData</title>
<!-- Node20 -->
<g id="node1" class="node">
<title>Node20</title>
<polygon fill="#bfbfbf" stroke="#000000" points="0,-.5 0,-30.5 156,-30.5 156,-.5 0,-.5"/>
<text text-anchor="start" x="8" y="-18.5" font-family="Helvetica,sans-Serif" font-size="10.00" fill="#000000">TileManager::addJSONObject</text>
<text text-anchor="middle" x="78" y="-7.5" font-family="Helvetica,sans-Serif" font-size="10.00" fill="#000000">ToTileData</text>
</g>
<!-- Node21 -->
<g id="node2" class="node">
<title>Node21</title>
<g id="a_node2"><a xlink:href="classTileManager.html#a1575d9a9530e13fe0286b8fece9e47ea" target="_top" xlink:title="TileManager::init">
<polygon fill="none" stroke="#000000" points="192,-6 192,-25 290,-25 290,-6 192,-6"/>
<text text-anchor="middle" x="241" y="-13" font-family="Helvetica,sans-Serif" font-size="10.00" fill="#000000">TileManager::init</text>
</a>
</g>
</g>
<!-- Node20&#45;&gt;Node21 -->
<g id="edge1" class="edge">
<title>Node20&#45;&gt;Node21</title>
<path fill="none" stroke="#191970" d="M166.3605,-15.5C175.031,-15.5 183.5971,-15.5 191.6627,-15.5"/>
<polygon fill="#191970" stroke="#191970" points="166.1581,-12.0001 156.1581,-15.5 166.158,-19.0001 166.1581,-12.0001"/>
</g>
<!-- Node22 -->
<g id="node3" class="node">
<title>Node22</title>
<g id="a_node3"><a xlink:href="classTileManager.html#ac6f5d9eb4db57f9ad597223658574394" target="_top" xlink:title="TileManager::TileManager">
<polygon fill="none" stroke="#000000" points="326,-25 326,-44 469,-44 469,-25 326,-25"/>
<text text-anchor="middle" x="397.5" y="-32" font-family="Helvetica,sans-Serif" font-size="10.00" fill="#000000">TileManager::TileManager</text>
</a>
</g>
</g>
<!-- Node21&#45;&gt;Node22 -->
<g id="edge2" class="edge">
<title>Node21&#45;&gt;Node22</title>
<path fill="none" stroke="#191970" d="M300.1731,-22.684C308.5918,-23.706 317.3242,-24.7662 325.9473,-25.8131"/>
<polygon fill="#191970" stroke="#191970" points="300.4371,-19.1904 290.0882,-21.4596 299.5934,-26.1394 300.4371,-19.1904"/>
</g>
<!-- Node23 -->
<g id="node4" class="node">
<title>Node23</title>
<g id="a_node4"><a xlink:href="classTileManager.html#af094937b10637c493557e22b42cf25ed" target="_top" xlink:title="TileManager::getAllTileData">
<polygon fill="none" stroke="#000000" points="505,-6 505,-25 657,-25 657,-6 505,-6"/>
<text text-anchor="middle" x="581" y="-13" font-family="Helvetica,sans-Serif" font-size="10.00" fill="#000000">TileManager::getAllTileData</text>
</a>
</g>
</g>
<!-- Node21&#45;&gt;Node23 -->
<g id="edge4" class="edge">
<title>Node21&#45;&gt;Node23</title>
<path fill="none" stroke="#191970" d="M300.3322,-15.5C357.1451,-15.5 443.1219,-15.5 504.9405,-15.5"/>
<polygon fill="#191970" stroke="#191970" points="300.0758,-12.0001 290.0758,-15.5 300.0758,-19.0001 300.0758,-12.0001"/>
</g>
<!-- Node22&#45;&gt;Node23 -->
<g id="edge3" class="edge">
<title>Node22&#45;&gt;Node23</title>
<path fill="none" stroke="#191970" d="M479.4402,-26.0157C487.8686,-25.143 496.4087,-24.2588 504.7716,-23.3929"/>
<polygon fill="#191970" stroke="#191970" points="478.8206,-22.5611 469.2343,-27.0725 479.5416,-29.5239 478.8206,-22.5611"/>
</g>
</g>
</svg>
