<?xml version="1.0" encoding="UTF-8" standalone="no"?>
<!DOCTYPE svg PUBLIC "-//W3C//DTD SVG 1.1//EN"
 "http://www.w3.org/Graphics/SVG/1.1/DTD/svg11.dtd">
<!-- Generated by graphviz version 2.40.1 (20161225.0304)
 -->
<!-- Title: Map::getElevatedNeighborBitmask Pages: 1 -->
<!--zoomable 385 -->
<svg id="main" version="1.1" xmlns="http://www.w3.org/2000/svg" xmlns:xlink="http://www.w3.org/1999/xlink" xml:space="preserve" onload="init(evt)">
<style type="text/css"><![CDATA[
.edge:hover path { stroke: red; }
.edge:hover polygon { stroke: red; fill: red; }
]]></style>
<script type="text/javascript"><![CDATA[
var edges = document.getElementsByTagName('g');
if (edges && edges.length) {
  for (var i=0;i<edges.length;i++) {
    if (edges[i].id.substr(0,4)=='edge') {
      edges[i].setAttribute('class','edge');
    }
  }
}
]]></script>
        <defs>
                <circle id="rim" cx="0" cy="0" r="7"/>
                <circle id="rim2" cx="0" cy="0" r="3.5"/>
                <g id="zoomPlus">
                        <use xlink:href="#rim" fill="#404040">
                                <set attributeName="fill" to="#808080" begin="zoomplus.mouseover" end="zoomplus.mouseout"/>
                        </use>
                        <path d="M-4,0h8M0,-4v8" fill="none" stroke="white" stroke-width="1.5" pointer-events="none"/>
                </g>
                <g id="zoomMin">
                        <use xlink:href="#rim" fill="#404040">
                                <set attributeName="fill" to="#808080" begin="zoomminus.mouseover" end="zoomminus.mouseout"/>
                        </use>
                        <path d="M-4,0h8" fill="none" stroke="white" stroke-width="1.5" pointer-events="none"/>
                </g>
                <g id="dirArrow">
                        <path fill="none" stroke="white" stroke-width="1.5" d="M0,-3.0v7 M-2.5,-0.5L0,-3.0L2.5,-0.5"/>
                </g>
               <g id="resetDef">
                       <use xlink:href="#rim2" fill="#404040">
                               <set attributeName="fill" to="#808080" begin="reset.mouseover" end="reset.mouseout"/>
                       </use>
               </g>
        </defs>

<script type="text/javascript">
var viewWidth = 1534;
var viewHeight = 385;
var sectionId = 'dynsection-12';
</script>
<script xlink:href="svgpan.js"/>
<svg id="graph" class="graph">
<g id="viewport">
<title>Map::getElevatedNeighborBitmask</title>
<!-- Node143 -->
<g id="node1" class="node">
<title>Node143</title>
<polygon fill="#bfbfbf" stroke="#000000" points="0,-85 0,-115 146,-115 146,-85 0,-85"/>
<text text-anchor="start" x="8" y="-103" font-family="Helvetica,sans-Serif" font-size="10.00" fill="#000000">Map::getElevatedNeighbor</text>
<text text-anchor="middle" x="73" y="-92" font-family="Helvetica,sans-Serif" font-size="10.00" fill="#000000">Bitmask</text>
</g>
<!-- Node144 -->
<g id="node2" class="node">
<title>Node144</title>
<g id="a_node2"><a xlink:href="classMap.html#a59d21f2688713fbcfe320eb1b24405ca" target="_top" xlink:title="Update mapNode and its adjacent tiles Updates mapNode height information, draws slopes for adjacent t...">
<polygon fill="none" stroke="#000000" points="182,-90.5 182,-109.5 345,-109.5 345,-90.5 182,-90.5"/>
<text text-anchor="middle" x="263.5" y="-97.5" font-family="Helvetica,sans-Serif" font-size="10.00" fill="#000000">Map::updateNeighborsOfNode</text>
</a>
</g>
</g>
<!-- Node143&#45;&gt;Node144 -->
<g id="edge1" class="edge">
<title>Node143&#45;&gt;Node144</title>
<path fill="none" stroke="#191970" d="M156.3065,-100C164.7342,-100 173.2887,-100 181.7004,-100"/>
<polygon fill="#191970" stroke="#191970" points="156.1075,-96.5001 146.1075,-100 156.1074,-103.5001 156.1075,-96.5001"/>
</g>
<!-- Node145 -->
<g id="node3" class="node">
<title>Node145</title>
<g id="a_node3"><a xlink:href="classMap.html#aba5154a4d917900679a3c0f7ec701561" target="_top" xlink:title="Increase Height Increases the height of the node and checks the surrounding tiles. Either draw a slope sprite or elevate the tile if necessary. ">
<polygon fill="none" stroke="#000000" points="541.5,-.5 541.5,-19.5 657.5,-19.5 657.5,-.5 541.5,-.5"/>
<text text-anchor="middle" x="599.5" y="-7.5" font-family="Helvetica,sans-Serif" font-size="10.00" fill="#000000">Map::increaseHeight</text>
</a>
</g>
</g>
<!-- Node144&#45;&gt;Node145 -->
<g id="edge2" class="edge">
<title>Node144&#45;&gt;Node145</title>
<path fill="none" stroke="#191970" d="M284.7282,-85.9678C308.1429,-75.5147 347.0118,-62.5242 381,-53 434.8802,-37.9016 497.0111,-23.3909 541.2131,-15.1383"/>
<polygon fill="#191970" stroke="#191970" points="282.9257,-82.9501 275.4145,-90.4222 285.946,-89.265 282.9257,-82.9501"/>
</g>
<!-- Node151 -->
<g id="node9" class="node">
<title>Node151</title>
<g id="a_node9"><a xlink:href="classMap.html#afb8cc864df90d273a5074872d635dc40" target="_top" xlink:title="Decrease Height Decreases the height of the node and checks the surrounding tiles. Either draw a slope sprite or lower the tile if necessary. ">
<polygon fill="none" stroke="#000000" points="540,-152.5 540,-171.5 659,-171.5 659,-152.5 540,-152.5"/>
<text text-anchor="middle" x="599.5" y="-159.5" font-family="Helvetica,sans-Serif" font-size="10.00" fill="#000000">Map::decreaseHeight</text>
</a>
</g>
</g>
<!-- Node144&#45;&gt;Node151 -->
<g id="edge9" class="edge">
<title>Node144&#45;&gt;Node151</title>
<path fill="none" stroke="#191970" d="M331.541,-112.1263C347.6494,-116.3232 364.8443,-120.6767 381,-124 444.7192,-137.1073 520.1653,-145.5949 563.6646,-152.4538"/>
<polygon fill="#191970" stroke="#191970" points="332.231,-108.6891 321.6707,-109.5441 330.4592,-115.4612 332.231,-108.6891"/>
</g>
<!-- Node153 -->
<g id="node11" class="node">
<title>Node153</title>
<g id="a_node11"><a xlink:href="classMap.html#a481b37ba71ef0e51e836fc42805762dd" target="_top" xlink:title="Update all mapNodes Updates all mapNode and its adjacent tiles regarding height information, draws slopes for adjacent tiles and sets tiling for mapNode sprite if applicable. ">
<polygon fill="none" stroke="#000000" points="381,-203.5 381,-222.5 501,-222.5 501,-203.5 381,-203.5"/>
<text text-anchor="middle" x="441" y="-210.5" font-family="Helvetica,sans-Serif" font-size="10.00" fill="#000000">Map::updateAllNodes</text>
</a>
</g>
</g>
<!-- Node144&#45;&gt;Node153 -->
<g id="edge13" class="edge">
<title>Node144&#45;&gt;Node153</title>
<path fill="none" stroke="#191970" d="M281.7989,-116.3539C304.0331,-135.6135 343.2674,-167.6765 381,-189 390.865,-194.5749 402.2852,-199.4866 412.4979,-203.3906"/>
<polygon fill="#191970" stroke="#191970" points="283.9757,-113.6077 274.1484,-109.6484 279.3617,-118.8719 283.9757,-113.6077"/>
</g>
<!-- Node162 -->
<g id="node20" class="node">
<title>Node162</title>
<g id="a_node20"><a xlink:href="classMap.html#a404c38b33d61f8c63ce2c2efb864d6dd" target="_top" xlink:title="Set the Tile ID Of Node object Also invokes all necessary texture updates (auto&#45;tiling, slopes, ...) ">
<polygon fill="none" stroke="#000000" points="702.5,-85.5 702.5,-104.5 825.5,-104.5 825.5,-85.5 702.5,-85.5"/>
<text text-anchor="middle" x="764" y="-92.5" font-family="Helvetica,sans-Serif" font-size="10.00" fill="#000000">Map::setTileIDOfNode</text>
</a>
</g>
</g>
<!-- Node144&#45;&gt;Node162 -->
<g id="edge39" class="edge">
<title>Node144&#45;&gt;Node162</title>
<path fill="none" stroke="#191970" d="M355.3327,-102.5055C436.1215,-104.2217 556.9013,-105.6021 662,-102 675.0386,-101.5531 688.9982,-100.7858 702.2752,-99.9189"/>
<polygon fill="#191970" stroke="#191970" points="355.2647,-99.0033 345.1906,-102.2839 355.1117,-106.0016 355.2647,-99.0033"/>
</g>
<!-- Node164 -->
<g id="node22" class="node">
<title>Node164</title>
<g id="a_node22"><a xlink:href="classMap.html#aa8cc2ed983007621bce12dd9d1b8ec5b" target="_top" xlink:title="Demolish a node This function gathers all tiles that should be demolished and invokes the nodes demol...">
<polygon fill="none" stroke="#000000" points="384.5,-71.5 384.5,-90.5 497.5,-90.5 497.5,-71.5 384.5,-71.5"/>
<text text-anchor="middle" x="441" y="-78.5" font-family="Helvetica,sans-Serif" font-size="10.00" fill="#000000">Map::demolishNode</text>
</a>
</g>
</g>
<!-- Node144&#45;&gt;Node164 -->
<g id="edge33" class="edge">
<title>Node144&#45;&gt;Node164</title>
<path fill="none" stroke="#191970" d="M310.3416,-88.9551C333.0364,-85.685 360.4769,-82.6442 384.3403,-80.7235"/>
<polygon fill="#191970" stroke="#191970" points="309.6454,-85.5204 300.2781,-90.4705 310.6878,-92.4423 309.6454,-85.5204"/>
</g>
<!-- Node145&#45;&gt;Node144 -->
<g id="edge8" class="edge">
<title>Node145&#45;&gt;Node144</title>
<path fill="none" stroke="#191970" d="M569.1747,-22.4274C526.8045,-34.5727 447.5993,-52.3375 381,-71 359.5299,-77.0164 336.1121,-84.4159 315.8726,-90.4785"/>
<polygon fill="#191970" stroke="#191970" points="570.29,-25.7472 578.8764,-19.5404 568.2934,-19.038 570.29,-25.7472"/>
</g>
<!-- Node146 -->
<g id="node4" class="node">
<title>Node146</title>
<g id="a_node4"><a xlink:href="classEngine.html#a4851ae1ff696c893741167fc0194fd77" target="_top" xlink:title="Increase Height Increases the height of the given map node Calls the according function of the Map ob...">
<polygon fill="none" stroke="#000000" points="869.5,-.5 869.5,-19.5 998.5,-19.5 998.5,-.5 869.5,-.5"/>
<text text-anchor="middle" x="934" y="-7.5" font-family="Helvetica,sans-Serif" font-size="10.00" fill="#000000">Engine::increaseHeight</text>
</a>
</g>
</g>
<!-- Node145&#45;&gt;Node146 -->
<g id="edge3" class="edge">
<title>Node145&#45;&gt;Node146</title>
<path fill="none" stroke="#191970" d="M668.098,-10C727.0523,-10 811.4566,-10 869.2634,-10"/>
<polygon fill="#191970" stroke="#191970" points="667.7655,-6.5001 657.7655,-10 667.7654,-13.5001 667.7655,-6.5001"/>
</g>
<!-- Node147 -->
<g id="node5" class="node">
<title>Node147</title>
<g id="a_node5"><a xlink:href="classEventManager.html#a65ec91fd5016d4f9c4167fb8babed2df" target="_top" xlink:title="EventManager::checkEvents">
<polygon fill="none" stroke="#000000" points="1050,-95.5 1050,-114.5 1204,-114.5 1204,-95.5 1050,-95.5"/>
<text text-anchor="middle" x="1127" y="-102.5" font-family="Helvetica,sans-Serif" font-size="10.00" fill="#000000">EventManager::checkEvents</text>
</a>
</g>
</g>
<!-- Node146&#45;&gt;Node147 -->
<g id="edge4" class="edge">
<title>Node146&#45;&gt;Node147</title>
<path fill="none" stroke="#191970" d="M974.0479,-22.8052C983.3499,-26.1436 993.1235,-29.9513 1002,-34 1043.3273,-52.8499 1089.0713,-80.7833 1112.064,-95.3572"/>
<polygon fill="#191970" stroke="#191970" points="975.1771,-19.4924 964.5823,-19.5059 972.8731,-26.1024 975.1771,-19.4924"/>
</g>
<!-- Node148 -->
<g id="node6" class="node">
<title>Node148</title>
<g id="a_node6"><a xlink:href="classGame.html#a1c2ab25d5216b2f4b2fe41efd2c09114" target="_top" xlink:title="begins the game starts running the game ">
<polygon fill="none" stroke="#000000" points="1252,-152.5 1252,-171.5 1320,-171.5 1320,-152.5 1252,-152.5"/>
<text text-anchor="middle" x="1286" y="-159.5" font-family="Helvetica,sans-Serif" font-size="10.00" fill="#000000">Game::run</text>
</a>
</g>
</g>
<!-- Node147&#45;&gt;Node148 -->
<g id="edge5" class="edge">
<title>Node147&#45;&gt;Node148</title>
<path fill="none" stroke="#191970" d="M1163.0636,-117.9285C1192.3193,-128.4164 1232.8994,-142.9639 1259.3002,-152.4284"/>
<polygon fill="#191970" stroke="#191970" points="1164.2076,-114.6205 1153.613,-114.5405 1161.8453,-121.2099 1164.2076,-114.6205"/>
</g>
<!-- Node149 -->
<g id="node7" class="node">
<title>Node149</title>
<g id="a_node7"><a xlink:href="main_8cxx.html#af582d708d899e67ead623eac34a22387" target="_top" xlink:title="protected_main">
<polygon fill="none" stroke="#000000" points="1356,-171.5 1356,-190.5 1449,-190.5 1449,-171.5 1356,-171.5"/>
<text text-anchor="middle" x="1402.5" y="-178.5" font-family="Helvetica,sans-Serif" font-size="10.00" fill="#000000">protected_main</text>
</a>
</g>
</g>
<!-- Node148&#45;&gt;Node149 -->
<g id="edge6" class="edge">
<title>Node148&#45;&gt;Node149</title>
<path fill="none" stroke="#191970" d="M1329.9884,-169.1741C1338.382,-170.543 1347.1965,-171.9805 1355.6749,-173.3633"/>
<polygon fill="#191970" stroke="#191970" points="1330.4428,-165.702 1320.0098,-167.5467 1329.316,-172.6107 1330.4428,-165.702"/>
</g>
<!-- Node150 -->
<g id="node8" class="node">
<title>Node150</title>
<g id="a_node8"><a xlink:href="main_8cxx.html#a3c04138a5bfe5d72780bb7e82a18e627" target="_top" xlink:title="main">
<polygon fill="none" stroke="#000000" points="1485,-171.5 1485,-190.5 1526,-190.5 1526,-171.5 1485,-171.5"/>
<text text-anchor="middle" x="1505.5" y="-178.5" font-family="Helvetica,sans-Serif" font-size="10.00" fill="#000000">main</text>
</a>
</g>
</g>
<!-- Node149&#45;&gt;Node150 -->
<g id="edge7" class="edge">
<title>Node149&#45;&gt;Node150</title>
<path fill="none" stroke="#191970" d="M1459.2133,-181C1468.4322,-181 1477.4259,-181 1484.9965,-181"/>
<polygon fill="#191970" stroke="#191970" points="1459.1782,-177.5001 1449.1782,-181 1459.1781,-184.5001 1459.1782,-177.5001"/>
</g>
<!-- Node151&#45;&gt;Node144 -->
<g id="edge12" class="edge">
<title>Node151&#45;&gt;Node144</title>
<path fill="none" stroke="#191970" d="M529.664,-163.0656C486.5606,-159.5092 430.274,-152.1359 381,-142 342.19,-134.0166 297.3828,-120.0882 276.0483,-109.6519"/>
<polygon fill="#191970" stroke="#191970" points="529.5259,-166.5653 539.766,-163.8468 530.0656,-159.5861 529.5259,-166.5653"/>
</g>
<!-- Node152 -->
<g id="node10" class="node">
<title>Node152</title>
<g id="a_node10"><a xlink:href="classEngine.html#a13572fdd7f6470dca48a14497f58980e" target="_top" xlink:title="Decrease Height Decreases the height of the given map node Calls the according function of the Map ob...">
<polygon fill="none" stroke="#000000" points="698,-142.5 698,-161.5 830,-161.5 830,-142.5 698,-142.5"/>
<text text-anchor="middle" x="764" y="-149.5" font-family="Helvetica,sans-Serif" font-size="10.00" fill="#000000">Engine::decreaseHeight</text>
</a>
</g>
</g>
<!-- Node151&#45;&gt;Node152 -->
<g id="edge10" class="edge">
<title>Node151&#45;&gt;Node152</title>
<path fill="none" stroke="#191970" d="M669.4434,-157.7481C678.8433,-157.1767 688.4627,-156.5919 697.7952,-156.0246"/>
<polygon fill="#191970" stroke="#191970" points="669.1228,-154.2611 659.3536,-158.3615 669.5476,-161.2482 669.1228,-154.2611"/>
</g>
<!-- Node152&#45;&gt;Node147 -->
<g id="edge11" class="edge">
<title>Node152&#45;&gt;Node147</title>
<path fill="none" stroke="#191970" d="M840.3941,-142.1088C903.1645,-133.9815 991.5262,-122.5407 1053.4941,-114.5173"/>
<polygon fill="#191970" stroke="#191970" points="839.6255,-138.679 830.1577,-143.4341 840.5244,-145.621 839.6255,-138.679"/>
</g>
<!-- Node154 -->
<g id="node12" class="node">
<title>Node154</title>
<g id="a_node12"><a xlink:href="classMap.html#a482ac34426e8aa66abb46f60ec329402" target="_top" xlink:title="Initialize the Map with node objects Initialize the Map with node objects. ">
<polygon fill="none" stroke="#000000" points="560,-266.5 560,-285.5 639,-285.5 639,-266.5 560,-266.5"/>
<text text-anchor="middle" x="599.5" y="-273.5" font-family="Helvetica,sans-Serif" font-size="10.00" fill="#000000">Map::initMap</text>
</a>
</g>
</g>
<!-- Node153&#45;&gt;Node154 -->
<g id="edge14" class="edge">
<title>Node153&#45;&gt;Node154</title>
<path fill="none" stroke="#191970" d="M474.3815,-226.2683C504.6443,-238.2971 548.5152,-255.7348 575.4609,-266.445"/>
<polygon fill="#191970" stroke="#191970" points="475.6584,-223.0096 465.0727,-222.5683 473.0728,-229.5146 475.6584,-223.0096"/>
</g>
<!-- Node159 -->
<g id="node17" class="node">
<title>Node159</title>
<g id="a_node17"><a xlink:href="classMap.html#afefe996cc1f62b61ec60d0ae415953bf" target="_top" xlink:title="Map::loadMapFromFile">
<polygon fill="none" stroke="#000000" points="537,-190.5 537,-209.5 662,-209.5 662,-190.5 537,-190.5"/>
<text text-anchor="middle" x="599.5" y="-197.5" font-family="Helvetica,sans-Serif" font-size="10.00" fill="#000000">Map::loadMapFromFile</text>
</a>
</g>
</g>
<!-- Node153&#45;&gt;Node159 -->
<g id="edge22" class="edge">
<title>Node153&#45;&gt;Node159</title>
<path fill="none" stroke="#191970" d="M511.5826,-207.2109C520.0271,-206.5183 528.6045,-205.8148 536.9251,-205.1323"/>
<polygon fill="#191970" stroke="#191970" points="511.0546,-203.7424 501.3742,-208.0482 511.6269,-210.7189 511.0546,-203.7424"/>
</g>
<!-- Node155 -->
<g id="node13" class="node">
<title>Node155</title>
<g id="a_node13"><a xlink:href="classEngine.html#a260d4834150eae6eec2bde34df6dc827" target="_top" xlink:title="Creates a new game Creates a new game. ">
<polygon fill="none" stroke="#000000" points="711.5,-304.5 711.5,-323.5 816.5,-323.5 816.5,-304.5 711.5,-304.5"/>
<text text-anchor="middle" x="764" y="-311.5" font-family="Helvetica,sans-Serif" font-size="10.00" fill="#000000">Engine::newGame</text>
</a>
</g>
</g>
<!-- Node154&#45;&gt;Node155 -->
<g id="edge15" class="edge">
<title>Node154&#45;&gt;Node155</title>
<path fill="none" stroke="#191970" d="M649.123,-287.4631C672.6688,-292.9022 700.472,-299.3248 722.828,-304.4891"/>
<polygon fill="#191970" stroke="#191970" points="649.8521,-284.0394 639.3209,-285.1987 648.2765,-290.8598 649.8521,-284.0394"/>
</g>
<!-- Node155&#45;&gt;Node148 -->
<g id="edge21" class="edge">
<title>Node155&#45;&gt;Node148</title>
<path fill="none" stroke="#191970" d="M794.8009,-327.5565C814.6865,-335.5531 841.3556,-344.8894 866,-349 1020.2011,-374.72 1091.6105,-408.693 1216,-314 1264.3138,-277.2205 1280.3966,-199.1841 1284.6735,-171.7698"/>
<polygon fill="#191970" stroke="#191970" points="795.924,-324.2336 785.3452,-323.6498 793.251,-330.7032 795.924,-324.2336"/>
</g>
<!-- Node156 -->
<g id="node14" class="node">
<title>Node156</title>
<g id="a_node14"><a xlink:href="classEngine.html#ab5a909990be40701ebb4b57c3e716ed4" target="_top" xlink:title="Engine::saveGame">
<polygon fill="none" stroke="#000000" points="880,-304.5 880,-323.5 988,-323.5 988,-304.5 880,-304.5"/>
<text text-anchor="middle" x="934" y="-311.5" font-family="Helvetica,sans-Serif" font-size="10.00" fill="#000000">Engine::saveGame</text>
</a>
</g>
</g>
<!-- Node155&#45;&gt;Node156 -->
<g id="edge16" class="edge">
<title>Node155&#45;&gt;Node156</title>
<path fill="none" stroke="#191970" d="M826.892,-314C844.2351,-314 862.8977,-314 879.7088,-314"/>
<polygon fill="#191970" stroke="#191970" points="826.8572,-310.5001 816.8572,-314 826.8572,-317.5001 826.8572,-310.5001"/>
</g>
<!-- Node157 -->
<g id="node15" class="node">
<title>Node157</title>
<g id="a_node15"><a xlink:href="classUIManager.html#aa78e356fc3b356d790c848319d1c387e" target="_top" xlink:title="UIManager::setCallbackFunctions">
<polygon fill="none" stroke="#000000" points="1038,-285.5 1038,-304.5 1216,-304.5 1216,-285.5 1038,-285.5"/>
<text text-anchor="middle" x="1127" y="-292.5" font-family="Helvetica,sans-Serif" font-size="10.00" fill="#000000">UIManager::setCallbackFunctions</text>
</a>
</g>
</g>
<!-- Node155&#45;&gt;Node157 -->
<g id="edge18" class="edge">
<title>Node155&#45;&gt;Node157</title>
<path fill="none" stroke="#191970" d="M815.6969,-325.5385C831.7323,-328.6016 849.5207,-331.4783 866,-333 926.1884,-338.558 942.2124,-341.8869 1002,-333 1038.1212,-327.6309 1078.2491,-313.9852 1103.0572,-304.597"/>
<polygon fill="#191970" stroke="#191970" points="815.9328,-322.0175 805.4438,-323.5111 814.5749,-328.8845 815.9328,-322.0175"/>
</g>
<!-- Node158 -->
<g id="node16" class="node">
<title>Node158</title>
<g id="a_node16"><a xlink:href="classGame.html#a5ed7fc5be77080f7f6dd5363f7f007a1" target="_top" xlink:title="initializes and displays the main menu initializes and displays the main menu ">
<polygon fill="none" stroke="#000000" points="1075.5,-190.5 1075.5,-209.5 1178.5,-209.5 1178.5,-190.5 1075.5,-190.5"/>
<text text-anchor="middle" x="1127" y="-197.5" font-family="Helvetica,sans-Serif" font-size="10.00" fill="#000000">Game::mainMenu</text>
</a>
</g>
</g>
<!-- Node155&#45;&gt;Node158 -->
<g id="edge19" class="edge">
<title>Node155&#45;&gt;Node158</title>
<path fill="none" stroke="#191970" d="M804.1031,-301.4056C877.3154,-278.4133 1031.0939,-230.1193 1096.5062,-209.5766"/>
<polygon fill="#191970" stroke="#191970" points="802.8167,-298.141 794.3248,-304.4765 804.9141,-304.8194 802.8167,-298.141"/>
</g>
<!-- Node156&#45;&gt;Node157 -->
<g id="edge17" class="edge">
<title>Node156&#45;&gt;Node157</title>
<path fill="none" stroke="#191970" d="M998.0508,-307.6945C1010.8151,-306.4379 1024.4367,-305.0969 1037.8668,-303.7748"/>
<polygon fill="#191970" stroke="#191970" points="997.6269,-304.2192 988.0179,-308.6822 998.3127,-311.1855 997.6269,-304.2192"/>
</g>
<!-- Node158&#45;&gt;Node149 -->
<g id="edge20" class="edge">
<title>Node158&#45;&gt;Node149</title>
<path fill="none" stroke="#191970" d="M1188.9861,-195.7251C1239.6117,-192.2337 1310.055,-187.3755 1355.9575,-184.2098"/>
<polygon fill="#191970" stroke="#191970" points="1188.5549,-192.2464 1178.8194,-196.4262 1189.0366,-199.2298 1188.5549,-192.2464"/>
</g>
<!-- Node160 -->
<g id="node18" class="node">
<title>Node160</title>
<g id="a_node18"><a xlink:href="classEngine.html#a83b7dbeee899b36a13d5b07c7ad87ebc" target="_top" xlink:title="Loads a saved game Loads a saved Game. ">
<polygon fill="none" stroke="#000000" points="711,-190.5 711,-209.5 817,-209.5 817,-190.5 711,-190.5"/>
<text text-anchor="middle" x="764" y="-197.5" font-family="Helvetica,sans-Serif" font-size="10.00" fill="#000000">Engine::loadGame</text>
</a>
</g>
</g>
<!-- Node159&#45;&gt;Node160 -->
<g id="edge23" class="edge">
<title>Node159&#45;&gt;Node160</title>
<path fill="none" stroke="#191970" d="M672.4461,-200C685.3866,-200 698.6382,-200 710.8977,-200"/>
<polygon fill="#191970" stroke="#191970" points="672.1597,-196.5001 662.1597,-200 672.1596,-203.5001 672.1597,-196.5001"/>
</g>
<!-- Node159&#45;&gt;Node162 -->
<g id="edge30" class="edge">
<title>Node159&#45;&gt;Node162</title>
<path fill="none" stroke="#191970" d="M653.267,-186.2075C656.3217,-184.6496 659.2601,-182.9199 662,-181 683.8388,-165.6971 678.0374,-150.6806 698,-133 711.3621,-121.1654 728.9854,-111.2451 742.6598,-104.5113"/>
<polygon fill="#191970" stroke="#191970" points="651.5623,-183.1345 643.8359,-190.384 654.3967,-189.535 651.5623,-183.1345"/>
</g>
<!-- Node160&#45;&gt;Node157 -->
<g id="edge28" class="edge">
<title>Node160&#45;&gt;Node157</title>
<path fill="none" stroke="#191970" d="M810.3225,-212.123C883.4438,-231.2594 1024.1218,-268.076 1090.5564,-285.4624"/>
<polygon fill="#191970" stroke="#191970" points="811.0282,-208.6898 800.4678,-209.5439 809.2559,-215.4618 811.0282,-208.6898"/>
</g>
<!-- Node160&#45;&gt;Node158 -->
<g id="edge29" class="edge">
<title>Node160&#45;&gt;Node158</title>
<path fill="none" stroke="#191970" d="M827.2464,-200C897.6683,-200 1010.1496,-200 1075.4486,-200"/>
<polygon fill="#191970" stroke="#191970" points="827.1721,-196.5001 817.1721,-200 827.172,-203.5001 827.1721,-196.5001"/>
</g>
<!-- Node161 -->
<g id="node19" class="node">
<title>Node161</title>
<g id="a_node19"><a xlink:href="classEngine.html#a0ba57971ffb5173ecc425461f65a4cd8" target="_top" xlink:title="Quits the game Sets m_running to false and quitting the game. ">
<polygon fill="none" stroke="#000000" points="882,-152.5 882,-171.5 986,-171.5 986,-152.5 882,-152.5"/>
<text text-anchor="middle" x="934" y="-159.5" font-family="Helvetica,sans-Serif" font-size="10.00" fill="#000000">Engine::quitGame</text>
</a>
</g>
</g>
<!-- Node160&#45;&gt;Node161 -->
<g id="edge24" class="edge">
<title>Node160&#45;&gt;Node161</title>
<path fill="none" stroke="#191970" d="M816.8981,-188.1757C840.865,-182.8184 868.8235,-176.5689 891.4103,-171.5201"/>
<polygon fill="#191970" stroke="#191970" points="815.8938,-184.8138 806.8982,-190.411 817.4209,-191.6452 815.8938,-184.8138"/>
</g>
<!-- Node161&#45;&gt;Node147 -->
<g id="edge25" class="edge">
<title>Node161&#45;&gt;Node147</title>
<path fill="none" stroke="#191970" d="M975.9351,-149.615C1011.5685,-139.0912 1061.9873,-124.2007 1094.5907,-114.5716"/>
<polygon fill="#191970" stroke="#191970" points="974.903,-146.2703 966.3039,-152.4595 976.8857,-152.9837 974.903,-146.2703"/>
</g>
<!-- Node161&#45;&gt;Node157 -->
<g id="edge26" class="edge">
<title>Node161&#45;&gt;Node157</title>
<path fill="none" stroke="#191970" d="M956.1988,-177.2976C996.3222,-204.9474 1079.825,-262.4908 1112.9864,-285.3429"/>
<polygon fill="#191970" stroke="#191970" points="958.1003,-174.3574 947.8801,-171.565 954.1283,-180.1214 958.1003,-174.3574"/>
</g>
<!-- Node161&#45;&gt;Node158 -->
<g id="edge27" class="edge">
<title>Node161&#45;&gt;Node158</title>
<path fill="none" stroke="#191970" d="M992.6016,-173.5381C1020.1289,-178.958 1052.5476,-185.341 1078.6482,-190.4799"/>
<polygon fill="#191970" stroke="#191970" points="993.1898,-170.0868 982.702,-171.589 991.8375,-176.955 993.1898,-170.0868"/>
</g>
<!-- Node163 -->
<g id="node21" class="node">
<title>Node163</title>
<g id="a_node21"><a xlink:href="classEngine.html#a7a1521fd7fc731f961ebaf3f723127d9" target="_top" xlink:title="Engine::setTileIDOfNode">
<polygon fill="none" stroke="#000000" points="866,-76.5 866,-95.5 1002,-95.5 1002,-76.5 866,-76.5"/>
<text text-anchor="middle" x="934" y="-83.5" font-family="Helvetica,sans-Serif" font-size="10.00" fill="#000000">Engine::setTileIDOfNode</text>
</a>
</g>
</g>
<!-- Node162&#45;&gt;Node163 -->
<g id="edge31" class="edge">
<title>Node162&#45;&gt;Node163</title>
<path fill="none" stroke="#191970" d="M836.0472,-91.1857C845.9332,-90.6624 856.0585,-90.1263 865.8713,-89.6068"/>
<polygon fill="#191970" stroke="#191970" points="835.6557,-87.7015 825.8548,-91.7253 836.0259,-94.6917 835.6557,-87.7015"/>
</g>
<!-- Node163&#45;&gt;Node147 -->
<g id="edge32" class="edge">
<title>Node163&#45;&gt;Node147</title>
<path fill="none" stroke="#191970" d="M1012.292,-93.7075C1024.6288,-94.922 1037.3776,-96.1771 1049.6918,-97.3894"/>
<polygon fill="#191970" stroke="#191970" points="1012.3394,-90.1953 1002.0446,-92.6987 1011.6535,-97.1617 1012.3394,-90.1953"/>
</g>
<!-- Node164&#45;&gt;Node144 -->
<g id="edge37" class="edge">
<title>Node164&#45;&gt;Node144</title>
<path fill="none" stroke="#191970" d="M393.971,-92.0719C378.9847,-94.2279 361.9437,-96.2832 345.2362,-97.982"/>
<polygon fill="#191970" stroke="#191970" points="394.6198,-95.5138 403.9885,-90.5663 393.5794,-88.5915 394.6198,-95.5138"/>
</g>
<!-- Node164&#45;&gt;Node145 -->
<g id="edge35" class="edge">
<title>Node164&#45;&gt;Node145</title>
<path fill="none" stroke="#191970" d="M468.5345,-66.7122C487.5631,-57.0385 513.5695,-44.2103 537,-34 548.721,-28.8923 561.9087,-23.7429 573.1386,-19.5307"/>
<polygon fill="#191970" stroke="#191970" points="466.8418,-63.6467 459.5335,-71.3174 470.0302,-69.8785 466.8418,-63.6467"/>
</g>
<!-- Node164&#45;&gt;Node147 -->
<g id="edge34" class="edge">
<title>Node164&#45;&gt;Node147</title>
<path fill="none" stroke="#191970" d="M507.7168,-71.9708C613.2881,-59.3326 825.0357,-40.6957 1002,-67 1038.1212,-72.3691 1078.2491,-86.0148 1103.0572,-95.403"/>
<polygon fill="#191970" stroke="#191970" points="507.0322,-68.5283 497.5287,-73.2116 507.8785,-75.4769 507.0322,-68.5283"/>
</g>
<!-- Node164&#45;&gt;Node151 -->
<g id="edge36" class="edge">
<title>Node164&#45;&gt;Node151</title>
<path fill="none" stroke="#191970" d="M469.1111,-95.3659C501.2858,-111.8085 553.0894,-138.2823 580.72,-152.4027"/>
<polygon fill="#191970" stroke="#191970" points="470.3018,-92.0439 459.8045,-90.6098 467.1163,-98.2771 470.3018,-92.0439"/>
</g>
<!-- Node164&#45;&gt;Node162 -->
<g id="edge38" class="edge">
<title>Node164&#45;&gt;Node162</title>
<path fill="none" stroke="#191970" d="M507.6659,-83.8895C564.9105,-86.3707 646.7724,-89.9189 702.4762,-92.3333"/>
<polygon fill="#191970" stroke="#191970" points="507.7741,-80.391 497.6319,-83.4546 507.4709,-87.3845 507.7741,-80.391"/>
</g>
</g>
</svg>
        <g id="navigator" transform="translate(0 0)" fill="#404254">
                <rect fill="#f2f5e9" fill-opacity="0.5" stroke="#606060" stroke-width=".5" x="0" y="0" width="60" height="60"/>
                <use id="zoomplus" xlink:href="#zoomPlus" x="17" y="9" onmousedown="handleZoom(evt,'in')"/>
                <use id="zoomminus" xlink:href="#zoomMin" x="42" y="9" onmousedown="handleZoom(evt,'out')"/>
                <use id="reset" xlink:href="#resetDef" x="30" y="36" onmousedown="handleReset()"/>
                <g id="arrowUp" xlink:href="#dirArrow" transform="translate(30 24)" onmousedown="handlePan(0,-1)">
                  <use xlink:href="#rim" fill="#404040">
                        <set attributeName="fill" to="#808080" begin="arrowUp.mouseover" end="arrowUp.mouseout"/>
                  </use>
                  <path fill="none" stroke="white" stroke-width="1.5" d="M0,-3.0v7 M-2.5,-0.5L0,-3.0L2.5,-0.5"/>
                </g>
                <g id="arrowRight" xlink:href="#dirArrow" transform="rotate(90) translate(36 -43)" onmousedown="handlePan(1,0)">
                  <use xlink:href="#rim" fill="#404040">
                        <set attributeName="fill" to="#808080" begin="arrowRight.mouseover" end="arrowRight.mouseout"/>
                  </use>
                  <path fill="none" stroke="white" stroke-width="1.5" d="M0,-3.0v7 M-2.5,-0.5L0,-3.0L2.5,-0.5"/>
                </g>
                <g id="arrowDown" xlink:href="#dirArrow" transform="rotate(180) translate(-30 -48)" onmousedown="handlePan(0,1)">
                  <use xlink:href="#rim" fill="#404040">
                        <set attributeName="fill" to="#808080" begin="arrowDown.mouseover" end="arrowDown.mouseout"/>
                  </use>
                  <path fill="none" stroke="white" stroke-width="1.5" d="M0,-3.0v7 M-2.5,-0.5L0,-3.0L2.5,-0.5"/>
                </g>
                <g id="arrowLeft" xlink:href="#dirArrow" transform="rotate(270) translate(-36 17)" onmousedown="handlePan(-1,0)">
                  <use xlink:href="#rim" fill="#404040">
                        <set attributeName="fill" to="#808080" begin="arrowLeft.mouseover" end="arrowLeft.mouseout"/>
                  </use>
                  <path fill="none" stroke="white" stroke-width="1.5" d="M0,-3.0v7 M-2.5,-0.5L0,-3.0L2.5,-0.5"/>
                </g>
        </g>
        <svg viewBox="0 0 15 15" width="100%" height="30px" preserveAspectRatio="xMaxYMin meet">
         <g id="arrow_out" transform="scale(0.3 0.3)">
          <a xlink:href="classMap_a0ff55eb041cdf29aa582a21145319ce0_icgraph_org.svg" target="_base">
           <rect id="button" ry="5" rx="5" y="6" x="6" height="38" width="38"
                fill="#f2f5e9" fill-opacity="0.5" stroke="#606060" stroke-width="1.0"/>
           <path id="arrow"
             d="M 11.500037,31.436501 C 11.940474,20.09759 22.043105,11.32322 32.158766,21.979434 L 37.068811,17.246167 C 37.068811,17.246167 37.088388,32 37.088388,32 L 22.160133,31.978069 C 22.160133,31.978069 26.997745,27.140456 26.997745,27.140456 C 18.528582,18.264221 13.291696,25.230495 11.500037,31.436501 z"
             style="fill:#404040;"/>
          </a>
         </g>
        </svg>
</svg>
