<?xml version="1.0" encoding="UTF-8" standalone="no"?>
<!DOCTYPE svg PUBLIC "-//W3C//DTD SVG 1.1//EN"
 "http://www.w3.org/Graphics/SVG/1.1/DTD/svg11.dtd">
<!-- Generated by graphviz version 2.40.1 (20161225.0304)
 -->
<!-- Title: Timer::setTimer Pages: 1 -->
<svg width="246pt" height="66pt"
 viewBox="0.00 0.00 246.00 66.00" xmlns="http://www.w3.org/2000/svg" xmlns:xlink="http://www.w3.org/1999/xlink">
<g id="graph0" class="graph" transform="scale(1 1) rotate(0) translate(4 62)">
<title>Timer::setTimer</title>
<!-- Node39 -->
<g id="node1" class="node">
<title>Node39</title>
<polygon fill="#bfbfbf" stroke="#000000" points="0,-19.5 0,-38.5 95,-38.5 95,-19.5 0,-19.5"/>
<text text-anchor="middle" x="47.5" y="-26.5" font-family="Helvetica,sans-Serif" font-size="10.00" fill="#000000">Timer::setTimer</text>
</g>
<!-- Node40 -->
<g id="node2" class="node">
<title>Node40</title>
<g id="a_node2"><a xlink:href="classTimer.html#acbaf9b17b31bdd2dbcbad131f9e93bef" target="_top" xlink:title="Checks if the time is done. Returns true, if the timer has reached 0. ">
<polygon fill="none" stroke="#000000" points="131,-38.5 131,-57.5 238,-57.5 238,-38.5 131,-38.5"/>
<text text-anchor="middle" x="184.5" y="-45.5" font-family="Helvetica,sans-Serif" font-size="10.00" fill="#000000">Timer::isTimedOut</text>
</a>
</g>
</g>
<!-- Node39&#45;&gt;Node40 -->
<g id="edge1" class="edge">
<title>Node39&#45;&gt;Node40</title>
<path fill="none" stroke="#191970" d="M104.9893,-36.973C113.5938,-38.1663 122.4362,-39.3926 130.9544,-40.574"/>
<polygon fill="#191970" stroke="#191970" points="105.4175,-33.4989 95.0315,-35.592 104.4558,-40.4326 105.4175,-33.4989"/>
</g>
<!-- Node41 -->
<g id="node3" class="node">
<title>Node41</title>
<g id="a_node3"><a xlink:href="classTooltip.html#a46a4bafd52456186b1fc7f48a554f8ef" target="_top" xlink:title="Tooltip::Tooltip">
<polygon fill="none" stroke="#000000" points="141,-.5 141,-19.5 228,-19.5 228,-.5 141,-.5"/>
<text text-anchor="middle" x="184.5" y="-7.5" font-family="Helvetica,sans-Serif" font-size="10.00" fill="#000000">Tooltip::Tooltip</text>
</a>
</g>
</g>
<!-- Node39&#45;&gt;Node41 -->
<g id="edge2" class="edge">
<title>Node39&#45;&gt;Node41</title>
<path fill="none" stroke="#191970" d="M104.9444,-21.0333C116.9147,-19.3731 129.3476,-17.6489 140.7285,-16.0705"/>
<polygon fill="#191970" stroke="#191970" points="104.4558,-17.5674 95.0315,-22.408 105.4175,-24.5011 104.4558,-17.5674"/>
</g>
</g>
</svg>
