<?xml version="1.0" encoding="UTF-8" standalone="no"?>
<!DOCTYPE svg PUBLIC "-//W3C//DTD SVG 1.1//EN"
 "http://www.w3.org/Graphics/SVG/1.1/DTD/svg11.dtd">
<!-- Generated by graphviz version 2.40.1 (20161225.0304)
 -->
<!-- Title: Timer Pages: 1 -->
<svg width="325pt" height="874pt"
 viewBox="0.00 0.00 324.50 874.00" xmlns="http://www.w3.org/2000/svg" xmlns:xlink="http://www.w3.org/1999/xlink">
<g id="graph0" class="graph" transform="scale(1 1) rotate(0) translate(4 870)">
<title>Timer</title>
<!-- Node1 -->
<g id="node1" class="node">
<title>Node1</title>
<polygon fill="#bfbfbf" stroke="#000000" points="20,-.5 20,-299.5 223,-299.5 223,-.5 20,-.5"/>
<text text-anchor="middle" x="121.5" y="-287.5" font-family="Helvetica,sans-Serif" font-size="10.00" fill="#000000">Timer</text>
<polyline fill="none" stroke="#000000" points="20,-280.5 223,-280.5 "/>
<text text-anchor="start" x="28" y="-268.5" font-family="Helvetica,sans-Serif" font-size="10.00" fill="#000000">&#45; m_loopTimer</text>
<text text-anchor="start" x="28" y="-257.5" font-family="Helvetica,sans-Serif" font-size="10.00" fill="#000000">&#45; m_timeOut</text>
<text text-anchor="start" x="28" y="-246.5" font-family="Helvetica,sans-Serif" font-size="10.00" fill="#000000">&#45; m_isActive</text>
<text text-anchor="start" x="28" y="-235.5" font-family="Helvetica,sans-Serif" font-size="10.00" fill="#000000">&#45; m_timeUntilTimeOut</text>
<text text-anchor="start" x="28" y="-224.5" font-family="Helvetica,sans-Serif" font-size="10.00" fill="#000000">&#45; m_timeSinceLastTimeOut</text>
<text text-anchor="start" x="28" y="-213.5" font-family="Helvetica,sans-Serif" font-size="10.00" fill="#000000">&#45; m_elapsedTime</text>
<text text-anchor="start" x="28" y="-202.5" font-family="Helvetica,sans-Serif" font-size="10.00" fill="#000000">&#45; m_startTime</text>
<text text-anchor="start" x="28" y="-191.5" font-family="Helvetica,sans-Serif" font-size="10.00" fill="#000000">&#45; m_endTime</text>
<text text-anchor="start" x="28" y="-180.5" font-family="Helvetica,sans-Serif" font-size="10.00" fill="#000000">&#45; m_lastTimeOutTime</text>
<polyline fill="none" stroke="#000000" points="20,-173.5 223,-173.5 "/>
<text text-anchor="start" x="28" y="-161.5" font-family="Helvetica,sans-Serif" font-size="10.00" fill="#000000">+ Timer()</text>
<text text-anchor="start" x="28" y="-150.5" font-family="Helvetica,sans-Serif" font-size="10.00" fill="#000000">+ ~Timer()</text>
<text text-anchor="start" x="28" y="-139.5" font-family="Helvetica,sans-Serif" font-size="10.00" fill="#000000">+ getElapsedTime()</text>
<text text-anchor="start" x="28" y="-128.5" font-family="Helvetica,sans-Serif" font-size="10.00" fill="#000000">+ getElapsedTimeSinceLastTimeOut()</text>
<text text-anchor="start" x="28" y="-117.5" font-family="Helvetica,sans-Serif" font-size="10.00" fill="#000000">+ start()</text>
<text text-anchor="start" x="28" y="-106.5" font-family="Helvetica,sans-Serif" font-size="10.00" fill="#000000">+ stop()</text>
<text text-anchor="start" x="28" y="-95.5" font-family="Helvetica,sans-Serif" font-size="10.00" fill="#000000">+ pause()</text>
<text text-anchor="start" x="28" y="-84.5" font-family="Helvetica,sans-Serif" font-size="10.00" fill="#000000">+ resume()</text>
<text text-anchor="start" x="28" y="-73.5" font-family="Helvetica,sans-Serif" font-size="10.00" fill="#000000">+ isActive()</text>
<text text-anchor="start" x="28" y="-62.5" font-family="Helvetica,sans-Serif" font-size="10.00" fill="#000000">+ isTimedOut()</text>
<text text-anchor="start" x="28" y="-51.5" font-family="Helvetica,sans-Serif" font-size="10.00" fill="#000000">+ setTimer()</text>
<text text-anchor="start" x="28" y="-40.5" font-family="Helvetica,sans-Serif" font-size="10.00" fill="#000000">+ registerCallbackFunction()</text>
<text text-anchor="start" x="28" y="-29.5" font-family="Helvetica,sans-Serif" font-size="10.00" fill="#000000">+ loopTimer()</text>
<text text-anchor="start" x="28" y="-18.5" font-family="Helvetica,sans-Serif" font-size="10.00" fill="#000000">+ checkTimeout()</text>
<text text-anchor="start" x="28" y="-7.5" font-family="Helvetica,sans-Serif" font-size="10.00" fill="#000000">&#45; timeOut()</text>
</g>
<!-- Node2 -->
<g id="node2" class="node">
<title>Node2</title>
<g id="a_node2"><a xlink:href="structSignal_1_1Signal.html" target="_top" xlink:title="{Signal::Signal\&lt; void()\&gt;\n||+ Signal()\l}">
<polygon fill="none" stroke="#000000" points="56,-347.5 56,-404.5 187,-404.5 187,-347.5 56,-347.5"/>
<text text-anchor="middle" x="121.5" y="-392.5" font-family="Helvetica,sans-Serif" font-size="10.00" fill="#000000">Signal::Signal&lt; void()&gt;</text>
<polyline fill="none" stroke="#000000" points="56,-385.5 187,-385.5 "/>
<text text-anchor="middle" x="121.5" y="-373.5" font-family="Helvetica,sans-Serif" font-size="10.00" fill="#000000"> </text>
<polyline fill="none" stroke="#000000" points="56,-366.5 187,-366.5 "/>
<text text-anchor="start" x="64" y="-354.5" font-family="Helvetica,sans-Serif" font-size="10.00" fill="#000000">+ Signal()</text>
</a>
</g>
</g>
<!-- Node2&#45;&gt;Node1 -->
<g id="edge1" class="edge">
<title>Node2&#45;&gt;Node1</title>
<path fill="none" stroke="#404040" d="M121.5,-347.3769C121.5,-337.3738 121.5,-325.321 121.5,-312.1636"/>
<polygon fill="none" stroke="#404040" points="121.5001,-311.7969 117.5,-305.7969 121.5,-299.7969 125.5,-305.7968 121.5001,-311.7969"/>
<text text-anchor="middle" x="167.5" y="-321" font-family="Helvetica,sans-Serif" font-size="10.00" fill="#000000"> &#45;m_timeOutSignal</text>
</g>
<!-- Node3 -->
<g id="node3" class="node">
<title>Node3</title>
<g id="a_node3"><a xlink:href="classSignal_1_1Lib_1_1ProtoSignal.html" target="_top" xlink:title="{Signal::Lib::ProtoSignal\l\&lt; void(), Lib::CollectorDefault\l\&lt; typename std::function\&lt; void\l() \&gt;::result_type \&gt; \&gt;\n||}">
<polygon fill="none" stroke="#000000" points="0,-539.5 0,-629.5 173,-629.5 173,-539.5 0,-539.5"/>
<text text-anchor="start" x="8" y="-617.5" font-family="Helvetica,sans-Serif" font-size="10.00" fill="#000000">Signal::Lib::ProtoSignal</text>
<text text-anchor="start" x="8" y="-606.5" font-family="Helvetica,sans-Serif" font-size="10.00" fill="#000000">&lt; void(), Lib::CollectorDefault</text>
<text text-anchor="start" x="8" y="-595.5" font-family="Helvetica,sans-Serif" font-size="10.00" fill="#000000">&lt; typename std::function&lt; void</text>
<text text-anchor="middle" x="86.5" y="-584.5" font-family="Helvetica,sans-Serif" font-size="10.00" fill="#000000">() &gt;::result_type &gt; &gt;</text>
<polyline fill="none" stroke="#000000" points="0,-577.5 173,-577.5 "/>
<text text-anchor="middle" x="86.5" y="-565.5" font-family="Helvetica,sans-Serif" font-size="10.00" fill="#000000"> </text>
<polyline fill="none" stroke="#000000" points="0,-558.5 173,-558.5 "/>
<text text-anchor="middle" x="86.5" y="-546.5" font-family="Helvetica,sans-Serif" font-size="10.00" fill="#000000"> </text>
</a>
</g>
</g>
<!-- Node3&#45;&gt;Node2 -->
<g id="edge2" class="edge">
<title>Node3&#45;&gt;Node2</title>
<path fill="none" stroke="#191970" d="M95.7533,-529.3767C102.4694,-489.3682 111.2863,-436.8447 116.6653,-404.8012"/>
<polygon fill="none" stroke="#191970" points="92.2984,-528.8171 94.0945,-539.2586 99.2018,-529.976 92.2984,-528.8171"/>
</g>
<!-- Node4 -->
<g id="node4" class="node">
<title>Node4</title>
<g id="a_node4"><a xlink:href="classSignal_1_1Lib_1_1ProtoSignal.html" target="_top" xlink:title="ProtoSignal is the template implementation for callback list. ">
<polygon fill="none" stroke="#000000" points="81.5,-797.5 81.5,-865.5 225.5,-865.5 225.5,-797.5 81.5,-797.5"/>
<text text-anchor="start" x="89.5" y="-853.5" font-family="Helvetica,sans-Serif" font-size="10.00" fill="#000000">Signal::Lib::ProtoSignal</text>
<text text-anchor="middle" x="153.5" y="-842.5" font-family="Helvetica,sans-Serif" font-size="10.00" fill="#000000">&lt; typename, typename &gt;</text>
<polyline fill="none" stroke="#000000" points="81.5,-835.5 225.5,-835.5 "/>
<text text-anchor="middle" x="153.5" y="-823.5" font-family="Helvetica,sans-Serif" font-size="10.00" fill="#000000"> </text>
<polyline fill="none" stroke="#000000" points="81.5,-816.5 225.5,-816.5 "/>
<text text-anchor="middle" x="153.5" y="-804.5" font-family="Helvetica,sans-Serif" font-size="10.00" fill="#000000"> </text>
</a>
</g>
</g>
<!-- Node4&#45;&gt;Node3 -->
<g id="edge3" class="edge">
<title>Node4&#45;&gt;Node3</title>
<path fill="none" stroke="#ffa500" d="M80.9165,-789.8872C78.095,-786.4911 75.5864,-782.8647 73.5,-779 48.5807,-732.8407 58.6028,-671.2752 70.3897,-629.8811"/>
<polygon fill="#ffa500" stroke="#ffa500" points="78.603,-792.5348 88.0161,-797.3973 83.6898,-787.726 78.603,-792.5348"/>
<text text-anchor="start" x="73.5" y="-771" font-family="Helvetica,sans-Serif" font-size="10.00" fill="#000000"> &lt; void(), Lib::Collector</text>
<text text-anchor="start" x="73.5" y="-760" font-family="Helvetica,sans-Serif" font-size="10.00" fill="#000000">Default&lt; typename std</text>
<text text-anchor="start" x="73.5" y="-749" font-family="Helvetica,sans-Serif" font-size="10.00" fill="#000000">::function&lt; void() &gt;::result</text>
<text text-anchor="middle" x="139" y="-738" font-family="Helvetica,sans-Serif" font-size="10.00" fill="#000000">_type &gt; &gt;</text>
</g>
<!-- Node6 -->
<g id="node6" class="node">
<title>Node6</title>
<g id="a_node6"><a xlink:href="classSignal_1_1Lib_1_1ProtoSignal.html" target="_top" xlink:title="{Signal::Lib::ProtoSignal\l\&lt; SignalSignature, Collector \&gt;\n||}">
<polygon fill="none" stroke="#000000" points="146,-648.5 146,-716.5 311,-716.5 311,-648.5 146,-648.5"/>
<text text-anchor="start" x="154" y="-704.5" font-family="Helvetica,sans-Serif" font-size="10.00" fill="#000000">Signal::Lib::ProtoSignal</text>
<text text-anchor="middle" x="228.5" y="-693.5" font-family="Helvetica,sans-Serif" font-size="10.00" fill="#000000">&lt; SignalSignature, Collector &gt;</text>
<polyline fill="none" stroke="#000000" points="146,-686.5 311,-686.5 "/>
<text text-anchor="middle" x="228.5" y="-674.5" font-family="Helvetica,sans-Serif" font-size="10.00" fill="#000000"> </text>
<polyline fill="none" stroke="#000000" points="146,-667.5 311,-667.5 "/>
<text text-anchor="middle" x="228.5" y="-655.5" font-family="Helvetica,sans-Serif" font-size="10.00" fill="#000000"> </text>
</a>
</g>
</g>
<!-- Node4&#45;&gt;Node6 -->
<g id="edge6" class="edge">
<title>Node4&#45;&gt;Node6</title>
<path fill="none" stroke="#ffa500" d="M201.7669,-789.2938C204.2598,-785.9757 206.5388,-782.5351 208.5,-779 219.0413,-759.9991 224.0458,-736.1012 226.4128,-716.8412"/>
<polygon fill="#ffa500" stroke="#ffa500" points="198.8491,-787.331 195.1895,-797.2737 204.2507,-791.7833 198.8491,-787.331"/>
<text text-anchor="start" x="222.5" y="-760" font-family="Helvetica,sans-Serif" font-size="10.00" fill="#000000"> &lt; SignalSignature,</text>
<text text-anchor="middle" x="269.5" y="-749" font-family="Helvetica,sans-Serif" font-size="10.00" fill="#000000"> Collector &gt;</text>
</g>
<!-- Node5 -->
<g id="node5" class="node">
<title>Node5</title>
<g id="a_node5"><a xlink:href="structSignal_1_1Signal.html" target="_top" xlink:title="Signal is a template type providing an interface for arbitrary callback lists. A signal type needs to...">
<polygon fill="none" stroke="#000000" points="136,-452.5 136,-520.5 309,-520.5 309,-452.5 136,-452.5"/>
<text text-anchor="start" x="144" y="-508.5" font-family="Helvetica,sans-Serif" font-size="10.00" fill="#000000">Signal::Signal&lt; SignalSignature,</text>
<text text-anchor="middle" x="222.5" y="-497.5" font-family="Helvetica,sans-Serif" font-size="10.00" fill="#000000"> Collector &gt;</text>
<polyline fill="none" stroke="#000000" points="136,-490.5 309,-490.5 "/>
<text text-anchor="middle" x="222.5" y="-478.5" font-family="Helvetica,sans-Serif" font-size="10.00" fill="#000000"> </text>
<polyline fill="none" stroke="#000000" points="136,-471.5 309,-471.5 "/>
<text text-anchor="start" x="144" y="-459.5" font-family="Helvetica,sans-Serif" font-size="10.00" fill="#000000">+ Signal()</text>
</a>
</g>
</g>
<!-- Node5&#45;&gt;Node2 -->
<g id="edge4" class="edge">
<title>Node5&#45;&gt;Node2</title>
<path fill="none" stroke="#ffa500" d="M184.3027,-444.7099C172.0531,-431.3081 158.7752,-416.7813 147.5972,-404.5519"/>
<polygon fill="#ffa500" stroke="#ffa500" points="182.0424,-447.4248 191.3725,-452.4447 187.2093,-442.7021 182.0424,-447.4248"/>
<text text-anchor="middle" x="197.5" y="-426" font-family="Helvetica,sans-Serif" font-size="10.00" fill="#000000"> &lt; void()&gt;</text>
</g>
<!-- Node6&#45;&gt;Node5 -->
<g id="edge5" class="edge">
<title>Node6&#45;&gt;Node5</title>
<path fill="none" stroke="#191970" d="M227.1449,-638.2326C226.0535,-602.5818 224.5418,-553.1986 223.5432,-520.5776"/>
<polygon fill="none" stroke="#191970" points="223.6504,-638.4712 227.4549,-648.3594 230.6472,-638.257 223.6504,-638.4712"/>
</g>
</g>
</svg>
