<?xml version="1.0" encoding="UTF-8" standalone="no"?>
<!DOCTYPE svg PUBLIC "-//W3C//DTD SVG 1.1//EN"
 "http://www.w3.org/Graphics/SVG/1.1/DTD/svg11.dtd">
<!-- Generated by graphviz version 2.40.1 (20161225.0304)
 -->
<!-- Title: Button::drawImageButtonFrame Pages: 1 -->
<svg width="523pt" height="28pt"
 viewBox="0.00 0.00 523.00 28.00" xmlns="http://www.w3.org/2000/svg" xmlns:xlink="http://www.w3.org/1999/xlink">
<g id="graph0" class="graph" transform="scale(1 1) rotate(0) translate(4 24)">
<title>Button::drawImageButtonFrame</title>
<!-- Node27 -->
<g id="node1" class="node">
<title>Node27</title>
<polygon fill="#bfbfbf" stroke="#000000" points="0,-.5 0,-19.5 172,-19.5 172,-.5 0,-.5"/>
<text text-anchor="middle" x="86" y="-7.5" font-family="Helvetica,sans-Serif" font-size="10.00" fill="#000000">Button::drawImageButtonFrame</text>
</g>
<!-- Node28 -->
<g id="node2" class="node">
<title>Node28</title>
<g id="a_node2"><a xlink:href="classUIElement.html#af84e7dae94a8239bb12d73a856e4be67" target="_top" xlink:title="UIElement::drawFrame">
<polygon fill="none" stroke="#000000" points="208,-.5 208,-19.5 336,-19.5 336,-.5 208,-.5"/>
<text text-anchor="middle" x="272" y="-7.5" font-family="Helvetica,sans-Serif" font-size="10.00" fill="#000000">UIElement::drawFrame</text>
</a>
</g>
</g>
<!-- Node27&#45;&gt;Node28 -->
<g id="edge1" class="edge">
<title>Node27&#45;&gt;Node28</title>
<path fill="none" stroke="#191970" d="M172.1939,-10C180.7063,-10 189.2952,-10 197.6732,-10"/>
<polygon fill="#191970" stroke="#191970" points="197.7686,-13.5001 207.7686,-10 197.7686,-6.5001 197.7686,-13.5001"/>
</g>
<!-- Node29 -->
<g id="node3" class="node">
<title>Node29</title>
<g id="a_node3"><a xlink:href="classUIElement.html#a4aca28b5f308b875340868697d0cc50c" target="_top" xlink:title="Draws a filled rectangle to the screen. Draws a filled rectangle to the screen. ">
<polygon fill="none" stroke="#000000" points="372,-.5 372,-19.5 515,-19.5 515,-.5 372,-.5"/>
<text text-anchor="middle" x="443.5" y="-7.5" font-family="Helvetica,sans-Serif" font-size="10.00" fill="#000000">UIElement::drawSolidRect</text>
</a>
</g>
</g>
<!-- Node28&#45;&gt;Node29 -->
<g id="edge2" class="edge">
<title>Node28&#45;&gt;Node29</title>
<path fill="none" stroke="#191970" d="M336.3482,-10C344.6826,-10 353.3051,-10 361.8727,-10"/>
<polygon fill="#191970" stroke="#191970" points="361.8845,-13.5001 371.8844,-10 361.8844,-6.5001 361.8845,-13.5001"/>
</g>
</g>
</svg>
