<?xml version="1.0" encoding="UTF-8" standalone="no"?>
<!DOCTYPE svg PUBLIC "-//W3C//DTD SVG 1.1//EN"
 "http://www.w3.org/Graphics/SVG/1.1/DTD/svg11.dtd">
<!-- Generated by graphviz version 2.40.1 (20161225.0304)
 -->
<!-- Title: Engine::newGame Pages: 1 -->
<!--zoomable 422 -->
<svg id="main" version="1.1" xmlns="http://www.w3.org/2000/svg" xmlns:xlink="http://www.w3.org/1999/xlink" xml:space="preserve" onload="init(evt)">
<style type="text/css"><![CDATA[
.edge:hover path { stroke: red; }
.edge:hover polygon { stroke: red; fill: red; }
]]></style>
<script type="text/javascript"><![CDATA[
var edges = document.getElementsByTagName('g');
if (edges && edges.length) {
  for (var i=0;i<edges.length;i++) {
    if (edges[i].id.substr(0,4)=='edge') {
      edges[i].setAttribute('class','edge');
    }
  }
}
]]></script>
        <defs>
                <circle id="rim" cx="0" cy="0" r="7"/>
                <circle id="rim2" cx="0" cy="0" r="3.5"/>
                <g id="zoomPlus">
                        <use xlink:href="#rim" fill="#404040">
                                <set attributeName="fill" to="#808080" begin="zoomplus.mouseover" end="zoomplus.mouseout"/>
                        </use>
                        <path d="M-4,0h8M0,-4v8" fill="none" stroke="white" stroke-width="1.5" pointer-events="none"/>
                </g>
                <g id="zoomMin">
                        <use xlink:href="#rim" fill="#404040">
                                <set attributeName="fill" to="#808080" begin="zoomminus.mouseover" end="zoomminus.mouseout"/>
                        </use>
                        <path d="M-4,0h8" fill="none" stroke="white" stroke-width="1.5" pointer-events="none"/>
                </g>
                <g id="dirArrow">
                        <path fill="none" stroke="white" stroke-width="1.5" d="M0,-3.0v7 M-2.5,-0.5L0,-3.0L2.5,-0.5"/>
                </g>
               <g id="resetDef">
                       <use xlink:href="#rim2" fill="#404040">
                               <set attributeName="fill" to="#808080" begin="reset.mouseover" end="reset.mouseout"/>
                       </use>
               </g>
        </defs>

<script type="text/javascript">
var viewWidth = 1513;
var viewHeight = 422;
var sectionId = 'dynsection-9';
</script>
<script xlink:href="svgpan.js"/>
<svg id="graph" class="graph">
<g id="viewport">
<title>Engine::newGame</title>
<!-- Node81 -->
<g id="node1" class="node">
<title>Node81</title>
<polygon fill="#bfbfbf" stroke="#000000" points="0,-12.5 0,-31.5 105,-31.5 105,-12.5 0,-12.5"/>
<text text-anchor="middle" x="52.5" y="-19.5" font-family="Helvetica,sans-Serif" font-size="10.00" fill="#000000">Engine::newGame</text>
</g>
<!-- Node82 -->
<g id="node2" class="node">
<title>Node82</title>
<g id="a_node2"><a xlink:href="classSingleton.html#af5cb1e5749949e2b68416cfb8d378044" target="_top" xlink:title="Get an instance of the singleton. ">
<polygon fill="none" stroke="#000000" points="1392,-168 1392,-198 1505,-198 1505,-168 1392,-168"/>
<text text-anchor="start" x="1400" y="-186" font-family="Helvetica,sans-Serif" font-size="10.00" fill="#000000">Singleton&lt; Settings</text>
<text text-anchor="middle" x="1448.5" y="-175" font-family="Helvetica,sans-Serif" font-size="10.00" fill="#000000"> &gt;::instance</text>
</a>
</g>
</g>
<!-- Node81&#45;&gt;Node82 -->
<g id="edge1" class="edge">
<title>Node81&#45;&gt;Node82</title>
<path fill="none" stroke="#191970" d="M105.0841,-15.3396C160.8215,-8.8644 251.4666,0 330,0 330,0 330,0 1080,0 1210.1699,0 1244.4982,-30.832 1356,-98 1384.1162,-114.937 1411.1433,-141.3371 1428.6445,-160.2201"/>
<polygon fill="#191970" stroke="#191970" points="1426.2209,-162.7574 1435.5372,-167.8031 1431.4008,-158.049 1426.2209,-162.7574"/>
</g>
<!-- Node83 -->
<g id="node3" class="node">
<title>Node83</title>
<g id="a_node3"><a xlink:href="classMap.html#a482ac34426e8aa66abb46f60ec329402" target="_top" xlink:title="Initialize the Map with node objects Initialize the Map with node objects. ">
<polygon fill="none" stroke="#000000" points="141,-56.5 141,-75.5 220,-75.5 220,-56.5 141,-56.5"/>
<text text-anchor="middle" x="180.5" y="-63.5" font-family="Helvetica,sans-Serif" font-size="10.00" fill="#000000">Map::initMap</text>
</a>
</g>
</g>
<!-- Node81&#45;&gt;Node83 -->
<g id="edge2" class="edge">
<title>Node81&#45;&gt;Node83</title>
<path fill="none" stroke="#191970" d="M80.2741,-31.5473C98.7248,-37.8898 123.1649,-46.2911 143.2915,-53.2096"/>
<polygon fill="#191970" stroke="#191970" points="142.1854,-56.5303 152.7801,-56.4713 144.461,-49.9105 142.1854,-56.5303"/>
</g>
<!-- Node84 -->
<g id="node4" class="node">
<title>Node84</title>
<g id="a_node4"><a xlink:href="classTerrainGenerator.html#adcc251757a1f3a06471a49f17886b8ce" target="_top" xlink:title="TerrainGenerator::generate\lTerrain">
<polygon fill="none" stroke="#000000" points="256,-51 256,-81 404,-81 404,-51 256,-51"/>
<text text-anchor="start" x="264" y="-69" font-family="Helvetica,sans-Serif" font-size="10.00" fill="#000000">TerrainGenerator::generate</text>
<text text-anchor="middle" x="330" y="-58" font-family="Helvetica,sans-Serif" font-size="10.00" fill="#000000">Terrain</text>
</a>
</g>
</g>
<!-- Node83&#45;&gt;Node84 -->
<g id="edge3" class="edge">
<title>Node83&#45;&gt;Node84</title>
<path fill="none" stroke="#191970" d="M220.1708,-66C228.1528,-66 236.825,-66 245.6793,-66"/>
<polygon fill="#191970" stroke="#191970" points="245.7265,-69.5001 255.7265,-66 245.7264,-62.5001 245.7265,-69.5001"/>
</g>
<!-- Node86 -->
<g id="node6" class="node">
<title>Node86</title>
<g id="a_node6"><a xlink:href="classMap.html#a481b37ba71ef0e51e836fc42805762dd" target="_top" xlink:title="Update all mapNodes Updates all mapNode and its adjacent tiles regarding height information, draws slopes for adjacent tiles and sets tiling for mapNode sprite if applicable. ">
<polygon fill="none" stroke="#000000" points="270,-160.5 270,-179.5 390,-179.5 390,-160.5 270,-160.5"/>
<text text-anchor="middle" x="330" y="-167.5" font-family="Helvetica,sans-Serif" font-size="10.00" fill="#000000">Map::updateAllNodes</text>
</a>
</g>
</g>
<!-- Node83&#45;&gt;Node86 -->
<g id="edge6" class="edge">
<title>Node83&#45;&gt;Node86</title>
<path fill="none" stroke="#191970" d="M194.2966,-75.5977C220.2182,-93.6301 276.3986,-132.7121 307.7358,-154.5119"/>
<polygon fill="#191970" stroke="#191970" points="306.0289,-157.588 316.2367,-160.4255 310.0264,-151.8417 306.0289,-157.588"/>
</g>
<!-- Node84&#45;&gt;Node82 -->
<g id="edge5" class="edge">
<title>Node84&#45;&gt;Node82</title>
<path fill="none" stroke="#191970" d="M404.3501,-72.6604C483.1426,-79.1356 611.2357,-88 722,-88 722,-88 722,-88 1080,-88 1200.5886,-88 1336.5468,-136.2926 1404.6576,-164.0143"/>
<polygon fill="#191970" stroke="#191970" points="1403.6252,-167.3743 1414.2045,-167.947 1406.2914,-160.9019 1403.6252,-167.3743"/>
</g>
<!-- Node85 -->
<g id="node5" class="node">
<title>Node85</title>
<g id="a_node5"><a xlink:href="classTerrainGenerator.html#ac94cfaeb9dc89453018399361da5174a" target="_top" xlink:title="TerrainGenerator::loadTerrain\lDataFromJSON">
<polygon fill="none" stroke="#000000" points="442.5,-29 442.5,-59 600.5,-59 600.5,-29 442.5,-29"/>
<text text-anchor="start" x="450.5" y="-47" font-family="Helvetica,sans-Serif" font-size="10.00" fill="#000000">TerrainGenerator::loadTerrain</text>
<text text-anchor="middle" x="521.5" y="-36" font-family="Helvetica,sans-Serif" font-size="10.00" fill="#000000">DataFromJSON</text>
</a>
</g>
</g>
<!-- Node84&#45;&gt;Node85 -->
<g id="edge4" class="edge">
<title>Node84&#45;&gt;Node85</title>
<path fill="none" stroke="#191970" d="M404.0389,-57.4942C413.2368,-56.4376 422.7168,-55.3485 432.1147,-54.2688"/>
<polygon fill="#191970" stroke="#191970" points="432.7278,-57.7215 442.263,-53.1029 431.9288,-50.7672 432.7278,-57.7215"/>
</g>
<!-- Node87 -->
<g id="node7" class="node">
<title>Node87</title>
<g id="a_node7"><a xlink:href="classMap.html#a59d21f2688713fbcfe320eb1b24405ca" target="_top" xlink:title="Update mapNode and its adjacent tiles Updates mapNode height information, draws slopes for adjacent t...">
<polygon fill="none" stroke="#000000" points="440,-220.5 440,-239.5 603,-239.5 603,-220.5 440,-220.5"/>
<text text-anchor="middle" x="521.5" y="-227.5" font-family="Helvetica,sans-Serif" font-size="10.00" fill="#000000">Map::updateNeighborsOfNode</text>
</a>
</g>
</g>
<!-- Node86&#45;&gt;Node87 -->
<g id="edge7" class="edge">
<title>Node86&#45;&gt;Node87</title>
<path fill="none" stroke="#191970" d="M360.3437,-179.5072C393.0237,-189.7463 445.1753,-206.0863 481.2597,-217.3921"/>
<polygon fill="#191970" stroke="#191970" points="480.3927,-220.7881 490.9818,-220.4382 482.4856,-214.1083 480.3927,-220.7881"/>
</g>
<!-- Node88 -->
<g id="node8" class="node">
<title>Node88</title>
<g id="a_node8"><a xlink:href="classMap.html#aab37e4a52faf81e9b696b8cf1bd9a690" target="_top" xlink:title="Get neighbor MapNode Objects Stores pointers to the neighboring nodes of the given coordinates in the...">
<polygon fill="none" stroke="#000000" points="846.5,-154.5 846.5,-173.5 954.5,-173.5 954.5,-154.5 846.5,-154.5"/>
<text text-anchor="middle" x="900.5" y="-161.5" font-family="Helvetica,sans-Serif" font-size="10.00" fill="#000000">Map::getNeighbors</text>
</a>
</g>
</g>
<!-- Node87&#45;&gt;Node88 -->
<g id="edge8" class="edge">
<title>Node87&#45;&gt;Node88</title>
<path fill="none" stroke="#191970" d="M540.0494,-220.4913C562.7313,-209.3619 602.6039,-191.3883 639,-183 705.152,-167.7537 782.9777,-163.8231 836.4244,-163.1983"/>
<polygon fill="#191970" stroke="#191970" points="836.4736,-166.6981 846.4447,-163.1165 836.4165,-159.6983 836.4736,-166.6981"/>
</g>
<!-- Node89 -->
<g id="node9" class="node">
<title>Node89</title>
<g id="a_node9"><a xlink:href="classMap.html#a0ff55eb041cdf29aa582a21145319ce0" target="_top" xlink:title="Get elevated neighbor positions in a bitmask Checks all neighboring tiles and returns the elevated ne...">
<polygon fill="none" stroke="#000000" points="649,-193 649,-223 795,-223 795,-193 649,-193"/>
<text text-anchor="start" x="657" y="-211" font-family="Helvetica,sans-Serif" font-size="10.00" fill="#000000">Map::getElevatedNeighbor</text>
<text text-anchor="middle" x="722" y="-200" font-family="Helvetica,sans-Serif" font-size="10.00" fill="#000000">Bitmask</text>
</a>
</g>
</g>
<!-- Node87&#45;&gt;Node89 -->
<g id="edge9" class="edge">
<title>Node87&#45;&gt;Node89</title>
<path fill="none" stroke="#191970" d="M603.051,-221.0518C614.7906,-219.7636 626.8848,-218.4366 638.6586,-217.1447"/>
<polygon fill="#191970" stroke="#191970" points="639.3472,-220.5902 648.9058,-216.0203 638.5837,-213.632 639.3472,-220.5902"/>
</g>
<!-- Node90 -->
<g id="node10" class="node">
<title>Node90</title>
<g id="a_node10"><a xlink:href="classMap.html#aa8cc2ed983007621bce12dd9d1b8ec5b" target="_top" xlink:title="Demolish a node This function gathers all tiles that should be demolished and invokes the nodes demol...">
<polygon fill="none" stroke="#000000" points="844,-258.5 844,-277.5 957,-277.5 957,-258.5 844,-258.5"/>
<text text-anchor="middle" x="900.5" y="-265.5" font-family="Helvetica,sans-Serif" font-size="10.00" fill="#000000">Map::demolishNode</text>
</a>
</g>
</g>
<!-- Node87&#45;&gt;Node90 -->
<g id="edge10" class="edge">
<title>Node87&#45;&gt;Node90</title>
<path fill="none" stroke="#191970" d="M560.8626,-239.5349C583.2761,-247.4484 612.1597,-257.4517 639,-262 704.4675,-273.094 780.4794,-270.5331 833.6211,-267.9764"/>
<polygon fill="#191970" stroke="#191970" points="834.1186,-271.4563 843.9346,-267.4692 833.7747,-264.4647 834.1186,-271.4563"/>
</g>
<!-- Node97 -->
<g id="node17" class="node">
<title>Node97</title>
<g id="a_node17"><a xlink:href="classMap.html#a3f5c7dd50cdc712e1ef18047cf619888" target="_top" xlink:title="Get a bitmask that represents same&#45;tile neighbors Checks all neighboring tiles and returns the elevat...">
<polygon fill="none" stroke="#000000" points="639,-365.5 639,-384.5 805,-384.5 805,-365.5 639,-365.5"/>
<text text-anchor="middle" x="722" y="-372.5" font-family="Helvetica,sans-Serif" font-size="10.00" fill="#000000">Map::calculateAutotileBitmask</text>
</a>
</g>
</g>
<!-- Node87&#45;&gt;Node97 -->
<g id="edge21" class="edge">
<title>Node87&#45;&gt;Node97</title>
<path fill="none" stroke="#191970" d="M532.8928,-239.5184C553.5634,-256.6515 598.83,-293.5472 639,-322 658.1879,-335.591 680.7144,-349.8757 697.4543,-360.1862"/>
<polygon fill="#191970" stroke="#191970" points="695.7441,-363.2429 706.101,-365.4757 699.397,-357.2716 695.7441,-363.2429"/>
</g>
<!-- Node99 -->
<g id="node19" class="node">
<title>Node99</title>
<g id="a_node19"><a xlink:href="classMap.html#aba5154a4d917900679a3c0f7ec701561" target="_top" xlink:title="Increase Height Increases the height of the node and checks the surrounding tiles. Either draw a slope sprite or elevate the tile if necessary. ">
<polygon fill="none" stroke="#000000" points="664,-242.5 664,-261.5 780,-261.5 780,-242.5 664,-242.5"/>
<text text-anchor="middle" x="722" y="-249.5" font-family="Helvetica,sans-Serif" font-size="10.00" fill="#000000">Map::increaseHeight</text>
</a>
</g>
</g>
<!-- Node87&#45;&gt;Node99 -->
<g id="edge23" class="edge">
<title>Node87&#45;&gt;Node99</title>
<path fill="none" stroke="#191970" d="M603.051,-232.3037C627.2755,-234.6856 653.0101,-237.7755 674.3234,-240.9226"/>
<polygon fill="#191970" stroke="#191970" points="673.99,-244.4123 684.4051,-242.4693 675.0516,-237.4933 673.99,-244.4123"/>
</g>
<!-- Node100 -->
<g id="node20" class="node">
<title>Node100</title>
<g id="a_node20"><a xlink:href="classMap.html#afb8cc864df90d273a5074872d635dc40" target="_top" xlink:title="Decrease Height Decreases the height of the node and checks the surrounding tiles. Either draw a slope sprite or lower the tile if necessary. ">
<polygon fill="none" stroke="#000000" points="662.5,-116.5 662.5,-135.5 781.5,-135.5 781.5,-116.5 662.5,-116.5"/>
<text text-anchor="middle" x="722" y="-123.5" font-family="Helvetica,sans-Serif" font-size="10.00" fill="#000000">Map::decreaseHeight</text>
</a>
</g>
</g>
<!-- Node87&#45;&gt;Node100 -->
<g id="edge29" class="edge">
<title>Node87&#45;&gt;Node100</title>
<path fill="none" stroke="#191970" d="M527.6856,-220.4769C544.4793,-201.6288 592.7728,-162.7414 639,-141 643.3521,-138.9532 647.916,-137.0425 652.5703,-135.2838"/>
<polygon fill="#191970" stroke="#191970" points="653.9402,-138.5123 662.2122,-131.8922 651.6174,-131.9089 653.9402,-138.5123"/>
</g>
<!-- Node90&#45;&gt;Node87 -->
<g id="edge20" class="edge">
<title>Node90&#45;&gt;Node87</title>
<path fill="none" stroke="#191970" d="M869.626,-277.5489C820.4222,-286.3013 721.366,-293.9576 639,-280 602.6538,-273.8408 562.5606,-257.6786 539.8612,-244.9188"/>
<polygon fill="#191970" stroke="#191970" points="541.6241,-241.8945 531.2595,-239.6977 537.9919,-247.8785 541.6241,-241.8945"/>
</g>
<!-- Node91 -->
<g id="node11" class="node">
<title>Node91</title>
<g id="a_node11"><a xlink:href="isoMath_8cxx.html#a7fa61c3d8ef446fb1c48dc4838023649" target="_top" xlink:title="Check if given coordinates are within map boundaries Checks if coordinates are within map boundaries...">
<polygon fill="none" stroke="#000000" points="1200,-173.5 1200,-192.5 1356,-192.5 1356,-173.5 1200,-173.5"/>
<text text-anchor="middle" x="1278" y="-180.5" font-family="Helvetica,sans-Serif" font-size="10.00" fill="#000000">isPointWithinMapBoundaries</text>
</a>
</g>
</g>
<!-- Node90&#45;&gt;Node91 -->
<g id="edge11" class="edge">
<title>Node90&#45;&gt;Node91</title>
<path fill="none" stroke="#191970" d="M916.0682,-258.3635C934.4543,-247.4597 966.3022,-230.0451 996,-221 1059.1737,-201.7591 1133.2659,-192.2511 1189.6475,-187.5578"/>
<polygon fill="#191970" stroke="#191970" points="1190.2719,-191.0192 1199.9624,-186.7362 1189.7161,-184.0413 1190.2719,-191.0192"/>
</g>
<!-- Node92 -->
<g id="node12" class="node">
<title>Node92</title>
<g id="a_node12"><a xlink:href="classMapNode.html#a6b57e4355d0780fb37c34d63bbcdfdf9" target="_top" xlink:title="MapNode::getMapNodeDataFor\lLayer">
<polygon fill="none" stroke="#000000" points="996,-269 996,-299 1164,-299 1164,-269 996,-269"/>
<text text-anchor="start" x="1004" y="-287" font-family="Helvetica,sans-Serif" font-size="10.00" fill="#000000">MapNode::getMapNodeDataFor</text>
<text text-anchor="middle" x="1080" y="-276" font-family="Helvetica,sans-Serif" font-size="10.00" fill="#000000">Layer</text>
</a>
</g>
</g>
<!-- Node90&#45;&gt;Node92 -->
<g id="edge13" class="edge">
<title>Node90&#45;&gt;Node92</title>
<path fill="none" stroke="#191970" d="M957.2949,-273.0625C966.3664,-273.8711 975.9594,-274.7262 985.6242,-275.5877"/>
<polygon fill="#191970" stroke="#191970" points="985.4317,-279.0843 995.703,-276.4861 986.0533,-272.1119 985.4317,-279.0843"/>
</g>
<!-- Node93 -->
<g id="node13" class="node">
<title>Node93</title>
<g id="a_node13"><a xlink:href="classMap.html#ab6685363fde5a50c749adab9df96c231" target="_top" xlink:title="whether a node is a multiobject or not (bigger than 1x1 building) ">
<polygon fill="none" stroke="#000000" points="1014,-230.5 1014,-249.5 1146,-249.5 1146,-230.5 1014,-230.5"/>
<text text-anchor="middle" x="1080" y="-237.5" font-family="Helvetica,sans-Serif" font-size="10.00" fill="#000000">Map::isNodeMultiObject</text>
</a>
</g>
</g>
<!-- Node90&#45;&gt;Node93 -->
<g id="edge14" class="edge">
<title>Node90&#45;&gt;Node93</title>
<path fill="none" stroke="#191970" d="M957.2949,-259.1406C973.6941,-256.5825 991.798,-253.7585 1008.9486,-251.0832"/>
<polygon fill="#191970" stroke="#191970" points="1009.5753,-254.5279 1018.9164,-249.5284 1008.4964,-247.6115 1009.5753,-254.5279"/>
</g>
<!-- Node95 -->
<g id="node15" class="node">
<title>Node95</title>
<g id="a_node15"><a xlink:href="classMap.html#a3952b445c55efce61c1ccac6f362fe89" target="_top" xlink:title="Return vector of Points of an Object Tiles selection. ">
<polygon fill="none" stroke="#000000" points="1018,-318.5 1018,-337.5 1142,-337.5 1142,-318.5 1018,-318.5"/>
<text text-anchor="middle" x="1080" y="-325.5" font-family="Helvetica,sans-Serif" font-size="10.00" fill="#000000">Map::getObjectCoords</text>
</a>
</g>
</g>
<!-- Node90&#45;&gt;Node95 -->
<g id="edge17" class="edge">
<title>Node90&#45;&gt;Node95</title>
<path fill="none" stroke="#191970" d="M920.6278,-277.5628C939.7089,-286.3551 969.3397,-299.307 996,-308 1004.9913,-310.9318 1014.6523,-313.6331 1024.1068,-316.0396"/>
<polygon fill="#191970" stroke="#191970" points="1023.3013,-319.4457 1033.848,-318.438 1024.9748,-312.6487 1023.3013,-319.4457"/>
</g>
<!-- Node91&#45;&gt;Node82 -->
<g id="edge12" class="edge">
<title>Node91&#45;&gt;Node82</title>
<path fill="none" stroke="#191970" d="M1356.2638,-183C1364.635,-183 1373.0967,-183 1381.323,-183"/>
<polygon fill="#191970" stroke="#191970" points="1381.5927,-186.5001 1391.5927,-183 1381.5926,-179.5001 1381.5927,-186.5001"/>
</g>
<!-- Node93&#45;&gt;Node91 -->
<g id="edge15" class="edge">
<title>Node93&#45;&gt;Node91</title>
<path fill="none" stroke="#191970" d="M1113.5253,-230.4502C1128.9083,-226.0608 1147.3833,-220.7789 1164,-216 1187.5902,-209.2156 1213.9125,-201.5991 1235.3153,-195.3941"/>
<polygon fill="#191970" stroke="#191970" points="1236.4542,-198.7081 1245.0835,-192.5612 1234.5044,-191.9852 1236.4542,-198.7081"/>
</g>
<!-- Node94 -->
<g id="node14" class="node">
<title>Node94</title>
<g id="a_node14"><a xlink:href="classMapNode.html#adf88174897b884c97d327e710dea7f5e" target="_top" xlink:title="MapNode::getTileData">
<polygon fill="none" stroke="#000000" points="1215.5,-230.5 1215.5,-249.5 1340.5,-249.5 1340.5,-230.5 1215.5,-230.5"/>
<text text-anchor="middle" x="1278" y="-237.5" font-family="Helvetica,sans-Serif" font-size="10.00" fill="#000000">MapNode::getTileData</text>
</a>
</g>
</g>
<!-- Node93&#45;&gt;Node94 -->
<g id="edge16" class="edge">
<title>Node93&#45;&gt;Node94</title>
<path fill="none" stroke="#191970" d="M1146.2064,-240C1165.0748,-240 1185.735,-240 1204.9846,-240"/>
<polygon fill="#191970" stroke="#191970" points="1205.2082,-243.5001 1215.2081,-240 1205.2081,-236.5001 1205.2082,-243.5001"/>
</g>
<!-- Node95&#45;&gt;Node82 -->
<g id="edge18" class="edge">
<title>Node95&#45;&gt;Node82</title>
<path fill="none" stroke="#191970" d="M1129.1848,-318.4491C1197.3388,-304.7501 1316.5646,-278.9739 1356,-259 1383.0128,-245.3181 1409.2376,-222.595 1426.8228,-205.5523"/>
<polygon fill="#191970" stroke="#191970" points="1429.6279,-207.6999 1434.2664,-198.1744 1424.7001,-202.7283 1429.6279,-207.6999"/>
</g>
<!-- Node96 -->
<g id="node16" class="node">
<title>Node96</title>
<g id="a_node16"><a xlink:href="classTileManager.html#a8ee071ff8b24926288437d310f9bc714" target="_top" xlink:title="TileManager::getTileData">
<polygon fill="none" stroke="#000000" points="1208,-318.5 1208,-337.5 1348,-337.5 1348,-318.5 1208,-318.5"/>
<text text-anchor="middle" x="1278" y="-325.5" font-family="Helvetica,sans-Serif" font-size="10.00" fill="#000000">TileManager::getTileData</text>
</a>
</g>
</g>
<!-- Node95&#45;&gt;Node96 -->
<g id="edge19" class="edge">
<title>Node95&#45;&gt;Node96</title>
<path fill="none" stroke="#191970" d="M1142.1052,-328C1159.7124,-328 1179.1365,-328 1197.6568,-328"/>
<polygon fill="#191970" stroke="#191970" points="1197.8356,-331.5001 1207.8356,-328 1197.8355,-324.5001 1197.8356,-331.5001"/>
</g>
<!-- Node98 -->
<g id="node18" class="node">
<title>Node98</title>
<g id="a_node18"><a xlink:href="classMap.html#a4700614f8c7d02b9ca18ad7e916a2312" target="_top" xlink:title="Map::isLayerAutoTile">
<polygon fill="none" stroke="#000000" points="841,-394.5 841,-413.5 960,-413.5 960,-394.5 841,-394.5"/>
<text text-anchor="middle" x="900.5" y="-401.5" font-family="Helvetica,sans-Serif" font-size="10.00" fill="#000000">Map::isLayerAutoTile</text>
</a>
</g>
</g>
<!-- Node97&#45;&gt;Node98 -->
<g id="edge22" class="edge">
<title>Node97&#45;&gt;Node98</title>
<path fill="none" stroke="#191970" d="M780.9423,-384.5761C797.1727,-387.2129 814.9204,-390.0963 831.6567,-392.8154"/>
<polygon fill="#191970" stroke="#191970" points="831.4921,-396.3345 841.924,-394.4835 832.6147,-389.425 831.4921,-396.3345"/>
</g>
<!-- Node99&#45;&gt;Node82 -->
<g id="edge24" class="edge">
<title>Node99&#45;&gt;Node82</title>
<path fill="none" stroke="#191970" d="M738.3796,-261.541C814.6038,-304.5782 1140.0013,-473.1586 1356,-347 1407.7312,-316.7853 1432.801,-245.7805 1442.8704,-207.8739"/>
<polygon fill="#191970" stroke="#191970" points="1446.2783,-208.6729 1445.3224,-198.1213 1439.4896,-206.9661 1446.2783,-208.6729"/>
</g>
<!-- Node99&#45;&gt;Node87 -->
<g id="edge28" class="edge">
<title>Node99&#45;&gt;Node87</title>
<path fill="none" stroke="#191970" d="M663.9482,-251.8179C633.9126,-249.3712 597.695,-245.2849 569.2957,-241.095"/>
<polygon fill="#191970" stroke="#191970" points="569.6274,-237.605 559.2125,-239.5495 568.5668,-244.5242 569.6274,-237.605"/>
</g>
<!-- Node99&#45;&gt;Node88 -->
<g id="edge25" class="edge">
<title>Node99&#45;&gt;Node88</title>
<path fill="none" stroke="#191970" d="M780.2151,-243.0984C788.9084,-240.341 797.4687,-236.7297 805,-232 826.3973,-218.5622 820.6468,-202.9722 841,-188 846.4858,-183.9646 852.7451,-180.4877 859.0955,-177.5329"/>
<polygon fill="#191970" stroke="#191970" points="860.5588,-180.7139 868.3854,-173.5729 857.8138,-174.2745 860.5588,-180.7139"/>
</g>
<!-- Node99&#45;&gt;Node90 -->
<g id="edge27" class="edge">
<title>Node99&#45;&gt;Node90</title>
<path fill="none" stroke="#191970" d="M780.4476,-257.239C797.4465,-258.7627 816.1447,-260.4387 833.6199,-262.0051"/>
<polygon fill="#191970" stroke="#191970" points="833.473,-265.5059 843.7455,-262.9128 834.098,-258.5339 833.473,-265.5059"/>
</g>
<!-- Node99&#45;&gt;Node91 -->
<g id="edge26" class="edge">
<title>Node99&#45;&gt;Node91</title>
<path fill="none" stroke="#191970" d="M761.6825,-242.4685C836.1954,-224.5869 990.1249,-187.7296 996,-187 1060.4976,-178.9904 1133.9261,-178.2115 1189.6838,-179.3183"/>
<polygon fill="#191970" stroke="#191970" points="1189.8077,-182.8218 1199.8832,-179.5456 1189.9637,-175.8236 1189.8077,-182.8218"/>
</g>
<!-- Node100&#45;&gt;Node87 -->
<g id="edge33" class="edge">
<title>Node100&#45;&gt;Node87</title>
<path fill="none" stroke="#191970" d="M706.483,-135.5391C689.4025,-141.5413 661.3967,-148.4665 639,-159 606.2731,-174.3919 572.5107,-198.3775 549.6229,-214.3856"/>
<polygon fill="#191970" stroke="#191970" points="547.3259,-211.7196 541.1109,-220.3001 551.3203,-217.4681 547.3259,-211.7196"/>
</g>
<!-- Node100&#45;&gt;Node88 -->
<g id="edge30" class="edge">
<title>Node100&#45;&gt;Node88</title>
<path fill="none" stroke="#191970" d="M767.0431,-135.589C791.0225,-140.6939 820.6979,-147.0113 845.9721,-152.3918"/>
<polygon fill="#191970" stroke="#191970" points="845.2712,-155.821 855.7808,-154.4799 846.7288,-148.9744 845.2712,-155.821"/>
</g>
<!-- Node100&#45;&gt;Node90 -->
<g id="edge32" class="edge">
<title>Node100&#45;&gt;Node90</title>
<path fill="none" stroke="#191970" d="M737.0926,-135.5462C754.0396,-146.4508 782.1572,-165.1051 805,-183 833.4621,-205.2971 864.3696,-233.6339 883.0865,-251.2965"/>
<polygon fill="#191970" stroke="#191970" points="880.8862,-254.0337 890.5475,-258.3823 885.7067,-248.958 880.8862,-254.0337"/>
</g>
<!-- Node100&#45;&gt;Node91 -->
<g id="edge31" class="edge">
<title>Node100&#45;&gt;Node91</title>
<path fill="none" stroke="#191970" d="M781.8141,-124.9601C867.2226,-124.4432 1028.7557,-127.0616 1164,-150 1190.4242,-154.4817 1219.4281,-162.929 1241.5679,-170.1548"/>
<polygon fill="#191970" stroke="#191970" points="1240.6296,-173.5313 1251.2232,-173.3702 1242.8414,-166.8899 1240.6296,-173.5313"/>
</g>
</g>
</svg>
        <g id="navigator" transform="translate(0 0)" fill="#404254">
                <rect fill="#f2f5e9" fill-opacity="0.5" stroke="#606060" stroke-width=".5" x="0" y="0" width="60" height="60"/>
                <use id="zoomplus" xlink:href="#zoomPlus" x="17" y="9" onmousedown="handleZoom(evt,'in')"/>
                <use id="zoomminus" xlink:href="#zoomMin" x="42" y="9" onmousedown="handleZoom(evt,'out')"/>
                <use id="reset" xlink:href="#resetDef" x="30" y="36" onmousedown="handleReset()"/>
                <g id="arrowUp" xlink:href="#dirArrow" transform="translate(30 24)" onmousedown="handlePan(0,-1)">
                  <use xlink:href="#rim" fill="#404040">
                        <set attributeName="fill" to="#808080" begin="arrowUp.mouseover" end="arrowUp.mouseout"/>
                  </use>
                  <path fill="none" stroke="white" stroke-width="1.5" d="M0,-3.0v7 M-2.5,-0.5L0,-3.0L2.5,-0.5"/>
                </g>
                <g id="arrowRight" xlink:href="#dirArrow" transform="rotate(90) translate(36 -43)" onmousedown="handlePan(1,0)">
                  <use xlink:href="#rim" fill="#404040">
                        <set attributeName="fill" to="#808080" begin="arrowRight.mouseover" end="arrowRight.mouseout"/>
                  </use>
                  <path fill="none" stroke="white" stroke-width="1.5" d="M0,-3.0v7 M-2.5,-0.5L0,-3.0L2.5,-0.5"/>
                </g>
                <g id="arrowDown" xlink:href="#dirArrow" transform="rotate(180) translate(-30 -48)" onmousedown="handlePan(0,1)">
                  <use xlink:href="#rim" fill="#404040">
                        <set attributeName="fill" to="#808080" begin="arrowDown.mouseover" end="arrowDown.mouseout"/>
                  </use>
                  <path fill="none" stroke="white" stroke-width="1.5" d="M0,-3.0v7 M-2.5,-0.5L0,-3.0L2.5,-0.5"/>
                </g>
                <g id="arrowLeft" xlink:href="#dirArrow" transform="rotate(270) translate(-36 17)" onmousedown="handlePan(-1,0)">
                  <use xlink:href="#rim" fill="#404040">
                        <set attributeName="fill" to="#808080" begin="arrowLeft.mouseover" end="arrowLeft.mouseout"/>
                  </use>
                  <path fill="none" stroke="white" stroke-width="1.5" d="M0,-3.0v7 M-2.5,-0.5L0,-3.0L2.5,-0.5"/>
                </g>
        </g>
        <svg viewBox="0 0 15 15" width="100%" height="30px" preserveAspectRatio="xMaxYMin meet">
         <g id="arrow_out" transform="scale(0.3 0.3)">
          <a xlink:href="classEngine_a260d4834150eae6eec2bde34df6dc827_cgraph_org.svg" target="_base">
           <rect id="button" ry="5" rx="5" y="6" x="6" height="38" width="38"
                fill="#f2f5e9" fill-opacity="0.5" stroke="#606060" stroke-width="1.0"/>
           <path id="arrow"
             d="M 11.500037,31.436501 C 11.940474,20.09759 22.043105,11.32322 32.158766,21.979434 L 37.068811,17.246167 C 37.068811,17.246167 37.088388,32 37.088388,32 L 22.160133,31.978069 C 22.160133,31.978069 26.997745,27.140456 26.997745,27.140456 C 18.528582,18.264221 13.291696,25.230495 11.500037,31.436501 z"
             style="fill:#404040;"/>
          </a>
         </g>
        </svg>
</svg>
