<?xml version="1.0" encoding="UTF-8" standalone="no"?>
<!DOCTYPE svg PUBLIC "-//W3C//DTD SVG 1.1//EN"
 "http://www.w3.org/Graphics/SVG/1.1/DTD/svg11.dtd">
<!-- Generated by graphviz version 2.40.1 (20161225.0304)
 -->
<!-- Title: UnimplementedError Pages: 1 -->
<svg width="127pt" height="254pt"
 viewBox="0.00 0.00 127.00 254.00" xmlns="http://www.w3.org/2000/svg" xmlns:xlink="http://www.w3.org/1999/xlink">
<g id="graph0" class="graph" transform="scale(1 1) rotate(0) translate(4 250)">
<title>UnimplementedError</title>
<!-- Node0 -->
<g id="node1" class="node">
<title>Node0</title>
<polygon fill="#bfbfbf" stroke="#000000" points="0,-.5 0,-57.5 119,-57.5 119,-.5 0,-.5"/>
<text text-anchor="middle" x="59.5" y="-45.5" font-family="Helvetica,sans-Serif" font-size="10.00" fill="#000000">UnimplementedError</text>
<polyline fill="none" stroke="#000000" points="0,-38.5 119,-38.5 "/>
<text text-anchor="middle" x="59.5" y="-26.5" font-family="Helvetica,sans-Serif" font-size="10.00" fill="#000000"> </text>
<polyline fill="none" stroke="#000000" points="0,-19.5 119,-19.5 "/>
<text text-anchor="middle" x="59.5" y="-7.5" font-family="Helvetica,sans-Serif" font-size="10.00" fill="#000000"> </text>
</g>
<!-- Node1 -->
<g id="node2" class="node">
<title>Node1</title>
<g id="a_node2"><a xlink:href="classCytopiaError.html" target="_top" xlink:title="A generic error in Cytopia. ">
<polygon fill="none" stroke="#000000" points="21,-94.5 21,-151.5 98,-151.5 98,-94.5 21,-94.5"/>
<text text-anchor="middle" x="59.5" y="-139.5" font-family="Helvetica,sans-Serif" font-size="10.00" fill="#000000">CytopiaError</text>
<polyline fill="none" stroke="#000000" points="21,-132.5 98,-132.5 "/>
<text text-anchor="middle" x="59.5" y="-120.5" font-family="Helvetica,sans-Serif" font-size="10.00" fill="#000000"> </text>
<polyline fill="none" stroke="#000000" points="21,-113.5 98,-113.5 "/>
<text text-anchor="middle" x="59.5" y="-101.5" font-family="Helvetica,sans-Serif" font-size="10.00" fill="#000000"> </text>
</a>
</g>
</g>
<!-- Node1&#45;&gt;Node0 -->
<g id="edge1" class="edge">
<title>Node1&#45;&gt;Node0</title>
<path fill="none" stroke="#191970" d="M59.5,-84.1035C59.5,-75.2052 59.5,-65.9073 59.5,-57.538"/>
<polygon fill="none" stroke="#191970" points="56.0001,-84.2861 59.5,-94.2861 63.0001,-84.2862 56.0001,-84.2861"/>
</g>
<!-- Node2 -->
<g id="node3" class="node">
<title>Node2</title>
<polygon fill="none" stroke="#bfbfbf" points="19.5,-188.5 19.5,-245.5 99.5,-245.5 99.5,-188.5 19.5,-188.5"/>
<text text-anchor="middle" x="59.5" y="-233.5" font-family="Helvetica,sans-Serif" font-size="10.00" fill="#000000">RuntimeError</text>
<polyline fill="none" stroke="#bfbfbf" points="19.5,-226.5 99.5,-226.5 "/>
<text text-anchor="middle" x="59.5" y="-214.5" font-family="Helvetica,sans-Serif" font-size="10.00" fill="#000000"> </text>
<polyline fill="none" stroke="#bfbfbf" points="19.5,-207.5 99.5,-207.5 "/>
<text text-anchor="middle" x="59.5" y="-195.5" font-family="Helvetica,sans-Serif" font-size="10.00" fill="#000000"> </text>
</g>
<!-- Node2&#45;&gt;Node1 -->
<g id="edge2" class="edge">
<title>Node2&#45;&gt;Node1</title>
<path fill="none" stroke="#191970" d="M59.5,-178.1035C59.5,-169.2052 59.5,-159.9073 59.5,-151.538"/>
<polygon fill="none" stroke="#191970" points="56.0001,-178.2861 59.5,-188.2861 63.0001,-178.2862 56.0001,-178.2861"/>
</g>
</g>
</svg>
