<?xml version="1.0" encoding="UTF-8" standalone="no"?>
<!DOCTYPE svg PUBLIC "-//W3C//DTD SVG 1.1//EN"
 "http://www.w3.org/Graphics/SVG/1.1/DTD/svg11.dtd">
<!-- Generated by graphviz version 2.40.1 (20161225.0304)
 -->
<!-- Title: Frame Pages: 1 -->
<svg width="424pt" height="556pt"
 viewBox="0.00 0.00 423.50 556.00" xmlns="http://www.w3.org/2000/svg" xmlns:xlink="http://www.w3.org/1999/xlink">
<g id="graph0" class="graph" transform="scale(1 1) rotate(0) translate(4 552)">
<title>Frame</title>
<!-- Node2 -->
<g id="node1" class="node">
<title>Node2</title>
<polygon fill="#bfbfbf" stroke="#000000" points="0,-.5 0,-90.5 171,-90.5 171,-.5 0,-.5"/>
<text text-anchor="middle" x="85.5" y="-78.5" font-family="Helvetica,sans-Serif" font-size="10.00" fill="#000000">Frame</text>
<polyline fill="none" stroke="#000000" points="0,-71.5 171,-71.5 "/>
<text text-anchor="middle" x="85.5" y="-59.5" font-family="Helvetica,sans-Serif" font-size="10.00" fill="#000000"> </text>
<polyline fill="none" stroke="#000000" points="0,-52.5 171,-52.5 "/>
<text text-anchor="start" x="8" y="-40.5" font-family="Helvetica,sans-Serif" font-size="10.00" fill="#000000">+ Frame()</text>
<text text-anchor="start" x="8" y="-29.5" font-family="Helvetica,sans-Serif" font-size="10.00" fill="#000000">+ ~Frame()</text>
<text text-anchor="start" x="8" y="-18.5" font-family="Helvetica,sans-Serif" font-size="10.00" fill="#000000">+ draw()</text>
<text text-anchor="start" x="8" y="-7.5" font-family="Helvetica,sans-Serif" font-size="10.00" fill="#000000">+ isMouseOverHoverableArea()</text>
</g>
<!-- Node3 -->
<g id="node2" class="node">
<title>Node3</title>
<g id="a_node2"><a xlink:href="classUIElement.html" target="_top" xlink:title="Base class for UI Elements Provides functions and variables for derived user interface elements...">
<polygon fill="none" stroke="#000000" points="77,-215.5 77,-547.5 232,-547.5 232,-215.5 77,-215.5"/>
<text text-anchor="middle" x="154.5" y="-535.5" font-family="Helvetica,sans-Serif" font-size="10.00" fill="#000000">UIElement</text>
<polyline fill="none" stroke="#000000" points="77,-528.5 232,-528.5 "/>
<text text-anchor="start" x="85" y="-516.5" font-family="Helvetica,sans-Serif" font-size="10.00" fill="#000000"># m_texture</text>
<text text-anchor="start" x="85" y="-505.5" font-family="Helvetica,sans-Serif" font-size="10.00" fill="#000000"># m_uiElementRect</text>
<text text-anchor="start" x="85" y="-494.5" font-family="Helvetica,sans-Serif" font-size="10.00" fill="#000000"># m_uiElementClipRect</text>
<text text-anchor="start" x="85" y="-483.5" font-family="Helvetica,sans-Serif" font-size="10.00" fill="#000000"># m_uiTextureRect</text>
<text text-anchor="start" x="85" y="-472.5" font-family="Helvetica,sans-Serif" font-size="10.00" fill="#000000">&#45; m_renderer</text>
<text text-anchor="start" x="85" y="-461.5" font-family="Helvetica,sans-Serif" font-size="10.00" fill="#000000">&#45; m_window</text>
<text text-anchor="start" x="85" y="-450.5" font-family="Helvetica,sans-Serif" font-size="10.00" fill="#000000">&#45; m_buttonState</text>
<text text-anchor="start" x="85" y="-439.5" font-family="Helvetica,sans-Serif" font-size="10.00" fill="#000000">&#45; m_visible</text>
<text text-anchor="start" x="85" y="-428.5" font-family="Helvetica,sans-Serif" font-size="10.00" fill="#000000">&#45; m_directTexture</text>
<polyline fill="none" stroke="#000000" points="77,-421.5 232,-421.5 "/>
<text text-anchor="start" x="85" y="-409.5" font-family="Helvetica,sans-Serif" font-size="10.00" fill="#000000">+ UIElement()</text>
<text text-anchor="start" x="85" y="-398.5" font-family="Helvetica,sans-Serif" font-size="10.00" fill="#000000">+ UIElement()</text>
<text text-anchor="start" x="85" y="-387.5" font-family="Helvetica,sans-Serif" font-size="10.00" fill="#000000">+ ~UIElement()</text>
<text text-anchor="start" x="85" y="-376.5" font-family="Helvetica,sans-Serif" font-size="10.00" fill="#000000">+ registerCallbackFunction()</text>
<text text-anchor="start" x="85" y="-365.5" font-family="Helvetica,sans-Serif" font-size="10.00" fill="#000000">+ registerCallbackFunction()</text>
<text text-anchor="start" x="85" y="-354.5" font-family="Helvetica,sans-Serif" font-size="10.00" fill="#000000">+ registerCallbackFunction()</text>
<text text-anchor="start" x="85" y="-343.5" font-family="Helvetica,sans-Serif" font-size="10.00" fill="#000000">+ onMouseButtonUp()</text>
<text text-anchor="start" x="85" y="-332.5" font-family="Helvetica,sans-Serif" font-size="10.00" fill="#000000">+ onMouseButtonDown()</text>
<text text-anchor="start" x="85" y="-321.5" font-family="Helvetica,sans-Serif" font-size="10.00" fill="#000000">+ onMouseEnter()</text>
<text text-anchor="start" x="85" y="-310.5" font-family="Helvetica,sans-Serif" font-size="10.00" fill="#000000">+ onMouseLeave()</text>
<text text-anchor="start" x="85" y="-299.5" font-family="Helvetica,sans-Serif" font-size="10.00" fill="#000000">and 24 more...</text>
<text text-anchor="start" x="85" y="-288.5" font-family="Helvetica,sans-Serif" font-size="10.00" fill="#000000"># renderTexture()</text>
<text text-anchor="start" x="85" y="-277.5" font-family="Helvetica,sans-Serif" font-size="10.00" fill="#000000"># drawSolidRect()</text>
<text text-anchor="start" x="85" y="-266.5" font-family="Helvetica,sans-Serif" font-size="10.00" fill="#000000"># drawLine()</text>
<text text-anchor="start" x="85" y="-255.5" font-family="Helvetica,sans-Serif" font-size="10.00" fill="#000000"># drawTextFrame()</text>
<text text-anchor="start" x="85" y="-244.5" font-family="Helvetica,sans-Serif" font-size="10.00" fill="#000000"># drawButtonFrame()</text>
<text text-anchor="start" x="85" y="-233.5" font-family="Helvetica,sans-Serif" font-size="10.00" fill="#000000"># drawFrame()</text>
<text text-anchor="start" x="85" y="-222.5" font-family="Helvetica,sans-Serif" font-size="10.00" fill="#000000"># changeTexture()</text>
</a>
</g>
</g>
<!-- Node3&#45;&gt;Node2 -->
<g id="edge1" class="edge">
<title>Node3&#45;&gt;Node2</title>
<path fill="none" stroke="#191970" d="M118.3584,-205.5062C109.61,-162.9052 101.0026,-120.9911 94.7933,-90.7545"/>
<polygon fill="none" stroke="#191970" points="114.9642,-206.3772 120.4043,-215.4687 121.8211,-204.969 114.9642,-206.3772"/>
</g>
<!-- Node4 -->
<g id="node3" class="node">
<title>Node4</title>
<g id="a_node3"><a xlink:href="structUIElement_1_1ElementData.html" target="_top" xlink:title="{UIElement::ElementData\n|+ isToggleButton\l|}">
<polygon fill="none" stroke="#000000" points="189,-17 189,-74 326,-74 326,-17 189,-17"/>
<text text-anchor="middle" x="257.5" y="-62" font-family="Helvetica,sans-Serif" font-size="10.00" fill="#000000">UIElement::ElementData</text>
<polyline fill="none" stroke="#000000" points="189,-55 326,-55 "/>
<text text-anchor="start" x="197" y="-43" font-family="Helvetica,sans-Serif" font-size="10.00" fill="#000000">+ isToggleButton</text>
<polyline fill="none" stroke="#000000" points="189,-36 326,-36 "/>
<text text-anchor="middle" x="257.5" y="-24" font-family="Helvetica,sans-Serif" font-size="10.00" fill="#000000"> </text>
</a>
</g>
</g>
<!-- Node3&#45;&gt;Node4 -->
<g id="edge4" class="edge">
<title>Node3&#45;&gt;Node4</title>
<path fill="none" stroke="#404040" d="M125.7928,-215.3303C126.5664,-178.4612 133.4233,-140.9011 151.5,-109 152.2687,-107.6435 174.2125,-94.4159 197.9347,-80.3824"/>
<polygon fill="none" stroke="#404040" points="198.1856,-80.2343 201.3198,-73.7399 208.5201,-74.1351 205.3859,-80.6295 198.1856,-80.2343"/>
<text text-anchor="middle" x="173" y="-150.5" font-family="Helvetica,sans-Serif" font-size="10.00" fill="#000000"> +parent</text>
</g>
<!-- Node4&#45;&gt;Node3 -->
<g id="edge2" class="edge">
<title>Node4&#45;&gt;Node3</title>
<path fill="none" stroke="#404040" d="M236.5254,-74.0626C229.6023,-84.608 222.4221,-96.9363 217.5,-109 202.3845,-146.0474 207.3637,-157.9818 198.5,-197 198.0361,-199.0421 197.5681,-201.0966 197.0965,-203.1616"/>
<polygon fill="none" stroke="#404040" points="197.0432,-203.3943 199.5999,-210.137 194.3593,-215.0904 191.8026,-208.3477 197.0432,-203.3943"/>
<text text-anchor="middle" x="255.5" y="-150.5" font-family="Helvetica,sans-Serif" font-size="10.00" fill="#000000"> #elementData</text>
</g>
<!-- Node5 -->
<g id="node4" class="node">
<title>Node5</title>
<polygon fill="none" stroke="#bfbfbf" points="297.5,-353 297.5,-410 341.5,-410 341.5,-353 297.5,-353"/>
<text text-anchor="middle" x="319.5" y="-398" font-family="Helvetica,sans-Serif" font-size="10.00" fill="#000000">string</text>
<polyline fill="none" stroke="#bfbfbf" points="297.5,-391 341.5,-391 "/>
<text text-anchor="middle" x="319.5" y="-379" font-family="Helvetica,sans-Serif" font-size="10.00" fill="#000000"> </text>
<polyline fill="none" stroke="#bfbfbf" points="297.5,-372 341.5,-372 "/>
<text text-anchor="middle" x="319.5" y="-360" font-family="Helvetica,sans-Serif" font-size="10.00" fill="#000000"> </text>
</g>
<!-- Node5&#45;&gt;Node4 -->
<g id="edge3" class="edge">
<title>Node5&#45;&gt;Node4</title>
<path fill="none" stroke="#404040" d="M321.5901,-352.764C324.3217,-302.08 325.8327,-194.1131 297.5,-109 294.6991,-100.5859 290.5601,-92.1574 285.9925,-84.3167"/>
<polygon fill="none" stroke="#404040" points="285.9363,-84.2267 279.3665,-81.2539 279.5837,-74.046 286.1535,-77.0188 285.9363,-84.2267"/>
<text text-anchor="middle" x="366.5" y="-189" font-family="Helvetica,sans-Serif" font-size="10.00" fill="#000000"> +actionParameter</text>
<text text-anchor="middle" x="366.5" y="-178" font-family="Helvetica,sans-Serif" font-size="10.00" fill="#000000">+buildMenuID</text>
<text text-anchor="middle" x="366.5" y="-167" font-family="Helvetica,sans-Serif" font-size="10.00" fill="#000000">+actionID</text>
<text text-anchor="middle" x="366.5" y="-156" font-family="Helvetica,sans-Serif" font-size="10.00" fill="#000000">+text</text>
<text text-anchor="middle" x="366.5" y="-145" font-family="Helvetica,sans-Serif" font-size="10.00" fill="#000000">+elementID</text>
<text text-anchor="middle" x="366.5" y="-134" font-family="Helvetica,sans-Serif" font-size="10.00" fill="#000000">+layoutGroupName</text>
<text text-anchor="middle" x="366.5" y="-123" font-family="Helvetica,sans-Serif" font-size="10.00" fill="#000000">+tooltipText</text>
<text text-anchor="middle" x="366.5" y="-112" font-family="Helvetica,sans-Serif" font-size="10.00" fill="#000000">+textureID</text>
</g>
</g>
</svg>
