<?xml version="1.0" encoding="UTF-8" standalone="no"?>
<!DOCTYPE svg PUBLIC "-//W3C//DTD SVG 1.1//EN"
 "http://www.w3.org/Graphics/SVG/1.1/DTD/svg11.dtd">
<!-- Generated by graphviz version 2.40.1 (20161225.0304)
 -->
<!-- Title: Map::demolishNode Pages: 1 -->
<!--zoomable 348 -->
<svg id="main" version="1.1" xmlns="http://www.w3.org/2000/svg" xmlns:xlink="http://www.w3.org/1999/xlink" xml:space="preserve" onload="init(evt)">
<style type="text/css"><![CDATA[
.edge:hover path { stroke: red; }
.edge:hover polygon { stroke: red; fill: red; }
]]></style>
<script type="text/javascript"><![CDATA[
var edges = document.getElementsByTagName('g');
if (edges && edges.length) {
  for (var i=0;i<edges.length;i++) {
    if (edges[i].id.substr(0,4)=='edge') {
      edges[i].setAttribute('class','edge');
    }
  }
}
]]></script>
        <defs>
                <circle id="rim" cx="0" cy="0" r="7"/>
                <circle id="rim2" cx="0" cy="0" r="3.5"/>
                <g id="zoomPlus">
                        <use xlink:href="#rim" fill="#404040">
                                <set attributeName="fill" to="#808080" begin="zoomplus.mouseover" end="zoomplus.mouseout"/>
                        </use>
                        <path d="M-4,0h8M0,-4v8" fill="none" stroke="white" stroke-width="1.5" pointer-events="none"/>
                </g>
                <g id="zoomMin">
                        <use xlink:href="#rim" fill="#404040">
                                <set attributeName="fill" to="#808080" begin="zoomminus.mouseover" end="zoomminus.mouseout"/>
                        </use>
                        <path d="M-4,0h8" fill="none" stroke="white" stroke-width="1.5" pointer-events="none"/>
                </g>
                <g id="dirArrow">
                        <path fill="none" stroke="white" stroke-width="1.5" d="M0,-3.0v7 M-2.5,-0.5L0,-3.0L2.5,-0.5"/>
                </g>
               <g id="resetDef">
                       <use xlink:href="#rim2" fill="#404040">
                               <set attributeName="fill" to="#808080" begin="reset.mouseover" end="reset.mouseout"/>
                       </use>
               </g>
        </defs>

<script type="text/javascript">
var viewWidth = 868;
var viewHeight = 348;
var sectionId = 'dynsection-7';
</script>
<script xlink:href="svgpan.js"/>
<svg id="graph" class="graph">
<g id="viewport">
<title>Map::demolishNode</title>
<!-- Node78 -->
<g id="node1" class="node">
<title>Node78</title>
<polygon fill="#bfbfbf" stroke="#000000" points="0,-159.5953 0,-178.5953 113,-178.5953 113,-159.5953 0,-159.5953"/>
<text text-anchor="middle" x="56.5" y="-166.5953" font-family="Helvetica,sans-Serif" font-size="10.00" fill="#000000">Map::demolishNode</text>
</g>
<!-- Node79 -->
<g id="node2" class="node">
<title>Node79</title>
<g id="a_node2"><a xlink:href="isoMath_8cxx.html#a7fa61c3d8ef446fb1c48dc4838023649" target="_top" xlink:title="Check if given coordinates are within map boundaries Checks if coordinates are within map boundaries...">
<polygon fill="none" stroke="#000000" points="555,-99.5953 555,-118.5953 711,-118.5953 711,-99.5953 555,-99.5953"/>
<text text-anchor="middle" x="633" y="-106.5953" font-family="Helvetica,sans-Serif" font-size="10.00" fill="#000000">isPointWithinMapBoundaries</text>
</a>
</g>
</g>
<!-- Node78&#45;&gt;Node79 -->
<g id="edge1" class="edge">
<title>Node78&#45;&gt;Node79</title>
<path fill="none" stroke="#191970" d="M60.7658,-159.2648C71.5581,-135.7681 102.442,-76.4956 149,-52.0953 294.7436,24.2863 360.652,5.6401 519,-39.0953 555.9302,-49.5286 592.68,-75.6557 614.0971,-92.8711"/>
<polygon fill="#191970" stroke="#191970" points="612.0939,-95.7556 622.0367,-99.4149 616.546,-90.3539 612.0939,-95.7556"/>
</g>
<!-- Node81 -->
<g id="node4" class="node">
<title>Node81</title>
<g id="a_node4"><a xlink:href="classMapNode.html#a6b57e4355d0780fb37c34d63bbcdfdf9" target="_top" xlink:title="MapNode::getMapNodeDataFor\lLayer">
<polygon fill="none" stroke="#000000" points="149,-236.0953 149,-266.0953 317,-266.0953 317,-236.0953 149,-236.0953"/>
<text text-anchor="start" x="157" y="-254.0953" font-family="Helvetica,sans-Serif" font-size="10.00" fill="#000000">MapNode::getMapNodeDataFor</text>
<text text-anchor="middle" x="233" y="-243.0953" font-family="Helvetica,sans-Serif" font-size="10.00" fill="#000000">Layer</text>
</a>
</g>
</g>
<!-- Node78&#45;&gt;Node81 -->
<g id="edge3" class="edge">
<title>Node78&#45;&gt;Node81</title>
<path fill="none" stroke="#191970" d="M71.7922,-178.755C89.8011,-189.8774 120.8363,-208.2613 149,-221.0953 157.7851,-225.0986 167.2731,-228.9313 176.6006,-232.439"/>
<polygon fill="#191970" stroke="#191970" points="175.633,-235.8121 186.2266,-235.9703 178.0439,-229.2403 175.633,-235.8121"/>
</g>
<!-- Node82 -->
<g id="node5" class="node">
<title>Node82</title>
<g id="a_node5"><a xlink:href="classMap.html#ab6685363fde5a50c749adab9df96c231" target="_top" xlink:title="whether a node is a multiobject or not (bigger than 1x1 building) ">
<polygon fill="none" stroke="#000000" points="167,-61.5953 167,-80.5953 299,-80.5953 299,-61.5953 167,-61.5953"/>
<text text-anchor="middle" x="233" y="-68.5953" font-family="Helvetica,sans-Serif" font-size="10.00" fill="#000000">Map::isNodeMultiObject</text>
</a>
</g>
</g>
<!-- Node78&#45;&gt;Node82 -->
<g id="edge4" class="edge">
<title>Node78&#45;&gt;Node82</title>
<path fill="none" stroke="#191970" d="M72.0369,-159.4474C90.2756,-148.2179 121.5266,-129.2751 149,-114.0953 167.2205,-104.028 188.0474,-93.3612 204.4048,-85.1701"/>
<polygon fill="#191970" stroke="#191970" points="206.0754,-88.2482 213.4659,-80.6566 202.9543,-81.9825 206.0754,-88.2482"/>
</g>
<!-- Node84 -->
<g id="node7" class="node">
<title>Node84</title>
<g id="a_node7"><a xlink:href="classMap.html#a3952b445c55efce61c1ccac6f362fe89" target="_top" xlink:title="Return vector of Points of an Object Tiles selection. ">
<polygon fill="none" stroke="#000000" points="171,-301.5953 171,-320.5953 295,-320.5953 295,-301.5953 171,-301.5953"/>
<text text-anchor="middle" x="233" y="-308.5953" font-family="Helvetica,sans-Serif" font-size="10.00" fill="#000000">Map::getObjectCoords</text>
</a>
</g>
</g>
<!-- Node78&#45;&gt;Node84 -->
<g id="edge7" class="edge">
<title>Node78&#45;&gt;Node84</title>
<path fill="none" stroke="#191970" d="M62.527,-178.6947C75.8174,-199.1726 109.6101,-247.5939 149,-276.0953 161.5834,-285.2003 176.8904,-292.4739 190.9732,-297.98"/>
<polygon fill="#191970" stroke="#191970" points="189.8858,-301.3097 200.4788,-301.5102 192.3229,-294.7476 189.8858,-301.3097"/>
</g>
<!-- Node86 -->
<g id="node9" class="node">
<title>Node86</title>
<g id="a_node9"><a xlink:href="classMap.html#a59d21f2688713fbcfe320eb1b24405ca" target="_top" xlink:title="Update mapNode and its adjacent tiles Updates mapNode height information, draws slopes for adjacent t...">
<polygon fill="none" stroke="#000000" points="151.5,-159.5953 151.5,-178.5953 314.5,-178.5953 314.5,-159.5953 151.5,-159.5953"/>
<text text-anchor="middle" x="233" y="-166.5953" font-family="Helvetica,sans-Serif" font-size="10.00" fill="#000000">Map::updateNeighborsOfNode</text>
</a>
</g>
</g>
<!-- Node78&#45;&gt;Node86 -->
<g id="edge10" class="edge">
<title>Node78&#45;&gt;Node86</title>
<path fill="none" stroke="#191970" d="M113.3172,-162.7412C122.198,-162.5082 131.5673,-162.3781 140.9938,-162.3508"/>
<polygon fill="#191970" stroke="#191970" points="141.2209,-165.8509 151.2246,-162.3615 141.2283,-158.8509 141.2209,-165.8509"/>
</g>
<!-- Node80 -->
<g id="node3" class="node">
<title>Node80</title>
<g id="a_node3"><a xlink:href="classSingleton.html#af5cb1e5749949e2b68416cfb8d378044" target="_top" xlink:title="Get an instance of the singleton. ">
<polygon fill="none" stroke="#000000" points="747,-220.0953 747,-250.0953 860,-250.0953 860,-220.0953 747,-220.0953"/>
<text text-anchor="start" x="755" y="-238.0953" font-family="Helvetica,sans-Serif" font-size="10.00" fill="#000000">Singleton&lt; Settings</text>
<text text-anchor="middle" x="803.5" y="-227.0953" font-family="Helvetica,sans-Serif" font-size="10.00" fill="#000000"> &gt;::instance</text>
</a>
</g>
</g>
<!-- Node79&#45;&gt;Node80 -->
<g id="edge2" class="edge">
<title>Node79&#45;&gt;Node80</title>
<path fill="none" stroke="#191970" d="M646.0957,-118.7731C673.4559,-138.9924 737.2382,-186.1277 774.6736,-213.7925"/>
<polygon fill="#191970" stroke="#191970" points="773.0143,-216.9183 783.1367,-220.0468 777.1746,-211.2887 773.0143,-216.9183"/>
</g>
<!-- Node82&#45;&gt;Node79 -->
<g id="edge5" class="edge">
<title>Node82&#45;&gt;Node79</title>
<path fill="none" stroke="#191970" d="M271.0651,-61.5215C326.4339,-49.1713 432.0663,-31.5731 519,-52.0953 552.9189,-60.1025 588.2522,-79.8324 610.4207,-93.8297"/>
<polygon fill="#191970" stroke="#191970" points="608.7756,-96.9339 619.073,-99.4267 612.5776,-91.0564 608.7756,-96.9339"/>
</g>
<!-- Node83 -->
<g id="node6" class="node">
<title>Node83</title>
<g id="a_node6"><a xlink:href="classMapNode.html#adf88174897b884c97d327e710dea7f5e" target="_top" xlink:title="MapNode::getTileData">
<polygon fill="none" stroke="#000000" points="373.5,-61.5953 373.5,-80.5953 498.5,-80.5953 498.5,-61.5953 373.5,-61.5953"/>
<text text-anchor="middle" x="436" y="-68.5953" font-family="Helvetica,sans-Serif" font-size="10.00" fill="#000000">MapNode::getTileData</text>
</a>
</g>
</g>
<!-- Node82&#45;&gt;Node83 -->
<g id="edge6" class="edge">
<title>Node82&#45;&gt;Node83</title>
<path fill="none" stroke="#191970" d="M299.1889,-71.0953C319.6717,-71.0953 342.3463,-71.0953 363.2481,-71.0953"/>
<polygon fill="#191970" stroke="#191970" points="363.3493,-74.5954 373.3492,-71.0953 363.3492,-67.5954 363.3493,-74.5954"/>
</g>
<!-- Node84&#45;&gt;Node80 -->
<g id="edge8" class="edge">
<title>Node84&#45;&gt;Node80</title>
<path fill="none" stroke="#191970" d="M281.8361,-320.6085C303.5361,-324.3741 329.4488,-328.2424 353,-330.0953 512.512,-342.6452 562.0454,-350.5257 711,-292.0953 733.8793,-283.1205 757.4297,-268.5167 775.0418,-256.3383"/>
<polygon fill="#191970" stroke="#191970" points="777.5311,-258.8648 783.6755,-250.2336 773.4897,-253.1492 777.5311,-258.8648"/>
</g>
<!-- Node85 -->
<g id="node8" class="node">
<title>Node85</title>
<g id="a_node8"><a xlink:href="classTileManager.html#a8ee071ff8b24926288437d310f9bc714" target="_top" xlink:title="TileManager::getTileData">
<polygon fill="none" stroke="#000000" points="366,-301.5953 366,-320.5953 506,-320.5953 506,-301.5953 366,-301.5953"/>
<text text-anchor="middle" x="436" y="-308.5953" font-family="Helvetica,sans-Serif" font-size="10.00" fill="#000000">TileManager::getTileData</text>
</a>
</g>
</g>
<!-- Node84&#45;&gt;Node85 -->
<g id="edge9" class="edge">
<title>Node84&#45;&gt;Node85</title>
<path fill="none" stroke="#191970" d="M295.0097,-311.0953C314.1611,-311.0953 335.5346,-311.0953 355.7337,-311.0953"/>
<polygon fill="#191970" stroke="#191970" points="355.8547,-314.5954 365.8547,-311.0953 355.8546,-307.5954 355.8547,-314.5954"/>
</g>
<!-- Node86&#45;&gt;Node78 -->
<g id="edge13" class="edge">
<title>Node86&#45;&gt;Node78</title>
<path fill="none" stroke="#191970" d="M151.2246,-175.8292C141.9132,-175.8757 132.5052,-175.8217 123.4182,-175.6669"/>
<polygon fill="#191970" stroke="#191970" points="123.3903,-172.1656 113.3172,-175.4494 123.2395,-179.164 123.3903,-172.1656"/>
</g>
<!-- Node87 -->
<g id="node10" class="node">
<title>Node87</title>
<g id="a_node10"><a xlink:href="classMap.html#aab37e4a52faf81e9b696b8cf1bd9a690" target="_top" xlink:title="Get neighbor MapNode Objects Stores pointers to the neighboring nodes of the given coordinates in the...">
<polygon fill="none" stroke="#000000" points="579,-187.5953 579,-206.5953 687,-206.5953 687,-187.5953 579,-187.5953"/>
<text text-anchor="middle" x="633" y="-194.5953" font-family="Helvetica,sans-Serif" font-size="10.00" fill="#000000">Map::getNeighbors</text>
</a>
</g>
</g>
<!-- Node86&#45;&gt;Node87 -->
<g id="edge11" class="edge">
<title>Node86&#45;&gt;Node87</title>
<path fill="none" stroke="#191970" d="M314.6504,-175.2974C327.4831,-176.2496 340.6009,-177.2097 353,-178.0953 426.8886,-183.373 511.7722,-189.0834 568.5297,-192.8511"/>
<polygon fill="#191970" stroke="#191970" points="568.5816,-196.3621 578.7913,-193.5314 569.0448,-189.3775 568.5816,-196.3621"/>
</g>
<!-- Node88 -->
<g id="node11" class="node">
<title>Node88</title>
<g id="a_node11"><a xlink:href="classMap.html#a0ff55eb041cdf29aa582a21145319ce0" target="_top" xlink:title="Get elevated neighbor positions in a bitmask Checks all neighboring tiles and returns the elevated ne...">
<polygon fill="none" stroke="#000000" points="363,-138.0953 363,-168.0953 509,-168.0953 509,-138.0953 363,-138.0953"/>
<text text-anchor="start" x="371" y="-156.0953" font-family="Helvetica,sans-Serif" font-size="10.00" fill="#000000">Map::getElevatedNeighbor</text>
<text text-anchor="middle" x="436" y="-145.0953" font-family="Helvetica,sans-Serif" font-size="10.00" fill="#000000">Bitmask</text>
</a>
</g>
</g>
<!-- Node86&#45;&gt;Node88 -->
<g id="edge12" class="edge">
<title>Node86&#45;&gt;Node88</title>
<path fill="none" stroke="#191970" d="M314.6904,-162.6567C327.2957,-161.6632 340.3251,-160.6362 352.9596,-159.6404"/>
<polygon fill="#191970" stroke="#191970" points="353.2978,-163.1247 362.9919,-158.8497 352.7477,-156.1463 353.2978,-163.1247"/>
</g>
<!-- Node89 -->
<g id="node12" class="node">
<title>Node89</title>
<g id="a_node12"><a xlink:href="classMap.html#a3f5c7dd50cdc712e1ef18047cf619888" target="_top" xlink:title="Get a bitmask that represents same&#45;tile neighbors Checks all neighboring tiles and returns the elevat...">
<polygon fill="none" stroke="#000000" points="353,-263.5953 353,-282.5953 519,-282.5953 519,-263.5953 353,-263.5953"/>
<text text-anchor="middle" x="436" y="-270.5953" font-family="Helvetica,sans-Serif" font-size="10.00" fill="#000000">Map::calculateAutotileBitmask</text>
</a>
</g>
</g>
<!-- Node86&#45;&gt;Node89 -->
<g id="edge14" class="edge">
<title>Node86&#45;&gt;Node89</title>
<path fill="none" stroke="#191970" d="M247.3875,-178.7782C264.2116,-190.1588 292.8362,-209.7018 317,-227.0953 333.2321,-238.7795 334.8564,-245.6804 353,-254.0953 358.3264,-256.5657 363.998,-258.7269 369.7794,-260.6154"/>
<polygon fill="#191970" stroke="#191970" points="368.9878,-264.0317 379.5713,-263.5425 370.9927,-257.3249 368.9878,-264.0317"/>
</g>
<!-- Node91 -->
<g id="node14" class="node">
<title>Node91</title>
<g id="a_node14"><a xlink:href="classMap.html#aba5154a4d917900679a3c0f7ec701561" target="_top" xlink:title="Increase Height Increases the height of the node and checks the surrounding tiles. Either draw a slope sprite or elevate the tile if necessary. ">
<polygon fill="none" stroke="#000000" points="378,-225.5953 378,-244.5953 494,-244.5953 494,-225.5953 378,-225.5953"/>
<text text-anchor="middle" x="436" y="-232.5953" font-family="Helvetica,sans-Serif" font-size="10.00" fill="#000000">Map::increaseHeight</text>
</a>
</g>
</g>
<!-- Node86&#45;&gt;Node91 -->
<g id="edge16" class="edge">
<title>Node86&#45;&gt;Node91</title>
<path fill="none" stroke="#191970" d="M302.1061,-178.7413C307.183,-180.4297 312.194,-182.2259 317,-184.0953 333.6717,-190.5803 336.3387,-195.5838 353,-202.0953 372.6685,-209.7821 395.8054,-216.2726 412.6478,-222.0547"/>
<polygon fill="#191970" stroke="#191970" points="411.6401,-225.413 422.2338,-225.5677 414.0488,-218.8405 411.6401,-225.413"/>
</g>
<!-- Node92 -->
<g id="node15" class="node">
<title>Node92</title>
<g id="a_node15"><a xlink:href="classMap.html#afb8cc864df90d273a5074872d635dc40" target="_top" xlink:title="Decrease Height Decreases the height of the node and checks the surrounding tiles. Either draw a slope sprite or lower the tile if necessary. ">
<polygon fill="none" stroke="#000000" points="376.5,-99.5953 376.5,-118.5953 495.5,-118.5953 495.5,-99.5953 376.5,-99.5953"/>
<text text-anchor="middle" x="436" y="-106.5953" font-family="Helvetica,sans-Serif" font-size="10.00" fill="#000000">Map::decreaseHeight</text>
</a>
</g>
</g>
<!-- Node86&#45;&gt;Node92 -->
<g id="edge22" class="edge">
<title>Node86&#45;&gt;Node92</title>
<path fill="none" stroke="#191970" d="M244.4553,-159.5804C260.6639,-151.5135 291.194,-141.899 317,-133.0953 333.1001,-127.6028 336.7064,-124.9841 353,-120.0953 357.35,-118.7901 361.8478,-117.5109 366.3955,-116.2854"/>
<polygon fill="#191970" stroke="#191970" points="367.5885,-119.5921 376.3935,-113.6996 365.8356,-112.8151 367.5885,-119.5921"/>
</g>
<!-- Node90 -->
<g id="node13" class="node">
<title>Node90</title>
<g id="a_node13"><a xlink:href="classMap.html#a4700614f8c7d02b9ca18ad7e916a2312" target="_top" xlink:title="Map::isLayerAutoTile">
<polygon fill="none" stroke="#000000" points="573.5,-263.5953 573.5,-282.5953 692.5,-282.5953 692.5,-263.5953 573.5,-263.5953"/>
<text text-anchor="middle" x="633" y="-270.5953" font-family="Helvetica,sans-Serif" font-size="10.00" fill="#000000">Map::isLayerAutoTile</text>
</a>
</g>
</g>
<!-- Node89&#45;&gt;Node90 -->
<g id="edge15" class="edge">
<title>Node89&#45;&gt;Node90</title>
<path fill="none" stroke="#191970" d="M519.2602,-273.0953C533.8789,-273.0953 548.9566,-273.0953 563.1629,-273.0953"/>
<polygon fill="#191970" stroke="#191970" points="563.3344,-276.5954 573.3343,-273.0953 563.3343,-269.5954 563.3344,-276.5954"/>
</g>
<!-- Node91&#45;&gt;Node78 -->
<g id="edge20" class="edge">
<title>Node91&#45;&gt;Node78</title>
<path fill="none" stroke="#191970" d="M377.8884,-226.2816C319.8273,-217.3103 228.0709,-202.6844 149,-188.0953 136.6602,-185.8186 123.4306,-183.2048 110.9464,-180.6591"/>
<polygon fill="#191970" stroke="#191970" points="111.6252,-177.2255 101.1252,-178.6398 110.2154,-184.0821 111.6252,-177.2255"/>
</g>
<!-- Node91&#45;&gt;Node79 -->
<g id="edge19" class="edge">
<title>Node91&#45;&gt;Node79</title>
<path fill="none" stroke="#191970" d="M451.1312,-225.4175C485.3063,-203.5593 568.6634,-150.2446 609.573,-124.0791"/>
<polygon fill="#191970" stroke="#191970" points="611.5485,-126.9703 618.087,-118.6336 607.7768,-121.0733 611.5485,-126.9703"/>
</g>
<!-- Node91&#45;&gt;Node80 -->
<g id="edge17" class="edge">
<title>Node91&#45;&gt;Node80</title>
<path fill="none" stroke="#191970" d="M494.2315,-235.0953C560.07,-235.0953 667.0906,-235.0953 736.3857,-235.0953"/>
<polygon fill="#191970" stroke="#191970" points="736.7486,-238.5954 746.7485,-235.0953 736.7485,-231.5954 736.7486,-238.5954"/>
</g>
<!-- Node91&#45;&gt;Node86 -->
<g id="edge21" class="edge">
<title>Node91&#45;&gt;Node86</title>
<path fill="none" stroke="#191970" d="M377.9481,-228.6774C369.4955,-226.1237 360.9635,-223.2076 353,-220.0953 336.3387,-213.5838 333.6717,-208.5803 317,-202.0953 297.1003,-194.3547 273.6842,-187.8695 256.6372,-182.1032"/>
<polygon fill="#191970" stroke="#191970" points="257.5288,-178.704 246.9344,-178.6009 255.1521,-185.2882 257.5288,-178.704"/>
</g>
<!-- Node91&#45;&gt;Node87 -->
<g id="edge18" class="edge">
<title>Node91&#45;&gt;Node87</title>
<path fill="none" stroke="#191970" d="M485.4571,-225.5554C512.154,-220.4057 545.304,-214.0113 573.4151,-208.5889"/>
<polygon fill="#191970" stroke="#191970" points="574.3665,-211.97 583.5225,-206.6392 573.0406,-205.0967 574.3665,-211.97"/>
</g>
<!-- Node92&#45;&gt;Node78 -->
<g id="edge25" class="edge">
<title>Node92&#45;&gt;Node78</title>
<path fill="none" stroke="#191970" d="M376.4702,-116.528C318.3095,-124.0422 227.3482,-136.4654 149,-150.0953 136.3827,-152.2903 122.8527,-154.9149 110.1417,-157.5025"/>
<polygon fill="#191970" stroke="#191970" points="109.2438,-154.1139 100.1564,-159.5608 110.6572,-160.9697 109.2438,-154.1139"/>
</g>
<!-- Node92&#45;&gt;Node79 -->
<g id="edge24" class="edge">
<title>Node92&#45;&gt;Node79</title>
<path fill="none" stroke="#191970" d="M495.6411,-109.0953C511.1152,-109.0953 528.113,-109.0953 544.7192,-109.0953"/>
<polygon fill="#191970" stroke="#191970" points="544.9912,-112.5954 554.9912,-109.0953 544.9912,-105.5954 544.9912,-112.5954"/>
</g>
<!-- Node92&#45;&gt;Node86 -->
<g id="edge26" class="edge">
<title>Node92&#45;&gt;Node86</title>
<path fill="none" stroke="#191970" d="M421.1759,-118.6973C404.4695,-124.714 376.5668,-131.0242 353,-138.0953 336.7064,-142.9841 333.1001,-145.6028 317,-151.0953 311.8352,-152.8573 306.4811,-154.6518 301.0905,-156.4113"/>
<polygon fill="#191970" stroke="#191970" points="299.8338,-153.1386 291.381,-159.5261 301.9722,-159.8041 299.8338,-153.1386"/>
</g>
<!-- Node92&#45;&gt;Node87 -->
<g id="edge23" class="edge">
<title>Node92&#45;&gt;Node87</title>
<path fill="none" stroke="#191970" d="M486.3648,-118.6571C497.3199,-121.4438 508.7061,-124.8983 519,-129.0953 553.3226,-143.0894 589.5167,-166.3412 611.6823,-181.6938"/>
<polygon fill="#191970" stroke="#191970" points="609.8102,-184.656 620.0036,-187.5448 613.8365,-178.9298 609.8102,-184.656"/>
</g>
</g>
</svg>
        <g id="navigator" transform="translate(0 0)" fill="#404254">
                <rect fill="#f2f5e9" fill-opacity="0.5" stroke="#606060" stroke-width=".5" x="0" y="0" width="60" height="60"/>
                <use id="zoomplus" xlink:href="#zoomPlus" x="17" y="9" onmousedown="handleZoom(evt,'in')"/>
                <use id="zoomminus" xlink:href="#zoomMin" x="42" y="9" onmousedown="handleZoom(evt,'out')"/>
                <use id="reset" xlink:href="#resetDef" x="30" y="36" onmousedown="handleReset()"/>
                <g id="arrowUp" xlink:href="#dirArrow" transform="translate(30 24)" onmousedown="handlePan(0,-1)">
                  <use xlink:href="#rim" fill="#404040">
                        <set attributeName="fill" to="#808080" begin="arrowUp.mouseover" end="arrowUp.mouseout"/>
                  </use>
                  <path fill="none" stroke="white" stroke-width="1.5" d="M0,-3.0v7 M-2.5,-0.5L0,-3.0L2.5,-0.5"/>
                </g>
                <g id="arrowRight" xlink:href="#dirArrow" transform="rotate(90) translate(36 -43)" onmousedown="handlePan(1,0)">
                  <use xlink:href="#rim" fill="#404040">
                        <set attributeName="fill" to="#808080" begin="arrowRight.mouseover" end="arrowRight.mouseout"/>
                  </use>
                  <path fill="none" stroke="white" stroke-width="1.5" d="M0,-3.0v7 M-2.5,-0.5L0,-3.0L2.5,-0.5"/>
                </g>
                <g id="arrowDown" xlink:href="#dirArrow" transform="rotate(180) translate(-30 -48)" onmousedown="handlePan(0,1)">
                  <use xlink:href="#rim" fill="#404040">
                        <set attributeName="fill" to="#808080" begin="arrowDown.mouseover" end="arrowDown.mouseout"/>
                  </use>
                  <path fill="none" stroke="white" stroke-width="1.5" d="M0,-3.0v7 M-2.5,-0.5L0,-3.0L2.5,-0.5"/>
                </g>
                <g id="arrowLeft" xlink:href="#dirArrow" transform="rotate(270) translate(-36 17)" onmousedown="handlePan(-1,0)">
                  <use xlink:href="#rim" fill="#404040">
                        <set attributeName="fill" to="#808080" begin="arrowLeft.mouseover" end="arrowLeft.mouseout"/>
                  </use>
                  <path fill="none" stroke="white" stroke-width="1.5" d="M0,-3.0v7 M-2.5,-0.5L0,-3.0L2.5,-0.5"/>
                </g>
        </g>
        <svg viewBox="0 0 15 15" width="100%" height="30px" preserveAspectRatio="xMaxYMin meet">
         <g id="arrow_out" transform="scale(0.3 0.3)">
          <a xlink:href="classMap_aa8cc2ed983007621bce12dd9d1b8ec5b_cgraph_org.svg" target="_base">
           <rect id="button" ry="5" rx="5" y="6" x="6" height="38" width="38"
                fill="#f2f5e9" fill-opacity="0.5" stroke="#606060" stroke-width="1.0"/>
           <path id="arrow"
             d="M 11.500037,31.436501 C 11.940474,20.09759 22.043105,11.32322 32.158766,21.979434 L 37.068811,17.246167 C 37.068811,17.246167 37.088388,32 37.088388,32 L 22.160133,31.978069 C 22.160133,31.978069 26.997745,27.140456 26.997745,27.140456 C 18.528582,18.264221 13.291696,25.230495 11.500037,31.436501 z"
             style="fill:#404040;"/>
          </a>
         </g>
        </svg>
</svg>
