<?xml version="1.0" encoding="UTF-8" standalone="no"?>
<!DOCTYPE svg PUBLIC "-//W3C//DTD SVG 1.1//EN"
 "http://www.w3.org/Graphics/SVG/1.1/DTD/svg11.dtd">
<!-- Generated by graphviz version 2.40.1 (20161225.0304)
 -->
<!-- Title: Camera::increaseZoomLevel Pages: 1 -->
<svg width="719pt" height="204pt"
 viewBox="0.00 0.00 719.00 203.97" xmlns="http://www.w3.org/2000/svg" xmlns:xlink="http://www.w3.org/1999/xlink">
<g id="graph0" class="graph" transform="scale(1 1) rotate(0) translate(4 199.9701)">
<title>Camera::increaseZoomLevel</title>
<!-- Node40 -->
<g id="node1" class="node">
<title>Node40</title>
<polygon fill="#bfbfbf" stroke="#000000" points="0,-44.4701 0,-63.4701 157,-63.4701 157,-44.4701 0,-44.4701"/>
<text text-anchor="middle" x="78.5" y="-51.4701" font-family="Helvetica,sans-Serif" font-size="10.00" fill="#000000">Camera::increaseZoomLevel</text>
</g>
<!-- Node41 -->
<g id="node2" class="node">
<title>Node41</title>
<g id="a_node2"><a xlink:href="classCamera.html#adfb240823ff20b97b69459490dbd8dc3" target="_top" xlink:title="Centers camera on given isometric coordinates Centers the camera on the given isometric coordinates...">
<polygon fill="none" stroke="#000000" points="193,-105.4701 193,-124.4701 356,-124.4701 356,-105.4701 193,-105.4701"/>
<text text-anchor="middle" x="274.5" y="-112.4701" font-family="Helvetica,sans-Serif" font-size="10.00" fill="#000000">Camera::centerScreenOnPoint</text>
</a>
</g>
</g>
<!-- Node40&#45;&gt;Node41 -->
<g id="edge1" class="edge">
<title>Node40&#45;&gt;Node41</title>
<path fill="none" stroke="#191970" d="M109.125,-63.5014C142.684,-73.9458 196.673,-90.7485 233.7799,-102.297"/>
<polygon fill="#191970" stroke="#191970" points="233.1789,-105.7755 243.7673,-105.4054 235.2591,-99.0917 233.1789,-105.7755"/>
</g>
<!-- Node43 -->
<g id="node4" class="node">
<title>Node43</title>
<g id="a_node4"><a xlink:href="classSingleton.html#af5cb1e5749949e2b68416cfb8d378044" target="_top" xlink:title="Get an instance of the singleton. ">
<polygon fill="none" stroke="#000000" points="598,-123.9701 598,-153.9701 711,-153.9701 711,-123.9701 598,-123.9701"/>
<text text-anchor="start" x="606" y="-141.9701" font-family="Helvetica,sans-Serif" font-size="10.00" fill="#000000">Singleton&lt; Settings</text>
<text text-anchor="middle" x="654.5" y="-130.9701" font-family="Helvetica,sans-Serif" font-size="10.00" fill="#000000"> &gt;::instance</text>
</a>
</g>
</g>
<!-- Node40&#45;&gt;Node43 -->
<g id="edge8" class="edge">
<title>Node40&#45;&gt;Node43</title>
<path fill="none" stroke="#191970" d="M107.1429,-44.409C184.6189,-20.2682 403.1666,36.3281 562,-34.9701 598.3222,-51.2747 626.2066,-89.6726 641.4685,-114.9706"/>
<polygon fill="#191970" stroke="#191970" points="638.4559,-116.7524 646.5125,-123.633 644.5051,-113.2301 638.4559,-116.7524"/>
</g>
<!-- Node45 -->
<g id="node6" class="node">
<title>Node45</title>
<g id="a_node6"><a xlink:href="classMap.html#ab69938ac0e56eb0da1d1701221f3d185" target="_top" xlink:title="Refresh all the map tile textures. ">
<polygon fill="none" stroke="#000000" points="438.5,-44.4701 438.5,-63.4701 515.5,-63.4701 515.5,-44.4701 438.5,-44.4701"/>
<text text-anchor="middle" x="477" y="-51.4701" font-family="Helvetica,sans-Serif" font-size="10.00" fill="#000000">Map::refresh</text>
</a>
</g>
</g>
<!-- Node40&#45;&gt;Node45 -->
<g id="edge9" class="edge">
<title>Node40&#45;&gt;Node45</title>
<path fill="none" stroke="#191970" d="M157.2308,-53.9701C237.7559,-53.9701 360.3478,-53.9701 427.9565,-53.9701"/>
<polygon fill="#191970" stroke="#191970" points="428.3203,-57.4702 438.3203,-53.9701 428.3203,-50.4702 428.3203,-57.4702"/>
</g>
<!-- Node42 -->
<g id="node3" class="node">
<title>Node42</title>
<g id="a_node3"><a xlink:href="isoMath_8cxx.html#a7fa61c3d8ef446fb1c48dc4838023649" target="_top" xlink:title="Check if given coordinates are within map boundaries Checks if coordinates are within map boundaries...">
<polygon fill="none" stroke="#000000" points="399,-176.4701 399,-195.4701 555,-195.4701 555,-176.4701 399,-176.4701"/>
<text text-anchor="middle" x="477" y="-183.4701" font-family="Helvetica,sans-Serif" font-size="10.00" fill="#000000">isPointWithinMapBoundaries</text>
</a>
</g>
</g>
<!-- Node41&#45;&gt;Node42 -->
<g id="edge2" class="edge">
<title>Node41&#45;&gt;Node42</title>
<path fill="none" stroke="#191970" d="M296.3303,-124.506C319.7303,-134.5373 358.0952,-150.4384 392,-161.9701 404.2568,-166.1389 417.6744,-170.1685 430.154,-173.6971"/>
<polygon fill="#191970" stroke="#191970" points="429.349,-177.106 439.9211,-176.4128 431.2242,-170.3618 429.349,-177.106"/>
</g>
<!-- Node41&#45;&gt;Node43 -->
<g id="edge5" class="edge">
<title>Node41&#45;&gt;Node43</title>
<path fill="none" stroke="#191970" d="M356.0195,-114.4614C425.1591,-117.2559 523.1202,-123.5674 587.699,-129.467"/>
<polygon fill="#191970" stroke="#191970" points="587.4846,-132.9621 597.7674,-130.4097 588.1372,-125.9926 587.4846,-132.9621"/>
</g>
<!-- Node41&#45;&gt;Node43 -->
<g id="edge6" class="edge">
<title>Node41&#45;&gt;Node43</title>
<path fill="none" stroke="#191970" d="M341.5616,-124.4971C410.7713,-130.8122 518.1202,-137.5929 587.359,-140.0233"/>
<polygon fill="#191970" stroke="#191970" points="587.6011,-143.5331 597.7104,-140.3626 587.8305,-136.5368 587.6011,-143.5331"/>
</g>
<!-- Node44 -->
<g id="node5" class="node">
<title>Node44</title>
<g id="a_node5"><a xlink:href="isoMath_8cxx.html#a229d5dd54cd4e1f43ed5911e4fd266d3" target="_top" xlink:title="converts coordinates from isometric to screen space The given isometric coordinates (which contain he...">
<polygon fill="none" stroke="#000000" points="392,-82.4701 392,-101.4701 562,-101.4701 562,-82.4701 392,-82.4701"/>
<text text-anchor="middle" x="477" y="-89.4701" font-family="Helvetica,sans-Serif" font-size="10.00" fill="#000000">convertIsoToScreenCoordinates</text>
</a>
</g>
</g>
<!-- Node41&#45;&gt;Node44 -->
<g id="edge4" class="edge">
<title>Node41&#45;&gt;Node44</title>
<path fill="none" stroke="#191970" d="M356.2808,-105.6815C365.1334,-104.676 374.1924,-103.6471 383.1731,-102.627"/>
<polygon fill="#191970" stroke="#191970" points="383.723,-106.0872 393.2641,-101.4809 382.9329,-99.1319 383.723,-106.0872"/>
</g>
<!-- Node41&#45;&gt;Node45 -->
<g id="edge7" class="edge">
<title>Node41&#45;&gt;Node45</title>
<path fill="none" stroke="#191970" d="M298.5187,-105.3995C322.0682,-96.2513 359.1201,-82.482 392,-72.9701 403.6885,-69.5888 416.4272,-66.4558 428.4011,-63.7493"/>
<polygon fill="#191970" stroke="#191970" points="429.2276,-67.1512 438.2393,-61.58 427.7203,-60.3154 429.2276,-67.1512"/>
</g>
<!-- Node42&#45;&gt;Node43 -->
<g id="edge3" class="edge">
<title>Node42&#45;&gt;Node43</title>
<path fill="none" stroke="#191970" d="M512.9198,-176.459C534.3829,-170.7758 562.3273,-163.3764 587.7135,-156.6545"/>
<polygon fill="#191970" stroke="#191970" points="588.8957,-159.9621 597.6666,-154.019 587.1038,-153.1953 588.8957,-159.9621"/>
</g>
</g>
</svg>
