<?xml version="1.0" encoding="UTF-8" standalone="no"?>
<!DOCTYPE svg PUBLIC "-//W3C//DTD SVG 1.1//EN"
 "http://www.w3.org/Graphics/SVG/1.1/DTD/svg11.dtd">
<!-- Generated by graphviz version 2.40.1 (20161225.0304)
 -->
<!-- Title: Map::highlightNode Pages: 1 -->
<svg width="619pt" height="28pt"
 viewBox="0.00 0.00 619.00 28.00" xmlns="http://www.w3.org/2000/svg" xmlns:xlink="http://www.w3.org/1999/xlink">
<g id="graph0" class="graph" transform="scale(1 1) rotate(0) translate(4 24)">
<title>Map::highlightNode</title>
<!-- Node245 -->
<g id="node1" class="node">
<title>Node245</title>
<polygon fill="#bfbfbf" stroke="#000000" points="0,-.5 0,-19.5 111,-19.5 111,-.5 0,-.5"/>
<text text-anchor="middle" x="55.5" y="-7.5" font-family="Helvetica,sans-Serif" font-size="10.00" fill="#000000">Map::highlightNode</text>
</g>
<!-- Node246 -->
<g id="node2" class="node">
<title>Node246</title>
<g id="a_node2"><a xlink:href="classEventManager.html#a65ec91fd5016d4f9c4167fb8babed2df" target="_top" xlink:title="EventManager::checkEvents">
<polygon fill="none" stroke="#000000" points="147,-.5 147,-19.5 301,-19.5 301,-.5 147,-.5"/>
<text text-anchor="middle" x="224" y="-7.5" font-family="Helvetica,sans-Serif" font-size="10.00" fill="#000000">EventManager::checkEvents</text>
</a>
</g>
</g>
<!-- Node245&#45;&gt;Node246 -->
<g id="edge1" class="edge">
<title>Node245&#45;&gt;Node246</title>
<path fill="none" stroke="#191970" d="M121.2077,-10C129.5855,-10 138.2206,-10 146.759,-10"/>
<polygon fill="#191970" stroke="#191970" points="121.1402,-6.5001 111.1402,-10 121.1402,-13.5001 121.1402,-6.5001"/>
</g>
<!-- Node247 -->
<g id="node3" class="node">
<title>Node247</title>
<g id="a_node3"><a xlink:href="classGame.html#a1c2ab25d5216b2f4b2fe41efd2c09114" target="_top" xlink:title="begins the game starts running the game ">
<polygon fill="none" stroke="#000000" points="337,-.5 337,-19.5 405,-19.5 405,-.5 337,-.5"/>
<text text-anchor="middle" x="371" y="-7.5" font-family="Helvetica,sans-Serif" font-size="10.00" fill="#000000">Game::run</text>
</a>
</g>
</g>
<!-- Node246&#45;&gt;Node247 -->
<g id="edge2" class="edge">
<title>Node246&#45;&gt;Node247</title>
<path fill="none" stroke="#191970" d="M311.5248,-10C320.4338,-10 329.0572,-10 336.845,-10"/>
<polygon fill="#191970" stroke="#191970" points="311.3744,-6.5001 301.3744,-10 311.3743,-13.5001 311.3744,-6.5001"/>
</g>
<!-- Node248 -->
<g id="node4" class="node">
<title>Node248</title>
<g id="a_node4"><a xlink:href="main_8cxx.html#af582d708d899e67ead623eac34a22387" target="_top" xlink:title="protected_main">
<polygon fill="none" stroke="#000000" points="441,-.5 441,-19.5 534,-19.5 534,-.5 441,-.5"/>
<text text-anchor="middle" x="487.5" y="-7.5" font-family="Helvetica,sans-Serif" font-size="10.00" fill="#000000">protected_main</text>
</a>
</g>
</g>
<!-- Node247&#45;&gt;Node248 -->
<g id="edge3" class="edge">
<title>Node247&#45;&gt;Node248</title>
<path fill="none" stroke="#191970" d="M415.2653,-10C423.5757,-10 432.2897,-10 440.6749,-10"/>
<polygon fill="#191970" stroke="#191970" points="415.0098,-6.5001 405.0098,-10 415.0098,-13.5001 415.0098,-6.5001"/>
</g>
<!-- Node249 -->
<g id="node5" class="node">
<title>Node249</title>
<g id="a_node5"><a xlink:href="main_8cxx.html#a3c04138a5bfe5d72780bb7e82a18e627" target="_top" xlink:title="main">
<polygon fill="none" stroke="#000000" points="570,-.5 570,-19.5 611,-19.5 611,-.5 570,-.5"/>
<text text-anchor="middle" x="590.5" y="-7.5" font-family="Helvetica,sans-Serif" font-size="10.00" fill="#000000">main</text>
</a>
</g>
</g>
<!-- Node248&#45;&gt;Node249 -->
<g id="edge4" class="edge">
<title>Node248&#45;&gt;Node249</title>
<path fill="none" stroke="#191970" d="M544.2133,-10C553.4322,-10 562.4259,-10 569.9965,-10"/>
<polygon fill="#191970" stroke="#191970" points="544.1782,-6.5001 534.1782,-10 544.1781,-13.5001 544.1782,-6.5001"/>
</g>
</g>
</svg>
