<?xml version="1.0" encoding="UTF-8" standalone="no"?>
<!DOCTYPE svg PUBLIC "-//W3C//DTD SVG 1.1//EN"
 "http://www.w3.org/Graphics/SVG/1.1/DTD/svg11.dtd">
<!-- Generated by graphviz version 2.40.1 (20161225.0304)
 -->
<!-- Title: TileManager::getAllTileData Pages: 1 -->
<svg width="1210pt" height="139pt"
 viewBox="0.00 0.00 1210.00 139.43" xmlns="http://www.w3.org/2000/svg" xmlns:xlink="http://www.w3.org/1999/xlink">
<g id="graph0" class="graph" transform="scale(1 1) rotate(0) translate(4 135.4347)">
<title>TileManager::getAllTileData</title>
<!-- Node38 -->
<g id="node1" class="node">
<title>Node38</title>
<polygon fill="#bfbfbf" stroke="#000000" points="0,-80 0,-99 152,-99 152,-80 0,-80"/>
<text text-anchor="middle" x="76" y="-87" font-family="Helvetica,sans-Serif" font-size="10.00" fill="#000000">TileManager::getAllTileData</text>
</g>
<!-- Node39 -->
<g id="node2" class="node">
<title>Node39</title>
<g id="a_node2"><a xlink:href="classTileManager.html#a1575d9a9530e13fe0286b8fece9e47ea" target="_top" xlink:title="TileManager::init">
<polygon fill="none" stroke="#000000" points="375,-99 375,-118 473,-118 473,-99 375,-99"/>
<text text-anchor="middle" x="424" y="-106" font-family="Helvetica,sans-Serif" font-size="10.00" fill="#000000">TileManager::init</text>
</a>
</g>
</g>
<!-- Node38&#45;&gt;Node39 -->
<g id="edge1" class="edge">
<title>Node38&#45;&gt;Node39</title>
<path fill="none" stroke="#191970" d="M121.5521,-99.0123C141.8001,-102.7778 165.989,-106.6462 188,-108.5 247.9078,-113.5454 316.6737,-112.807 364.4614,-111.2575"/>
<polygon fill="#191970" stroke="#191970" points="364.7573,-114.7494 374.6301,-110.9053 364.5149,-107.7536 364.7573,-114.7494"/>
</g>
<!-- Node46 -->
<g id="node9" class="node">
<title>Node46</title>
<g id="a_node9"><a xlink:href="classTileManager.html#ac6f5d9eb4db57f9ad597223658574394" target="_top" xlink:title="TileManager::TileManager">
<polygon fill="none" stroke="#000000" points="192,-80 192,-99 335,-99 335,-80 192,-80"/>
<text text-anchor="middle" x="263.5" y="-87" font-family="Helvetica,sans-Serif" font-size="10.00" fill="#000000">TileManager::TileManager</text>
</a>
</g>
</g>
<!-- Node38&#45;&gt;Node46 -->
<g id="edge10" class="edge">
<title>Node38&#45;&gt;Node46</title>
<path fill="none" stroke="#191970" d="M152.2634,-89.5C161.9705,-89.5 171.9369,-89.5 181.7261,-89.5"/>
<polygon fill="#191970" stroke="#191970" points="181.8452,-93.0001 191.8452,-89.5 181.8451,-86.0001 181.8452,-93.0001"/>
</g>
<!-- Node47 -->
<g id="node10" class="node">
<title>Node47</title>
<g id="a_node10"><a xlink:href="classTileManager.html#a4ee920ba2d77b9b106151242deb48d4e" target="_top" xlink:title="TileManager::~TileManager">
<polygon fill="none" stroke="#000000" points="188,-42 188,-61 339,-61 339,-42 188,-42"/>
<text text-anchor="middle" x="263.5" y="-49" font-family="Helvetica,sans-Serif" font-size="10.00" fill="#000000">TileManager::~TileManager</text>
</a>
</g>
</g>
<!-- Node38&#45;&gt;Node47 -->
<g id="edge12" class="edge">
<title>Node38&#45;&gt;Node47</title>
<path fill="none" stroke="#191970" d="M123.3142,-79.911C148.6141,-74.7835 179.9502,-68.4328 206.575,-63.0368"/>
<polygon fill="#191970" stroke="#191970" points="207.4205,-66.4367 216.5261,-61.0201 206.0301,-59.5762 207.4205,-66.4367"/>
</g>
<!-- Node40 -->
<g id="node3" class="node">
<title>Node40</title>
<g id="a_node3"><a xlink:href="classSingleton.html#af5cb1e5749949e2b68416cfb8d378044" target="_top" xlink:title="Get an instance of the singleton. ">
<polygon fill="none" stroke="#000000" points="1089,-93.5 1089,-123.5 1202,-123.5 1202,-93.5 1089,-93.5"/>
<text text-anchor="start" x="1097" y="-111.5" font-family="Helvetica,sans-Serif" font-size="10.00" fill="#000000">Singleton&lt; Settings</text>
<text text-anchor="middle" x="1145.5" y="-100.5" font-family="Helvetica,sans-Serif" font-size="10.00" fill="#000000"> &gt;::instance</text>
</a>
</g>
</g>
<!-- Node39&#45;&gt;Node40 -->
<g id="edge2" class="edge">
<title>Node39&#45;&gt;Node40</title>
<path fill="none" stroke="#191970" d="M458.4487,-118.0079C473.7929,-121.7725 492.1666,-125.6416 509,-127.5 596.1099,-137.1171 909.6831,-126.3078 1053,-117.5 1061.3341,-116.9878 1070.0786,-116.3149 1078.7271,-115.5672"/>
<polygon fill="#191970" stroke="#191970" points="1079.1592,-119.0426 1088.8053,-114.6603 1078.5318,-112.0708 1079.1592,-119.0426"/>
</g>
<!-- Node41 -->
<g id="node4" class="node">
<title>Node41</title>
<g id="a_node4"><a xlink:href="structStrongType.html#acc66e6d6b9c95193a97a839560499933" target="_top" xlink:title="StrongType::get">
<polygon fill="none" stroke="#000000" points="541,-99 541,-118 633,-118 633,-99 541,-99"/>
<text text-anchor="middle" x="587" y="-106" font-family="Helvetica,sans-Serif" font-size="10.00" fill="#000000">StrongType::get</text>
</a>
</g>
</g>
<!-- Node39&#45;&gt;Node41 -->
<g id="edge3" class="edge">
<title>Node39&#45;&gt;Node41</title>
<path fill="none" stroke="#191970" d="M473.3477,-108.5C491.4526,-108.5 512.0785,-108.5 530.7443,-108.5"/>
<polygon fill="#191970" stroke="#191970" points="530.884,-112.0001 540.884,-108.5 530.884,-105.0001 530.884,-112.0001"/>
</g>
<!-- Node42 -->
<g id="node5" class="node">
<title>Node42</title>
<g id="a_node5"><a xlink:href="classTileManager.html#a9e03faf9425ee26a2f5fb1fa4c94d173" target="_top" xlink:title="TileManager::addJSONObject\lToTileData">
<polygon fill="none" stroke="#000000" points="509,-49.5 509,-79.5 665,-79.5 665,-49.5 509,-49.5"/>
<text text-anchor="start" x="517" y="-67.5" font-family="Helvetica,sans-Serif" font-size="10.00" fill="#000000">TileManager::addJSONObject</text>
<text text-anchor="middle" x="587" y="-56.5" font-family="Helvetica,sans-Serif" font-size="10.00" fill="#000000">ToTileData</text>
</a>
</g>
</g>
<!-- Node39&#45;&gt;Node42 -->
<g id="edge4" class="edge">
<title>Node39&#45;&gt;Node42</title>
<path fill="none" stroke="#191970" d="M459.3686,-98.9527C477.4747,-94.0651 500.1101,-87.9549 521.2708,-82.2429"/>
<polygon fill="#191970" stroke="#191970" points="522.4474,-85.5506 531.1897,-79.5654 520.6231,-78.7925 522.4474,-85.5506"/>
</g>
<!-- Node42&#45;&gt;Node40 -->
<g id="edge5" class="edge">
<title>Node42&#45;&gt;Node40</title>
<path fill="none" stroke="#191970" d="M665.0312,-78.6623C677.0467,-80.5076 689.334,-82.2037 701,-83.5 834.5626,-98.3415 991.7351,-104.555 1078.8399,-107.0143"/>
<polygon fill="#191970" stroke="#191970" points="1078.7587,-110.5133 1088.851,-107.289 1078.9509,-103.5159 1078.7587,-110.5133"/>
</g>
<!-- Node43 -->
<g id="node6" class="node">
<title>Node43</title>
<g id="a_node6"><a xlink:href="classResourcesManager.html#ab376a89547592db4cca25309eac2931c" target="_top" xlink:title="ResourcesManager::loadTexture">
<polygon fill="none" stroke="#000000" points="701,-55 701,-74 872,-74 872,-55 701,-55"/>
<text text-anchor="middle" x="786.5" y="-62" font-family="Helvetica,sans-Serif" font-size="10.00" fill="#000000">ResourcesManager::loadTexture</text>
</a>
</g>
</g>
<!-- Node42&#45;&gt;Node43 -->
<g id="edge6" class="edge">
<title>Node42&#45;&gt;Node43</title>
<path fill="none" stroke="#191970" d="M665.2751,-64.5C673.6703,-64.5 682.2787,-64.5 690.8466,-64.5"/>
<polygon fill="#191970" stroke="#191970" points="690.8709,-68.0001 700.8709,-64.5 690.8709,-61.0001 690.8709,-68.0001"/>
</g>
<!-- Node44 -->
<g id="node7" class="node">
<title>Node44</title>
<g id="a_node7"><a xlink:href="classResourcesManager.html#a54721d26f52c4887b735d2cdaf60b078" target="_top" xlink:title="ResourcesManager::create\lSurfaceFromFile">
<polygon fill="none" stroke="#000000" points="908,-49.5 908,-79.5 1053,-79.5 1053,-49.5 908,-49.5"/>
<text text-anchor="start" x="916" y="-67.5" font-family="Helvetica,sans-Serif" font-size="10.00" fill="#000000">ResourcesManager::create</text>
<text text-anchor="middle" x="980.5" y="-56.5" font-family="Helvetica,sans-Serif" font-size="10.00" fill="#000000">SurfaceFromFile</text>
</a>
</g>
</g>
<!-- Node43&#45;&gt;Node44 -->
<g id="edge7" class="edge">
<title>Node43&#45;&gt;Node44</title>
<path fill="none" stroke="#191970" d="M872.1559,-64.5C880.599,-64.5 889.1583,-64.5 897.5732,-64.5"/>
<polygon fill="#191970" stroke="#191970" points="897.7485,-68.0001 907.7484,-64.5 897.7484,-61.0001 897.7485,-68.0001"/>
</g>
<!-- Node45 -->
<g id="node8" class="node">
<title>Node45</title>
<g id="a_node8"><a xlink:href="classResourcesManager.html#ad7712ca96233a151d8bc22cd2ba17d01" target="_top" xlink:title="ResourcesManager::create\lTextureFromSurface">
<polygon fill="none" stroke="#000000" points="908,-.5 908,-30.5 1053,-30.5 1053,-.5 908,-.5"/>
<text text-anchor="start" x="916" y="-18.5" font-family="Helvetica,sans-Serif" font-size="10.00" fill="#000000">ResourcesManager::create</text>
<text text-anchor="middle" x="980.5" y="-7.5" font-family="Helvetica,sans-Serif" font-size="10.00" fill="#000000">TextureFromSurface</text>
</a>
</g>
</g>
<!-- Node43&#45;&gt;Node45 -->
<g id="edge8" class="edge">
<title>Node43&#45;&gt;Node45</title>
<path fill="none" stroke="#191970" d="M824.3657,-54.936C849.034,-48.7053 881.9534,-40.3906 911.204,-33.0026"/>
<polygon fill="#191970" stroke="#191970" points="912.1275,-36.3793 920.9659,-30.537 910.4132,-29.5925 912.1275,-36.3793"/>
</g>
<!-- Node45&#45;&gt;Node40 -->
<g id="edge9" class="edge">
<title>Node45&#45;&gt;Node40</title>
<path fill="none" stroke="#191970" d="M1032.8232,-30.568C1039.7537,-33.2117 1046.6504,-36.192 1053,-39.5 1077.9614,-52.5044 1103.3827,-72.015 1121.2422,-86.9749"/>
<polygon fill="#191970" stroke="#191970" points="1119.0053,-89.6671 1128.887,-93.4884 1123.5451,-84.3388 1119.0053,-89.6671"/>
</g>
<!-- Node46&#45;&gt;Node39 -->
<g id="edge11" class="edge">
<title>Node46&#45;&gt;Node39</title>
<path fill="none" stroke="#191970" d="M335.3001,-97.9997C345.1072,-99.1607 355.0845,-100.3418 364.6374,-101.4727"/>
<polygon fill="#191970" stroke="#191970" points="364.4665,-104.9768 374.8086,-102.6767 365.2895,-98.0253 364.4665,-104.9768"/>
</g>
</g>
</svg>
