<?xml version="1.0" encoding="UTF-8" standalone="no"?>
<!DOCTYPE svg PUBLIC "-//W3C//DTD SVG 1.1//EN"
 "http://www.w3.org/Graphics/SVG/1.1/DTD/svg11.dtd">
<!-- Generated by graphviz version 2.40.1 (20161225.0304)
 -->
<!-- Title: UIElement::drawFrame Pages: 1 -->
<!--zoomable 104 -->
<svg id="main" version="1.1" xmlns="http://www.w3.org/2000/svg" xmlns:xlink="http://www.w3.org/1999/xlink" xml:space="preserve" onload="init(evt)">
<style type="text/css"><![CDATA[
.edge:hover path { stroke: red; }
.edge:hover polygon { stroke: red; fill: red; }
]]></style>
<script type="text/javascript"><![CDATA[
var edges = document.getElementsByTagName('g');
if (edges && edges.length) {
  for (var i=0;i<edges.length;i++) {
    if (edges[i].id.substr(0,4)=='edge') {
      edges[i].setAttribute('class','edge');
    }
  }
}
]]></script>
        <defs>
                <circle id="rim" cx="0" cy="0" r="7"/>
                <circle id="rim2" cx="0" cy="0" r="3.5"/>
                <g id="zoomPlus">
                        <use xlink:href="#rim" fill="#404040">
                                <set attributeName="fill" to="#808080" begin="zoomplus.mouseover" end="zoomplus.mouseout"/>
                        </use>
                        <path d="M-4,0h8M0,-4v8" fill="none" stroke="white" stroke-width="1.5" pointer-events="none"/>
                </g>
                <g id="zoomMin">
                        <use xlink:href="#rim" fill="#404040">
                                <set attributeName="fill" to="#808080" begin="zoomminus.mouseover" end="zoomminus.mouseout"/>
                        </use>
                        <path d="M-4,0h8" fill="none" stroke="white" stroke-width="1.5" pointer-events="none"/>
                </g>
                <g id="dirArrow">
                        <path fill="none" stroke="white" stroke-width="1.5" d="M0,-3.0v7 M-2.5,-0.5L0,-3.0L2.5,-0.5"/>
                </g>
               <g id="resetDef">
                       <use xlink:href="#rim2" fill="#404040">
                               <set attributeName="fill" to="#808080" begin="reset.mouseover" end="reset.mouseout"/>
                       </use>
               </g>
        </defs>

<script type="text/javascript">
var viewWidth = 537;
var viewHeight = 104;
var sectionId = 'dynsection-10';
</script>
<script xlink:href="svgpan.js"/>
<svg id="graph" class="graph">
<g id="viewport">
<title>UIElement::drawFrame</title>
<!-- Node61 -->
<g id="node1" class="node">
<title>Node61</title>
<polygon fill="#bfbfbf" stroke="#000000" points="0,-38.5 0,-57.5 128,-57.5 128,-38.5 0,-38.5"/>
<text text-anchor="middle" x="64" y="-45.5" font-family="Helvetica,sans-Serif" font-size="10.00" fill="#000000">UIElement::drawFrame</text>
</g>
<!-- Node62 -->
<g id="node2" class="node">
<title>Node62</title>
<g id="a_node2"><a xlink:href="classButton.html#a6b08fa54560842dec2eabed9a93c3103" target="_top" xlink:title="Button::drawImageButtonFrame">
<polygon fill="none" stroke="#000000" points="164,-76.5 164,-95.5 336,-95.5 336,-76.5 164,-76.5"/>
<text text-anchor="middle" x="250" y="-83.5" font-family="Helvetica,sans-Serif" font-size="10.00" fill="#000000">Button::drawImageButtonFrame</text>
</a>
</g>
</g>
<!-- Node61&#45;&gt;Node62 -->
<g id="edge1" class="edge">
<title>Node61&#45;&gt;Node62</title>
<path fill="none" stroke="#191970" d="M120.8255,-59.6095C147.279,-65.014 178.3583,-71.3635 203.4019,-76.4799"/>
<polygon fill="#191970" stroke="#191970" points="121.4339,-56.1616 110.9357,-57.589 120.0327,-63.0199 121.4339,-56.1616"/>
</g>
<!-- Node64 -->
<g id="node4" class="node">
<title>Node64</title>
<g id="a_node4"><a xlink:href="classFrame.html#af8abf245526132e86ee984601a71267a" target="_top" xlink:title="Draw the UI Element and/or render it&#39;s textures to the screen Renders the texture of the Ui Element...">
<polygon fill="none" stroke="#000000" points="211.5,-38.5 211.5,-57.5 288.5,-57.5 288.5,-38.5 211.5,-38.5"/>
<text text-anchor="middle" x="250" y="-45.5" font-family="Helvetica,sans-Serif" font-size="10.00" fill="#000000">Frame::draw</text>
</a>
</g>
</g>
<!-- Node61&#45;&gt;Node64 -->
<g id="edge3" class="edge">
<title>Node61&#45;&gt;Node64</title>
<path fill="none" stroke="#191970" d="M138.237,-48C163.2879,-48 190.234,-48 211.3901,-48"/>
<polygon fill="#191970" stroke="#191970" points="138.0107,-44.5001 128.0106,-48 138.0106,-51.5001 138.0107,-44.5001"/>
</g>
<!-- Node65 -->
<g id="node5" class="node">
<title>Node65</title>
<g id="a_node5"><a xlink:href="classSlider.html#a4a3727f40be79a7cc6543086435b8194" target="_top" xlink:title="Draw the UI Element and/or render it&#39;s textures to the screen Renders the texture of the Ui Element...">
<polygon fill="none" stroke="#000000" points="213,-.5 213,-19.5 287,-19.5 287,-.5 213,-.5"/>
<text text-anchor="middle" x="250" y="-7.5" font-family="Helvetica,sans-Serif" font-size="10.00" fill="#000000">Slider::draw</text>
</a>
</g>
</g>
<!-- Node61&#45;&gt;Node65 -->
<g id="edge4" class="edge">
<title>Node61&#45;&gt;Node65</title>
<path fill="none" stroke="#191970" d="M120.8135,-36.3929C150.6724,-30.2927 186.4275,-22.9879 212.7444,-17.6114"/>
<polygon fill="#191970" stroke="#191970" points="120.0327,-32.9801 110.9357,-38.411 121.4339,-39.8384 120.0327,-32.9801"/>
</g>
<!-- Node63 -->
<g id="node3" class="node">
<title>Node63</title>
<g id="a_node3"><a xlink:href="classUIManager.html#aae7a89e9d50bb6192e4140e07bd5f94b" target="_top" xlink:title="UIManager::createBuildMenu">
<polygon fill="none" stroke="#000000" points="372,-76.5 372,-95.5 529,-95.5 529,-76.5 372,-76.5"/>
<text text-anchor="middle" x="450.5" y="-83.5" font-family="Helvetica,sans-Serif" font-size="10.00" fill="#000000">UIManager::createBuildMenu</text>
</a>
</g>
</g>
<!-- Node62&#45;&gt;Node63 -->
<g id="edge2" class="edge">
<title>Node62&#45;&gt;Node63</title>
<path fill="none" stroke="#191970" d="M346.2722,-86C354.886,-86 363.539,-86 371.9763,-86"/>
<polygon fill="#191970" stroke="#191970" points="346.1937,-82.5001 336.1936,-86 346.1936,-89.5001 346.1937,-82.5001"/>
</g>
</g>
</svg>
        <g id="navigator" transform="translate(0 0)" fill="#404254">
                <rect fill="#f2f5e9" fill-opacity="0.5" stroke="#606060" stroke-width=".5" x="0" y="0" width="60" height="60"/>
                <use id="zoomplus" xlink:href="#zoomPlus" x="17" y="9" onmousedown="handleZoom(evt,'in')"/>
                <use id="zoomminus" xlink:href="#zoomMin" x="42" y="9" onmousedown="handleZoom(evt,'out')"/>
                <use id="reset" xlink:href="#resetDef" x="30" y="36" onmousedown="handleReset()"/>
                <g id="arrowUp" xlink:href="#dirArrow" transform="translate(30 24)" onmousedown="handlePan(0,-1)">
                  <use xlink:href="#rim" fill="#404040">
                        <set attributeName="fill" to="#808080" begin="arrowUp.mouseover" end="arrowUp.mouseout"/>
                  </use>
                  <path fill="none" stroke="white" stroke-width="1.5" d="M0,-3.0v7 M-2.5,-0.5L0,-3.0L2.5,-0.5"/>
                </g>
                <g id="arrowRight" xlink:href="#dirArrow" transform="rotate(90) translate(36 -43)" onmousedown="handlePan(1,0)">
                  <use xlink:href="#rim" fill="#404040">
                        <set attributeName="fill" to="#808080" begin="arrowRight.mouseover" end="arrowRight.mouseout"/>
                  </use>
                  <path fill="none" stroke="white" stroke-width="1.5" d="M0,-3.0v7 M-2.5,-0.5L0,-3.0L2.5,-0.5"/>
                </g>
                <g id="arrowDown" xlink:href="#dirArrow" transform="rotate(180) translate(-30 -48)" onmousedown="handlePan(0,1)">
                  <use xlink:href="#rim" fill="#404040">
                        <set attributeName="fill" to="#808080" begin="arrowDown.mouseover" end="arrowDown.mouseout"/>
                  </use>
                  <path fill="none" stroke="white" stroke-width="1.5" d="M0,-3.0v7 M-2.5,-0.5L0,-3.0L2.5,-0.5"/>
                </g>
                <g id="arrowLeft" xlink:href="#dirArrow" transform="rotate(270) translate(-36 17)" onmousedown="handlePan(-1,0)">
                  <use xlink:href="#rim" fill="#404040">
                        <set attributeName="fill" to="#808080" begin="arrowLeft.mouseover" end="arrowLeft.mouseout"/>
                  </use>
                  <path fill="none" stroke="white" stroke-width="1.5" d="M0,-3.0v7 M-2.5,-0.5L0,-3.0L2.5,-0.5"/>
                </g>
        </g>
        <svg viewBox="0 0 15 15" width="100%" height="30px" preserveAspectRatio="xMaxYMin meet">
         <g id="arrow_out" transform="scale(0.3 0.3)">
          <a xlink:href="classUIElement_af84e7dae94a8239bb12d73a856e4be67_icgraph_org.svg" target="_base">
           <rect id="button" ry="5" rx="5" y="6" x="6" height="38" width="38"
                fill="#f2f5e9" fill-opacity="0.5" stroke="#606060" stroke-width="1.0"/>
           <path id="arrow"
             d="M 11.500037,31.436501 C 11.940474,20.09759 22.043105,11.32322 32.158766,21.979434 L 37.068811,17.246167 C 37.068811,17.246167 37.088388,32 37.088388,32 L 22.160133,31.978069 C 22.160133,31.978069 26.997745,27.140456 26.997745,27.140456 C 18.528582,18.264221 13.291696,25.230495 11.500037,31.436501 z"
             style="fill:#404040;"/>
          </a>
         </g>
        </svg>
</svg>
