<?xml version="1.0" encoding="UTF-8" standalone="no"?>
<!DOCTYPE svg PUBLIC "-//W3C//DTD SVG 1.1//EN"
 "http://www.w3.org/Graphics/SVG/1.1/DTD/svg11.dtd">
<!-- Generated by graphviz version 2.40.1 (20161225.0304)
 -->
<!-- Title: Engine::increaseHeight Pages: 1 -->
<svg width="1185pt" height="442pt"
 viewBox="0.00 0.00 1185.00 441.51" xmlns="http://www.w3.org/2000/svg" xmlns:xlink="http://www.w3.org/1999/xlink">
<g id="graph0" class="graph" transform="scale(1 1) rotate(0) translate(4 437.5145)">
<title>Engine::increaseHeight</title>
<!-- Node27 -->
<g id="node1" class="node">
<title>Node27</title>
<polygon fill="#bfbfbf" stroke="#000000" points="0,-159.0145 0,-178.0145 129,-178.0145 129,-159.0145 0,-159.0145"/>
<text text-anchor="middle" x="64.5" y="-166.0145" font-family="Helvetica,sans-Serif" font-size="10.00" fill="#000000">Engine::increaseHeight</text>
</g>
<!-- Node28 -->
<g id="node2" class="node">
<title>Node28</title>
<g id="a_node2"><a xlink:href="classMap.html#aba5154a4d917900679a3c0f7ec701561" target="_top" xlink:title="Increase Height Increases the height of the node and checks the surrounding tiles. Either draw a slope sprite or elevate the tile if necessary. ">
<polygon fill="none" stroke="#000000" points="165,-159.0145 165,-178.0145 281,-178.0145 281,-159.0145 165,-159.0145"/>
<text text-anchor="middle" x="223" y="-166.0145" font-family="Helvetica,sans-Serif" font-size="10.00" fill="#000000">Map::increaseHeight</text>
</a>
</g>
</g>
<!-- Node27&#45;&gt;Node28 -->
<g id="edge1" class="edge">
<title>Node27&#45;&gt;Node28</title>
<path fill="none" stroke="#191970" d="M129.4253,-168.5145C137.7521,-168.5145 146.2972,-168.5145 154.6761,-168.5145"/>
<polygon fill="#191970" stroke="#191970" points="154.7883,-172.0146 164.7883,-168.5145 154.7883,-165.0146 154.7883,-172.0146"/>
</g>
<!-- Node29 -->
<g id="node3" class="node">
<title>Node29</title>
<g id="a_node3"><a xlink:href="classSingleton.html#af5cb1e5749949e2b68416cfb8d378044" target="_top" xlink:title="Get an instance of the singleton. ">
<polygon fill="none" stroke="#000000" points="1064,-304.5145 1064,-334.5145 1177,-334.5145 1177,-304.5145 1064,-304.5145"/>
<text text-anchor="start" x="1072" y="-322.5145" font-family="Helvetica,sans-Serif" font-size="10.00" fill="#000000">Singleton&lt; Settings</text>
<text text-anchor="middle" x="1120.5" y="-311.5145" font-family="Helvetica,sans-Serif" font-size="10.00" fill="#000000"> &gt;::instance</text>
</a>
</g>
</g>
<!-- Node28&#45;&gt;Node29 -->
<g id="edge2" class="edge">
<title>Node28&#45;&gt;Node29</title>
<path fill="none" stroke="#191970" d="M227.4353,-178.0931C239.0859,-202.4072 272.7357,-267.4243 317,-307.5145 404.2583,-386.5446 432.2725,-433.5145 550,-433.5145 550,-433.5145 550,-433.5145 753,-433.5145 878.7483,-433.5145 1018.272,-371.8751 1083.3207,-339.2457"/>
<polygon fill="#191970" stroke="#191970" points="1085.035,-342.3007 1092.3672,-334.6529 1081.866,-336.0591 1085.035,-342.3007"/>
</g>
<!-- Node30 -->
<g id="node4" class="node">
<title>Node30</title>
<g id="a_node4"><a xlink:href="classMap.html#aab37e4a52faf81e9b696b8cf1bd9a690" target="_top" xlink:title="Get neighbor MapNode Objects Stores pointers to the neighboring nodes of the given coordinates in the...">
<polygon fill="none" stroke="#000000" points="896,-114.0145 896,-133.0145 1004,-133.0145 1004,-114.0145 896,-114.0145"/>
<text text-anchor="middle" x="950" y="-121.0145" font-family="Helvetica,sans-Serif" font-size="10.00" fill="#000000">Map::getNeighbors</text>
</a>
</g>
</g>
<!-- Node28&#45;&gt;Node30 -->
<g id="edge3" class="edge">
<title>Node28&#45;&gt;Node30</title>
<path fill="none" stroke="#191970" d="M243.3196,-158.896C305.4322,-130.0945 498.9591,-44.792 670,-16.5145 742.7897,-4.4805 768.2259,12.6373 836,-16.5145 857.3713,-25.707 855.2713,-38.3472 872,-54.5145 891.4846,-73.3453 914.8893,-93.777 930.9457,-107.4808"/>
<polygon fill="#191970" stroke="#191970" points="928.7241,-110.1859 938.6126,-113.9896 933.2544,-104.8496 928.7241,-110.1859"/>
</g>
<!-- Node31 -->
<g id="node5" class="node">
<title>Node31</title>
<g id="a_node5"><a xlink:href="isoMath_8cxx.html#a7fa61c3d8ef446fb1c48dc4838023649" target="_top" xlink:title="Check if given coordinates are within map boundaries Checks if coordinates are within map boundaries...">
<polygon fill="none" stroke="#000000" points="872,-310.0145 872,-329.0145 1028,-329.0145 1028,-310.0145 872,-310.0145"/>
<text text-anchor="middle" x="950" y="-317.0145" font-family="Helvetica,sans-Serif" font-size="10.00" fill="#000000">isPointWithinMapBoundaries</text>
</a>
</g>
</g>
<!-- Node28&#45;&gt;Node31 -->
<g id="edge4" class="edge">
<title>Node28&#45;&gt;Node31</title>
<path fill="none" stroke="#191970" d="M231.9763,-178.2087C261.6552,-209.4858 360.7399,-307.8167 466,-344.5145 621.3239,-398.6667 673.2313,-377.2701 836,-353.5145 863.4697,-349.5054 893.5211,-340.3331 915.8701,-332.5248"/>
<polygon fill="#191970" stroke="#191970" points="917.3241,-335.7219 925.5596,-329.0566 914.965,-329.1313 917.3241,-335.7219"/>
</g>
<!-- Node32 -->
<g id="node6" class="node">
<title>Node32</title>
<g id="a_node6"><a xlink:href="classMap.html#aa8cc2ed983007621bce12dd9d1b8ec5b" target="_top" xlink:title="Demolish a node This function gathers all tiles that should be demolished and invokes the nodes demol...">
<polygon fill="none" stroke="#000000" points="317,-176.0145 317,-195.0145 430,-195.0145 430,-176.0145 317,-176.0145"/>
<text text-anchor="middle" x="373.5" y="-183.0145" font-family="Helvetica,sans-Serif" font-size="10.00" fill="#000000">Map::demolishNode</text>
</a>
</g>
</g>
<!-- Node28&#45;&gt;Node32 -->
<g id="edge6" class="edge">
<title>Node28&#45;&gt;Node32</title>
<path fill="none" stroke="#191970" d="M281.1872,-175.0872C289.6294,-176.0408 298.3741,-177.0286 306.9652,-177.999"/>
<polygon fill="#191970" stroke="#191970" points="306.6228,-181.4825 316.9525,-179.1271 307.4086,-174.5267 306.6228,-181.4825"/>
</g>
<!-- Node38 -->
<g id="node12" class="node">
<title>Node38</title>
<g id="a_node12"><a xlink:href="classMap.html#a59d21f2688713fbcfe320eb1b24405ca" target="_top" xlink:title="Update mapNode and its adjacent tiles Updates mapNode height information, draws slopes for adjacent t...">
<polygon fill="none" stroke="#000000" points="468.5,-114.0145 468.5,-133.0145 631.5,-133.0145 631.5,-114.0145 468.5,-114.0145"/>
<text text-anchor="middle" x="550" y="-121.0145" font-family="Helvetica,sans-Serif" font-size="10.00" fill="#000000">Map::updateNeighborsOfNode</text>
</a>
</g>
</g>
<!-- Node28&#45;&gt;Node38 -->
<g id="edge27" class="edge">
<title>Node28&#45;&gt;Node38</title>
<path fill="none" stroke="#191970" d="M259.8754,-158.9766C307.6963,-150.0787 392.7541,-137.8173 458.4513,-129.9811"/>
<polygon fill="#191970" stroke="#191970" points="458.8854,-133.4543 468.4082,-128.8104 458.0679,-126.5022 458.8854,-133.4543"/>
</g>
<!-- Node31&#45;&gt;Node29 -->
<g id="edge5" class="edge">
<title>Node31&#45;&gt;Node29</title>
<path fill="none" stroke="#191970" d="M1028.2638,-319.5145C1036.635,-319.5145 1045.0967,-319.5145 1053.323,-319.5145"/>
<polygon fill="#191970" stroke="#191970" points="1053.5927,-323.0146 1063.5927,-319.5145 1053.5926,-316.0146 1053.5927,-323.0146"/>
</g>
<!-- Node32&#45;&gt;Node31 -->
<g id="edge7" class="edge">
<title>Node32&#45;&gt;Node31</title>
<path fill="none" stroke="#191970" d="M380.6064,-195.113C394.6185,-213.1923 427.7892,-251.9616 466,-268.5145 617.4575,-334.126 672.2442,-279.8196 836,-300.5145 852.8971,-302.6499 871.1222,-305.4581 887.9369,-308.2582"/>
<polygon fill="#191970" stroke="#191970" points="887.756,-311.7772 898.1998,-309.9945 888.9237,-304.8753 887.756,-311.7772"/>
</g>
<!-- Node33 -->
<g id="node7" class="node">
<title>Node33</title>
<g id="a_node7"><a xlink:href="classMapNode.html#a6b57e4355d0780fb37c34d63bbcdfdf9" target="_top" xlink:title="MapNode::getMapNodeDataFor\lLayer">
<polygon fill="none" stroke="#000000" points="466,-228.5145 466,-258.5145 634,-258.5145 634,-228.5145 466,-228.5145"/>
<text text-anchor="start" x="474" y="-246.5145" font-family="Helvetica,sans-Serif" font-size="10.00" fill="#000000">MapNode::getMapNodeDataFor</text>
<text text-anchor="middle" x="550" y="-235.5145" font-family="Helvetica,sans-Serif" font-size="10.00" fill="#000000">Layer</text>
</a>
</g>
</g>
<!-- Node32&#45;&gt;Node33 -->
<g id="edge8" class="edge">
<title>Node32&#45;&gt;Node33</title>
<path fill="none" stroke="#191970" d="M399.2896,-195.132C417.7741,-201.9229 443.3112,-211.0969 466,-218.5145 473.1396,-220.8487 480.6493,-223.2123 488.121,-225.5072"/>
<polygon fill="#191970" stroke="#191970" points="487.3012,-228.9161 497.8869,-228.4762 489.3374,-222.2187 487.3012,-228.9161"/>
</g>
<!-- Node34 -->
<g id="node8" class="node">
<title>Node34</title>
<g id="a_node8"><a xlink:href="classMap.html#ab6685363fde5a50c749adab9df96c231" target="_top" xlink:title="whether a node is a multiobject or not (bigger than 1x1 building) ">
<polygon fill="none" stroke="#000000" points="484,-316.0145 484,-335.0145 616,-335.0145 616,-316.0145 484,-316.0145"/>
<text text-anchor="middle" x="550" y="-323.0145" font-family="Helvetica,sans-Serif" font-size="10.00" fill="#000000">Map::isNodeMultiObject</text>
</a>
</g>
</g>
<!-- Node32&#45;&gt;Node34 -->
<g id="edge9" class="edge">
<title>Node32&#45;&gt;Node34</title>
<path fill="none" stroke="#191970" d="M378.5089,-195.3002C390.466,-217.6646 422.921,-272.7974 466,-301.5145 472.729,-306.0002 480.299,-309.6584 488.0677,-312.6393"/>
<polygon fill="#191970" stroke="#191970" points="487.0044,-315.9751 497.5992,-315.9496 489.301,-309.3625 487.0044,-315.9751"/>
</g>
<!-- Node36 -->
<g id="node10" class="node">
<title>Node36</title>
<g id="a_node10"><a xlink:href="classMap.html#a3952b445c55efce61c1ccac6f362fe89" target="_top" xlink:title="Return vector of Points of an Object Tiles selection. ">
<polygon fill="none" stroke="#000000" points="488,-190.0145 488,-209.0145 612,-209.0145 612,-190.0145 488,-190.0145"/>
<text text-anchor="middle" x="550" y="-197.0145" font-family="Helvetica,sans-Serif" font-size="10.00" fill="#000000">Map::getObjectCoords</text>
</a>
</g>
</g>
<!-- Node32&#45;&gt;Node36 -->
<g id="edge12" class="edge">
<title>Node32&#45;&gt;Node36</title>
<path fill="none" stroke="#191970" d="M430.3172,-190.0213C445.3626,-191.2147 461.81,-192.5193 477.5625,-193.7688"/>
<polygon fill="#191970" stroke="#191970" points="477.5466,-197.2784 487.7921,-194.5802 478.1002,-190.3004 477.5466,-197.2784"/>
</g>
<!-- Node32&#45;&gt;Node38 -->
<g id="edge15" class="edge">
<title>Node32&#45;&gt;Node38</title>
<path fill="none" stroke="#191970" d="M382.8213,-175.9008C399.3559,-164.8581 435.0009,-149.2728 466,-138.5145 468.2366,-137.7383 470.5127,-136.9676 472.8153,-136.2065"/>
<polygon fill="#191970" stroke="#191970" points="473.9373,-139.5224 482.3963,-133.1431 471.8054,-132.8549 473.9373,-139.5224"/>
</g>
<!-- Node34&#45;&gt;Node31 -->
<g id="edge10" class="edge">
<title>Node34&#45;&gt;Node31</title>
<path fill="none" stroke="#191970" d="M616.2291,-333.9823C633.687,-335.8598 652.5278,-337.5709 670,-338.5145 743.6704,-342.4934 762.4736,-344.5998 836,-338.5145 854.8965,-336.9506 875.3763,-333.9523 893.6955,-330.7916"/>
<polygon fill="#191970" stroke="#191970" points="894.3932,-334.2226 903.6267,-329.0271 893.1686,-327.3305 894.3932,-334.2226"/>
</g>
<!-- Node35 -->
<g id="node9" class="node">
<title>Node35</title>
<g id="a_node9"><a xlink:href="classMapNode.html#adf88174897b884c97d327e710dea7f5e" target="_top" xlink:title="MapNode::getTileData">
<polygon fill="none" stroke="#000000" points="690.5,-310.0145 690.5,-329.0145 815.5,-329.0145 815.5,-310.0145 690.5,-310.0145"/>
<text text-anchor="middle" x="753" y="-317.0145" font-family="Helvetica,sans-Serif" font-size="10.00" fill="#000000">MapNode::getTileData</text>
</a>
</g>
</g>
<!-- Node34&#45;&gt;Node35 -->
<g id="edge11" class="edge">
<title>Node34&#45;&gt;Node35</title>
<path fill="none" stroke="#191970" d="M616.1889,-323.5582C636.6717,-322.9528 659.3463,-322.2826 680.2481,-321.6649"/>
<polygon fill="#191970" stroke="#191970" points="680.457,-325.1603 690.3492,-321.3663 680.2502,-318.1634 680.457,-325.1603"/>
</g>
<!-- Node36&#45;&gt;Node29 -->
<g id="edge13" class="edge">
<title>Node36&#45;&gt;Node29</title>
<path fill="none" stroke="#191970" d="M612.0257,-198.7573C670.404,-199.1885 759.9764,-202.8081 836,-218.5145 924.853,-236.8715 1023.6272,-276.5841 1078.2779,-300.3775"/>
<polygon fill="#191970" stroke="#191970" points="1077.0693,-303.6693 1087.6329,-304.4831 1079.8824,-297.2594 1077.0693,-303.6693"/>
</g>
<!-- Node37 -->
<g id="node11" class="node">
<title>Node37</title>
<g id="a_node11"><a xlink:href="classTileManager.html#a8ee071ff8b24926288437d310f9bc714" target="_top" xlink:title="TileManager::getTileData">
<polygon fill="none" stroke="#000000" points="683,-228.0145 683,-247.0145 823,-247.0145 823,-228.0145 683,-228.0145"/>
<text text-anchor="middle" x="753" y="-235.0145" font-family="Helvetica,sans-Serif" font-size="10.00" fill="#000000">TileManager::getTileData</text>
</a>
</g>
</g>
<!-- Node36&#45;&gt;Node37 -->
<g id="edge14" class="edge">
<title>Node36&#45;&gt;Node37</title>
<path fill="none" stroke="#191970" d="M600.9634,-209.0545C628.5941,-214.2267 662.9328,-220.6547 691.9811,-226.0923"/>
<polygon fill="#191970" stroke="#191970" points="691.5423,-229.5709 702.0156,-227.9707 692.8303,-222.6904 691.5423,-229.5709"/>
</g>
<!-- Node38&#45;&gt;Node28 -->
<g id="edge21" class="edge">
<title>Node38&#45;&gt;Node28</title>
<path fill="none" stroke="#191970" d="M513.2569,-133.0279C459.5656,-143.0254 358.7325,-157.2843 291.2089,-164.7332"/>
<polygon fill="#191970" stroke="#191970" points="290.6513,-161.2729 281.0842,-165.825 291.4019,-168.2326 290.6513,-161.2729"/>
</g>
<!-- Node38&#45;&gt;Node30 -->
<g id="edge16" class="edge">
<title>Node38&#45;&gt;Node30</title>
<path fill="none" stroke="#191970" d="M631.9112,-123.5145C706.9158,-123.5145 816.4421,-123.5145 885.4276,-123.5145"/>
<polygon fill="#191970" stroke="#191970" points="885.721,-127.0146 895.721,-123.5145 885.7209,-120.0146 885.721,-127.0146"/>
</g>
<!-- Node38&#45;&gt;Node32 -->
<g id="edge18" class="edge">
<title>Node38&#45;&gt;Node32</title>
<path fill="none" stroke="#191970" d="M536.7636,-133.0785C520.0923,-140.0676 490.6451,-147.9615 466,-156.5145 452.2739,-161.2782 437.6368,-166.9883 424.1514,-172.2025"/>
<polygon fill="#191970" stroke="#191970" points="422.641,-169.0334 414.5648,-175.891 425.1547,-175.5665 422.641,-169.0334"/>
</g>
<!-- Node39 -->
<g id="node13" class="node">
<title>Node39</title>
<g id="a_node13"><a xlink:href="classMap.html#a0ff55eb041cdf29aa582a21145319ce0" target="_top" xlink:title="Get elevated neighbor positions in a bitmask Checks all neighboring tiles and returns the elevated ne...">
<polygon fill="none" stroke="#000000" points="680,-64.5145 680,-94.5145 826,-94.5145 826,-64.5145 680,-64.5145"/>
<text text-anchor="start" x="688" y="-82.5145" font-family="Helvetica,sans-Serif" font-size="10.00" fill="#000000">Map::getElevatedNeighbor</text>
<text text-anchor="middle" x="753" y="-71.5145" font-family="Helvetica,sans-Serif" font-size="10.00" fill="#000000">Bitmask</text>
</a>
</g>
</g>
<!-- Node38&#45;&gt;Node39 -->
<g id="edge17" class="edge">
<title>Node38&#45;&gt;Node39</title>
<path fill="none" stroke="#191970" d="M594.048,-113.9672C617.3115,-108.9249 646.5789,-102.5812 673.6393,-96.7159"/>
<polygon fill="#191970" stroke="#191970" points="674.4623,-100.1189 683.4939,-94.5799 672.9794,-93.2777 674.4623,-100.1189"/>
</g>
<!-- Node40 -->
<g id="node14" class="node">
<title>Node40</title>
<g id="a_node14"><a xlink:href="classMap.html#a3f5c7dd50cdc712e1ef18047cf619888" target="_top" xlink:title="Get a bitmask that represents same&#45;tile neighbors Checks all neighboring tiles and returns the elevat...">
<polygon fill="none" stroke="#000000" points="670,-26.0145 670,-45.0145 836,-45.0145 836,-26.0145 670,-26.0145"/>
<text text-anchor="middle" x="753" y="-33.0145" font-family="Helvetica,sans-Serif" font-size="10.00" fill="#000000">Map::calculateAutotileBitmask</text>
</a>
</g>
</g>
<!-- Node38&#45;&gt;Node40 -->
<g id="edge19" class="edge">
<title>Node38&#45;&gt;Node40</title>
<path fill="none" stroke="#191970" d="M563.7194,-113.7962C585.3271,-98.9238 629.0528,-70.5586 670,-54.5145 676.6237,-51.9192 683.6903,-49.6282 690.7991,-47.6189"/>
<polygon fill="#191970" stroke="#191970" points="691.7128,-50.9976 700.4815,-45.0512 689.9184,-44.2315 691.7128,-50.9976"/>
</g>
<!-- Node42 -->
<g id="node16" class="node">
<title>Node42</title>
<g id="a_node16"><a xlink:href="classMap.html#afb8cc864df90d273a5074872d635dc40" target="_top" xlink:title="Decrease Height Decreases the height of the node and checks the surrounding tiles. Either draw a slope sprite or lower the tile if necessary. ">
<polygon fill="none" stroke="#000000" points="693.5,-152.0145 693.5,-171.0145 812.5,-171.0145 812.5,-152.0145 693.5,-152.0145"/>
<text text-anchor="middle" x="753" y="-159.0145" font-family="Helvetica,sans-Serif" font-size="10.00" fill="#000000">Map::decreaseHeight</text>
</a>
</g>
</g>
<!-- Node38&#45;&gt;Node42 -->
<g id="edge22" class="edge">
<title>Node38&#45;&gt;Node42</title>
<path fill="none" stroke="#191970" d="M631.6904,-132.1719C661.4413,-137.3898 693.5547,-143.8504 717.2626,-149.5379"/>
<polygon fill="#191970" stroke="#191970" points="716.6518,-152.9925 727.2006,-152.0056 718.3388,-146.1988 716.6518,-152.9925"/>
</g>
<!-- Node41 -->
<g id="node15" class="node">
<title>Node41</title>
<g id="a_node15"><a xlink:href="classMap.html#a4700614f8c7d02b9ca18ad7e916a2312" target="_top" xlink:title="Map::isLayerAutoTile">
<polygon fill="none" stroke="#000000" points="890.5,-26.0145 890.5,-45.0145 1009.5,-45.0145 1009.5,-26.0145 890.5,-26.0145"/>
<text text-anchor="middle" x="950" y="-33.0145" font-family="Helvetica,sans-Serif" font-size="10.00" fill="#000000">Map::isLayerAutoTile</text>
</a>
</g>
</g>
<!-- Node40&#45;&gt;Node41 -->
<g id="edge20" class="edge">
<title>Node40&#45;&gt;Node41</title>
<path fill="none" stroke="#191970" d="M836.2602,-35.5145C850.8789,-35.5145 865.9566,-35.5145 880.1629,-35.5145"/>
<polygon fill="#191970" stroke="#191970" points="880.3344,-39.0146 890.3343,-35.5145 880.3343,-32.0146 880.3344,-39.0146"/>
</g>
<!-- Node42&#45;&gt;Node30 -->
<g id="edge23" class="edge">
<title>Node42&#45;&gt;Node30</title>
<path fill="none" stroke="#191970" d="M802.4571,-151.9746C829.154,-146.8249 862.304,-140.4305 890.4151,-135.0081"/>
<polygon fill="#191970" stroke="#191970" points="891.3665,-138.3892 900.5225,-133.0584 890.0406,-131.5159 891.3665,-138.3892"/>
</g>
<!-- Node42&#45;&gt;Node31 -->
<g id="edge24" class="edge">
<title>Node42&#45;&gt;Node31</title>
<path fill="none" stroke="#191970" d="M768.085,-171.0704C785.0252,-181.9837 813.1368,-200.6457 836,-218.5145 871.6543,-246.3803 910.5848,-282.1259 932.4774,-302.7628"/>
<polygon fill="#191970" stroke="#191970" points="930.3256,-305.5457 939.9913,-309.8844 935.141,-300.4651 930.3256,-305.5457"/>
</g>
<!-- Node42&#45;&gt;Node32 -->
<g id="edge25" class="edge">
<title>Node42&#45;&gt;Node32</title>
<path fill="none" stroke="#191970" d="M693.2889,-165.2907C624.6282,-169.6329 512.1961,-176.7433 440.5757,-181.2726"/>
<polygon fill="#191970" stroke="#191970" points="440.0741,-177.7972 430.315,-181.9215 440.516,-184.7833 440.0741,-177.7972"/>
</g>
<!-- Node42&#45;&gt;Node38 -->
<g id="edge26" class="edge">
<title>Node42&#45;&gt;Node38</title>
<path fill="none" stroke="#191970" d="M693.3185,-156.5553C658.5156,-150.9865 615.7631,-142.6805 586.0534,-135.5669"/>
<polygon fill="#191970" stroke="#191970" points="586.6713,-132.1142 576.1231,-133.1069 584.9881,-138.9089 586.6713,-132.1142"/>
</g>
</g>
</svg>
