<?xml version="1.0" encoding="UTF-8" standalone="no"?>
<!DOCTYPE svg PUBLIC "-//W3C//DTD SVG 1.1//EN"
 "http://www.w3.org/Graphics/SVG/1.1/DTD/svg11.dtd">
<!-- Generated by graphviz version 2.40.1 (20161225.0304)
 -->
<!-- Title: UIManager::getUiElementByID Pages: 1 -->
<svg width="984pt" height="145pt"
 viewBox="0.00 0.00 984.00 145.00" xmlns="http://www.w3.org/2000/svg" xmlns:xlink="http://www.w3.org/1999/xlink">
<g id="graph0" class="graph" transform="scale(1 1) rotate(0) translate(4 141)">
<title>UIManager::getUiElementByID</title>
<!-- Node108 -->
<g id="node1" class="node">
<title>Node108</title>
<polygon fill="#bfbfbf" stroke="#000000" points="0,-60.5 0,-79.5 165,-79.5 165,-60.5 0,-60.5"/>
<text text-anchor="middle" x="82.5" y="-67.5" font-family="Helvetica,sans-Serif" font-size="10.00" fill="#000000">UIManager::getUiElementByID</text>
</g>
<!-- Node109 -->
<g id="node2" class="node">
<title>Node109</title>
<g id="a_node2"><a xlink:href="classLayout.html#a99004e4afcea6a945e3890b19cce6236" target="_top" xlink:title="Arrange Elements that are aligned to a parent This is a seperate function, so it can recurse if a par...">
<polygon fill="none" stroke="#000000" points="201,-60.5 201,-79.5 365,-79.5 365,-60.5 201,-60.5"/>
<text text-anchor="middle" x="283" y="-67.5" font-family="Helvetica,sans-Serif" font-size="10.00" fill="#000000">Layout::arrangeChildElements</text>
</a>
</g>
</g>
<!-- Node108&#45;&gt;Node109 -->
<g id="edge1" class="edge">
<title>Node108&#45;&gt;Node109</title>
<path fill="none" stroke="#191970" d="M175.4719,-70C183.9276,-70 192.4527,-70 200.8049,-70"/>
<polygon fill="#191970" stroke="#191970" points="175.2086,-66.5001 165.2086,-70 175.2086,-73.5001 175.2086,-66.5001"/>
</g>
<!-- Node110 -->
<g id="node3" class="node">
<title>Node110</title>
<g id="a_node3"><a xlink:href="classLayout.html#afa734c5af10f59f3dadb066054fe81ab" target="_top" xlink:title="Arrange the layout elements. ">
<polygon fill="none" stroke="#000000" points="401,-60.5 401,-79.5 540,-79.5 540,-60.5 401,-60.5"/>
<text text-anchor="middle" x="470.5" y="-67.5" font-family="Helvetica,sans-Serif" font-size="10.00" fill="#000000">Layout::arrangeElements</text>
</a>
</g>
</g>
<!-- Node109&#45;&gt;Node110 -->
<g id="edge2" class="edge">
<title>Node109&#45;&gt;Node110</title>
<path fill="none" stroke="#191970" d="M375.3281,-70C383.9426,-70 392.5731,-70 400.9286,-70"/>
<polygon fill="#191970" stroke="#191970" points="375.2403,-66.5001 365.2402,-70 375.2402,-73.5001 375.2403,-66.5001"/>
</g>
<!-- Node111 -->
<g id="node4" class="node">
<title>Node111</title>
<g id="a_node4"><a xlink:href="UIManager_8cxx.html#a93ebc51d97942bf4e32123b5c61c4141" target="_top" xlink:title="BETTER_ENUM">
<polygon fill="none" stroke="#000000" points="624.5,-117.5 624.5,-136.5 713.5,-136.5 713.5,-117.5 624.5,-117.5"/>
<text text-anchor="middle" x="669" y="-124.5" font-family="Helvetica,sans-Serif" font-size="10.00" fill="#000000">BETTER_ENUM</text>
</a>
</g>
</g>
<!-- Node110&#45;&gt;Node111 -->
<g id="edge3" class="edge">
<title>Node110&#45;&gt;Node111</title>
<path fill="none" stroke="#191970" d="M503.6055,-83.3152C524.1955,-91.2471 551.3551,-101.083 576,-108 591.5489,-112.3641 608.822,-116.1712 624.2204,-119.2084"/>
<polygon fill="#191970" stroke="#191970" points="504.6536,-79.9673 494.0653,-79.5955 502.1107,-86.4891 504.6536,-79.9673"/>
</g>
<!-- Node112 -->
<g id="node5" class="node">
<title>Node112</title>
<g id="a_node5"><a xlink:href="classUIManager.html#a3ccb2fc669262f18ebdcdf3d5c43a3e8" target="_top" xlink:title="CallbackFunction that sets the Build Menu Position Used as callback function for the ComboBox that ho...">
<polygon fill="none" stroke="#000000" points="579,-79.5 579,-98.5 759,-98.5 759,-79.5 579,-79.5"/>
<text text-anchor="middle" x="669" y="-86.5" font-family="Helvetica,sans-Serif" font-size="10.00" fill="#000000">UIManager::setBuildMenuPosition</text>
</a>
</g>
</g>
<!-- Node110&#45;&gt;Node112 -->
<g id="edge4" class="edge">
<title>Node110&#45;&gt;Node112</title>
<path fill="none" stroke="#191970" d="M550.3037,-77.6386C559.7142,-78.5394 569.3674,-79.4634 578.9068,-80.3765"/>
<polygon fill="#191970" stroke="#191970" points="550.4926,-74.1408 540.2046,-76.672 549.8255,-81.109 550.4926,-74.1408"/>
</g>
<!-- Node114 -->
<g id="node7" class="node">
<title>Node114</title>
<g id="a_node7"><a xlink:href="classUIManager.html#ac927e1cd3dea979202ea9dbf1195b583" target="_top" xlink:title="UIManager::changeResolution">
<polygon fill="none" stroke="#000000" points="588.5,-3.5 588.5,-22.5 749.5,-22.5 749.5,-3.5 588.5,-3.5"/>
<text text-anchor="middle" x="669" y="-10.5" font-family="Helvetica,sans-Serif" font-size="10.00" fill="#000000">UIManager::changeResolution</text>
</a>
</g>
</g>
<!-- Node110&#45;&gt;Node114 -->
<g id="edge6" class="edge">
<title>Node110&#45;&gt;Node114</title>
<path fill="none" stroke="#191970" d="M503.6055,-56.6848C524.1955,-48.7529 551.3551,-38.917 576,-32 588.693,-28.4375 602.5349,-25.2461 615.5681,-22.5418"/>
<polygon fill="#191970" stroke="#191970" points="502.1107,-53.5109 494.0653,-60.4045 504.6536,-60.0327 502.1107,-53.5109"/>
</g>
<!-- Node116 -->
<g id="node9" class="node">
<title>Node116</title>
<g id="a_node9"><a xlink:href="classUIManager.html#af2ffb4ee45e57152164643ef6cddda37" target="_top" xlink:title="UIManager::changeFullScreenMode">
<polygon fill="none" stroke="#000000" points="576,-41.5 576,-60.5 762,-60.5 762,-41.5 576,-41.5"/>
<text text-anchor="middle" x="669" y="-48.5" font-family="Helvetica,sans-Serif" font-size="10.00" fill="#000000">UIManager::changeFullScreenMode</text>
</a>
</g>
</g>
<!-- Node110&#45;&gt;Node116 -->
<g id="edge9" class="edge">
<title>Node110&#45;&gt;Node116</title>
<path fill="none" stroke="#191970" d="M550.3118,-62.3606C558.69,-61.5586 567.2605,-60.7383 575.7717,-59.9236"/>
<polygon fill="#191970" stroke="#191970" points="549.8255,-58.891 540.2046,-63.328 550.4926,-65.8592 549.8255,-58.891"/>
</g>
<!-- Node113 -->
<g id="node6" class="node">
<title>Node113</title>
<g id="a_node6"><a xlink:href="classUIManager.html#a5c4cb8e02504ffa0d3faf45181feab9d" target="_top" xlink:title="Fill UI Widgets whose ID start with a $ with data Used for filling widgets with data, like BuildMenu Position combobox, Screen Resolution ComboBox and so on. ">
<polygon fill="none" stroke="#000000" points="814,-39 814,-69 960,-69 960,-39 814,-39"/>
<text text-anchor="start" x="822" y="-57" font-family="Helvetica,sans-Serif" font-size="10.00" fill="#000000">UIManager::initializeDollar</text>
<text text-anchor="middle" x="887" y="-46" font-family="Helvetica,sans-Serif" font-size="10.00" fill="#000000">Variables</text>
</a>
</g>
</g>
<!-- Node112&#45;&gt;Node113 -->
<g id="edge5" class="edge">
<title>Node112&#45;&gt;Node113</title>
<path fill="none" stroke="#191970" d="M738.378,-77.8613C762.3995,-74.0047 789.3928,-69.6709 813.7179,-65.7655"/>
<polygon fill="#191970" stroke="#191970" points="737.6002,-74.4413 728.2815,-79.4823 738.7099,-81.3528 737.6002,-74.4413"/>
</g>
<!-- Node114&#45;&gt;Node113 -->
<g id="edge8" class="edge">
<title>Node114&#45;&gt;Node113</title>
<path fill="none" stroke="#191970" d="M729.7056,-24.4171C755.8423,-29.3327 786.6226,-35.1217 813.9923,-40.2692"/>
<polygon fill="#191970" stroke="#191970" points="730.0362,-20.918 719.5615,-22.5093 728.7423,-27.7974 730.0362,-20.918"/>
</g>
<!-- Node115 -->
<g id="node8" class="node">
<title>Node115</title>
<g id="a_node8"><a xlink:href="classUIManager.html#aa78e356fc3b356d790c848319d1c387e" target="_top" xlink:title="UIManager::setCallbackFunctions">
<polygon fill="none" stroke="#000000" points="798,-.5 798,-19.5 976,-19.5 976,-.5 798,-.5"/>
<text text-anchor="middle" x="887" y="-7.5" font-family="Helvetica,sans-Serif" font-size="10.00" fill="#000000">UIManager::setCallbackFunctions</text>
</a>
</g>
</g>
<!-- Node114&#45;&gt;Node115 -->
<g id="edge7" class="edge">
<title>Node114&#45;&gt;Node115</title>
<path fill="none" stroke="#191970" d="M759.6341,-11.7527C772.309,-11.5783 785.3251,-11.3992 797.9699,-11.2252"/>
<polygon fill="#191970" stroke="#191970" points="759.5066,-8.2541 749.5558,-11.8914 759.603,-15.2534 759.5066,-8.2541"/>
</g>
<!-- Node116&#45;&gt;Node113 -->
<g id="edge10" class="edge">
<title>Node116&#45;&gt;Node113</title>
<path fill="none" stroke="#191970" d="M772.3047,-52.4216C786.3906,-52.6155 800.6036,-52.8111 813.9995,-52.9954"/>
<polygon fill="#191970" stroke="#191970" points="772.1312,-48.919 762.084,-52.281 772.0348,-55.9183 772.1312,-48.919"/>
</g>
</g>
</svg>
