<?xml version="1.0" encoding="UTF-8" standalone="no"?>
<!DOCTYPE svg PUBLIC "-//W3C//DTD SVG 1.1//EN"
 "http://www.w3.org/Graphics/SVG/1.1/DTD/svg11.dtd">
<!-- Generated by graphviz version 2.40.1 (20161225.0304)
 -->
<!-- Title: ResourceManager Pages: 1 -->
<svg width="138pt" height="415pt"
 viewBox="0.00 0.00 137.50 415.00" xmlns="http://www.w3.org/2000/svg" xmlns:xlink="http://www.w3.org/1999/xlink">
<g id="graph0" class="graph" transform="scale(1 1) rotate(0) translate(4 411)">
<title>ResourceManager</title>
<!-- Node2 -->
<g id="node1" class="node">
<title>Node2</title>
<polygon fill="#bfbfbf" stroke="#000000" points="2.5,-.5 2.5,-90.5 124.5,-90.5 124.5,-.5 2.5,-.5"/>
<text text-anchor="middle" x="63.5" y="-78.5" font-family="Helvetica,sans-Serif" font-size="10.00" fill="#000000">ResourceManager</text>
<polyline fill="none" stroke="#000000" points="2.5,-71.5 124.5,-71.5 "/>
<text text-anchor="start" x="10.5" y="-59.5" font-family="Helvetica,sans-Serif" font-size="10.00" fill="#000000">&#45; m_Age</text>
<text text-anchor="start" x="10.5" y="-48.5" font-family="Helvetica,sans-Serif" font-size="10.00" fill="#000000">&#45; m_CacheSize</text>
<polyline fill="none" stroke="#000000" points="2.5,-41.5 124.5,-41.5 "/>
<text text-anchor="start" x="10.5" y="-29.5" font-family="Helvetica,sans-Serif" font-size="10.00" fill="#000000">+ ResourceManager()</text>
<text text-anchor="start" x="10.5" y="-18.5" font-family="Helvetica,sans-Serif" font-size="10.00" fill="#000000">+ get()</text>
<text text-anchor="start" x="10.5" y="-7.5" font-family="Helvetica,sans-Serif" font-size="10.00" fill="#000000">+ prune()</text>
</g>
<!-- Node3 -->
<g id="node2" class="node">
<title>Node3</title>
<g id="a_node2"><a xlink:href="classGameService.html" target="_top" xlink:title="{GameService\n||+ GameService()\l# GetService()\l}">
<polygon fill="none" stroke="#000000" points="13,-128.5 13,-196.5 114,-196.5 114,-128.5 13,-128.5"/>
<text text-anchor="middle" x="63.5" y="-184.5" font-family="Helvetica,sans-Serif" font-size="10.00" fill="#000000">GameService</text>
<polyline fill="none" stroke="#000000" points="13,-177.5 114,-177.5 "/>
<text text-anchor="middle" x="63.5" y="-165.5" font-family="Helvetica,sans-Serif" font-size="10.00" fill="#000000"> </text>
<polyline fill="none" stroke="#000000" points="13,-158.5 114,-158.5 "/>
<text text-anchor="start" x="21" y="-146.5" font-family="Helvetica,sans-Serif" font-size="10.00" fill="#000000">+ GameService()</text>
<text text-anchor="start" x="21" y="-135.5" font-family="Helvetica,sans-Serif" font-size="10.00" fill="#000000"># GetService()</text>
</a>
</g>
</g>
<!-- Node3&#45;&gt;Node2 -->
<g id="edge1" class="edge">
<title>Node3&#45;&gt;Node2</title>
<path fill="none" stroke="#191970" d="M63.5,-118.1185C63.5,-109.1783 63.5,-99.7704 63.5,-90.7993"/>
<polygon fill="none" stroke="#191970" points="60.0001,-118.3442 63.5,-128.3442 67.0001,-118.3443 60.0001,-118.3442"/>
</g>
<!-- Node4 -->
<g id="node3" class="node">
<title>Node4</title>
<g id="a_node3"><a xlink:href="structTupleType.html" target="_top" xlink:title="{TupleType\&lt; TypeList \&gt;\n||}">
<polygon fill="none" stroke="#000000" points="0,-244.5 0,-301.5 127,-301.5 127,-244.5 0,-244.5"/>
<text text-anchor="middle" x="63.5" y="-289.5" font-family="Helvetica,sans-Serif" font-size="10.00" fill="#000000">TupleType&lt; TypeList &gt;</text>
<polyline fill="none" stroke="#000000" points="0,-282.5 127,-282.5 "/>
<text text-anchor="middle" x="63.5" y="-270.5" font-family="Helvetica,sans-Serif" font-size="10.00" fill="#000000"> </text>
<polyline fill="none" stroke="#000000" points="0,-263.5 127,-263.5 "/>
<text text-anchor="middle" x="63.5" y="-251.5" font-family="Helvetica,sans-Serif" font-size="10.00" fill="#000000"> </text>
</a>
</g>
</g>
<!-- Node4&#45;&gt;Node3 -->
<g id="edge2" class="edge">
<title>Node4&#45;&gt;Node3</title>
<path fill="none" stroke="#404040" d="M63.5,-244.2559C63.5,-233.4349 63.5,-220.8362 63.5,-208.8169"/>
<polygon fill="none" stroke="#404040" points="63.5001,-208.6001 59.5,-202.6001 63.5,-196.6001 67.5,-202.6 63.5001,-208.6001"/>
<text text-anchor="middle" x="95.5" y="-218" font-family="Helvetica,sans-Serif" font-size="10.00" fill="#000000"> &#45;m_Services</text>
</g>
<!-- Node5 -->
<g id="node4" class="node">
<title>Node5</title>
<g id="a_node4"><a xlink:href="structTupleType.html" target="_top" xlink:title="TupleType::type returns std::tuple&lt;All fields inside the TypeList&gt; ">
<polygon fill="none" stroke="#000000" points="11.5,-349.5 11.5,-406.5 115.5,-406.5 115.5,-349.5 11.5,-349.5"/>
<text text-anchor="middle" x="63.5" y="-394.5" font-family="Helvetica,sans-Serif" font-size="10.00" fill="#000000">TupleType&lt; List &gt;</text>
<polyline fill="none" stroke="#000000" points="11.5,-387.5 115.5,-387.5 "/>
<text text-anchor="middle" x="63.5" y="-375.5" font-family="Helvetica,sans-Serif" font-size="10.00" fill="#000000"> </text>
<polyline fill="none" stroke="#000000" points="11.5,-368.5 115.5,-368.5 "/>
<text text-anchor="middle" x="63.5" y="-356.5" font-family="Helvetica,sans-Serif" font-size="10.00" fill="#000000"> </text>
</a>
</g>
</g>
<!-- Node5&#45;&gt;Node4 -->
<g id="edge3" class="edge">
<title>Node5&#45;&gt;Node4</title>
<path fill="none" stroke="#ffa500" d="M63.5,-339.192C63.5,-326.7605 63.5,-313.2278 63.5,-301.657"/>
<polygon fill="#ffa500" stroke="#ffa500" points="60.0001,-339.3083 63.5,-349.3083 67.0001,-339.3083 60.0001,-339.3083"/>
<text text-anchor="middle" x="96.5" y="-323" font-family="Helvetica,sans-Serif" font-size="10.00" fill="#000000"> &lt; TypeList &gt;</text>
</g>
</g>
</svg>
