<?xml version="1.0" encoding="UTF-8" standalone="no"?>
<!DOCTYPE svg PUBLIC "-//W3C//DTD SVG 1.1//EN"
 "http://www.w3.org/Graphics/SVG/1.1/DTD/svg11.dtd">
<!-- Generated by graphviz version 2.40.1 (20161225.0304)
 -->
<!-- Title: Slider::onMouseButtonDown Pages: 1 -->
<svg width="330pt" height="104pt"
 viewBox="0.00 0.00 330.00 104.00" xmlns="http://www.w3.org/2000/svg" xmlns:xlink="http://www.w3.org/1999/xlink">
<g id="graph0" class="graph" transform="scale(1 1) rotate(0) translate(4 100)">
<title>Slider::onMouseButtonDown</title>
<!-- Node20 -->
<g id="node1" class="node">
<title>Node20</title>
<polygon fill="#bfbfbf" stroke="#000000" points="0,-38.5 0,-57.5 154,-57.5 154,-38.5 0,-38.5"/>
<text text-anchor="middle" x="77" y="-45.5" font-family="Helvetica,sans-Serif" font-size="10.00" fill="#000000">Slider::onMouseButtonDown</text>
</g>
<!-- Node21 -->
<g id="node2" class="node">
<title>Node21</title>
<g id="a_node2"><a xlink:href="classSlider.html#a8733bd6dbaced97a10f28e2f03d6b0d0" target="_top" xlink:title="Checks if the mouses is over the line part of the slider checks if the mouse is over the sliderLine...">
<polygon fill="none" stroke="#000000" points="196,-76.5 196,-95.5 316,-95.5 316,-76.5 196,-76.5"/>
<text text-anchor="middle" x="256" y="-83.5" font-family="Helvetica,sans-Serif" font-size="10.00" fill="#000000">Slider::overSliderLine</text>
</a>
</g>
</g>
<!-- Node20&#45;&gt;Node21 -->
<g id="edge1" class="edge">
<title>Node20&#45;&gt;Node21</title>
<path fill="none" stroke="#191970" d="M122.1693,-57.589C146.2159,-62.6939 175.9744,-69.0113 201.3194,-74.3918"/>
<polygon fill="#191970" stroke="#191970" points="200.6467,-77.8269 211.1556,-76.4799 202.1004,-70.9795 200.6467,-77.8269"/>
</g>
<!-- Node22 -->
<g id="node3" class="node">
<title>Node22</title>
<g id="a_node3"><a xlink:href="classSlider.html#a1267136202d18a8a0bbb096b3d2e0360" target="_top" xlink:title="finds the slider&#39;s value based on where the button is on the line uses the button&#39;s coordinates to ca...">
<polygon fill="none" stroke="#000000" points="209.5,-38.5 209.5,-57.5 302.5,-57.5 302.5,-38.5 209.5,-38.5"/>
<text text-anchor="middle" x="256" y="-45.5" font-family="Helvetica,sans-Serif" font-size="10.00" fill="#000000">Slider::getValue</text>
</a>
</g>
</g>
<!-- Node20&#45;&gt;Node22 -->
<g id="edge2" class="edge">
<title>Node20&#45;&gt;Node22</title>
<path fill="none" stroke="#191970" d="M154.2109,-48C169.3629,-48 184.9939,-48 199.3221,-48"/>
<polygon fill="#191970" stroke="#191970" points="199.4996,-51.5001 209.4995,-48 199.4995,-44.5001 199.4996,-51.5001"/>
</g>
<!-- Node23 -->
<g id="node4" class="node">
<title>Node23</title>
<g id="a_node4"><a xlink:href="classSlider.html#ae9844f0d5c0f1d5fcb4f3a1b52120f51" target="_top" xlink:title="Checks if the mouse is over the button of the slider checks if the mouse is over the sliderButton...">
<polygon fill="none" stroke="#000000" points="190,-.5 190,-19.5 322,-19.5 322,-.5 190,-.5"/>
<text text-anchor="middle" x="256" y="-7.5" font-family="Helvetica,sans-Serif" font-size="10.00" fill="#000000">Slider::overSliderButton</text>
</a>
</g>
</g>
<!-- Node20&#45;&gt;Node23 -->
<g id="edge3" class="edge">
<title>Node20&#45;&gt;Node23</title>
<path fill="none" stroke="#191970" d="M122.1693,-38.411C146.2159,-33.3061 175.9744,-26.9887 201.3194,-21.6082"/>
<polygon fill="#191970" stroke="#191970" points="202.1004,-25.0205 211.1556,-19.5201 200.6467,-18.1731 202.1004,-25.0205"/>
</g>
</g>
</svg>
