<?xml version="1.0" encoding="UTF-8" standalone="no"?>
<!DOCTYPE svg PUBLIC "-//W3C//DTD SVG 1.1//EN"
 "http://www.w3.org/Graphics/SVG/1.1/DTD/svg11.dtd">
<!-- Generated by graphviz version 2.40.1 (20161225.0304)
 -->
<!-- Title: UIElement::setUIElementID Pages: 1 -->
<svg width="541pt" height="78pt"
 viewBox="0.00 0.00 541.00 77.50" xmlns="http://www.w3.org/2000/svg" xmlns:xlink="http://www.w3.org/1999/xlink">
<g id="graph0" class="graph" transform="scale(1 1) rotate(0) translate(4 73.5)">
<title>UIElement::setUIElementID</title>
<!-- Node269 -->
<g id="node1" class="node">
<title>Node269</title>
<polygon fill="#bfbfbf" stroke="#000000" points="0,-22.5 0,-41.5 150,-41.5 150,-22.5 0,-22.5"/>
<text text-anchor="middle" x="75" y="-29.5" font-family="Helvetica,sans-Serif" font-size="10.00" fill="#000000">UIElement::setUIElementID</text>
</g>
<!-- Node270 -->
<g id="node2" class="node">
<title>Node270</title>
<g id="a_node2"><a xlink:href="classUIElement.html#a452ffed1ff191ababc8c15d4c455f6c2" target="_top" xlink:title="Set the uiElements sprite ID Set the sprite ID this ui element. The texture will be retrieved from th...">
<polygon fill="none" stroke="#000000" points="186,-22.5 186,-41.5 321,-41.5 321,-22.5 186,-22.5"/>
<text text-anchor="middle" x="253.5" y="-29.5" font-family="Helvetica,sans-Serif" font-size="10.00" fill="#000000">UIElement::setTextureID</text>
</a>
</g>
</g>
<!-- Node269&#45;&gt;Node270 -->
<g id="edge1" class="edge">
<title>Node269&#45;&gt;Node270</title>
<path fill="none" stroke="#191970" d="M150.1827,-32C158.5822,-32 167.1521,-32 175.5848,-32"/>
<polygon fill="#191970" stroke="#191970" points="175.7822,-35.5001 185.7822,-32 175.7821,-28.5001 175.7822,-35.5001"/>
</g>
<!-- Node271 -->
<g id="node3" class="node">
<title>Node271</title>
<g id="a_node3"><a xlink:href="classSingleton.html#af5cb1e5749949e2b68416cfb8d378044" target="_top" xlink:title="Get an instance of the singleton. ">
<polygon fill="none" stroke="#000000" points="362.5,-39 362.5,-69 527.5,-69 527.5,-39 362.5,-39"/>
<text text-anchor="start" x="370.5" y="-57" font-family="Helvetica,sans-Serif" font-size="10.00" fill="#000000">Singleton&lt; ResourcesManager</text>
<text text-anchor="middle" x="445" y="-46" font-family="Helvetica,sans-Serif" font-size="10.00" fill="#000000"> &gt;::instance</text>
</a>
</g>
</g>
<!-- Node270&#45;&gt;Node271 -->
<g id="edge2" class="edge">
<title>Node270&#45;&gt;Node271</title>
<path fill="none" stroke="#191970" d="M321.0157,-39.7564C331.1346,-40.9189 341.7155,-42.1344 352.248,-43.3444"/>
<polygon fill="#191970" stroke="#191970" points="351.9806,-46.8366 362.3147,-44.5009 352.7795,-39.8824 351.9806,-46.8366"/>
</g>
<!-- Node272 -->
<g id="node4" class="node">
<title>Node272</title>
<g id="a_node4"><a xlink:href="classResourcesManager.html#aae2a2032792aaa57862eb9c494ae1cf2" target="_top" xlink:title="ResourcesManager::getUITexture">
<polygon fill="none" stroke="#000000" points="357,-.5 357,-19.5 533,-19.5 533,-.5 357,-.5"/>
<text text-anchor="middle" x="445" y="-7.5" font-family="Helvetica,sans-Serif" font-size="10.00" fill="#000000">ResourcesManager::getUITexture</text>
</a>
</g>
</g>
<!-- Node270&#45;&gt;Node272 -->
<g id="edge3" class="edge">
<title>Node270&#45;&gt;Node272</title>
<path fill="none" stroke="#191970" d="M321.0157,-24.2436C331.053,-23.0905 341.5449,-21.8852 351.9932,-20.6849"/>
<polygon fill="#191970" stroke="#191970" points="352.4459,-24.156 361.981,-19.5374 351.6469,-17.2017 352.4459,-24.156"/>
</g>
</g>
</svg>
