<?xml version="1.0" encoding="UTF-8" standalone="no"?>
<!DOCTYPE svg PUBLIC "-//W3C//DTD SVG 1.1//EN"
 "http://www.w3.org/Graphics/SVG/1.1/DTD/svg11.dtd">
<!-- Generated by graphviz version 2.40.1 (20161225.0304)
 -->
<!-- Title: Engine::setTileIDOfNode Pages: 1 -->
<svg width="1429pt" height="588pt"
 viewBox="0.00 0.00 1429.00 588.00" xmlns="http://www.w3.org/2000/svg" xmlns:xlink="http://www.w3.org/1999/xlink">
<g id="graph0" class="graph" transform="scale(1 1) rotate(0) translate(4 584)">
<title>Engine::setTileIDOfNode</title>
<!-- Node163 -->
<g id="node1" class="node">
<title>Node163</title>
<polygon fill="#bfbfbf" stroke="#000000" points="0,-247.5 0,-266.5 136,-266.5 136,-247.5 0,-247.5"/>
<text text-anchor="middle" x="68" y="-254.5" font-family="Helvetica,sans-Serif" font-size="10.00" fill="#000000">Engine::setTileIDOfNode</text>
</g>
<!-- Node164 -->
<g id="node2" class="node">
<title>Node164</title>
<g id="a_node2"><a xlink:href="classMap.html#a404c38b33d61f8c63ce2c2efb864d6dd" target="_top" xlink:title="Set the Tile ID Of Node object Also invokes all necessary texture updates (auto&#45;tiling, slopes, ...) ">
<polygon fill="none" stroke="#000000" points="172,-247.5 172,-266.5 295,-266.5 295,-247.5 172,-247.5"/>
<text text-anchor="middle" x="233.5" y="-254.5" font-family="Helvetica,sans-Serif" font-size="10.00" fill="#000000">Map::setTileIDOfNode</text>
</a>
</g>
</g>
<!-- Node163&#45;&gt;Node164 -->
<g id="edge1" class="edge">
<title>Node163&#45;&gt;Node164</title>
<path fill="none" stroke="#191970" d="M136.2707,-257C144.6266,-257 153.1858,-257 161.5931,-257"/>
<polygon fill="#191970" stroke="#191970" points="161.7489,-260.5001 171.7489,-257 161.7489,-253.5001 161.7489,-260.5001"/>
</g>
<!-- Node165 -->
<g id="node3" class="node">
<title>Node165</title>
<g id="a_node3"><a xlink:href="classMap.html#a609379595b9b172ad3d0e6363817c00f" target="_top" xlink:title="Map::isPlacementOnNodeAllowed">
<polygon fill="none" stroke="#000000" points="1070,-64.5 1070,-83.5 1251,-83.5 1251,-64.5 1070,-64.5"/>
<text text-anchor="middle" x="1160.5" y="-71.5" font-family="Helvetica,sans-Serif" font-size="10.00" fill="#000000">Map::isPlacementOnNodeAllowed</text>
</a>
</g>
</g>
<!-- Node164&#45;&gt;Node165 -->
<g id="edge2" class="edge">
<title>Node164&#45;&gt;Node165</title>
<path fill="none" stroke="#191970" d="M256.0987,-247.3874C275.6993,-239.2449 304.938,-227.5627 331,-219 392.6599,-198.7415 416.2603,-214.2481 472,-181 491.98,-169.0822 487.3134,-153.6441 508,-143 579.8185,-106.0465 787.6472,-101.1787 868,-93 931.6391,-86.5225 1003.3049,-81.8252 1059.771,-78.7216"/>
<polygon fill="#191970" stroke="#191970" points="1059.9766,-82.2157 1069.7725,-78.1798 1059.5978,-75.226 1059.9766,-82.2157"/>
</g>
<!-- Node166 -->
<g id="node4" class="node">
<title>Node166</title>
<g id="a_node4"><a xlink:href="classSingleton.html#af5cb1e5749949e2b68416cfb8d378044" target="_top" xlink:title="Get an instance of the singleton. ">
<polygon fill="none" stroke="#000000" points="1287,-318 1287,-348 1421,-348 1421,-318 1287,-318"/>
<text text-anchor="start" x="1295" y="-336" font-family="Helvetica,sans-Serif" font-size="10.00" fill="#000000">Singleton&lt; TileManager</text>
<text text-anchor="middle" x="1354" y="-325" font-family="Helvetica,sans-Serif" font-size="10.00" fill="#000000"> &gt;::instance</text>
</a>
</g>
</g>
<!-- Node164&#45;&gt;Node166 -->
<g id="edge4" class="edge">
<title>Node164&#45;&gt;Node166</title>
<path fill="none" stroke="#191970" d="M235.1625,-266.8829C241.3866,-300.9738 266.3544,-415.06 331,-479 412.4064,-559.5179 453.5006,-580 568,-580 568,-580 568,-580 951,-580 1096.3136,-580 1133.4909,-535.4849 1251,-450 1287.2156,-423.6541 1319.6508,-382.4779 1338.0593,-356.6547"/>
<polygon fill="#191970" stroke="#191970" points="1341.1027,-358.4102 1343.9689,-348.2105 1335.3676,-354.3966 1341.1027,-358.4102"/>
</g>
<!-- Node167 -->
<g id="node5" class="node">
<title>Node167</title>
<g id="a_node5"><a xlink:href="classTileManager.html#a105151a0c336807e918aff002ffd6101" target="_top" xlink:title="TileManager::getTileLayer">
<polygon fill="none" stroke="#000000" points="676.5,-468.5 676.5,-487.5 819.5,-487.5 819.5,-468.5 676.5,-468.5"/>
<text text-anchor="middle" x="748" y="-475.5" font-family="Helvetica,sans-Serif" font-size="10.00" fill="#000000">TileManager::getTileLayer</text>
</a>
</g>
</g>
<!-- Node164&#45;&gt;Node167 -->
<g id="edge5" class="edge">
<title>Node164&#45;&gt;Node167</title>
<path fill="none" stroke="#191970" d="M237.8583,-266.572C249.3744,-290.7516 283.0536,-354.6591 331,-387 432.4445,-455.4265 576.5286,-473.4399 666.0305,-477.6067"/>
<polygon fill="#191970" stroke="#191970" points="665.9923,-481.1081 676.1298,-478.0289 666.2848,-474.1142 665.9923,-481.1081"/>
</g>
<!-- Node169 -->
<g id="node7" class="node">
<title>Node169</title>
<g id="a_node7"><a xlink:href="classMap.html#aa8cc2ed983007621bce12dd9d1b8ec5b" target="_top" xlink:title="Demolish a node This function gathers all tiles that should be demolished and invokes the nodes demol...">
<polygon fill="none" stroke="#000000" points="511.5,-304.5 511.5,-323.5 624.5,-323.5 624.5,-304.5 511.5,-304.5"/>
<text text-anchor="middle" x="568" y="-311.5" font-family="Helvetica,sans-Serif" font-size="10.00" fill="#000000">Map::demolishNode</text>
</a>
</g>
</g>
<!-- Node164&#45;&gt;Node169 -->
<g id="edge8" class="edge">
<title>Node164&#45;&gt;Node169</title>
<path fill="none" stroke="#191970" d="M256.7229,-266.5172C276.2185,-274.1017 304.9785,-284.3546 331,-290 387.6681,-302.2942 453.3565,-308.3208 501.1852,-311.2573"/>
<polygon fill="#191970" stroke="#191970" points="501.2272,-314.7656 511.4144,-311.855 501.6356,-307.7775 501.2272,-314.7656"/>
</g>
<!-- Node172 -->
<g id="node10" class="node">
<title>Node172</title>
<g id="a_node10"><a xlink:href="classMap.html#ab6685363fde5a50c749adab9df96c231" target="_top" xlink:title="whether a node is a multiobject or not (bigger than 1x1 building) ">
<polygon fill="none" stroke="#000000" points="682,-430.5 682,-449.5 814,-449.5 814,-430.5 682,-430.5"/>
<text text-anchor="middle" x="748" y="-437.5" font-family="Helvetica,sans-Serif" font-size="10.00" fill="#000000">Map::isNodeMultiObject</text>
</a>
</g>
</g>
<!-- Node164&#45;&gt;Node172 -->
<g id="edge40" class="edge">
<title>Node164&#45;&gt;Node172</title>
<path fill="none" stroke="#191970" d="M240.9449,-266.5844C255.8999,-285.1426 291.5515,-325.9992 331,-347 440.4291,-405.2557 584.7113,-427.0848 671.6963,-435.2202"/>
<polygon fill="#191970" stroke="#191970" points="671.4803,-438.7148 681.7533,-436.1235 672.1066,-431.7428 671.4803,-438.7148"/>
</g>
<!-- Node174 -->
<g id="node12" class="node">
<title>Node174</title>
<g id="a_node12"><a xlink:href="classMap.html#a3952b445c55efce61c1ccac6f362fe89" target="_top" xlink:title="Return vector of Points of an Object Tiles selection. ">
<polygon fill="none" stroke="#000000" points="686,-392.5 686,-411.5 810,-411.5 810,-392.5 686,-392.5"/>
<text text-anchor="middle" x="748" y="-399.5" font-family="Helvetica,sans-Serif" font-size="10.00" fill="#000000">Map::getObjectCoords</text>
</a>
</g>
</g>
<!-- Node164&#45;&gt;Node174 -->
<g id="edge49" class="edge">
<title>Node164&#45;&gt;Node174</title>
<path fill="none" stroke="#191970" d="M247.0252,-266.6012C265.2512,-279.0985 299.0995,-300.7804 331,-313 447.415,-357.5933 591.1199,-382.0308 675.8332,-393.5334"/>
<polygon fill="#191970" stroke="#191970" points="675.4907,-397.0187 685.8658,-394.8726 676.4168,-390.0802 675.4907,-397.0187"/>
</g>
<!-- Node175 -->
<g id="node13" class="node">
<title>Node175</title>
<g id="a_node13"><a xlink:href="classMap.html#a59d21f2688713fbcfe320eb1b24405ca" target="_top" xlink:title="Update mapNode and its adjacent tiles Updates mapNode height information, draws slopes for adjacent t...">
<polygon fill="none" stroke="#000000" points="666.5,-190.5 666.5,-209.5 829.5,-209.5 829.5,-190.5 666.5,-190.5"/>
<text text-anchor="middle" x="748" y="-197.5" font-family="Helvetica,sans-Serif" font-size="10.00" fill="#000000">Map::updateNeighborsOfNode</text>
</a>
</g>
</g>
<!-- Node164&#45;&gt;Node175 -->
<g id="edge36" class="edge">
<title>Node164&#45;&gt;Node175</title>
<path fill="none" stroke="#191970" d="M295.2469,-265.2923C373.6954,-273.9488 512.7477,-282.9814 628,-257 663.595,-248.9758 701.024,-229.1009 724.4265,-215.0867"/>
<polygon fill="#191970" stroke="#191970" points="726.5614,-217.8834 733.2592,-209.6743 722.904,-211.9148 726.5614,-217.8834"/>
</g>
<!-- Node182 -->
<g id="node20" class="node">
<title>Node182</title>
<g id="a_node20"><a xlink:href="classMapNode.html#a64cb9a4523c9e78f256fde42f1dee43d" target="_top" xlink:title="check if specific Tile Data is autotile category. ">
<polygon fill="none" stroke="#000000" points="331.5,-152.5 331.5,-171.5 471.5,-171.5 471.5,-152.5 331.5,-152.5"/>
<text text-anchor="middle" x="401.5" y="-159.5" font-family="Helvetica,sans-Serif" font-size="10.00" fill="#000000">MapNode::isDataAutoTile</text>
</a>
</g>
</g>
<!-- Node164&#45;&gt;Node182 -->
<g id="edge35" class="edge">
<title>Node164&#45;&gt;Node182</title>
<path fill="none" stroke="#191970" d="M244.4661,-247.279C261.7804,-232.3489 296.989,-203.6531 331,-186 339.1746,-181.7571 348.2586,-178.0171 357.1129,-174.8288"/>
<polygon fill="#191970" stroke="#191970" points="358.2501,-178.139 366.5768,-171.5879 355.9822,-171.5165 358.2501,-178.139"/>
</g>
<!-- Node183 -->
<g id="node21" class="node">
<title>Node183</title>
<g id="a_node21"><a xlink:href="classMap.html#ab69938ac0e56eb0da1d1701221f3d185" target="_top" xlink:title="Refresh all the map tile textures. ">
<polygon fill="none" stroke="#000000" points="363,-114.5 363,-133.5 440,-133.5 440,-114.5 363,-114.5"/>
<text text-anchor="middle" x="401.5" y="-121.5" font-family="Helvetica,sans-Serif" font-size="10.00" fill="#000000">Map::refresh</text>
</a>
</g>
</g>
<!-- Node164&#45;&gt;Node183 -->
<g id="edge37" class="edge">
<title>Node164&#45;&gt;Node183</title>
<path fill="none" stroke="#191970" d="M238.9386,-247.3453C251.8761,-225.2873 286.7399,-170.9497 331,-143 337.7072,-138.7645 345.3479,-135.4644 353.065,-132.8954"/>
<polygon fill="#191970" stroke="#191970" points="354.2163,-136.2049 362.8163,-130.0171 352.2346,-129.4913 354.2163,-136.2049"/>
</g>
<!-- Node184 -->
<g id="node22" class="node">
<title>Node184</title>
<g id="a_node22"><a xlink:href="classMap.html#a2dda1bb4e2785396a974c950a55aa679" target="_top" xlink:title="Get original corner point of given point within building borders. ">
<polygon fill="none" stroke="#000000" points="667.5,-524.5 667.5,-543.5 828.5,-543.5 828.5,-524.5 667.5,-524.5"/>
<text text-anchor="middle" x="748" y="-531.5" font-family="Helvetica,sans-Serif" font-size="10.00" fill="#000000">Map::getNodeOrigCornerPoint</text>
</a>
</g>
</g>
<!-- Node164&#45;&gt;Node184 -->
<g id="edge38" class="edge">
<title>Node164&#45;&gt;Node184</title>
<path fill="none" stroke="#191970" d="M236.0313,-266.6387C244.2786,-296.0998 273.2347,-385.698 331,-431 425.453,-505.0741 565.9902,-526.7182 657.3161,-532.5799"/>
<polygon fill="#191970" stroke="#191970" points="657.1851,-536.0782 667.3743,-533.1745 657.5983,-529.0904 657.1851,-536.0782"/>
</g>
<!-- Node185 -->
<g id="node23" class="node">
<title>Node185</title>
<g id="a_node23"><a xlink:href="classMap.html#ae48ef4fa6a6f73d886211bca59123151" target="_top" xlink:title="Map::saveMapToFile">
<polygon fill="none" stroke="#000000" points="345,-76.5 345,-95.5 458,-95.5 458,-76.5 345,-76.5"/>
<text text-anchor="middle" x="401.5" y="-83.5" font-family="Helvetica,sans-Serif" font-size="10.00" fill="#000000">Map::saveMapToFile</text>
</a>
</g>
</g>
<!-- Node164&#45;&gt;Node185 -->
<g id="edge41" class="edge">
<title>Node164&#45;&gt;Node185</title>
<path fill="none" stroke="#191970" d="M236.8059,-247.4245C246.5998,-220.5215 278.1264,-143.7012 331,-105 333.6595,-103.0533 336.506,-101.3061 339.4741,-99.7379"/>
<polygon fill="#191970" stroke="#191970" points="341.0254,-102.8774 348.6777,-95.5498 338.1261,-96.506 341.0254,-102.8774"/>
</g>
<!-- Node187 -->
<g id="node25" class="node">
<title>Node187</title>
<g id="a_node25"><a xlink:href="classMap.html#afefe996cc1f62b61ec60d0ae415953bf" target="_top" xlink:title="Map::loadMapFromFile">
<polygon fill="none" stroke="#000000" points="339,-228.5 339,-247.5 464,-247.5 464,-228.5 339,-228.5"/>
<text text-anchor="middle" x="401.5" y="-235.5" font-family="Helvetica,sans-Serif" font-size="10.00" fill="#000000">Map::loadMapFromFile</text>
</a>
</g>
</g>
<!-- Node164&#45;&gt;Node187 -->
<g id="edge43" class="edge">
<title>Node164&#45;&gt;Node187</title>
<path fill="none" stroke="#191970" d="M295.103,-250.033C306.0012,-248.8005 317.4419,-247.5066 328.6156,-246.2429"/>
<polygon fill="#191970" stroke="#191970" points="329.2355,-249.6952 338.7788,-245.0935 328.4488,-242.7395 329.2355,-249.6952"/>
</g>
<!-- Node191 -->
<g id="node29" class="node">
<title>Node191</title>
<g id="a_node29"><a xlink:href="classMap.html#a0241b997090783e5d13667114731a592" target="_top" xlink:title="Debug MapNodeData to Console Used as Tile&#45;Inspector until we implement a GUI variant. ">
<polygon fill="none" stroke="#000000" points="331,-38.5 331,-57.5 472,-57.5 472,-38.5 331,-38.5"/>
<text text-anchor="middle" x="401.5" y="-45.5" font-family="Helvetica,sans-Serif" font-size="10.00" fill="#000000">Map::getNodeInformation</text>
</a>
</g>
</g>
<!-- Node164&#45;&gt;Node191 -->
<g id="edge48" class="edge">
<title>Node164&#45;&gt;Node191</title>
<path fill="none" stroke="#191970" d="M235.53,-247.3641C242.6238,-216.1397 269.304,-116.8875 331,-67 333.264,-65.1693 335.6893,-63.5142 338.2287,-62.0178"/>
<polygon fill="#191970" stroke="#191970" points="339.853,-65.1188 347.2336,-57.5177 336.7238,-58.8572 339.853,-65.1188"/>
</g>
<!-- Node192 -->
<g id="node30" class="node">
<title>Node192</title>
<g id="a_node30"><a xlink:href="classMap.html#a5301e6a354460af86af3b32cd43a55ac" target="_top" xlink:title="Map::getTileID">
<polygon fill="none" stroke="#000000" points="358,-.5 358,-19.5 445,-19.5 445,-.5 358,-.5"/>
<text text-anchor="middle" x="401.5" y="-7.5" font-family="Helvetica,sans-Serif" font-size="10.00" fill="#000000">Map::getTileID</text>
</a>
</g>
</g>
<!-- Node164&#45;&gt;Node192 -->
<g id="edge50" class="edge">
<title>Node164&#45;&gt;Node192</title>
<path fill="none" stroke="#191970" d="M234.6227,-247.4874C239.2582,-212.6024 260.1324,-90.5283 331,-29 335.9625,-24.6915 341.8064,-21.3488 347.9712,-18.7575"/>
<polygon fill="#191970" stroke="#191970" points="349.5775,-21.9022 357.8422,-15.2731 347.2474,-15.3014 349.5775,-21.9022"/>
</g>
<!-- Node165&#45;&gt;Node166 -->
<g id="edge3" class="edge">
<title>Node165&#45;&gt;Node166</title>
<path fill="none" stroke="#191970" d="M1235.7852,-83.6613C1241.2465,-86.1639 1246.4043,-89.2365 1251,-93 1319.1619,-148.8191 1343.1904,-258.1649 1350.8132,-307.6271"/>
<polygon fill="#191970" stroke="#191970" points="1347.3845,-308.3734 1352.2733,-317.7729 1354.3131,-307.3763 1347.3845,-308.3734"/>
</g>
<!-- Node167&#45;&gt;Node166 -->
<g id="edge6" class="edge">
<title>Node167&#45;&gt;Node166</title>
<path fill="none" stroke="#191970" d="M805.2412,-487.5145C863.5619,-495.328 956.2349,-502.5306 1034,-485 1147.3854,-459.4395 1267.7494,-388.7855 1323.0005,-353.5432"/>
<polygon fill="#191970" stroke="#191970" points="1325.0965,-356.3565 1331.6102,-348.0005 1321.3073,-350.4707 1325.0965,-356.3565"/>
</g>
<!-- Node168 -->
<g id="node6" class="node">
<title>Node168</title>
<g id="a_node6"><a xlink:href="classTileManager.html#a8ee071ff8b24926288437d310f9bc714" target="_top" xlink:title="TileManager::getTileData">
<polygon fill="none" stroke="#000000" points="881,-456.5 881,-475.5 1021,-475.5 1021,-456.5 881,-456.5"/>
<text text-anchor="middle" x="951" y="-463.5" font-family="Helvetica,sans-Serif" font-size="10.00" fill="#000000">TileManager::getTileData</text>
</a>
</g>
</g>
<!-- Node167&#45;&gt;Node168 -->
<g id="edge7" class="edge">
<title>Node167&#45;&gt;Node168</title>
<path fill="none" stroke="#191970" d="M819.5702,-473.7692C836.0185,-472.7969 853.6185,-471.7565 870.4191,-470.7634"/>
<polygon fill="#191970" stroke="#191970" points="870.9831,-474.2363 880.7591,-470.1522 870.57,-467.2485 870.9831,-474.2363"/>
</g>
<!-- Node170 -->
<g id="node8" class="node">
<title>Node170</title>
<g id="a_node8"><a xlink:href="isoMath_8cxx.html#a7fa61c3d8ef446fb1c48dc4838023649" target="_top" xlink:title="Check if given coordinates are within map boundaries Checks if coordinates are within map boundaries...">
<polygon fill="none" stroke="#000000" points="1082.5,-304.5 1082.5,-323.5 1238.5,-323.5 1238.5,-304.5 1082.5,-304.5"/>
<text text-anchor="middle" x="1160.5" y="-311.5" font-family="Helvetica,sans-Serif" font-size="10.00" fill="#000000">isPointWithinMapBoundaries</text>
</a>
</g>
</g>
<!-- Node169&#45;&gt;Node170 -->
<g id="edge9" class="edge">
<title>Node169&#45;&gt;Node170</title>
<path fill="none" stroke="#191970" d="M624.543,-314C728.0781,-314 948.7927,-314 1072.2458,-314"/>
<polygon fill="#191970" stroke="#191970" points="1072.4222,-317.5001 1082.4222,-314 1072.4221,-310.5001 1072.4222,-317.5001"/>
</g>
<!-- Node171 -->
<g id="node9" class="node">
<title>Node171</title>
<g id="a_node9"><a xlink:href="classMapNode.html#a6b57e4355d0780fb37c34d63bbcdfdf9" target="_top" xlink:title="MapNode::getMapNodeDataFor\lLayer">
<polygon fill="none" stroke="#000000" points="664,-343 664,-373 832,-373 832,-343 664,-343"/>
<text text-anchor="start" x="672" y="-361" font-family="Helvetica,sans-Serif" font-size="10.00" fill="#000000">MapNode::getMapNodeDataFor</text>
<text text-anchor="middle" x="748" y="-350" font-family="Helvetica,sans-Serif" font-size="10.00" fill="#000000">Layer</text>
</a>
</g>
</g>
<!-- Node169&#45;&gt;Node171 -->
<g id="edge11" class="edge">
<title>Node169&#45;&gt;Node171</title>
<path fill="none" stroke="#191970" d="M607.0573,-323.5473C627.3232,-328.5012 652.7275,-334.7112 676.3663,-340.4895"/>
<polygon fill="#191970" stroke="#191970" points="675.8239,-343.9599 686.369,-342.9346 677.4861,-337.1601 675.8239,-343.9599"/>
</g>
<!-- Node169&#45;&gt;Node172 -->
<g id="edge12" class="edge">
<title>Node169&#45;&gt;Node172</title>
<path fill="none" stroke="#191970" d="M573.789,-323.8112C586.9197,-345.1444 621.1738,-395.8504 664,-421 667.6987,-423.172 671.6232,-425.0959 675.6766,-426.7998"/>
<polygon fill="#191970" stroke="#191970" points="674.7298,-430.182 685.3226,-430.3901 677.1716,-423.6216 674.7298,-430.182"/>
</g>
<!-- Node169&#45;&gt;Node174 -->
<g id="edge15" class="edge">
<title>Node169&#45;&gt;Node174</title>
<path fill="none" stroke="#191970" d="M578.3369,-323.6264C595.0336,-338.6375 629.5598,-367.5032 664,-383 669.6372,-385.5365 675.6445,-387.7493 681.7553,-389.6768"/>
<polygon fill="#191970" stroke="#191970" points="680.8257,-393.0514 691.4049,-392.4763 682.7761,-386.3286 680.8257,-393.0514"/>
</g>
<!-- Node169&#45;&gt;Node175 -->
<g id="edge18" class="edge">
<title>Node169&#45;&gt;Node175</title>
<path fill="none" stroke="#191970" d="M581.8182,-304.431C594.9952,-299.1518 614.7435,-292.7678 628,-281 650.8407,-260.7243 640.2069,-239.814 664.16,-216.2382"/>
<polygon fill="#191970" stroke="#191970" points="666.6406,-218.7193 671.8897,-209.5162 662.0471,-213.4372 666.6406,-218.7193"/>
</g>
<!-- Node170&#45;&gt;Node166 -->
<g id="edge10" class="edge">
<title>Node170&#45;&gt;Node166</title>
<path fill="none" stroke="#191970" d="M1238.6461,-321.6733C1251.2263,-322.9085 1264.2425,-324.1866 1276.8003,-325.4197"/>
<polygon fill="#191970" stroke="#191970" points="1276.4617,-328.9032 1286.7559,-326.3972 1277.1458,-321.9367 1276.4617,-328.9032"/>
</g>
<!-- Node172&#45;&gt;Node170 -->
<g id="edge13" class="edge">
<title>Node172&#45;&gt;Node170</title>
<path fill="none" stroke="#191970" d="M814.2483,-442.6108C873.7845,-442.7092 962.5775,-437.2006 1034,-409 1079.0179,-391.225 1122.0003,-352.9055 1144.4177,-330.7487"/>
<polygon fill="#191970" stroke="#191970" points="1146.9044,-333.2117 1151.4589,-323.6458 1141.9331,-328.2836 1146.9044,-333.2117"/>
</g>
<!-- Node173 -->
<g id="node11" class="node">
<title>Node173</title>
<g id="a_node11"><a xlink:href="classMapNode.html#adf88174897b884c97d327e710dea7f5e" target="_top" xlink:title="MapNode::getTileData">
<polygon fill="none" stroke="#000000" points="888.5,-380.5 888.5,-399.5 1013.5,-399.5 1013.5,-380.5 888.5,-380.5"/>
<text text-anchor="middle" x="951" y="-387.5" font-family="Helvetica,sans-Serif" font-size="10.00" fill="#000000">MapNode::getTileData</text>
</a>
</g>
</g>
<!-- Node172&#45;&gt;Node173 -->
<g id="edge14" class="edge">
<title>Node172&#45;&gt;Node173</title>
<path fill="none" stroke="#191970" d="M791.6604,-430.4063C804.661,-427.4736 818.9248,-424.1809 832,-421 856.4652,-415.0481 883.6448,-408.0008 905.8454,-402.1307"/>
<polygon fill="#191970" stroke="#191970" points="906.8997,-405.4721 915.6677,-399.5245 905.1045,-398.7062 906.8997,-405.4721"/>
</g>
<!-- Node174&#45;&gt;Node166 -->
<g id="edge16" class="edge">
<title>Node174&#45;&gt;Node166</title>
<path fill="none" stroke="#191970" d="M793.9822,-392.4649C806.3857,-389.6577 819.7586,-386.4156 832,-383 848.245,-378.4673 851.4703,-374.3488 868,-371 1010.2555,-342.1796 1180.0268,-334.9198 1276.6025,-333.2673"/>
<polygon fill="#191970" stroke="#191970" points="1276.9184,-336.7629 1286.8629,-333.1082 1276.8098,-329.7637 1276.9184,-336.7629"/>
</g>
<!-- Node174&#45;&gt;Node168 -->
<g id="edge17" class="edge">
<title>Node174&#45;&gt;Node168</title>
<path fill="none" stroke="#191970" d="M795.3931,-411.5093C807.4205,-414.253 820.2585,-417.4707 832,-421 861.9839,-430.0126 895.2478,-442.8412 918.9665,-452.4967"/>
<polygon fill="#191970" stroke="#191970" points="917.9301,-455.8549 928.5099,-456.4202 920.5918,-449.3806 917.9301,-455.8549"/>
</g>
<!-- Node175&#45;&gt;Node169 -->
<g id="edge21" class="edge">
<title>Node175&#45;&gt;Node169</title>
<path fill="none" stroke="#191970" d="M722.4849,-209.5854C704.4838,-213.7149 680.6973,-219.6385 664,-233 640.1534,-252.0825 650.7008,-272.8902 628.2499,-297.369"/>
<polygon fill="#191970" stroke="#191970" points="625.756,-294.9117 620.9865,-304.3723 630.6147,-299.9508 625.756,-294.9117"/>
</g>
<!-- Node176 -->
<g id="node14" class="node">
<title>Node176</title>
<g id="a_node14"><a xlink:href="classMap.html#aab37e4a52faf81e9b696b8cf1bd9a690" target="_top" xlink:title="Get neighbor MapNode Objects Stores pointers to the neighboring nodes of the given coordinates in the...">
<polygon fill="none" stroke="#000000" points="1106.5,-228.5 1106.5,-247.5 1214.5,-247.5 1214.5,-228.5 1106.5,-228.5"/>
<text text-anchor="middle" x="1160.5" y="-235.5" font-family="Helvetica,sans-Serif" font-size="10.00" fill="#000000">Map::getNeighbors</text>
</a>
</g>
</g>
<!-- Node175&#45;&gt;Node176 -->
<g id="edge19" class="edge">
<title>Node175&#45;&gt;Node176</title>
<path fill="none" stroke="#191970" d="M776.8845,-190.4285C829.0279,-174.5849 942.0122,-146.8428 1034,-170 1074.0933,-180.0932 1115.3202,-205.6401 1139.3913,-222.3868"/>
<polygon fill="#191970" stroke="#191970" points="1137.5609,-225.38 1147.7386,-228.3237 1141.6181,-219.6756 1137.5609,-225.38"/>
</g>
<!-- Node177 -->
<g id="node15" class="node">
<title>Node177</title>
<g id="a_node15"><a xlink:href="classMap.html#a0ff55eb041cdf29aa582a21145319ce0" target="_top" xlink:title="Get elevated neighbor positions in a bitmask Checks all neighboring tiles and returns the elevated ne...">
<polygon fill="none" stroke="#000000" points="878,-179 878,-209 1024,-209 1024,-179 878,-179"/>
<text text-anchor="start" x="886" y="-197" font-family="Helvetica,sans-Serif" font-size="10.00" fill="#000000">Map::getElevatedNeighbor</text>
<text text-anchor="middle" x="951" y="-186" font-family="Helvetica,sans-Serif" font-size="10.00" fill="#000000">Bitmask</text>
</a>
</g>
</g>
<!-- Node175&#45;&gt;Node177 -->
<g id="edge20" class="edge">
<title>Node175&#45;&gt;Node177</title>
<path fill="none" stroke="#191970" d="M829.6904,-197.5855C842.2957,-197.2129 855.3251,-196.8278 867.9596,-196.4544"/>
<polygon fill="#191970" stroke="#191970" points="868.0997,-199.9519 877.9919,-196.1579 867.8928,-192.9549 868.0997,-199.9519"/>
</g>
<!-- Node178 -->
<g id="node16" class="node">
<title>Node178</title>
<g id="a_node16"><a xlink:href="classMap.html#a3f5c7dd50cdc712e1ef18047cf619888" target="_top" xlink:title="Get a bitmask that represents same&#45;tile neighbors Checks all neighboring tiles and returns the elevat...">
<polygon fill="none" stroke="#000000" points="868,-102.5 868,-121.5 1034,-121.5 1034,-102.5 868,-102.5"/>
<text text-anchor="middle" x="951" y="-109.5" font-family="Helvetica,sans-Serif" font-size="10.00" fill="#000000">Map::calculateAutotileBitmask</text>
</a>
</g>
</g>
<!-- Node175&#45;&gt;Node178 -->
<g id="edge22" class="edge">
<title>Node175&#45;&gt;Node178</title>
<path fill="none" stroke="#191970" d="M763.4102,-190.4285C785.7748,-176.8553 828.8413,-151.9007 868,-136 878.7492,-131.6352 890.5794,-127.7171 901.8562,-124.3743"/>
<polygon fill="#191970" stroke="#191970" points="902.9331,-127.7066 911.5825,-121.5879 901.0053,-120.9773 902.9331,-127.7066"/>
</g>
<!-- Node180 -->
<g id="node18" class="node">
<title>Node180</title>
<g id="a_node18"><a xlink:href="classMap.html#aba5154a4d917900679a3c0f7ec701561" target="_top" xlink:title="Increase Height Increases the height of the node and checks the surrounding tiles. Either draw a slope sprite or elevate the tile if necessary. ">
<polygon fill="none" stroke="#000000" points="893,-228.5 893,-247.5 1009,-247.5 1009,-228.5 893,-228.5"/>
<text text-anchor="middle" x="951" y="-235.5" font-family="Helvetica,sans-Serif" font-size="10.00" fill="#000000">Map::increaseHeight</text>
</a>
</g>
</g>
<!-- Node175&#45;&gt;Node180 -->
<g id="edge24" class="edge">
<title>Node175&#45;&gt;Node180</title>
<path fill="none" stroke="#191970" d="M829.6904,-208.6574C859.4413,-213.8753 891.5547,-220.3359 915.2626,-226.0234"/>
<polygon fill="#191970" stroke="#191970" points="914.6518,-229.4779 925.2006,-228.491 916.3388,-222.6842 914.6518,-229.4779"/>
</g>
<!-- Node181 -->
<g id="node19" class="node">
<title>Node181</title>
<g id="a_node19"><a xlink:href="classMap.html#afb8cc864df90d273a5074872d635dc40" target="_top" xlink:title="Decrease Height Decreases the height of the node and checks the surrounding tiles. Either draw a slope sprite or lower the tile if necessary. ">
<polygon fill="none" stroke="#000000" points="891.5,-266.5 891.5,-285.5 1010.5,-285.5 1010.5,-266.5 891.5,-266.5"/>
<text text-anchor="middle" x="951" y="-273.5" font-family="Helvetica,sans-Serif" font-size="10.00" fill="#000000">Map::decreaseHeight</text>
</a>
</g>
</g>
<!-- Node175&#45;&gt;Node181 -->
<g id="edge30" class="edge">
<title>Node175&#45;&gt;Node181</title>
<path fill="none" stroke="#191970" d="M778.7928,-209.5295C802.5787,-220.4313 836.6256,-237.1045 868,-248 886.3282,-254.3649 907.68,-259.1976 924.1372,-263.609"/>
<polygon fill="#191970" stroke="#191970" points="923.5883,-267.0915 934.1642,-266.4589 925.5021,-260.3582 923.5883,-267.0915"/>
</g>
<!-- Node179 -->
<g id="node17" class="node">
<title>Node179</title>
<g id="a_node17"><a xlink:href="classMap.html#a4700614f8c7d02b9ca18ad7e916a2312" target="_top" xlink:title="Map::isLayerAutoTile">
<polygon fill="none" stroke="#000000" points="1101,-102.5 1101,-121.5 1220,-121.5 1220,-102.5 1101,-102.5"/>
<text text-anchor="middle" x="1160.5" y="-109.5" font-family="Helvetica,sans-Serif" font-size="10.00" fill="#000000">Map::isLayerAutoTile</text>
</a>
</g>
</g>
<!-- Node178&#45;&gt;Node179 -->
<g id="edge23" class="edge">
<title>Node178&#45;&gt;Node179</title>
<path fill="none" stroke="#191970" d="M1034.1008,-112C1052.81,-112 1072.4825,-112 1090.588,-112"/>
<polygon fill="#191970" stroke="#191970" points="1090.7576,-115.5001 1100.7576,-112 1090.7575,-108.5001 1090.7576,-115.5001"/>
</g>
<!-- Node180&#45;&gt;Node166 -->
<g id="edge25" class="edge">
<title>Node180&#45;&gt;Node166</title>
<path fill="none" stroke="#191970" d="M1007.0958,-247.5126C1080.7508,-260.201 1205.9805,-282.5114 1251,-295 1270.061,-300.2876 1290.5951,-307.5332 1308.2753,-314.2803"/>
<polygon fill="#191970" stroke="#191970" points="1307.1875,-317.6123 1317.7766,-317.9618 1309.7167,-311.0851 1307.1875,-317.6123"/>
</g>
<!-- Node180&#45;&gt;Node169 -->
<g id="edge28" class="edge">
<title>Node180&#45;&gt;Node169</title>
<path fill="none" stroke="#191970" d="M892.911,-243.1433C834.4756,-249.0989 742.085,-260.6556 664,-280 642.3239,-285.3699 618.6691,-293.717 600.2642,-300.7966"/>
<polygon fill="#191970" stroke="#191970" points="598.9272,-297.5613 590.8915,-304.4662 601.4793,-304.0795 598.9272,-297.5613"/>
</g>
<!-- Node180&#45;&gt;Node170 -->
<g id="edge27" class="edge">
<title>Node180&#45;&gt;Node170</title>
<path fill="none" stroke="#191970" d="M1009.0879,-247.2347C1017.7068,-249.7507 1026.2781,-252.9455 1034,-257 1053.2172,-267.0901 1050.9581,-279.5828 1070,-290 1078.4671,-294.6321 1087.8749,-298.4065 1097.3316,-301.472"/>
<polygon fill="#191970" stroke="#191970" points="1096.583,-304.9013 1107.1667,-304.4161 1098.5904,-298.1953 1096.583,-304.9013"/>
</g>
<!-- Node180&#45;&gt;Node175 -->
<g id="edge29" class="edge">
<title>Node180&#45;&gt;Node175</title>
<path fill="none" stroke="#191970" d="M892.5882,-233.2432C857.6048,-227.6818 814.2358,-219.2741 784.1681,-212.0798"/>
<polygon fill="#191970" stroke="#191970" points="784.6713,-208.5987 774.1231,-209.5924 782.9886,-215.3935 784.6713,-208.5987"/>
</g>
<!-- Node180&#45;&gt;Node176 -->
<g id="edge26" class="edge">
<title>Node180&#45;&gt;Node176</title>
<path fill="none" stroke="#191970" d="M1009.0792,-238C1036.1495,-238 1068.447,-238 1096.2466,-238"/>
<polygon fill="#191970" stroke="#191970" points="1096.2671,-241.5001 1106.267,-238 1096.267,-234.5001 1096.2671,-241.5001"/>
</g>
<!-- Node181&#45;&gt;Node169 -->
<g id="edge33" class="edge">
<title>Node181&#45;&gt;Node169</title>
<path fill="none" stroke="#191970" d="M891.2549,-279.9228C833.1277,-283.9926 742.3624,-291.0182 664,-300 654.4992,-301.089 644.4906,-302.3836 634.6666,-303.739"/>
<polygon fill="#191970" stroke="#191970" points="633.9391,-300.3068 624.525,-305.1674 634.9154,-307.2384 633.9391,-300.3068"/>
</g>
<!-- Node181&#45;&gt;Node170 -->
<g id="edge32" class="edge">
<title>Node181&#45;&gt;Node170</title>
<path fill="none" stroke="#191970" d="M1003.5953,-285.54C1032.2352,-290.7348 1067.8585,-297.1963 1097.9198,-302.6489"/>
<polygon fill="#191970" stroke="#191970" points="1097.4189,-306.1151 1107.8831,-304.4561 1098.6683,-299.2275 1097.4189,-306.1151"/>
</g>
<!-- Node181&#45;&gt;Node175 -->
<g id="edge34" class="edge">
<title>Node181&#45;&gt;Node175</title>
<path fill="none" stroke="#191970" d="M891.161,-272.8745C883.2953,-270.8906 875.4011,-268.5702 868,-266 829.7012,-252.6999 787.42,-230.7902 764.6825,-215.4515"/>
<polygon fill="#191970" stroke="#191970" points="766.6181,-212.5323 756.4589,-209.5254 762.5256,-218.2114 766.6181,-212.5323"/>
</g>
<!-- Node181&#45;&gt;Node176 -->
<g id="edge31" class="edge">
<title>Node181&#45;&gt;Node176</title>
<path fill="none" stroke="#191970" d="M1003.5953,-266.46C1032.2352,-261.2652 1067.8585,-254.8037 1097.9198,-249.3511"/>
<polygon fill="#191970" stroke="#191970" points="1098.6683,-252.7725 1107.8831,-247.5439 1097.4189,-245.8849 1098.6683,-252.7725"/>
</g>
<!-- Node184&#45;&gt;Node170 -->
<g id="edge39" class="edge">
<title>Node184&#45;&gt;Node170</title>
<path fill="none" stroke="#191970" d="M828.5387,-535.9164C889.1663,-533.8145 972.1166,-523.0927 1034,-485 1094.679,-447.6487 1135.7521,-369.4576 1152.3025,-333.2098"/>
<polygon fill="#191970" stroke="#191970" points="1155.6292,-334.3416 1156.4821,-323.7811 1149.2298,-331.5048 1155.6292,-334.3416"/>
</g>
<!-- Node186 -->
<g id="node24" class="node">
<title>Node186</title>
<g id="a_node24"><a xlink:href="compression_8hxx.html#a2b136078ca5d23222e9c24092a9918fa" target="_top" xlink:title="Compress a given string with zlib Compress the given string. Returns an empty string if something wen...">
<polygon fill="none" stroke="#000000" points="522,-76.5 522,-95.5 614,-95.5 614,-76.5 522,-76.5"/>
<text text-anchor="middle" x="568" y="-83.5" font-family="Helvetica,sans-Serif" font-size="10.00" fill="#000000">compressString</text>
</a>
</g>
</g>
<!-- Node185&#45;&gt;Node186 -->
<g id="edge42" class="edge">
<title>Node185&#45;&gt;Node186</title>
<path fill="none" stroke="#191970" d="M458.3342,-86C475.4974,-86 494.3318,-86 511.4749,-86"/>
<polygon fill="#191970" stroke="#191970" points="511.9003,-89.5001 521.9003,-86 511.9002,-82.5001 511.9003,-89.5001"/>
</g>
<!-- Node188 -->
<g id="node26" class="node">
<title>Node188</title>
<g id="a_node26"><a xlink:href="compression_8hxx.html#a25f341059256700f2f3ffd62d8113956" target="_top" xlink:title="decompresses given string Decompresses a given string. ">
<polygon fill="none" stroke="#000000" points="516,-152.5 516,-171.5 620,-171.5 620,-152.5 516,-152.5"/>
<text text-anchor="middle" x="568" y="-159.5" font-family="Helvetica,sans-Serif" font-size="10.00" fill="#000000">decompressString</text>
</a>
</g>
</g>
<!-- Node187&#45;&gt;Node188 -->
<g id="edge44" class="edge">
<title>Node187&#45;&gt;Node188</title>
<path fill="none" stroke="#191970" d="M438.9945,-228.4181C450.0445,-224.7657 461.8785,-219.999 472,-214 490.6718,-202.9332 489.2106,-191.8659 508,-181 511.6712,-178.877 515.6083,-176.9609 519.6464,-175.238"/>
<polygon fill="#191970" stroke="#191970" points="521.1046,-178.4269 529.1741,-171.5615 518.5846,-171.8962 521.1046,-178.4269"/>
</g>
<!-- Node189 -->
<g id="node27" class="node">
<title>Node189</title>
<g id="a_node27"><a xlink:href="classMap.html#a1197ab65e40dd20b891ba165471e3163" target="_top" xlink:title="Map::Map">
<polygon fill="none" stroke="#000000" points="536.5,-228.5 536.5,-247.5 599.5,-247.5 599.5,-228.5 536.5,-228.5"/>
<text text-anchor="middle" x="568" y="-235.5" font-family="Helvetica,sans-Serif" font-size="10.00" fill="#000000">Map::Map</text>
</a>
</g>
</g>
<!-- Node187&#45;&gt;Node189 -->
<g id="edge45" class="edge">
<title>Node187&#45;&gt;Node189</title>
<path fill="none" stroke="#191970" d="M464.4465,-238C485.0192,-238 507.3536,-238 525.9957,-238"/>
<polygon fill="#191970" stroke="#191970" points="526.2202,-241.5001 536.2201,-238 526.2201,-234.5001 526.2202,-241.5001"/>
</g>
<!-- Node190 -->
<g id="node28" class="node">
<title>Node190</title>
<g id="a_node28"><a xlink:href="classMap.html#a481b37ba71ef0e51e836fc42805762dd" target="_top" xlink:title="Update all mapNodes Updates all mapNode and its adjacent tiles regarding height information, draws slopes for adjacent tiles and sets tiling for mapNode sprite if applicable. ">
<polygon fill="none" stroke="#000000" points="508,-190.5 508,-209.5 628,-209.5 628,-190.5 508,-190.5"/>
<text text-anchor="middle" x="568" y="-197.5" font-family="Helvetica,sans-Serif" font-size="10.00" fill="#000000">Map::updateAllNodes</text>
</a>
</g>
</g>
<!-- Node187&#45;&gt;Node190 -->
<g id="edge46" class="edge">
<title>Node187&#45;&gt;Node190</title>
<path fill="none" stroke="#191970" d="M443.515,-228.411C465.6844,-223.3513 493.0732,-217.1004 516.511,-211.7512"/>
<polygon fill="#191970" stroke="#191970" points="517.3166,-215.1575 526.2871,-209.5201 515.759,-208.3329 517.3166,-215.1575"/>
</g>
<!-- Node190&#45;&gt;Node175 -->
<g id="edge47" class="edge">
<title>Node190&#45;&gt;Node175</title>
<path fill="none" stroke="#191970" d="M628.1876,-200C637.1942,-200 646.6498,-200 656.133,-200"/>
<polygon fill="#191970" stroke="#191970" points="656.4142,-203.5001 666.4142,-200 656.4142,-196.5001 656.4142,-203.5001"/>
</g>
<!-- Node193 -->
<g id="node31" class="node">
<title>Node193</title>
<g id="a_node31"><a xlink:href="classMapNode.html#ab34930f43b60310cd475f514e969a401" target="_top" xlink:title="get TileID of specific layer inside NodeData. ">
<polygon fill="none" stroke="#000000" points="511.5,-.5 511.5,-19.5 624.5,-19.5 624.5,-.5 511.5,-.5"/>
<text text-anchor="middle" x="568" y="-7.5" font-family="Helvetica,sans-Serif" font-size="10.00" fill="#000000">MapNode::getTileID</text>
</a>
</g>
</g>
<!-- Node192&#45;&gt;Node193 -->
<g id="edge51" class="edge">
<title>Node192&#45;&gt;Node193</title>
<path fill="none" stroke="#191970" d="M445.2459,-10C462.3969,-10 482.4601,-10 501.3373,-10"/>
<polygon fill="#191970" stroke="#191970" points="501.3766,-13.5001 511.3766,-10 501.3765,-6.5001 501.3766,-13.5001"/>
</g>
</g>
</svg>
