<?xml version="1.0" encoding="UTF-8" standalone="no"?>
<!DOCTYPE svg PUBLIC "-//W3C//DTD SVG 1.1//EN"
 "http://www.w3.org/Graphics/SVG/1.1/DTD/svg11.dtd">
<!-- Generated by graphviz version 2.40.1 (20161225.0304)
 -->
<!-- Title: ComboBox Pages: 1 -->
<!--zoomable 1193 -->
<svg id="main" version="1.1" xmlns="http://www.w3.org/2000/svg" xmlns:xlink="http://www.w3.org/1999/xlink" xml:space="preserve" onload="init(evt)">
<style type="text/css"><![CDATA[
.edge:hover path { stroke: red; }
.edge:hover polygon { stroke: red; fill: red; }
]]></style>
<script type="text/javascript"><![CDATA[
var edges = document.getElementsByTagName('g');
if (edges && edges.length) {
  for (var i=0;i<edges.length;i++) {
    if (edges[i].id.substr(0,4)=='edge') {
      edges[i].setAttribute('class','edge');
    }
  }
}
]]></script>
        <defs>
                <circle id="rim" cx="0" cy="0" r="7"/>
                <circle id="rim2" cx="0" cy="0" r="3.5"/>
                <g id="zoomPlus">
                        <use xlink:href="#rim" fill="#404040">
                                <set attributeName="fill" to="#808080" begin="zoomplus.mouseover" end="zoomplus.mouseout"/>
                        </use>
                        <path d="M-4,0h8M0,-4v8" fill="none" stroke="white" stroke-width="1.5" pointer-events="none"/>
                </g>
                <g id="zoomMin">
                        <use xlink:href="#rim" fill="#404040">
                                <set attributeName="fill" to="#808080" begin="zoomminus.mouseover" end="zoomminus.mouseout"/>
                        </use>
                        <path d="M-4,0h8" fill="none" stroke="white" stroke-width="1.5" pointer-events="none"/>
                </g>
                <g id="dirArrow">
                        <path fill="none" stroke="white" stroke-width="1.5" d="M0,-3.0v7 M-2.5,-0.5L0,-3.0L2.5,-0.5"/>
                </g>
               <g id="resetDef">
                       <use xlink:href="#rim2" fill="#404040">
                               <set attributeName="fill" to="#808080" begin="reset.mouseover" end="reset.mouseout"/>
                       </use>
               </g>
        </defs>

<script type="text/javascript">
var viewWidth = 621;
var viewHeight = 1193;
var sectionId = 'dynsection-1';
</script>
<script xlink:href="svgpan.js"/>
<svg id="graph" class="graph">
<g id="viewport">
<title>ComboBox</title>
<!-- Node2 -->
<g id="node1" class="node">
<title>Node2</title>
<polygon fill="#bfbfbf" stroke="#000000" points="237,-.5 237,-244.5 408,-244.5 408,-.5 237,-.5"/>
<text text-anchor="middle" x="322.5" y="-232.5" font-family="Helvetica,sans-Serif" font-size="10.00" fill="#000000">ComboBox</text>
<polyline fill="none" stroke="#000000" points="237,-225.5 408,-225.5 "/>
<text text-anchor="start" x="245" y="-213.5" font-family="Helvetica,sans-Serif" font-size="10.00" fill="#000000">&#45; m_activeID</text>
<text text-anchor="start" x="245" y="-202.5" font-family="Helvetica,sans-Serif" font-size="10.00" fill="#000000">&#45; m_dropDownRect</text>
<text text-anchor="start" x="245" y="-191.5" font-family="Helvetica,sans-Serif" font-size="10.00" fill="#000000">&#45; m_wholeElementRect</text>
<text text-anchor="start" x="245" y="-180.5" font-family="Helvetica,sans-Serif" font-size="10.00" fill="#000000">&#45; m_textField</text>
<text text-anchor="start" x="245" y="-169.5" font-family="Helvetica,sans-Serif" font-size="10.00" fill="#000000">&#45; m_isMenuOpened</text>
<text text-anchor="start" x="245" y="-158.5" font-family="Helvetica,sans-Serif" font-size="10.00" fill="#000000">&#45; m_buttonLabel</text>
<polyline fill="none" stroke="#000000" points="237,-151.5 408,-151.5 "/>
<text text-anchor="start" x="245" y="-139.5" font-family="Helvetica,sans-Serif" font-size="10.00" fill="#000000">+ ComboBox()</text>
<text text-anchor="start" x="245" y="-128.5" font-family="Helvetica,sans-Serif" font-size="10.00" fill="#000000">+ ~ComboBox()</text>
<text text-anchor="start" x="245" y="-117.5" font-family="Helvetica,sans-Serif" font-size="10.00" fill="#000000">+ onMouseButtonUp()</text>
<text text-anchor="start" x="245" y="-106.5" font-family="Helvetica,sans-Serif" font-size="10.00" fill="#000000">+ onMouseButtonDown()</text>
<text text-anchor="start" x="245" y="-95.5" font-family="Helvetica,sans-Serif" font-size="10.00" fill="#000000">+ onMouseLeave()</text>
<text text-anchor="start" x="245" y="-84.5" font-family="Helvetica,sans-Serif" font-size="10.00" fill="#000000">+ onMouseMove()</text>
<text text-anchor="start" x="245" y="-73.5" font-family="Helvetica,sans-Serif" font-size="10.00" fill="#000000">+ draw()</text>
<text text-anchor="start" x="245" y="-62.5" font-family="Helvetica,sans-Serif" font-size="10.00" fill="#000000">+ setPosition()</text>
<text text-anchor="start" x="245" y="-51.5" font-family="Helvetica,sans-Serif" font-size="10.00" fill="#000000">+ isMouseOver()</text>
<text text-anchor="start" x="245" y="-40.5" font-family="Helvetica,sans-Serif" font-size="10.00" fill="#000000">+ isMouseOverHoverableArea()</text>
<text text-anchor="start" x="245" y="-29.5" font-family="Helvetica,sans-Serif" font-size="10.00" fill="#000000">and 6 more...</text>
<text text-anchor="start" x="245" y="-18.5" font-family="Helvetica,sans-Serif" font-size="10.00" fill="#000000">&#45; centerTextLabel()</text>
<text text-anchor="start" x="245" y="-7.5" font-family="Helvetica,sans-Serif" font-size="10.00" fill="#000000">&#45; checkBoundaries()</text>
</g>
<!-- Node3 -->
<g id="node2" class="node">
<title>Node3</title>
<g id="a_node2"><a xlink:href="classUIElement.html" target="_top" xlink:title="Base class for UI Elements Provides functions and variables for derived user interface elements...">
<polygon fill="none" stroke="#000000" points="0,-369.5 0,-701.5 155,-701.5 155,-369.5 0,-369.5"/>
<text text-anchor="middle" x="77.5" y="-689.5" font-family="Helvetica,sans-Serif" font-size="10.00" fill="#000000">UIElement</text>
<polyline fill="none" stroke="#000000" points="0,-682.5 155,-682.5 "/>
<text text-anchor="start" x="8" y="-670.5" font-family="Helvetica,sans-Serif" font-size="10.00" fill="#000000"># m_texture</text>
<text text-anchor="start" x="8" y="-659.5" font-family="Helvetica,sans-Serif" font-size="10.00" fill="#000000"># m_uiElementRect</text>
<text text-anchor="start" x="8" y="-648.5" font-family="Helvetica,sans-Serif" font-size="10.00" fill="#000000"># m_uiElementClipRect</text>
<text text-anchor="start" x="8" y="-637.5" font-family="Helvetica,sans-Serif" font-size="10.00" fill="#000000"># m_uiTextureRect</text>
<text text-anchor="start" x="8" y="-626.5" font-family="Helvetica,sans-Serif" font-size="10.00" fill="#000000">&#45; m_renderer</text>
<text text-anchor="start" x="8" y="-615.5" font-family="Helvetica,sans-Serif" font-size="10.00" fill="#000000">&#45; m_window</text>
<text text-anchor="start" x="8" y="-604.5" font-family="Helvetica,sans-Serif" font-size="10.00" fill="#000000">&#45; m_buttonState</text>
<text text-anchor="start" x="8" y="-593.5" font-family="Helvetica,sans-Serif" font-size="10.00" fill="#000000">&#45; m_visible</text>
<text text-anchor="start" x="8" y="-582.5" font-family="Helvetica,sans-Serif" font-size="10.00" fill="#000000">&#45; m_directTexture</text>
<polyline fill="none" stroke="#000000" points="0,-575.5 155,-575.5 "/>
<text text-anchor="start" x="8" y="-563.5" font-family="Helvetica,sans-Serif" font-size="10.00" fill="#000000">+ UIElement()</text>
<text text-anchor="start" x="8" y="-552.5" font-family="Helvetica,sans-Serif" font-size="10.00" fill="#000000">+ UIElement()</text>
<text text-anchor="start" x="8" y="-541.5" font-family="Helvetica,sans-Serif" font-size="10.00" fill="#000000">+ ~UIElement()</text>
<text text-anchor="start" x="8" y="-530.5" font-family="Helvetica,sans-Serif" font-size="10.00" fill="#000000">+ registerCallbackFunction()</text>
<text text-anchor="start" x="8" y="-519.5" font-family="Helvetica,sans-Serif" font-size="10.00" fill="#000000">+ registerCallbackFunction()</text>
<text text-anchor="start" x="8" y="-508.5" font-family="Helvetica,sans-Serif" font-size="10.00" fill="#000000">+ registerCallbackFunction()</text>
<text text-anchor="start" x="8" y="-497.5" font-family="Helvetica,sans-Serif" font-size="10.00" fill="#000000">+ onMouseButtonUp()</text>
<text text-anchor="start" x="8" y="-486.5" font-family="Helvetica,sans-Serif" font-size="10.00" fill="#000000">+ onMouseButtonDown()</text>
<text text-anchor="start" x="8" y="-475.5" font-family="Helvetica,sans-Serif" font-size="10.00" fill="#000000">+ onMouseEnter()</text>
<text text-anchor="start" x="8" y="-464.5" font-family="Helvetica,sans-Serif" font-size="10.00" fill="#000000">+ onMouseLeave()</text>
<text text-anchor="start" x="8" y="-453.5" font-family="Helvetica,sans-Serif" font-size="10.00" fill="#000000">and 24 more...</text>
<text text-anchor="start" x="8" y="-442.5" font-family="Helvetica,sans-Serif" font-size="10.00" fill="#000000"># renderTexture()</text>
<text text-anchor="start" x="8" y="-431.5" font-family="Helvetica,sans-Serif" font-size="10.00" fill="#000000"># drawSolidRect()</text>
<text text-anchor="start" x="8" y="-420.5" font-family="Helvetica,sans-Serif" font-size="10.00" fill="#000000"># drawLine()</text>
<text text-anchor="start" x="8" y="-409.5" font-family="Helvetica,sans-Serif" font-size="10.00" fill="#000000"># drawTextFrame()</text>
<text text-anchor="start" x="8" y="-398.5" font-family="Helvetica,sans-Serif" font-size="10.00" fill="#000000"># drawButtonFrame()</text>
<text text-anchor="start" x="8" y="-387.5" font-family="Helvetica,sans-Serif" font-size="10.00" fill="#000000"># drawFrame()</text>
<text text-anchor="start" x="8" y="-376.5" font-family="Helvetica,sans-Serif" font-size="10.00" fill="#000000"># changeTexture()</text>
</a>
</g>
</g>
<!-- Node3&#45;&gt;Node2 -->
<g id="edge1" class="edge">
<title>Node3&#45;&gt;Node2</title>
<path fill="none" stroke="#191970" d="M151.2302,-359.8194C152.3377,-356.8613 153.4285,-353.9198 154.5,-351 168.6395,-312.4693 161.1932,-298.0794 182.5,-263 197.1584,-238.8665 216.7903,-215.7782 236.7056,-195.5416"/>
<polygon fill="none" stroke="#191970" points="147.9024,-358.7246 147.6399,-369.3162 154.4501,-361.2 147.9024,-358.7246"/>
</g>
<!-- Node4 -->
<g id="node3" class="node">
<title>Node4</title>
<g id="a_node3"><a xlink:href="structUIElement_1_1ElementData.html" target="_top" xlink:title="{UIElement::ElementData\n|+ isToggleButton\l|}">
<polygon fill="none" stroke="#000000" points="9,-94 9,-151 146,-151 146,-94 9,-94"/>
<text text-anchor="middle" x="77.5" y="-139" font-family="Helvetica,sans-Serif" font-size="10.00" fill="#000000">UIElement::ElementData</text>
<polyline fill="none" stroke="#000000" points="9,-132 146,-132 "/>
<text text-anchor="start" x="17" y="-120" font-family="Helvetica,sans-Serif" font-size="10.00" fill="#000000">+ isToggleButton</text>
<polyline fill="none" stroke="#000000" points="9,-113 146,-113 "/>
<text text-anchor="middle" x="77.5" y="-101" font-family="Helvetica,sans-Serif" font-size="10.00" fill="#000000"> </text>
</a>
</g>
</g>
<!-- Node3&#45;&gt;Node4 -->
<g id="edge4" class="edge">
<title>Node3&#45;&gt;Node4</title>
<path fill="none" stroke="#404040" d="M31.0518,-369.1392C26.2507,-334.1039 24.9064,-297.3531 30.5,-263 36.1966,-228.014 49.3805,-189.9793 60.3395,-162.3171"/>
<polygon fill="none" stroke="#404040" points="60.3637,-162.2572 58.9107,-155.194 64.8717,-151.1361 66.3247,-158.1993 60.3637,-162.2572"/>
<text text-anchor="middle" x="52" y="-304.5" font-family="Helvetica,sans-Serif" font-size="10.00" fill="#000000"> +parent</text>
</g>
<!-- Node4&#45;&gt;Node3 -->
<g id="edge2" class="edge">
<title>Node4&#45;&gt;Node3</title>
<path fill="none" stroke="#404040" d="M77.5,-151.248C77.5,-194.1947 77.5,-278.5009 77.5,-357.2284"/>
<polygon fill="none" stroke="#404040" points="77.5001,-357.3023 81.5,-363.3024 77.5,-369.3023 73.5,-363.3023 77.5001,-357.3023"/>
<text text-anchor="middle" x="115.5" y="-304.5" font-family="Helvetica,sans-Serif" font-size="10.00" fill="#000000"> #elementData</text>
</g>
<!-- Node5 -->
<g id="node4" class="node">
<title>Node5</title>
<polygon fill="none" stroke="#bfbfbf" points="230.5,-507 230.5,-564 274.5,-564 274.5,-507 230.5,-507"/>
<text text-anchor="middle" x="252.5" y="-552" font-family="Helvetica,sans-Serif" font-size="10.00" fill="#000000">string</text>
<polyline fill="none" stroke="#bfbfbf" points="230.5,-545 274.5,-545 "/>
<text text-anchor="middle" x="252.5" y="-533" font-family="Helvetica,sans-Serif" font-size="10.00" fill="#000000"> </text>
<polyline fill="none" stroke="#bfbfbf" points="230.5,-526 274.5,-526 "/>
<text text-anchor="middle" x="252.5" y="-514" font-family="Helvetica,sans-Serif" font-size="10.00" fill="#000000"> </text>
</g>
<!-- Node5&#45;&gt;Node2 -->
<g id="edge11" class="edge">
<title>Node5&#45;&gt;Node2</title>
<path fill="none" stroke="#404040" d="M261.5018,-506.7343C272.4243,-470.7007 290.6031,-406.8928 300.5,-351 305.8676,-320.6862 309.999,-287.8618 313.1516,-256.8018"/>
<polygon fill="none" stroke="#404040" points="313.1832,-256.4786 309.7887,-250.1165 314.3558,-244.5361 317.7504,-250.8982 313.1832,-256.4786"/>
<text text-anchor="middle" x="343.5" y="-304.5" font-family="Helvetica,sans-Serif" font-size="10.00" fill="#000000"> +activeText</text>
</g>
<!-- Node5&#45;&gt;Node4 -->
<g id="edge3" class="edge">
<title>Node5&#45;&gt;Node4</title>
<path fill="none" stroke="#404040" d="M244.4347,-506.989C229.7865,-456.6532 196.6754,-349.2082 157.5,-263 141.3534,-227.4682 119.1466,-189.0865 102.2259,-161.4325"/>
<polygon fill="none" stroke="#404040" points="102.0997,-161.2281 95.5434,-158.2255 95.7935,-151.0187 102.3497,-154.0213 102.0997,-161.2281"/>
<text text-anchor="middle" x="240.5" y="-343" font-family="Helvetica,sans-Serif" font-size="10.00" fill="#000000"> +actionParameter</text>
<text text-anchor="middle" x="240.5" y="-332" font-family="Helvetica,sans-Serif" font-size="10.00" fill="#000000">+buildMenuID</text>
<text text-anchor="middle" x="240.5" y="-321" font-family="Helvetica,sans-Serif" font-size="10.00" fill="#000000">+actionID</text>
<text text-anchor="middle" x="240.5" y="-310" font-family="Helvetica,sans-Serif" font-size="10.00" fill="#000000">+text</text>
<text text-anchor="middle" x="240.5" y="-299" font-family="Helvetica,sans-Serif" font-size="10.00" fill="#000000">+elementID</text>
<text text-anchor="middle" x="240.5" y="-288" font-family="Helvetica,sans-Serif" font-size="10.00" fill="#000000">+layoutGroupName</text>
<text text-anchor="middle" x="240.5" y="-277" font-family="Helvetica,sans-Serif" font-size="10.00" fill="#000000">+tooltipText</text>
<text text-anchor="middle" x="240.5" y="-266" font-family="Helvetica,sans-Serif" font-size="10.00" fill="#000000">+textureID</text>
</g>
<!-- Node6 -->
<g id="node5" class="node">
<title>Node6</title>
<g id="a_node5"><a xlink:href="structSignal_1_1Signal.html" target="_top" xlink:title="{Signal::Signal\&lt; void\l(UIElement *sender)\&gt;\n||+ Signal()\l}">
<polygon fill="none" stroke="#000000" points="345,-501.5 345,-569.5 470,-569.5 470,-501.5 345,-501.5"/>
<text text-anchor="start" x="353" y="-557.5" font-family="Helvetica,sans-Serif" font-size="10.00" fill="#000000">Signal::Signal&lt; void</text>
<text text-anchor="middle" x="407.5" y="-546.5" font-family="Helvetica,sans-Serif" font-size="10.00" fill="#000000">(UIElement *sender)&gt;</text>
<polyline fill="none" stroke="#000000" points="345,-539.5 470,-539.5 "/>
<text text-anchor="middle" x="407.5" y="-527.5" font-family="Helvetica,sans-Serif" font-size="10.00" fill="#000000"> </text>
<polyline fill="none" stroke="#000000" points="345,-520.5 470,-520.5 "/>
<text text-anchor="start" x="353" y="-508.5" font-family="Helvetica,sans-Serif" font-size="10.00" fill="#000000">+ Signal()</text>
</a>
</g>
</g>
<!-- Node6&#45;&gt;Node2 -->
<g id="edge5" class="edge">
<title>Node6&#45;&gt;Node2</title>
<path fill="none" stroke="#404040" d="M406.8467,-501.425C405.1856,-449.3228 399.3052,-347.052 378.5,-263 377.9672,-260.8474 377.4085,-258.6838 376.8264,-256.5125"/>
<polygon fill="none" stroke="#404040" points="376.7899,-256.3842 371.299,-251.7097 373.5021,-244.8433 378.9929,-249.5178 376.7899,-256.3842"/>
<text text-anchor="middle" x="441.5" y="-304.5" font-family="Helvetica,sans-Serif" font-size="10.00" fill="#000000"> &#45;clickSignalSender</text>
</g>
<!-- Node7 -->
<g id="node6" class="node">
<title>Node7</title>
<g id="a_node6"><a xlink:href="classSignal_1_1Lib_1_1ProtoSignal.html" target="_top" xlink:title="{Signal::Lib::ProtoSignal\l\&lt; void(UIElement *sender)\l, Lib::CollectorDefault\&lt;\l typename std::function\&lt; void\l(UIElement *sender) \&gt;::result_type \&gt; \&gt;\n||}">
<polygon fill="none" stroke="#000000" points="262,-836.5 262,-937.5 473,-937.5 473,-836.5 262,-836.5"/>
<text text-anchor="start" x="270" y="-925.5" font-family="Helvetica,sans-Serif" font-size="10.00" fill="#000000">Signal::Lib::ProtoSignal</text>
<text text-anchor="start" x="270" y="-914.5" font-family="Helvetica,sans-Serif" font-size="10.00" fill="#000000">&lt; void(UIElement *sender)</text>
<text text-anchor="start" x="270" y="-903.5" font-family="Helvetica,sans-Serif" font-size="10.00" fill="#000000">, Lib::CollectorDefault&lt;</text>
<text text-anchor="start" x="270" y="-892.5" font-family="Helvetica,sans-Serif" font-size="10.00" fill="#000000"> typename std::function&lt; void</text>
<text text-anchor="middle" x="367.5" y="-881.5" font-family="Helvetica,sans-Serif" font-size="10.00" fill="#000000">(UIElement *sender) &gt;::result_type &gt; &gt;</text>
<polyline fill="none" stroke="#000000" points="262,-874.5 473,-874.5 "/>
<text text-anchor="middle" x="367.5" y="-862.5" font-family="Helvetica,sans-Serif" font-size="10.00" fill="#000000"> </text>
<polyline fill="none" stroke="#000000" points="262,-855.5 473,-855.5 "/>
<text text-anchor="middle" x="367.5" y="-843.5" font-family="Helvetica,sans-Serif" font-size="10.00" fill="#000000"> </text>
</a>
</g>
</g>
<!-- Node7&#45;&gt;Node6 -->
<g id="edge6" class="edge">
<title>Node7&#45;&gt;Node6</title>
<path fill="none" stroke="#191970" d="M374.4268,-826.131C382.8686,-751.9486 396.8407,-629.1684 403.5994,-569.7768"/>
<polygon fill="none" stroke="#191970" points="370.9268,-825.9326 373.2736,-836.2643 377.8819,-826.7242 370.9268,-825.9326"/>
</g>
<!-- Node8 -->
<g id="node7" class="node">
<title>Node8</title>
<g id="a_node7"><a xlink:href="classSignal_1_1Lib_1_1ProtoSignal.html" target="_top" xlink:title="ProtoSignal is the template implementation for callback list. ">
<polygon fill="none" stroke="#000000" points="355.5,-1116.5 355.5,-1184.5 499.5,-1184.5 499.5,-1116.5 355.5,-1116.5"/>
<text text-anchor="start" x="363.5" y="-1172.5" font-family="Helvetica,sans-Serif" font-size="10.00" fill="#000000">Signal::Lib::ProtoSignal</text>
<text text-anchor="middle" x="427.5" y="-1161.5" font-family="Helvetica,sans-Serif" font-size="10.00" fill="#000000">&lt; typename, typename &gt;</text>
<polyline fill="none" stroke="#000000" points="355.5,-1154.5 499.5,-1154.5 "/>
<text text-anchor="middle" x="427.5" y="-1142.5" font-family="Helvetica,sans-Serif" font-size="10.00" fill="#000000"> </text>
<polyline fill="none" stroke="#000000" points="355.5,-1135.5 499.5,-1135.5 "/>
<text text-anchor="middle" x="427.5" y="-1123.5" font-family="Helvetica,sans-Serif" font-size="10.00" fill="#000000"> </text>
</a>
</g>
</g>
<!-- Node8&#45;&gt;Node7 -->
<g id="edge7" class="edge">
<title>Node8&#45;&gt;Node7</title>
<path fill="none" stroke="#ffa500" d="M352.9333,-1108.8024C350.1122,-1105.4348 347.5995,-1101.8371 345.5,-1098 318.3633,-1048.4038 331.6791,-982.4231 346.6925,-937.538"/>
<polygon fill="#ffa500" stroke="#ffa500" points="350.594,-1111.4211 360.026,-1116.2469 355.662,-1106.5925 350.594,-1111.4211"/>
<text text-anchor="start" x="345.5" y="-1090" font-family="Helvetica,sans-Serif" font-size="10.00" fill="#000000"> &lt; void(UIElement *sender)</text>
<text text-anchor="start" x="345.5" y="-1079" font-family="Helvetica,sans-Serif" font-size="10.00" fill="#000000">, Lib::CollectorDefault</text>
<text text-anchor="start" x="345.5" y="-1068" font-family="Helvetica,sans-Serif" font-size="10.00" fill="#000000">&lt; typename std::function</text>
<text text-anchor="start" x="345.5" y="-1057" font-family="Helvetica,sans-Serif" font-size="10.00" fill="#000000">&lt; void(UIElement *sender)</text>
<text text-anchor="middle" x="413.5" y="-1046" font-family="Helvetica,sans-Serif" font-size="10.00" fill="#000000"> &gt;::result_type &gt; &gt;</text>
</g>
<!-- Node10 -->
<g id="node9" class="node">
<title>Node10</title>
<g id="a_node9"><a xlink:href="classSignal_1_1Lib_1_1ProtoSignal.html" target="_top" xlink:title="{Signal::Lib::ProtoSignal\l\&lt; SignalSignature, Collector \&gt;\n||}">
<polygon fill="none" stroke="#000000" points="420,-956.5 420,-1024.5 585,-1024.5 585,-956.5 420,-956.5"/>
<text text-anchor="start" x="428" y="-1012.5" font-family="Helvetica,sans-Serif" font-size="10.00" fill="#000000">Signal::Lib::ProtoSignal</text>
<text text-anchor="middle" x="502.5" y="-1001.5" font-family="Helvetica,sans-Serif" font-size="10.00" fill="#000000">&lt; SignalSignature, Collector &gt;</text>
<polyline fill="none" stroke="#000000" points="420,-994.5 585,-994.5 "/>
<text text-anchor="middle" x="502.5" y="-982.5" font-family="Helvetica,sans-Serif" font-size="10.00" fill="#000000"> </text>
<polyline fill="none" stroke="#000000" points="420,-975.5 585,-975.5 "/>
<text text-anchor="middle" x="502.5" y="-963.5" font-family="Helvetica,sans-Serif" font-size="10.00" fill="#000000"> </text>
</a>
</g>
</g>
<!-- Node8&#45;&gt;Node10 -->
<g id="edge10" class="edge">
<title>Node8&#45;&gt;Node10</title>
<path fill="none" stroke="#ffa500" d="M478.5268,-1108.6839C481.1369,-1105.2647 483.5003,-1101.6956 485.5,-1098 497.6394,-1075.5654 501.7031,-1046.8974 502.8326,-1024.8093"/>
<polygon fill="#ffa500" stroke="#ffa500" points="475.8103,-1106.4762 472.0442,-1116.3791 481.1638,-1110.9862 475.8103,-1106.4762"/>
<text text-anchor="start" x="500.5" y="-1073.5" font-family="Helvetica,sans-Serif" font-size="10.00" fill="#000000"> &lt; SignalSignature,</text>
<text text-anchor="middle" x="547.5" y="-1062.5" font-family="Helvetica,sans-Serif" font-size="10.00" fill="#000000"> Collector &gt;</text>
</g>
<!-- Node9 -->
<g id="node8" class="node">
<title>Node9</title>
<g id="a_node8"><a xlink:href="structSignal_1_1Signal.html" target="_top" xlink:title="Signal is a template type providing an interface for arbitrary callback lists. A signal type needs to...">
<polygon fill="none" stroke="#000000" points="400,-749.5 400,-817.5 573,-817.5 573,-749.5 400,-749.5"/>
<text text-anchor="start" x="408" y="-805.5" font-family="Helvetica,sans-Serif" font-size="10.00" fill="#000000">Signal::Signal&lt; SignalSignature,</text>
<text text-anchor="middle" x="486.5" y="-794.5" font-family="Helvetica,sans-Serif" font-size="10.00" fill="#000000"> Collector &gt;</text>
<polyline fill="none" stroke="#000000" points="400,-787.5 573,-787.5 "/>
<text text-anchor="middle" x="486.5" y="-775.5" font-family="Helvetica,sans-Serif" font-size="10.00" fill="#000000"> </text>
<polyline fill="none" stroke="#000000" points="400,-768.5 573,-768.5 "/>
<text text-anchor="start" x="408" y="-756.5" font-family="Helvetica,sans-Serif" font-size="10.00" fill="#000000">+ Signal()</text>
</a>
</g>
</g>
<!-- Node9&#45;&gt;Node6 -->
<g id="edge8" class="edge">
<title>Node9&#45;&gt;Node6</title>
<path fill="none" stroke="#ffa500" d="M472.5419,-739.6822C457.0942,-691.188 432.5214,-614.0481 418.4166,-569.7697"/>
<polygon fill="#ffa500" stroke="#ffa500" points="469.2282,-740.8111 475.5983,-749.277 475.8979,-738.6864 469.2282,-740.8111"/>
<text text-anchor="middle" x="540.5" y="-723" font-family="Helvetica,sans-Serif" font-size="10.00" fill="#000000"> &lt; void(UIElement *sender)&gt;</text>
</g>
<!-- Node10&#45;&gt;Node9 -->
<g id="edge9" class="edge">
<title>Node10&#45;&gt;Node9</title>
<path fill="none" stroke="#191970" d="M499.0557,-945.9392C496.085,-907.5061 491.8572,-852.8093 489.146,-817.7326"/>
<polygon fill="none" stroke="#191970" points="495.5976,-946.6177 499.8579,-956.3182 502.5768,-946.0781 495.5976,-946.6177"/>
</g>
</g>
</svg>
        <g id="navigator" transform="translate(0 0)" fill="#404254">
                <rect fill="#f2f5e9" fill-opacity="0.5" stroke="#606060" stroke-width=".5" x="0" y="0" width="60" height="60"/>
                <use id="zoomplus" xlink:href="#zoomPlus" x="17" y="9" onmousedown="handleZoom(evt,'in')"/>
                <use id="zoomminus" xlink:href="#zoomMin" x="42" y="9" onmousedown="handleZoom(evt,'out')"/>
                <use id="reset" xlink:href="#resetDef" x="30" y="36" onmousedown="handleReset()"/>
                <g id="arrowUp" xlink:href="#dirArrow" transform="translate(30 24)" onmousedown="handlePan(0,-1)">
                  <use xlink:href="#rim" fill="#404040">
                        <set attributeName="fill" to="#808080" begin="arrowUp.mouseover" end="arrowUp.mouseout"/>
                  </use>
                  <path fill="none" stroke="white" stroke-width="1.5" d="M0,-3.0v7 M-2.5,-0.5L0,-3.0L2.5,-0.5"/>
                </g>
                <g id="arrowRight" xlink:href="#dirArrow" transform="rotate(90) translate(36 -43)" onmousedown="handlePan(1,0)">
                  <use xlink:href="#rim" fill="#404040">
                        <set attributeName="fill" to="#808080" begin="arrowRight.mouseover" end="arrowRight.mouseout"/>
                  </use>
                  <path fill="none" stroke="white" stroke-width="1.5" d="M0,-3.0v7 M-2.5,-0.5L0,-3.0L2.5,-0.5"/>
                </g>
                <g id="arrowDown" xlink:href="#dirArrow" transform="rotate(180) translate(-30 -48)" onmousedown="handlePan(0,1)">
                  <use xlink:href="#rim" fill="#404040">
                        <set attributeName="fill" to="#808080" begin="arrowDown.mouseover" end="arrowDown.mouseout"/>
                  </use>
                  <path fill="none" stroke="white" stroke-width="1.5" d="M0,-3.0v7 M-2.5,-0.5L0,-3.0L2.5,-0.5"/>
                </g>
                <g id="arrowLeft" xlink:href="#dirArrow" transform="rotate(270) translate(-36 17)" onmousedown="handlePan(-1,0)">
                  <use xlink:href="#rim" fill="#404040">
                        <set attributeName="fill" to="#808080" begin="arrowLeft.mouseover" end="arrowLeft.mouseout"/>
                  </use>
                  <path fill="none" stroke="white" stroke-width="1.5" d="M0,-3.0v7 M-2.5,-0.5L0,-3.0L2.5,-0.5"/>
                </g>
        </g>
        <svg viewBox="0 0 15 15" width="100%" height="30px" preserveAspectRatio="xMaxYMin meet">
         <g id="arrow_out" transform="scale(0.3 0.3)">
          <a xlink:href="classComboBox__coll__graph_org.svg" target="_base">
           <rect id="button" ry="5" rx="5" y="6" x="6" height="38" width="38"
                fill="#f2f5e9" fill-opacity="0.5" stroke="#606060" stroke-width="1.0"/>
           <path id="arrow"
             d="M 11.500037,31.436501 C 11.940474,20.09759 22.043105,11.32322 32.158766,21.979434 L 37.068811,17.246167 C 37.068811,17.246167 37.088388,32 37.088388,32 L 22.160133,31.978069 C 22.160133,31.978069 26.997745,27.140456 26.997745,27.140456 C 18.528582,18.264221 13.291696,25.230495 11.500037,31.436501 z"
             style="fill:#404040;"/>
          </a>
         </g>
        </svg>
</svg>
