<?xml version="1.0" encoding="UTF-8" standalone="no"?>
<!DOCTYPE svg PUBLIC "-//W3C//DTD SVG 1.1//EN"
 "http://www.w3.org/Graphics/SVG/1.1/DTD/svg11.dtd">
<!-- Generated by graphviz version 2.40.1 (20161225.0304)
 -->
<!-- Title: Checkbox::onMouseButtonDown Pages: 1 -->
<svg width="586pt" height="104pt"
 viewBox="0.00 0.00 586.00 104.00" xmlns="http://www.w3.org/2000/svg" xmlns:xlink="http://www.w3.org/1999/xlink">
<g id="graph0" class="graph" transform="scale(1 1) rotate(0) translate(4 100)">
<title>Checkbox::onMouseButtonDown</title>
<!-- Node10 -->
<g id="node1" class="node">
<title>Node10</title>
<polygon fill="#bfbfbf" stroke="#000000" points="0,-38.5 0,-57.5 174,-57.5 174,-38.5 0,-38.5"/>
<text text-anchor="middle" x="87" y="-45.5" font-family="Helvetica,sans-Serif" font-size="10.00" fill="#000000">Checkbox::onMouseButtonDown</text>
</g>
<!-- Node11 -->
<g id="node2" class="node">
<title>Node11</title>
<g id="a_node2"><a xlink:href="classUIElement.html#aa7f624963eaeb31043d74219ee24386c" target="_top" xlink:title="Checks if the mouse cursor is over the current UI Element Check if the coordinates match the ones sto...">
<polygon fill="none" stroke="#000000" points="225,-76.5 225,-95.5 362,-95.5 362,-76.5 225,-76.5"/>
<text text-anchor="middle" x="293.5" y="-83.5" font-family="Helvetica,sans-Serif" font-size="10.00" fill="#000000">UIElement::isMouseOver</text>
</a>
</g>
</g>
<!-- Node10&#45;&gt;Node11 -->
<g id="edge1" class="edge">
<title>Node10&#45;&gt;Node11</title>
<path fill="none" stroke="#191970" d="M138.8421,-57.54C166.9491,-62.7122 201.8799,-69.1401 231.4291,-74.5778"/>
<polygon fill="#191970" stroke="#191970" points="231.1682,-78.0884 241.6365,-76.4561 232.4351,-71.204 231.1682,-78.0884"/>
</g>
<!-- Node12 -->
<g id="node3" class="node">
<title>Node12</title>
<g id="a_node3"><a xlink:href="classUIElement.html#ade4162d6216022e143c769369b64add7" target="_top" xlink:title="Set the button state Sets the mouse button pressed state. ">
<polygon fill="none" stroke="#000000" points="210,-38.5 210,-57.5 377,-57.5 377,-38.5 210,-38.5"/>
<text text-anchor="middle" x="293.5" y="-45.5" font-family="Helvetica,sans-Serif" font-size="10.00" fill="#000000">UIElement::changeButtonState</text>
</a>
</g>
</g>
<!-- Node10&#45;&gt;Node12 -->
<g id="edge2" class="edge">
<title>Node10&#45;&gt;Node12</title>
<path fill="none" stroke="#191970" d="M174.2753,-48C182.6487,-48 191.1659,-48 199.5991,-48"/>
<polygon fill="#191970" stroke="#191970" points="199.8289,-51.5001 209.8289,-48 199.8289,-44.5001 199.8289,-51.5001"/>
</g>
<!-- Node15 -->
<g id="node6" class="node">
<title>Node15</title>
<g id="a_node6"><a xlink:href="classUIElement.html#a98725ac250168ebb2fa676dd481ff495" target="_top" xlink:title="Get the button state Get the current mouse button pressed state. ">
<polygon fill="none" stroke="#000000" points="220,-.5 220,-19.5 367,-19.5 367,-.5 220,-.5"/>
<text text-anchor="middle" x="293.5" y="-7.5" font-family="Helvetica,sans-Serif" font-size="10.00" fill="#000000">UIElement::getButtonState</text>
</a>
</g>
</g>
<!-- Node10&#45;&gt;Node15 -->
<g id="edge5" class="edge">
<title>Node10&#45;&gt;Node15</title>
<path fill="none" stroke="#191970" d="M138.8421,-38.46C166.9491,-33.2878 201.8799,-26.8599 231.4291,-21.4222"/>
<polygon fill="#191970" stroke="#191970" points="232.4351,-24.796 241.6365,-19.5439 231.1682,-17.9116 232.4351,-24.796"/>
</g>
<!-- Node13 -->
<g id="node4" class="node">
<title>Node13</title>
<g id="a_node4"><a xlink:href="classUIElement.html#afdf67550d4140097c7a328d4b22fc1fe" target="_top" xlink:title="UIElement::changeTexture">
<polygon fill="none" stroke="#000000" points="423,-60.5 423,-79.5 568,-79.5 568,-60.5 423,-60.5"/>
<text text-anchor="middle" x="495.5" y="-67.5" font-family="Helvetica,sans-Serif" font-size="10.00" fill="#000000">UIElement::changeTexture</text>
</a>
</g>
</g>
<!-- Node12&#45;&gt;Node13 -->
<g id="edge3" class="edge">
<title>Node12&#45;&gt;Node13</title>
<path fill="none" stroke="#191970" d="M377.1193,-57.107C388.8719,-58.387 400.9483,-59.7023 412.6858,-60.9806"/>
<polygon fill="#191970" stroke="#191970" points="412.5764,-64.4893 422.8966,-62.0927 413.3344,-57.5305 412.5764,-64.4893"/>
</g>
<!-- Node14 -->
<g id="node5" class="node">
<title>Node14</title>
<g id="a_node5"><a xlink:href="classSingleton.html#af5cb1e5749949e2b68416cfb8d378044" target="_top" xlink:title="Get an instance of the singleton. ">
<polygon fill="none" stroke="#000000" points="413,-11 413,-41 578,-41 578,-11 413,-11"/>
<text text-anchor="start" x="421" y="-29" font-family="Helvetica,sans-Serif" font-size="10.00" fill="#000000">Singleton&lt; ResourcesManager</text>
<text text-anchor="middle" x="495.5" y="-18" font-family="Helvetica,sans-Serif" font-size="10.00" fill="#000000"> &gt;::instance</text>
</a>
</g>
</g>
<!-- Node12&#45;&gt;Node14 -->
<g id="edge4" class="edge">
<title>Node12&#45;&gt;Node14</title>
<path fill="none" stroke="#191970" d="M377.1193,-38.893C385.6225,-37.9669 394.2953,-37.0223 402.8865,-36.0866"/>
<polygon fill="#191970" stroke="#191970" points="403.3572,-39.5561 412.9194,-34.9939 402.5992,-32.5973 403.3572,-39.5561"/>
</g>
</g>
</svg>
