<?xml version="1.0" encoding="UTF-8" standalone="no"?>
<!DOCTYPE svg PUBLIC "-//W3C//DTD SVG 1.1//EN"
 "http://www.w3.org/Graphics/SVG/1.1/DTD/svg11.dtd">
<!-- Generated by graphviz version 2.40.1 (20161225.0304)
 -->
<!-- Title: Button::onMouseEnter Pages: 1 -->
<svg width="536pt" height="94pt"
 viewBox="0.00 0.00 536.00 93.50" xmlns="http://www.w3.org/2000/svg" xmlns:xlink="http://www.w3.org/1999/xlink">
<g id="graph0" class="graph" transform="scale(1 1) rotate(0) translate(4 89.5)">
<title>Button::onMouseEnter</title>
<!-- Node46 -->
<g id="node1" class="node">
<title>Node46</title>
<polygon fill="#bfbfbf" stroke="#000000" points="0,-47 0,-66 124,-66 124,-47 0,-47"/>
<text text-anchor="middle" x="62" y="-54" font-family="Helvetica,sans-Serif" font-size="10.00" fill="#000000">Button::onMouseEnter</text>
</g>
<!-- Node47 -->
<g id="node2" class="node">
<title>Node47</title>
<g id="a_node2"><a xlink:href="classUIElement.html#a98725ac250168ebb2fa676dd481ff495" target="_top" xlink:title="Get the button state Get the current mouse button pressed state. ">
<polygon fill="none" stroke="#000000" points="170,-66 170,-85 317,-85 317,-66 170,-66"/>
<text text-anchor="middle" x="243.5" y="-73" font-family="Helvetica,sans-Serif" font-size="10.00" fill="#000000">UIElement::getButtonState</text>
</a>
</g>
</g>
<!-- Node46&#45;&gt;Node47 -->
<g id="edge1" class="edge">
<title>Node46&#45;&gt;Node47</title>
<path fill="none" stroke="#191970" d="M124.2081,-63.0121C135.6725,-64.2123 147.8135,-65.4832 159.7899,-66.737"/>
<polygon fill="#191970" stroke="#191970" points="159.4829,-70.2239 169.793,-67.7841 160.2118,-63.2619 159.4829,-70.2239"/>
</g>
<!-- Node48 -->
<g id="node3" class="node">
<title>Node48</title>
<g id="a_node3"><a xlink:href="classUIElement.html#ade4162d6216022e143c769369b64add7" target="_top" xlink:title="Set the button state Sets the mouse button pressed state. ">
<polygon fill="none" stroke="#000000" points="160,-28 160,-47 327,-47 327,-28 160,-28"/>
<text text-anchor="middle" x="243.5" y="-35" font-family="Helvetica,sans-Serif" font-size="10.00" fill="#000000">UIElement::changeButtonState</text>
</a>
</g>
</g>
<!-- Node46&#45;&gt;Node48 -->
<g id="edge2" class="edge">
<title>Node46&#45;&gt;Node48</title>
<path fill="none" stroke="#191970" d="M124.2081,-49.9879C132.4689,-49.1231 141.0809,-48.2216 149.7296,-47.3162"/>
<polygon fill="#191970" stroke="#191970" points="150.2992,-50.7758 159.8804,-46.2536 149.5703,-43.8138 150.2992,-50.7758"/>
</g>
<!-- Node49 -->
<g id="node4" class="node">
<title>Node49</title>
<g id="a_node4"><a xlink:href="classUIElement.html#afdf67550d4140097c7a328d4b22fc1fe" target="_top" xlink:title="UIElement::changeTexture">
<polygon fill="none" stroke="#000000" points="373,-50 373,-69 518,-69 518,-50 373,-50"/>
<text text-anchor="middle" x="445.5" y="-57" font-family="Helvetica,sans-Serif" font-size="10.00" fill="#000000">UIElement::changeTexture</text>
</a>
</g>
</g>
<!-- Node48&#45;&gt;Node49 -->
<g id="edge3" class="edge">
<title>Node48&#45;&gt;Node49</title>
<path fill="none" stroke="#191970" d="M327.1193,-46.607C338.8719,-47.887 350.9483,-49.2023 362.6858,-50.4806"/>
<polygon fill="#191970" stroke="#191970" points="362.5764,-53.9893 372.8966,-51.5927 363.3344,-47.0305 362.5764,-53.9893"/>
</g>
<!-- Node50 -->
<g id="node5" class="node">
<title>Node50</title>
<g id="a_node5"><a xlink:href="classSingleton.html#af5cb1e5749949e2b68416cfb8d378044" target="_top" xlink:title="Get an instance of the singleton. ">
<polygon fill="none" stroke="#000000" points="363,-.5 363,-30.5 528,-30.5 528,-.5 363,-.5"/>
<text text-anchor="start" x="371" y="-18.5" font-family="Helvetica,sans-Serif" font-size="10.00" fill="#000000">Singleton&lt; ResourcesManager</text>
<text text-anchor="middle" x="445.5" y="-7.5" font-family="Helvetica,sans-Serif" font-size="10.00" fill="#000000"> &gt;::instance</text>
</a>
</g>
</g>
<!-- Node48&#45;&gt;Node50 -->
<g id="edge4" class="edge">
<title>Node48&#45;&gt;Node50</title>
<path fill="none" stroke="#191970" d="M327.1193,-28.393C335.6225,-27.4669 344.2953,-26.5223 352.8865,-25.5866"/>
<polygon fill="#191970" stroke="#191970" points="353.3572,-29.0561 362.9194,-24.4939 352.5992,-22.0973 353.3572,-29.0561"/>
</g>
</g>
</svg>
