<?xml version="1.0" encoding="UTF-8" standalone="no"?>
<!DOCTYPE svg PUBLIC "-//W3C//DTD SVG 1.1//EN"
 "http://www.w3.org/Graphics/SVG/1.1/DTD/svg11.dtd">
<!-- Generated by graphviz version 2.40.1 (20161225.0304)
 -->
<!-- Title: ComboBox::onMouseMove Pages: 1 -->
<svg width="558pt" height="132pt"
 viewBox="0.00 0.00 558.00 131.50" xmlns="http://www.w3.org/2000/svg" xmlns:xlink="http://www.w3.org/1999/xlink">
<g id="graph0" class="graph" transform="scale(1 1) rotate(0) translate(4 127.5)">
<title>ComboBox::onMouseMove</title>
<!-- Node65 -->
<g id="node1" class="node">
<title>Node65</title>
<polygon fill="#bfbfbf" stroke="#000000" points="0,-66 0,-85 146,-85 146,-66 0,-66"/>
<text text-anchor="middle" x="73" y="-73" font-family="Helvetica,sans-Serif" font-size="10.00" fill="#000000">ComboBox::onMouseMove</text>
</g>
<!-- Node66 -->
<g id="node2" class="node">
<title>Node66</title>
<g id="a_node2"><a xlink:href="classComboBox.html#aa6f2324f223f737bf44ffa55fc272d63" target="_top" xlink:title="ComboBox::checkBoundaries">
<polygon fill="none" stroke="#000000" points="186,-104 186,-123 345,-123 345,-104 186,-104"/>
<text text-anchor="middle" x="265.5" y="-111" font-family="Helvetica,sans-Serif" font-size="10.00" fill="#000000">ComboBox::checkBoundaries</text>
</a>
</g>
</g>
<!-- Node65&#45;&gt;Node66 -->
<g id="edge1" class="edge">
<title>Node65&#45;&gt;Node66</title>
<path fill="none" stroke="#191970" d="M121.5759,-85.089C147.6649,-90.239 180.0058,-96.6232 207.4179,-102.0344"/>
<polygon fill="#191970" stroke="#191970" points="206.7849,-105.477 217.2734,-103.9799 208.1406,-98.6095 206.7849,-105.477"/>
</g>
<!-- Node67 -->
<g id="node3" class="node">
<title>Node67</title>
<g id="a_node3"><a xlink:href="classUIElement.html#a98725ac250168ebb2fa676dd481ff495" target="_top" xlink:title="Get the button state Get the current mouse button pressed state. ">
<polygon fill="none" stroke="#000000" points="192,-66 192,-85 339,-85 339,-66 192,-66"/>
<text text-anchor="middle" x="265.5" y="-73" font-family="Helvetica,sans-Serif" font-size="10.00" fill="#000000">UIElement::getButtonState</text>
</a>
</g>
</g>
<!-- Node65&#45;&gt;Node67 -->
<g id="edge2" class="edge">
<title>Node65&#45;&gt;Node67</title>
<path fill="none" stroke="#191970" d="M146.0505,-75.5C157.6496,-75.5 169.7268,-75.5 181.5521,-75.5"/>
<polygon fill="#191970" stroke="#191970" points="181.8609,-79.0001 191.8608,-75.5 181.8608,-72.0001 181.8609,-79.0001"/>
</g>
<!-- Node68 -->
<g id="node4" class="node">
<title>Node68</title>
<g id="a_node4"><a xlink:href="classUIElement.html#ade4162d6216022e143c769369b64add7" target="_top" xlink:title="Set the button state Sets the mouse button pressed state. ">
<polygon fill="none" stroke="#000000" points="182,-28 182,-47 349,-47 349,-28 182,-28"/>
<text text-anchor="middle" x="265.5" y="-35" font-family="Helvetica,sans-Serif" font-size="10.00" fill="#000000">UIElement::changeButtonState</text>
</a>
</g>
</g>
<!-- Node65&#45;&gt;Node68 -->
<g id="edge3" class="edge">
<title>Node65&#45;&gt;Node68</title>
<path fill="none" stroke="#191970" d="M121.5759,-65.911C147.6649,-60.761 180.0058,-54.3768 207.4179,-48.9656"/>
<polygon fill="#191970" stroke="#191970" points="208.1406,-52.3905 217.2734,-47.0201 206.7849,-45.523 208.1406,-52.3905"/>
</g>
<!-- Node69 -->
<g id="node5" class="node">
<title>Node69</title>
<g id="a_node5"><a xlink:href="classUIElement.html#afdf67550d4140097c7a328d4b22fc1fe" target="_top" xlink:title="UIElement::changeTexture">
<polygon fill="none" stroke="#000000" points="395,-50 395,-69 540,-69 540,-50 395,-50"/>
<text text-anchor="middle" x="467.5" y="-57" font-family="Helvetica,sans-Serif" font-size="10.00" fill="#000000">UIElement::changeTexture</text>
</a>
</g>
</g>
<!-- Node68&#45;&gt;Node69 -->
<g id="edge4" class="edge">
<title>Node68&#45;&gt;Node69</title>
<path fill="none" stroke="#191970" d="M349.1193,-46.607C360.8719,-47.887 372.9483,-49.2023 384.6858,-50.4806"/>
<polygon fill="#191970" stroke="#191970" points="384.5764,-53.9893 394.8966,-51.5927 385.3344,-47.0305 384.5764,-53.9893"/>
</g>
<!-- Node70 -->
<g id="node6" class="node">
<title>Node70</title>
<g id="a_node6"><a xlink:href="classSingleton.html#af5cb1e5749949e2b68416cfb8d378044" target="_top" xlink:title="Get an instance of the singleton. ">
<polygon fill="none" stroke="#000000" points="385,-.5 385,-30.5 550,-30.5 550,-.5 385,-.5"/>
<text text-anchor="start" x="393" y="-18.5" font-family="Helvetica,sans-Serif" font-size="10.00" fill="#000000">Singleton&lt; ResourcesManager</text>
<text text-anchor="middle" x="467.5" y="-7.5" font-family="Helvetica,sans-Serif" font-size="10.00" fill="#000000"> &gt;::instance</text>
</a>
</g>
</g>
<!-- Node68&#45;&gt;Node70 -->
<g id="edge5" class="edge">
<title>Node68&#45;&gt;Node70</title>
<path fill="none" stroke="#191970" d="M349.1193,-28.393C357.6225,-27.4669 366.2953,-26.5223 374.8865,-25.5866"/>
<polygon fill="#191970" stroke="#191970" points="375.3572,-29.0561 384.9194,-24.4939 374.5992,-22.0973 375.3572,-29.0561"/>
</g>
</g>
</svg>
