<?xml version="1.0" encoding="UTF-8" standalone="no"?>
<!DOCTYPE svg PUBLIC "-//W3C//DTD SVG 1.1//EN"
 "http://www.w3.org/Graphics/SVG/1.1/DTD/svg11.dtd">
<!-- Generated by graphviz version 2.40.1 (20161225.0304)
 -->
<!-- Title: AudioMixer::playSoundtrack Pages: 1 -->
<svg width="509pt" height="28pt"
 viewBox="0.00 0.00 509.00 28.00" xmlns="http://www.w3.org/2000/svg" xmlns:xlink="http://www.w3.org/1999/xlink">
<g id="graph0" class="graph" transform="scale(1 1) rotate(0) translate(4 24)">
<title>AudioMixer::playSoundtrack</title>
<!-- Node39 -->
<g id="node1" class="node">
<title>Node39</title>
<polygon fill="#bfbfbf" stroke="#000000" points="0,-.5 0,-19.5 153,-19.5 153,-.5 0,-.5"/>
<text text-anchor="middle" x="76.5" y="-7.5" font-family="Helvetica,sans-Serif" font-size="10.00" fill="#000000">AudioMixer::playSoundtrack</text>
</g>
<!-- Node40 -->
<g id="node2" class="node">
<title>Node40</title>
<g id="a_node2"><a xlink:href="classAudioMixer.html#a3904961988ad24ee10a0961e9c2fbccf" target="_top" xlink:title="AudioMixer::handleEvent">
<polygon fill="none" stroke="#000000" points="189,-.5 189,-19.5 327,-19.5 327,-.5 189,-.5"/>
<text text-anchor="middle" x="258" y="-7.5" font-family="Helvetica,sans-Serif" font-size="10.00" fill="#000000">AudioMixer::handleEvent</text>
</a>
</g>
</g>
<!-- Node39&#45;&gt;Node40 -->
<g id="edge1" class="edge">
<title>Node39&#45;&gt;Node40</title>
<path fill="none" stroke="#191970" d="M163.2271,-10C171.7952,-10 180.4111,-10 188.7687,-10"/>
<polygon fill="#191970" stroke="#191970" points="163.2093,-6.5001 153.2093,-10 163.2092,-13.5001 163.2093,-6.5001"/>
</g>
<!-- Node41 -->
<g id="node3" class="node">
<title>Node41</title>
<g id="a_node3"><a xlink:href="classAudioMixer.html#a8ca9187d36753ede6434bb1aef5cc076" target="_top" xlink:title="AudioMixer::handleEvent">
<polygon fill="none" stroke="#000000" points="363,-.5 363,-19.5 501,-19.5 501,-.5 363,-.5"/>
<text text-anchor="middle" x="432" y="-7.5" font-family="Helvetica,sans-Serif" font-size="10.00" fill="#000000">AudioMixer::handleEvent</text>
</a>
</g>
</g>
<!-- Node40&#45;&gt;Node41 -->
<g id="edge2" class="edge">
<title>Node40&#45;&gt;Node41</title>
<path fill="none" stroke="#191970" d="M337.0349,-10C345.6249,-10 354.3194,-10 362.7795,-10"/>
<polygon fill="#191970" stroke="#191970" points="337.0194,-6.5001 327.0193,-10 337.0193,-13.5001 337.0194,-6.5001"/>
</g>
</g>
</svg>
