<?xml version="1.0" encoding="UTF-8" standalone="no"?>
<!DOCTYPE svg PUBLIC "-//W3C//DTD SVG 1.1//EN"
 "http://www.w3.org/Graphics/SVG/1.1/DTD/svg11.dtd">
<!-- Generated by graphviz version 2.40.1 (20161225.0304)
 -->
<!-- Title: Tooltip::draw Pages: 1 -->
<svg width="450pt" height="104pt"
 viewBox="0.00 0.00 450.00 104.00" xmlns="http://www.w3.org/2000/svg" xmlns:xlink="http://www.w3.org/1999/xlink">
<g id="graph0" class="graph" transform="scale(1 1) rotate(0) translate(4 100)">
<title>Tooltip::draw</title>
<!-- Node9 -->
<g id="node1" class="node">
<title>Node9</title>
<polygon fill="#bfbfbf" stroke="#000000" points="0,-38.5 0,-57.5 79,-57.5 79,-38.5 0,-38.5"/>
<text text-anchor="middle" x="39.5" y="-45.5" font-family="Helvetica,sans-Serif" font-size="10.00" fill="#000000">Tooltip::draw</text>
</g>
<!-- Node10 -->
<g id="node2" class="node">
<title>Node10</title>
<g id="a_node2"><a xlink:href="classUIElement.html#abba9217ad94f67e16654cf236577b6c2" target="_top" xlink:title="Check the UI Elements visibility. Check if the UI Element is visibile. ">
<polygon fill="none" stroke="#000000" points="131.5,-76.5 131.5,-95.5 246.5,-95.5 246.5,-76.5 131.5,-76.5"/>
<text text-anchor="middle" x="189" y="-83.5" font-family="Helvetica,sans-Serif" font-size="10.00" fill="#000000">UIElement::isVisible</text>
</a>
</g>
</g>
<!-- Node9&#45;&gt;Node10 -->
<g id="edge1" class="edge">
<title>Node9&#45;&gt;Node10</title>
<path fill="none" stroke="#191970" d="M77.2252,-57.589C96.7756,-62.5583 120.8466,-68.6767 141.6374,-73.9613"/>
<polygon fill="#191970" stroke="#191970" points="140.9921,-77.4085 151.5461,-76.4799 142.7165,-70.6243 140.9921,-77.4085"/>
</g>
<!-- Node11 -->
<g id="node3" class="node">
<title>Node11</title>
<g id="a_node3"><a xlink:href="classUIElement.html#a9c39d325adcf1f6cd925d6c247375778" target="_top" xlink:title="Draws a frame around a textfield Draws a frame around around an existing textfield. This function cannot be used without an existing textfield. ">
<polygon fill="none" stroke="#000000" points="115,-38.5 115,-57.5 263,-57.5 263,-38.5 115,-38.5"/>
<text text-anchor="middle" x="189" y="-45.5" font-family="Helvetica,sans-Serif" font-size="10.00" fill="#000000">UIElement::drawTextFrame</text>
</a>
</g>
</g>
<!-- Node9&#45;&gt;Node11 -->
<g id="edge2" class="edge">
<title>Node9&#45;&gt;Node11</title>
<path fill="none" stroke="#191970" d="M79.1708,-48C87.1528,-48 95.825,-48 104.6793,-48"/>
<polygon fill="#191970" stroke="#191970" points="104.7265,-51.5001 114.7265,-48 104.7264,-44.5001 104.7265,-51.5001"/>
</g>
<!-- Node13 -->
<g id="node5" class="node">
<title>Node13</title>
<g id="a_node5"><a xlink:href="classUIElement.html#a0a6d27dea5d855c208e9bd9043b7ea62" target="_top" xlink:title="UIElement::renderTexture">
<polygon fill="none" stroke="#000000" points="118.5,-.5 118.5,-19.5 259.5,-19.5 259.5,-.5 118.5,-.5"/>
<text text-anchor="middle" x="189" y="-7.5" font-family="Helvetica,sans-Serif" font-size="10.00" fill="#000000">UIElement::renderTexture</text>
</a>
</g>
</g>
<!-- Node9&#45;&gt;Node13 -->
<g id="edge4" class="edge">
<title>Node9&#45;&gt;Node13</title>
<path fill="none" stroke="#191970" d="M77.2252,-38.411C96.7756,-33.4417 120.8466,-27.3233 141.6374,-22.0387"/>
<polygon fill="#191970" stroke="#191970" points="142.7165,-25.3757 151.5461,-19.5201 140.9921,-18.5915 142.7165,-25.3757"/>
</g>
<!-- Node12 -->
<g id="node4" class="node">
<title>Node12</title>
<g id="a_node4"><a xlink:href="classUIElement.html#a4aca28b5f308b875340868697d0cc50c" target="_top" xlink:title="Draws a filled rectangle to the screen. Draws a filled rectangle to the screen. ">
<polygon fill="none" stroke="#000000" points="299,-38.5 299,-57.5 442,-57.5 442,-38.5 299,-38.5"/>
<text text-anchor="middle" x="370.5" y="-45.5" font-family="Helvetica,sans-Serif" font-size="10.00" fill="#000000">UIElement::drawSolidRect</text>
</a>
</g>
</g>
<!-- Node11&#45;&gt;Node12 -->
<g id="edge3" class="edge">
<title>Node11&#45;&gt;Node12</title>
<path fill="none" stroke="#191970" d="M263.0848,-48C271.6095,-48 280.3375,-48 288.9536,-48"/>
<polygon fill="#191970" stroke="#191970" points="288.998,-51.5001 298.9979,-48 288.9979,-44.5001 288.998,-51.5001"/>
</g>
</g>
</svg>
