<?xml version="1.0" encoding="UTF-8" standalone="no"?>
<!DOCTYPE svg PUBLIC "-//W3C//DTD SVG 1.1//EN"
 "http://www.w3.org/Graphics/SVG/1.1/DTD/svg11.dtd">
<!-- Generated by graphviz version 2.40.1 (20161225.0304)
 -->
<!-- Title: Engine::newGame Pages: 1 -->
<svg width="548pt" height="142pt"
 viewBox="0.00 0.00 548.00 142.00" xmlns="http://www.w3.org/2000/svg" xmlns:xlink="http://www.w3.org/1999/xlink">
<g id="graph0" class="graph" transform="scale(1 1) rotate(0) translate(4 138)">
<title>Engine::newGame</title>
<!-- Node101 -->
<g id="node1" class="node">
<title>Node101</title>
<polygon fill="#bfbfbf" stroke="#000000" points="0,-57.5 0,-76.5 105,-76.5 105,-57.5 0,-57.5"/>
<text text-anchor="middle" x="52.5" y="-64.5" font-family="Helvetica,sans-Serif" font-size="10.00" fill="#000000">Engine::newGame</text>
</g>
<!-- Node102 -->
<g id="node2" class="node">
<title>Node102</title>
<g id="a_node2"><a xlink:href="classEngine.html#ab5a909990be40701ebb4b57c3e716ed4" target="_top" xlink:title="Engine::saveGame">
<polygon fill="none" stroke="#000000" points="141,-114.5 141,-133.5 249,-133.5 249,-114.5 141,-114.5"/>
<text text-anchor="middle" x="195" y="-121.5" font-family="Helvetica,sans-Serif" font-size="10.00" fill="#000000">Engine::saveGame</text>
</a>
</g>
</g>
<!-- Node101&#45;&gt;Node102 -->
<g id="edge1" class="edge">
<title>Node101&#45;&gt;Node102</title>
<path fill="none" stroke="#191970" d="M85.8522,-80.3409C111.9875,-90.795 147.7185,-105.0874 171.0709,-114.4284"/>
<polygon fill="#191970" stroke="#191970" points="86.936,-77.0048 76.3513,-76.5405 84.3362,-83.5042 86.936,-77.0048"/>
</g>
<!-- Node103 -->
<g id="node3" class="node">
<title>Node103</title>
<g id="a_node3"><a xlink:href="classUIManager.html#aa78e356fc3b356d790c848319d1c387e" target="_top" xlink:title="UIManager::setCallbackFunctions">
<polygon fill="none" stroke="#000000" points="285,-85.5 285,-104.5 463,-104.5 463,-85.5 285,-85.5"/>
<text text-anchor="middle" x="374" y="-92.5" font-family="Helvetica,sans-Serif" font-size="10.00" fill="#000000">UIManager::setCallbackFunctions</text>
</a>
</g>
</g>
<!-- Node101&#45;&gt;Node103 -->
<g id="edge3" class="edge">
<title>Node101&#45;&gt;Node103</title>
<path fill="none" stroke="#191970" d="M115.2308,-72.4633C163.5135,-76.6684 230.8789,-82.5353 284.7721,-87.229"/>
<polygon fill="#191970" stroke="#191970" points="115.4952,-68.9732 105.2292,-71.5923 114.8878,-75.9468 115.4952,-68.9732"/>
</g>
<!-- Node104 -->
<g id="node4" class="node">
<title>Node104</title>
<g id="a_node4"><a xlink:href="classGame.html#a5ed7fc5be77080f7f6dd5363f7f007a1" target="_top" xlink:title="initializes and displays the main menu initializes and displays the main menu ">
<polygon fill="none" stroke="#000000" points="143.5,-38.5 143.5,-57.5 246.5,-57.5 246.5,-38.5 143.5,-38.5"/>
<text text-anchor="middle" x="195" y="-45.5" font-family="Helvetica,sans-Serif" font-size="10.00" fill="#000000">Game::mainMenu</text>
</a>
</g>
</g>
<!-- Node101&#45;&gt;Node104 -->
<g id="edge4" class="edge">
<title>Node101&#45;&gt;Node104</title>
<path fill="none" stroke="#191970" d="M115.1522,-58.6464C124.4637,-57.4048 133.9741,-56.1368 143.0345,-54.9287"/>
<polygon fill="#191970" stroke="#191970" points="114.6066,-55.1881 105.1569,-59.9791 115.5318,-62.1267 114.6066,-55.1881"/>
</g>
<!-- Node107 -->
<g id="node7" class="node">
<title>Node107</title>
<g id="a_node7"><a xlink:href="classGame.html#a1c2ab25d5216b2f4b2fe41efd2c09114" target="_top" xlink:title="begins the game starts running the game ">
<polygon fill="none" stroke="#000000" points="161,-.5 161,-19.5 229,-19.5 229,-.5 161,-.5"/>
<text text-anchor="middle" x="195" y="-7.5" font-family="Helvetica,sans-Serif" font-size="10.00" fill="#000000">Game::run</text>
</a>
</g>
</g>
<!-- Node101&#45;&gt;Node107 -->
<g id="edge7" class="edge">
<title>Node101&#45;&gt;Node107</title>
<path fill="none" stroke="#191970" d="M83.1902,-53.2196C100.125,-45.7683 121.5973,-36.5691 141,-29 149.3329,-25.7493 158.481,-22.4359 166.8411,-19.5057"/>
<polygon fill="#191970" stroke="#191970" points="81.5208,-50.131 73.7934,-57.3793 84.3543,-56.5318 81.5208,-50.131"/>
</g>
<!-- Node102&#45;&gt;Node103 -->
<g id="edge2" class="edge">
<title>Node102&#45;&gt;Node103</title>
<path fill="none" stroke="#191970" d="M259.1852,-113.6013C277.4981,-110.6344 297.3517,-107.4179 315.318,-104.5071"/>
<polygon fill="#191970" stroke="#191970" points="258.5032,-110.1661 249.1917,-115.2203 259.6227,-117.076 258.5032,-110.1661"/>
</g>
<!-- Node105 -->
<g id="node5" class="node">
<title>Node105</title>
<g id="a_node5"><a xlink:href="main_8cxx.html#af582d708d899e67ead623eac34a22387" target="_top" xlink:title="protected_main">
<polygon fill="none" stroke="#000000" points="327.5,-28.5 327.5,-47.5 420.5,-47.5 420.5,-28.5 327.5,-28.5"/>
<text text-anchor="middle" x="374" y="-35.5" font-family="Helvetica,sans-Serif" font-size="10.00" fill="#000000">protected_main</text>
</a>
</g>
</g>
<!-- Node104&#45;&gt;Node105 -->
<g id="edge5" class="edge">
<title>Node104&#45;&gt;Node105</title>
<path fill="none" stroke="#191970" d="M256.8215,-44.5463C279.908,-43.2565 305.7198,-41.8145 327.2292,-40.6129"/>
<polygon fill="#191970" stroke="#191970" points="256.5634,-41.0552 246.7742,-45.1076 256.9539,-48.0443 256.5634,-41.0552"/>
</g>
<!-- Node106 -->
<g id="node6" class="node">
<title>Node106</title>
<g id="a_node6"><a xlink:href="main_8cxx.html#a3c04138a5bfe5d72780bb7e82a18e627" target="_top" xlink:title="main">
<polygon fill="none" stroke="#000000" points="499,-28.5 499,-47.5 540,-47.5 540,-28.5 499,-28.5"/>
<text text-anchor="middle" x="519.5" y="-35.5" font-family="Helvetica,sans-Serif" font-size="10.00" fill="#000000">main</text>
</a>
</g>
</g>
<!-- Node105&#45;&gt;Node106 -->
<g id="edge6" class="edge">
<title>Node105&#45;&gt;Node106</title>
<path fill="none" stroke="#191970" d="M430.8931,-38C454.7718,-38 481.0463,-38 498.7355,-38"/>
<polygon fill="#191970" stroke="#191970" points="430.838,-34.5001 420.838,-38 430.838,-41.5001 430.838,-34.5001"/>
</g>
<!-- Node107&#45;&gt;Node105 -->
<g id="edge8" class="edge">
<title>Node107&#45;&gt;Node105</title>
<path fill="none" stroke="#191970" d="M239.3122,-16.9315C266.0315,-21.1111 300.035,-26.4301 327.1909,-30.6779"/>
<polygon fill="#191970" stroke="#191970" points="239.5107,-13.4201 229.0899,-15.3325 238.4288,-20.336 239.5107,-13.4201"/>
</g>
</g>
</svg>
