<?xml version="1.0" encoding="UTF-8" standalone="no"?>
<!DOCTYPE svg PUBLIC "-//W3C//DTD SVG 1.1//EN"
 "http://www.w3.org/Graphics/SVG/1.1/DTD/svg11.dtd">
<!-- Generated by graphviz version 2.40.1 (20161225.0304)
 -->
<!-- Title: MapLayers::deactivateAllLayers Pages: 1 -->
<svg width="1677pt" height="268pt"
 viewBox="0.00 0.00 1677.00 267.50" xmlns="http://www.w3.org/2000/svg" xmlns:xlink="http://www.w3.org/1999/xlink">
<g id="graph0" class="graph" transform="scale(1 1) rotate(0) translate(4 263.5)">
<title>MapLayers::deactivateAllLayers</title>
<!-- Node36 -->
<g id="node1" class="node">
<title>Node36</title>
<polygon fill="#bfbfbf" stroke="#000000" points="0,-90 0,-120 140,-120 140,-90 0,-90"/>
<text text-anchor="start" x="8" y="-108" font-family="Helvetica,sans-Serif" font-size="10.00" fill="#000000">MapLayers::deactivateAll</text>
<text text-anchor="middle" x="70" y="-97" font-family="Helvetica,sans-Serif" font-size="10.00" fill="#000000">Layers</text>
</g>
<!-- Node37 -->
<g id="node2" class="node">
<title>Node37</title>
<g id="a_node2"><a xlink:href="classMapLayers.html#ab663dfc9e4c144f904ad85543b66ac8f" target="_top" xlink:title="Toggle Drawing Layer Toggle Drawing Layer (use bitwise XOR to toggle layer) ">
<polygon fill="none" stroke="#000000" points="176,-95.5 176,-114.5 338,-114.5 338,-95.5 176,-95.5"/>
<text text-anchor="middle" x="257" y="-102.5" font-family="Helvetica,sans-Serif" font-size="10.00" fill="#000000">MapLayers::setLayerEditMode</text>
</a>
</g>
</g>
<!-- Node36&#45;&gt;Node37 -->
<g id="edge1" class="edge">
<title>Node36&#45;&gt;Node37</title>
<path fill="none" stroke="#191970" d="M150.3393,-105C158.7557,-105 167.3173,-105 175.744,-105"/>
<polygon fill="#191970" stroke="#191970" points="150.164,-101.5001 140.1639,-105 150.1639,-108.5001 150.164,-101.5001"/>
</g>
<!-- Node38 -->
<g id="node3" class="node">
<title>Node38</title>
<g id="a_node3"><a xlink:href="classMapLayers.html#a1d810628821913c499b8348107b66891" target="_top" xlink:title="Check if given Layer is being drawn. ">
<polygon fill="none" stroke="#000000" points="392.5,-114.5 392.5,-133.5 533.5,-133.5 533.5,-114.5 392.5,-114.5"/>
<text text-anchor="middle" x="463" y="-121.5" font-family="Helvetica,sans-Serif" font-size="10.00" fill="#000000">MapLayers::isLayerActive</text>
</a>
</g>
</g>
<!-- Node37&#45;&gt;Node38 -->
<g id="edge2" class="edge">
<title>Node37&#45;&gt;Node38</title>
<path fill="none" stroke="#191970" d="M348.2731,-113.4184C363.0344,-114.7799 378.1213,-116.1714 392.2996,-117.4791"/>
<polygon fill="#191970" stroke="#191970" points="348.4002,-109.9153 338.1209,-112.482 347.7572,-116.8858 348.4002,-109.9153"/>
</g>
<!-- Node53 -->
<g id="node18" class="node">
<title>Node53</title>
<g id="a_node18"><a xlink:href="classUIManager.html#aa78e356fc3b356d790c848319d1c387e" target="_top" xlink:title="UIManager::setCallbackFunctions">
<polygon fill="none" stroke="#000000" points="374,-76.5 374,-95.5 552,-95.5 552,-76.5 374,-76.5"/>
<text text-anchor="middle" x="463" y="-83.5" font-family="Helvetica,sans-Serif" font-size="10.00" fill="#000000">UIManager::setCallbackFunctions</text>
</a>
</g>
</g>
<!-- Node37&#45;&gt;Node53 -->
<g id="edge17" class="edge">
<title>Node37&#45;&gt;Node53</title>
<path fill="none" stroke="#191970" d="M348.0803,-96.5994C356.6198,-95.8118 365.2701,-95.0139 373.7921,-94.2279"/>
<polygon fill="#191970" stroke="#191970" points="347.7572,-93.1142 338.1209,-97.518 348.4002,-100.0847 347.7572,-93.1142"/>
</g>
<!-- Node39 -->
<g id="node4" class="node">
<title>Node39</title>
<g id="a_node4"><a xlink:href="classMapNode.html#ac307762dc7ad609974c6b13774c3c00d" target="_top" xlink:title="return topmost active layer. check layers in order of significance for the topmost active layer that ...">
<polygon fill="none" stroke="#000000" points="588,-229 588,-259 743,-259 743,-229 588,-229"/>
<text text-anchor="start" x="596" y="-247" font-family="Helvetica,sans-Serif" font-size="10.00" fill="#000000">MapNode::getTopMostActive</text>
<text text-anchor="middle" x="665.5" y="-236" font-family="Helvetica,sans-Serif" font-size="10.00" fill="#000000">Layer</text>
</a>
</g>
</g>
<!-- Node38&#45;&gt;Node39 -->
<g id="edge3" class="edge">
<title>Node38&#45;&gt;Node39</title>
<path fill="none" stroke="#191970" d="M480.803,-140.6828C503.9137,-161.5597 546.247,-197.2122 588,-219 595.1442,-222.728 602.9492,-226.0353 610.7664,-228.9244"/>
<polygon fill="#191970" stroke="#191970" points="482.9327,-137.8872 473.1949,-133.7129 478.2042,-143.0487 482.9327,-137.8872"/>
</g>
<!-- Node41 -->
<g id="node6" class="node">
<title>Node41</title>
<g id="a_node6"><a xlink:href="classMapNode.html#a002b868485074599fbf087fc4c96b2c9" target="_top" xlink:title="Demolish a node Removes all tiles on a node. This effects all layers where something to demolish is p...">
<polygon fill="none" stroke="#000000" points="596,-190.5 596,-209.5 735,-209.5 735,-190.5 596,-190.5"/>
<text text-anchor="middle" x="665.5" y="-197.5" font-family="Helvetica,sans-Serif" font-size="10.00" fill="#000000">MapNode::demolishNode</text>
</a>
</g>
</g>
<!-- Node38&#45;&gt;Node41 -->
<g id="edge5" class="edge">
<title>Node38&#45;&gt;Node41</title>
<path fill="none" stroke="#191970" d="M490.3829,-138.2948C515.3079,-150.8663 553.3885,-168.9849 588,-181 598.3389,-184.5891 609.6771,-187.7724 620.4132,-190.4586"/>
<polygon fill="#191970" stroke="#191970" points="491.6902,-135.0327 481.1914,-133.609 488.5108,-141.269 491.6902,-135.0327"/>
</g>
<!-- Node42 -->
<g id="node7" class="node">
<title>Node42</title>
<g id="a_node7"><a xlink:href="classMap.html#a1f87a6ce8b3be8d140bcee1b1e473903" target="_top" xlink:title="Map::isClickWithinTile">
<polygon fill="none" stroke="#000000" points="603,-152.5 603,-171.5 728,-171.5 728,-152.5 603,-152.5"/>
<text text-anchor="middle" x="665.5" y="-159.5" font-family="Helvetica,sans-Serif" font-size="10.00" fill="#000000">Map::isClickWithinTile</text>
</a>
</g>
</g>
<!-- Node38&#45;&gt;Node42 -->
<g id="edge6" class="edge">
<title>Node38&#45;&gt;Node42</title>
<path fill="none" stroke="#191970" d="M523.8466,-135.4181C552.8207,-140.8552 587.0752,-147.2832 614.6412,-152.4561"/>
<polygon fill="#191970" stroke="#191970" points="524.3119,-131.9444 513.8379,-133.54 523.0208,-138.8243 524.3119,-131.9444"/>
</g>
<!-- Node49 -->
<g id="node14" class="node">
<title>Node49</title>
<g id="a_node14"><a xlink:href="classSprite.html#abdf111e2030274680af0f00f296d8605" target="_top" xlink:title="Sprite::render">
<polygon fill="none" stroke="#000000" points="624,-114.5 624,-133.5 707,-133.5 707,-114.5 624,-114.5"/>
<text text-anchor="middle" x="665.5" y="-121.5" font-family="Helvetica,sans-Serif" font-size="10.00" fill="#000000">Sprite::render</text>
</a>
</g>
</g>
<!-- Node38&#45;&gt;Node49 -->
<g id="edge13" class="edge">
<title>Node38&#45;&gt;Node49</title>
<path fill="none" stroke="#191970" d="M543.556,-124C571.0455,-124 600.6608,-124 623.8219,-124"/>
<polygon fill="#191970" stroke="#191970" points="543.5404,-120.5001 533.5404,-124 543.5404,-127.5001 543.5404,-120.5001"/>
</g>
<!-- Node50 -->
<g id="node15" class="node">
<title>Node50</title>
<g id="a_node15"><a xlink:href="classSprite.html#a87428873289f8ec84f4b75d9162c9d7c" target="_top" xlink:title="Sprite::getActiveClipRect">
<polygon fill="none" stroke="#000000" points="597,-76.5 597,-95.5 734,-95.5 734,-76.5 597,-76.5"/>
<text text-anchor="middle" x="665.5" y="-83.5" font-family="Helvetica,sans-Serif" font-size="10.00" fill="#000000">Sprite::getActiveClipRect</text>
</a>
</g>
</g>
<!-- Node38&#45;&gt;Node50 -->
<g id="edge14" class="edge">
<title>Node38&#45;&gt;Node50</title>
<path fill="none" stroke="#191970" d="M523.8466,-112.5819C552.8207,-107.1448 587.0752,-100.7168 614.6412,-95.5439"/>
<polygon fill="#191970" stroke="#191970" points="523.0208,-109.1757 513.8379,-114.46 524.3119,-116.0556 523.0208,-109.1757"/>
</g>
<!-- Node51 -->
<g id="node16" class="node">
<title>Node51</title>
<g id="a_node16"><a xlink:href="classSprite.html#a7376c698bf914312fbcc7c2b8180cbed" target="_top" xlink:title="Sprite::isLayerUsed">
<polygon fill="none" stroke="#000000" points="610,-38.5 610,-57.5 721,-57.5 721,-38.5 610,-38.5"/>
<text text-anchor="middle" x="665.5" y="-45.5" font-family="Helvetica,sans-Serif" font-size="10.00" fill="#000000">Sprite::isLayerUsed</text>
</a>
</g>
</g>
<!-- Node38&#45;&gt;Node51 -->
<g id="edge15" class="edge">
<title>Node38&#45;&gt;Node51</title>
<path fill="none" stroke="#191970" d="M539.4496,-110.9483C543.7991,-109.2075 548.0172,-107.235 552,-105 572.2883,-93.615 567.8853,-78.689 588,-67 594.7075,-63.1021 602.189,-60.0004 609.7849,-57.533"/>
<polygon fill="#191970" stroke="#191970" points="538.0036,-107.7479 529.7582,-114.4011 540.3529,-114.3419 538.0036,-107.7479"/>
</g>
<!-- Node52 -->
<g id="node17" class="node">
<title>Node52</title>
<g id="a_node17"><a xlink:href="classSprite.html#aedfac1c3b8a22c5ae4d97bd9586a6a26" target="_top" xlink:title="Sprite::getActiveDestRect">
<polygon fill="none" stroke="#000000" points="595,-.5 595,-19.5 736,-19.5 736,-.5 595,-.5"/>
<text text-anchor="middle" x="665.5" y="-7.5" font-family="Helvetica,sans-Serif" font-size="10.00" fill="#000000">Sprite::getActiveDestRect</text>
</a>
</g>
</g>
<!-- Node38&#45;&gt;Node52 -->
<g id="edge16" class="edge">
<title>Node38&#45;&gt;Node52</title>
<path fill="none" stroke="#191970" d="M543.0223,-110.9635C546.1772,-109.2034 549.189,-107.2242 552,-105 581.3104,-81.8086 559.0419,-52.6298 588,-29 592.7227,-25.1463 598.1114,-22.056 603.7976,-19.5806"/>
<polygon fill="#191970" stroke="#191970" points="541.3171,-107.8991 533.8002,-115.3655 544.3325,-114.2163 541.3171,-107.8991"/>
</g>
<!-- Node40 -->
<g id="node5" class="node">
<title>Node40</title>
<g id="a_node5"><a xlink:href="classMapNode.html#a0b089ef93b46bbfed8ccf71dc516c4ef" target="_top" xlink:title="MapNode::getActiveMapNodeData">
<polygon fill="none" stroke="#000000" points="779,-234.5 779,-253.5 963,-253.5 963,-234.5 779,-234.5"/>
<text text-anchor="middle" x="871" y="-241.5" font-family="Helvetica,sans-Serif" font-size="10.00" fill="#000000">MapNode::getActiveMapNodeData</text>
</a>
</g>
</g>
<!-- Node39&#45;&gt;Node40 -->
<g id="edge4" class="edge">
<title>Node39&#45;&gt;Node40</title>
<path fill="none" stroke="#191970" d="M753.3425,-244C761.7329,-244 770.2587,-244 778.6899,-244"/>
<polygon fill="#191970" stroke="#191970" points="753.1908,-240.5001 743.1907,-244 753.1907,-247.5001 753.1908,-240.5001"/>
</g>
<!-- Node43 -->
<g id="node8" class="node">
<title>Node43</title>
<g id="a_node8"><a xlink:href="classMap.html#a8cc1c9d35ae2c3ede6bc0fcc59b9aa41" target="_top" xlink:title="Returns the node at given screencoordinates. ">
<polygon fill="none" stroke="#000000" points="813,-152.5 813,-171.5 929,-171.5 929,-152.5 813,-152.5"/>
<text text-anchor="middle" x="871" y="-159.5" font-family="Helvetica,sans-Serif" font-size="10.00" fill="#000000">Map::findNodeInMap</text>
</a>
</g>
</g>
<!-- Node42&#45;&gt;Node43 -->
<g id="edge7" class="edge">
<title>Node42&#45;&gt;Node43</title>
<path fill="none" stroke="#191970" d="M738.5506,-162C762.921,-162 789.73,-162 812.816,-162"/>
<polygon fill="#191970" stroke="#191970" points="738.2734,-158.5001 728.2734,-162 738.2734,-165.5001 738.2734,-158.5001"/>
</g>
<!-- Node44 -->
<g id="node9" class="node">
<title>Node44</title>
<g id="a_node9"><a xlink:href="isoMath_8hxx.html#ad3c5f070c4a876bc6e8978635d02ce52" target="_top" xlink:title="converts screen space coordinates to isometric space coordinates. To convert screen coordinates in to...">
<polygon fill="none" stroke="#000000" points="999,-152.5 999,-171.5 1169,-171.5 1169,-152.5 999,-152.5"/>
<text text-anchor="middle" x="1084" y="-159.5" font-family="Helvetica,sans-Serif" font-size="10.00" fill="#000000">convertScreenToIsoCoordinates</text>
</a>
</g>
</g>
<!-- Node43&#45;&gt;Node44 -->
<g id="edge8" class="edge">
<title>Node43&#45;&gt;Node44</title>
<path fill="none" stroke="#191970" d="M939.2123,-162C958.1416,-162 978.9326,-162 998.707,-162"/>
<polygon fill="#191970" stroke="#191970" points="939.2032,-158.5001 929.2032,-162 939.2032,-165.5001 939.2032,-158.5001"/>
</g>
<!-- Node45 -->
<g id="node10" class="node">
<title>Node45</title>
<g id="a_node10"><a xlink:href="classEventManager.html#a65ec91fd5016d4f9c4167fb8babed2df" target="_top" xlink:title="EventManager::checkEvents">
<polygon fill="none" stroke="#000000" points="1205,-152.5 1205,-171.5 1359,-171.5 1359,-152.5 1205,-152.5"/>
<text text-anchor="middle" x="1282" y="-159.5" font-family="Helvetica,sans-Serif" font-size="10.00" fill="#000000">EventManager::checkEvents</text>
</a>
</g>
</g>
<!-- Node44&#45;&gt;Node45 -->
<g id="edge9" class="edge">
<title>Node44&#45;&gt;Node45</title>
<path fill="none" stroke="#191970" d="M1179.161,-162C1187.7436,-162 1196.3647,-162 1204.7658,-162"/>
<polygon fill="#191970" stroke="#191970" points="1179.1189,-158.5001 1169.1189,-162 1179.1189,-165.5001 1179.1189,-158.5001"/>
</g>
<!-- Node46 -->
<g id="node11" class="node">
<title>Node46</title>
<g id="a_node11"><a xlink:href="classGame.html#a1c2ab25d5216b2f4b2fe41efd2c09114" target="_top" xlink:title="begins the game starts running the game ">
<polygon fill="none" stroke="#000000" points="1395,-152.5 1395,-171.5 1463,-171.5 1463,-152.5 1395,-152.5"/>
<text text-anchor="middle" x="1429" y="-159.5" font-family="Helvetica,sans-Serif" font-size="10.00" fill="#000000">Game::run</text>
</a>
</g>
</g>
<!-- Node45&#45;&gt;Node46 -->
<g id="edge10" class="edge">
<title>Node45&#45;&gt;Node46</title>
<path fill="none" stroke="#191970" d="M1369.5248,-162C1378.4338,-162 1387.0572,-162 1394.845,-162"/>
<polygon fill="#191970" stroke="#191970" points="1369.3744,-158.5001 1359.3744,-162 1369.3743,-165.5001 1369.3744,-158.5001"/>
</g>
<!-- Node47 -->
<g id="node12" class="node">
<title>Node47</title>
<g id="a_node12"><a xlink:href="main_8cxx.html#af582d708d899e67ead623eac34a22387" target="_top" xlink:title="protected_main">
<polygon fill="none" stroke="#000000" points="1499,-152.5 1499,-171.5 1592,-171.5 1592,-152.5 1499,-152.5"/>
<text text-anchor="middle" x="1545.5" y="-159.5" font-family="Helvetica,sans-Serif" font-size="10.00" fill="#000000">protected_main</text>
</a>
</g>
</g>
<!-- Node46&#45;&gt;Node47 -->
<g id="edge11" class="edge">
<title>Node46&#45;&gt;Node47</title>
<path fill="none" stroke="#191970" d="M1473.2653,-162C1481.5757,-162 1490.2897,-162 1498.6749,-162"/>
<polygon fill="#191970" stroke="#191970" points="1473.0098,-158.5001 1463.0098,-162 1473.0098,-165.5001 1473.0098,-158.5001"/>
</g>
<!-- Node48 -->
<g id="node13" class="node">
<title>Node48</title>
<g id="a_node13"><a xlink:href="main_8cxx.html#a3c04138a5bfe5d72780bb7e82a18e627" target="_top" xlink:title="main">
<polygon fill="none" stroke="#000000" points="1628,-152.5 1628,-171.5 1669,-171.5 1669,-152.5 1628,-152.5"/>
<text text-anchor="middle" x="1648.5" y="-159.5" font-family="Helvetica,sans-Serif" font-size="10.00" fill="#000000">main</text>
</a>
</g>
</g>
<!-- Node47&#45;&gt;Node48 -->
<g id="edge12" class="edge">
<title>Node47&#45;&gt;Node48</title>
<path fill="none" stroke="#191970" d="M1602.2133,-162C1611.4322,-162 1620.4259,-162 1627.9965,-162"/>
<polygon fill="#191970" stroke="#191970" points="1602.1782,-158.5001 1592.1782,-162 1602.1781,-165.5001 1602.1782,-158.5001"/>
</g>
</g>
</svg>
