<?xml version="1.0" encoding="UTF-8" standalone="no"?>
<!DOCTYPE svg PUBLIC "-//W3C//DTD SVG 1.1//EN"
 "http://www.w3.org/Graphics/SVG/1.1/DTD/svg11.dtd">
<!-- Generated by graphviz version 2.40.1 (20161225.0304)
 -->
<!-- Title: CytopiaError Pages: 1 -->
<!--zoomable 254 -->
<svg id="main" version="1.1" xmlns="http://www.w3.org/2000/svg" xmlns:xlink="http://www.w3.org/1999/xlink" xml:space="preserve" onload="init(evt)">
<style type="text/css"><![CDATA[
.edge:hover path { stroke: red; }
.edge:hover polygon { stroke: red; fill: red; }
]]></style>
<script type="text/javascript"><![CDATA[
var edges = document.getElementsByTagName('g');
if (edges && edges.length) {
  for (var i=0;i<edges.length;i++) {
    if (edges[i].id.substr(0,4)=='edge') {
      edges[i].setAttribute('class','edge');
    }
  }
}
]]></script>
        <defs>
                <circle id="rim" cx="0" cy="0" r="7"/>
                <circle id="rim2" cx="0" cy="0" r="3.5"/>
                <g id="zoomPlus">
                        <use xlink:href="#rim" fill="#404040">
                                <set attributeName="fill" to="#808080" begin="zoomplus.mouseover" end="zoomplus.mouseout"/>
                        </use>
                        <path d="M-4,0h8M0,-4v8" fill="none" stroke="white" stroke-width="1.5" pointer-events="none"/>
                </g>
                <g id="zoomMin">
                        <use xlink:href="#rim" fill="#404040">
                                <set attributeName="fill" to="#808080" begin="zoomminus.mouseover" end="zoomminus.mouseout"/>
                        </use>
                        <path d="M-4,0h8" fill="none" stroke="white" stroke-width="1.5" pointer-events="none"/>
                </g>
                <g id="dirArrow">
                        <path fill="none" stroke="white" stroke-width="1.5" d="M0,-3.0v7 M-2.5,-0.5L0,-3.0L2.5,-0.5"/>
                </g>
               <g id="resetDef">
                       <use xlink:href="#rim2" fill="#404040">
                               <set attributeName="fill" to="#808080" begin="reset.mouseover" end="reset.mouseout"/>
                       </use>
               </g>
        </defs>

<script type="text/javascript">
var viewWidth = 702;
var viewHeight = 254;
var sectionId = 'dynsection-0';
</script>
<script xlink:href="svgpan.js"/>
<svg id="graph" class="graph">
<g id="viewport">
<title>CytopiaError</title>
<!-- Node0 -->
<g id="node1" class="node">
<title>Node0</title>
<polygon fill="#bfbfbf" stroke="#000000" points="331.5,-94.5 331.5,-151.5 408.5,-151.5 408.5,-94.5 331.5,-94.5"/>
<text text-anchor="middle" x="370" y="-139.5" font-family="Helvetica,sans-Serif" font-size="10.00" fill="#000000">CytopiaError</text>
<polyline fill="none" stroke="#000000" points="331.5,-132.5 408.5,-132.5 "/>
<text text-anchor="middle" x="370" y="-120.5" font-family="Helvetica,sans-Serif" font-size="10.00" fill="#000000"> </text>
<polyline fill="none" stroke="#000000" points="331.5,-113.5 408.5,-113.5 "/>
<text text-anchor="middle" x="370" y="-101.5" font-family="Helvetica,sans-Serif" font-size="10.00" fill="#000000"> </text>
</g>
<!-- Node2 -->
<g id="node3" class="node">
<title>Node2</title>
<g id="a_node3"><a xlink:href="classAudioError.html" target="_top" xlink:title="An audio&#45;related error occured. ">
<polygon fill="none" stroke="#000000" points="0,-.5 0,-57.5 68,-57.5 68,-.5 0,-.5"/>
<text text-anchor="middle" x="34" y="-45.5" font-family="Helvetica,sans-Serif" font-size="10.00" fill="#000000">AudioError</text>
<polyline fill="none" stroke="#000000" points="0,-38.5 68,-38.5 "/>
<text text-anchor="middle" x="34" y="-26.5" font-family="Helvetica,sans-Serif" font-size="10.00" fill="#000000"> </text>
<polyline fill="none" stroke="#000000" points="0,-19.5 68,-19.5 "/>
<text text-anchor="middle" x="34" y="-7.5" font-family="Helvetica,sans-Serif" font-size="10.00" fill="#000000"> </text>
</a>
</g>
</g>
<!-- Node0&#45;&gt;Node2 -->
<g id="edge2" class="edge">
<title>Node0&#45;&gt;Node2</title>
<path fill="none" stroke="#191970" d="M320.8618,-117.7982C261.2196,-110.2142 158.5157,-93.0257 77,-58 74.0217,-56.7203 71.0307,-55.227 68.0895,-53.6055"/>
<polygon fill="none" stroke="#191970" points="320.7723,-121.3135 331.1251,-119.0621 321.6279,-114.366 320.7723,-121.3135"/>
</g>
<!-- Node3 -->
<g id="node4" class="node">
<title>Node3</title>
<g id="a_node4"><a xlink:href="classCompressionError.html" target="_top" xlink:title="A compression error occured. ">
<polygon fill="none" stroke="#000000" points="86,-.5 86,-57.5 190,-57.5 190,-.5 86,-.5"/>
<text text-anchor="middle" x="138" y="-45.5" font-family="Helvetica,sans-Serif" font-size="10.00" fill="#000000">CompressionError</text>
<polyline fill="none" stroke="#000000" points="86,-38.5 190,-38.5 "/>
<text text-anchor="middle" x="138" y="-26.5" font-family="Helvetica,sans-Serif" font-size="10.00" fill="#000000"> </text>
<polyline fill="none" stroke="#000000" points="86,-19.5 190,-19.5 "/>
<text text-anchor="middle" x="138" y="-7.5" font-family="Helvetica,sans-Serif" font-size="10.00" fill="#000000"> </text>
</a>
</g>
</g>
<!-- Node0&#45;&gt;Node3 -->
<g id="edge3" class="edge">
<title>Node0&#45;&gt;Node3</title>
<path fill="none" stroke="#191970" d="M321.4617,-105.7327C287.0038,-93.1878 239.8078,-75.4226 199,-58 196.0882,-56.7568 193.1121,-55.4533 190.1176,-54.116"/>
<polygon fill="none" stroke="#191970" points="320.681,-109.1725 331.2752,-109.2898 323.0664,-102.5915 320.681,-109.1725"/>
</g>
<!-- Node4 -->
<g id="node5" class="node">
<title>Node4</title>
<g id="a_node5"><a xlink:href="classConfigurationError.html" target="_top" xlink:title="A configuration error. ">
<polygon fill="none" stroke="#000000" points="208.5,-.5 208.5,-57.5 313.5,-57.5 313.5,-.5 208.5,-.5"/>
<text text-anchor="middle" x="261" y="-45.5" font-family="Helvetica,sans-Serif" font-size="10.00" fill="#000000">ConfigurationError</text>
<polyline fill="none" stroke="#000000" points="208.5,-38.5 313.5,-38.5 "/>
<text text-anchor="middle" x="261" y="-26.5" font-family="Helvetica,sans-Serif" font-size="10.00" fill="#000000"> </text>
<polyline fill="none" stroke="#000000" points="208.5,-19.5 313.5,-19.5 "/>
<text text-anchor="middle" x="261" y="-7.5" font-family="Helvetica,sans-Serif" font-size="10.00" fill="#000000"> </text>
</a>
</g>
</g>
<!-- Node0&#45;&gt;Node4 -->
<g id="edge4" class="edge">
<title>Node0&#45;&gt;Node4</title>
<path fill="none" stroke="#191970" d="M328.9071,-87.5621C317.4092,-77.6465 305.0626,-66.9989 294.092,-57.538"/>
<polygon fill="none" stroke="#191970" points="326.8454,-90.4059 336.7041,-94.2861 331.417,-85.1048 326.8454,-90.4059"/>
</g>
<!-- Node5 -->
<g id="node6" class="node">
<title>Node5</title>
<g id="a_node6"><a xlink:href="classDisplayError.html" target="_top" xlink:title="A display error occured. ">
<polygon fill="none" stroke="#000000" points="331.5,-.5 331.5,-57.5 408.5,-57.5 408.5,-.5 331.5,-.5"/>
<text text-anchor="middle" x="370" y="-45.5" font-family="Helvetica,sans-Serif" font-size="10.00" fill="#000000">DisplayError</text>
<polyline fill="none" stroke="#000000" points="331.5,-38.5 408.5,-38.5 "/>
<text text-anchor="middle" x="370" y="-26.5" font-family="Helvetica,sans-Serif" font-size="10.00" fill="#000000"> </text>
<polyline fill="none" stroke="#000000" points="331.5,-19.5 408.5,-19.5 "/>
<text text-anchor="middle" x="370" y="-7.5" font-family="Helvetica,sans-Serif" font-size="10.00" fill="#000000"> </text>
</a>
</g>
</g>
<!-- Node0&#45;&gt;Node5 -->
<g id="edge5" class="edge">
<title>Node0&#45;&gt;Node5</title>
<path fill="none" stroke="#191970" d="M370,-84.1035C370,-75.2052 370,-65.9073 370,-57.538"/>
<polygon fill="none" stroke="#191970" points="366.5001,-84.2861 370,-94.2861 373.5001,-84.2862 366.5001,-84.2861"/>
</g>
<!-- Node6 -->
<g id="node7" class="node">
<title>Node6</title>
<g id="a_node7"><a xlink:href="classFontError.html" target="_top" xlink:title="A font&#45;related error occured. ">
<polygon fill="none" stroke="#000000" points="426.5,-.5 426.5,-57.5 487.5,-57.5 487.5,-.5 426.5,-.5"/>
<text text-anchor="middle" x="457" y="-45.5" font-family="Helvetica,sans-Serif" font-size="10.00" fill="#000000">FontError</text>
<polyline fill="none" stroke="#000000" points="426.5,-38.5 487.5,-38.5 "/>
<text text-anchor="middle" x="457" y="-26.5" font-family="Helvetica,sans-Serif" font-size="10.00" fill="#000000"> </text>
<polyline fill="none" stroke="#000000" points="426.5,-19.5 487.5,-19.5 "/>
<text text-anchor="middle" x="457" y="-7.5" font-family="Helvetica,sans-Serif" font-size="10.00" fill="#000000"> </text>
</a>
</g>
</g>
<!-- Node0&#45;&gt;Node6 -->
<g id="edge6" class="edge">
<title>Node0&#45;&gt;Node6</title>
<path fill="none" stroke="#191970" d="M403.5948,-86.7022C412.5437,-77.0332 422.0834,-66.726 430.5871,-57.538"/>
<polygon fill="none" stroke="#191970" points="400.7995,-84.5697 396.5756,-94.2861 405.9368,-89.3245 400.7995,-84.5697"/>
</g>
<!-- Node7 -->
<g id="node8" class="node">
<title>Node7</title>
<g id="a_node8"><a xlink:href="classUIError.html" target="_top" xlink:title="A UI&#45;related error occured. ">
<polygon fill="none" stroke="#000000" points="506,-.5 506,-57.5 556,-57.5 556,-.5 506,-.5"/>
<text text-anchor="middle" x="531" y="-45.5" font-family="Helvetica,sans-Serif" font-size="10.00" fill="#000000">UIError</text>
<polyline fill="none" stroke="#000000" points="506,-38.5 556,-38.5 "/>
<text text-anchor="middle" x="531" y="-26.5" font-family="Helvetica,sans-Serif" font-size="10.00" fill="#000000"> </text>
<polyline fill="none" stroke="#000000" points="506,-19.5 556,-19.5 "/>
<text text-anchor="middle" x="531" y="-7.5" font-family="Helvetica,sans-Serif" font-size="10.00" fill="#000000"> </text>
</a>
</g>
</g>
<!-- Node0&#45;&gt;Node7 -->
<g id="edge7" class="edge">
<title>Node0&#45;&gt;Node7</title>
<path fill="none" stroke="#191970" d="M417.6315,-101.8782C442.1196,-90.22 471.9915,-74.731 497,-58 499.9662,-56.0156 502.9642,-53.8079 505.8868,-51.5214"/>
<polygon fill="none" stroke="#191970" points="416.094,-98.7335 408.5312,-106.1534 419.0704,-105.0692 416.094,-98.7335"/>
</g>
<!-- Node8 -->
<g id="node9" class="node">
<title>Node8</title>
<g id="a_node9"><a xlink:href="classUnimplementedError.html" target="_top" xlink:title="{UnimplementedError\n||}">
<polygon fill="none" stroke="#000000" points="574.5,-.5 574.5,-57.5 693.5,-57.5 693.5,-.5 574.5,-.5"/>
<text text-anchor="middle" x="634" y="-45.5" font-family="Helvetica,sans-Serif" font-size="10.00" fill="#000000">UnimplementedError</text>
<polyline fill="none" stroke="#000000" points="574.5,-38.5 693.5,-38.5 "/>
<text text-anchor="middle" x="634" y="-26.5" font-family="Helvetica,sans-Serif" font-size="10.00" fill="#000000"> </text>
<polyline fill="none" stroke="#000000" points="574.5,-19.5 693.5,-19.5 "/>
<text text-anchor="middle" x="634" y="-7.5" font-family="Helvetica,sans-Serif" font-size="10.00" fill="#000000"> </text>
</a>
</g>
</g>
<!-- Node0&#45;&gt;Node8 -->
<g id="edge8" class="edge">
<title>Node0&#45;&gt;Node8</title>
<path fill="none" stroke="#191970" d="M418.4721,-107.9743C458.1472,-95.4052 515.5807,-76.591 565,-58 568.0405,-56.8562 571.1452,-55.6592 574.2726,-54.4304"/>
<polygon fill="none" stroke="#191970" points="417.2669,-104.6844 408.7836,-111.0313 419.3733,-111.3599 417.2669,-104.6844"/>
</g>
<!-- Node1 -->
<g id="node2" class="node">
<title>Node1</title>
<polygon fill="none" stroke="#bfbfbf" points="330,-188.5 330,-245.5 410,-245.5 410,-188.5 330,-188.5"/>
<text text-anchor="middle" x="370" y="-233.5" font-family="Helvetica,sans-Serif" font-size="10.00" fill="#000000">RuntimeError</text>
<polyline fill="none" stroke="#bfbfbf" points="330,-226.5 410,-226.5 "/>
<text text-anchor="middle" x="370" y="-214.5" font-family="Helvetica,sans-Serif" font-size="10.00" fill="#000000"> </text>
<polyline fill="none" stroke="#bfbfbf" points="330,-207.5 410,-207.5 "/>
<text text-anchor="middle" x="370" y="-195.5" font-family="Helvetica,sans-Serif" font-size="10.00" fill="#000000"> </text>
</g>
<!-- Node1&#45;&gt;Node0 -->
<g id="edge1" class="edge">
<title>Node1&#45;&gt;Node0</title>
<path fill="none" stroke="#191970" d="M370,-178.1035C370,-169.2052 370,-159.9073 370,-151.538"/>
<polygon fill="none" stroke="#191970" points="366.5001,-178.2861 370,-188.2861 373.5001,-178.2862 366.5001,-178.2861"/>
</g>
</g>
</svg>
        <g id="navigator" transform="translate(0 0)" fill="#404254">
                <rect fill="#f2f5e9" fill-opacity="0.5" stroke="#606060" stroke-width=".5" x="0" y="0" width="60" height="60"/>
                <use id="zoomplus" xlink:href="#zoomPlus" x="17" y="9" onmousedown="handleZoom(evt,'in')"/>
                <use id="zoomminus" xlink:href="#zoomMin" x="42" y="9" onmousedown="handleZoom(evt,'out')"/>
                <use id="reset" xlink:href="#resetDef" x="30" y="36" onmousedown="handleReset()"/>
                <g id="arrowUp" xlink:href="#dirArrow" transform="translate(30 24)" onmousedown="handlePan(0,-1)">
                  <use xlink:href="#rim" fill="#404040">
                        <set attributeName="fill" to="#808080" begin="arrowUp.mouseover" end="arrowUp.mouseout"/>
                  </use>
                  <path fill="none" stroke="white" stroke-width="1.5" d="M0,-3.0v7 M-2.5,-0.5L0,-3.0L2.5,-0.5"/>
                </g>
                <g id="arrowRight" xlink:href="#dirArrow" transform="rotate(90) translate(36 -43)" onmousedown="handlePan(1,0)">
                  <use xlink:href="#rim" fill="#404040">
                        <set attributeName="fill" to="#808080" begin="arrowRight.mouseover" end="arrowRight.mouseout"/>
                  </use>
                  <path fill="none" stroke="white" stroke-width="1.5" d="M0,-3.0v7 M-2.5,-0.5L0,-3.0L2.5,-0.5"/>
                </g>
                <g id="arrowDown" xlink:href="#dirArrow" transform="rotate(180) translate(-30 -48)" onmousedown="handlePan(0,1)">
                  <use xlink:href="#rim" fill="#404040">
                        <set attributeName="fill" to="#808080" begin="arrowDown.mouseover" end="arrowDown.mouseout"/>
                  </use>
                  <path fill="none" stroke="white" stroke-width="1.5" d="M0,-3.0v7 M-2.5,-0.5L0,-3.0L2.5,-0.5"/>
                </g>
                <g id="arrowLeft" xlink:href="#dirArrow" transform="rotate(270) translate(-36 17)" onmousedown="handlePan(-1,0)">
                  <use xlink:href="#rim" fill="#404040">
                        <set attributeName="fill" to="#808080" begin="arrowLeft.mouseover" end="arrowLeft.mouseout"/>
                  </use>
                  <path fill="none" stroke="white" stroke-width="1.5" d="M0,-3.0v7 M-2.5,-0.5L0,-3.0L2.5,-0.5"/>
                </g>
        </g>
        <svg viewBox="0 0 15 15" width="100%" height="30px" preserveAspectRatio="xMaxYMin meet">
         <g id="arrow_out" transform="scale(0.3 0.3)">
          <a xlink:href="classCytopiaError__inherit__graph_org.svg" target="_base">
           <rect id="button" ry="5" rx="5" y="6" x="6" height="38" width="38"
                fill="#f2f5e9" fill-opacity="0.5" stroke="#606060" stroke-width="1.0"/>
           <path id="arrow"
             d="M 11.500037,31.436501 C 11.940474,20.09759 22.043105,11.32322 32.158766,21.979434 L 37.068811,17.246167 C 37.068811,17.246167 37.088388,32 37.088388,32 L 22.160133,31.978069 C 22.160133,31.978069 26.997745,27.140456 26.997745,27.140456 C 18.528582,18.264221 13.291696,25.230495 11.500037,31.436501 z"
             style="fill:#404040;"/>
          </a>
         </g>
        </svg>
</svg>
