<?xml version="1.0" encoding="UTF-8" standalone="no"?>
<!DOCTYPE svg PUBLIC "-//W3C//DTD SVG 1.1//EN"
 "http://www.w3.org/Graphics/SVG/1.1/DTD/svg11.dtd">
<!-- Generated by graphviz version 2.40.1 (20161225.0304)
 -->
<!-- Title: UIElement::changeButtonState Pages: 1 -->
<!--zoomable 522 -->
<svg id="main" version="1.1" xmlns="http://www.w3.org/2000/svg" xmlns:xlink="http://www.w3.org/1999/xlink" xml:space="preserve" onload="init(evt)">
<style type="text/css"><![CDATA[
.edge:hover path { stroke: red; }
.edge:hover polygon { stroke: red; fill: red; }
]]></style>
<script type="text/javascript"><![CDATA[
var edges = document.getElementsByTagName('g');
if (edges && edges.length) {
  for (var i=0;i<edges.length;i++) {
    if (edges[i].id.substr(0,4)=='edge') {
      edges[i].setAttribute('class','edge');
    }
  }
}
]]></script>
        <defs>
                <circle id="rim" cx="0" cy="0" r="7"/>
                <circle id="rim2" cx="0" cy="0" r="3.5"/>
                <g id="zoomPlus">
                        <use xlink:href="#rim" fill="#404040">
                                <set attributeName="fill" to="#808080" begin="zoomplus.mouseover" end="zoomplus.mouseout"/>
                        </use>
                        <path d="M-4,0h8M0,-4v8" fill="none" stroke="white" stroke-width="1.5" pointer-events="none"/>
                </g>
                <g id="zoomMin">
                        <use xlink:href="#rim" fill="#404040">
                                <set attributeName="fill" to="#808080" begin="zoomminus.mouseover" end="zoomminus.mouseout"/>
                        </use>
                        <path d="M-4,0h8" fill="none" stroke="white" stroke-width="1.5" pointer-events="none"/>
                </g>
                <g id="dirArrow">
                        <path fill="none" stroke="white" stroke-width="1.5" d="M0,-3.0v7 M-2.5,-0.5L0,-3.0L2.5,-0.5"/>
                </g>
               <g id="resetDef">
                       <use xlink:href="#rim2" fill="#404040">
                               <set attributeName="fill" to="#808080" begin="reset.mouseover" end="reset.mouseout"/>
                       </use>
               </g>
        </defs>

<script type="text/javascript">
var viewWidth = 810;
var viewHeight = 522;
var sectionId = 'dynsection-5';
</script>
<script xlink:href="svgpan.js"/>
<svg id="graph" class="graph">
<g id="viewport">
<title>UIElement::changeButtonState</title>
<!-- Node11 -->
<g id="node1" class="node">
<title>Node11</title>
<polygon fill="#bfbfbf" stroke="#000000" points="0,-247.5 0,-266.5 167,-266.5 167,-247.5 0,-247.5"/>
<text text-anchor="middle" x="83.5" y="-254.5" font-family="Helvetica,sans-Serif" font-size="10.00" fill="#000000">UIElement::changeButtonState</text>
</g>
<!-- Node12 -->
<g id="node2" class="node">
<title>Node12</title>
<g id="a_node2"><a xlink:href="classUIElement.html#a902b00b3e651b2a0e33345c3dbd810d4" target="_top" xlink:title="Set the Action Parameter of the UI Element. Sets the Parameter of the action the UI Element should ex...">
<polygon fill="none" stroke="#000000" points="207.5,-494.5 207.5,-513.5 377.5,-513.5 377.5,-494.5 207.5,-494.5"/>
<text text-anchor="middle" x="292.5" y="-501.5" font-family="Helvetica,sans-Serif" font-size="10.00" fill="#000000">UIElement::setActionParameter</text>
</a>
</g>
</g>
<!-- Node11&#45;&gt;Node12 -->
<g id="edge1" class="edge">
<title>Node11&#45;&gt;Node12</title>
<path fill="none" stroke="#191970" d="M88.338,-276.7554C100.0775,-320.4094 134.2964,-425.5214 203,-480 210.9413,-486.297 220.3943,-490.9482 230.134,-494.3823"/>
<polygon fill="#191970" stroke="#191970" points="91.6634,-275.6343 85.7753,-266.8263 84.8855,-277.3837 91.6634,-275.6343"/>
</g>
<!-- Node14 -->
<g id="node4" class="node">
<title>Node14</title>
<g id="a_node4"><a xlink:href="classButton.html#acfeb33328b356d4fda989808888f81db" target="_top" xlink:title="Button::onMouseButtonUp">
<polygon fill="none" stroke="#000000" points="433.5,-399.5 433.5,-418.5 577.5,-418.5 577.5,-399.5 433.5,-399.5"/>
<text text-anchor="middle" x="505.5" y="-406.5" font-family="Helvetica,sans-Serif" font-size="10.00" fill="#000000">Button::onMouseButtonUp</text>
</a>
</g>
</g>
<!-- Node11&#45;&gt;Node14 -->
<g id="edge3" class="edge">
<title>Node11&#45;&gt;Node14</title>
<path fill="none" stroke="#191970" d="M88.9194,-276.7445C101.2813,-317.4298 135.8231,-409.8917 203,-447 298.674,-499.85 436.8263,-442.7127 486.6754,-418.6406"/>
<polygon fill="#191970" stroke="#191970" points="92.2224,-275.568 86.0705,-266.9422 85.5005,-277.5217 92.2224,-275.568"/>
</g>
<!-- Node15 -->
<g id="node5" class="node">
<title>Node15</title>
<g id="a_node5"><a xlink:href="classButton.html#a407ed56d8e7936c774e469bd3a732f94" target="_top" xlink:title="Button::onMouseButtonDown">
<polygon fill="none" stroke="#000000" points="213.5,-418.5 213.5,-437.5 371.5,-437.5 371.5,-418.5 213.5,-418.5"/>
<text text-anchor="middle" x="292.5" y="-425.5" font-family="Helvetica,sans-Serif" font-size="10.00" fill="#000000">Button::onMouseButtonDown</text>
</a>
</g>
</g>
<!-- Node11&#45;&gt;Node15 -->
<g id="edge4" class="edge">
<title>Node11&#45;&gt;Node15</title>
<path fill="none" stroke="#191970" d="M92.5952,-275.684C109.5046,-308.3119 149.0263,-375.3968 203,-409 209.2029,-412.8618 216.0664,-415.9493 223.1528,-418.416"/>
<polygon fill="#191970" stroke="#191970" points="95.7117,-274.091 88.0824,-266.7395 89.4621,-277.2441 95.7117,-274.091"/>
</g>
<!-- Node16 -->
<g id="node6" class="node">
<title>Node16</title>
<g id="a_node6"><a xlink:href="classButton.html#af890652b6918d511cae071f9982c5f2b" target="_top" xlink:title="Button::onMouseEnter">
<polygon fill="none" stroke="#000000" points="230.5,-380.5 230.5,-399.5 354.5,-399.5 354.5,-380.5 230.5,-380.5"/>
<text text-anchor="middle" x="292.5" y="-387.5" font-family="Helvetica,sans-Serif" font-size="10.00" fill="#000000">Button::onMouseEnter</text>
</a>
</g>
</g>
<!-- Node11&#45;&gt;Node16 -->
<g id="edge5" class="edge">
<title>Node11&#45;&gt;Node16</title>
<path fill="none" stroke="#191970" d="M96.8404,-274.8931C116.9081,-300.4427 157.404,-346.9416 203,-371 211.4293,-375.4476 220.8237,-378.8541 230.2678,-381.4632"/>
<polygon fill="#191970" stroke="#191970" points="99.4889,-272.5956 90.6192,-266.8007 93.9392,-276.862 99.4889,-272.5956"/>
</g>
<!-- Node17 -->
<g id="node7" class="node">
<title>Node17</title>
<g id="a_node7"><a xlink:href="classButton.html#a30125723c03d6f675c1ecdbfe2b6d265" target="_top" xlink:title="Button::onMouseLeave">
<polygon fill="none" stroke="#000000" points="228.5,-342.5 228.5,-361.5 356.5,-361.5 356.5,-342.5 228.5,-342.5"/>
<text text-anchor="middle" x="292.5" y="-349.5" font-family="Helvetica,sans-Serif" font-size="10.00" fill="#000000">Button::onMouseLeave</text>
</a>
</g>
</g>
<!-- Node11&#45;&gt;Node17 -->
<g id="edge6" class="edge">
<title>Node11&#45;&gt;Node17</title>
<path fill="none" stroke="#191970" d="M103.4276,-272.862C126.2022,-290.2019 165.224,-317.5681 203,-333 212.4111,-336.8445 222.7104,-339.9543 232.8656,-342.4564"/>
<polygon fill="#191970" stroke="#191970" points="105.308,-269.8915 95.2579,-266.5381 101.0232,-275.427 105.308,-269.8915"/>
</g>
<!-- Node18 -->
<g id="node8" class="node">
<title>Node18</title>
<g id="a_node8"><a xlink:href="classButton.html#a25f11ea415fdbb64cb897421bf746918" target="_top" xlink:title="Button::setCheckState">
<polygon fill="none" stroke="#000000" points="230,-304.5 230,-323.5 355,-323.5 355,-304.5 230,-304.5"/>
<text text-anchor="middle" x="292.5" y="-311.5" font-family="Helvetica,sans-Serif" font-size="10.00" fill="#000000">Button::setCheckState</text>
</a>
</g>
</g>
<!-- Node11&#45;&gt;Node18 -->
<g id="edge7" class="edge">
<title>Node11&#45;&gt;Node18</title>
<path fill="none" stroke="#191970" d="M120.3649,-269.7607C143.8468,-277.6299 175.0079,-287.5975 203,-295 215.8995,-298.4113 229.9698,-301.6296 243.0538,-304.4142"/>
<polygon fill="#191970" stroke="#191970" points="121.3972,-266.4151 110.803,-266.5302 119.1566,-273.0469 121.3972,-266.4151"/>
</g>
<!-- Node21 -->
<g id="node11" class="node">
<title>Node21</title>
<g id="a_node11"><a xlink:href="classCheckbox.html#ae58c2c6329459ca23d025f1761c0c78e" target="_top" xlink:title="Checkbox::onMouseButtonUp">
<polygon fill="none" stroke="#000000" points="212.5,-266.5 212.5,-285.5 372.5,-285.5 372.5,-266.5 212.5,-266.5"/>
<text text-anchor="middle" x="292.5" y="-273.5" font-family="Helvetica,sans-Serif" font-size="10.00" fill="#000000">Checkbox::onMouseButtonUp</text>
</a>
</g>
</g>
<!-- Node11&#45;&gt;Node21 -->
<g id="edge11" class="edge">
<title>Node11&#45;&gt;Node21</title>
<path fill="none" stroke="#191970" d="M177.2037,-265.5185C188.8811,-266.5801 200.7403,-267.6582 212.1896,-268.6991"/>
<polygon fill="#191970" stroke="#191970" points="177.2792,-262.011 167.0034,-264.5912 176.6454,-268.9823 177.2792,-262.011"/>
</g>
<!-- Node22 -->
<g id="node12" class="node">
<title>Node22</title>
<g id="a_node12"><a xlink:href="classCheckbox.html#a77988b3bf139576b2d33ce755c6bbca5" target="_top" xlink:title="Checkbox::onMouseButtonDown">
<polygon fill="none" stroke="#000000" points="205.5,-228.5 205.5,-247.5 379.5,-247.5 379.5,-228.5 205.5,-228.5"/>
<text text-anchor="middle" x="292.5" y="-235.5" font-family="Helvetica,sans-Serif" font-size="10.00" fill="#000000">Checkbox::onMouseButtonDown</text>
</a>
</g>
</g>
<!-- Node11&#45;&gt;Node22 -->
<g id="edge12" class="edge">
<title>Node11&#45;&gt;Node22</title>
<path fill="none" stroke="#191970" d="M177.1362,-248.4876C186.5305,-247.6336 196.0432,-246.7688 205.3662,-245.9213"/>
<polygon fill="#191970" stroke="#191970" points="176.6454,-245.0177 167.0034,-249.4088 177.2792,-251.989 176.6454,-245.0177"/>
</g>
<!-- Node23 -->
<g id="node13" class="node">
<title>Node23</title>
<g id="a_node13"><a xlink:href="classCheckbox.html#ae54b2346527479a073493ececaaef099" target="_top" xlink:title="Checkbox::onMouseEnter">
<polygon fill="none" stroke="#000000" points="222.5,-190.5 222.5,-209.5 362.5,-209.5 362.5,-190.5 222.5,-190.5"/>
<text text-anchor="middle" x="292.5" y="-197.5" font-family="Helvetica,sans-Serif" font-size="10.00" fill="#000000">Checkbox::onMouseEnter</text>
</a>
</g>
</g>
<!-- Node11&#45;&gt;Node23 -->
<g id="edge13" class="edge">
<title>Node11&#45;&gt;Node23</title>
<path fill="none" stroke="#191970" d="M120.3649,-244.2393C143.8468,-236.3701 175.0079,-226.4025 203,-219 215.8995,-215.5887 229.9698,-212.3704 243.0538,-209.5858"/>
<polygon fill="#191970" stroke="#191970" points="119.1566,-240.9531 110.803,-247.4698 121.3972,-247.5849 119.1566,-240.9531"/>
</g>
<!-- Node24 -->
<g id="node14" class="node">
<title>Node24</title>
<g id="a_node14"><a xlink:href="classCheckbox.html#a304b657ec5d71ba0a344c4ffc3279d2f" target="_top" xlink:title="Checkbox::onMouseLeave">
<polygon fill="none" stroke="#000000" points="221,-152.5 221,-171.5 364,-171.5 364,-152.5 221,-152.5"/>
<text text-anchor="middle" x="292.5" y="-159.5" font-family="Helvetica,sans-Serif" font-size="10.00" fill="#000000">Checkbox::onMouseLeave</text>
</a>
</g>
</g>
<!-- Node11&#45;&gt;Node24 -->
<g id="edge14" class="edge">
<title>Node11&#45;&gt;Node24</title>
<path fill="none" stroke="#191970" d="M103.4276,-241.138C126.2022,-223.7981 165.224,-196.4319 203,-181 212.4111,-177.1555 222.7104,-174.0457 232.8656,-171.5436"/>
<polygon fill="#191970" stroke="#191970" points="101.0232,-238.573 95.2579,-247.4619 105.308,-244.1085 101.0232,-238.573"/>
</g>
<!-- Node25 -->
<g id="node15" class="node">
<title>Node25</title>
<g id="a_node15"><a xlink:href="classComboBox.html#af0d53d01cb6d97f6dec54647721d125e" target="_top" xlink:title="ComboBox::onMouseButtonUp">
<polygon fill="none" stroke="#000000" points="210,-114.5 210,-133.5 375,-133.5 375,-114.5 210,-114.5"/>
<text text-anchor="middle" x="292.5" y="-121.5" font-family="Helvetica,sans-Serif" font-size="10.00" fill="#000000">ComboBox::onMouseButtonUp</text>
</a>
</g>
</g>
<!-- Node11&#45;&gt;Node25 -->
<g id="edge15" class="edge">
<title>Node11&#45;&gt;Node25</title>
<path fill="none" stroke="#191970" d="M96.8404,-239.1069C116.9081,-213.5573 157.404,-167.0584 203,-143 210.3054,-139.1454 218.3357,-136.0728 226.495,-133.6235"/>
<polygon fill="#191970" stroke="#191970" points="93.9392,-237.138 90.6192,-247.1993 99.4889,-241.4044 93.9392,-237.138"/>
</g>
<!-- Node26 -->
<g id="node16" class="node">
<title>Node26</title>
<g id="a_node16"><a xlink:href="classComboBox.html#a132276aba4ff900343458e81f318fd74" target="_top" xlink:title="ComboBox::onMouseButtonDown">
<polygon fill="none" stroke="#000000" points="203,-76.5 203,-95.5 382,-95.5 382,-76.5 203,-76.5"/>
<text text-anchor="middle" x="292.5" y="-83.5" font-family="Helvetica,sans-Serif" font-size="10.00" fill="#000000">ComboBox::onMouseButtonDown</text>
</a>
</g>
</g>
<!-- Node11&#45;&gt;Node26 -->
<g id="edge16" class="edge">
<title>Node11&#45;&gt;Node26</title>
<path fill="none" stroke="#191970" d="M92.5952,-238.316C109.5046,-205.6881 149.0263,-138.6032 203,-105 209.2029,-101.1382 216.0664,-98.0507 223.1528,-95.584"/>
<polygon fill="#191970" stroke="#191970" points="89.4621,-236.7559 88.0824,-247.2605 95.7117,-239.909 89.4621,-236.7559"/>
</g>
<!-- Node27 -->
<g id="node17" class="node">
<title>Node27</title>
<g id="a_node17"><a xlink:href="classComboBox.html#a55112fe7f702cca98660f87fb231eb95" target="_top" xlink:title="ComboBox::onMouseLeave">
<polygon fill="none" stroke="#000000" points="218,-38.5 218,-57.5 367,-57.5 367,-38.5 218,-38.5"/>
<text text-anchor="middle" x="292.5" y="-45.5" font-family="Helvetica,sans-Serif" font-size="10.00" fill="#000000">ComboBox::onMouseLeave</text>
</a>
</g>
</g>
<!-- Node11&#45;&gt;Node27 -->
<g id="edge17" class="edge">
<title>Node11&#45;&gt;Node27</title>
<path fill="none" stroke="#191970" d="M89.8769,-237.551C103.7382,-198.5117 140.4907,-110.6215 203,-67 208.471,-63.1821 214.5559,-60.1055 220.906,-57.6298"/>
<polygon fill="#191970" stroke="#191970" points="86.5049,-236.5946 86.572,-247.1892 93.1264,-238.8652 86.5049,-236.5946"/>
</g>
<!-- Node28 -->
<g id="node18" class="node">
<title>Node28</title>
<g id="a_node18"><a xlink:href="classComboBox.html#a9e34bb39454d682c02e434bcc0aa99a4" target="_top" xlink:title="ComboBox::onMouseMove">
<polygon fill="none" stroke="#000000" points="219.5,-.5 219.5,-19.5 365.5,-19.5 365.5,-.5 219.5,-.5"/>
<text text-anchor="middle" x="292.5" y="-7.5" font-family="Helvetica,sans-Serif" font-size="10.00" fill="#000000">ComboBox::onMouseMove</text>
</a>
</g>
</g>
<!-- Node11&#45;&gt;Node28 -->
<g id="edge18" class="edge">
<title>Node11&#45;&gt;Node28</title>
<path fill="none" stroke="#191970" d="M87.7697,-237.4433C98.5823,-192.8375 131.4248,-83.2551 203,-29 208.0635,-25.1618 213.7297,-22.0592 219.6866,-19.556"/>
<polygon fill="#191970" stroke="#191970" points="84.3311,-236.7788 85.4853,-247.3106 91.1507,-238.3578 84.3311,-236.7788"/>
</g>
<!-- Node13 -->
<g id="node3" class="node">
<title>Node13</title>
<g id="a_node3"><a xlink:href="classUIManager.html#aae7a89e9d50bb6192e4140e07bd5f94b" target="_top" xlink:title="UIManager::createBuildMenu">
<polygon fill="none" stroke="#000000" points="427,-494.5 427,-513.5 584,-513.5 584,-494.5 427,-494.5"/>
<text text-anchor="middle" x="505.5" y="-501.5" font-family="Helvetica,sans-Serif" font-size="10.00" fill="#000000">UIManager::createBuildMenu</text>
</a>
</g>
</g>
<!-- Node12&#45;&gt;Node13 -->
<g id="edge2" class="edge">
<title>Node12&#45;&gt;Node13</title>
<path fill="none" stroke="#191970" d="M387.9448,-504C400.9197,-504 414.1158,-504 426.7517,-504"/>
<polygon fill="#191970" stroke="#191970" points="387.6016,-500.5001 377.6015,-504 387.6015,-507.5001 387.6016,-500.5001"/>
</g>
<!-- Node18&#45;&gt;Node14 -->
<g id="edge10" class="edge">
<title>Node18&#45;&gt;Node14</title>
<path fill="none" stroke="#191970" d="M361.2984,-326.0778C368.392,-328.0698 375.4091,-330.3643 382,-333 425.9464,-350.5741 471.9509,-383.3236 493.2901,-399.4817"/>
<polygon fill="#191970" stroke="#191970" points="362.1708,-322.6883 351.6107,-323.5451 360.4003,-329.4607 362.1708,-322.6883"/>
</g>
<!-- Node19 -->
<g id="node9" class="node">
<title>Node19</title>
<g id="a_node9"><a xlink:href="classButtonGroup.html#aa1a05dec9459ad23e5d7028fa9d35850" target="_top" xlink:title="Function to call the uncheck event of buttons. Function to call the uncheck event of buttons...">
<polygon fill="none" stroke="#000000" points="418,-304.5 418,-323.5 593,-323.5 593,-304.5 418,-304.5"/>
<text text-anchor="middle" x="505.5" y="-311.5" font-family="Helvetica,sans-Serif" font-size="10.00" fill="#000000">ButtonGroup::uncheckAllButtons</text>
</a>
</g>
</g>
<!-- Node18&#45;&gt;Node19 -->
<g id="edge8" class="edge">
<title>Node18&#45;&gt;Node19</title>
<path fill="none" stroke="#191970" d="M365.5743,-314C382.4338,-314 400.537,-314 417.9427,-314"/>
<polygon fill="#191970" stroke="#191970" points="365.255,-310.5001 355.255,-314 365.2549,-317.5001 365.255,-310.5001"/>
</g>
<!-- Node20 -->
<g id="node10" class="node">
<title>Node20</title>
<g id="a_node10"><a xlink:href="classButtonGroup.html#a295239eeae8b6c52735fe0cc7a093741" target="_top" xlink:title="ButtonGroup::onMouseButtonUp">
<polygon fill="none" stroke="#000000" points="629,-304.5 629,-323.5 802,-323.5 802,-304.5 629,-304.5"/>
<text text-anchor="middle" x="715.5" y="-311.5" font-family="Helvetica,sans-Serif" font-size="10.00" fill="#000000">ButtonGroup::onMouseButtonUp</text>
</a>
</g>
</g>
<!-- Node19&#45;&gt;Node20 -->
<g id="edge9" class="edge">
<title>Node19&#45;&gt;Node20</title>
<path fill="none" stroke="#191970" d="M603.067,-314C611.6478,-314 620.2952,-314 628.7783,-314"/>
<polygon fill="#191970" stroke="#191970" points="603.0383,-310.5001 593.0383,-314 603.0382,-317.5001 603.0383,-310.5001"/>
</g>
</g>
</svg>
        <g id="navigator" transform="translate(0 0)" fill="#404254">
                <rect fill="#f2f5e9" fill-opacity="0.5" stroke="#606060" stroke-width=".5" x="0" y="0" width="60" height="60"/>
                <use id="zoomplus" xlink:href="#zoomPlus" x="17" y="9" onmousedown="handleZoom(evt,'in')"/>
                <use id="zoomminus" xlink:href="#zoomMin" x="42" y="9" onmousedown="handleZoom(evt,'out')"/>
                <use id="reset" xlink:href="#resetDef" x="30" y="36" onmousedown="handleReset()"/>
                <g id="arrowUp" xlink:href="#dirArrow" transform="translate(30 24)" onmousedown="handlePan(0,-1)">
                  <use xlink:href="#rim" fill="#404040">
                        <set attributeName="fill" to="#808080" begin="arrowUp.mouseover" end="arrowUp.mouseout"/>
                  </use>
                  <path fill="none" stroke="white" stroke-width="1.5" d="M0,-3.0v7 M-2.5,-0.5L0,-3.0L2.5,-0.5"/>
                </g>
                <g id="arrowRight" xlink:href="#dirArrow" transform="rotate(90) translate(36 -43)" onmousedown="handlePan(1,0)">
                  <use xlink:href="#rim" fill="#404040">
                        <set attributeName="fill" to="#808080" begin="arrowRight.mouseover" end="arrowRight.mouseout"/>
                  </use>
                  <path fill="none" stroke="white" stroke-width="1.5" d="M0,-3.0v7 M-2.5,-0.5L0,-3.0L2.5,-0.5"/>
                </g>
                <g id="arrowDown" xlink:href="#dirArrow" transform="rotate(180) translate(-30 -48)" onmousedown="handlePan(0,1)">
                  <use xlink:href="#rim" fill="#404040">
                        <set attributeName="fill" to="#808080" begin="arrowDown.mouseover" end="arrowDown.mouseout"/>
                  </use>
                  <path fill="none" stroke="white" stroke-width="1.5" d="M0,-3.0v7 M-2.5,-0.5L0,-3.0L2.5,-0.5"/>
                </g>
                <g id="arrowLeft" xlink:href="#dirArrow" transform="rotate(270) translate(-36 17)" onmousedown="handlePan(-1,0)">
                  <use xlink:href="#rim" fill="#404040">
                        <set attributeName="fill" to="#808080" begin="arrowLeft.mouseover" end="arrowLeft.mouseout"/>
                  </use>
                  <path fill="none" stroke="white" stroke-width="1.5" d="M0,-3.0v7 M-2.5,-0.5L0,-3.0L2.5,-0.5"/>
                </g>
        </g>
        <svg viewBox="0 0 15 15" width="100%" height="30px" preserveAspectRatio="xMaxYMin meet">
         <g id="arrow_out" transform="scale(0.3 0.3)">
          <a xlink:href="classUIElement_ade4162d6216022e143c769369b64add7_icgraph_org.svg" target="_base">
           <rect id="button" ry="5" rx="5" y="6" x="6" height="38" width="38"
                fill="#f2f5e9" fill-opacity="0.5" stroke="#606060" stroke-width="1.0"/>
           <path id="arrow"
             d="M 11.500037,31.436501 C 11.940474,20.09759 22.043105,11.32322 32.158766,21.979434 L 37.068811,17.246167 C 37.068811,17.246167 37.088388,32 37.088388,32 L 22.160133,31.978069 C 22.160133,31.978069 26.997745,27.140456 26.997745,27.140456 C 18.528582,18.264221 13.291696,25.230495 11.500037,31.436501 z"
             style="fill:#404040;"/>
          </a>
         </g>
        </svg>
</svg>
