<?xml version="1.0" encoding="UTF-8" standalone="no"?>
<!DOCTYPE svg PUBLIC "-//W3C//DTD SVG 1.1//EN"
 "http://www.w3.org/Graphics/SVG/1.1/DTD/svg11.dtd">
<!-- Generated by graphviz version 2.40.1 (20161225.0304)
 -->
<!-- Title: Timer::start Pages: 1 -->
<svg width="430pt" height="66pt"
 viewBox="0.00 0.00 430.00 66.00" xmlns="http://www.w3.org/2000/svg" xmlns:xlink="http://www.w3.org/1999/xlink">
<g id="graph0" class="graph" transform="scale(1 1) rotate(0) translate(4 62)">
<title>Timer::start</title>
<!-- Node45 -->
<g id="node1" class="node">
<title>Node45</title>
<polygon fill="#bfbfbf" stroke="#000000" points="0,-19.5 0,-38.5 74,-38.5 74,-19.5 0,-19.5"/>
<text text-anchor="middle" x="37" y="-26.5" font-family="Helvetica,sans-Serif" font-size="10.00" fill="#000000">Timer::start</text>
</g>
<!-- Node46 -->
<g id="node2" class="node">
<title>Node46</title>
<g id="a_node2"><a xlink:href="classTooltip.html#ac48e36748acaf4cdd9838288f7732cc2" target="_top" xlink:title="starts the countdown to when the Tooltip appears starts the timer for the countdown to when the Toolt...">
<polygon fill="none" stroke="#000000" points="110,-38.5 110,-57.5 216,-57.5 216,-38.5 110,-38.5"/>
<text text-anchor="middle" x="163" y="-45.5" font-family="Helvetica,sans-Serif" font-size="10.00" fill="#000000">Tooltip::startTimer</text>
</a>
</g>
</g>
<!-- Node45&#45;&gt;Node46 -->
<g id="edge1" class="edge">
<title>Node45&#45;&gt;Node46</title>
<path fill="none" stroke="#191970" d="M84.1033,-36.1029C92.4846,-37.3667 101.2676,-38.6911 109.8043,-39.9784"/>
<polygon fill="#191970" stroke="#191970" points="84.5328,-32.6282 74.1227,-34.5979 83.489,-39.5499 84.5328,-32.6282"/>
</g>
<!-- Node47 -->
<g id="node3" class="node">
<title>Node47</title>
<g id="a_node3"><a xlink:href="classGame.html#a1c2ab25d5216b2f4b2fe41efd2c09114" target="_top" xlink:title="begins the game starts running the game ">
<polygon fill="none" stroke="#000000" points="129,-.5 129,-19.5 197,-19.5 197,-.5 129,-.5"/>
<text text-anchor="middle" x="163" y="-7.5" font-family="Helvetica,sans-Serif" font-size="10.00" fill="#000000">Game::run</text>
</a>
</g>
</g>
<!-- Node45&#45;&gt;Node47 -->
<g id="edge2" class="edge">
<title>Node45&#45;&gt;Node47</title>
<path fill="none" stroke="#191970" d="M84.1284,-21.8933C98.9332,-19.6609 114.9889,-17.2398 128.726,-15.1683"/>
<polygon fill="#191970" stroke="#191970" points="83.489,-18.4501 74.1227,-23.4021 84.5328,-25.3718 83.489,-18.4501"/>
</g>
<!-- Node48 -->
<g id="node4" class="node">
<title>Node48</title>
<g id="a_node4"><a xlink:href="main_8cxx.html#af582d708d899e67ead623eac34a22387" target="_top" xlink:title="protected_main">
<polygon fill="none" stroke="#000000" points="252,-.5 252,-19.5 345,-19.5 345,-.5 252,-.5"/>
<text text-anchor="middle" x="298.5" y="-7.5" font-family="Helvetica,sans-Serif" font-size="10.00" fill="#000000">protected_main</text>
</a>
</g>
</g>
<!-- Node47&#45;&gt;Node48 -->
<g id="edge3" class="edge">
<title>Node47&#45;&gt;Node48</title>
<path fill="none" stroke="#191970" d="M207.251,-10C221.5083,-10 237.3504,-10 251.7797,-10"/>
<polygon fill="#191970" stroke="#191970" points="207.1924,-6.5001 197.1924,-10 207.1923,-13.5001 207.1924,-6.5001"/>
</g>
<!-- Node49 -->
<g id="node5" class="node">
<title>Node49</title>
<g id="a_node5"><a xlink:href="main_8cxx.html#a3c04138a5bfe5d72780bb7e82a18e627" target="_top" xlink:title="main">
<polygon fill="none" stroke="#000000" points="381,-.5 381,-19.5 422,-19.5 422,-.5 381,-.5"/>
<text text-anchor="middle" x="401.5" y="-7.5" font-family="Helvetica,sans-Serif" font-size="10.00" fill="#000000">main</text>
</a>
</g>
</g>
<!-- Node48&#45;&gt;Node49 -->
<g id="edge4" class="edge">
<title>Node48&#45;&gt;Node49</title>
<path fill="none" stroke="#191970" d="M355.2133,-10C364.4322,-10 373.4259,-10 380.9965,-10"/>
<polygon fill="#191970" stroke="#191970" points="355.1782,-6.5001 345.1782,-10 355.1781,-13.5001 355.1782,-6.5001"/>
</g>
</g>
</svg>
