<?xml version="1.0" encoding="UTF-8" standalone="no"?>
<!DOCTYPE svg PUBLIC "-//W3C//DTD SVG 1.1//EN"
 "http://www.w3.org/Graphics/SVG/1.1/DTD/svg11.dtd">
<!-- Generated by graphviz version 2.40.1 (20161225.0304)
 -->
<!-- Title: UIManager::getUiElementsOfGroup Pages: 1 -->
<svg width="575pt" height="39pt"
 viewBox="0.00 0.00 575.00 39.00" xmlns="http://www.w3.org/2000/svg" xmlns:xlink="http://www.w3.org/1999/xlink">
<g id="graph0" class="graph" transform="scale(1 1) rotate(0) translate(4 35)">
<title>UIManager::getUiElementsOfGroup</title>
<!-- Node118 -->
<g id="node1" class="node">
<title>Node118</title>
<polygon fill="#bfbfbf" stroke="#000000" points="0,-.5 0,-30.5 147,-30.5 147,-.5 0,-.5"/>
<text text-anchor="start" x="8" y="-18.5" font-family="Helvetica,sans-Serif" font-size="10.00" fill="#000000">UIManager::getUiElements</text>
<text text-anchor="middle" x="73.5" y="-7.5" font-family="Helvetica,sans-Serif" font-size="10.00" fill="#000000">OfGroup</text>
</g>
<!-- Node119 -->
<g id="node2" class="node">
<title>Node119</title>
<g id="a_node2"><a xlink:href="classButtonGroup.html#aa1a05dec9459ad23e5d7028fa9d35850" target="_top" xlink:title="Function to call the uncheck event of buttons. Function to call the uncheck event of buttons...">
<polygon fill="none" stroke="#000000" points="183,-6 183,-25 358,-25 358,-6 183,-6"/>
<text text-anchor="middle" x="270.5" y="-13" font-family="Helvetica,sans-Serif" font-size="10.00" fill="#000000">ButtonGroup::uncheckAllButtons</text>
</a>
</g>
</g>
<!-- Node118&#45;&gt;Node119 -->
<g id="edge1" class="edge">
<title>Node118&#45;&gt;Node119</title>
<path fill="none" stroke="#191970" d="M157.3843,-15.5C165.8607,-15.5 174.4847,-15.5 182.9978,-15.5"/>
<polygon fill="#191970" stroke="#191970" points="157.1357,-12.0001 147.1357,-15.5 157.1356,-19.0001 157.1357,-12.0001"/>
</g>
<!-- Node120 -->
<g id="node3" class="node">
<title>Node120</title>
<g id="a_node3"><a xlink:href="classButtonGroup.html#a295239eeae8b6c52735fe0cc7a093741" target="_top" xlink:title="ButtonGroup::onMouseButtonUp">
<polygon fill="none" stroke="#000000" points="394,-6 394,-25 567,-25 567,-6 394,-6"/>
<text text-anchor="middle" x="480.5" y="-13" font-family="Helvetica,sans-Serif" font-size="10.00" fill="#000000">ButtonGroup::onMouseButtonUp</text>
</a>
</g>
</g>
<!-- Node119&#45;&gt;Node120 -->
<g id="edge2" class="edge">
<title>Node119&#45;&gt;Node120</title>
<path fill="none" stroke="#191970" d="M368.067,-15.5C376.6478,-15.5 385.2952,-15.5 393.7783,-15.5"/>
<polygon fill="#191970" stroke="#191970" points="368.0383,-12.0001 358.0383,-15.5 368.0382,-19.0001 368.0383,-12.0001"/>
</g>
</g>
</svg>
