<?xml version="1.0" encoding="UTF-8" standalone="no"?>
<!DOCTYPE svg PUBLIC "-//W3C//DTD SVG 1.1//EN"
 "http://www.w3.org/Graphics/SVG/1.1/DTD/svg11.dtd">
<!-- Generated by graphviz version 2.40.1 (20161225.0304)
 -->
<!-- Title: Camera::centerScreenOnMapCenter Pages: 1 -->
<svg width="720pt" height="157pt"
 viewBox="0.00 0.00 720.00 157.33" xmlns="http://www.w3.org/2000/svg" xmlns:xlink="http://www.w3.org/1999/xlink">
<g id="graph0" class="graph" transform="scale(1 1) rotate(0) translate(4 153.3346)">
<title>Camera::centerScreenOnMapCenter</title>
<!-- Node4 -->
<g id="node1" class="node">
<title>Node4</title>
<polygon fill="#bfbfbf" stroke="#000000" points="0,-118 0,-148 158,-148 158,-118 0,-118"/>
<text text-anchor="start" x="8" y="-136" font-family="Helvetica,sans-Serif" font-size="10.00" fill="#000000">Camera::centerScreenOnMap</text>
<text text-anchor="middle" x="79" y="-125" font-family="Helvetica,sans-Serif" font-size="10.00" fill="#000000">Center</text>
</g>
<!-- Node5 -->
<g id="node2" class="node">
<title>Node5</title>
<g id="a_node2"><a xlink:href="classSingleton.html#af5cb1e5749949e2b68416cfb8d378044" target="_top" xlink:title="Get an instance of the singleton. ">
<polygon fill="none" stroke="#000000" points="599,-118 599,-148 712,-148 712,-118 599,-118"/>
<text text-anchor="start" x="607" y="-136" font-family="Helvetica,sans-Serif" font-size="10.00" fill="#000000">Singleton&lt; Settings</text>
<text text-anchor="middle" x="655.5" y="-125" font-family="Helvetica,sans-Serif" font-size="10.00" fill="#000000"> &gt;::instance</text>
</a>
</g>
</g>
<!-- Node4&#45;&gt;Node5 -->
<g id="edge1" class="edge">
<title>Node4&#45;&gt;Node5</title>
<path fill="none" stroke="#191970" d="M158.3118,-139.3005C254.2509,-145.9211 420.6157,-154.1972 563,-145 571.3628,-144.4598 580.1244,-143.6477 588.7819,-142.6956"/>
<polygon fill="#191970" stroke="#191970" points="589.339,-146.1544 598.8671,-141.5215 588.5295,-139.2014 589.339,-146.1544"/>
</g>
<!-- Node6 -->
<g id="node3" class="node">
<title>Node6</title>
<g id="a_node3"><a xlink:href="classCamera.html#adfb240823ff20b97b69459490dbd8dc3" target="_top" xlink:title="Centers camera on given isometric coordinates Centers the camera on the given isometric coordinates...">
<polygon fill="none" stroke="#000000" points="194,-100.5 194,-119.5 357,-119.5 357,-100.5 194,-100.5"/>
<text text-anchor="middle" x="275.5" y="-107.5" font-family="Helvetica,sans-Serif" font-size="10.00" fill="#000000">Camera::centerScreenOnPoint</text>
</a>
</g>
</g>
<!-- Node4&#45;&gt;Node6 -->
<g id="edge2" class="edge">
<title>Node4&#45;&gt;Node6</title>
<path fill="none" stroke="#191970" d="M158.0747,-123.7444C166.5829,-122.7486 175.2908,-121.7293 183.9295,-120.7182"/>
<polygon fill="#191970" stroke="#191970" points="184.4974,-124.1757 194.0227,-119.5368 183.6836,-117.2232 184.4974,-124.1757"/>
</g>
<!-- Node6&#45;&gt;Node5 -->
<g id="edge6" class="edge">
<title>Node6&#45;&gt;Node5</title>
<path fill="none" stroke="#191970" d="M357.0195,-109.2768C426.1591,-111.8893 524.1202,-117.943 588.699,-123.6727"/>
<polygon fill="#191970" stroke="#191970" points="588.4913,-127.1681 598.7674,-124.5889 589.1257,-120.1969 588.4913,-127.1681"/>
</g>
<!-- Node6&#45;&gt;Node5 -->
<g id="edge7" class="edge">
<title>Node6&#45;&gt;Node5</title>
<path fill="none" stroke="#191970" d="M344.3151,-119.5052C413.6864,-125.6023 520.0485,-132.0214 588.6946,-134.2408"/>
<polygon fill="#191970" stroke="#191970" points="588.8575,-137.7471 598.958,-134.5487 589.0676,-130.7503 588.8575,-137.7471"/>
</g>
<!-- Node7 -->
<g id="node4" class="node">
<title>Node7</title>
<g id="a_node4"><a xlink:href="isoMath_8cxx.html#a7fa61c3d8ef446fb1c48dc4838023649" target="_top" xlink:title="Check if given coordinates are within map boundaries Checks if coordinates are within map boundaries...">
<polygon fill="none" stroke="#000000" points="400,-76.5 400,-95.5 556,-95.5 556,-76.5 400,-76.5"/>
<text text-anchor="middle" x="478" y="-83.5" font-family="Helvetica,sans-Serif" font-size="10.00" fill="#000000">isPointWithinMapBoundaries</text>
</a>
</g>
</g>
<!-- Node6&#45;&gt;Node7 -->
<g id="edge3" class="edge">
<title>Node6&#45;&gt;Node7</title>
<path fill="none" stroke="#191970" d="M355.8242,-100.4801C366.8993,-99.1675 378.3237,-97.8135 389.5356,-96.4847"/>
<polygon fill="#191970" stroke="#191970" points="390.2378,-99.926 399.7563,-95.2733 389.4139,-92.9747 390.2378,-99.926"/>
</g>
<!-- Node8 -->
<g id="node5" class="node">
<title>Node8</title>
<g id="a_node5"><a xlink:href="isoMath_8cxx.html#a229d5dd54cd4e1f43ed5911e4fd266d3" target="_top" xlink:title="converts coordinates from isometric to screen space The given isometric coordinates (which contain he...">
<polygon fill="none" stroke="#000000" points="393,-38.5 393,-57.5 563,-57.5 563,-38.5 393,-38.5"/>
<text text-anchor="middle" x="478" y="-45.5" font-family="Helvetica,sans-Serif" font-size="10.00" fill="#000000">convertIsoToScreenCoordinates</text>
</a>
</g>
</g>
<!-- Node6&#45;&gt;Node8 -->
<g id="edge5" class="edge">
<title>Node6&#45;&gt;Node8</title>
<path fill="none" stroke="#191970" d="M299.05,-100.3456C322.5582,-90.9557 359.8582,-76.7229 393,-67 401.7375,-64.4366 411.0677,-62.0279 420.2282,-59.8429"/>
<polygon fill="#191970" stroke="#191970" points="421.1141,-63.2304 430.0657,-57.563 419.5337,-56.4112 421.1141,-63.2304"/>
</g>
<!-- Node9 -->
<g id="node6" class="node">
<title>Node9</title>
<g id="a_node6"><a xlink:href="classMap.html#ab69938ac0e56eb0da1d1701221f3d185" target="_top" xlink:title="Refresh all the map tile textures. ">
<polygon fill="none" stroke="#000000" points="439.5,-.5 439.5,-19.5 516.5,-19.5 516.5,-.5 439.5,-.5"/>
<text text-anchor="middle" x="478" y="-7.5" font-family="Helvetica,sans-Serif" font-size="10.00" fill="#000000">Map::refresh</text>
</a>
</g>
</g>
<!-- Node6&#45;&gt;Node9 -->
<g id="edge8" class="edge">
<title>Node6&#45;&gt;Node9</title>
<path fill="none" stroke="#191970" d="M286.3002,-100.3811C306.0312,-83.3324 349.8584,-47.8396 393,-29 404.3674,-24.0359 417.1775,-20.3023 429.3384,-17.5202"/>
<polygon fill="#191970" stroke="#191970" points="430.2961,-20.8952 439.355,-15.401 428.8471,-14.0468 430.2961,-20.8952"/>
</g>
<!-- Node7&#45;&gt;Node5 -->
<g id="edge4" class="edge">
<title>Node7&#45;&gt;Node5</title>
<path fill="none" stroke="#191970" d="M513.9198,-95.5112C535.3829,-101.1943 563.3273,-108.5937 588.7135,-115.3157"/>
<polygon fill="#191970" stroke="#191970" points="588.1038,-118.7748 598.6666,-117.9512 589.8957,-112.008 588.1038,-118.7748"/>
</g>
</g>
</svg>
