<?xml version="1.0" encoding="UTF-8" standalone="no"?>
<!DOCTYPE svg PUBLIC "-//W3C//DTD SVG 1.1//EN"
 "http://www.w3.org/Graphics/SVG/1.1/DTD/svg11.dtd">
<!-- Generated by graphviz version 2.40.1 (20161225.0304)
 -->
<!-- Title: Layout::arrangeChildElements Pages: 1 -->
<svg width="624pt" height="211pt"
 viewBox="0.00 0.00 624.00 210.50" xmlns="http://www.w3.org/2000/svg" xmlns:xlink="http://www.w3.org/1999/xlink">
<g id="graph0" class="graph" transform="scale(1 1) rotate(0) translate(4 206.5)">
<title>Layout::arrangeChildElements</title>
<!-- Node4 -->
<g id="node1" class="node">
<title>Node4</title>
<polygon fill="#bfbfbf" stroke="#000000" points="0,-114.5 0,-133.5 164,-133.5 164,-114.5 0,-114.5"/>
<text text-anchor="middle" x="82" y="-121.5" font-family="Helvetica,sans-Serif" font-size="10.00" fill="#000000">Layout::arrangeChildElements</text>
</g>
<!-- Node5 -->
<g id="node2" class="node">
<title>Node5</title>
<g id="a_node2"><a xlink:href="classSingleton.html#af5cb1e5749949e2b68416cfb8d378044" target="_top" xlink:title="Get an instance of the singleton. ">
<polygon fill="none" stroke="#000000" points="229,-172 229,-202 342,-202 342,-172 229,-172"/>
<text text-anchor="start" x="237" y="-190" font-family="Helvetica,sans-Serif" font-size="10.00" fill="#000000">Singleton&lt; Settings</text>
<text text-anchor="middle" x="285.5" y="-179" font-family="Helvetica,sans-Serif" font-size="10.00" fill="#000000"> &gt;::instance</text>
</a>
</g>
</g>
<!-- Node4&#45;&gt;Node5 -->
<g id="edge1" class="edge">
<title>Node4&#45;&gt;Node5</title>
<path fill="none" stroke="#191970" d="M136.8347,-133.5437C156.6955,-139.4282 179.3236,-146.6492 200,-153 216.3717,-158.0286 234.5788,-163.3849 249.9696,-168.5729"/>
<polygon fill="#191970" stroke="#191970" points="249.0345,-171.9537 259.6294,-171.9527 251.3464,-165.3465 249.0345,-171.9537"/>
</g>
<!-- Node4&#45;&gt;Node5 -->
<g id="edge2" class="edge">
<title>Node4&#45;&gt;Node5</title>
<path fill="none" stroke="#191970" d="M94.367,-133.5399C115.814,-144.195 161.3217,-159.1198 200,-171 206.1121,-172.8774 212.48,-174.8004 218.8617,-176.6674"/>
<polygon fill="#191970" stroke="#191970" points="218.289,-180.1444 228.8666,-179.5407 220.2212,-173.4163 218.289,-180.1444"/>
</g>
<!-- Node6 -->
<g id="node3" class="node">
<title>Node6</title>
<g id="a_node3"><a xlink:href="classUIManager.html#aa5b6dbe1a9d5c50b588c55e9c9673f58" target="_top" xlink:title="Get the Ui Element By ID Finds and returns an UiElement by its elementID parameter. ">
<polygon fill="none" stroke="#000000" points="203,-133.5 203,-152.5 368,-152.5 368,-133.5 203,-133.5"/>
<text text-anchor="middle" x="285.5" y="-140.5" font-family="Helvetica,sans-Serif" font-size="10.00" fill="#000000">UIManager::getUiElementByID</text>
</a>
</g>
</g>
<!-- Node4&#45;&gt;Node6 -->
<g id="edge3" class="edge">
<title>Node4&#45;&gt;Node6</title>
<path fill="none" stroke="#191970" d="M164.1847,-131.6733C173.5007,-132.5431 183.0441,-133.4341 192.4865,-134.3157"/>
<polygon fill="#191970" stroke="#191970" points="192.3951,-137.8223 202.6772,-135.2672 193.0459,-130.8526 192.3951,-137.8223"/>
</g>
<!-- Node7 -->
<g id="node4" class="node">
<title>Node7</title>
<g id="a_node4"><a xlink:href="classUIElement.html#a6451228b4c9bc058d69e4d4f2b03c719" target="_top" xlink:title="UIElement::getUiElementData">
<polygon fill="none" stroke="#000000" points="203.5,-95.5 203.5,-114.5 367.5,-114.5 367.5,-95.5 203.5,-95.5"/>
<text text-anchor="middle" x="285.5" y="-102.5" font-family="Helvetica,sans-Serif" font-size="10.00" fill="#000000">UIElement::getUiElementData</text>
</a>
</g>
</g>
<!-- Node4&#45;&gt;Node7 -->
<g id="edge4" class="edge">
<title>Node4&#45;&gt;Node7</title>
<path fill="none" stroke="#191970" d="M164.1847,-116.3267C173.7635,-115.4324 183.5828,-114.5156 193.2854,-113.6097"/>
<polygon fill="#191970" stroke="#191970" points="193.7081,-117.0856 203.3394,-112.671 193.0573,-110.1159 193.7081,-117.0856"/>
</g>
<!-- Node8 -->
<g id="node5" class="node">
<title>Node8</title>
<g id="a_node5"><a xlink:href="classUIManager.html#a0d32c5b63c4110ff8e43ab06c1c7d761" target="_top" xlink:title="Get the Layoutgroup container Returns the container, that holds LayoutGroups. ">
<polygon fill="none" stroke="#000000" points="200,-57.5 200,-76.5 371,-76.5 371,-57.5 200,-57.5"/>
<text text-anchor="middle" x="285.5" y="-64.5" font-family="Helvetica,sans-Serif" font-size="10.00" fill="#000000">UIManager::getAllLayoutGroups</text>
</a>
</g>
</g>
<!-- Node4&#45;&gt;Node8 -->
<g id="edge5" class="edge">
<title>Node4&#45;&gt;Node8</title>
<path fill="none" stroke="#191970" d="M109.4403,-114.3634C133.2184,-106.2058 168.6369,-94.515 200,-86 209.2576,-83.4866 219.1447,-81.0581 228.7889,-78.8253"/>
<polygon fill="#191970" stroke="#191970" points="229.7366,-82.1994 238.7146,-76.574 228.1881,-75.3727 229.7366,-82.1994"/>
</g>
<!-- Node9 -->
<g id="node6" class="node">
<title>Node9</title>
<g id="a_node6"><a xlink:href="classUIElement.html#ad1c0d7431b71bdd9a3704a6d5c8a4643" target="_top" xlink:title="Get the position and the size of this ui element Gets the position and the size of this ui element...">
<polygon fill="none" stroke="#000000" points="205,-19.5 205,-38.5 366,-38.5 366,-19.5 205,-19.5"/>
<text text-anchor="middle" x="285.5" y="-26.5" font-family="Helvetica,sans-Serif" font-size="10.00" fill="#000000">UIElement::getUiElementRect</text>
</a>
</g>
</g>
<!-- Node4&#45;&gt;Node9 -->
<g id="edge6" class="edge">
<title>Node4&#45;&gt;Node9</title>
<path fill="none" stroke="#191970" d="M93.6055,-114.4971C113.9029,-98.3621 157.7243,-65.6466 200,-48 206.1282,-45.442 212.6538,-43.2038 219.2628,-41.2507"/>
<polygon fill="#191970" stroke="#191970" points="220.2505,-44.6092 228.9689,-38.5893 218.3994,-37.8583 220.2505,-44.6092"/>
</g>
<!-- Node10 -->
<g id="node7" class="node">
<title>Node10</title>
<g id="a_node7"><a xlink:href="classUIElement.html#aa7f624963eaeb31043d74219ee24386c" target="_top" xlink:title="Checks if the mouse cursor is over the current UI Element Check if the coordinates match the ones sto...">
<polygon fill="none" stroke="#000000" points="443,-38.5 443,-57.5 580,-57.5 580,-38.5 443,-38.5"/>
<text text-anchor="middle" x="511.5" y="-45.5" font-family="Helvetica,sans-Serif" font-size="10.00" fill="#000000">UIElement::isMouseOver</text>
</a>
</g>
</g>
<!-- Node9&#45;&gt;Node10 -->
<g id="edge7" class="edge">
<title>Node9&#45;&gt;Node10</title>
<path fill="none" stroke="#191970" d="M366.134,-35.779C387.802,-37.6006 411.204,-39.568 432.7673,-41.3809"/>
<polygon fill="#191970" stroke="#191970" points="432.6016,-44.8792 442.8597,-42.2294 433.1881,-37.9038 432.6016,-44.8792"/>
</g>
<!-- Node11 -->
<g id="node8" class="node">
<title>Node11</title>
<g id="a_node8"><a xlink:href="classUIElement.html#a570841bf8b7970ca935b1a00e571036a" target="_top" xlink:title="Handling for the hovering event Check, if the mouse cursor is hovering over the element. virtual function to provide custom handling if necessary (e.g. Combobox) Per default, it&#39;s the same implementation as isMouseOver. ">
<polygon fill="none" stroke="#000000" points="407,-.5 407,-19.5 616,-19.5 616,-.5 407,-.5"/>
<text text-anchor="middle" x="511.5" y="-7.5" font-family="Helvetica,sans-Serif" font-size="10.00" fill="#000000">UIElement::isMouseOverHoverableArea</text>
</a>
</g>
</g>
<!-- Node9&#45;&gt;Node11 -->
<g id="edge8" class="edge">
<title>Node9&#45;&gt;Node11</title>
<path fill="none" stroke="#191970" d="M366.134,-22.221C376.0217,-21.3898 386.2705,-20.5281 396.5409,-19.6647"/>
<polygon fill="#191970" stroke="#191970" points="397.1343,-23.1273 406.8059,-18.8017 396.5478,-16.1519 397.1343,-23.1273"/>
</g>
</g>
</svg>
