<?xml version="1.0" encoding="UTF-8" standalone="no"?>
<!DOCTYPE svg PUBLIC "-//W3C//DTD SVG 1.1//EN"
 "http://www.w3.org/Graphics/SVG/1.1/DTD/svg11.dtd">
<!-- Generated by graphviz version 2.40.1 (20161225.0304)
 -->
<!-- Title: Map::initMap Pages: 1 -->
<!--zoomable 373 -->
<svg id="main" version="1.1" xmlns="http://www.w3.org/2000/svg" xmlns:xlink="http://www.w3.org/1999/xlink" xml:space="preserve" onload="init(evt)">
<style type="text/css"><![CDATA[
.edge:hover path { stroke: red; }
.edge:hover polygon { stroke: red; fill: red; }
]]></style>
<script type="text/javascript"><![CDATA[
var edges = document.getElementsByTagName('g');
if (edges && edges.length) {
  for (var i=0;i<edges.length;i++) {
    if (edges[i].id.substr(0,4)=='edge') {
      edges[i].setAttribute('class','edge');
    }
  }
}
]]></script>
        <defs>
                <circle id="rim" cx="0" cy="0" r="7"/>
                <circle id="rim2" cx="0" cy="0" r="3.5"/>
                <g id="zoomPlus">
                        <use xlink:href="#rim" fill="#404040">
                                <set attributeName="fill" to="#808080" begin="zoomplus.mouseover" end="zoomplus.mouseout"/>
                        </use>
                        <path d="M-4,0h8M0,-4v8" fill="none" stroke="white" stroke-width="1.5" pointer-events="none"/>
                </g>
                <g id="zoomMin">
                        <use xlink:href="#rim" fill="#404040">
                                <set attributeName="fill" to="#808080" begin="zoomminus.mouseover" end="zoomminus.mouseout"/>
                        </use>
                        <path d="M-4,0h8" fill="none" stroke="white" stroke-width="1.5" pointer-events="none"/>
                </g>
                <g id="dirArrow">
                        <path fill="none" stroke="white" stroke-width="1.5" d="M0,-3.0v7 M-2.5,-0.5L0,-3.0L2.5,-0.5"/>
                </g>
               <g id="resetDef">
                       <use xlink:href="#rim2" fill="#404040">
                               <set attributeName="fill" to="#808080" begin="reset.mouseover" end="reset.mouseout"/>
                       </use>
               </g>
        </defs>

<script type="text/javascript">
var viewWidth = 1372;
var viewHeight = 373;
var sectionId = 'dynsection-26';
</script>
<script xlink:href="svgpan.js"/>
<svg id="graph" class="graph">
<g id="viewport">
<title>Map::initMap</title>
<!-- Node286 -->
<g id="node1" class="node">
<title>Node286</title>
<polygon fill="#bfbfbf" stroke="#000000" points="0,-73.3413 0,-92.3413 79,-92.3413 79,-73.3413 0,-73.3413"/>
<text text-anchor="middle" x="39.5" y="-80.3413" font-family="Helvetica,sans-Serif" font-size="10.00" fill="#000000">Map::initMap</text>
</g>
<!-- Node287 -->
<g id="node2" class="node">
<title>Node287</title>
<g id="a_node2"><a xlink:href="classTerrainGenerator.html#adcc251757a1f3a06471a49f17886b8ce" target="_top" xlink:title="TerrainGenerator::generate\lTerrain">
<polygon fill="none" stroke="#000000" points="115,-45.8413 115,-75.8413 263,-75.8413 263,-45.8413 115,-45.8413"/>
<text text-anchor="start" x="123" y="-63.8413" font-family="Helvetica,sans-Serif" font-size="10.00" fill="#000000">TerrainGenerator::generate</text>
<text text-anchor="middle" x="189" y="-52.8413" font-family="Helvetica,sans-Serif" font-size="10.00" fill="#000000">Terrain</text>
</a>
</g>
</g>
<!-- Node286&#45;&gt;Node287 -->
<g id="edge1" class="edge">
<title>Node286&#45;&gt;Node287</title>
<path fill="none" stroke="#191970" d="M79.1708,-77.0035C87.1528,-75.8289 95.825,-74.5527 104.6793,-73.2497"/>
<polygon fill="#191970" stroke="#191970" points="105.3426,-76.6899 114.7265,-71.7712 104.3234,-69.7645 105.3426,-76.6899"/>
</g>
<!-- Node290 -->
<g id="node5" class="node">
<title>Node290</title>
<g id="a_node5"><a xlink:href="classMap.html#a481b37ba71ef0e51e836fc42805762dd" target="_top" xlink:title="Update all mapNodes Updates all mapNode and its adjacent tiles regarding height information, draws slopes for adjacent tiles and sets tiling for mapNode sprite if applicable. ">
<polygon fill="none" stroke="#000000" points="129,-127.3413 129,-146.3413 249,-146.3413 249,-127.3413 129,-127.3413"/>
<text text-anchor="middle" x="189" y="-134.3413" font-family="Helvetica,sans-Serif" font-size="10.00" fill="#000000">Map::updateAllNodes</text>
</a>
</g>
</g>
<!-- Node286&#45;&gt;Node290 -->
<g id="edge4" class="edge">
<title>Node286&#45;&gt;Node290</title>
<path fill="none" stroke="#191970" d="M65.8835,-92.3711C90.1469,-101.1352 126.3252,-114.2029 153.1917,-123.9072"/>
<polygon fill="#191970" stroke="#191970" points="152.035,-127.2107 162.6293,-127.3161 154.4131,-120.627 152.035,-127.2107"/>
</g>
<!-- Node288 -->
<g id="node3" class="node">
<title>Node288</title>
<g id="a_node3"><a xlink:href="classTerrainGenerator.html#ac94cfaeb9dc89453018399361da5174a" target="_top" xlink:title="TerrainGenerator::loadTerrain\lDataFromJSON">
<polygon fill="none" stroke="#000000" points="301.5,-45.8413 301.5,-75.8413 459.5,-75.8413 459.5,-45.8413 301.5,-45.8413"/>
<text text-anchor="start" x="309.5" y="-63.8413" font-family="Helvetica,sans-Serif" font-size="10.00" fill="#000000">TerrainGenerator::loadTerrain</text>
<text text-anchor="middle" x="380.5" y="-52.8413" font-family="Helvetica,sans-Serif" font-size="10.00" fill="#000000">DataFromJSON</text>
</a>
</g>
</g>
<!-- Node287&#45;&gt;Node288 -->
<g id="edge2" class="edge">
<title>Node287&#45;&gt;Node288</title>
<path fill="none" stroke="#191970" d="M263.0389,-60.8413C272.2368,-60.8413 281.7168,-60.8413 291.1147,-60.8413"/>
<polygon fill="#191970" stroke="#191970" points="291.263,-64.3414 301.263,-60.8413 291.2629,-57.3414 291.263,-64.3414"/>
</g>
<!-- Node289 -->
<g id="node4" class="node">
<title>Node289</title>
<g id="a_node4"><a xlink:href="classSingleton.html#af5cb1e5749949e2b68416cfb8d378044" target="_top" xlink:title="Get an instance of the singleton. ">
<polygon fill="none" stroke="#000000" points="1251,-80.8413 1251,-110.8413 1364,-110.8413 1364,-80.8413 1251,-80.8413"/>
<text text-anchor="start" x="1259" y="-98.8413" font-family="Helvetica,sans-Serif" font-size="10.00" fill="#000000">Singleton&lt; Settings</text>
<text text-anchor="middle" x="1307.5" y="-87.8413" font-family="Helvetica,sans-Serif" font-size="10.00" fill="#000000"> &gt;::instance</text>
</a>
</g>
</g>
<!-- Node287&#45;&gt;Node289 -->
<g id="edge3" class="edge">
<title>Node287&#45;&gt;Node289</title>
<path fill="none" stroke="#191970" d="M249.3352,-45.7782C325.9365,-28.0051 462.4091,-.8413 581,-.8413 581,-.8413 581,-.8413 939,-.8413 1062.5939,-.8413 1099.0177,7.8618 1215,-34.8413 1239.6662,-43.9231 1264.3536,-60.6884 1282.0124,-74.3477"/>
<polygon fill="#191970" stroke="#191970" points="1280.0773,-77.2804 1290.0857,-80.7564 1284.4295,-71.7977 1280.0773,-77.2804"/>
</g>
<!-- Node291 -->
<g id="node6" class="node">
<title>Node291</title>
<g id="a_node6"><a xlink:href="classMap.html#a59d21f2688713fbcfe320eb1b24405ca" target="_top" xlink:title="Update mapNode and its adjacent tiles Updates mapNode height information, draws slopes for adjacent t...">
<polygon fill="none" stroke="#000000" points="299,-169.3413 299,-188.3413 462,-188.3413 462,-169.3413 299,-169.3413"/>
<text text-anchor="middle" x="380.5" y="-176.3413" font-family="Helvetica,sans-Serif" font-size="10.00" fill="#000000">Map::updateNeighborsOfNode</text>
</a>
</g>
</g>
<!-- Node290&#45;&gt;Node291 -->
<g id="edge5" class="edge">
<title>Node290&#45;&gt;Node291</title>
<path fill="none" stroke="#191970" d="M232.4543,-146.3718C260.5123,-152.5255 297.2126,-160.5746 327.0524,-167.1191"/>
<polygon fill="#191970" stroke="#191970" points="326.3689,-170.5523 336.8866,-169.276 327.8686,-163.7149 326.3689,-170.5523"/>
</g>
<!-- Node292 -->
<g id="node7" class="node">
<title>Node292</title>
<g id="a_node7"><a xlink:href="classMap.html#aab37e4a52faf81e9b696b8cf1bd9a690" target="_top" xlink:title="Get neighbor MapNode Objects Stores pointers to the neighboring nodes of the given coordinates in the...">
<polygon fill="none" stroke="#000000" points="705.5,-231.3413 705.5,-250.3413 813.5,-250.3413 813.5,-231.3413 705.5,-231.3413"/>
<text text-anchor="middle" x="759.5" y="-238.3413" font-family="Helvetica,sans-Serif" font-size="10.00" fill="#000000">Map::getNeighbors</text>
</a>
</g>
</g>
<!-- Node291&#45;&gt;Node292 -->
<g id="edge6" class="edge">
<title>Node291&#45;&gt;Node292</title>
<path fill="none" stroke="#191970" d="M399.4614,-188.405C422.2198,-199.3733 461.8467,-216.8657 498,-224.8413 564.2416,-239.4546 642.0525,-242.4716 695.4712,-242.444"/>
<polygon fill="#191970" stroke="#191970" points="695.5004,-245.944 705.486,-242.403 695.4717,-238.944 695.5004,-245.944"/>
</g>
<!-- Node293 -->
<g id="node8" class="node">
<title>Node293</title>
<g id="a_node8"><a xlink:href="classMap.html#a0ff55eb041cdf29aa582a21145319ce0" target="_top" xlink:title="Get elevated neighbor positions in a bitmask Checks all neighboring tiles and returns the elevated ne...">
<polygon fill="none" stroke="#000000" points="508,-185.8413 508,-215.8413 654,-215.8413 654,-185.8413 508,-185.8413"/>
<text text-anchor="start" x="516" y="-203.8413" font-family="Helvetica,sans-Serif" font-size="10.00" fill="#000000">Map::getElevatedNeighbor</text>
<text text-anchor="middle" x="581" y="-192.8413" font-family="Helvetica,sans-Serif" font-size="10.00" fill="#000000">Bitmask</text>
</a>
</g>
</g>
<!-- Node291&#45;&gt;Node293 -->
<g id="edge7" class="edge">
<title>Node291&#45;&gt;Node293</title>
<path fill="none" stroke="#191970" d="M462.051,-187.7895C473.7906,-189.0777 485.8848,-190.4047 497.6586,-191.6966"/>
<polygon fill="#191970" stroke="#191970" points="497.5837,-195.2093 507.9058,-192.821 498.3472,-188.2511 497.5837,-195.2093"/>
</g>
<!-- Node294 -->
<g id="node9" class="node">
<title>Node294</title>
<g id="a_node9"><a xlink:href="classMap.html#aa8cc2ed983007621bce12dd9d1b8ec5b" target="_top" xlink:title="Demolish a node This function gathers all tiles that should be demolished and invokes the nodes demol...">
<polygon fill="none" stroke="#000000" points="703,-102.3413 703,-121.3413 816,-121.3413 816,-102.3413 703,-102.3413"/>
<text text-anchor="middle" x="759.5" y="-109.3413" font-family="Helvetica,sans-Serif" font-size="10.00" fill="#000000">Map::demolishNode</text>
</a>
</g>
</g>
<!-- Node291&#45;&gt;Node294 -->
<g id="edge8" class="edge">
<title>Node291&#45;&gt;Node294</title>
<path fill="none" stroke="#191970" d="M390.6357,-169.2993C410.6976,-156.7661 457.072,-137.8825 498,-128.8413 563.2888,-114.4187 639.5267,-107.9883 692.7801,-106.8147"/>
<polygon fill="#191970" stroke="#191970" points="692.8391,-110.3143 702.7811,-106.6526 692.7256,-103.3153 692.8391,-110.3143"/>
</g>
<!-- Node301 -->
<g id="node16" class="node">
<title>Node301</title>
<g id="a_node16"><a xlink:href="classMap.html#a3f5c7dd50cdc712e1ef18047cf619888" target="_top" xlink:title="Get a bitmask that represents same&#45;tile neighbors Checks all neighboring tiles and returns the elevat...">
<polygon fill="none" stroke="#000000" points="498,-328.3413 498,-347.3413 664,-347.3413 664,-328.3413 498,-328.3413"/>
<text text-anchor="middle" x="581" y="-335.3413" font-family="Helvetica,sans-Serif" font-size="10.00" fill="#000000">Map::calculateAutotileBitmask</text>
</a>
</g>
</g>
<!-- Node291&#45;&gt;Node301 -->
<g id="edge19" class="edge">
<title>Node291&#45;&gt;Node301</title>
<path fill="none" stroke="#191970" d="M387.4463,-188.3974C404.1964,-210.8676 449.0619,-267.7282 498,-301.8413 511.2959,-311.1095 527.3584,-318.755 541.7969,-324.5802"/>
<polygon fill="#191970" stroke="#191970" points="540.8899,-327.9818 551.4794,-328.3198 543.4119,-321.4519 540.8899,-327.9818"/>
</g>
<!-- Node303 -->
<g id="node18" class="node">
<title>Node303</title>
<g id="a_node18"><a xlink:href="classMap.html#aba5154a4d917900679a3c0f7ec701561" target="_top" xlink:title="Increase Height Increases the height of the node and checks the surrounding tiles. Either draw a slope sprite or elevate the tile if necessary. ">
<polygon fill="none" stroke="#000000" points="523,-273.3413 523,-292.3413 639,-292.3413 639,-273.3413 523,-273.3413"/>
<text text-anchor="middle" x="581" y="-280.3413" font-family="Helvetica,sans-Serif" font-size="10.00" fill="#000000">Map::increaseHeight</text>
</a>
</g>
</g>
<!-- Node291&#45;&gt;Node303 -->
<g id="edge21" class="edge">
<title>Node291&#45;&gt;Node303</title>
<path fill="none" stroke="#191970" d="M400.1109,-188.5412C422.529,-203.9446 460.9289,-232.4062 498,-249.8413 516.5473,-258.5644 538.9412,-264.8129 555.7916,-270.1119"/>
<polygon fill="#191970" stroke="#191970" points="554.89,-273.4998 565.483,-273.3022 557.0788,-266.8508 554.89,-273.4998"/>
</g>
<!-- Node304 -->
<g id="node19" class="node">
<title>Node304</title>
<g id="a_node19"><a xlink:href="classMap.html#afb8cc864df90d273a5074872d635dc40" target="_top" xlink:title="Decrease Height Decreases the height of the node and checks the surrounding tiles. Either draw a slope sprite or lower the tile if necessary. ">
<polygon fill="none" stroke="#000000" points="521.5,-147.3413 521.5,-166.3413 640.5,-166.3413 640.5,-147.3413 521.5,-147.3413"/>
<text text-anchor="middle" x="581" y="-154.3413" font-family="Helvetica,sans-Serif" font-size="10.00" fill="#000000">Map::decreaseHeight</text>
</a>
</g>
</g>
<!-- Node291&#45;&gt;Node304 -->
<g id="edge27" class="edge">
<title>Node291&#45;&gt;Node304</title>
<path fill="none" stroke="#191970" d="M418.2125,-169.2918C444.4166,-165.1098 480.1119,-160.8432 511.4002,-158.0168"/>
<polygon fill="#191970" stroke="#191970" points="511.7257,-161.5018 521.3862,-157.1517 511.1214,-154.5279 511.7257,-161.5018"/>
</g>
<!-- Node294&#45;&gt;Node291 -->
<g id="edge18" class="edge">
<title>Node294&#45;&gt;Node291</title>
<path fill="none" stroke="#191970" d="M702.7811,-120.5795C649.3991,-125.1926 567.4966,-131.4891 498,-146.8413 476.1532,-151.6674 452.7545,-159.2978 432.6343,-166.0785"/>
<polygon fill="#191970" stroke="#191970" points="431.393,-162.8034 423.0416,-169.3229 433.6358,-169.4345 431.393,-162.8034"/>
</g>
<!-- Node295 -->
<g id="node10" class="node">
<title>Node295</title>
<g id="a_node10"><a xlink:href="isoMath_8cxx.html#a7fa61c3d8ef446fb1c48dc4838023649" target="_top" xlink:title="Check if given coordinates are within map boundaries Checks if coordinates are within map boundaries...">
<polygon fill="none" stroke="#000000" points="1059,-143.3413 1059,-162.3413 1215,-162.3413 1215,-143.3413 1059,-143.3413"/>
<text text-anchor="middle" x="1137" y="-150.3413" font-family="Helvetica,sans-Serif" font-size="10.00" fill="#000000">isPointWithinMapBoundaries</text>
</a>
</g>
</g>
<!-- Node294&#45;&gt;Node295 -->
<g id="edge9" class="edge">
<title>Node294&#45;&gt;Node295</title>
<path fill="none" stroke="#191970" d="M816.1799,-115.2277C869.636,-118.7397 951.9389,-124.9682 1023,-133.8413 1039.9827,-135.9619 1058.3042,-138.7786 1075.1871,-141.5922"/>
<polygon fill="#191970" stroke="#191970" points="1075.0442,-145.1178 1085.4884,-143.3375 1076.2135,-138.2162 1075.0442,-145.1178"/>
</g>
<!-- Node296 -->
<g id="node11" class="node">
<title>Node296</title>
<g id="a_node11"><a xlink:href="classMapNode.html#a6b57e4355d0780fb37c34d63bbcdfdf9" target="_top" xlink:title="MapNode::getMapNodeDataFor\lLayer">
<polygon fill="none" stroke="#000000" points="855,-143.8413 855,-173.8413 1023,-173.8413 1023,-143.8413 855,-143.8413"/>
<text text-anchor="start" x="863" y="-161.8413" font-family="Helvetica,sans-Serif" font-size="10.00" fill="#000000">MapNode::getMapNodeDataFor</text>
<text text-anchor="middle" x="939" y="-150.8413" font-family="Helvetica,sans-Serif" font-size="10.00" fill="#000000">Layer</text>
</a>
</g>
</g>
<!-- Node294&#45;&gt;Node296 -->
<g id="edge11" class="edge">
<title>Node294&#45;&gt;Node296</title>
<path fill="none" stroke="#191970" d="M795.8245,-121.3525C817.6255,-127.0608 846.039,-134.5005 871.8016,-141.2462"/>
<polygon fill="#191970" stroke="#191970" points="870.9658,-144.6453 881.5262,-143.7925 872.7389,-137.8735 870.9658,-144.6453"/>
</g>
<!-- Node297 -->
<g id="node12" class="node">
<title>Node297</title>
<g id="a_node12"><a xlink:href="classMap.html#ab6685363fde5a50c749adab9df96c231" target="_top" xlink:title="whether a node is a multiobject or not (bigger than 1x1 building) ">
<polygon fill="none" stroke="#000000" points="873,-67.3413 873,-86.3413 1005,-86.3413 1005,-67.3413 873,-67.3413"/>
<text text-anchor="middle" x="939" y="-74.3413" font-family="Helvetica,sans-Serif" font-size="10.00" fill="#000000">Map::isNodeMultiObject</text>
</a>
</g>
</g>
<!-- Node294&#45;&gt;Node297 -->
<g id="edge12" class="edge">
<title>Node294&#45;&gt;Node297</title>
<path fill="none" stroke="#191970" d="M808.5492,-102.2774C830.612,-97.9755 856.8379,-92.8618 879.9684,-88.3517"/>
<polygon fill="#191970" stroke="#191970" points="880.8648,-91.7428 890.0101,-86.3936 879.5251,-84.8722 880.8648,-91.7428"/>
</g>
<!-- Node299 -->
<g id="node14" class="node">
<title>Node299</title>
<g id="a_node14"><a xlink:href="classMap.html#a3952b445c55efce61c1ccac6f362fe89" target="_top" xlink:title="Return vector of Points of an Object Tiles selection. ">
<polygon fill="none" stroke="#000000" points="877,-29.3413 877,-48.3413 1001,-48.3413 1001,-29.3413 877,-29.3413"/>
<text text-anchor="middle" x="939" y="-36.3413" font-family="Helvetica,sans-Serif" font-size="10.00" fill="#000000">Map::getObjectCoords</text>
</a>
</g>
</g>
<!-- Node294&#45;&gt;Node299 -->
<g id="edge15" class="edge">
<title>Node294&#45;&gt;Node299</title>
<path fill="none" stroke="#191970" d="M773.4132,-102.2364C791.455,-90.1994 824.2614,-69.7119 855,-57.8413 861.7124,-55.2491 868.8696,-52.9601 876.0672,-50.9518"/>
<polygon fill="#191970" stroke="#191970" points="877.0818,-54.3042 885.8691,-48.3852 875.3086,-47.5325 877.0818,-54.3042"/>
</g>
<!-- Node295&#45;&gt;Node289 -->
<g id="edge10" class="edge">
<title>Node295&#45;&gt;Node289</title>
<path fill="none" stroke="#191970" d="M1181.0551,-143.3384C1192.2225,-140.5946 1204.1312,-137.3752 1215,-133.8413 1231.544,-128.4621 1249.3086,-121.472 1264.8035,-114.9562"/>
<polygon fill="#191970" stroke="#191970" points="1266.3019,-118.1222 1274.1267,-110.9792 1263.5553,-111.6836 1266.3019,-118.1222"/>
</g>
<!-- Node297&#45;&gt;Node295 -->
<g id="edge13" class="edge">
<title>Node297&#45;&gt;Node295</title>
<path fill="none" stroke="#191970" d="M986.7465,-86.3605C999.016,-89.8981 1011.8818,-94.6205 1023,-100.8413 1041.9417,-111.4396 1039.8534,-123.6179 1059,-133.8413 1063.307,-136.141 1067.8958,-138.1672 1072.6087,-139.9515"/>
<polygon fill="#191970" stroke="#191970" points="1071.8118,-143.3773 1082.4062,-143.2847 1074.0664,-136.7504 1071.8118,-143.3773"/>
</g>
<!-- Node298 -->
<g id="node13" class="node">
<title>Node298</title>
<g id="a_node13"><a xlink:href="classMapNode.html#adf88174897b884c97d327e710dea7f5e" target="_top" xlink:title="MapNode::getTileData">
<polygon fill="none" stroke="#000000" points="1074.5,-105.3413 1074.5,-124.3413 1199.5,-124.3413 1199.5,-105.3413 1074.5,-105.3413"/>
<text text-anchor="middle" x="1137" y="-112.3413" font-family="Helvetica,sans-Serif" font-size="10.00" fill="#000000">MapNode::getTileData</text>
</a>
</g>
</g>
<!-- Node297&#45;&gt;Node298 -->
<g id="edge14" class="edge">
<title>Node297&#45;&gt;Node298</title>
<path fill="none" stroke="#191970" d="M988.7082,-86.3813C1015.5406,-91.5309 1048.8588,-97.9253 1077.1126,-103.3478"/>
<polygon fill="#191970" stroke="#191970" points="1076.7909,-106.8498 1087.2714,-105.2974 1078.1103,-99.9753 1076.7909,-106.8498"/>
</g>
<!-- Node299&#45;&gt;Node289 -->
<g id="edge16" class="edge">
<title>Node299&#45;&gt;Node289</title>
<path fill="none" stroke="#191970" d="M1001.2261,-37.4809C1057.7222,-37.5706 1142.9691,-41.0318 1215,-57.8413 1233.2319,-62.096 1252.517,-69.5089 1268.733,-76.6644"/>
<polygon fill="#191970" stroke="#191970" points="1267.3424,-79.8767 1277.895,-80.8218 1270.235,-73.5023 1267.3424,-79.8767"/>
</g>
<!-- Node300 -->
<g id="node15" class="node">
<title>Node300</title>
<g id="a_node15"><a xlink:href="classTileManager.html#a8ee071ff8b24926288437d310f9bc714" target="_top" xlink:title="TileManager::getTileData">
<polygon fill="none" stroke="#000000" points="1067,-67.3413 1067,-86.3413 1207,-86.3413 1207,-67.3413 1067,-67.3413"/>
<text text-anchor="middle" x="1137" y="-74.3413" font-family="Helvetica,sans-Serif" font-size="10.00" fill="#000000">TileManager::getTileData</text>
</a>
</g>
</g>
<!-- Node299&#45;&gt;Node300 -->
<g id="edge17" class="edge">
<title>Node299&#45;&gt;Node300</title>
<path fill="none" stroke="#191970" d="M988.7082,-48.3813C1015.5406,-53.5309 1048.8588,-59.9253 1077.1126,-65.3478"/>
<polygon fill="#191970" stroke="#191970" points="1076.7909,-68.8498 1087.2714,-67.2974 1078.1103,-61.9753 1076.7909,-68.8498"/>
</g>
<!-- Node302 -->
<g id="node17" class="node">
<title>Node302</title>
<g id="a_node17"><a xlink:href="classMap.html#a4700614f8c7d02b9ca18ad7e916a2312" target="_top" xlink:title="Map::isLayerAutoTile">
<polygon fill="none" stroke="#000000" points="700,-345.3413 700,-364.3413 819,-364.3413 819,-345.3413 700,-345.3413"/>
<text text-anchor="middle" x="759.5" y="-352.3413" font-family="Helvetica,sans-Serif" font-size="10.00" fill="#000000">Map::isLayerAutoTile</text>
</a>
</g>
</g>
<!-- Node301&#45;&gt;Node302 -->
<g id="edge20" class="edge">
<title>Node301&#45;&gt;Node302</title>
<path fill="none" stroke="#191970" d="M664.2401,-345.7689C672.7696,-346.5813 681.3725,-347.4006 689.7355,-348.1971"/>
<polygon fill="#191970" stroke="#191970" points="689.5096,-351.6913 699.7965,-349.1553 690.1734,-344.7228 689.5096,-351.6913"/>
</g>
<!-- Node303&#45;&gt;Node289 -->
<g id="edge22" class="edge">
<title>Node303&#45;&gt;Node289</title>
<path fill="none" stroke="#191970" d="M639.3633,-285.742C687.6465,-287.3876 757.9545,-288.0446 819,-281.8413 1000.7281,-263.3746 1056.1545,-262.0312 1215,-171.8413 1241.0182,-157.0686 1267.024,-134.8785 1284.8044,-118.2841"/>
<polygon fill="#191970" stroke="#191970" points="1287.5267,-120.5255 1292.3654,-111.1001 1282.7051,-115.4508 1287.5267,-120.5255"/>
</g>
<!-- Node303&#45;&gt;Node291 -->
<g id="edge26" class="edge">
<title>Node303&#45;&gt;Node291</title>
<path fill="none" stroke="#191970" d="M522.9794,-277.5191C514.4386,-274.8008 505.8728,-271.544 498,-267.8413 457.19,-248.6478 414.7697,-216.0913 393.8334,-195.7564"/>
<polygon fill="#191970" stroke="#191970" points="396.153,-193.1203 386.6856,-188.3644 391.1208,-197.9862 396.153,-193.1203"/>
</g>
<!-- Node303&#45;&gt;Node292 -->
<g id="edge23" class="edge">
<title>Node303&#45;&gt;Node292</title>
<path fill="none" stroke="#191970" d="M621.5044,-273.3109C647.4303,-267.2106 681.2723,-259.2478 708.9537,-252.7345"/>
<polygon fill="#191970" stroke="#191970" points="709.9148,-256.1041 718.8473,-250.4066 708.3115,-249.2902 709.9148,-256.1041"/>
</g>
<!-- Node303&#45;&gt;Node294 -->
<g id="edge25" class="edge">
<title>Node303&#45;&gt;Node294</title>
<path fill="none" stroke="#191970" d="M597.2014,-273.2812C614.6278,-262.6096 642.7006,-244.271 664,-224.8413 697.0026,-194.7357 729.2395,-153.3831 746.5197,-129.9591"/>
<polygon fill="#191970" stroke="#191970" points="749.5163,-131.7899 752.5774,-121.6469 743.8591,-127.6671 749.5163,-131.7899"/>
</g>
<!-- Node303&#45;&gt;Node295 -->
<g id="edge24" class="edge">
<title>Node303&#45;&gt;Node295</title>
<path fill="none" stroke="#191970" d="M639.1378,-280.2343C687.5901,-277.3438 758.2479,-271.4582 819,-259.8413 911.7029,-242.1149 934.0214,-232.3191 1023,-200.8413 1052.0516,-190.5638 1084.3539,-176.7261 1107.1341,-166.5489"/>
<polygon fill="#191970" stroke="#191970" points="1108.5955,-169.7294 1116.2769,-162.4324 1105.7216,-163.3465 1108.5955,-169.7294"/>
</g>
<!-- Node304&#45;&gt;Node291 -->
<g id="edge31" class="edge">
<title>Node304&#45;&gt;Node291</title>
<path fill="none" stroke="#191970" d="M543.4051,-166.372C523.1602,-169.6063 497.2251,-172.8926 472.0302,-175.5253"/>
<polygon fill="#191970" stroke="#191970" points="471.6467,-172.0462 462.051,-176.5376 472.3532,-179.0104 471.6467,-172.0462"/>
</g>
<!-- Node304&#45;&gt;Node292 -->
<g id="edge28" class="edge">
<title>Node304&#45;&gt;Node292</title>
<path fill="none" stroke="#191970" d="M640.8032,-165.7491C648.9185,-168.3082 656.8897,-171.602 664,-175.8413 684.8286,-188.2598 680.219,-202.8142 700,-216.8413 705.6773,-220.8672 712.1279,-224.3576 718.636,-227.3341"/>
<polygon fill="#191970" stroke="#191970" points="717.5544,-230.6762 728.129,-231.3298 720.27,-224.2244 717.5544,-230.6762"/>
</g>
<!-- Node304&#45;&gt;Node294 -->
<g id="edge30" class="edge">
<title>Node304&#45;&gt;Node294</title>
<path fill="none" stroke="#191970" d="M618.8553,-147.298C645.9524,-140.4667 682.6377,-131.2184 711.7471,-123.8799"/>
<polygon fill="#191970" stroke="#191970" points="712.8583,-127.2093 721.6993,-121.3709 711.1471,-120.4217 712.8583,-127.2093"/>
</g>
<!-- Node304&#45;&gt;Node295 -->
<g id="edge29" class="edge">
<title>Node304&#45;&gt;Node295</title>
<path fill="none" stroke="#191970" d="M634.2933,-166.381C717.5746,-179.8488 883.4929,-200.8903 1023,-182.8413 1048.8731,-179.4939 1077.2463,-172.0415 1099.2142,-165.4022"/>
<polygon fill="#191970" stroke="#191970" points="1100.3074,-168.7277 1108.8249,-162.4266 1098.2371,-162.0409 1100.3074,-168.7277"/>
</g>
</g>
</svg>
        <g id="navigator" transform="translate(0 0)" fill="#404254">
                <rect fill="#f2f5e9" fill-opacity="0.5" stroke="#606060" stroke-width=".5" x="0" y="0" width="60" height="60"/>
                <use id="zoomplus" xlink:href="#zoomPlus" x="17" y="9" onmousedown="handleZoom(evt,'in')"/>
                <use id="zoomminus" xlink:href="#zoomMin" x="42" y="9" onmousedown="handleZoom(evt,'out')"/>
                <use id="reset" xlink:href="#resetDef" x="30" y="36" onmousedown="handleReset()"/>
                <g id="arrowUp" xlink:href="#dirArrow" transform="translate(30 24)" onmousedown="handlePan(0,-1)">
                  <use xlink:href="#rim" fill="#404040">
                        <set attributeName="fill" to="#808080" begin="arrowUp.mouseover" end="arrowUp.mouseout"/>
                  </use>
                  <path fill="none" stroke="white" stroke-width="1.5" d="M0,-3.0v7 M-2.5,-0.5L0,-3.0L2.5,-0.5"/>
                </g>
                <g id="arrowRight" xlink:href="#dirArrow" transform="rotate(90) translate(36 -43)" onmousedown="handlePan(1,0)">
                  <use xlink:href="#rim" fill="#404040">
                        <set attributeName="fill" to="#808080" begin="arrowRight.mouseover" end="arrowRight.mouseout"/>
                  </use>
                  <path fill="none" stroke="white" stroke-width="1.5" d="M0,-3.0v7 M-2.5,-0.5L0,-3.0L2.5,-0.5"/>
                </g>
                <g id="arrowDown" xlink:href="#dirArrow" transform="rotate(180) translate(-30 -48)" onmousedown="handlePan(0,1)">
                  <use xlink:href="#rim" fill="#404040">
                        <set attributeName="fill" to="#808080" begin="arrowDown.mouseover" end="arrowDown.mouseout"/>
                  </use>
                  <path fill="none" stroke="white" stroke-width="1.5" d="M0,-3.0v7 M-2.5,-0.5L0,-3.0L2.5,-0.5"/>
                </g>
                <g id="arrowLeft" xlink:href="#dirArrow" transform="rotate(270) translate(-36 17)" onmousedown="handlePan(-1,0)">
                  <use xlink:href="#rim" fill="#404040">
                        <set attributeName="fill" to="#808080" begin="arrowLeft.mouseover" end="arrowLeft.mouseout"/>
                  </use>
                  <path fill="none" stroke="white" stroke-width="1.5" d="M0,-3.0v7 M-2.5,-0.5L0,-3.0L2.5,-0.5"/>
                </g>
        </g>
        <svg viewBox="0 0 15 15" width="100%" height="30px" preserveAspectRatio="xMaxYMin meet">
         <g id="arrow_out" transform="scale(0.3 0.3)">
          <a xlink:href="classMap_a482ac34426e8aa66abb46f60ec329402_cgraph_org.svg" target="_base">
           <rect id="button" ry="5" rx="5" y="6" x="6" height="38" width="38"
                fill="#f2f5e9" fill-opacity="0.5" stroke="#606060" stroke-width="1.0"/>
           <path id="arrow"
             d="M 11.500037,31.436501 C 11.940474,20.09759 22.043105,11.32322 32.158766,21.979434 L 37.068811,17.246167 C 37.068811,17.246167 37.088388,32 37.088388,32 L 22.160133,31.978069 C 22.160133,31.978069 26.997745,27.140456 26.997745,27.140456 C 18.528582,18.264221 13.291696,25.230495 11.500037,31.436501 z"
             style="fill:#404040;"/>
          </a>
         </g>
        </svg>
</svg>
