<?xml version="1.0" encoding="UTF-8" standalone="no"?>
<!DOCTYPE svg PUBLIC "-//W3C//DTD SVG 1.1//EN"
 "http://www.w3.org/Graphics/SVG/1.1/DTD/svg11.dtd">
<!-- Generated by graphviz version 2.40.1 (20161225.0304)
 -->
<!-- Title: Slider::overSliderLine Pages: 1 -->
<svg width="318pt" height="66pt"
 viewBox="0.00 0.00 318.00 66.00" xmlns="http://www.w3.org/2000/svg" xmlns:xlink="http://www.w3.org/1999/xlink">
<g id="graph0" class="graph" transform="scale(1 1) rotate(0) translate(4 62)">
<title>Slider::overSliderLine</title>
<!-- Node35 -->
<g id="node1" class="node">
<title>Node35</title>
<polygon fill="#bfbfbf" stroke="#000000" points="0,-19.5 0,-38.5 120,-38.5 120,-19.5 0,-19.5"/>
<text text-anchor="middle" x="60" y="-26.5" font-family="Helvetica,sans-Serif" font-size="10.00" fill="#000000">Slider::overSliderLine</text>
</g>
<!-- Node36 -->
<g id="node2" class="node">
<title>Node36</title>
<g id="a_node2"><a xlink:href="classSlider.html#a8a7b5110db76b3975b6797f27a4f3017" target="_top" xlink:title="Slider::onMouseButtonDown">
<polygon fill="none" stroke="#000000" points="156,-38.5 156,-57.5 310,-57.5 310,-38.5 156,-38.5"/>
<text text-anchor="middle" x="233" y="-45.5" font-family="Helvetica,sans-Serif" font-size="10.00" fill="#000000">Slider::onMouseButtonDown</text>
</a>
</g>
</g>
<!-- Node35&#45;&gt;Node36 -->
<g id="edge1" class="edge">
<title>Node35&#45;&gt;Node36</title>
<path fill="none" stroke="#191970" d="M130.159,-36.7053C138.5754,-37.6297 147.2061,-38.5775 155.7164,-39.5122"/>
<polygon fill="#191970" stroke="#191970" points="130.3438,-33.2047 120.0215,-35.592 129.5796,-40.1628 130.3438,-33.2047"/>
</g>
<!-- Node37 -->
<g id="node3" class="node">
<title>Node37</title>
<g id="a_node3"><a xlink:href="classSlider.html#acdd85acda044f24f9c242361e45584c8" target="_top" xlink:title="Only overridden to enable dragging functionality this was only redeclared and redefined because the r...">
<polygon fill="none" stroke="#000000" points="176.5,-.5 176.5,-19.5 289.5,-19.5 289.5,-.5 176.5,-.5"/>
<text text-anchor="middle" x="233" y="-7.5" font-family="Helvetica,sans-Serif" font-size="10.00" fill="#000000">Slider::isMouseOver</text>
</a>
</g>
</g>
<!-- Node35&#45;&gt;Node37 -->
<g id="edge2" class="edge">
<title>Node35&#45;&gt;Node37</title>
<path fill="none" stroke="#191970" d="M130.0062,-21.3115C145.3913,-19.6218 161.4994,-17.8527 176.285,-16.2288"/>
<polygon fill="#191970" stroke="#191970" points="129.5796,-17.8372 120.0215,-22.408 130.3438,-24.7953 129.5796,-17.8372"/>
</g>
</g>
</svg>
