<?xml version="1.0" encoding="UTF-8" standalone="no"?>
<!DOCTYPE svg PUBLIC "-//W3C//DTD SVG 1.1//EN"
 "http://www.w3.org/Graphics/SVG/1.1/DTD/svg11.dtd">
<!-- Generated by graphviz version 2.40.1 (20161225.0304)
 -->
<!-- Title: Randomizer Pages: 1 -->
<svg width="138pt" height="393pt"
 viewBox="0.00 0.00 137.50 393.00" xmlns="http://www.w3.org/2000/svg" xmlns:xlink="http://www.w3.org/1999/xlink">
<g id="graph0" class="graph" transform="scale(1 1) rotate(0) translate(4 389)">
<title>Randomizer</title>
<!-- Node2 -->
<g id="node1" class="node">
<title>Node2</title>
<polygon fill="#bfbfbf" stroke="#000000" points="16.5,-.5 16.5,-68.5 110.5,-68.5 110.5,-.5 16.5,-.5"/>
<text text-anchor="middle" x="63.5" y="-56.5" font-family="Helvetica,sans-Serif" font-size="10.00" fill="#000000">Randomizer</text>
<polyline fill="none" stroke="#000000" points="16.5,-49.5 110.5,-49.5 "/>
<text text-anchor="start" x="24.5" y="-37.5" font-family="Helvetica,sans-Serif" font-size="10.00" fill="#000000">&#45; generator</text>
<polyline fill="none" stroke="#000000" points="16.5,-30.5 110.5,-30.5 "/>
<text text-anchor="start" x="24.5" y="-18.5" font-family="Helvetica,sans-Serif" font-size="10.00" fill="#000000">+ Randomizer()</text>
<text text-anchor="start" x="24.5" y="-7.5" font-family="Helvetica,sans-Serif" font-size="10.00" fill="#000000">+ choose()</text>
</g>
<!-- Node3 -->
<g id="node2" class="node">
<title>Node3</title>
<g id="a_node2"><a xlink:href="classGameService.html" target="_top" xlink:title="{GameService\n||+ GameService()\l# GetService()\l}">
<polygon fill="none" stroke="#000000" points="13,-106.5 13,-174.5 114,-174.5 114,-106.5 13,-106.5"/>
<text text-anchor="middle" x="63.5" y="-162.5" font-family="Helvetica,sans-Serif" font-size="10.00" fill="#000000">GameService</text>
<polyline fill="none" stroke="#000000" points="13,-155.5 114,-155.5 "/>
<text text-anchor="middle" x="63.5" y="-143.5" font-family="Helvetica,sans-Serif" font-size="10.00" fill="#000000"> </text>
<polyline fill="none" stroke="#000000" points="13,-136.5 114,-136.5 "/>
<text text-anchor="start" x="21" y="-124.5" font-family="Helvetica,sans-Serif" font-size="10.00" fill="#000000">+ GameService()</text>
<text text-anchor="start" x="21" y="-113.5" font-family="Helvetica,sans-Serif" font-size="10.00" fill="#000000"># GetService()</text>
</a>
</g>
</g>
<!-- Node3&#45;&gt;Node2 -->
<g id="edge1" class="edge">
<title>Node3&#45;&gt;Node2</title>
<path fill="none" stroke="#191970" d="M63.5,-96.1711C63.5,-86.9405 63.5,-77.3493 63.5,-68.5586"/>
<polygon fill="none" stroke="#191970" points="60.0001,-96.3774 63.5,-106.3775 67.0001,-96.3775 60.0001,-96.3774"/>
</g>
<!-- Node4 -->
<g id="node3" class="node">
<title>Node4</title>
<g id="a_node3"><a xlink:href="structTupleType.html" target="_top" xlink:title="{TupleType\&lt; TypeList \&gt;\n||}">
<polygon fill="none" stroke="#000000" points="0,-222.5 0,-279.5 127,-279.5 127,-222.5 0,-222.5"/>
<text text-anchor="middle" x="63.5" y="-267.5" font-family="Helvetica,sans-Serif" font-size="10.00" fill="#000000">TupleType&lt; TypeList &gt;</text>
<polyline fill="none" stroke="#000000" points="0,-260.5 127,-260.5 "/>
<text text-anchor="middle" x="63.5" y="-248.5" font-family="Helvetica,sans-Serif" font-size="10.00" fill="#000000"> </text>
<polyline fill="none" stroke="#000000" points="0,-241.5 127,-241.5 "/>
<text text-anchor="middle" x="63.5" y="-229.5" font-family="Helvetica,sans-Serif" font-size="10.00" fill="#000000"> </text>
</a>
</g>
</g>
<!-- Node4&#45;&gt;Node3 -->
<g id="edge2" class="edge">
<title>Node4&#45;&gt;Node3</title>
<path fill="none" stroke="#404040" d="M63.5,-222.2559C63.5,-211.4349 63.5,-198.8362 63.5,-186.8169"/>
<polygon fill="none" stroke="#404040" points="63.5001,-186.6001 59.5,-180.6001 63.5,-174.6001 67.5,-180.6 63.5001,-186.6001"/>
<text text-anchor="middle" x="95.5" y="-196" font-family="Helvetica,sans-Serif" font-size="10.00" fill="#000000"> &#45;m_Services</text>
</g>
<!-- Node5 -->
<g id="node4" class="node">
<title>Node5</title>
<g id="a_node4"><a xlink:href="structTupleType.html" target="_top" xlink:title="TupleType::type returns std::tuple&lt;All fields inside the TypeList&gt; ">
<polygon fill="none" stroke="#000000" points="11.5,-327.5 11.5,-384.5 115.5,-384.5 115.5,-327.5 11.5,-327.5"/>
<text text-anchor="middle" x="63.5" y="-372.5" font-family="Helvetica,sans-Serif" font-size="10.00" fill="#000000">TupleType&lt; List &gt;</text>
<polyline fill="none" stroke="#000000" points="11.5,-365.5 115.5,-365.5 "/>
<text text-anchor="middle" x="63.5" y="-353.5" font-family="Helvetica,sans-Serif" font-size="10.00" fill="#000000"> </text>
<polyline fill="none" stroke="#000000" points="11.5,-346.5 115.5,-346.5 "/>
<text text-anchor="middle" x="63.5" y="-334.5" font-family="Helvetica,sans-Serif" font-size="10.00" fill="#000000"> </text>
</a>
</g>
</g>
<!-- Node5&#45;&gt;Node4 -->
<g id="edge3" class="edge">
<title>Node5&#45;&gt;Node4</title>
<path fill="none" stroke="#ffa500" d="M63.5,-317.192C63.5,-304.7605 63.5,-291.2278 63.5,-279.657"/>
<polygon fill="#ffa500" stroke="#ffa500" points="60.0001,-317.3083 63.5,-327.3083 67.0001,-317.3083 60.0001,-317.3083"/>
<text text-anchor="middle" x="96.5" y="-301" font-family="Helvetica,sans-Serif" font-size="10.00" fill="#000000"> &lt; TypeList &gt;</text>
</g>
</g>
</svg>
