<?xml version="1.0" encoding="UTF-8" standalone="no"?>
<!DOCTYPE svg PUBLIC "-//W3C//DTD SVG 1.1//EN"
 "http://www.w3.org/Graphics/SVG/1.1/DTD/svg11.dtd">
<!-- Generated by graphviz version 2.40.1 (20161225.0304)
 -->
<!-- Title: MapNode::isPlacementAllowed Pages: 1 -->
<!--zoomable 160 -->
<svg id="main" version="1.1" xmlns="http://www.w3.org/2000/svg" xmlns:xlink="http://www.w3.org/1999/xlink" xml:space="preserve" onload="init(evt)">
<style type="text/css"><![CDATA[
.edge:hover path { stroke: red; }
.edge:hover polygon { stroke: red; fill: red; }
]]></style>
<script type="text/javascript"><![CDATA[
var edges = document.getElementsByTagName('g');
if (edges && edges.length) {
  for (var i=0;i<edges.length;i++) {
    if (edges[i].id.substr(0,4)=='edge') {
      edges[i].setAttribute('class','edge');
    }
  }
}
]]></script>
        <defs>
                <circle id="rim" cx="0" cy="0" r="7"/>
                <circle id="rim2" cx="0" cy="0" r="3.5"/>
                <g id="zoomPlus">
                        <use xlink:href="#rim" fill="#404040">
                                <set attributeName="fill" to="#808080" begin="zoomplus.mouseover" end="zoomplus.mouseout"/>
                        </use>
                        <path d="M-4,0h8M0,-4v8" fill="none" stroke="white" stroke-width="1.5" pointer-events="none"/>
                </g>
                <g id="zoomMin">
                        <use xlink:href="#rim" fill="#404040">
                                <set attributeName="fill" to="#808080" begin="zoomminus.mouseover" end="zoomminus.mouseout"/>
                        </use>
                        <path d="M-4,0h8" fill="none" stroke="white" stroke-width="1.5" pointer-events="none"/>
                </g>
                <g id="dirArrow">
                        <path fill="none" stroke="white" stroke-width="1.5" d="M0,-3.0v7 M-2.5,-0.5L0,-3.0L2.5,-0.5"/>
                </g>
               <g id="resetDef">
                       <use xlink:href="#rim2" fill="#404040">
                               <set attributeName="fill" to="#808080" begin="reset.mouseover" end="reset.mouseout"/>
                       </use>
               </g>
        </defs>

<script type="text/javascript">
var viewWidth = 545;
var viewHeight = 160;
var sectionId = 'dynsection-19';
</script>
<script xlink:href="svgpan.js"/>
<svg id="graph" class="graph">
<g id="viewport">
<title>MapNode::isPlacementAllowed</title>
<!-- Node180 -->
<g id="node1" class="node">
<title>Node180</title>
<polygon fill="#bfbfbf" stroke="#000000" points="0,-76.5 0,-95.5 167,-95.5 167,-76.5 0,-76.5"/>
<text text-anchor="middle" x="83.5" y="-83.5" font-family="Helvetica,sans-Serif" font-size="10.00" fill="#000000">MapNode::isPlacementAllowed</text>
</g>
<!-- Node181 -->
<g id="node2" class="node">
<title>Node181</title>
<g id="a_node2"><a xlink:href="classSingleton.html#af5cb1e5749949e2b68416cfb8d378044" target="_top" xlink:title="Get an instance of the singleton. ">
<polygon fill="none" stroke="#000000" points="400,-112 400,-142 534,-142 534,-112 400,-112"/>
<text text-anchor="start" x="408" y="-130" font-family="Helvetica,sans-Serif" font-size="10.00" fill="#000000">Singleton&lt; TileManager</text>
<text text-anchor="middle" x="467" y="-119" font-family="Helvetica,sans-Serif" font-size="10.00" fill="#000000"> &gt;::instance</text>
</a>
</g>
</g>
<!-- Node180&#45;&gt;Node181 -->
<g id="edge1" class="edge">
<title>Node180&#45;&gt;Node181</title>
<path fill="none" stroke="#191970" d="M98.1731,-95.6738C119.9607,-109.3983 162.6458,-133.8686 203,-143 264.8481,-156.9951 336.7942,-151.2347 389.9453,-142.9604"/>
<polygon fill="#191970" stroke="#191970" points="390.6688,-146.3889 399.9799,-141.3339 389.5487,-139.4791 390.6688,-146.3889"/>
</g>
<!-- Node182 -->
<g id="node3" class="node">
<title>Node182</title>
<g id="a_node3"><a xlink:href="classTileManager.html#a8ee071ff8b24926288437d310f9bc714" target="_top" xlink:title="TileManager::getTileData">
<polygon fill="none" stroke="#000000" points="397,-73.5 397,-92.5 537,-92.5 537,-73.5 397,-73.5"/>
<text text-anchor="middle" x="467" y="-80.5" font-family="Helvetica,sans-Serif" font-size="10.00" fill="#000000">TileManager::getTileData</text>
</a>
</g>
</g>
<!-- Node180&#45;&gt;Node182 -->
<g id="edge2" class="edge">
<title>Node180&#45;&gt;Node182</title>
<path fill="none" stroke="#191970" d="M132.1309,-76.4869C153.7402,-72.7213 179.5451,-68.853 203,-67 273.0041,-61.4696 290.9747,-61.7448 361,-67 375.0382,-68.0535 390.0348,-69.8813 404.1978,-71.9339"/>
<polygon fill="#191970" stroke="#191970" points="403.9281,-75.4326 414.3377,-73.4603 404.9702,-68.5106 403.9281,-75.4326"/>
</g>
<!-- Node183 -->
<g id="node4" class="node">
<title>Node183</title>
<g id="a_node4"><a xlink:href="classTileManager.html#a105151a0c336807e918aff002ffd6101" target="_top" xlink:title="TileManager::getTileLayer">
<polygon fill="none" stroke="#000000" points="210.5,-76.5 210.5,-95.5 353.5,-95.5 353.5,-76.5 210.5,-76.5"/>
<text text-anchor="middle" x="282" y="-83.5" font-family="Helvetica,sans-Serif" font-size="10.00" fill="#000000">TileManager::getTileLayer</text>
</a>
</g>
</g>
<!-- Node180&#45;&gt;Node183 -->
<g id="edge3" class="edge">
<title>Node180&#45;&gt;Node183</title>
<path fill="none" stroke="#191970" d="M167.1066,-86C178.0265,-86 189.2056,-86 200.097,-86"/>
<polygon fill="#191970" stroke="#191970" points="200.4334,-89.5001 210.4334,-86 200.4333,-82.5001 200.4334,-89.5001"/>
</g>
<!-- Node184 -->
<g id="node5" class="node">
<title>Node184</title>
<g id="a_node5"><a xlink:href="classMapNode.html#ae38d4ab8e73fc9c44e404f3c9a196953" target="_top" xlink:title="MapNode::isLayerOccupied">
<polygon fill="none" stroke="#000000" points="207.5,-.5 207.5,-19.5 356.5,-19.5 356.5,-.5 207.5,-.5"/>
<text text-anchor="middle" x="282" y="-7.5" font-family="Helvetica,sans-Serif" font-size="10.00" fill="#000000">MapNode::isLayerOccupied</text>
</a>
</g>
</g>
<!-- Node180&#45;&gt;Node184 -->
<g id="edge6" class="edge">
<title>Node180&#45;&gt;Node184</title>
<path fill="none" stroke="#191970" d="M103.5087,-76.4452C127.0115,-65.4212 167.3286,-47.1297 203,-34 214.1325,-29.9024 226.3233,-25.946 237.7247,-22.4676"/>
<polygon fill="#191970" stroke="#191970" points="238.9185,-25.7638 247.4944,-19.5425 236.9107,-19.0579 238.9185,-25.7638"/>
</g>
<!-- Node185 -->
<g id="node6" class="node">
<title>Node185</title>
<g id="a_node6"><a xlink:href="classMapNode.html#aefd2e99e5bdde9925a5611ac2175492c" target="_top" xlink:title="tileID placeable on slope tile. check if tileID is placeable on slope. ">
<polygon fill="none" stroke="#000000" points="203,-114.5 203,-133.5 361,-133.5 361,-114.5 203,-114.5"/>
<text text-anchor="middle" x="282" y="-121.5" font-family="Helvetica,sans-Serif" font-size="10.00" fill="#000000">MapNode::isPlacableOnSlope</text>
</a>
</g>
</g>
<!-- Node180&#45;&gt;Node185 -->
<g id="edge7" class="edge">
<title>Node180&#45;&gt;Node185</title>
<path fill="none" stroke="#191970" d="M133.3337,-95.54C160.2339,-100.6896 193.6362,-107.084 221.9614,-112.5065"/>
<polygon fill="#191970" stroke="#191970" points="221.666,-116.0134 232.1458,-114.4561 222.9822,-109.1382 221.666,-116.0134"/>
</g>
<!-- Node183&#45;&gt;Node181 -->
<g id="edge4" class="edge">
<title>Node183&#45;&gt;Node181</title>
<path fill="none" stroke="#191970" d="M324.9077,-95.5093C344.2477,-99.7954 367.6941,-104.9917 389.9185,-109.9171"/>
<polygon fill="#191970" stroke="#191970" points="389.167,-113.3354 399.6874,-112.0821 390.6816,-106.5012 389.167,-113.3354"/>
</g>
<!-- Node183&#45;&gt;Node182 -->
<g id="edge5" class="edge">
<title>Node183&#45;&gt;Node182</title>
<path fill="none" stroke="#191970" d="M353.5258,-84.8401C364.4244,-84.6634 375.733,-84.48 386.8024,-84.3005"/>
<polygon fill="#191970" stroke="#191970" points="386.9403,-87.7988 396.8822,-84.137 386.8267,-80.7997 386.9403,-87.7988"/>
</g>
<!-- Node185&#45;&gt;Node181 -->
<g id="edge8" class="edge">
<title>Node185&#45;&gt;Node181</title>
<path fill="none" stroke="#191970" d="M361.2617,-125.2853C370.6964,-125.4383 380.3187,-125.5944 389.7251,-125.7469"/>
<polygon fill="#191970" stroke="#191970" points="389.7726,-129.248 399.828,-125.9107 389.8861,-122.2489 389.7726,-129.248"/>
</g>
<!-- Node185&#45;&gt;Node182 -->
<g id="edge9" class="edge">
<title>Node185&#45;&gt;Node182</title>
<path fill="none" stroke="#191970" d="M324.9077,-114.4907C351.4309,-108.6126 385.6775,-101.0228 413.9037,-94.7673"/>
<polygon fill="#191970" stroke="#191970" points="414.9991,-98.1095 424.0049,-92.5286 413.4845,-91.2753 414.9991,-98.1095"/>
</g>
</g>
</svg>
        <g id="navigator" transform="translate(0 0)" fill="#404254">
                <rect fill="#f2f5e9" fill-opacity="0.5" stroke="#606060" stroke-width=".5" x="0" y="0" width="60" height="60"/>
                <use id="zoomplus" xlink:href="#zoomPlus" x="17" y="9" onmousedown="handleZoom(evt,'in')"/>
                <use id="zoomminus" xlink:href="#zoomMin" x="42" y="9" onmousedown="handleZoom(evt,'out')"/>
                <use id="reset" xlink:href="#resetDef" x="30" y="36" onmousedown="handleReset()"/>
                <g id="arrowUp" xlink:href="#dirArrow" transform="translate(30 24)" onmousedown="handlePan(0,-1)">
                  <use xlink:href="#rim" fill="#404040">
                        <set attributeName="fill" to="#808080" begin="arrowUp.mouseover" end="arrowUp.mouseout"/>
                  </use>
                  <path fill="none" stroke="white" stroke-width="1.5" d="M0,-3.0v7 M-2.5,-0.5L0,-3.0L2.5,-0.5"/>
                </g>
                <g id="arrowRight" xlink:href="#dirArrow" transform="rotate(90) translate(36 -43)" onmousedown="handlePan(1,0)">
                  <use xlink:href="#rim" fill="#404040">
                        <set attributeName="fill" to="#808080" begin="arrowRight.mouseover" end="arrowRight.mouseout"/>
                  </use>
                  <path fill="none" stroke="white" stroke-width="1.5" d="M0,-3.0v7 M-2.5,-0.5L0,-3.0L2.5,-0.5"/>
                </g>
                <g id="arrowDown" xlink:href="#dirArrow" transform="rotate(180) translate(-30 -48)" onmousedown="handlePan(0,1)">
                  <use xlink:href="#rim" fill="#404040">
                        <set attributeName="fill" to="#808080" begin="arrowDown.mouseover" end="arrowDown.mouseout"/>
                  </use>
                  <path fill="none" stroke="white" stroke-width="1.5" d="M0,-3.0v7 M-2.5,-0.5L0,-3.0L2.5,-0.5"/>
                </g>
                <g id="arrowLeft" xlink:href="#dirArrow" transform="rotate(270) translate(-36 17)" onmousedown="handlePan(-1,0)">
                  <use xlink:href="#rim" fill="#404040">
                        <set attributeName="fill" to="#808080" begin="arrowLeft.mouseover" end="arrowLeft.mouseout"/>
                  </use>
                  <path fill="none" stroke="white" stroke-width="1.5" d="M0,-3.0v7 M-2.5,-0.5L0,-3.0L2.5,-0.5"/>
                </g>
        </g>
        <svg viewBox="0 0 15 15" width="100%" height="30px" preserveAspectRatio="xMaxYMin meet">
         <g id="arrow_out" transform="scale(0.3 0.3)">
          <a xlink:href="classMapNode_a3d88c4eff75c599fb6fd37afd1c882b6_cgraph_org.svg" target="_base">
           <rect id="button" ry="5" rx="5" y="6" x="6" height="38" width="38"
                fill="#f2f5e9" fill-opacity="0.5" stroke="#606060" stroke-width="1.0"/>
           <path id="arrow"
             d="M 11.500037,31.436501 C 11.940474,20.09759 22.043105,11.32322 32.158766,21.979434 L 37.068811,17.246167 C 37.068811,17.246167 37.088388,32 37.088388,32 L 22.160133,31.978069 C 22.160133,31.978069 26.997745,27.140456 26.997745,27.140456 C 18.528582,18.264221 13.291696,25.230495 11.500037,31.436501 z"
             style="fill:#404040;"/>
          </a>
         </g>
        </svg>
</svg>
