<?xml version="1.0" encoding="UTF-8" standalone="no"?>
<!DOCTYPE svg PUBLIC "-//W3C//DTD SVG 1.1//EN"
 "http://www.w3.org/Graphics/SVG/1.1/DTD/svg11.dtd">
<!-- Generated by graphviz version 2.40.1 (20161225.0304)
 -->
<!-- Title: TerrainGenerator Pages: 1 -->
<svg width="183pt" height="397pt"
 viewBox="0.00 0.00 182.50 397.00" xmlns="http://www.w3.org/2000/svg" xmlns:xlink="http://www.w3.org/1999/xlink">
<g id="graph0" class="graph" transform="scale(1 1) rotate(0) translate(4 393)">
<title>TerrainGenerator</title>
<!-- Node1 -->
<g id="node1" class="node">
<title>Node1</title>
<polygon fill="#bfbfbf" stroke="#000000" points="0,-.5 0,-90.5 161,-90.5 161,-.5 0,-.5"/>
<text text-anchor="middle" x="80.5" y="-78.5" font-family="Helvetica,sans-Serif" font-size="10.00" fill="#000000">TerrainGenerator</text>
<polyline fill="none" stroke="#000000" points="0,-71.5 161,-71.5 "/>
<text text-anchor="start" x="8" y="-59.5" font-family="Helvetica,sans-Serif" font-size="10.00" fill="#000000">&#45; m_biomeInformation</text>
<polyline fill="none" stroke="#000000" points="0,-52.5 161,-52.5 "/>
<text text-anchor="start" x="8" y="-40.5" font-family="Helvetica,sans-Serif" font-size="10.00" fill="#000000">+ TerrainGenerator()</text>
<text text-anchor="start" x="8" y="-29.5" font-family="Helvetica,sans-Serif" font-size="10.00" fill="#000000">+ ~TerrainGenerator()</text>
<text text-anchor="start" x="8" y="-18.5" font-family="Helvetica,sans-Serif" font-size="10.00" fill="#000000">+ generateTerrain()</text>
<text text-anchor="start" x="8" y="-7.5" font-family="Helvetica,sans-Serif" font-size="10.00" fill="#000000">+ loadTerrainDataFromJSON()</text>
</g>
<!-- Node2 -->
<g id="node2" class="node">
<title>Node2</title>
<g id="a_node2"><a xlink:href="structTerrainSettings.html" target="_top" xlink:title="{TerrainSettings\n|+ mapSize\l+ seed\l+ seaLevel\l+ treeDensity\l+ mountainAmplitude\l+ waterAmount\l+ coasts\l+ rivers\l|}">
<polygon fill="none" stroke="#000000" points="18,-138.5 18,-272.5 143,-272.5 143,-138.5 18,-138.5"/>
<text text-anchor="middle" x="80.5" y="-260.5" font-family="Helvetica,sans-Serif" font-size="10.00" fill="#000000">TerrainSettings</text>
<polyline fill="none" stroke="#000000" points="18,-253.5 143,-253.5 "/>
<text text-anchor="start" x="26" y="-241.5" font-family="Helvetica,sans-Serif" font-size="10.00" fill="#000000">+ mapSize</text>
<text text-anchor="start" x="26" y="-230.5" font-family="Helvetica,sans-Serif" font-size="10.00" fill="#000000">+ seed</text>
<text text-anchor="start" x="26" y="-219.5" font-family="Helvetica,sans-Serif" font-size="10.00" fill="#000000">+ seaLevel</text>
<text text-anchor="start" x="26" y="-208.5" font-family="Helvetica,sans-Serif" font-size="10.00" fill="#000000">+ treeDensity</text>
<text text-anchor="start" x="26" y="-197.5" font-family="Helvetica,sans-Serif" font-size="10.00" fill="#000000">+ mountainAmplitude</text>
<text text-anchor="start" x="26" y="-186.5" font-family="Helvetica,sans-Serif" font-size="10.00" fill="#000000">+ waterAmount</text>
<text text-anchor="start" x="26" y="-175.5" font-family="Helvetica,sans-Serif" font-size="10.00" fill="#000000">+ coasts</text>
<text text-anchor="start" x="26" y="-164.5" font-family="Helvetica,sans-Serif" font-size="10.00" fill="#000000">+ rivers</text>
<polyline fill="none" stroke="#000000" points="18,-157.5 143,-157.5 "/>
<text text-anchor="middle" x="80.5" y="-145.5" font-family="Helvetica,sans-Serif" font-size="10.00" fill="#000000"> </text>
</a>
</g>
</g>
<!-- Node2&#45;&gt;Node1 -->
<g id="edge1" class="edge">
<title>Node2&#45;&gt;Node1</title>
<path fill="none" stroke="#404040" d="M80.5,-138.1093C80.5,-126.3182 80.5,-114.1523 80.5,-102.6709"/>
<polygon fill="none" stroke="#404040" points="80.5001,-102.5314 76.5,-96.5314 80.5,-90.5314 84.5,-96.5313 80.5001,-102.5314"/>
<text text-anchor="middle" x="127.5" y="-112" font-family="Helvetica,sans-Serif" font-size="10.00" fill="#000000"> &#45;m_terrainSettings</text>
</g>
<!-- Node3 -->
<g id="node3" class="node">
<title>Node3</title>
<polygon fill="none" stroke="#bfbfbf" points="58.5,-331.5 58.5,-388.5 102.5,-388.5 102.5,-331.5 58.5,-331.5"/>
<text text-anchor="middle" x="80.5" y="-376.5" font-family="Helvetica,sans-Serif" font-size="10.00" fill="#000000">string</text>
<polyline fill="none" stroke="#bfbfbf" points="58.5,-369.5 102.5,-369.5 "/>
<text text-anchor="middle" x="80.5" y="-357.5" font-family="Helvetica,sans-Serif" font-size="10.00" fill="#000000"> </text>
<polyline fill="none" stroke="#bfbfbf" points="58.5,-350.5 102.5,-350.5 "/>
<text text-anchor="middle" x="80.5" y="-338.5" font-family="Helvetica,sans-Serif" font-size="10.00" fill="#000000"> </text>
</g>
<!-- Node3&#45;&gt;Node2 -->
<g id="edge2" class="edge">
<title>Node3&#45;&gt;Node2</title>
<path fill="none" stroke="#404040" d="M80.5,-331.3018C80.5,-317.9597 80.5,-301.368 80.5,-284.6572"/>
<polygon fill="none" stroke="#404040" points="80.5001,-284.513 76.5,-278.513 80.5,-272.513 84.5,-278.5129 80.5001,-284.513"/>
<text text-anchor="middle" x="110" y="-305" font-family="Helvetica,sans-Serif" font-size="10.00" fill="#000000"> +advanced</text>
<text text-anchor="middle" x="110" y="-294" font-family="Helvetica,sans-Serif" font-size="10.00" fill="#000000">+biomes</text>
</g>
</g>
</svg>
