<?xml version="1.0" encoding="UTF-8" standalone="no"?>
<!DOCTYPE svg PUBLIC "-//W3C//DTD SVG 1.1//EN"
 "http://www.w3.org/Graphics/SVG/1.1/DTD/svg11.dtd">
<!-- Generated by graphviz version 2.40.1 (20161225.0304)
 -->
<!-- Title: ButtonGroup::onMouseButtonUp Pages: 1 -->
<!--zoomable 111 -->
<svg id="main" version="1.1" xmlns="http://www.w3.org/2000/svg" xmlns:xlink="http://www.w3.org/1999/xlink" xml:space="preserve" onload="init(evt)">
<style type="text/css"><![CDATA[
.edge:hover path { stroke: red; }
.edge:hover polygon { stroke: red; fill: red; }
]]></style>
<script type="text/javascript"><![CDATA[
var edges = document.getElementsByTagName('g');
if (edges && edges.length) {
  for (var i=0;i<edges.length;i++) {
    if (edges[i].id.substr(0,4)=='edge') {
      edges[i].setAttribute('class','edge');
    }
  }
}
]]></script>
        <defs>
                <circle id="rim" cx="0" cy="0" r="7"/>
                <circle id="rim2" cx="0" cy="0" r="3.5"/>
                <g id="zoomPlus">
                        <use xlink:href="#rim" fill="#404040">
                                <set attributeName="fill" to="#808080" begin="zoomplus.mouseover" end="zoomplus.mouseout"/>
                        </use>
                        <path d="M-4,0h8M0,-4v8" fill="none" stroke="white" stroke-width="1.5" pointer-events="none"/>
                </g>
                <g id="zoomMin">
                        <use xlink:href="#rim" fill="#404040">
                                <set attributeName="fill" to="#808080" begin="zoomminus.mouseover" end="zoomminus.mouseout"/>
                        </use>
                        <path d="M-4,0h8" fill="none" stroke="white" stroke-width="1.5" pointer-events="none"/>
                </g>
                <g id="dirArrow">
                        <path fill="none" stroke="white" stroke-width="1.5" d="M0,-3.0v7 M-2.5,-0.5L0,-3.0L2.5,-0.5"/>
                </g>
               <g id="resetDef">
                       <use xlink:href="#rim2" fill="#404040">
                               <set attributeName="fill" to="#808080" begin="reset.mouseover" end="reset.mouseout"/>
                       </use>
               </g>
        </defs>

<script type="text/javascript">
var viewWidth = 959;
var viewHeight = 111;
var sectionId = 'dynsection-2';
</script>
<script xlink:href="svgpan.js"/>
<svg id="graph" class="graph">
<g id="viewport">
<title>ButtonGroup::onMouseButtonUp</title>
<!-- Node12 -->
<g id="node1" class="node">
<title>Node12</title>
<polygon fill="#bfbfbf" stroke="#000000" points="0,-44.5 0,-63.5 173,-63.5 173,-44.5 0,-44.5"/>
<text text-anchor="middle" x="86.5" y="-51.5" font-family="Helvetica,sans-Serif" font-size="10.00" fill="#000000">ButtonGroup::onMouseButtonUp</text>
</g>
<!-- Node13 -->
<g id="node2" class="node">
<title>Node13</title>
<g id="a_node2"><a xlink:href="classButtonGroup.html#aa1a05dec9459ad23e5d7028fa9d35850" target="_top" xlink:title="Function to call the uncheck event of buttons. Function to call the uncheck event of buttons...">
<polygon fill="none" stroke="#000000" points="209,-44.5 209,-63.5 384,-63.5 384,-44.5 209,-44.5"/>
<text text-anchor="middle" x="296.5" y="-51.5" font-family="Helvetica,sans-Serif" font-size="10.00" fill="#000000">ButtonGroup::uncheckAllButtons</text>
</a>
</g>
</g>
<!-- Node12&#45;&gt;Node13 -->
<g id="edge1" class="edge">
<title>Node12&#45;&gt;Node13</title>
<path fill="none" stroke="#191970" d="M173.1275,-54C181.4811,-54 189.9948,-54 198.4483,-54"/>
<polygon fill="#191970" stroke="#191970" points="198.7149,-57.5001 208.7149,-54 198.7148,-50.5001 198.7149,-57.5001"/>
</g>
<!-- Node14 -->
<g id="node3" class="node">
<title>Node14</title>
<g id="a_node3"><a xlink:href="classSingleton.html#af5cb1e5749949e2b68416cfb8d378044" target="_top" xlink:title="Get an instance of the singleton. ">
<polygon fill="none" stroke="#000000" points="815.5,-72 815.5,-102 941.5,-102 941.5,-72 815.5,-72"/>
<text text-anchor="start" x="823.5" y="-90" font-family="Helvetica,sans-Serif" font-size="10.00" fill="#000000">Singleton&lt; UIManager</text>
<text text-anchor="middle" x="878.5" y="-79" font-family="Helvetica,sans-Serif" font-size="10.00" fill="#000000"> &gt;::instance</text>
</a>
</g>
</g>
<!-- Node13&#45;&gt;Node14 -->
<g id="edge2" class="edge">
<title>Node13&#45;&gt;Node14</title>
<path fill="none" stroke="#191970" d="M334.3293,-63.5207C358.6299,-69.1723 390.9677,-75.835 420,-79 555.2673,-93.7465 714.2844,-92.3684 805.0467,-89.8233"/>
<polygon fill="#191970" stroke="#191970" points="805.338,-93.3164 815.2311,-89.5247 805.1328,-86.3194 805.338,-93.3164"/>
</g>
<!-- Node15 -->
<g id="node4" class="node">
<title>Node15</title>
<g id="a_node4"><a xlink:href="classUIManager.html#ae36c85bbe403bcf7f441174caedb6606" target="_top" xlink:title="Get the UiElements Of aroup get Elements that are in UiGroup (m_uiGroups) ">
<polygon fill="none" stroke="#000000" points="420,-39 420,-69 567,-69 567,-39 420,-39"/>
<text text-anchor="start" x="428" y="-57" font-family="Helvetica,sans-Serif" font-size="10.00" fill="#000000">UIManager::getUiElements</text>
<text text-anchor="middle" x="493.5" y="-46" font-family="Helvetica,sans-Serif" font-size="10.00" fill="#000000">OfGroup</text>
</a>
</g>
</g>
<!-- Node13&#45;&gt;Node15 -->
<g id="edge3" class="edge">
<title>Node13&#45;&gt;Node15</title>
<path fill="none" stroke="#191970" d="M384.0543,-54C392.5289,-54 401.113,-54 409.5513,-54"/>
<polygon fill="#191970" stroke="#191970" points="409.7549,-57.5001 419.7548,-54 409.7548,-50.5001 409.7549,-57.5001"/>
</g>
<!-- Node16 -->
<g id="node5" class="node">
<title>Node16</title>
<g id="a_node5"><a xlink:href="classButton.html#a25f11ea415fdbb64cb897421bf746918" target="_top" xlink:title="Button::setCheckState">
<polygon fill="none" stroke="#000000" points="431,-.5 431,-19.5 556,-19.5 556,-.5 431,-.5"/>
<text text-anchor="middle" x="493.5" y="-7.5" font-family="Helvetica,sans-Serif" font-size="10.00" fill="#000000">Button::setCheckState</text>
</a>
</g>
</g>
<!-- Node13&#45;&gt;Node16 -->
<g id="edge4" class="edge">
<title>Node13&#45;&gt;Node16</title>
<path fill="none" stroke="#191970" d="M339.2461,-44.4527C369.0627,-37.7931 409.0423,-28.8637 440.8284,-21.7642"/>
<polygon fill="#191970" stroke="#191970" points="441.8408,-25.1244 450.8374,-19.5287 440.3149,-18.2927 441.8408,-25.1244"/>
</g>
<!-- Node17 -->
<g id="node6" class="node">
<title>Node17</title>
<g id="a_node6"><a xlink:href="classUIElement.html#ade4162d6216022e143c769369b64add7" target="_top" xlink:title="Set the button state Sets the mouse button pressed state. ">
<polygon fill="none" stroke="#000000" points="603,-11.5 603,-30.5 770,-30.5 770,-11.5 603,-11.5"/>
<text text-anchor="middle" x="686.5" y="-18.5" font-family="Helvetica,sans-Serif" font-size="10.00" fill="#000000">UIElement::changeButtonState</text>
</a>
</g>
</g>
<!-- Node16&#45;&gt;Node17 -->
<g id="edge5" class="edge">
<title>Node16&#45;&gt;Node17</title>
<path fill="none" stroke="#191970" d="M556.1616,-13.5714C567.7703,-14.233 580.1271,-14.9373 592.4311,-15.6386"/>
<polygon fill="#191970" stroke="#191970" points="592.5535,-19.1511 602.7365,-16.2259 592.9519,-12.1625 592.5535,-19.1511"/>
</g>
<!-- Node17&#45;&gt;Node14 -->
<g id="edge7" class="edge">
<title>Node17&#45;&gt;Node14</title>
<path fill="none" stroke="#191970" d="M714.4184,-30.597C743.2239,-40.4988 788.8781,-56.1925 824.7239,-68.5145"/>
<polygon fill="#191970" stroke="#191970" points="823.9573,-71.9519 834.552,-71.8929 826.2329,-65.3321 823.9573,-71.9519"/>
</g>
<!-- Node18 -->
<g id="node7" class="node">
<title>Node18</title>
<g id="a_node7"><a xlink:href="classUIElement.html#afdf67550d4140097c7a328d4b22fc1fe" target="_top" xlink:title="UIElement::changeTexture">
<polygon fill="none" stroke="#000000" points="806,-11.5 806,-30.5 951,-30.5 951,-11.5 806,-11.5"/>
<text text-anchor="middle" x="878.5" y="-18.5" font-family="Helvetica,sans-Serif" font-size="10.00" fill="#000000">UIElement::changeTexture</text>
</a>
</g>
</g>
<!-- Node17&#45;&gt;Node18 -->
<g id="edge6" class="edge">
<title>Node17&#45;&gt;Node18</title>
<path fill="none" stroke="#191970" d="M770.1555,-21C778.633,-21 787.2412,-21 795.7095,-21"/>
<polygon fill="#191970" stroke="#191970" points="795.9516,-24.5001 805.9515,-21 795.9515,-17.5001 795.9516,-24.5001"/>
</g>
</g>
</svg>
        <g id="navigator" transform="translate(0 0)" fill="#404254">
                <rect fill="#f2f5e9" fill-opacity="0.5" stroke="#606060" stroke-width=".5" x="0" y="0" width="60" height="60"/>
                <use id="zoomplus" xlink:href="#zoomPlus" x="17" y="9" onmousedown="handleZoom(evt,'in')"/>
                <use id="zoomminus" xlink:href="#zoomMin" x="42" y="9" onmousedown="handleZoom(evt,'out')"/>
                <use id="reset" xlink:href="#resetDef" x="30" y="36" onmousedown="handleReset()"/>
                <g id="arrowUp" xlink:href="#dirArrow" transform="translate(30 24)" onmousedown="handlePan(0,-1)">
                  <use xlink:href="#rim" fill="#404040">
                        <set attributeName="fill" to="#808080" begin="arrowUp.mouseover" end="arrowUp.mouseout"/>
                  </use>
                  <path fill="none" stroke="white" stroke-width="1.5" d="M0,-3.0v7 M-2.5,-0.5L0,-3.0L2.5,-0.5"/>
                </g>
                <g id="arrowRight" xlink:href="#dirArrow" transform="rotate(90) translate(36 -43)" onmousedown="handlePan(1,0)">
                  <use xlink:href="#rim" fill="#404040">
                        <set attributeName="fill" to="#808080" begin="arrowRight.mouseover" end="arrowRight.mouseout"/>
                  </use>
                  <path fill="none" stroke="white" stroke-width="1.5" d="M0,-3.0v7 M-2.5,-0.5L0,-3.0L2.5,-0.5"/>
                </g>
                <g id="arrowDown" xlink:href="#dirArrow" transform="rotate(180) translate(-30 -48)" onmousedown="handlePan(0,1)">
                  <use xlink:href="#rim" fill="#404040">
                        <set attributeName="fill" to="#808080" begin="arrowDown.mouseover" end="arrowDown.mouseout"/>
                  </use>
                  <path fill="none" stroke="white" stroke-width="1.5" d="M0,-3.0v7 M-2.5,-0.5L0,-3.0L2.5,-0.5"/>
                </g>
                <g id="arrowLeft" xlink:href="#dirArrow" transform="rotate(270) translate(-36 17)" onmousedown="handlePan(-1,0)">
                  <use xlink:href="#rim" fill="#404040">
                        <set attributeName="fill" to="#808080" begin="arrowLeft.mouseover" end="arrowLeft.mouseout"/>
                  </use>
                  <path fill="none" stroke="white" stroke-width="1.5" d="M0,-3.0v7 M-2.5,-0.5L0,-3.0L2.5,-0.5"/>
                </g>
        </g>
        <svg viewBox="0 0 15 15" width="100%" height="30px" preserveAspectRatio="xMaxYMin meet">
         <g id="arrow_out" transform="scale(0.3 0.3)">
          <a xlink:href="classButtonGroup_a295239eeae8b6c52735fe0cc7a093741_cgraph_org.svg" target="_base">
           <rect id="button" ry="5" rx="5" y="6" x="6" height="38" width="38"
                fill="#f2f5e9" fill-opacity="0.5" stroke="#606060" stroke-width="1.0"/>
           <path id="arrow"
             d="M 11.500037,31.436501 C 11.940474,20.09759 22.043105,11.32322 32.158766,21.979434 L 37.068811,17.246167 C 37.068811,17.246167 37.088388,32 37.088388,32 L 22.160133,31.978069 C 22.160133,31.978069 26.997745,27.140456 26.997745,27.140456 C 18.528582,18.264221 13.291696,25.230495 11.500037,31.436501 z"
             style="fill:#404040;"/>
          </a>
         </g>
        </svg>
</svg>
