<?xml version="1.0" encoding="UTF-8" standalone="no"?>
<!DOCTYPE svg PUBLIC "-//W3C//DTD SVG 1.1//EN"
 "http://www.w3.org/Graphics/SVG/1.1/DTD/svg11.dtd">
<!-- Generated by graphviz version 2.40.1 (20161225.0304)
 -->
<!-- Title: UIElement::setTextureID Pages: 1 -->
<svg width="601pt" height="116pt"
 viewBox="0.00 0.00 601.00 116.00" xmlns="http://www.w3.org/2000/svg" xmlns:xlink="http://www.w3.org/1999/xlink">
<g id="graph0" class="graph" transform="scale(1 1) rotate(0) translate(4 112)">
<title>UIElement::setTextureID</title>
<!-- Node253 -->
<g id="node1" class="node">
<title>Node253</title>
<polygon fill="#bfbfbf" stroke="#000000" points="0,-44.5 0,-63.5 135,-63.5 135,-44.5 0,-44.5"/>
<text text-anchor="middle" x="67.5" y="-51.5" font-family="Helvetica,sans-Serif" font-size="10.00" fill="#000000">UIElement::setTextureID</text>
</g>
<!-- Node254 -->
<g id="node2" class="node">
<title>Node254</title>
<g id="a_node2"><a xlink:href="classUIElement.html#a9c4439b91bcb765d0616616fbfe2a44a" target="_top" xlink:title="Get the uiElements tooltip text Get the tooltip text for this ui element. Tooltip is shown when hover...">
<polygon fill="none" stroke="#000000" points="172,-88.5 172,-107.5 322,-107.5 322,-88.5 172,-88.5"/>
<text text-anchor="middle" x="247" y="-95.5" font-family="Helvetica,sans-Serif" font-size="10.00" fill="#000000">UIElement::setUIElementID</text>
</a>
</g>
</g>
<!-- Node253&#45;&gt;Node254 -->
<g id="edge1" class="edge">
<title>Node253&#45;&gt;Node254</title>
<path fill="none" stroke="#191970" d="M116.3281,-65.969C145.1802,-73.0414 181.2116,-81.8736 208.1272,-88.4713"/>
<polygon fill="#191970" stroke="#191970" points="116.9946,-62.5288 106.4488,-63.5473 115.328,-69.3276 116.9946,-62.5288"/>
</g>
<!-- Node256 -->
<g id="node4" class="node">
<title>Node256</title>
<g id="a_node4"><a xlink:href="classUIManager.html#a007e9b56a4835b98db2b203df96ea79d" target="_top" xlink:title="Draws the tile (defined by the string, tiledata pair) onto the button. ">
<polygon fill="none" stroke="#000000" points="171,-39 171,-69 323,-69 323,-39 171,-39"/>
<text text-anchor="start" x="179" y="-57" font-family="Helvetica,sans-Serif" font-size="10.00" fill="#000000">UIManager::setupButtonTile</text>
<text text-anchor="middle" x="247" y="-46" font-family="Helvetica,sans-Serif" font-size="10.00" fill="#000000">Image</text>
</a>
</g>
</g>
<!-- Node253&#45;&gt;Node256 -->
<g id="edge3" class="edge">
<title>Node253&#45;&gt;Node256</title>
<path fill="none" stroke="#191970" d="M145.3008,-54C153.7342,-54 162.3109,-54 170.7259,-54"/>
<polygon fill="#191970" stroke="#191970" points="145.1055,-50.5001 135.1055,-54 145.1054,-57.5001 145.1055,-50.5001"/>
</g>
<!-- Node257 -->
<g id="node5" class="node">
<title>Node257</title>
<g id="a_node5"><a xlink:href="classGame.html#a5ed7fc5be77080f7f6dd5363f7f007a1" target="_top" xlink:title="initializes and displays the main menu initializes and displays the main menu ">
<polygon fill="none" stroke="#000000" points="195.5,-.5 195.5,-19.5 298.5,-19.5 298.5,-.5 195.5,-.5"/>
<text text-anchor="middle" x="247" y="-7.5" font-family="Helvetica,sans-Serif" font-size="10.00" fill="#000000">Game::mainMenu</text>
</a>
</g>
</g>
<!-- Node253&#45;&gt;Node257 -->
<g id="edge5" class="edge">
<title>Node253&#45;&gt;Node257</title>
<path fill="none" stroke="#191970" d="M116.3281,-42.031C145.1802,-34.9586 181.2116,-26.1264 208.1272,-19.5287"/>
<polygon fill="#191970" stroke="#191970" points="115.328,-38.6724 106.4488,-44.4527 116.9946,-45.4712 115.328,-38.6724"/>
</g>
<!-- Node255 -->
<g id="node3" class="node">
<title>Node255</title>
<g id="a_node3"><a xlink:href="classUIManager.html#aae7a89e9d50bb6192e4140e07bd5f94b" target="_top" xlink:title="UIManager::createBuildMenu">
<polygon fill="none" stroke="#000000" points="359,-66.5 359,-85.5 516,-85.5 516,-66.5 359,-66.5"/>
<text text-anchor="middle" x="437.5" y="-73.5" font-family="Helvetica,sans-Serif" font-size="10.00" fill="#000000">UIManager::createBuildMenu</text>
</a>
</g>
</g>
<!-- Node254&#45;&gt;Node255 -->
<g id="edge2" class="edge">
<title>Node254&#45;&gt;Node255</title>
<path fill="none" stroke="#191970" d="M332.01,-88.1826C340.9212,-87.1535 349.9534,-86.1104 358.7896,-85.0899"/>
<polygon fill="#191970" stroke="#191970" points="331.5496,-84.7124 322.0172,-89.3366 332.3527,-91.6662 331.5496,-84.7124"/>
</g>
<!-- Node256&#45;&gt;Node255 -->
<g id="edge4" class="edge">
<title>Node256&#45;&gt;Node255</title>
<path fill="none" stroke="#191970" d="M333.0719,-63.9401C341.6093,-64.926 350.246,-65.9234 358.7042,-66.9002"/>
<polygon fill="#191970" stroke="#191970" points="333.4475,-60.4603 323.1119,-62.7898 332.6443,-67.414 333.4475,-60.4603"/>
</g>
<!-- Node258 -->
<g id="node6" class="node">
<title>Node258</title>
<g id="a_node6"><a xlink:href="main_8cxx.html#af582d708d899e67ead623eac34a22387" target="_top" xlink:title="protected_main">
<polygon fill="none" stroke="#000000" points="391,-.5 391,-19.5 484,-19.5 484,-.5 391,-.5"/>
<text text-anchor="middle" x="437.5" y="-7.5" font-family="Helvetica,sans-Serif" font-size="10.00" fill="#000000">protected_main</text>
</a>
</g>
</g>
<!-- Node257&#45;&gt;Node258 -->
<g id="edge6" class="edge">
<title>Node257&#45;&gt;Node258</title>
<path fill="none" stroke="#191970" d="M308.5661,-10C335.2673,-10 366.0221,-10 390.7965,-10"/>
<polygon fill="#191970" stroke="#191970" points="308.5521,-6.5001 298.552,-10 308.552,-13.5001 308.5521,-6.5001"/>
</g>
<!-- Node259 -->
<g id="node7" class="node">
<title>Node259</title>
<g id="a_node7"><a xlink:href="main_8cxx.html#a3c04138a5bfe5d72780bb7e82a18e627" target="_top" xlink:title="main">
<polygon fill="none" stroke="#000000" points="552,-.5 552,-19.5 593,-19.5 593,-.5 552,-.5"/>
<text text-anchor="middle" x="572.5" y="-7.5" font-family="Helvetica,sans-Serif" font-size="10.00" fill="#000000">main</text>
</a>
</g>
</g>
<!-- Node258&#45;&gt;Node259 -->
<g id="edge7" class="edge">
<title>Node258&#45;&gt;Node259</title>
<path fill="none" stroke="#191970" d="M494.4949,-10C514.8277,-10 536.4643,-10 551.7793,-10"/>
<polygon fill="#191970" stroke="#191970" points="494.3376,-6.5001 484.3376,-10 494.3375,-13.5001 494.3376,-6.5001"/>
</g>
</g>
</svg>
