<?xml version="1.0" encoding="UTF-8" standalone="no"?>
<!DOCTYPE svg PUBLIC "-//W3C//DTD SVG 1.1//EN"
 "http://www.w3.org/Graphics/SVG/1.1/DTD/svg11.dtd">
<!-- Generated by graphviz version 2.40.1 (20161225.0304)
 -->
<!-- Title: UIElement::renderTexture Pages: 1 -->
<svg width="363pt" height="142pt"
 viewBox="0.00 0.00 363.00 142.00" xmlns="http://www.w3.org/2000/svg" xmlns:xlink="http://www.w3.org/1999/xlink">
<g id="graph0" class="graph" transform="scale(1 1) rotate(0) translate(4 138)">
<title>UIElement::renderTexture</title>
<!-- Node217 -->
<g id="node1" class="node">
<title>Node217</title>
<polygon fill="#bfbfbf" stroke="#000000" points="0,-57.5 0,-76.5 141,-76.5 141,-57.5 0,-57.5"/>
<text text-anchor="middle" x="70.5" y="-64.5" font-family="Helvetica,sans-Serif" font-size="10.00" fill="#000000">UIElement::renderTexture</text>
</g>
<!-- Node218 -->
<g id="node2" class="node">
<title>Node218</title>
<g id="a_node2"><a xlink:href="classButton.html#af4d14cf544d8e0620f4ffcd7984103f7" target="_top" xlink:title="Draw the UI Element and/or render it&#39;s textures to the screen Renders the texture of the Ui Element...">
<polygon fill="none" stroke="#000000" points="177,-114.5 177,-133.5 256,-133.5 256,-114.5 177,-114.5"/>
<text text-anchor="middle" x="216.5" y="-121.5" font-family="Helvetica,sans-Serif" font-size="10.00" fill="#000000">Button::draw</text>
</a>
</g>
</g>
<!-- Node217&#45;&gt;Node218 -->
<g id="edge1" class="edge">
<title>Node217&#45;&gt;Node218</title>
<path fill="none" stroke="#191970" d="M104.3181,-80.203C131.1258,-90.669 167.9518,-105.0462 191.9832,-114.4284"/>
<polygon fill="#191970" stroke="#191970" points="105.5253,-76.917 94.9371,-76.5405 102.9795,-83.4377 105.5253,-76.917"/>
</g>
<!-- Node219 -->
<g id="node3" class="node">
<title>Node219</title>
<g id="a_node3"><a xlink:href="classImage.html#af67dbed0b509945e278bdd88088615cf" target="_top" xlink:title="Draw the UI Element and/or render it&#39;s textures to the screen Renders the texture of the Ui Element...">
<polygon fill="none" stroke="#000000" points="178,-76.5 178,-95.5 255,-95.5 255,-76.5 178,-76.5"/>
<text text-anchor="middle" x="216.5" y="-83.5" font-family="Helvetica,sans-Serif" font-size="10.00" fill="#000000">Image::draw</text>
</a>
</g>
</g>
<!-- Node217&#45;&gt;Node219 -->
<g id="edge2" class="edge">
<title>Node217&#45;&gt;Node219</title>
<path fill="none" stroke="#191970" d="M151.3099,-77.5164C160.4436,-78.705 169.4124,-79.8722 177.6353,-80.9423"/>
<polygon fill="#191970" stroke="#191970" points="151.7297,-74.0416 141.3616,-76.2217 150.8263,-80.983 151.7297,-74.0416"/>
</g>
<!-- Node220 -->
<g id="node4" class="node">
<title>Node220</title>
<g id="a_node4"><a xlink:href="classText.html#a8f486a54a21fafc7a5dfb75975f1621f" target="_top" xlink:title="implements draw function. Renders the SDL_Texture generated from the TTF. ">
<polygon fill="none" stroke="#000000" points="183,-38.5 183,-57.5 250,-57.5 250,-38.5 183,-38.5"/>
<text text-anchor="middle" x="216.5" y="-45.5" font-family="Helvetica,sans-Serif" font-size="10.00" fill="#000000">Text::draw</text>
</a>
</g>
</g>
<!-- Node217&#45;&gt;Node220 -->
<g id="edge3" class="edge">
<title>Node217&#45;&gt;Node220</title>
<path fill="none" stroke="#191970" d="M151.5675,-56.4501C162.6362,-55.0097 173.4544,-53.6018 182.9875,-52.3612"/>
<polygon fill="#191970" stroke="#191970" points="150.8263,-53.017 141.3616,-57.7783 151.7297,-59.9584 150.8263,-53.017"/>
</g>
<!-- Node222 -->
<g id="node6" class="node">
<title>Node222</title>
<g id="a_node6"><a xlink:href="classTooltip.html#af6075fc45363e3072fd532f7a1bf1376" target="_top" xlink:title="implements draw function. Renders the SDL_Texture generated from the TTF. ">
<polygon fill="none" stroke="#000000" points="177,-.5 177,-19.5 256,-19.5 256,-.5 177,-.5"/>
<text text-anchor="middle" x="216.5" y="-7.5" font-family="Helvetica,sans-Serif" font-size="10.00" fill="#000000">Tooltip::draw</text>
</a>
</g>
</g>
<!-- Node217&#45;&gt;Node222 -->
<g id="edge5" class="edge">
<title>Node217&#45;&gt;Node222</title>
<path fill="none" stroke="#191970" d="M104.3181,-53.797C131.1258,-43.331 167.9518,-28.9538 191.9832,-19.5716"/>
<polygon fill="#191970" stroke="#191970" points="102.9795,-50.5623 94.9371,-57.4595 105.5253,-57.083 102.9795,-50.5623"/>
</g>
<!-- Node221 -->
<g id="node5" class="node">
<title>Node221</title>
<g id="a_node5"><a xlink:href="classText.html#ab3e26143fccc52699bcc5149cae852bc" target="_top" xlink:title="default Constructor ">
<polygon fill="none" stroke="#000000" points="292,-38.5 292,-57.5 355,-57.5 355,-38.5 292,-38.5"/>
<text text-anchor="middle" x="323.5" y="-45.5" font-family="Helvetica,sans-Serif" font-size="10.00" fill="#000000">Text::Text</text>
</a>
</g>
</g>
<!-- Node220&#45;&gt;Node221 -->
<g id="edge4" class="edge">
<title>Node220&#45;&gt;Node221</title>
<path fill="none" stroke="#191970" d="M260.3819,-48C270.9377,-48 282.0101,-48 291.8816,-48"/>
<polygon fill="#191970" stroke="#191970" points="260.0619,-44.5001 250.0619,-48 260.0619,-51.5001 260.0619,-44.5001"/>
</g>
</g>
</svg>
