<?xml version="1.0" encoding="UTF-8" standalone="no"?>
<!DOCTYPE svg PUBLIC "-//W3C//DTD SVG 1.1//EN"
 "http://www.w3.org/Graphics/SVG/1.1/DTD/svg11.dtd">
<!-- Generated by graphviz version 2.40.1 (20161225.0304)
 -->
<!-- Title: UIManager::toggleGroupVisibility Pages: 1 -->
<svg width="386pt" height="104pt"
 viewBox="0.00 0.00 386.00 104.00" xmlns="http://www.w3.org/2000/svg" xmlns:xlink="http://www.w3.org/1999/xlink">
<g id="graph0" class="graph" transform="scale(1 1) rotate(0) translate(4 100)">
<title>UIManager::toggleGroupVisibility</title>
<!-- Node270 -->
<g id="node1" class="node">
<title>Node270</title>
<polygon fill="#bfbfbf" stroke="#000000" points="0,-38.5 0,-57.5 178,-57.5 178,-38.5 0,-38.5"/>
<text text-anchor="middle" x="89" y="-45.5" font-family="Helvetica,sans-Serif" font-size="10.00" fill="#000000">UIManager::toggleGroupVisibility</text>
</g>
<!-- Node271 -->
<g id="node2" class="node">
<title>Node271</title>
<g id="a_node2"><a xlink:href="classUIElement.html#a6451228b4c9bc058d69e4d4f2b03c719" target="_top" xlink:title="UIElement::getUiElementData">
<polygon fill="none" stroke="#000000" points="214,-76.5 214,-95.5 378,-95.5 378,-76.5 214,-76.5"/>
<text text-anchor="middle" x="296" y="-83.5" font-family="Helvetica,sans-Serif" font-size="10.00" fill="#000000">UIElement::getUiElementData</text>
</a>
</g>
</g>
<!-- Node270&#45;&gt;Node271 -->
<g id="edge1" class="edge">
<title>Node270&#45;&gt;Node271</title>
<path fill="none" stroke="#191970" d="M140.9677,-57.54C169.2658,-62.7348 204.464,-69.1963 234.1665,-74.6489"/>
<polygon fill="#191970" stroke="#191970" points="233.5433,-78.0929 244.011,-76.4561 234.8073,-71.208 233.5433,-78.0929"/>
</g>
<!-- Node272 -->
<g id="node3" class="node">
<title>Node272</title>
<g id="a_node3"><a xlink:href="classUIManager.html#acf39ddcfeee8509c4292b6263cd57ad2" target="_top" xlink:title="Close all open menus but the build menu. ">
<polygon fill="none" stroke="#000000" points="217,-38.5 217,-57.5 375,-57.5 375,-38.5 217,-38.5"/>
<text text-anchor="middle" x="296" y="-45.5" font-family="Helvetica,sans-Serif" font-size="10.00" fill="#000000">UIManager::closeOpenMenus</text>
</a>
</g>
</g>
<!-- Node270&#45;&gt;Node272 -->
<g id="edge2" class="edge">
<title>Node270&#45;&gt;Node272</title>
<path fill="none" stroke="#191970" d="M178.2886,-48C187.6904,-48 197.2516,-48 206.6541,-48"/>
<polygon fill="#191970" stroke="#191970" points="206.7794,-51.5001 216.7793,-48 206.7793,-44.5001 206.7794,-51.5001"/>
</g>
<!-- Node273 -->
<g id="node4" class="node">
<title>Node273</title>
<g id="a_node4"><a xlink:href="classButton.html#a076af7f94be44c9b450911ae4664f23f" target="_top" xlink:title="Button::checkState">
<polygon fill="none" stroke="#000000" points="241.5,-.5 241.5,-19.5 350.5,-19.5 350.5,-.5 241.5,-.5"/>
<text text-anchor="middle" x="296" y="-7.5" font-family="Helvetica,sans-Serif" font-size="10.00" fill="#000000">Button::checkState</text>
</a>
</g>
</g>
<!-- Node270&#45;&gt;Node273 -->
<g id="edge3" class="edge">
<title>Node270&#45;&gt;Node273</title>
<path fill="none" stroke="#191970" d="M140.9677,-38.46C169.2658,-33.2652 204.464,-26.8037 234.1665,-21.3511"/>
<polygon fill="#191970" stroke="#191970" points="234.8073,-24.792 244.011,-19.5439 233.5433,-17.9071 234.8073,-24.792"/>
</g>
</g>
</svg>
