<?xml version="1.0" encoding="UTF-8" standalone="no"?>
<!DOCTYPE svg PUBLIC "-//W3C//DTD SVG 1.1//EN"
 "http://www.w3.org/Graphics/SVG/1.1/DTD/svg11.dtd">
<!-- Generated by graphviz version 2.40.1 (20161225.0304)
 -->
<!-- Title: Image Pages: 1 -->
<!--zoomable 556 -->
<svg id="main" version="1.1" xmlns="http://www.w3.org/2000/svg" xmlns:xlink="http://www.w3.org/1999/xlink" xml:space="preserve" onload="init(evt)">
<style type="text/css"><![CDATA[
.edge:hover path { stroke: red; }
.edge:hover polygon { stroke: red; fill: red; }
]]></style>
<script type="text/javascript"><![CDATA[
var edges = document.getElementsByTagName('g');
if (edges && edges.length) {
  for (var i=0;i<edges.length;i++) {
    if (edges[i].id.substr(0,4)=='edge') {
      edges[i].setAttribute('class','edge');
    }
  }
}
]]></script>
        <defs>
                <circle id="rim" cx="0" cy="0" r="7"/>
                <circle id="rim2" cx="0" cy="0" r="3.5"/>
                <g id="zoomPlus">
                        <use xlink:href="#rim" fill="#404040">
                                <set attributeName="fill" to="#808080" begin="zoomplus.mouseover" end="zoomplus.mouseout"/>
                        </use>
                        <path d="M-4,0h8M0,-4v8" fill="none" stroke="white" stroke-width="1.5" pointer-events="none"/>
                </g>
                <g id="zoomMin">
                        <use xlink:href="#rim" fill="#404040">
                                <set attributeName="fill" to="#808080" begin="zoomminus.mouseover" end="zoomminus.mouseout"/>
                        </use>
                        <path d="M-4,0h8" fill="none" stroke="white" stroke-width="1.5" pointer-events="none"/>
                </g>
                <g id="dirArrow">
                        <path fill="none" stroke="white" stroke-width="1.5" d="M0,-3.0v7 M-2.5,-0.5L0,-3.0L2.5,-0.5"/>
                </g>
               <g id="resetDef">
                       <use xlink:href="#rim2" fill="#404040">
                               <set attributeName="fill" to="#808080" begin="reset.mouseover" end="reset.mouseout"/>
                       </use>
               </g>
        </defs>

<script type="text/javascript">
var viewWidth = 369;
var viewHeight = 556;
var sectionId = 'dynsection-1';
</script>
<script xlink:href="svgpan.js"/>
<svg id="graph" class="graph">
<g id="viewport">
<title>Image</title>
<!-- Node2 -->
<g id="node1" class="node">
<title>Node2</title>
<polygon fill="#bfbfbf" stroke="#000000" points="0,-.5 0,-90.5 92,-90.5 92,-.5 0,-.5"/>
<text text-anchor="middle" x="46" y="-78.5" font-family="Helvetica,sans-Serif" font-size="10.00" fill="#000000">Image</text>
<polyline fill="none" stroke="#000000" points="0,-71.5 92,-71.5 "/>
<text text-anchor="start" x="8" y="-59.5" font-family="Helvetica,sans-Serif" font-size="10.00" fill="#000000">&#45; m_alphaLevel</text>
<polyline fill="none" stroke="#000000" points="0,-52.5 92,-52.5 "/>
<text text-anchor="start" x="8" y="-40.5" font-family="Helvetica,sans-Serif" font-size="10.00" fill="#000000">+ Image()</text>
<text text-anchor="start" x="8" y="-29.5" font-family="Helvetica,sans-Serif" font-size="10.00" fill="#000000">+ ~Image()</text>
<text text-anchor="start" x="8" y="-18.5" font-family="Helvetica,sans-Serif" font-size="10.00" fill="#000000">+ draw()</text>
<text text-anchor="start" x="8" y="-7.5" font-family="Helvetica,sans-Serif" font-size="10.00" fill="#000000">+ setOpacity()</text>
</g>
<!-- Node3 -->
<g id="node2" class="node">
<title>Node3</title>
<g id="a_node2"><a xlink:href="classUIElement.html" target="_top" xlink:title="Base class for UI Elements Provides functions and variables for derived user interface elements...">
<polygon fill="none" stroke="#000000" points="18.5,-215.5 18.5,-547.5 173.5,-547.5 173.5,-215.5 18.5,-215.5"/>
<text text-anchor="middle" x="96" y="-535.5" font-family="Helvetica,sans-Serif" font-size="10.00" fill="#000000">UIElement</text>
<polyline fill="none" stroke="#000000" points="18.5,-528.5 173.5,-528.5 "/>
<text text-anchor="start" x="26.5" y="-516.5" font-family="Helvetica,sans-Serif" font-size="10.00" fill="#000000"># m_texture</text>
<text text-anchor="start" x="26.5" y="-505.5" font-family="Helvetica,sans-Serif" font-size="10.00" fill="#000000"># m_uiElementRect</text>
<text text-anchor="start" x="26.5" y="-494.5" font-family="Helvetica,sans-Serif" font-size="10.00" fill="#000000"># m_uiElementClipRect</text>
<text text-anchor="start" x="26.5" y="-483.5" font-family="Helvetica,sans-Serif" font-size="10.00" fill="#000000"># m_uiTextureRect</text>
<text text-anchor="start" x="26.5" y="-472.5" font-family="Helvetica,sans-Serif" font-size="10.00" fill="#000000">&#45; m_renderer</text>
<text text-anchor="start" x="26.5" y="-461.5" font-family="Helvetica,sans-Serif" font-size="10.00" fill="#000000">&#45; m_window</text>
<text text-anchor="start" x="26.5" y="-450.5" font-family="Helvetica,sans-Serif" font-size="10.00" fill="#000000">&#45; m_buttonState</text>
<text text-anchor="start" x="26.5" y="-439.5" font-family="Helvetica,sans-Serif" font-size="10.00" fill="#000000">&#45; m_visible</text>
<text text-anchor="start" x="26.5" y="-428.5" font-family="Helvetica,sans-Serif" font-size="10.00" fill="#000000">&#45; m_directTexture</text>
<polyline fill="none" stroke="#000000" points="18.5,-421.5 173.5,-421.5 "/>
<text text-anchor="start" x="26.5" y="-409.5" font-family="Helvetica,sans-Serif" font-size="10.00" fill="#000000">+ UIElement()</text>
<text text-anchor="start" x="26.5" y="-398.5" font-family="Helvetica,sans-Serif" font-size="10.00" fill="#000000">+ UIElement()</text>
<text text-anchor="start" x="26.5" y="-387.5" font-family="Helvetica,sans-Serif" font-size="10.00" fill="#000000">+ ~UIElement()</text>
<text text-anchor="start" x="26.5" y="-376.5" font-family="Helvetica,sans-Serif" font-size="10.00" fill="#000000">+ registerCallbackFunction()</text>
<text text-anchor="start" x="26.5" y="-365.5" font-family="Helvetica,sans-Serif" font-size="10.00" fill="#000000">+ registerCallbackFunction()</text>
<text text-anchor="start" x="26.5" y="-354.5" font-family="Helvetica,sans-Serif" font-size="10.00" fill="#000000">+ registerCallbackFunction()</text>
<text text-anchor="start" x="26.5" y="-343.5" font-family="Helvetica,sans-Serif" font-size="10.00" fill="#000000">+ onMouseButtonUp()</text>
<text text-anchor="start" x="26.5" y="-332.5" font-family="Helvetica,sans-Serif" font-size="10.00" fill="#000000">+ onMouseButtonDown()</text>
<text text-anchor="start" x="26.5" y="-321.5" font-family="Helvetica,sans-Serif" font-size="10.00" fill="#000000">+ onMouseEnter()</text>
<text text-anchor="start" x="26.5" y="-310.5" font-family="Helvetica,sans-Serif" font-size="10.00" fill="#000000">+ onMouseLeave()</text>
<text text-anchor="start" x="26.5" y="-299.5" font-family="Helvetica,sans-Serif" font-size="10.00" fill="#000000">and 24 more...</text>
<text text-anchor="start" x="26.5" y="-288.5" font-family="Helvetica,sans-Serif" font-size="10.00" fill="#000000"># renderTexture()</text>
<text text-anchor="start" x="26.5" y="-277.5" font-family="Helvetica,sans-Serif" font-size="10.00" fill="#000000"># drawSolidRect()</text>
<text text-anchor="start" x="26.5" y="-266.5" font-family="Helvetica,sans-Serif" font-size="10.00" fill="#000000"># drawLine()</text>
<text text-anchor="start" x="26.5" y="-255.5" font-family="Helvetica,sans-Serif" font-size="10.00" fill="#000000"># drawTextFrame()</text>
<text text-anchor="start" x="26.5" y="-244.5" font-family="Helvetica,sans-Serif" font-size="10.00" fill="#000000"># drawButtonFrame()</text>
<text text-anchor="start" x="26.5" y="-233.5" font-family="Helvetica,sans-Serif" font-size="10.00" fill="#000000"># drawFrame()</text>
<text text-anchor="start" x="26.5" y="-222.5" font-family="Helvetica,sans-Serif" font-size="10.00" fill="#000000"># changeTexture()</text>
</a>
</g>
</g>
<!-- Node3&#45;&gt;Node2 -->
<g id="edge1" class="edge">
<title>Node3&#45;&gt;Node2</title>
<path fill="none" stroke="#191970" d="M69.8104,-205.5062C63.471,-162.9052 57.2338,-120.9911 52.7343,-90.7545"/>
<polygon fill="none" stroke="#191970" points="66.3591,-206.0928 71.293,-215.4687 73.2829,-205.0624 66.3591,-206.0928"/>
</g>
<!-- Node4 -->
<g id="node3" class="node">
<title>Node4</title>
<g id="a_node3"><a xlink:href="structUIElement_1_1ElementData.html" target="_top" xlink:title="{UIElement::ElementData\n|+ isToggleButton\l|}">
<polygon fill="none" stroke="#000000" points="110.5,-17 110.5,-74 247.5,-74 247.5,-17 110.5,-17"/>
<text text-anchor="middle" x="179" y="-62" font-family="Helvetica,sans-Serif" font-size="10.00" fill="#000000">UIElement::ElementData</text>
<polyline fill="none" stroke="#000000" points="110.5,-55 247.5,-55 "/>
<text text-anchor="start" x="118.5" y="-43" font-family="Helvetica,sans-Serif" font-size="10.00" fill="#000000">+ isToggleButton</text>
<polyline fill="none" stroke="#000000" points="110.5,-36 247.5,-36 "/>
<text text-anchor="middle" x="179" y="-24" font-family="Helvetica,sans-Serif" font-size="10.00" fill="#000000"> </text>
</a>
</g>
</g>
<!-- Node3&#45;&gt;Node4 -->
<g id="edge4" class="edge">
<title>Node3&#45;&gt;Node4</title>
<path fill="none" stroke="#404040" d="M81.862,-215.3672C80.7486,-170.4187 83.0344,-128.7461 93,-109 98.2133,-98.6703 105.9878,-89.6057 114.7668,-81.8028"/>
<polygon fill="none" stroke="#404040" points="114.9001,-81.6945 117.0348,-74.8066 124.2139,-74.1279 122.0792,-81.0158 114.9001,-81.6945"/>
<text text-anchor="middle" x="114.5" y="-150.5" font-family="Helvetica,sans-Serif" font-size="10.00" fill="#000000"> +parent</text>
</g>
<!-- Node4&#45;&gt;Node3 -->
<g id="edge2" class="edge">
<title>Node4&#45;&gt;Node3</title>
<path fill="none" stroke="#404040" d="M169.3734,-74.1015C165.8806,-84.9647 162.0477,-97.4918 159,-109 148.7567,-147.679 148.8637,-157.9818 140,-197 139.5361,-199.0421 139.0681,-201.0966 138.5965,-203.1616"/>
<polygon fill="none" stroke="#404040" points="138.5432,-203.3943 141.0999,-210.137 135.8593,-215.0904 133.3026,-208.3477 138.5432,-203.3943"/>
<text text-anchor="middle" x="197" y="-150.5" font-family="Helvetica,sans-Serif" font-size="10.00" fill="#000000"> #elementData</text>
</g>
<!-- Node5 -->
<g id="node4" class="node">
<title>Node5</title>
<polygon fill="none" stroke="#bfbfbf" points="239,-353 239,-410 283,-410 283,-353 239,-353"/>
<text text-anchor="middle" x="261" y="-398" font-family="Helvetica,sans-Serif" font-size="10.00" fill="#000000">string</text>
<polyline fill="none" stroke="#bfbfbf" points="239,-391 283,-391 "/>
<text text-anchor="middle" x="261" y="-379" font-family="Helvetica,sans-Serif" font-size="10.00" fill="#000000"> </text>
<polyline fill="none" stroke="#bfbfbf" points="239,-372 283,-372 "/>
<text text-anchor="middle" x="261" y="-360" font-family="Helvetica,sans-Serif" font-size="10.00" fill="#000000"> </text>
</g>
<!-- Node5&#45;&gt;Node4 -->
<g id="edge3" class="edge">
<title>Node5&#45;&gt;Node4</title>
<path fill="none" stroke="#404040" d="M264.68,-352.93C270.0285,-301.5846 275.6739,-191.3856 239,-109 234.9218,-99.8386 228.948,-91.1738 222.3297,-83.3601"/>
<polygon fill="none" stroke="#404040" points="222.1197,-83.1305 215.1187,-81.4023 214.0213,-74.2751 221.0223,-76.0033 222.1197,-83.1305"/>
<text text-anchor="middle" x="312" y="-189" font-family="Helvetica,sans-Serif" font-size="10.00" fill="#000000"> +actionParameter</text>
<text text-anchor="middle" x="312" y="-178" font-family="Helvetica,sans-Serif" font-size="10.00" fill="#000000">+buildMenuID</text>
<text text-anchor="middle" x="312" y="-167" font-family="Helvetica,sans-Serif" font-size="10.00" fill="#000000">+actionID</text>
<text text-anchor="middle" x="312" y="-156" font-family="Helvetica,sans-Serif" font-size="10.00" fill="#000000">+text</text>
<text text-anchor="middle" x="312" y="-145" font-family="Helvetica,sans-Serif" font-size="10.00" fill="#000000">+elementID</text>
<text text-anchor="middle" x="312" y="-134" font-family="Helvetica,sans-Serif" font-size="10.00" fill="#000000">+layoutGroupName</text>
<text text-anchor="middle" x="312" y="-123" font-family="Helvetica,sans-Serif" font-size="10.00" fill="#000000">+tooltipText</text>
<text text-anchor="middle" x="312" y="-112" font-family="Helvetica,sans-Serif" font-size="10.00" fill="#000000">+textureID</text>
</g>
</g>
</svg>
        <g id="navigator" transform="translate(0 0)" fill="#404254">
                <rect fill="#f2f5e9" fill-opacity="0.5" stroke="#606060" stroke-width=".5" x="0" y="0" width="60" height="60"/>
                <use id="zoomplus" xlink:href="#zoomPlus" x="17" y="9" onmousedown="handleZoom(evt,'in')"/>
                <use id="zoomminus" xlink:href="#zoomMin" x="42" y="9" onmousedown="handleZoom(evt,'out')"/>
                <use id="reset" xlink:href="#resetDef" x="30" y="36" onmousedown="handleReset()"/>
                <g id="arrowUp" xlink:href="#dirArrow" transform="translate(30 24)" onmousedown="handlePan(0,-1)">
                  <use xlink:href="#rim" fill="#404040">
                        <set attributeName="fill" to="#808080" begin="arrowUp.mouseover" end="arrowUp.mouseout"/>
                  </use>
                  <path fill="none" stroke="white" stroke-width="1.5" d="M0,-3.0v7 M-2.5,-0.5L0,-3.0L2.5,-0.5"/>
                </g>
                <g id="arrowRight" xlink:href="#dirArrow" transform="rotate(90) translate(36 -43)" onmousedown="handlePan(1,0)">
                  <use xlink:href="#rim" fill="#404040">
                        <set attributeName="fill" to="#808080" begin="arrowRight.mouseover" end="arrowRight.mouseout"/>
                  </use>
                  <path fill="none" stroke="white" stroke-width="1.5" d="M0,-3.0v7 M-2.5,-0.5L0,-3.0L2.5,-0.5"/>
                </g>
                <g id="arrowDown" xlink:href="#dirArrow" transform="rotate(180) translate(-30 -48)" onmousedown="handlePan(0,1)">
                  <use xlink:href="#rim" fill="#404040">
                        <set attributeName="fill" to="#808080" begin="arrowDown.mouseover" end="arrowDown.mouseout"/>
                  </use>
                  <path fill="none" stroke="white" stroke-width="1.5" d="M0,-3.0v7 M-2.5,-0.5L0,-3.0L2.5,-0.5"/>
                </g>
                <g id="arrowLeft" xlink:href="#dirArrow" transform="rotate(270) translate(-36 17)" onmousedown="handlePan(-1,0)">
                  <use xlink:href="#rim" fill="#404040">
                        <set attributeName="fill" to="#808080" begin="arrowLeft.mouseover" end="arrowLeft.mouseout"/>
                  </use>
                  <path fill="none" stroke="white" stroke-width="1.5" d="M0,-3.0v7 M-2.5,-0.5L0,-3.0L2.5,-0.5"/>
                </g>
        </g>
        <svg viewBox="0 0 15 15" width="100%" height="30px" preserveAspectRatio="xMaxYMin meet">
         <g id="arrow_out" transform="scale(0.3 0.3)">
          <a xlink:href="classImage__coll__graph_org.svg" target="_base">
           <rect id="button" ry="5" rx="5" y="6" x="6" height="38" width="38"
                fill="#f2f5e9" fill-opacity="0.5" stroke="#606060" stroke-width="1.0"/>
           <path id="arrow"
             d="M 11.500037,31.436501 C 11.940474,20.09759 22.043105,11.32322 32.158766,21.979434 L 37.068811,17.246167 C 37.068811,17.246167 37.088388,32 37.088388,32 L 22.160133,31.978069 C 22.160133,31.978069 26.997745,27.140456 26.997745,27.140456 C 18.528582,18.264221 13.291696,25.230495 11.500037,31.436501 z"
             style="fill:#404040;"/>
          </a>
         </g>
        </svg>
</svg>
