<?xml version="1.0" encoding="UTF-8" standalone="no"?>
<!DOCTYPE svg PUBLIC "-//W3C//DTD SVG 1.1//EN"
 "http://www.w3.org/Graphics/SVG/1.1/DTD/svg11.dtd">
<!-- Generated by graphviz version 2.40.1 (20161225.0304)
 -->
<!-- Title: EventManager::registerTimer Pages: 1 -->
<svg width="624pt" height="66pt"
 viewBox="0.00 0.00 624.00 66.00" xmlns="http://www.w3.org/2000/svg" xmlns:xlink="http://www.w3.org/1999/xlink">
<g id="graph0" class="graph" transform="scale(1 1) rotate(0) translate(4 62)">
<title>EventManager::registerTimer</title>
<!-- Node84 -->
<g id="node1" class="node">
<title>Node84</title>
<polygon fill="#bfbfbf" stroke="#000000" points="0,-19.5 0,-38.5 158,-38.5 158,-19.5 0,-19.5"/>
<text text-anchor="middle" x="79" y="-26.5" font-family="Helvetica,sans-Serif" font-size="10.00" fill="#000000">EventManager::registerTimer</text>
</g>
<!-- Node85 -->
<g id="node2" class="node">
<title>Node85</title>
<g id="a_node2"><a xlink:href="classTimer.html#a3a8b5272198d029779dc9302a54305a8" target="_top" xlink:title="Start / Reset the timer Starts or restarts the timer. If the timer is already running, it will be stopped and restarted. ">
<polygon fill="none" stroke="#000000" points="194,-19.5 194,-38.5 268,-38.5 268,-19.5 194,-19.5"/>
<text text-anchor="middle" x="231" y="-26.5" font-family="Helvetica,sans-Serif" font-size="10.00" fill="#000000">Timer::start</text>
</a>
</g>
</g>
<!-- Node84&#45;&gt;Node85 -->
<g id="edge1" class="edge">
<title>Node84&#45;&gt;Node85</title>
<path fill="none" stroke="#191970" d="M168.2423,-29C177.1408,-29 185.7895,-29 193.6798,-29"/>
<polygon fill="#191970" stroke="#191970" points="168.1164,-25.5001 158.1164,-29 168.1164,-32.5001 168.1164,-25.5001"/>
</g>
<!-- Node86 -->
<g id="node3" class="node">
<title>Node86</title>
<g id="a_node3"><a xlink:href="classTooltip.html#ac48e36748acaf4cdd9838288f7732cc2" target="_top" xlink:title="starts the countdown to when the Tooltip appears starts the timer for the countdown to when the Toolt...">
<polygon fill="none" stroke="#000000" points="304,-38.5 304,-57.5 410,-57.5 410,-38.5 304,-38.5"/>
<text text-anchor="middle" x="357" y="-45.5" font-family="Helvetica,sans-Serif" font-size="10.00" fill="#000000">Tooltip::startTimer</text>
</a>
</g>
</g>
<!-- Node85&#45;&gt;Node86 -->
<g id="edge2" class="edge">
<title>Node85&#45;&gt;Node86</title>
<path fill="none" stroke="#191970" d="M278.1033,-36.1029C286.4846,-37.3667 295.2676,-38.6911 303.8043,-39.9784"/>
<polygon fill="#191970" stroke="#191970" points="278.5328,-32.6282 268.1227,-34.5979 277.489,-39.5499 278.5328,-32.6282"/>
</g>
<!-- Node87 -->
<g id="node4" class="node">
<title>Node87</title>
<g id="a_node4"><a xlink:href="classGame.html#a1c2ab25d5216b2f4b2fe41efd2c09114" target="_top" xlink:title="begins the game starts running the game ">
<polygon fill="none" stroke="#000000" points="323,-.5 323,-19.5 391,-19.5 391,-.5 323,-.5"/>
<text text-anchor="middle" x="357" y="-7.5" font-family="Helvetica,sans-Serif" font-size="10.00" fill="#000000">Game::run</text>
</a>
</g>
</g>
<!-- Node85&#45;&gt;Node87 -->
<g id="edge3" class="edge">
<title>Node85&#45;&gt;Node87</title>
<path fill="none" stroke="#191970" d="M278.1284,-21.8933C292.9332,-19.6609 308.9889,-17.2398 322.726,-15.1683"/>
<polygon fill="#191970" stroke="#191970" points="277.489,-18.4501 268.1227,-23.4021 278.5328,-25.3718 277.489,-18.4501"/>
</g>
<!-- Node88 -->
<g id="node5" class="node">
<title>Node88</title>
<g id="a_node5"><a xlink:href="main_8cxx.html#af582d708d899e67ead623eac34a22387" target="_top" xlink:title="protected_main">
<polygon fill="none" stroke="#000000" points="446,-.5 446,-19.5 539,-19.5 539,-.5 446,-.5"/>
<text text-anchor="middle" x="492.5" y="-7.5" font-family="Helvetica,sans-Serif" font-size="10.00" fill="#000000">protected_main</text>
</a>
</g>
</g>
<!-- Node87&#45;&gt;Node88 -->
<g id="edge4" class="edge">
<title>Node87&#45;&gt;Node88</title>
<path fill="none" stroke="#191970" d="M401.251,-10C415.5083,-10 431.3504,-10 445.7797,-10"/>
<polygon fill="#191970" stroke="#191970" points="401.1924,-6.5001 391.1924,-10 401.1923,-13.5001 401.1924,-6.5001"/>
</g>
<!-- Node89 -->
<g id="node6" class="node">
<title>Node89</title>
<g id="a_node6"><a xlink:href="main_8cxx.html#a3c04138a5bfe5d72780bb7e82a18e627" target="_top" xlink:title="main">
<polygon fill="none" stroke="#000000" points="575,-.5 575,-19.5 616,-19.5 616,-.5 575,-.5"/>
<text text-anchor="middle" x="595.5" y="-7.5" font-family="Helvetica,sans-Serif" font-size="10.00" fill="#000000">main</text>
</a>
</g>
</g>
<!-- Node88&#45;&gt;Node89 -->
<g id="edge5" class="edge">
<title>Node88&#45;&gt;Node89</title>
<path fill="none" stroke="#191970" d="M549.2133,-10C558.4322,-10 567.4259,-10 574.9965,-10"/>
<polygon fill="#191970" stroke="#191970" points="549.1782,-6.5001 539.1782,-10 549.1781,-13.5001 549.1782,-6.5001"/>
</g>
</g>
</svg>
