<?xml version="1.0" encoding="UTF-8" standalone="no"?>
<!DOCTYPE svg PUBLIC "-//W3C//DTD SVG 1.1//EN"
 "http://www.w3.org/Graphics/SVG/1.1/DTD/svg11.dtd">
<!-- Generated by graphviz version 2.40.1 (20161225.0304)
 -->
<!-- Title: MessageQueue::wakeCondition Pages: 1 -->
<svg width="416pt" height="88pt"
 viewBox="0.00 0.00 416.00 88.00" xmlns="http://www.w3.org/2000/svg" xmlns:xlink="http://www.w3.org/1999/xlink">
<g id="graph0" class="graph" transform="scale(1 1) rotate(0) translate(4 84)">
<title>MessageQueue::wakeCondition</title>
<!-- Node20 -->
<g id="node1" class="node">
<title>Node20</title>
<polygon fill="#bfbfbf" stroke="#000000" points="0,-30 0,-49 170,-49 170,-30 0,-30"/>
<text text-anchor="middle" x="85" y="-37" font-family="Helvetica,sans-Serif" font-size="10.00" fill="#000000">MessageQueue::wakeCondition</text>
</g>
<!-- Node21 -->
<g id="node2" class="node">
<title>Node21</title>
<g id="a_node2"><a xlink:href="classMessageQueue.html#ab96b913f05b4ea1b3c1ac1c8ac3cb78a" target="_top" xlink:title="MessageQueue\&lt; VariantType\l\&lt; UIEvents \&gt;::type \&gt;::peek">
<polygon fill="none" stroke="#000000" points="227.5,-49.5 227.5,-79.5 386.5,-79.5 386.5,-49.5 227.5,-49.5"/>
<text text-anchor="start" x="235.5" y="-67.5" font-family="Helvetica,sans-Serif" font-size="10.00" fill="#000000">MessageQueue&lt; VariantType</text>
<text text-anchor="middle" x="307" y="-56.5" font-family="Helvetica,sans-Serif" font-size="10.00" fill="#000000">&lt; UIEvents &gt;::type &gt;::peek</text>
</a>
</g>
</g>
<!-- Node20&#45;&gt;Node21 -->
<g id="edge1" class="edge">
<title>Node20&#45;&gt;Node21</title>
<path fill="none" stroke="#191970" d="M179.8925,-50.1861C195.732,-51.9698 212.0185,-53.8039 227.4249,-55.5388"/>
<polygon fill="#191970" stroke="#191970" points="179.8909,-46.6639 169.562,-49.0227 179.1075,-53.6199 179.8909,-46.6639"/>
</g>
<!-- Node22 -->
<g id="node3" class="node">
<title>Node22</title>
<g id="a_node3"><a xlink:href="classMessageQueue.html#adf0028623665dabb4c55f57ead0dd964" target="_top" xlink:title="MessageQueue\&lt; VariantType\l\&lt; UIEvents \&gt;::type \&gt;::getEnumerable">
<polygon fill="none" stroke="#000000" points="206,-.5 206,-30.5 408,-30.5 408,-.5 206,-.5"/>
<text text-anchor="start" x="214" y="-18.5" font-family="Helvetica,sans-Serif" font-size="10.00" fill="#000000">MessageQueue&lt; VariantType</text>
<text text-anchor="middle" x="307" y="-7.5" font-family="Helvetica,sans-Serif" font-size="10.00" fill="#000000">&lt; UIEvents &gt;::type &gt;::getEnumerable</text>
</a>
</g>
</g>
<!-- Node20&#45;&gt;Node22 -->
<g id="edge2" class="edge">
<title>Node20&#45;&gt;Node22</title>
<path fill="none" stroke="#191970" d="M180.3563,-29.1912C188.7462,-28.2842 197.2578,-27.364 205.6941,-26.452"/>
<polygon fill="#191970" stroke="#191970" points="179.7619,-25.735 170.1961,-30.2896 180.5144,-32.6944 179.7619,-25.735"/>
</g>
</g>
</svg>
