<?xml version="1.0" encoding="UTF-8" standalone="no"?>
<!DOCTYPE svg PUBLIC "-//W3C//DTD SVG 1.1//EN"
 "http://www.w3.org/Graphics/SVG/1.1/DTD/svg11.dtd">
<!-- Generated by graphviz version 2.40.1 (20161225.0304)
 -->
<!-- Title: AudioMixer::handleEvent Pages: 1 -->
<svg width="509pt" height="47pt"
 viewBox="0.00 0.00 509.00 47.00" xmlns="http://www.w3.org/2000/svg" xmlns:xlink="http://www.w3.org/1999/xlink">
<g id="graph0" class="graph" transform="scale(1 1) rotate(0) translate(4 43)">
<title>AudioMixer::handleEvent</title>
<!-- Node12 -->
<g id="node1" class="node">
<title>Node12</title>
<polygon fill="#bfbfbf" stroke="#000000" points="0,-19.5 0,-38.5 138,-38.5 138,-19.5 0,-19.5"/>
<text text-anchor="middle" x="69" y="-26.5" font-family="Helvetica,sans-Serif" font-size="10.00" fill="#000000">AudioMixer::handleEvent</text>
</g>
<!-- Node13 -->
<g id="node2" class="node">
<title>Node13</title>
<g id="a_node2"><a xlink:href="classAudioMixer.html#a06e999bd738b869de1b93a207fda16cc" target="_top" xlink:title="Plays the Soundtrack. ">
<polygon fill="none" stroke="#000000" points="348,-19.5 348,-38.5 501,-38.5 501,-19.5 348,-19.5"/>
<text text-anchor="middle" x="424.5" y="-26.5" font-family="Helvetica,sans-Serif" font-size="10.00" fill="#000000">AudioMixer::playSoundtrack</text>
</a>
</g>
</g>
<!-- Node12&#45;&gt;Node13 -->
<g id="edge1" class="edge">
<title>Node12&#45;&gt;Node13</title>
<path fill="none" stroke="#191970" d="M138.3879,-29C195.4277,-29 276.5416,-29 337.8451,-29"/>
<polygon fill="#191970" stroke="#191970" points="337.8917,-32.5001 347.8917,-29 337.8917,-25.5001 337.8917,-32.5001"/>
</g>
<!-- Node14 -->
<g id="node3" class="node">
<title>Node14</title>
<g id="a_node3"><a xlink:href="classAudioMixer.html#a3904961988ad24ee10a0961e9c2fbccf" target="_top" xlink:title="AudioMixer::handleEvent">
<polygon fill="none" stroke="#000000" points="174,-.5 174,-19.5 312,-19.5 312,-.5 174,-.5"/>
<text text-anchor="middle" x="243" y="-7.5" font-family="Helvetica,sans-Serif" font-size="10.00" fill="#000000">AudioMixer::handleEvent</text>
</a>
</g>
</g>
<!-- Node12&#45;&gt;Node14 -->
<g id="edge2" class="edge">
<title>Node12&#45;&gt;Node14</title>
<path fill="none" stroke="#191970" d="M138.0193,-21.4634C146.4757,-20.54 155.1691,-19.5907 163.7607,-18.6526"/>
<polygon fill="#191970" stroke="#191970" points="164.2185,-22.1235 173.7795,-17.5586 163.4586,-15.1648 164.2185,-22.1235"/>
</g>
<!-- Node14&#45;&gt;Node13 -->
<g id="edge3" class="edge">
<title>Node14&#45;&gt;Node13</title>
<path fill="none" stroke="#191970" d="M312.1351,-17.2373C320.5596,-18.1192 329.2479,-19.0287 337.8862,-19.933"/>
<polygon fill="#191970" stroke="#191970" points="337.6748,-23.4299 347.9849,-20.9902 338.4037,-16.4679 337.6748,-23.4299"/>
</g>
</g>
</svg>
