<?xml version="1.0" encoding="UTF-8" standalone="no"?>
<!DOCTYPE svg PUBLIC "-//W3C//DTD SVG 1.1//EN"
 "http://www.w3.org/Graphics/SVG/1.1/DTD/svg11.dtd">
<!-- Generated by graphviz version 2.40.1 (20161225.0304)
 -->
<!-- Title: TileManager::getTileLayer Pages: 1 -->
<svg width="327pt" height="78pt"
 viewBox="0.00 0.00 327.00 77.50" xmlns="http://www.w3.org/2000/svg" xmlns:xlink="http://www.w3.org/1999/xlink">
<g id="graph0" class="graph" transform="scale(1 1) rotate(0) translate(4 73.5)">
<title>TileManager::getTileLayer</title>
<!-- Node83 -->
<g id="node1" class="node">
<title>Node83</title>
<polygon fill="#bfbfbf" stroke="#000000" points="0,-22.5 0,-41.5 143,-41.5 143,-22.5 0,-22.5"/>
<text text-anchor="middle" x="71.5" y="-29.5" font-family="Helvetica,sans-Serif" font-size="10.00" fill="#000000">TileManager::getTileLayer</text>
</g>
<!-- Node84 -->
<g id="node2" class="node">
<title>Node84</title>
<g id="a_node2"><a xlink:href="classSingleton.html#af5cb1e5749949e2b68416cfb8d378044" target="_top" xlink:title="Get an instance of the singleton. ">
<polygon fill="none" stroke="#000000" points="182,-39 182,-69 316,-69 316,-39 182,-39"/>
<text text-anchor="start" x="190" y="-57" font-family="Helvetica,sans-Serif" font-size="10.00" fill="#000000">Singleton&lt; TileManager</text>
<text text-anchor="middle" x="249" y="-46" font-family="Helvetica,sans-Serif" font-size="10.00" fill="#000000"> &gt;::instance</text>
</a>
</g>
</g>
<!-- Node83&#45;&gt;Node84 -->
<g id="edge1" class="edge">
<title>Node83&#45;&gt;Node84</title>
<path fill="none" stroke="#191970" d="M143.1844,-40.8848C152.582,-42.0496 162.245,-43.2473 171.73,-44.4229"/>
<polygon fill="#191970" stroke="#191970" points="171.5768,-47.9306 181.9314,-45.6873 172.4379,-40.9837 171.5768,-47.9306"/>
</g>
<!-- Node85 -->
<g id="node3" class="node">
<title>Node85</title>
<g id="a_node3"><a xlink:href="classTileManager.html#a8ee071ff8b24926288437d310f9bc714" target="_top" xlink:title="TileManager::getTileData">
<polygon fill="none" stroke="#000000" points="179,-.5 179,-19.5 319,-19.5 319,-.5 179,-.5"/>
<text text-anchor="middle" x="249" y="-7.5" font-family="Helvetica,sans-Serif" font-size="10.00" fill="#000000">TileManager::getTileData</text>
</a>
</g>
</g>
<!-- Node83&#45;&gt;Node85 -->
<g id="edge2" class="edge">
<title>Node83&#45;&gt;Node85</title>
<path fill="none" stroke="#191970" d="M143.1844,-23.1152C151.6214,-22.0695 160.2722,-20.9973 168.8161,-19.9383"/>
<polygon fill="#191970" stroke="#191970" points="169.2841,-23.4072 178.7776,-18.7036 168.423,-16.4603 169.2841,-23.4072"/>
</g>
</g>
</svg>
