<?xml version="1.0" encoding="UTF-8" standalone="no"?>
<!DOCTYPE svg PUBLIC "-//W3C//DTD SVG 1.1//EN"
 "http://www.w3.org/Graphics/SVG/1.1/DTD/svg11.dtd">
<!-- Generated by graphviz version 2.40.1 (20161225.0304)
 -->
<!-- Title: Text::getFontSize Pages: 1 -->
<svg width="423pt" height="78pt"
 viewBox="0.00 0.00 423.00 77.50" xmlns="http://www.w3.org/2000/svg" xmlns:xlink="http://www.w3.org/1999/xlink">
<g id="graph0" class="graph" transform="scale(1 1) rotate(0) translate(4 73.5)">
<title>Text::getFontSize</title>
<!-- Node31 -->
<g id="node1" class="node">
<title>Node31</title>
<polygon fill="#bfbfbf" stroke="#000000" points="0,-44.5 0,-63.5 100,-63.5 100,-44.5 0,-44.5"/>
<text text-anchor="middle" x="50" y="-51.5" font-family="Helvetica,sans-Serif" font-size="10.00" fill="#000000">Text::getFontSize</text>
</g>
<!-- Node32 -->
<g id="node2" class="node">
<title>Node32</title>
<g id="a_node2"><a xlink:href="classText.html#a3bf5a064fd37d06b8d3dc5a700556897" target="_top" xlink:title="Draws a text string to the screen Draws a text string to the screen. This could either be a standalon...">
<polygon fill="none" stroke="#000000" points="136,-44.5 136,-63.5 266,-63.5 266,-44.5 136,-44.5"/>
<text text-anchor="middle" x="201" y="-51.5" font-family="Helvetica,sans-Serif" font-size="10.00" fill="#000000">Text::createTextTexture</text>
</a>
</g>
</g>
<!-- Node31&#45;&gt;Node32 -->
<g id="edge1" class="edge">
<title>Node31&#45;&gt;Node32</title>
<path fill="none" stroke="#191970" d="M100.2808,-54C108.4821,-54 117.1319,-54 125.7769,-54"/>
<polygon fill="#191970" stroke="#191970" points="125.896,-57.5001 135.8959,-54 125.8959,-50.5001 125.896,-57.5001"/>
</g>
<!-- Node33 -->
<g id="node3" class="node">
<title>Node33</title>
<g id="a_node3"><a xlink:href="classSingleton.html#af5cb1e5749949e2b68416cfb8d378044" target="_top" xlink:title="Get an instance of the singleton. ">
<polygon fill="none" stroke="#000000" points="302,-39 302,-69 415,-69 415,-39 302,-39"/>
<text text-anchor="start" x="310" y="-57" font-family="Helvetica,sans-Serif" font-size="10.00" fill="#000000">Singleton&lt; Settings</text>
<text text-anchor="middle" x="358.5" y="-46" font-family="Helvetica,sans-Serif" font-size="10.00" fill="#000000"> &gt;::instance</text>
</a>
</g>
</g>
<!-- Node32&#45;&gt;Node33 -->
<g id="edge2" class="edge">
<title>Node32&#45;&gt;Node33</title>
<path fill="none" stroke="#191970" d="M266.4259,-47.3366C274.7178,-47.2279 283.2128,-47.2215 291.5285,-47.3176"/>
<polygon fill="#191970" stroke="#191970" points="291.4999,-50.8175 301.5571,-47.4855 291.6172,-43.8185 291.4999,-50.8175"/>
</g>
<!-- Node32&#45;&gt;Node33 -->
<g id="edge4" class="edge">
<title>Node32&#45;&gt;Node33</title>
<path fill="none" stroke="#191970" d="M266.4259,-60.6634C274.7178,-60.7721 283.2128,-60.7785 291.5285,-60.6824"/>
<polygon fill="#191970" stroke="#191970" points="291.6172,-64.1815 301.5571,-60.5145 291.4999,-57.1825 291.6172,-64.1815"/>
</g>
<!-- Node34 -->
<g id="node4" class="node">
<title>Node34</title>
<g id="a_node4"><a xlink:href="structStrongType.html#acc66e6d6b9c95193a97a839560499933" target="_top" xlink:title="StrongType::get">
<polygon fill="none" stroke="#000000" points="312.5,-.5 312.5,-19.5 404.5,-19.5 404.5,-.5 312.5,-.5"/>
<text text-anchor="middle" x="358.5" y="-7.5" font-family="Helvetica,sans-Serif" font-size="10.00" fill="#000000">StrongType::get</text>
</a>
</g>
</g>
<!-- Node32&#45;&gt;Node34 -->
<g id="edge3" class="edge">
<title>Node32&#45;&gt;Node34</title>
<path fill="none" stroke="#191970" d="M235.1752,-44.4527C258.4973,-37.9373 289.5968,-29.2492 314.7302,-22.2278"/>
<polygon fill="#191970" stroke="#191970" points="315.7021,-25.5903 324.3915,-19.5287 313.8186,-18.8485 315.7021,-25.5903"/>
</g>
</g>
</svg>
