<?xml version="1.0" encoding="UTF-8" standalone="no"?>
<!DOCTYPE svg PUBLIC "-//W3C//DTD SVG 1.1//EN"
 "http://www.w3.org/Graphics/SVG/1.1/DTD/svg11.dtd">
<!-- Generated by graphviz version 2.40.1 (20161225.0304)
 -->
<!-- Title: UIElement::onMouseEnter Pages: 1 -->
<svg width="496pt" height="28pt"
 viewBox="0.00 0.00 496.00 28.00" xmlns="http://www.w3.org/2000/svg" xmlns:xlink="http://www.w3.org/1999/xlink">
<g id="graph0" class="graph" transform="scale(1 1) rotate(0) translate(4 24)">
<title>UIElement::onMouseEnter</title>
<!-- Node192 -->
<g id="node1" class="node">
<title>Node192</title>
<polygon fill="#bfbfbf" stroke="#000000" points="0,-.5 0,-19.5 143,-19.5 143,-.5 0,-.5"/>
<text text-anchor="middle" x="71.5" y="-7.5" font-family="Helvetica,sans-Serif" font-size="10.00" fill="#000000">UIElement::onMouseEnter</text>
</g>
<!-- Node193 -->
<g id="node2" class="node">
<title>Node193</title>
<g id="a_node2"><a xlink:href="classGame.html#a5ed7fc5be77080f7f6dd5363f7f007a1" target="_top" xlink:title="initializes and displays the main menu initializes and displays the main menu ">
<polygon fill="none" stroke="#000000" points="179,-.5 179,-19.5 282,-19.5 282,-.5 179,-.5"/>
<text text-anchor="middle" x="230.5" y="-7.5" font-family="Helvetica,sans-Serif" font-size="10.00" fill="#000000">Game::mainMenu</text>
</a>
</g>
</g>
<!-- Node192&#45;&gt;Node193 -->
<g id="edge1" class="edge">
<title>Node192&#45;&gt;Node193</title>
<path fill="none" stroke="#191970" d="M153.2798,-10C161.9646,-10 170.6131,-10 178.8103,-10"/>
<polygon fill="#191970" stroke="#191970" points="153.0927,-6.5001 143.0927,-10 153.0927,-13.5001 153.0927,-6.5001"/>
</g>
<!-- Node194 -->
<g id="node3" class="node">
<title>Node194</title>
<g id="a_node3"><a xlink:href="main_8cxx.html#af582d708d899e67ead623eac34a22387" target="_top" xlink:title="protected_main">
<polygon fill="none" stroke="#000000" points="318,-.5 318,-19.5 411,-19.5 411,-.5 318,-.5"/>
<text text-anchor="middle" x="364.5" y="-7.5" font-family="Helvetica,sans-Serif" font-size="10.00" fill="#000000">protected_main</text>
</a>
</g>
</g>
<!-- Node193&#45;&gt;Node194 -->
<g id="edge2" class="edge">
<title>Node193&#45;&gt;Node194</title>
<path fill="none" stroke="#191970" d="M292.5242,-10C300.9726,-10 309.5272,-10 317.6465,-10"/>
<polygon fill="#191970" stroke="#191970" points="292.3079,-6.5001 282.3079,-10 292.3079,-13.5001 292.3079,-6.5001"/>
</g>
<!-- Node195 -->
<g id="node4" class="node">
<title>Node195</title>
<g id="a_node4"><a xlink:href="main_8cxx.html#a3c04138a5bfe5d72780bb7e82a18e627" target="_top" xlink:title="main">
<polygon fill="none" stroke="#000000" points="447,-.5 447,-19.5 488,-19.5 488,-.5 447,-.5"/>
<text text-anchor="middle" x="467.5" y="-7.5" font-family="Helvetica,sans-Serif" font-size="10.00" fill="#000000">main</text>
</a>
</g>
</g>
<!-- Node194&#45;&gt;Node195 -->
<g id="edge3" class="edge">
<title>Node194&#45;&gt;Node195</title>
<path fill="none" stroke="#191970" d="M421.2133,-10C430.4322,-10 439.4259,-10 446.9965,-10"/>
<polygon fill="#191970" stroke="#191970" points="421.1782,-6.5001 411.1782,-10 421.1781,-13.5001 421.1782,-6.5001"/>
</g>
</g>
</svg>
