<?xml version="1.0" encoding="UTF-8" standalone="no"?>
<!DOCTYPE svg PUBLIC "-//W3C//DTD SVG 1.1//EN"
 "http://www.w3.org/Graphics/SVG/1.1/DTD/svg11.dtd">
<!-- Generated by graphviz version 2.40.1 (20161225.0304)
 -->
<!-- Title: Map::loadMapFromFile Pages: 1 -->
<!--zoomable 123 -->
<svg id="main" version="1.1" xmlns="http://www.w3.org/2000/svg" xmlns:xlink="http://www.w3.org/1999/xlink" xml:space="preserve" onload="init(evt)">
<style type="text/css"><![CDATA[
.edge:hover path { stroke: red; }
.edge:hover polygon { stroke: red; fill: red; }
]]></style>
<script type="text/javascript"><![CDATA[
var edges = document.getElementsByTagName('g');
if (edges && edges.length) {
  for (var i=0;i<edges.length;i++) {
    if (edges[i].id.substr(0,4)=='edge') {
      edges[i].setAttribute('class','edge');
    }
  }
}
]]></script>
        <defs>
                <circle id="rim" cx="0" cy="0" r="7"/>
                <circle id="rim2" cx="0" cy="0" r="3.5"/>
                <g id="zoomPlus">
                        <use xlink:href="#rim" fill="#404040">
                                <set attributeName="fill" to="#808080" begin="zoomplus.mouseover" end="zoomplus.mouseout"/>
                        </use>
                        <path d="M-4,0h8M0,-4v8" fill="none" stroke="white" stroke-width="1.5" pointer-events="none"/>
                </g>
                <g id="zoomMin">
                        <use xlink:href="#rim" fill="#404040">
                                <set attributeName="fill" to="#808080" begin="zoomminus.mouseover" end="zoomminus.mouseout"/>
                        </use>
                        <path d="M-4,0h8" fill="none" stroke="white" stroke-width="1.5" pointer-events="none"/>
                </g>
                <g id="dirArrow">
                        <path fill="none" stroke="white" stroke-width="1.5" d="M0,-3.0v7 M-2.5,-0.5L0,-3.0L2.5,-0.5"/>
                </g>
               <g id="resetDef">
                       <use xlink:href="#rim2" fill="#404040">
                               <set attributeName="fill" to="#808080" begin="reset.mouseover" end="reset.mouseout"/>
                       </use>
               </g>
        </defs>

<script type="text/javascript">
var viewWidth = 988;
var viewHeight = 123;
var sectionId = 'dynsection-36';
</script>
<script xlink:href="svgpan.js"/>
<svg id="graph" class="graph">
<g id="viewport">
<title>Map::loadMapFromFile</title>
<!-- Node410 -->
<g id="node1" class="node">
<title>Node410</title>
<polygon fill="#bfbfbf" stroke="#000000" points="0,-57.5 0,-76.5 125,-76.5 125,-57.5 0,-57.5"/>
<text text-anchor="middle" x="62.5" y="-64.5" font-family="Helvetica,sans-Serif" font-size="10.00" fill="#000000">Map::loadMapFromFile</text>
</g>
<!-- Node411 -->
<g id="node2" class="node">
<title>Node411</title>
<g id="a_node2"><a xlink:href="classEngine.html#a83b7dbeee899b36a13d5b07c7ad87ebc" target="_top" xlink:title="Loads a saved game Loads a saved Game. ">
<polygon fill="none" stroke="#000000" points="169.5,-38.5 169.5,-57.5 275.5,-57.5 275.5,-38.5 169.5,-38.5"/>
<text text-anchor="middle" x="222.5" y="-45.5" font-family="Helvetica,sans-Serif" font-size="10.00" fill="#000000">Engine::loadGame</text>
</a>
</g>
</g>
<!-- Node410&#45;&gt;Node411 -->
<g id="edge1" class="edge">
<title>Node410&#45;&gt;Node411</title>
<path fill="none" stroke="#191970" d="M135.3143,-58.3533C146.8222,-56.9867 158.53,-55.5964 169.4749,-54.2967"/>
<polygon fill="#191970" stroke="#191970" points="134.7945,-54.8903 125.277,-59.5452 135.62,-61.8415 134.7945,-54.8903"/>
</g>
<!-- Node419 -->
<g id="node10" class="node">
<title>Node419</title>
<g id="a_node10"><a xlink:href="classMap.html#a404c38b33d61f8c63ce2c2efb864d6dd" target="_top" xlink:title="Set the Tile ID Of Node object Also invokes all necessary texture updates (auto&#45;tiling, slopes, ...) ">
<polygon fill="none" stroke="#000000" points="161,-85.5 161,-104.5 284,-104.5 284,-85.5 161,-85.5"/>
<text text-anchor="middle" x="222.5" y="-92.5" font-family="Helvetica,sans-Serif" font-size="10.00" fill="#000000">Map::setTileIDOfNode</text>
</a>
</g>
</g>
<!-- Node410&#45;&gt;Node419 -->
<g id="edge12" class="edge">
<title>Node410&#45;&gt;Node419</title>
<path fill="none" stroke="#191970" d="M127.327,-78.3447C140.8694,-80.7146 155.014,-83.19 168.1307,-85.4854"/>
<polygon fill="#191970" stroke="#191970" points="127.5691,-74.834 117.1154,-76.5577 126.3624,-81.7292 127.5691,-74.834"/>
</g>
<!-- Node412 -->
<g id="node3" class="node">
<title>Node412</title>
<g id="a_node3"><a xlink:href="classEngine.html#a0ba57971ffb5173ecc425461f65a4cd8" target="_top" xlink:title="Quits the game Sets m_running to false and quitting the game. ">
<polygon fill="none" stroke="#000000" points="336,-19.5 336,-38.5 440,-38.5 440,-19.5 336,-19.5"/>
<text text-anchor="middle" x="388" y="-26.5" font-family="Helvetica,sans-Serif" font-size="10.00" fill="#000000">Engine::quitGame</text>
</a>
</g>
</g>
<!-- Node411&#45;&gt;Node412 -->
<g id="edge2" class="edge">
<title>Node411&#45;&gt;Node412</title>
<path fill="none" stroke="#191970" d="M285.9079,-40.7205C302.4475,-38.8217 320.0792,-36.7976 335.9541,-34.9751"/>
<polygon fill="#191970" stroke="#191970" points="285.3118,-37.2659 275.7762,-41.8837 286.1102,-44.2202 285.3118,-37.2659"/>
</g>
<!-- Node417 -->
<g id="node8" class="node">
<title>Node417</title>
<g id="a_node8"><a xlink:href="classUIManager.html#aa78e356fc3b356d790c848319d1c387e" target="_top" xlink:title="UIManager::setCallbackFunctions">
<polygon fill="none" stroke="#000000" points="492,-38.5 492,-57.5 670,-57.5 670,-38.5 492,-38.5"/>
<text text-anchor="middle" x="581" y="-45.5" font-family="Helvetica,sans-Serif" font-size="10.00" fill="#000000">UIManager::setCallbackFunctions</text>
</a>
</g>
</g>
<!-- Node411&#45;&gt;Node417 -->
<g id="edge10" class="edge">
<title>Node411&#45;&gt;Node417</title>
<path fill="none" stroke="#191970" d="M286.1374,-48C343.3542,-48 427.9828,-48 491.9178,-48"/>
<polygon fill="#191970" stroke="#191970" points="285.784,-44.5001 275.784,-48 285.7839,-51.5001 285.784,-44.5001"/>
</g>
<!-- Node418 -->
<g id="node9" class="node">
<title>Node418</title>
<g id="a_node9"><a xlink:href="classGame.html#a5ed7fc5be77080f7f6dd5363f7f007a1" target="_top" xlink:title="initializes and displays the main menu initializes and displays the main menu ">
<polygon fill="none" stroke="#000000" points="529.5,-.5 529.5,-19.5 632.5,-19.5 632.5,-.5 529.5,-.5"/>
<text text-anchor="middle" x="581" y="-7.5" font-family="Helvetica,sans-Serif" font-size="10.00" fill="#000000">Game::mainMenu</text>
</a>
</g>
</g>
<!-- Node411&#45;&gt;Node418 -->
<g id="edge11" class="edge">
<title>Node411&#45;&gt;Node418</title>
<path fill="none" stroke="#191970" d="M250.2181,-34.001C269.2971,-25.1735 295.5212,-14.6017 320,-10 391.6973,3.478 476.4444,.0032 529.4691,-4.4318"/>
<polygon fill="#191970" stroke="#191970" points="248.4646,-30.9593 240.9394,-38.4173 251.473,-37.2799 248.4646,-30.9593"/>
</g>
<!-- Node413 -->
<g id="node4" class="node">
<title>Node413</title>
<g id="a_node4"><a xlink:href="classEventManager.html#a65ec91fd5016d4f9c4167fb8babed2df" target="_top" xlink:title="EventManager::checkEvents">
<polygon fill="none" stroke="#000000" points="504,-76.5 504,-95.5 658,-95.5 658,-76.5 504,-76.5"/>
<text text-anchor="middle" x="581" y="-83.5" font-family="Helvetica,sans-Serif" font-size="10.00" fill="#000000">EventManager::checkEvents</text>
</a>
</g>
</g>
<!-- Node412&#45;&gt;Node413 -->
<g id="edge3" class="edge">
<title>Node412&#45;&gt;Node413</title>
<path fill="none" stroke="#191970" d="M420.6389,-42.2615C440.9376,-50.1733 467.7112,-60.0072 492,-67 504.2981,-70.5406 517.7239,-73.7429 530.3325,-76.4664"/>
<polygon fill="#191970" stroke="#191970" points="421.8203,-38.9651 411.2335,-38.5527 419.2525,-45.4771 421.8203,-38.9651"/>
</g>
<!-- Node412&#45;&gt;Node417 -->
<g id="edge7" class="edge">
<title>Node412&#45;&gt;Node417</title>
<path fill="none" stroke="#191970" d="M450.192,-35.1225C463.5025,-36.4329 477.8143,-37.8418 491.9137,-39.2298"/>
<polygon fill="#191970" stroke="#191970" points="450.5234,-31.6383 440.2286,-34.1417 449.8375,-38.6046 450.5234,-31.6383"/>
</g>
<!-- Node412&#45;&gt;Node418 -->
<g id="edge8" class="edge">
<title>Node412&#45;&gt;Node418</title>
<path fill="none" stroke="#191970" d="M450.1975,-22.8769C475.7715,-20.3593 505.0406,-17.4779 529.3984,-15.0799"/>
<polygon fill="#191970" stroke="#191970" points="449.8375,-19.3954 440.2286,-23.8583 450.5234,-26.3617 449.8375,-19.3954"/>
</g>
<!-- Node414 -->
<g id="node5" class="node">
<title>Node414</title>
<g id="a_node5"><a xlink:href="classGame.html#a1c2ab25d5216b2f4b2fe41efd2c09114" target="_top" xlink:title="begins the game starts running the game ">
<polygon fill="none" stroke="#000000" points="706,-66.5 706,-85.5 774,-85.5 774,-66.5 706,-66.5"/>
<text text-anchor="middle" x="740" y="-73.5" font-family="Helvetica,sans-Serif" font-size="10.00" fill="#000000">Game::run</text>
</a>
</g>
</g>
<!-- Node413&#45;&gt;Node414 -->
<g id="edge4" class="edge">
<title>Node413&#45;&gt;Node414</title>
<path fill="none" stroke="#191970" d="M668.3849,-80.5041C681.6982,-79.6668 694.7136,-78.8482 705.918,-78.1435"/>
<polygon fill="#191970" stroke="#191970" points="667.9318,-77.0256 658.1712,-81.1465 668.3712,-84.0118 667.9318,-77.0256"/>
</g>
<!-- Node415 -->
<g id="node6" class="node">
<title>Node415</title>
<g id="a_node6"><a xlink:href="main_8cxx.html#af582d708d899e67ead623eac34a22387" target="_top" xlink:title="protected_main">
<polygon fill="none" stroke="#000000" points="810,-38.5 810,-57.5 903,-57.5 903,-38.5 810,-38.5"/>
<text text-anchor="middle" x="856.5" y="-45.5" font-family="Helvetica,sans-Serif" font-size="10.00" fill="#000000">protected_main</text>
</a>
</g>
</g>
<!-- Node414&#45;&gt;Node415 -->
<g id="edge5" class="edge">
<title>Node414&#45;&gt;Node415</title>
<path fill="none" stroke="#191970" d="M783.7518,-65.4845C794.6321,-62.8695 806.233,-60.0813 816.9009,-57.5174"/>
<polygon fill="#191970" stroke="#191970" points="782.915,-62.0859 774.0098,-67.826 784.5509,-68.8921 782.915,-62.0859"/>
</g>
<!-- Node416 -->
<g id="node7" class="node">
<title>Node416</title>
<g id="a_node7"><a xlink:href="main_8cxx.html#a3c04138a5bfe5d72780bb7e82a18e627" target="_top" xlink:title="main">
<polygon fill="none" stroke="#000000" points="939,-38.5 939,-57.5 980,-57.5 980,-38.5 939,-38.5"/>
<text text-anchor="middle" x="959.5" y="-45.5" font-family="Helvetica,sans-Serif" font-size="10.00" fill="#000000">main</text>
</a>
</g>
</g>
<!-- Node415&#45;&gt;Node416 -->
<g id="edge6" class="edge">
<title>Node415&#45;&gt;Node416</title>
<path fill="none" stroke="#191970" d="M913.2133,-48C922.4322,-48 931.4259,-48 938.9965,-48"/>
<polygon fill="#191970" stroke="#191970" points="913.1782,-44.5001 903.1782,-48 913.1781,-51.5001 913.1782,-44.5001"/>
</g>
<!-- Node418&#45;&gt;Node415 -->
<g id="edge9" class="edge">
<title>Node418&#45;&gt;Node415</title>
<path fill="none" stroke="#191970" d="M642.9861,-18.5498C693.6117,-25.5326 764.055,-35.249 809.9575,-41.5804"/>
<polygon fill="#191970" stroke="#191970" points="643.2039,-15.0468 632.8194,-17.1475 642.2474,-21.9811 643.2039,-15.0468"/>
</g>
<!-- Node420 -->
<g id="node11" class="node">
<title>Node420</title>
<g id="a_node11"><a xlink:href="classEngine.html#a7a1521fd7fc731f961ebaf3f723127d9" target="_top" xlink:title="Engine::setTileIDOfNode">
<polygon fill="none" stroke="#000000" points="320,-95.5 320,-114.5 456,-114.5 456,-95.5 320,-95.5"/>
<text text-anchor="middle" x="388" y="-102.5" font-family="Helvetica,sans-Serif" font-size="10.00" fill="#000000">Engine::setTileIDOfNode</text>
</a>
</g>
</g>
<!-- Node419&#45;&gt;Node420 -->
<g id="edge13" class="edge">
<title>Node419&#45;&gt;Node420</title>
<path fill="none" stroke="#191970" d="M294.3736,-99.3428C302.858,-99.8555 311.4976,-100.3775 319.9273,-100.8868"/>
<polygon fill="#191970" stroke="#191970" points="294.319,-95.8332 284.1261,-98.7236 293.8968,-102.8205 294.319,-95.8332"/>
</g>
<!-- Node420&#45;&gt;Node413 -->
<g id="edge14" class="edge">
<title>Node420&#45;&gt;Node413</title>
<path fill="none" stroke="#191970" d="M466.292,-97.2925C478.6288,-96.078 491.3776,-94.8229 503.6918,-93.6106"/>
<polygon fill="#191970" stroke="#191970" points="465.6535,-93.8383 456.0446,-98.3013 466.3394,-100.8047 465.6535,-93.8383"/>
</g>
</g>
</svg>
        <g id="navigator" transform="translate(0 0)" fill="#404254">
                <rect fill="#f2f5e9" fill-opacity="0.5" stroke="#606060" stroke-width=".5" x="0" y="0" width="60" height="60"/>
                <use id="zoomplus" xlink:href="#zoomPlus" x="17" y="9" onmousedown="handleZoom(evt,'in')"/>
                <use id="zoomminus" xlink:href="#zoomMin" x="42" y="9" onmousedown="handleZoom(evt,'out')"/>
                <use id="reset" xlink:href="#resetDef" x="30" y="36" onmousedown="handleReset()"/>
                <g id="arrowUp" xlink:href="#dirArrow" transform="translate(30 24)" onmousedown="handlePan(0,-1)">
                  <use xlink:href="#rim" fill="#404040">
                        <set attributeName="fill" to="#808080" begin="arrowUp.mouseover" end="arrowUp.mouseout"/>
                  </use>
                  <path fill="none" stroke="white" stroke-width="1.5" d="M0,-3.0v7 M-2.5,-0.5L0,-3.0L2.5,-0.5"/>
                </g>
                <g id="arrowRight" xlink:href="#dirArrow" transform="rotate(90) translate(36 -43)" onmousedown="handlePan(1,0)">
                  <use xlink:href="#rim" fill="#404040">
                        <set attributeName="fill" to="#808080" begin="arrowRight.mouseover" end="arrowRight.mouseout"/>
                  </use>
                  <path fill="none" stroke="white" stroke-width="1.5" d="M0,-3.0v7 M-2.5,-0.5L0,-3.0L2.5,-0.5"/>
                </g>
                <g id="arrowDown" xlink:href="#dirArrow" transform="rotate(180) translate(-30 -48)" onmousedown="handlePan(0,1)">
                  <use xlink:href="#rim" fill="#404040">
                        <set attributeName="fill" to="#808080" begin="arrowDown.mouseover" end="arrowDown.mouseout"/>
                  </use>
                  <path fill="none" stroke="white" stroke-width="1.5" d="M0,-3.0v7 M-2.5,-0.5L0,-3.0L2.5,-0.5"/>
                </g>
                <g id="arrowLeft" xlink:href="#dirArrow" transform="rotate(270) translate(-36 17)" onmousedown="handlePan(-1,0)">
                  <use xlink:href="#rim" fill="#404040">
                        <set attributeName="fill" to="#808080" begin="arrowLeft.mouseover" end="arrowLeft.mouseout"/>
                  </use>
                  <path fill="none" stroke="white" stroke-width="1.5" d="M0,-3.0v7 M-2.5,-0.5L0,-3.0L2.5,-0.5"/>
                </g>
        </g>
        <svg viewBox="0 0 15 15" width="100%" height="30px" preserveAspectRatio="xMaxYMin meet">
         <g id="arrow_out" transform="scale(0.3 0.3)">
          <a xlink:href="classMap_afefe996cc1f62b61ec60d0ae415953bf_icgraph_org.svg" target="_base">
           <rect id="button" ry="5" rx="5" y="6" x="6" height="38" width="38"
                fill="#f2f5e9" fill-opacity="0.5" stroke="#606060" stroke-width="1.0"/>
           <path id="arrow"
             d="M 11.500037,31.436501 C 11.940474,20.09759 22.043105,11.32322 32.158766,21.979434 L 37.068811,17.246167 C 37.068811,17.246167 37.088388,32 37.088388,32 L 22.160133,31.978069 C 22.160133,31.978069 26.997745,27.140456 26.997745,27.140456 C 18.528582,18.264221 13.291696,25.230495 11.500037,31.436501 z"
             style="fill:#404040;"/>
          </a>
         </g>
        </svg>
</svg>
