<?xml version="1.0" encoding="UTF-8" standalone="no"?>
<!DOCTYPE svg PUBLIC "-//W3C//DTD SVG 1.1//EN"
 "http://www.w3.org/Graphics/SVG/1.1/DTD/svg11.dtd">
<!-- Generated by graphviz version 2.40.1 (20161225.0304)
 -->
<!-- Title: UIManager::initializeDollarVariables Pages: 1 -->
<!--zoomable 617 -->
<svg id="main" version="1.1" xmlns="http://www.w3.org/2000/svg" xmlns:xlink="http://www.w3.org/1999/xlink" xml:space="preserve" onload="init(evt)">
<style type="text/css"><![CDATA[
.edge:hover path { stroke: red; }
.edge:hover polygon { stroke: red; fill: red; }
]]></style>
<script type="text/javascript"><![CDATA[
var edges = document.getElementsByTagName('g');
if (edges && edges.length) {
  for (var i=0;i<edges.length;i++) {
    if (edges[i].id.substr(0,4)=='edge') {
      edges[i].setAttribute('class','edge');
    }
  }
}
]]></script>
        <defs>
                <circle id="rim" cx="0" cy="0" r="7"/>
                <circle id="rim2" cx="0" cy="0" r="3.5"/>
                <g id="zoomPlus">
                        <use xlink:href="#rim" fill="#404040">
                                <set attributeName="fill" to="#808080" begin="zoomplus.mouseover" end="zoomplus.mouseout"/>
                        </use>
                        <path d="M-4,0h8M0,-4v8" fill="none" stroke="white" stroke-width="1.5" pointer-events="none"/>
                </g>
                <g id="zoomMin">
                        <use xlink:href="#rim" fill="#404040">
                                <set attributeName="fill" to="#808080" begin="zoomminus.mouseover" end="zoomminus.mouseout"/>
                        </use>
                        <path d="M-4,0h8" fill="none" stroke="white" stroke-width="1.5" pointer-events="none"/>
                </g>
                <g id="dirArrow">
                        <path fill="none" stroke="white" stroke-width="1.5" d="M0,-3.0v7 M-2.5,-0.5L0,-3.0L2.5,-0.5"/>
                </g>
               <g id="resetDef">
                       <use xlink:href="#rim2" fill="#404040">
                               <set attributeName="fill" to="#808080" begin="reset.mouseover" end="reset.mouseout"/>
                       </use>
               </g>
        </defs>

<script type="text/javascript">
var viewWidth = 1268;
var viewHeight = 617;
var sectionId = 'dynsection-17';
</script>
<script xlink:href="svgpan.js"/>
<svg id="graph" class="graph">
<g id="viewport">
<title>UIManager::initializeDollarVariables</title>
<!-- Node126 -->
<g id="node1" class="node">
<title>Node126</title>
<polygon fill="#bfbfbf" stroke="#000000" points="0,-355.9556 0,-385.9556 146,-385.9556 146,-355.9556 0,-355.9556"/>
<text text-anchor="start" x="8" y="-373.9556" font-family="Helvetica,sans-Serif" font-size="10.00" fill="#000000">UIManager::initializeDollar</text>
<text text-anchor="middle" x="73" y="-362.9556" font-family="Helvetica,sans-Serif" font-size="10.00" fill="#000000">Variables</text>
</g>
<!-- Node127 -->
<g id="node2" class="node">
<title>Node127</title>
<g id="a_node2"><a xlink:href="classUIManager.html#a1f663947ee80bfcb9567f82aa5d05607" target="_top" xlink:title="Get all Ui Element objects Returns a container that holds ALL UiElements, even those in buttongroups...">
<polygon fill="none" stroke="#000000" points="195,-589.4556 195,-608.4556 355,-608.4556 355,-589.4556 195,-589.4556"/>
<text text-anchor="middle" x="275" y="-596.4556" font-family="Helvetica,sans-Serif" font-size="10.00" fill="#000000">UIManager::getAllUiElements</text>
</a>
</g>
</g>
<!-- Node126&#45;&gt;Node127 -->
<g id="edge1" class="edge">
<title>Node126&#45;&gt;Node127</title>
<path fill="none" stroke="#191970" d="M76.2109,-386.2373C85.2652,-425.3115 114.8389,-529.3431 182,-579.9556 184.3443,-581.7222 186.8125,-583.335 189.3762,-584.8068"/>
<polygon fill="#191970" stroke="#191970" points="187.9043,-587.9835 198.4188,-589.2862 191.0116,-581.7109 187.9043,-587.9835"/>
</g>
<!-- Node128 -->
<g id="node3" class="node">
<title>Node128</title>
<g id="a_node3"><a xlink:href="namespaceutils_1_1strings.html#afa781708d9b82cab99d894cf7728ddf1" target="_top" xlink:title="checks if a string starts with a certain substring ">
<polygon fill="none" stroke="#000000" points="208.5,-551.4556 208.5,-570.4556 341.5,-570.4556 341.5,-551.4556 208.5,-551.4556"/>
<text text-anchor="middle" x="275" y="-558.4556" font-family="Helvetica,sans-Serif" font-size="10.00" fill="#000000">utils::strings::startsWith</text>
</a>
</g>
</g>
<!-- Node126&#45;&gt;Node128 -->
<g id="edge2" class="edge">
<title>Node126&#45;&gt;Node128</title>
<path fill="none" stroke="#191970" d="M78.0369,-386.1961C90.0893,-420.1302 123.9831,-502.0577 182,-541.9556 187.1683,-545.5098 192.8556,-548.4272 198.7933,-550.8184"/>
<polygon fill="#191970" stroke="#191970" points="197.6968,-554.1429 208.2916,-554.1591 200.0193,-547.5394 197.6968,-554.1429"/>
</g>
<!-- Node129 -->
<g id="node4" class="node">
<title>Node129</title>
<g id="a_node4"><a xlink:href="classComboBox.html#a5cf164ba9b28158f7d3f326200b22b9b" target="_top" xlink:title="Clears the element&#39;s text field clears the text field of the comboBox. ">
<polygon fill="none" stroke="#000000" points="225,-513.4556 225,-532.4556 325,-532.4556 325,-513.4556 225,-513.4556"/>
<text text-anchor="middle" x="275" y="-520.4556" font-family="Helvetica,sans-Serif" font-size="10.00" fill="#000000">ComboBox::clear</text>
</a>
</g>
</g>
<!-- Node126&#45;&gt;Node129 -->
<g id="edge3" class="edge">
<title>Node126&#45;&gt;Node129</title>
<path fill="none" stroke="#191970" d="M80.8291,-386.1846C96.1483,-414.3371 132.9217,-474.3436 182,-503.9556 191.931,-509.9476 203.4309,-514.081 214.8865,-516.9248"/>
<polygon fill="#191970" stroke="#191970" points="214.3857,-520.3977 224.9015,-519.1063 215.8755,-513.5581 214.3857,-520.3977"/>
</g>
<!-- Node130 -->
<g id="node5" class="node">
<title>Node130</title>
<g id="a_node5"><a xlink:href="classComboBox.html#a0c422945ffd5c8d65bc4d61bd092bece" target="_top" xlink:title="ComboBox::addElement">
<polygon fill="none" stroke="#000000" points="208,-475.4556 208,-494.4556 342,-494.4556 342,-475.4556 208,-475.4556"/>
<text text-anchor="middle" x="275" y="-482.4556" font-family="Helvetica,sans-Serif" font-size="10.00" fill="#000000">ComboBox::addElement</text>
</a>
</g>
</g>
<!-- Node126&#45;&gt;Node130 -->
<g id="edge4" class="edge">
<title>Node126&#45;&gt;Node130</title>
<path fill="none" stroke="#191970" d="M85.7195,-386.1639C104.4793,-407.5288 141.7217,-446.0398 182,-465.9556 186.9856,-468.4208 192.2731,-470.5662 197.6961,-472.4333"/>
<polygon fill="#191970" stroke="#191970" points="196.9799,-475.8758 207.5682,-475.5025 199.0581,-469.1914 196.9799,-475.8758"/>
</g>
<!-- Node132 -->
<g id="node7" class="node">
<title>Node132</title>
<g id="a_node7"><a xlink:href="classSingleton.html#af5cb1e5749949e2b68416cfb8d378044" target="_top" xlink:title="Get an instance of the singleton. ">
<polygon fill="none" stroke="#000000" points="873,-195.9556 873,-225.9556 986,-225.9556 986,-195.9556 873,-195.9556"/>
<text text-anchor="start" x="881" y="-213.9556" font-family="Helvetica,sans-Serif" font-size="10.00" fill="#000000">Singleton&lt; Settings</text>
<text text-anchor="middle" x="929.5" y="-202.9556" font-family="Helvetica,sans-Serif" font-size="10.00" fill="#000000"> &gt;::instance</text>
</a>
</g>
</g>
<!-- Node126&#45;&gt;Node132 -->
<g id="edge6" class="edge">
<title>Node126&#45;&gt;Node132</title>
<path fill="none" stroke="#191970" d="M77.7465,-355.9398C90.8632,-322.342 130.0947,-242.1099 182,-190.9556 264.5787,-109.5718 293.003,-87.4555 404,-53.9556 575.923,-2.0677 646.5293,31.6387 808,-46.9556 866.7007,-75.5276 905.427,-147.704 921.3201,-186.28"/>
<polygon fill="#191970" stroke="#191970" points="918.1272,-187.7255 925.0317,-195.7616 924.6456,-185.1738 918.1272,-187.7255"/>
</g>
<!-- Node126&#45;&gt;Node132 -->
<g id="edge34" class="edge">
<title>Node126&#45;&gt;Node132</title>
<path fill="none" stroke="#191970" d="M82.2677,-355.9478C98.5625,-325.1097 135.1097,-255.1675 182,-208.9556 264.5787,-127.5718 293.003,-105.4555 404,-71.9556 575.923,-20.0677 646.5293,13.6387 808,-64.9556 861.1116,-90.8072 897.8715,-152.3551 916.1619,-186.8822"/>
<polygon fill="#191970" stroke="#191970" points="913.1084,-188.5966 920.8292,-195.852 919.3181,-185.3655 913.1084,-188.5966"/>
</g>
<!-- Node133 -->
<g id="node8" class="node">
<title>Node133</title>
<g id="a_node8"><a xlink:href="classComboBox.html#ad0dba514b01ed2bb3c41c738c80a7d6a" target="_top" xlink:title="Set ID of selected element sets the ID of the selected element in the comboBox. ">
<polygon fill="none" stroke="#000000" points="645,-437.4556 645,-456.4556 777,-456.4556 777,-437.4556 645,-437.4556"/>
<text text-anchor="middle" x="711" y="-444.4556" font-family="Helvetica,sans-Serif" font-size="10.00" fill="#000000">ComboBox::setActiveID</text>
</a>
</g>
</g>
<!-- Node126&#45;&gt;Node133 -->
<g id="edge7" class="edge">
<title>Node126&#45;&gt;Node133</title>
<path fill="none" stroke="#191970" d="M146.4323,-368.3809C266.8586,-365.0474 500.6783,-362.5559 578,-389.9556 596.8514,-396.6358 596.1843,-407.8672 614,-416.9556 628.1687,-424.1836 644.4005,-430.0434 659.4806,-434.6015"/>
<polygon fill="#191970" stroke="#191970" points="658.6121,-437.9937 669.1908,-437.4102 660.5571,-431.2694 658.6121,-437.9937"/>
</g>
<!-- Node134 -->
<g id="node9" class="node">
<title>Node134</title>
<g id="a_node9"><a xlink:href="classComboBox.html#a6c15ed04bb4eee2130939e9e2045a5eb" target="_top" xlink:title="ComboBox::count">
<polygon fill="none" stroke="#000000" points="223.5,-437.4556 223.5,-456.4556 326.5,-456.4556 326.5,-437.4556 223.5,-437.4556"/>
<text text-anchor="middle" x="275" y="-444.4556" font-family="Helvetica,sans-Serif" font-size="10.00" fill="#000000">ComboBox::count</text>
</a>
</g>
</g>
<!-- Node126&#45;&gt;Node134 -->
<g id="edge8" class="edge">
<title>Node126&#45;&gt;Node134</title>
<path fill="none" stroke="#191970" d="M101.0418,-386.1801C122.6848,-397.4725 153.6264,-412.6357 182,-422.9556 194.4874,-427.4975 208.2119,-431.5373 221.1933,-434.9475"/>
<polygon fill="#191970" stroke="#191970" points="220.3882,-438.3541 230.9427,-437.4304 222.1158,-431.5706 220.3882,-438.3541"/>
</g>
<!-- Node135 -->
<g id="node10" class="node">
<title>Node135</title>
<g id="a_node10"><a xlink:href="classComboBox.html#abcaec38988ca3a571907d33ddb84c5a6" target="_top" xlink:title="ComboBox::registerCallback\lFunction">
<polygon fill="none" stroke="#000000" points="413.5,-437.9556 413.5,-467.9556 568.5,-467.9556 568.5,-437.9556 413.5,-437.9556"/>
<text text-anchor="start" x="421.5" y="-455.9556" font-family="Helvetica,sans-Serif" font-size="10.00" fill="#000000">ComboBox::registerCallback</text>
<text text-anchor="middle" x="491" y="-444.9556" font-family="Helvetica,sans-Serif" font-size="10.00" fill="#000000">Function</text>
</a>
</g>
</g>
<!-- Node126&#45;&gt;Node135 -->
<g id="edge10" class="edge">
<title>Node126&#45;&gt;Node135</title>
<path fill="none" stroke="#191970" d="M146.0806,-384.8731C205.801,-396.2951 292.4009,-412.9695 368,-427.9556 380.7748,-430.488 394.2887,-433.2005 407.5004,-435.8711"/>
<polygon fill="#191970" stroke="#191970" points="407.0315,-439.3471 417.5273,-437.9014 408.4208,-432.4864 407.0315,-439.3471"/>
</g>
<!-- Node136 -->
<g id="node11" class="node">
<title>Node136</title>
<g id="a_node11"><a xlink:href="namespaceSignal.html#a6e0df6c5db8c544e147a57b4d89171ca" target="_top" xlink:title="This function creates a std::function by binding object to the member function pointer method...">
<polygon fill="none" stroke="#000000" points="239.5,-285.4556 239.5,-304.4556 310.5,-304.4556 310.5,-285.4556 239.5,-285.4556"/>
<text text-anchor="middle" x="275" y="-292.4556" font-family="Helvetica,sans-Serif" font-size="10.00" fill="#000000">Signal::slot</text>
</a>
</g>
</g>
<!-- Node126&#45;&gt;Node136 -->
<g id="edge11" class="edge">
<title>Node126&#45;&gt;Node136</title>
<path fill="none" stroke="#191970" d="M97.2093,-355.7623C118.7245,-342.8872 151.4169,-324.8317 182,-313.9556 197.0124,-308.6168 213.951,-304.6005 229.2193,-301.6693"/>
<polygon fill="#191970" stroke="#191970" points="230.2629,-305.0373 239.4786,-299.8104 229.0148,-298.1494 230.2629,-305.0373"/>
</g>
<!-- Node137 -->
<g id="node12" class="node">
<title>Node137</title>
<g id="a_node12"><a xlink:href="classUIManager.html#a3ccb2fc669262f18ebdcdf3d5c43a3e8" target="_top" xlink:title="CallbackFunction that sets the Build Menu Position Used as callback function for the ComboBox that ho...">
<polygon fill="none" stroke="#000000" points="185,-323.4556 185,-342.4556 365,-342.4556 365,-323.4556 185,-323.4556"/>
<text text-anchor="middle" x="275" y="-330.4556" font-family="Helvetica,sans-Serif" font-size="10.00" fill="#000000">UIManager::setBuildMenuPosition</text>
</a>
</g>
</g>
<!-- Node126&#45;&gt;Node137 -->
<g id="edge12" class="edge">
<title>Node126&#45;&gt;Node137</title>
<path fill="none" stroke="#191970" d="M146.2122,-357.183C168.6307,-352.9657 193.0297,-348.3758 214.5017,-344.3365"/>
<polygon fill="#191970" stroke="#191970" points="215.2831,-347.751 224.4636,-342.4625 213.9889,-340.8717 215.2831,-347.751"/>
</g>
<!-- Node151 -->
<g id="node26" class="node">
<title>Node151</title>
<g id="a_node26"><a xlink:href="classUIManager.html#ac927e1cd3dea979202ea9dbf1195b583" target="_top" xlink:title="UIManager::changeResolution">
<polygon fill="none" stroke="#000000" points="194.5,-247.4556 194.5,-266.4556 355.5,-266.4556 355.5,-247.4556 194.5,-247.4556"/>
<text text-anchor="middle" x="275" y="-254.4556" font-family="Helvetica,sans-Serif" font-size="10.00" fill="#000000">UIManager::changeResolution</text>
</a>
</g>
</g>
<!-- Node126&#45;&gt;Node151 -->
<g id="edge35" class="edge">
<title>Node126&#45;&gt;Node151</title>
<path fill="none" stroke="#191970" d="M85.7195,-355.7474C104.4793,-334.3824 141.7217,-295.8715 182,-275.9556 186.8933,-273.5361 192.0773,-271.4246 197.395,-269.582"/>
<polygon fill="#191970" stroke="#191970" points="198.5818,-272.8779 207.0771,-266.547 196.488,-266.1984 198.5818,-272.8779"/>
</g>
<!-- Node153 -->
<g id="node28" class="node">
<title>Node153</title>
<g id="a_node28"><a xlink:href="classUIManager.html#af2ffb4ee45e57152164643ef6cddda37" target="_top" xlink:title="UIManager::changeFullScreenMode">
<polygon fill="none" stroke="#000000" points="182,-209.4556 182,-228.4556 368,-228.4556 368,-209.4556 182,-209.4556"/>
<text text-anchor="middle" x="275" y="-216.4556" font-family="Helvetica,sans-Serif" font-size="10.00" fill="#000000">UIManager::changeFullScreenMode</text>
</a>
</g>
</g>
<!-- Node126&#45;&gt;Node153 -->
<g id="edge41" class="edge">
<title>Node126&#45;&gt;Node153</title>
<path fill="none" stroke="#191970" d="M80.8291,-355.7266C96.1483,-327.5741 132.9217,-267.5676 182,-237.9556 185.4724,-235.8605 189.1366,-233.9927 192.9236,-232.3277"/>
<polygon fill="#191970" stroke="#191970" points="194.4936,-235.4728 202.5509,-228.5931 191.9619,-228.9467 194.4936,-235.4728"/>
</g>
<!-- Node131 -->
<g id="node6" class="node">
<title>Node131</title>
<g id="a_node6"><a xlink:href="classComboBox.html#aa344838cace46be94ba0cad37700b9ec" target="_top" xlink:title="ComboBox::centerTextLabel">
<polygon fill="none" stroke="#000000" points="414.5,-487.4556 414.5,-506.4556 567.5,-506.4556 567.5,-487.4556 414.5,-487.4556"/>
<text text-anchor="middle" x="491" y="-494.4556" font-family="Helvetica,sans-Serif" font-size="10.00" fill="#000000">ComboBox::centerTextLabel</text>
</a>
</g>
</g>
<!-- Node130&#45;&gt;Node131 -->
<g id="edge5" class="edge">
<title>Node130&#45;&gt;Node131</title>
<path fill="none" stroke="#191970" d="M342.1597,-488.6867C361.8487,-489.7806 383.6615,-490.9924 404.3806,-492.1434"/>
<polygon fill="#191970" stroke="#191970" points="404.2711,-495.6427 414.4498,-492.7028 404.6594,-488.6534 404.2711,-495.6427"/>
</g>
<!-- Node134&#45;&gt;Node135 -->
<g id="edge9" class="edge">
<title>Node134&#45;&gt;Node135</title>
<path fill="none" stroke="#191970" d="M326.7374,-448.3928C349.6552,-449.0294 377.2627,-449.7963 403.2481,-450.5181"/>
<polygon fill="#191970" stroke="#191970" points="403.4024,-454.0236 413.4958,-450.8027 403.5968,-447.0263 403.4024,-454.0236"/>
</g>
<!-- Node137&#45;&gt;Node132 -->
<g id="edge13" class="edge">
<title>Node137&#45;&gt;Node132</title>
<path fill="none" stroke="#191970" d="M365.0609,-338.3054C473.3747,-341.7632 659.1871,-338.109 808,-285.9556 843.2113,-273.6154 879.0185,-249.8595 902.5488,-232.3776"/>
<polygon fill="#191970" stroke="#191970" points="904.778,-235.0799 910.6386,-226.2535 900.5529,-229.4987 904.778,-235.0799"/>
</g>
<!-- Node138 -->
<g id="node13" class="node">
<title>Node138</title>
<g id="a_node13"><a xlink:href="classComboBox.html#afddbdfd25efa15206eb724b641665cfc" target="_top" xlink:title="Get ID of selected element returns the ID of the selected element in the comboBox. ">
<polygon fill="none" stroke="#000000" points="424.5,-285.4556 424.5,-304.4556 557.5,-304.4556 557.5,-285.4556 424.5,-285.4556"/>
<text text-anchor="middle" x="491" y="-292.4556" font-family="Helvetica,sans-Serif" font-size="10.00" fill="#000000">ComboBox::getActiveID</text>
</a>
</g>
</g>
<!-- Node137&#45;&gt;Node138 -->
<g id="edge14" class="edge">
<title>Node137&#45;&gt;Node138</title>
<path fill="none" stroke="#191970" d="M329.2271,-323.4157C358.884,-318.1983 395.8037,-311.7031 426.8821,-306.2356"/>
<polygon fill="#191970" stroke="#191970" points="427.5083,-309.6793 436.7506,-304.4995 426.2954,-302.7852 427.5083,-309.6793"/>
</g>
<!-- Node139 -->
<g id="node14" class="node">
<title>Node139</title>
<g id="a_node14"><a xlink:href="classUIManager.html#af885d42286536573cd418ed008abfc07" target="_top" xlink:title="UIManager::setBuildMenuLayout">
<polygon fill="none" stroke="#000000" points="404,-399.4556 404,-418.4556 578,-418.4556 578,-399.4556 404,-399.4556"/>
<text text-anchor="middle" x="491" y="-406.4556" font-family="Helvetica,sans-Serif" font-size="10.00" fill="#000000">UIManager::setBuildMenuLayout</text>
</a>
</g>
</g>
<!-- Node137&#45;&gt;Node139 -->
<g id="edge16" class="edge">
<title>Node137&#45;&gt;Node139</title>
<path fill="none" stroke="#191970" d="M302.3565,-342.5811C340.9026,-356.1436 411.2904,-380.9097 454.333,-396.0543"/>
<polygon fill="#191970" stroke="#191970" points="453.2708,-399.3908 463.8656,-399.4083 455.5941,-392.7876 453.2708,-399.3908"/>
</g>
<!-- Node142 -->
<g id="node17" class="node">
<title>Node142</title>
<g id="a_node17"><a xlink:href="classLayout.html#afa734c5af10f59f3dadb066054fe81ab" target="_top" xlink:title="Arrange the layout elements. ">
<polygon fill="none" stroke="#000000" points="421.5,-247.4556 421.5,-266.4556 560.5,-266.4556 560.5,-247.4556 421.5,-247.4556"/>
<text text-anchor="middle" x="491" y="-254.4556" font-family="Helvetica,sans-Serif" font-size="10.00" fill="#000000">Layout::arrangeElements</text>
</a>
</g>
</g>
<!-- Node137&#45;&gt;Node142 -->
<g id="edge19" class="edge">
<title>Node137&#45;&gt;Node142</title>
<path fill="none" stroke="#191970" d="M345.7223,-323.3153C353.4934,-320.8646 361.0849,-317.7962 368,-313.9556 388.3382,-302.66 383.7384,-287.3882 404,-275.9556 407.97,-273.7156 412.1795,-271.7395 416.5208,-269.9963"/>
<polygon fill="#191970" stroke="#191970" points="417.9541,-273.2009 426.1932,-266.5399 415.5986,-266.6091 417.9541,-273.2009"/>
</g>
<!-- Node138&#45;&gt;Node133 -->
<g id="edge15" class="edge">
<title>Node138&#45;&gt;Node133</title>
<path fill="none" stroke="#191970" d="M509.1611,-304.6025C528.1552,-315.3863 557.9411,-334.3369 578,-356.9556 600.1698,-381.9545 587.5425,-402.5487 614,-422.9556 620.4455,-427.9271 627.7869,-431.8824 635.4793,-435.0271"/>
<polygon fill="#191970" stroke="#191970" points="634.4055,-438.3606 644.9997,-438.4746 636.7889,-431.7789 634.4055,-438.3606"/>
</g>
<!-- Node140 -->
<g id="node15" class="node">
<title>Node140</title>
<g id="a_node15"><a xlink:href="namespaceutils_1_1strings.html#a1460a4e19b93604e32bb76f8407c4221" target="_top" xlink:title="checks if a string ends with a certain substring ">
<polygon fill="none" stroke="#000000" points="647,-475.4556 647,-494.4556 775,-494.4556 775,-475.4556 647,-475.4556"/>
<text text-anchor="middle" x="711" y="-482.4556" font-family="Helvetica,sans-Serif" font-size="10.00" fill="#000000">utils::strings::endsWith</text>
</a>
</g>
</g>
<!-- Node139&#45;&gt;Node140 -->
<g id="edge17" class="edge">
<title>Node139&#45;&gt;Node140</title>
<path fill="none" stroke="#191970" d="M555.8068,-418.5399C563.5493,-420.996 571.133,-424.081 578,-427.9556 598.2616,-439.3882 593.6162,-454.7424 614,-465.9556 621.1618,-469.8954 629.0167,-473.0268 637.0587,-475.5143"/>
<polygon fill="#191970" stroke="#191970" points="636.3562,-478.9513 646.9271,-478.2402 638.22,-472.2039 636.3562,-478.9513"/>
</g>
<!-- Node141 -->
<g id="node16" class="node">
<title>Node141</title>
<g id="a_node16"><a xlink:href="namespaceutils_1_1strings.html#ab8a6e07e519cb0ee76d762fe635901c1" target="_top" xlink:title="Erase First Occurrence of given substring from main string. ">
<polygon fill="none" stroke="#000000" points="642,-513.9556 642,-543.9556 780,-543.9556 780,-513.9556 642,-513.9556"/>
<text text-anchor="start" x="650" y="-531.9556" font-family="Helvetica,sans-Serif" font-size="10.00" fill="#000000">utils::strings::removeSub</text>
<text text-anchor="middle" x="711" y="-520.9556" font-family="Helvetica,sans-Serif" font-size="10.00" fill="#000000">String</text>
</a>
</g>
</g>
<!-- Node139&#45;&gt;Node141 -->
<g id="edge18" class="edge">
<title>Node139&#45;&gt;Node141</title>
<path fill="none" stroke="#191970" d="M561.9534,-418.4895C567.7075,-420.9973 573.1594,-424.1071 578,-427.9556 607.2559,-451.2157 585.1821,-480.1551 614,-503.9556 619.5772,-508.5618 625.9027,-512.3312 632.5862,-515.414"/>
<polygon fill="#191970" stroke="#191970" points="631.3038,-518.6709 641.8851,-519.2065 633.9474,-512.1892 631.3038,-518.6709"/>
</g>
<!-- Node142&#45;&gt;Node132 -->
<g id="edge20" class="edge">
<title>Node142&#45;&gt;Node132</title>
<path fill="none" stroke="#191970" d="M560.5973,-257.1081C625.2615,-260.0593 723.9538,-263.333 808,-247.9556 829.0686,-244.1008 851.2249,-236.7764 870.7629,-229.5461"/>
<polygon fill="#191970" stroke="#191970" points="872.0025,-232.8193 880.1277,-226.0199 869.5358,-226.2683 872.0025,-232.8193"/>
</g>
<!-- Node142&#45;&gt;Node132 -->
<g id="edge23" class="edge">
<title>Node142&#45;&gt;Node132</title>
<path fill="none" stroke="#191970" d="M525.6101,-266.4845C584.282,-275.9403 706.7656,-284.4778 808,-265.9556 842.0807,-259.7201 879.0074,-244.4056 903.0942,-231.2083"/>
<polygon fill="#191970" stroke="#191970" points="905.0555,-234.1177 911.9708,-226.0909 901.5593,-228.0533 905.0555,-234.1177"/>
</g>
<!-- Node143 -->
<g id="node18" class="node">
<title>Node143</title>
<g id="a_node18"><a xlink:href="classLayout.html#a79480df6d9dd2d32b23468c05c6ac944" target="_top" xlink:title="Calculates height and width of layout groups. ">
<polygon fill="none" stroke="#000000" points="630,-217.9556 630,-247.9556 792,-247.9556 792,-217.9556 630,-217.9556"/>
<text text-anchor="start" x="638" y="-235.9556" font-family="Helvetica,sans-Serif" font-size="10.00" fill="#000000">Layout::calculateLayoutGroup</text>
<text text-anchor="middle" x="711" y="-224.9556" font-family="Helvetica,sans-Serif" font-size="10.00" fill="#000000">Dimensions</text>
</a>
</g>
</g>
<!-- Node142&#45;&gt;Node143 -->
<g id="edge21" class="edge">
<title>Node142&#45;&gt;Node143</title>
<path fill="none" stroke="#191970" d="M560.6094,-249.3619C579.4552,-247.306 600.1379,-245.0497 619.9721,-242.8859"/>
<polygon fill="#191970" stroke="#191970" points="620.3779,-246.3625 629.9393,-241.7986 619.6187,-239.4038 620.3779,-246.3625"/>
</g>
<!-- Node144 -->
<g id="node19" class="node">
<title>Node144</title>
<g id="a_node19"><a xlink:href="classUIManager.html#a0d32c5b63c4110ff8e43ab06c1c7d761" target="_top" xlink:title="Get the Layoutgroup container Returns the container, that holds LayoutGroups. ">
<polygon fill="none" stroke="#000000" points="844,-399.4556 844,-418.4556 1015,-418.4556 1015,-399.4556 844,-399.4556"/>
<text text-anchor="middle" x="929.5" y="-406.4556" font-family="Helvetica,sans-Serif" font-size="10.00" fill="#000000">UIManager::getAllLayoutGroups</text>
</a>
</g>
</g>
<!-- Node142&#45;&gt;Node144 -->
<g id="edge24" class="edge">
<title>Node142&#45;&gt;Node144</title>
<path fill="none" stroke="#191970" d="M560.8379,-265.0283C567.1096,-267.7977 572.9764,-271.369 578,-275.9556 617.2382,-311.7812 572.108,-357.2727 614,-389.9556 647.14,-415.8105 753.602,-417.525 833.7621,-414.7326"/>
<polygon fill="#191970" stroke="#191970" points="834.034,-418.225 843.8952,-414.3512 833.7706,-411.2299 834.034,-418.225"/>
</g>
<!-- Node145 -->
<g id="node20" class="node">
<title>Node145</title>
<g id="a_node20"><a xlink:href="classLayout.html#a99004e4afcea6a945e3890b19cce6236" target="_top" xlink:title="Arrange Elements that are aligned to a parent This is a seperate function, so it can recurse if a par...">
<polygon fill="none" stroke="#000000" points="629,-361.4556 629,-380.4556 793,-380.4556 793,-361.4556 629,-361.4556"/>
<text text-anchor="middle" x="711" y="-368.4556" font-family="Helvetica,sans-Serif" font-size="10.00" fill="#000000">Layout::arrangeChildElements</text>
</a>
</g>
</g>
<!-- Node142&#45;&gt;Node145 -->
<g id="edge25" class="edge">
<title>Node142&#45;&gt;Node145</title>
<path fill="none" stroke="#191970" d="M553.7187,-266.4609C562.1313,-268.9307 570.4518,-272.0405 578,-275.9556 597.2675,-285.9493 596.7913,-295.728 614,-308.9556 636.9817,-326.6208 665.0564,-344.1695 685.0774,-356.064"/>
<polygon fill="#191970" stroke="#191970" points="683.5367,-359.2182 693.9314,-361.2678 687.0836,-353.1833 683.5367,-359.2182"/>
</g>
<!-- Node143&#45;&gt;Node132 -->
<g id="edge22" class="edge">
<title>Node143&#45;&gt;Node132</title>
<path fill="none" stroke="#191970" d="M792.0508,-224.7949C815.3267,-222.4513 840.4357,-219.9232 862.7443,-217.677"/>
<polygon fill="#191970" stroke="#191970" points="863.1815,-221.1508 872.7805,-216.6665 862.4802,-214.186 863.1815,-221.1508"/>
</g>
<!-- Node145&#45;&gt;Node132 -->
<g id="edge26" class="edge">
<title>Node145&#45;&gt;Node132</title>
<path fill="none" stroke="#191970" d="M746.4672,-361.4492C766.373,-357.7805 790.623,-351.7805 808,-337.9556 835.6868,-315.9285 821.3425,-294.129 844,-266.9556 855.0754,-253.6729 869.3485,-241.4827 883.0486,-231.765"/>
<polygon fill="#191970" stroke="#191970" points="885.1639,-234.5593 891.471,-226.0462 881.2317,-228.7681 885.1639,-234.5593"/>
</g>
<!-- Node145&#45;&gt;Node132 -->
<g id="edge27" class="edge">
<title>Node145&#45;&gt;Node132</title>
<path fill="none" stroke="#191970" d="M793.3817,-365.1436C798.5832,-362.564 803.52,-359.5198 808,-355.9556 835.6868,-333.9285 821.3425,-312.129 844,-284.9556 861.5245,-263.9384 887.0552,-245.6566 905.6534,-232.1856"/>
<polygon fill="#191970" stroke="#191970" points="907.898,-234.8803 913.9086,-226.1555 903.769,-229.2277 907.898,-234.8803"/>
</g>
<!-- Node145&#45;&gt;Node144 -->
<g id="edge30" class="edge">
<title>Node145&#45;&gt;Node144</title>
<path fill="none" stroke="#191970" d="M765.8547,-380.4956C795.8548,-385.713 833.2019,-392.2081 864.64,-397.6756"/>
<polygon fill="#191970" stroke="#191970" points="864.1708,-401.1465 874.6227,-399.4117 865.3703,-394.25 864.1708,-401.1465"/>
</g>
<!-- Node146 -->
<g id="node21" class="node">
<title>Node146</title>
<g id="a_node21"><a xlink:href="classUIManager.html#aa5b6dbe1a9d5c50b588c55e9c9673f58" target="_top" xlink:title="Get the Ui Element By ID Finds and returns an UiElement by its elementID parameter. ">
<polygon fill="none" stroke="#000000" points="847,-285.4556 847,-304.4556 1012,-304.4556 1012,-285.4556 847,-285.4556"/>
<text text-anchor="middle" x="929.5" y="-292.4556" font-family="Helvetica,sans-Serif" font-size="10.00" fill="#000000">UIManager::getUiElementByID</text>
</a>
</g>
</g>
<!-- Node145&#45;&gt;Node146 -->
<g id="edge28" class="edge">
<title>Node145&#45;&gt;Node146</title>
<path fill="none" stroke="#191970" d="M769.6861,-361.4229C782.762,-357.9554 796.2279,-353.2688 808,-346.9556 827.1281,-336.6976 824.7508,-323.9845 844,-313.9556 848.5197,-311.6009 853.3214,-309.537 858.2539,-307.7282"/>
<polygon fill="#191970" stroke="#191970" points="859.4631,-311.0149 867.8607,-304.5549 857.2675,-304.3681 859.4631,-311.0149"/>
</g>
<!-- Node147 -->
<g id="node22" class="node">
<title>Node147</title>
<g id="a_node22"><a xlink:href="classUIElement.html#a6451228b4c9bc058d69e4d4f2b03c719" target="_top" xlink:title="UIElement::getUiElementData">
<polygon fill="none" stroke="#000000" points="847.5,-361.4556 847.5,-380.4556 1011.5,-380.4556 1011.5,-361.4556 847.5,-361.4556"/>
<text text-anchor="middle" x="929.5" y="-368.4556" font-family="Helvetica,sans-Serif" font-size="10.00" fill="#000000">UIElement::getUiElementData</text>
</a>
</g>
</g>
<!-- Node145&#45;&gt;Node147 -->
<g id="edge29" class="edge">
<title>Node145&#45;&gt;Node147</title>
<path fill="none" stroke="#191970" d="M793.2941,-370.9556C807.6445,-370.9556 822.6568,-370.9556 837.2539,-370.9556"/>
<polygon fill="#191970" stroke="#191970" points="837.2801,-374.4557 847.28,-370.9556 837.28,-367.4557 837.2801,-374.4557"/>
</g>
<!-- Node148 -->
<g id="node23" class="node">
<title>Node148</title>
<g id="a_node23"><a xlink:href="classUIElement.html#ad1c0d7431b71bdd9a3704a6d5c8a4643" target="_top" xlink:title="Get the position and the size of this ui element Gets the position and the size of this ui element...">
<polygon fill="none" stroke="#000000" points="849,-323.4556 849,-342.4556 1010,-342.4556 1010,-323.4556 849,-323.4556"/>
<text text-anchor="middle" x="929.5" y="-330.4556" font-family="Helvetica,sans-Serif" font-size="10.00" fill="#000000">UIElement::getUiElementRect</text>
</a>
</g>
</g>
<!-- Node145&#45;&gt;Node148 -->
<g id="edge31" class="edge">
<title>Node145&#45;&gt;Node148</title>
<path fill="none" stroke="#191970" d="M765.8547,-361.4157C795.8548,-356.1983 833.2019,-349.7031 864.64,-344.2356"/>
<polygon fill="#191970" stroke="#191970" points="865.3703,-347.6612 874.6227,-342.4995 864.1708,-340.7648 865.3703,-347.6612"/>
</g>
<!-- Node149 -->
<g id="node24" class="node">
<title>Node149</title>
<g id="a_node24"><a xlink:href="classUIElement.html#aa7f624963eaeb31043d74219ee24386c" target="_top" xlink:title="Checks if the mouse cursor is over the current UI Element Check if the coordinates match the ones sto...">
<polygon fill="none" stroke="#000000" points="1087,-342.4556 1087,-361.4556 1224,-361.4556 1224,-342.4556 1087,-342.4556"/>
<text text-anchor="middle" x="1155.5" y="-349.4556" font-family="Helvetica,sans-Serif" font-size="10.00" fill="#000000">UIElement::isMouseOver</text>
</a>
</g>
</g>
<!-- Node148&#45;&gt;Node149 -->
<g id="edge32" class="edge">
<title>Node148&#45;&gt;Node149</title>
<path fill="none" stroke="#191970" d="M1010.134,-339.7346C1031.802,-341.5562 1055.204,-343.5237 1076.7673,-345.3365"/>
<polygon fill="#191970" stroke="#191970" points="1076.6016,-348.8348 1086.8597,-346.185 1077.1881,-341.8594 1076.6016,-348.8348"/>
</g>
<!-- Node150 -->
<g id="node25" class="node">
<title>Node150</title>
<g id="a_node25"><a xlink:href="classUIElement.html#a570841bf8b7970ca935b1a00e571036a" target="_top" xlink:title="Handling for the hovering event Check, if the mouse cursor is hovering over the element. virtual function to provide custom handling if necessary (e.g. Combobox) Per default, it&#39;s the same implementation as isMouseOver. ">
<polygon fill="none" stroke="#000000" points="1051,-304.4556 1051,-323.4556 1260,-323.4556 1260,-304.4556 1051,-304.4556"/>
<text text-anchor="middle" x="1155.5" y="-311.4556" font-family="Helvetica,sans-Serif" font-size="10.00" fill="#000000">UIElement::isMouseOverHoverableArea</text>
</a>
</g>
</g>
<!-- Node148&#45;&gt;Node150 -->
<g id="edge33" class="edge">
<title>Node148&#45;&gt;Node150</title>
<path fill="none" stroke="#191970" d="M1010.134,-326.1767C1020.0217,-325.3454 1030.2705,-324.4838 1040.5409,-323.6203"/>
<polygon fill="#191970" stroke="#191970" points="1041.1343,-327.0829 1050.8059,-322.7573 1040.5478,-320.1075 1041.1343,-327.0829"/>
</g>
<!-- Node151&#45;&gt;Node132 -->
<g id="edge36" class="edge">
<title>Node151&#45;&gt;Node132</title>
<path fill="none" stroke="#191970" d="M339.2958,-247.4297C359.9549,-244.3838 382.9412,-241.0106 404,-237.9556 497.3042,-224.4199 519.9563,-214.6391 614,-207.9556 700.0053,-201.8434 721.7843,-206.8914 808,-207.9556 825.7253,-208.1744 844.9018,-208.5727 862.6681,-209.0091"/>
<polygon fill="#191970" stroke="#191970" points="862.8586,-212.515 872.944,-209.2694 863.0359,-205.5172 862.8586,-212.515"/>
</g>
<!-- Node151&#45;&gt;Node138 -->
<g id="edge39" class="edge">
<title>Node151&#45;&gt;Node138</title>
<path fill="none" stroke="#191970" d="M329.2271,-266.4956C358.884,-271.713 395.8037,-278.2081 426.8821,-283.6756"/>
<polygon fill="#191970" stroke="#191970" points="426.2954,-287.1261 436.7506,-285.4117 427.5083,-280.2319 426.2954,-287.1261"/>
</g>
<!-- Node151&#45;&gt;Node142 -->
<g id="edge40" class="edge">
<title>Node151&#45;&gt;Node142</title>
<path fill="none" stroke="#191970" d="M355.7376,-256.9556C373.8521,-256.9556 393.0615,-256.9556 411.1401,-256.9556"/>
<polygon fill="#191970" stroke="#191970" points="411.344,-260.4557 421.3439,-256.9556 411.3439,-253.4557 411.344,-260.4557"/>
</g>
<!-- Node152 -->
<g id="node27" class="node">
<title>Node152</title>
<g id="a_node27"><a xlink:href="classWindowManager.html#a02ff8708c66cbb980399eb967a37a937" target="_top" xlink:title="WindowManager::setScreen\lResolution">
<polygon fill="none" stroke="#000000" points="415,-141.9556 415,-171.9556 567,-171.9556 567,-141.9556 415,-141.9556"/>
<text text-anchor="start" x="423" y="-159.9556" font-family="Helvetica,sans-Serif" font-size="10.00" fill="#000000">WindowManager::setScreen</text>
<text text-anchor="middle" x="491" y="-148.9556" font-family="Helvetica,sans-Serif" font-size="10.00" fill="#000000">Resolution</text>
</a>
</g>
</g>
<!-- Node151&#45;&gt;Node152 -->
<g id="edge37" class="edge">
<title>Node151&#45;&gt;Node152</title>
<path fill="none" stroke="#191970" d="M348.6905,-247.4344C355.5052,-244.9423 362.0682,-241.8321 368,-237.9556 391.2253,-222.7779 381.814,-203.6158 404,-186.9556 409.4078,-182.8948 415.4057,-179.3566 421.6509,-176.2794"/>
<polygon fill="#191970" stroke="#191970" points="423.2592,-179.3936 430.9376,-172.0934 420.3826,-173.0119 423.2592,-179.3936"/>
</g>
<!-- Node152&#45;&gt;Node132 -->
<g id="edge38" class="edge">
<title>Node152&#45;&gt;Node132</title>
<path fill="none" stroke="#191970" d="M567.141,-156.363C631.708,-157.0301 726.5405,-160.7722 808,-174.9556 831.4004,-179.03 856.6735,-186.0708 878.0776,-192.8513"/>
<polygon fill="#191970" stroke="#191970" points="877.0272,-196.19 887.619,-195.9367 879.1811,-189.5296 877.0272,-196.19"/>
</g>
<!-- Node153&#45;&gt;Node132 -->
<g id="edge42" class="edge">
<title>Node153&#45;&gt;Node132</title>
<path fill="none" stroke="#191970" d="M284.5929,-209.4094C304.6485,-190.2089 353.3673,-147.4339 404,-131.9556 575.9659,-79.3862 634.5504,-106.5104 808,-153.9556 838.7525,-162.3676 871.343,-178.0722 895.0204,-190.87"/>
<polygon fill="#191970" stroke="#191970" points="893.5052,-194.0312 903.9532,-195.789 896.8818,-187.8994 893.5052,-194.0312"/>
</g>
<!-- Node153&#45;&gt;Node138 -->
<g id="edge45" class="edge">
<title>Node153&#45;&gt;Node138</title>
<path fill="none" stroke="#191970" d="M345.7223,-228.596C353.4934,-231.0467 361.0849,-234.115 368,-237.9556 388.3382,-249.2513 383.7384,-264.5231 404,-275.9556 407.97,-278.1957 412.1795,-280.1718 416.5208,-281.915"/>
<polygon fill="#191970" stroke="#191970" points="415.5986,-285.3021 426.1932,-285.3713 417.9541,-278.7103 415.5986,-285.3021"/>
</g>
<!-- Node153&#45;&gt;Node142 -->
<g id="edge46" class="edge">
<title>Node153&#45;&gt;Node142</title>
<path fill="none" stroke="#191970" d="M329.2271,-228.4956C358.884,-233.713 395.8037,-240.2081 426.8821,-245.6756"/>
<polygon fill="#191970" stroke="#191970" points="426.2954,-249.1261 436.7506,-247.4117 427.5083,-242.2319 426.2954,-249.1261"/>
</g>
<!-- Node154 -->
<g id="node29" class="node">
<title>Node154</title>
<g id="a_node29"><a xlink:href="classWindowManager.html#a92e1efc564e88b5d92ef674c2577997f" target="_top" xlink:title="sets the game&#39;s window mode Changes the game&#39;s window mode to fullscreen, borderless, or windowed ">
<polygon fill="none" stroke="#000000" points="614,-65.4556 614,-84.4556 808,-84.4556 808,-65.4556 614,-65.4556"/>
<text text-anchor="middle" x="711" y="-72.4556" font-family="Helvetica,sans-Serif" font-size="10.00" fill="#000000">WindowManager::setFullScreenMode</text>
</a>
</g>
</g>
<!-- Node153&#45;&gt;Node154 -->
<g id="edge43" class="edge">
<title>Node153&#45;&gt;Node154</title>
<path fill="none" stroke="#191970" d="M281.733,-209.218C298.8722,-185.346 346.8639,-124.0367 404,-98.9556 466.3689,-71.5776 542.6986,-65.5062 603.6447,-66.3148"/>
<polygon fill="#191970" stroke="#191970" points="603.6085,-69.8147 613.6752,-66.5113 603.7457,-62.816 603.6085,-69.8147"/>
</g>
<!-- Node154&#45;&gt;Node132 -->
<g id="edge44" class="edge">
<title>Node154&#45;&gt;Node132</title>
<path fill="none" stroke="#191970" d="M769.6991,-84.4643C782.7743,-87.9329 796.2368,-92.6261 808,-98.9556 850.1732,-121.6481 889.009,-162.3697 910.9272,-187.9583"/>
<polygon fill="#191970" stroke="#191970" points="908.3167,-190.2921 917.4319,-195.6925 913.6739,-185.7865 908.3167,-190.2921"/>
</g>
</g>
</svg>
        <g id="navigator" transform="translate(0 0)" fill="#404254">
                <rect fill="#f2f5e9" fill-opacity="0.5" stroke="#606060" stroke-width=".5" x="0" y="0" width="60" height="60"/>
                <use id="zoomplus" xlink:href="#zoomPlus" x="17" y="9" onmousedown="handleZoom(evt,'in')"/>
                <use id="zoomminus" xlink:href="#zoomMin" x="42" y="9" onmousedown="handleZoom(evt,'out')"/>
                <use id="reset" xlink:href="#resetDef" x="30" y="36" onmousedown="handleReset()"/>
                <g id="arrowUp" xlink:href="#dirArrow" transform="translate(30 24)" onmousedown="handlePan(0,-1)">
                  <use xlink:href="#rim" fill="#404040">
                        <set attributeName="fill" to="#808080" begin="arrowUp.mouseover" end="arrowUp.mouseout"/>
                  </use>
                  <path fill="none" stroke="white" stroke-width="1.5" d="M0,-3.0v7 M-2.5,-0.5L0,-3.0L2.5,-0.5"/>
                </g>
                <g id="arrowRight" xlink:href="#dirArrow" transform="rotate(90) translate(36 -43)" onmousedown="handlePan(1,0)">
                  <use xlink:href="#rim" fill="#404040">
                        <set attributeName="fill" to="#808080" begin="arrowRight.mouseover" end="arrowRight.mouseout"/>
                  </use>
                  <path fill="none" stroke="white" stroke-width="1.5" d="M0,-3.0v7 M-2.5,-0.5L0,-3.0L2.5,-0.5"/>
                </g>
                <g id="arrowDown" xlink:href="#dirArrow" transform="rotate(180) translate(-30 -48)" onmousedown="handlePan(0,1)">
                  <use xlink:href="#rim" fill="#404040">
                        <set attributeName="fill" to="#808080" begin="arrowDown.mouseover" end="arrowDown.mouseout"/>
                  </use>
                  <path fill="none" stroke="white" stroke-width="1.5" d="M0,-3.0v7 M-2.5,-0.5L0,-3.0L2.5,-0.5"/>
                </g>
                <g id="arrowLeft" xlink:href="#dirArrow" transform="rotate(270) translate(-36 17)" onmousedown="handlePan(-1,0)">
                  <use xlink:href="#rim" fill="#404040">
                        <set attributeName="fill" to="#808080" begin="arrowLeft.mouseover" end="arrowLeft.mouseout"/>
                  </use>
                  <path fill="none" stroke="white" stroke-width="1.5" d="M0,-3.0v7 M-2.5,-0.5L0,-3.0L2.5,-0.5"/>
                </g>
        </g>
        <svg viewBox="0 0 15 15" width="100%" height="30px" preserveAspectRatio="xMaxYMin meet">
         <g id="arrow_out" transform="scale(0.3 0.3)">
          <a xlink:href="classUIManager_a5c4cb8e02504ffa0d3faf45181feab9d_cgraph_org.svg" target="_base">
           <rect id="button" ry="5" rx="5" y="6" x="6" height="38" width="38"
                fill="#f2f5e9" fill-opacity="0.5" stroke="#606060" stroke-width="1.0"/>
           <path id="arrow"
             d="M 11.500037,31.436501 C 11.940474,20.09759 22.043105,11.32322 32.158766,21.979434 L 37.068811,17.246167 C 37.068811,17.246167 37.088388,32 37.088388,32 L 22.160133,31.978069 C 22.160133,31.978069 26.997745,27.140456 26.997745,27.140456 C 18.528582,18.264221 13.291696,25.230495 11.500037,31.436501 z"
             style="fill:#404040;"/>
          </a>
         </g>
        </svg>
</svg>
