<?xml version="1.0" encoding="UTF-8" standalone="no"?>
<!DOCTYPE svg PUBLIC "-//W3C//DTD SVG 1.1//EN"
 "http://www.w3.org/Graphics/SVG/1.1/DTD/svg11.dtd">
<!-- Generated by graphviz version 2.40.1 (20161225.0304)
 -->
<!-- Title: Engine::quitGame Pages: 1 -->
<svg width="1672pt" height="253pt"
 viewBox="0.00 0.00 1672.00 252.50" xmlns="http://www.w3.org/2000/svg" xmlns:xlink="http://www.w3.org/1999/xlink">
<g id="graph0" class="graph" transform="scale(1 1) rotate(0) translate(4 248.5)">
<title>Engine::quitGame</title>
<!-- Node110 -->
<g id="node1" class="node">
<title>Node110</title>
<polygon fill="#bfbfbf" stroke="#000000" points="0,-114.5 0,-133.5 104,-133.5 104,-114.5 0,-114.5"/>
<text text-anchor="middle" x="52" y="-121.5" font-family="Helvetica,sans-Serif" font-size="10.00" fill="#000000">Engine::quitGame</text>
</g>
<!-- Node111 -->
<g id="node2" class="node">
<title>Node111</title>
<g id="a_node2"><a xlink:href="classEngine.html#a83b7dbeee899b36a13d5b07c7ad87ebc" target="_top" xlink:title="Loads a saved game Loads a saved Game. ">
<polygon fill="none" stroke="#000000" points="140,-114.5 140,-133.5 246,-133.5 246,-114.5 140,-114.5"/>
<text text-anchor="middle" x="193" y="-121.5" font-family="Helvetica,sans-Serif" font-size="10.00" fill="#000000">Engine::loadGame</text>
</a>
</g>
</g>
<!-- Node110&#45;&gt;Node111 -->
<g id="edge1" class="edge">
<title>Node110&#45;&gt;Node111</title>
<path fill="none" stroke="#191970" d="M104.1026,-124C112.3568,-124 120.9729,-124 129.4534,-124"/>
<polygon fill="#191970" stroke="#191970" points="129.6971,-127.5001 139.6971,-124 129.6971,-120.5001 129.6971,-127.5001"/>
</g>
<!-- Node112 -->
<g id="node3" class="node">
<title>Node112</title>
<g id="a_node3"><a xlink:href="classMap.html#afefe996cc1f62b61ec60d0ae415953bf" target="_top" xlink:title="Map::loadMapFromFile">
<polygon fill="none" stroke="#000000" points="282,-114.5 282,-133.5 407,-133.5 407,-114.5 282,-114.5"/>
<text text-anchor="middle" x="344.5" y="-121.5" font-family="Helvetica,sans-Serif" font-size="10.00" fill="#000000">Map::loadMapFromFile</text>
</a>
</g>
</g>
<!-- Node111&#45;&gt;Node112 -->
<g id="edge2" class="edge">
<title>Node111&#45;&gt;Node112</title>
<path fill="none" stroke="#191970" d="M246.4132,-124C254.6794,-124 263.3353,-124 271.9364,-124"/>
<polygon fill="#191970" stroke="#191970" points="271.9814,-127.5001 281.9814,-124 271.9814,-120.5001 271.9814,-127.5001"/>
</g>
<!-- Node113 -->
<g id="node4" class="node">
<title>Node113</title>
<g id="a_node4"><a xlink:href="compression_8hxx.html#a25f341059256700f2f3ffd62d8113956" target="_top" xlink:title="decompresses given string Decompresses a given string. ">
<polygon fill="none" stroke="#000000" points="451,-152.5 451,-171.5 555,-171.5 555,-152.5 451,-152.5"/>
<text text-anchor="middle" x="503" y="-159.5" font-family="Helvetica,sans-Serif" font-size="10.00" fill="#000000">decompressString</text>
</a>
</g>
</g>
<!-- Node112&#45;&gt;Node113 -->
<g id="edge3" class="edge">
<title>Node112&#45;&gt;Node113</title>
<path fill="none" stroke="#191970" d="M384.4962,-133.589C405.412,-138.6035 431.2081,-144.7881 453.3864,-150.1053"/>
<polygon fill="#191970" stroke="#191970" points="452.7509,-153.552 463.2914,-152.4799 454.383,-146.7449 452.7509,-153.552"/>
</g>
<!-- Node114 -->
<g id="node5" class="node">
<title>Node114</title>
<g id="a_node5"><a xlink:href="classMap.html#a1197ab65e40dd20b891ba165471e3163" target="_top" xlink:title="Map::Map">
<polygon fill="none" stroke="#000000" points="471.5,-114.5 471.5,-133.5 534.5,-133.5 534.5,-114.5 471.5,-114.5"/>
<text text-anchor="middle" x="503" y="-121.5" font-family="Helvetica,sans-Serif" font-size="10.00" fill="#000000">Map::Map</text>
</a>
</g>
</g>
<!-- Node112&#45;&gt;Node114 -->
<g id="edge4" class="edge">
<title>Node112&#45;&gt;Node114</title>
<path fill="none" stroke="#191970" d="M407.1434,-124C425.1728,-124 444.4028,-124 460.8704,-124"/>
<polygon fill="#191970" stroke="#191970" points="461.2527,-127.5001 471.2526,-124 461.2526,-120.5001 461.2527,-127.5001"/>
</g>
<!-- Node115 -->
<g id="node6" class="node">
<title>Node115</title>
<g id="a_node6"><a xlink:href="classMap.html#a481b37ba71ef0e51e836fc42805762dd" target="_top" xlink:title="Update all mapNodes Updates all mapNode and its adjacent tiles regarding height information, draws slopes for adjacent tiles and sets tiling for mapNode sprite if applicable. ">
<polygon fill="none" stroke="#000000" points="443,-76.5 443,-95.5 563,-95.5 563,-76.5 443,-76.5"/>
<text text-anchor="middle" x="503" y="-83.5" font-family="Helvetica,sans-Serif" font-size="10.00" fill="#000000">Map::updateAllNodes</text>
</a>
</g>
</g>
<!-- Node112&#45;&gt;Node115 -->
<g id="edge5" class="edge">
<title>Node112&#45;&gt;Node115</title>
<path fill="none" stroke="#191970" d="M384.4962,-114.411C405.412,-109.3965 431.2081,-103.2119 453.3864,-97.8947"/>
<polygon fill="#191970" stroke="#191970" points="454.383,-101.2551 463.2914,-95.5201 452.7509,-94.448 454.383,-101.2551"/>
</g>
<!-- Node116 -->
<g id="node7" class="node">
<title>Node116</title>
<g id="a_node7"><a xlink:href="classMap.html#a59d21f2688713fbcfe320eb1b24405ca" target="_top" xlink:title="Update mapNode and its adjacent tiles Updates mapNode height information, draws slopes for adjacent t...">
<polygon fill="none" stroke="#000000" points="599,-76.5 599,-95.5 762,-95.5 762,-76.5 599,-76.5"/>
<text text-anchor="middle" x="680.5" y="-83.5" font-family="Helvetica,sans-Serif" font-size="10.00" fill="#000000">Map::updateNeighborsOfNode</text>
</a>
</g>
</g>
<!-- Node115&#45;&gt;Node116 -->
<g id="edge6" class="edge">
<title>Node115&#45;&gt;Node116</title>
<path fill="none" stroke="#191970" d="M563.0934,-86C571.3342,-86 579.9443,-86 588.5944,-86"/>
<polygon fill="#191970" stroke="#191970" points="588.7476,-89.5001 598.7476,-86 588.7475,-82.5001 588.7476,-89.5001"/>
</g>
<!-- Node117 -->
<g id="node8" class="node">
<title>Node117</title>
<g id="a_node8"><a xlink:href="classMap.html#aab37e4a52faf81e9b696b8cf1bd9a690" target="_top" xlink:title="Get neighbor MapNode Objects Stores pointers to the neighboring nodes of the given coordinates in the...">
<polygon fill="none" stroke="#000000" points="1005.5,-38.5 1005.5,-57.5 1113.5,-57.5 1113.5,-38.5 1005.5,-38.5"/>
<text text-anchor="middle" x="1059.5" y="-45.5" font-family="Helvetica,sans-Serif" font-size="10.00" fill="#000000">Map::getNeighbors</text>
</a>
</g>
</g>
<!-- Node116&#45;&gt;Node117 -->
<g id="edge7" class="edge">
<title>Node116&#45;&gt;Node117</title>
<path fill="none" stroke="#191970" d="M733.0046,-76.4996C753.2603,-73.1002 776.6546,-69.4964 798,-67 864.9686,-59.1679 941.9878,-54.0383 995.0061,-51.1058"/>
<polygon fill="#191970" stroke="#191970" points="995.484,-54.5852 1005.2797,-50.5485 995.1048,-47.5954 995.484,-54.5852"/>
</g>
<!-- Node118 -->
<g id="node9" class="node">
<title>Node118</title>
<g id="a_node9"><a xlink:href="classMap.html#a0ff55eb041cdf29aa582a21145319ce0" target="_top" xlink:title="Get elevated neighbor positions in a bitmask Checks all neighboring tiles and returns the elevated ne...">
<polygon fill="none" stroke="#000000" points="808,-171 808,-201 954,-201 954,-171 808,-171"/>
<text text-anchor="start" x="816" y="-189" font-family="Helvetica,sans-Serif" font-size="10.00" fill="#000000">Map::getElevatedNeighbor</text>
<text text-anchor="middle" x="881" y="-178" font-family="Helvetica,sans-Serif" font-size="10.00" fill="#000000">Bitmask</text>
</a>
</g>
</g>
<!-- Node116&#45;&gt;Node118 -->
<g id="edge8" class="edge">
<title>Node116&#45;&gt;Node118</title>
<path fill="none" stroke="#191970" d="M694.4863,-95.5312C716.0293,-109.9315 758.9385,-137.5122 798,-156 806.5313,-160.0379 815.7628,-163.8696 824.8636,-167.3605"/>
<polygon fill="#191970" stroke="#191970" points="823.6727,-170.6518 834.2653,-170.8695 826.1204,-164.0937 823.6727,-170.6518"/>
</g>
<!-- Node119 -->
<g id="node10" class="node">
<title>Node119</title>
<g id="a_node10"><a xlink:href="classMap.html#aa8cc2ed983007621bce12dd9d1b8ec5b" target="_top" xlink:title="Demolish a node This function gathers all tiles that should be demolished and invokes the nodes demol...">
<polygon fill="none" stroke="#000000" points="1003,-123.5 1003,-142.5 1116,-142.5 1116,-123.5 1003,-123.5"/>
<text text-anchor="middle" x="1059.5" y="-130.5" font-family="Helvetica,sans-Serif" font-size="10.00" fill="#000000">Map::demolishNode</text>
</a>
</g>
</g>
<!-- Node116&#45;&gt;Node119 -->
<g id="edge9" class="edge">
<title>Node116&#45;&gt;Node119</title>
<path fill="none" stroke="#191970" d="M762.274,-90.8977C774.2414,-92.6526 786.4286,-94.4461 798,-96 872.4547,-105.9985 959.2214,-114.7107 1011.7197,-122.0493"/>
<polygon fill="#191970" stroke="#191970" points="1011.3509,-125.5323 1021.7487,-123.4987 1012.3522,-118.6042 1011.3509,-125.5323"/>
</g>
<!-- Node127 -->
<g id="node18" class="node">
<title>Node127</title>
<g id="a_node18"><a xlink:href="classMap.html#a3f5c7dd50cdc712e1ef18047cf619888" target="_top" xlink:title="Get a bitmask that represents same&#45;tile neighbors Checks all neighboring tiles and returns the elevat...">
<polygon fill="none" stroke="#000000" points="798,-220.5 798,-239.5 964,-239.5 964,-220.5 798,-220.5"/>
<text text-anchor="middle" x="881" y="-227.5" font-family="Helvetica,sans-Serif" font-size="10.00" fill="#000000">Map::calculateAutotileBitmask</text>
</a>
</g>
</g>
<!-- Node116&#45;&gt;Node127 -->
<g id="edge20" class="edge">
<title>Node116&#45;&gt;Node127</title>
<path fill="none" stroke="#191970" d="M686.5505,-95.6359C701.9739,-119.3446 745.2925,-180.7743 798,-211 801.9292,-213.2532 806.1069,-215.2393 810.4172,-216.9898"/>
<polygon fill="#191970" stroke="#191970" points="809.4261,-220.3531 820.0204,-220.4582 811.804,-213.7693 809.4261,-220.3531"/>
</g>
<!-- Node129 -->
<g id="node20" class="node">
<title>Node129</title>
<g id="a_node20"><a xlink:href="classMap.html#aba5154a4d917900679a3c0f7ec701561" target="_top" xlink:title="Increase Height Increases the height of the node and checks the surrounding tiles. Either draw a slope sprite or elevate the tile if necessary. ">
<polygon fill="none" stroke="#000000" points="823,-.5 823,-19.5 939,-19.5 939,-.5 823,-.5"/>
<text text-anchor="middle" x="881" y="-7.5" font-family="Helvetica,sans-Serif" font-size="10.00" fill="#000000">Map::increaseHeight</text>
</a>
</g>
</g>
<!-- Node116&#45;&gt;Node129 -->
<g id="edge22" class="edge">
<title>Node116&#45;&gt;Node129</title>
<path fill="none" stroke="#191970" d="M689.7662,-76.4834C709.3842,-62.7213 756.7041,-40.0303 798,-25 802.8101,-23.2493 807.8126,-21.5389 812.8708,-19.9104"/>
<polygon fill="#191970" stroke="#191970" points="814.112,-23.1902 822.6308,-16.8908 812.043,-16.5029 814.112,-23.1902"/>
</g>
<!-- Node130 -->
<g id="node21" class="node">
<title>Node130</title>
<g id="a_node21"><a xlink:href="classMap.html#afb8cc864df90d273a5074872d635dc40" target="_top" xlink:title="Decrease Height Decreases the height of the node and checks the surrounding tiles. Either draw a slope sprite or lower the tile if necessary. ">
<polygon fill="none" stroke="#000000" points="821.5,-76.5 821.5,-95.5 940.5,-95.5 940.5,-76.5 821.5,-76.5"/>
<text text-anchor="middle" x="881" y="-83.5" font-family="Helvetica,sans-Serif" font-size="10.00" fill="#000000">Map::decreaseHeight</text>
</a>
</g>
</g>
<!-- Node116&#45;&gt;Node130 -->
<g id="edge28" class="edge">
<title>Node116&#45;&gt;Node130</title>
<path fill="none" stroke="#191970" d="M762.051,-79.3555C778.3263,-79.1699 795.2832,-79.2292 811.123,-79.5332"/>
<polygon fill="#191970" stroke="#191970" points="811.2746,-83.0376 821.3524,-79.7683 811.4354,-76.0394 811.2746,-83.0376"/>
</g>
<!-- Node119&#45;&gt;Node116 -->
<g id="edge19" class="edge">
<title>Node119&#45;&gt;Node116</title>
<path fill="none" stroke="#191970" d="M1002.7727,-134.7944C949.7331,-131.7504 868.3678,-123.4497 798,-114 767.3145,-109.8793 732.2994,-104.0738 708.5334,-98.1628"/>
<polygon fill="#191970" stroke="#191970" points="709.3381,-94.7549 698.7722,-95.5369 707.5196,-101.5146 709.3381,-94.7549"/>
</g>
<!-- Node120 -->
<g id="node11" class="node">
<title>Node120</title>
<g id="a_node11"><a xlink:href="isoMath_8cxx.html#a7fa61c3d8ef446fb1c48dc4838023649" target="_top" xlink:title="Check if given coordinates are within map boundaries Checks if coordinates are within map boundaries...">
<polygon fill="none" stroke="#000000" points="1359,-70.5 1359,-89.5 1515,-89.5 1515,-70.5 1359,-70.5"/>
<text text-anchor="middle" x="1437" y="-77.5" font-family="Helvetica,sans-Serif" font-size="10.00" fill="#000000">isPointWithinMapBoundaries</text>
</a>
</g>
</g>
<!-- Node119&#45;&gt;Node120 -->
<g id="edge10" class="edge">
<title>Node119&#45;&gt;Node120</title>
<path fill="none" stroke="#191970" d="M1116.0156,-125.0654C1180.6455,-115.9915 1286.8436,-101.0816 1359.2456,-90.9165"/>
<polygon fill="#191970" stroke="#191970" points="1359.8134,-94.3712 1369.2297,-89.5148 1358.8401,-87.4392 1359.8134,-94.3712"/>
</g>
<!-- Node122 -->
<g id="node13" class="node">
<title>Node122</title>
<g id="a_node13"><a xlink:href="classMapNode.html#a6b57e4355d0780fb37c34d63bbcdfdf9" target="_top" xlink:title="MapNode::getMapNodeDataFor\lLayer">
<polygon fill="none" stroke="#000000" points="1155,-214 1155,-244 1323,-244 1323,-214 1155,-214"/>
<text text-anchor="start" x="1163" y="-232" font-family="Helvetica,sans-Serif" font-size="10.00" fill="#000000">MapNode::getMapNodeDataFor</text>
<text text-anchor="middle" x="1239" y="-221" font-family="Helvetica,sans-Serif" font-size="10.00" fill="#000000">Layer</text>
</a>
</g>
</g>
<!-- Node119&#45;&gt;Node122 -->
<g id="edge12" class="edge">
<title>Node119&#45;&gt;Node122</title>
<path fill="none" stroke="#191970" d="M1069.8473,-142.6501C1086.5451,-157.7463 1121.0099,-186.9778 1155,-204 1159.5597,-206.2835 1164.3653,-208.3976 1169.2742,-210.3475"/>
<polygon fill="#191970" stroke="#191970" points="1168.2115,-213.6865 1178.8043,-213.8963 1170.6543,-207.1266 1168.2115,-213.6865"/>
</g>
<!-- Node123 -->
<g id="node14" class="node">
<title>Node123</title>
<g id="a_node14"><a xlink:href="classMap.html#ab6685363fde5a50c749adab9df96c231" target="_top" xlink:title="whether a node is a multiobject or not (bigger than 1x1 building) ">
<polygon fill="none" stroke="#000000" points="1173,-137.5 1173,-156.5 1305,-156.5 1305,-137.5 1173,-137.5"/>
<text text-anchor="middle" x="1239" y="-144.5" font-family="Helvetica,sans-Serif" font-size="10.00" fill="#000000">Map::isNodeMultiObject</text>
</a>
</g>
</g>
<!-- Node119&#45;&gt;Node123 -->
<g id="edge13" class="edge">
<title>Node119&#45;&gt;Node123</title>
<path fill="none" stroke="#191970" d="M1116.2949,-137.4297C1131.0395,-138.5797 1147.1622,-139.8372 1162.731,-141.0514"/>
<polygon fill="#191970" stroke="#191970" points="1162.62,-144.5533 1172.8619,-141.8416 1163.1643,-137.5745 1162.62,-144.5533"/>
</g>
<!-- Node125 -->
<g id="node16" class="node">
<title>Node125</title>
<g id="a_node16"><a xlink:href="classMap.html#a3952b445c55efce61c1ccac6f362fe89" target="_top" xlink:title="Return vector of Points of an Object Tiles selection. ">
<polygon fill="none" stroke="#000000" points="1177,-175.5 1177,-194.5 1301,-194.5 1301,-175.5 1177,-175.5"/>
<text text-anchor="middle" x="1239" y="-182.5" font-family="Helvetica,sans-Serif" font-size="10.00" fill="#000000">Map::getObjectCoords</text>
</a>
</g>
</g>
<!-- Node119&#45;&gt;Node125 -->
<g id="edge16" class="edge">
<title>Node119&#45;&gt;Node125</title>
<path fill="none" stroke="#191970" d="M1084.7936,-142.595C1103.9039,-149.6348 1130.8754,-159.1261 1155,-166 1163.8703,-168.5274 1173.3432,-170.94 1182.6132,-173.1464"/>
<polygon fill="#191970" stroke="#191970" points="1182.0217,-176.6022 1192.5543,-175.4553 1183.6054,-169.7836 1182.0217,-176.6022"/>
</g>
<!-- Node121 -->
<g id="node12" class="node">
<title>Node121</title>
<g id="a_node12"><a xlink:href="classSingleton.html#af5cb1e5749949e2b68416cfb8d378044" target="_top" xlink:title="Get an instance of the singleton. ">
<polygon fill="none" stroke="#000000" points="1551,-65 1551,-95 1664,-95 1664,-65 1551,-65"/>
<text text-anchor="start" x="1559" y="-83" font-family="Helvetica,sans-Serif" font-size="10.00" fill="#000000">Singleton&lt; Settings</text>
<text text-anchor="middle" x="1607.5" y="-72" font-family="Helvetica,sans-Serif" font-size="10.00" fill="#000000"> &gt;::instance</text>
</a>
</g>
</g>
<!-- Node120&#45;&gt;Node121 -->
<g id="edge11" class="edge">
<title>Node120&#45;&gt;Node121</title>
<path fill="none" stroke="#191970" d="M1515.2638,-80C1523.635,-80 1532.0967,-80 1540.323,-80"/>
<polygon fill="#191970" stroke="#191970" points="1540.5927,-83.5001 1550.5927,-80 1540.5926,-76.5001 1540.5927,-83.5001"/>
</g>
<!-- Node123&#45;&gt;Node120 -->
<g id="edge14" class="edge">
<title>Node123&#45;&gt;Node120</title>
<path fill="none" stroke="#191970" d="M1274.7574,-137.484C1289.7466,-133.3142 1307.3047,-128.1925 1323,-123 1350.4649,-113.9138 1381.1202,-102.2637 1403.7186,-93.3822"/>
<polygon fill="#191970" stroke="#191970" points="1405.1733,-96.5708 1413.1854,-89.6385 1402.599,-90.0613 1405.1733,-96.5708"/>
</g>
<!-- Node124 -->
<g id="node15" class="node">
<title>Node124</title>
<g id="a_node15"><a xlink:href="classMapNode.html#adf88174897b884c97d327e710dea7f5e" target="_top" xlink:title="MapNode::getTileData">
<polygon fill="none" stroke="#000000" points="1374.5,-127.5 1374.5,-146.5 1499.5,-146.5 1499.5,-127.5 1374.5,-127.5"/>
<text text-anchor="middle" x="1437" y="-134.5" font-family="Helvetica,sans-Serif" font-size="10.00" fill="#000000">MapNode::getTileData</text>
</a>
</g>
</g>
<!-- Node123&#45;&gt;Node124 -->
<g id="edge15" class="edge">
<title>Node123&#45;&gt;Node124</title>
<path fill="none" stroke="#191970" d="M1305.2064,-143.6562C1324.0748,-142.7033 1344.735,-141.6599 1363.9846,-140.6876"/>
<polygon fill="#191970" stroke="#191970" points="1364.3974,-144.1714 1374.2081,-140.1713 1364.0443,-137.1803 1364.3974,-144.1714"/>
</g>
<!-- Node125&#45;&gt;Node121 -->
<g id="edge17" class="edge">
<title>Node125&#45;&gt;Node121</title>
<path fill="none" stroke="#191970" d="M1301.2558,-188.4702C1358.9,-189.4031 1445.8843,-184.9156 1515,-156 1543.4328,-144.1047 1569.963,-120.4895 1587.2545,-102.7233"/>
<polygon fill="#191970" stroke="#191970" points="1590.1963,-104.7064 1594.5229,-95.0352 1585.1096,-99.8974 1590.1963,-104.7064"/>
</g>
<!-- Node126 -->
<g id="node17" class="node">
<title>Node126</title>
<g id="a_node17"><a xlink:href="classTileManager.html#a8ee071ff8b24926288437d310f9bc714" target="_top" xlink:title="TileManager::getTileData">
<polygon fill="none" stroke="#000000" points="1367,-203.5 1367,-222.5 1507,-222.5 1507,-203.5 1367,-203.5"/>
<text text-anchor="middle" x="1437" y="-210.5" font-family="Helvetica,sans-Serif" font-size="10.00" fill="#000000">TileManager::getTileData</text>
</a>
</g>
</g>
<!-- Node125&#45;&gt;Node126 -->
<g id="edge18" class="edge">
<title>Node125&#45;&gt;Node126</title>
<path fill="none" stroke="#191970" d="M1301.1052,-193.7826C1319.648,-196.4048 1340.206,-199.312 1359.6012,-202.0547"/>
<polygon fill="#191970" stroke="#191970" points="1359.2292,-205.5369 1369.6208,-203.4716 1360.2095,-198.6058 1359.2292,-205.5369"/>
</g>
<!-- Node128 -->
<g id="node19" class="node">
<title>Node128</title>
<g id="a_node19"><a xlink:href="classMap.html#a4700614f8c7d02b9ca18ad7e916a2312" target="_top" xlink:title="Map::isLayerAutoTile">
<polygon fill="none" stroke="#000000" points="1000,-220.5 1000,-239.5 1119,-239.5 1119,-220.5 1000,-220.5"/>
<text text-anchor="middle" x="1059.5" y="-227.5" font-family="Helvetica,sans-Serif" font-size="10.00" fill="#000000">Map::isLayerAutoTile</text>
</a>
</g>
</g>
<!-- Node127&#45;&gt;Node128 -->
<g id="edge21" class="edge">
<title>Node127&#45;&gt;Node128</title>
<path fill="none" stroke="#191970" d="M964.2401,-230C972.7696,-230 981.3725,-230 989.7355,-230"/>
<polygon fill="#191970" stroke="#191970" points="989.7965,-233.5001 999.7965,-230 989.7964,-226.5001 989.7965,-233.5001"/>
</g>
<!-- Node129&#45;&gt;Node116 -->
<g id="edge27" class="edge">
<title>Node129&#45;&gt;Node116</title>
<path fill="none" stroke="#191970" d="M867.5972,-19.5968C851.0392,-26.466 822.1032,-34.2273 798,-43 773.6226,-51.8725 747.1461,-63.4145 725.5079,-72.5262"/>
<polygon fill="#191970" stroke="#191970" points="724.1214,-69.3123 716.2421,-76.3951 726.8186,-75.7718 724.1214,-69.3123"/>
</g>
<!-- Node129&#45;&gt;Node117 -->
<g id="edge24" class="edge">
<title>Node129&#45;&gt;Node117</title>
<path fill="none" stroke="#191970" d="M926.0431,-19.589C950.0225,-24.6939 979.6979,-31.0113 1004.9721,-36.3918"/>
<polygon fill="#191970" stroke="#191970" points="1004.2712,-39.821 1014.7808,-38.4799 1005.7288,-32.9744 1004.2712,-39.821"/>
</g>
<!-- Node129&#45;&gt;Node119 -->
<g id="edge26" class="edge">
<title>Node129&#45;&gt;Node119</title>
<path fill="none" stroke="#191970" d="M895.1072,-19.6694C911.6285,-30.9979 939.8162,-50.3393 964,-67 989.0734,-84.2736 1017.8121,-104.1447 1037.1581,-117.532"/>
<polygon fill="#191970" stroke="#191970" points="1035.3764,-120.5554 1045.591,-123.3685 1039.3601,-114.7995 1035.3764,-120.5554"/>
</g>
<!-- Node129&#45;&gt;Node120 -->
<g id="edge25" class="edge">
<title>Node129&#45;&gt;Node120</title>
<path fill="none" stroke="#191970" d="M939.3256,-13.3604C987.5867,-16.4517 1057.8832,-21.6713 1119,-29 1208.7165,-39.7582 1311.8854,-57.2572 1375.7706,-68.6994"/>
<polygon fill="#191970" stroke="#191970" points="1375.2167,-72.1559 1385.6784,-70.4819 1376.4562,-65.2665 1375.2167,-72.1559"/>
</g>
<!-- Node129&#45;&gt;Node121 -->
<g id="edge23" class="edge">
<title>Node129&#45;&gt;Node121</title>
<path fill="none" stroke="#191970" d="M939.2293,-9.9809C987.4339,-10.2049 1057.7013,-11.0838 1119,-14 1296.0351,-22.4223 1340.6706,-29.0374 1515,-61 1523.345,-62.53 1532.096,-64.2179 1540.7479,-65.9372"/>
<polygon fill="#191970" stroke="#191970" points="1540.3352,-69.4242 1550.8287,-67.9625 1541.714,-62.5613 1540.3352,-69.4242"/>
</g>
<!-- Node130&#45;&gt;Node116 -->
<g id="edge32" class="edge">
<title>Node130&#45;&gt;Node116</title>
<path fill="none" stroke="#191970" d="M821.3524,-92.2317C805.9429,-92.6469 788.9933,-92.8127 772.3544,-92.7289"/>
<polygon fill="#191970" stroke="#191970" points="772.0794,-89.2266 762.051,-92.6445 772.022,-96.2264 772.0794,-89.2266"/>
</g>
<!-- Node130&#45;&gt;Node117 -->
<g id="edge29" class="edge">
<title>Node130&#45;&gt;Node117</title>
<path fill="none" stroke="#191970" d="M926.0431,-76.411C950.0225,-71.3061 979.6979,-64.9887 1004.9721,-59.6082"/>
<polygon fill="#191970" stroke="#191970" points="1005.7288,-63.0256 1014.7808,-57.5201 1004.2712,-56.179 1005.7288,-63.0256"/>
</g>
<!-- Node130&#45;&gt;Node119 -->
<g id="edge31" class="edge">
<title>Node130&#45;&gt;Node119</title>
<path fill="none" stroke="#191970" d="M917.1221,-95.5112C944.8543,-102.8132 983.3463,-112.9483 1013.3164,-120.8396"/>
<polygon fill="#191970" stroke="#191970" points="1012.5641,-124.2607 1023.1257,-123.4224 1014.3465,-117.4915 1012.5641,-124.2607"/>
</g>
<!-- Node130&#45;&gt;Node120 -->
<g id="edge30" class="edge">
<title>Node130&#45;&gt;Node120</title>
<path fill="none" stroke="#191970" d="M940.5017,-85.3579C1038.5343,-84.3 1234.4938,-82.1853 1348.7248,-80.9526"/>
<polygon fill="#191970" stroke="#191970" points="1348.8777,-84.4513 1358.8393,-80.8435 1348.8021,-77.4517 1348.8777,-84.4513"/>
</g>
</g>
</svg>
