<?xml version="1.0" encoding="UTF-8" standalone="no"?>
<!DOCTYPE svg PUBLIC "-//W3C//DTD SVG 1.1//EN"
 "http://www.w3.org/Graphics/SVG/1.1/DTD/svg11.dtd">
<!-- Generated by graphviz version 2.40.1 (20161225.0304)
 -->
<!-- Title: Timer::getElapsedTimeSinceLastTimeOut Pages: 1 -->
<svg width="457pt" height="39pt"
 viewBox="0.00 0.00 457.00 39.00" xmlns="http://www.w3.org/2000/svg" xmlns:xlink="http://www.w3.org/1999/xlink">
<g id="graph0" class="graph" transform="scale(1 1) rotate(0) translate(4 35)">
<title>Timer::getElapsedTimeSinceLastTimeOut</title>
<!-- Node17 -->
<g id="node1" class="node">
<title>Node17</title>
<polygon fill="#bfbfbf" stroke="#000000" points="0,-.5 0,-30.5 156,-30.5 156,-.5 0,-.5"/>
<text text-anchor="start" x="8" y="-18.5" font-family="Helvetica,sans-Serif" font-size="10.00" fill="#000000">Timer::getElapsedTimeSince</text>
<text text-anchor="middle" x="78" y="-7.5" font-family="Helvetica,sans-Serif" font-size="10.00" fill="#000000">LastTimeOut</text>
</g>
<!-- Node18 -->
<g id="node2" class="node">
<title>Node18</title>
<g id="a_node2"><a xlink:href="classTimer.html#ab887910601a1a42b2549c99892653921" target="_top" xlink:title="Timer::checkTimeout">
<polygon fill="none" stroke="#000000" points="192,-6 192,-25 312,-25 312,-6 192,-6"/>
<text text-anchor="middle" x="252" y="-13" font-family="Helvetica,sans-Serif" font-size="10.00" fill="#000000">Timer::checkTimeout</text>
</a>
</g>
</g>
<!-- Node17&#45;&gt;Node18 -->
<g id="edge1" class="edge">
<title>Node17&#45;&gt;Node18</title>
<path fill="none" stroke="#191970" d="M166.265,-15.5C174.9411,-15.5 183.6005,-15.5 191.8978,-15.5"/>
<polygon fill="#191970" stroke="#191970" points="166.093,-12.0001 156.093,-15.5 166.093,-19.0001 166.093,-12.0001"/>
</g>
<!-- Node19 -->
<g id="node3" class="node">
<title>Node19</title>
<g id="a_node3"><a xlink:href="classTimer.html#ae6d9bf74a35a78b0d9bf81d2d573f03d" target="_top" xlink:title="Loop Timer Specify if the timeout callback is called once or everytime the counter hits zero...">
<polygon fill="none" stroke="#000000" points="348,-6 348,-25 449,-25 449,-6 348,-6"/>
<text text-anchor="middle" x="398.5" y="-13" font-family="Helvetica,sans-Serif" font-size="10.00" fill="#000000">Timer::loopTimer</text>
</a>
</g>
</g>
<!-- Node18&#45;&gt;Node19 -->
<g id="edge2" class="edge">
<title>Node18&#45;&gt;Node19</title>
<path fill="none" stroke="#191970" d="M322.0954,-15.5C330.7344,-15.5 339.4319,-15.5 347.7063,-15.5"/>
<polygon fill="#191970" stroke="#191970" points="322.0099,-12.0001 312.0099,-15.5 322.0098,-19.0001 322.0099,-12.0001"/>
</g>
</g>
</svg>
