<?xml version="1.0" encoding="UTF-8" standalone="no"?>
<!DOCTYPE svg PUBLIC "-//W3C//DTD SVG 1.1//EN"
 "http://www.w3.org/Graphics/SVG/1.1/DTD/svg11.dtd">
<!-- Generated by graphviz version 2.40.1 (20161225.0304)
 -->
<!-- Title: Timer::loopTimer Pages: 1 -->
<svg width="457pt" height="116pt"
 viewBox="0.00 0.00 457.00 115.50" xmlns="http://www.w3.org/2000/svg" xmlns:xlink="http://www.w3.org/1999/xlink">
<g id="graph0" class="graph" transform="scale(1 1) rotate(0) translate(4 111.5)">
<title>Timer::loopTimer</title>
<!-- Node25 -->
<g id="node1" class="node">
<title>Node25</title>
<polygon fill="#bfbfbf" stroke="#000000" points="0,-38.5 0,-57.5 101,-57.5 101,-38.5 0,-38.5"/>
<text text-anchor="middle" x="50.5" y="-45.5" font-family="Helvetica,sans-Serif" font-size="10.00" fill="#000000">Timer::loopTimer</text>
</g>
<!-- Node26 -->
<g id="node2" class="node">
<title>Node26</title>
<g id="a_node2"><a xlink:href="classTimer.html#ab887910601a1a42b2549c99892653921" target="_top" xlink:title="Timer::checkTimeout">
<polygon fill="none" stroke="#000000" points="137,-38.5 137,-57.5 257,-57.5 257,-38.5 137,-38.5"/>
<text text-anchor="middle" x="197" y="-45.5" font-family="Helvetica,sans-Serif" font-size="10.00" fill="#000000">Timer::checkTimeout</text>
</a>
</g>
</g>
<!-- Node25&#45;&gt;Node26 -->
<g id="edge1" class="edge">
<title>Node25&#45;&gt;Node26</title>
<path fill="none" stroke="#191970" d="M101.3274,-48C109.5839,-48 118.261,-48 126.8802,-48"/>
<polygon fill="#191970" stroke="#191970" points="126.9431,-51.5001 136.9431,-48 126.943,-44.5001 126.9431,-51.5001"/>
</g>
<!-- Node27 -->
<g id="node3" class="node">
<title>Node27</title>
<g id="a_node3"><a xlink:href="classTimer.html#ab16249c34c11718cc8e99ff83a3febbc" target="_top" xlink:title="get elapsed time since last timeOut Returns the time in milliseconds, that has passed since the last ...">
<polygon fill="none" stroke="#000000" points="293,-77 293,-107 449,-107 449,-77 293,-77"/>
<text text-anchor="start" x="301" y="-95" font-family="Helvetica,sans-Serif" font-size="10.00" fill="#000000">Timer::getElapsedTimeSince</text>
<text text-anchor="middle" x="371" y="-84" font-family="Helvetica,sans-Serif" font-size="10.00" fill="#000000">LastTimeOut</text>
</a>
</g>
</g>
<!-- Node26&#45;&gt;Node27 -->
<g id="edge2" class="edge">
<title>Node26&#45;&gt;Node27</title>
<path fill="none" stroke="#191970" d="M234.7554,-57.5473C254.2583,-62.4791 278.6841,-68.6558 301.4479,-74.4121"/>
<polygon fill="#191970" stroke="#191970" points="300.8704,-77.8762 311.4233,-76.9346 302.5866,-71.0898 300.8704,-77.8762"/>
</g>
<!-- Node28 -->
<g id="node4" class="node">
<title>Node28</title>
<g id="a_node4"><a xlink:href="classTimer.html#a1f02a25426e43a017f565671c32ebb6d" target="_top" xlink:title="Timer::timeOut">
<polygon fill="none" stroke="#000000" points="325.5,-38.5 325.5,-57.5 416.5,-57.5 416.5,-38.5 325.5,-38.5"/>
<text text-anchor="middle" x="371" y="-45.5" font-family="Helvetica,sans-Serif" font-size="10.00" fill="#000000">Timer::timeOut</text>
</a>
</g>
</g>
<!-- Node26&#45;&gt;Node28 -->
<g id="edge3" class="edge">
<title>Node26&#45;&gt;Node28</title>
<path fill="none" stroke="#191970" d="M257.3684,-48C276.1682,-48 296.804,-48 315.2715,-48"/>
<polygon fill="#191970" stroke="#191970" points="315.2827,-51.5001 325.2827,-48 315.2826,-44.5001 315.2827,-51.5001"/>
</g>
<!-- Node29 -->
<g id="node5" class="node">
<title>Node29</title>
<g id="a_node5"><a xlink:href="classTimer.html#a63f0eb44b27402196590a03781515dba" target="_top" xlink:title="Stop the timer Stops the timer and set it back to 0. ">
<polygon fill="none" stroke="#000000" points="335,-.5 335,-19.5 407,-19.5 407,-.5 335,-.5"/>
<text text-anchor="middle" x="371" y="-7.5" font-family="Helvetica,sans-Serif" font-size="10.00" fill="#000000">Timer::stop</text>
</a>
</g>
</g>
<!-- Node26&#45;&gt;Node29 -->
<g id="edge4" class="edge">
<title>Node26&#45;&gt;Node29</title>
<path fill="none" stroke="#191970" d="M240.9075,-38.411C266.5044,-32.8209 298.7594,-25.7767 324.7478,-20.1011"/>
<polygon fill="#191970" stroke="#191970" points="325.7128,-23.4729 334.7357,-17.9198 324.2192,-16.6341 325.7128,-23.4729"/>
</g>
</g>
</svg>
