<?xml version="1.0" encoding="UTF-8" standalone="no"?>
<!DOCTYPE svg PUBLIC "-//W3C//DTD SVG 1.1//EN"
 "http://www.w3.org/Graphics/SVG/1.1/DTD/svg11.dtd">
<!-- Generated by graphviz version 2.40.1 (20161225.0304)
 -->
<!-- Title: UIElement::setLayoutGroupName Pages: 1 -->
<svg width="583pt" height="28pt"
 viewBox="0.00 0.00 583.00 28.00" xmlns="http://www.w3.org/2000/svg" xmlns:xlink="http://www.w3.org/1999/xlink">
<g id="graph0" class="graph" transform="scale(1 1) rotate(0) translate(4 24)">
<title>UIElement::setLayoutGroupName</title>
<!-- Node236 -->
<g id="node1" class="node">
<title>Node236</title>
<polygon fill="#bfbfbf" stroke="#000000" points="0,-.5 0,-19.5 180,-19.5 180,-.5 0,-.5"/>
<text text-anchor="middle" x="90" y="-7.5" font-family="Helvetica,sans-Serif" font-size="10.00" fill="#000000">UIElement::setLayoutGroupName</text>
</g>
<!-- Node237 -->
<g id="node2" class="node">
<title>Node237</title>
<g id="a_node2"><a xlink:href="classUIManager.html#a5c87a391279c342c25d859eb7f3b144d" target="_top" xlink:title="UIManager::addToLayoutGroup">
<polygon fill="none" stroke="#000000" points="216,-.5 216,-19.5 382,-19.5 382,-.5 216,-.5"/>
<text text-anchor="middle" x="299" y="-7.5" font-family="Helvetica,sans-Serif" font-size="10.00" fill="#000000">UIManager::addToLayoutGroup</text>
</a>
</g>
</g>
<!-- Node236&#45;&gt;Node237 -->
<g id="edge1" class="edge">
<title>Node236&#45;&gt;Node237</title>
<path fill="none" stroke="#191970" d="M190.171,-10C198.7332,-10 207.3343,-10 215.7437,-10"/>
<polygon fill="#191970" stroke="#191970" points="190.1513,-6.5001 180.1513,-10 190.1512,-13.5001 190.1513,-6.5001"/>
</g>
<!-- Node238 -->
<g id="node3" class="node">
<title>Node238</title>
<g id="a_node3"><a xlink:href="classUIManager.html#aae7a89e9d50bb6192e4140e07bd5f94b" target="_top" xlink:title="UIManager::createBuildMenu">
<polygon fill="none" stroke="#000000" points="418,-.5 418,-19.5 575,-19.5 575,-.5 418,-.5"/>
<text text-anchor="middle" x="496.5" y="-7.5" font-family="Helvetica,sans-Serif" font-size="10.00" fill="#000000">UIManager::createBuildMenu</text>
</a>
</g>
</g>
<!-- Node237&#45;&gt;Node238 -->
<g id="edge2" class="edge">
<title>Node237&#45;&gt;Node238</title>
<path fill="none" stroke="#191970" d="M392.2043,-10C400.7741,-10 409.3998,-10 417.8221,-10"/>
<polygon fill="#191970" stroke="#191970" points="392.1854,-6.5001 382.1854,-10 392.1853,-13.5001 392.1854,-6.5001"/>
</g>
</g>
</svg>
