<?xml version="1.0" encoding="UTF-8" standalone="no"?>
<!DOCTYPE svg PUBLIC "-//W3C//DTD SVG 1.1//EN"
 "http://www.w3.org/Graphics/SVG/1.1/DTD/svg11.dtd">
<!-- Generated by graphviz version 2.40.1 (20161225.0304)
 -->
<!-- Title: ComboBox::onMouseButtonUp Pages: 1 -->
<svg width="577pt" height="104pt"
 viewBox="0.00 0.00 577.00 104.00" xmlns="http://www.w3.org/2000/svg" xmlns:xlink="http://www.w3.org/1999/xlink">
<g id="graph0" class="graph" transform="scale(1 1) rotate(0) translate(4 100)">
<title>ComboBox::onMouseButtonUp</title>
<!-- Node53 -->
<g id="node1" class="node">
<title>Node53</title>
<polygon fill="#bfbfbf" stroke="#000000" points="0,-38.5 0,-57.5 165,-57.5 165,-38.5 0,-38.5"/>
<text text-anchor="middle" x="82.5" y="-45.5" font-family="Helvetica,sans-Serif" font-size="10.00" fill="#000000">ComboBox::onMouseButtonUp</text>
</g>
<!-- Node54 -->
<g id="node2" class="node">
<title>Node54</title>
<g id="a_node2"><a xlink:href="classComboBox.html#aa6f2324f223f737bf44ffa55fc272d63" target="_top" xlink:title="ComboBox::checkBoundaries">
<polygon fill="none" stroke="#000000" points="205,-76.5 205,-95.5 364,-95.5 364,-76.5 205,-76.5"/>
<text text-anchor="middle" x="284.5" y="-83.5" font-family="Helvetica,sans-Serif" font-size="10.00" fill="#000000">ComboBox::checkBoundaries</text>
</a>
</g>
</g>
<!-- Node53&#45;&gt;Node54 -->
<g id="edge1" class="edge">
<title>Node53&#45;&gt;Node54</title>
<path fill="none" stroke="#191970" d="M133.2124,-57.54C160.7069,-62.7122 194.8765,-69.1401 223.7817,-74.5778"/>
<polygon fill="#191970" stroke="#191970" points="223.292,-78.0469 233.7667,-76.4561 224.5862,-71.1676 223.292,-78.0469"/>
</g>
<!-- Node55 -->
<g id="node3" class="node">
<title>Node55</title>
<g id="a_node3"><a xlink:href="classUIElement.html#ade4162d6216022e143c769369b64add7" target="_top" xlink:title="Set the button state Sets the mouse button pressed state. ">
<polygon fill="none" stroke="#000000" points="201,-38.5 201,-57.5 368,-57.5 368,-38.5 201,-38.5"/>
<text text-anchor="middle" x="284.5" y="-45.5" font-family="Helvetica,sans-Serif" font-size="10.00" fill="#000000">UIElement::changeButtonState</text>
</a>
</g>
</g>
<!-- Node53&#45;&gt;Node55 -->
<g id="edge2" class="edge">
<title>Node53&#45;&gt;Node55</title>
<path fill="none" stroke="#191970" d="M165.244,-48C173.7016,-48 182.3359,-48 190.8989,-48"/>
<polygon fill="#191970" stroke="#191970" points="190.9036,-51.5001 200.9035,-48 190.9035,-44.5001 190.9036,-51.5001"/>
</g>
<!-- Node58 -->
<g id="node6" class="node">
<title>Node58</title>
<g id="a_node6"><a xlink:href="classComboBox.html#aa344838cace46be94ba0cad37700b9ec" target="_top" xlink:title="ComboBox::centerTextLabel">
<polygon fill="none" stroke="#000000" points="208,-.5 208,-19.5 361,-19.5 361,-.5 208,-.5"/>
<text text-anchor="middle" x="284.5" y="-7.5" font-family="Helvetica,sans-Serif" font-size="10.00" fill="#000000">ComboBox::centerTextLabel</text>
</a>
</g>
</g>
<!-- Node53&#45;&gt;Node58 -->
<g id="edge5" class="edge">
<title>Node53&#45;&gt;Node58</title>
<path fill="none" stroke="#191970" d="M133.2124,-38.46C160.7069,-33.2878 194.8765,-26.8599 223.7817,-21.4222"/>
<polygon fill="#191970" stroke="#191970" points="224.5862,-24.8324 233.7667,-19.5439 223.292,-17.9531 224.5862,-24.8324"/>
</g>
<!-- Node56 -->
<g id="node4" class="node">
<title>Node56</title>
<g id="a_node4"><a xlink:href="classUIElement.html#afdf67550d4140097c7a328d4b22fc1fe" target="_top" xlink:title="UIElement::changeTexture">
<polygon fill="none" stroke="#000000" points="414,-60.5 414,-79.5 559,-79.5 559,-60.5 414,-60.5"/>
<text text-anchor="middle" x="486.5" y="-67.5" font-family="Helvetica,sans-Serif" font-size="10.00" fill="#000000">UIElement::changeTexture</text>
</a>
</g>
</g>
<!-- Node55&#45;&gt;Node56 -->
<g id="edge3" class="edge">
<title>Node55&#45;&gt;Node56</title>
<path fill="none" stroke="#191970" d="M368.1193,-57.107C379.8719,-58.387 391.9483,-59.7023 403.6858,-60.9806"/>
<polygon fill="#191970" stroke="#191970" points="403.5764,-64.4893 413.8966,-62.0927 404.3344,-57.5305 403.5764,-64.4893"/>
</g>
<!-- Node57 -->
<g id="node5" class="node">
<title>Node57</title>
<g id="a_node5"><a xlink:href="classSingleton.html#af5cb1e5749949e2b68416cfb8d378044" target="_top" xlink:title="Get an instance of the singleton. ">
<polygon fill="none" stroke="#000000" points="404,-11 404,-41 569,-41 569,-11 404,-11"/>
<text text-anchor="start" x="412" y="-29" font-family="Helvetica,sans-Serif" font-size="10.00" fill="#000000">Singleton&lt; ResourcesManager</text>
<text text-anchor="middle" x="486.5" y="-18" font-family="Helvetica,sans-Serif" font-size="10.00" fill="#000000"> &gt;::instance</text>
</a>
</g>
</g>
<!-- Node55&#45;&gt;Node57 -->
<g id="edge4" class="edge">
<title>Node55&#45;&gt;Node57</title>
<path fill="none" stroke="#191970" d="M368.1193,-38.893C376.6225,-37.9669 385.2953,-37.0223 393.8865,-36.0866"/>
<polygon fill="#191970" stroke="#191970" points="394.3572,-39.5561 403.9194,-34.9939 393.5992,-32.5973 394.3572,-39.5561"/>
</g>
</g>
</svg>
