<?xml version="1.0" encoding="UTF-8" standalone="no"?>
<!DOCTYPE svg PUBLIC "-//W3C//DTD SVG 1.1//EN"
 "http://www.w3.org/Graphics/SVG/1.1/DTD/svg11.dtd">
<!-- Generated by graphviz version 2.40.1 (20161225.0304)
 -->
<!-- Title: Timer::stop Pages: 1 -->
<svg width="373pt" height="104pt"
 viewBox="0.00 0.00 373.00 104.00" xmlns="http://www.w3.org/2000/svg" xmlns:xlink="http://www.w3.org/1999/xlink">
<g id="graph0" class="graph" transform="scale(1 1) rotate(0) translate(4 100)">
<title>Timer::stop</title>
<!-- Node51 -->
<g id="node1" class="node">
<title>Node51</title>
<polygon fill="#bfbfbf" stroke="#000000" points="0,-38.5 0,-57.5 72,-57.5 72,-38.5 0,-38.5"/>
<text text-anchor="middle" x="36" y="-45.5" font-family="Helvetica,sans-Serif" font-size="10.00" fill="#000000">Timer::stop</text>
</g>
<!-- Node52 -->
<g id="node2" class="node">
<title>Node52</title>
<g id="a_node2"><a xlink:href="classTimer.html#a14fa469c4c295c5fa6e66a4ad1092146" target="_top" xlink:title="Destroys the Timer object. ">
<polygon fill="none" stroke="#000000" points="124,-76.5 124,-95.5 212,-95.5 212,-76.5 124,-76.5"/>
<text text-anchor="middle" x="168" y="-83.5" font-family="Helvetica,sans-Serif" font-size="10.00" fill="#000000">Timer::~Timer</text>
</a>
</g>
</g>
<!-- Node51&#45;&gt;Node52 -->
<g id="edge1" class="edge">
<title>Node51&#45;&gt;Node52</title>
<path fill="none" stroke="#191970" d="M79.0409,-60.3906C97.1177,-65.5945 117.8195,-71.5541 134.7015,-76.4141"/>
<polygon fill="#191970" stroke="#191970" points="79.8872,-56.9921 69.3092,-57.589 77.9506,-63.7189 79.8872,-56.9921"/>
</g>
<!-- Node53 -->
<g id="node3" class="node">
<title>Node53</title>
<g id="a_node3"><a xlink:href="classTimer.html#ab887910601a1a42b2549c99892653921" target="_top" xlink:title="Timer::checkTimeout">
<polygon fill="none" stroke="#000000" points="108,-38.5 108,-57.5 228,-57.5 228,-38.5 108,-38.5"/>
<text text-anchor="middle" x="168" y="-45.5" font-family="Helvetica,sans-Serif" font-size="10.00" fill="#000000">Timer::checkTimeout</text>
</a>
</g>
</g>
<!-- Node51&#45;&gt;Node53 -->
<g id="edge2" class="edge">
<title>Node51&#45;&gt;Node53</title>
<path fill="none" stroke="#191970" d="M82.2597,-48C90.532,-48 99.2599,-48 107.8544,-48"/>
<polygon fill="#191970" stroke="#191970" points="82.0696,-44.5001 72.0696,-48 82.0695,-51.5001 82.0696,-44.5001"/>
</g>
<!-- Node55 -->
<g id="node5" class="node">
<title>Node55</title>
<g id="a_node5"><a xlink:href="classTooltip.html#ad451a89f3aaaa61d6cef9ea4ba590c68" target="_top" xlink:title="resets the Tooltip Hides and deactivates the Tooltip and stops the timer ">
<polygon fill="none" stroke="#000000" points="128,-.5 128,-19.5 208,-19.5 208,-.5 128,-.5"/>
<text text-anchor="middle" x="168" y="-7.5" font-family="Helvetica,sans-Serif" font-size="10.00" fill="#000000">Tooltip::reset</text>
</a>
</g>
</g>
<!-- Node51&#45;&gt;Node55 -->
<g id="edge4" class="edge">
<title>Node51&#45;&gt;Node55</title>
<path fill="none" stroke="#191970" d="M79.0409,-35.6094C97.1177,-30.4055 117.8195,-24.4459 134.7015,-19.5859"/>
<polygon fill="#191970" stroke="#191970" points="77.9506,-32.2811 69.3092,-38.411 79.8872,-39.0079 77.9506,-32.2811"/>
</g>
<!-- Node54 -->
<g id="node4" class="node">
<title>Node54</title>
<g id="a_node4"><a xlink:href="classTimer.html#ae6d9bf74a35a78b0d9bf81d2d573f03d" target="_top" xlink:title="Loop Timer Specify if the timeout callback is called once or everytime the counter hits zero...">
<polygon fill="none" stroke="#000000" points="264,-38.5 264,-57.5 365,-57.5 365,-38.5 264,-38.5"/>
<text text-anchor="middle" x="314.5" y="-45.5" font-family="Helvetica,sans-Serif" font-size="10.00" fill="#000000">Timer::loopTimer</text>
</a>
</g>
</g>
<!-- Node53&#45;&gt;Node54 -->
<g id="edge3" class="edge">
<title>Node53&#45;&gt;Node54</title>
<path fill="none" stroke="#191970" d="M238.0954,-48C246.7344,-48 255.4319,-48 263.7063,-48"/>
<polygon fill="#191970" stroke="#191970" points="238.0099,-44.5001 228.0099,-48 238.0098,-51.5001 238.0099,-44.5001"/>
</g>
</g>
</svg>
