<?xml version="1.0" encoding="UTF-8" standalone="no"?>
<!DOCTYPE svg PUBLIC "-//W3C//DTD SVG 1.1//EN"
 "http://www.w3.org/Graphics/SVG/1.1/DTD/svg11.dtd">
<!-- Generated by graphviz version 2.40.1 (20161225.0304)
 -->
<!-- Title: ComboBox::checkBoundaries Pages: 1 -->
<svg width="415pt" height="180pt"
 viewBox="0.00 0.00 415.00 180.00" xmlns="http://www.w3.org/2000/svg" xmlns:xlink="http://www.w3.org/1999/xlink">
<g id="graph0" class="graph" transform="scale(1 1) rotate(0) translate(4 176)">
<title>ComboBox::checkBoundaries</title>
<!-- Node15 -->
<g id="node1" class="node">
<title>Node15</title>
<polygon fill="#bfbfbf" stroke="#000000" points="0,-76.5 0,-95.5 159,-95.5 159,-76.5 0,-76.5"/>
<text text-anchor="middle" x="79.5" y="-83.5" font-family="Helvetica,sans-Serif" font-size="10.00" fill="#000000">ComboBox::checkBoundaries</text>
</g>
<!-- Node16 -->
<g id="node2" class="node">
<title>Node16</title>
<g id="a_node2"><a xlink:href="classComboBox.html#a59b31b2bb95999b152327b54f5c7cb9a" target="_top" xlink:title="Handling for the hovering event Check, if the mouse cursor is hovering over the element. virtual function to provide custom handling if necessary (e.g. Combobox) Per default, it&#39;s the same implementation as isMouseOver. ">
<polygon fill="none" stroke="#000000" points="195,-152.5 195,-171.5 407,-171.5 407,-152.5 195,-152.5"/>
<text text-anchor="middle" x="301" y="-159.5" font-family="Helvetica,sans-Serif" font-size="10.00" fill="#000000">ComboBox::isMouseOverHoverableArea</text>
</a>
</g>
</g>
<!-- Node15&#45;&gt;Node16 -->
<g id="edge1" class="edge">
<title>Node15&#45;&gt;Node16</title>
<path fill="none" stroke="#191970" d="M104.0128,-100.6359C126.8231,-113.6308 162.1435,-132.1882 195,-143 206.6323,-146.8277 219.2514,-149.9406 231.5907,-152.4538"/>
<polygon fill="#191970" stroke="#191970" points="105.7447,-97.5944 95.3362,-95.6163 102.2394,-103.6535 105.7447,-97.5944"/>
</g>
<!-- Node17 -->
<g id="node3" class="node">
<title>Node17</title>
<g id="a_node3"><a xlink:href="classComboBox.html#a117f2c533682ff861d3d713123260408" target="_top" xlink:title="Checks if the mouse cursor is over the current UI Element Check if the coordinates match the ones sto...">
<polygon fill="none" stroke="#000000" points="231.5,-114.5 231.5,-133.5 370.5,-133.5 370.5,-114.5 231.5,-114.5"/>
<text text-anchor="middle" x="301" y="-121.5" font-family="Helvetica,sans-Serif" font-size="10.00" fill="#000000">ComboBox::isMouseOver</text>
</a>
</g>
</g>
<!-- Node15&#45;&gt;Node17 -->
<g id="edge2" class="edge">
<title>Node15&#45;&gt;Node17</title>
<path fill="none" stroke="#191970" d="M145.2266,-97.2759C177.0933,-102.7429 214.9535,-109.2381 245.3692,-114.4561"/>
<polygon fill="#191970" stroke="#191970" points="145.5557,-93.7813 135.1079,-95.54 144.3721,-100.6805 145.5557,-93.7813"/>
</g>
<!-- Node18 -->
<g id="node4" class="node">
<title>Node18</title>
<g id="a_node4"><a xlink:href="classComboBox.html#af0d53d01cb6d97f6dec54647721d125e" target="_top" xlink:title="ComboBox::onMouseButtonUp">
<polygon fill="none" stroke="#000000" points="218.5,-76.5 218.5,-95.5 383.5,-95.5 383.5,-76.5 218.5,-76.5"/>
<text text-anchor="middle" x="301" y="-83.5" font-family="Helvetica,sans-Serif" font-size="10.00" fill="#000000">ComboBox::onMouseButtonUp</text>
</a>
</g>
</g>
<!-- Node15&#45;&gt;Node18 -->
<g id="edge3" class="edge">
<title>Node15&#45;&gt;Node18</title>
<path fill="none" stroke="#191970" d="M169.1736,-86C185.4176,-86 202.2897,-86 218.3217,-86"/>
<polygon fill="#191970" stroke="#191970" points="169.1537,-82.5001 159.1536,-86 169.1536,-89.5001 169.1537,-82.5001"/>
</g>
<!-- Node19 -->
<g id="node5" class="node">
<title>Node19</title>
<g id="a_node5"><a xlink:href="classComboBox.html#a132276aba4ff900343458e81f318fd74" target="_top" xlink:title="ComboBox::onMouseButtonDown">
<polygon fill="none" stroke="#000000" points="211.5,-38.5 211.5,-57.5 390.5,-57.5 390.5,-38.5 211.5,-38.5"/>
<text text-anchor="middle" x="301" y="-45.5" font-family="Helvetica,sans-Serif" font-size="10.00" fill="#000000">ComboBox::onMouseButtonDown</text>
</a>
</g>
</g>
<!-- Node15&#45;&gt;Node19 -->
<g id="edge4" class="edge">
<title>Node15&#45;&gt;Node19</title>
<path fill="none" stroke="#191970" d="M145.2266,-74.7241C177.0933,-69.2571 214.9535,-62.7619 245.3692,-57.5439"/>
<polygon fill="#191970" stroke="#191970" points="144.3721,-71.3195 135.1079,-76.46 145.5557,-78.2187 144.3721,-71.3195"/>
</g>
<!-- Node20 -->
<g id="node6" class="node">
<title>Node20</title>
<g id="a_node6"><a xlink:href="classComboBox.html#a9e34bb39454d682c02e434bcc0aa99a4" target="_top" xlink:title="ComboBox::onMouseMove">
<polygon fill="none" stroke="#000000" points="228,-.5 228,-19.5 374,-19.5 374,-.5 228,-.5"/>
<text text-anchor="middle" x="301" y="-7.5" font-family="Helvetica,sans-Serif" font-size="10.00" fill="#000000">ComboBox::onMouseMove</text>
</a>
</g>
</g>
<!-- Node15&#45;&gt;Node20 -->
<g id="edge5" class="edge">
<title>Node15&#45;&gt;Node20</title>
<path fill="none" stroke="#191970" d="M104.0128,-71.3641C126.8231,-58.3692 162.1435,-39.8118 195,-29 206.6323,-25.1723 219.2514,-22.0594 231.5907,-19.5462"/>
<polygon fill="#191970" stroke="#191970" points="102.2394,-68.3465 95.3362,-76.3837 105.7447,-74.4056 102.2394,-68.3465"/>
</g>
</g>
</svg>
