<?xml version="1.0" encoding="UTF-8" standalone="no"?>
<!DOCTYPE svg PUBLIC "-//W3C//DTD SVG 1.1//EN"
 "http://www.w3.org/Graphics/SVG/1.1/DTD/svg11.dtd">
<!-- Generated by graphviz version 2.40.1 (20161225.0304)
 -->
<!-- Title: Sprite::render Pages: 1 -->
<svg width="829pt" height="143pt"
 viewBox="0.00 0.00 829.00 143.00" xmlns="http://www.w3.org/2000/svg" xmlns:xlink="http://www.w3.org/1999/xlink">
<g id="graph0" class="graph" transform="scale(1 1) rotate(0) translate(4 139)">
<title>Sprite::render</title>
<!-- Node42 -->
<g id="node1" class="node">
<title>Node42</title>
<polygon fill="#bfbfbf" stroke="#000000" points="0,-28 0,-47 83,-47 83,-28 0,-28"/>
<text text-anchor="middle" x="41.5" y="-35" font-family="Helvetica,sans-Serif" font-size="10.00" fill="#000000">Sprite::render</text>
</g>
<!-- Node43 -->
<g id="node2" class="node">
<title>Node43</title>
<g id="a_node2"><a xlink:href="classMapLayers.html#a1d810628821913c499b8348107b66891" target="_top" xlink:title="Check if given Layer is being drawn. ">
<polygon fill="none" stroke="#000000" points="126,-50 126,-69 267,-69 267,-50 126,-50"/>
<text text-anchor="middle" x="196.5" y="-57" font-family="Helvetica,sans-Serif" font-size="10.00" fill="#000000">MapLayers::isLayerActive</text>
</a>
</g>
</g>
<!-- Node42&#45;&gt;Node43 -->
<g id="edge1" class="edge">
<title>Node42&#45;&gt;Node43</title>
<path fill="none" stroke="#191970" d="M83.0372,-43.3956C94.2877,-44.9924 106.8374,-46.7737 119.3741,-48.5531"/>
<polygon fill="#191970" stroke="#191970" points="119.0078,-52.0361 129.4004,-49.9762 119.9915,-45.1056 119.0078,-52.0361"/>
</g>
<!-- Node50 -->
<g id="node9" class="node">
<title>Node50</title>
<g id="a_node9"><a xlink:href="classSingleton.html#af5cb1e5749949e2b68416cfb8d378044" target="_top" xlink:title="Get an instance of the singleton. ">
<polygon fill="none" stroke="#000000" points="119,-.5 119,-30.5 274,-30.5 274,-.5 119,-.5"/>
<text text-anchor="start" x="127" y="-18.5" font-family="Helvetica,sans-Serif" font-size="10.00" fill="#000000">Singleton&lt; WindowManager</text>
<text text-anchor="middle" x="196.5" y="-7.5" font-family="Helvetica,sans-Serif" font-size="10.00" fill="#000000"> &gt;::instance</text>
</a>
</g>
</g>
<!-- Node42&#45;&gt;Node50 -->
<g id="edge8" class="edge">
<title>Node42&#45;&gt;Node50</title>
<path fill="none" stroke="#191970" d="M83.0372,-31.6044C91.1162,-30.4577 99.8652,-29.2159 108.7982,-27.948"/>
<polygon fill="#191970" stroke="#191970" points="109.5272,-31.3797 118.9361,-26.5091 108.5435,-24.4491 109.5272,-31.3797"/>
</g>
<!-- Node44 -->
<g id="node3" class="node">
<title>Node44</title>
<g id="a_node3"><a xlink:href="classMapLayers.html#ab663dfc9e4c144f904ad85543b66ac8f" target="_top" xlink:title="Toggle Drawing Layer Toggle Drawing Layer (use bitwise XOR to toggle layer) ">
<polygon fill="none" stroke="#000000" points="310,-88 310,-107 472,-107 472,-88 310,-88"/>
<text text-anchor="middle" x="391" y="-95" font-family="Helvetica,sans-Serif" font-size="10.00" fill="#000000">MapLayers::setLayerEditMode</text>
</a>
</g>
</g>
<!-- Node43&#45;&gt;Node44 -->
<g id="edge2" class="edge">
<title>Node43&#45;&gt;Node44</title>
<path fill="none" stroke="#191970" d="M245.3295,-69.04C271.6876,-74.1896 304.4169,-80.584 332.1712,-86.0065"/>
<polygon fill="#191970" stroke="#191970" points="331.6648,-89.4736 342.1504,-87.9561 333.0071,-82.6035 331.6648,-89.4736"/>
</g>
<!-- Node48 -->
<g id="node7" class="node">
<title>Node48</title>
<g id="a_node7"><a xlink:href="classMapLayers.html#a53d7fcd90e70eaf36239d7a75c0c5dda" target="_top" xlink:title="MapLayers::MapLayers">
<polygon fill="none" stroke="#000000" points="327,-50 327,-69 455,-69 455,-50 327,-50"/>
<text text-anchor="middle" x="391" y="-57" font-family="Helvetica,sans-Serif" font-size="10.00" fill="#000000">MapLayers::MapLayers</text>
</a>
</g>
</g>
<!-- Node43&#45;&gt;Node48 -->
<g id="edge6" class="edge">
<title>Node43&#45;&gt;Node48</title>
<path fill="none" stroke="#191970" d="M267.2692,-59.5C283.2182,-59.5 300.1958,-59.5 316.3002,-59.5"/>
<polygon fill="#191970" stroke="#191970" points="316.7375,-63.0001 326.7375,-59.5 316.7375,-56.0001 316.7375,-63.0001"/>
</g>
<!-- Node49 -->
<g id="node8" class="node">
<title>Node49</title>
<g id="a_node8"><a xlink:href="classMapLayers.html#aa7fa21110e27ec69f131692b0a510d66" target="_top" xlink:title="MapLayers::~MapLayers">
<polygon fill="none" stroke="#000000" points="323,-12 323,-31 459,-31 459,-12 323,-12"/>
<text text-anchor="middle" x="391" y="-19" font-family="Helvetica,sans-Serif" font-size="10.00" fill="#000000">MapLayers::~MapLayers</text>
</a>
</g>
</g>
<!-- Node43&#45;&gt;Node49 -->
<g id="edge7" class="edge">
<title>Node43&#45;&gt;Node49</title>
<path fill="none" stroke="#191970" d="M245.3295,-49.96C271.6876,-44.8104 304.4169,-38.416 332.1712,-32.9935"/>
<polygon fill="#191970" stroke="#191970" points="333.0071,-36.3965 342.1504,-31.0439 331.6648,-29.5264 333.0071,-36.3965"/>
</g>
<!-- Node45 -->
<g id="node4" class="node">
<title>Node45</title>
<g id="a_node4"><a xlink:href="classMapLayers.html#a0a64d01a42e8864b78e1bc54007cb7d9" target="_top" xlink:title="Toggle Drawing Layer Toggle Drawing Layer (use bitwise XOR to toggle layer) ">
<polygon fill="none" stroke="#000000" points="508,-104.5 508,-134.5 648,-134.5 648,-104.5 508,-104.5"/>
<text text-anchor="start" x="516" y="-122.5" font-family="Helvetica,sans-Serif" font-size="10.00" fill="#000000">MapLayers::deactivateAll</text>
<text text-anchor="middle" x="578" y="-111.5" font-family="Helvetica,sans-Serif" font-size="10.00" fill="#000000">Layers</text>
</a>
</g>
</g>
<!-- Node44&#45;&gt;Node45 -->
<g id="edge3" class="edge">
<title>Node44&#45;&gt;Node45</title>
<path fill="none" stroke="#191970" d="M471.9333,-107.0216C480.5179,-108.0315 489.2464,-109.0584 497.8223,-110.0673"/>
<polygon fill="#191970" stroke="#191970" points="497.4613,-113.5489 507.8018,-111.2414 498.2792,-106.5969 497.4613,-113.5489"/>
</g>
<!-- Node47 -->
<g id="node6" class="node">
<title>Node47</title>
<g id="a_node6"><a xlink:href="classMapLayers.html#a54ce1eeef2a8998a728ac7074efe8787" target="_top" xlink:title="Enable Drawing Layer Enable Drawing Layer (use bitwise OR to add layer) ">
<polygon fill="none" stroke="#000000" points="510.5,-66 510.5,-85 645.5,-85 645.5,-66 510.5,-66"/>
<text text-anchor="middle" x="578" y="-73" font-family="Helvetica,sans-Serif" font-size="10.00" fill="#000000">MapLayers::enableLayer</text>
</a>
</g>
</g>
<!-- Node44&#45;&gt;Node47 -->
<g id="edge5" class="edge">
<title>Node44&#45;&gt;Node47</title>
<path fill="none" stroke="#191970" d="M471.9333,-87.9784C481.3569,-86.8698 490.954,-85.7407 500.3322,-84.6374"/>
<polygon fill="#191970" stroke="#191970" points="500.8815,-88.097 510.404,-83.4525 500.0636,-81.1449 500.8815,-88.097"/>
</g>
<!-- Node46 -->
<g id="node5" class="node">
<title>Node46</title>
<g id="a_node5"><a xlink:href="classMapLayers.html#a3b1b1f10dd431fa83e098a20e4c836b9" target="_top" xlink:title="Disable Drawing Layer Disable Drawing Layer ( Turned off by using bitwise AND with inversed pattern) ...">
<polygon fill="none" stroke="#000000" points="684,-110 684,-129 821,-129 821,-110 684,-110"/>
<text text-anchor="middle" x="752.5" y="-117" font-family="Helvetica,sans-Serif" font-size="10.00" fill="#000000">MapLayers::disableLayer</text>
</a>
</g>
</g>
<!-- Node45&#45;&gt;Node46 -->
<g id="edge4" class="edge">
<title>Node45&#45;&gt;Node46</title>
<path fill="none" stroke="#191970" d="M648.2215,-119.5C656.5704,-119.5 665.1356,-119.5 673.5953,-119.5"/>
<polygon fill="#191970" stroke="#191970" points="673.8402,-123.0001 683.8402,-119.5 673.8402,-116.0001 673.8402,-123.0001"/>
</g>
</g>
</svg>
