<?xml version="1.0" encoding="UTF-8" standalone="no"?>
<!DOCTYPE svg PUBLIC "-//W3C//DTD SVG 1.1//EN"
 "http://www.w3.org/Graphics/SVG/1.1/DTD/svg11.dtd">
<!-- Generated by graphviz version 2.40.1 (20161225.0304)
 -->
<!-- Title: UIManager::toggleGroupVisibility Pages: 1 -->
<svg width="710pt" height="66pt"
 viewBox="0.00 0.00 710.00 66.00" xmlns="http://www.w3.org/2000/svg" xmlns:xlink="http://www.w3.org/1999/xlink">
<g id="graph0" class="graph" transform="scale(1 1) rotate(0) translate(4 62)">
<title>UIManager::toggleGroupVisibility</title>
<!-- Node274 -->
<g id="node1" class="node">
<title>Node274</title>
<polygon fill="#bfbfbf" stroke="#000000" points="0,-19.5 0,-38.5 178,-38.5 178,-19.5 0,-19.5"/>
<text text-anchor="middle" x="89" y="-26.5" font-family="Helvetica,sans-Serif" font-size="10.00" fill="#000000">UIManager::toggleGroupVisibility</text>
</g>
<!-- Node275 -->
<g id="node2" class="node">
<title>Node275</title>
<g id="a_node2"><a xlink:href="classEventManager.html#a65ec91fd5016d4f9c4167fb8babed2df" target="_top" xlink:title="EventManager::checkEvents">
<polygon fill="none" stroke="#000000" points="226,-38.5 226,-57.5 380,-57.5 380,-38.5 226,-38.5"/>
<text text-anchor="middle" x="303" y="-45.5" font-family="Helvetica,sans-Serif" font-size="10.00" fill="#000000">EventManager::checkEvents</text>
</a>
</g>
</g>
<!-- Node274&#45;&gt;Node275 -->
<g id="edge1" class="edge">
<title>Node274&#45;&gt;Node275</title>
<path fill="none" stroke="#191970" d="M188.2788,-37.8145C200.8944,-38.9346 213.6539,-40.0674 225.851,-41.1503"/>
<polygon fill="#191970" stroke="#191970" points="188.476,-34.3183 178.2057,-36.9201 187.8569,-41.2909 188.476,-34.3183"/>
</g>
<!-- Node279 -->
<g id="node6" class="node">
<title>Node279</title>
<g id="a_node6"><a xlink:href="classUIManager.html#aa78e356fc3b356d790c848319d1c387e" target="_top" xlink:title="UIManager::setCallbackFunctions">
<polygon fill="none" stroke="#000000" points="214,-.5 214,-19.5 392,-19.5 392,-.5 214,-.5"/>
<text text-anchor="middle" x="303" y="-7.5" font-family="Helvetica,sans-Serif" font-size="10.00" fill="#000000">UIManager::setCallbackFunctions</text>
</a>
</g>
</g>
<!-- Node274&#45;&gt;Node279 -->
<g id="edge5" class="edge">
<title>Node274&#45;&gt;Node279</title>
<path fill="none" stroke="#191970" d="M188.2299,-20.1899C196.8066,-19.4284 205.4503,-18.661 213.9388,-17.9073"/>
<polygon fill="#191970" stroke="#191970" points="187.8569,-16.7091 178.2057,-21.0799 188.476,-23.6817 187.8569,-16.7091"/>
</g>
<!-- Node276 -->
<g id="node3" class="node">
<title>Node276</title>
<g id="a_node3"><a xlink:href="classGame.html#a1c2ab25d5216b2f4b2fe41efd2c09114" target="_top" xlink:title="begins the game starts running the game ">
<polygon fill="none" stroke="#000000" points="428,-38.5 428,-57.5 496,-57.5 496,-38.5 428,-38.5"/>
<text text-anchor="middle" x="462" y="-45.5" font-family="Helvetica,sans-Serif" font-size="10.00" fill="#000000">Game::run</text>
</a>
</g>
</g>
<!-- Node275&#45;&gt;Node276 -->
<g id="edge2" class="edge">
<title>Node275&#45;&gt;Node276</title>
<path fill="none" stroke="#191970" d="M390.3849,-48C403.6982,-48 416.7136,-48 427.918,-48"/>
<polygon fill="#191970" stroke="#191970" points="390.1712,-44.5001 380.1712,-48 390.1712,-51.5001 390.1712,-44.5001"/>
</g>
<!-- Node277 -->
<g id="node4" class="node">
<title>Node277</title>
<g id="a_node4"><a xlink:href="main_8cxx.html#af582d708d899e67ead623eac34a22387" target="_top" xlink:title="protected_main">
<polygon fill="none" stroke="#000000" points="532,-38.5 532,-57.5 625,-57.5 625,-38.5 532,-38.5"/>
<text text-anchor="middle" x="578.5" y="-45.5" font-family="Helvetica,sans-Serif" font-size="10.00" fill="#000000">protected_main</text>
</a>
</g>
</g>
<!-- Node276&#45;&gt;Node277 -->
<g id="edge3" class="edge">
<title>Node276&#45;&gt;Node277</title>
<path fill="none" stroke="#191970" d="M506.2653,-48C514.5757,-48 523.2897,-48 531.6749,-48"/>
<polygon fill="#191970" stroke="#191970" points="506.0098,-44.5001 496.0098,-48 506.0098,-51.5001 506.0098,-44.5001"/>
</g>
<!-- Node278 -->
<g id="node5" class="node">
<title>Node278</title>
<g id="a_node5"><a xlink:href="main_8cxx.html#a3c04138a5bfe5d72780bb7e82a18e627" target="_top" xlink:title="main">
<polygon fill="none" stroke="#000000" points="661,-38.5 661,-57.5 702,-57.5 702,-38.5 661,-38.5"/>
<text text-anchor="middle" x="681.5" y="-45.5" font-family="Helvetica,sans-Serif" font-size="10.00" fill="#000000">main</text>
</a>
</g>
</g>
<!-- Node277&#45;&gt;Node278 -->
<g id="edge4" class="edge">
<title>Node277&#45;&gt;Node278</title>
<path fill="none" stroke="#191970" d="M635.2133,-48C644.4322,-48 653.4259,-48 660.9965,-48"/>
<polygon fill="#191970" stroke="#191970" points="635.1782,-44.5001 625.1782,-48 635.1781,-51.5001 635.1782,-44.5001"/>
</g>
</g>
</svg>
