<?xml version="1.0" encoding="UTF-8" standalone="no"?>
<!DOCTYPE svg PUBLIC "-//W3C//DTD SVG 1.1//EN"
 "http://www.w3.org/Graphics/SVG/1.1/DTD/svg11.dtd">
<!-- Generated by graphviz version 2.40.1 (20161225.0304)
 -->
<!-- Title: MapNode::getMapNodeDataForLayer Pages: 1 -->
<svg width="1855pt" height="396pt"
 viewBox="0.00 0.00 1855.00 396.26" xmlns="http://www.w3.org/2000/svg" xmlns:xlink="http://www.w3.org/1999/xlink">
<g id="graph0" class="graph" transform="scale(1 1) rotate(0) translate(4 392.257)">
<title>MapNode::getMapNodeDataForLayer</title>
<!-- Node65 -->
<g id="node1" class="node">
<title>Node65</title>
<polygon fill="#bfbfbf" stroke="#000000" points="0,-240.257 0,-270.257 168,-270.257 168,-240.257 0,-240.257"/>
<text text-anchor="start" x="8" y="-258.257" font-family="Helvetica,sans-Serif" font-size="10.00" fill="#000000">MapNode::getMapNodeDataFor</text>
<text text-anchor="middle" x="84" y="-247.257" font-family="Helvetica,sans-Serif" font-size="10.00" fill="#000000">Layer</text>
</g>
<!-- Node66 -->
<g id="node2" class="node">
<title>Node66</title>
<g id="a_node2"><a xlink:href="classMap.html#aa8cc2ed983007621bce12dd9d1b8ec5b" target="_top" xlink:title="Demolish a node This function gathers all tiles that should be demolished and invokes the nodes demol...">
<polygon fill="none" stroke="#000000" points="204,-245.757 204,-264.757 317,-264.757 317,-245.757 204,-245.757"/>
<text text-anchor="middle" x="260.5" y="-252.757" font-family="Helvetica,sans-Serif" font-size="10.00" fill="#000000">Map::demolishNode</text>
</a>
</g>
</g>
<!-- Node65&#45;&gt;Node66 -->
<g id="edge1" class="edge">
<title>Node65&#45;&gt;Node66</title>
<path fill="none" stroke="#191970" d="M178.3823,-255.257C187.1148,-255.257 195.767,-255.257 203.9944,-255.257"/>
<polygon fill="#191970" stroke="#191970" points="178.1147,-251.7571 168.1146,-255.257 178.1146,-258.7571 178.1147,-251.7571"/>
</g>
<!-- Node67 -->
<g id="node3" class="node">
<title>Node67</title>
<g id="a_node3"><a xlink:href="classEventManager.html#a65ec91fd5016d4f9c4167fb8babed2df" target="_top" xlink:title="EventManager::checkEvents">
<polygon fill="none" stroke="#000000" points="1371,-283.757 1371,-302.757 1525,-302.757 1525,-283.757 1371,-283.757"/>
<text text-anchor="middle" x="1448" y="-290.757" font-family="Helvetica,sans-Serif" font-size="10.00" fill="#000000">EventManager::checkEvents</text>
</a>
</g>
</g>
<!-- Node66&#45;&gt;Node67 -->
<g id="edge2" class="edge">
<title>Node66&#45;&gt;Node67</title>
<path fill="none" stroke="#191970" d="M281.8166,-270.7945C332.1373,-305.89 463.3547,-388.257 586.5,-388.257 586.5,-388.257 586.5,-388.257 1089.5,-388.257 1194.8654,-388.257 1222.0584,-377.4673 1323,-347.257 1362.1798,-335.531 1405.4907,-314.9927 1429.4566,-302.9075"/>
<polygon fill="#191970" stroke="#191970" points="283.566,-267.7446 273.3823,-264.822 279.5207,-273.4574 283.566,-267.7446"/>
</g>
<!-- Node71 -->
<g id="node7" class="node">
<title>Node71</title>
<g id="a_node7"><a xlink:href="classMap.html#aba5154a4d917900679a3c0f7ec701561" target="_top" xlink:title="Increase Height Increases the height of the node and checks the surrounding tiles. Either draw a slope sprite or elevate the tile if necessary. ">
<polygon fill="none" stroke="#000000" points="353,-226.757 353,-245.757 469,-245.757 469,-226.757 353,-226.757"/>
<text text-anchor="middle" x="411" y="-233.757" font-family="Helvetica,sans-Serif" font-size="10.00" fill="#000000">Map::increaseHeight</text>
</a>
</g>
</g>
<!-- Node66&#45;&gt;Node71 -->
<g id="edge6" class="edge">
<title>Node66&#45;&gt;Node71</title>
<path fill="none" stroke="#191970" d="M327.5571,-246.7913C335.9658,-245.7297 344.5126,-244.6507 352.7707,-243.6082"/>
<polygon fill="#191970" stroke="#191970" points="326.8804,-243.3489 317.3976,-248.0739 327.7573,-250.2937 326.8804,-243.3489"/>
</g>
<!-- Node73 -->
<g id="node9" class="node">
<title>Node73</title>
<g id="a_node9"><a xlink:href="classMap.html#a59d21f2688713fbcfe320eb1b24405ca" target="_top" xlink:title="Update mapNode and its adjacent tiles Updates mapNode height information, draws slopes for adjacent t...">
<polygon fill="none" stroke="#000000" points="505,-188.757 505,-207.757 668,-207.757 668,-188.757 505,-188.757"/>
<text text-anchor="middle" x="586.5" y="-195.757" font-family="Helvetica,sans-Serif" font-size="10.00" fill="#000000">Map::updateNeighborsOfNode</text>
</a>
</g>
</g>
<!-- Node66&#45;&gt;Node73 -->
<g id="edge38" class="edge">
<title>Node66&#45;&gt;Node73</title>
<path fill="none" stroke="#191970" d="M277.1915,-239.8973C295.3221,-228.5434 325.3977,-214.88 353,-208.257 402.5359,-196.3712 459.4938,-191.5677 504.7536,-190.8156"/>
<polygon fill="#191970" stroke="#191970" points="275.161,-237.0456 268.8756,-245.5746 279.1079,-242.8268 275.161,-237.0456"/>
</g>
<!-- Node74 -->
<g id="node10" class="node">
<title>Node74</title>
<g id="a_node10"><a xlink:href="classMap.html#afb8cc864df90d273a5074872d635dc40" target="_top" xlink:title="Decrease Height Decreases the height of the node and checks the surrounding tiles. Either draw a slope sprite or lower the tile if necessary. ">
<polygon fill="none" stroke="#000000" points="704.5,-264.757 704.5,-283.757 823.5,-283.757 823.5,-264.757 704.5,-264.757"/>
<text text-anchor="middle" x="764" y="-271.757" font-family="Helvetica,sans-Serif" font-size="10.00" fill="#000000">Map::decreaseHeight</text>
</a>
</g>
</g>
<!-- Node66&#45;&gt;Node74 -->
<g id="edge37" class="edge">
<title>Node66&#45;&gt;Node74</title>
<path fill="none" stroke="#191970" d="M327.449,-257.7834C426.3075,-261.5139 609.801,-268.4382 704.3133,-272.0047"/>
<polygon fill="#191970" stroke="#191970" points="327.404,-254.2793 317.2791,-257.3996 327.14,-261.2743 327.404,-254.2793"/>
</g>
<!-- Node85 -->
<g id="node21" class="node">
<title>Node85</title>
<g id="a_node21"><a xlink:href="classMap.html#a404c38b33d61f8c63ce2c2efb864d6dd" target="_top" xlink:title="Set the Tile ID Of Node object Also invokes all necessary texture updates (auto&#45;tiling, slopes, ...) ">
<polygon fill="none" stroke="#000000" points="1028,-245.757 1028,-264.757 1151,-264.757 1151,-245.757 1028,-245.757"/>
<text text-anchor="middle" x="1089.5" y="-252.757" font-family="Helvetica,sans-Serif" font-size="10.00" fill="#000000">Map::setTileIDOfNode</text>
</a>
</g>
</g>
<!-- Node66&#45;&gt;Node85 -->
<g id="edge39" class="edge">
<title>Node66&#45;&gt;Node85</title>
<path fill="none" stroke="#191970" d="M302.7993,-267.483C364.5774,-284.2313 483.3628,-312.257 586.5,-312.257 586.5,-312.257 586.5,-312.257 764,-312.257 865.6846,-312.257 892.9329,-316.18 992,-293.257 1019.9654,-286.7861 1050.5507,-273.8277 1069.8695,-264.8548"/>
<polygon fill="#191970" stroke="#191970" points="303.5942,-264.0718 293.0242,-264.7975 301.7397,-270.8217 303.5942,-264.0718"/>
</g>
<!-- Node68 -->
<g id="node4" class="node">
<title>Node68</title>
<g id="a_node4"><a xlink:href="classGame.html#a1c2ab25d5216b2f4b2fe41efd2c09114" target="_top" xlink:title="begins the game starts running the game ">
<polygon fill="none" stroke="#000000" points="1573,-226.757 1573,-245.757 1641,-245.757 1641,-226.757 1573,-226.757"/>
<text text-anchor="middle" x="1607" y="-233.757" font-family="Helvetica,sans-Serif" font-size="10.00" fill="#000000">Game::run</text>
</a>
</g>
</g>
<!-- Node67&#45;&gt;Node68 -->
<g id="edge3" class="edge">
<title>Node67&#45;&gt;Node68</title>
<path fill="none" stroke="#191970" d="M1484.0636,-280.3285C1513.3193,-269.8406 1553.8994,-255.293 1580.3002,-245.8286"/>
<polygon fill="#191970" stroke="#191970" points="1482.8453,-277.0471 1474.613,-283.7165 1485.2076,-283.6365 1482.8453,-277.0471"/>
</g>
<!-- Node69 -->
<g id="node5" class="node">
<title>Node69</title>
<g id="a_node5"><a xlink:href="main_8cxx.html#af582d708d899e67ead623eac34a22387" target="_top" xlink:title="protected_main">
<polygon fill="none" stroke="#000000" points="1677,-207.757 1677,-226.757 1770,-226.757 1770,-207.757 1677,-207.757"/>
<text text-anchor="middle" x="1723.5" y="-214.757" font-family="Helvetica,sans-Serif" font-size="10.00" fill="#000000">protected_main</text>
</a>
</g>
</g>
<!-- Node68&#45;&gt;Node69 -->
<g id="edge4" class="edge">
<title>Node68&#45;&gt;Node69</title>
<path fill="none" stroke="#191970" d="M1650.9884,-229.0829C1659.382,-227.714 1668.1965,-226.2764 1676.6749,-224.8937"/>
<polygon fill="#191970" stroke="#191970" points="1650.316,-225.6462 1641.0098,-230.7103 1651.4428,-232.555 1650.316,-225.6462"/>
</g>
<!-- Node70 -->
<g id="node6" class="node">
<title>Node70</title>
<g id="a_node6"><a xlink:href="main_8cxx.html#a3c04138a5bfe5d72780bb7e82a18e627" target="_top" xlink:title="main">
<polygon fill="none" stroke="#000000" points="1806,-207.757 1806,-226.757 1847,-226.757 1847,-207.757 1806,-207.757"/>
<text text-anchor="middle" x="1826.5" y="-214.757" font-family="Helvetica,sans-Serif" font-size="10.00" fill="#000000">main</text>
</a>
</g>
</g>
<!-- Node69&#45;&gt;Node70 -->
<g id="edge5" class="edge">
<title>Node69&#45;&gt;Node70</title>
<path fill="none" stroke="#191970" d="M1780.2133,-217.257C1789.4322,-217.257 1798.4259,-217.257 1805.9965,-217.257"/>
<polygon fill="#191970" stroke="#191970" points="1780.1782,-213.7571 1770.1782,-217.257 1780.1781,-220.7571 1780.1782,-213.7571"/>
</g>
<!-- Node72 -->
<g id="node8" class="node">
<title>Node72</title>
<g id="a_node8"><a xlink:href="classEngine.html#a4851ae1ff696c893741167fc0194fd77" target="_top" xlink:title="Increase Height Increases the height of the given map node Calls the according function of the Map ob...">
<polygon fill="none" stroke="#000000" points="522,-226.757 522,-245.757 651,-245.757 651,-226.757 522,-226.757"/>
<text text-anchor="middle" x="586.5" y="-233.757" font-family="Helvetica,sans-Serif" font-size="10.00" fill="#000000">Engine::increaseHeight</text>
</a>
</g>
</g>
<!-- Node71&#45;&gt;Node72 -->
<g id="edge7" class="edge">
<title>Node71&#45;&gt;Node72</title>
<path fill="none" stroke="#191970" d="M479.4777,-236.257C493.4606,-236.257 508.1304,-236.257 521.9699,-236.257"/>
<polygon fill="#191970" stroke="#191970" points="479.439,-232.7571 469.439,-236.257 479.4389,-239.7571 479.439,-232.7571"/>
</g>
<!-- Node71&#45;&gt;Node73 -->
<g id="edge9" class="edge">
<title>Node71&#45;&gt;Node73</title>
<path fill="none" stroke="#191970" d="M443.3035,-223.8918C462.484,-218.6211 487.6517,-212.7333 511.5293,-207.804"/>
<polygon fill="#191970" stroke="#191970" points="442.2403,-220.5553 433.5843,-226.6646 444.1608,-227.2868 442.2403,-220.5553"/>
</g>
<!-- Node72&#45;&gt;Node67 -->
<g id="edge8" class="edge">
<title>Node72&#45;&gt;Node67</title>
<path fill="none" stroke="#191970" d="M611.4456,-250.8912C666.3349,-281.6634 802.5344,-350.257 926,-350.257 926,-350.257 926,-350.257 1089.5,-350.257 1208.9255,-350.257 1347.9843,-319.024 1412.171,-302.7975"/>
<polygon fill="#191970" stroke="#191970" points="612.8814,-247.6814 602.4585,-245.7805 609.421,-253.7663 612.8814,-247.6814"/>
</g>
<!-- Node73&#45;&gt;Node66 -->
<g id="edge35" class="edge">
<title>Node73&#45;&gt;Node66</title>
<path fill="none" stroke="#191970" d="M494.7653,-207.36C451.3004,-210.299 398.9562,-215.2301 353,-226.257 333.7543,-230.8749 313.3063,-238.9155 296.5432,-245.6199"/>
<polygon fill="#191970" stroke="#191970" points="495.003,-210.852 504.7536,-206.7075 494.5467,-203.8669 495.003,-210.852"/>
</g>
<!-- Node73&#45;&gt;Node71 -->
<g id="edge10" class="edge">
<title>Node73&#45;&gt;Node71</title>
<path fill="none" stroke="#191970" d="M553.9376,-210.6933C530.2681,-217.1862 497.5814,-224.6029 469.439,-230.0071"/>
<polygon fill="#191970" stroke="#191970" points="555.1509,-213.987 563.8093,-207.881 553.233,-207.2548 555.1509,-213.987"/>
</g>
<!-- Node73&#45;&gt;Node74 -->
<g id="edge11" class="edge">
<title>Node73&#45;&gt;Node74</title>
<path fill="none" stroke="#191970" d="M675.825,-213.3508C687.2457,-222.2835 688.7827,-231.6905 704,-241.257 719.7669,-251.169 740.3144,-258.3177 752.8131,-264.5728"/>
<polygon fill="#191970" stroke="#191970" points="677.5367,-210.291 667.2262,-207.8531 673.766,-216.1886 677.5367,-210.291"/>
</g>
<!-- Node76 -->
<g id="node12" class="node">
<title>Node76</title>
<g id="a_node12"><a xlink:href="classMap.html#a481b37ba71ef0e51e836fc42805762dd" target="_top" xlink:title="Update all mapNodes Updates all mapNode and its adjacent tiles regarding height information, draws slopes for adjacent tiles and sets tiling for mapNode sprite if applicable. ">
<polygon fill="none" stroke="#000000" points="704,-188.757 704,-207.757 824,-207.757 824,-188.757 704,-188.757"/>
<text text-anchor="middle" x="764" y="-195.757" font-family="Helvetica,sans-Serif" font-size="10.00" fill="#000000">Map::updateAllNodes</text>
</a>
</g>
</g>
<!-- Node73&#45;&gt;Node76 -->
<g id="edge15" class="edge">
<title>Node73&#45;&gt;Node76</title>
<path fill="none" stroke="#191970" d="M678.3911,-198.257C687.0427,-198.257 695.6544,-198.257 703.8969,-198.257"/>
<polygon fill="#191970" stroke="#191970" points="678.2363,-194.7571 668.2362,-198.257 678.2362,-201.7571 678.2363,-194.7571"/>
</g>
<!-- Node73&#45;&gt;Node85 -->
<g id="edge36" class="edge">
<title>Node73&#45;&gt;Node85</title>
<path fill="none" stroke="#191970" d="M650.7754,-209.3893C668.0291,-212.1754 686.6988,-215.0077 704,-217.257 818.0402,-232.0834 951.7331,-244.0576 1027.9412,-250.3746"/>
<polygon fill="#191970" stroke="#191970" points="651.235,-205.918 640.8014,-207.759 650.1058,-212.8264 651.235,-205.918"/>
</g>
<!-- Node74&#45;&gt;Node73 -->
<g id="edge14" class="edge">
<title>Node74&#45;&gt;Node73</title>
<path fill="none" stroke="#191970" d="M704.5719,-259.614C704.3806,-259.4954 704.19,-259.3764 704,-259.257 685.6244,-247.705 687.197,-236.3855 668,-226.257 649.4962,-216.4942 626.0221,-211.7028 609.0239,-207.7772"/>
<polygon fill="#191970" stroke="#191970" points="703.126,-262.8161 713.5592,-264.6594 706.5527,-256.7121 703.126,-262.8161"/>
</g>
<!-- Node75 -->
<g id="node11" class="node">
<title>Node75</title>
<g id="a_node11"><a xlink:href="classEngine.html#a13572fdd7f6470dca48a14497f58980e" target="_top" xlink:title="Decrease Height Decreases the height of the given map node Calls the according function of the Map ob...">
<polygon fill="none" stroke="#000000" points="860,-264.757 860,-283.757 992,-283.757 992,-264.757 860,-264.757"/>
<text text-anchor="middle" x="926" y="-271.757" font-family="Helvetica,sans-Serif" font-size="10.00" fill="#000000">Engine::decreaseHeight</text>
</a>
</g>
</g>
<!-- Node74&#45;&gt;Node75 -->
<g id="edge12" class="edge">
<title>Node74&#45;&gt;Node75</title>
<path fill="none" stroke="#191970" d="M833.8755,-274.257C842.4925,-274.257 851.2807,-274.257 859.8401,-274.257"/>
<polygon fill="#191970" stroke="#191970" points="833.8626,-270.7571 823.8626,-274.257 833.8625,-277.7571 833.8626,-270.7571"/>
</g>
<!-- Node75&#45;&gt;Node67 -->
<g id="edge13" class="edge">
<title>Node75&#45;&gt;Node67</title>
<path fill="none" stroke="#191970" d="M1002.3132,-281.2804C1054.3115,-285.705 1124.749,-290.9941 1187,-293.257 1248.8107,-295.5038 1318.9099,-295.3546 1370.8855,-294.7257"/>
<polygon fill="#191970" stroke="#191970" points="1002.4304,-277.7776 992.1673,-280.4081 1001.8307,-284.7519 1002.4304,-277.7776"/>
</g>
<!-- Node77 -->
<g id="node13" class="node">
<title>Node77</title>
<g id="a_node13"><a xlink:href="classMap.html#a482ac34426e8aa66abb46f60ec329402" target="_top" xlink:title="Initialize the Map with node objects Initialize the Map with node objects. ">
<polygon fill="none" stroke="#000000" points="886.5,-112.757 886.5,-131.757 965.5,-131.757 965.5,-112.757 886.5,-112.757"/>
<text text-anchor="middle" x="926" y="-119.757" font-family="Helvetica,sans-Serif" font-size="10.00" fill="#000000">Map::initMap</text>
</a>
</g>
</g>
<!-- Node76&#45;&gt;Node77 -->
<g id="edge16" class="edge">
<title>Node76&#45;&gt;Node77</title>
<path fill="none" stroke="#191970" d="M793.9674,-184.1982C826.4794,-168.9457 877.4991,-145.0105 905.6492,-131.8043"/>
<polygon fill="#191970" stroke="#191970" points="792.0841,-181.2156 784.5174,-188.6315 795.0572,-187.5529 792.0841,-181.2156"/>
</g>
<!-- Node82 -->
<g id="node18" class="node">
<title>Node82</title>
<g id="a_node18"><a xlink:href="classMap.html#afefe996cc1f62b61ec60d0ae415953bf" target="_top" xlink:title="Map::loadMapFromFile">
<polygon fill="none" stroke="#000000" points="863.5,-188.757 863.5,-207.757 988.5,-207.757 988.5,-188.757 863.5,-188.757"/>
<text text-anchor="middle" x="926" y="-195.757" font-family="Helvetica,sans-Serif" font-size="10.00" fill="#000000">Map::loadMapFromFile</text>
</a>
</g>
</g>
<!-- Node76&#45;&gt;Node82 -->
<g id="edge24" class="edge">
<title>Node76&#45;&gt;Node82</title>
<path fill="none" stroke="#191970" d="M834.3256,-198.257C844.0192,-198.257 853.9204,-198.257 863.4607,-198.257"/>
<polygon fill="#191970" stroke="#191970" points="834.3229,-194.7571 824.3228,-198.257 834.3228,-201.7571 834.3229,-194.7571"/>
</g>
<!-- Node78 -->
<g id="node14" class="node">
<title>Node78</title>
<g id="a_node14"><a xlink:href="classEngine.html#a260d4834150eae6eec2bde34df6dc827" target="_top" xlink:title="Creates a new game Creates a new game. ">
<polygon fill="none" stroke="#000000" points="1037,-74.757 1037,-93.757 1142,-93.757 1142,-74.757 1037,-74.757"/>
<text text-anchor="middle" x="1089.5" y="-81.757" font-family="Helvetica,sans-Serif" font-size="10.00" fill="#000000">Engine::newGame</text>
</a>
</g>
</g>
<!-- Node77&#45;&gt;Node78 -->
<g id="edge17" class="edge">
<title>Node77&#45;&gt;Node78</title>
<path fill="none" stroke="#191970" d="M975.3213,-110.7939C998.724,-105.3548 1026.3582,-98.9321 1048.5782,-93.7679"/>
<polygon fill="#191970" stroke="#191970" points="974.5268,-107.3852 965.5788,-113.0582 976.1115,-114.2035 974.5268,-107.3852"/>
</g>
<!-- Node78&#45;&gt;Node68 -->
<g id="edge23" class="edge">
<title>Node78&#45;&gt;Node68</title>
<path fill="none" stroke="#191970" d="M1109.2142,-68.4564C1127.9615,-54.5193 1157.5915,-35.2226 1187,-27.257 1339.1233,13.9475 1416.4335,17.2468 1537,-84.257 1583.4505,-123.3633 1600.7124,-199.9272 1605.485,-226.7224"/>
<polygon fill="#191970" stroke="#191970" points="1106.9871,-65.7533 1101.1701,-74.6085 1111.2396,-71.3136 1106.9871,-65.7533"/>
</g>
<!-- Node79 -->
<g id="node15" class="node">
<title>Node79</title>
<g id="a_node15"><a xlink:href="classEngine.html#ab5a909990be40701ebb4b57c3e716ed4" target="_top" xlink:title="Engine::saveGame">
<polygon fill="none" stroke="#000000" points="1201,-36.757 1201,-55.757 1309,-55.757 1309,-36.757 1201,-36.757"/>
<text text-anchor="middle" x="1255" y="-43.757" font-family="Helvetica,sans-Serif" font-size="10.00" fill="#000000">Engine::saveGame</text>
</a>
</g>
</g>
<!-- Node78&#45;&gt;Node79 -->
<g id="edge18" class="edge">
<title>Node78&#45;&gt;Node79</title>
<path fill="none" stroke="#191970" d="M1141.3105,-72.3609C1164.5733,-67.0196 1191.6469,-60.8033 1213.5377,-55.777"/>
<polygon fill="#191970" stroke="#191970" points="1140.2258,-69.0188 1131.2626,-74.668 1141.7923,-75.8413 1140.2258,-69.0188"/>
</g>
<!-- Node80 -->
<g id="node16" class="node">
<title>Node80</title>
<g id="a_node16"><a xlink:href="classUIManager.html#aa78e356fc3b356d790c848319d1c387e" target="_top" xlink:title="UIManager::setCallbackFunctions">
<polygon fill="none" stroke="#000000" points="1359,-93.757 1359,-112.757 1537,-112.757 1537,-93.757 1359,-93.757"/>
<text text-anchor="middle" x="1448" y="-100.757" font-family="Helvetica,sans-Serif" font-size="10.00" fill="#000000">UIManager::setCallbackFunctions</text>
</a>
</g>
</g>
<!-- Node78&#45;&gt;Node80 -->
<g id="edge20" class="edge">
<title>Node78&#45;&gt;Node80</title>
<path fill="none" stroke="#191970" d="M1152.0043,-87.5696C1209.2186,-90.6019 1294.5184,-95.1227 1358.8714,-98.5333"/>
<polygon fill="#191970" stroke="#191970" points="1152.1842,-84.0743 1142.0129,-87.0401 1151.8136,-91.0645 1152.1842,-84.0743"/>
</g>
<!-- Node81 -->
<g id="node17" class="node">
<title>Node81</title>
<g id="a_node17"><a xlink:href="classGame.html#a5ed7fc5be77080f7f6dd5363f7f007a1" target="_top" xlink:title="initializes and displays the main menu initializes and displays the main menu ">
<polygon fill="none" stroke="#000000" points="1396.5,-188.757 1396.5,-207.757 1499.5,-207.757 1499.5,-188.757 1396.5,-188.757"/>
<text text-anchor="middle" x="1448" y="-195.757" font-family="Helvetica,sans-Serif" font-size="10.00" fill="#000000">Game::mainMenu</text>
</a>
</g>
</g>
<!-- Node78&#45;&gt;Node81 -->
<g id="edge21" class="edge">
<title>Node78&#45;&gt;Node81</title>
<path fill="none" stroke="#191970" d="M1129.106,-96.8514C1201.4107,-119.8437 1353.2829,-168.1377 1417.8842,-188.6804"/>
<polygon fill="#191970" stroke="#191970" points="1130.0393,-93.4755 1119.4489,-93.7805 1127.918,-100.1464 1130.0393,-93.4755"/>
</g>
<!-- Node79&#45;&gt;Node80 -->
<g id="edge19" class="edge">
<title>Node79&#45;&gt;Node80</title>
<path fill="none" stroke="#191970" d="M1296.9351,-58.642C1332.5685,-69.1658 1382.9873,-84.0563 1415.5907,-93.6853"/>
<polygon fill="#191970" stroke="#191970" points="1297.8857,-55.2733 1287.3039,-55.7975 1295.903,-61.9867 1297.8857,-55.2733"/>
</g>
<!-- Node81&#45;&gt;Node69 -->
<g id="edge22" class="edge">
<title>Node81&#45;&gt;Node69</title>
<path fill="none" stroke="#191970" d="M1509.9861,-202.5319C1560.6117,-206.0233 1631.055,-210.8815 1676.9575,-214.0472"/>
<polygon fill="#191970" stroke="#191970" points="1510.0366,-199.0271 1499.8194,-201.8307 1509.5549,-206.0106 1510.0366,-199.0271"/>
</g>
<!-- Node83 -->
<g id="node19" class="node">
<title>Node83</title>
<g id="a_node19"><a xlink:href="classEngine.html#a83b7dbeee899b36a13d5b07c7ad87ebc" target="_top" xlink:title="Loads a saved game Loads a saved Game. ">
<polygon fill="none" stroke="#000000" points="1036.5,-188.757 1036.5,-207.757 1142.5,-207.757 1142.5,-188.757 1036.5,-188.757"/>
<text text-anchor="middle" x="1089.5" y="-195.757" font-family="Helvetica,sans-Serif" font-size="10.00" fill="#000000">Engine::loadGame</text>
</a>
</g>
</g>
<!-- Node82&#45;&gt;Node83 -->
<g id="edge25" class="edge">
<title>Node82&#45;&gt;Node83</title>
<path fill="none" stroke="#191970" d="M998.8281,-198.257C1011.5068,-198.257 1024.4752,-198.257 1036.4939,-198.257"/>
<polygon fill="#191970" stroke="#191970" points="998.7458,-194.7571 988.7458,-198.257 998.7457,-201.7571 998.7458,-194.7571"/>
</g>
<!-- Node82&#45;&gt;Node85 -->
<g id="edge32" class="edge">
<title>Node82&#45;&gt;Node85</title>
<path fill="none" stroke="#191970" d="M963.0842,-211.1854C993.168,-221.6734 1034.8966,-236.2209 1062.0445,-245.6853"/>
<polygon fill="#191970" stroke="#191970" points="963.9611,-207.7846 953.3662,-207.7975 961.6567,-214.3944 963.9611,-207.7846"/>
</g>
<!-- Node83&#45;&gt;Node80 -->
<g id="edge30" class="edge">
<title>Node83&#45;&gt;Node80</title>
<path fill="none" stroke="#191970" d="M1135.2482,-186.134C1207.4631,-166.9976 1346.3971,-130.181 1412.0082,-112.7946"/>
<polygon fill="#191970" stroke="#191970" points="1134.2856,-182.7682 1125.5158,-188.7131 1136.0787,-189.5347 1134.2856,-182.7682"/>
</g>
<!-- Node83&#45;&gt;Node81 -->
<g id="edge31" class="edge">
<title>Node83&#45;&gt;Node81</title>
<path fill="none" stroke="#191970" d="M1138.893,-209.7948C1154.22,-212.8578 1171.229,-215.7346 1187,-217.257 1247.1648,-223.0646 1262.7274,-221.8115 1323,-217.257 1347.5148,-215.4045 1374.505,-211.5362 1397.1122,-207.7705"/>
<polygon fill="#191970" stroke="#191970" points="1139.5955,-206.3661 1129.0937,-207.7674 1138.1772,-213.2209 1139.5955,-206.3661"/>
</g>
<!-- Node84 -->
<g id="node20" class="node">
<title>Node84</title>
<g id="a_node20"><a xlink:href="classEngine.html#a0ba57971ffb5173ecc425461f65a4cd8" target="_top" xlink:title="Quits the game Sets m_running to false and quitting the game. ">
<polygon fill="none" stroke="#000000" points="1203,-188.757 1203,-207.757 1307,-207.757 1307,-188.757 1203,-188.757"/>
<text text-anchor="middle" x="1255" y="-195.757" font-family="Helvetica,sans-Serif" font-size="10.00" fill="#000000">Engine::quitGame</text>
</a>
</g>
</g>
<!-- Node83&#45;&gt;Node84 -->
<g id="edge26" class="edge">
<title>Node83&#45;&gt;Node84</title>
<path fill="none" stroke="#191970" d="M1152.9079,-198.257C1169.4475,-198.257 1187.0792,-198.257 1202.9541,-198.257"/>
<polygon fill="#191970" stroke="#191970" points="1152.7763,-194.7571 1142.7762,-198.257 1152.7762,-201.7571 1152.7763,-194.7571"/>
</g>
<!-- Node84&#45;&gt;Node67 -->
<g id="edge27" class="edge">
<title>Node84&#45;&gt;Node67</title>
<path fill="none" stroke="#191970" d="M1283.7537,-212.4104C1323.6083,-232.0279 1394.5738,-266.9591 1428.6672,-283.7408"/>
<polygon fill="#191970" stroke="#191970" points="1285.0857,-209.165 1274.568,-207.8889 1281.9943,-215.4454 1285.0857,-209.165"/>
</g>
<!-- Node84&#45;&gt;Node80 -->
<g id="edge28" class="edge">
<title>Node84&#45;&gt;Node80</title>
<path fill="none" stroke="#191970" d="M1283.7537,-184.1036C1323.6083,-164.486 1394.5738,-129.5549 1428.6672,-112.7731"/>
<polygon fill="#191970" stroke="#191970" points="1281.9943,-181.0686 1274.568,-188.6251 1285.0857,-187.349 1281.9943,-181.0686"/>
</g>
<!-- Node84&#45;&gt;Node81 -->
<g id="edge29" class="edge">
<title>Node84&#45;&gt;Node81</title>
<path fill="none" stroke="#191970" d="M1317.5372,-198.257C1343.0304,-198.257 1372.1483,-198.257 1396.3984,-198.257"/>
<polygon fill="#191970" stroke="#191970" points="1317.2286,-194.7571 1307.2286,-198.257 1317.2285,-201.7571 1317.2286,-194.7571"/>
</g>
<!-- Node86 -->
<g id="node22" class="node">
<title>Node86</title>
<g id="a_node22"><a xlink:href="classEngine.html#a7a1521fd7fc731f961ebaf3f723127d9" target="_top" xlink:title="Engine::setTileIDOfNode">
<polygon fill="none" stroke="#000000" points="1187,-264.757 1187,-283.757 1323,-283.757 1323,-264.757 1187,-264.757"/>
<text text-anchor="middle" x="1255" y="-271.757" font-family="Helvetica,sans-Serif" font-size="10.00" fill="#000000">Engine::setTileIDOfNode</text>
</a>
</g>
</g>
<!-- Node85&#45;&gt;Node86 -->
<g id="edge33" class="edge">
<title>Node85&#45;&gt;Node86</title>
<path fill="none" stroke="#191970" d="M1161.094,-263.4762C1169.6681,-264.4606 1178.405,-265.4636 1186.9273,-266.442"/>
<polygon fill="#191970" stroke="#191970" points="1161.4601,-259.9954 1151.1261,-262.3319 1160.6616,-266.9497 1161.4601,-259.9954"/>
</g>
<!-- Node86&#45;&gt;Node67 -->
<g id="edge34" class="edge">
<title>Node86&#45;&gt;Node67</title>
<path fill="none" stroke="#191970" d="M1333.292,-281.9645C1345.6288,-283.179 1358.3776,-284.4341 1370.6918,-285.6463"/>
<polygon fill="#191970" stroke="#191970" points="1333.3394,-278.4523 1323.0446,-280.9557 1332.6535,-285.4186 1333.3394,-278.4523"/>
</g>
</g>
</svg>
