<?xml version="1.0" encoding="UTF-8" standalone="no"?>
<!DOCTYPE svg PUBLIC "-//W3C//DTD SVG 1.1//EN"
 "http://www.w3.org/Graphics/SVG/1.1/DTD/svg11.dtd">
<!-- Generated by graphviz version 2.40.1 (20161225.0304)
 -->
<!-- Title: ResourcesManager::loadTexture Pages: 1 -->
<svg width="872pt" height="53pt"
 viewBox="0.00 0.00 872.00 52.50" xmlns="http://www.w3.org/2000/svg" xmlns:xlink="http://www.w3.org/1999/xlink">
<g id="graph0" class="graph" transform="scale(1 1) rotate(0) translate(4 48.5)">
<title>ResourcesManager::loadTexture</title>
<!-- Node52 -->
<g id="node1" class="node">
<title>Node52</title>
<polygon fill="#bfbfbf" stroke="#000000" points="0,-6 0,-25 171,-25 171,-6 0,-6"/>
<text text-anchor="middle" x="85.5" y="-13" font-family="Helvetica,sans-Serif" font-size="10.00" fill="#000000">ResourcesManager::loadTexture</text>
</g>
<!-- Node53 -->
<g id="node2" class="node">
<title>Node53</title>
<g id="a_node2"><a xlink:href="classTileManager.html#a9e03faf9425ee26a2f5fb1fa4c94d173" target="_top" xlink:title="TileManager::addJSONObject\lToTileData">
<polygon fill="none" stroke="#000000" points="207,-.5 207,-30.5 363,-30.5 363,-.5 207,-.5"/>
<text text-anchor="start" x="215" y="-18.5" font-family="Helvetica,sans-Serif" font-size="10.00" fill="#000000">TileManager::addJSONObject</text>
<text text-anchor="middle" x="285" y="-7.5" font-family="Helvetica,sans-Serif" font-size="10.00" fill="#000000">ToTileData</text>
</a>
</g>
</g>
<!-- Node52&#45;&gt;Node53 -->
<g id="edge1" class="edge">
<title>Node52&#45;&gt;Node53</title>
<path fill="none" stroke="#191970" d="M181.292,-15.5C189.8629,-15.5 198.4727,-15.5 206.868,-15.5"/>
<polygon fill="#191970" stroke="#191970" points="181.2638,-12.0001 171.2638,-15.5 181.2637,-19.0001 181.2638,-12.0001"/>
</g>
<!-- Node54 -->
<g id="node3" class="node">
<title>Node54</title>
<g id="a_node3"><a xlink:href="classTileManager.html#a1575d9a9530e13fe0286b8fece9e47ea" target="_top" xlink:title="TileManager::init">
<polygon fill="none" stroke="#000000" points="399,-6 399,-25 497,-25 497,-6 399,-6"/>
<text text-anchor="middle" x="448" y="-13" font-family="Helvetica,sans-Serif" font-size="10.00" fill="#000000">TileManager::init</text>
</a>
</g>
</g>
<!-- Node53&#45;&gt;Node54 -->
<g id="edge2" class="edge">
<title>Node53&#45;&gt;Node54</title>
<path fill="none" stroke="#191970" d="M373.3605,-15.5C382.031,-15.5 390.5971,-15.5 398.6627,-15.5"/>
<polygon fill="#191970" stroke="#191970" points="373.1581,-12.0001 363.1581,-15.5 373.158,-19.0001 373.1581,-12.0001"/>
</g>
<!-- Node55 -->
<g id="node4" class="node">
<title>Node55</title>
<g id="a_node4"><a xlink:href="classTileManager.html#ac6f5d9eb4db57f9ad597223658574394" target="_top" xlink:title="TileManager::TileManager">
<polygon fill="none" stroke="#000000" points="533,-25 533,-44 676,-44 676,-25 533,-25"/>
<text text-anchor="middle" x="604.5" y="-32" font-family="Helvetica,sans-Serif" font-size="10.00" fill="#000000">TileManager::TileManager</text>
</a>
</g>
</g>
<!-- Node54&#45;&gt;Node55 -->
<g id="edge3" class="edge">
<title>Node54&#45;&gt;Node55</title>
<path fill="none" stroke="#191970" d="M507.1731,-22.684C515.5918,-23.706 524.3242,-24.7662 532.9473,-25.8131"/>
<polygon fill="#191970" stroke="#191970" points="507.4371,-19.1904 497.0882,-21.4596 506.5934,-26.1394 507.4371,-19.1904"/>
</g>
<!-- Node56 -->
<g id="node5" class="node">
<title>Node56</title>
<g id="a_node5"><a xlink:href="classTileManager.html#af094937b10637c493557e22b42cf25ed" target="_top" xlink:title="TileManager::getAllTileData">
<polygon fill="none" stroke="#000000" points="712,-6 712,-25 864,-25 864,-6 712,-6"/>
<text text-anchor="middle" x="788" y="-13" font-family="Helvetica,sans-Serif" font-size="10.00" fill="#000000">TileManager::getAllTileData</text>
</a>
</g>
</g>
<!-- Node54&#45;&gt;Node56 -->
<g id="edge5" class="edge">
<title>Node54&#45;&gt;Node56</title>
<path fill="none" stroke="#191970" d="M507.3322,-15.5C564.1451,-15.5 650.1219,-15.5 711.9405,-15.5"/>
<polygon fill="#191970" stroke="#191970" points="507.0758,-12.0001 497.0758,-15.5 507.0758,-19.0001 507.0758,-12.0001"/>
</g>
<!-- Node55&#45;&gt;Node56 -->
<g id="edge4" class="edge">
<title>Node55&#45;&gt;Node56</title>
<path fill="none" stroke="#191970" d="M686.4402,-26.0157C694.8686,-25.143 703.4087,-24.2588 711.7716,-23.3929"/>
<polygon fill="#191970" stroke="#191970" points="685.8206,-22.5611 676.2343,-27.0725 686.5416,-29.5239 685.8206,-22.5611"/>
</g>
</g>
</svg>
