<?xml version="1.0" encoding="UTF-8" standalone="no"?>
<!DOCTYPE svg PUBLIC "-//W3C//DTD SVG 1.1//EN"
 "http://www.w3.org/Graphics/SVG/1.1/DTD/svg11.dtd">
<!-- Generated by graphviz version 2.40.1 (20161225.0304)
 -->
<!-- Title: Tooltip Pages: 1 -->
<svg width="575pt" height="1386pt"
 viewBox="0.00 0.00 575.00 1386.00" xmlns="http://www.w3.org/2000/svg" xmlns:xlink="http://www.w3.org/1999/xlink">
<g id="graph0" class="graph" transform="scale(1 1) rotate(0) translate(4 1382)">
<title>Tooltip</title>
<!-- Node3 -->
<g id="node1" class="node">
<title>Node3</title>
<polygon fill="#bfbfbf" stroke="#000000" points="178.5,-.5 178.5,-112.5 271.5,-112.5 271.5,-.5 178.5,-.5"/>
<text text-anchor="middle" x="225" y="-100.5" font-family="Helvetica,sans-Serif" font-size="10.00" fill="#000000">Tooltip</text>
<polyline fill="none" stroke="#000000" points="178.5,-93.5 271.5,-93.5 "/>
<text text-anchor="start" x="186.5" y="-81.5" font-family="Helvetica,sans-Serif" font-size="10.00" fill="#000000">&#45; m_active</text>
<polyline fill="none" stroke="#000000" points="178.5,-74.5 271.5,-74.5 "/>
<text text-anchor="start" x="186.5" y="-62.5" font-family="Helvetica,sans-Serif" font-size="10.00" fill="#000000">+ Tooltip()</text>
<text text-anchor="start" x="186.5" y="-51.5" font-family="Helvetica,sans-Serif" font-size="10.00" fill="#000000">+ ~Tooltip()</text>
<text text-anchor="start" x="186.5" y="-40.5" font-family="Helvetica,sans-Serif" font-size="10.00" fill="#000000">+ draw()</text>
<text text-anchor="start" x="186.5" y="-29.5" font-family="Helvetica,sans-Serif" font-size="10.00" fill="#000000">+ startTimer()</text>
<text text-anchor="start" x="186.5" y="-18.5" font-family="Helvetica,sans-Serif" font-size="10.00" fill="#000000">+ showTooltip()</text>
<text text-anchor="start" x="186.5" y="-7.5" font-family="Helvetica,sans-Serif" font-size="10.00" fill="#000000">+ reset()</text>
</g>
<!-- Node4 -->
<g id="node2" class="node">
<title>Node4</title>
<g id="a_node2"><a xlink:href="classText.html" target="_top" xlink:title="{Text\n|&#45; m_fontSize\l|+ Text()\l+ ~Text()\l+ draw()\l+ setText()\l+ setFontSize()\l+ getFontSize()\l&#45; createTextTexture()\l}">
<polygon fill="none" stroke="#000000" points="0,-248.5 0,-371.5 118,-371.5 118,-248.5 0,-248.5"/>
<text text-anchor="middle" x="59" y="-359.5" font-family="Helvetica,sans-Serif" font-size="10.00" fill="#000000">Text</text>
<polyline fill="none" stroke="#000000" points="0,-352.5 118,-352.5 "/>
<text text-anchor="start" x="8" y="-340.5" font-family="Helvetica,sans-Serif" font-size="10.00" fill="#000000">&#45; m_fontSize</text>
<polyline fill="none" stroke="#000000" points="0,-333.5 118,-333.5 "/>
<text text-anchor="start" x="8" y="-321.5" font-family="Helvetica,sans-Serif" font-size="10.00" fill="#000000">+ Text()</text>
<text text-anchor="start" x="8" y="-310.5" font-family="Helvetica,sans-Serif" font-size="10.00" fill="#000000">+ ~Text()</text>
<text text-anchor="start" x="8" y="-299.5" font-family="Helvetica,sans-Serif" font-size="10.00" fill="#000000">+ draw()</text>
<text text-anchor="start" x="8" y="-288.5" font-family="Helvetica,sans-Serif" font-size="10.00" fill="#000000">+ setText()</text>
<text text-anchor="start" x="8" y="-277.5" font-family="Helvetica,sans-Serif" font-size="10.00" fill="#000000">+ setFontSize()</text>
<text text-anchor="start" x="8" y="-266.5" font-family="Helvetica,sans-Serif" font-size="10.00" fill="#000000">+ getFontSize()</text>
<text text-anchor="start" x="8" y="-255.5" font-family="Helvetica,sans-Serif" font-size="10.00" fill="#000000">&#45; createTextTexture()</text>
</a>
</g>
</g>
<!-- Node4&#45;&gt;Node3 -->
<g id="edge1" class="edge">
<title>Node4&#45;&gt;Node3</title>
<path fill="none" stroke="#191970" d="M85.4151,-239.059C96.512,-213.1706 110.6615,-184.3038 127,-160 141.5652,-138.334 160.7692,-116.9477 178.315,-99.2902"/>
<polygon fill="none" stroke="#191970" points="82.1169,-237.8733 81.4665,-248.4482 88.5695,-240.587 82.1169,-237.8733"/>
</g>
<!-- Node5 -->
<g id="node3" class="node">
<title>Node5</title>
<g id="a_node3"><a xlink:href="classUIElement.html" target="_top" xlink:title="Base class for UI Elements Provides functions and variables for derived user interface elements...">
<polygon fill="none" stroke="#000000" points="25.5,-584.5 25.5,-916.5 180.5,-916.5 180.5,-584.5 25.5,-584.5"/>
<text text-anchor="middle" x="103" y="-904.5" font-family="Helvetica,sans-Serif" font-size="10.00" fill="#000000">UIElement</text>
<polyline fill="none" stroke="#000000" points="25.5,-897.5 180.5,-897.5 "/>
<text text-anchor="start" x="33.5" y="-885.5" font-family="Helvetica,sans-Serif" font-size="10.00" fill="#000000"># m_texture</text>
<text text-anchor="start" x="33.5" y="-874.5" font-family="Helvetica,sans-Serif" font-size="10.00" fill="#000000"># m_uiElementRect</text>
<text text-anchor="start" x="33.5" y="-863.5" font-family="Helvetica,sans-Serif" font-size="10.00" fill="#000000"># m_uiElementClipRect</text>
<text text-anchor="start" x="33.5" y="-852.5" font-family="Helvetica,sans-Serif" font-size="10.00" fill="#000000"># m_uiTextureRect</text>
<text text-anchor="start" x="33.5" y="-841.5" font-family="Helvetica,sans-Serif" font-size="10.00" fill="#000000">&#45; m_renderer</text>
<text text-anchor="start" x="33.5" y="-830.5" font-family="Helvetica,sans-Serif" font-size="10.00" fill="#000000">&#45; m_window</text>
<text text-anchor="start" x="33.5" y="-819.5" font-family="Helvetica,sans-Serif" font-size="10.00" fill="#000000">&#45; m_buttonState</text>
<text text-anchor="start" x="33.5" y="-808.5" font-family="Helvetica,sans-Serif" font-size="10.00" fill="#000000">&#45; m_visible</text>
<text text-anchor="start" x="33.5" y="-797.5" font-family="Helvetica,sans-Serif" font-size="10.00" fill="#000000">&#45; m_directTexture</text>
<polyline fill="none" stroke="#000000" points="25.5,-790.5 180.5,-790.5 "/>
<text text-anchor="start" x="33.5" y="-778.5" font-family="Helvetica,sans-Serif" font-size="10.00" fill="#000000">+ UIElement()</text>
<text text-anchor="start" x="33.5" y="-767.5" font-family="Helvetica,sans-Serif" font-size="10.00" fill="#000000">+ UIElement()</text>
<text text-anchor="start" x="33.5" y="-756.5" font-family="Helvetica,sans-Serif" font-size="10.00" fill="#000000">+ ~UIElement()</text>
<text text-anchor="start" x="33.5" y="-745.5" font-family="Helvetica,sans-Serif" font-size="10.00" fill="#000000">+ registerCallbackFunction()</text>
<text text-anchor="start" x="33.5" y="-734.5" font-family="Helvetica,sans-Serif" font-size="10.00" fill="#000000">+ registerCallbackFunction()</text>
<text text-anchor="start" x="33.5" y="-723.5" font-family="Helvetica,sans-Serif" font-size="10.00" fill="#000000">+ registerCallbackFunction()</text>
<text text-anchor="start" x="33.5" y="-712.5" font-family="Helvetica,sans-Serif" font-size="10.00" fill="#000000">+ onMouseButtonUp()</text>
<text text-anchor="start" x="33.5" y="-701.5" font-family="Helvetica,sans-Serif" font-size="10.00" fill="#000000">+ onMouseButtonDown()</text>
<text text-anchor="start" x="33.5" y="-690.5" font-family="Helvetica,sans-Serif" font-size="10.00" fill="#000000">+ onMouseEnter()</text>
<text text-anchor="start" x="33.5" y="-679.5" font-family="Helvetica,sans-Serif" font-size="10.00" fill="#000000">+ onMouseLeave()</text>
<text text-anchor="start" x="33.5" y="-668.5" font-family="Helvetica,sans-Serif" font-size="10.00" fill="#000000">and 24 more...</text>
<text text-anchor="start" x="33.5" y="-657.5" font-family="Helvetica,sans-Serif" font-size="10.00" fill="#000000"># renderTexture()</text>
<text text-anchor="start" x="33.5" y="-646.5" font-family="Helvetica,sans-Serif" font-size="10.00" fill="#000000"># drawSolidRect()</text>
<text text-anchor="start" x="33.5" y="-635.5" font-family="Helvetica,sans-Serif" font-size="10.00" fill="#000000"># drawLine()</text>
<text text-anchor="start" x="33.5" y="-624.5" font-family="Helvetica,sans-Serif" font-size="10.00" fill="#000000"># drawTextFrame()</text>
<text text-anchor="start" x="33.5" y="-613.5" font-family="Helvetica,sans-Serif" font-size="10.00" fill="#000000"># drawButtonFrame()</text>
<text text-anchor="start" x="33.5" y="-602.5" font-family="Helvetica,sans-Serif" font-size="10.00" fill="#000000"># drawFrame()</text>
<text text-anchor="start" x="33.5" y="-591.5" font-family="Helvetica,sans-Serif" font-size="10.00" fill="#000000"># changeTexture()</text>
</a>
</g>
</g>
<!-- Node5&#45;&gt;Node4 -->
<g id="edge2" class="edge">
<title>Node5&#45;&gt;Node4</title>
<path fill="none" stroke="#191970" d="M81.8436,-574.1308C81.5573,-571.4017 81.2759,-568.69 81,-566 74.196,-499.6587 67.836,-423.4963 63.7219,-371.6084"/>
<polygon fill="none" stroke="#191970" points="78.3636,-574.5057 82.9002,-584.0801 85.3245,-573.7663 78.3636,-574.5057"/>
</g>
<!-- Node6 -->
<g id="node4" class="node">
<title>Node6</title>
<g id="a_node4"><a xlink:href="structUIElement_1_1ElementData.html" target="_top" xlink:title="{UIElement::ElementData\n|+ isToggleButton\l|}">
<polygon fill="none" stroke="#000000" points="136.5,-281.5 136.5,-338.5 273.5,-338.5 273.5,-281.5 136.5,-281.5"/>
<text text-anchor="middle" x="205" y="-326.5" font-family="Helvetica,sans-Serif" font-size="10.00" fill="#000000">UIElement::ElementData</text>
<polyline fill="none" stroke="#000000" points="136.5,-319.5 273.5,-319.5 "/>
<text text-anchor="start" x="144.5" y="-307.5" font-family="Helvetica,sans-Serif" font-size="10.00" fill="#000000">+ isToggleButton</text>
<polyline fill="none" stroke="#000000" points="136.5,-300.5 273.5,-300.5 "/>
<text text-anchor="middle" x="205" y="-288.5" font-family="Helvetica,sans-Serif" font-size="10.00" fill="#000000"> </text>
</a>
</g>
</g>
<!-- Node5&#45;&gt;Node6 -->
<g id="edge5" class="edge">
<title>Node5&#45;&gt;Node6</title>
<path fill="none" stroke="#404040" d="M88.3018,-584.4319C87.1376,-539.3304 89.5354,-497.5533 100,-478 106.8052,-465.2843 117.3698,-470.7359 127,-460 156.1509,-427.5019 177.758,-382.1331 190.7471,-349.8191"/>
<polygon fill="none" stroke="#404040" points="190.7808,-349.7326 189.2341,-342.6893 195.1407,-338.5526 196.6874,-345.5959 190.7808,-349.7326"/>
<text text-anchor="middle" x="121.5" y="-519.5" font-family="Helvetica,sans-Serif" font-size="10.00" fill="#000000"> +parent</text>
</g>
<!-- Node6&#45;&gt;Node5 -->
<g id="edge3" class="edge">
<title>Node6&#45;&gt;Node5</title>
<path fill="none" stroke="#404040" d="M198.2411,-338.506C190.3556,-371.9015 176.996,-428.9135 166,-478 157.2535,-517.0447 155.8637,-526.9818 147,-566 146.5361,-568.0421 146.0681,-570.0966 145.5965,-572.1616"/>
<polygon fill="none" stroke="#404040" points="145.5432,-572.3943 148.0999,-579.137 142.8593,-584.0904 140.3026,-577.3477 145.5432,-572.3943"/>
<text text-anchor="middle" x="204" y="-519.5" font-family="Helvetica,sans-Serif" font-size="10.00" fill="#000000"> #elementData</text>
</g>
<!-- Node7 -->
<g id="node5" class="node">
<title>Node7</title>
<polygon fill="none" stroke="#bfbfbf" points="246,-722 246,-779 290,-779 290,-722 246,-722"/>
<text text-anchor="middle" x="268" y="-767" font-family="Helvetica,sans-Serif" font-size="10.00" fill="#000000">string</text>
<polyline fill="none" stroke="#bfbfbf" points="246,-760 290,-760 "/>
<text text-anchor="middle" x="268" y="-748" font-family="Helvetica,sans-Serif" font-size="10.00" fill="#000000"> </text>
<polyline fill="none" stroke="#bfbfbf" points="246,-741 290,-741 "/>
<text text-anchor="middle" x="268" y="-729" font-family="Helvetica,sans-Serif" font-size="10.00" fill="#000000"> </text>
</g>
<!-- Node7&#45;&gt;Node6 -->
<g id="edge4" class="edge">
<title>Node7&#45;&gt;Node6</title>
<path fill="none" stroke="#404040" d="M267.1763,-721.6804C265.4153,-671.7595 260.2128,-566.0912 246,-478 238.8661,-433.7841 226.1238,-384.0512 216.7321,-350.246"/>
<polygon fill="none" stroke="#404040" points="216.6918,-350.1029 211.2156,-345.4112 213.4401,-338.5518 218.9163,-343.2434 216.6918,-350.1029"/>
<text text-anchor="middle" x="306" y="-558" font-family="Helvetica,sans-Serif" font-size="10.00" fill="#000000"> +actionParameter</text>
<text text-anchor="middle" x="306" y="-547" font-family="Helvetica,sans-Serif" font-size="10.00" fill="#000000">+buildMenuID</text>
<text text-anchor="middle" x="306" y="-536" font-family="Helvetica,sans-Serif" font-size="10.00" fill="#000000">+actionID</text>
<text text-anchor="middle" x="306" y="-525" font-family="Helvetica,sans-Serif" font-size="10.00" fill="#000000">+text</text>
<text text-anchor="middle" x="306" y="-514" font-family="Helvetica,sans-Serif" font-size="10.00" fill="#000000">+elementID</text>
<text text-anchor="middle" x="306" y="-503" font-family="Helvetica,sans-Serif" font-size="10.00" fill="#000000">+layoutGroupName</text>
<text text-anchor="middle" x="306" y="-492" font-family="Helvetica,sans-Serif" font-size="10.00" fill="#000000">+tooltipText</text>
<text text-anchor="middle" x="306" y="-481" font-family="Helvetica,sans-Serif" font-size="10.00" fill="#000000">+textureID</text>
</g>
<!-- Node8 -->
<g id="node6" class="node">
<title>Node8</title>
<g id="a_node6"><a xlink:href="classTimer.html" target="_top" xlink:title="{Timer\n|&#45; m_loopTimer\l&#45; m_timeOut\l&#45; m_isActive\l&#45; m_timeUntilTimeOut\l&#45; m_timeSinceLastTimeOut\l&#45; m_elapsedTime\l&#45; m_startTime\l&#45; m_endTime\l&#45; m_lastTimeOutTime\l|+ Timer()\l+ ~Timer()\l+ getElapsedTime()\l+ getElapsedTimeSinceLastTimeOut()\l+ start()\l+ stop()\l+ pause()\l+ resume()\l+ isActive()\l+ isTimedOut()\l+ setTimer()\l+ registerCallbackFunction()\l+ loopTimer()\l+ checkTimeout()\l&#45; timeOut()\l}">
<polygon fill="none" stroke="#000000" points="291.5,-160.5 291.5,-459.5 494.5,-459.5 494.5,-160.5 291.5,-160.5"/>
<text text-anchor="middle" x="393" y="-447.5" font-family="Helvetica,sans-Serif" font-size="10.00" fill="#000000">Timer</text>
<polyline fill="none" stroke="#000000" points="291.5,-440.5 494.5,-440.5 "/>
<text text-anchor="start" x="299.5" y="-428.5" font-family="Helvetica,sans-Serif" font-size="10.00" fill="#000000">&#45; m_loopTimer</text>
<text text-anchor="start" x="299.5" y="-417.5" font-family="Helvetica,sans-Serif" font-size="10.00" fill="#000000">&#45; m_timeOut</text>
<text text-anchor="start" x="299.5" y="-406.5" font-family="Helvetica,sans-Serif" font-size="10.00" fill="#000000">&#45; m_isActive</text>
<text text-anchor="start" x="299.5" y="-395.5" font-family="Helvetica,sans-Serif" font-size="10.00" fill="#000000">&#45; m_timeUntilTimeOut</text>
<text text-anchor="start" x="299.5" y="-384.5" font-family="Helvetica,sans-Serif" font-size="10.00" fill="#000000">&#45; m_timeSinceLastTimeOut</text>
<text text-anchor="start" x="299.5" y="-373.5" font-family="Helvetica,sans-Serif" font-size="10.00" fill="#000000">&#45; m_elapsedTime</text>
<text text-anchor="start" x="299.5" y="-362.5" font-family="Helvetica,sans-Serif" font-size="10.00" fill="#000000">&#45; m_startTime</text>
<text text-anchor="start" x="299.5" y="-351.5" font-family="Helvetica,sans-Serif" font-size="10.00" fill="#000000">&#45; m_endTime</text>
<text text-anchor="start" x="299.5" y="-340.5" font-family="Helvetica,sans-Serif" font-size="10.00" fill="#000000">&#45; m_lastTimeOutTime</text>
<polyline fill="none" stroke="#000000" points="291.5,-333.5 494.5,-333.5 "/>
<text text-anchor="start" x="299.5" y="-321.5" font-family="Helvetica,sans-Serif" font-size="10.00" fill="#000000">+ Timer()</text>
<text text-anchor="start" x="299.5" y="-310.5" font-family="Helvetica,sans-Serif" font-size="10.00" fill="#000000">+ ~Timer()</text>
<text text-anchor="start" x="299.5" y="-299.5" font-family="Helvetica,sans-Serif" font-size="10.00" fill="#000000">+ getElapsedTime()</text>
<text text-anchor="start" x="299.5" y="-288.5" font-family="Helvetica,sans-Serif" font-size="10.00" fill="#000000">+ getElapsedTimeSinceLastTimeOut()</text>
<text text-anchor="start" x="299.5" y="-277.5" font-family="Helvetica,sans-Serif" font-size="10.00" fill="#000000">+ start()</text>
<text text-anchor="start" x="299.5" y="-266.5" font-family="Helvetica,sans-Serif" font-size="10.00" fill="#000000">+ stop()</text>
<text text-anchor="start" x="299.5" y="-255.5" font-family="Helvetica,sans-Serif" font-size="10.00" fill="#000000">+ pause()</text>
<text text-anchor="start" x="299.5" y="-244.5" font-family="Helvetica,sans-Serif" font-size="10.00" fill="#000000">+ resume()</text>
<text text-anchor="start" x="299.5" y="-233.5" font-family="Helvetica,sans-Serif" font-size="10.00" fill="#000000">+ isActive()</text>
<text text-anchor="start" x="299.5" y="-222.5" font-family="Helvetica,sans-Serif" font-size="10.00" fill="#000000">+ isTimedOut()</text>
<text text-anchor="start" x="299.5" y="-211.5" font-family="Helvetica,sans-Serif" font-size="10.00" fill="#000000">+ setTimer()</text>
<text text-anchor="start" x="299.5" y="-200.5" font-family="Helvetica,sans-Serif" font-size="10.00" fill="#000000">+ registerCallbackFunction()</text>
<text text-anchor="start" x="299.5" y="-189.5" font-family="Helvetica,sans-Serif" font-size="10.00" fill="#000000">+ loopTimer()</text>
<text text-anchor="start" x="299.5" y="-178.5" font-family="Helvetica,sans-Serif" font-size="10.00" fill="#000000">+ checkTimeout()</text>
<text text-anchor="start" x="299.5" y="-167.5" font-family="Helvetica,sans-Serif" font-size="10.00" fill="#000000">&#45; timeOut()</text>
</a>
</g>
</g>
<!-- Node8&#45;&gt;Node3 -->
<g id="edge6" class="edge">
<title>Node8&#45;&gt;Node3</title>
<path fill="none" stroke="#404040" d="M293.8168,-160.3396C285.1903,-147.3229 276.7849,-134.6397 268.9808,-122.8639"/>
<polygon fill="none" stroke="#404040" points="268.9162,-122.7663 262.2674,-119.9747 262.2871,-112.7636 268.9359,-115.5552 268.9162,-122.7663"/>
<text text-anchor="middle" x="321" y="-134" font-family="Helvetica,sans-Serif" font-size="10.00" fill="#000000"> &#45;m_tooltipTimer</text>
</g>
<!-- Node9 -->
<g id="node7" class="node">
<title>Node9</title>
<g id="a_node7"><a xlink:href="structSignal_1_1Signal.html" target="_top" xlink:title="{Signal::Signal\&lt; void()\&gt;\n||+ Signal()\l}">
<polygon fill="none" stroke="#000000" points="327.5,-722 327.5,-779 458.5,-779 458.5,-722 327.5,-722"/>
<text text-anchor="middle" x="393" y="-767" font-family="Helvetica,sans-Serif" font-size="10.00" fill="#000000">Signal::Signal&lt; void()&gt;</text>
<polyline fill="none" stroke="#000000" points="327.5,-760 458.5,-760 "/>
<text text-anchor="middle" x="393" y="-748" font-family="Helvetica,sans-Serif" font-size="10.00" fill="#000000"> </text>
<polyline fill="none" stroke="#000000" points="327.5,-741 458.5,-741 "/>
<text text-anchor="start" x="335.5" y="-729" font-family="Helvetica,sans-Serif" font-size="10.00" fill="#000000">+ Signal()</text>
</a>
</g>
</g>
<!-- Node9&#45;&gt;Node8 -->
<g id="edge7" class="edge">
<title>Node9&#45;&gt;Node8</title>
<path fill="none" stroke="#404040" d="M393,-721.937C393,-671.7556 393,-564.3004 393,-471.7211"/>
<polygon fill="none" stroke="#404040" points="393.0001,-471.6389 389,-465.6389 393,-459.6389 397,-465.6388 393.0001,-471.6389"/>
<text text-anchor="middle" x="439" y="-519.5" font-family="Helvetica,sans-Serif" font-size="10.00" fill="#000000"> &#45;m_timeOutSignal</text>
</g>
<!-- Node10 -->
<g id="node8" class="node">
<title>Node10</title>
<g id="a_node8"><a xlink:href="classSignal_1_1Lib_1_1ProtoSignal.html" target="_top" xlink:title="{Signal::Lib::ProtoSignal\l\&lt; void(), Lib::CollectorDefault\l\&lt; typename std::function\&lt; void\l() \&gt;::result_type \&gt; \&gt;\n||}">
<polygon fill="none" stroke="#000000" points="259.5,-1051.5 259.5,-1141.5 432.5,-1141.5 432.5,-1051.5 259.5,-1051.5"/>
<text text-anchor="start" x="267.5" y="-1129.5" font-family="Helvetica,sans-Serif" font-size="10.00" fill="#000000">Signal::Lib::ProtoSignal</text>
<text text-anchor="start" x="267.5" y="-1118.5" font-family="Helvetica,sans-Serif" font-size="10.00" fill="#000000">&lt; void(), Lib::CollectorDefault</text>
<text text-anchor="start" x="267.5" y="-1107.5" font-family="Helvetica,sans-Serif" font-size="10.00" fill="#000000">&lt; typename std::function&lt; void</text>
<text text-anchor="middle" x="346" y="-1096.5" font-family="Helvetica,sans-Serif" font-size="10.00" fill="#000000">() &gt;::result_type &gt; &gt;</text>
<polyline fill="none" stroke="#000000" points="259.5,-1089.5 432.5,-1089.5 "/>
<text text-anchor="middle" x="346" y="-1077.5" font-family="Helvetica,sans-Serif" font-size="10.00" fill="#000000"> </text>
<polyline fill="none" stroke="#000000" points="259.5,-1070.5 432.5,-1070.5 "/>
<text text-anchor="middle" x="346" y="-1058.5" font-family="Helvetica,sans-Serif" font-size="10.00" fill="#000000"> </text>
</a>
</g>
</g>
<!-- Node10&#45;&gt;Node9 -->
<g id="edge8" class="edge">
<title>Node10&#45;&gt;Node9</title>
<path fill="none" stroke="#191970" d="M353.5226,-1041.121C363.6565,-966.5182 381.3198,-836.4862 389.1144,-779.1044"/>
<polygon fill="none" stroke="#191970" points="350.0224,-1040.8864 352.1444,-1051.2665 356.9587,-1041.8287 350.0224,-1040.8864"/>
</g>
<!-- Node11 -->
<g id="node9" class="node">
<title>Node11</title>
<g id="a_node9"><a xlink:href="classSignal_1_1Lib_1_1ProtoSignal.html" target="_top" xlink:title="ProtoSignal is the template implementation for callback list. ">
<polygon fill="none" stroke="#000000" points="332,-1309.5 332,-1377.5 476,-1377.5 476,-1309.5 332,-1309.5"/>
<text text-anchor="start" x="340" y="-1365.5" font-family="Helvetica,sans-Serif" font-size="10.00" fill="#000000">Signal::Lib::ProtoSignal</text>
<text text-anchor="middle" x="404" y="-1354.5" font-family="Helvetica,sans-Serif" font-size="10.00" fill="#000000">&lt; typename, typename &gt;</text>
<polyline fill="none" stroke="#000000" points="332,-1347.5 476,-1347.5 "/>
<text text-anchor="middle" x="404" y="-1335.5" font-family="Helvetica,sans-Serif" font-size="10.00" fill="#000000"> </text>
<polyline fill="none" stroke="#000000" points="332,-1328.5 476,-1328.5 "/>
<text text-anchor="middle" x="404" y="-1316.5" font-family="Helvetica,sans-Serif" font-size="10.00" fill="#000000"> </text>
</a>
</g>
</g>
<!-- Node11&#45;&gt;Node10 -->
<g id="edge9" class="edge">
<title>Node11&#45;&gt;Node10</title>
<path fill="none" stroke="#ffa500" d="M331.4165,-1301.8872C328.595,-1298.4911 326.0864,-1294.8647 324,-1291 298.9777,-1244.6498 312.3208,-1183.1245 326.7443,-1141.7919"/>
<polygon fill="#ffa500" stroke="#ffa500" points="329.103,-1304.5348 338.5161,-1309.3973 334.1898,-1299.726 329.103,-1304.5348"/>
<text text-anchor="start" x="324" y="-1283" font-family="Helvetica,sans-Serif" font-size="10.00" fill="#000000"> &lt; void(), Lib::Collector</text>
<text text-anchor="start" x="324" y="-1272" font-family="Helvetica,sans-Serif" font-size="10.00" fill="#000000">Default&lt; typename std</text>
<text text-anchor="start" x="324" y="-1261" font-family="Helvetica,sans-Serif" font-size="10.00" fill="#000000">::function&lt; void() &gt;::result</text>
<text text-anchor="middle" x="389.5" y="-1250" font-family="Helvetica,sans-Serif" font-size="10.00" fill="#000000">_type &gt; &gt;</text>
</g>
<!-- Node13 -->
<g id="node11" class="node">
<title>Node13</title>
<g id="a_node11"><a xlink:href="classSignal_1_1Lib_1_1ProtoSignal.html" target="_top" xlink:title="{Signal::Lib::ProtoSignal\l\&lt; SignalSignature, Collector \&gt;\n||}">
<polygon fill="none" stroke="#000000" points="396.5,-1160.5 396.5,-1228.5 561.5,-1228.5 561.5,-1160.5 396.5,-1160.5"/>
<text text-anchor="start" x="404.5" y="-1216.5" font-family="Helvetica,sans-Serif" font-size="10.00" fill="#000000">Signal::Lib::ProtoSignal</text>
<text text-anchor="middle" x="479" y="-1205.5" font-family="Helvetica,sans-Serif" font-size="10.00" fill="#000000">&lt; SignalSignature, Collector &gt;</text>
<polyline fill="none" stroke="#000000" points="396.5,-1198.5 561.5,-1198.5 "/>
<text text-anchor="middle" x="479" y="-1186.5" font-family="Helvetica,sans-Serif" font-size="10.00" fill="#000000"> </text>
<polyline fill="none" stroke="#000000" points="396.5,-1179.5 561.5,-1179.5 "/>
<text text-anchor="middle" x="479" y="-1167.5" font-family="Helvetica,sans-Serif" font-size="10.00" fill="#000000"> </text>
</a>
</g>
</g>
<!-- Node11&#45;&gt;Node13 -->
<g id="edge12" class="edge">
<title>Node11&#45;&gt;Node13</title>
<path fill="none" stroke="#ffa500" d="M452.2669,-1301.2938C454.7598,-1297.9757 457.0388,-1294.5351 459,-1291 469.5413,-1271.9991 474.5458,-1248.1012 476.9128,-1228.8412"/>
<polygon fill="#ffa500" stroke="#ffa500" points="449.3491,-1299.331 445.6895,-1309.2737 454.7507,-1303.7833 449.3491,-1299.331"/>
<text text-anchor="start" x="473" y="-1272" font-family="Helvetica,sans-Serif" font-size="10.00" fill="#000000"> &lt; SignalSignature,</text>
<text text-anchor="middle" x="520" y="-1261" font-family="Helvetica,sans-Serif" font-size="10.00" fill="#000000"> Collector &gt;</text>
</g>
<!-- Node12 -->
<g id="node10" class="node">
<title>Node12</title>
<g id="a_node10"><a xlink:href="structSignal_1_1Signal.html" target="_top" xlink:title="Signal is a template type providing an interface for arbitrary callback lists. A signal type needs to...">
<polygon fill="none" stroke="#000000" points="389.5,-964.5 389.5,-1032.5 562.5,-1032.5 562.5,-964.5 389.5,-964.5"/>
<text text-anchor="start" x="397.5" y="-1020.5" font-family="Helvetica,sans-Serif" font-size="10.00" fill="#000000">Signal::Signal&lt; SignalSignature,</text>
<text text-anchor="middle" x="476" y="-1009.5" font-family="Helvetica,sans-Serif" font-size="10.00" fill="#000000"> Collector &gt;</text>
<polyline fill="none" stroke="#000000" points="389.5,-1002.5 562.5,-1002.5 "/>
<text text-anchor="middle" x="476" y="-990.5" font-family="Helvetica,sans-Serif" font-size="10.00" fill="#000000"> </text>
<polyline fill="none" stroke="#000000" points="389.5,-983.5 562.5,-983.5 "/>
<text text-anchor="start" x="397.5" y="-971.5" font-family="Helvetica,sans-Serif" font-size="10.00" fill="#000000">+ Signal()</text>
</a>
</g>
</g>
<!-- Node12&#45;&gt;Node9 -->
<g id="edge10" class="edge">
<title>Node12&#45;&gt;Node9</title>
<path fill="none" stroke="#ffa500" d="M461.3089,-954.6037C444.3948,-904.0651 417.0934,-822.4899 402.6604,-779.3647"/>
<polygon fill="#ffa500" stroke="#ffa500" points="458.0535,-955.9049 464.5463,-964.277 464.6916,-953.6832 458.0535,-955.9049"/>
<text text-anchor="middle" x="484" y="-938" font-family="Helvetica,sans-Serif" font-size="10.00" fill="#000000"> &lt; void()&gt;</text>
</g>
<!-- Node13&#45;&gt;Node12 -->
<g id="edge11" class="edge">
<title>Node13&#45;&gt;Node12</title>
<path fill="none" stroke="#191970" d="M478.3224,-1150.2326C477.7768,-1114.5818 477.0209,-1065.1986 476.5216,-1032.5776"/>
<polygon fill="none" stroke="#191970" points="474.8247,-1150.4142 478.4774,-1160.3594 481.8239,-1150.307 474.8247,-1150.4142"/>
</g>
</g>
</svg>
