<?xml version="1.0" encoding="UTF-8" standalone="no"?>
<!DOCTYPE svg PUBLIC "-//W3C//DTD SVG 1.1//EN"
 "http://www.w3.org/Graphics/SVG/1.1/DTD/svg11.dtd">
<!-- Generated by graphviz version 2.40.1 (20161225.0304)
 -->
<!-- Title: Map::Map Pages: 1 -->
<svg width="1087pt" height="123pt"
 viewBox="0.00 0.00 1087.00 123.00" xmlns="http://www.w3.org/2000/svg" xmlns:xlink="http://www.w3.org/1999/xlink">
<g id="graph0" class="graph" transform="scale(1 1) rotate(0) translate(4 119)">
<title>Map::Map</title>
<!-- Node1 -->
<g id="node1" class="node">
<title>Node1</title>
<polygon fill="#bfbfbf" stroke="#000000" points="0,-57.5 0,-76.5 63,-76.5 63,-57.5 0,-57.5"/>
<text text-anchor="middle" x="31.5" y="-64.5" font-family="Helvetica,sans-Serif" font-size="10.00" fill="#000000">Map::Map</text>
</g>
<!-- Node2 -->
<g id="node2" class="node">
<title>Node2</title>
<g id="a_node2"><a xlink:href="classMap.html#afefe996cc1f62b61ec60d0ae415953bf" target="_top" xlink:title="Map::loadMapFromFile">
<polygon fill="none" stroke="#000000" points="99,-57.5 99,-76.5 224,-76.5 224,-57.5 99,-57.5"/>
<text text-anchor="middle" x="161.5" y="-64.5" font-family="Helvetica,sans-Serif" font-size="10.00" fill="#000000">Map::loadMapFromFile</text>
</a>
</g>
</g>
<!-- Node1&#45;&gt;Node2 -->
<g id="edge1" class="edge">
<title>Node1&#45;&gt;Node2</title>
<path fill="none" stroke="#191970" d="M73.5382,-67C81.5999,-67 90.2024,-67 98.7528,-67"/>
<polygon fill="#191970" stroke="#191970" points="73.3016,-63.5001 63.3016,-67 73.3015,-70.5001 73.3016,-63.5001"/>
</g>
<!-- Node3 -->
<g id="node3" class="node">
<title>Node3</title>
<g id="a_node3"><a xlink:href="classEngine.html#a83b7dbeee899b36a13d5b07c7ad87ebc" target="_top" xlink:title="Loads a saved game Loads a saved Game. ">
<polygon fill="none" stroke="#000000" points="268.5,-38.5 268.5,-57.5 374.5,-57.5 374.5,-38.5 268.5,-38.5"/>
<text text-anchor="middle" x="321.5" y="-45.5" font-family="Helvetica,sans-Serif" font-size="10.00" fill="#000000">Engine::loadGame</text>
</a>
</g>
</g>
<!-- Node2&#45;&gt;Node3 -->
<g id="edge2" class="edge">
<title>Node2&#45;&gt;Node3</title>
<path fill="none" stroke="#191970" d="M234.3143,-58.3533C245.8222,-56.9867 257.53,-55.5964 268.4749,-54.2967"/>
<polygon fill="#191970" stroke="#191970" points="233.7945,-54.8903 224.277,-59.5452 234.62,-61.8415 233.7945,-54.8903"/>
</g>
<!-- Node11 -->
<g id="node11" class="node">
<title>Node11</title>
<g id="a_node11"><a xlink:href="classMap.html#a404c38b33d61f8c63ce2c2efb864d6dd" target="_top" xlink:title="Set the Tile ID Of Node object Also invokes all necessary texture updates (auto&#45;tiling, slopes, ...) ">
<polygon fill="none" stroke="#000000" points="260,-85.5 260,-104.5 383,-104.5 383,-85.5 260,-85.5"/>
<text text-anchor="middle" x="321.5" y="-92.5" font-family="Helvetica,sans-Serif" font-size="10.00" fill="#000000">Map::setTileIDOfNode</text>
</a>
</g>
</g>
<!-- Node2&#45;&gt;Node11 -->
<g id="edge13" class="edge">
<title>Node2&#45;&gt;Node11</title>
<path fill="none" stroke="#191970" d="M226.327,-78.3447C239.8694,-80.7146 254.014,-83.19 267.1307,-85.4854"/>
<polygon fill="#191970" stroke="#191970" points="226.5691,-74.834 216.1154,-76.5577 225.3624,-81.7292 226.5691,-74.834"/>
</g>
<!-- Node4 -->
<g id="node4" class="node">
<title>Node4</title>
<g id="a_node4"><a xlink:href="classEngine.html#a0ba57971ffb5173ecc425461f65a4cd8" target="_top" xlink:title="Quits the game Sets m_running to false and quitting the game. ">
<polygon fill="none" stroke="#000000" points="435,-19.5 435,-38.5 539,-38.5 539,-19.5 435,-19.5"/>
<text text-anchor="middle" x="487" y="-26.5" font-family="Helvetica,sans-Serif" font-size="10.00" fill="#000000">Engine::quitGame</text>
</a>
</g>
</g>
<!-- Node3&#45;&gt;Node4 -->
<g id="edge3" class="edge">
<title>Node3&#45;&gt;Node4</title>
<path fill="none" stroke="#191970" d="M384.9079,-40.7205C401.4475,-38.8217 419.0792,-36.7976 434.9541,-34.9751"/>
<polygon fill="#191970" stroke="#191970" points="384.3118,-37.2659 374.7762,-41.8837 385.1102,-44.2202 384.3118,-37.2659"/>
</g>
<!-- Node9 -->
<g id="node9" class="node">
<title>Node9</title>
<g id="a_node9"><a xlink:href="classUIManager.html#aa78e356fc3b356d790c848319d1c387e" target="_top" xlink:title="UIManager::setCallbackFunctions">
<polygon fill="none" stroke="#000000" points="591,-38.5 591,-57.5 769,-57.5 769,-38.5 591,-38.5"/>
<text text-anchor="middle" x="680" y="-45.5" font-family="Helvetica,sans-Serif" font-size="10.00" fill="#000000">UIManager::setCallbackFunctions</text>
</a>
</g>
</g>
<!-- Node3&#45;&gt;Node9 -->
<g id="edge11" class="edge">
<title>Node3&#45;&gt;Node9</title>
<path fill="none" stroke="#191970" d="M385.1374,-48C442.3542,-48 526.9828,-48 590.9178,-48"/>
<polygon fill="#191970" stroke="#191970" points="384.784,-44.5001 374.784,-48 384.7839,-51.5001 384.784,-44.5001"/>
</g>
<!-- Node10 -->
<g id="node10" class="node">
<title>Node10</title>
<g id="a_node10"><a xlink:href="classGame.html#a5ed7fc5be77080f7f6dd5363f7f007a1" target="_top" xlink:title="initializes and displays the main menu initializes and displays the main menu ">
<polygon fill="none" stroke="#000000" points="628.5,-.5 628.5,-19.5 731.5,-19.5 731.5,-.5 628.5,-.5"/>
<text text-anchor="middle" x="680" y="-7.5" font-family="Helvetica,sans-Serif" font-size="10.00" fill="#000000">Game::mainMenu</text>
</a>
</g>
</g>
<!-- Node3&#45;&gt;Node10 -->
<g id="edge12" class="edge">
<title>Node3&#45;&gt;Node10</title>
<path fill="none" stroke="#191970" d="M349.2181,-34.001C368.2971,-25.1735 394.5212,-14.6017 419,-10 490.6973,3.478 575.4444,.0032 628.4691,-4.4318"/>
<polygon fill="#191970" stroke="#191970" points="347.4646,-30.9593 339.9394,-38.4173 350.473,-37.2799 347.4646,-30.9593"/>
</g>
<!-- Node5 -->
<g id="node5" class="node">
<title>Node5</title>
<g id="a_node5"><a xlink:href="classEventManager.html#a65ec91fd5016d4f9c4167fb8babed2df" target="_top" xlink:title="EventManager::checkEvents">
<polygon fill="none" stroke="#000000" points="603,-76.5 603,-95.5 757,-95.5 757,-76.5 603,-76.5"/>
<text text-anchor="middle" x="680" y="-83.5" font-family="Helvetica,sans-Serif" font-size="10.00" fill="#000000">EventManager::checkEvents</text>
</a>
</g>
</g>
<!-- Node4&#45;&gt;Node5 -->
<g id="edge4" class="edge">
<title>Node4&#45;&gt;Node5</title>
<path fill="none" stroke="#191970" d="M519.6389,-42.2615C539.9376,-50.1733 566.7112,-60.0072 591,-67 603.2981,-70.5406 616.7239,-73.7429 629.3325,-76.4664"/>
<polygon fill="#191970" stroke="#191970" points="520.8203,-38.9651 510.2335,-38.5527 518.2525,-45.4771 520.8203,-38.9651"/>
</g>
<!-- Node4&#45;&gt;Node9 -->
<g id="edge8" class="edge">
<title>Node4&#45;&gt;Node9</title>
<path fill="none" stroke="#191970" d="M549.192,-35.1225C562.5025,-36.4329 576.8143,-37.8418 590.9137,-39.2298"/>
<polygon fill="#191970" stroke="#191970" points="549.5234,-31.6383 539.2286,-34.1417 548.8375,-38.6046 549.5234,-31.6383"/>
</g>
<!-- Node4&#45;&gt;Node10 -->
<g id="edge9" class="edge">
<title>Node4&#45;&gt;Node10</title>
<path fill="none" stroke="#191970" d="M549.1975,-22.8769C574.7715,-20.3593 604.0406,-17.4779 628.3984,-15.0799"/>
<polygon fill="#191970" stroke="#191970" points="548.8375,-19.3954 539.2286,-23.8583 549.5234,-26.3617 548.8375,-19.3954"/>
</g>
<!-- Node6 -->
<g id="node6" class="node">
<title>Node6</title>
<g id="a_node6"><a xlink:href="classGame.html#a1c2ab25d5216b2f4b2fe41efd2c09114" target="_top" xlink:title="begins the game starts running the game ">
<polygon fill="none" stroke="#000000" points="805,-66.5 805,-85.5 873,-85.5 873,-66.5 805,-66.5"/>
<text text-anchor="middle" x="839" y="-73.5" font-family="Helvetica,sans-Serif" font-size="10.00" fill="#000000">Game::run</text>
</a>
</g>
</g>
<!-- Node5&#45;&gt;Node6 -->
<g id="edge5" class="edge">
<title>Node5&#45;&gt;Node6</title>
<path fill="none" stroke="#191970" d="M767.3849,-80.5041C780.6982,-79.6668 793.7136,-78.8482 804.918,-78.1435"/>
<polygon fill="#191970" stroke="#191970" points="766.9318,-77.0256 757.1712,-81.1465 767.3712,-84.0118 766.9318,-77.0256"/>
</g>
<!-- Node7 -->
<g id="node7" class="node">
<title>Node7</title>
<g id="a_node7"><a xlink:href="main_8cxx.html#af582d708d899e67ead623eac34a22387" target="_top" xlink:title="protected_main">
<polygon fill="none" stroke="#000000" points="909,-38.5 909,-57.5 1002,-57.5 1002,-38.5 909,-38.5"/>
<text text-anchor="middle" x="955.5" y="-45.5" font-family="Helvetica,sans-Serif" font-size="10.00" fill="#000000">protected_main</text>
</a>
</g>
</g>
<!-- Node6&#45;&gt;Node7 -->
<g id="edge6" class="edge">
<title>Node6&#45;&gt;Node7</title>
<path fill="none" stroke="#191970" d="M882.7518,-65.4845C893.6321,-62.8695 905.233,-60.0813 915.9009,-57.5174"/>
<polygon fill="#191970" stroke="#191970" points="881.915,-62.0859 873.0098,-67.826 883.5509,-68.8921 881.915,-62.0859"/>
</g>
<!-- Node8 -->
<g id="node8" class="node">
<title>Node8</title>
<g id="a_node8"><a xlink:href="main_8cxx.html#a3c04138a5bfe5d72780bb7e82a18e627" target="_top" xlink:title="main">
<polygon fill="none" stroke="#000000" points="1038,-38.5 1038,-57.5 1079,-57.5 1079,-38.5 1038,-38.5"/>
<text text-anchor="middle" x="1058.5" y="-45.5" font-family="Helvetica,sans-Serif" font-size="10.00" fill="#000000">main</text>
</a>
</g>
</g>
<!-- Node7&#45;&gt;Node8 -->
<g id="edge7" class="edge">
<title>Node7&#45;&gt;Node8</title>
<path fill="none" stroke="#191970" d="M1012.2133,-48C1021.4322,-48 1030.4259,-48 1037.9965,-48"/>
<polygon fill="#191970" stroke="#191970" points="1012.1782,-44.5001 1002.1782,-48 1012.1781,-51.5001 1012.1782,-44.5001"/>
</g>
<!-- Node10&#45;&gt;Node7 -->
<g id="edge10" class="edge">
<title>Node10&#45;&gt;Node7</title>
<path fill="none" stroke="#191970" d="M741.9861,-18.5498C792.6117,-25.5326 863.055,-35.249 908.9575,-41.5804"/>
<polygon fill="#191970" stroke="#191970" points="742.2039,-15.0468 731.8194,-17.1475 741.2474,-21.9811 742.2039,-15.0468"/>
</g>
<!-- Node12 -->
<g id="node12" class="node">
<title>Node12</title>
<g id="a_node12"><a xlink:href="classEngine.html#a7a1521fd7fc731f961ebaf3f723127d9" target="_top" xlink:title="Engine::setTileIDOfNode">
<polygon fill="none" stroke="#000000" points="419,-95.5 419,-114.5 555,-114.5 555,-95.5 419,-95.5"/>
<text text-anchor="middle" x="487" y="-102.5" font-family="Helvetica,sans-Serif" font-size="10.00" fill="#000000">Engine::setTileIDOfNode</text>
</a>
</g>
</g>
<!-- Node11&#45;&gt;Node12 -->
<g id="edge14" class="edge">
<title>Node11&#45;&gt;Node12</title>
<path fill="none" stroke="#191970" d="M393.3736,-99.3428C401.858,-99.8555 410.4976,-100.3775 418.9273,-100.8868"/>
<polygon fill="#191970" stroke="#191970" points="393.319,-95.8332 383.1261,-98.7236 392.8968,-102.8205 393.319,-95.8332"/>
</g>
<!-- Node12&#45;&gt;Node5 -->
<g id="edge15" class="edge">
<title>Node12&#45;&gt;Node5</title>
<path fill="none" stroke="#191970" d="M565.292,-97.2925C577.6288,-96.078 590.3776,-94.8229 602.6918,-93.6106"/>
<polygon fill="#191970" stroke="#191970" points="564.6535,-93.8383 555.0446,-98.3013 565.3394,-100.8047 564.6535,-93.8383"/>
</g>
</g>
</svg>
