<?xml version="1.0" encoding="UTF-8" standalone="no"?>
<!DOCTYPE svg PUBLIC "-//W3C//DTD SVG 1.1//EN"
 "http://www.w3.org/Graphics/SVG/1.1/DTD/svg11.dtd">
<!-- Generated by graphviz version 2.40.1 (20161225.0304)
 -->
<!-- Title: Camera::decreaseZoomLevel Pages: 1 -->
<svg width="849pt" height="47pt"
 viewBox="0.00 0.00 849.00 47.00" xmlns="http://www.w3.org/2000/svg" xmlns:xlink="http://www.w3.org/1999/xlink">
<g id="graph0" class="graph" transform="scale(1 1) rotate(0) translate(4 43)">
<title>Camera::decreaseZoomLevel</title>
<!-- Node34 -->
<g id="node1" class="node">
<title>Node34</title>
<polygon fill="#bfbfbf" stroke="#000000" points="0,-.5 0,-19.5 160,-19.5 160,-.5 0,-.5"/>
<text text-anchor="middle" x="80" y="-7.5" font-family="Helvetica,sans-Serif" font-size="10.00" fill="#000000">Camera::decreaseZoomLevel</text>
</g>
<!-- Node35 -->
<g id="node2" class="node">
<title>Node35</title>
<g id="a_node2"><a xlink:href="classCamera.html#a1f8ecd427814c5a4970223c2d13b9310" target="_top" xlink:title="Camera::setPinchDistance">
<polygon fill="none" stroke="#000000" points="196,-19.5 196,-38.5 341,-38.5 341,-19.5 196,-19.5"/>
<text text-anchor="middle" x="268.5" y="-26.5" font-family="Helvetica,sans-Serif" font-size="10.00" fill="#000000">Camera::setPinchDistance</text>
</a>
</g>
</g>
<!-- Node34&#45;&gt;Node35 -->
<g id="edge1" class="edge">
<title>Node34&#45;&gt;Node35</title>
<path fill="none" stroke="#191970" d="M170.2454,-19.0964C178.8223,-19.9609 187.4436,-20.8299 195.8243,-21.6746"/>
<polygon fill="#191970" stroke="#191970" points="170.5149,-15.6059 160.2143,-18.0853 169.8128,-22.5706 170.5149,-15.6059"/>
</g>
<!-- Node36 -->
<g id="node3" class="node">
<title>Node36</title>
<g id="a_node3"><a xlink:href="classEventManager.html#a65ec91fd5016d4f9c4167fb8babed2df" target="_top" xlink:title="EventManager::checkEvents">
<polygon fill="none" stroke="#000000" points="377,-.5 377,-19.5 531,-19.5 531,-.5 377,-.5"/>
<text text-anchor="middle" x="454" y="-7.5" font-family="Helvetica,sans-Serif" font-size="10.00" fill="#000000">EventManager::checkEvents</text>
</a>
</g>
</g>
<!-- Node34&#45;&gt;Node36 -->
<g id="edge6" class="edge">
<title>Node34&#45;&gt;Node36</title>
<path fill="none" stroke="#191970" d="M170.5706,-10C233.6383,-10 316.8519,-10 376.779,-10"/>
<polygon fill="#191970" stroke="#191970" points="170.2324,-6.5001 160.2324,-10 170.2323,-13.5001 170.2324,-6.5001"/>
</g>
<!-- Node35&#45;&gt;Node36 -->
<g id="edge2" class="edge">
<title>Node35&#45;&gt;Node36</title>
<path fill="none" stroke="#191970" d="M351.0525,-20.5445C359.6638,-19.6625 368.3938,-18.7683 376.9407,-17.8929"/>
<polygon fill="#191970" stroke="#191970" points="350.6074,-17.0717 341.0161,-21.5725 351.3207,-24.0352 350.6074,-17.0717"/>
</g>
<!-- Node37 -->
<g id="node4" class="node">
<title>Node37</title>
<g id="a_node4"><a xlink:href="classGame.html#a1c2ab25d5216b2f4b2fe41efd2c09114" target="_top" xlink:title="begins the game starts running the game ">
<polygon fill="none" stroke="#000000" points="567,-.5 567,-19.5 635,-19.5 635,-.5 567,-.5"/>
<text text-anchor="middle" x="601" y="-7.5" font-family="Helvetica,sans-Serif" font-size="10.00" fill="#000000">Game::run</text>
</a>
</g>
</g>
<!-- Node36&#45;&gt;Node37 -->
<g id="edge3" class="edge">
<title>Node36&#45;&gt;Node37</title>
<path fill="none" stroke="#191970" d="M541.5248,-10C550.4338,-10 559.0572,-10 566.845,-10"/>
<polygon fill="#191970" stroke="#191970" points="541.3744,-6.5001 531.3744,-10 541.3743,-13.5001 541.3744,-6.5001"/>
</g>
<!-- Node38 -->
<g id="node5" class="node">
<title>Node38</title>
<g id="a_node5"><a xlink:href="main_8cxx.html#af582d708d899e67ead623eac34a22387" target="_top" xlink:title="protected_main">
<polygon fill="none" stroke="#000000" points="671,-.5 671,-19.5 764,-19.5 764,-.5 671,-.5"/>
<text text-anchor="middle" x="717.5" y="-7.5" font-family="Helvetica,sans-Serif" font-size="10.00" fill="#000000">protected_main</text>
</a>
</g>
</g>
<!-- Node37&#45;&gt;Node38 -->
<g id="edge4" class="edge">
<title>Node37&#45;&gt;Node38</title>
<path fill="none" stroke="#191970" d="M645.2653,-10C653.5757,-10 662.2897,-10 670.6749,-10"/>
<polygon fill="#191970" stroke="#191970" points="645.0098,-6.5001 635.0098,-10 645.0098,-13.5001 645.0098,-6.5001"/>
</g>
<!-- Node39 -->
<g id="node6" class="node">
<title>Node39</title>
<g id="a_node6"><a xlink:href="main_8cxx.html#a3c04138a5bfe5d72780bb7e82a18e627" target="_top" xlink:title="main">
<polygon fill="none" stroke="#000000" points="800,-.5 800,-19.5 841,-19.5 841,-.5 800,-.5"/>
<text text-anchor="middle" x="820.5" y="-7.5" font-family="Helvetica,sans-Serif" font-size="10.00" fill="#000000">main</text>
</a>
</g>
</g>
<!-- Node38&#45;&gt;Node39 -->
<g id="edge5" class="edge">
<title>Node38&#45;&gt;Node39</title>
<path fill="none" stroke="#191970" d="M774.2133,-10C783.4322,-10 792.4259,-10 799.9965,-10"/>
<polygon fill="#191970" stroke="#191970" points="774.1782,-6.5001 764.1782,-10 774.1781,-13.5001 774.1782,-6.5001"/>
</g>
</g>
</svg>
