<?xml version="1.0" encoding="UTF-8" standalone="no"?>
<!DOCTYPE svg PUBLIC "-//W3C//DTD SVG 1.1//EN"
 "http://www.w3.org/Graphics/SVG/1.1/DTD/svg11.dtd">
<!-- Generated by graphviz version 2.40.1 (20161225.0304)
 -->
<!-- Title: WindowManager::toggleFullScreen Pages: 1 -->
<svg width="831pt" height="39pt"
 viewBox="0.00 0.00 831.00 39.00" xmlns="http://www.w3.org/2000/svg" xmlns:xlink="http://www.w3.org/1999/xlink">
<g id="graph0" class="graph" transform="scale(1 1) rotate(0) translate(4 35)">
<title>WindowManager::toggleFullScreen</title>
<!-- Node39 -->
<g id="node1" class="node">
<title>Node39</title>
<polygon fill="#bfbfbf" stroke="#000000" points="0,-.5 0,-30.5 151,-30.5 151,-.5 0,-.5"/>
<text text-anchor="start" x="8" y="-18.5" font-family="Helvetica,sans-Serif" font-size="10.00" fill="#000000">WindowManager::toggleFull</text>
<text text-anchor="middle" x="75.5" y="-7.5" font-family="Helvetica,sans-Serif" font-size="10.00" fill="#000000">Screen</text>
</g>
<!-- Node40 -->
<g id="node2" class="node">
<title>Node40</title>
<g id="a_node2"><a xlink:href="classEngine.html#aed0b02ad4a43a8fc71b4084a2b45b612" target="_top" xlink:title="Toggle Fullscreen Mode Toggle Fullscreen Mode. ">
<polygon fill="none" stroke="#000000" points="187,-6 187,-25 323,-25 323,-6 187,-6"/>
<text text-anchor="middle" x="255" y="-13" font-family="Helvetica,sans-Serif" font-size="10.00" fill="#000000">Engine::toggleFullScreen</text>
</a>
</g>
</g>
<!-- Node39&#45;&gt;Node40 -->
<g id="edge1" class="edge">
<title>Node39&#45;&gt;Node40</title>
<path fill="none" stroke="#191970" d="M161.1897,-15.5C169.8172,-15.5 178.4948,-15.5 186.9028,-15.5"/>
<polygon fill="#191970" stroke="#191970" points="161.104,-12.0001 151.1039,-15.5 161.1039,-19.0001 161.104,-12.0001"/>
</g>
<!-- Node41 -->
<g id="node3" class="node">
<title>Node41</title>
<g id="a_node3"><a xlink:href="classEventManager.html#a65ec91fd5016d4f9c4167fb8babed2df" target="_top" xlink:title="EventManager::checkEvents">
<polygon fill="none" stroke="#000000" points="359,-6 359,-25 513,-25 513,-6 359,-6"/>
<text text-anchor="middle" x="436" y="-13" font-family="Helvetica,sans-Serif" font-size="10.00" fill="#000000">EventManager::checkEvents</text>
</a>
</g>
</g>
<!-- Node40&#45;&gt;Node41 -->
<g id="edge2" class="edge">
<title>Node40&#45;&gt;Node41</title>
<path fill="none" stroke="#191970" d="M333.3623,-15.5C341.7925,-15.5 350.3658,-15.5 358.7824,-15.5"/>
<polygon fill="#191970" stroke="#191970" points="333.1705,-12.0001 323.1704,-15.5 333.1704,-19.0001 333.1705,-12.0001"/>
</g>
<!-- Node42 -->
<g id="node4" class="node">
<title>Node42</title>
<g id="a_node4"><a xlink:href="classGame.html#a1c2ab25d5216b2f4b2fe41efd2c09114" target="_top" xlink:title="begins the game starts running the game ">
<polygon fill="none" stroke="#000000" points="549,-6 549,-25 617,-25 617,-6 549,-6"/>
<text text-anchor="middle" x="583" y="-13" font-family="Helvetica,sans-Serif" font-size="10.00" fill="#000000">Game::run</text>
</a>
</g>
</g>
<!-- Node41&#45;&gt;Node42 -->
<g id="edge3" class="edge">
<title>Node41&#45;&gt;Node42</title>
<path fill="none" stroke="#191970" d="M523.5248,-15.5C532.4338,-15.5 541.0572,-15.5 548.845,-15.5"/>
<polygon fill="#191970" stroke="#191970" points="523.3744,-12.0001 513.3744,-15.5 523.3743,-19.0001 523.3744,-12.0001"/>
</g>
<!-- Node43 -->
<g id="node5" class="node">
<title>Node43</title>
<g id="a_node5"><a xlink:href="main_8cxx.html#af582d708d899e67ead623eac34a22387" target="_top" xlink:title="protected_main">
<polygon fill="none" stroke="#000000" points="653,-6 653,-25 746,-25 746,-6 653,-6"/>
<text text-anchor="middle" x="699.5" y="-13" font-family="Helvetica,sans-Serif" font-size="10.00" fill="#000000">protected_main</text>
</a>
</g>
</g>
<!-- Node42&#45;&gt;Node43 -->
<g id="edge4" class="edge">
<title>Node42&#45;&gt;Node43</title>
<path fill="none" stroke="#191970" d="M627.2653,-15.5C635.5757,-15.5 644.2897,-15.5 652.6749,-15.5"/>
<polygon fill="#191970" stroke="#191970" points="627.0098,-12.0001 617.0098,-15.5 627.0098,-19.0001 627.0098,-12.0001"/>
</g>
<!-- Node44 -->
<g id="node6" class="node">
<title>Node44</title>
<g id="a_node6"><a xlink:href="main_8cxx.html#a3c04138a5bfe5d72780bb7e82a18e627" target="_top" xlink:title="main">
<polygon fill="none" stroke="#000000" points="782,-6 782,-25 823,-25 823,-6 782,-6"/>
<text text-anchor="middle" x="802.5" y="-13" font-family="Helvetica,sans-Serif" font-size="10.00" fill="#000000">main</text>
</a>
</g>
</g>
<!-- Node43&#45;&gt;Node44 -->
<g id="edge5" class="edge">
<title>Node43&#45;&gt;Node44</title>
<path fill="none" stroke="#191970" d="M756.2133,-15.5C765.4322,-15.5 774.4259,-15.5 781.9965,-15.5"/>
<polygon fill="#191970" stroke="#191970" points="756.1782,-12.0001 746.1782,-15.5 756.1781,-19.0001 756.1782,-12.0001"/>
</g>
</g>
</svg>
