<?xml version="1.0" encoding="UTF-8" standalone="no"?>
<!DOCTYPE svg PUBLIC "-//W3C//DTD SVG 1.1//EN"
 "http://www.w3.org/Graphics/SVG/1.1/DTD/svg11.dtd">
<!-- Generated by graphviz version 2.40.1 (20161225.0304)
 -->
<!-- Title: UIElement::onMouseLeave Pages: 1 -->
<svg width="689pt" height="66pt"
 viewBox="0.00 0.00 689.00 66.00" xmlns="http://www.w3.org/2000/svg" xmlns:xlink="http://www.w3.org/1999/xlink">
<g id="graph0" class="graph" transform="scale(1 1) rotate(0) translate(4 62)">
<title>UIElement::onMouseLeave</title>
<!-- Node197 -->
<g id="node1" class="node">
<title>Node197</title>
<polygon fill="#bfbfbf" stroke="#000000" points="0,-19.5 0,-38.5 146,-38.5 146,-19.5 0,-19.5"/>
<text text-anchor="middle" x="73" y="-26.5" font-family="Helvetica,sans-Serif" font-size="10.00" fill="#000000">UIElement::onMouseLeave</text>
</g>
<!-- Node198 -->
<g id="node2" class="node">
<title>Node198</title>
<g id="a_node2"><a xlink:href="classEventManager.html#a65ec91fd5016d4f9c4167fb8babed2df" target="_top" xlink:title="EventManager::checkEvents">
<polygon fill="none" stroke="#000000" points="182,-38.5 182,-57.5 336,-57.5 336,-38.5 182,-38.5"/>
<text text-anchor="middle" x="259" y="-45.5" font-family="Helvetica,sans-Serif" font-size="10.00" fill="#000000">EventManager::checkEvents</text>
</a>
</g>
</g>
<!-- Node197&#45;&gt;Node198 -->
<g id="edge1" class="edge">
<title>Node197&#45;&gt;Node198</title>
<path fill="none" stroke="#191970" d="M156.1954,-37.4985C164.7301,-38.3703 173.3762,-39.2535 181.8418,-40.1182"/>
<polygon fill="#191970" stroke="#191970" points="156.5491,-34.0165 146.2451,-36.482 155.8377,-40.9802 156.5491,-34.0165"/>
</g>
<!-- Node202 -->
<g id="node6" class="node">
<title>Node202</title>
<g id="a_node6"><a xlink:href="classGame.html#a5ed7fc5be77080f7f6dd5363f7f007a1" target="_top" xlink:title="initializes and displays the main menu initializes and displays the main menu ">
<polygon fill="none" stroke="#000000" points="372,-.5 372,-19.5 475,-19.5 475,-.5 372,-.5"/>
<text text-anchor="middle" x="423.5" y="-7.5" font-family="Helvetica,sans-Serif" font-size="10.00" fill="#000000">Game::mainMenu</text>
</a>
</g>
</g>
<!-- Node197&#45;&gt;Node202 -->
<g id="edge5" class="edge">
<title>Node197&#45;&gt;Node202</title>
<path fill="none" stroke="#191970" d="M156.1533,-24.4924C223.0984,-20.8634 315.0893,-15.8768 371.8484,-12.7999"/>
<polygon fill="#191970" stroke="#191970" points="155.8455,-21.0039 146.0496,-25.0401 156.2245,-27.9936 155.8455,-21.0039"/>
</g>
<!-- Node199 -->
<g id="node3" class="node">
<title>Node199</title>
<g id="a_node3"><a xlink:href="classGame.html#a1c2ab25d5216b2f4b2fe41efd2c09114" target="_top" xlink:title="begins the game starts running the game ">
<polygon fill="none" stroke="#000000" points="389.5,-38.5 389.5,-57.5 457.5,-57.5 457.5,-38.5 389.5,-38.5"/>
<text text-anchor="middle" x="423.5" y="-45.5" font-family="Helvetica,sans-Serif" font-size="10.00" fill="#000000">Game::run</text>
</a>
</g>
</g>
<!-- Node198&#45;&gt;Node199 -->
<g id="edge2" class="edge">
<title>Node198&#45;&gt;Node199</title>
<path fill="none" stroke="#191970" d="M346.8489,-48C361.8719,-48 376.6447,-48 389.15,-48"/>
<polygon fill="#191970" stroke="#191970" points="346.4331,-44.5001 336.4331,-48 346.4331,-51.5001 346.4331,-44.5001"/>
</g>
<!-- Node200 -->
<g id="node4" class="node">
<title>Node200</title>
<g id="a_node4"><a xlink:href="main_8cxx.html#af582d708d899e67ead623eac34a22387" target="_top" xlink:title="protected_main">
<polygon fill="none" stroke="#000000" points="511,-19.5 511,-38.5 604,-38.5 604,-19.5 511,-19.5"/>
<text text-anchor="middle" x="557.5" y="-26.5" font-family="Helvetica,sans-Serif" font-size="10.00" fill="#000000">protected_main</text>
</a>
</g>
</g>
<!-- Node199&#45;&gt;Node200 -->
<g id="edge3" class="edge">
<title>Node199&#45;&gt;Node200</title>
<path fill="none" stroke="#191970" d="M467.8611,-41.71C481.6278,-39.758 496.8396,-37.6011 510.7626,-35.6269"/>
<polygon fill="#191970" stroke="#191970" points="467.0702,-38.287 457.6606,-43.1563 468.0529,-45.2177 467.0702,-38.287"/>
</g>
<!-- Node201 -->
<g id="node5" class="node">
<title>Node201</title>
<g id="a_node5"><a xlink:href="main_8cxx.html#a3c04138a5bfe5d72780bb7e82a18e627" target="_top" xlink:title="main">
<polygon fill="none" stroke="#000000" points="640,-19.5 640,-38.5 681,-38.5 681,-19.5 640,-19.5"/>
<text text-anchor="middle" x="660.5" y="-26.5" font-family="Helvetica,sans-Serif" font-size="10.00" fill="#000000">main</text>
</a>
</g>
</g>
<!-- Node200&#45;&gt;Node201 -->
<g id="edge4" class="edge">
<title>Node200&#45;&gt;Node201</title>
<path fill="none" stroke="#191970" d="M614.2133,-29C623.4322,-29 632.4259,-29 639.9965,-29"/>
<polygon fill="#191970" stroke="#191970" points="614.1782,-25.5001 604.1782,-29 614.1781,-32.5001 614.1782,-25.5001"/>
</g>
<!-- Node202&#45;&gt;Node200 -->
<g id="edge6" class="edge">
<title>Node202&#45;&gt;Node200</title>
<path fill="none" stroke="#191970" d="M485.2457,-18.755C493.7846,-19.9657 502.438,-21.1927 510.6465,-22.3566"/>
<polygon fill="#191970" stroke="#191970" points="485.7003,-15.2845 475.3079,-17.3459 484.7175,-22.2152 485.7003,-15.2845"/>
</g>
</g>
</svg>
