<?xml version="1.0" encoding="UTF-8" standalone="no"?>
<!DOCTYPE svg PUBLIC "-//W3C//DTD SVG 1.1//EN"
 "http://www.w3.org/Graphics/SVG/1.1/DTD/svg11.dtd">
<!-- Generated by graphviz version 2.40.1 (20161225.0304)
 -->
<!-- Title: Slider::draw Pages: 1 -->
<svg width="461pt" height="66pt"
 viewBox="0.00 0.00 461.00 66.00" xmlns="http://www.w3.org/2000/svg" xmlns:xlink="http://www.w3.org/1999/xlink">
<g id="graph0" class="graph" transform="scale(1 1) rotate(0) translate(4 62)">
<title>Slider::draw</title>
<!-- Node6 -->
<g id="node1" class="node">
<title>Node6</title>
<polygon fill="#bfbfbf" stroke="#000000" points="0,-19.5 0,-38.5 74,-38.5 74,-19.5 0,-19.5"/>
<text text-anchor="middle" x="37" y="-26.5" font-family="Helvetica,sans-Serif" font-size="10.00" fill="#000000">Slider::draw</text>
</g>
<!-- Node7 -->
<g id="node2" class="node">
<title>Node7</title>
<g id="a_node2"><a xlink:href="classUIElement.html#af84e7dae94a8239bb12d73a856e4be67" target="_top" xlink:title="UIElement::drawFrame">
<polygon fill="none" stroke="#000000" points="126,-38.5 126,-57.5 254,-57.5 254,-38.5 126,-38.5"/>
<text text-anchor="middle" x="190" y="-45.5" font-family="Helvetica,sans-Serif" font-size="10.00" fill="#000000">UIElement::drawFrame</text>
</a>
</g>
</g>
<!-- Node6&#45;&gt;Node7 -->
<g id="edge1" class="edge">
<title>Node6&#45;&gt;Node7</title>
<path fill="none" stroke="#191970" d="M74.037,-33.5994C86.6838,-35.1699 101.3121,-36.9865 115.8284,-38.7892"/>
<polygon fill="#191970" stroke="#191970" points="115.4795,-42.2726 125.8346,-40.0318 116.3422,-35.326 115.4795,-42.2726"/>
</g>
<!-- Node9 -->
<g id="node4" class="node">
<title>Node9</title>
<g id="a_node4"><a xlink:href="classUIElement.html#afa1b8ca68981752ffb5e40e22ee2a946" target="_top" xlink:title="Change the Texture of the button Changes the texture. ">
<polygon fill="none" stroke="#000000" points="110,-.5 110,-19.5 270,-19.5 270,-.5 110,-.5"/>
<text text-anchor="middle" x="190" y="-7.5" font-family="Helvetica,sans-Serif" font-size="10.00" fill="#000000">UIElement::drawButtonFrame</text>
</a>
</g>
</g>
<!-- Node6&#45;&gt;Node9 -->
<g id="edge3" class="edge">
<title>Node6&#45;&gt;Node9</title>
<path fill="none" stroke="#191970" d="M74.037,-24.4006C83.0848,-23.2771 93.1467,-22.0275 103.4562,-20.7473"/>
<polygon fill="#191970" stroke="#191970" points="103.899,-24.2193 113.3914,-19.5135 103.0363,-17.2726 103.899,-24.2193"/>
</g>
<!-- Node8 -->
<g id="node3" class="node">
<title>Node8</title>
<g id="a_node3"><a xlink:href="classUIElement.html#a4aca28b5f308b875340868697d0cc50c" target="_top" xlink:title="Draws a filled rectangle to the screen. Draws a filled rectangle to the screen. ">
<polygon fill="none" stroke="#000000" points="308,-38.5 308,-57.5 451,-57.5 451,-38.5 308,-38.5"/>
<text text-anchor="middle" x="379.5" y="-45.5" font-family="Helvetica,sans-Serif" font-size="10.00" fill="#000000">UIElement::drawSolidRect</text>
</a>
</g>
</g>
<!-- Node7&#45;&gt;Node8 -->
<g id="edge2" class="edge">
<title>Node7&#45;&gt;Node8</title>
<path fill="none" stroke="#191970" d="M254.1561,-48C268.2019,-48 283.2526,-48 297.8777,-48"/>
<polygon fill="#191970" stroke="#191970" points="297.9173,-51.5001 307.9173,-48 297.9172,-44.5001 297.9173,-51.5001"/>
</g>
<!-- Node9&#45;&gt;Node8 -->
<g id="edge5" class="edge">
<title>Node9&#45;&gt;Node8</title>
<path fill="none" stroke="#191970" d="M237.8189,-19.589C263.3886,-24.7165 295.059,-31.0672 321.9678,-36.4632"/>
<polygon fill="#191970" stroke="#191970" points="321.532,-39.9454 332.025,-38.4799 322.9084,-33.0821 321.532,-39.9454"/>
</g>
<!-- Node10 -->
<g id="node5" class="node">
<title>Node10</title>
<g id="a_node5"><a xlink:href="classUIElement.html#a98725ac250168ebb2fa676dd481ff495" target="_top" xlink:title="Get the button state Get the current mouse button pressed state. ">
<polygon fill="none" stroke="#000000" points="306,-.5 306,-19.5 453,-19.5 453,-.5 306,-.5"/>
<text text-anchor="middle" x="379.5" y="-7.5" font-family="Helvetica,sans-Serif" font-size="10.00" fill="#000000">UIElement::getButtonState</text>
</a>
</g>
</g>
<!-- Node9&#45;&gt;Node10 -->
<g id="edge4" class="edge">
<title>Node9&#45;&gt;Node10</title>
<path fill="none" stroke="#191970" d="M270.0904,-10C278.4927,-10 287.0525,-10 295.4971,-10"/>
<polygon fill="#191970" stroke="#191970" points="295.722,-13.5001 305.722,-10 295.7219,-6.5001 295.722,-13.5001"/>
</g>
</g>
</svg>
