<?xml version="1.0" encoding="UTF-8" standalone="no"?>
<!DOCTYPE svg PUBLIC "-//W3C//DTD SVG 1.1//EN"
 "http://www.w3.org/Graphics/SVG/1.1/DTD/svg11.dtd">
<!-- Generated by graphviz version 2.40.1 (20161225.0304)
 -->
<!-- Title: MapNode::MapNode Pages: 1 -->
<!--zoomable 376 -->
<svg id="main" version="1.1" xmlns="http://www.w3.org/2000/svg" xmlns:xlink="http://www.w3.org/1999/xlink" xml:space="preserve" onload="init(evt)">
<style type="text/css"><![CDATA[
.edge:hover path { stroke: red; }
.edge:hover polygon { stroke: red; fill: red; }
]]></style>
<script type="text/javascript"><![CDATA[
var edges = document.getElementsByTagName('g');
if (edges && edges.length) {
  for (var i=0;i<edges.length;i++) {
    if (edges[i].id.substr(0,4)=='edge') {
      edges[i].setAttribute('class','edge');
    }
  }
}
]]></script>
        <defs>
                <circle id="rim" cx="0" cy="0" r="7"/>
                <circle id="rim2" cx="0" cy="0" r="3.5"/>
                <g id="zoomPlus">
                        <use xlink:href="#rim" fill="#404040">
                                <set attributeName="fill" to="#808080" begin="zoomplus.mouseover" end="zoomplus.mouseout"/>
                        </use>
                        <path d="M-4,0h8M0,-4v8" fill="none" stroke="white" stroke-width="1.5" pointer-events="none"/>
                </g>
                <g id="zoomMin">
                        <use xlink:href="#rim" fill="#404040">
                                <set attributeName="fill" to="#808080" begin="zoomminus.mouseover" end="zoomminus.mouseout"/>
                        </use>
                        <path d="M-4,0h8" fill="none" stroke="white" stroke-width="1.5" pointer-events="none"/>
                </g>
                <g id="dirArrow">
                        <path fill="none" stroke="white" stroke-width="1.5" d="M0,-3.0v7 M-2.5,-0.5L0,-3.0L2.5,-0.5"/>
                </g>
               <g id="resetDef">
                       <use xlink:href="#rim2" fill="#404040">
                               <set attributeName="fill" to="#808080" begin="reset.mouseover" end="reset.mouseout"/>
                       </use>
               </g>
        </defs>

<script type="text/javascript">
var viewWidth = 821;
var viewHeight = 376;
var sectionId = 'dynsection-1';
</script>
<script xlink:href="svgpan.js"/>
<svg id="graph" class="graph">
<g id="viewport">
<title>MapNode::MapNode</title>
<!-- Node0 -->
<g id="node1" class="node">
<title>Node0</title>
<polygon fill="#bfbfbf" stroke="#000000" points="0,-158.5 0,-177.5 114,-177.5 114,-158.5 0,-158.5"/>
<text text-anchor="middle" x="57" y="-165.5" font-family="Helvetica,sans-Serif" font-size="10.00" fill="#000000">MapNode::MapNode</text>
</g>
<!-- Node1 -->
<g id="node2" class="node">
<title>Node1</title>
<g id="a_node2"><a xlink:href="classMapNode.html#a26e55c94192a56990f8a59e7af139a73" target="_top" xlink:title="MapNode::setTileID">
<polygon fill="none" stroke="#000000" points="150,-215.5 150,-234.5 262,-234.5 262,-215.5 150,-215.5"/>
<text text-anchor="middle" x="206" y="-222.5" font-family="Helvetica,sans-Serif" font-size="10.00" fill="#000000">MapNode::setTileID</text>
</a>
</g>
</g>
<!-- Node0&#45;&gt;Node1 -->
<g id="edge1" class="edge">
<title>Node0&#45;&gt;Node1</title>
<path fill="none" stroke="#191970" d="M81.9392,-177.5405C106.4355,-186.9116 144.015,-201.2876 171.3961,-211.7623"/>
<polygon fill="#191970" stroke="#191970" points="170.3889,-215.1243 180.9794,-215.4284 172.89,-208.5863 170.3889,-215.1243"/>
</g>
<!-- Node2 -->
<g id="node3" class="node">
<title>Node2</title>
<g id="a_node3"><a xlink:href="classSingleton.html#af5cb1e5749949e2b68416cfb8d378044" target="_top" xlink:title="Get an instance of the singleton. ">
<polygon fill="none" stroke="#000000" points="493,-175 493,-205 627,-205 627,-175 493,-175"/>
<text text-anchor="start" x="501" y="-193" font-family="Helvetica,sans-Serif" font-size="10.00" fill="#000000">Singleton&lt; TileManager</text>
<text text-anchor="middle" x="560" y="-182" font-family="Helvetica,sans-Serif" font-size="10.00" fill="#000000"> &gt;::instance</text>
</a>
</g>
</g>
<!-- Node0&#45;&gt;Node2 -->
<g id="edge19" class="edge">
<title>Node0&#45;&gt;Node2</title>
<path fill="none" stroke="#191970" d="M100.3493,-158.4427C173.0315,-144.064 323.6377,-121.3374 447,-149 464.2655,-152.8716 466.5138,-159.5741 483,-166 488.0555,-167.9705 493.3447,-169.8944 498.6811,-171.7405"/>
<polygon fill="#191970" stroke="#191970" points="497.7032,-175.1042 508.2972,-174.9731 499.9337,-168.4691 497.7032,-175.1042"/>
</g>
<!-- Node4 -->
<g id="node5" class="node">
<title>Node4</title>
<g id="a_node5"><a xlink:href="classTileManager.html#a105151a0c336807e918aff002ffd6101" target="_top" xlink:title="TileManager::getTileLayer">
<polygon fill="none" stroke="#000000" points="301,-310.5 301,-329.5 444,-329.5 444,-310.5 301,-310.5"/>
<text text-anchor="middle" x="372.5" y="-317.5" font-family="Helvetica,sans-Serif" font-size="10.00" fill="#000000">TileManager::getTileLayer</text>
</a>
</g>
</g>
<!-- Node0&#45;&gt;Node4 -->
<g id="edge20" class="edge">
<title>Node0&#45;&gt;Node4</title>
<path fill="none" stroke="#191970" d="M66.4533,-177.7144C82.3657,-193.5789 116.0979,-225.1634 150,-244 204.8505,-274.4759 274.0546,-295.755 320.5973,-307.8936"/>
<polygon fill="#191970" stroke="#191970" points="319.9063,-311.3295 330.4618,-310.418 321.6418,-304.548 319.9063,-311.3295"/>
</g>
<!-- Node9 -->
<g id="node10" class="node">
<title>Node9</title>
<g id="a_node10"><a xlink:href="classMapNode.html#aabbb10c19ddd79e9c519eb4af5e995e0" target="_top" xlink:title="MapNode::updateTexture">
<polygon fill="none" stroke="#000000" points="303.5,-82.5 303.5,-101.5 441.5,-101.5 441.5,-82.5 303.5,-82.5"/>
<text text-anchor="middle" x="372.5" y="-89.5" font-family="Helvetica,sans-Serif" font-size="10.00" fill="#000000">MapNode::updateTexture</text>
</a>
</g>
</g>
<!-- Node0&#45;&gt;Node9 -->
<g id="edge21" class="edge">
<title>Node0&#45;&gt;Node9</title>
<path fill="none" stroke="#191970" d="M70.0736,-158.4217C87.3908,-146.2863 119.3338,-125.7773 150,-116 196.0922,-101.3044 249.9857,-95.2266 293.1868,-92.86"/>
<polygon fill="#191970" stroke="#191970" points="293.5452,-96.3467 303.3613,-92.3599 293.2015,-89.3552 293.5452,-96.3467"/>
</g>
<!-- Node1&#45;&gt;Node2 -->
<g id="edge2" class="edge">
<title>Node1&#45;&gt;Node2</title>
<path fill="none" stroke="#191970" d="M262.0924,-219.4541C321.7108,-213.5597 416.3854,-204.1992 482.9726,-197.6157"/>
<polygon fill="#191970" stroke="#191970" points="483.3896,-201.0916 492.9967,-196.6246 482.7008,-194.1256 483.3896,-201.0916"/>
</g>
<!-- Node3 -->
<g id="node4" class="node">
<title>Node3</title>
<g id="a_node4"><a xlink:href="classTileManager.html#a8ee071ff8b24926288437d310f9bc714" target="_top" xlink:title="TileManager::getTileData">
<polygon fill="none" stroke="#000000" points="490,-291.5 490,-310.5 630,-310.5 630,-291.5 490,-291.5"/>
<text text-anchor="middle" x="560" y="-298.5" font-family="Helvetica,sans-Serif" font-size="10.00" fill="#000000">TileManager::getTileData</text>
</a>
</g>
</g>
<!-- Node1&#45;&gt;Node3 -->
<g id="edge3" class="edge">
<title>Node1&#45;&gt;Node3</title>
<path fill="none" stroke="#191970" d="M225.2465,-234.5988C243.5267,-243.3148 272.0029,-255.8648 298,-263 357.7321,-279.3942 427.182,-289.0585 479.565,-294.5352"/>
<polygon fill="#191970" stroke="#191970" points="479.5036,-298.0469 489.8061,-295.5755 480.211,-291.0827 479.5036,-298.0469"/>
</g>
<!-- Node1&#45;&gt;Node4 -->
<g id="edge4" class="edge">
<title>Node1&#45;&gt;Node4</title>
<path fill="none" stroke="#191970" d="M215.9428,-234.5867C231.9939,-249.5961 265.1489,-278.7107 298,-296 306.301,-300.3687 315.5423,-304.1265 324.6132,-307.2851"/>
<polygon fill="#191970" stroke="#191970" points="323.7438,-310.6834 334.3367,-310.478 325.9277,-304.0328 323.7438,-310.6834"/>
</g>
<!-- Node5 -->
<g id="node6" class="node">
<title>Node5</title>
<g id="a_node6"><a xlink:href="classMapNode.html#a06be1917d4b251010ae78d8a2b7bc88a" target="_top" xlink:title="demolish specific layer of a Node. ">
<polygon fill="none" stroke="#000000" points="302.5,-348.5 302.5,-367.5 442.5,-367.5 442.5,-348.5 302.5,-348.5"/>
<text text-anchor="middle" x="372.5" y="-355.5" font-family="Helvetica,sans-Serif" font-size="10.00" fill="#000000">MapNode::demolishLayer</text>
</a>
</g>
</g>
<!-- Node1&#45;&gt;Node5 -->
<g id="edge7" class="edge">
<title>Node1&#45;&gt;Node5</title>
<path fill="none" stroke="#191970" d="M210.9582,-234.7006C222.8009,-256.8552 254.983,-311.3819 298,-339 301.317,-341.1296 304.8602,-343.0208 308.5331,-344.7001"/>
<polygon fill="#191970" stroke="#191970" points="307.2915,-347.9731 317.8755,-348.4533 309.9011,-341.4777 307.2915,-347.9731"/>
</g>
<!-- Node7 -->
<g id="node8" class="node">
<title>Node7</title>
<g id="a_node8"><a xlink:href="classMapNode.html#ae38d4ab8e73fc9c44e404f3c9a196953" target="_top" xlink:title="MapNode::isLayerOccupied">
<polygon fill="none" stroke="#000000" points="298,-158.5 298,-177.5 447,-177.5 447,-158.5 298,-158.5"/>
<text text-anchor="middle" x="372.5" y="-165.5" font-family="Helvetica,sans-Serif" font-size="10.00" fill="#000000">MapNode::isLayerOccupied</text>
</a>
</g>
</g>
<!-- Node1&#45;&gt;Node7 -->
<g id="edge9" class="edge">
<title>Node1&#45;&gt;Node7</title>
<path fill="none" stroke="#191970" d="M232.0929,-215.3835C250.4671,-208.6748 275.6712,-199.5989 298,-192 309.1435,-188.2076 321.2758,-184.2338 332.4518,-180.6355"/>
<polygon fill="#191970" stroke="#191970" points="333.5225,-183.9678 341.9781,-177.584 331.387,-177.3014 333.5225,-183.9678"/>
</g>
<!-- Node8 -->
<g id="node9" class="node">
<title>Node8</title>
<g id="a_node9"><a xlink:href="classMapNode.html#a58a7785b716413df71aeee7a939a416b" target="_top" xlink:title="check if current Node Terrain is Slope Terrain. ">
<polygon fill="none" stroke="#000000" points="308,-234.5 308,-253.5 437,-253.5 437,-234.5 308,-234.5"/>
<text text-anchor="middle" x="372.5" y="-241.5" font-family="Helvetica,sans-Serif" font-size="10.00" fill="#000000">MapNode::isSlopeNode</text>
</a>
</g>
</g>
<!-- Node1&#45;&gt;Node8 -->
<g id="edge10" class="edge">
<title>Node1&#45;&gt;Node8</title>
<path fill="none" stroke="#191970" d="M262.3693,-231.4325C273.7935,-232.7362 285.9742,-234.1262 297.9146,-235.4888"/>
<polygon fill="#191970" stroke="#191970" points="297.5337,-238.9679 307.8661,-236.6244 298.3274,-232.0131 297.5337,-238.9679"/>
</g>
<!-- Node1&#45;&gt;Node9 -->
<g id="edge11" class="edge">
<title>Node1&#45;&gt;Node9</title>
<path fill="none" stroke="#191970" d="M217.5049,-215.2621C234.8122,-200.6664 268.6493,-172.3379 298,-149 315.9015,-134.7658 336.5824,-118.995 351.6059,-107.6573"/>
<polygon fill="#191970" stroke="#191970" points="353.8492,-110.3495 359.734,-101.5393 349.6395,-104.7568 353.8492,-110.3495"/>
</g>
<!-- Node4&#45;&gt;Node2 -->
<g id="edge5" class="edge">
<title>Node4&#45;&gt;Node2</title>
<path fill="none" stroke="#191970" d="M386.2873,-310.4408C416.4484,-289.5291 488.8741,-239.314 530.0521,-210.7639"/>
<polygon fill="#191970" stroke="#191970" points="532.1145,-213.5929 538.3383,-205.0188 528.1261,-207.8403 532.1145,-213.5929"/>
</g>
<!-- Node4&#45;&gt;Node3 -->
<g id="edge6" class="edge">
<title>Node4&#45;&gt;Node3</title>
<path fill="none" stroke="#191970" d="M444.1883,-312.7356C455.7825,-311.5607 467.854,-310.3375 479.6374,-309.1434"/>
<polygon fill="#191970" stroke="#191970" points="480.303,-312.594 489.8991,-308.1036 479.5972,-305.6296 480.303,-312.594"/>
</g>
<!-- Node6 -->
<g id="node7" class="node">
<title>Node6</title>
<g id="a_node7"><a xlink:href="classMapNode.html#a67296a58e167356efbabeaac3226b5d3" target="_top" xlink:title="get iso coordinates of this node gets the iso coordinates of this node ">
<polygon fill="none" stroke="#000000" points="488.5,-348.5 488.5,-367.5 631.5,-367.5 631.5,-348.5 488.5,-348.5"/>
<text text-anchor="middle" x="560" y="-355.5" font-family="Helvetica,sans-Serif" font-size="10.00" fill="#000000">MapNode::getCoordinates</text>
</a>
</g>
</g>
<!-- Node5&#45;&gt;Node6 -->
<g id="edge8" class="edge">
<title>Node5&#45;&gt;Node6</title>
<path fill="none" stroke="#191970" d="M442.5847,-358C454.1696,-358 466.2704,-358 478.1144,-358"/>
<polygon fill="#191970" stroke="#191970" points="478.4372,-361.5001 488.4372,-358 478.4372,-354.5001 478.4372,-361.5001"/>
</g>
<!-- Node9&#45;&gt;Node2 -->
<g id="edge12" class="edge">
<title>Node9&#45;&gt;Node2</title>
<path fill="none" stroke="#191970" d="M438.6619,-101.6853C441.5662,-103.3104 444.3633,-105.0807 447,-107 469.1389,-123.1151 460.7848,-140.9903 483,-157 491.6947,-163.2659 502.0733,-167.9304 512.3517,-171.6315"/>
<polygon fill="#191970" stroke="#191970" points="511.5233,-175.0452 522.1172,-174.9056 513.7485,-168.4083 511.5233,-175.0452"/>
</g>
<!-- Node9&#45;&gt;Node2 -->
<g id="edge18" class="edge">
<title>Node9&#45;&gt;Node2</title>
<path fill="none" stroke="#191970" d="M390.4988,-101.5695C406.5579,-106.5011 430.0811,-112.6846 447,-125 469.1389,-141.1151 460.7848,-158.9903 483,-175 483.3834,-175.2763 483.7701,-175.5495 484.1599,-175.8196"/>
<polygon fill="#191970" stroke="#191970" points="482.3882,-178.8385 492.7518,-181.0402 486.0232,-172.8562 482.3882,-178.8385"/>
</g>
<!-- Node10 -->
<g id="node11" class="node">
<title>Node10</title>
<g id="a_node11"><a xlink:href="classTileManager.html#a519b2d5c91877025a2faa0dff3ba099c" target="_top" xlink:title="TileManager::calculateSlope\lOrientation">
<polygon fill="none" stroke="#000000" points="483,-126 483,-156 637,-156 637,-126 483,-126"/>
<text text-anchor="start" x="491" y="-144" font-family="Helvetica,sans-Serif" font-size="10.00" fill="#000000">TileManager::calculateSlope</text>
<text text-anchor="middle" x="560" y="-133" font-family="Helvetica,sans-Serif" font-size="10.00" fill="#000000">Orientation</text>
</a>
</g>
</g>
<!-- Node9&#45;&gt;Node10 -->
<g id="edge13" class="edge">
<title>Node9&#45;&gt;Node10</title>
<path fill="none" stroke="#191970" d="M409.097,-101.564C432.8351,-107.7676 464.4787,-116.0371 492.6568,-123.401"/>
<polygon fill="#191970" stroke="#191970" points="491.9005,-126.8208 502.4606,-125.963 493.6705,-120.0483 491.9005,-126.8208"/>
</g>
<!-- Node11 -->
<g id="node12" class="node">
<title>Node11</title>
<g id="a_node12"><a xlink:href="classTileManager.html#a05d41a7f0858cff242f027a08e06ea43" target="_top" xlink:title="TileManager::calculateTile\lOrientation">
<polygon fill="none" stroke="#000000" points="487.5,-77 487.5,-107 632.5,-107 632.5,-77 487.5,-77"/>
<text text-anchor="start" x="495.5" y="-95" font-family="Helvetica,sans-Serif" font-size="10.00" fill="#000000">TileManager::calculateTile</text>
<text text-anchor="middle" x="560" y="-84" font-family="Helvetica,sans-Serif" font-size="10.00" fill="#000000">Orientation</text>
</a>
</g>
</g>
<!-- Node9&#45;&gt;Node11 -->
<g id="edge14" class="edge">
<title>Node9&#45;&gt;Node11</title>
<path fill="none" stroke="#191970" d="M441.5193,-92C453.0682,-92 465.1563,-92 477.0117,-92"/>
<polygon fill="#191970" stroke="#191970" points="477.3509,-95.5001 487.3509,-92 477.3509,-88.5001 477.3509,-95.5001"/>
</g>
<!-- Node12 -->
<g id="node13" class="node">
<title>Node12</title>
<g id="a_node13"><a xlink:href="classMapNode.html#afb1cbc0f9e987b7befced46220dd9277" target="_top" xlink:title="check if specific layer can be autotiled. ">
<polygon fill="none" stroke="#000000" points="488,-38.5 488,-57.5 632,-57.5 632,-38.5 488,-38.5"/>
<text text-anchor="middle" x="560" y="-45.5" font-family="Helvetica,sans-Serif" font-size="10.00" fill="#000000">MapNode::isLayerAutoTile</text>
</a>
</g>
</g>
<!-- Node9&#45;&gt;Node12 -->
<g id="edge15" class="edge">
<title>Node9&#45;&gt;Node12</title>
<path fill="none" stroke="#191970" d="M413.1847,-82.4527C441.4406,-75.8219 479.2858,-66.9409 509.475,-59.8565"/>
<polygon fill="#191970" stroke="#191970" points="510.4588,-63.2208 519.3947,-57.5287 508.8595,-56.406 510.4588,-63.2208"/>
</g>
<!-- Node14 -->
<g id="node15" class="node">
<title>Node14</title>
<g id="a_node15"><a xlink:href="classMapNode.html#ab34930f43b60310cd475f514e969a401" target="_top" xlink:title="get TileID of specific layer inside NodeData. ">
<polygon fill="none" stroke="#000000" points="503.5,-.5 503.5,-19.5 616.5,-19.5 616.5,-.5 503.5,-.5"/>
<text text-anchor="middle" x="560" y="-7.5" font-family="Helvetica,sans-Serif" font-size="10.00" fill="#000000">MapNode::getTileID</text>
</a>
</g>
</g>
<!-- Node9&#45;&gt;Node14 -->
<g id="edge17" class="edge">
<title>Node9&#45;&gt;Node14</title>
<path fill="none" stroke="#191970" d="M386.514,-82.3098C406.8936,-68.6222 446.292,-43.6636 483,-29 489.2714,-26.4948 495.9661,-24.2521 502.6918,-22.2633"/>
<polygon fill="#191970" stroke="#191970" points="503.8251,-25.581 512.5221,-19.5301 501.95,-18.8368 503.8251,-25.581"/>
</g>
<!-- Node13 -->
<g id="node14" class="node">
<title>Node13</title>
<g id="a_node14"><a xlink:href="classMapNode.html#a64cb9a4523c9e78f256fde42f1dee43d" target="_top" xlink:title="check if specific Tile Data is autotile category. ">
<polygon fill="none" stroke="#000000" points="673,-38.5 673,-57.5 813,-57.5 813,-38.5 673,-38.5"/>
<text text-anchor="middle" x="743" y="-45.5" font-family="Helvetica,sans-Serif" font-size="10.00" fill="#000000">MapNode::isDataAutoTile</text>
</a>
</g>
</g>
<!-- Node12&#45;&gt;Node13 -->
<g id="edge16" class="edge">
<title>Node12&#45;&gt;Node13</title>
<path fill="none" stroke="#191970" d="M632.0638,-48C642.1158,-48 652.4959,-48 662.688,-48"/>
<polygon fill="#191970" stroke="#191970" points="662.7984,-51.5001 672.7984,-48 662.7983,-44.5001 662.7984,-51.5001"/>
</g>
</g>
</svg>
        <g id="navigator" transform="translate(0 0)" fill="#404254">
                <rect fill="#f2f5e9" fill-opacity="0.5" stroke="#606060" stroke-width=".5" x="0" y="0" width="60" height="60"/>
                <use id="zoomplus" xlink:href="#zoomPlus" x="17" y="9" onmousedown="handleZoom(evt,'in')"/>
                <use id="zoomminus" xlink:href="#zoomMin" x="42" y="9" onmousedown="handleZoom(evt,'out')"/>
                <use id="reset" xlink:href="#resetDef" x="30" y="36" onmousedown="handleReset()"/>
                <g id="arrowUp" xlink:href="#dirArrow" transform="translate(30 24)" onmousedown="handlePan(0,-1)">
                  <use xlink:href="#rim" fill="#404040">
                        <set attributeName="fill" to="#808080" begin="arrowUp.mouseover" end="arrowUp.mouseout"/>
                  </use>
                  <path fill="none" stroke="white" stroke-width="1.5" d="M0,-3.0v7 M-2.5,-0.5L0,-3.0L2.5,-0.5"/>
                </g>
                <g id="arrowRight" xlink:href="#dirArrow" transform="rotate(90) translate(36 -43)" onmousedown="handlePan(1,0)">
                  <use xlink:href="#rim" fill="#404040">
                        <set attributeName="fill" to="#808080" begin="arrowRight.mouseover" end="arrowRight.mouseout"/>
                  </use>
                  <path fill="none" stroke="white" stroke-width="1.5" d="M0,-3.0v7 M-2.5,-0.5L0,-3.0L2.5,-0.5"/>
                </g>
                <g id="arrowDown" xlink:href="#dirArrow" transform="rotate(180) translate(-30 -48)" onmousedown="handlePan(0,1)">
                  <use xlink:href="#rim" fill="#404040">
                        <set attributeName="fill" to="#808080" begin="arrowDown.mouseover" end="arrowDown.mouseout"/>
                  </use>
                  <path fill="none" stroke="white" stroke-width="1.5" d="M0,-3.0v7 M-2.5,-0.5L0,-3.0L2.5,-0.5"/>
                </g>
                <g id="arrowLeft" xlink:href="#dirArrow" transform="rotate(270) translate(-36 17)" onmousedown="handlePan(-1,0)">
                  <use xlink:href="#rim" fill="#404040">
                        <set attributeName="fill" to="#808080" begin="arrowLeft.mouseover" end="arrowLeft.mouseout"/>
                  </use>
                  <path fill="none" stroke="white" stroke-width="1.5" d="M0,-3.0v7 M-2.5,-0.5L0,-3.0L2.5,-0.5"/>
                </g>
        </g>
        <svg viewBox="0 0 15 15" width="100%" height="30px" preserveAspectRatio="xMaxYMin meet">
         <g id="arrow_out" transform="scale(0.3 0.3)">
          <a xlink:href="classMapNode_ae515fc96b543bf97237bfb1ca53fe571_cgraph_org.svg" target="_base">
           <rect id="button" ry="5" rx="5" y="6" x="6" height="38" width="38"
                fill="#f2f5e9" fill-opacity="0.5" stroke="#606060" stroke-width="1.0"/>
           <path id="arrow"
             d="M 11.500037,31.436501 C 11.940474,20.09759 22.043105,11.32322 32.158766,21.979434 L 37.068811,17.246167 C 37.068811,17.246167 37.088388,32 37.088388,32 L 22.160133,31.978069 C 22.160133,31.978069 26.997745,27.140456 26.997745,27.140456 C 18.528582,18.264221 13.291696,25.230495 11.500037,31.436501 z"
             style="fill:#404040;"/>
          </a>
         </g>
        </svg>
</svg>
