<?xml version="1.0" encoding="UTF-8" standalone="no"?>
<!DOCTYPE svg PUBLIC "-//W3C//DTD SVG 1.1//EN"
 "http://www.w3.org/Graphics/SVG/1.1/DTD/svg11.dtd">
<!-- Generated by graphviz version 2.40.1 (20161225.0304)
 -->
<!-- Title: MapNode::getTileID Pages: 1 -->
<svg width="1142pt" height="198pt"
 viewBox="0.00 0.00 1142.00 197.85" xmlns="http://www.w3.org/2000/svg" xmlns:xlink="http://www.w3.org/1999/xlink">
<g id="graph0" class="graph" transform="scale(1 1) rotate(0) translate(4 193.8484)">
<title>MapNode::getTileID</title>
<!-- Node123 -->
<g id="node1" class="node">
<title>Node123</title>
<polygon fill="#bfbfbf" stroke="#000000" points="0,-76.5 0,-95.5 113,-95.5 113,-76.5 0,-76.5"/>
<text text-anchor="middle" x="56.5" y="-83.5" font-family="Helvetica,sans-Serif" font-size="10.00" fill="#000000">MapNode::getTileID</text>
</g>
<!-- Node124 -->
<g id="node2" class="node">
<title>Node124</title>
<g id="a_node2"><a xlink:href="classMapNode.html#aabbb10c19ddd79e9c519eb4af5e995e0" target="_top" xlink:title="MapNode::updateTexture">
<polygon fill="none" stroke="#000000" points="149,-114.5 149,-133.5 287,-133.5 287,-114.5 149,-114.5"/>
<text text-anchor="middle" x="218" y="-121.5" font-family="Helvetica,sans-Serif" font-size="10.00" fill="#000000">MapNode::updateTexture</text>
</a>
</g>
</g>
<!-- Node123&#45;&gt;Node124 -->
<g id="edge1" class="edge">
<title>Node123&#45;&gt;Node124</title>
<path fill="none" stroke="#191970" d="M107.0583,-97.8961C129.7588,-103.2374 156.1781,-109.4537 177.5398,-114.4799"/>
<polygon fill="#191970" stroke="#191970" points="107.7891,-94.4725 97.2533,-95.589 106.1858,-101.2864 107.7891,-94.4725"/>
</g>
<!-- Node129 -->
<g id="node7" class="node">
<title>Node129</title>
<g id="a_node7"><a xlink:href="classMap.html#a5301e6a354460af86af3b32cd43a55ac" target="_top" xlink:title="Map::getTileID">
<polygon fill="none" stroke="#000000" points="174.5,-38.5 174.5,-57.5 261.5,-57.5 261.5,-38.5 174.5,-38.5"/>
<text text-anchor="middle" x="218" y="-45.5" font-family="Helvetica,sans-Serif" font-size="10.00" fill="#000000">Map::getTileID</text>
</a>
</g>
</g>
<!-- Node123&#45;&gt;Node129 -->
<g id="edge7" class="edge">
<title>Node123&#45;&gt;Node129</title>
<path fill="none" stroke="#191970" d="M107.0583,-74.1039C129.7588,-68.7626 156.1781,-62.5463 177.5398,-57.5201"/>
<polygon fill="#191970" stroke="#191970" points="106.1858,-70.7136 97.2533,-76.411 107.7891,-77.5275 106.1858,-70.7136"/>
</g>
<!-- Node125 -->
<g id="node3" class="node">
<title>Node125</title>
<g id="a_node3"><a xlink:href="classMapNode.html#ae515fc96b543bf97237bfb1ca53fe571" target="_top" xlink:title="MapNode::MapNode">
<polygon fill="none" stroke="#000000" points="509,-152.5 509,-171.5 623,-171.5 623,-152.5 509,-152.5"/>
<text text-anchor="middle" x="566" y="-159.5" font-family="Helvetica,sans-Serif" font-size="10.00" fill="#000000">MapNode::MapNode</text>
</a>
</g>
</g>
<!-- Node124&#45;&gt;Node125 -->
<g id="edge2" class="edge">
<title>Node124&#45;&gt;Node125</title>
<path fill="none" stroke="#191970" d="M238.8813,-139.4386C259.1795,-153.4133 291.4776,-172.9956 323,-181 395.5959,-199.4341 483.9696,-183.2945 531.5995,-171.5778"/>
<polygon fill="#191970" stroke="#191970" points="240.8867,-136.5701 230.6998,-133.6586 236.8477,-142.2873 240.8867,-136.5701"/>
</g>
<!-- Node126 -->
<g id="node4" class="node">
<title>Node126</title>
<g id="a_node4"><a xlink:href="classMapNode.html#a92b521fa20e0a75d81523a52ba1d8250" target="_top" xlink:title="MapNode::setBitmask">
<polygon fill="none" stroke="#000000" points="330.5,-152.5 330.5,-171.5 454.5,-171.5 454.5,-152.5 330.5,-152.5"/>
<text text-anchor="middle" x="392.5" y="-159.5" font-family="Helvetica,sans-Serif" font-size="10.00" fill="#000000">MapNode::setBitmask</text>
</a>
</g>
</g>
<!-- Node124&#45;&gt;Node126 -->
<g id="edge3" class="edge">
<title>Node124&#45;&gt;Node126</title>
<path fill="none" stroke="#191970" d="M271.9691,-135.7526C296.6433,-141.1258 325.4948,-147.4086 348.7829,-152.4799"/>
<polygon fill="#191970" stroke="#191970" points="272.5495,-132.297 262.0337,-133.589 271.06,-139.1367 272.5495,-132.297"/>
</g>
<!-- Node127 -->
<g id="node5" class="node">
<title>Node127</title>
<g id="a_node5"><a xlink:href="classMapNode.html#a26e55c94192a56990f8a59e7af139a73" target="_top" xlink:title="MapNode::setTileID">
<polygon fill="none" stroke="#000000" points="336.5,-114.5 336.5,-133.5 448.5,-133.5 448.5,-114.5 336.5,-114.5"/>
<text text-anchor="middle" x="392.5" y="-121.5" font-family="Helvetica,sans-Serif" font-size="10.00" fill="#000000">MapNode::setTileID</text>
</a>
</g>
</g>
<!-- Node124&#45;&gt;Node127 -->
<g id="edge4" class="edge">
<title>Node124&#45;&gt;Node127</title>
<path fill="none" stroke="#191970" d="M297.2213,-124C310.392,-124 323.8088,-124 336.2575,-124"/>
<polygon fill="#191970" stroke="#191970" points="297.2177,-120.5001 287.2177,-124 297.2176,-127.5001 297.2177,-120.5001"/>
</g>
<!-- Node128 -->
<g id="node6" class="node">
<title>Node128</title>
<g id="a_node6"><a xlink:href="classMapNode.html#a002b868485074599fbf087fc4c96b2c9" target="_top" xlink:title="Demolish a node Removes all tiles on a node. This effects all layers where something to demolish is p...">
<polygon fill="none" stroke="#000000" points="323,-76.5 323,-95.5 462,-95.5 462,-76.5 323,-76.5"/>
<text text-anchor="middle" x="392.5" y="-83.5" font-family="Helvetica,sans-Serif" font-size="10.00" fill="#000000">MapNode::demolishNode</text>
</a>
</g>
</g>
<!-- Node124&#45;&gt;Node128 -->
<g id="edge6" class="edge">
<title>Node124&#45;&gt;Node128</title>
<path fill="none" stroke="#191970" d="M271.9691,-112.2474C296.6433,-106.8742 325.4948,-100.5914 348.7829,-95.5201"/>
<polygon fill="#191970" stroke="#191970" points="271.06,-108.8633 262.0337,-114.411 272.5495,-115.703 271.06,-108.8633"/>
</g>
<!-- Node127&#45;&gt;Node125 -->
<g id="edge5" class="edge">
<title>Node127&#45;&gt;Node125</title>
<path fill="none" stroke="#191970" d="M446.1598,-135.7526C470.6927,-141.1258 499.3787,-147.4086 522.5335,-152.4799"/>
<polygon fill="#191970" stroke="#191970" points="446.7987,-132.3096 436.2814,-133.589 445.301,-139.1475 446.7987,-132.3096"/>
</g>
<!-- Node130 -->
<g id="node8" class="node">
<title>Node130</title>
<g id="a_node8"><a xlink:href="classEventManager.html#a65ec91fd5016d4f9c4167fb8babed2df" target="_top" xlink:title="EventManager::checkEvents">
<polygon fill="none" stroke="#000000" points="670,-19.5 670,-38.5 824,-38.5 824,-19.5 670,-19.5"/>
<text text-anchor="middle" x="747" y="-26.5" font-family="Helvetica,sans-Serif" font-size="10.00" fill="#000000">EventManager::checkEvents</text>
</a>
</g>
</g>
<!-- Node129&#45;&gt;Node130 -->
<g id="edge8" class="edge">
<title>Node129&#45;&gt;Node130</title>
<path fill="none" stroke="#191970" d="M271.9126,-46.0636C366.2334,-42.6759 561.4609,-35.664 669.9943,-31.7658"/>
<polygon fill="#191970" stroke="#191970" points="271.6082,-42.5722 261.7403,-46.429 271.8596,-49.5677 271.6082,-42.5722"/>
</g>
<!-- Node134 -->
<g id="node12" class="node">
<title>Node134</title>
<g id="a_node12"><a xlink:href="classMap.html#a404c38b33d61f8c63ce2c2efb864d6dd" target="_top" xlink:title="Set the Tile ID Of Node object Also invokes all necessary texture updates (auto&#45;tiling, slopes, ...) ">
<polygon fill="none" stroke="#000000" points="331,-.5 331,-19.5 454,-19.5 454,-.5 331,-.5"/>
<text text-anchor="middle" x="392.5" y="-7.5" font-family="Helvetica,sans-Serif" font-size="10.00" fill="#000000">Map::setTileIDOfNode</text>
</a>
</g>
</g>
<!-- Node129&#45;&gt;Node134 -->
<g id="edge12" class="edge">
<title>Node129&#45;&gt;Node134</title>
<path fill="none" stroke="#191970" d="M271.5614,-36.3362C296.3548,-30.9371 325.4361,-24.6042 348.8672,-19.5017"/>
<polygon fill="#191970" stroke="#191970" points="270.6098,-32.9613 261.5836,-38.509 272.0993,-39.801 270.6098,-32.9613"/>
</g>
<!-- Node131 -->
<g id="node9" class="node">
<title>Node131</title>
<g id="a_node9"><a xlink:href="classGame.html#a1c2ab25d5216b2f4b2fe41efd2c09114" target="_top" xlink:title="begins the game starts running the game ">
<polygon fill="none" stroke="#000000" points="860,-19.5 860,-38.5 928,-38.5 928,-19.5 860,-19.5"/>
<text text-anchor="middle" x="894" y="-26.5" font-family="Helvetica,sans-Serif" font-size="10.00" fill="#000000">Game::run</text>
</a>
</g>
</g>
<!-- Node130&#45;&gt;Node131 -->
<g id="edge9" class="edge">
<title>Node130&#45;&gt;Node131</title>
<path fill="none" stroke="#191970" d="M834.5248,-29C843.4338,-29 852.0572,-29 859.845,-29"/>
<polygon fill="#191970" stroke="#191970" points="834.3744,-25.5001 824.3744,-29 834.3743,-32.5001 834.3744,-25.5001"/>
</g>
<!-- Node132 -->
<g id="node10" class="node">
<title>Node132</title>
<g id="a_node10"><a xlink:href="main_8cxx.html#af582d708d899e67ead623eac34a22387" target="_top" xlink:title="protected_main">
<polygon fill="none" stroke="#000000" points="964,-19.5 964,-38.5 1057,-38.5 1057,-19.5 964,-19.5"/>
<text text-anchor="middle" x="1010.5" y="-26.5" font-family="Helvetica,sans-Serif" font-size="10.00" fill="#000000">protected_main</text>
</a>
</g>
</g>
<!-- Node131&#45;&gt;Node132 -->
<g id="edge10" class="edge">
<title>Node131&#45;&gt;Node132</title>
<path fill="none" stroke="#191970" d="M938.2653,-29C946.5757,-29 955.2897,-29 963.6749,-29"/>
<polygon fill="#191970" stroke="#191970" points="938.0098,-25.5001 928.0098,-29 938.0098,-32.5001 938.0098,-25.5001"/>
</g>
<!-- Node133 -->
<g id="node11" class="node">
<title>Node133</title>
<g id="a_node11"><a xlink:href="main_8cxx.html#a3c04138a5bfe5d72780bb7e82a18e627" target="_top" xlink:title="main">
<polygon fill="none" stroke="#000000" points="1093,-19.5 1093,-38.5 1134,-38.5 1134,-19.5 1093,-19.5"/>
<text text-anchor="middle" x="1113.5" y="-26.5" font-family="Helvetica,sans-Serif" font-size="10.00" fill="#000000">main</text>
</a>
</g>
</g>
<!-- Node132&#45;&gt;Node133 -->
<g id="edge11" class="edge">
<title>Node132&#45;&gt;Node133</title>
<path fill="none" stroke="#191970" d="M1067.2133,-29C1076.4322,-29 1085.4259,-29 1092.9965,-29"/>
<polygon fill="#191970" stroke="#191970" points="1067.1782,-25.5001 1057.1782,-29 1067.1781,-32.5001 1067.1782,-25.5001"/>
</g>
<!-- Node135 -->
<g id="node13" class="node">
<title>Node135</title>
<g id="a_node13"><a xlink:href="classEngine.html#a7a1521fd7fc731f961ebaf3f723127d9" target="_top" xlink:title="Engine::setTileIDOfNode">
<polygon fill="none" stroke="#000000" points="498,-.5 498,-19.5 634,-19.5 634,-.5 498,-.5"/>
<text text-anchor="middle" x="566" y="-7.5" font-family="Helvetica,sans-Serif" font-size="10.00" fill="#000000">Engine::setTileIDOfNode</text>
</a>
</g>
</g>
<!-- Node134&#45;&gt;Node135 -->
<g id="edge13" class="edge">
<title>Node134&#45;&gt;Node135</title>
<path fill="none" stroke="#191970" d="M464.2267,-10C475.3173,-10 486.7458,-10 497.757,-10"/>
<polygon fill="#191970" stroke="#191970" points="464.1582,-6.5001 454.1581,-10 464.1581,-13.5001 464.1582,-6.5001"/>
</g>
<!-- Node135&#45;&gt;Node130 -->
<g id="edge14" class="edge">
<title>Node135&#45;&gt;Node130</title>
<path fill="none" stroke="#191970" d="M644.3623,-18.2259C652.7925,-19.1108 661.3658,-20.0108 669.7824,-20.8943"/>
<polygon fill="#191970" stroke="#191970" points="644.4812,-14.7192 634.1704,-17.156 643.7504,-21.681 644.4812,-14.7192"/>
</g>
</g>
</svg>
