<?xml version="1.0" encoding="UTF-8" standalone="no"?>
<!DOCTYPE svg PUBLIC "-//W3C//DTD SVG 1.1//EN"
 "http://www.w3.org/Graphics/SVG/1.1/DTD/svg11.dtd">
<!-- Generated by graphviz version 2.40.1 (20161225.0304)
 -->
<!-- Title: UIElement::drawButtonFrame Pages: 1 -->
<svg width="351pt" height="66pt"
 viewBox="0.00 0.00 351.00 66.00" xmlns="http://www.w3.org/2000/svg" xmlns:xlink="http://www.w3.org/1999/xlink">
<g id="graph0" class="graph" transform="scale(1 1) rotate(0) translate(4 62)">
<title>UIElement::drawButtonFrame</title>
<!-- Node51 -->
<g id="node1" class="node">
<title>Node51</title>
<polygon fill="#bfbfbf" stroke="#000000" points="0,-19.5 0,-38.5 160,-38.5 160,-19.5 0,-19.5"/>
<text text-anchor="middle" x="80" y="-26.5" font-family="Helvetica,sans-Serif" font-size="10.00" fill="#000000">UIElement::drawButtonFrame</text>
</g>
<!-- Node52 -->
<g id="node2" class="node">
<title>Node52</title>
<g id="a_node2"><a xlink:href="classUIElement.html#a98725ac250168ebb2fa676dd481ff495" target="_top" xlink:title="Get the button state Get the current mouse button pressed state. ">
<polygon fill="none" stroke="#000000" points="196,-38.5 196,-57.5 343,-57.5 343,-38.5 196,-38.5"/>
<text text-anchor="middle" x="269.5" y="-45.5" font-family="Helvetica,sans-Serif" font-size="10.00" fill="#000000">UIElement::getButtonState</text>
</a>
</g>
</g>
<!-- Node51&#45;&gt;Node52 -->
<g id="edge1" class="edge">
<title>Node51&#45;&gt;Node52</title>
<path fill="none" stroke="#191970" d="M160.0904,-37.0302C168.4927,-37.8726 177.0525,-38.7309 185.4971,-39.5775"/>
<polygon fill="#191970" stroke="#191970" points="185.4226,-43.0875 195.722,-40.6027 186.121,-36.1225 185.4226,-43.0875"/>
</g>
<!-- Node53 -->
<g id="node3" class="node">
<title>Node53</title>
<g id="a_node3"><a xlink:href="classUIElement.html#a4aca28b5f308b875340868697d0cc50c" target="_top" xlink:title="Draws a filled rectangle to the screen. Draws a filled rectangle to the screen. ">
<polygon fill="none" stroke="#000000" points="198,-.5 198,-19.5 341,-19.5 341,-.5 198,-.5"/>
<text text-anchor="middle" x="269.5" y="-7.5" font-family="Helvetica,sans-Serif" font-size="10.00" fill="#000000">UIElement::drawSolidRect</text>
</a>
</g>
</g>
<!-- Node51&#45;&gt;Node53 -->
<g id="edge2" class="edge">
<title>Node51&#45;&gt;Node53</title>
<path fill="none" stroke="#191970" d="M160.0904,-20.9698C169.1911,-20.0574 178.4767,-19.1264 187.6003,-18.2116"/>
<polygon fill="#191970" stroke="#191970" points="188.2129,-21.6678 197.8139,-17.1875 187.5145,-14.7027 188.2129,-21.6678"/>
</g>
</g>
</svg>
