<?xml version="1.0" encoding="UTF-8" standalone="no"?>
<!DOCTYPE svg PUBLIC "-//W3C//DTD SVG 1.1//EN"
 "http://www.w3.org/Graphics/SVG/1.1/DTD/svg11.dtd">
<!-- Generated by graphviz version 2.40.1 (20161225.0304)
 -->
<!-- Title: Map::updateAllNodes Pages: 1 -->
<!--zoomable 253 -->
<svg id="main" version="1.1" xmlns="http://www.w3.org/2000/svg" xmlns:xlink="http://www.w3.org/1999/xlink" xml:space="preserve" onload="init(evt)">
<style type="text/css"><![CDATA[
.edge:hover path { stroke: red; }
.edge:hover polygon { stroke: red; fill: red; }
]]></style>
<script type="text/javascript"><![CDATA[
var edges = document.getElementsByTagName('g');
if (edges && edges.length) {
  for (var i=0;i<edges.length;i++) {
    if (edges[i].id.substr(0,4)=='edge') {
      edges[i].setAttribute('class','edge');
    }
  }
}
]]></script>
        <defs>
                <circle id="rim" cx="0" cy="0" r="7"/>
                <circle id="rim2" cx="0" cy="0" r="3.5"/>
                <g id="zoomPlus">
                        <use xlink:href="#rim" fill="#404040">
                                <set attributeName="fill" to="#808080" begin="zoomplus.mouseover" end="zoomplus.mouseout"/>
                        </use>
                        <path d="M-4,0h8M0,-4v8" fill="none" stroke="white" stroke-width="1.5" pointer-events="none"/>
                </g>
                <g id="zoomMin">
                        <use xlink:href="#rim" fill="#404040">
                                <set attributeName="fill" to="#808080" begin="zoomminus.mouseover" end="zoomminus.mouseout"/>
                        </use>
                        <path d="M-4,0h8" fill="none" stroke="white" stroke-width="1.5" pointer-events="none"/>
                </g>
                <g id="dirArrow">
                        <path fill="none" stroke="white" stroke-width="1.5" d="M0,-3.0v7 M-2.5,-0.5L0,-3.0L2.5,-0.5"/>
                </g>
               <g id="resetDef">
                       <use xlink:href="#rim2" fill="#404040">
                               <set attributeName="fill" to="#808080" begin="reset.mouseover" end="reset.mouseout"/>
                       </use>
               </g>
        </defs>

<script type="text/javascript">
var viewWidth = 1229;
var viewHeight = 253;
var sectionId = 'dynsection-45';
</script>
<script xlink:href="svgpan.js"/>
<svg id="graph" class="graph">
<g id="viewport">
<title>Map::updateAllNodes</title>
<!-- Node494 -->
<g id="node1" class="node">
<title>Node494</title>
<polygon fill="#bfbfbf" stroke="#000000" points="0,-76.5 0,-95.5 120,-95.5 120,-76.5 0,-76.5"/>
<text text-anchor="middle" x="60" y="-83.5" font-family="Helvetica,sans-Serif" font-size="10.00" fill="#000000">Map::updateAllNodes</text>
</g>
<!-- Node495 -->
<g id="node2" class="node">
<title>Node495</title>
<g id="a_node2"><a xlink:href="classMap.html#a59d21f2688713fbcfe320eb1b24405ca" target="_top" xlink:title="Update mapNode and its adjacent tiles Updates mapNode height information, draws slopes for adjacent t...">
<polygon fill="none" stroke="#000000" points="156,-76.5 156,-95.5 319,-95.5 319,-76.5 156,-76.5"/>
<text text-anchor="middle" x="237.5" y="-83.5" font-family="Helvetica,sans-Serif" font-size="10.00" fill="#000000">Map::updateNeighborsOfNode</text>
</a>
</g>
</g>
<!-- Node494&#45;&gt;Node495 -->
<g id="edge1" class="edge">
<title>Node494&#45;&gt;Node495</title>
<path fill="none" stroke="#191970" d="M120.0934,-86C128.3342,-86 136.9443,-86 145.5944,-86"/>
<polygon fill="#191970" stroke="#191970" points="145.7476,-89.5001 155.7476,-86 145.7475,-82.5001 145.7476,-89.5001"/>
</g>
<!-- Node496 -->
<g id="node3" class="node">
<title>Node496</title>
<g id="a_node3"><a xlink:href="classMap.html#aab37e4a52faf81e9b696b8cf1bd9a690" target="_top" xlink:title="Get neighbor MapNode Objects Stores pointers to the neighboring nodes of the given coordinates in the...">
<polygon fill="none" stroke="#000000" points="562.5,-38.5 562.5,-57.5 670.5,-57.5 670.5,-38.5 562.5,-38.5"/>
<text text-anchor="middle" x="616.5" y="-45.5" font-family="Helvetica,sans-Serif" font-size="10.00" fill="#000000">Map::getNeighbors</text>
</a>
</g>
</g>
<!-- Node495&#45;&gt;Node496 -->
<g id="edge2" class="edge">
<title>Node495&#45;&gt;Node496</title>
<path fill="none" stroke="#191970" d="M290.0046,-76.4996C310.2603,-73.1002 333.6546,-69.4964 355,-67 421.9686,-59.1679 498.9878,-54.0383 552.0061,-51.1058"/>
<polygon fill="#191970" stroke="#191970" points="552.484,-54.5852 562.2797,-50.5485 552.1048,-47.5954 552.484,-54.5852"/>
</g>
<!-- Node497 -->
<g id="node4" class="node">
<title>Node497</title>
<g id="a_node4"><a xlink:href="classMap.html#a0ff55eb041cdf29aa582a21145319ce0" target="_top" xlink:title="Get elevated neighbor positions in a bitmask Checks all neighboring tiles and returns the elevated ne...">
<polygon fill="none" stroke="#000000" points="365,-171 365,-201 511,-201 511,-171 365,-171"/>
<text text-anchor="start" x="373" y="-189" font-family="Helvetica,sans-Serif" font-size="10.00" fill="#000000">Map::getElevatedNeighbor</text>
<text text-anchor="middle" x="438" y="-178" font-family="Helvetica,sans-Serif" font-size="10.00" fill="#000000">Bitmask</text>
</a>
</g>
</g>
<!-- Node495&#45;&gt;Node497 -->
<g id="edge3" class="edge">
<title>Node495&#45;&gt;Node497</title>
<path fill="none" stroke="#191970" d="M251.4863,-95.5312C273.0293,-109.9315 315.9385,-137.5122 355,-156 363.5313,-160.0379 372.7628,-163.8696 381.8636,-167.3605"/>
<polygon fill="#191970" stroke="#191970" points="380.6727,-170.6518 391.2653,-170.8695 383.1204,-164.0937 380.6727,-170.6518"/>
</g>
<!-- Node498 -->
<g id="node5" class="node">
<title>Node498</title>
<g id="a_node5"><a xlink:href="classMap.html#aa8cc2ed983007621bce12dd9d1b8ec5b" target="_top" xlink:title="Demolish a node This function gathers all tiles that should be demolished and invokes the nodes demol...">
<polygon fill="none" stroke="#000000" points="560,-123.5 560,-142.5 673,-142.5 673,-123.5 560,-123.5"/>
<text text-anchor="middle" x="616.5" y="-130.5" font-family="Helvetica,sans-Serif" font-size="10.00" fill="#000000">Map::demolishNode</text>
</a>
</g>
</g>
<!-- Node495&#45;&gt;Node498 -->
<g id="edge4" class="edge">
<title>Node495&#45;&gt;Node498</title>
<path fill="none" stroke="#191970" d="M319.274,-90.8977C331.2414,-92.6526 343.4286,-94.4461 355,-96 429.4547,-105.9985 516.2214,-114.7107 568.7197,-122.0493"/>
<polygon fill="#191970" stroke="#191970" points="568.3509,-125.5323 578.7487,-123.4987 569.3522,-118.6042 568.3509,-125.5323"/>
</g>
<!-- Node506 -->
<g id="node13" class="node">
<title>Node506</title>
<g id="a_node13"><a xlink:href="classMap.html#a3f5c7dd50cdc712e1ef18047cf619888" target="_top" xlink:title="Get a bitmask that represents same&#45;tile neighbors Checks all neighboring tiles and returns the elevat...">
<polygon fill="none" stroke="#000000" points="355,-220.5 355,-239.5 521,-239.5 521,-220.5 355,-220.5"/>
<text text-anchor="middle" x="438" y="-227.5" font-family="Helvetica,sans-Serif" font-size="10.00" fill="#000000">Map::calculateAutotileBitmask</text>
</a>
</g>
</g>
<!-- Node495&#45;&gt;Node506 -->
<g id="edge15" class="edge">
<title>Node495&#45;&gt;Node506</title>
<path fill="none" stroke="#191970" d="M243.5505,-95.6359C258.9739,-119.3446 302.2925,-180.7743 355,-211 358.9292,-213.2532 363.1069,-215.2393 367.4172,-216.9898"/>
<polygon fill="#191970" stroke="#191970" points="366.4261,-220.3531 377.0204,-220.4582 368.804,-213.7693 366.4261,-220.3531"/>
</g>
<!-- Node508 -->
<g id="node15" class="node">
<title>Node508</title>
<g id="a_node15"><a xlink:href="classMap.html#aba5154a4d917900679a3c0f7ec701561" target="_top" xlink:title="Increase Height Increases the height of the node and checks the surrounding tiles. Either draw a slope sprite or elevate the tile if necessary. ">
<polygon fill="none" stroke="#000000" points="380,-.5 380,-19.5 496,-19.5 496,-.5 380,-.5"/>
<text text-anchor="middle" x="438" y="-7.5" font-family="Helvetica,sans-Serif" font-size="10.00" fill="#000000">Map::increaseHeight</text>
</a>
</g>
</g>
<!-- Node495&#45;&gt;Node508 -->
<g id="edge17" class="edge">
<title>Node495&#45;&gt;Node508</title>
<path fill="none" stroke="#191970" d="M246.7662,-76.4834C266.3842,-62.7213 313.7041,-40.0303 355,-25 359.8101,-23.2493 364.8126,-21.5389 369.8708,-19.9104"/>
<polygon fill="#191970" stroke="#191970" points="371.112,-23.1902 379.6308,-16.8908 369.043,-16.5029 371.112,-23.1902"/>
</g>
<!-- Node509 -->
<g id="node16" class="node">
<title>Node509</title>
<g id="a_node16"><a xlink:href="classMap.html#afb8cc864df90d273a5074872d635dc40" target="_top" xlink:title="Decrease Height Decreases the height of the node and checks the surrounding tiles. Either draw a slope sprite or lower the tile if necessary. ">
<polygon fill="none" stroke="#000000" points="378.5,-76.5 378.5,-95.5 497.5,-95.5 497.5,-76.5 378.5,-76.5"/>
<text text-anchor="middle" x="438" y="-83.5" font-family="Helvetica,sans-Serif" font-size="10.00" fill="#000000">Map::decreaseHeight</text>
</a>
</g>
</g>
<!-- Node495&#45;&gt;Node509 -->
<g id="edge23" class="edge">
<title>Node495&#45;&gt;Node509</title>
<path fill="none" stroke="#191970" d="M319.051,-79.3555C335.3263,-79.1699 352.2832,-79.2292 368.123,-79.5332"/>
<polygon fill="#191970" stroke="#191970" points="368.2746,-83.0376 378.3524,-79.7683 368.4354,-76.0394 368.2746,-83.0376"/>
</g>
<!-- Node498&#45;&gt;Node495 -->
<g id="edge14" class="edge">
<title>Node498&#45;&gt;Node495</title>
<path fill="none" stroke="#191970" d="M559.7727,-134.7944C506.7331,-131.7504 425.3678,-123.4497 355,-114 324.3145,-109.8793 289.2994,-104.0738 265.5334,-98.1628"/>
<polygon fill="#191970" stroke="#191970" points="266.3381,-94.7549 255.7722,-95.5369 264.5196,-101.5146 266.3381,-94.7549"/>
</g>
<!-- Node499 -->
<g id="node6" class="node">
<title>Node499</title>
<g id="a_node6"><a xlink:href="isoMath_8cxx.html#a7fa61c3d8ef446fb1c48dc4838023649" target="_top" xlink:title="Check if given coordinates are within map boundaries Checks if coordinates are within map boundaries...">
<polygon fill="none" stroke="#000000" points="916,-70.5 916,-89.5 1072,-89.5 1072,-70.5 916,-70.5"/>
<text text-anchor="middle" x="994" y="-77.5" font-family="Helvetica,sans-Serif" font-size="10.00" fill="#000000">isPointWithinMapBoundaries</text>
</a>
</g>
</g>
<!-- Node498&#45;&gt;Node499 -->
<g id="edge5" class="edge">
<title>Node498&#45;&gt;Node499</title>
<path fill="none" stroke="#191970" d="M673.0156,-125.0654C737.6455,-115.9915 843.8436,-101.0816 916.2456,-90.9165"/>
<polygon fill="#191970" stroke="#191970" points="916.8134,-94.3712 926.2297,-89.5148 915.8401,-87.4392 916.8134,-94.3712"/>
</g>
<!-- Node501 -->
<g id="node8" class="node">
<title>Node501</title>
<g id="a_node8"><a xlink:href="classMapNode.html#a6b57e4355d0780fb37c34d63bbcdfdf9" target="_top" xlink:title="MapNode::getMapNodeDataFor\lLayer">
<polygon fill="none" stroke="#000000" points="712,-214 712,-244 880,-244 880,-214 712,-214"/>
<text text-anchor="start" x="720" y="-232" font-family="Helvetica,sans-Serif" font-size="10.00" fill="#000000">MapNode::getMapNodeDataFor</text>
<text text-anchor="middle" x="796" y="-221" font-family="Helvetica,sans-Serif" font-size="10.00" fill="#000000">Layer</text>
</a>
</g>
</g>
<!-- Node498&#45;&gt;Node501 -->
<g id="edge7" class="edge">
<title>Node498&#45;&gt;Node501</title>
<path fill="none" stroke="#191970" d="M626.8473,-142.6501C643.5451,-157.7463 678.0099,-186.9778 712,-204 716.5597,-206.2835 721.3653,-208.3976 726.2742,-210.3475"/>
<polygon fill="#191970" stroke="#191970" points="725.2115,-213.6865 735.8043,-213.8963 727.6543,-207.1266 725.2115,-213.6865"/>
</g>
<!-- Node502 -->
<g id="node9" class="node">
<title>Node502</title>
<g id="a_node9"><a xlink:href="classMap.html#ab6685363fde5a50c749adab9df96c231" target="_top" xlink:title="whether a node is a multiobject or not (bigger than 1x1 building) ">
<polygon fill="none" stroke="#000000" points="730,-137.5 730,-156.5 862,-156.5 862,-137.5 730,-137.5"/>
<text text-anchor="middle" x="796" y="-144.5" font-family="Helvetica,sans-Serif" font-size="10.00" fill="#000000">Map::isNodeMultiObject</text>
</a>
</g>
</g>
<!-- Node498&#45;&gt;Node502 -->
<g id="edge8" class="edge">
<title>Node498&#45;&gt;Node502</title>
<path fill="none" stroke="#191970" d="M673.2949,-137.4297C688.0395,-138.5797 704.1622,-139.8372 719.731,-141.0514"/>
<polygon fill="#191970" stroke="#191970" points="719.62,-144.5533 729.8619,-141.8416 720.1643,-137.5745 719.62,-144.5533"/>
</g>
<!-- Node504 -->
<g id="node11" class="node">
<title>Node504</title>
<g id="a_node11"><a xlink:href="classMap.html#a3952b445c55efce61c1ccac6f362fe89" target="_top" xlink:title="Return vector of Points of an Object Tiles selection. ">
<polygon fill="none" stroke="#000000" points="734,-175.5 734,-194.5 858,-194.5 858,-175.5 734,-175.5"/>
<text text-anchor="middle" x="796" y="-182.5" font-family="Helvetica,sans-Serif" font-size="10.00" fill="#000000">Map::getObjectCoords</text>
</a>
</g>
</g>
<!-- Node498&#45;&gt;Node504 -->
<g id="edge11" class="edge">
<title>Node498&#45;&gt;Node504</title>
<path fill="none" stroke="#191970" d="M641.7936,-142.595C660.9039,-149.6348 687.8754,-159.1261 712,-166 720.8703,-168.5274 730.3432,-170.94 739.6132,-173.1464"/>
<polygon fill="#191970" stroke="#191970" points="739.0217,-176.6022 749.5543,-175.4553 740.6054,-169.7836 739.0217,-176.6022"/>
</g>
<!-- Node500 -->
<g id="node7" class="node">
<title>Node500</title>
<g id="a_node7"><a xlink:href="classSingleton.html#af5cb1e5749949e2b68416cfb8d378044" target="_top" xlink:title="Get an instance of the singleton. ">
<polygon fill="none" stroke="#000000" points="1108,-65 1108,-95 1221,-95 1221,-65 1108,-65"/>
<text text-anchor="start" x="1116" y="-83" font-family="Helvetica,sans-Serif" font-size="10.00" fill="#000000">Singleton&lt; Settings</text>
<text text-anchor="middle" x="1164.5" y="-72" font-family="Helvetica,sans-Serif" font-size="10.00" fill="#000000"> &gt;::instance</text>
</a>
</g>
</g>
<!-- Node499&#45;&gt;Node500 -->
<g id="edge6" class="edge">
<title>Node499&#45;&gt;Node500</title>
<path fill="none" stroke="#191970" d="M1072.2638,-80C1080.635,-80 1089.0967,-80 1097.323,-80"/>
<polygon fill="#191970" stroke="#191970" points="1097.5927,-83.5001 1107.5927,-80 1097.5926,-76.5001 1097.5927,-83.5001"/>
</g>
<!-- Node502&#45;&gt;Node499 -->
<g id="edge9" class="edge">
<title>Node502&#45;&gt;Node499</title>
<path fill="none" stroke="#191970" d="M831.7574,-137.484C846.7466,-133.3142 864.3047,-128.1925 880,-123 907.4649,-113.9138 938.1202,-102.2637 960.7186,-93.3822"/>
<polygon fill="#191970" stroke="#191970" points="962.1733,-96.5708 970.1854,-89.6385 959.599,-90.0613 962.1733,-96.5708"/>
</g>
<!-- Node503 -->
<g id="node10" class="node">
<title>Node503</title>
<g id="a_node10"><a xlink:href="classMapNode.html#adf88174897b884c97d327e710dea7f5e" target="_top" xlink:title="MapNode::getTileData">
<polygon fill="none" stroke="#000000" points="931.5,-127.5 931.5,-146.5 1056.5,-146.5 1056.5,-127.5 931.5,-127.5"/>
<text text-anchor="middle" x="994" y="-134.5" font-family="Helvetica,sans-Serif" font-size="10.00" fill="#000000">MapNode::getTileData</text>
</a>
</g>
</g>
<!-- Node502&#45;&gt;Node503 -->
<g id="edge10" class="edge">
<title>Node502&#45;&gt;Node503</title>
<path fill="none" stroke="#191970" d="M862.2064,-143.6562C881.0748,-142.7033 901.735,-141.6599 920.9846,-140.6876"/>
<polygon fill="#191970" stroke="#191970" points="921.3974,-144.1714 931.2081,-140.1713 921.0443,-137.1803 921.3974,-144.1714"/>
</g>
<!-- Node504&#45;&gt;Node500 -->
<g id="edge12" class="edge">
<title>Node504&#45;&gt;Node500</title>
<path fill="none" stroke="#191970" d="M858.2558,-188.4702C915.9,-189.4031 1002.8843,-184.9156 1072,-156 1100.4328,-144.1047 1126.963,-120.4895 1144.2545,-102.7233"/>
<polygon fill="#191970" stroke="#191970" points="1147.1963,-104.7064 1151.5229,-95.0352 1142.1096,-99.8974 1147.1963,-104.7064"/>
</g>
<!-- Node505 -->
<g id="node12" class="node">
<title>Node505</title>
<g id="a_node12"><a xlink:href="classTileManager.html#a8ee071ff8b24926288437d310f9bc714" target="_top" xlink:title="TileManager::getTileData">
<polygon fill="none" stroke="#000000" points="924,-203.5 924,-222.5 1064,-222.5 1064,-203.5 924,-203.5"/>
<text text-anchor="middle" x="994" y="-210.5" font-family="Helvetica,sans-Serif" font-size="10.00" fill="#000000">TileManager::getTileData</text>
</a>
</g>
</g>
<!-- Node504&#45;&gt;Node505 -->
<g id="edge13" class="edge">
<title>Node504&#45;&gt;Node505</title>
<path fill="none" stroke="#191970" d="M858.1052,-193.7826C876.648,-196.4048 897.206,-199.312 916.6012,-202.0547"/>
<polygon fill="#191970" stroke="#191970" points="916.2292,-205.5369 926.6208,-203.4716 917.2095,-198.6058 916.2292,-205.5369"/>
</g>
<!-- Node507 -->
<g id="node14" class="node">
<title>Node507</title>
<g id="a_node14"><a xlink:href="classMap.html#a4700614f8c7d02b9ca18ad7e916a2312" target="_top" xlink:title="Map::isLayerAutoTile">
<polygon fill="none" stroke="#000000" points="557,-220.5 557,-239.5 676,-239.5 676,-220.5 557,-220.5"/>
<text text-anchor="middle" x="616.5" y="-227.5" font-family="Helvetica,sans-Serif" font-size="10.00" fill="#000000">Map::isLayerAutoTile</text>
</a>
</g>
</g>
<!-- Node506&#45;&gt;Node507 -->
<g id="edge16" class="edge">
<title>Node506&#45;&gt;Node507</title>
<path fill="none" stroke="#191970" d="M521.2401,-230C529.7696,-230 538.3725,-230 546.7355,-230"/>
<polygon fill="#191970" stroke="#191970" points="546.7965,-233.5001 556.7965,-230 546.7964,-226.5001 546.7965,-233.5001"/>
</g>
<!-- Node508&#45;&gt;Node495 -->
<g id="edge22" class="edge">
<title>Node508&#45;&gt;Node495</title>
<path fill="none" stroke="#191970" d="M424.5972,-19.5968C408.0392,-26.466 379.1032,-34.2273 355,-43 330.6226,-51.8725 304.1461,-63.4145 282.5079,-72.5262"/>
<polygon fill="#191970" stroke="#191970" points="281.1214,-69.3123 273.2421,-76.3951 283.8186,-75.7718 281.1214,-69.3123"/>
</g>
<!-- Node508&#45;&gt;Node496 -->
<g id="edge19" class="edge">
<title>Node508&#45;&gt;Node496</title>
<path fill="none" stroke="#191970" d="M483.0431,-19.589C507.0225,-24.6939 536.6979,-31.0113 561.9721,-36.3918"/>
<polygon fill="#191970" stroke="#191970" points="561.2712,-39.821 571.7808,-38.4799 562.7288,-32.9744 561.2712,-39.821"/>
</g>
<!-- Node508&#45;&gt;Node498 -->
<g id="edge21" class="edge">
<title>Node508&#45;&gt;Node498</title>
<path fill="none" stroke="#191970" d="M452.1072,-19.6694C468.6285,-30.9979 496.8162,-50.3393 521,-67 546.0734,-84.2736 574.8121,-104.1447 594.1581,-117.532"/>
<polygon fill="#191970" stroke="#191970" points="592.3764,-120.5554 602.591,-123.3685 596.3601,-114.7995 592.3764,-120.5554"/>
</g>
<!-- Node508&#45;&gt;Node499 -->
<g id="edge20" class="edge">
<title>Node508&#45;&gt;Node499</title>
<path fill="none" stroke="#191970" d="M496.3256,-13.3604C544.5867,-16.4517 614.8832,-21.6713 676,-29 765.7165,-39.7582 868.8854,-57.2572 932.7706,-68.6994"/>
<polygon fill="#191970" stroke="#191970" points="932.2167,-72.1559 942.6784,-70.4819 933.4562,-65.2665 932.2167,-72.1559"/>
</g>
<!-- Node508&#45;&gt;Node500 -->
<g id="edge18" class="edge">
<title>Node508&#45;&gt;Node500</title>
<path fill="none" stroke="#191970" d="M496.2293,-9.9809C544.4339,-10.2049 614.7013,-11.0838 676,-14 853.0351,-22.4223 897.6706,-29.0374 1072,-61 1080.345,-62.53 1089.096,-64.2179 1097.7479,-65.9372"/>
<polygon fill="#191970" stroke="#191970" points="1097.3352,-69.4242 1107.8287,-67.9625 1098.714,-62.5613 1097.3352,-69.4242"/>
</g>
<!-- Node509&#45;&gt;Node495 -->
<g id="edge27" class="edge">
<title>Node509&#45;&gt;Node495</title>
<path fill="none" stroke="#191970" d="M378.3524,-92.2317C362.9429,-92.6469 345.9933,-92.8127 329.3544,-92.7289"/>
<polygon fill="#191970" stroke="#191970" points="329.0794,-89.2266 319.051,-92.6445 329.022,-96.2264 329.0794,-89.2266"/>
</g>
<!-- Node509&#45;&gt;Node496 -->
<g id="edge24" class="edge">
<title>Node509&#45;&gt;Node496</title>
<path fill="none" stroke="#191970" d="M483.0431,-76.411C507.0225,-71.3061 536.6979,-64.9887 561.9721,-59.6082"/>
<polygon fill="#191970" stroke="#191970" points="562.7288,-63.0256 571.7808,-57.5201 561.2712,-56.179 562.7288,-63.0256"/>
</g>
<!-- Node509&#45;&gt;Node498 -->
<g id="edge26" class="edge">
<title>Node509&#45;&gt;Node498</title>
<path fill="none" stroke="#191970" d="M474.1221,-95.5112C501.8543,-102.8132 540.3463,-112.9483 570.3164,-120.8396"/>
<polygon fill="#191970" stroke="#191970" points="569.5641,-124.2607 580.1257,-123.4224 571.3465,-117.4915 569.5641,-124.2607"/>
</g>
<!-- Node509&#45;&gt;Node499 -->
<g id="edge25" class="edge">
<title>Node509&#45;&gt;Node499</title>
<path fill="none" stroke="#191970" d="M497.5017,-85.3579C595.5343,-84.3 791.4938,-82.1853 905.7248,-80.9526"/>
<polygon fill="#191970" stroke="#191970" points="905.8777,-84.4513 915.8393,-80.8435 905.8021,-77.4517 905.8777,-84.4513"/>
</g>
</g>
</svg>
        <g id="navigator" transform="translate(0 0)" fill="#404254">
                <rect fill="#f2f5e9" fill-opacity="0.5" stroke="#606060" stroke-width=".5" x="0" y="0" width="60" height="60"/>
                <use id="zoomplus" xlink:href="#zoomPlus" x="17" y="9" onmousedown="handleZoom(evt,'in')"/>
                <use id="zoomminus" xlink:href="#zoomMin" x="42" y="9" onmousedown="handleZoom(evt,'out')"/>
                <use id="reset" xlink:href="#resetDef" x="30" y="36" onmousedown="handleReset()"/>
                <g id="arrowUp" xlink:href="#dirArrow" transform="translate(30 24)" onmousedown="handlePan(0,-1)">
                  <use xlink:href="#rim" fill="#404040">
                        <set attributeName="fill" to="#808080" begin="arrowUp.mouseover" end="arrowUp.mouseout"/>
                  </use>
                  <path fill="none" stroke="white" stroke-width="1.5" d="M0,-3.0v7 M-2.5,-0.5L0,-3.0L2.5,-0.5"/>
                </g>
                <g id="arrowRight" xlink:href="#dirArrow" transform="rotate(90) translate(36 -43)" onmousedown="handlePan(1,0)">
                  <use xlink:href="#rim" fill="#404040">
                        <set attributeName="fill" to="#808080" begin="arrowRight.mouseover" end="arrowRight.mouseout"/>
                  </use>
                  <path fill="none" stroke="white" stroke-width="1.5" d="M0,-3.0v7 M-2.5,-0.5L0,-3.0L2.5,-0.5"/>
                </g>
                <g id="arrowDown" xlink:href="#dirArrow" transform="rotate(180) translate(-30 -48)" onmousedown="handlePan(0,1)">
                  <use xlink:href="#rim" fill="#404040">
                        <set attributeName="fill" to="#808080" begin="arrowDown.mouseover" end="arrowDown.mouseout"/>
                  </use>
                  <path fill="none" stroke="white" stroke-width="1.5" d="M0,-3.0v7 M-2.5,-0.5L0,-3.0L2.5,-0.5"/>
                </g>
                <g id="arrowLeft" xlink:href="#dirArrow" transform="rotate(270) translate(-36 17)" onmousedown="handlePan(-1,0)">
                  <use xlink:href="#rim" fill="#404040">
                        <set attributeName="fill" to="#808080" begin="arrowLeft.mouseover" end="arrowLeft.mouseout"/>
                  </use>
                  <path fill="none" stroke="white" stroke-width="1.5" d="M0,-3.0v7 M-2.5,-0.5L0,-3.0L2.5,-0.5"/>
                </g>
        </g>
        <svg viewBox="0 0 15 15" width="100%" height="30px" preserveAspectRatio="xMaxYMin meet">
         <g id="arrow_out" transform="scale(0.3 0.3)">
          <a xlink:href="classMap_a481b37ba71ef0e51e836fc42805762dd_cgraph_org.svg" target="_base">
           <rect id="button" ry="5" rx="5" y="6" x="6" height="38" width="38"
                fill="#f2f5e9" fill-opacity="0.5" stroke="#606060" stroke-width="1.0"/>
           <path id="arrow"
             d="M 11.500037,31.436501 C 11.940474,20.09759 22.043105,11.32322 32.158766,21.979434 L 37.068811,17.246167 C 37.068811,17.246167 37.088388,32 37.088388,32 L 22.160133,31.978069 C 22.160133,31.978069 26.997745,27.140456 26.997745,27.140456 C 18.528582,18.264221 13.291696,25.230495 11.500037,31.436501 z"
             style="fill:#404040;"/>
          </a>
         </g>
        </svg>
</svg>
