<?xml version="1.0" encoding="UTF-8" standalone="no"?>
<!DOCTYPE svg PUBLIC "-//W3C//DTD SVG 1.1//EN"
 "http://www.w3.org/Graphics/SVG/1.1/DTD/svg11.dtd">
<!-- Generated by graphviz version 2.40.1 (20161225.0304)
 -->
<!-- Title: TileManager::calculateSlopeOrientation Pages: 1 -->
<svg width="661pt" height="120pt"
 viewBox="0.00 0.00 661.00 119.61" xmlns="http://www.w3.org/2000/svg" xmlns:xlink="http://www.w3.org/1999/xlink">
<g id="graph0" class="graph" transform="scale(1 1) rotate(0) translate(4 115.611)">
<title>TileManager::calculateSlopeOrientation</title>
<!-- Node25 -->
<g id="node1" class="node">
<title>Node25</title>
<polygon fill="#bfbfbf" stroke="#000000" points="0,-52 0,-82 154,-82 154,-52 0,-52"/>
<text text-anchor="start" x="8" y="-70" font-family="Helvetica,sans-Serif" font-size="10.00" fill="#000000">TileManager::calculateSlope</text>
<text text-anchor="middle" x="77" y="-59" font-family="Helvetica,sans-Serif" font-size="10.00" fill="#000000">Orientation</text>
</g>
<!-- Node26 -->
<g id="node2" class="node">
<title>Node26</title>
<g id="a_node2"><a xlink:href="classMapNode.html#aabbb10c19ddd79e9c519eb4af5e995e0" target="_top" xlink:title="MapNode::updateTexture">
<polygon fill="none" stroke="#000000" points="190,-57.5 190,-76.5 328,-76.5 328,-57.5 190,-57.5"/>
<text text-anchor="middle" x="259" y="-64.5" font-family="Helvetica,sans-Serif" font-size="10.00" fill="#000000">MapNode::updateTexture</text>
</a>
</g>
</g>
<!-- Node25&#45;&gt;Node26 -->
<g id="edge1" class="edge">
<title>Node25&#45;&gt;Node26</title>
<path fill="none" stroke="#191970" d="M164.2145,-67C172.7919,-67 181.4142,-67 189.7759,-67"/>
<polygon fill="#191970" stroke="#191970" points="164.1844,-63.5001 154.1844,-67 164.1844,-70.5001 164.1844,-63.5001"/>
</g>
<!-- Node27 -->
<g id="node3" class="node">
<title>Node27</title>
<g id="a_node3"><a xlink:href="classMapNode.html#ae515fc96b543bf97237bfb1ca53fe571" target="_top" xlink:title="MapNode::MapNode">
<polygon fill="none" stroke="#000000" points="539,-76.5 539,-95.5 653,-95.5 653,-76.5 539,-76.5"/>
<text text-anchor="middle" x="596" y="-83.5" font-family="Helvetica,sans-Serif" font-size="10.00" fill="#000000">MapNode::MapNode</text>
</a>
</g>
</g>
<!-- Node26&#45;&gt;Node27 -->
<g id="edge2" class="edge">
<title>Node26&#45;&gt;Node27</title>
<path fill="none" stroke="#191970" d="M288.1224,-80.6421C308.7885,-89.5438 337.4605,-100.3453 364,-105 424.849,-115.6721 441.5356,-111.2144 503,-105 521.3632,-103.1434 541.4594,-99.2746 558.2574,-95.5096"/>
<polygon fill="#191970" stroke="#191970" points="289.5078,-77.4278 278.9464,-76.5876 286.6787,-83.8307 289.5078,-77.4278"/>
</g>
<!-- Node28 -->
<g id="node4" class="node">
<title>Node28</title>
<g id="a_node4"><a xlink:href="classMapNode.html#a92b521fa20e0a75d81523a52ba1d8250" target="_top" xlink:title="MapNode::setBitmask">
<polygon fill="none" stroke="#000000" points="371.5,-76.5 371.5,-95.5 495.5,-95.5 495.5,-76.5 371.5,-76.5"/>
<text text-anchor="middle" x="433.5" y="-83.5" font-family="Helvetica,sans-Serif" font-size="10.00" fill="#000000">MapNode::setBitmask</text>
</a>
</g>
</g>
<!-- Node26&#45;&gt;Node28 -->
<g id="edge3" class="edge">
<title>Node26&#45;&gt;Node28</title>
<path fill="none" stroke="#191970" d="M338.3436,-75.6391C349.4451,-76.8479 360.7186,-78.0754 371.4375,-79.2425"/>
<polygon fill="#191970" stroke="#191970" points="338.5378,-72.1397 328.2177,-74.5366 337.78,-79.0985 338.5378,-72.1397"/>
</g>
<!-- Node29 -->
<g id="node5" class="node">
<title>Node29</title>
<g id="a_node5"><a xlink:href="classMapNode.html#a26e55c94192a56990f8a59e7af139a73" target="_top" xlink:title="MapNode::setTileID">
<polygon fill="none" stroke="#000000" points="377.5,-38.5 377.5,-57.5 489.5,-57.5 489.5,-38.5 377.5,-38.5"/>
<text text-anchor="middle" x="433.5" y="-45.5" font-family="Helvetica,sans-Serif" font-size="10.00" fill="#000000">MapNode::setTileID</text>
</a>
</g>
</g>
<!-- Node26&#45;&gt;Node29 -->
<g id="edge4" class="edge">
<title>Node26&#45;&gt;Node29</title>
<path fill="none" stroke="#191970" d="M338.2213,-58.3742C351.392,-56.9401 364.8088,-55.4793 377.2575,-54.1238"/>
<polygon fill="#191970" stroke="#191970" points="337.78,-54.9015 328.2177,-59.4634 338.5378,-61.8603 337.78,-54.9015"/>
</g>
<!-- Node30 -->
<g id="node6" class="node">
<title>Node30</title>
<g id="a_node6"><a xlink:href="classMapNode.html#a002b868485074599fbf087fc4c96b2c9" target="_top" xlink:title="Demolish a node Removes all tiles on a node. This effects all layers where something to demolish is p...">
<polygon fill="none" stroke="#000000" points="364,-.5 364,-19.5 503,-19.5 503,-.5 364,-.5"/>
<text text-anchor="middle" x="433.5" y="-7.5" font-family="Helvetica,sans-Serif" font-size="10.00" fill="#000000">MapNode::demolishNode</text>
</a>
</g>
</g>
<!-- Node26&#45;&gt;Node30 -->
<g id="edge6" class="edge">
<title>Node26&#45;&gt;Node30</title>
<path fill="none" stroke="#191970" d="M293.3286,-53.7868C313.7244,-46.1347 340.1787,-36.5532 364,-29 374.4928,-25.6729 385.9843,-22.3881 396.5479,-19.5096"/>
<polygon fill="#191970" stroke="#191970" points="291.9588,-50.5627 283.8409,-57.3709 294.4326,-57.1111 291.9588,-50.5627"/>
</g>
<!-- Node29&#45;&gt;Node27 -->
<g id="edge5" class="edge">
<title>Node29&#45;&gt;Node27</title>
<path fill="none" stroke="#191970" d="M484.3714,-59.8961C507.2124,-65.2374 533.7953,-71.4537 555.2893,-76.4799"/>
<polygon fill="#191970" stroke="#191970" points="485.0399,-56.4581 474.5056,-57.589 483.4459,-63.2742 485.0399,-56.4581"/>
</g>
</g>
</svg>
