<?xml version="1.0" encoding="UTF-8" standalone="no"?>
<!DOCTYPE svg PUBLIC "-//W3C//DTD SVG 1.1//EN"
 "http://www.w3.org/Graphics/SVG/1.1/DTD/svg11.dtd">
<!-- Generated by graphviz version 2.40.1 (20161225.0304)
 -->
<!-- Title: Map::refresh Pages: 1 -->
<!--zoomable 230 -->
<svg id="main" version="1.1" xmlns="http://www.w3.org/2000/svg" xmlns:xlink="http://www.w3.org/1999/xlink" xml:space="preserve" onload="init(evt)">
<style type="text/css"><![CDATA[
.edge:hover path { stroke: red; }
.edge:hover polygon { stroke: red; fill: red; }
]]></style>
<script type="text/javascript"><![CDATA[
var edges = document.getElementsByTagName('g');
if (edges && edges.length) {
  for (var i=0;i<edges.length;i++) {
    if (edges[i].id.substr(0,4)=='edge') {
      edges[i].setAttribute('class','edge');
    }
  }
}
]]></script>
        <defs>
                <circle id="rim" cx="0" cy="0" r="7"/>
                <circle id="rim2" cx="0" cy="0" r="3.5"/>
                <g id="zoomPlus">
                        <use xlink:href="#rim" fill="#404040">
                                <set attributeName="fill" to="#808080" begin="zoomplus.mouseover" end="zoomplus.mouseout"/>
                        </use>
                        <path d="M-4,0h8M0,-4v8" fill="none" stroke="white" stroke-width="1.5" pointer-events="none"/>
                </g>
                <g id="zoomMin">
                        <use xlink:href="#rim" fill="#404040">
                                <set attributeName="fill" to="#808080" begin="zoomminus.mouseover" end="zoomminus.mouseout"/>
                        </use>
                        <path d="M-4,0h8" fill="none" stroke="white" stroke-width="1.5" pointer-events="none"/>
                </g>
                <g id="dirArrow">
                        <path fill="none" stroke="white" stroke-width="1.5" d="M0,-3.0v7 M-2.5,-0.5L0,-3.0L2.5,-0.5"/>
                </g>
               <g id="resetDef">
                       <use xlink:href="#rim2" fill="#404040">
                               <set attributeName="fill" to="#808080" begin="reset.mouseover" end="reset.mouseout"/>
                       </use>
               </g>
        </defs>

<script type="text/javascript">
var viewWidth = 1174;
var viewHeight = 230;
var sectionId = 'dynsection-37';
</script>
<script xlink:href="svgpan.js"/>
<svg id="graph" class="graph">
<g id="viewport">
<title>Map::refresh</title>
<!-- Node422 -->
<g id="node1" class="node">
<title>Node422</title>
<polygon fill="#bfbfbf" stroke="#000000" points="0,-126 0,-145 77,-145 77,-126 0,-126"/>
<text text-anchor="middle" x="38.5" y="-133" font-family="Helvetica,sans-Serif" font-size="10.00" fill="#000000">Map::refresh</text>
</g>
<!-- Node423 -->
<g id="node2" class="node">
<title>Node423</title>
<g id="a_node2"><a xlink:href="classCamera.html#a0a8ee04ccb4f4cc9af52a964cf225f66" target="_top" xlink:title="Increases the zoom level of the camera Increases the zoom level of the camera. ">
<polygon fill="none" stroke="#000000" points="313.5,-126 313.5,-145 470.5,-145 470.5,-126 313.5,-126"/>
<text text-anchor="middle" x="392" y="-133" font-family="Helvetica,sans-Serif" font-size="10.00" fill="#000000">Camera::increaseZoomLevel</text>
</a>
</g>
</g>
<!-- Node422&#45;&gt;Node423 -->
<g id="edge1" class="edge">
<title>Node422&#45;&gt;Node423</title>
<path fill="none" stroke="#191970" d="M87.0633,-135.5C145.4175,-135.5 244.1065,-135.5 313.3694,-135.5"/>
<polygon fill="#191970" stroke="#191970" points="87.0037,-132.0001 77.0036,-135.5 87.0036,-139.0001 87.0037,-132.0001"/>
</g>
<!-- Node425 -->
<g id="node4" class="node">
<title>Node425</title>
<g id="a_node4"><a xlink:href="classEventManager.html#a65ec91fd5016d4f9c4167fb8babed2df" target="_top" xlink:title="EventManager::checkEvents">
<polygon fill="none" stroke="#000000" points="702,-107 702,-126 856,-126 856,-107 702,-107"/>
<text text-anchor="middle" x="779" y="-114" font-family="Helvetica,sans-Serif" font-size="10.00" fill="#000000">EventManager::checkEvents</text>
</a>
</g>
</g>
<!-- Node422&#45;&gt;Node425 -->
<g id="edge17" class="edge">
<title>Node422&#45;&gt;Node425</title>
<path fill="none" stroke="#191970" d="M87.2376,-145.8188C95.7885,-147.2967 104.6282,-148.614 113,-149.5 357.4453,-175.3694 422.6174,-174.9617 666,-140.5 691.0205,-136.9572 718.7856,-131.0879 740.5323,-126.0405"/>
<polygon fill="#191970" stroke="#191970" points="87.8422,-142.3715 77.3774,-144.0265 86.5902,-149.2586 87.8422,-142.3715"/>
</g>
<!-- Node429 -->
<g id="node8" class="node">
<title>Node429</title>
<g id="a_node8"><a xlink:href="classCamera.html#aeea39f352d5873495dea6f376cf3207e" target="_top" xlink:title="Decreases the zoom level of the camera Decreases the zoom level of the camera. ">
<polygon fill="none" stroke="#000000" points="312,-50 312,-69 472,-69 472,-50 312,-50"/>
<text text-anchor="middle" x="392" y="-57" font-family="Helvetica,sans-Serif" font-size="10.00" fill="#000000">Camera::decreaseZoomLevel</text>
</a>
</g>
</g>
<!-- Node422&#45;&gt;Node429 -->
<g id="edge8" class="edge">
<title>Node422&#45;&gt;Node429</title>
<path fill="none" stroke="#191970" d="M54.823,-118.3821C68.8409,-104.9165 90.3258,-87.0488 113,-78.5 176.8266,-54.4357 254.6317,-51.0627 311.8465,-52.9175"/>
<polygon fill="#191970" stroke="#191970" points="52.0938,-116.1606 47.4797,-125.698 57.0343,-121.1196 52.0938,-116.1606"/>
</g>
<!-- Node430 -->
<g id="node9" class="node">
<title>Node430</title>
<g id="a_node9"><a xlink:href="classCamera.html#adfb240823ff20b97b69459490dbd8dc3" target="_top" xlink:title="Centers camera on given isometric coordinates Centers the camera on the given isometric coordinates...">
<polygon fill="none" stroke="#000000" points="113,-88 113,-107 276,-107 276,-88 113,-88"/>
<text text-anchor="middle" x="194.5" y="-95" font-family="Helvetica,sans-Serif" font-size="10.00" fill="#000000">Camera::centerScreenOnPoint</text>
</a>
</g>
</g>
<!-- Node422&#45;&gt;Node430 -->
<g id="edge11" class="edge">
<title>Node422&#45;&gt;Node430</title>
<path fill="none" stroke="#191970" d="M86.874,-123.7166C108.8622,-118.3605 134.5397,-112.1057 155.2982,-107.0491"/>
<polygon fill="#191970" stroke="#191970" points="85.9493,-120.3394 77.0618,-126.1067 87.6061,-127.1405 85.9493,-120.3394"/>
</g>
<!-- Node432 -->
<g id="node11" class="node">
<title>Node432</title>
<g id="a_node11"><a xlink:href="classMap.html#a404c38b33d61f8c63ce2c2efb864d6dd" target="_top" xlink:title="Set the Tile ID Of Node object Also invokes all necessary texture updates (auto&#45;tiling, slopes, ...) ">
<polygon fill="none" stroke="#000000" points="133,-202 133,-221 256,-221 256,-202 133,-202"/>
<text text-anchor="middle" x="194.5" y="-209" font-family="Helvetica,sans-Serif" font-size="10.00" fill="#000000">Map::setTileIDOfNode</text>
</a>
</g>
</g>
<!-- Node422&#45;&gt;Node432 -->
<g id="edge18" class="edge">
<title>Node422&#45;&gt;Node432</title>
<path fill="none" stroke="#191970" d="M58.0259,-151.7749C72.453,-163.1182 92.9846,-177.8838 113,-187.5 125.3646,-193.4404 139.5013,-198.2321 152.4909,-201.9257"/>
<polygon fill="#191970" stroke="#191970" points="59.8768,-148.7719 49.8911,-145.231 55.4892,-154.2262 59.8768,-148.7719"/>
</g>
<!-- Node424 -->
<g id="node3" class="node">
<title>Node424</title>
<g id="a_node3"><a xlink:href="classCamera.html#a1f8ecd427814c5a4970223c2d13b9310" target="_top" xlink:title="Camera::setPinchDistance">
<polygon fill="none" stroke="#000000" points="514.5,-88 514.5,-107 659.5,-107 659.5,-88 514.5,-88"/>
<text text-anchor="middle" x="587" y="-95" font-family="Helvetica,sans-Serif" font-size="10.00" fill="#000000">Camera::setPinchDistance</text>
</a>
</g>
</g>
<!-- Node423&#45;&gt;Node424 -->
<g id="edge2" class="edge">
<title>Node423&#45;&gt;Node424</title>
<path fill="none" stroke="#191970" d="M450.9588,-124.0106C478.782,-118.5886 511.5957,-112.1942 538.0248,-107.0439"/>
<polygon fill="#191970" stroke="#191970" points="450.1009,-120.6118 440.955,-125.96 451.4399,-127.4826 450.1009,-120.6118"/>
</g>
<!-- Node423&#45;&gt;Node425 -->
<g id="edge7" class="edge">
<title>Node423&#45;&gt;Node425</title>
<path fill="none" stroke="#191970" d="M480.8735,-131.1367C547.6684,-127.8574 638.2485,-123.4103 701.9795,-120.2814"/>
<polygon fill="#191970" stroke="#191970" points="480.598,-127.6459 470.7817,-131.6322 480.9413,-134.6375 480.598,-127.6459"/>
</g>
<!-- Node424&#45;&gt;Node425 -->
<g id="edge3" class="edge">
<title>Node424&#45;&gt;Node425</title>
<path fill="none" stroke="#191970" d="M669.7207,-105.6859C680.3799,-106.7407 691.2617,-107.8176 701.8269,-108.8631"/>
<polygon fill="#191970" stroke="#191970" points="669.8831,-102.185 659.587,-104.6831 669.1937,-109.1509 669.8831,-102.185"/>
</g>
<!-- Node426 -->
<g id="node5" class="node">
<title>Node426</title>
<g id="a_node5"><a xlink:href="classGame.html#a1c2ab25d5216b2f4b2fe41efd2c09114" target="_top" xlink:title="begins the game starts running the game ">
<polygon fill="none" stroke="#000000" points="892,-66 892,-85 960,-85 960,-66 892,-66"/>
<text text-anchor="middle" x="926" y="-73" font-family="Helvetica,sans-Serif" font-size="10.00" fill="#000000">Game::run</text>
</a>
</g>
</g>
<!-- Node425&#45;&gt;Node426 -->
<g id="edge4" class="edge">
<title>Node425&#45;&gt;Node426</title>
<path fill="none" stroke="#191970" d="M822.8958,-104.2569C844.9621,-98.1024 871.3026,-90.7557 891.8363,-85.0286"/>
<polygon fill="#191970" stroke="#191970" points="821.7863,-100.9327 813.0942,-106.9907 823.6669,-107.6754 821.7863,-100.9327"/>
</g>
<!-- Node427 -->
<g id="node6" class="node">
<title>Node427</title>
<g id="a_node6"><a xlink:href="main_8cxx.html#af582d708d899e67ead623eac34a22387" target="_top" xlink:title="protected_main">
<polygon fill="none" stroke="#000000" points="996,-66 996,-85 1089,-85 1089,-66 996,-66"/>
<text text-anchor="middle" x="1042.5" y="-73" font-family="Helvetica,sans-Serif" font-size="10.00" fill="#000000">protected_main</text>
</a>
</g>
</g>
<!-- Node426&#45;&gt;Node427 -->
<g id="edge5" class="edge">
<title>Node426&#45;&gt;Node427</title>
<path fill="none" stroke="#191970" d="M970.2653,-75.5C978.5757,-75.5 987.2897,-75.5 995.6749,-75.5"/>
<polygon fill="#191970" stroke="#191970" points="970.0098,-72.0001 960.0098,-75.5 970.0098,-79.0001 970.0098,-72.0001"/>
</g>
<!-- Node428 -->
<g id="node7" class="node">
<title>Node428</title>
<g id="a_node7"><a xlink:href="main_8cxx.html#a3c04138a5bfe5d72780bb7e82a18e627" target="_top" xlink:title="main">
<polygon fill="none" stroke="#000000" points="1125,-66 1125,-85 1166,-85 1166,-66 1125,-66"/>
<text text-anchor="middle" x="1145.5" y="-73" font-family="Helvetica,sans-Serif" font-size="10.00" fill="#000000">main</text>
</a>
</g>
</g>
<!-- Node427&#45;&gt;Node428 -->
<g id="edge6" class="edge">
<title>Node427&#45;&gt;Node428</title>
<path fill="none" stroke="#191970" d="M1099.2133,-75.5C1108.4322,-75.5 1117.4259,-75.5 1124.9965,-75.5"/>
<polygon fill="#191970" stroke="#191970" points="1099.1782,-72.0001 1089.1782,-75.5 1099.1781,-79.0001 1099.1782,-72.0001"/>
</g>
<!-- Node429&#45;&gt;Node424 -->
<g id="edge9" class="edge">
<title>Node429&#45;&gt;Node424</title>
<path fill="none" stroke="#191970" d="M450.9588,-70.9894C478.782,-76.4114 511.5957,-82.8058 538.0248,-87.9561"/>
<polygon fill="#191970" stroke="#191970" points="451.4399,-67.5174 440.955,-69.04 450.1009,-74.3882 451.4399,-67.5174"/>
</g>
<!-- Node429&#45;&gt;Node425 -->
<g id="edge10" class="edge">
<title>Node429&#45;&gt;Node425</title>
<path fill="none" stroke="#191970" d="M482.3441,-59.9912C536.1334,-61.7109 605.484,-66.4332 666,-78.5 698.0709,-84.8949 733.5983,-97.8711 756.0991,-106.8688"/>
<polygon fill="#191970" stroke="#191970" points="482.242,-56.4868 472.1446,-59.695 482.0387,-63.4839 482.242,-56.4868"/>
</g>
<!-- Node430&#45;&gt;Node423 -->
<g id="edge12" class="edge">
<title>Node430&#45;&gt;Node423</title>
<path fill="none" stroke="#191970" d="M254.2147,-108.9894C282.3946,-114.4114 315.629,-120.8058 342.3969,-125.9561"/>
<polygon fill="#191970" stroke="#191970" points="254.5639,-105.4925 244.0827,-107.04 253.2412,-112.3664 254.5639,-105.4925"/>
</g>
<!-- Node430&#45;&gt;Node424 -->
<g id="edge14" class="edge">
<title>Node430&#45;&gt;Node424</title>
<path fill="none" stroke="#191970" d="M286.3678,-97.5C355.8384,-97.5 449.9227,-97.5 514.224,-97.5"/>
<polygon fill="#191970" stroke="#191970" points="286.3031,-94.0001 276.3031,-97.5 286.3031,-101.0001 286.3031,-94.0001"/>
</g>
<!-- Node430&#45;&gt;Node429 -->
<g id="edge13" class="edge">
<title>Node430&#45;&gt;Node429</title>
<path fill="none" stroke="#191970" d="M254.2147,-86.0106C282.3946,-80.5886 315.629,-74.1942 342.3969,-69.0439"/>
<polygon fill="#191970" stroke="#191970" points="253.2412,-82.6336 244.0827,-87.96 254.5639,-89.5075 253.2412,-82.6336"/>
</g>
<!-- Node431 -->
<g id="node10" class="node">
<title>Node431</title>
<g id="a_node10"><a xlink:href="classCamera.html#af29da768f8948f3afbf0a9b43530eb1d" target="_top" xlink:title="Centers camera on the middle of the map Centers the camera on the middle of the map. ">
<polygon fill="none" stroke="#000000" points="508,-.5 508,-30.5 666,-30.5 666,-.5 508,-.5"/>
<text text-anchor="start" x="516" y="-18.5" font-family="Helvetica,sans-Serif" font-size="10.00" fill="#000000">Camera::centerScreenOnMap</text>
<text text-anchor="middle" x="587" y="-7.5" font-family="Helvetica,sans-Serif" font-size="10.00" fill="#000000">Center</text>
</a>
</g>
</g>
<!-- Node430&#45;&gt;Node431 -->
<g id="edge15" class="edge">
<title>Node430&#45;&gt;Node431</title>
<path fill="none" stroke="#191970" d="M218.4836,-82.6544C241.5383,-69.1767 277.8254,-50.0008 312,-40.5 376.3171,-22.6193 452.0303,-16.7939 507.7119,-15.1995"/>
<polygon fill="#191970" stroke="#191970" points="216.5464,-79.7344 209.748,-87.8604 220.13,-85.7476 216.5464,-79.7344"/>
</g>
<!-- Node431&#45;&gt;Node426 -->
<g id="edge16" class="edge">
<title>Node431&#45;&gt;Node426</title>
<path fill="none" stroke="#191970" d="M676.2863,-31.3029C746.8907,-43.7992 841.6287,-60.567 891.6803,-69.4257"/>
<polygon fill="#191970" stroke="#191970" points="676.5096,-27.7881 666.0526,-29.4916 675.2895,-34.681 676.5096,-27.7881"/>
</g>
<!-- Node433 -->
<g id="node12" class="node">
<title>Node433</title>
<g id="a_node12"><a xlink:href="classEngine.html#a7a1521fd7fc731f961ebaf3f723127d9" target="_top" xlink:title="Engine::setTileIDOfNode">
<polygon fill="none" stroke="#000000" points="519,-202 519,-221 655,-221 655,-202 519,-202"/>
<text text-anchor="middle" x="587" y="-209" font-family="Helvetica,sans-Serif" font-size="10.00" fill="#000000">Engine::setTileIDOfNode</text>
</a>
</g>
</g>
<!-- Node432&#45;&gt;Node433 -->
<g id="edge19" class="edge">
<title>Node432&#45;&gt;Node433</title>
<path fill="none" stroke="#191970" d="M266.5856,-211.5C338.4889,-211.5 448.1286,-211.5 518.6786,-211.5"/>
<polygon fill="#191970" stroke="#191970" points="266.2599,-208.0001 256.2599,-211.5 266.2599,-215.0001 266.2599,-208.0001"/>
</g>
<!-- Node433&#45;&gt;Node425 -->
<g id="edge20" class="edge">
<title>Node433&#45;&gt;Node425</title>
<path fill="none" stroke="#191970" d="M635.5854,-198.9665C645.8188,-195.7133 656.4135,-191.8729 666,-187.5 704.5757,-169.9036 745.7434,-141.1834 766.0851,-126.2348"/>
<polygon fill="#191970" stroke="#191970" points="634.4778,-195.645 625.9293,-201.9038 636.5151,-202.342 634.4778,-195.645"/>
</g>
</g>
</svg>
        <g id="navigator" transform="translate(0 0)" fill="#404254">
                <rect fill="#f2f5e9" fill-opacity="0.5" stroke="#606060" stroke-width=".5" x="0" y="0" width="60" height="60"/>
                <use id="zoomplus" xlink:href="#zoomPlus" x="17" y="9" onmousedown="handleZoom(evt,'in')"/>
                <use id="zoomminus" xlink:href="#zoomMin" x="42" y="9" onmousedown="handleZoom(evt,'out')"/>
                <use id="reset" xlink:href="#resetDef" x="30" y="36" onmousedown="handleReset()"/>
                <g id="arrowUp" xlink:href="#dirArrow" transform="translate(30 24)" onmousedown="handlePan(0,-1)">
                  <use xlink:href="#rim" fill="#404040">
                        <set attributeName="fill" to="#808080" begin="arrowUp.mouseover" end="arrowUp.mouseout"/>
                  </use>
                  <path fill="none" stroke="white" stroke-width="1.5" d="M0,-3.0v7 M-2.5,-0.5L0,-3.0L2.5,-0.5"/>
                </g>
                <g id="arrowRight" xlink:href="#dirArrow" transform="rotate(90) translate(36 -43)" onmousedown="handlePan(1,0)">
                  <use xlink:href="#rim" fill="#404040">
                        <set attributeName="fill" to="#808080" begin="arrowRight.mouseover" end="arrowRight.mouseout"/>
                  </use>
                  <path fill="none" stroke="white" stroke-width="1.5" d="M0,-3.0v7 M-2.5,-0.5L0,-3.0L2.5,-0.5"/>
                </g>
                <g id="arrowDown" xlink:href="#dirArrow" transform="rotate(180) translate(-30 -48)" onmousedown="handlePan(0,1)">
                  <use xlink:href="#rim" fill="#404040">
                        <set attributeName="fill" to="#808080" begin="arrowDown.mouseover" end="arrowDown.mouseout"/>
                  </use>
                  <path fill="none" stroke="white" stroke-width="1.5" d="M0,-3.0v7 M-2.5,-0.5L0,-3.0L2.5,-0.5"/>
                </g>
                <g id="arrowLeft" xlink:href="#dirArrow" transform="rotate(270) translate(-36 17)" onmousedown="handlePan(-1,0)">
                  <use xlink:href="#rim" fill="#404040">
                        <set attributeName="fill" to="#808080" begin="arrowLeft.mouseover" end="arrowLeft.mouseout"/>
                  </use>
                  <path fill="none" stroke="white" stroke-width="1.5" d="M0,-3.0v7 M-2.5,-0.5L0,-3.0L2.5,-0.5"/>
                </g>
        </g>
        <svg viewBox="0 0 15 15" width="100%" height="30px" preserveAspectRatio="xMaxYMin meet">
         <g id="arrow_out" transform="scale(0.3 0.3)">
          <a xlink:href="classMap_ab69938ac0e56eb0da1d1701221f3d185_icgraph_org.svg" target="_base">
           <rect id="button" ry="5" rx="5" y="6" x="6" height="38" width="38"
                fill="#f2f5e9" fill-opacity="0.5" stroke="#606060" stroke-width="1.0"/>
           <path id="arrow"
             d="M 11.500037,31.436501 C 11.940474,20.09759 22.043105,11.32322 32.158766,21.979434 L 37.068811,17.246167 C 37.068811,17.246167 37.088388,32 37.088388,32 L 22.160133,31.978069 C 22.160133,31.978069 26.997745,27.140456 26.997745,27.140456 C 18.528582,18.264221 13.291696,25.230495 11.500037,31.436501 z"
             style="fill:#404040;"/>
          </a>
         </g>
        </svg>
</svg>
