<?xml version="1.0" encoding="UTF-8" standalone="no"?>
<!DOCTYPE svg PUBLIC "-//W3C//DTD SVG 1.1//EN"
 "http://www.w3.org/Graphics/SVG/1.1/DTD/svg11.dtd">
<!-- Generated by graphviz version 2.40.1 (20161225.0304)
 -->
<!-- Title: Checkbox::draw Pages: 1 -->
<svg width="482pt" height="75pt"
 viewBox="0.00 0.00 482.00 75.00" xmlns="http://www.w3.org/2000/svg" xmlns:xlink="http://www.w3.org/1999/xlink">
<g id="graph0" class="graph" transform="scale(1 1) rotate(0) translate(4 71)">
<title>Checkbox::draw</title>
<!-- Node5 -->
<g id="node1" class="node">
<title>Node5</title>
<polygon fill="#bfbfbf" stroke="#000000" points="0,-28.5 0,-47.5 95,-47.5 95,-28.5 0,-28.5"/>
<text text-anchor="middle" x="47.5" y="-35.5" font-family="Helvetica,sans-Serif" font-size="10.00" fill="#000000">Checkbox::draw</text>
</g>
<!-- Node6 -->
<g id="node2" class="node">
<title>Node6</title>
<g id="a_node2"><a xlink:href="classUIElement.html#afa1b8ca68981752ffb5e40e22ee2a946" target="_top" xlink:title="Change the Texture of the button Changes the texture. ">
<polygon fill="none" stroke="#000000" points="131,-28.5 131,-47.5 291,-47.5 291,-28.5 131,-28.5"/>
<text text-anchor="middle" x="211" y="-35.5" font-family="Helvetica,sans-Serif" font-size="10.00" fill="#000000">UIElement::drawButtonFrame</text>
</a>
</g>
</g>
<!-- Node5&#45;&gt;Node6 -->
<g id="edge1" class="edge">
<title>Node5&#45;&gt;Node6</title>
<path fill="none" stroke="#191970" d="M95.2305,-38C103.38,-38 112.0785,-38 120.9081,-38"/>
<polygon fill="#191970" stroke="#191970" points="120.9105,-41.5001 130.9105,-38 120.9105,-34.5001 120.9105,-41.5001"/>
</g>
<!-- Node7 -->
<g id="node3" class="node">
<title>Node7</title>
<g id="a_node3"><a xlink:href="classUIElement.html#a98725ac250168ebb2fa676dd481ff495" target="_top" xlink:title="Get the button state Get the current mouse button pressed state. ">
<polygon fill="none" stroke="#000000" points="327,-47.5 327,-66.5 474,-66.5 474,-47.5 327,-47.5"/>
<text text-anchor="middle" x="400.5" y="-54.5" font-family="Helvetica,sans-Serif" font-size="10.00" fill="#000000">UIElement::getButtonState</text>
</a>
</g>
</g>
<!-- Node5&#45;&gt;Node7 -->
<g id="edge4" class="edge">
<title>Node5&#45;&gt;Node7</title>
<path fill="none" stroke="#191970" d="M81.3306,-47.5075C96.4021,-51.2721 114.4529,-55.1412 131,-57 192.9172,-63.9556 263.3423,-63.6748 316.6696,-61.804"/>
<polygon fill="#191970" stroke="#191970" points="316.8993,-65.2979 326.7604,-61.424 316.6358,-58.3029 316.8993,-65.2979"/>
</g>
<!-- Node8 -->
<g id="node4" class="node">
<title>Node8</title>
<g id="a_node4"><a xlink:href="classUIElement.html#a4aca28b5f308b875340868697d0cc50c" target="_top" xlink:title="Draws a filled rectangle to the screen. Draws a filled rectangle to the screen. ">
<polygon fill="none" stroke="#000000" points="329,-.5 329,-19.5 472,-19.5 472,-.5 329,-.5"/>
<text text-anchor="middle" x="400.5" y="-7.5" font-family="Helvetica,sans-Serif" font-size="10.00" fill="#000000">UIElement::drawSolidRect</text>
</a>
</g>
</g>
<!-- Node5&#45;&gt;Node8 -->
<g id="edge5" class="edge">
<title>Node5&#45;&gt;Node8</title>
<path fill="none" stroke="#191970" d="M82.5801,-28.4554C97.4053,-24.8305 114.9286,-21.0776 131,-19 193.6993,-10.8947 265.2448,-8.8364 318.8553,-8.7007"/>
<polygon fill="#191970" stroke="#191970" points="318.9913,-12.2008 328.9901,-8.6973 318.9889,-5.2008 318.9913,-12.2008"/>
</g>
<!-- Node6&#45;&gt;Node7 -->
<g id="edge2" class="edge">
<title>Node6&#45;&gt;Node7</title>
<path fill="none" stroke="#191970" d="M291.0904,-46.0302C299.4927,-46.8726 308.0525,-47.7309 316.4971,-48.5775"/>
<polygon fill="#191970" stroke="#191970" points="316.4226,-52.0875 326.722,-49.6027 317.121,-45.1225 316.4226,-52.0875"/>
</g>
<!-- Node6&#45;&gt;Node8 -->
<g id="edge3" class="edge">
<title>Node6&#45;&gt;Node8</title>
<path fill="none" stroke="#191970" d="M275.4205,-28.4814C291.5922,-26.0919 309.0817,-23.5077 325.7118,-21.0505"/>
<polygon fill="#191970" stroke="#191970" points="326.5549,-24.464 335.9358,-19.5398 325.5316,-17.5392 326.5549,-24.464"/>
</g>
</g>
</svg>
