<?xml version="1.0" encoding="UTF-8" standalone="no"?>
<!DOCTYPE svg PUBLIC "-//W3C//DTD SVG 1.1//EN"
 "http://www.w3.org/Graphics/SVG/1.1/DTD/svg11.dtd">
<!-- Generated by graphviz version 2.40.1 (20161225.0304)
 -->
<!-- Title: TileManager::getTexture Pages: 1 -->
<svg width="343pt" height="88pt"
 viewBox="0.00 0.00 343.00 88.00" xmlns="http://www.w3.org/2000/svg" xmlns:xlink="http://www.w3.org/1999/xlink">
<g id="graph0" class="graph" transform="scale(1 1) rotate(0) translate(4 84)">
<title>TileManager::getTexture</title>
<!-- Node49 -->
<g id="node1" class="node">
<title>Node49</title>
<polygon fill="#bfbfbf" stroke="#000000" points="0,-30 0,-49 134,-49 134,-30 0,-30"/>
<text text-anchor="middle" x="67" y="-37" font-family="Helvetica,sans-Serif" font-size="10.00" fill="#000000">TileManager::getTexture</text>
</g>
<!-- Node50 -->
<g id="node2" class="node">
<title>Node50</title>
<g id="a_node2"><a xlink:href="classSingleton.html#af5cb1e5749949e2b68416cfb8d378044" target="_top" xlink:title="Get an instance of the singleton. ">
<polygon fill="none" stroke="#000000" points="170,-49.5 170,-79.5 335,-79.5 335,-49.5 170,-49.5"/>
<text text-anchor="start" x="178" y="-67.5" font-family="Helvetica,sans-Serif" font-size="10.00" fill="#000000">Singleton&lt; ResourcesManager</text>
<text text-anchor="middle" x="252.5" y="-56.5" font-family="Helvetica,sans-Serif" font-size="10.00" fill="#000000"> &gt;::instance</text>
</a>
</g>
</g>
<!-- Node49&#45;&gt;Node50 -->
<g id="edge1" class="edge">
<title>Node49&#45;&gt;Node50</title>
<path fill="none" stroke="#191970" d="M134.232,-48.5609C142.5787,-49.6858 151.2243,-50.851 159.8686,-52.016"/>
<polygon fill="#191970" stroke="#191970" points="159.6197,-55.514 169.9976,-53.3811 160.5547,-48.5767 159.6197,-55.514"/>
</g>
<!-- Node51 -->
<g id="node3" class="node">
<title>Node51</title>
<g id="a_node3"><a xlink:href="classResourcesManager.html#a52d404e057ce27462ee7cdb9bea3f0a1" target="_top" xlink:title="ResourcesManager::getTile\lTexture">
<polygon fill="none" stroke="#000000" points="178.5,-.5 178.5,-30.5 326.5,-30.5 326.5,-.5 178.5,-.5"/>
<text text-anchor="start" x="186.5" y="-18.5" font-family="Helvetica,sans-Serif" font-size="10.00" fill="#000000">ResourcesManager::getTile</text>
<text text-anchor="middle" x="252.5" y="-7.5" font-family="Helvetica,sans-Serif" font-size="10.00" fill="#000000">Texture</text>
</a>
</g>
</g>
<!-- Node49&#45;&gt;Node51 -->
<g id="edge2" class="edge">
<title>Node49&#45;&gt;Node51</title>
<path fill="none" stroke="#191970" d="M134.232,-30.8015C145.2988,-29.3697 156.8912,-27.8699 168.3091,-26.3926"/>
<polygon fill="#191970" stroke="#191970" points="168.8123,-29.8568 178.2805,-25.1025 167.914,-22.9146 168.8123,-29.8568"/>
</g>
</g>
</svg>
