<?xml version="1.0" encoding="UTF-8" standalone="no"?>
<!DOCTYPE svg PUBLIC "-//W3C//DTD SVG 1.1//EN"
 "http://www.w3.org/Graphics/SVG/1.1/DTD/svg11.dtd">
<!-- Generated by graphviz version 2.40.1 (20161225.0304)
 -->
<!-- Title: Map::increaseHeight Pages: 1 -->
<!--zoomable 442 -->
<svg id="main" version="1.1" xmlns="http://www.w3.org/2000/svg" xmlns:xlink="http://www.w3.org/1999/xlink" xml:space="preserve" onload="init(evt)">
<style type="text/css"><![CDATA[
.edge:hover path { stroke: red; }
.edge:hover polygon { stroke: red; fill: red; }
]]></style>
<script type="text/javascript"><![CDATA[
var edges = document.getElementsByTagName('g');
if (edges && edges.length) {
  for (var i=0;i<edges.length;i++) {
    if (edges[i].id.substr(0,4)=='edge') {
      edges[i].setAttribute('class','edge');
    }
  }
}
]]></script>
        <defs>
                <circle id="rim" cx="0" cy="0" r="7"/>
                <circle id="rim2" cx="0" cy="0" r="3.5"/>
                <g id="zoomPlus">
                        <use xlink:href="#rim" fill="#404040">
                                <set attributeName="fill" to="#808080" begin="zoomplus.mouseover" end="zoomplus.mouseout"/>
                        </use>
                        <path d="M-4,0h8M0,-4v8" fill="none" stroke="white" stroke-width="1.5" pointer-events="none"/>
                </g>
                <g id="zoomMin">
                        <use xlink:href="#rim" fill="#404040">
                                <set attributeName="fill" to="#808080" begin="zoomminus.mouseover" end="zoomminus.mouseout"/>
                        </use>
                        <path d="M-4,0h8" fill="none" stroke="white" stroke-width="1.5" pointer-events="none"/>
                </g>
                <g id="dirArrow">
                        <path fill="none" stroke="white" stroke-width="1.5" d="M0,-3.0v7 M-2.5,-0.5L0,-3.0L2.5,-0.5"/>
                </g>
               <g id="resetDef">
                       <use xlink:href="#rim2" fill="#404040">
                               <set attributeName="fill" to="#808080" begin="reset.mouseover" end="reset.mouseout"/>
                       </use>
               </g>
        </defs>

<script type="text/javascript">
var viewWidth = 1020;
var viewHeight = 442;
var sectionId = 'dynsection-24';
</script>
<script xlink:href="svgpan.js"/>
<svg id="graph" class="graph">
<g id="viewport">
<title>Map::increaseHeight</title>
<!-- Node250 -->
<g id="node1" class="node">
<title>Node250</title>
<polygon fill="#bfbfbf" stroke="#000000" points="0,-159.0145 0,-178.0145 116,-178.0145 116,-159.0145 0,-159.0145"/>
<text text-anchor="middle" x="58" y="-166.0145" font-family="Helvetica,sans-Serif" font-size="10.00" fill="#000000">Map::increaseHeight</text>
</g>
<!-- Node251 -->
<g id="node2" class="node">
<title>Node251</title>
<g id="a_node2"><a xlink:href="classSingleton.html#af5cb1e5749949e2b68416cfb8d378044" target="_top" xlink:title="Get an instance of the singleton. ">
<polygon fill="none" stroke="#000000" points="899,-304.5145 899,-334.5145 1012,-334.5145 1012,-304.5145 899,-304.5145"/>
<text text-anchor="start" x="907" y="-322.5145" font-family="Helvetica,sans-Serif" font-size="10.00" fill="#000000">Singleton&lt; Settings</text>
<text text-anchor="middle" x="955.5" y="-311.5145" font-family="Helvetica,sans-Serif" font-size="10.00" fill="#000000"> &gt;::instance</text>
</a>
</g>
</g>
<!-- Node250&#45;&gt;Node251 -->
<g id="edge1" class="edge">
<title>Node250&#45;&gt;Node251</title>
<path fill="none" stroke="#191970" d="M62.4353,-178.0931C74.0859,-202.4072 107.7357,-267.4243 152,-307.5145 239.2583,-386.5446 267.2725,-433.5145 385,-433.5145 385,-433.5145 385,-433.5145 588,-433.5145 713.7483,-433.5145 853.272,-371.8751 918.3207,-339.2457"/>
<polygon fill="#191970" stroke="#191970" points="920.035,-342.3007 927.3672,-334.6529 916.866,-336.0591 920.035,-342.3007"/>
</g>
<!-- Node252 -->
<g id="node3" class="node">
<title>Node252</title>
<g id="a_node3"><a xlink:href="classMap.html#aab37e4a52faf81e9b696b8cf1bd9a690" target="_top" xlink:title="Get neighbor MapNode Objects Stores pointers to the neighboring nodes of the given coordinates in the...">
<polygon fill="none" stroke="#000000" points="731,-114.0145 731,-133.0145 839,-133.0145 839,-114.0145 731,-114.0145"/>
<text text-anchor="middle" x="785" y="-121.0145" font-family="Helvetica,sans-Serif" font-size="10.00" fill="#000000">Map::getNeighbors</text>
</a>
</g>
</g>
<!-- Node250&#45;&gt;Node252 -->
<g id="edge2" class="edge">
<title>Node250&#45;&gt;Node252</title>
<path fill="none" stroke="#191970" d="M78.3196,-158.896C140.4322,-130.0945 333.9591,-44.792 505,-16.5145 577.7897,-4.4805 603.2259,12.6373 671,-16.5145 692.3713,-25.707 690.2713,-38.3472 707,-54.5145 726.4846,-73.3453 749.8893,-93.777 765.9457,-107.4808"/>
<polygon fill="#191970" stroke="#191970" points="763.7241,-110.1859 773.6126,-113.9896 768.2544,-104.8496 763.7241,-110.1859"/>
</g>
<!-- Node253 -->
<g id="node4" class="node">
<title>Node253</title>
<g id="a_node4"><a xlink:href="isoMath_8cxx.html#a7fa61c3d8ef446fb1c48dc4838023649" target="_top" xlink:title="Check if given coordinates are within map boundaries Checks if coordinates are within map boundaries...">
<polygon fill="none" stroke="#000000" points="707,-310.0145 707,-329.0145 863,-329.0145 863,-310.0145 707,-310.0145"/>
<text text-anchor="middle" x="785" y="-317.0145" font-family="Helvetica,sans-Serif" font-size="10.00" fill="#000000">isPointWithinMapBoundaries</text>
</a>
</g>
</g>
<!-- Node250&#45;&gt;Node253 -->
<g id="edge3" class="edge">
<title>Node250&#45;&gt;Node253</title>
<path fill="none" stroke="#191970" d="M66.9763,-178.2087C96.6552,-209.4858 195.7399,-307.8167 301,-344.5145 456.3239,-398.6667 508.2313,-377.2701 671,-353.5145 698.4697,-349.5054 728.5211,-340.3331 750.8701,-332.5248"/>
<polygon fill="#191970" stroke="#191970" points="752.3241,-335.7219 760.5596,-329.0566 749.965,-329.1313 752.3241,-335.7219"/>
</g>
<!-- Node254 -->
<g id="node5" class="node">
<title>Node254</title>
<g id="a_node5"><a xlink:href="classMap.html#aa8cc2ed983007621bce12dd9d1b8ec5b" target="_top" xlink:title="Demolish a node This function gathers all tiles that should be demolished and invokes the nodes demol...">
<polygon fill="none" stroke="#000000" points="152,-176.0145 152,-195.0145 265,-195.0145 265,-176.0145 152,-176.0145"/>
<text text-anchor="middle" x="208.5" y="-183.0145" font-family="Helvetica,sans-Serif" font-size="10.00" fill="#000000">Map::demolishNode</text>
</a>
</g>
</g>
<!-- Node250&#45;&gt;Node254 -->
<g id="edge5" class="edge">
<title>Node250&#45;&gt;Node254</title>
<path fill="none" stroke="#191970" d="M116.1872,-175.0872C124.6294,-176.0408 133.3741,-177.0286 141.9652,-177.999"/>
<polygon fill="#191970" stroke="#191970" points="141.6228,-181.4825 151.9525,-179.1271 142.4086,-174.5267 141.6228,-181.4825"/>
</g>
<!-- Node260 -->
<g id="node11" class="node">
<title>Node260</title>
<g id="a_node11"><a xlink:href="classMap.html#a59d21f2688713fbcfe320eb1b24405ca" target="_top" xlink:title="Update mapNode and its adjacent tiles Updates mapNode height information, draws slopes for adjacent t...">
<polygon fill="none" stroke="#000000" points="303.5,-114.0145 303.5,-133.0145 466.5,-133.0145 466.5,-114.0145 303.5,-114.0145"/>
<text text-anchor="middle" x="385" y="-121.0145" font-family="Helvetica,sans-Serif" font-size="10.00" fill="#000000">Map::updateNeighborsOfNode</text>
</a>
</g>
</g>
<!-- Node250&#45;&gt;Node260 -->
<g id="edge26" class="edge">
<title>Node250&#45;&gt;Node260</title>
<path fill="none" stroke="#191970" d="M94.8754,-158.9766C142.6963,-150.0787 227.7541,-137.8173 293.4513,-129.9811"/>
<polygon fill="#191970" stroke="#191970" points="293.8854,-133.4543 303.4082,-128.8104 293.0679,-126.5022 293.8854,-133.4543"/>
</g>
<!-- Node253&#45;&gt;Node251 -->
<g id="edge4" class="edge">
<title>Node253&#45;&gt;Node251</title>
<path fill="none" stroke="#191970" d="M863.2638,-319.5145C871.635,-319.5145 880.0967,-319.5145 888.323,-319.5145"/>
<polygon fill="#191970" stroke="#191970" points="888.5927,-323.0146 898.5927,-319.5145 888.5926,-316.0146 888.5927,-323.0146"/>
</g>
<!-- Node254&#45;&gt;Node253 -->
<g id="edge6" class="edge">
<title>Node254&#45;&gt;Node253</title>
<path fill="none" stroke="#191970" d="M215.6064,-195.113C229.6185,-213.1923 262.7892,-251.9616 301,-268.5145 452.4575,-334.126 507.2442,-279.8196 671,-300.5145 687.8971,-302.6499 706.1222,-305.4581 722.9369,-308.2582"/>
<polygon fill="#191970" stroke="#191970" points="722.756,-311.7772 733.1998,-309.9945 723.9237,-304.8753 722.756,-311.7772"/>
</g>
<!-- Node255 -->
<g id="node6" class="node">
<title>Node255</title>
<g id="a_node6"><a xlink:href="classMapNode.html#a6b57e4355d0780fb37c34d63bbcdfdf9" target="_top" xlink:title="MapNode::getMapNodeDataFor\lLayer">
<polygon fill="none" stroke="#000000" points="301,-228.5145 301,-258.5145 469,-258.5145 469,-228.5145 301,-228.5145"/>
<text text-anchor="start" x="309" y="-246.5145" font-family="Helvetica,sans-Serif" font-size="10.00" fill="#000000">MapNode::getMapNodeDataFor</text>
<text text-anchor="middle" x="385" y="-235.5145" font-family="Helvetica,sans-Serif" font-size="10.00" fill="#000000">Layer</text>
</a>
</g>
</g>
<!-- Node254&#45;&gt;Node255 -->
<g id="edge7" class="edge">
<title>Node254&#45;&gt;Node255</title>
<path fill="none" stroke="#191970" d="M234.2896,-195.132C252.7741,-201.9229 278.3112,-211.0969 301,-218.5145 308.1396,-220.8487 315.6493,-223.2123 323.121,-225.5072"/>
<polygon fill="#191970" stroke="#191970" points="322.3012,-228.9161 332.8869,-228.4762 324.3374,-222.2187 322.3012,-228.9161"/>
</g>
<!-- Node256 -->
<g id="node7" class="node">
<title>Node256</title>
<g id="a_node7"><a xlink:href="classMap.html#ab6685363fde5a50c749adab9df96c231" target="_top" xlink:title="whether a node is a multiobject or not (bigger than 1x1 building) ">
<polygon fill="none" stroke="#000000" points="319,-316.0145 319,-335.0145 451,-335.0145 451,-316.0145 319,-316.0145"/>
<text text-anchor="middle" x="385" y="-323.0145" font-family="Helvetica,sans-Serif" font-size="10.00" fill="#000000">Map::isNodeMultiObject</text>
</a>
</g>
</g>
<!-- Node254&#45;&gt;Node256 -->
<g id="edge8" class="edge">
<title>Node254&#45;&gt;Node256</title>
<path fill="none" stroke="#191970" d="M213.5089,-195.3002C225.466,-217.6646 257.921,-272.7974 301,-301.5145 307.729,-306.0002 315.299,-309.6584 323.0677,-312.6393"/>
<polygon fill="#191970" stroke="#191970" points="322.0044,-315.9751 332.5992,-315.9496 324.301,-309.3625 322.0044,-315.9751"/>
</g>
<!-- Node258 -->
<g id="node9" class="node">
<title>Node258</title>
<g id="a_node9"><a xlink:href="classMap.html#a3952b445c55efce61c1ccac6f362fe89" target="_top" xlink:title="Return vector of Points of an Object Tiles selection. ">
<polygon fill="none" stroke="#000000" points="323,-190.0145 323,-209.0145 447,-209.0145 447,-190.0145 323,-190.0145"/>
<text text-anchor="middle" x="385" y="-197.0145" font-family="Helvetica,sans-Serif" font-size="10.00" fill="#000000">Map::getObjectCoords</text>
</a>
</g>
</g>
<!-- Node254&#45;&gt;Node258 -->
<g id="edge11" class="edge">
<title>Node254&#45;&gt;Node258</title>
<path fill="none" stroke="#191970" d="M265.3172,-190.0213C280.3626,-191.2147 296.81,-192.5193 312.5625,-193.7688"/>
<polygon fill="#191970" stroke="#191970" points="312.5466,-197.2784 322.7921,-194.5802 313.1002,-190.3004 312.5466,-197.2784"/>
</g>
<!-- Node254&#45;&gt;Node260 -->
<g id="edge14" class="edge">
<title>Node254&#45;&gt;Node260</title>
<path fill="none" stroke="#191970" d="M217.8213,-175.9008C234.3559,-164.8581 270.0009,-149.2728 301,-138.5145 303.2366,-137.7383 305.5127,-136.9676 307.8153,-136.2065"/>
<polygon fill="#191970" stroke="#191970" points="308.9373,-139.5224 317.3963,-133.1431 306.8054,-132.8549 308.9373,-139.5224"/>
</g>
<!-- Node256&#45;&gt;Node253 -->
<g id="edge9" class="edge">
<title>Node256&#45;&gt;Node253</title>
<path fill="none" stroke="#191970" d="M451.2291,-333.9823C468.687,-335.8598 487.5278,-337.5709 505,-338.5145 578.6704,-342.4934 597.4736,-344.5998 671,-338.5145 689.8965,-336.9506 710.3763,-333.9523 728.6955,-330.7916"/>
<polygon fill="#191970" stroke="#191970" points="729.3932,-334.2226 738.6267,-329.0271 728.1686,-327.3305 729.3932,-334.2226"/>
</g>
<!-- Node257 -->
<g id="node8" class="node">
<title>Node257</title>
<g id="a_node8"><a xlink:href="classMapNode.html#adf88174897b884c97d327e710dea7f5e" target="_top" xlink:title="MapNode::getTileData">
<polygon fill="none" stroke="#000000" points="525.5,-310.0145 525.5,-329.0145 650.5,-329.0145 650.5,-310.0145 525.5,-310.0145"/>
<text text-anchor="middle" x="588" y="-317.0145" font-family="Helvetica,sans-Serif" font-size="10.00" fill="#000000">MapNode::getTileData</text>
</a>
</g>
</g>
<!-- Node256&#45;&gt;Node257 -->
<g id="edge10" class="edge">
<title>Node256&#45;&gt;Node257</title>
<path fill="none" stroke="#191970" d="M451.1889,-323.5582C471.6717,-322.9528 494.3463,-322.2826 515.2481,-321.6649"/>
<polygon fill="#191970" stroke="#191970" points="515.457,-325.1603 525.3492,-321.3663 515.2502,-318.1634 515.457,-325.1603"/>
</g>
<!-- Node258&#45;&gt;Node251 -->
<g id="edge12" class="edge">
<title>Node258&#45;&gt;Node251</title>
<path fill="none" stroke="#191970" d="M447.0257,-198.7573C505.404,-199.1885 594.9764,-202.8081 671,-218.5145 759.853,-236.8715 858.6272,-276.5841 913.2779,-300.3775"/>
<polygon fill="#191970" stroke="#191970" points="912.0693,-303.6693 922.6329,-304.4831 914.8824,-297.2594 912.0693,-303.6693"/>
</g>
<!-- Node259 -->
<g id="node10" class="node">
<title>Node259</title>
<g id="a_node10"><a xlink:href="classTileManager.html#a8ee071ff8b24926288437d310f9bc714" target="_top" xlink:title="TileManager::getTileData">
<polygon fill="none" stroke="#000000" points="518,-228.0145 518,-247.0145 658,-247.0145 658,-228.0145 518,-228.0145"/>
<text text-anchor="middle" x="588" y="-235.0145" font-family="Helvetica,sans-Serif" font-size="10.00" fill="#000000">TileManager::getTileData</text>
</a>
</g>
</g>
<!-- Node258&#45;&gt;Node259 -->
<g id="edge13" class="edge">
<title>Node258&#45;&gt;Node259</title>
<path fill="none" stroke="#191970" d="M435.9634,-209.0545C463.5941,-214.2267 497.9328,-220.6547 526.9811,-226.0923"/>
<polygon fill="#191970" stroke="#191970" points="526.5423,-229.5709 537.0156,-227.9707 527.8303,-222.6904 526.5423,-229.5709"/>
</g>
<!-- Node260&#45;&gt;Node250 -->
<g id="edge20" class="edge">
<title>Node260&#45;&gt;Node250</title>
<path fill="none" stroke="#191970" d="M348.2569,-133.0279C294.5656,-143.0254 193.7325,-157.2843 126.2089,-164.7332"/>
<polygon fill="#191970" stroke="#191970" points="125.6513,-161.2729 116.0842,-165.825 126.4019,-168.2326 125.6513,-161.2729"/>
</g>
<!-- Node260&#45;&gt;Node252 -->
<g id="edge15" class="edge">
<title>Node260&#45;&gt;Node252</title>
<path fill="none" stroke="#191970" d="M466.9112,-123.5145C541.9158,-123.5145 651.4421,-123.5145 720.4276,-123.5145"/>
<polygon fill="#191970" stroke="#191970" points="720.721,-127.0146 730.721,-123.5145 720.7209,-120.0146 720.721,-127.0146"/>
</g>
<!-- Node260&#45;&gt;Node254 -->
<g id="edge17" class="edge">
<title>Node260&#45;&gt;Node254</title>
<path fill="none" stroke="#191970" d="M371.7636,-133.0785C355.0923,-140.0676 325.6451,-147.9615 301,-156.5145 287.2739,-161.2782 272.6368,-166.9883 259.1514,-172.2025"/>
<polygon fill="#191970" stroke="#191970" points="257.641,-169.0334 249.5648,-175.891 260.1547,-175.5665 257.641,-169.0334"/>
</g>
<!-- Node261 -->
<g id="node12" class="node">
<title>Node261</title>
<g id="a_node12"><a xlink:href="classMap.html#a0ff55eb041cdf29aa582a21145319ce0" target="_top" xlink:title="Get elevated neighbor positions in a bitmask Checks all neighboring tiles and returns the elevated ne...">
<polygon fill="none" stroke="#000000" points="515,-64.5145 515,-94.5145 661,-94.5145 661,-64.5145 515,-64.5145"/>
<text text-anchor="start" x="523" y="-82.5145" font-family="Helvetica,sans-Serif" font-size="10.00" fill="#000000">Map::getElevatedNeighbor</text>
<text text-anchor="middle" x="588" y="-71.5145" font-family="Helvetica,sans-Serif" font-size="10.00" fill="#000000">Bitmask</text>
</a>
</g>
</g>
<!-- Node260&#45;&gt;Node261 -->
<g id="edge16" class="edge">
<title>Node260&#45;&gt;Node261</title>
<path fill="none" stroke="#191970" d="M429.048,-113.9672C452.3115,-108.9249 481.5789,-102.5812 508.6393,-96.7159"/>
<polygon fill="#191970" stroke="#191970" points="509.4623,-100.1189 518.4939,-94.5799 507.9794,-93.2777 509.4623,-100.1189"/>
</g>
<!-- Node262 -->
<g id="node13" class="node">
<title>Node262</title>
<g id="a_node13"><a xlink:href="classMap.html#a3f5c7dd50cdc712e1ef18047cf619888" target="_top" xlink:title="Get a bitmask that represents same&#45;tile neighbors Checks all neighboring tiles and returns the elevat...">
<polygon fill="none" stroke="#000000" points="505,-26.0145 505,-45.0145 671,-45.0145 671,-26.0145 505,-26.0145"/>
<text text-anchor="middle" x="588" y="-33.0145" font-family="Helvetica,sans-Serif" font-size="10.00" fill="#000000">Map::calculateAutotileBitmask</text>
</a>
</g>
</g>
<!-- Node260&#45;&gt;Node262 -->
<g id="edge18" class="edge">
<title>Node260&#45;&gt;Node262</title>
<path fill="none" stroke="#191970" d="M398.7194,-113.7962C420.3271,-98.9238 464.0528,-70.5586 505,-54.5145 511.6237,-51.9192 518.6903,-49.6282 525.7991,-47.6189"/>
<polygon fill="#191970" stroke="#191970" points="526.7128,-50.9976 535.4815,-45.0512 524.9184,-44.2315 526.7128,-50.9976"/>
</g>
<!-- Node264 -->
<g id="node15" class="node">
<title>Node264</title>
<g id="a_node15"><a xlink:href="classMap.html#afb8cc864df90d273a5074872d635dc40" target="_top" xlink:title="Decrease Height Decreases the height of the node and checks the surrounding tiles. Either draw a slope sprite or lower the tile if necessary. ">
<polygon fill="none" stroke="#000000" points="528.5,-152.0145 528.5,-171.0145 647.5,-171.0145 647.5,-152.0145 528.5,-152.0145"/>
<text text-anchor="middle" x="588" y="-159.0145" font-family="Helvetica,sans-Serif" font-size="10.00" fill="#000000">Map::decreaseHeight</text>
</a>
</g>
</g>
<!-- Node260&#45;&gt;Node264 -->
<g id="edge21" class="edge">
<title>Node260&#45;&gt;Node264</title>
<path fill="none" stroke="#191970" d="M466.6904,-132.1719C496.4413,-137.3898 528.5547,-143.8504 552.2626,-149.5379"/>
<polygon fill="#191970" stroke="#191970" points="551.6518,-152.9925 562.2006,-152.0056 553.3388,-146.1988 551.6518,-152.9925"/>
</g>
<!-- Node263 -->
<g id="node14" class="node">
<title>Node263</title>
<g id="a_node14"><a xlink:href="classMap.html#a4700614f8c7d02b9ca18ad7e916a2312" target="_top" xlink:title="Map::isLayerAutoTile">
<polygon fill="none" stroke="#000000" points="725.5,-26.0145 725.5,-45.0145 844.5,-45.0145 844.5,-26.0145 725.5,-26.0145"/>
<text text-anchor="middle" x="785" y="-33.0145" font-family="Helvetica,sans-Serif" font-size="10.00" fill="#000000">Map::isLayerAutoTile</text>
</a>
</g>
</g>
<!-- Node262&#45;&gt;Node263 -->
<g id="edge19" class="edge">
<title>Node262&#45;&gt;Node263</title>
<path fill="none" stroke="#191970" d="M671.2602,-35.5145C685.8789,-35.5145 700.9566,-35.5145 715.1629,-35.5145"/>
<polygon fill="#191970" stroke="#191970" points="715.3344,-39.0146 725.3343,-35.5145 715.3343,-32.0146 715.3344,-39.0146"/>
</g>
<!-- Node264&#45;&gt;Node252 -->
<g id="edge22" class="edge">
<title>Node264&#45;&gt;Node252</title>
<path fill="none" stroke="#191970" d="M637.4571,-151.9746C664.154,-146.8249 697.304,-140.4305 725.4151,-135.0081"/>
<polygon fill="#191970" stroke="#191970" points="726.3665,-138.3892 735.5225,-133.0584 725.0406,-131.5159 726.3665,-138.3892"/>
</g>
<!-- Node264&#45;&gt;Node253 -->
<g id="edge23" class="edge">
<title>Node264&#45;&gt;Node253</title>
<path fill="none" stroke="#191970" d="M603.085,-171.0704C620.0252,-181.9837 648.1368,-200.6457 671,-218.5145 706.6543,-246.3803 745.5848,-282.1259 767.4774,-302.7628"/>
<polygon fill="#191970" stroke="#191970" points="765.3256,-305.5457 774.9913,-309.8844 770.141,-300.4651 765.3256,-305.5457"/>
</g>
<!-- Node264&#45;&gt;Node254 -->
<g id="edge24" class="edge">
<title>Node264&#45;&gt;Node254</title>
<path fill="none" stroke="#191970" d="M528.2889,-165.2907C459.6282,-169.6329 347.1961,-176.7433 275.5757,-181.2726"/>
<polygon fill="#191970" stroke="#191970" points="275.0741,-177.7972 265.315,-181.9215 275.516,-184.7833 275.0741,-177.7972"/>
</g>
<!-- Node264&#45;&gt;Node260 -->
<g id="edge25" class="edge">
<title>Node264&#45;&gt;Node260</title>
<path fill="none" stroke="#191970" d="M528.3185,-156.5553C493.5156,-150.9865 450.7631,-142.6805 421.0534,-135.5669"/>
<polygon fill="#191970" stroke="#191970" points="421.6713,-132.1142 411.1231,-133.1069 419.9881,-138.9089 421.6713,-132.1142"/>
</g>
</g>
</svg>
        <g id="navigator" transform="translate(0 0)" fill="#404254">
                <rect fill="#f2f5e9" fill-opacity="0.5" stroke="#606060" stroke-width=".5" x="0" y="0" width="60" height="60"/>
                <use id="zoomplus" xlink:href="#zoomPlus" x="17" y="9" onmousedown="handleZoom(evt,'in')"/>
                <use id="zoomminus" xlink:href="#zoomMin" x="42" y="9" onmousedown="handleZoom(evt,'out')"/>
                <use id="reset" xlink:href="#resetDef" x="30" y="36" onmousedown="handleReset()"/>
                <g id="arrowUp" xlink:href="#dirArrow" transform="translate(30 24)" onmousedown="handlePan(0,-1)">
                  <use xlink:href="#rim" fill="#404040">
                        <set attributeName="fill" to="#808080" begin="arrowUp.mouseover" end="arrowUp.mouseout"/>
                  </use>
                  <path fill="none" stroke="white" stroke-width="1.5" d="M0,-3.0v7 M-2.5,-0.5L0,-3.0L2.5,-0.5"/>
                </g>
                <g id="arrowRight" xlink:href="#dirArrow" transform="rotate(90) translate(36 -43)" onmousedown="handlePan(1,0)">
                  <use xlink:href="#rim" fill="#404040">
                        <set attributeName="fill" to="#808080" begin="arrowRight.mouseover" end="arrowRight.mouseout"/>
                  </use>
                  <path fill="none" stroke="white" stroke-width="1.5" d="M0,-3.0v7 M-2.5,-0.5L0,-3.0L2.5,-0.5"/>
                </g>
                <g id="arrowDown" xlink:href="#dirArrow" transform="rotate(180) translate(-30 -48)" onmousedown="handlePan(0,1)">
                  <use xlink:href="#rim" fill="#404040">
                        <set attributeName="fill" to="#808080" begin="arrowDown.mouseover" end="arrowDown.mouseout"/>
                  </use>
                  <path fill="none" stroke="white" stroke-width="1.5" d="M0,-3.0v7 M-2.5,-0.5L0,-3.0L2.5,-0.5"/>
                </g>
                <g id="arrowLeft" xlink:href="#dirArrow" transform="rotate(270) translate(-36 17)" onmousedown="handlePan(-1,0)">
                  <use xlink:href="#rim" fill="#404040">
                        <set attributeName="fill" to="#808080" begin="arrowLeft.mouseover" end="arrowLeft.mouseout"/>
                  </use>
                  <path fill="none" stroke="white" stroke-width="1.5" d="M0,-3.0v7 M-2.5,-0.5L0,-3.0L2.5,-0.5"/>
                </g>
        </g>
        <svg viewBox="0 0 15 15" width="100%" height="30px" preserveAspectRatio="xMaxYMin meet">
         <g id="arrow_out" transform="scale(0.3 0.3)">
          <a xlink:href="classMap_aba5154a4d917900679a3c0f7ec701561_cgraph_org.svg" target="_base">
           <rect id="button" ry="5" rx="5" y="6" x="6" height="38" width="38"
                fill="#f2f5e9" fill-opacity="0.5" stroke="#606060" stroke-width="1.0"/>
           <path id="arrow"
             d="M 11.500037,31.436501 C 11.940474,20.09759 22.043105,11.32322 32.158766,21.979434 L 37.068811,17.246167 C 37.068811,17.246167 37.088388,32 37.088388,32 L 22.160133,31.978069 C 22.160133,31.978069 26.997745,27.140456 26.997745,27.140456 C 18.528582,18.264221 13.291696,25.230495 11.500037,31.436501 z"
             style="fill:#404040;"/>
          </a>
         </g>
        </svg>
</svg>
