<?xml version="1.0" encoding="UTF-8" standalone="no"?>
<!DOCTYPE svg PUBLIC "-//W3C//DTD SVG 1.1//EN"
 "http://www.w3.org/Graphics/SVG/1.1/DTD/svg11.dtd">
<!-- Generated by graphviz version 2.40.1 (20161225.0304)
 -->
<!-- Title: Slider::getValue Pages: 1 -->
<svg width="291pt" height="66pt"
 viewBox="0.00 0.00 291.00 66.00" xmlns="http://www.w3.org/2000/svg" xmlns:xlink="http://www.w3.org/1999/xlink">
<g id="graph0" class="graph" transform="scale(1 1) rotate(0) translate(4 62)">
<title>Slider::getValue</title>
<!-- Node13 -->
<g id="node1" class="node">
<title>Node13</title>
<polygon fill="#bfbfbf" stroke="#000000" points="0,-19.5 0,-38.5 93,-38.5 93,-19.5 0,-19.5"/>
<text text-anchor="middle" x="46.5" y="-26.5" font-family="Helvetica,sans-Serif" font-size="10.00" fill="#000000">Slider::getValue</text>
</g>
<!-- Node14 -->
<g id="node2" class="node">
<title>Node14</title>
<g id="a_node2"><a xlink:href="classSlider.html#a8a7b5110db76b3975b6797f27a4f3017" target="_top" xlink:title="Slider::onMouseButtonDown">
<polygon fill="none" stroke="#000000" points="129,-38.5 129,-57.5 283,-57.5 283,-38.5 129,-38.5"/>
<text text-anchor="middle" x="206" y="-45.5" font-family="Helvetica,sans-Serif" font-size="10.00" fill="#000000">Slider::onMouseButtonDown</text>
</a>
</g>
</g>
<!-- Node13&#45;&gt;Node14 -->
<g id="edge1" class="edge">
<title>Node13&#45;&gt;Node14</title>
<path fill="none" stroke="#191970" d="M103.0305,-35.734C111.376,-36.7282 120.0931,-37.7666 128.7704,-38.8002"/>
<polygon fill="#191970" stroke="#191970" points="103.4066,-32.2542 93.0628,-34.5467 102.5785,-39.205 103.4066,-32.2542"/>
</g>
<!-- Node15 -->
<g id="node3" class="node">
<title>Node15</title>
<g id="a_node3"><a xlink:href="classSlider.html#ad499d5dd60e6c489814b30df2f2b46b4" target="_top" xlink:title="Slider::onMouseMove">
<polygon fill="none" stroke="#000000" points="146,-.5 146,-19.5 266,-19.5 266,-.5 146,-.5"/>
<text text-anchor="middle" x="206" y="-7.5" font-family="Helvetica,sans-Serif" font-size="10.00" fill="#000000">Slider::onMouseMove</text>
</a>
</g>
</g>
<!-- Node13&#45;&gt;Node15 -->
<g id="edge2" class="edge">
<title>Node13&#45;&gt;Node15</title>
<path fill="none" stroke="#191970" d="M103.3464,-22.2283C117.0864,-20.5916 131.8176,-18.8368 145.7097,-17.1819"/>
<polygon fill="#191970" stroke="#191970" points="102.5785,-18.795 93.0628,-23.4533 103.4066,-25.7458 102.5785,-18.795"/>
</g>
</g>
</svg>
