<?xml version="1.0" encoding="UTF-8" standalone="no"?>
<!DOCTYPE svg PUBLIC "-//W3C//DTD SVG 1.1//EN"
 "http://www.w3.org/Graphics/SVG/1.1/DTD/svg11.dtd">
<!-- Generated by graphviz version 2.40.1 (20161225.0304)
 -->
<!-- Title: ComboBox::onMouseButtonDown Pages: 1 -->
<!--zoomable 94 -->
<svg id="main" version="1.1" xmlns="http://www.w3.org/2000/svg" xmlns:xlink="http://www.w3.org/1999/xlink" xml:space="preserve" onload="init(evt)">
<style type="text/css"><![CDATA[
.edge:hover path { stroke: red; }
.edge:hover polygon { stroke: red; fill: red; }
]]></style>
<script type="text/javascript"><![CDATA[
var edges = document.getElementsByTagName('g');
if (edges && edges.length) {
  for (var i=0;i<edges.length;i++) {
    if (edges[i].id.substr(0,4)=='edge') {
      edges[i].setAttribute('class','edge');
    }
  }
}
]]></script>
        <defs>
                <circle id="rim" cx="0" cy="0" r="7"/>
                <circle id="rim2" cx="0" cy="0" r="3.5"/>
                <g id="zoomPlus">
                        <use xlink:href="#rim" fill="#404040">
                                <set attributeName="fill" to="#808080" begin="zoomplus.mouseover" end="zoomplus.mouseout"/>
                        </use>
                        <path d="M-4,0h8M0,-4v8" fill="none" stroke="white" stroke-width="1.5" pointer-events="none"/>
                </g>
                <g id="zoomMin">
                        <use xlink:href="#rim" fill="#404040">
                                <set attributeName="fill" to="#808080" begin="zoomminus.mouseover" end="zoomminus.mouseout"/>
                        </use>
                        <path d="M-4,0h8" fill="none" stroke="white" stroke-width="1.5" pointer-events="none"/>
                </g>
                <g id="dirArrow">
                        <path fill="none" stroke="white" stroke-width="1.5" d="M0,-3.0v7 M-2.5,-0.5L0,-3.0L2.5,-0.5"/>
                </g>
               <g id="resetDef">
                       <use xlink:href="#rim2" fill="#404040">
                               <set attributeName="fill" to="#808080" begin="reset.mouseover" end="reset.mouseout"/>
                       </use>
               </g>
        </defs>

<script type="text/javascript">
var viewWidth = 591;
var viewHeight = 94;
var sectionId = 'dynsection-14';
</script>
<script xlink:href="svgpan.js"/>
<svg id="graph" class="graph">
<g id="viewport">
<title>ComboBox::onMouseButtonDown</title>
<!-- Node47 -->
<g id="node1" class="node">
<title>Node47</title>
<polygon fill="#bfbfbf" stroke="#000000" points="0,-47 0,-66 179,-66 179,-47 0,-47"/>
<text text-anchor="middle" x="89.5" y="-54" font-family="Helvetica,sans-Serif" font-size="10.00" fill="#000000">ComboBox::onMouseButtonDown</text>
</g>
<!-- Node48 -->
<g id="node2" class="node">
<title>Node48</title>
<g id="a_node2"><a xlink:href="classComboBox.html#aa6f2324f223f737bf44ffa55fc272d63" target="_top" xlink:title="ComboBox::checkBoundaries">
<polygon fill="none" stroke="#000000" points="219,-66 219,-85 378,-85 378,-66 219,-66"/>
<text text-anchor="middle" x="298.5" y="-73" font-family="Helvetica,sans-Serif" font-size="10.00" fill="#000000">ComboBox::checkBoundaries</text>
</a>
</g>
</g>
<!-- Node47&#45;&gt;Node48 -->
<g id="edge1" class="edge">
<title>Node47&#45;&gt;Node48</title>
<path fill="none" stroke="#191970" d="M179.0443,-64.6404C188.8296,-65.53 198.7936,-66.4358 208.5833,-67.3258"/>
<polygon fill="#191970" stroke="#191970" points="208.4316,-70.8263 218.7075,-68.2461 209.0654,-63.8551 208.4316,-70.8263"/>
</g>
<!-- Node49 -->
<g id="node3" class="node">
<title>Node49</title>
<g id="a_node3"><a xlink:href="classUIElement.html#ade4162d6216022e143c769369b64add7" target="_top" xlink:title="Set the button state Sets the mouse button pressed state. ">
<polygon fill="none" stroke="#000000" points="215,-28 215,-47 382,-47 382,-28 215,-28"/>
<text text-anchor="middle" x="298.5" y="-35" font-family="Helvetica,sans-Serif" font-size="10.00" fill="#000000">UIElement::changeButtonState</text>
</a>
</g>
</g>
<!-- Node47&#45;&gt;Node49 -->
<g id="edge2" class="edge">
<title>Node47&#45;&gt;Node49</title>
<path fill="none" stroke="#191970" d="M179.0443,-48.3596C187.565,-47.585 196.2212,-46.7981 204.7798,-46.02"/>
<polygon fill="#191970" stroke="#191970" points="205.1262,-49.5031 214.7682,-45.112 204.4924,-42.5318 205.1262,-49.5031"/>
</g>
<!-- Node50 -->
<g id="node4" class="node">
<title>Node50</title>
<g id="a_node4"><a xlink:href="classUIElement.html#afdf67550d4140097c7a328d4b22fc1fe" target="_top" xlink:title="UIElement::changeTexture">
<polygon fill="none" stroke="#000000" points="428,-50 428,-69 573,-69 573,-50 428,-50"/>
<text text-anchor="middle" x="500.5" y="-57" font-family="Helvetica,sans-Serif" font-size="10.00" fill="#000000">UIElement::changeTexture</text>
</a>
</g>
</g>
<!-- Node49&#45;&gt;Node50 -->
<g id="edge3" class="edge">
<title>Node49&#45;&gt;Node50</title>
<path fill="none" stroke="#191970" d="M382.1193,-46.607C393.8719,-47.887 405.9483,-49.2023 417.6858,-50.4806"/>
<polygon fill="#191970" stroke="#191970" points="417.5764,-53.9893 427.8966,-51.5927 418.3344,-47.0305 417.5764,-53.9893"/>
</g>
<!-- Node51 -->
<g id="node5" class="node">
<title>Node51</title>
<g id="a_node5"><a xlink:href="classSingleton.html#af5cb1e5749949e2b68416cfb8d378044" target="_top" xlink:title="Get an instance of the singleton. ">
<polygon fill="none" stroke="#000000" points="418,-.5 418,-30.5 583,-30.5 583,-.5 418,-.5"/>
<text text-anchor="start" x="426" y="-18.5" font-family="Helvetica,sans-Serif" font-size="10.00" fill="#000000">Singleton&lt; ResourcesManager</text>
<text text-anchor="middle" x="500.5" y="-7.5" font-family="Helvetica,sans-Serif" font-size="10.00" fill="#000000"> &gt;::instance</text>
</a>
</g>
</g>
<!-- Node49&#45;&gt;Node51 -->
<g id="edge4" class="edge">
<title>Node49&#45;&gt;Node51</title>
<path fill="none" stroke="#191970" d="M382.1193,-28.393C390.6225,-27.4669 399.2953,-26.5223 407.8865,-25.5866"/>
<polygon fill="#191970" stroke="#191970" points="408.3572,-29.0561 417.9194,-24.4939 407.5992,-22.0973 408.3572,-29.0561"/>
</g>
</g>
</svg>
        <g id="navigator" transform="translate(0 0)" fill="#404254">
                <rect fill="#f2f5e9" fill-opacity="0.5" stroke="#606060" stroke-width=".5" x="0" y="0" width="60" height="60"/>
                <use id="zoomplus" xlink:href="#zoomPlus" x="17" y="9" onmousedown="handleZoom(evt,'in')"/>
                <use id="zoomminus" xlink:href="#zoomMin" x="42" y="9" onmousedown="handleZoom(evt,'out')"/>
                <use id="reset" xlink:href="#resetDef" x="30" y="36" onmousedown="handleReset()"/>
                <g id="arrowUp" xlink:href="#dirArrow" transform="translate(30 24)" onmousedown="handlePan(0,-1)">
                  <use xlink:href="#rim" fill="#404040">
                        <set attributeName="fill" to="#808080" begin="arrowUp.mouseover" end="arrowUp.mouseout"/>
                  </use>
                  <path fill="none" stroke="white" stroke-width="1.5" d="M0,-3.0v7 M-2.5,-0.5L0,-3.0L2.5,-0.5"/>
                </g>
                <g id="arrowRight" xlink:href="#dirArrow" transform="rotate(90) translate(36 -43)" onmousedown="handlePan(1,0)">
                  <use xlink:href="#rim" fill="#404040">
                        <set attributeName="fill" to="#808080" begin="arrowRight.mouseover" end="arrowRight.mouseout"/>
                  </use>
                  <path fill="none" stroke="white" stroke-width="1.5" d="M0,-3.0v7 M-2.5,-0.5L0,-3.0L2.5,-0.5"/>
                </g>
                <g id="arrowDown" xlink:href="#dirArrow" transform="rotate(180) translate(-30 -48)" onmousedown="handlePan(0,1)">
                  <use xlink:href="#rim" fill="#404040">
                        <set attributeName="fill" to="#808080" begin="arrowDown.mouseover" end="arrowDown.mouseout"/>
                  </use>
                  <path fill="none" stroke="white" stroke-width="1.5" d="M0,-3.0v7 M-2.5,-0.5L0,-3.0L2.5,-0.5"/>
                </g>
                <g id="arrowLeft" xlink:href="#dirArrow" transform="rotate(270) translate(-36 17)" onmousedown="handlePan(-1,0)">
                  <use xlink:href="#rim" fill="#404040">
                        <set attributeName="fill" to="#808080" begin="arrowLeft.mouseover" end="arrowLeft.mouseout"/>
                  </use>
                  <path fill="none" stroke="white" stroke-width="1.5" d="M0,-3.0v7 M-2.5,-0.5L0,-3.0L2.5,-0.5"/>
                </g>
        </g>
        <svg viewBox="0 0 15 15" width="100%" height="30px" preserveAspectRatio="xMaxYMin meet">
         <g id="arrow_out" transform="scale(0.3 0.3)">
          <a xlink:href="classComboBox_a132276aba4ff900343458e81f318fd74_cgraph_org.svg" target="_base">
           <rect id="button" ry="5" rx="5" y="6" x="6" height="38" width="38"
                fill="#f2f5e9" fill-opacity="0.5" stroke="#606060" stroke-width="1.0"/>
           <path id="arrow"
             d="M 11.500037,31.436501 C 11.940474,20.09759 22.043105,11.32322 32.158766,21.979434 L 37.068811,17.246167 C 37.068811,17.246167 37.088388,32 37.088388,32 L 22.160133,31.978069 C 22.160133,31.978069 26.997745,27.140456 26.997745,27.140456 C 18.528582,18.264221 13.291696,25.230495 11.500037,31.436501 z"
             style="fill:#404040;"/>
          </a>
         </g>
        </svg>
</svg>
