<?xml version="1.0" encoding="UTF-8" standalone="no"?>
<!DOCTYPE svg PUBLIC "-//W3C//DTD SVG 1.1//EN"
 "http://www.w3.org/Graphics/SVG/1.1/DTD/svg11.dtd">
<!-- Generated by graphviz version 2.40.1 (20161225.0304)
 -->
<!-- Title: Tooltip::Tooltip Pages: 1 -->
<svg width="469pt" height="180pt"
 viewBox="0.00 0.00 469.00 180.00" xmlns="http://www.w3.org/2000/svg" xmlns:xlink="http://www.w3.org/1999/xlink">
<g id="graph0" class="graph" transform="scale(1 1) rotate(0) translate(4 176)">
<title>Tooltip::Tooltip</title>
<!-- Node0 -->
<g id="node1" class="node">
<title>Node0</title>
<polygon fill="#bfbfbf" stroke="#000000" points="0,-76.5 0,-95.5 87,-95.5 87,-76.5 0,-76.5"/>
<text text-anchor="middle" x="43.5" y="-83.5" font-family="Helvetica,sans-Serif" font-size="10.00" fill="#000000">Tooltip::Tooltip</text>
</g>
<!-- Node1 -->
<g id="node2" class="node">
<title>Node1</title>
<g id="a_node2"><a xlink:href="classTimer.html#a0b231ea71c5b402295888cb75dc03af7" target="_top" xlink:title="Register callback function for this timer Register one or more callback functions that should be exec...">
<polygon fill="none" stroke="#000000" points="123,-152.5 123,-171.5 294,-171.5 294,-152.5 123,-152.5"/>
<text text-anchor="middle" x="208.5" y="-159.5" font-family="Helvetica,sans-Serif" font-size="10.00" fill="#000000">Timer::registerCallbackFunction</text>
</a>
</g>
</g>
<!-- Node0&#45;&gt;Node1 -->
<g id="edge1" class="edge">
<title>Node0&#45;&gt;Node1</title>
<path fill="none" stroke="#191970" d="M53.9441,-95.6467C68.3687,-108.4351 95.7118,-130.8024 123,-143 128.6483,-145.5247 134.6609,-147.7269 140.7794,-149.6452"/>
<polygon fill="#191970" stroke="#191970" points="139.8659,-153.0243 150.4441,-152.4317 141.8051,-146.2983 139.8659,-153.0243"/>
</g>
<!-- Node2 -->
<g id="node3" class="node">
<title>Node2</title>
<g id="a_node3"><a xlink:href="namespaceSignal.html#a6e0df6c5db8c544e147a57b4d89171ca" target="_top" xlink:title="This function creates a std::function by binding object to the member function pointer method...">
<polygon fill="none" stroke="#000000" points="173,-114.5 173,-133.5 244,-133.5 244,-114.5 173,-114.5"/>
<text text-anchor="middle" x="208.5" y="-121.5" font-family="Helvetica,sans-Serif" font-size="10.00" fill="#000000">Signal::slot</text>
</a>
</g>
</g>
<!-- Node0&#45;&gt;Node2 -->
<g id="edge2" class="edge">
<title>Node0&#45;&gt;Node2</title>
<path fill="none" stroke="#191970" d="M83.0999,-95.5953C95.8304,-98.6448 110.0018,-102.0027 123,-105 135.8607,-107.9656 149.8292,-111.1043 162.6759,-113.958"/>
<polygon fill="#191970" stroke="#191970" points="162.1754,-117.4318 172.6956,-116.1766 163.6888,-110.5974 162.1754,-117.4318"/>
</g>
<!-- Node3 -->
<g id="node4" class="node">
<title>Node3</title>
<g id="a_node4"><a xlink:href="classTooltip.html#ab7c16dc309b2b97523e842c57b0534eb" target="_top" xlink:title="makes the Tooltip visible makes the Tooltip visible ">
<polygon fill="none" stroke="#000000" points="152,-76.5 152,-95.5 265,-95.5 265,-76.5 152,-76.5"/>
<text text-anchor="middle" x="208.5" y="-83.5" font-family="Helvetica,sans-Serif" font-size="10.00" fill="#000000">Tooltip::showTooltip</text>
</a>
</g>
</g>
<!-- Node0&#45;&gt;Node3 -->
<g id="edge3" class="edge">
<title>Node0&#45;&gt;Node3</title>
<path fill="none" stroke="#191970" d="M87.2838,-86C103.9587,-86 123.3627,-86 141.6934,-86"/>
<polygon fill="#191970" stroke="#191970" points="141.7426,-89.5001 151.7425,-86 141.7425,-82.5001 141.7426,-89.5001"/>
</g>
<!-- Node4 -->
<g id="node5" class="node">
<title>Node4</title>
<g id="a_node5"><a xlink:href="classUIElement.html#a440d645aa10dbf7d3c763ba6e1fc33a6" target="_top" xlink:title="Sets the UI Elements visibility. Set the UI Elements visibility. ">
<polygon fill="none" stroke="#000000" points="330,-57.5 330,-76.5 461,-76.5 461,-57.5 330,-57.5"/>
<text text-anchor="middle" x="395.5" y="-64.5" font-family="Helvetica,sans-Serif" font-size="10.00" fill="#000000">UIElement::setVisibility</text>
</a>
</g>
</g>
<!-- Node0&#45;&gt;Node4 -->
<g id="edge6" class="edge">
<title>Node0&#45;&gt;Node4</title>
<path fill="none" stroke="#191970" d="M75.6814,-76.4936C90.0257,-72.7292 107.2155,-68.86 123,-67 188.9881,-59.2241 264.5906,-59.9803 319.3962,-62.2473"/>
<polygon fill="#191970" stroke="#191970" points="319.5809,-65.7587 329.7254,-62.7025 319.8892,-58.7655 319.5809,-65.7587"/>
</g>
<!-- Node5 -->
<g id="node6" class="node">
<title>Node5</title>
<g id="a_node6"><a xlink:href="classTimer.html#a880967eacd324ee909029754c53b17ba" target="_top" xlink:title="Sets a timer Sets a timer. When a timer is set, a signal is emitted and the registered callback funct...">
<polygon fill="none" stroke="#000000" points="161,-.5 161,-19.5 256,-19.5 256,-.5 161,-.5"/>
<text text-anchor="middle" x="208.5" y="-7.5" font-family="Helvetica,sans-Serif" font-size="10.00" fill="#000000">Timer::setTimer</text>
</a>
</g>
</g>
<!-- Node0&#45;&gt;Node5 -->
<g id="edge5" class="edge">
<title>Node0&#45;&gt;Node5</title>
<path fill="none" stroke="#191970" d="M55.4812,-76.4669C70.4779,-64.9481 97.3238,-45.6655 123,-34 132.9945,-29.4591 144.0437,-25.5876 154.7876,-22.3643"/>
<polygon fill="#191970" stroke="#191970" points="155.8731,-25.6944 164.5296,-19.5858 153.9531,-18.9628 155.8731,-25.6944"/>
</g>
<!-- Node3&#45;&gt;Node4 -->
<g id="edge4" class="edge">
<title>Node3&#45;&gt;Node4</title>
<path fill="none" stroke="#191970" d="M265.1136,-80.2478C282.3469,-78.4968 301.5712,-76.5436 319.8501,-74.6864"/>
<polygon fill="#191970" stroke="#191970" points="320.2942,-78.1593 329.8892,-73.6663 319.5866,-71.1952 320.2942,-78.1593"/>
</g>
</g>
</svg>
