<?xml version="1.0" encoding="UTF-8" standalone="no"?>
<!DOCTYPE svg PUBLIC "-//W3C//DTD SVG 1.1//EN"
 "http://www.w3.org/Graphics/SVG/1.1/DTD/svg11.dtd">
<!-- Generated by graphviz version 2.40.1 (20161225.0304)
 -->
<!-- Title: Camera::setPinchDistance Pages: 1 -->
<!--zoomable 220 -->
<svg id="main" version="1.1" xmlns="http://www.w3.org/2000/svg" xmlns:xlink="http://www.w3.org/1999/xlink" xml:space="preserve" onload="init(evt)">
<style type="text/css"><![CDATA[
.edge:hover path { stroke: red; }
.edge:hover polygon { stroke: red; fill: red; }
]]></style>
<script type="text/javascript"><![CDATA[
var edges = document.getElementsByTagName('g');
if (edges && edges.length) {
  for (var i=0;i<edges.length;i++) {
    if (edges[i].id.substr(0,4)=='edge') {
      edges[i].setAttribute('class','edge');
    }
  }
}
]]></script>
        <defs>
                <circle id="rim" cx="0" cy="0" r="7"/>
                <circle id="rim2" cx="0" cy="0" r="3.5"/>
                <g id="zoomPlus">
                        <use xlink:href="#rim" fill="#404040">
                                <set attributeName="fill" to="#808080" begin="zoomplus.mouseover" end="zoomplus.mouseout"/>
                        </use>
                        <path d="M-4,0h8M0,-4v8" fill="none" stroke="white" stroke-width="1.5" pointer-events="none"/>
                </g>
                <g id="zoomMin">
                        <use xlink:href="#rim" fill="#404040">
                                <set attributeName="fill" to="#808080" begin="zoomminus.mouseover" end="zoomminus.mouseout"/>
                        </use>
                        <path d="M-4,0h8" fill="none" stroke="white" stroke-width="1.5" pointer-events="none"/>
                </g>
                <g id="dirArrow">
                        <path fill="none" stroke="white" stroke-width="1.5" d="M0,-3.0v7 M-2.5,-0.5L0,-3.0L2.5,-0.5"/>
                </g>
               <g id="resetDef">
                       <use xlink:href="#rim2" fill="#404040">
                               <set attributeName="fill" to="#808080" begin="reset.mouseover" end="reset.mouseout"/>
                       </use>
               </g>
        </defs>

<script type="text/javascript">
var viewWidth = 903;
var viewHeight = 220;
var sectionId = 'dynsection-9';
</script>
<script xlink:href="svgpan.js"/>
<svg id="graph" class="graph">
<g id="viewport">
<title>Camera::setPinchDistance</title>
<!-- Node52 -->
<g id="node1" class="node">
<title>Node52</title>
<polygon fill="#bfbfbf" stroke="#000000" points="0,-120.2652 0,-139.2652 145,-139.2652 145,-120.2652 0,-120.2652"/>
<text text-anchor="middle" x="72.5" y="-127.2652" font-family="Helvetica,sans-Serif" font-size="10.00" fill="#000000">Camera::setPinchDistance</text>
</g>
<!-- Node53 -->
<g id="node2" class="node">
<title>Node53</title>
<g id="a_node2"><a xlink:href="classCamera.html#adfb240823ff20b97b69459490dbd8dc3" target="_top" xlink:title="Centers camera on given isometric coordinates Centers the camera on the given isometric coordinates...">
<polygon fill="none" stroke="#000000" points="377,-82.2652 377,-101.2652 540,-101.2652 540,-82.2652 377,-82.2652"/>
<text text-anchor="middle" x="458.5" y="-89.2652" font-family="Helvetica,sans-Serif" font-size="10.00" fill="#000000">Camera::centerScreenOnPoint</text>
</a>
</g>
</g>
<!-- Node52&#45;&gt;Node53 -->
<g id="edge1" class="edge">
<title>Node52&#45;&gt;Node53</title>
<path fill="none" stroke="#191970" d="M120.4095,-120.259C139.2324,-116.8174 161.0669,-113.1861 181,-110.7652 242.6982,-103.2718 312.4997,-98.5107 366.6617,-95.6284"/>
<polygon fill="#191970" stroke="#191970" points="367.1278,-99.109 376.9325,-95.0943 366.7642,-92.1185 367.1278,-99.109"/>
</g>
<!-- Node58 -->
<g id="node7" class="node">
<title>Node58</title>
<g id="a_node7"><a xlink:href="classCamera.html#a0a8ee04ccb4f4cc9af52a964cf225f66" target="_top" xlink:title="Increases the zoom level of the camera Increases the zoom level of the camera. ">
<polygon fill="none" stroke="#000000" points="182.5,-158.2652 182.5,-177.2652 339.5,-177.2652 339.5,-158.2652 182.5,-158.2652"/>
<text text-anchor="middle" x="261" y="-165.2652" font-family="Helvetica,sans-Serif" font-size="10.00" fill="#000000">Camera::increaseZoomLevel</text>
</a>
</g>
</g>
<!-- Node52&#45;&gt;Node58 -->
<g id="edge8" class="edge">
<title>Node52&#45;&gt;Node58</title>
<path fill="none" stroke="#191970" d="M120.0665,-139.3542C145.5014,-144.4816 177.0046,-150.8324 203.7714,-156.2284"/>
<polygon fill="#191970" stroke="#191970" points="203.2811,-159.6999 213.7755,-158.2451 204.6644,-152.8379 203.2811,-159.6999"/>
</g>
<!-- Node59 -->
<g id="node8" class="node">
<title>Node59</title>
<g id="a_node8"><a xlink:href="classCamera.html#aeea39f352d5873495dea6f376cf3207e" target="_top" xlink:title="Decreases the zoom level of the camera Decreases the zoom level of the camera. ">
<polygon fill="none" stroke="#000000" points="181,-120.2652 181,-139.2652 341,-139.2652 341,-120.2652 181,-120.2652"/>
<text text-anchor="middle" x="261" y="-127.2652" font-family="Helvetica,sans-Serif" font-size="10.00" fill="#000000">Camera::decreaseZoomLevel</text>
</a>
</g>
</g>
<!-- Node52&#45;&gt;Node59 -->
<g id="edge12" class="edge">
<title>Node52&#45;&gt;Node59</title>
<path fill="none" stroke="#191970" d="M145.1094,-129.7652C153.5329,-129.7652 162.2001,-129.7652 170.8218,-129.7652"/>
<polygon fill="#191970" stroke="#191970" points="170.9048,-133.2653 180.9048,-129.7652 170.9047,-126.2653 170.9048,-133.2653"/>
</g>
<!-- Node54 -->
<g id="node3" class="node">
<title>Node54</title>
<g id="a_node3"><a xlink:href="isoMath_8cxx.html#a7fa61c3d8ef446fb1c48dc4838023649" target="_top" xlink:title="Check if given coordinates are within map boundaries Checks if coordinates are within map boundaries...">
<polygon fill="none" stroke="#000000" points="583,-26.2652 583,-45.2652 739,-45.2652 739,-26.2652 583,-26.2652"/>
<text text-anchor="middle" x="661" y="-33.2652" font-family="Helvetica,sans-Serif" font-size="10.00" fill="#000000">isPointWithinMapBoundaries</text>
</a>
</g>
</g>
<!-- Node53&#45;&gt;Node54 -->
<g id="edge2" class="edge">
<title>Node53&#45;&gt;Node54</title>
<path fill="none" stroke="#191970" d="M486.7928,-82.1107C510.4699,-74.2115 545.2252,-63.034 576,-54.7652 585.3209,-52.2608 595.2779,-49.824 604.9744,-47.577"/>
<polygon fill="#191970" stroke="#191970" points="605.9723,-50.9395 614.9472,-45.3091 604.42,-44.1138 605.9723,-50.9395"/>
</g>
<!-- Node55 -->
<g id="node4" class="node">
<title>Node55</title>
<g id="a_node4"><a xlink:href="classSingleton.html#af5cb1e5749949e2b68416cfb8d378044" target="_top" xlink:title="Get an instance of the singleton. ">
<polygon fill="none" stroke="#000000" points="782,-105.7652 782,-135.7652 895,-135.7652 895,-105.7652 782,-105.7652"/>
<text text-anchor="start" x="790" y="-123.7652" font-family="Helvetica,sans-Serif" font-size="10.00" fill="#000000">Singleton&lt; Settings</text>
<text text-anchor="middle" x="838.5" y="-112.7652" font-family="Helvetica,sans-Serif" font-size="10.00" fill="#000000"> &gt;::instance</text>
</a>
</g>
</g>
<!-- Node53&#45;&gt;Node55 -->
<g id="edge5" class="edge">
<title>Node53&#45;&gt;Node55</title>
<path fill="none" stroke="#191970" d="M540.0195,-92.3291C609.1591,-96.0333 707.1202,-103.6337 771.699,-110.3831"/>
<polygon fill="#191970" stroke="#191970" points="771.4522,-113.8765 781.7674,-111.4583 772.1956,-106.9161 771.4522,-113.8765"/>
</g>
<!-- Node53&#45;&gt;Node55 -->
<g id="edge6" class="edge">
<title>Node53&#45;&gt;Node55</title>
<path fill="none" stroke="#191970" d="M517.0422,-101.2689C585.6992,-108.7051 699.2749,-117.458 771.4209,-120.9379"/>
<polygon fill="#191970" stroke="#191970" points="771.6045,-124.45 781.7545,-121.4123 771.9256,-117.4573 771.6045,-124.45"/>
</g>
<!-- Node56 -->
<g id="node5" class="node">
<title>Node56</title>
<g id="a_node5"><a xlink:href="isoMath_8cxx.html#a229d5dd54cd4e1f43ed5911e4fd266d3" target="_top" xlink:title="converts coordinates from isometric to screen space The given isometric coordinates (which contain he...">
<polygon fill="none" stroke="#000000" points="576,-64.2652 576,-83.2652 746,-83.2652 746,-64.2652 576,-64.2652"/>
<text text-anchor="middle" x="661" y="-71.2652" font-family="Helvetica,sans-Serif" font-size="10.00" fill="#000000">convertIsoToScreenCoordinates</text>
</a>
</g>
</g>
<!-- Node53&#45;&gt;Node56 -->
<g id="edge4" class="edge">
<title>Node53&#45;&gt;Node56</title>
<path fill="none" stroke="#191970" d="M540.2808,-84.4958C548.7226,-83.7454 557.3521,-82.9783 565.9224,-82.2165"/>
<polygon fill="#191970" stroke="#191970" points="566.2904,-85.6977 575.9412,-81.326 565.6706,-78.7252 566.2904,-85.6977"/>
</g>
<!-- Node57 -->
<g id="node6" class="node">
<title>Node57</title>
<g id="a_node6"><a xlink:href="classMap.html#ab69938ac0e56eb0da1d1701221f3d185" target="_top" xlink:title="Refresh all the map tile textures. ">
<polygon fill="none" stroke="#000000" points="622.5,-158.2652 622.5,-177.2652 699.5,-177.2652 699.5,-158.2652 622.5,-158.2652"/>
<text text-anchor="middle" x="661" y="-165.2652" font-family="Helvetica,sans-Serif" font-size="10.00" fill="#000000">Map::refresh</text>
</a>
</g>
</g>
<!-- Node53&#45;&gt;Node57 -->
<g id="edge7" class="edge">
<title>Node53&#45;&gt;Node57</title>
<path fill="none" stroke="#191970" d="M501.962,-101.3128C514.6067,-104.945 528.1868,-109.7092 540,-115.7652 558.0377,-125.0121 557.9108,-134.6193 576,-143.7652 587.3376,-149.4975 600.2398,-154.0332 612.5062,-157.5464"/>
<polygon fill="#191970" stroke="#191970" points="611.5991,-160.9268 622.1653,-160.1481 613.4197,-154.1677 611.5991,-160.9268"/>
</g>
<!-- Node54&#45;&gt;Node55 -->
<g id="edge3" class="edge">
<title>Node54&#45;&gt;Node55</title>
<path fill="none" stroke="#191970" d="M718.7088,-45.3782C728.0391,-47.8591 737.439,-50.9439 746,-54.7652 770.9249,-65.8908 795.9273,-84.2692 813.6427,-98.8108"/>
<polygon fill="#191970" stroke="#191970" points="811.8123,-101.8439 821.7218,-105.5926 816.3128,-96.4825 811.8123,-101.8439"/>
</g>
<!-- Node58&#45;&gt;Node53 -->
<g id="edge9" class="edge">
<title>Node58&#45;&gt;Node53</title>
<path fill="none" stroke="#191970" d="M308.8772,-158.1974C319.5783,-155.5624 330.7807,-152.408 341,-148.7652 373.8483,-137.056 409.6401,-118.8411 432.9808,-106.1648"/>
<polygon fill="#191970" stroke="#191970" points="434.8027,-109.1573 441.879,-101.2721 431.4299,-103.0234 434.8027,-109.1573"/>
</g>
<!-- Node58&#45;&gt;Node55 -->
<g id="edge10" class="edge">
<title>Node58&#45;&gt;Node55</title>
<path fill="none" stroke="#191970" d="M296.8141,-177.3214C378.7294,-197.449 585.0934,-238.2848 746,-186.7652 773.0462,-178.1054 798.9239,-158.3155 816.3952,-142.651"/>
<polygon fill="#191970" stroke="#191970" points="818.8393,-145.158 823.805,-135.7989 814.0867,-140.0186 818.8393,-145.158"/>
</g>
<!-- Node58&#45;&gt;Node57 -->
<g id="edge11" class="edge">
<title>Node58&#45;&gt;Node57</title>
<path fill="none" stroke="#191970" d="M339.5499,-167.7652C420.4295,-167.7652 543.956,-167.7652 611.9213,-167.7652"/>
<polygon fill="#191970" stroke="#191970" points="612.3373,-171.2653 622.3373,-167.7652 612.3372,-164.2653 612.3373,-171.2653"/>
</g>
<!-- Node59&#45;&gt;Node53 -->
<g id="edge13" class="edge">
<title>Node59&#45;&gt;Node53</title>
<path fill="none" stroke="#191970" d="M310.5827,-120.2252C337.3473,-115.0756 370.5814,-108.6812 398.7638,-103.2587"/>
<polygon fill="#191970" stroke="#191970" points="399.7384,-106.6355 408.8969,-101.3091 398.4157,-99.7616 399.7384,-106.6355"/>
</g>
<!-- Node59&#45;&gt;Node55 -->
<g id="edge14" class="edge">
<title>Node59&#45;&gt;Node55</title>
<path fill="none" stroke="#191970" d="M277.8566,-120.2626C300.0509,-108.038 340.5357,-86.7207 377,-72.7652 462.8099,-39.9242 484.9832,-29.3276 576,-16.7652 650.846,-6.4347 677.0706,14.1763 746,-16.7652 782.3222,-33.0697 810.2066,-71.4676 825.4685,-96.7656"/>
<polygon fill="#191970" stroke="#191970" points="822.4559,-98.5475 830.5125,-105.4281 828.5051,-95.0251 822.4559,-98.5475"/>
</g>
<!-- Node59&#45;&gt;Node57 -->
<g id="edge15" class="edge">
<title>Node59&#45;&gt;Node57</title>
<path fill="none" stroke="#191970" d="M341.4648,-137.4093C422.4555,-145.1035 544.7548,-156.7219 612.1403,-163.1235"/>
<polygon fill="#191970" stroke="#191970" points="612.1828,-166.6432 622.469,-164.1047 612.8449,-159.6746 612.1828,-166.6432"/>
</g>
</g>
</svg>
        <g id="navigator" transform="translate(0 0)" fill="#404254">
                <rect fill="#f2f5e9" fill-opacity="0.5" stroke="#606060" stroke-width=".5" x="0" y="0" width="60" height="60"/>
                <use id="zoomplus" xlink:href="#zoomPlus" x="17" y="9" onmousedown="handleZoom(evt,'in')"/>
                <use id="zoomminus" xlink:href="#zoomMin" x="42" y="9" onmousedown="handleZoom(evt,'out')"/>
                <use id="reset" xlink:href="#resetDef" x="30" y="36" onmousedown="handleReset()"/>
                <g id="arrowUp" xlink:href="#dirArrow" transform="translate(30 24)" onmousedown="handlePan(0,-1)">
                  <use xlink:href="#rim" fill="#404040">
                        <set attributeName="fill" to="#808080" begin="arrowUp.mouseover" end="arrowUp.mouseout"/>
                  </use>
                  <path fill="none" stroke="white" stroke-width="1.5" d="M0,-3.0v7 M-2.5,-0.5L0,-3.0L2.5,-0.5"/>
                </g>
                <g id="arrowRight" xlink:href="#dirArrow" transform="rotate(90) translate(36 -43)" onmousedown="handlePan(1,0)">
                  <use xlink:href="#rim" fill="#404040">
                        <set attributeName="fill" to="#808080" begin="arrowRight.mouseover" end="arrowRight.mouseout"/>
                  </use>
                  <path fill="none" stroke="white" stroke-width="1.5" d="M0,-3.0v7 M-2.5,-0.5L0,-3.0L2.5,-0.5"/>
                </g>
                <g id="arrowDown" xlink:href="#dirArrow" transform="rotate(180) translate(-30 -48)" onmousedown="handlePan(0,1)">
                  <use xlink:href="#rim" fill="#404040">
                        <set attributeName="fill" to="#808080" begin="arrowDown.mouseover" end="arrowDown.mouseout"/>
                  </use>
                  <path fill="none" stroke="white" stroke-width="1.5" d="M0,-3.0v7 M-2.5,-0.5L0,-3.0L2.5,-0.5"/>
                </g>
                <g id="arrowLeft" xlink:href="#dirArrow" transform="rotate(270) translate(-36 17)" onmousedown="handlePan(-1,0)">
                  <use xlink:href="#rim" fill="#404040">
                        <set attributeName="fill" to="#808080" begin="arrowLeft.mouseover" end="arrowLeft.mouseout"/>
                  </use>
                  <path fill="none" stroke="white" stroke-width="1.5" d="M0,-3.0v7 M-2.5,-0.5L0,-3.0L2.5,-0.5"/>
                </g>
        </g>
        <svg viewBox="0 0 15 15" width="100%" height="30px" preserveAspectRatio="xMaxYMin meet">
         <g id="arrow_out" transform="scale(0.3 0.3)">
          <a xlink:href="classCamera_a1f8ecd427814c5a4970223c2d13b9310_cgraph_org.svg" target="_base">
           <rect id="button" ry="5" rx="5" y="6" x="6" height="38" width="38"
                fill="#f2f5e9" fill-opacity="0.5" stroke="#606060" stroke-width="1.0"/>
           <path id="arrow"
             d="M 11.500037,31.436501 C 11.940474,20.09759 22.043105,11.32322 32.158766,21.979434 L 37.068811,17.246167 C 37.068811,17.246167 37.088388,32 37.088388,32 L 22.160133,31.978069 C 22.160133,31.978069 26.997745,27.140456 26.997745,27.140456 C 18.528582,18.264221 13.291696,25.230495 11.500037,31.436501 z"
             style="fill:#404040;"/>
          </a>
         </g>
        </svg>
</svg>
