<?xml version="1.0" encoding="UTF-8" standalone="no"?>
<!DOCTYPE svg PUBLIC "-//W3C//DTD SVG 1.1//EN"
 "http://www.w3.org/Graphics/SVG/1.1/DTD/svg11.dtd">
<!-- Generated by graphviz version 2.40.1 (20161225.0304)
 -->
<!-- Title: Map::updateAllNodes Pages: 1 -->
<svg width="1144pt" height="292pt"
 viewBox="0.00 0.00 1144.00 292.26" xmlns="http://www.w3.org/2000/svg" xmlns:xlink="http://www.w3.org/1999/xlink">
<g id="graph0" class="graph" transform="scale(1 1) rotate(0) translate(4 288.257)">
<title>Map::updateAllNodes</title>
<!-- Node510 -->
<g id="node1" class="node">
<title>Node510</title>
<polygon fill="#bfbfbf" stroke="#000000" points="0,-95.5 0,-114.5 120,-114.5 120,-95.5 0,-95.5"/>
<text text-anchor="middle" x="60" y="-102.5" font-family="Helvetica,sans-Serif" font-size="10.00" fill="#000000">Map::updateAllNodes</text>
</g>
<!-- Node511 -->
<g id="node2" class="node">
<title>Node511</title>
<g id="a_node2"><a xlink:href="classMap.html#a482ac34426e8aa66abb46f60ec329402" target="_top" xlink:title="Initialize the Map with node objects Initialize the Map with node objects. ">
<polygon fill="none" stroke="#000000" points="179,-152.5 179,-171.5 258,-171.5 258,-152.5 179,-152.5"/>
<text text-anchor="middle" x="218.5" y="-159.5" font-family="Helvetica,sans-Serif" font-size="10.00" fill="#000000">Map::initMap</text>
</a>
</g>
</g>
<!-- Node510&#45;&gt;Node511 -->
<g id="edge1" class="edge">
<title>Node510&#45;&gt;Node511</title>
<path fill="none" stroke="#191970" d="M95.9502,-117.9285C125.1139,-128.4164 165.5664,-142.9639 191.8841,-152.4284"/>
<polygon fill="#191970" stroke="#191970" points="97.1238,-114.6311 86.5293,-114.5405 94.7549,-121.2181 97.1238,-114.6311"/>
</g>
<!-- Node519 -->
<g id="node10" class="node">
<title>Node519</title>
<g id="a_node10"><a xlink:href="classMap.html#afefe996cc1f62b61ec60d0ae415953bf" target="_top" xlink:title="Map::loadMapFromFile">
<polygon fill="none" stroke="#000000" points="156,-76.5 156,-95.5 281,-95.5 281,-76.5 156,-76.5"/>
<text text-anchor="middle" x="218.5" y="-83.5" font-family="Helvetica,sans-Serif" font-size="10.00" fill="#000000">Map::loadMapFromFile</text>
</a>
</g>
</g>
<!-- Node510&#45;&gt;Node519 -->
<g id="edge11" class="edge">
<title>Node510&#45;&gt;Node519</title>
<path fill="none" stroke="#191970" d="M130.3042,-96.5724C138.8386,-95.5493 147.5131,-94.5095 155.9251,-93.5011"/>
<polygon fill="#191970" stroke="#191970" points="129.8865,-93.0973 120.3742,-97.7627 130.7197,-100.0475 129.8865,-93.0973"/>
</g>
<!-- Node512 -->
<g id="node3" class="node">
<title>Node512</title>
<g id="a_node3"><a xlink:href="classEngine.html#a260d4834150eae6eec2bde34df6dc827" target="_top" xlink:title="Creates a new game Creates a new game. ">
<polygon fill="none" stroke="#000000" points="326,-190.5 326,-209.5 431,-209.5 431,-190.5 326,-190.5"/>
<text text-anchor="middle" x="378.5" y="-197.5" font-family="Helvetica,sans-Serif" font-size="10.00" fill="#000000">Engine::newGame</text>
</a>
</g>
</g>
<!-- Node511&#45;&gt;Node512 -->
<g id="edge2" class="edge">
<title>Node511&#45;&gt;Node512</title>
<path fill="none" stroke="#191970" d="M267.8098,-173.7111C290.429,-179.0831 316.9064,-185.3715 338.2931,-190.4509"/>
<polygon fill="#191970" stroke="#191970" points="268.5887,-170.2988 258.0506,-171.3933 266.9712,-177.1093 268.5887,-170.2988"/>
</g>
<!-- Node513 -->
<g id="node4" class="node">
<title>Node513</title>
<g id="a_node4"><a xlink:href="classEngine.html#ab5a909990be40701ebb4b57c3e716ed4" target="_top" xlink:title="Engine::saveGame">
<polygon fill="none" stroke="#000000" points="490,-228.5 490,-247.5 598,-247.5 598,-228.5 490,-228.5"/>
<text text-anchor="middle" x="544" y="-235.5" font-family="Helvetica,sans-Serif" font-size="10.00" fill="#000000">Engine::saveGame</text>
</a>
</g>
</g>
<!-- Node512&#45;&gt;Node513 -->
<g id="edge3" class="edge">
<title>Node512&#45;&gt;Node513</title>
<path fill="none" stroke="#191970" d="M430.3105,-211.8961C453.5733,-217.2374 480.6469,-223.4537 502.5377,-228.4799"/>
<polygon fill="#191970" stroke="#191970" points="430.7923,-208.4157 420.2626,-209.589 429.2258,-215.2382 430.7923,-208.4157"/>
</g>
<!-- Node514 -->
<g id="node5" class="node">
<title>Node514</title>
<g id="a_node5"><a xlink:href="classUIManager.html#aa78e356fc3b356d790c848319d1c387e" target="_top" xlink:title="UIManager::setCallbackFunctions">
<polygon fill="none" stroke="#000000" points="648,-171.5 648,-190.5 826,-190.5 826,-171.5 648,-171.5"/>
<text text-anchor="middle" x="737" y="-178.5" font-family="Helvetica,sans-Serif" font-size="10.00" fill="#000000">UIManager::setCallbackFunctions</text>
</a>
</g>
</g>
<!-- Node512&#45;&gt;Node514 -->
<g id="edge5" class="edge">
<title>Node512&#45;&gt;Node514</title>
<path fill="none" stroke="#191970" d="M441.0043,-196.6874C498.2186,-193.6551 583.5184,-189.1343 647.8714,-185.7237"/>
<polygon fill="#191970" stroke="#191970" points="440.8136,-193.1925 431.0129,-197.2169 441.1842,-200.1826 440.8136,-193.1925"/>
</g>
<!-- Node515 -->
<g id="node6" class="node">
<title>Node515</title>
<g id="a_node6"><a xlink:href="classGame.html#a5ed7fc5be77080f7f6dd5363f7f007a1" target="_top" xlink:title="initializes and displays the main menu initializes and displays the main menu ">
<polygon fill="none" stroke="#000000" points="685.5,-76.5 685.5,-95.5 788.5,-95.5 788.5,-76.5 685.5,-76.5"/>
<text text-anchor="middle" x="737" y="-83.5" font-family="Helvetica,sans-Serif" font-size="10.00" fill="#000000">Game::mainMenu</text>
</a>
</g>
</g>
<!-- Node512&#45;&gt;Node515 -->
<g id="edge6" class="edge">
<title>Node512&#45;&gt;Node515</title>
<path fill="none" stroke="#191970" d="M418.106,-187.4056C490.4107,-164.4133 642.2829,-116.1193 706.8842,-95.5766"/>
<polygon fill="#191970" stroke="#191970" points="416.918,-184.1106 408.4489,-190.4765 419.0393,-190.7815 416.918,-184.1106"/>
</g>
<!-- Node518 -->
<g id="node9" class="node">
<title>Node518</title>
<g id="a_node9"><a xlink:href="classGame.html#a1c2ab25d5216b2f4b2fe41efd2c09114" target="_top" xlink:title="begins the game starts running the game ">
<polygon fill="none" stroke="#000000" points="862,-38.5 862,-57.5 930,-57.5 930,-38.5 862,-38.5"/>
<text text-anchor="middle" x="896" y="-45.5" font-family="Helvetica,sans-Serif" font-size="10.00" fill="#000000">Game::run</text>
</a>
</g>
</g>
<!-- Node512&#45;&gt;Node518 -->
<g id="edge9" class="edge">
<title>Node512&#45;&gt;Node518</title>
<path fill="none" stroke="#191970" d="M398.2142,-215.8006C416.9615,-229.7377 446.5915,-249.0344 476,-257 628.1233,-298.2044 705.4335,-301.5038 826,-200 872.4505,-160.8937 889.7124,-84.3297 894.485,-57.5346"/>
<polygon fill="#191970" stroke="#191970" points="400.2396,-212.9434 390.1701,-209.6485 395.9871,-218.5037 400.2396,-212.9434"/>
</g>
<!-- Node513&#45;&gt;Node514 -->
<g id="edge4" class="edge">
<title>Node513&#45;&gt;Node514</title>
<path fill="none" stroke="#191970" d="M585.9351,-225.615C621.5685,-215.0912 671.9873,-200.2007 704.5907,-190.5716"/>
<polygon fill="#191970" stroke="#191970" points="584.903,-222.2703 576.3039,-228.4595 586.8857,-228.9837 584.903,-222.2703"/>
</g>
<!-- Node516 -->
<g id="node7" class="node">
<title>Node516</title>
<g id="a_node7"><a xlink:href="main_8cxx.html#af582d708d899e67ead623eac34a22387" target="_top" xlink:title="protected_main">
<polygon fill="none" stroke="#000000" points="966,-57.5 966,-76.5 1059,-76.5 1059,-57.5 966,-57.5"/>
<text text-anchor="middle" x="1012.5" y="-64.5" font-family="Helvetica,sans-Serif" font-size="10.00" fill="#000000">protected_main</text>
</a>
</g>
</g>
<!-- Node515&#45;&gt;Node516 -->
<g id="edge7" class="edge">
<title>Node515&#45;&gt;Node516</title>
<path fill="none" stroke="#191970" d="M798.9861,-81.7251C849.6117,-78.2337 920.055,-73.3755 965.9575,-70.2098"/>
<polygon fill="#191970" stroke="#191970" points="798.5549,-78.2464 788.8194,-82.4262 799.0366,-85.2298 798.5549,-78.2464"/>
</g>
<!-- Node517 -->
<g id="node8" class="node">
<title>Node517</title>
<g id="a_node8"><a xlink:href="main_8cxx.html#a3c04138a5bfe5d72780bb7e82a18e627" target="_top" xlink:title="main">
<polygon fill="none" stroke="#000000" points="1095,-57.5 1095,-76.5 1136,-76.5 1136,-57.5 1095,-57.5"/>
<text text-anchor="middle" x="1115.5" y="-64.5" font-family="Helvetica,sans-Serif" font-size="10.00" fill="#000000">main</text>
</a>
</g>
</g>
<!-- Node516&#45;&gt;Node517 -->
<g id="edge8" class="edge">
<title>Node516&#45;&gt;Node517</title>
<path fill="none" stroke="#191970" d="M1069.2133,-67C1078.4322,-67 1087.4259,-67 1094.9965,-67"/>
<polygon fill="#191970" stroke="#191970" points="1069.1782,-63.5001 1059.1782,-67 1069.1781,-70.5001 1069.1782,-63.5001"/>
</g>
<!-- Node518&#45;&gt;Node516 -->
<g id="edge10" class="edge">
<title>Node518&#45;&gt;Node516</title>
<path fill="none" stroke="#191970" d="M939.9884,-55.1741C948.382,-56.543 957.1965,-57.9805 965.6749,-59.3633"/>
<polygon fill="#191970" stroke="#191970" points="940.4428,-51.702 930.0098,-53.5467 939.316,-58.6107 940.4428,-51.702"/>
</g>
<!-- Node520 -->
<g id="node11" class="node">
<title>Node520</title>
<g id="a_node11"><a xlink:href="classEngine.html#a83b7dbeee899b36a13d5b07c7ad87ebc" target="_top" xlink:title="Loads a saved game Loads a saved Game. ">
<polygon fill="none" stroke="#000000" points="325.5,-76.5 325.5,-95.5 431.5,-95.5 431.5,-76.5 325.5,-76.5"/>
<text text-anchor="middle" x="378.5" y="-83.5" font-family="Helvetica,sans-Serif" font-size="10.00" fill="#000000">Engine::loadGame</text>
</a>
</g>
</g>
<!-- Node519&#45;&gt;Node520 -->
<g id="edge12" class="edge">
<title>Node519&#45;&gt;Node520</title>
<path fill="none" stroke="#191970" d="M291.3143,-86C302.8222,-86 314.53,-86 325.4749,-86"/>
<polygon fill="#191970" stroke="#191970" points="291.2771,-82.5001 281.277,-86 291.277,-89.5001 291.2771,-82.5001"/>
</g>
<!-- Node523 -->
<g id="node14" class="node">
<title>Node523</title>
<g id="a_node14"><a xlink:href="classMap.html#a404c38b33d61f8c63ce2c2efb864d6dd" target="_top" xlink:title="Set the Tile ID Of Node object Also invokes all necessary texture updates (auto&#45;tiling, slopes, ...) ">
<polygon fill="none" stroke="#000000" points="317,-19.5 317,-38.5 440,-38.5 440,-19.5 317,-19.5"/>
<text text-anchor="middle" x="378.5" y="-26.5" font-family="Helvetica,sans-Serif" font-size="10.00" fill="#000000">Map::setTileIDOfNode</text>
</a>
</g>
</g>
<!-- Node519&#45;&gt;Node523 -->
<g id="edge20" class="edge">
<title>Node519&#45;&gt;Node523</title>
<path fill="none" stroke="#191970" d="M254.7904,-73.0715C284.2302,-62.5836 325.0655,-48.0361 351.6322,-38.5716"/>
<polygon fill="#191970" stroke="#191970" points="253.5259,-69.8065 245.2804,-76.4595 255.8751,-76.4005 253.5259,-69.8065"/>
</g>
<!-- Node520&#45;&gt;Node514 -->
<g id="edge18" class="edge">
<title>Node520&#45;&gt;Node514</title>
<path fill="none" stroke="#191970" d="M424.2482,-98.123C496.4631,-117.2594 635.3971,-154.076 701.0082,-171.4624"/>
<polygon fill="#191970" stroke="#191970" points="425.0787,-94.7223 414.5158,-95.5439 423.2856,-101.4887 425.0787,-94.7223"/>
</g>
<!-- Node520&#45;&gt;Node515 -->
<g id="edge19" class="edge">
<title>Node520&#45;&gt;Node515</title>
<path fill="none" stroke="#191970" d="M442.1405,-86C511.5338,-86 621.2452,-86 685.461,-86"/>
<polygon fill="#191970" stroke="#191970" points="441.784,-82.5001 431.784,-86 441.7839,-89.5001 441.784,-82.5001"/>
</g>
<!-- Node521 -->
<g id="node12" class="node">
<title>Node521</title>
<g id="a_node12"><a xlink:href="classEngine.html#a0ba57971ffb5173ecc425461f65a4cd8" target="_top" xlink:title="Quits the game Sets m_running to false and quitting the game. ">
<polygon fill="none" stroke="#000000" points="492,-38.5 492,-57.5 596,-57.5 596,-38.5 492,-38.5"/>
<text text-anchor="middle" x="544" y="-45.5" font-family="Helvetica,sans-Serif" font-size="10.00" fill="#000000">Engine::quitGame</text>
</a>
</g>
</g>
<!-- Node520&#45;&gt;Node521 -->
<g id="edge13" class="edge">
<title>Node520&#45;&gt;Node521</title>
<path fill="none" stroke="#191970" d="M430.3105,-74.1039C453.5733,-68.7626 480.6469,-62.5463 502.5377,-57.5201"/>
<polygon fill="#191970" stroke="#191970" points="429.2258,-70.7618 420.2626,-76.411 430.7923,-77.5843 429.2258,-70.7618"/>
</g>
<!-- Node521&#45;&gt;Node514 -->
<g id="edge16" class="edge">
<title>Node521&#45;&gt;Node514</title>
<path fill="none" stroke="#191970" d="M566.1988,-63.2976C606.3222,-90.9474 689.825,-148.4908 722.9864,-171.3429"/>
<polygon fill="#191970" stroke="#191970" points="568.1003,-60.3574 557.8801,-57.565 564.1283,-66.1214 568.1003,-60.3574"/>
</g>
<!-- Node521&#45;&gt;Node515 -->
<g id="edge17" class="edge">
<title>Node521&#45;&gt;Node515</title>
<path fill="none" stroke="#191970" d="M602.6016,-59.5381C630.1289,-64.958 662.5476,-71.341 688.6482,-76.4799"/>
<polygon fill="#191970" stroke="#191970" points="603.1898,-56.0868 592.702,-57.589 601.8375,-62.955 603.1898,-56.0868"/>
</g>
<!-- Node522 -->
<g id="node13" class="node">
<title>Node522</title>
<g id="a_node13"><a xlink:href="classEventManager.html#a65ec91fd5016d4f9c4167fb8babed2df" target="_top" xlink:title="EventManager::checkEvents">
<polygon fill="none" stroke="#000000" points="660,-38.5 660,-57.5 814,-57.5 814,-38.5 660,-38.5"/>
<text text-anchor="middle" x="737" y="-45.5" font-family="Helvetica,sans-Serif" font-size="10.00" fill="#000000">EventManager::checkEvents</text>
</a>
</g>
</g>
<!-- Node521&#45;&gt;Node522 -->
<g id="edge14" class="edge">
<title>Node521&#45;&gt;Node522</title>
<path fill="none" stroke="#191970" d="M606.5536,-48C623.5044,-48 642.0568,-48 659.7146,-48"/>
<polygon fill="#191970" stroke="#191970" points="606.2286,-44.5001 596.2286,-48 606.2285,-51.5001 606.2286,-44.5001"/>
</g>
<!-- Node522&#45;&gt;Node518 -->
<g id="edge15" class="edge">
<title>Node522&#45;&gt;Node518</title>
<path fill="none" stroke="#191970" d="M824.3849,-48C837.6982,-48 850.7136,-48 861.918,-48"/>
<polygon fill="#191970" stroke="#191970" points="824.1712,-44.5001 814.1712,-48 824.1712,-51.5001 824.1712,-44.5001"/>
</g>
<!-- Node524 -->
<g id="node15" class="node">
<title>Node524</title>
<g id="a_node15"><a xlink:href="classEngine.html#a7a1521fd7fc731f961ebaf3f723127d9" target="_top" xlink:title="Engine::setTileIDOfNode">
<polygon fill="none" stroke="#000000" points="476,-.5 476,-19.5 612,-19.5 612,-.5 476,-.5"/>
<text text-anchor="middle" x="544" y="-7.5" font-family="Helvetica,sans-Serif" font-size="10.00" fill="#000000">Engine::setTileIDOfNode</text>
</a>
</g>
</g>
<!-- Node523&#45;&gt;Node524 -->
<g id="edge21" class="edge">
<title>Node523&#45;&gt;Node524</title>
<path fill="none" stroke="#191970" d="M450.094,-20.7808C458.6681,-19.7964 467.405,-18.7934 475.9273,-17.815"/>
<polygon fill="#191970" stroke="#191970" points="449.6616,-17.3073 440.1261,-21.9251 450.4601,-24.2616 449.6616,-17.3073"/>
</g>
<!-- Node524&#45;&gt;Node522 -->
<g id="edge22" class="edge">
<title>Node524&#45;&gt;Node522</title>
<path fill="none" stroke="#191970" d="M602.6016,-21.5381C630.1289,-26.958 662.5476,-33.341 688.6482,-38.4799"/>
<polygon fill="#191970" stroke="#191970" points="603.1898,-18.0868 592.702,-19.589 601.8375,-24.955 603.1898,-18.0868"/>
</g>
</g>
</svg>
