<?xml version="1.0" encoding="UTF-8" standalone="no"?>
<!DOCTYPE svg PUBLIC "-//W3C//DTD SVG 1.1//EN"
 "http://www.w3.org/Graphics/SVG/1.1/DTD/svg11.dtd">
<!-- Generated by graphviz version 2.40.1 (20161225.0304)
 -->
<!-- Title: Map::getNeighbors Pages: 1 -->
<!--zoomable 397 -->
<svg id="main" version="1.1" xmlns="http://www.w3.org/2000/svg" xmlns:xlink="http://www.w3.org/1999/xlink" xml:space="preserve" onload="init(evt)">
<style type="text/css"><![CDATA[
.edge:hover path { stroke: red; }
.edge:hover polygon { stroke: red; fill: red; }
]]></style>
<script type="text/javascript"><![CDATA[
var edges = document.getElementsByTagName('g');
if (edges && edges.length) {
  for (var i=0;i<edges.length;i++) {
    if (edges[i].id.substr(0,4)=='edge') {
      edges[i].setAttribute('class','edge');
    }
  }
}
]]></script>
        <defs>
                <circle id="rim" cx="0" cy="0" r="7"/>
                <circle id="rim2" cx="0" cy="0" r="3.5"/>
                <g id="zoomPlus">
                        <use xlink:href="#rim" fill="#404040">
                                <set attributeName="fill" to="#808080" begin="zoomplus.mouseover" end="zoomplus.mouseout"/>
                        </use>
                        <path d="M-4,0h8M0,-4v8" fill="none" stroke="white" stroke-width="1.5" pointer-events="none"/>
                </g>
                <g id="zoomMin">
                        <use xlink:href="#rim" fill="#404040">
                                <set attributeName="fill" to="#808080" begin="zoomminus.mouseover" end="zoomminus.mouseout"/>
                        </use>
                        <path d="M-4,0h8" fill="none" stroke="white" stroke-width="1.5" pointer-events="none"/>
                </g>
                <g id="dirArrow">
                        <path fill="none" stroke="white" stroke-width="1.5" d="M0,-3.0v7 M-2.5,-0.5L0,-3.0L2.5,-0.5"/>
                </g>
               <g id="resetDef">
                       <use xlink:href="#rim2" fill="#404040">
                               <set attributeName="fill" to="#808080" begin="reset.mouseover" end="reset.mouseout"/>
                       </use>
               </g>
        </defs>

<script type="text/javascript">
var viewWidth = 1639;
var viewHeight = 397;
var sectionId = 'dynsection-14';
</script>
<script xlink:href="svgpan.js"/>
<svg id="graph" class="graph">
<g id="viewport">
<title>Map::getNeighbors</title>
<!-- Node169 -->
<g id="node1" class="node">
<title>Node169</title>
<polygon fill="#bfbfbf" stroke="#000000" points="0,-265.6209 0,-284.6209 108,-284.6209 108,-265.6209 0,-265.6209"/>
<text text-anchor="middle" x="54" y="-272.6209" font-family="Helvetica,sans-Serif" font-size="10.00" fill="#000000">Map::getNeighbors</text>
</g>
<!-- Node170 -->
<g id="node2" class="node">
<title>Node170</title>
<g id="a_node2"><a xlink:href="classMap.html#aba5154a4d917900679a3c0f7ec701561" target="_top" xlink:title="Increase Height Increases the height of the node and checks the surrounding tiles. Either draw a slope sprite or elevate the tile if necessary. ">
<polygon fill="none" stroke="#000000" points="144,-265.6209 144,-284.6209 260,-284.6209 260,-265.6209 144,-265.6209"/>
<text text-anchor="middle" x="202" y="-272.6209" font-family="Helvetica,sans-Serif" font-size="10.00" fill="#000000">Map::increaseHeight</text>
</a>
</g>
</g>
<!-- Node169&#45;&gt;Node170 -->
<g id="edge1" class="edge">
<title>Node169&#45;&gt;Node170</title>
<path fill="none" stroke="#191970" d="M118.4286,-275.1209C126.8503,-275.1209 135.4402,-275.1209 143.7521,-275.1209"/>
<polygon fill="#191970" stroke="#191970" points="118.2694,-271.621 108.2693,-275.1209 118.2693,-278.621 118.2694,-271.621"/>
</g>
<!-- Node176 -->
<g id="node8" class="node">
<title>Node176</title>
<g id="a_node8"><a xlink:href="classMap.html#a59d21f2688713fbcfe320eb1b24405ca" target="_top" xlink:title="Update mapNode and its adjacent tiles Updates mapNode height information, draws slopes for adjacent t...">
<polygon fill="none" stroke="#000000" points="296,-227.6209 296,-246.6209 459,-246.6209 459,-227.6209 296,-227.6209"/>
<text text-anchor="middle" x="377.5" y="-234.6209" font-family="Helvetica,sans-Serif" font-size="10.00" fill="#000000">Map::updateNeighborsOfNode</text>
</a>
</g>
</g>
<!-- Node169&#45;&gt;Node176 -->
<g id="edge41" class="edge">
<title>Node169&#45;&gt;Node176</title>
<path fill="none" stroke="#191970" d="M103.4668,-263.5011C116.5841,-260.7433 130.7776,-258.0467 144,-256.1209 194.2088,-248.8085 250.932,-244.111 295.8976,-241.2163"/>
<polygon fill="#191970" stroke="#191970" points="102.7179,-260.0821 93.6797,-265.6103 104.1926,-266.925 102.7179,-260.0821"/>
</g>
<!-- Node177 -->
<g id="node9" class="node">
<title>Node177</title>
<g id="a_node9"><a xlink:href="classMap.html#afb8cc864df90d273a5074872d635dc40" target="_top" xlink:title="Decrease Height Decreases the height of the node and checks the surrounding tiles. Either draw a slope sprite or lower the tile if necessary. ">
<polygon fill="none" stroke="#000000" points="654,-323.6209 654,-342.6209 773,-342.6209 773,-323.6209 654,-323.6209"/>
<text text-anchor="middle" x="713.5" y="-330.6209" font-family="Helvetica,sans-Serif" font-size="10.00" fill="#000000">Map::decreaseHeight</text>
</a>
</g>
</g>
<!-- Node169&#45;&gt;Node177 -->
<g id="edge40" class="edge">
<title>Node169&#45;&gt;Node177</title>
<path fill="none" stroke="#191970" d="M94.1607,-287.5706C141.7656,-301.6264 223.7595,-323.6404 296,-332.1209 422.6998,-346.9946 572.5213,-341.8896 653.7868,-337.2465"/>
<polygon fill="#191970" stroke="#191970" points="95.1234,-284.2054 84.5401,-284.6997 93.1217,-290.9131 95.1234,-284.2054"/>
</g>
<!-- Node171 -->
<g id="node3" class="node">
<title>Node171</title>
<g id="a_node3"><a xlink:href="classEngine.html#a4851ae1ff696c893741167fc0194fd77" target="_top" xlink:title="Increase Height Increases the height of the given map node Calls the according function of the Map ob...">
<polygon fill="none" stroke="#000000" points="313,-303.6209 313,-322.6209 442,-322.6209 442,-303.6209 313,-303.6209"/>
<text text-anchor="middle" x="377.5" y="-310.6209" font-family="Helvetica,sans-Serif" font-size="10.00" fill="#000000">Engine::increaseHeight</text>
</a>
</g>
</g>
<!-- Node170&#45;&gt;Node171 -->
<g id="edge2" class="edge">
<title>Node170&#45;&gt;Node171</title>
<path fill="none" stroke="#191970" d="M256.2783,-286.8735C281.094,-292.2467 310.1108,-298.5295 333.5324,-303.6009"/>
<polygon fill="#191970" stroke="#191970" points="256.8003,-283.4055 246.2861,-284.7099 255.3189,-290.247 256.8003,-283.4055"/>
</g>
<!-- Node170&#45;&gt;Node176 -->
<g id="edge7" class="edge">
<title>Node170&#45;&gt;Node176</title>
<path fill="none" stroke="#191970" d="M234.3035,-262.7557C253.484,-257.485 278.6517,-251.5972 302.5293,-246.6679"/>
<polygon fill="#191970" stroke="#191970" points="233.2403,-259.4193 224.5843,-265.5286 235.1608,-266.1507 233.2403,-259.4193"/>
</g>
<!-- Node172 -->
<g id="node4" class="node">
<title>Node172</title>
<g id="a_node4"><a xlink:href="classEventManager.html#a65ec91fd5016d4f9c4167fb8babed2df" target="_top" xlink:title="EventManager::checkEvents">
<polygon fill="none" stroke="#000000" points="1155,-266.6209 1155,-285.6209 1309,-285.6209 1309,-266.6209 1155,-266.6209"/>
<text text-anchor="middle" x="1232" y="-273.6209" font-family="Helvetica,sans-Serif" font-size="10.00" fill="#000000">EventManager::checkEvents</text>
</a>
</g>
</g>
<!-- Node171&#45;&gt;Node172 -->
<g id="edge3" class="edge">
<title>Node171&#45;&gt;Node172</title>
<path fill="none" stroke="#191970" d="M412.1144,-326.3184C472.4006,-348.0825 600.9928,-389.1209 713.5,-389.1209 713.5,-389.1209 713.5,-389.1209 873.5,-389.1209 978.5726,-389.1209 1008.3597,-388.3195 1107,-352.1209 1151.8247,-335.6714 1198.2265,-302.3948 1219.7147,-285.8773"/>
<polygon fill="#191970" stroke="#191970" points="412.9475,-322.8963 402.3537,-322.7464 410.5418,-329.47 412.9475,-322.8963"/>
</g>
<!-- Node173 -->
<g id="node5" class="node">
<title>Node173</title>
<g id="a_node5"><a xlink:href="classGame.html#a1c2ab25d5216b2f4b2fe41efd2c09114" target="_top" xlink:title="begins the game starts running the game ">
<polygon fill="none" stroke="#000000" points="1357,-209.6209 1357,-228.6209 1425,-228.6209 1425,-209.6209 1357,-209.6209"/>
<text text-anchor="middle" x="1391" y="-216.6209" font-family="Helvetica,sans-Serif" font-size="10.00" fill="#000000">Game::run</text>
</a>
</g>
</g>
<!-- Node172&#45;&gt;Node173 -->
<g id="edge4" class="edge">
<title>Node172&#45;&gt;Node173</title>
<path fill="none" stroke="#191970" d="M1268.0636,-263.1925C1297.3193,-252.7046 1337.8994,-238.157 1364.3002,-228.6926"/>
<polygon fill="#191970" stroke="#191970" points="1266.8453,-259.9111 1258.613,-266.5804 1269.2076,-266.5004 1266.8453,-259.9111"/>
</g>
<!-- Node174 -->
<g id="node6" class="node">
<title>Node174</title>
<g id="a_node6"><a xlink:href="main_8cxx.html#af582d708d899e67ead623eac34a22387" target="_top" xlink:title="protected_main">
<polygon fill="none" stroke="#000000" points="1461,-190.6209 1461,-209.6209 1554,-209.6209 1554,-190.6209 1461,-190.6209"/>
<text text-anchor="middle" x="1507.5" y="-197.6209" font-family="Helvetica,sans-Serif" font-size="10.00" fill="#000000">protected_main</text>
</a>
</g>
</g>
<!-- Node173&#45;&gt;Node174 -->
<g id="edge5" class="edge">
<title>Node173&#45;&gt;Node174</title>
<path fill="none" stroke="#191970" d="M1434.9884,-211.9469C1443.382,-210.578 1452.1965,-209.1404 1460.6749,-207.7577"/>
<polygon fill="#191970" stroke="#191970" points="1434.316,-208.5102 1425.0098,-213.5743 1435.4428,-215.4189 1434.316,-208.5102"/>
</g>
<!-- Node175 -->
<g id="node7" class="node">
<title>Node175</title>
<g id="a_node7"><a xlink:href="main_8cxx.html#a3c04138a5bfe5d72780bb7e82a18e627" target="_top" xlink:title="main">
<polygon fill="none" stroke="#000000" points="1590,-190.6209 1590,-209.6209 1631,-209.6209 1631,-190.6209 1590,-190.6209"/>
<text text-anchor="middle" x="1610.5" y="-197.6209" font-family="Helvetica,sans-Serif" font-size="10.00" fill="#000000">main</text>
</a>
</g>
</g>
<!-- Node174&#45;&gt;Node175 -->
<g id="edge6" class="edge">
<title>Node174&#45;&gt;Node175</title>
<path fill="none" stroke="#191970" d="M1564.2133,-200.1209C1573.4322,-200.1209 1582.4259,-200.1209 1589.9965,-200.1209"/>
<polygon fill="#191970" stroke="#191970" points="1564.1782,-196.621 1554.1782,-200.1209 1564.1781,-203.621 1564.1782,-196.621"/>
</g>
<!-- Node176&#45;&gt;Node170 -->
<g id="edge8" class="edge">
<title>Node176&#45;&gt;Node170</title>
<path fill="none" stroke="#191970" d="M344.9376,-249.5572C321.2681,-256.0501 288.5814,-263.4668 260.439,-268.871"/>
<polygon fill="#191970" stroke="#191970" points="346.1509,-252.8509 354.8093,-246.745 344.233,-246.1188 346.1509,-252.8509"/>
</g>
<!-- Node176&#45;&gt;Node177 -->
<g id="edge9" class="edge">
<title>Node176&#45;&gt;Node177</title>
<path fill="none" stroke="#191970" d="M438.8433,-249.6999C456.8603,-255.3202 476.6544,-261.6897 495,-267.1209 568.1141,-288.7663 656.2568,-310.4238 694.387,-323.5274"/>
<polygon fill="#191970" stroke="#191970" points="439.6248,-246.2781 429.0371,-246.6653 437.5554,-252.9652 439.6248,-246.2781"/>
</g>
<!-- Node179 -->
<g id="node11" class="node">
<title>Node179</title>
<g id="a_node11"><a xlink:href="classMap.html#a481b37ba71ef0e51e836fc42805762dd" target="_top" xlink:title="Update all mapNodes Updates all mapNode and its adjacent tiles regarding height information, draws slopes for adjacent tiles and sets tiling for mapNode sprite if applicable. ">
<polygon fill="none" stroke="#000000" points="495,-171.6209 495,-190.6209 615,-190.6209 615,-171.6209 495,-171.6209"/>
<text text-anchor="middle" x="555" y="-178.6209" font-family="Helvetica,sans-Serif" font-size="10.00" fill="#000000">Map::updateAllNodes</text>
</a>
</g>
</g>
<!-- Node176&#45;&gt;Node179 -->
<g id="edge13" class="edge">
<title>Node176&#45;&gt;Node179</title>
<path fill="none" stroke="#191970" d="M417.68,-224.4444C450.2319,-214.1745 495.3814,-199.9302 524.8848,-190.6221"/>
<polygon fill="#191970" stroke="#191970" points="416.4969,-221.1476 408.0133,-227.4942 418.6031,-227.8232 416.4969,-221.1476"/>
</g>
<!-- Node188 -->
<g id="node20" class="node">
<title>Node188</title>
<g id="a_node20"><a xlink:href="classMap.html#a404c38b33d61f8c63ce2c2efb864d6dd" target="_top" xlink:title="Set the Tile ID Of Node object Also invokes all necessary texture updates (auto&#45;tiling, slopes, ...) ">
<polygon fill="none" stroke="#000000" points="812,-228.6209 812,-247.6209 935,-247.6209 935,-228.6209 812,-228.6209"/>
<text text-anchor="middle" x="873.5" y="-235.6209" font-family="Helvetica,sans-Serif" font-size="10.00" fill="#000000">Map::setTileIDOfNode</text>
</a>
</g>
</g>
<!-- Node176&#45;&gt;Node188 -->
<g id="edge39" class="edge">
<title>Node176&#45;&gt;Node188</title>
<path fill="none" stroke="#191970" d="M469.1994,-237.3058C568.9737,-237.507 725.7222,-237.823 811.7973,-237.9965"/>
<polygon fill="#191970" stroke="#191970" points="469.1335,-233.8058 459.1264,-237.2855 469.1193,-240.8058 469.1335,-233.8058"/>
</g>
<!-- Node190 -->
<g id="node22" class="node">
<title>Node190</title>
<g id="a_node22"><a xlink:href="classMap.html#aa8cc2ed983007621bce12dd9d1b8ec5b" target="_top" xlink:title="Demolish a node This function gathers all tiles that should be demolished and invokes the nodes demol...">
<polygon fill="none" stroke="#000000" points="498.5,-247.6209 498.5,-266.6209 611.5,-266.6209 611.5,-247.6209 498.5,-247.6209"/>
<text text-anchor="middle" x="555" y="-254.6209" font-family="Helvetica,sans-Serif" font-size="10.00" fill="#000000">Map::demolishNode</text>
</a>
</g>
</g>
<!-- Node176&#45;&gt;Node190 -->
<g id="edge33" class="edge">
<title>Node176&#45;&gt;Node190</title>
<path fill="none" stroke="#191970" d="M469.6475,-240.7582C487.3309,-242.7965 504.8342,-245.1722 519.3437,-247.5685"/>
<polygon fill="#191970" stroke="#191970" points="469.5621,-237.2271 459.2362,-239.5994 468.7877,-244.1842 469.5621,-237.2271"/>
</g>
<!-- Node177&#45;&gt;Node176 -->
<g id="edge12" class="edge">
<title>Node177&#45;&gt;Node176</title>
<path fill="none" stroke="#191970" d="M644.038,-324.0053C600.9375,-314.4481 544.5215,-299.7817 495,-285.1209 456.0482,-273.5893 410.5667,-257.8275 389.4281,-246.7455"/>
<polygon fill="#191970" stroke="#191970" points="643.3423,-327.4358 653.858,-326.1433 644.8315,-320.596 643.3423,-327.4358"/>
</g>
<!-- Node178 -->
<g id="node10" class="node">
<title>Node178</title>
<g id="a_node10"><a xlink:href="classEngine.html#a13572fdd7f6470dca48a14497f58980e" target="_top" xlink:title="Decrease Height Decreases the height of the given map node Calls the according function of the Map ob...">
<polygon fill="none" stroke="#000000" points="973,-323.6209 973,-342.6209 1105,-342.6209 1105,-323.6209 973,-323.6209"/>
<text text-anchor="middle" x="1039" y="-330.6209" font-family="Helvetica,sans-Serif" font-size="10.00" fill="#000000">Engine::decreaseHeight</text>
</a>
</g>
</g>
<!-- Node177&#45;&gt;Node178 -->
<g id="edge10" class="edge">
<title>Node177&#45;&gt;Node178</title>
<path fill="none" stroke="#191970" d="M783.4176,-333.1209C839.5664,-333.1209 917.8633,-333.1209 972.9587,-333.1209"/>
<polygon fill="#191970" stroke="#191970" points="783.2018,-329.621 773.2017,-333.1209 783.2017,-336.621 783.2018,-329.621"/>
</g>
<!-- Node178&#45;&gt;Node172 -->
<g id="edge11" class="edge">
<title>Node178&#45;&gt;Node172</title>
<path fill="none" stroke="#191970" d="M1080.9351,-320.736C1116.5685,-310.2121 1166.9873,-295.3216 1199.5907,-285.6926"/>
<polygon fill="#191970" stroke="#191970" points="1079.903,-317.3913 1071.3039,-323.5804 1081.8857,-324.1046 1079.903,-317.3913"/>
</g>
<!-- Node180 -->
<g id="node12" class="node">
<title>Node180</title>
<g id="a_node12"><a xlink:href="classMap.html#a482ac34426e8aa66abb46f60ec329402" target="_top" xlink:title="Initialize the Map with node objects Initialize the Map with node objects. ">
<polygon fill="none" stroke="#000000" points="674,-95.6209 674,-114.6209 753,-114.6209 753,-95.6209 674,-95.6209"/>
<text text-anchor="middle" x="713.5" y="-102.6209" font-family="Helvetica,sans-Serif" font-size="10.00" fill="#000000">Map::initMap</text>
</a>
</g>
</g>
<!-- Node179&#45;&gt;Node180 -->
<g id="edge14" class="edge">
<title>Node179&#45;&gt;Node180</title>
<path fill="none" stroke="#191970" d="M584.3199,-167.0622C616.1295,-151.8096 666.0469,-127.8745 693.5889,-114.6682"/>
<polygon fill="#191970" stroke="#191970" points="582.5779,-164.0159 575.0741,-171.4955 585.6044,-170.3278 582.5779,-164.0159"/>
</g>
<!-- Node185 -->
<g id="node17" class="node">
<title>Node185</title>
<g id="a_node17"><a xlink:href="classMap.html#afefe996cc1f62b61ec60d0ae415953bf" target="_top" xlink:title="Map::loadMapFromFile">
<polygon fill="none" stroke="#000000" points="651,-171.6209 651,-190.6209 776,-190.6209 776,-171.6209 651,-171.6209"/>
<text text-anchor="middle" x="713.5" y="-178.6209" font-family="Helvetica,sans-Serif" font-size="10.00" fill="#000000">Map::loadMapFromFile</text>
</a>
</g>
</g>
<!-- Node179&#45;&gt;Node185 -->
<g id="edge22" class="edge">
<title>Node179&#45;&gt;Node185</title>
<path fill="none" stroke="#191970" d="M625.5826,-181.1209C634.0271,-181.1209 642.6045,-181.1209 650.9251,-181.1209"/>
<polygon fill="#191970" stroke="#191970" points="625.3742,-177.621 615.3742,-181.1209 625.3742,-184.621 625.3742,-177.621"/>
</g>
<!-- Node181 -->
<g id="node13" class="node">
<title>Node181</title>
<g id="a_node13"><a xlink:href="classEngine.html#a260d4834150eae6eec2bde34df6dc827" target="_top" xlink:title="Creates a new game Creates a new game. ">
<polygon fill="none" stroke="#000000" points="821,-57.6209 821,-76.6209 926,-76.6209 926,-57.6209 821,-57.6209"/>
<text text-anchor="middle" x="873.5" y="-64.6209" font-family="Helvetica,sans-Serif" font-size="10.00" fill="#000000">Engine::newGame</text>
</a>
</g>
</g>
<!-- Node180&#45;&gt;Node181 -->
<g id="edge15" class="edge">
<title>Node180&#45;&gt;Node181</title>
<path fill="none" stroke="#191970" d="M762.8098,-93.4099C785.429,-88.0378 811.9064,-81.7494 833.2931,-76.6701"/>
<polygon fill="#191970" stroke="#191970" points="761.9712,-90.0116 753.0506,-95.7277 763.5887,-96.8222 761.9712,-90.0116"/>
</g>
<!-- Node181&#45;&gt;Node173 -->
<g id="edge21" class="edge">
<title>Node181&#45;&gt;Node173</title>
<path fill="none" stroke="#191970" d="M893.2142,-51.3203C911.9615,-37.3833 941.5915,-18.0866 971,-10.1209 1029.3421,5.6817 1047.4333,.1423 1107,-10.1209 1206.4654,-27.2587 1244.7072,-20.0417 1321,-86.1209 1361.4333,-121.1413 1381.9977,-185.3607 1388.5866,-209.5582"/>
<polygon fill="#191970" stroke="#191970" points="890.9871,-48.6173 885.1701,-57.4724 895.2396,-54.1776 890.9871,-48.6173"/>
</g>
<!-- Node182 -->
<g id="node14" class="node">
<title>Node182</title>
<g id="a_node14"><a xlink:href="classEngine.html#ab5a909990be40701ebb4b57c3e716ed4" target="_top" xlink:title="Engine::saveGame">
<polygon fill="none" stroke="#000000" points="985,-19.6209 985,-38.6209 1093,-38.6209 1093,-19.6209 985,-19.6209"/>
<text text-anchor="middle" x="1039" y="-26.6209" font-family="Helvetica,sans-Serif" font-size="10.00" fill="#000000">Engine::saveGame</text>
</a>
</g>
</g>
<!-- Node181&#45;&gt;Node182 -->
<g id="edge16" class="edge">
<title>Node181&#45;&gt;Node182</title>
<path fill="none" stroke="#191970" d="M925.3105,-55.2249C948.5733,-49.8836 975.6469,-43.6673 997.5377,-38.641"/>
<polygon fill="#191970" stroke="#191970" points="924.2258,-51.8828 915.2626,-57.5319 925.7923,-58.7053 924.2258,-51.8828"/>
</g>
<!-- Node183 -->
<g id="node15" class="node">
<title>Node183</title>
<g id="a_node15"><a xlink:href="classUIManager.html#aa78e356fc3b356d790c848319d1c387e" target="_top" xlink:title="UIManager::setCallbackFunctions">
<polygon fill="none" stroke="#000000" points="1143,-95.6209 1143,-114.6209 1321,-114.6209 1321,-95.6209 1143,-95.6209"/>
<text text-anchor="middle" x="1232" y="-102.6209" font-family="Helvetica,sans-Serif" font-size="10.00" fill="#000000">UIManager::setCallbackFunctions</text>
</a>
</g>
</g>
<!-- Node181&#45;&gt;Node183 -->
<g id="edge18" class="edge">
<title>Node181&#45;&gt;Node183</title>
<path fill="none" stroke="#191970" d="M936.4069,-73.43C983.4139,-78.1825 1049.2441,-84.9186 1107,-91.1209 1120.2445,-92.5433 1134.2744,-94.0826 1147.9634,-95.6026"/>
<polygon fill="#191970" stroke="#191970" points="936.6752,-69.9394 926.3741,-72.4169 935.9718,-76.9039 936.6752,-69.9394"/>
</g>
<!-- Node184 -->
<g id="node16" class="node">
<title>Node184</title>
<g id="a_node16"><a xlink:href="classGame.html#a5ed7fc5be77080f7f6dd5363f7f007a1" target="_top" xlink:title="initializes and displays the main menu initializes and displays the main menu ">
<polygon fill="none" stroke="#000000" points="1180.5,-171.6209 1180.5,-190.6209 1283.5,-190.6209 1283.5,-171.6209 1180.5,-171.6209"/>
<text text-anchor="middle" x="1232" y="-178.6209" font-family="Helvetica,sans-Serif" font-size="10.00" fill="#000000">Game::mainMenu</text>
</a>
</g>
</g>
<!-- Node181&#45;&gt;Node184 -->
<g id="edge19" class="edge">
<title>Node181&#45;&gt;Node184</title>
<path fill="none" stroke="#191970" d="M913.106,-79.7153C985.4107,-102.7076 1137.2829,-151.0017 1201.8842,-171.5444"/>
<polygon fill="#191970" stroke="#191970" points="914.0393,-76.3395 903.4489,-76.6444 911.918,-83.0103 914.0393,-76.3395"/>
</g>
<!-- Node182&#45;&gt;Node183 -->
<g id="edge17" class="edge">
<title>Node182&#45;&gt;Node183</title>
<path fill="none" stroke="#191970" d="M1076.8128,-42.052C1086.6783,-45.5389 1097.2708,-49.3836 1107,-53.1209 1143.4223,-67.1121 1185.1683,-84.823 1210.0193,-95.5467"/>
<polygon fill="#191970" stroke="#191970" points="1077.8434,-38.7045 1067.2485,-38.7015 1075.529,-45.3109 1077.8434,-38.7045"/>
</g>
<!-- Node184&#45;&gt;Node174 -->
<g id="edge20" class="edge">
<title>Node184&#45;&gt;Node174</title>
<path fill="none" stroke="#191970" d="M1293.9861,-185.3958C1344.6117,-188.8873 1415.055,-193.7454 1460.9575,-196.9111"/>
<polygon fill="#191970" stroke="#191970" points="1294.0366,-181.8911 1283.8194,-184.6947 1293.5549,-188.8745 1294.0366,-181.8911"/>
</g>
<!-- Node186 -->
<g id="node18" class="node">
<title>Node186</title>
<g id="a_node18"><a xlink:href="classEngine.html#a83b7dbeee899b36a13d5b07c7ad87ebc" target="_top" xlink:title="Loads a saved game Loads a saved Game. ">
<polygon fill="none" stroke="#000000" points="820.5,-171.6209 820.5,-190.6209 926.5,-190.6209 926.5,-171.6209 820.5,-171.6209"/>
<text text-anchor="middle" x="873.5" y="-178.6209" font-family="Helvetica,sans-Serif" font-size="10.00" fill="#000000">Engine::loadGame</text>
</a>
</g>
</g>
<!-- Node185&#45;&gt;Node186 -->
<g id="edge23" class="edge">
<title>Node185&#45;&gt;Node186</title>
<path fill="none" stroke="#191970" d="M786.3143,-181.1209C797.8222,-181.1209 809.53,-181.1209 820.4749,-181.1209"/>
<polygon fill="#191970" stroke="#191970" points="786.2771,-177.621 776.277,-181.1209 786.277,-184.621 786.2771,-177.621"/>
</g>
<!-- Node185&#45;&gt;Node188 -->
<g id="edge30" class="edge">
<title>Node185&#45;&gt;Node188</title>
<path fill="none" stroke="#191970" d="M749.7904,-194.0494C779.2302,-204.5373 820.0655,-219.0849 846.6322,-228.5493"/>
<polygon fill="#191970" stroke="#191970" points="750.8751,-190.7204 740.2804,-190.6615 748.5259,-197.3145 750.8751,-190.7204"/>
</g>
<!-- Node186&#45;&gt;Node183 -->
<g id="edge28" class="edge">
<title>Node186&#45;&gt;Node183</title>
<path fill="none" stroke="#191970" d="M928.6291,-169.4339C999.5968,-154.3891 1121.5559,-128.5345 1187.143,-114.6304"/>
<polygon fill="#191970" stroke="#191970" points="927.598,-166.0746 918.5413,-171.5724 929.0497,-172.9224 927.598,-166.0746"/>
</g>
<!-- Node186&#45;&gt;Node184 -->
<g id="edge29" class="edge">
<title>Node186&#45;&gt;Node184</title>
<path fill="none" stroke="#191970" d="M937.1405,-181.1209C1006.5338,-181.1209 1116.2452,-181.1209 1180.461,-181.1209"/>
<polygon fill="#191970" stroke="#191970" points="936.784,-177.621 926.784,-181.1209 936.7839,-184.621 936.784,-177.621"/>
</g>
<!-- Node187 -->
<g id="node19" class="node">
<title>Node187</title>
<g id="a_node19"><a xlink:href="classEngine.html#a0ba57971ffb5173ecc425461f65a4cd8" target="_top" xlink:title="Quits the game Sets m_running to false and quitting the game. ">
<polygon fill="none" stroke="#000000" points="987,-209.6209 987,-228.6209 1091,-228.6209 1091,-209.6209 987,-209.6209"/>
<text text-anchor="middle" x="1039" y="-216.6209" font-family="Helvetica,sans-Serif" font-size="10.00" fill="#000000">Engine::quitGame</text>
</a>
</g>
</g>
<!-- Node186&#45;&gt;Node187 -->
<g id="edge24" class="edge">
<title>Node186&#45;&gt;Node187</title>
<path fill="none" stroke="#191970" d="M925.3105,-193.017C948.5733,-198.3583 975.6469,-204.5746 997.5377,-209.6009"/>
<polygon fill="#191970" stroke="#191970" points="925.7923,-189.5366 915.2626,-190.7099 924.2258,-196.3591 925.7923,-189.5366"/>
</g>
<!-- Node187&#45;&gt;Node172 -->
<g id="edge25" class="edge">
<title>Node187&#45;&gt;Node172</title>
<path fill="none" stroke="#191970" d="M1083.4153,-231.3748C1091.281,-233.5895 1099.3879,-235.9008 1107,-238.1209 1139.2266,-247.5203 1175.9698,-258.7524 1201.2362,-266.5565"/>
<polygon fill="#191970" stroke="#191970" points="1084.21,-227.9628 1073.6365,-228.6355 1082.3217,-234.7033 1084.21,-227.9628"/>
</g>
<!-- Node187&#45;&gt;Node183 -->
<g id="edge26" class="edge">
<title>Node187&#45;&gt;Node183</title>
<path fill="none" stroke="#191970" d="M1063.7686,-204.4908C1103.8907,-180.7917 1182.0043,-134.6521 1215.787,-114.6975"/>
<polygon fill="#191970" stroke="#191970" points="1061.9532,-201.498 1055.1231,-209.5974 1065.5133,-207.5252 1061.9532,-201.498"/>
</g>
<!-- Node187&#45;&gt;Node184 -->
<g id="edge27" class="edge">
<title>Node187&#45;&gt;Node184</title>
<path fill="none" stroke="#191970" d="M1097.6016,-207.5828C1125.1289,-202.1629 1157.5476,-195.78 1183.6482,-190.641"/>
<polygon fill="#191970" stroke="#191970" points="1096.8375,-204.166 1087.702,-209.5319 1098.1898,-211.0341 1096.8375,-204.166"/>
</g>
<!-- Node189 -->
<g id="node21" class="node">
<title>Node189</title>
<g id="a_node21"><a xlink:href="classEngine.html#a7a1521fd7fc731f961ebaf3f723127d9" target="_top" xlink:title="Engine::setTileIDOfNode">
<polygon fill="none" stroke="#000000" points="971,-247.6209 971,-266.6209 1107,-266.6209 1107,-247.6209 971,-247.6209"/>
<text text-anchor="middle" x="1039" y="-254.6209" font-family="Helvetica,sans-Serif" font-size="10.00" fill="#000000">Engine::setTileIDOfNode</text>
</a>
</g>
</g>
<!-- Node188&#45;&gt;Node189 -->
<g id="edge31" class="edge">
<title>Node188&#45;&gt;Node189</title>
<path fill="none" stroke="#191970" d="M945.094,-246.3402C953.6681,-247.3245 962.405,-248.3276 970.9273,-249.3059"/>
<polygon fill="#191970" stroke="#191970" points="945.4601,-242.8593 935.1261,-245.1958 944.6616,-249.8136 945.4601,-242.8593"/>
</g>
<!-- Node189&#45;&gt;Node172 -->
<g id="edge32" class="edge">
<title>Node189&#45;&gt;Node172</title>
<path fill="none" stroke="#191970" d="M1117.292,-264.8284C1129.6288,-266.0429 1142.3776,-267.298 1154.6918,-268.5103"/>
<polygon fill="#191970" stroke="#191970" points="1117.3394,-261.3163 1107.0446,-263.8196 1116.6535,-268.2826 1117.3394,-261.3163"/>
</g>
<!-- Node190&#45;&gt;Node170 -->
<g id="edge35" class="edge">
<title>Node190&#45;&gt;Node170</title>
<path fill="none" stroke="#191970" d="M488.1185,-260.5313C422.3389,-263.8855 322.9323,-268.9544 260.2908,-272.1486"/>
<polygon fill="#191970" stroke="#191970" points="488.5675,-264.0131 498.3762,-260.0083 488.211,-257.0222 488.5675,-264.0131"/>
</g>
<!-- Node190&#45;&gt;Node172 -->
<g id="edge34" class="edge">
<title>Node190&#45;&gt;Node172</title>
<path fill="none" stroke="#191970" d="M622.0327,-261.1255C704.2231,-265.8177 847.7941,-273.3088 971,-276.1209 1032.8355,-277.5323 1102.933,-277.4386 1154.9016,-277.0436"/>
<polygon fill="#191970" stroke="#191970" points="622.0145,-257.6187 611.8302,-260.5393 621.613,-264.6072 622.0145,-257.6187"/>
</g>
<!-- Node190&#45;&gt;Node176 -->
<g id="edge37" class="edge">
<title>Node190&#45;&gt;Node176</title>
<path fill="none" stroke="#191970" d="M488.2353,-256.1606C462.6748,-253.725 434.5179,-250.207 412.9932,-246.6465"/>
<polygon fill="#191970" stroke="#191970" points="487.9797,-259.6517 498.2554,-257.0709 488.6131,-252.6804 487.9797,-259.6517"/>
</g>
<!-- Node190&#45;&gt;Node177 -->
<g id="edge36" class="edge">
<title>Node190&#45;&gt;Node177</title>
<path fill="none" stroke="#191970" d="M592.8843,-270.3954C600.3949,-273.5451 608.0889,-277.1568 615,-281.1209 632.5827,-291.2062 633.3478,-299.1578 651,-309.1209 661.1222,-314.834 672.8732,-319.7459 683.4359,-323.6107"/>
<polygon fill="#191970" stroke="#191970" points="594.1263,-267.1227 583.5415,-266.6611 591.5282,-273.6227 594.1263,-267.1227"/>
</g>
<!-- Node190&#45;&gt;Node188 -->
<g id="edge38" class="edge">
<title>Node190&#45;&gt;Node188</title>
<path fill="none" stroke="#191970" d="M621.7516,-253.1389C677.7736,-249.7969 757.1712,-245.0605 811.7422,-241.8051"/>
<polygon fill="#191970" stroke="#191970" points="621.3482,-249.6566 611.5744,-253.746 621.7651,-256.6442 621.3482,-249.6566"/>
</g>
</g>
</svg>
        <g id="navigator" transform="translate(0 0)" fill="#404254">
                <rect fill="#f2f5e9" fill-opacity="0.5" stroke="#606060" stroke-width=".5" x="0" y="0" width="60" height="60"/>
                <use id="zoomplus" xlink:href="#zoomPlus" x="17" y="9" onmousedown="handleZoom(evt,'in')"/>
                <use id="zoomminus" xlink:href="#zoomMin" x="42" y="9" onmousedown="handleZoom(evt,'out')"/>
                <use id="reset" xlink:href="#resetDef" x="30" y="36" onmousedown="handleReset()"/>
                <g id="arrowUp" xlink:href="#dirArrow" transform="translate(30 24)" onmousedown="handlePan(0,-1)">
                  <use xlink:href="#rim" fill="#404040">
                        <set attributeName="fill" to="#808080" begin="arrowUp.mouseover" end="arrowUp.mouseout"/>
                  </use>
                  <path fill="none" stroke="white" stroke-width="1.5" d="M0,-3.0v7 M-2.5,-0.5L0,-3.0L2.5,-0.5"/>
                </g>
                <g id="arrowRight" xlink:href="#dirArrow" transform="rotate(90) translate(36 -43)" onmousedown="handlePan(1,0)">
                  <use xlink:href="#rim" fill="#404040">
                        <set attributeName="fill" to="#808080" begin="arrowRight.mouseover" end="arrowRight.mouseout"/>
                  </use>
                  <path fill="none" stroke="white" stroke-width="1.5" d="M0,-3.0v7 M-2.5,-0.5L0,-3.0L2.5,-0.5"/>
                </g>
                <g id="arrowDown" xlink:href="#dirArrow" transform="rotate(180) translate(-30 -48)" onmousedown="handlePan(0,1)">
                  <use xlink:href="#rim" fill="#404040">
                        <set attributeName="fill" to="#808080" begin="arrowDown.mouseover" end="arrowDown.mouseout"/>
                  </use>
                  <path fill="none" stroke="white" stroke-width="1.5" d="M0,-3.0v7 M-2.5,-0.5L0,-3.0L2.5,-0.5"/>
                </g>
                <g id="arrowLeft" xlink:href="#dirArrow" transform="rotate(270) translate(-36 17)" onmousedown="handlePan(-1,0)">
                  <use xlink:href="#rim" fill="#404040">
                        <set attributeName="fill" to="#808080" begin="arrowLeft.mouseover" end="arrowLeft.mouseout"/>
                  </use>
                  <path fill="none" stroke="white" stroke-width="1.5" d="M0,-3.0v7 M-2.5,-0.5L0,-3.0L2.5,-0.5"/>
                </g>
        </g>
        <svg viewBox="0 0 15 15" width="100%" height="30px" preserveAspectRatio="xMaxYMin meet">
         <g id="arrow_out" transform="scale(0.3 0.3)">
          <a xlink:href="classMap_aab37e4a52faf81e9b696b8cf1bd9a690_icgraph_org.svg" target="_base">
           <rect id="button" ry="5" rx="5" y="6" x="6" height="38" width="38"
                fill="#f2f5e9" fill-opacity="0.5" stroke="#606060" stroke-width="1.0"/>
           <path id="arrow"
             d="M 11.500037,31.436501 C 11.940474,20.09759 22.043105,11.32322 32.158766,21.979434 L 37.068811,17.246167 C 37.068811,17.246167 37.088388,32 37.088388,32 L 22.160133,31.978069 C 22.160133,31.978069 26.997745,27.140456 26.997745,27.140456 C 18.528582,18.264221 13.291696,25.230495 11.500037,31.436501 z"
             style="fill:#404040;"/>
          </a>
         </g>
        </svg>
</svg>
