<?xml version="1.0" encoding="UTF-8" standalone="no"?>
<!DOCTYPE svg PUBLIC "-//W3C//DTD SVG 1.1//EN"
 "http://www.w3.org/Graphics/SVG/1.1/DTD/svg11.dtd">
<!-- Generated by graphviz version 2.40.1 (20161225.0304)
 -->
<!-- Title: Checkbox Pages: 1 -->
<svg width="752pt" height="1072pt"
 viewBox="0.00 0.00 752.00 1072.00" xmlns="http://www.w3.org/2000/svg" xmlns:xlink="http://www.w3.org/1999/xlink">
<g id="graph0" class="graph" transform="scale(1 1) rotate(0) translate(4 1068)">
<title>Checkbox</title>
<!-- Node2 -->
<g id="node1" class="node">
<title>Node2</title>
<polygon fill="#bfbfbf" stroke="#000000" points="311.5,-.5 311.5,-123.5 450.5,-123.5 450.5,-.5 311.5,-.5"/>
<text text-anchor="middle" x="381" y="-111.5" font-family="Helvetica,sans-Serif" font-size="10.00" fill="#000000">Checkbox</text>
<polyline fill="none" stroke="#000000" points="311.5,-104.5 450.5,-104.5 "/>
<text text-anchor="start" x="319.5" y="-92.5" font-family="Helvetica,sans-Serif" font-size="10.00" fill="#000000">&#45; m_isMouseButtonDown</text>
<polyline fill="none" stroke="#000000" points="311.5,-85.5 450.5,-85.5 "/>
<text text-anchor="start" x="319.5" y="-73.5" font-family="Helvetica,sans-Serif" font-size="10.00" fill="#000000">+ Checkbox()</text>
<text text-anchor="start" x="319.5" y="-62.5" font-family="Helvetica,sans-Serif" font-size="10.00" fill="#000000">+ ~Checkbox()</text>
<text text-anchor="start" x="319.5" y="-51.5" font-family="Helvetica,sans-Serif" font-size="10.00" fill="#000000">+ draw()</text>
<text text-anchor="start" x="319.5" y="-40.5" font-family="Helvetica,sans-Serif" font-size="10.00" fill="#000000">+ onMouseButtonUp()</text>
<text text-anchor="start" x="319.5" y="-29.5" font-family="Helvetica,sans-Serif" font-size="10.00" fill="#000000">+ onMouseButtonDown()</text>
<text text-anchor="start" x="319.5" y="-18.5" font-family="Helvetica,sans-Serif" font-size="10.00" fill="#000000">+ onMouseEnter()</text>
<text text-anchor="start" x="319.5" y="-7.5" font-family="Helvetica,sans-Serif" font-size="10.00" fill="#000000">+ onMouseLeave()</text>
</g>
<!-- Node3 -->
<g id="node2" class="node">
<title>Node3</title>
<g id="a_node2"><a xlink:href="classUIElement.html" target="_top" xlink:title="Base class for UI Elements Provides functions and variables for derived user interface elements...">
<polygon fill="none" stroke="#000000" points="147.5,-248.5 147.5,-580.5 302.5,-580.5 302.5,-248.5 147.5,-248.5"/>
<text text-anchor="middle" x="225" y="-568.5" font-family="Helvetica,sans-Serif" font-size="10.00" fill="#000000">UIElement</text>
<polyline fill="none" stroke="#000000" points="147.5,-561.5 302.5,-561.5 "/>
<text text-anchor="start" x="155.5" y="-549.5" font-family="Helvetica,sans-Serif" font-size="10.00" fill="#000000"># m_texture</text>
<text text-anchor="start" x="155.5" y="-538.5" font-family="Helvetica,sans-Serif" font-size="10.00" fill="#000000"># m_uiElementRect</text>
<text text-anchor="start" x="155.5" y="-527.5" font-family="Helvetica,sans-Serif" font-size="10.00" fill="#000000"># m_uiElementClipRect</text>
<text text-anchor="start" x="155.5" y="-516.5" font-family="Helvetica,sans-Serif" font-size="10.00" fill="#000000"># m_uiTextureRect</text>
<text text-anchor="start" x="155.5" y="-505.5" font-family="Helvetica,sans-Serif" font-size="10.00" fill="#000000">&#45; m_renderer</text>
<text text-anchor="start" x="155.5" y="-494.5" font-family="Helvetica,sans-Serif" font-size="10.00" fill="#000000">&#45; m_window</text>
<text text-anchor="start" x="155.5" y="-483.5" font-family="Helvetica,sans-Serif" font-size="10.00" fill="#000000">&#45; m_buttonState</text>
<text text-anchor="start" x="155.5" y="-472.5" font-family="Helvetica,sans-Serif" font-size="10.00" fill="#000000">&#45; m_visible</text>
<text text-anchor="start" x="155.5" y="-461.5" font-family="Helvetica,sans-Serif" font-size="10.00" fill="#000000">&#45; m_directTexture</text>
<polyline fill="none" stroke="#000000" points="147.5,-454.5 302.5,-454.5 "/>
<text text-anchor="start" x="155.5" y="-442.5" font-family="Helvetica,sans-Serif" font-size="10.00" fill="#000000">+ UIElement()</text>
<text text-anchor="start" x="155.5" y="-431.5" font-family="Helvetica,sans-Serif" font-size="10.00" fill="#000000">+ UIElement()</text>
<text text-anchor="start" x="155.5" y="-420.5" font-family="Helvetica,sans-Serif" font-size="10.00" fill="#000000">+ ~UIElement()</text>
<text text-anchor="start" x="155.5" y="-409.5" font-family="Helvetica,sans-Serif" font-size="10.00" fill="#000000">+ registerCallbackFunction()</text>
<text text-anchor="start" x="155.5" y="-398.5" font-family="Helvetica,sans-Serif" font-size="10.00" fill="#000000">+ registerCallbackFunction()</text>
<text text-anchor="start" x="155.5" y="-387.5" font-family="Helvetica,sans-Serif" font-size="10.00" fill="#000000">+ registerCallbackFunction()</text>
<text text-anchor="start" x="155.5" y="-376.5" font-family="Helvetica,sans-Serif" font-size="10.00" fill="#000000">+ onMouseButtonUp()</text>
<text text-anchor="start" x="155.5" y="-365.5" font-family="Helvetica,sans-Serif" font-size="10.00" fill="#000000">+ onMouseButtonDown()</text>
<text text-anchor="start" x="155.5" y="-354.5" font-family="Helvetica,sans-Serif" font-size="10.00" fill="#000000">+ onMouseEnter()</text>
<text text-anchor="start" x="155.5" y="-343.5" font-family="Helvetica,sans-Serif" font-size="10.00" fill="#000000">+ onMouseLeave()</text>
<text text-anchor="start" x="155.5" y="-332.5" font-family="Helvetica,sans-Serif" font-size="10.00" fill="#000000">and 24 more...</text>
<text text-anchor="start" x="155.5" y="-321.5" font-family="Helvetica,sans-Serif" font-size="10.00" fill="#000000"># renderTexture()</text>
<text text-anchor="start" x="155.5" y="-310.5" font-family="Helvetica,sans-Serif" font-size="10.00" fill="#000000"># drawSolidRect()</text>
<text text-anchor="start" x="155.5" y="-299.5" font-family="Helvetica,sans-Serif" font-size="10.00" fill="#000000"># drawLine()</text>
<text text-anchor="start" x="155.5" y="-288.5" font-family="Helvetica,sans-Serif" font-size="10.00" fill="#000000"># drawTextFrame()</text>
<text text-anchor="start" x="155.5" y="-277.5" font-family="Helvetica,sans-Serif" font-size="10.00" fill="#000000"># drawButtonFrame()</text>
<text text-anchor="start" x="155.5" y="-266.5" font-family="Helvetica,sans-Serif" font-size="10.00" fill="#000000"># drawFrame()</text>
<text text-anchor="start" x="155.5" y="-255.5" font-family="Helvetica,sans-Serif" font-size="10.00" fill="#000000"># changeTexture()</text>
</a>
</g>
</g>
<!-- Node3&#45;&gt;Node2 -->
<g id="edge1" class="edge">
<title>Node3&#45;&gt;Node2</title>
<path fill="none" stroke="#191970" d="M302.6971,-238.9344C321.0018,-197.5729 339.3287,-156.1612 353.6454,-123.8109"/>
<polygon fill="none" stroke="#191970" points="299.3925,-237.7531 298.5461,-248.3141 305.7937,-240.586 299.3925,-237.7531"/>
</g>
<!-- Node4 -->
<g id="node3" class="node">
<title>Node4</title>
<g id="a_node3"><a xlink:href="structUIElement_1_1ElementData.html" target="_top" xlink:title="{UIElement::ElementData\n|+ isToggleButton\l|}">
<polygon fill="none" stroke="#000000" points="74.5,-33.5 74.5,-90.5 211.5,-90.5 211.5,-33.5 74.5,-33.5"/>
<text text-anchor="middle" x="143" y="-78.5" font-family="Helvetica,sans-Serif" font-size="10.00" fill="#000000">UIElement::ElementData</text>
<polyline fill="none" stroke="#000000" points="74.5,-71.5 211.5,-71.5 "/>
<text text-anchor="start" x="82.5" y="-59.5" font-family="Helvetica,sans-Serif" font-size="10.00" fill="#000000">+ isToggleButton</text>
<polyline fill="none" stroke="#000000" points="74.5,-52.5 211.5,-52.5 "/>
<text text-anchor="middle" x="143" y="-40.5" font-family="Helvetica,sans-Serif" font-size="10.00" fill="#000000"> </text>
</a>
</g>
</g>
<!-- Node3&#45;&gt;Node4 -->
<g id="edge4" class="edge">
<title>Node3&#45;&gt;Node4</title>
<path fill="none" stroke="#404040" d="M241.4186,-248.3565C239.6956,-212.2512 233.6586,-175.0102 220,-142 213.3576,-125.9465 201.8487,-111.2811 189.7232,-99.0161"/>
<polygon fill="none" stroke="#404040" points="189.5171,-98.819 182.4164,-97.562 180.8456,-90.524 187.9464,-91.781 189.5171,-98.819"/>
<text text-anchor="middle" x="261.5" y="-183.5" font-family="Helvetica,sans-Serif" font-size="10.00" fill="#000000"> +parent</text>
</g>
<!-- Node4&#45;&gt;Node3 -->
<g id="edge2" class="edge">
<title>Node4&#45;&gt;Node3</title>
<path fill="none" stroke="#404040" d="M139.683,-90.6163C136.5692,-124.3576 133.7635,-181.9312 144,-230 144.4648,-232.1825 144.9567,-234.3709 145.4741,-236.5633"/>
<polygon fill="none" stroke="#404040" points="145.5067,-236.6913 150.8664,-241.5155 148.4748,-248.3185 143.115,-243.4943 145.5067,-236.6913"/>
<text text-anchor="middle" x="182" y="-183.5" font-family="Helvetica,sans-Serif" font-size="10.00" fill="#000000"> #elementData</text>
</g>
<!-- Node5 -->
<g id="node4" class="node">
<title>Node5</title>
<polygon fill="none" stroke="#bfbfbf" points="0,-386 0,-443 44,-443 44,-386 0,-386"/>
<text text-anchor="middle" x="22" y="-431" font-family="Helvetica,sans-Serif" font-size="10.00" fill="#000000">string</text>
<polyline fill="none" stroke="#bfbfbf" points="0,-424 44,-424 "/>
<text text-anchor="middle" x="22" y="-412" font-family="Helvetica,sans-Serif" font-size="10.00" fill="#000000"> </text>
<polyline fill="none" stroke="#bfbfbf" points="0,-405 44,-405 "/>
<text text-anchor="middle" x="22" y="-393" font-family="Helvetica,sans-Serif" font-size="10.00" fill="#000000"> </text>
</g>
<!-- Node5&#45;&gt;Node4 -->
<g id="edge3" class="edge">
<title>Node5&#45;&gt;Node4</title>
<path fill="none" stroke="#404040" d="M15.7711,-385.7425C6.0536,-333.6233 -7.4993,-221.59 35,-142 44.4204,-124.358 59.6392,-109.5617 75.7177,-97.6831"/>
<polygon fill="none" stroke="#404040" points="75.9483,-97.5225 78.5861,-90.8111 85.7957,-90.6647 83.158,-97.3761 75.9483,-97.5225"/>
<text text-anchor="middle" x="84" y="-222" font-family="Helvetica,sans-Serif" font-size="10.00" fill="#000000"> +actionParameter</text>
<text text-anchor="middle" x="84" y="-211" font-family="Helvetica,sans-Serif" font-size="10.00" fill="#000000">+buildMenuID</text>
<text text-anchor="middle" x="84" y="-200" font-family="Helvetica,sans-Serif" font-size="10.00" fill="#000000">+actionID</text>
<text text-anchor="middle" x="84" y="-189" font-family="Helvetica,sans-Serif" font-size="10.00" fill="#000000">+text</text>
<text text-anchor="middle" x="84" y="-178" font-family="Helvetica,sans-Serif" font-size="10.00" fill="#000000">+elementID</text>
<text text-anchor="middle" x="84" y="-167" font-family="Helvetica,sans-Serif" font-size="10.00" fill="#000000">+layoutGroupName</text>
<text text-anchor="middle" x="84" y="-156" font-family="Helvetica,sans-Serif" font-size="10.00" fill="#000000">+tooltipText</text>
<text text-anchor="middle" x="84" y="-145" font-family="Helvetica,sans-Serif" font-size="10.00" fill="#000000">+textureID</text>
</g>
<!-- Node6 -->
<g id="node5" class="node">
<title>Node6</title>
<g id="a_node5"><a xlink:href="structSignal_1_1Signal.html" target="_top" xlink:title="{Signal::Signal\&lt; void\l(const std::string &amp;)\&gt;\n||+ Signal()\l}">
<polygon fill="none" stroke="#000000" points="320.5,-380.5 320.5,-448.5 441.5,-448.5 441.5,-380.5 320.5,-380.5"/>
<text text-anchor="start" x="328.5" y="-436.5" font-family="Helvetica,sans-Serif" font-size="10.00" fill="#000000">Signal::Signal&lt; void</text>
<text text-anchor="middle" x="381" y="-425.5" font-family="Helvetica,sans-Serif" font-size="10.00" fill="#000000">(const std::string &amp;)&gt;</text>
<polyline fill="none" stroke="#000000" points="320.5,-418.5 441.5,-418.5 "/>
<text text-anchor="middle" x="381" y="-406.5" font-family="Helvetica,sans-Serif" font-size="10.00" fill="#000000"> </text>
<polyline fill="none" stroke="#000000" points="320.5,-399.5 441.5,-399.5 "/>
<text text-anchor="start" x="328.5" y="-387.5" font-family="Helvetica,sans-Serif" font-size="10.00" fill="#000000">+ Signal()</text>
</a>
</g>
</g>
<!-- Node6&#45;&gt;Node2 -->
<g id="edge5" class="edge">
<title>Node6&#45;&gt;Node2</title>
<path fill="none" stroke="#404040" d="M381,-380.3805C381,-324.2418 381,-211.1388 381,-135.9775"/>
<polygon fill="none" stroke="#404040" points="381.0001,-135.7939 377,-129.794 381,-123.7939 385,-129.7939 381.0001,-135.7939"/>
<text text-anchor="middle" x="429.5" y="-183.5" font-family="Helvetica,sans-Serif" font-size="10.00" fill="#000000"> &#45;toggleGroupSignal</text>
</g>
<!-- Node7 -->
<g id="node6" class="node">
<title>Node7</title>
<g id="a_node6"><a xlink:href="classSignal_1_1Lib_1_1ProtoSignal.html" target="_top" xlink:title="{Signal::Lib::ProtoSignal\l\&lt; void(const std::string\l &amp;), Lib::CollectorDefault\l\&lt; typename std::function\&lt; void\l(const std::string &amp;) \&gt;::result_type \&gt; \&gt;\n||}">
<polygon fill="none" stroke="#000000" points="238.5,-715.5 238.5,-816.5 445.5,-816.5 445.5,-715.5 238.5,-715.5"/>
<text text-anchor="start" x="246.5" y="-804.5" font-family="Helvetica,sans-Serif" font-size="10.00" fill="#000000">Signal::Lib::ProtoSignal</text>
<text text-anchor="start" x="246.5" y="-793.5" font-family="Helvetica,sans-Serif" font-size="10.00" fill="#000000">&lt; void(const std::string</text>
<text text-anchor="start" x="246.5" y="-782.5" font-family="Helvetica,sans-Serif" font-size="10.00" fill="#000000"> &amp;), Lib::CollectorDefault</text>
<text text-anchor="start" x="246.5" y="-771.5" font-family="Helvetica,sans-Serif" font-size="10.00" fill="#000000">&lt; typename std::function&lt; void</text>
<text text-anchor="middle" x="342" y="-760.5" font-family="Helvetica,sans-Serif" font-size="10.00" fill="#000000">(const std::string &amp;) &gt;::result_type &gt; &gt;</text>
<polyline fill="none" stroke="#000000" points="238.5,-753.5 445.5,-753.5 "/>
<text text-anchor="middle" x="342" y="-741.5" font-family="Helvetica,sans-Serif" font-size="10.00" fill="#000000"> </text>
<polyline fill="none" stroke="#000000" points="238.5,-734.5 445.5,-734.5 "/>
<text text-anchor="middle" x="342" y="-722.5" font-family="Helvetica,sans-Serif" font-size="10.00" fill="#000000"> </text>
</a>
</g>
</g>
<!-- Node7&#45;&gt;Node6 -->
<g id="edge6" class="edge">
<title>Node7&#45;&gt;Node6</title>
<path fill="none" stroke="#191970" d="M348.7536,-705.131C356.9844,-630.9486 370.6072,-508.1684 377.1969,-448.7768"/>
<polygon fill="none" stroke="#191970" points="345.2535,-704.9393 347.6293,-715.2643 352.2108,-705.7113 345.2535,-704.9393"/>
</g>
<!-- Node8 -->
<g id="node7" class="node">
<title>Node8</title>
<g id="a_node7"><a xlink:href="classSignal_1_1Lib_1_1ProtoSignal.html" target="_top" xlink:title="ProtoSignal is the template implementation for callback list. ">
<polygon fill="none" stroke="#000000" points="424,-995.5 424,-1063.5 568,-1063.5 568,-995.5 424,-995.5"/>
<text text-anchor="start" x="432" y="-1051.5" font-family="Helvetica,sans-Serif" font-size="10.00" fill="#000000">Signal::Lib::ProtoSignal</text>
<text text-anchor="middle" x="496" y="-1040.5" font-family="Helvetica,sans-Serif" font-size="10.00" fill="#000000">&lt; typename, typename &gt;</text>
<polyline fill="none" stroke="#000000" points="424,-1033.5 568,-1033.5 "/>
<text text-anchor="middle" x="496" y="-1021.5" font-family="Helvetica,sans-Serif" font-size="10.00" fill="#000000"> </text>
<polyline fill="none" stroke="#000000" points="424,-1014.5 568,-1014.5 "/>
<text text-anchor="middle" x="496" y="-1002.5" font-family="Helvetica,sans-Serif" font-size="10.00" fill="#000000"> </text>
</a>
</g>
</g>
<!-- Node8&#45;&gt;Node7 -->
<g id="edge7" class="edge">
<title>Node8&#45;&gt;Node7</title>
<path fill="none" stroke="#ffa500" d="M414.1153,-1014.6487C393.0295,-1006.8761 372.5022,-995.036 359,-977 324.7519,-931.252 325.8376,-863.2298 331.9682,-816.8724"/>
<polygon fill="#ffa500" stroke="#ffa500" points="413.225,-1018.0426 423.8194,-1017.9413 415.4742,-1011.4137 413.225,-1018.0426"/>
<text text-anchor="start" x="359" y="-969" font-family="Helvetica,sans-Serif" font-size="10.00" fill="#000000"> &lt; void(const std::string</text>
<text text-anchor="start" x="359" y="-958" font-family="Helvetica,sans-Serif" font-size="10.00" fill="#000000"> &amp;), Lib::CollectorDefault</text>
<text text-anchor="start" x="359" y="-947" font-family="Helvetica,sans-Serif" font-size="10.00" fill="#000000">&lt; typename std::function&lt;</text>
<text text-anchor="start" x="359" y="-936" font-family="Helvetica,sans-Serif" font-size="10.00" fill="#000000"> void(const std::string &amp;)</text>
<text text-anchor="middle" x="425.5" y="-925" font-family="Helvetica,sans-Serif" font-size="10.00" fill="#000000"> &gt;::result_type &gt; &gt;</text>
</g>
<!-- Node10 -->
<g id="node9" class="node">
<title>Node10</title>
<g id="a_node9"><a xlink:href="classSignal_1_1Lib_1_1ProtoSignal.html" target="_top" xlink:title="{Signal::Lib::ProtoSignal\l\&lt; SignalSignature, Collector \&gt;\n||}">
<polygon fill="none" stroke="#000000" points="413.5,-835.5 413.5,-903.5 578.5,-903.5 578.5,-835.5 413.5,-835.5"/>
<text text-anchor="start" x="421.5" y="-891.5" font-family="Helvetica,sans-Serif" font-size="10.00" fill="#000000">Signal::Lib::ProtoSignal</text>
<text text-anchor="middle" x="496" y="-880.5" font-family="Helvetica,sans-Serif" font-size="10.00" fill="#000000">&lt; SignalSignature, Collector &gt;</text>
<polyline fill="none" stroke="#000000" points="413.5,-873.5 578.5,-873.5 "/>
<text text-anchor="middle" x="496" y="-861.5" font-family="Helvetica,sans-Serif" font-size="10.00" fill="#000000"> </text>
<polyline fill="none" stroke="#000000" points="413.5,-854.5 578.5,-854.5 "/>
<text text-anchor="middle" x="496" y="-842.5" font-family="Helvetica,sans-Serif" font-size="10.00" fill="#000000"> </text>
</a>
</g>
</g>
<!-- Node8&#45;&gt;Node10 -->
<g id="edge10" class="edge">
<title>Node8&#45;&gt;Node10</title>
<path fill="none" stroke="#ffa500" d="M496,-984.9469C496,-959.2679 496,-927.4812 496,-903.7672"/>
<polygon fill="#ffa500" stroke="#ffa500" points="492.5001,-985.176 496,-995.176 499.5001,-985.176 492.5001,-985.176"/>
<text text-anchor="start" x="496" y="-952.5" font-family="Helvetica,sans-Serif" font-size="10.00" fill="#000000"> &lt; SignalSignature,</text>
<text text-anchor="middle" x="543" y="-941.5" font-family="Helvetica,sans-Serif" font-size="10.00" fill="#000000"> Collector &gt;</text>
</g>
<!-- Node12 -->
<g id="node11" class="node">
<title>Node12</title>
<g id="a_node11"><a xlink:href="classSignal_1_1Lib_1_1ProtoSignal.html" target="_top" xlink:title="{Signal::Lib::ProtoSignal\l\&lt; void(), Lib::CollectorDefault\l\&lt; typename std::function\&lt; void\l() \&gt;::result_type \&gt; \&gt;\n||}">
<polygon fill="none" stroke="#000000" points="525.5,-721 525.5,-811 698.5,-811 698.5,-721 525.5,-721"/>
<text text-anchor="start" x="533.5" y="-799" font-family="Helvetica,sans-Serif" font-size="10.00" fill="#000000">Signal::Lib::ProtoSignal</text>
<text text-anchor="start" x="533.5" y="-788" font-family="Helvetica,sans-Serif" font-size="10.00" fill="#000000">&lt; void(), Lib::CollectorDefault</text>
<text text-anchor="start" x="533.5" y="-777" font-family="Helvetica,sans-Serif" font-size="10.00" fill="#000000">&lt; typename std::function&lt; void</text>
<text text-anchor="middle" x="612" y="-766" font-family="Helvetica,sans-Serif" font-size="10.00" fill="#000000">() &gt;::result_type &gt; &gt;</text>
<polyline fill="none" stroke="#000000" points="525.5,-759 698.5,-759 "/>
<text text-anchor="middle" x="612" y="-747" font-family="Helvetica,sans-Serif" font-size="10.00" fill="#000000"> </text>
<polyline fill="none" stroke="#000000" points="525.5,-740 698.5,-740 "/>
<text text-anchor="middle" x="612" y="-728" font-family="Helvetica,sans-Serif" font-size="10.00" fill="#000000"> </text>
</a>
</g>
</g>
<!-- Node8&#45;&gt;Node12 -->
<g id="edge13" class="edge">
<title>Node8&#45;&gt;Node12</title>
<path fill="none" stroke="#ffa500" d="M576.261,-993.5832C581.8923,-988.6752 586.9373,-983.1664 591,-977 623.6079,-927.5074 623.5072,-856.8118 618.9419,-811.1581"/>
<polygon fill="#ffa500" stroke="#ffa500" points="573.9319,-990.9627 568.2557,-999.9088 578.2718,-996.4551 573.9319,-990.9627"/>
<text text-anchor="start" x="613" y="-963.5" font-family="Helvetica,sans-Serif" font-size="10.00" fill="#000000"> &lt; void(), Lib::Collector</text>
<text text-anchor="start" x="613" y="-952.5" font-family="Helvetica,sans-Serif" font-size="10.00" fill="#000000">Default&lt; typename std</text>
<text text-anchor="start" x="613" y="-941.5" font-family="Helvetica,sans-Serif" font-size="10.00" fill="#000000">::function&lt; void() &gt;::result</text>
<text text-anchor="middle" x="678.5" y="-930.5" font-family="Helvetica,sans-Serif" font-size="10.00" fill="#000000">_type &gt; &gt;</text>
</g>
<!-- Node9 -->
<g id="node8" class="node">
<title>Node9</title>
<g id="a_node8"><a xlink:href="structSignal_1_1Signal.html" target="_top" xlink:title="Signal is a template type providing an interface for arbitrary callback lists. A signal type needs to...">
<polygon fill="none" stroke="#000000" points="409.5,-628.5 409.5,-696.5 582.5,-696.5 582.5,-628.5 409.5,-628.5"/>
<text text-anchor="start" x="417.5" y="-684.5" font-family="Helvetica,sans-Serif" font-size="10.00" fill="#000000">Signal::Signal&lt; SignalSignature,</text>
<text text-anchor="middle" x="496" y="-673.5" font-family="Helvetica,sans-Serif" font-size="10.00" fill="#000000"> Collector &gt;</text>
<polyline fill="none" stroke="#000000" points="409.5,-666.5 582.5,-666.5 "/>
<text text-anchor="middle" x="496" y="-654.5" font-family="Helvetica,sans-Serif" font-size="10.00" fill="#000000"> </text>
<polyline fill="none" stroke="#000000" points="409.5,-647.5 582.5,-647.5 "/>
<text text-anchor="start" x="417.5" y="-635.5" font-family="Helvetica,sans-Serif" font-size="10.00" fill="#000000">+ Signal()</text>
</a>
</g>
</g>
<!-- Node9&#45;&gt;Node6 -->
<g id="edge8" class="edge">
<title>Node9&#45;&gt;Node6</title>
<path fill="none" stroke="#ffa500" d="M400.842,-632.9586C391.877,-626.7045 383.9383,-619.1416 378,-610 346.3796,-561.3228 358.3406,-490.4466 369.7695,-448.7469"/>
<polygon fill="#ffa500" stroke="#ffa500" points="399.0156,-635.9449 409.3357,-638.342 402.763,-630.0324 399.0156,-635.9449"/>
<text text-anchor="middle" x="448" y="-602" font-family="Helvetica,sans-Serif" font-size="10.00" fill="#000000"> &lt; void(const std::string &amp;)&gt;</text>
</g>
<!-- Node11 -->
<g id="node10" class="node">
<title>Node11</title>
<g id="a_node10"><a xlink:href="structSignal_1_1Signal.html" target="_top" xlink:title="{Signal::Signal\&lt; void()\&gt;\n||+ Signal()\l}">
<polygon fill="none" stroke="#000000" points="478.5,-386 478.5,-443 609.5,-443 609.5,-386 478.5,-386"/>
<text text-anchor="middle" x="544" y="-431" font-family="Helvetica,sans-Serif" font-size="10.00" fill="#000000">Signal::Signal&lt; void()&gt;</text>
<polyline fill="none" stroke="#000000" points="478.5,-424 609.5,-424 "/>
<text text-anchor="middle" x="544" y="-412" font-family="Helvetica,sans-Serif" font-size="10.00" fill="#000000"> </text>
<polyline fill="none" stroke="#000000" points="478.5,-405 609.5,-405 "/>
<text text-anchor="start" x="486.5" y="-393" font-family="Helvetica,sans-Serif" font-size="10.00" fill="#000000">+ Signal()</text>
</a>
</g>
</g>
<!-- Node9&#45;&gt;Node11 -->
<g id="edge14" class="edge">
<title>Node9&#45;&gt;Node11</title>
<path fill="none" stroke="#ffa500" d="M518.9422,-618.9905C520.0884,-615.9916 521.1245,-612.9777 522,-610 538.9076,-552.4916 542.9728,-481.9526 543.8575,-443.2766"/>
<polygon fill="#ffa500" stroke="#ffa500" points="515.6123,-617.8807 514.9693,-628.456 522.0668,-620.5899 515.6123,-617.8807"/>
<text text-anchor="middle" x="551" y="-602" font-family="Helvetica,sans-Serif" font-size="10.00" fill="#000000"> &lt; void()&gt;</text>
</g>
<!-- Node10&#45;&gt;Node9 -->
<g id="edge9" class="edge">
<title>Node10&#45;&gt;Node9</title>
<path fill="none" stroke="#191970" d="M496,-824.9392C496,-786.5061 496,-731.8093 496,-696.7326"/>
<polygon fill="none" stroke="#191970" points="492.5001,-825.3181 496,-835.3182 499.5001,-825.3182 492.5001,-825.3181"/>
</g>
<!-- Node11&#45;&gt;Node2 -->
<g id="edge11" class="edge">
<title>Node11&#45;&gt;Node2</title>
<path fill="none" stroke="#404040" d="M543.594,-385.8813C541.6016,-333.5017 531.406,-220.4009 482,-142 475.8484,-132.2383 468.0753,-123.1624 459.5839,-114.8924"/>
<polygon fill="none" stroke="#404040" points="459.3556,-114.683 452.2302,-113.5745 450.5128,-106.5709 457.6382,-107.6793 459.3556,-114.683"/>
<text text-anchor="middle" x="549" y="-183.5" font-family="Helvetica,sans-Serif" font-size="10.00" fill="#000000"> &#45;clickSignal</text>
</g>
<!-- Node12&#45;&gt;Node11 -->
<g id="edge12" class="edge">
<title>Node12&#45;&gt;Node11</title>
<path fill="none" stroke="#191970" d="M604.4285,-710.6747C600.7524,-685.4013 596.0426,-655.1181 591,-628 578.6148,-561.3947 560.6507,-483.8733 550.9091,-443.0407"/>
<polygon fill="none" stroke="#191970" points="600.9989,-711.4147 605.8873,-720.8144 607.9275,-710.4179 600.9989,-711.4147"/>
</g>
</g>
</svg>
