<?xml version="1.0" encoding="UTF-8" standalone="no"?>
<!DOCTYPE svg PUBLIC "-//W3C//DTD SVG 1.1//EN"
 "http://www.w3.org/Graphics/SVG/1.1/DTD/svg11.dtd">
<!-- Generated by graphviz version 2.40.1 (20161225.0304)
 -->
<!-- Title: UIElement::setVisibility Pages: 1 -->
<!--zoomable 201 -->
<svg id="main" version="1.1" xmlns="http://www.w3.org/2000/svg" xmlns:xlink="http://www.w3.org/1999/xlink" xml:space="preserve" onload="init(evt)">
<style type="text/css"><![CDATA[
.edge:hover path { stroke: red; }
.edge:hover polygon { stroke: red; fill: red; }
]]></style>
<script type="text/javascript"><![CDATA[
var edges = document.getElementsByTagName('g');
if (edges && edges.length) {
  for (var i=0;i<edges.length;i++) {
    if (edges[i].id.substr(0,4)=='edge') {
      edges[i].setAttribute('class','edge');
    }
  }
}
]]></script>
        <defs>
                <circle id="rim" cx="0" cy="0" r="7"/>
                <circle id="rim2" cx="0" cy="0" r="3.5"/>
                <g id="zoomPlus">
                        <use xlink:href="#rim" fill="#404040">
                                <set attributeName="fill" to="#808080" begin="zoomplus.mouseover" end="zoomplus.mouseout"/>
                        </use>
                        <path d="M-4,0h8M0,-4v8" fill="none" stroke="white" stroke-width="1.5" pointer-events="none"/>
                </g>
                <g id="zoomMin">
                        <use xlink:href="#rim" fill="#404040">
                                <set attributeName="fill" to="#808080" begin="zoomminus.mouseover" end="zoomminus.mouseout"/>
                        </use>
                        <path d="M-4,0h8" fill="none" stroke="white" stroke-width="1.5" pointer-events="none"/>
                </g>
                <g id="dirArrow">
                        <path fill="none" stroke="white" stroke-width="1.5" d="M0,-3.0v7 M-2.5,-0.5L0,-3.0L2.5,-0.5"/>
                </g>
               <g id="resetDef">
                       <use xlink:href="#rim2" fill="#404040">
                               <set attributeName="fill" to="#808080" begin="reset.mouseover" end="reset.mouseout"/>
                       </use>
               </g>
        </defs>

<script type="text/javascript">
var viewWidth = 538;
var viewHeight = 201;
var sectionId = 'dynsection-39';
</script>
<script xlink:href="svgpan.js"/>
<svg id="graph" class="graph">
<g id="viewport">
<title>UIElement::setVisibility</title>
<!-- Node276 -->
<g id="node1" class="node">
<title>Node276</title>
<polygon fill="#bfbfbf" stroke="#000000" points="0,-95.5 0,-114.5 131,-114.5 131,-95.5 0,-95.5"/>
<text text-anchor="middle" x="65.5" y="-102.5" font-family="Helvetica,sans-Serif" font-size="10.00" fill="#000000">UIElement::setVisibility</text>
</g>
<!-- Node277 -->
<g id="node2" class="node">
<title>Node277</title>
<g id="a_node2"><a xlink:href="classTooltip.html#a46a4bafd52456186b1fc7f48a554f8ef" target="_top" xlink:title="Tooltip::Tooltip">
<polygon fill="none" stroke="#000000" points="363,-152.5 363,-171.5 450,-171.5 450,-152.5 363,-152.5"/>
<text text-anchor="middle" x="406.5" y="-159.5" font-family="Helvetica,sans-Serif" font-size="10.00" fill="#000000">Tooltip::Tooltip</text>
</a>
</g>
</g>
<!-- Node276&#45;&gt;Node277 -->
<g id="edge1" class="edge">
<title>Node276&#45;&gt;Node277</title>
<path fill="none" stroke="#191970" d="M81.0843,-121.9181C99.5043,-140.5411 132.0927,-169.3795 167,-181 239.6206,-205.175 331.1873,-184.9307 377.2268,-171.5253"/>
<polygon fill="#191970" stroke="#191970" points="83.5448,-119.4272 74.092,-114.6422 78.4976,-124.2776 83.5448,-119.4272"/>
</g>
<!-- Node278 -->
<g id="node3" class="node">
<title>Node278</title>
<g id="a_node3"><a xlink:href="classTooltip.html#ac48e36748acaf4cdd9838288f7732cc2" target="_top" xlink:title="starts the countdown to when the Tooltip appears starts the timer for the countdown to when the Toolt...">
<polygon fill="none" stroke="#000000" points="192.5,-152.5 192.5,-171.5 298.5,-171.5 298.5,-152.5 192.5,-152.5"/>
<text text-anchor="middle" x="245.5" y="-159.5" font-family="Helvetica,sans-Serif" font-size="10.00" fill="#000000">Tooltip::startTimer</text>
</a>
</g>
</g>
<!-- Node276&#45;&gt;Node278 -->
<g id="edge2" class="edge">
<title>Node276&#45;&gt;Node278</title>
<path fill="none" stroke="#191970" d="M98.0524,-118.3322C117.795,-126.1299 143.6106,-135.8199 167,-143 178.2599,-146.4566 190.5822,-149.6904 202.0575,-152.4756"/>
<polygon fill="#191970" stroke="#191970" points="99.1919,-115.0186 88.6068,-114.5632 96.5976,-121.5201 99.1919,-115.0186"/>
</g>
<!-- Node279 -->
<g id="node4" class="node">
<title>Node279</title>
<g id="a_node4"><a xlink:href="classTooltip.html#ab7c16dc309b2b97523e842c57b0534eb" target="_top" xlink:title="makes the Tooltip visible makes the Tooltip visible ">
<polygon fill="none" stroke="#000000" points="189,-114.5 189,-133.5 302,-133.5 302,-114.5 189,-114.5"/>
<text text-anchor="middle" x="245.5" y="-121.5" font-family="Helvetica,sans-Serif" font-size="10.00" fill="#000000">Tooltip::showTooltip</text>
</a>
</g>
</g>
<!-- Node276&#45;&gt;Node279 -->
<g id="edge3" class="edge">
<title>Node276&#45;&gt;Node279</title>
<path fill="none" stroke="#191970" d="M141.5537,-113.0279C157.398,-114.7003 173.8332,-116.4352 188.8306,-118.0182"/>
<polygon fill="#191970" stroke="#191970" points="141.5604,-109.5092 131.2482,-111.9401 140.8255,-116.4706 141.5604,-109.5092"/>
</g>
<!-- Node280 -->
<g id="node5" class="node">
<title>Node280</title>
<g id="a_node5"><a xlink:href="classTooltip.html#ad451a89f3aaaa61d6cef9ea4ba590c68" target="_top" xlink:title="resets the Tooltip Hides and deactivates the Tooltip and stops the timer ">
<polygon fill="none" stroke="#000000" points="205.5,-76.5 205.5,-95.5 285.5,-95.5 285.5,-76.5 205.5,-76.5"/>
<text text-anchor="middle" x="245.5" y="-83.5" font-family="Helvetica,sans-Serif" font-size="10.00" fill="#000000">Tooltip::reset</text>
</a>
</g>
</g>
<!-- Node276&#45;&gt;Node280 -->
<g id="edge5" class="edge">
<title>Node276&#45;&gt;Node280</title>
<path fill="none" stroke="#191970" d="M141.2528,-97.0039C163.2485,-94.6821 186.409,-92.2374 205.2984,-90.2435"/>
<polygon fill="#191970" stroke="#191970" points="140.8255,-93.5294 131.2482,-98.0599 141.5604,-100.4908 140.8255,-93.5294"/>
</g>
<!-- Node281 -->
<g id="node6" class="node">
<title>Node281</title>
<g id="a_node6"><a xlink:href="classUIManager.html#aae7a89e9d50bb6192e4140e07bd5f94b" target="_top" xlink:title="UIManager::createBuildMenu">
<polygon fill="none" stroke="#000000" points="167,-38.5 167,-57.5 324,-57.5 324,-38.5 167,-38.5"/>
<text text-anchor="middle" x="245.5" y="-45.5" font-family="Helvetica,sans-Serif" font-size="10.00" fill="#000000">UIManager::createBuildMenu</text>
</a>
</g>
</g>
<!-- Node276&#45;&gt;Node281 -->
<g id="edge6" class="edge">
<title>Node276&#45;&gt;Node281</title>
<path fill="none" stroke="#191970" d="M98.0524,-91.6678C117.795,-83.8701 143.6106,-74.1801 167,-67 178.2599,-63.5434 190.5822,-60.3096 202.0575,-57.5244"/>
<polygon fill="#191970" stroke="#191970" points="96.5976,-88.4799 88.6068,-95.4368 99.1919,-94.9814 96.5976,-88.4799"/>
</g>
<!-- Node282 -->
<g id="node7" class="node">
<title>Node282</title>
<g id="a_node7"><a xlink:href="classGame.html#a5ed7fc5be77080f7f6dd5363f7f007a1" target="_top" xlink:title="initializes and displays the main menu initializes and displays the main menu ">
<polygon fill="none" stroke="#000000" points="194,-.5 194,-19.5 297,-19.5 297,-.5 194,-.5"/>
<text text-anchor="middle" x="245.5" y="-7.5" font-family="Helvetica,sans-Serif" font-size="10.00" fill="#000000">Game::mainMenu</text>
</a>
</g>
</g>
<!-- Node276&#45;&gt;Node282 -->
<g id="edge7" class="edge">
<title>Node276&#45;&gt;Node282</title>
<path fill="none" stroke="#191970" d="M82.8312,-88.4935C101.9609,-71.1685 134.384,-44.3586 167,-29 175.3727,-25.0574 184.6459,-21.8848 193.7987,-19.3472"/>
<polygon fill="#191970" stroke="#191970" points="80.2242,-86.1369 75.2545,-95.4939 84.9746,-91.2784 80.2242,-86.1369"/>
</g>
<!-- Node279&#45;&gt;Node277 -->
<g id="edge4" class="edge">
<title>Node279&#45;&gt;Node277</title>
<path fill="none" stroke="#191970" d="M295.9018,-135.8961C318.532,-141.2374 344.8695,-147.4537 366.165,-152.4799"/>
<polygon fill="#191970" stroke="#191970" points="296.6637,-132.4798 286.1271,-133.589 295.0557,-139.2926 296.6637,-132.4798"/>
</g>
<!-- Node283 -->
<g id="node8" class="node">
<title>Node283</title>
<g id="a_node8"><a xlink:href="main_8cxx.html#af582d708d899e67ead623eac34a22387" target="_top" xlink:title="protected_main">
<polygon fill="none" stroke="#000000" points="360,-.5 360,-19.5 453,-19.5 453,-.5 360,-.5"/>
<text text-anchor="middle" x="406.5" y="-7.5" font-family="Helvetica,sans-Serif" font-size="10.00" fill="#000000">protected_main</text>
</a>
</g>
</g>
<!-- Node282&#45;&gt;Node283 -->
<g id="edge8" class="edge">
<title>Node282&#45;&gt;Node283</title>
<path fill="none" stroke="#191970" d="M307.4317,-10C324.8793,-10 343.5579,-10 359.9406,-10"/>
<polygon fill="#191970" stroke="#191970" points="307.3277,-6.5001 297.3276,-10 307.3276,-13.5001 307.3277,-6.5001"/>
</g>
<!-- Node284 -->
<g id="node9" class="node">
<title>Node284</title>
<g id="a_node9"><a xlink:href="main_8cxx.html#a3c04138a5bfe5d72780bb7e82a18e627" target="_top" xlink:title="main">
<polygon fill="none" stroke="#000000" points="489,-.5 489,-19.5 530,-19.5 530,-.5 489,-.5"/>
<text text-anchor="middle" x="509.5" y="-7.5" font-family="Helvetica,sans-Serif" font-size="10.00" fill="#000000">main</text>
</a>
</g>
</g>
<!-- Node283&#45;&gt;Node284 -->
<g id="edge9" class="edge">
<title>Node283&#45;&gt;Node284</title>
<path fill="none" stroke="#191970" d="M463.2133,-10C472.4322,-10 481.4259,-10 488.9965,-10"/>
<polygon fill="#191970" stroke="#191970" points="463.1782,-6.5001 453.1782,-10 463.1781,-13.5001 463.1782,-6.5001"/>
</g>
</g>
</svg>
        <g id="navigator" transform="translate(0 0)" fill="#404254">
                <rect fill="#f2f5e9" fill-opacity="0.5" stroke="#606060" stroke-width=".5" x="0" y="0" width="60" height="60"/>
                <use id="zoomplus" xlink:href="#zoomPlus" x="17" y="9" onmousedown="handleZoom(evt,'in')"/>
                <use id="zoomminus" xlink:href="#zoomMin" x="42" y="9" onmousedown="handleZoom(evt,'out')"/>
                <use id="reset" xlink:href="#resetDef" x="30" y="36" onmousedown="handleReset()"/>
                <g id="arrowUp" xlink:href="#dirArrow" transform="translate(30 24)" onmousedown="handlePan(0,-1)">
                  <use xlink:href="#rim" fill="#404040">
                        <set attributeName="fill" to="#808080" begin="arrowUp.mouseover" end="arrowUp.mouseout"/>
                  </use>
                  <path fill="none" stroke="white" stroke-width="1.5" d="M0,-3.0v7 M-2.5,-0.5L0,-3.0L2.5,-0.5"/>
                </g>
                <g id="arrowRight" xlink:href="#dirArrow" transform="rotate(90) translate(36 -43)" onmousedown="handlePan(1,0)">
                  <use xlink:href="#rim" fill="#404040">
                        <set attributeName="fill" to="#808080" begin="arrowRight.mouseover" end="arrowRight.mouseout"/>
                  </use>
                  <path fill="none" stroke="white" stroke-width="1.5" d="M0,-3.0v7 M-2.5,-0.5L0,-3.0L2.5,-0.5"/>
                </g>
                <g id="arrowDown" xlink:href="#dirArrow" transform="rotate(180) translate(-30 -48)" onmousedown="handlePan(0,1)">
                  <use xlink:href="#rim" fill="#404040">
                        <set attributeName="fill" to="#808080" begin="arrowDown.mouseover" end="arrowDown.mouseout"/>
                  </use>
                  <path fill="none" stroke="white" stroke-width="1.5" d="M0,-3.0v7 M-2.5,-0.5L0,-3.0L2.5,-0.5"/>
                </g>
                <g id="arrowLeft" xlink:href="#dirArrow" transform="rotate(270) translate(-36 17)" onmousedown="handlePan(-1,0)">
                  <use xlink:href="#rim" fill="#404040">
                        <set attributeName="fill" to="#808080" begin="arrowLeft.mouseover" end="arrowLeft.mouseout"/>
                  </use>
                  <path fill="none" stroke="white" stroke-width="1.5" d="M0,-3.0v7 M-2.5,-0.5L0,-3.0L2.5,-0.5"/>
                </g>
        </g>
        <svg viewBox="0 0 15 15" width="100%" height="30px" preserveAspectRatio="xMaxYMin meet">
         <g id="arrow_out" transform="scale(0.3 0.3)">
          <a xlink:href="classUIElement_a440d645aa10dbf7d3c763ba6e1fc33a6_icgraph_org.svg" target="_base">
           <rect id="button" ry="5" rx="5" y="6" x="6" height="38" width="38"
                fill="#f2f5e9" fill-opacity="0.5" stroke="#606060" stroke-width="1.0"/>
           <path id="arrow"
             d="M 11.500037,31.436501 C 11.940474,20.09759 22.043105,11.32322 32.158766,21.979434 L 37.068811,17.246167 C 37.068811,17.246167 37.088388,32 37.088388,32 L 22.160133,31.978069 C 22.160133,31.978069 26.997745,27.140456 26.997745,27.140456 C 18.528582,18.264221 13.291696,25.230495 11.500037,31.436501 z"
             style="fill:#404040;"/>
          </a>
         </g>
        </svg>
</svg>
