<?xml version="1.0" encoding="UTF-8" standalone="no"?>
<!DOCTYPE svg PUBLIC "-//W3C//DTD SVG 1.1//EN"
 "http://www.w3.org/Graphics/SVG/1.1/DTD/svg11.dtd">
<!-- Generated by graphviz version 2.40.1 (20161225.0304)
 -->
<!-- Title: Button Pages: 1 -->
<!--zoomable 1237 -->
<svg id="main" version="1.1" xmlns="http://www.w3.org/2000/svg" xmlns:xlink="http://www.w3.org/1999/xlink" xml:space="preserve" onload="init(evt)">
<style type="text/css"><![CDATA[
.edge:hover path { stroke: red; }
.edge:hover polygon { stroke: red; fill: red; }
]]></style>
<script type="text/javascript"><![CDATA[
var edges = document.getElementsByTagName('g');
if (edges && edges.length) {
  for (var i=0;i<edges.length;i++) {
    if (edges[i].id.substr(0,4)=='edge') {
      edges[i].setAttribute('class','edge');
    }
  }
}
]]></script>
        <defs>
                <circle id="rim" cx="0" cy="0" r="7"/>
                <circle id="rim2" cx="0" cy="0" r="3.5"/>
                <g id="zoomPlus">
                        <use xlink:href="#rim" fill="#404040">
                                <set attributeName="fill" to="#808080" begin="zoomplus.mouseover" end="zoomplus.mouseout"/>
                        </use>
                        <path d="M-4,0h8M0,-4v8" fill="none" stroke="white" stroke-width="1.5" pointer-events="none"/>
                </g>
                <g id="zoomMin">
                        <use xlink:href="#rim" fill="#404040">
                                <set attributeName="fill" to="#808080" begin="zoomminus.mouseover" end="zoomminus.mouseout"/>
                        </use>
                        <path d="M-4,0h8" fill="none" stroke="white" stroke-width="1.5" pointer-events="none"/>
                </g>
                <g id="dirArrow">
                        <path fill="none" stroke="white" stroke-width="1.5" d="M0,-3.0v7 M-2.5,-0.5L0,-3.0L2.5,-0.5"/>
                </g>
               <g id="resetDef">
                       <use xlink:href="#rim2" fill="#404040">
                               <set attributeName="fill" to="#808080" begin="reset.mouseover" end="reset.mouseout"/>
                       </use>
               </g>
        </defs>

<script type="text/javascript">
var viewWidth = 878;
var viewHeight = 1237;
var sectionId = 'dynsection-1';
</script>
<script xlink:href="svgpan.js"/>
<svg id="graph" class="graph">
<g id="viewport">
<title>Button</title>
<!-- Node2 -->
<g id="node1" class="node">
<title>Node2</title>
<polygon fill="#bfbfbf" stroke="#000000" points="325,-.5 325,-211.5 480,-211.5 480,-.5 325,-.5"/>
<text text-anchor="middle" x="402.5" y="-199.5" font-family="Helvetica,sans-Serif" font-size="10.00" fill="#000000">Button</text>
<polyline fill="none" stroke="#000000" points="325,-192.5 480,-192.5 "/>
<text text-anchor="start" x="333" y="-180.5" font-family="Helvetica,sans-Serif" font-size="10.00" fill="#000000">&#45; m_frameRect</text>
<text text-anchor="start" x="333" y="-169.5" font-family="Helvetica,sans-Serif" font-size="10.00" fill="#000000">&#45; m_buttonLabel</text>
<text text-anchor="start" x="333" y="-158.5" font-family="Helvetica,sans-Serif" font-size="10.00" fill="#000000">&#45; m_isMouseButtonDown</text>
<text text-anchor="start" x="333" y="-147.5" font-family="Helvetica,sans-Serif" font-size="10.00" fill="#000000">&#45; m_drawFrame</text>
<text text-anchor="start" x="333" y="-136.5" font-family="Helvetica,sans-Serif" font-size="10.00" fill="#000000">&#45; m_checkState</text>
<polyline fill="none" stroke="#000000" points="325,-129.5 480,-129.5 "/>
<text text-anchor="start" x="333" y="-117.5" font-family="Helvetica,sans-Serif" font-size="10.00" fill="#000000">+ Button()</text>
<text text-anchor="start" x="333" y="-106.5" font-family="Helvetica,sans-Serif" font-size="10.00" fill="#000000">+ ~Button()</text>
<text text-anchor="start" x="333" y="-95.5" font-family="Helvetica,sans-Serif" font-size="10.00" fill="#000000">+ draw()</text>
<text text-anchor="start" x="333" y="-84.5" font-family="Helvetica,sans-Serif" font-size="10.00" fill="#000000">+ setText()</text>
<text text-anchor="start" x="333" y="-73.5" font-family="Helvetica,sans-Serif" font-size="10.00" fill="#000000">+ onMouseButtonUp()</text>
<text text-anchor="start" x="333" y="-62.5" font-family="Helvetica,sans-Serif" font-size="10.00" fill="#000000">+ onMouseButtonDown()</text>
<text text-anchor="start" x="333" y="-51.5" font-family="Helvetica,sans-Serif" font-size="10.00" fill="#000000">+ onMouseEnter()</text>
<text text-anchor="start" x="333" y="-40.5" font-family="Helvetica,sans-Serif" font-size="10.00" fill="#000000">+ onMouseLeave()</text>
<text text-anchor="start" x="333" y="-29.5" font-family="Helvetica,sans-Serif" font-size="10.00" fill="#000000">+ drawImageButtonFrame()</text>
<text text-anchor="start" x="333" y="-18.5" font-family="Helvetica,sans-Serif" font-size="10.00" fill="#000000">+ registerCallbackFunction()</text>
<text text-anchor="start" x="333" y="-7.5" font-family="Helvetica,sans-Serif" font-size="10.00" fill="#000000">and 6 more...</text>
</g>
<!-- Node3 -->
<g id="node2" class="node">
<title>Node3</title>
<g id="a_node2"><a xlink:href="classUIElement.html" target="_top" xlink:title="Base class for UI Elements Provides functions and variables for derived user interface elements...">
<polygon fill="none" stroke="#000000" points="581,-336.5 581,-668.5 736,-668.5 736,-336.5 581,-336.5"/>
<text text-anchor="middle" x="658.5" y="-656.5" font-family="Helvetica,sans-Serif" font-size="10.00" fill="#000000">UIElement</text>
<polyline fill="none" stroke="#000000" points="581,-649.5 736,-649.5 "/>
<text text-anchor="start" x="589" y="-637.5" font-family="Helvetica,sans-Serif" font-size="10.00" fill="#000000"># m_texture</text>
<text text-anchor="start" x="589" y="-626.5" font-family="Helvetica,sans-Serif" font-size="10.00" fill="#000000"># m_uiElementRect</text>
<text text-anchor="start" x="589" y="-615.5" font-family="Helvetica,sans-Serif" font-size="10.00" fill="#000000"># m_uiElementClipRect</text>
<text text-anchor="start" x="589" y="-604.5" font-family="Helvetica,sans-Serif" font-size="10.00" fill="#000000"># m_uiTextureRect</text>
<text text-anchor="start" x="589" y="-593.5" font-family="Helvetica,sans-Serif" font-size="10.00" fill="#000000">&#45; m_renderer</text>
<text text-anchor="start" x="589" y="-582.5" font-family="Helvetica,sans-Serif" font-size="10.00" fill="#000000">&#45; m_window</text>
<text text-anchor="start" x="589" y="-571.5" font-family="Helvetica,sans-Serif" font-size="10.00" fill="#000000">&#45; m_buttonState</text>
<text text-anchor="start" x="589" y="-560.5" font-family="Helvetica,sans-Serif" font-size="10.00" fill="#000000">&#45; m_visible</text>
<text text-anchor="start" x="589" y="-549.5" font-family="Helvetica,sans-Serif" font-size="10.00" fill="#000000">&#45; m_directTexture</text>
<polyline fill="none" stroke="#000000" points="581,-542.5 736,-542.5 "/>
<text text-anchor="start" x="589" y="-530.5" font-family="Helvetica,sans-Serif" font-size="10.00" fill="#000000">+ UIElement()</text>
<text text-anchor="start" x="589" y="-519.5" font-family="Helvetica,sans-Serif" font-size="10.00" fill="#000000">+ UIElement()</text>
<text text-anchor="start" x="589" y="-508.5" font-family="Helvetica,sans-Serif" font-size="10.00" fill="#000000">+ ~UIElement()</text>
<text text-anchor="start" x="589" y="-497.5" font-family="Helvetica,sans-Serif" font-size="10.00" fill="#000000">+ registerCallbackFunction()</text>
<text text-anchor="start" x="589" y="-486.5" font-family="Helvetica,sans-Serif" font-size="10.00" fill="#000000">+ registerCallbackFunction()</text>
<text text-anchor="start" x="589" y="-475.5" font-family="Helvetica,sans-Serif" font-size="10.00" fill="#000000">+ registerCallbackFunction()</text>
<text text-anchor="start" x="589" y="-464.5" font-family="Helvetica,sans-Serif" font-size="10.00" fill="#000000">+ onMouseButtonUp()</text>
<text text-anchor="start" x="589" y="-453.5" font-family="Helvetica,sans-Serif" font-size="10.00" fill="#000000">+ onMouseButtonDown()</text>
<text text-anchor="start" x="589" y="-442.5" font-family="Helvetica,sans-Serif" font-size="10.00" fill="#000000">+ onMouseEnter()</text>
<text text-anchor="start" x="589" y="-431.5" font-family="Helvetica,sans-Serif" font-size="10.00" fill="#000000">+ onMouseLeave()</text>
<text text-anchor="start" x="589" y="-420.5" font-family="Helvetica,sans-Serif" font-size="10.00" fill="#000000">and 24 more...</text>
<text text-anchor="start" x="589" y="-409.5" font-family="Helvetica,sans-Serif" font-size="10.00" fill="#000000"># renderTexture()</text>
<text text-anchor="start" x="589" y="-398.5" font-family="Helvetica,sans-Serif" font-size="10.00" fill="#000000"># drawSolidRect()</text>
<text text-anchor="start" x="589" y="-387.5" font-family="Helvetica,sans-Serif" font-size="10.00" fill="#000000"># drawLine()</text>
<text text-anchor="start" x="589" y="-376.5" font-family="Helvetica,sans-Serif" font-size="10.00" fill="#000000"># drawTextFrame()</text>
<text text-anchor="start" x="589" y="-365.5" font-family="Helvetica,sans-Serif" font-size="10.00" fill="#000000"># drawButtonFrame()</text>
<text text-anchor="start" x="589" y="-354.5" font-family="Helvetica,sans-Serif" font-size="10.00" fill="#000000"># drawFrame()</text>
<text text-anchor="start" x="589" y="-343.5" font-family="Helvetica,sans-Serif" font-size="10.00" fill="#000000"># changeTexture()</text>
</a>
</g>
</g>
<!-- Node3&#45;&gt;Node2 -->
<g id="edge1" class="edge">
<title>Node3&#45;&gt;Node2</title>
<path fill="none" stroke="#191970" d="M599.8275,-326.9068C584.7333,-293.2153 566.6526,-259.3325 545.5,-230 527.433,-204.9463 503.3537,-181.5729 480.1134,-162.0237"/>
<polygon fill="none" stroke="#191970" points="596.774,-328.6576 604.0057,-336.4005 603.181,-325.8378 596.774,-328.6576"/>
</g>
<!-- Node4 -->
<g id="node3" class="node">
<title>Node4</title>
<g id="a_node3"><a xlink:href="structUIElement_1_1ElementData.html" target="_top" xlink:title="{UIElement::ElementData\n|+ isToggleButton\l|}">
<polygon fill="none" stroke="#000000" points="654,-77.5 654,-134.5 791,-134.5 791,-77.5 654,-77.5"/>
<text text-anchor="middle" x="722.5" y="-122.5" font-family="Helvetica,sans-Serif" font-size="10.00" fill="#000000">UIElement::ElementData</text>
<polyline fill="none" stroke="#000000" points="654,-115.5 791,-115.5 "/>
<text text-anchor="start" x="662" y="-103.5" font-family="Helvetica,sans-Serif" font-size="10.00" fill="#000000">+ isToggleButton</text>
<polyline fill="none" stroke="#000000" points="654,-96.5 791,-96.5 "/>
<text text-anchor="middle" x="722.5" y="-84.5" font-family="Helvetica,sans-Serif" font-size="10.00" fill="#000000"> </text>
</a>
</g>
</g>
<!-- Node3&#45;&gt;Node4 -->
<g id="edge4" class="edge">
<title>Node3&#45;&gt;Node4</title>
<path fill="none" stroke="#404040" d="M697.3176,-336.234C698.4439,-330.0893 699.5101,-323.9962 700.5,-318 710.2712,-258.8137 716.4893,-189.5723 719.7361,-146.7455"/>
<polygon fill="none" stroke="#404040" points="719.7486,-146.5742 716.2001,-140.2965 720.6301,-134.6066 724.1785,-140.8842 719.7486,-146.5742"/>
<text text-anchor="middle" x="733" y="-271.5" font-family="Helvetica,sans-Serif" font-size="10.00" fill="#000000"> +parent</text>
</g>
<!-- Node4&#45;&gt;Node3 -->
<g id="edge2" class="edge">
<title>Node4&#45;&gt;Node3</title>
<path fill="none" stroke="#404040" d="M690.5694,-134.5238C667.2641,-157.6272 637.5584,-192.4169 624.5,-230 614.1631,-259.7503 611.4251,-292.2921 613.0525,-324.2037"/>
<polygon fill="none" stroke="#404040" points="613.0674,-324.4238 617.4661,-330.138 613.8833,-336.3961 609.4846,-330.6819 613.0674,-324.4238"/>
<text text-anchor="middle" x="662.5" y="-271.5" font-family="Helvetica,sans-Serif" font-size="10.00" fill="#000000"> #elementData</text>
</g>
<!-- Node5 -->
<g id="node4" class="node">
<title>Node5</title>
<polygon fill="none" stroke="#bfbfbf" points="766.5,-474 766.5,-531 810.5,-531 810.5,-474 766.5,-474"/>
<text text-anchor="middle" x="788.5" y="-519" font-family="Helvetica,sans-Serif" font-size="10.00" fill="#000000">string</text>
<polyline fill="none" stroke="#bfbfbf" points="766.5,-512 810.5,-512 "/>
<text text-anchor="middle" x="788.5" y="-500" font-family="Helvetica,sans-Serif" font-size="10.00" fill="#000000"> </text>
<polyline fill="none" stroke="#bfbfbf" points="766.5,-493 810.5,-493 "/>
<text text-anchor="middle" x="788.5" y="-481" font-family="Helvetica,sans-Serif" font-size="10.00" fill="#000000"> </text>
</g>
<!-- Node5&#45;&gt;Node4 -->
<g id="edge3" class="edge">
<title>Node5&#45;&gt;Node4</title>
<path fill="none" stroke="#404040" d="M786.9648,-473.611C783.9414,-423.5853 775.9347,-317.7633 758.5,-230 752.8578,-201.5981 743.7435,-170.2868 736.0977,-146.2338"/>
<polygon fill="none" stroke="#404040" points="736.0645,-146.131 730.4123,-141.6529 732.372,-134.7132 738.0242,-139.1912 736.0645,-146.131"/>
<text text-anchor="middle" x="820.5" y="-310" font-family="Helvetica,sans-Serif" font-size="10.00" fill="#000000"> +actionParameter</text>
<text text-anchor="middle" x="820.5" y="-299" font-family="Helvetica,sans-Serif" font-size="10.00" fill="#000000">+buildMenuID</text>
<text text-anchor="middle" x="820.5" y="-288" font-family="Helvetica,sans-Serif" font-size="10.00" fill="#000000">+actionID</text>
<text text-anchor="middle" x="820.5" y="-277" font-family="Helvetica,sans-Serif" font-size="10.00" fill="#000000">+text</text>
<text text-anchor="middle" x="820.5" y="-266" font-family="Helvetica,sans-Serif" font-size="10.00" fill="#000000">+elementID</text>
<text text-anchor="middle" x="820.5" y="-255" font-family="Helvetica,sans-Serif" font-size="10.00" fill="#000000">+layoutGroupName</text>
<text text-anchor="middle" x="820.5" y="-244" font-family="Helvetica,sans-Serif" font-size="10.00" fill="#000000">+tooltipText</text>
<text text-anchor="middle" x="820.5" y="-233" font-family="Helvetica,sans-Serif" font-size="10.00" fill="#000000">+textureID</text>
</g>
<!-- Node6 -->
<g id="node5" class="node">
<title>Node6</title>
<g id="a_node5"><a xlink:href="structSignal_1_1Signal.html" target="_top" xlink:title="{Signal::Signal\&lt; void\l(UIElement *sender)\&gt;\n||+ Signal()\l}">
<polygon fill="none" stroke="#000000" points="146,-468.5 146,-536.5 271,-536.5 271,-468.5 146,-468.5"/>
<text text-anchor="start" x="154" y="-524.5" font-family="Helvetica,sans-Serif" font-size="10.00" fill="#000000">Signal::Signal&lt; void</text>
<text text-anchor="middle" x="208.5" y="-513.5" font-family="Helvetica,sans-Serif" font-size="10.00" fill="#000000">(UIElement *sender)&gt;</text>
<polyline fill="none" stroke="#000000" points="146,-506.5 271,-506.5 "/>
<text text-anchor="middle" x="208.5" y="-494.5" font-family="Helvetica,sans-Serif" font-size="10.00" fill="#000000"> </text>
<polyline fill="none" stroke="#000000" points="146,-487.5 271,-487.5 "/>
<text text-anchor="start" x="154" y="-475.5" font-family="Helvetica,sans-Serif" font-size="10.00" fill="#000000">+ Signal()</text>
</a>
</g>
</g>
<!-- Node6&#45;&gt;Node2 -->
<g id="edge5" class="edge">
<title>Node6&#45;&gt;Node2</title>
<path fill="none" stroke="#404040" d="M208.0629,-468.2013C208.8351,-414.0144 216.4082,-306.872 260.5,-230 274.3304,-205.8873 294.6135,-184.1257 315.5455,-165.8092"/>
<polygon fill="none" stroke="#404040" points="315.7103,-165.6695 317.6989,-158.7379 324.862,-157.9075 322.8735,-164.8391 315.7103,-165.6695"/>
<text text-anchor="middle" x="307.5" y="-271.5" font-family="Helvetica,sans-Serif" font-size="10.00" fill="#000000"> &#45;clickSignalSender</text>
</g>
<!-- Node7 -->
<g id="node6" class="node">
<title>Node7</title>
<g id="a_node6"><a xlink:href="classSignal_1_1Lib_1_1ProtoSignal.html" target="_top" xlink:title="{Signal::Lib::ProtoSignal\l\&lt; void(UIElement *sender)\l, Lib::CollectorDefault\&lt;\l typename std::function\&lt; void\l(UIElement *sender) \&gt;::result_type \&gt; \&gt;\n||}">
<polygon fill="none" stroke="#000000" points="0,-847.5 0,-948.5 211,-948.5 211,-847.5 0,-847.5"/>
<text text-anchor="start" x="8" y="-936.5" font-family="Helvetica,sans-Serif" font-size="10.00" fill="#000000">Signal::Lib::ProtoSignal</text>
<text text-anchor="start" x="8" y="-925.5" font-family="Helvetica,sans-Serif" font-size="10.00" fill="#000000">&lt; void(UIElement *sender)</text>
<text text-anchor="start" x="8" y="-914.5" font-family="Helvetica,sans-Serif" font-size="10.00" fill="#000000">, Lib::CollectorDefault&lt;</text>
<text text-anchor="start" x="8" y="-903.5" font-family="Helvetica,sans-Serif" font-size="10.00" fill="#000000"> typename std::function&lt; void</text>
<text text-anchor="middle" x="105.5" y="-892.5" font-family="Helvetica,sans-Serif" font-size="10.00" fill="#000000">(UIElement *sender) &gt;::result_type &gt; &gt;</text>
<polyline fill="none" stroke="#000000" points="0,-885.5 211,-885.5 "/>
<text text-anchor="middle" x="105.5" y="-873.5" font-family="Helvetica,sans-Serif" font-size="10.00" fill="#000000"> </text>
<polyline fill="none" stroke="#000000" points="0,-866.5 211,-866.5 "/>
<text text-anchor="middle" x="105.5" y="-854.5" font-family="Helvetica,sans-Serif" font-size="10.00" fill="#000000"> </text>
</a>
</g>
</g>
<!-- Node7&#45;&gt;Node6 -->
<g id="edge6" class="edge">
<title>Node7&#45;&gt;Node6</title>
<path fill="none" stroke="#191970" d="M114.4725,-837.5683C119.8554,-804.6548 127.4196,-763.3424 136.5,-727 153.6153,-658.4997 180.3562,-580.3813 195.9797,-536.7089"/>
<polygon fill="none" stroke="#191970" points="111.0079,-837.069 112.8727,-847.4984 117.9188,-838.1824 111.0079,-837.069"/>
</g>
<!-- Node8 -->
<g id="node7" class="node">
<title>Node8</title>
<g id="a_node7"><a xlink:href="classSignal_1_1Lib_1_1ProtoSignal.html" target="_top" xlink:title="ProtoSignal is the template implementation for callback list. ">
<polygon fill="none" stroke="#000000" points="282.5,-1160.5 282.5,-1228.5 426.5,-1228.5 426.5,-1160.5 282.5,-1160.5"/>
<text text-anchor="start" x="290.5" y="-1216.5" font-family="Helvetica,sans-Serif" font-size="10.00" fill="#000000">Signal::Lib::ProtoSignal</text>
<text text-anchor="middle" x="354.5" y="-1205.5" font-family="Helvetica,sans-Serif" font-size="10.00" fill="#000000">&lt; typename, typename &gt;</text>
<polyline fill="none" stroke="#000000" points="282.5,-1198.5 426.5,-1198.5 "/>
<text text-anchor="middle" x="354.5" y="-1186.5" font-family="Helvetica,sans-Serif" font-size="10.00" fill="#000000"> </text>
<polyline fill="none" stroke="#000000" points="282.5,-1179.5 426.5,-1179.5 "/>
<text text-anchor="middle" x="354.5" y="-1167.5" font-family="Helvetica,sans-Serif" font-size="10.00" fill="#000000"> </text>
</a>
</g>
</g>
<!-- Node8&#45;&gt;Node7 -->
<g id="edge7" class="edge">
<title>Node8&#45;&gt;Node7</title>
<path fill="none" stroke="#ffa500" d="M271.8717,-1189.2056C203.5012,-1182.8975 114.0723,-1169.5236 91.5,-1142 47.2386,-1088.0299 65.6407,-1002.6706 84.4497,-948.5467"/>
<polygon fill="#ffa500" stroke="#ffa500" points="271.9529,-1192.7264 282.2227,-1190.1222 272.5704,-1185.7537 271.9529,-1192.7264"/>
<text text-anchor="start" x="91.5" y="-1123" font-family="Helvetica,sans-Serif" font-size="10.00" fill="#000000"> &lt; void(UIElement *sender)</text>
<text text-anchor="start" x="91.5" y="-1112" font-family="Helvetica,sans-Serif" font-size="10.00" fill="#000000">, Lib::CollectorDefault</text>
<text text-anchor="start" x="91.5" y="-1101" font-family="Helvetica,sans-Serif" font-size="10.00" fill="#000000">&lt; typename std::function</text>
<text text-anchor="start" x="91.5" y="-1090" font-family="Helvetica,sans-Serif" font-size="10.00" fill="#000000">&lt; void(UIElement *sender)</text>
<text text-anchor="middle" x="159.5" y="-1079" font-family="Helvetica,sans-Serif" font-size="10.00" fill="#000000"> &gt;::result_type &gt; &gt;</text>
</g>
<!-- Node10 -->
<g id="node9" class="node">
<title>Node10</title>
<g id="a_node9"><a xlink:href="classSignal_1_1Lib_1_1ProtoSignal.html" target="_top" xlink:title="{Signal::Lib::ProtoSignal\l\&lt; SignalSignature, Collector \&gt;\n||}">
<polygon fill="none" stroke="#000000" points="391,-978.5 391,-1046.5 556,-1046.5 556,-978.5 391,-978.5"/>
<text text-anchor="start" x="399" y="-1034.5" font-family="Helvetica,sans-Serif" font-size="10.00" fill="#000000">Signal::Lib::ProtoSignal</text>
<text text-anchor="middle" x="473.5" y="-1023.5" font-family="Helvetica,sans-Serif" font-size="10.00" fill="#000000">&lt; SignalSignature, Collector &gt;</text>
<polyline fill="none" stroke="#000000" points="391,-1016.5 556,-1016.5 "/>
<text text-anchor="middle" x="473.5" y="-1004.5" font-family="Helvetica,sans-Serif" font-size="10.00" fill="#000000"> </text>
<polyline fill="none" stroke="#000000" points="391,-997.5 556,-997.5 "/>
<text text-anchor="middle" x="473.5" y="-985.5" font-family="Helvetica,sans-Serif" font-size="10.00" fill="#000000"> </text>
</a>
</g>
</g>
<!-- Node8&#45;&gt;Node10 -->
<g id="edge10" class="edge">
<title>Node8&#45;&gt;Node10</title>
<path fill="none" stroke="#ffa500" d="M382.5882,-1151.5416C403.5488,-1119.4843 431.8008,-1076.2753 451.2174,-1046.5793"/>
<polygon fill="#ffa500" stroke="#ffa500" points="379.4261,-1149.9821 376.883,-1160.2672 385.2849,-1153.8129 379.4261,-1149.9821"/>
<text text-anchor="start" x="437.5" y="-1106.5" font-family="Helvetica,sans-Serif" font-size="10.00" fill="#000000"> &lt; SignalSignature,</text>
<text text-anchor="middle" x="484.5" y="-1095.5" font-family="Helvetica,sans-Serif" font-size="10.00" fill="#000000"> Collector &gt;</text>
</g>
<!-- Node12 -->
<g id="node11" class="node">
<title>Node12</title>
<g id="a_node11"><a xlink:href="classSignal_1_1Lib_1_1ProtoSignal.html" target="_top" xlink:title="{Signal::Lib::ProtoSignal\l\&lt; void(const std::string\l &amp;, UIElement *sender), Lib\l::CollectorDefault\&lt; typename\l std::function\&lt; void(const std\l::string &amp;, UIElement *sender)\l \&gt;::result_type \&gt; \&gt;\n||}">
<polygon fill="none" stroke="#000000" points="527,-836.5 527,-959.5 690,-959.5 690,-836.5 527,-836.5"/>
<text text-anchor="start" x="535" y="-947.5" font-family="Helvetica,sans-Serif" font-size="10.00" fill="#000000">Signal::Lib::ProtoSignal</text>
<text text-anchor="start" x="535" y="-936.5" font-family="Helvetica,sans-Serif" font-size="10.00" fill="#000000">&lt; void(const std::string</text>
<text text-anchor="start" x="535" y="-925.5" font-family="Helvetica,sans-Serif" font-size="10.00" fill="#000000"> &amp;, UIElement *sender), Lib</text>
<text text-anchor="start" x="535" y="-914.5" font-family="Helvetica,sans-Serif" font-size="10.00" fill="#000000">::CollectorDefault&lt; typename</text>
<text text-anchor="start" x="535" y="-903.5" font-family="Helvetica,sans-Serif" font-size="10.00" fill="#000000"> std::function&lt; void(const std</text>
<text text-anchor="start" x="535" y="-892.5" font-family="Helvetica,sans-Serif" font-size="10.00" fill="#000000">::string &amp;, UIElement *sender)</text>
<text text-anchor="middle" x="608.5" y="-881.5" font-family="Helvetica,sans-Serif" font-size="10.00" fill="#000000"> &gt;::result_type &gt; &gt;</text>
<polyline fill="none" stroke="#000000" points="527,-874.5 690,-874.5 "/>
<text text-anchor="middle" x="608.5" y="-862.5" font-family="Helvetica,sans-Serif" font-size="10.00" fill="#000000"> </text>
<polyline fill="none" stroke="#000000" points="527,-855.5 690,-855.5 "/>
<text text-anchor="middle" x="608.5" y="-843.5" font-family="Helvetica,sans-Serif" font-size="10.00" fill="#000000"> </text>
</a>
</g>
</g>
<!-- Node8&#45;&gt;Node12 -->
<g id="edge13" class="edge">
<title>Node8&#45;&gt;Node12</title>
<path fill="none" stroke="#ffa500" d="M436.5143,-1178.5922C477.2497,-1169.177 520.8499,-1156.3088 535.5,-1142 584.5295,-1094.1127 600.9486,-1014.7654 606.2726,-959.6093"/>
<polygon fill="#ffa500" stroke="#ffa500" points="435.4982,-1175.2334 426.5144,-1180.8495 437.0397,-1182.0616 435.4982,-1175.2334"/>
<text text-anchor="start" x="581.5" y="-1134" font-family="Helvetica,sans-Serif" font-size="10.00" fill="#000000"> &lt; void(const std::string</text>
<text text-anchor="start" x="581.5" y="-1123" font-family="Helvetica,sans-Serif" font-size="10.00" fill="#000000"> &amp;, UIElement *sender),</text>
<text text-anchor="start" x="581.5" y="-1112" font-family="Helvetica,sans-Serif" font-size="10.00" fill="#000000"> Lib::CollectorDefault&lt;</text>
<text text-anchor="start" x="581.5" y="-1101" font-family="Helvetica,sans-Serif" font-size="10.00" fill="#000000"> typename std::function&lt;</text>
<text text-anchor="start" x="581.5" y="-1090" font-family="Helvetica,sans-Serif" font-size="10.00" fill="#000000"> void(const std::string &amp;,</text>
<text text-anchor="start" x="581.5" y="-1079" font-family="Helvetica,sans-Serif" font-size="10.00" fill="#000000"> UIElement *sender) &gt;::result</text>
<text text-anchor="middle" x="654" y="-1068" font-family="Helvetica,sans-Serif" font-size="10.00" fill="#000000">_type &gt; &gt;</text>
</g>
<!-- Node14 -->
<g id="node13" class="node">
<title>Node14</title>
<g id="a_node13"><a xlink:href="classSignal_1_1Lib_1_1ProtoSignal.html" target="_top" xlink:title="{Signal::Lib::ProtoSignal\l\&lt; void(), Lib::CollectorDefault\l\&lt; typename std::function\&lt; void\l() \&gt;::result_type \&gt; \&gt;\n||}">
<polygon fill="none" stroke="#000000" points="146,-727.5 146,-817.5 319,-817.5 319,-727.5 146,-727.5"/>
<text text-anchor="start" x="154" y="-805.5" font-family="Helvetica,sans-Serif" font-size="10.00" fill="#000000">Signal::Lib::ProtoSignal</text>
<text text-anchor="start" x="154" y="-794.5" font-family="Helvetica,sans-Serif" font-size="10.00" fill="#000000">&lt; void(), Lib::CollectorDefault</text>
<text text-anchor="start" x="154" y="-783.5" font-family="Helvetica,sans-Serif" font-size="10.00" fill="#000000">&lt; typename std::function&lt; void</text>
<text text-anchor="middle" x="232.5" y="-772.5" font-family="Helvetica,sans-Serif" font-size="10.00" fill="#000000">() &gt;::result_type &gt; &gt;</text>
<polyline fill="none" stroke="#000000" points="146,-765.5 319,-765.5 "/>
<text text-anchor="middle" x="232.5" y="-753.5" font-family="Helvetica,sans-Serif" font-size="10.00" fill="#000000"> </text>
<polyline fill="none" stroke="#000000" points="146,-746.5 319,-746.5 "/>
<text text-anchor="middle" x="232.5" y="-734.5" font-family="Helvetica,sans-Serif" font-size="10.00" fill="#000000"> </text>
</a>
</g>
</g>
<!-- Node8&#45;&gt;Node14 -->
<g id="edge17" class="edge">
<title>Node8&#45;&gt;Node14</title>
<path fill="none" stroke="#ffa500" d="M315.7676,-1152.4084C292.727,-1124.6478 265.3627,-1086.2708 251.5,-1047 224.3087,-969.9713 224.9658,-873.3711 228.3999,-817.7145"/>
<polygon fill="#ffa500" stroke="#ffa500" points="313.3183,-1154.9325 322.4472,-1160.3097 318.664,-1150.4133 313.3183,-1154.9325"/>
<text text-anchor="start" x="251.5" y="-1026.5" font-family="Helvetica,sans-Serif" font-size="10.00" fill="#000000"> &lt; void(), Lib::Collector</text>
<text text-anchor="start" x="251.5" y="-1015.5" font-family="Helvetica,sans-Serif" font-size="10.00" fill="#000000">Default&lt; typename std</text>
<text text-anchor="start" x="251.5" y="-1004.5" font-family="Helvetica,sans-Serif" font-size="10.00" fill="#000000">::function&lt; void() &gt;::result</text>
<text text-anchor="middle" x="317" y="-993.5" font-family="Helvetica,sans-Serif" font-size="10.00" fill="#000000">_type &gt; &gt;</text>
</g>
<!-- Node9 -->
<g id="node8" class="node">
<title>Node9</title>
<g id="a_node8"><a xlink:href="structSignal_1_1Signal.html" target="_top" xlink:title="Signal is a template type providing an interface for arbitrary callback lists. A signal type needs to...">
<polygon fill="none" stroke="#000000" points="369,-738.5 369,-806.5 542,-806.5 542,-738.5 369,-738.5"/>
<text text-anchor="start" x="377" y="-794.5" font-family="Helvetica,sans-Serif" font-size="10.00" fill="#000000">Signal::Signal&lt; SignalSignature,</text>
<text text-anchor="middle" x="455.5" y="-783.5" font-family="Helvetica,sans-Serif" font-size="10.00" fill="#000000"> Collector &gt;</text>
<polyline fill="none" stroke="#000000" points="369,-776.5 542,-776.5 "/>
<text text-anchor="middle" x="455.5" y="-764.5" font-family="Helvetica,sans-Serif" font-size="10.00" fill="#000000"> </text>
<polyline fill="none" stroke="#000000" points="369,-757.5 542,-757.5 "/>
<text text-anchor="start" x="377" y="-745.5" font-family="Helvetica,sans-Serif" font-size="10.00" fill="#000000">+ Signal()</text>
</a>
</g>
</g>
<!-- Node9&#45;&gt;Node6 -->
<g id="edge8" class="edge">
<title>Node9&#45;&gt;Node6</title>
<path fill="none" stroke="#ffa500" d="M359.3485,-736.7514C348.9897,-733.2899 338.5614,-729.9678 328.5,-727 294.791,-717.057 276.0468,-734.1518 251.5,-709 206.4846,-662.8752 203.0411,-582.5685 205.285,-536.8812"/>
<polygon fill="#ffa500" stroke="#ffa500" points="358.2353,-740.0696 368.8296,-739.9634 360.4814,-733.4397 358.2353,-740.0696"/>
<text text-anchor="middle" x="323.5" y="-695.5" font-family="Helvetica,sans-Serif" font-size="10.00" fill="#000000"> &lt; void(UIElement *sender)&gt;</text>
</g>
<!-- Node11 -->
<g id="node10" class="node">
<title>Node11</title>
<g id="a_node10"><a xlink:href="structSignal_1_1Signal.html" target="_top" xlink:title="{Signal::Signal\&lt; void\l(const std::string &amp;,\l UIElement *sender)\&gt;\n||+ Signal()\l}">
<polygon fill="none" stroke="#000000" points="438.5,-463 438.5,-542 562.5,-542 562.5,-463 438.5,-463"/>
<text text-anchor="start" x="446.5" y="-530" font-family="Helvetica,sans-Serif" font-size="10.00" fill="#000000">Signal::Signal&lt; void</text>
<text text-anchor="start" x="446.5" y="-519" font-family="Helvetica,sans-Serif" font-size="10.00" fill="#000000">(const std::string &amp;,</text>
<text text-anchor="middle" x="500.5" y="-508" font-family="Helvetica,sans-Serif" font-size="10.00" fill="#000000"> UIElement *sender)&gt;</text>
<polyline fill="none" stroke="#000000" points="438.5,-501 562.5,-501 "/>
<text text-anchor="middle" x="500.5" y="-489" font-family="Helvetica,sans-Serif" font-size="10.00" fill="#000000"> </text>
<polyline fill="none" stroke="#000000" points="438.5,-482 562.5,-482 "/>
<text text-anchor="start" x="446.5" y="-470" font-family="Helvetica,sans-Serif" font-size="10.00" fill="#000000">+ Signal()</text>
</a>
</g>
</g>
<!-- Node9&#45;&gt;Node11 -->
<g id="edge14" class="edge">
<title>Node9&#45;&gt;Node11</title>
<path fill="none" stroke="#ffa500" d="M462.8453,-728.4284C471.4614,-676.7314 485.618,-591.7922 493.899,-542.106"/>
<polygon fill="#ffa500" stroke="#ffa500" points="459.391,-727.8649 461.1993,-738.3043 466.2957,-729.0158 459.391,-727.8649"/>
<text text-anchor="start" x="468.5" y="-701" font-family="Helvetica,sans-Serif" font-size="10.00" fill="#000000"> &lt; void(const std::string</text>
<text text-anchor="middle" x="529" y="-690" font-family="Helvetica,sans-Serif" font-size="10.00" fill="#000000"> &amp;, UIElement *sender)&gt;</text>
</g>
<!-- Node13 -->
<g id="node12" class="node">
<title>Node13</title>
<g id="a_node12"><a xlink:href="structSignal_1_1Signal.html" target="_top" xlink:title="{Signal::Signal\&lt; void()\&gt;\n||+ Signal()\l}">
<polygon fill="none" stroke="#000000" points="289,-474 289,-531 420,-531 420,-474 289,-474"/>
<text text-anchor="middle" x="354.5" y="-519" font-family="Helvetica,sans-Serif" font-size="10.00" fill="#000000">Signal::Signal&lt; void()&gt;</text>
<polyline fill="none" stroke="#000000" points="289,-512 420,-512 "/>
<text text-anchor="middle" x="354.5" y="-500" font-family="Helvetica,sans-Serif" font-size="10.00" fill="#000000"> </text>
<polyline fill="none" stroke="#000000" points="289,-493 420,-493 "/>
<text text-anchor="start" x="297" y="-481" font-family="Helvetica,sans-Serif" font-size="10.00" fill="#000000">+ Signal()</text>
</a>
</g>
</g>
<!-- Node9&#45;&gt;Node13 -->
<g id="edge18" class="edge">
<title>Node9&#45;&gt;Node13</title>
<path fill="none" stroke="#ffa500" d="M421.5154,-729.9784C417.0533,-723.2059 412.8687,-716.089 409.5,-709 380.9966,-649.018 365.4636,-571.9578 358.6981,-531.0278"/>
<polygon fill="#ffa500" stroke="#ffa500" points="418.7218,-732.0927 427.2754,-738.3447 424.4875,-728.1233 418.7218,-732.0927"/>
<text text-anchor="middle" x="435.5" y="-695.5" font-family="Helvetica,sans-Serif" font-size="10.00" fill="#000000"> &lt; void()&gt;</text>
</g>
<!-- Node10&#45;&gt;Node9 -->
<g id="edge9" class="edge">
<title>Node10&#45;&gt;Node9</title>
<path fill="none" stroke="#191970" d="M470.1805,-968.2396C466.6773,-921.5312 461.2321,-848.9287 458.051,-806.5135"/>
<polygon fill="none" stroke="#191970" points="466.702,-968.6585 470.9402,-978.3687 473.6824,-968.1349 466.702,-968.6585"/>
</g>
<!-- Node11&#45;&gt;Node2 -->
<g id="edge11" class="edge">
<title>Node11&#45;&gt;Node2</title>
<path fill="none" stroke="#404040" d="M490.6547,-462.6667C476.9609,-407.2627 451.592,-304.6224 431.5725,-223.6248"/>
<polygon fill="none" stroke="#404040" points="431.539,-223.4891 426.2161,-218.6241 428.6596,-211.8396 433.9824,-216.7045 431.539,-223.4891"/>
<text text-anchor="middle" x="497.5" y="-271.5" font-family="Helvetica,sans-Serif" font-size="10.00" fill="#000000"> &#45;clickSignalString</text>
</g>
<!-- Node12&#45;&gt;Node11 -->
<g id="edge12" class="edge">
<title>Node12&#45;&gt;Node11</title>
<path fill="none" stroke="#191970" d="M616.7801,-826.0311C618.5119,-783.4437 614.9874,-729.6626 593.5,-687 587.9704,-676.0212 579.7933,-678.8954 572.5,-669 543.7249,-629.959 523.5147,-577.6366 511.9778,-542.1401"/>
<polygon fill="none" stroke="#191970" points="613.2833,-825.8808 616.2688,-836.0463 620.2742,-826.2378 613.2833,-825.8808"/>
</g>
<!-- Node13&#45;&gt;Node2 -->
<g id="edge15" class="edge">
<title>Node13&#45;&gt;Node2</title>
<path fill="none" stroke="#404040" d="M353.9451,-473.6459C353.4366,-423.6729 354.3577,-317.9282 368.5,-230 368.8503,-227.8219 369.2243,-225.6272 369.6195,-223.4204"/>
<polygon fill="none" stroke="#404040" points="369.6408,-223.3101 366.8547,-216.6589 371.9226,-211.529 374.7087,-218.1801 369.6408,-223.3101"/>
<text text-anchor="middle" x="398.5" y="-271.5" font-family="Helvetica,sans-Serif" font-size="10.00" fill="#000000"> &#45;clickSignal</text>
</g>
<!-- Node14&#45;&gt;Node13 -->
<g id="edge16" class="edge">
<title>Node14&#45;&gt;Node13</title>
<path fill="none" stroke="#191970" d="M207.7633,-717.2844C206.3889,-706.4744 207.82,-695.7812 214.5,-687 232.6488,-663.1423 256.745,-688.5135 279.5,-669 321.616,-632.8835 341.1991,-568.3395 349.3751,-531.111"/>
<polygon fill="none" stroke="#191970" points="204.3516,-718.0733 209.744,-727.1932 211.2158,-716.7011 204.3516,-718.0733"/>
</g>
</g>
</svg>
        <g id="navigator" transform="translate(0 0)" fill="#404254">
                <rect fill="#f2f5e9" fill-opacity="0.5" stroke="#606060" stroke-width=".5" x="0" y="0" width="60" height="60"/>
                <use id="zoomplus" xlink:href="#zoomPlus" x="17" y="9" onmousedown="handleZoom(evt,'in')"/>
                <use id="zoomminus" xlink:href="#zoomMin" x="42" y="9" onmousedown="handleZoom(evt,'out')"/>
                <use id="reset" xlink:href="#resetDef" x="30" y="36" onmousedown="handleReset()"/>
                <g id="arrowUp" xlink:href="#dirArrow" transform="translate(30 24)" onmousedown="handlePan(0,-1)">
                  <use xlink:href="#rim" fill="#404040">
                        <set attributeName="fill" to="#808080" begin="arrowUp.mouseover" end="arrowUp.mouseout"/>
                  </use>
                  <path fill="none" stroke="white" stroke-width="1.5" d="M0,-3.0v7 M-2.5,-0.5L0,-3.0L2.5,-0.5"/>
                </g>
                <g id="arrowRight" xlink:href="#dirArrow" transform="rotate(90) translate(36 -43)" onmousedown="handlePan(1,0)">
                  <use xlink:href="#rim" fill="#404040">
                        <set attributeName="fill" to="#808080" begin="arrowRight.mouseover" end="arrowRight.mouseout"/>
                  </use>
                  <path fill="none" stroke="white" stroke-width="1.5" d="M0,-3.0v7 M-2.5,-0.5L0,-3.0L2.5,-0.5"/>
                </g>
                <g id="arrowDown" xlink:href="#dirArrow" transform="rotate(180) translate(-30 -48)" onmousedown="handlePan(0,1)">
                  <use xlink:href="#rim" fill="#404040">
                        <set attributeName="fill" to="#808080" begin="arrowDown.mouseover" end="arrowDown.mouseout"/>
                  </use>
                  <path fill="none" stroke="white" stroke-width="1.5" d="M0,-3.0v7 M-2.5,-0.5L0,-3.0L2.5,-0.5"/>
                </g>
                <g id="arrowLeft" xlink:href="#dirArrow" transform="rotate(270) translate(-36 17)" onmousedown="handlePan(-1,0)">
                  <use xlink:href="#rim" fill="#404040">
                        <set attributeName="fill" to="#808080" begin="arrowLeft.mouseover" end="arrowLeft.mouseout"/>
                  </use>
                  <path fill="none" stroke="white" stroke-width="1.5" d="M0,-3.0v7 M-2.5,-0.5L0,-3.0L2.5,-0.5"/>
                </g>
        </g>
        <svg viewBox="0 0 15 15" width="100%" height="30px" preserveAspectRatio="xMaxYMin meet">
         <g id="arrow_out" transform="scale(0.3 0.3)">
          <a xlink:href="classButton__coll__graph_org.svg" target="_base">
           <rect id="button" ry="5" rx="5" y="6" x="6" height="38" width="38"
                fill="#f2f5e9" fill-opacity="0.5" stroke="#606060" stroke-width="1.0"/>
           <path id="arrow"
             d="M 11.500037,31.436501 C 11.940474,20.09759 22.043105,11.32322 32.158766,21.979434 L 37.068811,17.246167 C 37.068811,17.246167 37.088388,32 37.088388,32 L 22.160133,31.978069 C 22.160133,31.978069 26.997745,27.140456 26.997745,27.140456 C 18.528582,18.264221 13.291696,25.230495 11.500037,31.436501 z"
             style="fill:#404040;"/>
          </a>
         </g>
        </svg>
</svg>
