<?xml version="1.0" encoding="UTF-8" standalone="no"?>
<!DOCTYPE svg PUBLIC "-//W3C//DTD SVG 1.1//EN"
 "http://www.w3.org/Graphics/SVG/1.1/DTD/svg11.dtd">
<!-- Generated by graphviz version 2.40.1 (20161225.0304)
 -->
<!-- Title: Layout::calculateLayoutGroupDimensions Pages: 1 -->
<svg width="781pt" height="145pt"
 viewBox="0.00 0.00 781.00 145.00" xmlns="http://www.w3.org/2000/svg" xmlns:xlink="http://www.w3.org/1999/xlink">
<g id="graph0" class="graph" transform="scale(1 1) rotate(0) translate(4 141)">
<title>Layout::calculateLayoutGroupDimensions</title>
<!-- Node39 -->
<g id="node1" class="node">
<title>Node39</title>
<polygon fill="#bfbfbf" stroke="#000000" points="0,-55 0,-85 162,-85 162,-55 0,-55"/>
<text text-anchor="start" x="8" y="-73" font-family="Helvetica,sans-Serif" font-size="10.00" fill="#000000">Layout::calculateLayoutGroup</text>
<text text-anchor="middle" x="81" y="-62" font-family="Helvetica,sans-Serif" font-size="10.00" fill="#000000">Dimensions</text>
</g>
<!-- Node40 -->
<g id="node2" class="node">
<title>Node40</title>
<g id="a_node2"><a xlink:href="classLayout.html#afa734c5af10f59f3dadb066054fe81ab" target="_top" xlink:title="Arrange the layout elements. ">
<polygon fill="none" stroke="#000000" points="198,-60.5 198,-79.5 337,-79.5 337,-60.5 198,-60.5"/>
<text text-anchor="middle" x="267.5" y="-67.5" font-family="Helvetica,sans-Serif" font-size="10.00" fill="#000000">Layout::arrangeElements</text>
</a>
</g>
</g>
<!-- Node39&#45;&gt;Node40 -->
<g id="edge1" class="edge">
<title>Node39&#45;&gt;Node40</title>
<path fill="none" stroke="#191970" d="M172.3257,-70C180.9244,-70 189.545,-70 197.8948,-70"/>
<polygon fill="#191970" stroke="#191970" points="172.2591,-66.5001 162.2591,-70 172.259,-73.5001 172.2591,-66.5001"/>
</g>
<!-- Node41 -->
<g id="node3" class="node">
<title>Node41</title>
<g id="a_node3"><a xlink:href="UIManager_8cxx.html#a93ebc51d97942bf4e32123b5c61c4141" target="_top" xlink:title="BETTER_ENUM">
<polygon fill="none" stroke="#000000" points="421.5,-117.5 421.5,-136.5 510.5,-136.5 510.5,-117.5 421.5,-117.5"/>
<text text-anchor="middle" x="466" y="-124.5" font-family="Helvetica,sans-Serif" font-size="10.00" fill="#000000">BETTER_ENUM</text>
</a>
</g>
</g>
<!-- Node40&#45;&gt;Node41 -->
<g id="edge2" class="edge">
<title>Node40&#45;&gt;Node41</title>
<path fill="none" stroke="#191970" d="M300.6055,-83.3152C321.1955,-91.2471 348.3551,-101.083 373,-108 388.5489,-112.3641 405.822,-116.1712 421.2204,-119.2084"/>
<polygon fill="#191970" stroke="#191970" points="301.6536,-79.9673 291.0653,-79.5955 299.1107,-86.4891 301.6536,-79.9673"/>
</g>
<!-- Node42 -->
<g id="node4" class="node">
<title>Node42</title>
<g id="a_node4"><a xlink:href="classUIManager.html#a3ccb2fc669262f18ebdcdf3d5c43a3e8" target="_top" xlink:title="CallbackFunction that sets the Build Menu Position Used as callback function for the ComboBox that ho...">
<polygon fill="none" stroke="#000000" points="376,-79.5 376,-98.5 556,-98.5 556,-79.5 376,-79.5"/>
<text text-anchor="middle" x="466" y="-86.5" font-family="Helvetica,sans-Serif" font-size="10.00" fill="#000000">UIManager::setBuildMenuPosition</text>
</a>
</g>
</g>
<!-- Node40&#45;&gt;Node42 -->
<g id="edge3" class="edge">
<title>Node40&#45;&gt;Node42</title>
<path fill="none" stroke="#191970" d="M347.3037,-77.6386C356.7142,-78.5394 366.3674,-79.4634 375.9068,-80.3765"/>
<polygon fill="#191970" stroke="#191970" points="347.4926,-74.1408 337.2046,-76.672 346.8255,-81.109 347.4926,-74.1408"/>
</g>
<!-- Node44 -->
<g id="node6" class="node">
<title>Node44</title>
<g id="a_node6"><a xlink:href="classUIManager.html#ac927e1cd3dea979202ea9dbf1195b583" target="_top" xlink:title="UIManager::changeResolution">
<polygon fill="none" stroke="#000000" points="385.5,-3.5 385.5,-22.5 546.5,-22.5 546.5,-3.5 385.5,-3.5"/>
<text text-anchor="middle" x="466" y="-10.5" font-family="Helvetica,sans-Serif" font-size="10.00" fill="#000000">UIManager::changeResolution</text>
</a>
</g>
</g>
<!-- Node40&#45;&gt;Node44 -->
<g id="edge5" class="edge">
<title>Node40&#45;&gt;Node44</title>
<path fill="none" stroke="#191970" d="M300.6055,-56.6848C321.1955,-48.7529 348.3551,-38.917 373,-32 385.693,-28.4375 399.5349,-25.2461 412.5681,-22.5418"/>
<polygon fill="#191970" stroke="#191970" points="299.1107,-53.5109 291.0653,-60.4045 301.6536,-60.0327 299.1107,-53.5109"/>
</g>
<!-- Node46 -->
<g id="node8" class="node">
<title>Node46</title>
<g id="a_node8"><a xlink:href="classUIManager.html#af2ffb4ee45e57152164643ef6cddda37" target="_top" xlink:title="UIManager::changeFullScreenMode">
<polygon fill="none" stroke="#000000" points="373,-41.5 373,-60.5 559,-60.5 559,-41.5 373,-41.5"/>
<text text-anchor="middle" x="466" y="-48.5" font-family="Helvetica,sans-Serif" font-size="10.00" fill="#000000">UIManager::changeFullScreenMode</text>
</a>
</g>
</g>
<!-- Node40&#45;&gt;Node46 -->
<g id="edge8" class="edge">
<title>Node40&#45;&gt;Node46</title>
<path fill="none" stroke="#191970" d="M347.3118,-62.3606C355.69,-61.5586 364.2605,-60.7383 372.7717,-59.9236"/>
<polygon fill="#191970" stroke="#191970" points="346.8255,-58.891 337.2046,-63.328 347.4926,-65.8592 346.8255,-58.891"/>
</g>
<!-- Node43 -->
<g id="node5" class="node">
<title>Node43</title>
<g id="a_node5"><a xlink:href="classUIManager.html#a5c4cb8e02504ffa0d3faf45181feab9d" target="_top" xlink:title="Fill UI Widgets whose ID start with a $ with data Used for filling widgets with data, like BuildMenu Position combobox, Screen Resolution ComboBox and so on. ">
<polygon fill="none" stroke="#000000" points="611,-39 611,-69 757,-69 757,-39 611,-39"/>
<text text-anchor="start" x="619" y="-57" font-family="Helvetica,sans-Serif" font-size="10.00" fill="#000000">UIManager::initializeDollar</text>
<text text-anchor="middle" x="684" y="-46" font-family="Helvetica,sans-Serif" font-size="10.00" fill="#000000">Variables</text>
</a>
</g>
</g>
<!-- Node42&#45;&gt;Node43 -->
<g id="edge4" class="edge">
<title>Node42&#45;&gt;Node43</title>
<path fill="none" stroke="#191970" d="M535.378,-77.8613C559.3995,-74.0047 586.3928,-69.6709 610.7179,-65.7655"/>
<polygon fill="#191970" stroke="#191970" points="534.6002,-74.4413 525.2815,-79.4823 535.7099,-81.3528 534.6002,-74.4413"/>
</g>
<!-- Node44&#45;&gt;Node43 -->
<g id="edge7" class="edge">
<title>Node44&#45;&gt;Node43</title>
<path fill="none" stroke="#191970" d="M526.7056,-24.4171C552.8423,-29.3327 583.6226,-35.1217 610.9923,-40.2692"/>
<polygon fill="#191970" stroke="#191970" points="527.0362,-20.918 516.5615,-22.5093 525.7423,-27.7974 527.0362,-20.918"/>
</g>
<!-- Node45 -->
<g id="node7" class="node">
<title>Node45</title>
<g id="a_node7"><a xlink:href="classUIManager.html#aa78e356fc3b356d790c848319d1c387e" target="_top" xlink:title="UIManager::setCallbackFunctions">
<polygon fill="none" stroke="#000000" points="595,-.5 595,-19.5 773,-19.5 773,-.5 595,-.5"/>
<text text-anchor="middle" x="684" y="-7.5" font-family="Helvetica,sans-Serif" font-size="10.00" fill="#000000">UIManager::setCallbackFunctions</text>
</a>
</g>
</g>
<!-- Node44&#45;&gt;Node45 -->
<g id="edge6" class="edge">
<title>Node44&#45;&gt;Node45</title>
<path fill="none" stroke="#191970" d="M556.6341,-11.7527C569.309,-11.5783 582.3251,-11.3992 594.9699,-11.2252"/>
<polygon fill="#191970" stroke="#191970" points="556.5066,-8.2541 546.5558,-11.8914 556.603,-15.2534 556.5066,-8.2541"/>
</g>
<!-- Node46&#45;&gt;Node43 -->
<g id="edge9" class="edge">
<title>Node46&#45;&gt;Node43</title>
<path fill="none" stroke="#191970" d="M569.3047,-52.4216C583.3906,-52.6155 597.6036,-52.8111 610.9995,-52.9954"/>
<polygon fill="#191970" stroke="#191970" points="569.1312,-48.919 559.084,-52.281 569.0348,-55.9183 569.1312,-48.919"/>
</g>
</g>
</svg>
