<?xml version="1.0" encoding="UTF-8" standalone="no"?>
<!DOCTYPE svg PUBLIC "-//W3C//DTD SVG 1.1//EN"
 "http://www.w3.org/Graphics/SVG/1.1/DTD/svg11.dtd">
<!-- Generated by graphviz version 2.40.1 (20161225.0304)
 -->
<!-- Title: AudioMixer::AudioMixer Pages: 1 -->
<svg width="331pt" height="165pt"
 viewBox="0.00 0.00 331.00 165.00" xmlns="http://www.w3.org/2000/svg" xmlns:xlink="http://www.w3.org/1999/xlink">
<g id="graph0" class="graph" transform="scale(1 1) rotate(0) translate(4 161)">
<title>AudioMixer::AudioMixer</title>
<!-- Node0 -->
<g id="node1" class="node">
<title>Node0</title>
<polygon fill="#bfbfbf" stroke="#000000" points="0,-69 0,-88 132,-88 132,-69 0,-69"/>
<text text-anchor="middle" x="66" y="-76" font-family="Helvetica,sans-Serif" font-size="10.00" fill="#000000">AudioMixer::AudioMixer</text>
</g>
<!-- Node1 -->
<g id="node2" class="node">
<title>Node1</title>
<g id="a_node2"><a xlink:href="classSingleton.html#af5cb1e5749949e2b68416cfb8d378044" target="_top" xlink:title="Get an instance of the singleton. ">
<polygon fill="none" stroke="#000000" points="189,-126.5 189,-156.5 302,-156.5 302,-126.5 189,-126.5"/>
<text text-anchor="start" x="197" y="-144.5" font-family="Helvetica,sans-Serif" font-size="10.00" fill="#000000">Singleton&lt; Settings</text>
<text text-anchor="middle" x="245.5" y="-133.5" font-family="Helvetica,sans-Serif" font-size="10.00" fill="#000000"> &gt;::instance</text>
</a>
</g>
</g>
<!-- Node0&#45;&gt;Node1 -->
<g id="edge1" class="edge">
<title>Node0&#45;&gt;Node1</title>
<path fill="none" stroke="#191970" d="M90.622,-88.0239C111.2122,-95.9036 141.4021,-107.2606 168,-116.5 174.4604,-118.7442 181.2465,-121.0329 188.0047,-123.2692"/>
<polygon fill="#191970" stroke="#191970" points="187.2521,-126.7057 197.8448,-126.4968 189.4338,-120.0544 187.2521,-126.7057"/>
</g>
<!-- Node2 -->
<g id="node3" class="node">
<title>Node2</title>
<g id="a_node3"><a xlink:href="structStrongType.html#acc66e6d6b9c95193a97a839560499933" target="_top" xlink:title="StrongType::get">
<polygon fill="none" stroke="#000000" points="199.5,-88 199.5,-107 291.5,-107 291.5,-88 199.5,-88"/>
<text text-anchor="middle" x="245.5" y="-95" font-family="Helvetica,sans-Serif" font-size="10.00" fill="#000000">StrongType::get</text>
</a>
</g>
</g>
<!-- Node0&#45;&gt;Node2 -->
<g id="edge2" class="edge">
<title>Node0&#45;&gt;Node2</title>
<path fill="none" stroke="#191970" d="M132.0745,-85.494C150.8801,-87.4845 171.1793,-89.6332 189.3356,-91.555"/>
<polygon fill="#191970" stroke="#191970" points="189.1508,-95.0549 199.4637,-92.6271 189.8877,-88.0938 189.1508,-95.0549"/>
</g>
<!-- Node3 -->
<g id="node4" class="node">
<title>Node3</title>
<g id="a_node4"><a xlink:href="classAudioMixer.html#a1e99011921698de1ae9aa2afc2789166" target="_top" xlink:title="Called whenever a Channel has finished playing. ">
<polygon fill="none" stroke="#000000" points="168,-50 168,-69 323,-69 323,-50 168,-50"/>
<text text-anchor="middle" x="245.5" y="-57" font-family="Helvetica,sans-Serif" font-size="10.00" fill="#000000">AudioMixer::onTrackFinished</text>
</a>
</g>
</g>
<!-- Node0&#45;&gt;Node3 -->
<g id="edge3" class="edge">
<title>Node0&#45;&gt;Node3</title>
<path fill="none" stroke="#191970" d="M132.0745,-71.506C140.4089,-70.6238 149.0367,-69.7106 157.6414,-68.7998"/>
<polygon fill="#191970" stroke="#191970" points="158.1368,-72.267 167.7128,-67.7337 157.3999,-65.3059 158.1368,-72.267"/>
</g>
<!-- Node4 -->
<g id="node5" class="node">
<title>Node4</title>
<g id="a_node5"><a xlink:href="classAudioMixer.html#a8e10448151f086ed146a48b5872f64aa" target="_top" xlink:title="AudioMixer::onTrackFinished\lFuncPtr">
<polygon fill="none" stroke="#000000" points="168,-.5 168,-30.5 323,-30.5 323,-.5 168,-.5"/>
<text text-anchor="start" x="176" y="-18.5" font-family="Helvetica,sans-Serif" font-size="10.00" fill="#000000">AudioMixer::onTrackFinished</text>
<text text-anchor="middle" x="245.5" y="-7.5" font-family="Helvetica,sans-Serif" font-size="10.00" fill="#000000">FuncPtr</text>
</a>
</g>
</g>
<!-- Node0&#45;&gt;Node4 -->
<g id="edge4" class="edge">
<title>Node0&#45;&gt;Node4</title>
<path fill="none" stroke="#191970" d="M90.622,-68.9761C111.2122,-61.0964 141.4021,-49.7394 168,-40.5 174.4604,-38.2558 181.2465,-35.9671 188.0047,-33.7308"/>
<polygon fill="#191970" stroke="#191970" points="189.4338,-36.9456 197.8448,-30.5032 187.2521,-30.2943 189.4338,-36.9456"/>
</g>
</g>
</svg>
