<?xml version="1.0" encoding="UTF-8" standalone="no"?>
<!DOCTYPE svg PUBLIC "-//W3C//DTD SVG 1.1//EN"
 "http://www.w3.org/Graphics/SVG/1.1/DTD/svg11.dtd">
<!-- Generated by graphviz version 2.40.1 (20161225.0304)
 -->
<!-- Title: UIElement::setToggleButton Pages: 1 -->
<svg width="353pt" height="66pt"
 viewBox="0.00 0.00 353.00 66.00" xmlns="http://www.w3.org/2000/svg" xmlns:xlink="http://www.w3.org/1999/xlink">
<g id="graph0" class="graph" transform="scale(1 1) rotate(0) translate(4 62)">
<title>UIElement::setToggleButton</title>
<!-- Node263 -->
<g id="node1" class="node">
<title>Node263</title>
<polygon fill="#bfbfbf" stroke="#000000" points="0,-19.5 0,-38.5 152,-38.5 152,-19.5 0,-19.5"/>
<text text-anchor="middle" x="76" y="-26.5" font-family="Helvetica,sans-Serif" font-size="10.00" fill="#000000">UIElement::setToggleButton</text>
</g>
<!-- Node264 -->
<g id="node2" class="node">
<title>Node264</title>
<g id="a_node2"><a xlink:href="classCheckbox.html#ad7cc1d2f95f308b0432b2a46af61e6b6" target="_top" xlink:title="Checkbox::Checkbox">
<polygon fill="none" stroke="#000000" points="207,-38.5 207,-57.5 326,-57.5 326,-38.5 207,-38.5"/>
<text text-anchor="middle" x="266.5" y="-45.5" font-family="Helvetica,sans-Serif" font-size="10.00" fill="#000000">Checkbox::Checkbox</text>
</a>
</g>
</g>
<!-- Node263&#45;&gt;Node264 -->
<g id="edge1" class="edge">
<title>Node263&#45;&gt;Node264</title>
<path fill="none" stroke="#191970" d="M162.4563,-37.6229C177.493,-39.1227 192.8246,-40.6518 206.9349,-42.0591"/>
<polygon fill="#191970" stroke="#191970" points="162.4099,-34.101 152.1119,-36.5912 161.7152,-41.0665 162.4099,-34.101"/>
</g>
<!-- Node265 -->
<g id="node3" class="node">
<title>Node265</title>
<g id="a_node3"><a xlink:href="classUIManager.html#aae7a89e9d50bb6192e4140e07bd5f94b" target="_top" xlink:title="UIManager::createBuildMenu">
<polygon fill="none" stroke="#000000" points="188,-.5 188,-19.5 345,-19.5 345,-.5 188,-.5"/>
<text text-anchor="middle" x="266.5" y="-7.5" font-family="Helvetica,sans-Serif" font-size="10.00" fill="#000000">UIManager::createBuildMenu</text>
</a>
</g>
</g>
<!-- Node263&#45;&gt;Node265 -->
<g id="edge2" class="edge">
<title>Node263&#45;&gt;Node265</title>
<path fill="none" stroke="#191970" d="M162.0719,-20.4154C170.6093,-19.5639 179.246,-18.7025 187.7042,-17.8589"/>
<polygon fill="#191970" stroke="#191970" points="161.7152,-16.9335 152.1119,-21.4088 162.4099,-23.899 161.7152,-16.9335"/>
</g>
</g>
</svg>
