<?xml version="1.0" encoding="UTF-8" standalone="no"?>
<!DOCTYPE svg PUBLIC "-//W3C//DTD SVG 1.1//EN"
 "http://www.w3.org/Graphics/SVG/1.1/DTD/svg11.dtd">
<!-- Generated by graphviz version 2.40.1 (20161225.0304)
 -->
<!-- Title: MapNode::setBitmask Pages: 1 -->
<svg width="672pt" height="214pt"
 viewBox="0.00 0.00 672.00 213.50" xmlns="http://www.w3.org/2000/svg" xmlns:xlink="http://www.w3.org/1999/xlink">
<g id="graph0" class="graph" transform="scale(1 1) rotate(0) translate(4 209.5)">
<title>MapNode::setBitmask</title>
<!-- Node193 -->
<g id="node1" class="node">
<title>Node193</title>
<polygon fill="#bfbfbf" stroke="#000000" points="0,-106.5 0,-125.5 124,-125.5 124,-106.5 0,-106.5"/>
<text text-anchor="middle" x="62" y="-113.5" font-family="Helvetica,sans-Serif" font-size="10.00" fill="#000000">MapNode::setBitmask</text>
</g>
<!-- Node194 -->
<g id="node2" class="node">
<title>Node194</title>
<g id="a_node2"><a xlink:href="classMapNode.html#aabbb10c19ddd79e9c519eb4af5e995e0" target="_top" xlink:title="MapNode::updateTexture">
<polygon fill="none" stroke="#000000" points="160,-106.5 160,-125.5 298,-125.5 298,-106.5 160,-106.5"/>
<text text-anchor="middle" x="229" y="-113.5" font-family="Helvetica,sans-Serif" font-size="10.00" fill="#000000">MapNode::updateTexture</text>
</a>
</g>
</g>
<!-- Node193&#45;&gt;Node194 -->
<g id="edge1" class="edge">
<title>Node193&#45;&gt;Node194</title>
<path fill="none" stroke="#191970" d="M124.1846,-116C132.5163,-116 141.1514,-116 149.727,-116"/>
<polygon fill="#191970" stroke="#191970" points="149.7448,-119.5001 159.7447,-116 149.7447,-112.5001 149.7448,-119.5001"/>
</g>
<!-- Node195 -->
<g id="node3" class="node">
<title>Node195</title>
<g id="a_node3"><a xlink:href="classSingleton.html#af5cb1e5749949e2b68416cfb8d378044" target="_top" xlink:title="Get an instance of the singleton. ">
<polygon fill="none" stroke="#000000" points="344,-175 344,-205 478,-205 478,-175 344,-175"/>
<text text-anchor="start" x="352" y="-193" font-family="Helvetica,sans-Serif" font-size="10.00" fill="#000000">Singleton&lt; TileManager</text>
<text text-anchor="middle" x="411" y="-182" font-family="Helvetica,sans-Serif" font-size="10.00" fill="#000000"> &gt;::instance</text>
</a>
</g>
</g>
<!-- Node194&#45;&gt;Node195 -->
<g id="edge2" class="edge">
<title>Node194&#45;&gt;Node195</title>
<path fill="none" stroke="#191970" d="M262.5079,-125.6364C282.8651,-134.6841 309.5599,-147.4282 334,-157 347.195,-162.1677 361.991,-167.0004 375.0601,-171.5112"/>
<polygon fill="#191970" stroke="#191970" points="374.0676,-174.8724 384.6624,-174.8983 376.3962,-168.2711 374.0676,-174.8724"/>
</g>
<!-- Node194&#45;&gt;Node195 -->
<g id="edge8" class="edge">
<title>Node194&#45;&gt;Node195</title>
<path fill="none" stroke="#191970" d="M237.5274,-125.5349C255.1784,-138.9262 297.1519,-160.5687 334,-175 334.0978,-175.0383 334.1957,-175.0766 334.2936,-175.1148"/>
<polygon fill="#191970" stroke="#191970" points="333.0208,-178.3755 343.6132,-178.6053 335.4761,-171.8202 333.0208,-178.3755"/>
</g>
<!-- Node196 -->
<g id="node4" class="node">
<title>Node196</title>
<g id="a_node4"><a xlink:href="classTileManager.html#a519b2d5c91877025a2faa0dff3ba099c" target="_top" xlink:title="TileManager::calculateSlope\lOrientation">
<polygon fill="none" stroke="#000000" points="334,-126 334,-156 488,-156 488,-126 334,-126"/>
<text text-anchor="start" x="342" y="-144" font-family="Helvetica,sans-Serif" font-size="10.00" fill="#000000">TileManager::calculateSlope</text>
<text text-anchor="middle" x="411" y="-133" font-family="Helvetica,sans-Serif" font-size="10.00" fill="#000000">Orientation</text>
</a>
</g>
</g>
<!-- Node194&#45;&gt;Node196 -->
<g id="edge3" class="edge">
<title>Node194&#45;&gt;Node196</title>
<path fill="none" stroke="#191970" d="M298.0659,-125.4871C306.45,-126.6387 315.0983,-127.8267 323.7024,-129.0086"/>
<polygon fill="#191970" stroke="#191970" points="323.3808,-132.4972 333.7641,-130.3907 324.3334,-125.5623 323.3808,-132.4972"/>
</g>
<!-- Node197 -->
<g id="node5" class="node">
<title>Node197</title>
<g id="a_node5"><a xlink:href="classTileManager.html#a05d41a7f0858cff242f027a08e06ea43" target="_top" xlink:title="TileManager::calculateTile\lOrientation">
<polygon fill="none" stroke="#000000" points="338.5,-77 338.5,-107 483.5,-107 483.5,-77 338.5,-77"/>
<text text-anchor="start" x="346.5" y="-95" font-family="Helvetica,sans-Serif" font-size="10.00" fill="#000000">TileManager::calculateTile</text>
<text text-anchor="middle" x="411" y="-84" font-family="Helvetica,sans-Serif" font-size="10.00" fill="#000000">Orientation</text>
</a>
</g>
</g>
<!-- Node194&#45;&gt;Node197 -->
<g id="edge4" class="edge">
<title>Node194&#45;&gt;Node197</title>
<path fill="none" stroke="#191970" d="M298.0659,-106.8924C307.9459,-105.5896 318.1926,-104.2383 328.3016,-102.9053"/>
<polygon fill="#191970" stroke="#191970" points="328.8894,-106.3582 338.346,-101.5807 327.9742,-99.4182 328.8894,-106.3582"/>
</g>
<!-- Node198 -->
<g id="node6" class="node">
<title>Node198</title>
<g id="a_node6"><a xlink:href="classMapNode.html#afb1cbc0f9e987b7befced46220dd9277" target="_top" xlink:title="check if specific layer can be autotiled. ">
<polygon fill="none" stroke="#000000" points="339,-38.5 339,-57.5 483,-57.5 483,-38.5 339,-38.5"/>
<text text-anchor="middle" x="411" y="-45.5" font-family="Helvetica,sans-Serif" font-size="10.00" fill="#000000">MapNode::isLayerAutoTile</text>
</a>
</g>
</g>
<!-- Node194&#45;&gt;Node198 -->
<g id="edge5" class="edge">
<title>Node194&#45;&gt;Node198</title>
<path fill="none" stroke="#191970" d="M247.5574,-106.3144C268.2261,-95.8133 302.8373,-79.0743 334,-68 341.9509,-65.1745 350.4922,-62.5585 358.8894,-60.213"/>
<polygon fill="#191970" stroke="#191970" points="359.8911,-63.568 368.6366,-57.5875 358.0704,-56.8089 359.8911,-63.568"/>
</g>
<!-- Node200 -->
<g id="node8" class="node">
<title>Node200</title>
<g id="a_node8"><a xlink:href="classMapNode.html#ab34930f43b60310cd475f514e969a401" target="_top" xlink:title="get TileID of specific layer inside NodeData. ">
<polygon fill="none" stroke="#000000" points="354.5,-.5 354.5,-19.5 467.5,-19.5 467.5,-.5 354.5,-.5"/>
<text text-anchor="middle" x="411" y="-7.5" font-family="Helvetica,sans-Serif" font-size="10.00" fill="#000000">MapNode::getTileID</text>
</a>
</g>
</g>
<!-- Node194&#45;&gt;Node200 -->
<g id="edge7" class="edge">
<title>Node194&#45;&gt;Node200</title>
<path fill="none" stroke="#191970" d="M237.796,-106.2426C254.6436,-88.1676 293.4121,-49.4603 334,-29 338.6453,-26.6583 343.5965,-24.594 348.6623,-22.7762"/>
<polygon fill="#191970" stroke="#191970" points="350.069,-25.9991 358.4948,-19.5761 347.9025,-19.3428 350.069,-25.9991"/>
</g>
<!-- Node199 -->
<g id="node7" class="node">
<title>Node199</title>
<g id="a_node7"><a xlink:href="classMapNode.html#a64cb9a4523c9e78f256fde42f1dee43d" target="_top" xlink:title="check if specific Tile Data is autotile category. ">
<polygon fill="none" stroke="#000000" points="524,-38.5 524,-57.5 664,-57.5 664,-38.5 524,-38.5"/>
<text text-anchor="middle" x="594" y="-45.5" font-family="Helvetica,sans-Serif" font-size="10.00" fill="#000000">MapNode::isDataAutoTile</text>
</a>
</g>
</g>
<!-- Node198&#45;&gt;Node199 -->
<g id="edge6" class="edge">
<title>Node198&#45;&gt;Node199</title>
<path fill="none" stroke="#191970" d="M483.0638,-48C493.1158,-48 503.4959,-48 513.688,-48"/>
<polygon fill="#191970" stroke="#191970" points="513.7984,-51.5001 523.7984,-48 513.7983,-44.5001 513.7984,-51.5001"/>
</g>
</g>
</svg>
