<?xml version="1.0" encoding="UTF-8" standalone="no"?>
<!DOCTYPE svg PUBLIC "-//W3C//DTD SVG 1.1//EN"
 "http://www.w3.org/Graphics/SVG/1.1/DTD/svg11.dtd">
<!-- Generated by graphviz version 2.40.1 (20161225.0304)
 -->
<!-- Title: GameStates Pages: 1 -->
<svg width="298pt" height="343pt"
 viewBox="0.00 0.00 297.50 343.00" xmlns="http://www.w3.org/2000/svg" xmlns:xlink="http://www.w3.org/1999/xlink">
<g id="graph0" class="graph" transform="scale(1 1) rotate(0) translate(4 339)">
<title>GameStates</title>
<!-- Node4 -->
<g id="node1" class="node">
<title>Node4</title>
<polygon fill="#bfbfbf" stroke="#000000" points="21.5,-.5 21.5,-68.5 177.5,-68.5 177.5,-.5 21.5,-.5"/>
<text text-anchor="middle" x="99.5" y="-56.5" font-family="Helvetica,sans-Serif" font-size="10.00" fill="#000000">GameStates</text>
<polyline fill="none" stroke="#000000" points="21.5,-49.5 177.5,-49.5 "/>
<text text-anchor="start" x="29.5" y="-37.5" font-family="Helvetica,sans-Serif" font-size="10.00" fill="#000000">+ Singleton&lt; GameStates &gt;</text>
<polyline fill="none" stroke="#000000" points="21.5,-30.5 177.5,-30.5 "/>
<text text-anchor="start" x="29.5" y="-18.5" font-family="Helvetica,sans-Serif" font-size="10.00" fill="#000000">&#45; GameStates()</text>
<text text-anchor="start" x="29.5" y="-7.5" font-family="Helvetica,sans-Serif" font-size="10.00" fill="#000000">&#45; ~GameStates()</text>
</g>
<!-- Node5 -->
<g id="node2" class="node">
<title>Node5</title>
<g id="a_node2"><a xlink:href="structGameStatesData.html" target="_top" xlink:title="{GameStatesData\n|+ drawUI\l+ rectangularRoads\l+ layerEditMode\l+ placementMode\l+ demolishMode\l|}">
<polygon fill="none" stroke="#000000" points="0,-106.5 0,-207.5 113,-207.5 113,-106.5 0,-106.5"/>
<text text-anchor="middle" x="56.5" y="-195.5" font-family="Helvetica,sans-Serif" font-size="10.00" fill="#000000">GameStatesData</text>
<polyline fill="none" stroke="#000000" points="0,-188.5 113,-188.5 "/>
<text text-anchor="start" x="8" y="-176.5" font-family="Helvetica,sans-Serif" font-size="10.00" fill="#000000">+ drawUI</text>
<text text-anchor="start" x="8" y="-165.5" font-family="Helvetica,sans-Serif" font-size="10.00" fill="#000000">+ rectangularRoads</text>
<text text-anchor="start" x="8" y="-154.5" font-family="Helvetica,sans-Serif" font-size="10.00" fill="#000000">+ layerEditMode</text>
<text text-anchor="start" x="8" y="-143.5" font-family="Helvetica,sans-Serif" font-size="10.00" fill="#000000">+ placementMode</text>
<text text-anchor="start" x="8" y="-132.5" font-family="Helvetica,sans-Serif" font-size="10.00" fill="#000000">+ demolishMode</text>
<polyline fill="none" stroke="#000000" points="0,-125.5 113,-125.5 "/>
<text text-anchor="middle" x="56.5" y="-113.5" font-family="Helvetica,sans-Serif" font-size="10.00" fill="#000000"> </text>
</a>
</g>
</g>
<!-- Node5&#45;&gt;Node4 -->
<g id="edge1" class="edge">
<title>Node5&#45;&gt;Node4</title>
<path fill="none" stroke="#191970" d="M77.6337,-96.7937C81.0461,-87.072 84.4709,-77.3153 87.564,-68.5036"/>
<polygon fill="none" stroke="#191970" points="74.2477,-95.8725 74.238,-106.4673 80.8526,-98.191 74.2477,-95.8725"/>
</g>
<!-- Node6 -->
<g id="node3" class="node">
<title>Node6</title>
<g id="a_node3"><a xlink:href="classSingleton.html" target="_top" xlink:title="{Singleton\&lt; GameStates \&gt;\n||+ instance()\l# Singleton()\l# ~Singleton()\l}">
<polygon fill="none" stroke="#000000" points="131,-117.5 131,-196.5 276,-196.5 276,-117.5 131,-117.5"/>
<text text-anchor="middle" x="203.5" y="-184.5" font-family="Helvetica,sans-Serif" font-size="10.00" fill="#000000">Singleton&lt; GameStates &gt;</text>
<polyline fill="none" stroke="#000000" points="131,-177.5 276,-177.5 "/>
<text text-anchor="middle" x="203.5" y="-165.5" font-family="Helvetica,sans-Serif" font-size="10.00" fill="#000000"> </text>
<polyline fill="none" stroke="#000000" points="131,-158.5 276,-158.5 "/>
<text text-anchor="start" x="139" y="-146.5" font-family="Helvetica,sans-Serif" font-size="10.00" fill="#000000">+ instance()</text>
<text text-anchor="start" x="139" y="-135.5" font-family="Helvetica,sans-Serif" font-size="10.00" fill="#000000"># Singleton()</text>
<text text-anchor="start" x="139" y="-124.5" font-family="Helvetica,sans-Serif" font-size="10.00" fill="#000000"># ~Singleton()</text>
</a>
</g>
</g>
<!-- Node6&#45;&gt;Node4 -->
<g id="edge2" class="edge">
<title>Node6&#45;&gt;Node4</title>
<path fill="none" stroke="#191970" d="M163.0666,-109.3741C151.5548,-95.8146 139.2464,-81.3167 128.5562,-68.7249"/>
<polygon fill="none" stroke="#191970" points="160.594,-111.8697 169.7342,-117.2278 165.9303,-107.3393 160.594,-111.8697"/>
</g>
<!-- Node7 -->
<g id="node4" class="node">
<title>Node7</title>
<g id="a_node4"><a xlink:href="classSingleton.html" target="_top" xlink:title="Abstract Singleton implementation. ">
<polygon fill="none" stroke="#000000" points="158,-255.5 158,-334.5 249,-334.5 249,-255.5 158,-255.5"/>
<text text-anchor="middle" x="203.5" y="-322.5" font-family="Helvetica,sans-Serif" font-size="10.00" fill="#000000">Singleton&lt; T &gt;</text>
<polyline fill="none" stroke="#000000" points="158,-315.5 249,-315.5 "/>
<text text-anchor="middle" x="203.5" y="-303.5" font-family="Helvetica,sans-Serif" font-size="10.00" fill="#000000"> </text>
<polyline fill="none" stroke="#000000" points="158,-296.5 249,-296.5 "/>
<text text-anchor="start" x="166" y="-284.5" font-family="Helvetica,sans-Serif" font-size="10.00" fill="#000000">+ instance()</text>
<text text-anchor="start" x="166" y="-273.5" font-family="Helvetica,sans-Serif" font-size="10.00" fill="#000000"># Singleton()</text>
<text text-anchor="start" x="166" y="-262.5" font-family="Helvetica,sans-Serif" font-size="10.00" fill="#000000"># ~Singleton()</text>
</a>
</g>
</g>
<!-- Node7&#45;&gt;Node6 -->
<g id="edge3" class="edge">
<title>Node7&#45;&gt;Node6</title>
<path fill="none" stroke="#ffa500" d="M203.5,-245.1982C203.5,-229.2016 203.5,-211.7093 203.5,-196.551"/>
<polygon fill="#ffa500" stroke="#ffa500" points="200.0001,-245.4547 203.5,-255.4547 207.0001,-245.4548 200.0001,-245.4547"/>
<text text-anchor="middle" x="246.5" y="-229" font-family="Helvetica,sans-Serif" font-size="10.00" fill="#000000"> &lt; GameStates &gt;</text>
</g>
</g>
</svg>
