<?xml version="1.0" encoding="UTF-8" standalone="no"?>
<!DOCTYPE svg PUBLIC "-//W3C//DTD SVG 1.1//EN"
 "http://www.w3.org/Graphics/SVG/1.1/DTD/svg11.dtd">
<!-- Generated by graphviz version 2.40.1 (20161225.0304)
 -->
<!-- Title: MapNode::getSprite Pages: 1 -->
<!--zoomable 78 -->
<svg id="main" version="1.1" xmlns="http://www.w3.org/2000/svg" xmlns:xlink="http://www.w3.org/1999/xlink" xml:space="preserve" onload="init(evt)">
<style type="text/css"><![CDATA[
.edge:hover path { stroke: red; }
.edge:hover polygon { stroke: red; fill: red; }
]]></style>
<script type="text/javascript"><![CDATA[
var edges = document.getElementsByTagName('g');
if (edges && edges.length) {
  for (var i=0;i<edges.length;i++) {
    if (edges[i].id.substr(0,4)=='edge') {
      edges[i].setAttribute('class','edge');
    }
  }
}
]]></script>
        <defs>
                <circle id="rim" cx="0" cy="0" r="7"/>
                <circle id="rim2" cx="0" cy="0" r="3.5"/>
                <g id="zoomPlus">
                        <use xlink:href="#rim" fill="#404040">
                                <set attributeName="fill" to="#808080" begin="zoomplus.mouseover" end="zoomplus.mouseout"/>
                        </use>
                        <path d="M-4,0h8M0,-4v8" fill="none" stroke="white" stroke-width="1.5" pointer-events="none"/>
                </g>
                <g id="zoomMin">
                        <use xlink:href="#rim" fill="#404040">
                                <set attributeName="fill" to="#808080" begin="zoomminus.mouseover" end="zoomminus.mouseout"/>
                        </use>
                        <path d="M-4,0h8" fill="none" stroke="white" stroke-width="1.5" pointer-events="none"/>
                </g>
                <g id="dirArrow">
                        <path fill="none" stroke="white" stroke-width="1.5" d="M0,-3.0v7 M-2.5,-0.5L0,-3.0L2.5,-0.5"/>
                </g>
               <g id="resetDef">
                       <use xlink:href="#rim2" fill="#404040">
                               <set attributeName="fill" to="#808080" begin="reset.mouseover" end="reset.mouseout"/>
                       </use>
               </g>
        </defs>

<script type="text/javascript">
var viewWidth = 967;
var viewHeight = 78;
var sectionId = 'dynsection-8';
</script>
<script xlink:href="svgpan.js"/>
<svg id="graph" class="graph">
<g id="viewport">
<title>MapNode::getSprite</title>
<!-- Node90 -->
<g id="node1" class="node">
<title>Node90</title>
<polygon fill="#bfbfbf" stroke="#000000" points="0,-28 0,-47 113,-47 113,-28 0,-28"/>
<text text-anchor="middle" x="56.5" y="-35" font-family="Helvetica,sans-Serif" font-size="10.00" fill="#000000">MapNode::getSprite</text>
</g>
<!-- Node91 -->
<g id="node2" class="node">
<title>Node91</title>
<g id="a_node2"><a xlink:href="classMap.html#a43b4d0ba19a16c530692e901f6f7421f" target="_top" xlink:title="Sets a node to be highlit This sets a node to be highlit, the highlighting is done during rendering...">
<polygon fill="none" stroke="#000000" points="329,-50 329,-69 440,-69 440,-50 329,-50"/>
<text text-anchor="middle" x="384.5" y="-57" font-family="Helvetica,sans-Serif" font-size="10.00" fill="#000000">Map::highlightNode</text>
</a>
</g>
</g>
<!-- Node90&#45;&gt;Node91 -->
<g id="edge1" class="edge">
<title>Node90&#45;&gt;Node91</title>
<path fill="none" stroke="#191970" d="M123.4855,-41.9929C184.0721,-46.0567 272.2376,-51.9702 328.9825,-55.7763"/>
<polygon fill="#191970" stroke="#191970" points="123.4706,-38.4842 113.2588,-41.307 123.0021,-45.4685 123.4706,-38.4842"/>
</g>
<!-- Node96 -->
<g id="node7" class="node">
<title>Node96</title>
<g id="a_node7"><a xlink:href="classMap.html#a4b2fa896a5346d86a4c5a4a84579839a" target="_top" xlink:title="Sets a node to be unhighlit This sets a node to be unhighlit, the highlighting is done during renderi...">
<polygon fill="none" stroke="#000000" points="149,-9 149,-28 274,-28 274,-9 149,-9"/>
<text text-anchor="middle" x="211.5" y="-16" font-family="Helvetica,sans-Serif" font-size="10.00" fill="#000000">Map::unHighlightNode</text>
</a>
</g>
</g>
<!-- Node90&#45;&gt;Node96 -->
<g id="edge6" class="edge">
<title>Node90&#45;&gt;Node96</title>
<path fill="none" stroke="#191970" d="M123.515,-29.2853C131.951,-28.2512 140.5559,-27.1964 148.9198,-26.1711"/>
<polygon fill="#191970" stroke="#191970" points="122.836,-25.8422 113.3361,-30.533 123.6877,-32.7902 122.836,-25.8422"/>
</g>
<!-- Node92 -->
<g id="node3" class="node">
<title>Node92</title>
<g id="a_node3"><a xlink:href="classEventManager.html#a65ec91fd5016d4f9c4167fb8babed2df" target="_top" xlink:title="EventManager::checkEvents">
<polygon fill="none" stroke="#000000" points="495,-28 495,-47 649,-47 649,-28 495,-28"/>
<text text-anchor="middle" x="572" y="-35" font-family="Helvetica,sans-Serif" font-size="10.00" fill="#000000">EventManager::checkEvents</text>
</a>
</g>
</g>
<!-- Node91&#45;&gt;Node92 -->
<g id="edge2" class="edge">
<title>Node91&#45;&gt;Node92</title>
<path fill="none" stroke="#191970" d="M450.5178,-51.7539C464.8826,-50.0684 480.2019,-48.271 494.9513,-46.5404"/>
<polygon fill="#191970" stroke="#191970" points="449.7725,-48.3173 440.2485,-52.9588 450.5883,-55.2696 449.7725,-48.3173"/>
</g>
<!-- Node93 -->
<g id="node4" class="node">
<title>Node93</title>
<g id="a_node4"><a xlink:href="classGame.html#a1c2ab25d5216b2f4b2fe41efd2c09114" target="_top" xlink:title="begins the game starts running the game ">
<polygon fill="none" stroke="#000000" points="685,-28 685,-47 753,-47 753,-28 685,-28"/>
<text text-anchor="middle" x="719" y="-35" font-family="Helvetica,sans-Serif" font-size="10.00" fill="#000000">Game::run</text>
</a>
</g>
</g>
<!-- Node92&#45;&gt;Node93 -->
<g id="edge3" class="edge">
<title>Node92&#45;&gt;Node93</title>
<path fill="none" stroke="#191970" d="M659.5248,-37.5C668.4338,-37.5 677.0572,-37.5 684.845,-37.5"/>
<polygon fill="#191970" stroke="#191970" points="659.3744,-34.0001 649.3744,-37.5 659.3743,-41.0001 659.3744,-34.0001"/>
</g>
<!-- Node94 -->
<g id="node5" class="node">
<title>Node94</title>
<g id="a_node5"><a xlink:href="main_8cxx.html#af582d708d899e67ead623eac34a22387" target="_top" xlink:title="protected_main">
<polygon fill="none" stroke="#000000" points="789,-28 789,-47 882,-47 882,-28 789,-28"/>
<text text-anchor="middle" x="835.5" y="-35" font-family="Helvetica,sans-Serif" font-size="10.00" fill="#000000">protected_main</text>
</a>
</g>
</g>
<!-- Node93&#45;&gt;Node94 -->
<g id="edge4" class="edge">
<title>Node93&#45;&gt;Node94</title>
<path fill="none" stroke="#191970" d="M763.2653,-37.5C771.5757,-37.5 780.2897,-37.5 788.6749,-37.5"/>
<polygon fill="#191970" stroke="#191970" points="763.0098,-34.0001 753.0098,-37.5 763.0098,-41.0001 763.0098,-34.0001"/>
</g>
<!-- Node95 -->
<g id="node6" class="node">
<title>Node95</title>
<g id="a_node6"><a xlink:href="main_8cxx.html#a3c04138a5bfe5d72780bb7e82a18e627" target="_top" xlink:title="main">
<polygon fill="none" stroke="#000000" points="918,-28 918,-47 959,-47 959,-28 918,-28"/>
<text text-anchor="middle" x="938.5" y="-35" font-family="Helvetica,sans-Serif" font-size="10.00" fill="#000000">main</text>
</a>
</g>
</g>
<!-- Node94&#45;&gt;Node95 -->
<g id="edge5" class="edge">
<title>Node94&#45;&gt;Node95</title>
<path fill="none" stroke="#191970" d="M892.2133,-37.5C901.4322,-37.5 910.4259,-37.5 917.9965,-37.5"/>
<polygon fill="#191970" stroke="#191970" points="892.1782,-34.0001 882.1782,-37.5 892.1781,-41.0001 892.1782,-34.0001"/>
</g>
<!-- Node97 -->
<g id="node8" class="node">
<title>Node97</title>
<g id="a_node8"><a xlink:href="classEventManager.html#a3752a20641730fdf249e6525020461e5" target="_top" xlink:title="Unhighlight Highlited Nodes. This sets a node to be unhighlited. ">
<polygon fill="none" stroke="#000000" points="310,-.5 310,-30.5 459,-30.5 459,-.5 310,-.5"/>
<text text-anchor="start" x="318" y="-18.5" font-family="Helvetica,sans-Serif" font-size="10.00" fill="#000000">EventManager::unHighlight</text>
<text text-anchor="middle" x="384.5" y="-7.5" font-family="Helvetica,sans-Serif" font-size="10.00" fill="#000000">Nodes</text>
</a>
</g>
</g>
<!-- Node96&#45;&gt;Node97 -->
<g id="edge7" class="edge">
<title>Node96&#45;&gt;Node97</title>
<path fill="none" stroke="#191970" d="M284.5451,-17.2333C292.912,-17.0882 301.4511,-16.9402 309.8389,-16.7947"/>
<polygon fill="#191970" stroke="#191970" points="284.3841,-13.7355 274.4464,-17.4084 284.5056,-20.7344 284.3841,-13.7355"/>
</g>
<!-- Node97&#45;&gt;Node92 -->
<g id="edge8" class="edge">
<title>Node97&#45;&gt;Node92</title>
<path fill="none" stroke="#191970" d="M469.1348,-25.4305C477.7005,-26.4355 486.3688,-27.4526 494.8498,-28.4477"/>
<polygon fill="#191970" stroke="#191970" points="469.4835,-21.9475 459.1437,-24.2582 468.6677,-28.8998 469.4835,-21.9475"/>
</g>
</g>
</svg>
        <g id="navigator" transform="translate(0 0)" fill="#404254">
                <rect fill="#f2f5e9" fill-opacity="0.5" stroke="#606060" stroke-width=".5" x="0" y="0" width="60" height="60"/>
                <use id="zoomplus" xlink:href="#zoomPlus" x="17" y="9" onmousedown="handleZoom(evt,'in')"/>
                <use id="zoomminus" xlink:href="#zoomMin" x="42" y="9" onmousedown="handleZoom(evt,'out')"/>
                <use id="reset" xlink:href="#resetDef" x="30" y="36" onmousedown="handleReset()"/>
                <g id="arrowUp" xlink:href="#dirArrow" transform="translate(30 24)" onmousedown="handlePan(0,-1)">
                  <use xlink:href="#rim" fill="#404040">
                        <set attributeName="fill" to="#808080" begin="arrowUp.mouseover" end="arrowUp.mouseout"/>
                  </use>
                  <path fill="none" stroke="white" stroke-width="1.5" d="M0,-3.0v7 M-2.5,-0.5L0,-3.0L2.5,-0.5"/>
                </g>
                <g id="arrowRight" xlink:href="#dirArrow" transform="rotate(90) translate(36 -43)" onmousedown="handlePan(1,0)">
                  <use xlink:href="#rim" fill="#404040">
                        <set attributeName="fill" to="#808080" begin="arrowRight.mouseover" end="arrowRight.mouseout"/>
                  </use>
                  <path fill="none" stroke="white" stroke-width="1.5" d="M0,-3.0v7 M-2.5,-0.5L0,-3.0L2.5,-0.5"/>
                </g>
                <g id="arrowDown" xlink:href="#dirArrow" transform="rotate(180) translate(-30 -48)" onmousedown="handlePan(0,1)">
                  <use xlink:href="#rim" fill="#404040">
                        <set attributeName="fill" to="#808080" begin="arrowDown.mouseover" end="arrowDown.mouseout"/>
                  </use>
                  <path fill="none" stroke="white" stroke-width="1.5" d="M0,-3.0v7 M-2.5,-0.5L0,-3.0L2.5,-0.5"/>
                </g>
                <g id="arrowLeft" xlink:href="#dirArrow" transform="rotate(270) translate(-36 17)" onmousedown="handlePan(-1,0)">
                  <use xlink:href="#rim" fill="#404040">
                        <set attributeName="fill" to="#808080" begin="arrowLeft.mouseover" end="arrowLeft.mouseout"/>
                  </use>
                  <path fill="none" stroke="white" stroke-width="1.5" d="M0,-3.0v7 M-2.5,-0.5L0,-3.0L2.5,-0.5"/>
                </g>
        </g>
        <svg viewBox="0 0 15 15" width="100%" height="30px" preserveAspectRatio="xMaxYMin meet">
         <g id="arrow_out" transform="scale(0.3 0.3)">
          <a xlink:href="classMapNode_a770be81d0b2dd7f64ca4acd8f4be60ec_icgraph_org.svg" target="_base">
           <rect id="button" ry="5" rx="5" y="6" x="6" height="38" width="38"
                fill="#f2f5e9" fill-opacity="0.5" stroke="#606060" stroke-width="1.0"/>
           <path id="arrow"
             d="M 11.500037,31.436501 C 11.940474,20.09759 22.043105,11.32322 32.158766,21.979434 L 37.068811,17.246167 C 37.068811,17.246167 37.088388,32 37.088388,32 L 22.160133,31.978069 C 22.160133,31.978069 26.997745,27.140456 26.997745,27.140456 C 18.528582,18.264221 13.291696,25.230495 11.500037,31.436501 z"
             style="fill:#404040;"/>
          </a>
         </g>
        </svg>
</svg>
