<?xml version="1.0" encoding="UTF-8" standalone="no"?>
<!DOCTYPE svg PUBLIC "-//W3C//DTD SVG 1.1//EN"
 "http://www.w3.org/Graphics/SVG/1.1/DTD/svg11.dtd">
<!-- Generated by graphviz version 2.40.1 (20161225.0304)
 -->
<!-- Title: LOG::~LOG Pages: 1 -->
<svg width="230pt" height="66pt"
 viewBox="0.00 0.00 230.00 66.00" xmlns="http://www.w3.org/2000/svg" xmlns:xlink="http://www.w3.org/1999/xlink">
<g id="graph0" class="graph" transform="scale(1 1) rotate(0) translate(4 62)">
<title>LOG::~LOG</title>
<!-- Node2 -->
<g id="node1" class="node">
<title>Node2</title>
<polygon fill="#bfbfbf" stroke="#000000" points="0,-19.5 0,-38.5 71,-38.5 71,-19.5 0,-19.5"/>
<text text-anchor="middle" x="35.5" y="-26.5" font-family="Helvetica,sans-Serif" font-size="10.00" fill="#000000">LOG::~LOG</text>
</g>
<!-- Node3 -->
<g id="node2" class="node">
<title>Node3</title>
<g id="a_node2"><a xlink:href="classLOG.html#a34dd9431a9ac7f8d0188dbee424b1c83" target="_top" xlink:title="Gets formatted TimeStamp Gets formatted TimeStamp. ">
<polygon fill="none" stroke="#000000" points="107,-38.5 107,-57.5 222,-57.5 222,-38.5 107,-38.5"/>
<text text-anchor="middle" x="164.5" y="-45.5" font-family="Helvetica,sans-Serif" font-size="10.00" fill="#000000">LOG::getTimeStamp</text>
</a>
</g>
</g>
<!-- Node2&#45;&gt;Node3 -->
<g id="edge1" class="edge">
<title>Node2&#45;&gt;Node3</title>
<path fill="none" stroke="#191970" d="M71.0913,-34.2421C79.1106,-35.4233 87.8817,-36.7151 96.7349,-38.0191"/>
<polygon fill="#191970" stroke="#191970" points="96.3265,-41.4966 106.7298,-39.4912 97.3466,-34.5713 96.3265,-41.4966"/>
</g>
<!-- Node4 -->
<g id="node3" class="node">
<title>Node4</title>
<g id="a_node3"><a xlink:href="classLOG.html#a6fc1e3db47b4b54e899cf480f8a2306f" target="_top" xlink:title="Write log message to error.log file. ">
<polygon fill="none" stroke="#000000" points="110.5,-.5 110.5,-19.5 218.5,-19.5 218.5,-.5 110.5,-.5"/>
<text text-anchor="middle" x="164.5" y="-7.5" font-family="Helvetica,sans-Serif" font-size="10.00" fill="#000000">LOG::writeErrorLog</text>
</a>
</g>
</g>
<!-- Node2&#45;&gt;Node4 -->
<g id="edge2" class="edge">
<title>Node2&#45;&gt;Node4</title>
<path fill="none" stroke="#191970" d="M71.0913,-23.7579C80.1524,-22.4233 90.1731,-20.9474 100.1879,-19.4723"/>
<polygon fill="#191970" stroke="#191970" points="100.7816,-22.9227 110.1648,-18.0029 99.7615,-15.9974 100.7816,-22.9227"/>
</g>
</g>
</svg>
