<?xml version="1.0" encoding="UTF-8" standalone="no"?>
<!DOCTYPE svg PUBLIC "-//W3C//DTD SVG 1.1//EN"
 "http://www.w3.org/Graphics/SVG/1.1/DTD/svg11.dtd">
<!-- Generated by graphviz version 2.40.1 (20161225.0304)
 -->
<!-- Title: MapNode::demolishNode Pages: 1 -->
<svg width="871pt" height="394pt"
 viewBox="0.00 0.00 871.00 393.50" xmlns="http://www.w3.org/2000/svg" xmlns:xlink="http://www.w3.org/1999/xlink">
<g id="graph0" class="graph" transform="scale(1 1) rotate(0) translate(4 389.5)">
<title>MapNode::demolishNode</title>
<!-- Node26 -->
<g id="node1" class="node">
<title>Node26</title>
<polygon fill="#bfbfbf" stroke="#000000" points="0,-203.5 0,-222.5 139,-222.5 139,-203.5 0,-203.5"/>
<text text-anchor="middle" x="69.5" y="-210.5" font-family="Helvetica,sans-Serif" font-size="10.00" fill="#000000">MapNode::demolishNode</text>
</g>
<!-- Node27 -->
<g id="node2" class="node">
<title>Node27</title>
<g id="a_node2"><a xlink:href="classMapLayers.html#a1d810628821913c499b8348107b66891" target="_top" xlink:title="Check if given Layer is being drawn. ">
<polygon fill="none" stroke="#000000" points="175,-281.5 175,-300.5 316,-300.5 316,-281.5 175,-281.5"/>
<text text-anchor="middle" x="245.5" y="-288.5" font-family="Helvetica,sans-Serif" font-size="10.00" fill="#000000">MapLayers::isLayerActive</text>
</a>
</g>
</g>
<!-- Node26&#45;&gt;Node27 -->
<g id="edge1" class="edge">
<title>Node26&#45;&gt;Node27</title>
<path fill="none" stroke="#191970" d="M91.0811,-222.5643C122.0412,-236.2853 179.2242,-261.6278 214.6446,-277.3254"/>
<polygon fill="#191970" stroke="#191970" points="213.4575,-280.6276 224.018,-281.4796 216.2937,-274.2279 213.4575,-280.6276"/>
</g>
<!-- Node34 -->
<g id="node9" class="node">
<title>Node34</title>
<g id="a_node9"><a xlink:href="classSingleton.html#af5cb1e5749949e2b68416cfb8d378044" target="_top" xlink:title="Get an instance of the singleton. ">
<polygon fill="none" stroke="#000000" points="366,-175 366,-205 500,-205 500,-175 366,-175"/>
<text text-anchor="start" x="374" y="-193" font-family="Helvetica,sans-Serif" font-size="10.00" fill="#000000">Singleton&lt; GameStates</text>
<text text-anchor="middle" x="433" y="-182" font-family="Helvetica,sans-Serif" font-size="10.00" fill="#000000"> &gt;::instance</text>
</a>
</g>
</g>
<!-- Node26&#45;&gt;Node34 -->
<g id="edge8" class="edge">
<title>Node26&#45;&gt;Node34</title>
<path fill="none" stroke="#191970" d="M139.1564,-208.5926C201.0893,-204.6739 291.5122,-198.9525 355.6671,-194.8931"/>
<polygon fill="#191970" stroke="#191970" points="355.9706,-198.381 365.7296,-194.2564 355.5285,-191.395 355.9706,-198.381"/>
</g>
<!-- Node35 -->
<g id="node10" class="node">
<title>Node35</title>
<g id="a_node10"><a xlink:href="classMapNode.html#a06be1917d4b251010ae78d8a2b7bc88a" target="_top" xlink:title="demolish specific layer of a Node. ">
<polygon fill="none" stroke="#000000" points="175.5,-221.5 175.5,-240.5 315.5,-240.5 315.5,-221.5 175.5,-221.5"/>
<text text-anchor="middle" x="245.5" y="-228.5" font-family="Helvetica,sans-Serif" font-size="10.00" fill="#000000">MapNode::demolishLayer</text>
</a>
</g>
</g>
<!-- Node26&#45;&gt;Node35 -->
<g id="edge9" class="edge">
<title>Node26&#45;&gt;Node35</title>
<path fill="none" stroke="#191970" d="M139.0599,-220.1141C147.6233,-220.9899 156.4308,-221.8906 165.1377,-222.7811"/>
<polygon fill="#191970" stroke="#191970" points="164.9879,-226.284 175.2921,-223.8196 165.7001,-219.3203 164.9879,-226.284"/>
</g>
<!-- Node37 -->
<g id="node12" class="node">
<title>Node37</title>
<g id="a_node12"><a xlink:href="classMapNode.html#aabbb10c19ddd79e9c519eb4af5e995e0" target="_top" xlink:title="MapNode::updateTexture">
<polygon fill="none" stroke="#000000" points="176.5,-131.5 176.5,-150.5 314.5,-150.5 314.5,-131.5 176.5,-131.5"/>
<text text-anchor="middle" x="245.5" y="-138.5" font-family="Helvetica,sans-Serif" font-size="10.00" fill="#000000">MapNode::updateTexture</text>
</a>
</g>
</g>
<!-- Node26&#45;&gt;Node37 -->
<g id="edge11" class="edge">
<title>Node26&#45;&gt;Node37</title>
<path fill="none" stroke="#191970" d="M92.8714,-203.439C123.641,-190.8514 177.9046,-168.6526 212.7533,-154.3964"/>
<polygon fill="#191970" stroke="#191970" points="214.1017,-157.6264 222.0319,-150.6006 211.4512,-151.1476 214.1017,-157.6264"/>
</g>
<!-- Node28 -->
<g id="node3" class="node">
<title>Node28</title>
<g id="a_node3"><a xlink:href="classMapLayers.html#ab663dfc9e4c144f904ad85543b66ac8f" target="_top" xlink:title="Toggle Drawing Layer Toggle Drawing Layer (use bitwise XOR to toggle layer) ">
<polygon fill="none" stroke="#000000" points="352,-338.5 352,-357.5 514,-357.5 514,-338.5 352,-338.5"/>
<text text-anchor="middle" x="433" y="-345.5" font-family="Helvetica,sans-Serif" font-size="10.00" fill="#000000">MapLayers::setLayerEditMode</text>
</a>
</g>
</g>
<!-- Node27&#45;&gt;Node28 -->
<g id="edge2" class="edge">
<title>Node27&#45;&gt;Node28</title>
<path fill="none" stroke="#191970" d="M269.7773,-300.5429C291.1986,-308.7506 323.3773,-320.5656 352,-329 360.456,-331.4918 369.4838,-333.8753 378.3303,-336.0607"/>
<polygon fill="#191970" stroke="#191970" points="377.6593,-339.4991 388.2009,-338.4389 379.299,-332.6938 377.6593,-339.4991"/>
</g>
<!-- Node32 -->
<g id="node7" class="node">
<title>Node32</title>
<g id="a_node7"><a xlink:href="classMapLayers.html#a53d7fcd90e70eaf36239d7a75c0c5dda" target="_top" xlink:title="MapLayers::MapLayers">
<polygon fill="none" stroke="#000000" points="369,-300.5 369,-319.5 497,-319.5 497,-300.5 369,-300.5"/>
<text text-anchor="middle" x="433" y="-307.5" font-family="Helvetica,sans-Serif" font-size="10.00" fill="#000000">MapLayers::MapLayers</text>
</a>
</g>
</g>
<!-- Node27&#45;&gt;Node32 -->
<g id="edge6" class="edge">
<title>Node27&#45;&gt;Node32</title>
<path fill="none" stroke="#191970" d="M316.1185,-298.156C330.0688,-299.5696 344.7479,-301.0571 358.8122,-302.4823"/>
<polygon fill="#191970" stroke="#191970" points="358.6235,-305.981 368.9254,-303.5071 359.3292,-299.0167 358.6235,-305.981"/>
</g>
<!-- Node33 -->
<g id="node8" class="node">
<title>Node33</title>
<g id="a_node8"><a xlink:href="classMapLayers.html#aa7fa21110e27ec69f131692b0a510d66" target="_top" xlink:title="MapLayers::~MapLayers">
<polygon fill="none" stroke="#000000" points="365,-262.5 365,-281.5 501,-281.5 501,-262.5 365,-262.5"/>
<text text-anchor="middle" x="433" y="-269.5" font-family="Helvetica,sans-Serif" font-size="10.00" fill="#000000">MapLayers::~MapLayers</text>
</a>
</g>
</g>
<!-- Node27&#45;&gt;Node33 -->
<g id="edge7" class="edge">
<title>Node27&#45;&gt;Node33</title>
<path fill="none" stroke="#191970" d="M316.1185,-283.844C328.733,-282.5657 341.9435,-281.2271 354.7565,-279.9287"/>
<polygon fill="#191970" stroke="#191970" points="355.3319,-283.3884 364.9281,-278.898 354.6261,-276.424 355.3319,-283.3884"/>
</g>
<!-- Node29 -->
<g id="node4" class="node">
<title>Node29</title>
<g id="a_node4"><a xlink:href="classMapLayers.html#a0a64d01a42e8864b78e1bc54007cb7d9" target="_top" xlink:title="Toggle Drawing Layer Toggle Drawing Layer (use bitwise XOR to toggle layer) ">
<polygon fill="none" stroke="#000000" points="550,-355 550,-385 690,-385 690,-355 550,-355"/>
<text text-anchor="start" x="558" y="-373" font-family="Helvetica,sans-Serif" font-size="10.00" fill="#000000">MapLayers::deactivateAll</text>
<text text-anchor="middle" x="620" y="-362" font-family="Helvetica,sans-Serif" font-size="10.00" fill="#000000">Layers</text>
</a>
</g>
</g>
<!-- Node28&#45;&gt;Node29 -->
<g id="edge3" class="edge">
<title>Node28&#45;&gt;Node29</title>
<path fill="none" stroke="#191970" d="M513.9333,-357.5216C522.5179,-358.5315 531.2464,-359.5584 539.8223,-360.5673"/>
<polygon fill="#191970" stroke="#191970" points="539.4613,-364.0489 549.8018,-361.7414 540.2792,-357.0969 539.4613,-364.0489"/>
</g>
<!-- Node31 -->
<g id="node6" class="node">
<title>Node31</title>
<g id="a_node6"><a xlink:href="classMapLayers.html#a54ce1eeef2a8998a728ac7074efe8787" target="_top" xlink:title="Enable Drawing Layer Enable Drawing Layer (use bitwise OR to add layer) ">
<polygon fill="none" stroke="#000000" points="552.5,-316.5 552.5,-335.5 687.5,-335.5 687.5,-316.5 552.5,-316.5"/>
<text text-anchor="middle" x="620" y="-323.5" font-family="Helvetica,sans-Serif" font-size="10.00" fill="#000000">MapLayers::enableLayer</text>
</a>
</g>
</g>
<!-- Node28&#45;&gt;Node31 -->
<g id="edge5" class="edge">
<title>Node28&#45;&gt;Node31</title>
<path fill="none" stroke="#191970" d="M513.9333,-338.4784C523.3569,-337.3698 532.954,-336.2407 542.3322,-335.1374"/>
<polygon fill="#191970" stroke="#191970" points="542.8815,-338.597 552.404,-333.9525 542.0636,-331.6449 542.8815,-338.597"/>
</g>
<!-- Node30 -->
<g id="node5" class="node">
<title>Node30</title>
<g id="a_node5"><a xlink:href="classMapLayers.html#a3b1b1f10dd431fa83e098a20e4c836b9" target="_top" xlink:title="Disable Drawing Layer Disable Drawing Layer ( Turned off by using bitwise AND with inversed pattern) ...">
<polygon fill="none" stroke="#000000" points="726,-360.5 726,-379.5 863,-379.5 863,-360.5 726,-360.5"/>
<text text-anchor="middle" x="794.5" y="-367.5" font-family="Helvetica,sans-Serif" font-size="10.00" fill="#000000">MapLayers::disableLayer</text>
</a>
</g>
</g>
<!-- Node29&#45;&gt;Node30 -->
<g id="edge4" class="edge">
<title>Node29&#45;&gt;Node30</title>
<path fill="none" stroke="#191970" d="M690.2215,-370C698.5704,-370 707.1356,-370 715.5953,-370"/>
<polygon fill="#191970" stroke="#191970" points="715.8402,-373.5001 725.8402,-370 715.8402,-366.5001 715.8402,-373.5001"/>
</g>
<!-- Node36 -->
<g id="node11" class="node">
<title>Node36</title>
<g id="a_node11"><a xlink:href="classMapNode.html#a67296a58e167356efbabeaac3226b5d3" target="_top" xlink:title="get iso coordinates of this node gets the iso coordinates of this node ">
<polygon fill="none" stroke="#000000" points="361.5,-224.5 361.5,-243.5 504.5,-243.5 504.5,-224.5 361.5,-224.5"/>
<text text-anchor="middle" x="433" y="-231.5" font-family="Helvetica,sans-Serif" font-size="10.00" fill="#000000">MapNode::getCoordinates</text>
</a>
</g>
</g>
<!-- Node35&#45;&gt;Node36 -->
<g id="edge10" class="edge">
<title>Node35&#45;&gt;Node36</title>
<path fill="none" stroke="#191970" d="M315.5847,-232.1214C327.1696,-232.3067 339.2704,-232.5003 351.1144,-232.6898"/>
<polygon fill="#191970" stroke="#191970" points="351.3825,-236.1945 361.4372,-232.855 351.4945,-229.1954 351.3825,-236.1945"/>
</g>
<!-- Node37&#45;&gt;Node34 -->
<g id="edge12" class="edge">
<title>Node37&#45;&gt;Node34</title>
<path fill="none" stroke="#191970" d="M306.3759,-150.5421C332.503,-156.7364 362.5305,-164.7357 386.7856,-172.0121"/>
<polygon fill="#191970" stroke="#191970" points="385.8705,-175.3922 396.457,-174.9719 387.919,-168.6986 385.8705,-175.3922"/>
</g>
<!-- Node37&#45;&gt;Node34 -->
<g id="edge18" class="edge">
<title>Node37&#45;&gt;Node34</title>
<path fill="none" stroke="#191970" d="M265.5658,-150.6142C287.1409,-158.1519 322.7812,-168.2282 355.6466,-176.4424"/>
<polygon fill="#191970" stroke="#191970" points="355.1918,-179.9348 365.7386,-178.9269 356.8652,-173.1378 355.1918,-179.9348"/>
</g>
<!-- Node38 -->
<g id="node13" class="node">
<title>Node38</title>
<g id="a_node13"><a xlink:href="classTileManager.html#a519b2d5c91877025a2faa0dff3ba099c" target="_top" xlink:title="TileManager::calculateSlope\lOrientation">
<polygon fill="none" stroke="#000000" points="356,-126 356,-156 510,-156 510,-126 356,-126"/>
<text text-anchor="start" x="364" y="-144" font-family="Helvetica,sans-Serif" font-size="10.00" fill="#000000">TileManager::calculateSlope</text>
<text text-anchor="middle" x="433" y="-133" font-family="Helvetica,sans-Serif" font-size="10.00" fill="#000000">Orientation</text>
</a>
</g>
</g>
<!-- Node37&#45;&gt;Node38 -->
<g id="edge13" class="edge">
<title>Node37&#45;&gt;Node38</title>
<path fill="none" stroke="#191970" d="M314.5193,-141C324.727,-141 335.356,-141 345.8733,-141"/>
<polygon fill="#191970" stroke="#191970" points="345.9053,-144.5001 355.9053,-141 345.9053,-137.5001 345.9053,-144.5001"/>
</g>
<!-- Node39 -->
<g id="node14" class="node">
<title>Node39</title>
<g id="a_node14"><a xlink:href="classTileManager.html#a05d41a7f0858cff242f027a08e06ea43" target="_top" xlink:title="TileManager::calculateTile\lOrientation">
<polygon fill="none" stroke="#000000" points="360.5,-77 360.5,-107 505.5,-107 505.5,-77 360.5,-77"/>
<text text-anchor="start" x="368.5" y="-95" font-family="Helvetica,sans-Serif" font-size="10.00" fill="#000000">TileManager::calculateTile</text>
<text text-anchor="middle" x="433" y="-84" font-family="Helvetica,sans-Serif" font-size="10.00" fill="#000000">Orientation</text>
</a>
</g>
</g>
<!-- Node37&#45;&gt;Node39 -->
<g id="edge14" class="edge">
<title>Node37&#45;&gt;Node39</title>
<path fill="none" stroke="#191970" d="M282.097,-131.436C305.8351,-125.2324 337.4787,-116.9629 365.6568,-109.599"/>
<polygon fill="#191970" stroke="#191970" points="366.6705,-112.9517 375.4606,-107.037 364.9005,-106.1792 366.6705,-112.9517"/>
</g>
<!-- Node40 -->
<g id="node15" class="node">
<title>Node40</title>
<g id="a_node15"><a xlink:href="classMapNode.html#afb1cbc0f9e987b7befced46220dd9277" target="_top" xlink:title="check if specific layer can be autotiled. ">
<polygon fill="none" stroke="#000000" points="361,-38.5 361,-57.5 505,-57.5 505,-38.5 361,-38.5"/>
<text text-anchor="middle" x="433" y="-45.5" font-family="Helvetica,sans-Serif" font-size="10.00" fill="#000000">MapNode::isLayerAutoTile</text>
</a>
</g>
</g>
<!-- Node37&#45;&gt;Node40 -->
<g id="edge15" class="edge">
<title>Node37&#45;&gt;Node40</title>
<path fill="none" stroke="#191970" d="M256.4523,-131.2474C274.8571,-115.378 313.7421,-84.0311 352,-67 357.6288,-64.4942 363.6307,-62.296 369.7251,-60.3724"/>
<polygon fill="#191970" stroke="#191970" points="370.7165,-63.7292 379.3377,-57.5709 368.7578,-57.0087 370.7165,-63.7292"/>
</g>
<!-- Node42 -->
<g id="node17" class="node">
<title>Node42</title>
<g id="a_node17"><a xlink:href="classMapNode.html#ab34930f43b60310cd475f514e969a401" target="_top" xlink:title="get TileID of specific layer inside NodeData. ">
<polygon fill="none" stroke="#000000" points="376.5,-.5 376.5,-19.5 489.5,-19.5 489.5,-.5 376.5,-.5"/>
<text text-anchor="middle" x="433" y="-7.5" font-family="Helvetica,sans-Serif" font-size="10.00" fill="#000000">MapNode::getTileID</text>
</a>
</g>
</g>
<!-- Node37&#45;&gt;Node42 -->
<g id="edge17" class="edge">
<title>Node37&#45;&gt;Node42</title>
<path fill="none" stroke="#191970" d="M251.6559,-131.4262C266.2407,-109.5691 305.2096,-55.8204 352,-29 356.6993,-26.3063 361.7599,-23.9941 366.9752,-22.0095"/>
<polygon fill="#191970" stroke="#191970" points="368.1421,-25.3095 376.485,-18.7791 365.8906,-18.6815 368.1421,-25.3095"/>
</g>
<!-- Node41 -->
<g id="node16" class="node">
<title>Node41</title>
<g id="a_node16"><a xlink:href="classMapNode.html#a64cb9a4523c9e78f256fde42f1dee43d" target="_top" xlink:title="check if specific Tile Data is autotile category. ">
<polygon fill="none" stroke="#000000" points="550,-38.5 550,-57.5 690,-57.5 690,-38.5 550,-38.5"/>
<text text-anchor="middle" x="620" y="-45.5" font-family="Helvetica,sans-Serif" font-size="10.00" fill="#000000">MapNode::isDataAutoTile</text>
</a>
</g>
</g>
<!-- Node40&#45;&gt;Node41 -->
<g id="edge16" class="edge">
<title>Node40&#45;&gt;Node41</title>
<path fill="none" stroke="#191970" d="M505.0316,-48C516.4112,-48 528.2392,-48 539.791,-48"/>
<polygon fill="#191970" stroke="#191970" points="539.8533,-51.5001 549.8532,-48 539.8532,-44.5001 539.8533,-51.5001"/>
</g>
</g>
</svg>
