<?xml version="1.0" encoding="UTF-8" standalone="no"?>
<!DOCTYPE svg PUBLIC "-//W3C//DTD SVG 1.1//EN"
 "http://www.w3.org/Graphics/SVG/1.1/DTD/svg11.dtd">
<!-- Generated by graphviz version 2.40.1 (20161225.0304)
 -->
<!-- Title: MapNode::isDataAutoTile Pages: 1 -->
<svg width="1048pt" height="160pt"
 viewBox="0.00 0.00 1048.00 160.03" xmlns="http://www.w3.org/2000/svg" xmlns:xlink="http://www.w3.org/1999/xlink">
<g id="graph0" class="graph" transform="scale(1 1) rotate(0) translate(4 156.0348)">
<title>MapNode::isDataAutoTile</title>
<!-- Node149 -->
<g id="node1" class="node">
<title>Node149</title>
<polygon fill="#bfbfbf" stroke="#000000" points="0,-43.5 0,-62.5 140,-62.5 140,-43.5 0,-43.5"/>
<text text-anchor="middle" x="70" y="-50.5" font-family="Helvetica,sans-Serif" font-size="10.00" fill="#000000">MapNode::isDataAutoTile</text>
</g>
<!-- Node150 -->
<g id="node2" class="node">
<title>Node150</title>
<g id="a_node2"><a xlink:href="classMapNode.html#afb1cbc0f9e987b7befced46220dd9277" target="_top" xlink:title="check if specific layer can be autotiled. ">
<polygon fill="none" stroke="#000000" points="176,-71.5 176,-90.5 320,-90.5 320,-71.5 176,-71.5"/>
<text text-anchor="middle" x="248" y="-78.5" font-family="Helvetica,sans-Serif" font-size="10.00" fill="#000000">MapNode::isLayerAutoTile</text>
</a>
</g>
</g>
<!-- Node149&#45;&gt;Node150 -->
<g id="edge1" class="edge">
<title>Node149&#45;&gt;Node150</title>
<path fill="none" stroke="#191970" d="M140.7925,-64.1359C156.2593,-66.5689 172.4926,-69.1224 187.5142,-71.4854"/>
<polygon fill="#191970" stroke="#191970" points="141.1821,-60.6542 130.7597,-62.5577 140.0943,-67.5692 141.1821,-60.6542"/>
</g>
<!-- Node156 -->
<g id="node8" class="node">
<title>Node156</title>
<g id="a_node8"><a xlink:href="classMap.html#a404c38b33d61f8c63ce2c2efb864d6dd" target="_top" xlink:title="Set the Tile ID Of Node object Also invokes all necessary texture updates (auto&#45;tiling, slopes, ...) ">
<polygon fill="none" stroke="#000000" points="186.5,-24.5 186.5,-43.5 309.5,-43.5 309.5,-24.5 186.5,-24.5"/>
<text text-anchor="middle" x="248" y="-31.5" font-family="Helvetica,sans-Serif" font-size="10.00" fill="#000000">Map::setTileIDOfNode</text>
</a>
</g>
</g>
<!-- Node149&#45;&gt;Node156 -->
<g id="edge8" class="edge">
<title>Node149&#45;&gt;Node156</title>
<path fill="none" stroke="#191970" d="M150.2102,-44.4382C162.3378,-43.1437 174.6852,-41.8257 186.3398,-40.5817"/>
<polygon fill="#191970" stroke="#191970" points="149.6668,-40.9763 140.0948,-45.518 150.4098,-47.9367 149.6668,-40.9763"/>
</g>
<!-- Node151 -->
<g id="node3" class="node">
<title>Node151</title>
<g id="a_node3"><a xlink:href="classMapNode.html#aabbb10c19ddd79e9c519eb4af5e995e0" target="_top" xlink:title="MapNode::updateTexture">
<polygon fill="none" stroke="#000000" points="356,-76.5 356,-95.5 494,-95.5 494,-76.5 356,-76.5"/>
<text text-anchor="middle" x="425" y="-83.5" font-family="Helvetica,sans-Serif" font-size="10.00" fill="#000000">MapNode::updateTexture</text>
</a>
</g>
</g>
<!-- Node150&#45;&gt;Node151 -->
<g id="edge2" class="edge">
<title>Node150&#45;&gt;Node151</title>
<path fill="none" stroke="#191970" d="M330.5224,-83.3311C338.9926,-83.5704 347.5362,-83.8118 355.8409,-84.0464"/>
<polygon fill="#191970" stroke="#191970" points="330.3428,-79.8248 320.248,-83.0409 330.1451,-86.822 330.3428,-79.8248"/>
</g>
<!-- Node152 -->
<g id="node4" class="node">
<title>Node152</title>
<g id="a_node4"><a xlink:href="classMapNode.html#ae515fc96b543bf97237bfb1ca53fe571" target="_top" xlink:title="MapNode::MapNode">
<polygon fill="none" stroke="#000000" points="720,-114.5 720,-133.5 834,-133.5 834,-114.5 720,-114.5"/>
<text text-anchor="middle" x="777" y="-121.5" font-family="Helvetica,sans-Serif" font-size="10.00" fill="#000000">MapNode::MapNode</text>
</a>
</g>
</g>
<!-- Node151&#45;&gt;Node152 -->
<g id="edge3" class="edge">
<title>Node151&#45;&gt;Node152</title>
<path fill="none" stroke="#191970" d="M445.8813,-101.4386C466.1795,-115.4133 498.4776,-134.9956 530,-143 603.9921,-161.7886 694.1225,-145.3885 742.4405,-133.564"/>
<polygon fill="#191970" stroke="#191970" points="447.8867,-98.5701 437.6998,-95.6586 443.8477,-104.2873 447.8867,-98.5701"/>
</g>
<!-- Node153 -->
<g id="node5" class="node">
<title>Node153</title>
<g id="a_node5"><a xlink:href="classMapNode.html#a92b521fa20e0a75d81523a52ba1d8250" target="_top" xlink:title="MapNode::setBitmask">
<polygon fill="none" stroke="#000000" points="545,-114.5 545,-133.5 669,-133.5 669,-114.5 545,-114.5"/>
<text text-anchor="middle" x="607" y="-121.5" font-family="Helvetica,sans-Serif" font-size="10.00" fill="#000000">MapNode::setBitmask</text>
</a>
</g>
</g>
<!-- Node151&#45;&gt;Node153 -->
<g id="edge4" class="edge">
<title>Node151&#45;&gt;Node153</title>
<path fill="none" stroke="#191970" d="M480.9458,-97.681C506.7558,-103.0699 537.0069,-109.3861 561.404,-114.4799"/>
<polygon fill="#191970" stroke="#191970" points="481.4306,-94.2068 470.9263,-95.589 479.9998,-101.059 481.4306,-94.2068"/>
</g>
<!-- Node154 -->
<g id="node6" class="node">
<title>Node154</title>
<g id="a_node6"><a xlink:href="classMapNode.html#a26e55c94192a56990f8a59e7af139a73" target="_top" xlink:title="MapNode::setTileID">
<polygon fill="none" stroke="#000000" points="551,-76.5 551,-95.5 663,-95.5 663,-76.5 551,-76.5"/>
<text text-anchor="middle" x="607" y="-83.5" font-family="Helvetica,sans-Serif" font-size="10.00" fill="#000000">MapNode::setTileID</text>
</a>
</g>
</g>
<!-- Node151&#45;&gt;Node154 -->
<g id="edge5" class="edge">
<title>Node151&#45;&gt;Node154</title>
<path fill="none" stroke="#191970" d="M504.3113,-86C520.0365,-86 536.2353,-86 550.987,-86"/>
<polygon fill="#191970" stroke="#191970" points="504.0659,-82.5001 494.0659,-86 504.0659,-89.5001 504.0659,-82.5001"/>
</g>
<!-- Node155 -->
<g id="node7" class="node">
<title>Node155</title>
<g id="a_node7"><a xlink:href="classMapNode.html#a002b868485074599fbf087fc4c96b2c9" target="_top" xlink:title="Demolish a node Removes all tiles on a node. This effects all layers where something to demolish is p...">
<polygon fill="none" stroke="#000000" points="537.5,-38.5 537.5,-57.5 676.5,-57.5 676.5,-38.5 537.5,-38.5"/>
<text text-anchor="middle" x="607" y="-45.5" font-family="Helvetica,sans-Serif" font-size="10.00" fill="#000000">MapNode::demolishNode</text>
</a>
</g>
</g>
<!-- Node151&#45;&gt;Node155 -->
<g id="edge7" class="edge">
<title>Node151&#45;&gt;Node155</title>
<path fill="none" stroke="#191970" d="M480.9458,-74.319C506.7558,-68.9301 537.0069,-62.6139 561.404,-57.5201"/>
<polygon fill="#191970" stroke="#191970" points="479.9998,-70.941 470.9263,-76.411 481.4306,-77.7932 479.9998,-70.941"/>
</g>
<!-- Node154&#45;&gt;Node152 -->
<g id="edge6" class="edge">
<title>Node154&#45;&gt;Node152</title>
<path fill="none" stroke="#191970" d="M659.8981,-97.8243C683.865,-103.1816 711.8235,-109.4311 734.4103,-114.4799"/>
<polygon fill="#191970" stroke="#191970" points="660.4209,-94.3548 649.8982,-95.589 658.8938,-101.1862 660.4209,-94.3548"/>
</g>
<!-- Node157 -->
<g id="node9" class="node">
<title>Node157</title>
<g id="a_node9"><a xlink:href="classEngine.html#a7a1521fd7fc731f961ebaf3f723127d9" target="_top" xlink:title="Engine::setTileIDOfNode">
<polygon fill="none" stroke="#000000" points="357,-5.5 357,-24.5 493,-24.5 493,-5.5 357,-5.5"/>
<text text-anchor="middle" x="425" y="-12.5" font-family="Helvetica,sans-Serif" font-size="10.00" fill="#000000">Engine::setTileIDOfNode</text>
</a>
</g>
</g>
<!-- Node156&#45;&gt;Node157 -->
<g id="edge9" class="edge">
<title>Node156&#45;&gt;Node157</title>
<path fill="none" stroke="#191970" d="M319.9937,-26.2719C332.1485,-24.9671 344.734,-23.6161 356.7887,-22.3221"/>
<polygon fill="#191970" stroke="#191970" points="319.4753,-22.8073 309.906,-27.3547 320.2225,-29.7673 319.4753,-22.8073"/>
</g>
<!-- Node158 -->
<g id="node10" class="node">
<title>Node158</title>
<g id="a_node10"><a xlink:href="classEventManager.html#a65ec91fd5016d4f9c4167fb8babed2df" target="_top" xlink:title="EventManager::checkEvents">
<polygon fill="none" stroke="#000000" points="530,-.5 530,-19.5 684,-19.5 684,-.5 530,-.5"/>
<text text-anchor="middle" x="607" y="-7.5" font-family="Helvetica,sans-Serif" font-size="10.00" fill="#000000">EventManager::checkEvents</text>
</a>
</g>
</g>
<!-- Node157&#45;&gt;Node158 -->
<g id="edge10" class="edge">
<title>Node157&#45;&gt;Node158</title>
<path fill="none" stroke="#191970" d="M503.2818,-12.8494C512.0966,-12.6072 521.0739,-12.3606 529.8738,-12.1189"/>
<polygon fill="#191970" stroke="#191970" points="502.929,-9.3577 493.0289,-13.1311 503.1213,-16.355 502.929,-9.3577"/>
</g>
<!-- Node159 -->
<g id="node11" class="node">
<title>Node159</title>
<g id="a_node11"><a xlink:href="classGame.html#a1c2ab25d5216b2f4b2fe41efd2c09114" target="_top" xlink:title="begins the game starts running the game ">
<polygon fill="none" stroke="#000000" points="743,-.5 743,-19.5 811,-19.5 811,-.5 743,-.5"/>
<text text-anchor="middle" x="777" y="-7.5" font-family="Helvetica,sans-Serif" font-size="10.00" fill="#000000">Game::run</text>
</a>
</g>
</g>
<!-- Node158&#45;&gt;Node159 -->
<g id="edge11" class="edge">
<title>Node158&#45;&gt;Node159</title>
<path fill="none" stroke="#191970" d="M694.1887,-10C711.4356,-10 728.5622,-10 742.7258,-10"/>
<polygon fill="#191970" stroke="#191970" points="694.0417,-6.5001 684.0416,-10 694.0416,-13.5001 694.0417,-6.5001"/>
</g>
<!-- Node160 -->
<g id="node12" class="node">
<title>Node160</title>
<g id="a_node12"><a xlink:href="main_8cxx.html#af582d708d899e67ead623eac34a22387" target="_top" xlink:title="protected_main">
<polygon fill="none" stroke="#000000" points="870,-.5 870,-19.5 963,-19.5 963,-.5 870,-.5"/>
<text text-anchor="middle" x="916.5" y="-7.5" font-family="Helvetica,sans-Serif" font-size="10.00" fill="#000000">protected_main</text>
</a>
</g>
</g>
<!-- Node159&#45;&gt;Node160 -->
<g id="edge12" class="edge">
<title>Node159&#45;&gt;Node160</title>
<path fill="none" stroke="#191970" d="M821.4568,-10C836.885,-10 854.223,-10 869.825,-10"/>
<polygon fill="#191970" stroke="#191970" points="821.1256,-6.5001 811.1255,-10 821.1255,-13.5001 821.1256,-6.5001"/>
</g>
<!-- Node161 -->
<g id="node13" class="node">
<title>Node161</title>
<g id="a_node13"><a xlink:href="main_8cxx.html#a3c04138a5bfe5d72780bb7e82a18e627" target="_top" xlink:title="main">
<polygon fill="none" stroke="#000000" points="999,-.5 999,-19.5 1040,-19.5 1040,-.5 999,-.5"/>
<text text-anchor="middle" x="1019.5" y="-7.5" font-family="Helvetica,sans-Serif" font-size="10.00" fill="#000000">main</text>
</a>
</g>
</g>
<!-- Node160&#45;&gt;Node161 -->
<g id="edge13" class="edge">
<title>Node160&#45;&gt;Node161</title>
<path fill="none" stroke="#191970" d="M973.2133,-10C982.4322,-10 991.4259,-10 998.9965,-10"/>
<polygon fill="#191970" stroke="#191970" points="973.1782,-6.5001 963.1782,-10 973.1781,-13.5001 973.1782,-6.5001"/>
</g>
</g>
</svg>
