<?xml version="1.0" encoding="UTF-8" standalone="no"?>
<!DOCTYPE svg PUBLIC "-//W3C//DTD SVG 1.1//EN"
 "http://www.w3.org/Graphics/SVG/1.1/DTD/svg11.dtd">
<!-- Generated by graphviz version 2.40.1 (20161225.0304)
 -->
<!-- Title: TextField::addText Pages: 1 -->
<svg width="703pt" height="110pt"
 viewBox="0.00 0.00 703.00 109.50" xmlns="http://www.w3.org/2000/svg" xmlns:xlink="http://www.w3.org/1999/xlink">
<g id="graph0" class="graph" transform="scale(1 1) rotate(0) translate(4 105.5)">
<title>TextField::addText</title>
<!-- Node6 -->
<g id="node1" class="node">
<title>Node6</title>
<polygon fill="#bfbfbf" stroke="#000000" points="0,-38.5 0,-57.5 104,-57.5 104,-38.5 0,-38.5"/>
<text text-anchor="middle" x="52" y="-45.5" font-family="Helvetica,sans-Serif" font-size="10.00" fill="#000000">TextField::addText</text>
</g>
<!-- Node7 -->
<g id="node2" class="node">
<title>Node7</title>
<g id="a_node2"><a xlink:href="classText.html#a14b9f0937696af5fd95317eb8313bf92" target="_top" xlink:title="sets the text for this text widget. ">
<polygon fill="none" stroke="#000000" points="181.5,-76.5 181.5,-95.5 259.5,-95.5 259.5,-76.5 181.5,-76.5"/>
<text text-anchor="middle" x="220.5" y="-83.5" font-family="Helvetica,sans-Serif" font-size="10.00" fill="#000000">Text::setText</text>
</a>
</g>
</g>
<!-- Node6&#45;&gt;Node7 -->
<g id="edge1" class="edge">
<title>Node6&#45;&gt;Node7</title>
<path fill="none" stroke="#191970" d="M94.5197,-57.589C117.9981,-62.8838 147.2611,-69.4832 171.6728,-74.9885"/>
<polygon fill="#191970" stroke="#191970" points="170.9339,-78.4097 181.459,-77.1955 172.4739,-71.5812 170.9339,-78.4097"/>
</g>
<!-- Node11 -->
<g id="node6" class="node">
<title>Node11</title>
<g id="a_node6"><a xlink:href="classUIElement.html#ad1c0d7431b71bdd9a3704a6d5c8a4643" target="_top" xlink:title="Get the position and the size of this ui element Gets the position and the size of this ui element...">
<polygon fill="none" stroke="#000000" points="140,-38.5 140,-57.5 301,-57.5 301,-38.5 140,-38.5"/>
<text text-anchor="middle" x="220.5" y="-45.5" font-family="Helvetica,sans-Serif" font-size="10.00" fill="#000000">UIElement::getUiElementRect</text>
</a>
</g>
</g>
<!-- Node6&#45;&gt;Node11 -->
<g id="edge6" class="edge">
<title>Node6&#45;&gt;Node11</title>
<path fill="none" stroke="#191970" d="M104.3908,-48C112.515,-48 121.1027,-48 129.7824,-48"/>
<polygon fill="#191970" stroke="#191970" points="129.9918,-51.5001 139.9918,-48 129.9918,-44.5001 129.9918,-51.5001"/>
</g>
<!-- Node14 -->
<g id="node9" class="node">
<title>Node14</title>
<g id="a_node9"><a xlink:href="classUIElement.html#a4c86f107c0e436dbeea3a899fc42fa48" target="_top" xlink:title="Sets the x,y position of this ui element Sets the x,y position of the ui element. ...">
<polygon fill="none" stroke="#000000" points="156.5,-.5 156.5,-19.5 284.5,-19.5 284.5,-.5 156.5,-.5"/>
<text text-anchor="middle" x="220.5" y="-7.5" font-family="Helvetica,sans-Serif" font-size="10.00" fill="#000000">UIElement::setPosition</text>
</a>
</g>
</g>
<!-- Node6&#45;&gt;Node14 -->
<g id="edge9" class="edge">
<title>Node6&#45;&gt;Node14</title>
<path fill="none" stroke="#191970" d="M94.5197,-38.411C116.9554,-33.3513 144.6732,-27.1004 168.3925,-21.7512"/>
<polygon fill="#191970" stroke="#191970" points="169.3011,-25.1343 178.2861,-19.5201 167.7611,-18.3058 169.3011,-25.1343"/>
</g>
<!-- Node8 -->
<g id="node3" class="node">
<title>Node8</title>
<g id="a_node3"><a xlink:href="classText.html#a3bf5a064fd37d06b8d3dc5a700556897" target="_top" xlink:title="Draws a text string to the screen Draws a text string to the screen. This could either be a standalon...">
<polygon fill="none" stroke="#000000" points="376.5,-76.5 376.5,-95.5 506.5,-95.5 506.5,-76.5 376.5,-76.5"/>
<text text-anchor="middle" x="441.5" y="-83.5" font-family="Helvetica,sans-Serif" font-size="10.00" fill="#000000">Text::createTextTexture</text>
</a>
</g>
</g>
<!-- Node7&#45;&gt;Node8 -->
<g id="edge2" class="edge">
<title>Node7&#45;&gt;Node8</title>
<path fill="none" stroke="#191970" d="M259.5016,-86C288.9379,-86 330.2371,-86 366.0547,-86"/>
<polygon fill="#191970" stroke="#191970" points="366.4847,-89.5001 376.4847,-86 366.4846,-82.5001 366.4847,-89.5001"/>
</g>
<!-- Node9 -->
<g id="node4" class="node">
<title>Node9</title>
<g id="a_node4"><a xlink:href="classSingleton.html#af5cb1e5749949e2b68416cfb8d378044" target="_top" xlink:title="Get an instance of the singleton. ">
<polygon fill="none" stroke="#000000" points="582,-71 582,-101 695,-101 695,-71 582,-71"/>
<text text-anchor="start" x="590" y="-89" font-family="Helvetica,sans-Serif" font-size="10.00" fill="#000000">Singleton&lt; Settings</text>
<text text-anchor="middle" x="638.5" y="-78" font-family="Helvetica,sans-Serif" font-size="10.00" fill="#000000"> &gt;::instance</text>
</a>
</g>
</g>
<!-- Node8&#45;&gt;Node9 -->
<g id="edge3" class="edge">
<title>Node8&#45;&gt;Node9</title>
<path fill="none" stroke="#191970" d="M506.5511,-79.6085C527.4511,-79.1437 550.631,-79.1309 571.6573,-79.5699"/>
<polygon fill="#191970" stroke="#191970" points="571.7029,-83.072 581.7868,-79.8217 571.8769,-76.0742 571.7029,-83.072"/>
</g>
<!-- Node8&#45;&gt;Node9 -->
<g id="edge5" class="edge">
<title>Node8&#45;&gt;Node9</title>
<path fill="none" stroke="#191970" d="M506.5511,-92.3915C527.4511,-92.8563 550.631,-92.8691 571.6573,-92.4301"/>
<polygon fill="#191970" stroke="#191970" points="571.8769,-95.9258 581.7868,-92.1783 571.7029,-88.928 571.8769,-95.9258"/>
</g>
<!-- Node10 -->
<g id="node5" class="node">
<title>Node10</title>
<g id="a_node5"><a xlink:href="structStrongType.html#acc66e6d6b9c95193a97a839560499933" target="_top" xlink:title="StrongType::get">
<polygon fill="none" stroke="#000000" points="592.5,-32.5 592.5,-51.5 684.5,-51.5 684.5,-32.5 592.5,-32.5"/>
<text text-anchor="middle" x="638.5" y="-39.5" font-family="Helvetica,sans-Serif" font-size="10.00" fill="#000000">StrongType::get</text>
</a>
</g>
</g>
<!-- Node8&#45;&gt;Node10 -->
<g id="edge4" class="edge">
<title>Node8&#45;&gt;Node10</title>
<path fill="none" stroke="#191970" d="M498.8954,-76.4609C514.2495,-73.6649 530.8004,-70.4294 546,-67 562.3731,-63.3058 580.2089,-58.6401 595.811,-54.3425"/>
<polygon fill="#191970" stroke="#191970" points="597.0102,-57.6418 605.7035,-51.5855 595.1309,-50.8988 597.0102,-57.6418"/>
</g>
<!-- Node12 -->
<g id="node7" class="node">
<title>Node12</title>
<g id="a_node7"><a xlink:href="classUIElement.html#aa7f624963eaeb31043d74219ee24386c" target="_top" xlink:title="Checks if the mouse cursor is over the current UI Element Check if the coordinates match the ones sto...">
<polygon fill="none" stroke="#000000" points="373,-38.5 373,-57.5 510,-57.5 510,-38.5 373,-38.5"/>
<text text-anchor="middle" x="441.5" y="-45.5" font-family="Helvetica,sans-Serif" font-size="10.00" fill="#000000">UIElement::isMouseOver</text>
</a>
</g>
</g>
<!-- Node11&#45;&gt;Node12 -->
<g id="edge7" class="edge">
<title>Node11&#45;&gt;Node12</title>
<path fill="none" stroke="#191970" d="M301.2242,-48C321.3714,-48 342.9457,-48 362.9843,-48"/>
<polygon fill="#191970" stroke="#191970" points="362.9952,-51.5001 372.9951,-48 362.9951,-44.5001 362.9952,-51.5001"/>
</g>
<!-- Node13 -->
<g id="node8" class="node">
<title>Node13</title>
<g id="a_node8"><a xlink:href="classUIElement.html#a570841bf8b7970ca935b1a00e571036a" target="_top" xlink:title="Handling for the hovering event Check, if the mouse cursor is hovering over the element. virtual function to provide custom handling if necessary (e.g. Combobox) Per default, it&#39;s the same implementation as isMouseOver. ">
<polygon fill="none" stroke="#000000" points="337,-.5 337,-19.5 546,-19.5 546,-.5 337,-.5"/>
<text text-anchor="middle" x="441.5" y="-7.5" font-family="Helvetica,sans-Serif" font-size="10.00" fill="#000000">UIElement::isMouseOverHoverableArea</text>
</a>
</g>
</g>
<!-- Node11&#45;&gt;Node13 -->
<g id="edge8" class="edge">
<title>Node11&#45;&gt;Node13</title>
<path fill="none" stroke="#191970" d="M275.9824,-38.46C306.3257,-33.2426 344.1001,-26.7475 375.8979,-21.28"/>
<polygon fill="#191970" stroke="#191970" points="376.7326,-24.6879 385.9948,-19.5439 375.5463,-17.7892 376.7326,-24.6879"/>
</g>
</g>
</svg>
