<?xml version="1.0" encoding="UTF-8" standalone="no"?>
<!DOCTYPE svg PUBLIC "-//W3C//DTD SVG 1.1//EN"
 "http://www.w3.org/Graphics/SVG/1.1/DTD/svg11.dtd">
<!-- Generated by graphviz version 2.40.1 (20161225.0304)
 -->
<!-- Title: UIElement::getUiElementData Pages: 1 -->
<!--zoomable 256 -->
<svg id="main" version="1.1" xmlns="http://www.w3.org/2000/svg" xmlns:xlink="http://www.w3.org/1999/xlink" xml:space="preserve" onload="init(evt)">
<style type="text/css"><![CDATA[
.edge:hover path { stroke: red; }
.edge:hover polygon { stroke: red; fill: red; }
]]></style>
<script type="text/javascript"><![CDATA[
var edges = document.getElementsByTagName('g');
if (edges && edges.length) {
  for (var i=0;i<edges.length;i++) {
    if (edges[i].id.substr(0,4)=='edge') {
      edges[i].setAttribute('class','edge');
    }
  }
}
]]></script>
        <defs>
                <circle id="rim" cx="0" cy="0" r="7"/>
                <circle id="rim2" cx="0" cy="0" r="3.5"/>
                <g id="zoomPlus">
                        <use xlink:href="#rim" fill="#404040">
                                <set attributeName="fill" to="#808080" begin="zoomplus.mouseover" end="zoomplus.mouseout"/>
                        </use>
                        <path d="M-4,0h8M0,-4v8" fill="none" stroke="white" stroke-width="1.5" pointer-events="none"/>
                </g>
                <g id="zoomMin">
                        <use xlink:href="#rim" fill="#404040">
                                <set attributeName="fill" to="#808080" begin="zoomminus.mouseover" end="zoomminus.mouseout"/>
                        </use>
                        <path d="M-4,0h8" fill="none" stroke="white" stroke-width="1.5" pointer-events="none"/>
                </g>
                <g id="dirArrow">
                        <path fill="none" stroke="white" stroke-width="1.5" d="M0,-3.0v7 M-2.5,-0.5L0,-3.0L2.5,-0.5"/>
                </g>
               <g id="resetDef">
                       <use xlink:href="#rim2" fill="#404040">
                               <set attributeName="fill" to="#808080" begin="reset.mouseover" end="reset.mouseout"/>
                       </use>
               </g>
        </defs>

<script type="text/javascript">
var viewWidth = 1089;
var viewHeight = 256;
var sectionId = 'dynsection-16';
</script>
<script xlink:href="svgpan.js"/>
<svg id="graph" class="graph">
<g id="viewport">
<title>UIElement::getUiElementData</title>
<!-- Node105 -->
<g id="node1" class="node">
<title>Node105</title>
<polygon fill="#bfbfbf" stroke="#000000" points="0,-57.5 0,-76.5 164,-76.5 164,-57.5 0,-57.5"/>
<text text-anchor="middle" x="82" y="-64.5" font-family="Helvetica,sans-Serif" font-size="10.00" fill="#000000">UIElement::getUiElementData</text>
</g>
<!-- Node106 -->
<g id="node2" class="node">
<title>Node106</title>
<g id="a_node2"><a xlink:href="classLayout.html#a99004e4afcea6a945e3890b19cce6236" target="_top" xlink:title="Arrange Elements that are aligned to a parent This is a seperate function, so it can recurse if a par...">
<polygon fill="none" stroke="#000000" points="207,-133.5 207,-152.5 371,-152.5 371,-133.5 207,-133.5"/>
<text text-anchor="middle" x="289" y="-140.5" font-family="Helvetica,sans-Serif" font-size="10.00" fill="#000000">Layout::arrangeChildElements</text>
</a>
</g>
</g>
<!-- Node105&#45;&gt;Node106 -->
<g id="edge1" class="edge">
<title>Node105&#45;&gt;Node106</title>
<path fill="none" stroke="#191970" d="M117.6391,-80.0849C159.0112,-95.2746 226.2514,-119.9619 262.9962,-133.4527"/>
<polygon fill="#191970" stroke="#191970" points="118.8103,-76.7865 108.2167,-76.6255 116.3977,-83.3576 118.8103,-76.7865"/>
</g>
<!-- Node112 -->
<g id="node8" class="node">
<title>Node112</title>
<g id="a_node8"><a xlink:href="classUIManager.html#aa78e356fc3b356d790c848319d1c387e" target="_top" xlink:title="UIManager::setCallbackFunctions">
<polygon fill="none" stroke="#000000" points="826,-76.5 826,-95.5 1004,-95.5 1004,-76.5 826,-76.5"/>
<text text-anchor="middle" x="915" y="-83.5" font-family="Helvetica,sans-Serif" font-size="10.00" fill="#000000">UIManager::setCallbackFunctions</text>
</a>
</g>
</g>
<!-- Node105&#45;&gt;Node112 -->
<g id="edge17" class="edge">
<title>Node105&#45;&gt;Node112</title>
<path fill="none" stroke="#191970" d="M174.5358,-69.1107C335.975,-72.7929 667.0129,-80.3436 825.9639,-83.9692"/>
<polygon fill="#191970" stroke="#191970" points="174.2282,-65.6028 164.151,-68.8738 174.0685,-72.601 174.2282,-65.6028"/>
</g>
<!-- Node114 -->
<g id="node10" class="node">
<title>Node114</title>
<g id="a_node10"><a xlink:href="classUIManager.html#a23bbbe53c18c31ff1c68c105dfa0dbd3" target="_top" xlink:title="Callback function for toggling the visibility of an UiGroup Callback function for Ui Widgets with the...">
<polygon fill="none" stroke="#000000" points="200,-38.5 200,-57.5 378,-57.5 378,-38.5 200,-38.5"/>
<text text-anchor="middle" x="289" y="-45.5" font-family="Helvetica,sans-Serif" font-size="10.00" fill="#000000">UIManager::toggleGroupVisibility</text>
</a>
</g>
</g>
<!-- Node105&#45;&gt;Node114 -->
<g id="edge11" class="edge">
<title>Node105&#45;&gt;Node114</title>
<path fill="none" stroke="#191970" d="M174.091,-58.5472C182.6474,-57.7618 191.3091,-56.9668 199.8383,-56.1839"/>
<polygon fill="#191970" stroke="#191970" points="173.7474,-55.0639 164.1092,-59.4634 174.3873,-62.0346 173.7474,-55.0639"/>
</g>
<!-- Node119 -->
<g id="node15" class="node">
<title>Node119</title>
<g id="a_node15"><a xlink:href="classUIManager.html#aae7a89e9d50bb6192e4140e07bd5f94b" target="_top" xlink:title="UIManager::createBuildMenu">
<polygon fill="none" stroke="#000000" points="210.5,-.5 210.5,-19.5 367.5,-19.5 367.5,-.5 210.5,-.5"/>
<text text-anchor="middle" x="289" y="-7.5" font-family="Helvetica,sans-Serif" font-size="10.00" fill="#000000">UIManager::createBuildMenu</text>
</a>
</g>
</g>
<!-- Node105&#45;&gt;Node119 -->
<g id="edge18" class="edge">
<title>Node105&#45;&gt;Node119</title>
<path fill="none" stroke="#191970" d="M118.7028,-54.1214C141.8497,-46.264 172.4679,-36.3517 200,-29 212.8224,-25.5761 226.8123,-22.3535 239.8231,-19.5687"/>
<polygon fill="#191970" stroke="#191970" points="117.2791,-50.9093 108.9519,-57.4597 119.5465,-57.532 117.2791,-50.9093"/>
</g>
<!-- Node107 -->
<g id="node3" class="node">
<title>Node107</title>
<g id="a_node3"><a xlink:href="classLayout.html#afa734c5af10f59f3dadb066054fe81ab" target="_top" xlink:title="Arrange the layout elements. ">
<polygon fill="none" stroke="#000000" points="421.5,-152.5 421.5,-171.5 560.5,-171.5 560.5,-152.5 421.5,-152.5"/>
<text text-anchor="middle" x="491" y="-159.5" font-family="Helvetica,sans-Serif" font-size="10.00" fill="#000000">Layout::arrangeElements</text>
</a>
</g>
</g>
<!-- Node106&#45;&gt;Node107 -->
<g id="edge2" class="edge">
<title>Node106&#45;&gt;Node107</title>
<path fill="none" stroke="#191970" d="M381.3498,-151.6864C394.7461,-152.9464 408.3469,-154.2257 421.2002,-155.4347"/>
<polygon fill="#191970" stroke="#191970" points="381.445,-148.18 371.1611,-150.728 380.7894,-155.1492 381.445,-148.18"/>
</g>
<!-- Node108 -->
<g id="node4" class="node">
<title>Node108</title>
<g id="a_node4"><a xlink:href="UIManager_8cxx.html#a93ebc51d97942bf4e32123b5c61c4141" target="_top" xlink:title="BETTER_ENUM">
<polygon fill="none" stroke="#000000" points="652.5,-228.5 652.5,-247.5 741.5,-247.5 741.5,-228.5 652.5,-228.5"/>
<text text-anchor="middle" x="697" y="-235.5" font-family="Helvetica,sans-Serif" font-size="10.00" fill="#000000">BETTER_ENUM</text>
</a>
</g>
</g>
<!-- Node107&#45;&gt;Node108 -->
<g id="edge3" class="edge">
<title>Node107&#45;&gt;Node108</title>
<path fill="none" stroke="#191970" d="M515.2988,-176.6474C537.6366,-189.5243 572.036,-207.8958 604,-219 619.4111,-224.3538 636.8109,-228.4082 652.3566,-231.3676"/>
<polygon fill="#191970" stroke="#191970" points="516.9049,-173.532 506.5063,-171.5023 513.3695,-179.5736 516.9049,-173.532"/>
</g>
<!-- Node109 -->
<g id="node5" class="node">
<title>Node109</title>
<g id="a_node5"><a xlink:href="classUIManager.html#a3ccb2fc669262f18ebdcdf3d5c43a3e8" target="_top" xlink:title="CallbackFunction that sets the Build Menu Position Used as callback function for the ComboBox that ho...">
<polygon fill="none" stroke="#000000" points="607,-190.5 607,-209.5 787,-209.5 787,-190.5 607,-190.5"/>
<text text-anchor="middle" x="697" y="-197.5" font-family="Helvetica,sans-Serif" font-size="10.00" fill="#000000">UIManager::setBuildMenuPosition</text>
</a>
</g>
</g>
<!-- Node107&#45;&gt;Node109 -->
<g id="edge4" class="edge">
<title>Node107&#45;&gt;Node109</title>
<path fill="none" stroke="#191970" d="M552.8982,-173.4181C582.3731,-178.8552 617.2197,-185.2832 645.2621,-190.4561"/>
<polygon fill="#191970" stroke="#191970" points="553.1856,-169.9122 542.7166,-171.54 551.9157,-176.796 553.1856,-169.9122"/>
</g>
<!-- Node111 -->
<g id="node7" class="node">
<title>Node111</title>
<g id="a_node7"><a xlink:href="classUIManager.html#ac927e1cd3dea979202ea9dbf1195b583" target="_top" xlink:title="UIManager::changeResolution">
<polygon fill="none" stroke="#000000" points="616.5,-114.5 616.5,-133.5 777.5,-133.5 777.5,-114.5 616.5,-114.5"/>
<text text-anchor="middle" x="697" y="-121.5" font-family="Helvetica,sans-Serif" font-size="10.00" fill="#000000">UIManager::changeResolution</text>
</a>
</g>
</g>
<!-- Node107&#45;&gt;Node111 -->
<g id="edge6" class="edge">
<title>Node107&#45;&gt;Node111</title>
<path fill="none" stroke="#191970" d="M552.8982,-150.5819C582.3731,-145.1448 617.2197,-138.7168 645.2621,-133.5439"/>
<polygon fill="#191970" stroke="#191970" points="551.9157,-147.204 542.7166,-152.46 553.1856,-154.0878 551.9157,-147.204"/>
</g>
<!-- Node113 -->
<g id="node9" class="node">
<title>Node113</title>
<g id="a_node9"><a xlink:href="classUIManager.html#af2ffb4ee45e57152164643ef6cddda37" target="_top" xlink:title="UIManager::changeFullScreenMode">
<polygon fill="none" stroke="#000000" points="604,-152.5 604,-171.5 790,-171.5 790,-152.5 604,-152.5"/>
<text text-anchor="middle" x="697" y="-159.5" font-family="Helvetica,sans-Serif" font-size="10.00" fill="#000000">UIManager::changeFullScreenMode</text>
</a>
</g>
</g>
<!-- Node107&#45;&gt;Node113 -->
<g id="edge9" class="edge">
<title>Node107&#45;&gt;Node113</title>
<path fill="none" stroke="#191970" d="M570.9766,-162C581.7824,-162 592.9446,-162 603.9536,-162"/>
<polygon fill="#191970" stroke="#191970" points="570.7422,-158.5001 560.7422,-162 570.7422,-165.5001 570.7422,-158.5001"/>
</g>
<!-- Node110 -->
<g id="node6" class="node">
<title>Node110</title>
<g id="a_node6"><a xlink:href="classUIManager.html#a5c4cb8e02504ffa0d3faf45181feab9d" target="_top" xlink:title="Fill UI Widgets whose ID start with a $ with data Used for filling widgets with data, like BuildMenu Position combobox, Screen Resolution ComboBox and so on. ">
<polygon fill="none" stroke="#000000" points="842,-147 842,-177 988,-177 988,-147 842,-147"/>
<text text-anchor="start" x="850" y="-165" font-family="Helvetica,sans-Serif" font-size="10.00" fill="#000000">UIManager::initializeDollar</text>
<text text-anchor="middle" x="915" y="-154" font-family="Helvetica,sans-Serif" font-size="10.00" fill="#000000">Variables</text>
</a>
</g>
</g>
<!-- Node109&#45;&gt;Node110 -->
<g id="edge5" class="edge">
<title>Node109&#45;&gt;Node110</title>
<path fill="none" stroke="#191970" d="M761.8755,-188.6914C786.9835,-184.3148 815.8496,-179.2831 841.7031,-174.7765"/>
<polygon fill="#191970" stroke="#191970" points="760.9796,-185.2947 751.7292,-190.46 762.1817,-192.1907 760.9796,-185.2947"/>
</g>
<!-- Node111&#45;&gt;Node110 -->
<g id="edge8" class="edge">
<title>Node111&#45;&gt;Node110</title>
<path fill="none" stroke="#191970" d="M761.8755,-135.3086C786.9835,-139.6852 815.8496,-144.7169 841.7031,-149.2235"/>
<polygon fill="#191970" stroke="#191970" points="762.1817,-131.8093 751.7292,-133.54 760.9796,-138.7053 762.1817,-131.8093"/>
</g>
<!-- Node111&#45;&gt;Node112 -->
<g id="edge7" class="edge">
<title>Node111&#45;&gt;Node112</title>
<path fill="none" stroke="#191970" d="M761.688,-112.7241C793.0512,-107.2571 830.3131,-100.7619 860.2483,-95.5439"/>
<polygon fill="#191970" stroke="#191970" points="760.9796,-109.2947 751.7292,-114.46 762.1817,-116.1907 760.9796,-109.2947"/>
</g>
<!-- Node113&#45;&gt;Node110 -->
<g id="edge10" class="edge">
<title>Node113&#45;&gt;Node110</title>
<path fill="none" stroke="#191970" d="M800.3047,-162C814.3906,-162 828.6036,-162 841.9995,-162"/>
<polygon fill="#191970" stroke="#191970" points="800.084,-158.5001 790.084,-162 800.0839,-165.5001 800.084,-158.5001"/>
</g>
<!-- Node114&#45;&gt;Node112 -->
<g id="edge16" class="edge">
<title>Node114&#45;&gt;Node112</title>
<path fill="none" stroke="#191970" d="M388.4604,-50.8983C489.6377,-54.2851 650.902,-60.8902 790,-72 805.2374,-73.217 821.4879,-74.8152 837.0581,-76.4952"/>
<polygon fill="#191970" stroke="#191970" points="388.3622,-47.3933 378.252,-50.5607 388.1308,-54.3895 388.3622,-47.3933"/>
</g>
<!-- Node115 -->
<g id="node11" class="node">
<title>Node115</title>
<g id="a_node11"><a xlink:href="classEventManager.html#a65ec91fd5016d4f9c4167fb8babed2df" target="_top" xlink:title="EventManager::checkEvents">
<polygon fill="none" stroke="#000000" points="414,-.5 414,-19.5 568,-19.5 568,-.5 414,-.5"/>
<text text-anchor="middle" x="491" y="-7.5" font-family="Helvetica,sans-Serif" font-size="10.00" fill="#000000">EventManager::checkEvents</text>
</a>
</g>
</g>
<!-- Node114&#45;&gt;Node115 -->
<g id="edge12" class="edge">
<title>Node114&#45;&gt;Node115</title>
<path fill="none" stroke="#191970" d="M349.6963,-36.5819C378.5989,-31.1448 412.7689,-24.7168 440.2667,-19.5439"/>
<polygon fill="#191970" stroke="#191970" points="348.8929,-33.1715 339.7124,-38.46 350.1871,-40.0509 348.8929,-33.1715"/>
</g>
<!-- Node116 -->
<g id="node12" class="node">
<title>Node116</title>
<g id="a_node12"><a xlink:href="classGame.html#a1c2ab25d5216b2f4b2fe41efd2c09114" target="_top" xlink:title="begins the game starts running the game ">
<polygon fill="none" stroke="#000000" points="663,-.5 663,-19.5 731,-19.5 731,-.5 663,-.5"/>
<text text-anchor="middle" x="697" y="-7.5" font-family="Helvetica,sans-Serif" font-size="10.00" fill="#000000">Game::run</text>
</a>
</g>
</g>
<!-- Node115&#45;&gt;Node116 -->
<g id="edge13" class="edge">
<title>Node115&#45;&gt;Node116</title>
<path fill="none" stroke="#191970" d="M578.3404,-10C608.2153,-10 639.8899,-10 662.9923,-10"/>
<polygon fill="#191970" stroke="#191970" points="578.2929,-6.5001 568.2929,-10 578.2929,-13.5001 578.2929,-6.5001"/>
</g>
<!-- Node117 -->
<g id="node13" class="node">
<title>Node117</title>
<g id="a_node13"><a xlink:href="main_8cxx.html#af582d708d899e67ead623eac34a22387" target="_top" xlink:title="protected_main">
<polygon fill="none" stroke="#000000" points="868.5,-.5 868.5,-19.5 961.5,-19.5 961.5,-.5 868.5,-.5"/>
<text text-anchor="middle" x="915" y="-7.5" font-family="Helvetica,sans-Serif" font-size="10.00" fill="#000000">protected_main</text>
</a>
</g>
</g>
<!-- Node116&#45;&gt;Node117 -->
<g id="edge14" class="edge">
<title>Node116&#45;&gt;Node117</title>
<path fill="none" stroke="#191970" d="M741.512,-10C778.416,-10 830.7198,-10 868.2335,-10"/>
<polygon fill="#191970" stroke="#191970" points="741.0625,-6.5001 731.0625,-10 741.0625,-13.5001 741.0625,-6.5001"/>
</g>
<!-- Node118 -->
<g id="node14" class="node">
<title>Node118</title>
<g id="a_node14"><a xlink:href="main_8cxx.html#a3c04138a5bfe5d72780bb7e82a18e627" target="_top" xlink:title="main">
<polygon fill="none" stroke="#000000" points="1040,-.5 1040,-19.5 1081,-19.5 1081,-.5 1040,-.5"/>
<text text-anchor="middle" x="1060.5" y="-7.5" font-family="Helvetica,sans-Serif" font-size="10.00" fill="#000000">main</text>
</a>
</g>
</g>
<!-- Node117&#45;&gt;Node118 -->
<g id="edge15" class="edge">
<title>Node117&#45;&gt;Node118</title>
<path fill="none" stroke="#191970" d="M971.8931,-10C995.7718,-10 1022.0463,-10 1039.7355,-10"/>
<polygon fill="#191970" stroke="#191970" points="971.838,-6.5001 961.838,-10 971.838,-13.5001 971.838,-6.5001"/>
</g>
</g>
</svg>
        <g id="navigator" transform="translate(0 0)" fill="#404254">
                <rect fill="#f2f5e9" fill-opacity="0.5" stroke="#606060" stroke-width=".5" x="0" y="0" width="60" height="60"/>
                <use id="zoomplus" xlink:href="#zoomPlus" x="17" y="9" onmousedown="handleZoom(evt,'in')"/>
                <use id="zoomminus" xlink:href="#zoomMin" x="42" y="9" onmousedown="handleZoom(evt,'out')"/>
                <use id="reset" xlink:href="#resetDef" x="30" y="36" onmousedown="handleReset()"/>
                <g id="arrowUp" xlink:href="#dirArrow" transform="translate(30 24)" onmousedown="handlePan(0,-1)">
                  <use xlink:href="#rim" fill="#404040">
                        <set attributeName="fill" to="#808080" begin="arrowUp.mouseover" end="arrowUp.mouseout"/>
                  </use>
                  <path fill="none" stroke="white" stroke-width="1.5" d="M0,-3.0v7 M-2.5,-0.5L0,-3.0L2.5,-0.5"/>
                </g>
                <g id="arrowRight" xlink:href="#dirArrow" transform="rotate(90) translate(36 -43)" onmousedown="handlePan(1,0)">
                  <use xlink:href="#rim" fill="#404040">
                        <set attributeName="fill" to="#808080" begin="arrowRight.mouseover" end="arrowRight.mouseout"/>
                  </use>
                  <path fill="none" stroke="white" stroke-width="1.5" d="M0,-3.0v7 M-2.5,-0.5L0,-3.0L2.5,-0.5"/>
                </g>
                <g id="arrowDown" xlink:href="#dirArrow" transform="rotate(180) translate(-30 -48)" onmousedown="handlePan(0,1)">
                  <use xlink:href="#rim" fill="#404040">
                        <set attributeName="fill" to="#808080" begin="arrowDown.mouseover" end="arrowDown.mouseout"/>
                  </use>
                  <path fill="none" stroke="white" stroke-width="1.5" d="M0,-3.0v7 M-2.5,-0.5L0,-3.0L2.5,-0.5"/>
                </g>
                <g id="arrowLeft" xlink:href="#dirArrow" transform="rotate(270) translate(-36 17)" onmousedown="handlePan(-1,0)">
                  <use xlink:href="#rim" fill="#404040">
                        <set attributeName="fill" to="#808080" begin="arrowLeft.mouseover" end="arrowLeft.mouseout"/>
                  </use>
                  <path fill="none" stroke="white" stroke-width="1.5" d="M0,-3.0v7 M-2.5,-0.5L0,-3.0L2.5,-0.5"/>
                </g>
        </g>
        <svg viewBox="0 0 15 15" width="100%" height="30px" preserveAspectRatio="xMaxYMin meet">
         <g id="arrow_out" transform="scale(0.3 0.3)">
          <a xlink:href="classUIElement_a6451228b4c9bc058d69e4d4f2b03c719_icgraph_org.svg" target="_base">
           <rect id="button" ry="5" rx="5" y="6" x="6" height="38" width="38"
                fill="#f2f5e9" fill-opacity="0.5" stroke="#606060" stroke-width="1.0"/>
           <path id="arrow"
             d="M 11.500037,31.436501 C 11.940474,20.09759 22.043105,11.32322 32.158766,21.979434 L 37.068811,17.246167 C 37.068811,17.246167 37.088388,32 37.088388,32 L 22.160133,31.978069 C 22.160133,31.978069 26.997745,27.140456 26.997745,27.140456 C 18.528582,18.264221 13.291696,25.230495 11.500037,31.436501 z"
             style="fill:#404040;"/>
          </a>
         </g>
        </svg>
</svg>
