<?xml version="1.0" encoding="UTF-8" standalone="no"?>
<!DOCTYPE svg PUBLIC "-//W3C//DTD SVG 1.1//EN"
 "http://www.w3.org/Graphics/SVG/1.1/DTD/svg11.dtd">
<!-- Generated by graphviz version 2.40.1 (20161225.0304)
 -->
<!-- Title: DisplayError Pages: 1 -->
<svg width="88pt" height="254pt"
 viewBox="0.00 0.00 88.00 254.00" xmlns="http://www.w3.org/2000/svg" xmlns:xlink="http://www.w3.org/1999/xlink">
<g id="graph0" class="graph" transform="scale(1 1) rotate(0) translate(4 250)">
<title>DisplayError</title>
<!-- Node0 -->
<g id="node1" class="node">
<title>Node0</title>
<polygon fill="#bfbfbf" stroke="#000000" points="1.5,-.5 1.5,-57.5 78.5,-57.5 78.5,-.5 1.5,-.5"/>
<text text-anchor="middle" x="40" y="-45.5" font-family="Helvetica,sans-Serif" font-size="10.00" fill="#000000">DisplayError</text>
<polyline fill="none" stroke="#000000" points="1.5,-38.5 78.5,-38.5 "/>
<text text-anchor="middle" x="40" y="-26.5" font-family="Helvetica,sans-Serif" font-size="10.00" fill="#000000"> </text>
<polyline fill="none" stroke="#000000" points="1.5,-19.5 78.5,-19.5 "/>
<text text-anchor="middle" x="40" y="-7.5" font-family="Helvetica,sans-Serif" font-size="10.00" fill="#000000"> </text>
</g>
<!-- Node1 -->
<g id="node2" class="node">
<title>Node1</title>
<g id="a_node2"><a xlink:href="classCytopiaError.html" target="_top" xlink:title="A generic error in Cytopia. ">
<polygon fill="none" stroke="#000000" points="1.5,-94.5 1.5,-151.5 78.5,-151.5 78.5,-94.5 1.5,-94.5"/>
<text text-anchor="middle" x="40" y="-139.5" font-family="Helvetica,sans-Serif" font-size="10.00" fill="#000000">CytopiaError</text>
<polyline fill="none" stroke="#000000" points="1.5,-132.5 78.5,-132.5 "/>
<text text-anchor="middle" x="40" y="-120.5" font-family="Helvetica,sans-Serif" font-size="10.00" fill="#000000"> </text>
<polyline fill="none" stroke="#000000" points="1.5,-113.5 78.5,-113.5 "/>
<text text-anchor="middle" x="40" y="-101.5" font-family="Helvetica,sans-Serif" font-size="10.00" fill="#000000"> </text>
</a>
</g>
</g>
<!-- Node1&#45;&gt;Node0 -->
<g id="edge1" class="edge">
<title>Node1&#45;&gt;Node0</title>
<path fill="none" stroke="#191970" d="M40,-84.1035C40,-75.2052 40,-65.9073 40,-57.538"/>
<polygon fill="none" stroke="#191970" points="36.5001,-84.2861 40,-94.2861 43.5001,-84.2862 36.5001,-84.2861"/>
</g>
<!-- Node2 -->
<g id="node3" class="node">
<title>Node2</title>
<polygon fill="none" stroke="#bfbfbf" points="0,-188.5 0,-245.5 80,-245.5 80,-188.5 0,-188.5"/>
<text text-anchor="middle" x="40" y="-233.5" font-family="Helvetica,sans-Serif" font-size="10.00" fill="#000000">RuntimeError</text>
<polyline fill="none" stroke="#bfbfbf" points="0,-226.5 80,-226.5 "/>
<text text-anchor="middle" x="40" y="-214.5" font-family="Helvetica,sans-Serif" font-size="10.00" fill="#000000"> </text>
<polyline fill="none" stroke="#bfbfbf" points="0,-207.5 80,-207.5 "/>
<text text-anchor="middle" x="40" y="-195.5" font-family="Helvetica,sans-Serif" font-size="10.00" fill="#000000"> </text>
</g>
<!-- Node2&#45;&gt;Node1 -->
<g id="edge2" class="edge">
<title>Node2&#45;&gt;Node1</title>
<path fill="none" stroke="#191970" d="M40,-178.1035C40,-169.2052 40,-159.9073 40,-151.538"/>
<polygon fill="none" stroke="#191970" points="36.5001,-178.2861 40,-188.2861 43.5001,-178.2862 36.5001,-178.2861"/>
</g>
</g>
</svg>
