<?xml version="1.0" encoding="UTF-8" standalone="no"?>
<!DOCTYPE svg PUBLIC "-//W3C//DTD SVG 1.1//EN"
 "http://www.w3.org/Graphics/SVG/1.1/DTD/svg11.dtd">
<!-- Generated by graphviz version 2.40.1 (20161225.0304)
 -->
<!-- Title: Map::getNodeOrigCornerPoint Pages: 1 -->
<svg width="1000pt" height="47pt"
 viewBox="0.00 0.00 1000.00 47.00" xmlns="http://www.w3.org/2000/svg" xmlns:xlink="http://www.w3.org/1999/xlink">
<g id="graph0" class="graph" transform="scale(1 1) rotate(0) translate(4 43)">
<title>Map::getNodeOrigCornerPoint</title>
<!-- Node202 -->
<g id="node1" class="node">
<title>Node202</title>
<polygon fill="#bfbfbf" stroke="#000000" points="0,-19.5 0,-38.5 161,-38.5 161,-19.5 0,-19.5"/>
<text text-anchor="middle" x="80.5" y="-26.5" font-family="Helvetica,sans-Serif" font-size="10.00" fill="#000000">Map::getNodeOrigCornerPoint</text>
</g>
<!-- Node203 -->
<g id="node2" class="node">
<title>Node203</title>
<g id="a_node2"><a xlink:href="classEventManager.html#a65ec91fd5016d4f9c4167fb8babed2df" target="_top" xlink:title="EventManager::checkEvents">
<polygon fill="none" stroke="#000000" points="528,-19.5 528,-38.5 682,-38.5 682,-19.5 528,-19.5"/>
<text text-anchor="middle" x="605" y="-26.5" font-family="Helvetica,sans-Serif" font-size="10.00" fill="#000000">EventManager::checkEvents</text>
</a>
</g>
</g>
<!-- Node202&#45;&gt;Node203 -->
<g id="edge1" class="edge">
<title>Node202&#45;&gt;Node203</title>
<path fill="none" stroke="#191970" d="M171.1805,-29C271.9415,-29 432.9202,-29 527.8601,-29"/>
<polygon fill="#191970" stroke="#191970" points="171.0173,-25.5001 161.0172,-29 171.0172,-32.5001 171.0173,-25.5001"/>
</g>
<!-- Node207 -->
<g id="node6" class="node">
<title>Node207</title>
<g id="a_node6"><a xlink:href="classMap.html#a404c38b33d61f8c63ce2c2efb864d6dd" target="_top" xlink:title="Set the Tile ID Of Node object Also invokes all necessary texture updates (auto&#45;tiling, slopes, ...) ">
<polygon fill="none" stroke="#000000" points="197,-.5 197,-19.5 320,-19.5 320,-.5 197,-.5"/>
<text text-anchor="middle" x="258.5" y="-7.5" font-family="Helvetica,sans-Serif" font-size="10.00" fill="#000000">Map::setTileIDOfNode</text>
</a>
</g>
</g>
<!-- Node202&#45;&gt;Node207 -->
<g id="edge5" class="edge">
<title>Node202&#45;&gt;Node207</title>
<path fill="none" stroke="#191970" d="M171.2854,-19.3094C179.9124,-18.3886 188.5171,-17.4701 196.775,-16.5886"/>
<polygon fill="#191970" stroke="#191970" points="170.7391,-15.8478 161.1671,-20.3895 171.4821,-22.8082 170.7391,-15.8478"/>
</g>
<!-- Node204 -->
<g id="node3" class="node">
<title>Node204</title>
<g id="a_node3"><a xlink:href="classGame.html#a1c2ab25d5216b2f4b2fe41efd2c09114" target="_top" xlink:title="begins the game starts running the game ">
<polygon fill="none" stroke="#000000" points="718,-19.5 718,-38.5 786,-38.5 786,-19.5 718,-19.5"/>
<text text-anchor="middle" x="752" y="-26.5" font-family="Helvetica,sans-Serif" font-size="10.00" fill="#000000">Game::run</text>
</a>
</g>
</g>
<!-- Node203&#45;&gt;Node204 -->
<g id="edge2" class="edge">
<title>Node203&#45;&gt;Node204</title>
<path fill="none" stroke="#191970" d="M692.5248,-29C701.4338,-29 710.0572,-29 717.845,-29"/>
<polygon fill="#191970" stroke="#191970" points="692.3744,-25.5001 682.3744,-29 692.3743,-32.5001 692.3744,-25.5001"/>
</g>
<!-- Node205 -->
<g id="node4" class="node">
<title>Node205</title>
<g id="a_node4"><a xlink:href="main_8cxx.html#af582d708d899e67ead623eac34a22387" target="_top" xlink:title="protected_main">
<polygon fill="none" stroke="#000000" points="822,-19.5 822,-38.5 915,-38.5 915,-19.5 822,-19.5"/>
<text text-anchor="middle" x="868.5" y="-26.5" font-family="Helvetica,sans-Serif" font-size="10.00" fill="#000000">protected_main</text>
</a>
</g>
</g>
<!-- Node204&#45;&gt;Node205 -->
<g id="edge3" class="edge">
<title>Node204&#45;&gt;Node205</title>
<path fill="none" stroke="#191970" d="M796.2653,-29C804.5757,-29 813.2897,-29 821.6749,-29"/>
<polygon fill="#191970" stroke="#191970" points="796.0098,-25.5001 786.0098,-29 796.0098,-32.5001 796.0098,-25.5001"/>
</g>
<!-- Node206 -->
<g id="node5" class="node">
<title>Node206</title>
<g id="a_node5"><a xlink:href="main_8cxx.html#a3c04138a5bfe5d72780bb7e82a18e627" target="_top" xlink:title="main">
<polygon fill="none" stroke="#000000" points="951,-19.5 951,-38.5 992,-38.5 992,-19.5 951,-19.5"/>
<text text-anchor="middle" x="971.5" y="-26.5" font-family="Helvetica,sans-Serif" font-size="10.00" fill="#000000">main</text>
</a>
</g>
</g>
<!-- Node205&#45;&gt;Node206 -->
<g id="edge4" class="edge">
<title>Node205&#45;&gt;Node206</title>
<path fill="none" stroke="#191970" d="M925.2133,-29C934.4322,-29 943.4259,-29 950.9965,-29"/>
<polygon fill="#191970" stroke="#191970" points="925.1782,-25.5001 915.1782,-29 925.1781,-32.5001 925.1782,-25.5001"/>
</g>
<!-- Node208 -->
<g id="node7" class="node">
<title>Node208</title>
<g id="a_node7"><a xlink:href="classEngine.html#a7a1521fd7fc731f961ebaf3f723127d9" target="_top" xlink:title="Engine::setTileIDOfNode">
<polygon fill="none" stroke="#000000" points="356,-.5 356,-19.5 492,-19.5 492,-.5 356,-.5"/>
<text text-anchor="middle" x="424" y="-7.5" font-family="Helvetica,sans-Serif" font-size="10.00" fill="#000000">Engine::setTileIDOfNode</text>
</a>
</g>
</g>
<!-- Node207&#45;&gt;Node208 -->
<g id="edge6" class="edge">
<title>Node207&#45;&gt;Node208</title>
<path fill="none" stroke="#191970" d="M330.3736,-10C338.858,-10 347.4976,-10 355.9273,-10"/>
<polygon fill="#191970" stroke="#191970" points="330.1261,-6.5001 320.1261,-10 330.1261,-13.5001 330.1261,-6.5001"/>
</g>
<!-- Node208&#45;&gt;Node203 -->
<g id="edge7" class="edge">
<title>Node208&#45;&gt;Node203</title>
<path fill="none" stroke="#191970" d="M502.3623,-18.2259C510.7925,-19.1108 519.3658,-20.0108 527.7824,-20.8943"/>
<polygon fill="#191970" stroke="#191970" points="502.4812,-14.7192 492.1704,-17.156 501.7504,-21.681 502.4812,-14.7192"/>
</g>
</g>
</svg>
