<?xml version="1.0" encoding="UTF-8" standalone="no"?>
<!DOCTYPE svg PUBLIC "-//W3C//DTD SVG 1.1//EN"
 "http://www.w3.org/Graphics/SVG/1.1/DTD/svg11.dtd">
<!-- Generated by graphviz version 2.40.1 (20161225.0304)
 -->
<!-- Title: Game Pages: 1 -->
<!--zoomable 883 -->
<svg id="main" version="1.1" xmlns="http://www.w3.org/2000/svg" xmlns:xlink="http://www.w3.org/1999/xlink" xml:space="preserve" onload="init(evt)">
<style type="text/css"><![CDATA[
.edge:hover path { stroke: red; }
.edge:hover polygon { stroke: red; fill: red; }
]]></style>
<script type="text/javascript"><![CDATA[
var edges = document.getElementsByTagName('g');
if (edges && edges.length) {
  for (var i=0;i<edges.length;i++) {
    if (edges[i].id.substr(0,4)=='edge') {
      edges[i].setAttribute('class','edge');
    }
  }
}
]]></script>
        <defs>
                <circle id="rim" cx="0" cy="0" r="7"/>
                <circle id="rim2" cx="0" cy="0" r="3.5"/>
                <g id="zoomPlus">
                        <use xlink:href="#rim" fill="#404040">
                                <set attributeName="fill" to="#808080" begin="zoomplus.mouseover" end="zoomplus.mouseout"/>
                        </use>
                        <path d="M-4,0h8M0,-4v8" fill="none" stroke="white" stroke-width="1.5" pointer-events="none"/>
                </g>
                <g id="zoomMin">
                        <use xlink:href="#rim" fill="#404040">
                                <set attributeName="fill" to="#808080" begin="zoomminus.mouseover" end="zoomminus.mouseout"/>
                        </use>
                        <path d="M-4,0h8" fill="none" stroke="white" stroke-width="1.5" pointer-events="none"/>
                </g>
                <g id="dirArrow">
                        <path fill="none" stroke="white" stroke-width="1.5" d="M0,-3.0v7 M-2.5,-0.5L0,-3.0L2.5,-0.5"/>
                </g>
               <g id="resetDef">
                       <use xlink:href="#rim2" fill="#404040">
                               <set attributeName="fill" to="#808080" begin="reset.mouseover" end="reset.mouseout"/>
                       </use>
               </g>
        </defs>

<script type="text/javascript">
var viewWidth = 648;
var viewHeight = 883;
var sectionId = 'dynsection-0';
</script>
<script xlink:href="svgpan.js"/>
<svg id="graph" class="graph">
<g id="viewport">
<title>Game</title>
<!-- Node1 -->
<g id="node1" class="node">
<title>Node1</title>
<polygon fill="#bfbfbf" stroke="#000000" points="253.5,-.5 253.5,-145.5 359.5,-145.5 359.5,-.5 253.5,-.5"/>
<text text-anchor="middle" x="306.5" y="-133.5" font-family="Helvetica,sans-Serif" font-size="10.00" fill="#000000">Game</text>
<polyline fill="none" stroke="#000000" points="253.5,-126.5 359.5,-126.5 "/>
<text text-anchor="start" x="261.5" y="-114.5" font-family="Helvetica,sans-Serif" font-size="10.00" fill="#000000">&#45; m_GameContext</text>
<text text-anchor="start" x="261.5" y="-103.5" font-family="Helvetica,sans-Serif" font-size="10.00" fill="#000000">&#45; m_UILoop</text>
<text text-anchor="start" x="261.5" y="-92.5" font-family="Helvetica,sans-Serif" font-size="10.00" fill="#000000">&#45; m_EventLoop</text>
<polyline fill="none" stroke="#000000" points="253.5,-85.5 359.5,-85.5 "/>
<text text-anchor="start" x="261.5" y="-73.5" font-family="Helvetica,sans-Serif" font-size="10.00" fill="#000000">+ Game()</text>
<text text-anchor="start" x="261.5" y="-62.5" font-family="Helvetica,sans-Serif" font-size="10.00" fill="#000000">+ ~Game()</text>
<text text-anchor="start" x="261.5" y="-51.5" font-family="Helvetica,sans-Serif" font-size="10.00" fill="#000000">+ initialize()</text>
<text text-anchor="start" x="261.5" y="-40.5" font-family="Helvetica,sans-Serif" font-size="10.00" fill="#000000">+ run()</text>
<text text-anchor="start" x="261.5" y="-29.5" font-family="Helvetica,sans-Serif" font-size="10.00" fill="#000000">+ shutdown()</text>
<text text-anchor="start" x="261.5" y="-18.5" font-family="Helvetica,sans-Serif" font-size="10.00" fill="#000000">+ mainMenu()</text>
<text text-anchor="start" x="261.5" y="-7.5" font-family="Helvetica,sans-Serif" font-size="10.00" fill="#000000">&#45; LoopMain()</text>
</g>
<!-- Node2 -->
<g id="node2" class="node">
<title>Node2</title>
<g id="a_node2"><a xlink:href="classUILoopMQ.html" target="_top" xlink:title="UI Actor&#39;s message queue. ">
<polygon fill="none" stroke="#000000" points="52.5,-232 52.5,-289 118.5,-289 118.5,-232 52.5,-232"/>
<text text-anchor="middle" x="85.5" y="-277" font-family="Helvetica,sans-Serif" font-size="10.00" fill="#000000">UILoopMQ</text>
<polyline fill="none" stroke="#000000" points="52.5,-270 118.5,-270 "/>
<text text-anchor="middle" x="85.5" y="-258" font-family="Helvetica,sans-Serif" font-size="10.00" fill="#000000"> </text>
<polyline fill="none" stroke="#000000" points="52.5,-251 118.5,-251 "/>
<text text-anchor="middle" x="85.5" y="-239" font-family="Helvetica,sans-Serif" font-size="10.00" fill="#000000"> </text>
</a>
</g>
</g>
<!-- Node2&#45;&gt;Node1 -->
<g id="edge1" class="edge">
<title>Node2&#45;&gt;Node1</title>
<path fill="none" stroke="#404040" d="M92.6907,-231.8188C99.153,-210.9148 110.4556,-183.0348 128.5,-164 159.552,-131.2436 204.99,-108.284 242.1847,-93.6208"/>
<polygon fill="none" stroke="#404040" points="242.224,-93.606 246.4074,-87.7324 253.4382,-89.3349 249.2548,-95.2085 242.224,-93.606"/>
<text text-anchor="middle" x="164.5" y="-167" font-family="Helvetica,sans-Serif" font-size="10.00" fill="#000000"> &#45;m_UILoopMQ</text>
</g>
<!-- Node3 -->
<g id="node3" class="node">
<title>Node3</title>
<g id="a_node3"><a xlink:href="classMessageQueue.html" target="_top" xlink:title="{MessageQueue\&lt; VariantType\l\&lt; UIEvents \&gt;::type \&gt;\n|&#45; m_OnEvent\l&#45; m_Semaphore\l&#45; m_Queue\l|+ push()\l+ peek()\l+ getEnumerable()\l+ MessageQueue()\l+ MessageQueue()\l+ MessageQueue()\l+ operator=()\l+ operator=()\l&#45; wakeCondition()\l}">
<polygon fill="none" stroke="#000000" points="0,-365.5 0,-543.5 159,-543.5 159,-365.5 0,-365.5"/>
<text text-anchor="start" x="8" y="-531.5" font-family="Helvetica,sans-Serif" font-size="10.00" fill="#000000">MessageQueue&lt; VariantType</text>
<text text-anchor="middle" x="79.5" y="-520.5" font-family="Helvetica,sans-Serif" font-size="10.00" fill="#000000">&lt; UIEvents &gt;::type &gt;</text>
<polyline fill="none" stroke="#000000" points="0,-513.5 159,-513.5 "/>
<text text-anchor="start" x="8" y="-501.5" font-family="Helvetica,sans-Serif" font-size="10.00" fill="#000000">&#45; m_OnEvent</text>
<text text-anchor="start" x="8" y="-490.5" font-family="Helvetica,sans-Serif" font-size="10.00" fill="#000000">&#45; m_Semaphore</text>
<text text-anchor="start" x="8" y="-479.5" font-family="Helvetica,sans-Serif" font-size="10.00" fill="#000000">&#45; m_Queue</text>
<polyline fill="none" stroke="#000000" points="0,-472.5 159,-472.5 "/>
<text text-anchor="start" x="8" y="-460.5" font-family="Helvetica,sans-Serif" font-size="10.00" fill="#000000">+ push()</text>
<text text-anchor="start" x="8" y="-449.5" font-family="Helvetica,sans-Serif" font-size="10.00" fill="#000000">+ peek()</text>
<text text-anchor="start" x="8" y="-438.5" font-family="Helvetica,sans-Serif" font-size="10.00" fill="#000000">+ getEnumerable()</text>
<text text-anchor="start" x="8" y="-427.5" font-family="Helvetica,sans-Serif" font-size="10.00" fill="#000000">+ MessageQueue()</text>
<text text-anchor="start" x="8" y="-416.5" font-family="Helvetica,sans-Serif" font-size="10.00" fill="#000000">+ MessageQueue()</text>
<text text-anchor="start" x="8" y="-405.5" font-family="Helvetica,sans-Serif" font-size="10.00" fill="#000000">+ MessageQueue()</text>
<text text-anchor="start" x="8" y="-394.5" font-family="Helvetica,sans-Serif" font-size="10.00" fill="#000000">+ operator=()</text>
<text text-anchor="start" x="8" y="-383.5" font-family="Helvetica,sans-Serif" font-size="10.00" fill="#000000">+ operator=()</text>
<text text-anchor="start" x="8" y="-372.5" font-family="Helvetica,sans-Serif" font-size="10.00" fill="#000000">&#45; wakeCondition()</text>
</a>
</g>
</g>
<!-- Node3&#45;&gt;Node2 -->
<g id="edge2" class="edge">
<title>Node3&#45;&gt;Node2</title>
<path fill="none" stroke="#191970" d="M82.5637,-355.4399C83.3131,-331.2096 84.0572,-307.1507 84.6088,-289.3147"/>
<polygon fill="none" stroke="#191970" points="79.0651,-355.3456 82.2542,-365.4491 86.0617,-355.5621 79.0651,-355.3456"/>
</g>
<!-- Node4 -->
<g id="node4" class="node">
<title>Node4</title>
<g id="a_node4"><a xlink:href="classMessageQueue.html" target="_top" xlink:title="{MessageQueue\&lt; Event \&gt;\n|&#45; m_OnEvent\l&#45; m_Semaphore\l&#45; m_Queue\l|+ push()\l+ peek()\l+ getEnumerable()\l+ MessageQueue()\l+ operator=()\l+ MessageQueue()\l+ MessageQueue()\l+ operator=()\l&#45; wakeCondition()\l}">
<polygon fill="none" stroke="#000000" points="107,-602.5 107,-769.5 248,-769.5 248,-602.5 107,-602.5"/>
<text text-anchor="middle" x="177.5" y="-757.5" font-family="Helvetica,sans-Serif" font-size="10.00" fill="#000000">MessageQueue&lt; Event &gt;</text>
<polyline fill="none" stroke="#000000" points="107,-750.5 248,-750.5 "/>
<text text-anchor="start" x="115" y="-738.5" font-family="Helvetica,sans-Serif" font-size="10.00" fill="#000000">&#45; m_OnEvent</text>
<text text-anchor="start" x="115" y="-727.5" font-family="Helvetica,sans-Serif" font-size="10.00" fill="#000000">&#45; m_Semaphore</text>
<text text-anchor="start" x="115" y="-716.5" font-family="Helvetica,sans-Serif" font-size="10.00" fill="#000000">&#45; m_Queue</text>
<polyline fill="none" stroke="#000000" points="107,-709.5 248,-709.5 "/>
<text text-anchor="start" x="115" y="-697.5" font-family="Helvetica,sans-Serif" font-size="10.00" fill="#000000">+ push()</text>
<text text-anchor="start" x="115" y="-686.5" font-family="Helvetica,sans-Serif" font-size="10.00" fill="#000000">+ peek()</text>
<text text-anchor="start" x="115" y="-675.5" font-family="Helvetica,sans-Serif" font-size="10.00" fill="#000000">+ getEnumerable()</text>
<text text-anchor="start" x="115" y="-664.5" font-family="Helvetica,sans-Serif" font-size="10.00" fill="#000000">+ MessageQueue()</text>
<text text-anchor="start" x="115" y="-653.5" font-family="Helvetica,sans-Serif" font-size="10.00" fill="#000000">+ operator=()</text>
<text text-anchor="start" x="115" y="-642.5" font-family="Helvetica,sans-Serif" font-size="10.00" fill="#000000">+ MessageQueue()</text>
<text text-anchor="start" x="115" y="-631.5" font-family="Helvetica,sans-Serif" font-size="10.00" fill="#000000">+ MessageQueue()</text>
<text text-anchor="start" x="115" y="-620.5" font-family="Helvetica,sans-Serif" font-size="10.00" fill="#000000">+ operator=()</text>
<text text-anchor="start" x="115" y="-609.5" font-family="Helvetica,sans-Serif" font-size="10.00" fill="#000000">&#45; wakeCondition()</text>
</a>
</g>
</g>
<!-- Node4&#45;&gt;Node3 -->
<g id="edge3" class="edge">
<title>Node4&#45;&gt;Node3</title>
<path fill="none" stroke="#ffa500" d="M101.3487,-605.0268C97.1887,-598.2113 93.4947,-591.1735 90.5,-584 85.2411,-571.4027 81.8535,-557.5268 79.7464,-543.6804"/>
<polygon fill="#ffa500" stroke="#ffa500" points="98.4807,-607.0372 106.8497,-613.5342 104.3589,-603.2363 98.4807,-607.0372"/>
<text text-anchor="start" x="90.5" y="-576" font-family="Helvetica,sans-Serif" font-size="10.00" fill="#000000"> &lt; VariantType&lt; UIEvents</text>
<text text-anchor="middle" x="154" y="-565" font-family="Helvetica,sans-Serif" font-size="10.00" fill="#000000"> &gt;::type &gt;</text>
</g>
<!-- Node11 -->
<g id="node11" class="node">
<title>Node11</title>
<g id="a_node11"><a xlink:href="classMessageQueue.html" target="_top" xlink:title="{MessageQueue\&lt; VariantType\l\&lt; GameEvents \&gt;::type \&gt;\n|&#45; m_OnEvent\l&#45; m_Semaphore\l&#45; m_Queue\l|+ push()\l+ peek()\l+ getEnumerable()\l+ MessageQueue()\l+ MessageQueue()\l+ MessageQueue()\l+ operator=()\l+ operator=()\l&#45; wakeCondition()\l}">
<polygon fill="none" stroke="#000000" points="177,-365.5 177,-543.5 336,-543.5 336,-365.5 177,-365.5"/>
<text text-anchor="start" x="185" y="-531.5" font-family="Helvetica,sans-Serif" font-size="10.00" fill="#000000">MessageQueue&lt; VariantType</text>
<text text-anchor="middle" x="256.5" y="-520.5" font-family="Helvetica,sans-Serif" font-size="10.00" fill="#000000">&lt; GameEvents &gt;::type &gt;</text>
<polyline fill="none" stroke="#000000" points="177,-513.5 336,-513.5 "/>
<text text-anchor="start" x="185" y="-501.5" font-family="Helvetica,sans-Serif" font-size="10.00" fill="#000000">&#45; m_OnEvent</text>
<text text-anchor="start" x="185" y="-490.5" font-family="Helvetica,sans-Serif" font-size="10.00" fill="#000000">&#45; m_Semaphore</text>
<text text-anchor="start" x="185" y="-479.5" font-family="Helvetica,sans-Serif" font-size="10.00" fill="#000000">&#45; m_Queue</text>
<polyline fill="none" stroke="#000000" points="177,-472.5 336,-472.5 "/>
<text text-anchor="start" x="185" y="-460.5" font-family="Helvetica,sans-Serif" font-size="10.00" fill="#000000">+ push()</text>
<text text-anchor="start" x="185" y="-449.5" font-family="Helvetica,sans-Serif" font-size="10.00" fill="#000000">+ peek()</text>
<text text-anchor="start" x="185" y="-438.5" font-family="Helvetica,sans-Serif" font-size="10.00" fill="#000000">+ getEnumerable()</text>
<text text-anchor="start" x="185" y="-427.5" font-family="Helvetica,sans-Serif" font-size="10.00" fill="#000000">+ MessageQueue()</text>
<text text-anchor="start" x="185" y="-416.5" font-family="Helvetica,sans-Serif" font-size="10.00" fill="#000000">+ MessageQueue()</text>
<text text-anchor="start" x="185" y="-405.5" font-family="Helvetica,sans-Serif" font-size="10.00" fill="#000000">+ MessageQueue()</text>
<text text-anchor="start" x="185" y="-394.5" font-family="Helvetica,sans-Serif" font-size="10.00" fill="#000000">+ operator=()</text>
<text text-anchor="start" x="185" y="-383.5" font-family="Helvetica,sans-Serif" font-size="10.00" fill="#000000">+ operator=()</text>
<text text-anchor="start" x="185" y="-372.5" font-family="Helvetica,sans-Serif" font-size="10.00" fill="#000000">&#45; wakeCondition()</text>
</a>
</g>
</g>
<!-- Node4&#45;&gt;Node11 -->
<g id="edge12" class="edge">
<title>Node4&#45;&gt;Node11</title>
<path fill="none" stroke="#ffa500" d="M218.3295,-592.819C219.4247,-589.8556 220.4847,-586.9107 221.5,-584 225.9871,-571.1359 230.2511,-557.3886 234.1597,-543.8336"/>
<polygon fill="#ffa500" stroke="#ffa500" points="214.9971,-591.7359 214.7236,-602.3272 221.5422,-594.2181 214.9971,-591.7359"/>
<text text-anchor="start" x="228.5" y="-576" font-family="Helvetica,sans-Serif" font-size="10.00" fill="#000000"> &lt; VariantType&lt; GameEvents</text>
<text text-anchor="middle" x="301" y="-565" font-family="Helvetica,sans-Serif" font-size="10.00" fill="#000000"> &gt;::type &gt;</text>
</g>
<!-- Node5 -->
<g id="node5" class="node">
<title>Node5</title>
<g id="a_node5"><a xlink:href="classRandomizer.html" target="_top" xlink:title="{Randomizer\n|&#45; generator\l|+ Randomizer()\l+ choose()\l}">
<polygon fill="none" stroke="#000000" points="253.5,-226.5 253.5,-294.5 347.5,-294.5 347.5,-226.5 253.5,-226.5"/>
<text text-anchor="middle" x="300.5" y="-282.5" font-family="Helvetica,sans-Serif" font-size="10.00" fill="#000000">Randomizer</text>
<polyline fill="none" stroke="#000000" points="253.5,-275.5 347.5,-275.5 "/>
<text text-anchor="start" x="261.5" y="-263.5" font-family="Helvetica,sans-Serif" font-size="10.00" fill="#000000">&#45; generator</text>
<polyline fill="none" stroke="#000000" points="253.5,-256.5 347.5,-256.5 "/>
<text text-anchor="start" x="261.5" y="-244.5" font-family="Helvetica,sans-Serif" font-size="10.00" fill="#000000">+ Randomizer()</text>
<text text-anchor="start" x="261.5" y="-233.5" font-family="Helvetica,sans-Serif" font-size="10.00" fill="#000000">+ choose()</text>
</a>
</g>
</g>
<!-- Node5&#45;&gt;Node1 -->
<g id="edge4" class="edge">
<title>Node5&#45;&gt;Node1</title>
<path fill="none" stroke="#404040" d="M301.6005,-226.1096C302.2169,-206.8455 303.0152,-181.9008 303.7877,-157.7587"/>
<polygon fill="none" stroke="#404040" points="303.7922,-157.6162 299.9862,-151.4913 304.1761,-145.6224 307.9821,-151.7473 303.7922,-157.6162"/>
<text text-anchor="middle" x="344" y="-167" font-family="Helvetica,sans-Serif" font-size="10.00" fill="#000000"> &#45;m_Randomizer</text>
</g>
<!-- Node6 -->
<g id="node6" class="node">
<title>Node6</title>
<g id="a_node6"><a xlink:href="classGameService.html" target="_top" xlink:title="{GameService\n||+ GameService()\l# GetService()\l}">
<polygon fill="none" stroke="#000000" points="376,-420.5 376,-488.5 477,-488.5 477,-420.5 376,-420.5"/>
<text text-anchor="middle" x="426.5" y="-476.5" font-family="Helvetica,sans-Serif" font-size="10.00" fill="#000000">GameService</text>
<polyline fill="none" stroke="#000000" points="376,-469.5 477,-469.5 "/>
<text text-anchor="middle" x="426.5" y="-457.5" font-family="Helvetica,sans-Serif" font-size="10.00" fill="#000000"> </text>
<polyline fill="none" stroke="#000000" points="376,-450.5 477,-450.5 "/>
<text text-anchor="start" x="384" y="-438.5" font-family="Helvetica,sans-Serif" font-size="10.00" fill="#000000">+ GameService()</text>
<text text-anchor="start" x="384" y="-427.5" font-family="Helvetica,sans-Serif" font-size="10.00" fill="#000000"># GetService()</text>
</a>
</g>
</g>
<!-- Node6&#45;&gt;Node5 -->
<g id="edge5" class="edge">
<title>Node6&#45;&gt;Node5</title>
<path fill="none" stroke="#191970" d="M398.6626,-411.6392C375.8145,-376.4605 343.8888,-327.3051 322.7255,-294.7202"/>
<polygon fill="none" stroke="#191970" points="395.8816,-413.7832 404.2638,-420.2633 401.7521,-409.9704 395.8816,-413.7832"/>
</g>
<!-- Node9 -->
<g id="node9" class="node">
<title>Node9</title>
<g id="a_node9"><a xlink:href="classResourceManager.html" target="_top" xlink:title="{ResourceManager\n|&#45; m_Age\l&#45; m_CacheSize\l|+ ResourceManager()\l+ get()\l+ prune()\l}">
<polygon fill="none" stroke="#000000" points="365.5,-215.5 365.5,-305.5 487.5,-305.5 487.5,-215.5 365.5,-215.5"/>
<text text-anchor="middle" x="426.5" y="-293.5" font-family="Helvetica,sans-Serif" font-size="10.00" fill="#000000">ResourceManager</text>
<polyline fill="none" stroke="#000000" points="365.5,-286.5 487.5,-286.5 "/>
<text text-anchor="start" x="373.5" y="-274.5" font-family="Helvetica,sans-Serif" font-size="10.00" fill="#000000">&#45; m_Age</text>
<text text-anchor="start" x="373.5" y="-263.5" font-family="Helvetica,sans-Serif" font-size="10.00" fill="#000000">&#45; m_CacheSize</text>
<polyline fill="none" stroke="#000000" points="365.5,-256.5 487.5,-256.5 "/>
<text text-anchor="start" x="373.5" y="-244.5" font-family="Helvetica,sans-Serif" font-size="10.00" fill="#000000">+ ResourceManager()</text>
<text text-anchor="start" x="373.5" y="-233.5" font-family="Helvetica,sans-Serif" font-size="10.00" fill="#000000">+ get()</text>
<text text-anchor="start" x="373.5" y="-222.5" font-family="Helvetica,sans-Serif" font-size="10.00" fill="#000000">+ prune()</text>
</a>
</g>
</g>
<!-- Node6&#45;&gt;Node9 -->
<g id="edge9" class="edge">
<title>Node6&#45;&gt;Node9</title>
<path fill="none" stroke="#191970" d="M426.5,-410.0921C426.5,-378.8311 426.5,-337.1243 426.5,-305.6908"/>
<polygon fill="none" stroke="#191970" points="423.0001,-410.2632 426.5,-420.2633 430.0001,-410.2633 423.0001,-410.2632"/>
</g>
<!-- Node12 -->
<g id="node12" class="node">
<title>Node12</title>
<g id="a_node12"><a xlink:href="classGameClock.html" target="_top" xlink:title="{GameClock\n|&#45; m_Deffered\l&#45; m_Repeated\l&#45; m_lock\l&#45; m_thread\l|+ GameClock()\l+ ~GameClock()\l+ createDefferedTask()\l+ createRepeatedTask()\l&#45; clockLoop()\l}">
<polygon fill="none" stroke="#000000" points="505.5,-193.5 505.5,-327.5 639.5,-327.5 639.5,-193.5 505.5,-193.5"/>
<text text-anchor="middle" x="572.5" y="-315.5" font-family="Helvetica,sans-Serif" font-size="10.00" fill="#000000">GameClock</text>
<polyline fill="none" stroke="#000000" points="505.5,-308.5 639.5,-308.5 "/>
<text text-anchor="start" x="513.5" y="-296.5" font-family="Helvetica,sans-Serif" font-size="10.00" fill="#000000">&#45; m_Deffered</text>
<text text-anchor="start" x="513.5" y="-285.5" font-family="Helvetica,sans-Serif" font-size="10.00" fill="#000000">&#45; m_Repeated</text>
<text text-anchor="start" x="513.5" y="-274.5" font-family="Helvetica,sans-Serif" font-size="10.00" fill="#000000">&#45; m_lock</text>
<text text-anchor="start" x="513.5" y="-263.5" font-family="Helvetica,sans-Serif" font-size="10.00" fill="#000000">&#45; m_thread</text>
<polyline fill="none" stroke="#000000" points="505.5,-256.5 639.5,-256.5 "/>
<text text-anchor="start" x="513.5" y="-244.5" font-family="Helvetica,sans-Serif" font-size="10.00" fill="#000000">+ GameClock()</text>
<text text-anchor="start" x="513.5" y="-233.5" font-family="Helvetica,sans-Serif" font-size="10.00" fill="#000000">+ ~GameClock()</text>
<text text-anchor="start" x="513.5" y="-222.5" font-family="Helvetica,sans-Serif" font-size="10.00" fill="#000000">+ createDefferedTask()</text>
<text text-anchor="start" x="513.5" y="-211.5" font-family="Helvetica,sans-Serif" font-size="10.00" fill="#000000">+ createRepeatedTask()</text>
<text text-anchor="start" x="513.5" y="-200.5" font-family="Helvetica,sans-Serif" font-size="10.00" fill="#000000">&#45; clockLoop()</text>
</a>
</g>
</g>
<!-- Node6&#45;&gt;Node12 -->
<g id="edge14" class="edge">
<title>Node6&#45;&gt;Node12</title>
<path fill="none" stroke="#191970" d="M458.353,-412.1748C476.9338,-387.4852 500.796,-355.7779 521.8948,-327.7425"/>
<polygon fill="none" stroke="#191970" points="455.4825,-410.1685 452.2658,-420.2633 461.0755,-414.3778 455.4825,-410.1685"/>
</g>
<!-- Node7 -->
<g id="node7" class="node">
<title>Node7</title>
<g id="a_node7"><a xlink:href="structTupleType.html" target="_top" xlink:title="{TupleType\&lt; TypeList \&gt;\n||}">
<polygon fill="none" stroke="#000000" points="363,-657.5 363,-714.5 490,-714.5 490,-657.5 363,-657.5"/>
<text text-anchor="middle" x="426.5" y="-702.5" font-family="Helvetica,sans-Serif" font-size="10.00" fill="#000000">TupleType&lt; TypeList &gt;</text>
<polyline fill="none" stroke="#000000" points="363,-695.5 490,-695.5 "/>
<text text-anchor="middle" x="426.5" y="-683.5" font-family="Helvetica,sans-Serif" font-size="10.00" fill="#000000"> </text>
<polyline fill="none" stroke="#000000" points="363,-676.5 490,-676.5 "/>
<text text-anchor="middle" x="426.5" y="-664.5" font-family="Helvetica,sans-Serif" font-size="10.00" fill="#000000"> </text>
</a>
</g>
</g>
<!-- Node7&#45;&gt;Node6 -->
<g id="edge6" class="edge">
<title>Node7&#45;&gt;Node6</title>
<path fill="none" stroke="#404040" d="M426.5,-657.1484C426.5,-617.9559 426.5,-547.4401 426.5,-500.7975"/>
<polygon fill="none" stroke="#404040" points="426.5001,-500.6129 422.5,-494.613 426.5,-488.6129 430.5,-494.6129 426.5001,-500.6129"/>
<text text-anchor="middle" x="458.5" y="-570.5" font-family="Helvetica,sans-Serif" font-size="10.00" fill="#000000"> &#45;m_Services</text>
</g>
<!-- Node8 -->
<g id="node8" class="node">
<title>Node8</title>
<g id="a_node8"><a xlink:href="structTupleType.html" target="_top" xlink:title="TupleType::type returns std::tuple&lt;All fields inside the TypeList&gt; ">
<polygon fill="none" stroke="#000000" points="374.5,-817.5 374.5,-874.5 478.5,-874.5 478.5,-817.5 374.5,-817.5"/>
<text text-anchor="middle" x="426.5" y="-862.5" font-family="Helvetica,sans-Serif" font-size="10.00" fill="#000000">TupleType&lt; List &gt;</text>
<polyline fill="none" stroke="#000000" points="374.5,-855.5 478.5,-855.5 "/>
<text text-anchor="middle" x="426.5" y="-843.5" font-family="Helvetica,sans-Serif" font-size="10.00" fill="#000000"> </text>
<polyline fill="none" stroke="#000000" points="374.5,-836.5 478.5,-836.5 "/>
<text text-anchor="middle" x="426.5" y="-824.5" font-family="Helvetica,sans-Serif" font-size="10.00" fill="#000000"> </text>
</a>
</g>
</g>
<!-- Node8&#45;&gt;Node7 -->
<g id="edge7" class="edge">
<title>Node8&#45;&gt;Node7</title>
<path fill="none" stroke="#ffa500" d="M426.5,-807.3476C426.5,-778.7723 426.5,-740.491 426.5,-714.6264"/>
<polygon fill="#ffa500" stroke="#ffa500" points="423.0001,-807.3952 426.5,-817.3952 430.0001,-807.3952 423.0001,-807.3952"/>
<text text-anchor="middle" x="459.5" y="-791" font-family="Helvetica,sans-Serif" font-size="10.00" fill="#000000"> &lt; TypeList &gt;</text>
</g>
<!-- Node9&#45;&gt;Node1 -->
<g id="edge8" class="edge">
<title>Node9&#45;&gt;Node1</title>
<path fill="none" stroke="#404040" d="M412.4643,-215.1919C406.3191,-198.4705 398.2612,-179.7691 388.5,-164 382.4356,-154.203 375.2652,-144.4768 367.7287,-135.2304"/>
<polygon fill="none" stroke="#404040" points="367.5039,-134.9635 360.5792,-132.9513 359.7732,-125.7854 366.6979,-127.7975 367.5039,-134.9635"/>
<text text-anchor="middle" x="449" y="-167" font-family="Helvetica,sans-Serif" font-size="10.00" fill="#000000"> &#45;m_ResourceManager</text>
</g>
<!-- Node10 -->
<g id="node10" class="node">
<title>Node10</title>
<g id="a_node10"><a xlink:href="classGameLoopMQ.html" target="_top" xlink:title="Game loop Actor&#39;s message queue. ">
<polygon fill="none" stroke="#000000" points="150,-232 150,-289 235,-289 235,-232 150,-232"/>
<text text-anchor="middle" x="192.5" y="-277" font-family="Helvetica,sans-Serif" font-size="10.00" fill="#000000">GameLoopMQ</text>
<polyline fill="none" stroke="#000000" points="150,-270 235,-270 "/>
<text text-anchor="middle" x="192.5" y="-258" font-family="Helvetica,sans-Serif" font-size="10.00" fill="#000000"> </text>
<polyline fill="none" stroke="#000000" points="150,-251 235,-251 "/>
<text text-anchor="middle" x="192.5" y="-239" font-family="Helvetica,sans-Serif" font-size="10.00" fill="#000000"> </text>
</a>
</g>
</g>
<!-- Node10&#45;&gt;Node1 -->
<g id="edge10" class="edge">
<title>Node10&#45;&gt;Node1</title>
<path fill="none" stroke="#404040" d="M192.4427,-231.9135C193.5108,-211.8371 197.2403,-184.9398 208.5,-164 217.4298,-147.3932 230.5562,-132.1649 244.318,-119.1119"/>
<polygon fill="none" stroke="#404040" points="244.5293,-118.9201 246.2842,-111.9258 253.4155,-110.8556 251.6606,-117.8499 244.5293,-118.9201"/>
<text text-anchor="middle" x="254" y="-167" font-family="Helvetica,sans-Serif" font-size="10.00" fill="#000000"> &#45;m_GameLoopMQ</text>
</g>
<!-- Node11&#45;&gt;Node10 -->
<g id="edge11" class="edge">
<title>Node11&#45;&gt;Node10</title>
<path fill="none" stroke="#191970" d="M223.927,-355.763C215.8975,-331.4235 207.9161,-307.2299 202.0059,-289.3147"/>
<polygon fill="none" stroke="#191970" points="220.6656,-357.0491 227.1224,-365.4491 227.3132,-354.856 220.6656,-357.0491"/>
</g>
<!-- Node12&#45;&gt;Node1 -->
<g id="edge13" class="edge">
<title>Node12&#45;&gt;Node1</title>
<path fill="none" stroke="#404040" d="M534.3195,-193.1584C526.3743,-182.547 517.3745,-172.3439 507.5,-164 467.6509,-130.3281 413.3117,-106.7275 371.179,-92.0125"/>
<polygon fill="none" stroke="#404040" points="371.0047,-91.9534 364.0375,-93.8129 359.6413,-88.0968 366.6086,-86.2373 371.0047,-91.9534"/>
<text text-anchor="middle" x="558" y="-167" font-family="Helvetica,sans-Serif" font-size="10.00" fill="#000000"> &#45;m_GameClock</text>
</g>
</g>
</svg>
        <g id="navigator" transform="translate(0 0)" fill="#404254">
                <rect fill="#f2f5e9" fill-opacity="0.5" stroke="#606060" stroke-width=".5" x="0" y="0" width="60" height="60"/>
                <use id="zoomplus" xlink:href="#zoomPlus" x="17" y="9" onmousedown="handleZoom(evt,'in')"/>
                <use id="zoomminus" xlink:href="#zoomMin" x="42" y="9" onmousedown="handleZoom(evt,'out')"/>
                <use id="reset" xlink:href="#resetDef" x="30" y="36" onmousedown="handleReset()"/>
                <g id="arrowUp" xlink:href="#dirArrow" transform="translate(30 24)" onmousedown="handlePan(0,-1)">
                  <use xlink:href="#rim" fill="#404040">
                        <set attributeName="fill" to="#808080" begin="arrowUp.mouseover" end="arrowUp.mouseout"/>
                  </use>
                  <path fill="none" stroke="white" stroke-width="1.5" d="M0,-3.0v7 M-2.5,-0.5L0,-3.0L2.5,-0.5"/>
                </g>
                <g id="arrowRight" xlink:href="#dirArrow" transform="rotate(90) translate(36 -43)" onmousedown="handlePan(1,0)">
                  <use xlink:href="#rim" fill="#404040">
                        <set attributeName="fill" to="#808080" begin="arrowRight.mouseover" end="arrowRight.mouseout"/>
                  </use>
                  <path fill="none" stroke="white" stroke-width="1.5" d="M0,-3.0v7 M-2.5,-0.5L0,-3.0L2.5,-0.5"/>
                </g>
                <g id="arrowDown" xlink:href="#dirArrow" transform="rotate(180) translate(-30 -48)" onmousedown="handlePan(0,1)">
                  <use xlink:href="#rim" fill="#404040">
                        <set attributeName="fill" to="#808080" begin="arrowDown.mouseover" end="arrowDown.mouseout"/>
                  </use>
                  <path fill="none" stroke="white" stroke-width="1.5" d="M0,-3.0v7 M-2.5,-0.5L0,-3.0L2.5,-0.5"/>
                </g>
                <g id="arrowLeft" xlink:href="#dirArrow" transform="rotate(270) translate(-36 17)" onmousedown="handlePan(-1,0)">
                  <use xlink:href="#rim" fill="#404040">
                        <set attributeName="fill" to="#808080" begin="arrowLeft.mouseover" end="arrowLeft.mouseout"/>
                  </use>
                  <path fill="none" stroke="white" stroke-width="1.5" d="M0,-3.0v7 M-2.5,-0.5L0,-3.0L2.5,-0.5"/>
                </g>
        </g>
        <svg viewBox="0 0 15 15" width="100%" height="30px" preserveAspectRatio="xMaxYMin meet">
         <g id="arrow_out" transform="scale(0.3 0.3)">
          <a xlink:href="classGame__coll__graph_org.svg" target="_base">
           <rect id="button" ry="5" rx="5" y="6" x="6" height="38" width="38"
                fill="#f2f5e9" fill-opacity="0.5" stroke="#606060" stroke-width="1.0"/>
           <path id="arrow"
             d="M 11.500037,31.436501 C 11.940474,20.09759 22.043105,11.32322 32.158766,21.979434 L 37.068811,17.246167 C 37.068811,17.246167 37.088388,32 37.088388,32 L 22.160133,31.978069 C 22.160133,31.978069 26.997745,27.140456 26.997745,27.140456 C 18.528582,18.264221 13.291696,25.230495 11.500037,31.436501 z"
             style="fill:#404040;"/>
          </a>
         </g>
        </svg>
</svg>
