<?xml version="1.0" encoding="UTF-8" standalone="no"?>
<!DOCTYPE svg PUBLIC "-//W3C//DTD SVG 1.1//EN"
 "http://www.w3.org/Graphics/SVG/1.1/DTD/svg11.dtd">
<!-- Generated by graphviz version 2.40.1 (20161225.0304)
 -->
<!-- Title: UIElement::getUiElementRect Pages: 1 -->
<svg width="998pt" height="211pt"
 viewBox="0.00 0.00 998.00 211.00" xmlns="http://www.w3.org/2000/svg" xmlns:xlink="http://www.w3.org/1999/xlink">
<g id="graph0" class="graph" transform="scale(1 1) rotate(0) translate(4 207)">
<title>UIElement::getUiElementRect</title>
<!-- Node123 -->
<g id="node1" class="node">
<title>Node123</title>
<polygon fill="#bfbfbf" stroke="#000000" points="0,-66.5 0,-85.5 161,-85.5 161,-66.5 0,-66.5"/>
<text text-anchor="middle" x="80.5" y="-73.5" font-family="Helvetica,sans-Serif" font-size="10.00" fill="#000000">UIElement::getUiElementRect</text>
</g>
<!-- Node124 -->
<g id="node2" class="node">
<title>Node124</title>
<g id="a_node2"><a xlink:href="classLayout.html#a99004e4afcea6a945e3890b19cce6236" target="_top" xlink:title="Arrange Elements that are aligned to a parent This is a seperate function, so it can recurse if a par...">
<polygon fill="none" stroke="#000000" points="197,-126.5 197,-145.5 361,-145.5 361,-126.5 197,-126.5"/>
<text text-anchor="middle" x="279" y="-133.5" font-family="Helvetica,sans-Serif" font-size="10.00" fill="#000000">Layout::arrangeChildElements</text>
</a>
</g>
</g>
<!-- Node123&#45;&gt;Node124 -->
<g id="edge1" class="edge">
<title>Node123&#45;&gt;Node124</title>
<path fill="none" stroke="#191970" d="M114.8945,-89.233C137.9203,-97.8116 169.0221,-108.8626 197,-117 208.7867,-120.4282 221.667,-123.6523 233.6542,-126.4371"/>
<polygon fill="#191970" stroke="#191970" points="115.8312,-85.8461 105.2391,-85.6045 113.3687,-92.3987 115.8312,-85.8461"/>
</g>
<!-- Node132 -->
<g id="node10" class="node">
<title>Node132</title>
<g id="a_node10"><a xlink:href="classTextField.html#abe03b4b6ebf469645940cfa018bcdca2" target="_top" xlink:title="TextField::addText">
<polygon fill="none" stroke="#000000" points="227,-88.5 227,-107.5 331,-107.5 331,-88.5 227,-88.5"/>
<text text-anchor="middle" x="279" y="-95.5" font-family="Helvetica,sans-Serif" font-size="10.00" fill="#000000">TextField::addText</text>
</a>
</g>
</g>
<!-- Node123&#45;&gt;Node132 -->
<g id="edge11" class="edge">
<title>Node123&#45;&gt;Node132</title>
<path fill="none" stroke="#191970" d="M171.4152,-86.0762C190.3956,-88.1799 209.7853,-90.3289 226.7816,-92.2126"/>
<polygon fill="#191970" stroke="#191970" points="171.5623,-82.5712 161.2375,-84.9482 170.7911,-89.5286 171.5623,-82.5712"/>
</g>
<!-- Node133 -->
<g id="node11" class="node">
<title>Node133</title>
<g id="a_node11"><a xlink:href="classUIManager.html#a007e9b56a4835b98db2b203df96ea79d" target="_top" xlink:title="Draws the tile (defined by the string, tiledata pair) onto the button. ">
<polygon fill="none" stroke="#000000" points="203,-39 203,-69 355,-69 355,-39 203,-39"/>
<text text-anchor="start" x="211" y="-57" font-family="Helvetica,sans-Serif" font-size="10.00" fill="#000000">UIManager::setupButtonTile</text>
<text text-anchor="middle" x="279" y="-46" font-family="Helvetica,sans-Serif" font-size="10.00" fill="#000000">Image</text>
</a>
</g>
</g>
<!-- Node123&#45;&gt;Node133 -->
<g id="edge12" class="edge">
<title>Node123&#45;&gt;Node133</title>
<path fill="none" stroke="#191970" d="M171.2904,-65.9376C181.833,-64.7691 192.5038,-63.5865 202.8224,-62.4429"/>
<polygon fill="#191970" stroke="#191970" points="170.7911,-62.4714 161.2375,-67.0518 171.5623,-69.4288 170.7911,-62.4714"/>
</g>
<!-- Node135 -->
<g id="node13" class="node">
<title>Node135</title>
<g id="a_node13"><a xlink:href="classGame.html#a5ed7fc5be77080f7f6dd5363f7f007a1" target="_top" xlink:title="initializes and displays the main menu initializes and displays the main menu ">
<polygon fill="none" stroke="#000000" points="227.5,-.5 227.5,-19.5 330.5,-19.5 330.5,-.5 227.5,-.5"/>
<text text-anchor="middle" x="279" y="-7.5" font-family="Helvetica,sans-Serif" font-size="10.00" fill="#000000">Game::mainMenu</text>
</a>
</g>
</g>
<!-- Node123&#45;&gt;Node135 -->
<g id="edge14" class="edge">
<title>Node123&#45;&gt;Node135</title>
<path fill="none" stroke="#191970" d="M110.9291,-62.2026C134.1615,-52.0433 167.153,-38.4154 197,-29 208.2884,-25.439 220.6426,-22.2293 232.2581,-19.5051"/>
<polygon fill="#191970" stroke="#191970" points="109.3395,-59.0785 101.6075,-66.3218 112.1689,-65.4812 109.3395,-59.0785"/>
</g>
<!-- Node125 -->
<g id="node3" class="node">
<title>Node125</title>
<g id="a_node3"><a xlink:href="classLayout.html#afa734c5af10f59f3dadb066054fe81ab" target="_top" xlink:title="Arrange the layout elements. ">
<polygon fill="none" stroke="#000000" points="406,-126.5 406,-145.5 545,-145.5 545,-126.5 406,-126.5"/>
<text text-anchor="middle" x="475.5" y="-133.5" font-family="Helvetica,sans-Serif" font-size="10.00" fill="#000000">Layout::arrangeElements</text>
</a>
</g>
</g>
<!-- Node124&#45;&gt;Node125 -->
<g id="edge2" class="edge">
<title>Node124&#45;&gt;Node125</title>
<path fill="none" stroke="#191970" d="M371.335,-136C382.9242,-136 394.6236,-136 405.785,-136"/>
<polygon fill="#191970" stroke="#191970" points="371.1952,-132.5001 361.1951,-136 371.1951,-139.5001 371.1952,-132.5001"/>
</g>
<!-- Node126 -->
<g id="node4" class="node">
<title>Node126</title>
<g id="a_node4"><a xlink:href="UIManager_8cxx.html#a93ebc51d97942bf4e32123b5c61c4141" target="_top" xlink:title="BETTER_ENUM">
<polygon fill="none" stroke="#000000" points="638.5,-183.5 638.5,-202.5 727.5,-202.5 727.5,-183.5 638.5,-183.5"/>
<text text-anchor="middle" x="683" y="-190.5" font-family="Helvetica,sans-Serif" font-size="10.00" fill="#000000">BETTER_ENUM</text>
</a>
</g>
</g>
<!-- Node125&#45;&gt;Node126 -->
<g id="edge3" class="edge">
<title>Node125&#45;&gt;Node126</title>
<path fill="none" stroke="#191970" d="M511.06,-149.0157C533.4997,-156.9253 563.2071,-166.8443 590,-174 605.6029,-178.1671 622.8885,-181.9282 638.282,-184.9834"/>
<polygon fill="#191970" stroke="#191970" points="512.2031,-145.7075 501.6084,-145.6517 509.8559,-152.3022 512.2031,-145.7075"/>
</g>
<!-- Node127 -->
<g id="node5" class="node">
<title>Node127</title>
<g id="a_node5"><a xlink:href="classUIManager.html#a3ccb2fc669262f18ebdcdf3d5c43a3e8" target="_top" xlink:title="CallbackFunction that sets the Build Menu Position Used as callback function for the ComboBox that ho...">
<polygon fill="none" stroke="#000000" points="593,-145.5 593,-164.5 773,-164.5 773,-145.5 593,-145.5"/>
<text text-anchor="middle" x="683" y="-152.5" font-family="Helvetica,sans-Serif" font-size="10.00" fill="#000000">UIManager::setBuildMenuPosition</text>
</a>
</g>
</g>
<!-- Node125&#45;&gt;Node127 -->
<g id="edge4" class="edge">
<title>Node125&#45;&gt;Node127</title>
<path fill="none" stroke="#191970" d="M555.3597,-143.3125C567.6397,-144.4369 580.3919,-145.6046 592.8763,-146.7477"/>
<polygon fill="#191970" stroke="#191970" points="555.4493,-139.8061 545.1717,-142.3796 554.8109,-146.7769 555.4493,-139.8061"/>
</g>
<!-- Node129 -->
<g id="node7" class="node">
<title>Node129</title>
<g id="a_node7"><a xlink:href="classUIManager.html#ac927e1cd3dea979202ea9dbf1195b583" target="_top" xlink:title="UIManager::changeResolution">
<polygon fill="none" stroke="#000000" points="602.5,-69.5 602.5,-88.5 763.5,-88.5 763.5,-69.5 602.5,-69.5"/>
<text text-anchor="middle" x="683" y="-76.5" font-family="Helvetica,sans-Serif" font-size="10.00" fill="#000000">UIManager::changeResolution</text>
</a>
</g>
</g>
<!-- Node125&#45;&gt;Node129 -->
<g id="edge6" class="edge">
<title>Node125&#45;&gt;Node129</title>
<path fill="none" stroke="#191970" d="M511.06,-122.9843C533.4997,-115.0747 563.2071,-105.1557 590,-98 603.0555,-94.5132 617.2891,-91.3107 630.6066,-88.5682"/>
<polygon fill="#191970" stroke="#191970" points="509.8559,-119.6978 501.6084,-126.3483 512.2031,-126.2925 509.8559,-119.6978"/>
</g>
<!-- Node131 -->
<g id="node9" class="node">
<title>Node131</title>
<g id="a_node9"><a xlink:href="classUIManager.html#af2ffb4ee45e57152164643ef6cddda37" target="_top" xlink:title="UIManager::changeFullScreenMode">
<polygon fill="none" stroke="#000000" points="590,-107.5 590,-126.5 776,-126.5 776,-107.5 590,-107.5"/>
<text text-anchor="middle" x="683" y="-114.5" font-family="Helvetica,sans-Serif" font-size="10.00" fill="#000000">UIManager::changeFullScreenMode</text>
</a>
</g>
</g>
<!-- Node125&#45;&gt;Node131 -->
<g id="edge9" class="edge">
<title>Node125&#45;&gt;Node131</title>
<path fill="none" stroke="#191970" d="M555.4163,-128.6824C566.7115,-127.6481 578.4051,-126.5774 589.9215,-125.5229"/>
<polygon fill="#191970" stroke="#191970" points="554.8109,-125.2231 545.1717,-129.6204 555.4493,-132.1939 554.8109,-125.2231"/>
</g>
<!-- Node128 -->
<g id="node6" class="node">
<title>Node128</title>
<g id="a_node6"><a xlink:href="classUIManager.html#a5c4cb8e02504ffa0d3faf45181feab9d" target="_top" xlink:title="Fill UI Widgets whose ID start with a $ with data Used for filling widgets with data, like BuildMenu Position combobox, Screen Resolution ComboBox and so on. ">
<polygon fill="none" stroke="#000000" points="828,-105 828,-135 974,-135 974,-105 828,-105"/>
<text text-anchor="start" x="836" y="-123" font-family="Helvetica,sans-Serif" font-size="10.00" fill="#000000">UIManager::initializeDollar</text>
<text text-anchor="middle" x="901" y="-112" font-family="Helvetica,sans-Serif" font-size="10.00" fill="#000000">Variables</text>
</a>
</g>
</g>
<!-- Node127&#45;&gt;Node128 -->
<g id="edge5" class="edge">
<title>Node127&#45;&gt;Node128</title>
<path fill="none" stroke="#191970" d="M752.378,-143.8613C776.3995,-140.0047 803.3928,-135.6709 827.7179,-131.7655"/>
<polygon fill="#191970" stroke="#191970" points="751.6002,-140.4413 742.2815,-145.4823 752.7099,-147.3528 751.6002,-140.4413"/>
</g>
<!-- Node129&#45;&gt;Node128 -->
<g id="edge8" class="edge">
<title>Node129&#45;&gt;Node128</title>
<path fill="none" stroke="#191970" d="M743.7056,-90.4171C769.8423,-95.3327 800.6226,-101.1217 827.9923,-106.2692"/>
<polygon fill="#191970" stroke="#191970" points="744.0362,-86.918 733.5615,-88.5093 742.7423,-93.7974 744.0362,-86.918"/>
</g>
<!-- Node130 -->
<g id="node8" class="node">
<title>Node130</title>
<g id="a_node8"><a xlink:href="classUIManager.html#aa78e356fc3b356d790c848319d1c387e" target="_top" xlink:title="UIManager::setCallbackFunctions">
<polygon fill="none" stroke="#000000" points="812,-66.5 812,-85.5 990,-85.5 990,-66.5 812,-66.5"/>
<text text-anchor="middle" x="901" y="-73.5" font-family="Helvetica,sans-Serif" font-size="10.00" fill="#000000">UIManager::setCallbackFunctions</text>
</a>
</g>
</g>
<!-- Node129&#45;&gt;Node130 -->
<g id="edge7" class="edge">
<title>Node129&#45;&gt;Node130</title>
<path fill="none" stroke="#191970" d="M773.6341,-77.7527C786.309,-77.5783 799.3251,-77.3992 811.9699,-77.2252"/>
<polygon fill="#191970" stroke="#191970" points="773.5066,-74.2541 763.5558,-77.8914 773.603,-81.2534 773.5066,-74.2541"/>
</g>
<!-- Node131&#45;&gt;Node128 -->
<g id="edge10" class="edge">
<title>Node131&#45;&gt;Node128</title>
<path fill="none" stroke="#191970" d="M786.3047,-118.4216C800.3906,-118.6155 814.6036,-118.8111 827.9995,-118.9954"/>
<polygon fill="#191970" stroke="#191970" points="786.1312,-114.919 776.084,-118.281 786.0348,-121.9183 786.1312,-114.919"/>
</g>
<!-- Node134 -->
<g id="node12" class="node">
<title>Node134</title>
<g id="a_node12"><a xlink:href="classUIManager.html#aae7a89e9d50bb6192e4140e07bd5f94b" target="_top" xlink:title="UIManager::createBuildMenu">
<polygon fill="none" stroke="#000000" points="397,-44.5 397,-63.5 554,-63.5 554,-44.5 397,-44.5"/>
<text text-anchor="middle" x="475.5" y="-51.5" font-family="Helvetica,sans-Serif" font-size="10.00" fill="#000000">UIManager::createBuildMenu</text>
</a>
</g>
</g>
<!-- Node133&#45;&gt;Node134 -->
<g id="edge13" class="edge">
<title>Node133&#45;&gt;Node134</title>
<path fill="none" stroke="#191970" d="M365.5416,-54C375.9061,-54 386.4469,-54 396.6938,-54"/>
<polygon fill="#191970" stroke="#191970" points="365.2533,-50.5001 355.2533,-54 365.2532,-57.5001 365.2533,-50.5001"/>
</g>
<!-- Node136 -->
<g id="node14" class="node">
<title>Node136</title>
<g id="a_node14"><a xlink:href="main_8cxx.html#af582d708d899e67ead623eac34a22387" target="_top" xlink:title="protected_main">
<polygon fill="none" stroke="#000000" points="429,-.5 429,-19.5 522,-19.5 522,-.5 429,-.5"/>
<text text-anchor="middle" x="475.5" y="-7.5" font-family="Helvetica,sans-Serif" font-size="10.00" fill="#000000">protected_main</text>
</a>
</g>
</g>
<!-- Node135&#45;&gt;Node136 -->
<g id="edge15" class="edge">
<title>Node135&#45;&gt;Node136</title>
<path fill="none" stroke="#191970" d="M340.8854,-10C369.3685,-10 402.5989,-10 428.9167,-10"/>
<polygon fill="#191970" stroke="#191970" points="340.6281,-6.5001 330.6281,-10 340.628,-13.5001 340.6281,-6.5001"/>
</g>
<!-- Node137 -->
<g id="node15" class="node">
<title>Node137</title>
<g id="a_node15"><a xlink:href="main_8cxx.html#a3c04138a5bfe5d72780bb7e82a18e627" target="_top" xlink:title="main">
<polygon fill="none" stroke="#000000" points="662.5,-.5 662.5,-19.5 703.5,-19.5 703.5,-.5 662.5,-.5"/>
<text text-anchor="middle" x="683" y="-7.5" font-family="Helvetica,sans-Serif" font-size="10.00" fill="#000000">main</text>
</a>
</g>
</g>
<!-- Node136&#45;&gt;Node137 -->
<g id="edge16" class="edge">
<title>Node136&#45;&gt;Node137</title>
<path fill="none" stroke="#191970" d="M532.1659,-10C575.3508,-10 632.3489,-10 662.4052,-10"/>
<polygon fill="#191970" stroke="#191970" points="532.0671,-6.5001 522.0671,-10 532.067,-13.5001 532.0671,-6.5001"/>
</g>
</g>
</svg>
