<?xml version="1.0" encoding="UTF-8" standalone="no"?>
<!DOCTYPE svg PUBLIC "-//W3C//DTD SVG 1.1//EN"
 "http://www.w3.org/Graphics/SVG/1.1/DTD/svg11.dtd">
<!-- Generated by graphviz version 2.40.1 (20161225.0304)
 -->
<!-- Title: Tooltip::startTimer Pages: 1 -->
<svg width="475pt" height="88pt"
 viewBox="0.00 0.00 475.00 88.00" xmlns="http://www.w3.org/2000/svg" xmlns:xlink="http://www.w3.org/1999/xlink">
<g id="graph0" class="graph" transform="scale(1 1) rotate(0) translate(4 84)">
<title>Tooltip::startTimer</title>
<!-- Node23 -->
<g id="node1" class="node">
<title>Node23</title>
<polygon fill="#bfbfbf" stroke="#000000" points="0,-41.5 0,-60.5 106,-60.5 106,-41.5 0,-41.5"/>
<text text-anchor="middle" x="53" y="-48.5" font-family="Helvetica,sans-Serif" font-size="10.00" fill="#000000">Tooltip::startTimer</text>
</g>
<!-- Node24 -->
<g id="node2" class="node">
<title>Node24</title>
<g id="a_node2"><a xlink:href="classUIElement.html#a440d645aa10dbf7d3c763ba6e1fc33a6" target="_top" xlink:title="Sets the UI Elements visibility. Set the UI Elements visibility. ">
<polygon fill="none" stroke="#000000" points="142,-60.5 142,-79.5 273,-79.5 273,-60.5 142,-60.5"/>
<text text-anchor="middle" x="207.5" y="-67.5" font-family="Helvetica,sans-Serif" font-size="10.00" fill="#000000">UIElement::setVisibility</text>
</a>
</g>
</g>
<!-- Node23&#45;&gt;Node24 -->
<g id="edge1" class="edge">
<title>Node23&#45;&gt;Node24</title>
<path fill="none" stroke="#191970" d="M106.1701,-57.5387C114.4516,-58.5572 123.1432,-59.626 131.8087,-60.6917"/>
<polygon fill="#191970" stroke="#191970" points="131.5906,-64.1912 141.9431,-61.938 132.4451,-57.2435 131.5906,-64.1912"/>
</g>
<!-- Node25 -->
<g id="node3" class="node">
<title>Node25</title>
<g id="a_node3"><a xlink:href="classTimer.html#a3a8b5272198d029779dc9302a54305a8" target="_top" xlink:title="Start / Reset the timer Starts or restarts the timer. If the timer is already running, it will be stopped and restarted. ">
<polygon fill="none" stroke="#000000" points="170.5,-22.5 170.5,-41.5 244.5,-41.5 244.5,-22.5 170.5,-22.5"/>
<text text-anchor="middle" x="207.5" y="-29.5" font-family="Helvetica,sans-Serif" font-size="10.00" fill="#000000">Timer::start</text>
</a>
</g>
</g>
<!-- Node23&#45;&gt;Node25 -->
<g id="edge2" class="edge">
<title>Node23&#45;&gt;Node25</title>
<path fill="none" stroke="#191970" d="M106.1701,-44.4613C123.6631,-42.31 142.9866,-39.9337 160.0274,-37.8381"/>
<polygon fill="#191970" stroke="#191970" points="160.808,-41.2685 170.306,-36.574 159.9536,-34.3209 160.808,-41.2685"/>
</g>
<!-- Node26 -->
<g id="node4" class="node">
<title>Node26</title>
<g id="a_node4"><a xlink:href="classSingleton.html#af5cb1e5749949e2b68416cfb8d378044" target="_top" xlink:title="Get an instance of the singleton. ">
<polygon fill="none" stroke="#000000" points="316.5,-39 316.5,-69 459.5,-69 459.5,-39 316.5,-39"/>
<text text-anchor="start" x="324.5" y="-57" font-family="Helvetica,sans-Serif" font-size="10.00" fill="#000000">Singleton&lt; EventManager</text>
<text text-anchor="middle" x="388" y="-46" font-family="Helvetica,sans-Serif" font-size="10.00" fill="#000000"> &gt;::instance</text>
</a>
</g>
</g>
<!-- Node25&#45;&gt;Node26 -->
<g id="edge3" class="edge">
<title>Node25&#45;&gt;Node26</title>
<path fill="none" stroke="#191970" d="M244.8997,-36.5584C262.7284,-38.7314 284.8056,-41.4223 306.2386,-44.0346"/>
<polygon fill="#191970" stroke="#191970" points="306.0037,-47.5318 316.3537,-45.2675 306.8507,-40.5832 306.0037,-47.5318"/>
</g>
<!-- Node27 -->
<g id="node5" class="node">
<title>Node27</title>
<g id="a_node5"><a xlink:href="classEventManager.html#a6b80b0ed9a39bf7c1978fb6707cacd06" target="_top" xlink:title="EventManager::registerTimer">
<polygon fill="none" stroke="#000000" points="309,-.5 309,-19.5 467,-19.5 467,-.5 309,-.5"/>
<text text-anchor="middle" x="388" y="-7.5" font-family="Helvetica,sans-Serif" font-size="10.00" fill="#000000">EventManager::registerTimer</text>
</a>
</g>
</g>
<!-- Node25&#45;&gt;Node27 -->
<g id="edge4" class="edge">
<title>Node25&#45;&gt;Node27</title>
<path fill="none" stroke="#191970" d="M244.8997,-27.4416C260.9035,-25.491 280.3307,-23.1231 299.6424,-20.7694"/>
<polygon fill="#191970" stroke="#191970" points="300.2088,-24.2263 309.7118,-19.542 299.3618,-17.2777 300.2088,-24.2263"/>
</g>
</g>
</svg>
