<?xml version="1.0" encoding="UTF-8" standalone="no"?>
<!DOCTYPE svg PUBLIC "-//W3C//DTD SVG 1.1//EN"
 "http://www.w3.org/Graphics/SVG/1.1/DTD/svg11.dtd">
<!-- Generated by graphviz version 2.40.1 (20161225.0304)
 -->
<!-- Title: Map::isLayerAutoTile Pages: 1 -->
<svg width="1709pt" height="385pt"
 viewBox="0.00 0.00 1709.00 384.69" xmlns="http://www.w3.org/2000/svg" xmlns:xlink="http://www.w3.org/1999/xlink">
<g id="graph0" class="graph" transform="scale(1 1) rotate(0) translate(4 380.687)">
<title>Map::isLayerAutoTile</title>
<!-- Node332 -->
<g id="node1" class="node">
<title>Node332</title>
<polygon fill="#bfbfbf" stroke="#000000" points="0,-71.5 0,-90.5 119,-90.5 119,-71.5 0,-71.5"/>
<text text-anchor="middle" x="59.5" y="-78.5" font-family="Helvetica,sans-Serif" font-size="10.00" fill="#000000">Map::isLayerAutoTile</text>
</g>
<!-- Node333 -->
<g id="node2" class="node">
<title>Node333</title>
<g id="a_node2"><a xlink:href="classMap.html#a3f5c7dd50cdc712e1ef18047cf619888" target="_top" xlink:title="Get a bitmask that represents same&#45;tile neighbors Checks all neighboring tiles and returns the elevat...">
<polygon fill="none" stroke="#000000" points="155,-90.5 155,-109.5 321,-109.5 321,-90.5 155,-90.5"/>
<text text-anchor="middle" x="238" y="-97.5" font-family="Helvetica,sans-Serif" font-size="10.00" fill="#000000">Map::calculateAutotileBitmask</text>
</a>
</g>
</g>
<!-- Node332&#45;&gt;Node333 -->
<g id="edge1" class="edge">
<title>Node332&#45;&gt;Node333</title>
<path fill="none" stroke="#191970" d="M129.429,-88.4434C137.7349,-89.3275 146.2754,-90.2366 154.7436,-91.138"/>
<polygon fill="#191970" stroke="#191970" points="129.7488,-84.9578 119.4345,-87.3796 129.0078,-91.9185 129.7488,-84.9578"/>
</g>
<!-- Node355 -->
<g id="node24" class="node">
<title>Node355</title>
<g id="a_node24"><a xlink:href="classMap.html#acb3d2cbc4c68290c9622f31838bb51cf" target="_top" xlink:title="Map::getMapNode">
<polygon fill="none" stroke="#000000" points="186,-52.5 186,-71.5 290,-71.5 290,-52.5 186,-52.5"/>
<text text-anchor="middle" x="238" y="-59.5" font-family="Helvetica,sans-Serif" font-size="10.00" fill="#000000">Map::getMapNode</text>
</a>
</g>
</g>
<!-- Node332&#45;&gt;Node355 -->
<g id="edge41" class="edge">
<title>Node332&#45;&gt;Node355</title>
<path fill="none" stroke="#191970" d="M129.4522,-73.5541C148.2871,-71.5493 168.3262,-69.4163 185.9928,-67.5358"/>
<polygon fill="#191970" stroke="#191970" points="129.0078,-70.0815 119.4345,-74.6204 129.7488,-77.0422 129.0078,-70.0815"/>
</g>
<!-- Node334 -->
<g id="node3" class="node">
<title>Node334</title>
<g id="a_node3"><a xlink:href="classMap.html#a59d21f2688713fbcfe320eb1b24405ca" target="_top" xlink:title="Update mapNode and its adjacent tiles Updates mapNode height information, draws slopes for adjacent t...">
<polygon fill="none" stroke="#000000" points="357,-90.5 357,-109.5 520,-109.5 520,-90.5 357,-90.5"/>
<text text-anchor="middle" x="438.5" y="-97.5" font-family="Helvetica,sans-Serif" font-size="10.00" fill="#000000">Map::updateNeighborsOfNode</text>
</a>
</g>
</g>
<!-- Node333&#45;&gt;Node334 -->
<g id="edge2" class="edge">
<title>Node333&#45;&gt;Node334</title>
<path fill="none" stroke="#191970" d="M331.522,-100C339.951,-100 348.4437,-100 356.7603,-100"/>
<polygon fill="#191970" stroke="#191970" points="331.2882,-96.5001 321.2882,-100 331.2882,-103.5001 331.2882,-96.5001"/>
</g>
<!-- Node335 -->
<g id="node4" class="node">
<title>Node335</title>
<g id="a_node4"><a xlink:href="classMap.html#aba5154a4d917900679a3c0f7ec701561" target="_top" xlink:title="Increase Height Increases the height of the node and checks the surrounding tiles. Either draw a slope sprite or elevate the tile if necessary. ">
<polygon fill="none" stroke="#000000" points="716.5,-.5 716.5,-19.5 832.5,-19.5 832.5,-.5 716.5,-.5"/>
<text text-anchor="middle" x="774.5" y="-7.5" font-family="Helvetica,sans-Serif" font-size="10.00" fill="#000000">Map::increaseHeight</text>
</a>
</g>
</g>
<!-- Node334&#45;&gt;Node335 -->
<g id="edge3" class="edge">
<title>Node334&#45;&gt;Node335</title>
<path fill="none" stroke="#191970" d="M459.7282,-85.9678C483.1429,-75.5147 522.0118,-62.5242 556,-53 609.8802,-37.9016 672.0111,-23.3909 716.2131,-15.1383"/>
<polygon fill="#191970" stroke="#191970" points="457.9257,-82.9501 450.4145,-90.4222 460.946,-89.265 457.9257,-82.9501"/>
</g>
<!-- Node341 -->
<g id="node10" class="node">
<title>Node341</title>
<g id="a_node10"><a xlink:href="classMap.html#afb8cc864df90d273a5074872d635dc40" target="_top" xlink:title="Decrease Height Decreases the height of the node and checks the surrounding tiles. Either draw a slope sprite or lower the tile if necessary. ">
<polygon fill="none" stroke="#000000" points="715,-152.5 715,-171.5 834,-171.5 834,-152.5 715,-152.5"/>
<text text-anchor="middle" x="774.5" y="-159.5" font-family="Helvetica,sans-Serif" font-size="10.00" fill="#000000">Map::decreaseHeight</text>
</a>
</g>
</g>
<!-- Node334&#45;&gt;Node341 -->
<g id="edge10" class="edge">
<title>Node334&#45;&gt;Node341</title>
<path fill="none" stroke="#191970" d="M506.541,-112.1263C522.6494,-116.3232 539.8443,-120.6767 556,-124 619.7192,-137.1073 695.1653,-145.5949 738.6646,-152.4538"/>
<polygon fill="#191970" stroke="#191970" points="507.231,-108.6891 496.6707,-109.5441 505.4592,-115.4612 507.231,-108.6891"/>
</g>
<!-- Node343 -->
<g id="node12" class="node">
<title>Node343</title>
<g id="a_node12"><a xlink:href="classMap.html#a481b37ba71ef0e51e836fc42805762dd" target="_top" xlink:title="Update all mapNodes Updates all mapNode and its adjacent tiles regarding height information, draws slopes for adjacent tiles and sets tiling for mapNode sprite if applicable. ">
<polygon fill="none" stroke="#000000" points="556,-203.5 556,-222.5 676,-222.5 676,-203.5 556,-203.5"/>
<text text-anchor="middle" x="616" y="-210.5" font-family="Helvetica,sans-Serif" font-size="10.00" fill="#000000">Map::updateAllNodes</text>
</a>
</g>
</g>
<!-- Node334&#45;&gt;Node343 -->
<g id="edge14" class="edge">
<title>Node334&#45;&gt;Node343</title>
<path fill="none" stroke="#191970" d="M456.7989,-116.3539C479.0331,-135.6135 518.2674,-167.6765 556,-189 565.865,-194.5749 577.2852,-199.4866 587.4979,-203.3906"/>
<polygon fill="#191970" stroke="#191970" points="458.9757,-113.6077 449.1484,-109.6484 454.3617,-118.8719 458.9757,-113.6077"/>
</g>
<!-- Node352 -->
<g id="node21" class="node">
<title>Node352</title>
<g id="a_node21"><a xlink:href="classMap.html#a404c38b33d61f8c63ce2c2efb864d6dd" target="_top" xlink:title="Set the Tile ID Of Node object Also invokes all necessary texture updates (auto&#45;tiling, slopes, ...) ">
<polygon fill="none" stroke="#000000" points="877.5,-85.5 877.5,-104.5 1000.5,-104.5 1000.5,-85.5 877.5,-85.5"/>
<text text-anchor="middle" x="939" y="-92.5" font-family="Helvetica,sans-Serif" font-size="10.00" fill="#000000">Map::setTileIDOfNode</text>
</a>
</g>
</g>
<!-- Node334&#45;&gt;Node352 -->
<g id="edge40" class="edge">
<title>Node334&#45;&gt;Node352</title>
<path fill="none" stroke="#191970" d="M530.3327,-102.5055C611.1215,-104.2217 731.9013,-105.6021 837,-102 850.0386,-101.5531 863.9982,-100.7858 877.2752,-99.9189"/>
<polygon fill="#191970" stroke="#191970" points="530.2647,-99.0033 520.1906,-102.2839 530.1117,-106.0016 530.2647,-99.0033"/>
</g>
<!-- Node354 -->
<g id="node23" class="node">
<title>Node354</title>
<g id="a_node23"><a xlink:href="classMap.html#aa8cc2ed983007621bce12dd9d1b8ec5b" target="_top" xlink:title="Demolish a node This function gathers all tiles that should be demolished and invokes the nodes demol...">
<polygon fill="none" stroke="#000000" points="559.5,-71.5 559.5,-90.5 672.5,-90.5 672.5,-71.5 559.5,-71.5"/>
<text text-anchor="middle" x="616" y="-78.5" font-family="Helvetica,sans-Serif" font-size="10.00" fill="#000000">Map::demolishNode</text>
</a>
</g>
</g>
<!-- Node334&#45;&gt;Node354 -->
<g id="edge34" class="edge">
<title>Node334&#45;&gt;Node354</title>
<path fill="none" stroke="#191970" d="M485.3416,-88.9551C508.0364,-85.685 535.4769,-82.6442 559.3403,-80.7235"/>
<polygon fill="#191970" stroke="#191970" points="484.6454,-85.5204 475.2781,-90.4705 485.6878,-92.4423 484.6454,-85.5204"/>
</g>
<!-- Node335&#45;&gt;Node334 -->
<g id="edge9" class="edge">
<title>Node335&#45;&gt;Node334</title>
<path fill="none" stroke="#191970" d="M744.1747,-22.4274C701.8045,-34.5727 622.5993,-52.3375 556,-71 534.5299,-77.0164 511.1121,-84.4159 490.8726,-90.4785"/>
<polygon fill="#191970" stroke="#191970" points="745.29,-25.7472 753.8764,-19.5404 743.2934,-19.038 745.29,-25.7472"/>
</g>
<!-- Node336 -->
<g id="node5" class="node">
<title>Node336</title>
<g id="a_node5"><a xlink:href="classEngine.html#a4851ae1ff696c893741167fc0194fd77" target="_top" xlink:title="Increase Height Increases the height of the given map node Calls the according function of the Map ob...">
<polygon fill="none" stroke="#000000" points="1044.5,-.5 1044.5,-19.5 1173.5,-19.5 1173.5,-.5 1044.5,-.5"/>
<text text-anchor="middle" x="1109" y="-7.5" font-family="Helvetica,sans-Serif" font-size="10.00" fill="#000000">Engine::increaseHeight</text>
</a>
</g>
</g>
<!-- Node335&#45;&gt;Node336 -->
<g id="edge4" class="edge">
<title>Node335&#45;&gt;Node336</title>
<path fill="none" stroke="#191970" d="M843.098,-10C902.0523,-10 986.4566,-10 1044.2634,-10"/>
<polygon fill="#191970" stroke="#191970" points="842.7655,-6.5001 832.7655,-10 842.7654,-13.5001 842.7655,-6.5001"/>
</g>
<!-- Node337 -->
<g id="node6" class="node">
<title>Node337</title>
<g id="a_node6"><a xlink:href="classEventManager.html#a65ec91fd5016d4f9c4167fb8babed2df" target="_top" xlink:title="EventManager::checkEvents">
<polygon fill="none" stroke="#000000" points="1225,-95.5 1225,-114.5 1379,-114.5 1379,-95.5 1225,-95.5"/>
<text text-anchor="middle" x="1302" y="-102.5" font-family="Helvetica,sans-Serif" font-size="10.00" fill="#000000">EventManager::checkEvents</text>
</a>
</g>
</g>
<!-- Node336&#45;&gt;Node337 -->
<g id="edge5" class="edge">
<title>Node336&#45;&gt;Node337</title>
<path fill="none" stroke="#191970" d="M1149.0479,-22.8052C1158.3499,-26.1436 1168.1235,-29.9513 1177,-34 1218.3273,-52.8499 1264.0713,-80.7833 1287.064,-95.3572"/>
<polygon fill="#191970" stroke="#191970" points="1150.1771,-19.4924 1139.5823,-19.5059 1147.8731,-26.1024 1150.1771,-19.4924"/>
</g>
<!-- Node338 -->
<g id="node7" class="node">
<title>Node338</title>
<g id="a_node7"><a xlink:href="classGame.html#a1c2ab25d5216b2f4b2fe41efd2c09114" target="_top" xlink:title="begins the game starts running the game ">
<polygon fill="none" stroke="#000000" points="1427,-152.5 1427,-171.5 1495,-171.5 1495,-152.5 1427,-152.5"/>
<text text-anchor="middle" x="1461" y="-159.5" font-family="Helvetica,sans-Serif" font-size="10.00" fill="#000000">Game::run</text>
</a>
</g>
</g>
<!-- Node337&#45;&gt;Node338 -->
<g id="edge6" class="edge">
<title>Node337&#45;&gt;Node338</title>
<path fill="none" stroke="#191970" d="M1338.0636,-117.9285C1367.3193,-128.4164 1407.8994,-142.9639 1434.3002,-152.4284"/>
<polygon fill="#191970" stroke="#191970" points="1339.2076,-114.6205 1328.613,-114.5405 1336.8453,-121.2099 1339.2076,-114.6205"/>
</g>
<!-- Node339 -->
<g id="node8" class="node">
<title>Node339</title>
<g id="a_node8"><a xlink:href="main_8cxx.html#af582d708d899e67ead623eac34a22387" target="_top" xlink:title="protected_main">
<polygon fill="none" stroke="#000000" points="1531,-171.5 1531,-190.5 1624,-190.5 1624,-171.5 1531,-171.5"/>
<text text-anchor="middle" x="1577.5" y="-178.5" font-family="Helvetica,sans-Serif" font-size="10.00" fill="#000000">protected_main</text>
</a>
</g>
</g>
<!-- Node338&#45;&gt;Node339 -->
<g id="edge7" class="edge">
<title>Node338&#45;&gt;Node339</title>
<path fill="none" stroke="#191970" d="M1504.9884,-169.1741C1513.382,-170.543 1522.1965,-171.9805 1530.6749,-173.3633"/>
<polygon fill="#191970" stroke="#191970" points="1505.4428,-165.702 1495.0098,-167.5467 1504.316,-172.6107 1505.4428,-165.702"/>
</g>
<!-- Node340 -->
<g id="node9" class="node">
<title>Node340</title>
<g id="a_node9"><a xlink:href="main_8cxx.html#a3c04138a5bfe5d72780bb7e82a18e627" target="_top" xlink:title="main">
<polygon fill="none" stroke="#000000" points="1660,-171.5 1660,-190.5 1701,-190.5 1701,-171.5 1660,-171.5"/>
<text text-anchor="middle" x="1680.5" y="-178.5" font-family="Helvetica,sans-Serif" font-size="10.00" fill="#000000">main</text>
</a>
</g>
</g>
<!-- Node339&#45;&gt;Node340 -->
<g id="edge8" class="edge">
<title>Node339&#45;&gt;Node340</title>
<path fill="none" stroke="#191970" d="M1634.2133,-181C1643.4322,-181 1652.4259,-181 1659.9965,-181"/>
<polygon fill="#191970" stroke="#191970" points="1634.1782,-177.5001 1624.1782,-181 1634.1781,-184.5001 1634.1782,-177.5001"/>
</g>
<!-- Node341&#45;&gt;Node334 -->
<g id="edge13" class="edge">
<title>Node341&#45;&gt;Node334</title>
<path fill="none" stroke="#191970" d="M704.664,-163.0656C661.5606,-159.5092 605.274,-152.1359 556,-142 517.19,-134.0166 472.3828,-120.0882 451.0483,-109.6519"/>
<polygon fill="#191970" stroke="#191970" points="704.5259,-166.5653 714.766,-163.8468 705.0656,-159.5861 704.5259,-166.5653"/>
</g>
<!-- Node342 -->
<g id="node11" class="node">
<title>Node342</title>
<g id="a_node11"><a xlink:href="classEngine.html#a13572fdd7f6470dca48a14497f58980e" target="_top" xlink:title="Decrease Height Decreases the height of the given map node Calls the according function of the Map ob...">
<polygon fill="none" stroke="#000000" points="873,-142.5 873,-161.5 1005,-161.5 1005,-142.5 873,-142.5"/>
<text text-anchor="middle" x="939" y="-149.5" font-family="Helvetica,sans-Serif" font-size="10.00" fill="#000000">Engine::decreaseHeight</text>
</a>
</g>
</g>
<!-- Node341&#45;&gt;Node342 -->
<g id="edge11" class="edge">
<title>Node341&#45;&gt;Node342</title>
<path fill="none" stroke="#191970" d="M844.4434,-157.7481C853.8433,-157.1767 863.4627,-156.5919 872.7952,-156.0246"/>
<polygon fill="#191970" stroke="#191970" points="844.1228,-154.2611 834.3536,-158.3615 844.5476,-161.2482 844.1228,-154.2611"/>
</g>
<!-- Node342&#45;&gt;Node337 -->
<g id="edge12" class="edge">
<title>Node342&#45;&gt;Node337</title>
<path fill="none" stroke="#191970" d="M1015.3941,-142.1088C1078.1645,-133.9815 1166.5262,-122.5407 1228.4941,-114.5173"/>
<polygon fill="#191970" stroke="#191970" points="1014.6255,-138.679 1005.1577,-143.4341 1015.5244,-145.621 1014.6255,-138.679"/>
</g>
<!-- Node344 -->
<g id="node13" class="node">
<title>Node344</title>
<g id="a_node13"><a xlink:href="classMap.html#a482ac34426e8aa66abb46f60ec329402" target="_top" xlink:title="Initialize the Map with node objects Initialize the Map with node objects. ">
<polygon fill="none" stroke="#000000" points="735,-266.5 735,-285.5 814,-285.5 814,-266.5 735,-266.5"/>
<text text-anchor="middle" x="774.5" y="-273.5" font-family="Helvetica,sans-Serif" font-size="10.00" fill="#000000">Map::initMap</text>
</a>
</g>
</g>
<!-- Node343&#45;&gt;Node344 -->
<g id="edge15" class="edge">
<title>Node343&#45;&gt;Node344</title>
<path fill="none" stroke="#191970" d="M649.3815,-226.2683C679.6443,-238.2971 723.5152,-255.7348 750.4609,-266.445"/>
<polygon fill="#191970" stroke="#191970" points="650.6584,-223.0096 640.0727,-222.5683 648.0728,-229.5146 650.6584,-223.0096"/>
</g>
<!-- Node349 -->
<g id="node18" class="node">
<title>Node349</title>
<g id="a_node18"><a xlink:href="classMap.html#afefe996cc1f62b61ec60d0ae415953bf" target="_top" xlink:title="Map::loadMapFromFile">
<polygon fill="none" stroke="#000000" points="712,-190.5 712,-209.5 837,-209.5 837,-190.5 712,-190.5"/>
<text text-anchor="middle" x="774.5" y="-197.5" font-family="Helvetica,sans-Serif" font-size="10.00" fill="#000000">Map::loadMapFromFile</text>
</a>
</g>
</g>
<!-- Node343&#45;&gt;Node349 -->
<g id="edge23" class="edge">
<title>Node343&#45;&gt;Node349</title>
<path fill="none" stroke="#191970" d="M686.5826,-207.2109C695.0271,-206.5183 703.6045,-205.8148 711.9251,-205.1323"/>
<polygon fill="#191970" stroke="#191970" points="686.0546,-203.7424 676.3742,-208.0482 686.6269,-210.7189 686.0546,-203.7424"/>
</g>
<!-- Node345 -->
<g id="node14" class="node">
<title>Node345</title>
<g id="a_node14"><a xlink:href="classEngine.html#a260d4834150eae6eec2bde34df6dc827" target="_top" xlink:title="Creates a new game Creates a new game. ">
<polygon fill="none" stroke="#000000" points="886.5,-304.5 886.5,-323.5 991.5,-323.5 991.5,-304.5 886.5,-304.5"/>
<text text-anchor="middle" x="939" y="-311.5" font-family="Helvetica,sans-Serif" font-size="10.00" fill="#000000">Engine::newGame</text>
</a>
</g>
</g>
<!-- Node344&#45;&gt;Node345 -->
<g id="edge16" class="edge">
<title>Node344&#45;&gt;Node345</title>
<path fill="none" stroke="#191970" d="M824.123,-287.4631C847.6688,-292.9022 875.472,-299.3248 897.828,-304.4891"/>
<polygon fill="#191970" stroke="#191970" points="824.8521,-284.0394 814.3209,-285.1987 823.2765,-290.8598 824.8521,-284.0394"/>
</g>
<!-- Node345&#45;&gt;Node338 -->
<g id="edge22" class="edge">
<title>Node345&#45;&gt;Node338</title>
<path fill="none" stroke="#191970" d="M969.8009,-327.5565C989.6865,-335.5531 1016.3556,-344.8894 1041,-349 1195.2011,-374.72 1266.6105,-408.693 1391,-314 1439.3138,-277.2205 1455.3966,-199.1841 1459.6735,-171.7698"/>
<polygon fill="#191970" stroke="#191970" points="970.924,-324.2336 960.3452,-323.6498 968.251,-330.7032 970.924,-324.2336"/>
</g>
<!-- Node346 -->
<g id="node15" class="node">
<title>Node346</title>
<g id="a_node15"><a xlink:href="classEngine.html#ab5a909990be40701ebb4b57c3e716ed4" target="_top" xlink:title="Engine::saveGame">
<polygon fill="none" stroke="#000000" points="1055,-304.5 1055,-323.5 1163,-323.5 1163,-304.5 1055,-304.5"/>
<text text-anchor="middle" x="1109" y="-311.5" font-family="Helvetica,sans-Serif" font-size="10.00" fill="#000000">Engine::saveGame</text>
</a>
</g>
</g>
<!-- Node345&#45;&gt;Node346 -->
<g id="edge17" class="edge">
<title>Node345&#45;&gt;Node346</title>
<path fill="none" stroke="#191970" d="M1001.892,-314C1019.2351,-314 1037.8977,-314 1054.7088,-314"/>
<polygon fill="#191970" stroke="#191970" points="1001.8572,-310.5001 991.8572,-314 1001.8572,-317.5001 1001.8572,-310.5001"/>
</g>
<!-- Node347 -->
<g id="node16" class="node">
<title>Node347</title>
<g id="a_node16"><a xlink:href="classUIManager.html#aa78e356fc3b356d790c848319d1c387e" target="_top" xlink:title="UIManager::setCallbackFunctions">
<polygon fill="none" stroke="#000000" points="1213,-285.5 1213,-304.5 1391,-304.5 1391,-285.5 1213,-285.5"/>
<text text-anchor="middle" x="1302" y="-292.5" font-family="Helvetica,sans-Serif" font-size="10.00" fill="#000000">UIManager::setCallbackFunctions</text>
</a>
</g>
</g>
<!-- Node345&#45;&gt;Node347 -->
<g id="edge19" class="edge">
<title>Node345&#45;&gt;Node347</title>
<path fill="none" stroke="#191970" d="M990.6969,-325.5385C1006.7323,-328.6016 1024.5207,-331.4783 1041,-333 1101.1884,-338.558 1117.2124,-341.8869 1177,-333 1213.1212,-327.6309 1253.2491,-313.9852 1278.0572,-304.597"/>
<polygon fill="#191970" stroke="#191970" points="990.9328,-322.0175 980.4438,-323.5111 989.5749,-328.8845 990.9328,-322.0175"/>
</g>
<!-- Node348 -->
<g id="node17" class="node">
<title>Node348</title>
<g id="a_node17"><a xlink:href="classGame.html#a5ed7fc5be77080f7f6dd5363f7f007a1" target="_top" xlink:title="initializes and displays the main menu initializes and displays the main menu ">
<polygon fill="none" stroke="#000000" points="1250.5,-190.5 1250.5,-209.5 1353.5,-209.5 1353.5,-190.5 1250.5,-190.5"/>
<text text-anchor="middle" x="1302" y="-197.5" font-family="Helvetica,sans-Serif" font-size="10.00" fill="#000000">Game::mainMenu</text>
</a>
</g>
</g>
<!-- Node345&#45;&gt;Node348 -->
<g id="edge20" class="edge">
<title>Node345&#45;&gt;Node348</title>
<path fill="none" stroke="#191970" d="M979.1031,-301.4056C1052.3154,-278.4133 1206.0939,-230.1193 1271.5062,-209.5766"/>
<polygon fill="#191970" stroke="#191970" points="977.8167,-298.141 969.3248,-304.4765 979.9141,-304.8194 977.8167,-298.141"/>
</g>
<!-- Node346&#45;&gt;Node347 -->
<g id="edge18" class="edge">
<title>Node346&#45;&gt;Node347</title>
<path fill="none" stroke="#191970" d="M1173.0508,-307.6945C1185.8151,-306.4379 1199.4367,-305.0969 1212.8668,-303.7748"/>
<polygon fill="#191970" stroke="#191970" points="1172.6269,-304.2192 1163.0179,-308.6822 1173.3127,-311.1855 1172.6269,-304.2192"/>
</g>
<!-- Node348&#45;&gt;Node339 -->
<g id="edge21" class="edge">
<title>Node348&#45;&gt;Node339</title>
<path fill="none" stroke="#191970" d="M1363.9861,-195.7251C1414.6117,-192.2337 1485.055,-187.3755 1530.9575,-184.2098"/>
<polygon fill="#191970" stroke="#191970" points="1363.5549,-192.2464 1353.8194,-196.4262 1364.0366,-199.2298 1363.5549,-192.2464"/>
</g>
<!-- Node350 -->
<g id="node19" class="node">
<title>Node350</title>
<g id="a_node19"><a xlink:href="classEngine.html#a83b7dbeee899b36a13d5b07c7ad87ebc" target="_top" xlink:title="Loads a saved game Loads a saved Game. ">
<polygon fill="none" stroke="#000000" points="886,-190.5 886,-209.5 992,-209.5 992,-190.5 886,-190.5"/>
<text text-anchor="middle" x="939" y="-197.5" font-family="Helvetica,sans-Serif" font-size="10.00" fill="#000000">Engine::loadGame</text>
</a>
</g>
</g>
<!-- Node349&#45;&gt;Node350 -->
<g id="edge24" class="edge">
<title>Node349&#45;&gt;Node350</title>
<path fill="none" stroke="#191970" d="M847.4461,-200C860.3866,-200 873.6382,-200 885.8977,-200"/>
<polygon fill="#191970" stroke="#191970" points="847.1597,-196.5001 837.1597,-200 847.1596,-203.5001 847.1597,-196.5001"/>
</g>
<!-- Node349&#45;&gt;Node352 -->
<g id="edge31" class="edge">
<title>Node349&#45;&gt;Node352</title>
<path fill="none" stroke="#191970" d="M828.267,-186.2075C831.3217,-184.6496 834.2601,-182.9199 837,-181 858.8388,-165.6971 853.0374,-150.6806 873,-133 886.3621,-121.1654 903.9854,-111.2451 917.6598,-104.5113"/>
<polygon fill="#191970" stroke="#191970" points="826.5623,-183.1345 818.8359,-190.384 829.3967,-189.535 826.5623,-183.1345"/>
</g>
<!-- Node350&#45;&gt;Node347 -->
<g id="edge29" class="edge">
<title>Node350&#45;&gt;Node347</title>
<path fill="none" stroke="#191970" d="M985.3225,-212.123C1058.4438,-231.2594 1199.1218,-268.076 1265.5564,-285.4624"/>
<polygon fill="#191970" stroke="#191970" points="986.0282,-208.6898 975.4678,-209.5439 984.2559,-215.4618 986.0282,-208.6898"/>
</g>
<!-- Node350&#45;&gt;Node348 -->
<g id="edge30" class="edge">
<title>Node350&#45;&gt;Node348</title>
<path fill="none" stroke="#191970" d="M1002.2464,-200C1072.6683,-200 1185.1496,-200 1250.4486,-200"/>
<polygon fill="#191970" stroke="#191970" points="1002.1721,-196.5001 992.1721,-200 1002.172,-203.5001 1002.1721,-196.5001"/>
</g>
<!-- Node351 -->
<g id="node20" class="node">
<title>Node351</title>
<g id="a_node20"><a xlink:href="classEngine.html#a0ba57971ffb5173ecc425461f65a4cd8" target="_top" xlink:title="Quits the game Sets m_running to false and quitting the game. ">
<polygon fill="none" stroke="#000000" points="1057,-152.5 1057,-171.5 1161,-171.5 1161,-152.5 1057,-152.5"/>
<text text-anchor="middle" x="1109" y="-159.5" font-family="Helvetica,sans-Serif" font-size="10.00" fill="#000000">Engine::quitGame</text>
</a>
</g>
</g>
<!-- Node350&#45;&gt;Node351 -->
<g id="edge25" class="edge">
<title>Node350&#45;&gt;Node351</title>
<path fill="none" stroke="#191970" d="M991.8981,-188.1757C1015.865,-182.8184 1043.8235,-176.5689 1066.4103,-171.5201"/>
<polygon fill="#191970" stroke="#191970" points="990.8938,-184.8138 981.8982,-190.411 992.4209,-191.6452 990.8938,-184.8138"/>
</g>
<!-- Node351&#45;&gt;Node337 -->
<g id="edge26" class="edge">
<title>Node351&#45;&gt;Node337</title>
<path fill="none" stroke="#191970" d="M1150.9351,-149.615C1186.5685,-139.0912 1236.9873,-124.2007 1269.5907,-114.5716"/>
<polygon fill="#191970" stroke="#191970" points="1149.903,-146.2703 1141.3039,-152.4595 1151.8857,-152.9837 1149.903,-146.2703"/>
</g>
<!-- Node351&#45;&gt;Node347 -->
<g id="edge27" class="edge">
<title>Node351&#45;&gt;Node347</title>
<path fill="none" stroke="#191970" d="M1131.1988,-177.2976C1171.3222,-204.9474 1254.825,-262.4908 1287.9864,-285.3429"/>
<polygon fill="#191970" stroke="#191970" points="1133.1003,-174.3574 1122.8801,-171.565 1129.1283,-180.1214 1133.1003,-174.3574"/>
</g>
<!-- Node351&#45;&gt;Node348 -->
<g id="edge28" class="edge">
<title>Node351&#45;&gt;Node348</title>
<path fill="none" stroke="#191970" d="M1167.6016,-173.5381C1195.1289,-178.958 1227.5476,-185.341 1253.6482,-190.4799"/>
<polygon fill="#191970" stroke="#191970" points="1168.1898,-170.0868 1157.702,-171.589 1166.8375,-176.955 1168.1898,-170.0868"/>
</g>
<!-- Node353 -->
<g id="node22" class="node">
<title>Node353</title>
<g id="a_node22"><a xlink:href="classEngine.html#a7a1521fd7fc731f961ebaf3f723127d9" target="_top" xlink:title="Engine::setTileIDOfNode">
<polygon fill="none" stroke="#000000" points="1041,-76.5 1041,-95.5 1177,-95.5 1177,-76.5 1041,-76.5"/>
<text text-anchor="middle" x="1109" y="-83.5" font-family="Helvetica,sans-Serif" font-size="10.00" fill="#000000">Engine::setTileIDOfNode</text>
</a>
</g>
</g>
<!-- Node352&#45;&gt;Node353 -->
<g id="edge32" class="edge">
<title>Node352&#45;&gt;Node353</title>
<path fill="none" stroke="#191970" d="M1011.0472,-91.1857C1020.9332,-90.6624 1031.0585,-90.1263 1040.8713,-89.6068"/>
<polygon fill="#191970" stroke="#191970" points="1010.6557,-87.7015 1000.8548,-91.7253 1011.0259,-94.6917 1010.6557,-87.7015"/>
</g>
<!-- Node353&#45;&gt;Node337 -->
<g id="edge33" class="edge">
<title>Node353&#45;&gt;Node337</title>
<path fill="none" stroke="#191970" d="M1187.292,-93.7075C1199.6288,-94.922 1212.3776,-96.1771 1224.6918,-97.3894"/>
<polygon fill="#191970" stroke="#191970" points="1187.3394,-90.1953 1177.0446,-92.6987 1186.6535,-97.1617 1187.3394,-90.1953"/>
</g>
<!-- Node354&#45;&gt;Node334 -->
<g id="edge38" class="edge">
<title>Node354&#45;&gt;Node334</title>
<path fill="none" stroke="#191970" d="M568.971,-92.0719C553.9847,-94.2279 536.9437,-96.2832 520.2362,-97.982"/>
<polygon fill="#191970" stroke="#191970" points="569.6198,-95.5138 578.9885,-90.5663 568.5794,-88.5915 569.6198,-95.5138"/>
</g>
<!-- Node354&#45;&gt;Node335 -->
<g id="edge36" class="edge">
<title>Node354&#45;&gt;Node335</title>
<path fill="none" stroke="#191970" d="M643.5345,-66.7122C662.5631,-57.0385 688.5695,-44.2103 712,-34 723.721,-28.8923 736.9087,-23.7429 748.1386,-19.5307"/>
<polygon fill="#191970" stroke="#191970" points="641.8418,-63.6467 634.5335,-71.3174 645.0302,-69.8785 641.8418,-63.6467"/>
</g>
<!-- Node354&#45;&gt;Node337 -->
<g id="edge35" class="edge">
<title>Node354&#45;&gt;Node337</title>
<path fill="none" stroke="#191970" d="M682.7168,-71.9708C788.2881,-59.3326 1000.0357,-40.6957 1177,-67 1213.1212,-72.3691 1253.2491,-86.0148 1278.0572,-95.403"/>
<polygon fill="#191970" stroke="#191970" points="682.0322,-68.5283 672.5287,-73.2116 682.8785,-75.4769 682.0322,-68.5283"/>
</g>
<!-- Node354&#45;&gt;Node341 -->
<g id="edge37" class="edge">
<title>Node354&#45;&gt;Node341</title>
<path fill="none" stroke="#191970" d="M644.1111,-95.3659C676.2858,-111.8085 728.0894,-138.2823 755.72,-152.4027"/>
<polygon fill="#191970" stroke="#191970" points="645.3018,-92.0439 634.8045,-90.6098 642.1163,-98.2771 645.3018,-92.0439"/>
</g>
<!-- Node354&#45;&gt;Node352 -->
<g id="edge39" class="edge">
<title>Node354&#45;&gt;Node352</title>
<path fill="none" stroke="#191970" d="M682.6659,-83.8895C739.9105,-86.3707 821.7724,-89.9189 877.4762,-92.3333"/>
<polygon fill="#191970" stroke="#191970" points="682.7741,-80.391 672.6319,-83.4546 682.4709,-87.3845 682.7741,-80.391"/>
</g>
</g>
</svg>
