<?xml version="1.0" encoding="UTF-8" standalone="no"?>
<!DOCTYPE svg PUBLIC "-//W3C//DTD SVG 1.1//EN"
 "http://www.w3.org/Graphics/SVG/1.1/DTD/svg11.dtd">
<!-- Generated by graphviz version 2.40.1 (20161225.0304)
 -->
<!-- Title: ButtonGroup::uncheckAllButtons Pages: 1 -->
<svg width="750pt" height="111pt"
 viewBox="0.00 0.00 750.00 110.50" xmlns="http://www.w3.org/2000/svg" xmlns:xlink="http://www.w3.org/1999/xlink">
<g id="graph0" class="graph" transform="scale(1 1) rotate(0) translate(4 106.5)">
<title>ButtonGroup::uncheckAllButtons</title>
<!-- Node20 -->
<g id="node1" class="node">
<title>Node20</title>
<polygon fill="#bfbfbf" stroke="#000000" points="0,-44.5 0,-63.5 175,-63.5 175,-44.5 0,-44.5"/>
<text text-anchor="middle" x="87.5" y="-51.5" font-family="Helvetica,sans-Serif" font-size="10.00" fill="#000000">ButtonGroup::uncheckAllButtons</text>
</g>
<!-- Node21 -->
<g id="node2" class="node">
<title>Node21</title>
<g id="a_node2"><a xlink:href="classSingleton.html#af5cb1e5749949e2b68416cfb8d378044" target="_top" xlink:title="Get an instance of the singleton. ">
<polygon fill="none" stroke="#000000" points="606.5,-72 606.5,-102 732.5,-102 732.5,-72 606.5,-72"/>
<text text-anchor="start" x="614.5" y="-90" font-family="Helvetica,sans-Serif" font-size="10.00" fill="#000000">Singleton&lt; UIManager</text>
<text text-anchor="middle" x="669.5" y="-79" font-family="Helvetica,sans-Serif" font-size="10.00" fill="#000000"> &gt;::instance</text>
</a>
</g>
</g>
<!-- Node20&#45;&gt;Node21 -->
<g id="edge1" class="edge">
<title>Node20&#45;&gt;Node21</title>
<path fill="none" stroke="#191970" d="M125.3293,-63.5207C149.6299,-69.1723 181.9677,-75.835 211,-79 346.2673,-93.7465 505.2844,-92.3684 596.0467,-89.8233"/>
<polygon fill="#191970" stroke="#191970" points="596.338,-93.3164 606.2311,-89.5247 596.1328,-86.3194 596.338,-93.3164"/>
</g>
<!-- Node22 -->
<g id="node3" class="node">
<title>Node22</title>
<g id="a_node3"><a xlink:href="classUIManager.html#ae36c85bbe403bcf7f441174caedb6606" target="_top" xlink:title="Get the UiElements Of aroup get Elements that are in UiGroup (m_uiGroups) ">
<polygon fill="none" stroke="#000000" points="211,-39 211,-69 358,-69 358,-39 211,-39"/>
<text text-anchor="start" x="219" y="-57" font-family="Helvetica,sans-Serif" font-size="10.00" fill="#000000">UIManager::getUiElements</text>
<text text-anchor="middle" x="284.5" y="-46" font-family="Helvetica,sans-Serif" font-size="10.00" fill="#000000">OfGroup</text>
</a>
</g>
</g>
<!-- Node20&#45;&gt;Node22 -->
<g id="edge2" class="edge">
<title>Node20&#45;&gt;Node22</title>
<path fill="none" stroke="#191970" d="M175.0543,-54C183.5289,-54 192.113,-54 200.5513,-54"/>
<polygon fill="#191970" stroke="#191970" points="200.7549,-57.5001 210.7548,-54 200.7548,-50.5001 200.7549,-57.5001"/>
</g>
<!-- Node23 -->
<g id="node4" class="node">
<title>Node23</title>
<g id="a_node4"><a xlink:href="classButton.html#a25f11ea415fdbb64cb897421bf746918" target="_top" xlink:title="Button::setCheckState">
<polygon fill="none" stroke="#000000" points="222,-.5 222,-19.5 347,-19.5 347,-.5 222,-.5"/>
<text text-anchor="middle" x="284.5" y="-7.5" font-family="Helvetica,sans-Serif" font-size="10.00" fill="#000000">Button::setCheckState</text>
</a>
</g>
</g>
<!-- Node20&#45;&gt;Node23 -->
<g id="edge3" class="edge">
<title>Node20&#45;&gt;Node23</title>
<path fill="none" stroke="#191970" d="M130.2461,-44.4527C160.0627,-37.7931 200.0423,-28.8637 231.8284,-21.7642"/>
<polygon fill="#191970" stroke="#191970" points="232.8408,-25.1244 241.8374,-19.5287 231.3149,-18.2927 232.8408,-25.1244"/>
</g>
<!-- Node24 -->
<g id="node5" class="node">
<title>Node24</title>
<g id="a_node5"><a xlink:href="classUIElement.html#ade4162d6216022e143c769369b64add7" target="_top" xlink:title="Set the button state Sets the mouse button pressed state. ">
<polygon fill="none" stroke="#000000" points="394,-11.5 394,-30.5 561,-30.5 561,-11.5 394,-11.5"/>
<text text-anchor="middle" x="477.5" y="-18.5" font-family="Helvetica,sans-Serif" font-size="10.00" fill="#000000">UIElement::changeButtonState</text>
</a>
</g>
</g>
<!-- Node23&#45;&gt;Node24 -->
<g id="edge4" class="edge">
<title>Node23&#45;&gt;Node24</title>
<path fill="none" stroke="#191970" d="M347.1616,-13.5714C358.7703,-14.233 371.1271,-14.9373 383.4311,-15.6386"/>
<polygon fill="#191970" stroke="#191970" points="383.5535,-19.1511 393.7365,-16.2259 383.9519,-12.1625 383.5535,-19.1511"/>
</g>
<!-- Node24&#45;&gt;Node21 -->
<g id="edge6" class="edge">
<title>Node24&#45;&gt;Node21</title>
<path fill="none" stroke="#191970" d="M505.4184,-30.597C534.2239,-40.4988 579.8781,-56.1925 615.7239,-68.5145"/>
<polygon fill="#191970" stroke="#191970" points="614.9573,-71.9519 625.552,-71.8929 617.2329,-65.3321 614.9573,-71.9519"/>
</g>
<!-- Node25 -->
<g id="node6" class="node">
<title>Node25</title>
<g id="a_node6"><a xlink:href="classUIElement.html#afdf67550d4140097c7a328d4b22fc1fe" target="_top" xlink:title="UIElement::changeTexture">
<polygon fill="none" stroke="#000000" points="597,-11.5 597,-30.5 742,-30.5 742,-11.5 597,-11.5"/>
<text text-anchor="middle" x="669.5" y="-18.5" font-family="Helvetica,sans-Serif" font-size="10.00" fill="#000000">UIElement::changeTexture</text>
</a>
</g>
</g>
<!-- Node24&#45;&gt;Node25 -->
<g id="edge5" class="edge">
<title>Node24&#45;&gt;Node25</title>
<path fill="none" stroke="#191970" d="M561.1555,-21C569.633,-21 578.2412,-21 586.7095,-21"/>
<polygon fill="#191970" stroke="#191970" points="586.9516,-24.5001 596.9515,-21 586.9515,-17.5001 586.9516,-24.5001"/>
</g>
</g>
</svg>
