<?xml version="1.0" encoding="UTF-8" standalone="no"?>
<!DOCTYPE svg PUBLIC "-//W3C//DTD SVG 1.1//EN"
 "http://www.w3.org/Graphics/SVG/1.1/DTD/svg11.dtd">
<!-- Generated by graphviz version 2.40.1 (20161225.0304)
 -->
<!-- Title: Map::getObjectCoords Pages: 1 -->
<svg width="308pt" height="78pt"
 viewBox="0.00 0.00 308.00 77.50" xmlns="http://www.w3.org/2000/svg" xmlns:xlink="http://www.w3.org/1999/xlink">
<g id="graph0" class="graph" transform="scale(1 1) rotate(0) translate(4 73.5)">
<title>Map::getObjectCoords</title>
<!-- Node209 -->
<g id="node1" class="node">
<title>Node209</title>
<polygon fill="#bfbfbf" stroke="#000000" points="0,-22.5 0,-41.5 124,-41.5 124,-22.5 0,-22.5"/>
<text text-anchor="middle" x="62" y="-29.5" font-family="Helvetica,sans-Serif" font-size="10.00" fill="#000000">Map::getObjectCoords</text>
</g>
<!-- Node210 -->
<g id="node2" class="node">
<title>Node210</title>
<g id="a_node2"><a xlink:href="classSingleton.html#af5cb1e5749949e2b68416cfb8d378044" target="_top" xlink:title="Get an instance of the singleton. ">
<polygon fill="none" stroke="#000000" points="163,-39 163,-69 297,-69 297,-39 163,-39"/>
<text text-anchor="start" x="171" y="-57" font-family="Helvetica,sans-Serif" font-size="10.00" fill="#000000">Singleton&lt; TileManager</text>
<text text-anchor="middle" x="230" y="-46" font-family="Helvetica,sans-Serif" font-size="10.00" fill="#000000"> &gt;::instance</text>
</a>
</g>
</g>
<!-- Node209&#45;&gt;Node210 -->
<g id="edge1" class="edge">
<title>Node209&#45;&gt;Node210</title>
<path fill="none" stroke="#191970" d="M124.0797,-40.1295C133.445,-41.3559 143.2012,-42.6335 152.8366,-43.8953"/>
<polygon fill="#191970" stroke="#191970" points="152.4427,-47.3735 162.8125,-45.2016 153.3517,-40.4327 152.4427,-47.3735"/>
</g>
<!-- Node211 -->
<g id="node3" class="node">
<title>Node211</title>
<g id="a_node3"><a xlink:href="classTileManager.html#a8ee071ff8b24926288437d310f9bc714" target="_top" xlink:title="TileManager::getTileData">
<polygon fill="none" stroke="#000000" points="160,-.5 160,-19.5 300,-19.5 300,-.5 160,-.5"/>
<text text-anchor="middle" x="230" y="-7.5" font-family="Helvetica,sans-Serif" font-size="10.00" fill="#000000">TileManager::getTileData</text>
</a>
</g>
</g>
<!-- Node209&#45;&gt;Node211 -->
<g id="edge2" class="edge">
<title>Node209&#45;&gt;Node211</title>
<path fill="none" stroke="#191970" d="M124.0797,-23.8705C132.4774,-22.7708 141.1895,-21.63 149.8469,-20.4962"/>
<polygon fill="#191970" stroke="#191970" points="150.5019,-23.9404 159.9627,-19.1715 149.5929,-16.9997 150.5019,-23.9404"/>
</g>
</g>
</svg>
