<?xml version="1.0" encoding="UTF-8" standalone="no"?>
<!DOCTYPE svg PUBLIC "-//W3C//DTD SVG 1.1//EN"
 "http://www.w3.org/Graphics/SVG/1.1/DTD/svg11.dtd">
<!-- Generated by graphviz version 2.40.1 (20161225.0304)
 -->
<!-- Title: src/engine/ui/widgets/Combobox.hxx Pages: 1 -->
<!--zoomable 487 -->
<svg id="main" version="1.1" xmlns="http://www.w3.org/2000/svg" xmlns:xlink="http://www.w3.org/1999/xlink" xml:space="preserve" onload="init(evt)">
<style type="text/css"><![CDATA[
.edge:hover path { stroke: red; }
.edge:hover polygon { stroke: red; fill: red; }
]]></style>
<script type="text/javascript"><![CDATA[
var edges = document.getElementsByTagName('g');
if (edges && edges.length) {
  for (var i=0;i<edges.length;i++) {
    if (edges[i].id.substr(0,4)=='edge') {
      edges[i].setAttribute('class','edge');
    }
  }
}
]]></script>
        <defs>
                <circle id="rim" cx="0" cy="0" r="7"/>
                <circle id="rim2" cx="0" cy="0" r="3.5"/>
                <g id="zoomPlus">
                        <use xlink:href="#rim" fill="#404040">
                                <set attributeName="fill" to="#808080" begin="zoomplus.mouseover" end="zoomplus.mouseout"/>
                        </use>
                        <path d="M-4,0h8M0,-4v8" fill="none" stroke="white" stroke-width="1.5" pointer-events="none"/>
                </g>
                <g id="zoomMin">
                        <use xlink:href="#rim" fill="#404040">
                                <set attributeName="fill" to="#808080" begin="zoomminus.mouseover" end="zoomminus.mouseout"/>
                        </use>
                        <path d="M-4,0h8" fill="none" stroke="white" stroke-width="1.5" pointer-events="none"/>
                </g>
                <g id="dirArrow">
                        <path fill="none" stroke="white" stroke-width="1.5" d="M0,-3.0v7 M-2.5,-0.5L0,-3.0L2.5,-0.5"/>
                </g>
               <g id="resetDef">
                       <use xlink:href="#rim2" fill="#404040">
                               <set attributeName="fill" to="#808080" begin="reset.mouseover" end="reset.mouseout"/>
                       </use>
               </g>
        </defs>

<script type="text/javascript">
var viewWidth = 1204;
var viewHeight = 487;
var sectionId = 'dynsection-0';
</script>
<script xlink:href="svgpan.js"/>
<svg id="graph" class="graph">
<g id="viewport">
<title>src/engine/ui/widgets/Combobox.hxx</title>
<!-- Node0 -->
<g id="node1" class="node">
<title>Node0</title>
<polygon fill="#bfbfbf" stroke="#000000" points="948.5,-448.5 948.5,-478.5 1068.5,-478.5 1068.5,-448.5 948.5,-448.5"/>
<text text-anchor="start" x="956.5" y="-466.5" font-family="Helvetica,sans-Serif" font-size="10.00" fill="#000000">src/engine/ui/widgets</text>
<text text-anchor="middle" x="1008.5" y="-455.5" font-family="Helvetica,sans-Serif" font-size="10.00" fill="#000000">/Combobox.hxx</text>
</g>
<!-- Node1 -->
<g id="node2" class="node">
<title>Node1</title>
<polygon fill="none" stroke="#bfbfbf" points="1101.5,-168.5 1101.5,-187.5 1159.5,-187.5 1159.5,-168.5 1101.5,-168.5"/>
<text text-anchor="middle" x="1130.5" y="-175.5" font-family="Helvetica,sans-Serif" font-size="10.00" fill="#000000">memory</text>
</g>
<!-- Node0&#45;&gt;Node1 -->
<g id="edge1" class="edge">
<title>Node0&#45;&gt;Node1</title>
<path fill="none" stroke="#191970" d="M1056.0542,-448.3982C1099.6601,-431.2262 1157.5,-398.5452 1157.5,-346 1157.5,-346 1157.5,-346 1157.5,-290 1157.5,-256.6538 1146.0488,-219.2392 1138.0614,-197.1981"/>
<polygon fill="#191970" stroke="#191970" points="1141.2836,-195.823 1134.4839,-187.6981 1134.7327,-198.29 1141.2836,-195.823"/>
</g>
<!-- Node2 -->
<g id="node3" class="node">
<title>Node2</title>
<g id="a_node3"><a xlink:href="UIElement_8hxx.html" target="_top" xlink:title="../basics/UIElement.hxx">
<polygon fill="none" stroke="#000000" points="862,-280.5 862,-299.5 993,-299.5 993,-280.5 862,-280.5"/>
<text text-anchor="middle" x="927.5" y="-287.5" font-family="Helvetica,sans-Serif" font-size="10.00" fill="#000000">../basics/UIElement.hxx</text>
</a>
</g>
</g>
<!-- Node0&#45;&gt;Node2 -->
<g id="edge2" class="edge">
<title>Node0&#45;&gt;Node2</title>
<path fill="none" stroke="#191970" d="M989.7685,-448.0986C979.4413,-438.6731 967.1913,-425.7981 959.5,-412 941.1016,-378.9937 932.9668,-335.0481 929.6186,-309.9102"/>
<polygon fill="#191970" stroke="#191970" points="933.0704,-309.2992 928.3974,-299.7906 926.1208,-310.138 933.0704,-309.2992"/>
</g>
<!-- Node23 -->
<g id="node24" class="node">
<title>Node23</title>
<g id="a_node24"><a xlink:href="TextField_8hxx.html" target="_top" xlink:title="TextField.hxx">
<polygon fill="none" stroke="#000000" points="968.5,-392.5 968.5,-411.5 1048.5,-411.5 1048.5,-392.5 968.5,-392.5"/>
<text text-anchor="middle" x="1008.5" y="-399.5" font-family="Helvetica,sans-Serif" font-size="10.00" fill="#000000">TextField.hxx</text>
</a>
</g>
</g>
<!-- Node0&#45;&gt;Node23 -->
<g id="edge36" class="edge">
<title>Node0&#45;&gt;Node23</title>
<path fill="none" stroke="#191970" d="M1008.5,-448.2977C1008.5,-440.3834 1008.5,-430.6043 1008.5,-422.0759"/>
<polygon fill="#191970" stroke="#191970" points="1012.0001,-421.8469 1008.5,-411.8469 1005.0001,-421.847 1012.0001,-421.8469"/>
</g>
<!-- Node3 -->
<g id="node4" class="node">
<title>Node3</title>
<polygon fill="none" stroke="#bfbfbf" points="842.5,-56.5 842.5,-75.5 886.5,-75.5 886.5,-56.5 842.5,-56.5"/>
<text text-anchor="middle" x="864.5" y="-63.5" font-family="Helvetica,sans-Serif" font-size="10.00" fill="#000000">string</text>
</g>
<!-- Node2&#45;&gt;Node3 -->
<g id="edge3" class="edge">
<title>Node2&#45;&gt;Node3</title>
<path fill="none" stroke="#191970" d="M938.8081,-280.434C957.4071,-263.869 993.7612,-227.7791 1007.5,-188 1010.4018,-179.5981 1011.57,-175.9024 1007.5,-168 984.2437,-122.8453 930.7167,-93.2705 896.1529,-78.1166"/>
<polygon fill="#191970" stroke="#191970" points="897.0929,-74.7144 886.519,-74.0494 894.3704,-81.1633 897.0929,-74.7144"/>
</g>
<!-- Node4 -->
<g id="node5" class="node">
<title>Node4</title>
<g id="a_node5"><a xlink:href="mapEdit_8hxx.html" target="_top" xlink:title="../../basics/mapEdit.hxx">
<polygon fill="none" stroke="#000000" points="999.5,-224.5 999.5,-243.5 1129.5,-243.5 1129.5,-224.5 999.5,-224.5"/>
<text text-anchor="middle" x="1064.5" y="-231.5" font-family="Helvetica,sans-Serif" font-size="10.00" fill="#000000">../../basics/mapEdit.hxx</text>
</a>
</g>
</g>
<!-- Node2&#45;&gt;Node4 -->
<g id="edge4" class="edge">
<title>Node2&#45;&gt;Node4</title>
<path fill="none" stroke="#191970" d="M951.0511,-280.3733C973.3391,-271.2629 1006.9937,-257.5062 1031.8637,-247.3404"/>
<polygon fill="#191970" stroke="#191970" points="1033.3239,-250.5247 1041.2562,-243.5011 1030.6753,-244.0451 1033.3239,-250.5247"/>
</g>
<!-- Node5 -->
<g id="node6" class="node">
<title>Node5</title>
<g id="a_node6"><a xlink:href="ResourcesManager_8hxx.html" target="_top" xlink:title="../../ResourcesManager.hxx">
<polygon fill="none" stroke="#000000" points="368.5,-224.5 368.5,-243.5 514.5,-243.5 514.5,-224.5 368.5,-224.5"/>
<text text-anchor="middle" x="441.5" y="-231.5" font-family="Helvetica,sans-Serif" font-size="10.00" fill="#000000">../../ResourcesManager.hxx</text>
</a>
</g>
</g>
<!-- Node2&#45;&gt;Node5 -->
<g id="edge6" class="edge">
<title>Node2&#45;&gt;Node5</title>
<path fill="none" stroke="#191970" d="M861.9559,-282.4476C774.7103,-272.3946 620.3601,-254.6094 524.9086,-243.6109"/>
<polygon fill="#191970" stroke="#191970" points="525.0503,-240.1041 514.7153,-242.4363 524.2489,-247.0581 525.0503,-240.1041"/>
</g>
<!-- Node8 -->
<g id="node9" class="node">
<title>Node8</title>
<polygon fill="none" stroke="#bfbfbf" points="464.5,-112.5 464.5,-131.5 508.5,-131.5 508.5,-112.5 464.5,-112.5"/>
<text text-anchor="middle" x="486.5" y="-119.5" font-family="Helvetica,sans-Serif" font-size="10.00" fill="#000000">SDL.h</text>
</g>
<!-- Node2&#45;&gt;Node8 -->
<g id="edge35" class="edge">
<title>Node2&#45;&gt;Node8</title>
<path fill="none" stroke="#191970" d="M861.6747,-280.8135C785.7025,-268.1938 658.7484,-240.7906 561.5,-188 538.0918,-175.293 515.7797,-154.0823 501.6716,-139.1421"/>
<polygon fill="#191970" stroke="#191970" points="504.0666,-136.5757 494.723,-131.5809 498.9125,-141.3123 504.0666,-136.5757"/>
</g>
<!-- Node18 -->
<g id="node19" class="node">
<title>Node18</title>
<g id="a_node19"><a xlink:href="WindowManager_8hxx.html" target="_top" xlink:title="../../WindowManager.hxx">
<polygon fill="none" stroke="#000000" points="570.5,-168.5 570.5,-187.5 706.5,-187.5 706.5,-168.5 570.5,-168.5"/>
<text text-anchor="middle" x="638.5" y="-175.5" font-family="Helvetica,sans-Serif" font-size="10.00" fill="#000000">../../WindowManager.hxx</text>
</a>
</g>
</g>
<!-- Node2&#45;&gt;Node18 -->
<g id="edge23" class="edge">
<title>Node2&#45;&gt;Node18</title>
<path fill="none" stroke="#191970" d="M902.86,-280.4509C851.2458,-260.4482 731.6812,-214.1117 672.6838,-191.2477"/>
<polygon fill="#191970" stroke="#191970" points="673.6667,-187.875 663.0776,-187.5249 671.1371,-194.402 673.6667,-187.875"/>
</g>
<!-- Node19 -->
<g id="node20" class="node">
<title>Node19</title>
<g id="a_node20"><a xlink:href="signal_8hxx.html" target="_top" xlink:title="../../basics/signal.hxx">
<polygon fill="none" stroke="#000000" points="824,-224.5 824,-243.5 943,-243.5 943,-224.5 824,-224.5"/>
<text text-anchor="middle" x="883.5" y="-231.5" font-family="Helvetica,sans-Serif" font-size="10.00" fill="#000000">../../basics/signal.hxx</text>
</a>
</g>
</g>
<!-- Node2&#45;&gt;Node19 -->
<g id="edge29" class="edge">
<title>Node2&#45;&gt;Node19</title>
<path fill="none" stroke="#191970" d="M919.8358,-280.2455C913.6527,-272.3761 904.7937,-261.101 897.3711,-251.6542"/>
<polygon fill="#191970" stroke="#191970" points="900.0068,-249.3435 891.0764,-243.6427 894.5025,-253.6683 900.0068,-249.3435"/>
</g>
<!-- Node4&#45;&gt;Node3 -->
<g id="edge5" class="edge">
<title>Node4&#45;&gt;Node3</title>
<path fill="none" stroke="#191970" d="M1065.7343,-224.2452C1068.0452,-201.3605 1070.3722,-143.7652 1040.5,-112 1021.0299,-91.2961 941.9438,-76.9671 896.6913,-70.2828"/>
<polygon fill="#191970" stroke="#191970" points="897.1722,-66.816 886.7765,-68.8605 896.1782,-73.7451 897.1722,-66.816"/>
</g>
<!-- Node6 -->
<g id="node7" class="node">
<title>Node6</title>
<polygon fill="none" stroke="#bfbfbf" points="704.5,-112.5 704.5,-131.5 764.5,-131.5 764.5,-112.5 704.5,-112.5"/>
<text text-anchor="middle" x="734.5" y="-119.5" font-family="Helvetica,sans-Serif" font-size="10.00" fill="#000000">iostream</text>
</g>
<!-- Node5&#45;&gt;Node6 -->
<g id="edge7" class="edge">
<title>Node5&#45;&gt;Node6</title>
<path fill="none" stroke="#191970" d="M514.7226,-230.3762C585.6213,-225.3782 686.5244,-213.8482 715.5,-188 728.4046,-176.4882 732.7857,-156.837 734.1591,-141.9635"/>
<polygon fill="#191970" stroke="#191970" points="737.6671,-141.9099 734.7144,-131.7348 730.6774,-141.5304 737.6671,-141.9099"/>
</g>
<!-- Node7 -->
<g id="node8" class="node">
<title>Node7</title>
<polygon fill="none" stroke="#bfbfbf" points="0,-112.5 0,-131.5 93,-131.5 93,-112.5 0,-112.5"/>
<text text-anchor="middle" x="46.5" y="-119.5" font-family="Helvetica,sans-Serif" font-size="10.00" fill="#000000">unordered_map</text>
</g>
<!-- Node5&#45;&gt;Node7 -->
<g id="edge8" class="edge">
<title>Node5&#45;&gt;Node7</title>
<path fill="none" stroke="#191970" d="M407.8225,-224.4509C336.2568,-204.1589 169.112,-156.7659 89.7756,-134.2706"/>
<polygon fill="#191970" stroke="#191970" points="90.6678,-130.8856 80.0922,-131.5249 88.7582,-137.6201 90.6678,-130.8856"/>
</g>
<!-- Node5&#45;&gt;Node8 -->
<g id="edge9" class="edge">
<title>Node5&#45;&gt;Node8</title>
<path fill="none" stroke="#191970" d="M445.3367,-224.4509C452.7425,-206.0186 469.1327,-165.2254 478.8488,-141.043"/>
<polygon fill="#191970" stroke="#191970" points="482.1925,-142.1088 482.673,-131.5249 475.6971,-139.499 482.1925,-142.1088"/>
</g>
<!-- Node9 -->
<g id="node10" class="node">
<title>Node9</title>
<g id="a_node10"><a xlink:href="TileManager_8hxx.html" target="_top" xlink:title="TileManager.hxx">
<polygon fill="none" stroke="#000000" points="331,-168.5 331,-187.5 428,-187.5 428,-168.5 331,-168.5"/>
<text text-anchor="middle" x="379.5" y="-175.5" font-family="Helvetica,sans-Serif" font-size="10.00" fill="#000000">TileManager.hxx</text>
</a>
</g>
</g>
<!-- Node5&#45;&gt;Node9 -->
<g id="edge10" class="edge">
<title>Node5&#45;&gt;Node9</title>
<path fill="none" stroke="#191970" d="M430.7004,-224.2455C421.6322,-216.0549 408.4794,-204.1749 397.7755,-194.5069"/>
<polygon fill="#191970" stroke="#191970" points="399.9429,-191.7482 390.1758,-187.6427 395.2509,-196.9429 399.9429,-191.7482"/>
</g>
<!-- Node9&#45;&gt;Node3 -->
<g id="edge13" class="edge">
<title>Node9&#45;&gt;Node3</title>
<path fill="none" stroke="#191970" d="M387.1664,-168.3409C399.676,-153.3641 426.056,-124.9216 455.5,-112 523.1104,-82.329 748.1002,-70.5855 832.3134,-67.161"/>
<polygon fill="#191970" stroke="#191970" points="832.4685,-70.6577 842.3229,-66.7665 832.1928,-63.6631 832.4685,-70.6577"/>
</g>
<!-- Node9&#45;&gt;Node7 -->
<g id="edge12" class="edge">
<title>Node9&#45;&gt;Node7</title>
<path fill="none" stroke="#191970" d="M330.933,-170.1179C277.6557,-161.4304 189.3469,-146.9107 103.1928,-132.1037"/>
<polygon fill="#191970" stroke="#191970" points="103.6923,-128.6383 93.2435,-130.3908 102.5046,-135.5368 103.6923,-128.6383"/>
</g>
<!-- Node9&#45;&gt;Node8 -->
<g id="edge11" class="edge">
<title>Node9&#45;&gt;Node8</title>
<path fill="none" stroke="#191970" d="M398.138,-168.2455C414.9386,-159.4527 439.8634,-146.4079 458.9618,-136.4125"/>
<polygon fill="#191970" stroke="#191970" points="460.8386,-139.3807 468.0756,-131.6427 457.5927,-133.1787 460.8386,-139.3807"/>
</g>
<!-- Node10 -->
<g id="node11" class="node">
<title>Node10</title>
<g id="a_node11"><a xlink:href="tileData_8hxx.html" target="_top" xlink:title="tileData.hxx">
<polygon fill="none" stroke="#000000" points="331,-112.5 331,-131.5 408,-131.5 408,-112.5 331,-112.5"/>
<text text-anchor="middle" x="369.5" y="-119.5" font-family="Helvetica,sans-Serif" font-size="10.00" fill="#000000">tileData.hxx</text>
</a>
</g>
</g>
<!-- Node9&#45;&gt;Node10 -->
<g id="edge14" class="edge">
<title>Node9&#45;&gt;Node10</title>
<path fill="none" stroke="#191970" d="M377.7581,-168.2455C376.4533,-160.9382 374.624,-150.6944 373.0187,-141.7046"/>
<polygon fill="#191970" stroke="#191970" points="376.4254,-140.8717 371.2219,-131.6427 369.5344,-142.1022 376.4254,-140.8717"/>
</g>
<!-- Node15 -->
<g id="node16" class="node">
<title>Node15</title>
<polygon fill="none" stroke="#bfbfbf" points="111.5,-112.5 111.5,-131.5 169.5,-131.5 169.5,-112.5 111.5,-112.5"/>
<text text-anchor="middle" x="140.5" y="-119.5" font-family="Helvetica,sans-Serif" font-size="10.00" fill="#000000">json.hxx</text>
</g>
<!-- Node9&#45;&gt;Node15 -->
<g id="edge20" class="edge">
<title>Node9&#45;&gt;Node15</title>
<path fill="none" stroke="#191970" d="M335.8819,-168.4447C297.2534,-159.8867 239.0914,-146.7689 179.4864,-132.1886"/>
<polygon fill="#191970" stroke="#191970" points="180.0678,-128.7274 169.5215,-129.7405 178.3977,-135.5253 180.0678,-128.7274"/>
</g>
<!-- Node16 -->
<g id="node17" class="node">
<title>Node16</title>
<g id="a_node17"><a xlink:href="Singleton_8hxx.html" target="_top" xlink:title="Singleton.hxx">
<polygon fill="none" stroke="#000000" points="527,-112.5 527,-131.5 610,-131.5 610,-112.5 527,-112.5"/>
<text text-anchor="middle" x="568.5" y="-119.5" font-family="Helvetica,sans-Serif" font-size="10.00" fill="#000000">Singleton.hxx</text>
</a>
</g>
</g>
<!-- Node9&#45;&gt;Node16 -->
<g id="edge21" class="edge">
<title>Node9&#45;&gt;Node16</title>
<path fill="none" stroke="#191970" d="M411.9903,-168.3733C443.6902,-158.9807 492.0576,-144.6496 526.6286,-134.4064"/>
<polygon fill="#191970" stroke="#191970" points="527.8401,-137.6979 536.4337,-131.5011 525.8514,-130.9863 527.8401,-137.6979"/>
</g>
<!-- Node17 -->
<g id="node18" class="node">
<title>Node17</title>
<polygon fill="none" stroke="#bfbfbf" points="188,-112.5 188,-131.5 313,-131.5 313,-112.5 188,-112.5"/>
<text text-anchor="middle" x="250.5" y="-119.5" font-family="Helvetica,sans-Serif" font-size="10.00" fill="#000000">../common/enums.hxx</text>
</g>
<!-- Node9&#45;&gt;Node17 -->
<g id="edge22" class="edge">
<title>Node9&#45;&gt;Node17</title>
<path fill="none" stroke="#191970" d="M357.3241,-168.3733C336.5234,-159.3435 305.2083,-145.7494 281.8542,-135.6111"/>
<polygon fill="#191970" stroke="#191970" points="282.9532,-132.2727 272.3865,-131.5011 280.1657,-138.6938 282.9532,-132.2727"/>
</g>
<!-- Node10&#45;&gt;Node3 -->
<g id="edge15" class="edge">
<title>Node10&#45;&gt;Node3</title>
<path fill="none" stroke="#191970" d="M408.2251,-114.3104C413.0225,-113.4709 417.8673,-112.6769 422.5,-112 574.986,-89.7188 758.6059,-74.2028 831.9409,-68.4597"/>
<polygon fill="#191970" stroke="#191970" points="832.6444,-71.9158 842.3438,-67.6529 832.103,-64.9367 832.6444,-71.9158"/>
</g>
<!-- Node11 -->
<g id="node12" class="node">
<title>Node11</title>
<polygon fill="none" stroke="#bfbfbf" points="615,-56.5 615,-75.5 662,-75.5 662,-56.5 615,-56.5"/>
<text text-anchor="middle" x="638.5" y="-63.5" font-family="Helvetica,sans-Serif" font-size="10.00" fill="#000000">vector</text>
</g>
<!-- Node10&#45;&gt;Node11 -->
<g id="edge16" class="edge">
<title>Node10&#45;&gt;Node11</title>
<path fill="none" stroke="#191970" d="M408.0411,-113.9766C460.8004,-102.9932 554.6635,-83.453 604.775,-73.0208"/>
<polygon fill="#191970" stroke="#191970" points="605.6969,-76.404 614.7737,-70.9393 604.2702,-69.5509 605.6969,-76.404"/>
</g>
<!-- Node12 -->
<g id="node13" class="node">
<title>Node12</title>
<g id="a_node13"><a xlink:href="enums_8hxx.html" target="_top" xlink:title="enums.hxx">
<polygon fill="none" stroke="#000000" points="334,-56.5 334,-75.5 405,-75.5 405,-56.5 334,-56.5"/>
<text text-anchor="middle" x="369.5" y="-63.5" font-family="Helvetica,sans-Serif" font-size="10.00" fill="#000000">enums.hxx</text>
</a>
</g>
</g>
<!-- Node10&#45;&gt;Node12 -->
<g id="edge17" class="edge">
<title>Node10&#45;&gt;Node12</title>
<path fill="none" stroke="#191970" d="M369.5,-112.2455C369.5,-104.9382 369.5,-94.6944 369.5,-85.7046"/>
<polygon fill="#191970" stroke="#191970" points="373.0001,-85.6426 369.5,-75.6427 366.0001,-85.6427 373.0001,-85.6426"/>
</g>
<!-- Node13 -->
<g id="node14" class="node">
<title>Node13</title>
<polygon fill="none" stroke="#bfbfbf" points="293.5,-.5 293.5,-19.5 349.5,-19.5 349.5,-.5 293.5,-.5"/>
<text text-anchor="middle" x="321.5" y="-7.5" font-family="Helvetica,sans-Serif" font-size="10.00" fill="#000000">stddef.h</text>
</g>
<!-- Node12&#45;&gt;Node13 -->
<g id="edge18" class="edge">
<title>Node12&#45;&gt;Node13</title>
<path fill="none" stroke="#191970" d="M361.139,-56.2455C354.325,-48.2958 344.5319,-36.8706 336.3848,-27.3656"/>
<polygon fill="#191970" stroke="#191970" points="338.9305,-24.9575 329.7651,-19.6427 333.6157,-29.513 338.9305,-24.9575"/>
</g>
<!-- Node14 -->
<g id="node15" class="node">
<title>Node14</title>
<polygon fill="none" stroke="#bfbfbf" points="367.5,-.5 367.5,-19.5 467.5,-19.5 467.5,-.5 367.5,-.5"/>
<text text-anchor="middle" x="417.5" y="-7.5" font-family="Helvetica,sans-Serif" font-size="10.00" fill="#000000">betterEnums.hxx</text>
</g>
<!-- Node12&#45;&gt;Node14 -->
<g id="edge19" class="edge">
<title>Node12&#45;&gt;Node14</title>
<path fill="none" stroke="#191970" d="M377.861,-56.2455C384.675,-48.2958 394.4681,-36.8706 402.6152,-27.3656"/>
<polygon fill="#191970" stroke="#191970" points="405.3843,-29.513 409.2349,-19.6427 400.0695,-24.9575 405.3843,-29.513"/>
</g>
<!-- Node18&#45;&gt;Node3 -->
<g id="edge24" class="edge">
<title>Node18&#45;&gt;Node3</title>
<path fill="none" stroke="#191970" d="M644.1903,-168.3252C653.2112,-153.8487 672.1847,-126.6856 695.5,-112 738.0537,-85.1966 796.162,-73.8263 831.9652,-69.1353"/>
<polygon fill="#191970" stroke="#191970" points="832.8106,-72.5587 842.3185,-67.8842 831.9708,-65.6092 832.8106,-72.5587"/>
</g>
<!-- Node18&#45;&gt;Node6 -->
<g id="edge25" class="edge">
<title>Node18&#45;&gt;Node6</title>
<path fill="none" stroke="#191970" d="M655.2219,-168.2455C670.0889,-159.5731 692.0466,-146.7645 709.0858,-136.825"/>
<polygon fill="#191970" stroke="#191970" points="711.0955,-139.7047 717.9697,-131.6427 707.5683,-133.6582 711.0955,-139.7047"/>
</g>
<!-- Node18&#45;&gt;Node8 -->
<g id="edge27" class="edge">
<title>Node18&#45;&gt;Node8</title>
<path fill="none" stroke="#191970" d="M612.3703,-168.3733C586.3649,-158.7923 546.4119,-144.0728 518.5152,-133.7951"/>
<polygon fill="#191970" stroke="#191970" points="519.4246,-130.4002 508.8311,-130.2273 517.0046,-136.9686 519.4246,-130.4002"/>
</g>
<!-- Node18&#45;&gt;Node11 -->
<g id="edge26" class="edge">
<title>Node18&#45;&gt;Node11</title>
<path fill="none" stroke="#191970" d="M638.5,-168.4509C638.5,-150.184 638.5,-109.9553 638.5,-85.6976"/>
<polygon fill="#191970" stroke="#191970" points="642.0001,-85.5249 638.5,-75.5249 635.0001,-85.5249 642.0001,-85.5249"/>
</g>
<!-- Node18&#45;&gt;Node16 -->
<g id="edge28" class="edge">
<title>Node18&#45;&gt;Node16</title>
<path fill="none" stroke="#191970" d="M626.3069,-168.2455C615.8679,-159.8943 600.6345,-147.7076 588.426,-137.9408"/>
<polygon fill="#191970" stroke="#191970" points="590.5485,-135.1566 580.5533,-131.6427 586.1756,-140.6227 590.5485,-135.1566"/>
</g>
<!-- Node19&#45;&gt;Node1 -->
<g id="edge30" class="edge">
<title>Node19&#45;&gt;Node1</title>
<path fill="none" stroke="#191970" d="M925.6802,-224.4369C972.0818,-213.9167 1046.0542,-197.1456 1091.2531,-186.8981"/>
<polygon fill="#191970" stroke="#191970" points="1092.2864,-190.2527 1101.265,-184.6282 1090.7386,-183.426 1092.2864,-190.2527"/>
</g>
<!-- Node19&#45;&gt;Node11 -->
<g id="edge33" class="edge">
<title>Node19&#45;&gt;Node11</title>
<path fill="none" stroke="#191970" d="M849.0544,-224.4445C829.7456,-217.3854 806.7501,-205.8444 792.5,-188 770.7734,-160.7933 797.0715,-137.6248 773.5,-112 759.6542,-96.9481 707.4641,-82.1676 672.1812,-73.5758"/>
<polygon fill="#191970" stroke="#191970" points="672.8188,-70.1298 662.28,-71.2181 671.1972,-76.9394 672.8188,-70.1298"/>
</g>
<!-- Node20 -->
<g id="node21" class="node">
<title>Node20</title>
<polygon fill="none" stroke="#bfbfbf" points="801,-168.5 801,-187.5 866,-187.5 866,-168.5 801,-168.5"/>
<text text-anchor="middle" x="833.5" y="-175.5" font-family="Helvetica,sans-Serif" font-size="10.00" fill="#000000">functional</text>
</g>
<!-- Node19&#45;&gt;Node20 -->
<g id="edge31" class="edge">
<title>Node19&#45;&gt;Node20</title>
<path fill="none" stroke="#191970" d="M874.7907,-224.2455C867.6927,-216.2958 857.4916,-204.8706 849.005,-195.3656"/>
<polygon fill="#191970" stroke="#191970" points="851.3805,-192.771 842.1095,-187.6427 846.1589,-197.4331 851.3805,-192.771"/>
</g>
<!-- Node21 -->
<g id="node22" class="node">
<title>Node21</title>
<polygon fill="none" stroke="#bfbfbf" points="884.5,-168.5 884.5,-187.5 916.5,-187.5 916.5,-168.5 884.5,-168.5"/>
<text text-anchor="middle" x="900.5" y="-175.5" font-family="Helvetica,sans-Serif" font-size="10.00" fill="#000000">list</text>
</g>
<!-- Node19&#45;&gt;Node21 -->
<g id="edge32" class="edge">
<title>Node19&#45;&gt;Node21</title>
<path fill="none" stroke="#191970" d="M886.4612,-224.2455C888.7038,-216.8579 891.8577,-206.4689 894.6081,-197.4087"/>
<polygon fill="#191970" stroke="#191970" points="898.017,-198.2282 897.5728,-187.6427 891.3188,-196.1948 898.017,-198.2282"/>
</g>
<!-- Node22 -->
<g id="node23" class="node">
<title>Node22</title>
<polygon fill="none" stroke="#bfbfbf" points="934.5,-168.5 934.5,-187.5 998.5,-187.5 998.5,-168.5 934.5,-168.5"/>
<text text-anchor="middle" x="966.5" y="-175.5" font-family="Helvetica,sans-Serif" font-size="10.00" fill="#000000">algorithm</text>
</g>
<!-- Node19&#45;&gt;Node22 -->
<g id="edge34" class="edge">
<title>Node19&#45;&gt;Node22</title>
<path fill="none" stroke="#191970" d="M897.9575,-224.2455C910.5732,-215.7337 929.0944,-203.2375 943.7045,-193.3801"/>
<polygon fill="#191970" stroke="#191970" points="945.8761,-196.1371 952.2082,-187.6427 941.9609,-190.3343 945.8761,-196.1371"/>
</g>
<!-- Node23&#45;&gt;Node2 -->
<g id="edge37" class="edge">
<title>Node23&#45;&gt;Node2</title>
<path fill="none" stroke="#191970" d="M1001.594,-392.4509C988.0244,-373.688 957.6976,-331.7548 940.3428,-307.758"/>
<polygon fill="#191970" stroke="#191970" points="943.0848,-305.5768 934.3885,-299.5249 937.4127,-309.679 943.0848,-305.5768"/>
</g>
<!-- Node24 -->
<g id="node25" class="node">
<title>Node24</title>
<g id="a_node25"><a xlink:href="Text_8hxx.html" target="_top" xlink:title="Text.hxx">
<polygon fill="none" stroke="#000000" points="993.5,-336.5 993.5,-355.5 1051.5,-355.5 1051.5,-336.5 993.5,-336.5"/>
<text text-anchor="middle" x="1022.5" y="-343.5" font-family="Helvetica,sans-Serif" font-size="10.00" fill="#000000">Text.hxx</text>
</a>
</g>
</g>
<!-- Node23&#45;&gt;Node24 -->
<g id="edge38" class="edge">
<title>Node23&#45;&gt;Node24</title>
<path fill="none" stroke="#191970" d="M1010.9386,-392.2455C1012.7855,-384.8579 1015.3828,-374.4689 1017.6478,-365.4087"/>
<polygon fill="#191970" stroke="#191970" points="1021.0594,-366.193 1020.0893,-355.6427 1014.2684,-364.4952 1021.0594,-366.193"/>
</g>
<!-- Node24&#45;&gt;Node2 -->
<g id="edge40" class="edge">
<title>Node24&#45;&gt;Node2</title>
<path fill="none" stroke="#191970" d="M1005.9523,-336.2455C991.2401,-327.5731 969.5112,-314.7645 952.6495,-304.825"/>
<polygon fill="#191970" stroke="#191970" points="954.2502,-301.7057 943.8581,-299.6427 950.6954,-307.736 954.2502,-301.7057"/>
</g>
<!-- Node24&#45;&gt;Node3 -->
<g id="edge39" class="edge">
<title>Node24&#45;&gt;Node3</title>
<path fill="none" stroke="#191970" d="M1051.8471,-340.8966C1101.2048,-330.4432 1195.5,-301.6232 1195.5,-234 1195.5,-234 1195.5,-234 1195.5,-178 1195.5,-115.3775 980.2314,-80.9184 896.9,-69.9252"/>
<polygon fill="#191970" stroke="#191970" points="897.0972,-66.4217 886.7318,-68.6145 896.2023,-73.3643 897.0972,-66.4217"/>
</g>
</g>
</svg>
        <g id="navigator" transform="translate(0 0)" fill="#404254">
                <rect fill="#f2f5e9" fill-opacity="0.5" stroke="#606060" stroke-width=".5" x="0" y="0" width="60" height="60"/>
                <use id="zoomplus" xlink:href="#zoomPlus" x="17" y="9" onmousedown="handleZoom(evt,'in')"/>
                <use id="zoomminus" xlink:href="#zoomMin" x="42" y="9" onmousedown="handleZoom(evt,'out')"/>
                <use id="reset" xlink:href="#resetDef" x="30" y="36" onmousedown="handleReset()"/>
                <g id="arrowUp" xlink:href="#dirArrow" transform="translate(30 24)" onmousedown="handlePan(0,-1)">
                  <use xlink:href="#rim" fill="#404040">
                        <set attributeName="fill" to="#808080" begin="arrowUp.mouseover" end="arrowUp.mouseout"/>
                  </use>
                  <path fill="none" stroke="white" stroke-width="1.5" d="M0,-3.0v7 M-2.5,-0.5L0,-3.0L2.5,-0.5"/>
                </g>
                <g id="arrowRight" xlink:href="#dirArrow" transform="rotate(90) translate(36 -43)" onmousedown="handlePan(1,0)">
                  <use xlink:href="#rim" fill="#404040">
                        <set attributeName="fill" to="#808080" begin="arrowRight.mouseover" end="arrowRight.mouseout"/>
                  </use>
                  <path fill="none" stroke="white" stroke-width="1.5" d="M0,-3.0v7 M-2.5,-0.5L0,-3.0L2.5,-0.5"/>
                </g>
                <g id="arrowDown" xlink:href="#dirArrow" transform="rotate(180) translate(-30 -48)" onmousedown="handlePan(0,1)">
                  <use xlink:href="#rim" fill="#404040">
                        <set attributeName="fill" to="#808080" begin="arrowDown.mouseover" end="arrowDown.mouseout"/>
                  </use>
                  <path fill="none" stroke="white" stroke-width="1.5" d="M0,-3.0v7 M-2.5,-0.5L0,-3.0L2.5,-0.5"/>
                </g>
                <g id="arrowLeft" xlink:href="#dirArrow" transform="rotate(270) translate(-36 17)" onmousedown="handlePan(-1,0)">
                  <use xlink:href="#rim" fill="#404040">
                        <set attributeName="fill" to="#808080" begin="arrowLeft.mouseover" end="arrowLeft.mouseout"/>
                  </use>
                  <path fill="none" stroke="white" stroke-width="1.5" d="M0,-3.0v7 M-2.5,-0.5L0,-3.0L2.5,-0.5"/>
                </g>
        </g>
        <svg viewBox="0 0 15 15" width="100%" height="30px" preserveAspectRatio="xMaxYMin meet">
         <g id="arrow_out" transform="scale(0.3 0.3)">
          <a xlink:href="Combobox_8hxx__incl_org.svg" target="_base">
           <rect id="button" ry="5" rx="5" y="6" x="6" height="38" width="38"
                fill="#f2f5e9" fill-opacity="0.5" stroke="#606060" stroke-width="1.0"/>
           <path id="arrow"
             d="M 11.500037,31.436501 C 11.940474,20.09759 22.043105,11.32322 32.158766,21.979434 L 37.068811,17.246167 C 37.068811,17.246167 37.088388,32 37.088388,32 L 22.160133,31.978069 C 22.160133,31.978069 26.997745,27.140456 26.997745,27.140456 C 18.528582,18.264221 13.291696,25.230495 11.500037,31.436501 z"
             style="fill:#404040;"/>
          </a>
         </g>
        </svg>
</svg>
