<?xml version="1.0" encoding="UTF-8" standalone="no"?>
<!DOCTYPE svg PUBLIC "-//W3C//DTD SVG 1.1//EN"
 "http://www.w3.org/Graphics/SVG/1.1/DTD/svg11.dtd">
<!-- Generated by graphviz version 2.40.1 (20161225.0304)
 -->
<!-- Title: compressString Pages: 1 -->
<svg width="1122pt" height="66pt"
 viewBox="0.00 0.00 1122.00 66.00" xmlns="http://www.w3.org/2000/svg" xmlns:xlink="http://www.w3.org/1999/xlink">
<g id="graph0" class="graph" transform="scale(1 1) rotate(0) translate(4 62)">
<title>compressString</title>
<!-- Node1 -->
<g id="node1" class="node">
<title>Node1</title>
<polygon fill="#bfbfbf" stroke="#000000" points="0,-19.5 0,-38.5 92,-38.5 92,-19.5 0,-19.5"/>
<text text-anchor="middle" x="46" y="-26.5" font-family="Helvetica,sans-Serif" font-size="10.00" fill="#000000">compressString</text>
</g>
<!-- Node2 -->
<g id="node2" class="node">
<title>Node2</title>
<g id="a_node2"><a xlink:href="classMap.html#ae48ef4fa6a6f73d886211bca59123151" target="_top" xlink:title="Map::saveMapToFile">
<polygon fill="none" stroke="#000000" points="128,-19.5 128,-38.5 241,-38.5 241,-19.5 128,-19.5"/>
<text text-anchor="middle" x="184.5" y="-26.5" font-family="Helvetica,sans-Serif" font-size="10.00" fill="#000000">Map::saveMapToFile</text>
</a>
</g>
</g>
<!-- Node1&#45;&gt;Node2 -->
<g id="edge1" class="edge">
<title>Node1&#45;&gt;Node2</title>
<path fill="none" stroke="#191970" d="M102.2863,-29C110.7606,-29 119.5035,-29 127.9826,-29"/>
<polygon fill="#191970" stroke="#191970" points="102.1185,-25.5001 92.1185,-29 102.1185,-32.5001 102.1185,-25.5001"/>
</g>
<!-- Node3 -->
<g id="node3" class="node">
<title>Node3</title>
<g id="a_node3"><a xlink:href="classEngine.html#ab5a909990be40701ebb4b57c3e716ed4" target="_top" xlink:title="Engine::saveGame">
<polygon fill="none" stroke="#000000" points="284.5,-38.5 284.5,-57.5 392.5,-57.5 392.5,-38.5 284.5,-38.5"/>
<text text-anchor="middle" x="338.5" y="-45.5" font-family="Helvetica,sans-Serif" font-size="10.00" fill="#000000">Engine::saveGame</text>
</a>
</g>
</g>
<!-- Node2&#45;&gt;Node3 -->
<g id="edge2" class="edge">
<title>Node2&#45;&gt;Node3</title>
<path fill="none" stroke="#191970" d="M251.4182,-37.2561C262.4346,-38.6153 273.7311,-40.009 284.3847,-41.3234"/>
<polygon fill="#191970" stroke="#191970" points="251.7597,-33.7718 241.4064,-36.0209 250.9025,-40.7191 251.7597,-33.7718"/>
</g>
<!-- Node5 -->
<g id="node5" class="node">
<title>Node5</title>
<g id="a_node5"><a xlink:href="classMap.html#a404c38b33d61f8c63ce2c2efb864d6dd" target="_top" xlink:title="Set the Tile ID Of Node object Also invokes all necessary texture updates (auto&#45;tiling, slopes, ...) ">
<polygon fill="none" stroke="#000000" points="277,-.5 277,-19.5 400,-19.5 400,-.5 277,-.5"/>
<text text-anchor="middle" x="338.5" y="-7.5" font-family="Helvetica,sans-Serif" font-size="10.00" fill="#000000">Map::setTileIDOfNode</text>
</a>
</g>
</g>
<!-- Node2&#45;&gt;Node5 -->
<g id="edge4" class="edge">
<title>Node2&#45;&gt;Node5</title>
<path fill="none" stroke="#191970" d="M251.5725,-20.7248C259.9951,-19.6857 268.5788,-18.6266 276.9115,-17.5986"/>
<polygon fill="#191970" stroke="#191970" points="250.9025,-17.2809 241.4064,-21.9791 251.7597,-24.2282 250.9025,-17.2809"/>
</g>
<!-- Node4 -->
<g id="node4" class="node">
<title>Node4</title>
<g id="a_node4"><a xlink:href="classUIManager.html#aa78e356fc3b356d790c848319d1c387e" target="_top" xlink:title="UIManager::setCallbackFunctions">
<polygon fill="none" stroke="#000000" points="436,-38.5 436,-57.5 614,-57.5 614,-38.5 436,-38.5"/>
<text text-anchor="middle" x="525" y="-45.5" font-family="Helvetica,sans-Serif" font-size="10.00" fill="#000000">UIManager::setCallbackFunctions</text>
</a>
</g>
</g>
<!-- Node3&#45;&gt;Node4 -->
<g id="edge3" class="edge">
<title>Node3&#45;&gt;Node4</title>
<path fill="none" stroke="#191970" d="M402.755,-48C413.4513,-48 424.7128,-48 435.8947,-48"/>
<polygon fill="#191970" stroke="#191970" points="402.6941,-44.5001 392.694,-48 402.694,-51.5001 402.6941,-44.5001"/>
</g>
<!-- Node6 -->
<g id="node6" class="node">
<title>Node6</title>
<g id="a_node6"><a xlink:href="classEngine.html#a7a1521fd7fc731f961ebaf3f723127d9" target="_top" xlink:title="Engine::setTileIDOfNode">
<polygon fill="none" stroke="#000000" points="457,-.5 457,-19.5 593,-19.5 593,-.5 457,-.5"/>
<text text-anchor="middle" x="525" y="-7.5" font-family="Helvetica,sans-Serif" font-size="10.00" fill="#000000">Engine::setTileIDOfNode</text>
</a>
</g>
</g>
<!-- Node5&#45;&gt;Node6 -->
<g id="edge5" class="edge">
<title>Node5&#45;&gt;Node6</title>
<path fill="none" stroke="#191970" d="M410.4595,-10C425.6613,-10 441.6606,-10 456.7217,-10"/>
<polygon fill="#191970" stroke="#191970" points="410.084,-6.5001 400.0839,-10 410.0839,-13.5001 410.084,-6.5001"/>
</g>
<!-- Node7 -->
<g id="node7" class="node">
<title>Node7</title>
<g id="a_node7"><a xlink:href="classEventManager.html#a65ec91fd5016d4f9c4167fb8babed2df" target="_top" xlink:title="EventManager::checkEvents">
<polygon fill="none" stroke="#000000" points="650,-.5 650,-19.5 804,-19.5 804,-.5 650,-.5"/>
<text text-anchor="middle" x="727" y="-7.5" font-family="Helvetica,sans-Serif" font-size="10.00" fill="#000000">EventManager::checkEvents</text>
</a>
</g>
</g>
<!-- Node6&#45;&gt;Node7 -->
<g id="edge6" class="edge">
<title>Node6&#45;&gt;Node7</title>
<path fill="none" stroke="#191970" d="M603.501,-10C618.7072,-10 634.6301,-10 649.7943,-10"/>
<polygon fill="#191970" stroke="#191970" points="603.1064,-6.5001 593.1064,-10 603.1063,-13.5001 603.1064,-6.5001"/>
</g>
<!-- Node8 -->
<g id="node8" class="node">
<title>Node8</title>
<g id="a_node8"><a xlink:href="classGame.html#a1c2ab25d5216b2f4b2fe41efd2c09114" target="_top" xlink:title="begins the game starts running the game ">
<polygon fill="none" stroke="#000000" points="840,-.5 840,-19.5 908,-19.5 908,-.5 840,-.5"/>
<text text-anchor="middle" x="874" y="-7.5" font-family="Helvetica,sans-Serif" font-size="10.00" fill="#000000">Game::run</text>
</a>
</g>
</g>
<!-- Node7&#45;&gt;Node8 -->
<g id="edge7" class="edge">
<title>Node7&#45;&gt;Node8</title>
<path fill="none" stroke="#191970" d="M814.5248,-10C823.4338,-10 832.0572,-10 839.845,-10"/>
<polygon fill="#191970" stroke="#191970" points="814.3744,-6.5001 804.3744,-10 814.3743,-13.5001 814.3744,-6.5001"/>
</g>
<!-- Node9 -->
<g id="node9" class="node">
<title>Node9</title>
<g id="a_node9"><a xlink:href="main_8cxx.html#af582d708d899e67ead623eac34a22387" target="_top" xlink:title="protected_main">
<polygon fill="none" stroke="#000000" points="944,-.5 944,-19.5 1037,-19.5 1037,-.5 944,-.5"/>
<text text-anchor="middle" x="990.5" y="-7.5" font-family="Helvetica,sans-Serif" font-size="10.00" fill="#000000">protected_main</text>
</a>
</g>
</g>
<!-- Node8&#45;&gt;Node9 -->
<g id="edge8" class="edge">
<title>Node8&#45;&gt;Node9</title>
<path fill="none" stroke="#191970" d="M918.2653,-10C926.5757,-10 935.2897,-10 943.6749,-10"/>
<polygon fill="#191970" stroke="#191970" points="918.0098,-6.5001 908.0098,-10 918.0098,-13.5001 918.0098,-6.5001"/>
</g>
<!-- Node10 -->
<g id="node10" class="node">
<title>Node10</title>
<g id="a_node10"><a xlink:href="main_8cxx.html#a3c04138a5bfe5d72780bb7e82a18e627" target="_top" xlink:title="main">
<polygon fill="none" stroke="#000000" points="1073,-.5 1073,-19.5 1114,-19.5 1114,-.5 1073,-.5"/>
<text text-anchor="middle" x="1093.5" y="-7.5" font-family="Helvetica,sans-Serif" font-size="10.00" fill="#000000">main</text>
</a>
</g>
</g>
<!-- Node9&#45;&gt;Node10 -->
<g id="edge9" class="edge">
<title>Node9&#45;&gt;Node10</title>
<path fill="none" stroke="#191970" d="M1047.2133,-10C1056.4322,-10 1065.4259,-10 1072.9965,-10"/>
<polygon fill="#191970" stroke="#191970" points="1047.1782,-6.5001 1037.1782,-10 1047.1781,-13.5001 1047.1782,-6.5001"/>
</g>
</g>
</svg>
