<?xml version="1.0" encoding="UTF-8" standalone="no"?>
<!DOCTYPE svg PUBLIC "-//W3C//DTD SVG 1.1//EN"
 "http://www.w3.org/Graphics/SVG/1.1/DTD/svg11.dtd">
<!-- Generated by graphviz version 2.40.1 (20161225.0304)
 -->
<!-- Title: src/engine Pages: 1 -->
<svg width="258pt" height="447pt"
 viewBox="0.00 0.00 258.16 447.00" xmlns="http://www.w3.org/2000/svg" xmlns:xlink="http://www.w3.org/1999/xlink">
<g id="graph0" class="graph" transform="scale(1 1) rotate(0) translate(4 443)">
<title>src/engine</title>
<g id="clust1" class="cluster">
<title>clusterdir_68267d1309a1af8e8297ef4c3efbcdba</title>
<g id="a_clust1"><a xlink:href="dir_68267d1309a1af8e8297ef4c3efbcdba.html" target="_top" xlink:title="src">
<polygon fill="#ddddee" stroke="#000000" points="8,-56 8,-431 238,-431 238,-56 8,-56"/>
<text text-anchor="middle" x="123" y="-419" font-family="Helvetica,sans-Serif" font-size="10.00" fill="#000000">src</text>
</a>
</g>
</g>
<g id="clust2" class="cluster">
<title>clusterdir_2052808828190f934b76e979ee65af8a</title>
<g id="a_clust2"><a xlink:href="dir_2052808828190f934b76e979ee65af8a.html" target="_top">
<polygon fill="#eeeeff" stroke="#000000" points="16,-64 16,-404 230,-404 230,-64 16,-64"/>
</a>
</g>
</g>
<!-- dir_2052808828190f934b76e979ee65af8a -->
<g id="node1" class="node">
<title>dir_2052808828190f934b76e979ee65af8a</title>
<text text-anchor="middle" x="195" y="-375.5" font-family="Helvetica,sans-Serif" font-size="10.00" fill="#000000">engine</text>
</g>
<!-- dir_4fe8ccee3eb27515a7d94c329d7794e3 -->
<g id="node2" class="node">
<title>dir_4fe8ccee3eb27515a7d94c329d7794e3</title>
<g id="a_node2"><a xlink:href="dir_4fe8ccee3eb27515a7d94c329d7794e3.html" target="_top" xlink:title="audio">
<polygon fill="#ffffff" stroke="#000000" points="78,-396 24,-396 24,-360 78,-360 78,-396"/>
<text text-anchor="middle" x="51" y="-375.5" font-family="Helvetica,sans-Serif" font-size="10.00" fill="#000000">audio</text>
</a>
</g>
</g>
<!-- dir_8c0f887d135e3a09c81f308091ce630b -->
<g id="node3" class="node">
<title>dir_8c0f887d135e3a09c81f308091ce630b</title>
<g id="a_node3"><a xlink:href="dir_8c0f887d135e3a09c81f308091ce630b.html" target="_top" xlink:title="basics">
<polygon fill="#ffffff" stroke="#000000" points="131,-324 77,-324 77,-288 131,-288 131,-324"/>
<text text-anchor="middle" x="104" y="-303.5" font-family="Helvetica,sans-Serif" font-size="10.00" fill="#000000">basics</text>
</a>
</g>
</g>
<!-- dir_4fe8ccee3eb27515a7d94c329d7794e3&#45;&gt;dir_8c0f887d135e3a09c81f308091ce630b -->
<g id="edge10" class="edge">
<title>dir_4fe8ccee3eb27515a7d94c329d7794e3&#45;&gt;dir_8c0f887d135e3a09c81f308091ce630b</title>
<path fill="none" stroke="#000000" d="M64.3741,-359.8314C70.4162,-351.6232 77.6763,-341.7606 84.3221,-332.7323"/>
<polygon fill="#000000" stroke="#000000" points="87.3363,-334.5415 90.4458,-324.4133 81.6989,-330.3918 87.3363,-334.5415"/>
<g id="a_edge10&#45;headlabel"><a xlink:href="dir_000002_000003.html" target="_top" xlink:title="1">
<text text-anchor="middle" x="87.4919" y="-336.6195" font-family="Helvetica,sans-Serif" font-size="10.00" fill="#000000">1</text>
</a>
</g>
</g>
<!-- dir_b7878ad5ecbf2506f4125b9d34c97e45 -->
<g id="node8" class="node">
<title>dir_b7878ad5ecbf2506f4125b9d34c97e45</title>
<g id="a_node8"><a xlink:href="dir_b7878ad5ecbf2506f4125b9d34c97e45.html" target="_top" xlink:title="util">
<polygon fill="none" stroke="#000000" points="201,-36 147,-36 147,0 201,0 201,-36"/>
<text text-anchor="middle" x="174" y="-15.5" font-family="Helvetica,sans-Serif" font-size="10.00" fill="#000000">util</text>
</a>
</g>
</g>
<!-- dir_4fe8ccee3eb27515a7d94c329d7794e3&#45;&gt;dir_b7878ad5ecbf2506f4125b9d34c97e45 -->
<g id="edge9" class="edge">
<title>dir_4fe8ccee3eb27515a7d94c329d7794e3&#45;&gt;dir_b7878ad5ecbf2506f4125b9d34c97e45</title>
<path fill="none" stroke="#000000" d="M78.3517,-364.6484C96.8626,-354.8648 121.261,-340.4589 140,-324 178.4873,-290.1957 212,-285.225 212,-234 212,-234 212,-234 212,-162 212,-120.3681 196.9672,-74.14 185.8119,-45.567"/>
<polygon fill="#000000" stroke="#000000" points="189.0368,-44.2055 182.0588,-36.2332 182.5422,-46.817 189.0368,-44.2055"/>
<g id="a_edge9&#45;headlabel"><a xlink:href="dir_000002_000014.html" target="_top" xlink:title="1">
<text text-anchor="middle" x="193.0121" y="-43.9814" font-family="Helvetica,sans-Serif" font-size="10.00" fill="#000000">1</text>
</a>
</g>
</g>
<!-- dir_3ccf6d3192f3ffcbe7eee38747026054 -->
<g id="node4" class="node">
<title>dir_3ccf6d3192f3ffcbe7eee38747026054</title>
<g id="a_node4"><a xlink:href="dir_3ccf6d3192f3ffcbe7eee38747026054.html" target="_top" xlink:title="common">
<polygon fill="#ffffff" stroke="#000000" points="133.5,-252 74.5,-252 74.5,-216 133.5,-216 133.5,-252"/>
<text text-anchor="middle" x="104" y="-231.5" font-family="Helvetica,sans-Serif" font-size="10.00" fill="#000000">common</text>
</a>
</g>
</g>
<!-- dir_8c0f887d135e3a09c81f308091ce630b&#45;&gt;dir_3ccf6d3192f3ffcbe7eee38747026054 -->
<g id="edge16" class="edge">
<title>dir_8c0f887d135e3a09c81f308091ce630b&#45;&gt;dir_3ccf6d3192f3ffcbe7eee38747026054</title>
<path fill="none" stroke="#000000" d="M98.0476,-287.8314C97.2972,-280.131 97.0763,-270.9743 97.3849,-262.4166"/>
<polygon fill="#000000" stroke="#000000" points="100.8792,-262.6161 98.024,-252.4133 93.8935,-262.1697 100.8792,-262.6161"/>
<g id="a_edge16&#45;headlabel"><a xlink:href="dir_000003_000004.html" target="_top" xlink:title="4">
<text text-anchor="middle" x="103.4836" y="-263.8844" font-family="Helvetica,sans-Serif" font-size="10.00" fill="#000000">4</text>
</a>
</g>
</g>
<!-- dir_8c0f887d135e3a09c81f308091ce630b&#45;&gt;dir_b7878ad5ecbf2506f4125b9d34c97e45 -->
<g id="edge15" class="edge">
<title>dir_8c0f887d135e3a09c81f308091ce630b&#45;&gt;dir_b7878ad5ecbf2506f4125b9d34c97e45</title>
<path fill="none" stroke="#000000" d="M120.1292,-287.8016C128.0131,-277.8901 136.8832,-265.016 142,-252 169.6482,-181.6691 174.0724,-91.3216 174.3819,-46.2319"/>
<polygon fill="#000000" stroke="#000000" points="177.8819,-46.0395 174.3852,-36.0383 170.8819,-46.0371 177.8819,-46.0395"/>
<g id="a_edge15&#45;headlabel"><a xlink:href="dir_000003_000014.html" target="_top" xlink:title="9">
<text text-anchor="middle" x="180.72" y="-47.135" font-family="Helvetica,sans-Serif" font-size="10.00" fill="#000000">9</text>
</a>
</g>
</g>
<!-- dir_3ccf6d3192f3ffcbe7eee38747026054&#45;&gt;dir_8c0f887d135e3a09c81f308091ce630b -->
<g id="edge8" class="edge">
<title>dir_3ccf6d3192f3ffcbe7eee38747026054&#45;&gt;dir_8c0f887d135e3a09c81f308091ce630b</title>
<path fill="none" stroke="#000000" d="M109.976,-252.4133C110.7071,-260.0593 110.9203,-269.1084 110.6155,-277.5726"/>
<polygon fill="#000000" stroke="#000000" points="107.1048,-277.6264 109.9524,-287.8314 114.0902,-278.078 107.1048,-277.6264"/>
<g id="a_edge8&#45;headlabel"><a xlink:href="dir_000004_000003.html" target="_top" xlink:title="2">
<text text-anchor="middle" x="104.5032" y="-271.3562" font-family="Helvetica,sans-Serif" font-size="10.00" fill="#000000">2</text>
</a>
</g>
</g>
<!-- dir_e1c1a612157aa4e0d7fb3dd5a06054d7 -->
<g id="node5" class="node">
<title>dir_e1c1a612157aa4e0d7fb3dd5a06054d7</title>
<g id="a_node5"><a xlink:href="dir_e1c1a612157aa4e0d7fb3dd5a06054d7.html" target="_top" xlink:title="GameObjects">
<polygon fill="#ffffff" stroke="#000000" points="107.5,-108 24.5,-108 24.5,-72 107.5,-72 107.5,-108"/>
<text text-anchor="middle" x="66" y="-87.5" font-family="Helvetica,sans-Serif" font-size="10.00" fill="#000000">GameObjects</text>
</a>
</g>
</g>
<!-- dir_3ccf6d3192f3ffcbe7eee38747026054&#45;&gt;dir_e1c1a612157aa4e0d7fb3dd5a06054d7 -->
<g id="edge7" class="edge">
<title>dir_3ccf6d3192f3ffcbe7eee38747026054&#45;&gt;dir_e1c1a612157aa4e0d7fb3dd5a06054d7</title>
<path fill="none" stroke="#000000" d="M84.3985,-215.7296C77.4891,-205.5921 70.801,-192.5311 67,-180 60.9251,-159.9723 58.4641,-136.4363 58.7668,-118.4568"/>
<polygon fill="#000000" stroke="#000000" points="62.2698,-118.4862 59.2811,-108.3217 55.2788,-118.1314 62.2698,-118.4862"/>
<g id="a_edge7&#45;headlabel"><a xlink:href="dir_000004_000005.html" target="_top" xlink:title="1">
<text text-anchor="middle" x="64.9233" y="-119.7201" font-family="Helvetica,sans-Serif" font-size="10.00" fill="#000000">1</text>
</a>
</g>
</g>
<!-- dir_3e7675e027e995ce76f0b1e50f5f7211 -->
<g id="node6" class="node">
<title>dir_3e7675e027e995ce76f0b1e50f5f7211</title>
<g id="a_node6"><a xlink:href="dir_3e7675e027e995ce76f0b1e50f5f7211.html" target="_top" xlink:title="map">
<polygon fill="#ffffff" stroke="#000000" points="139,-180 85,-180 85,-144 139,-144 139,-180"/>
<text text-anchor="middle" x="112" y="-159.5" font-family="Helvetica,sans-Serif" font-size="10.00" fill="#000000">map</text>
</a>
</g>
</g>
<!-- dir_3ccf6d3192f3ffcbe7eee38747026054&#45;&gt;dir_3e7675e027e995ce76f0b1e50f5f7211 -->
<g id="edge6" class="edge">
<title>dir_3ccf6d3192f3ffcbe7eee38747026054&#45;&gt;dir_3e7675e027e995ce76f0b1e50f5f7211</title>
<path fill="none" stroke="#000000" d="M100.0663,-215.8314C100.1715,-208.131 100.968,-198.9743 102.2275,-190.4166"/>
<polygon fill="#000000" stroke="#000000" points="105.7018,-190.8669 103.9781,-180.4133 98.8066,-189.6602 105.7018,-190.8669"/>
<g id="a_edge6&#45;headlabel"><a xlink:href="dir_000004_000006.html" target="_top" xlink:title="1">
<text text-anchor="middle" x="107.879" y="-192.3971" font-family="Helvetica,sans-Serif" font-size="10.00" fill="#000000">1</text>
</a>
</g>
</g>
<!-- dir_e1c1a612157aa4e0d7fb3dd5a06054d7&#45;&gt;dir_8c0f887d135e3a09c81f308091ce630b -->
<g id="edge14" class="edge">
<title>dir_e1c1a612157aa4e0d7fb3dd5a06054d7&#45;&gt;dir_8c0f887d135e3a09c81f308091ce630b</title>
<path fill="none" stroke="#000000" d="M62.2945,-108.0558C56.8106,-138.5827 48.8182,-201.9564 65,-252 68.1688,-261.7999 73.8532,-271.3169 79.9191,-279.5617"/>
<polygon fill="#000000" stroke="#000000" points="77.3529,-281.9602 86.2892,-287.6517 82.8526,-277.6297 77.3529,-281.9602"/>
<g id="a_edge14&#45;headlabel"><a xlink:href="dir_000005_000003.html" target="_top" xlink:title="2">
<text text-anchor="middle" x="72.8984" y="-278.3926" font-family="Helvetica,sans-Serif" font-size="10.00" fill="#000000">2</text>
</a>
</g>
</g>
<!-- dir_e1c1a612157aa4e0d7fb3dd5a06054d7&#45;&gt;dir_3ccf6d3192f3ffcbe7eee38747026054 -->
<g id="edge13" class="edge">
<title>dir_e1c1a612157aa4e0d7fb3dd5a06054d7&#45;&gt;dir_3ccf6d3192f3ffcbe7eee38747026054</title>
<path fill="none" stroke="#000000" d="M72.8866,-108.3217C75.6178,-126.7906 77.6987,-155.9291 85,-180 87.732,-189.0067 91.9554,-198.2872 95.921,-206.5592"/>
<polygon fill="#000000" stroke="#000000" points="92.8502,-208.2489 100.3529,-215.7296 99.1528,-205.203 92.8502,-208.2489"/>
<g id="a_edge13&#45;headlabel"><a xlink:href="dir_000005_000004.html" target="_top" xlink:title="1">
<text text-anchor="middle" x="88.7298" y="-203.7479" font-family="Helvetica,sans-Serif" font-size="10.00" fill="#000000">1</text>
</a>
</g>
</g>
<!-- dir_e1c1a612157aa4e0d7fb3dd5a06054d7&#45;&gt;dir_3e7675e027e995ce76f0b1e50f5f7211 -->
<g id="edge12" class="edge">
<title>dir_e1c1a612157aa4e0d7fb3dd5a06054d7&#45;&gt;dir_3e7675e027e995ce76f0b1e50f5f7211</title>
<path fill="none" stroke="#000000" d="M83.74,-108.4133C89.6681,-116.484 96.0179,-126.1182 101.2955,-134.9775"/>
<polygon fill="#000000" stroke="#000000" points="98.3504,-136.8785 106.3447,-143.8314 104.4311,-133.4107 98.3504,-136.8785"/>
<g id="a_edge12&#45;headlabel"><a xlink:href="dir_000005_000006.html" target="_top" xlink:title="1">
<text text-anchor="middle" x="94.1033" y="-132.6624" font-family="Helvetica,sans-Serif" font-size="10.00" fill="#000000">1</text>
</a>
</g>
</g>
<!-- dir_e1c1a612157aa4e0d7fb3dd5a06054d7&#45;&gt;dir_b7878ad5ecbf2506f4125b9d34c97e45 -->
<g id="edge11" class="edge">
<title>dir_e1c1a612157aa4e0d7fb3dd5a06054d7&#45;&gt;dir_b7878ad5ecbf2506f4125b9d34c97e45</title>
<path fill="none" stroke="#000000" d="M93.253,-71.8314C106.9389,-62.7074 123.6915,-51.539 138.3827,-41.7449"/>
<polygon fill="#000000" stroke="#000000" points="140.3767,-44.6221 146.7558,-36.1628 136.4938,-38.7977 140.3767,-44.6221"/>
<g id="a_edge11&#45;headlabel"><a xlink:href="dir_000005_000014.html" target="_top" xlink:title="1">
<text text-anchor="middle" x="138.9608" y="-46.4784" font-family="Helvetica,sans-Serif" font-size="10.00" fill="#000000">1</text>
</a>
</g>
</g>
<!-- dir_3e7675e027e995ce76f0b1e50f5f7211&#45;&gt;dir_3ccf6d3192f3ffcbe7eee38747026054 -->
<g id="edge4" class="edge">
<title>dir_3e7675e027e995ce76f0b1e50f5f7211&#45;&gt;dir_3ccf6d3192f3ffcbe7eee38747026054</title>
<path fill="none" stroke="#000000" d="M115.9301,-180.4133C115.8103,-188.1442 115.0017,-197.3097 113.7324,-205.8545"/>
<polygon fill="#000000" stroke="#000000" points="110.263,-205.3751 111.9711,-215.8314 117.1564,-206.5921 110.263,-205.3751"/>
<g id="a_edge4&#45;headlabel"><a xlink:href="dir_000006_000004.html" target="_top" xlink:title="3">
<text text-anchor="middle" x="108.0918" y="-198.8417" font-family="Helvetica,sans-Serif" font-size="10.00" fill="#000000">3</text>
</a>
</g>
</g>
<!-- dir_3e7675e027e995ce76f0b1e50f5f7211&#45;&gt;dir_e1c1a612157aa4e0d7fb3dd5a06054d7 -->
<g id="edge5" class="edge">
<title>dir_3e7675e027e995ce76f0b1e50f5f7211&#45;&gt;dir_e1c1a612157aa4e0d7fb3dd5a06054d7</title>
<path fill="none" stroke="#000000" d="M94.4399,-143.8314C88.5205,-135.7925 82.1643,-126.1666 76.8651,-117.2918"/>
<polygon fill="#000000" stroke="#000000" points="79.7905,-115.3567 71.788,-108.4133 73.7138,-118.8316 79.7905,-115.3567"/>
<g id="a_edge5&#45;headlabel"><a xlink:href="dir_000006_000005.html" target="_top" xlink:title="1">
<text text-anchor="middle" x="84.0395" y="-114.5678" font-family="Helvetica,sans-Serif" font-size="10.00" fill="#000000">1</text>
</a>
</g>
</g>
<!-- dir_3e7675e027e995ce76f0b1e50f5f7211&#45;&gt;dir_b7878ad5ecbf2506f4125b9d34c97e45 -->
<g id="edge3" class="edge">
<title>dir_3e7675e027e995ce76f0b1e50f5f7211&#45;&gt;dir_b7878ad5ecbf2506f4125b9d34c97e45</title>
<path fill="none" stroke="#000000" d="M119.8523,-143.7623C130.5205,-118.9846 149.6859,-74.4714 162.1193,-45.5939"/>
<polygon fill="#000000" stroke="#000000" points="165.4715,-46.6586 166.2114,-36.0896 159.0421,-43.8903 165.4715,-46.6586"/>
<g id="a_edge3&#45;headlabel"><a xlink:href="dir_000006_000014.html" target="_top" xlink:title="2">
<text text-anchor="middle" x="166.6578" y="-48.583" font-family="Helvetica,sans-Serif" font-size="10.00" fill="#000000">2</text>
</a>
</g>
</g>
<!-- dir_dafb870456d4817504c840071e25f057 -->
<g id="node7" class="node">
<title>dir_dafb870456d4817504c840071e25f057</title>
<g id="a_node7"><a xlink:href="dir_dafb870456d4817504c840071e25f057.html" target="_top" xlink:title="ui">
<polygon fill="#ffffff" stroke="#ff0000" points="150,-396 96,-396 96,-360 150,-360 150,-396"/>
<text text-anchor="middle" x="123" y="-375.5" font-family="Helvetica,sans-Serif" font-size="10.00" fill="#000000">ui</text>
</a>
</g>
</g>
<!-- dir_dafb870456d4817504c840071e25f057&#45;&gt;dir_8c0f887d135e3a09c81f308091ce630b -->
<g id="edge2" class="edge">
<title>dir_dafb870456d4817504c840071e25f057&#45;&gt;dir_8c0f887d135e3a09c81f308091ce630b</title>
<path fill="none" stroke="#000000" d="M118.2055,-359.8314C116.1511,-352.0463 113.704,-342.7729 111.4244,-334.1347"/>
<polygon fill="#000000" stroke="#000000" points="114.7948,-333.1892 108.8591,-324.4133 108.0265,-334.9753 114.7948,-333.1892"/>
<g id="a_edge2&#45;headlabel"><a xlink:href="dir_000007_000003.html" target="_top" xlink:title="7">
<text text-anchor="middle" x="118.4572" y="-333.4404" font-family="Helvetica,sans-Serif" font-size="10.00" fill="#000000">7</text>
</a>
</g>
</g>
<!-- dir_dafb870456d4817504c840071e25f057&#45;&gt;dir_b7878ad5ecbf2506f4125b9d34c97e45 -->
<g id="edge1" class="edge">
<title>dir_dafb870456d4817504c840071e25f057&#45;&gt;dir_b7878ad5ecbf2506f4125b9d34c97e45</title>
<path fill="none" stroke="#000000" d="M150.2068,-364.4184C179.8217,-349.533 223.3529,-327.3122 226,-324 251.8455,-291.6614 250,-275.3978 250,-234 250,-234 250,-234 250,-162 250,-113.6964 252.5195,-96.3726 226,-56 221.5973,-49.2975 215.5803,-43.368 209.1989,-38.3044"/>
<polygon fill="#000000" stroke="#000000" points="211.1631,-35.4053 201.0152,-32.3607 207.0496,-41.0691 211.1631,-35.4053"/>
<g id="a_edge1&#45;headlabel"><a xlink:href="dir_000007_000014.html" target="_top" xlink:title="7">
<text text-anchor="middle" x="215.74" y="-32.7203" font-family="Helvetica,sans-Serif" font-size="10.00" fill="#000000">7</text>
</a>
</g>
</g>
</g>
</svg>
