<?xml version="1.0" encoding="UTF-8" standalone="no"?>
<!DOCTYPE svg PUBLIC "-//W3C//DTD SVG 1.1//EN"
 "http://www.w3.org/Graphics/SVG/1.1/DTD/svg11.dtd">
<!-- Generated by graphviz version 2.40.1 (20161225.0304)
 -->
<!-- Title: src/engine/ui Pages: 1 -->
<svg width="207pt" height="375pt"
 viewBox="0.00 0.00 207.00 375.00" xmlns="http://www.w3.org/2000/svg" xmlns:xlink="http://www.w3.org/1999/xlink">
<g id="graph0" class="graph" transform="scale(1 1) rotate(0) translate(4 371)">
<title>src/engine/ui</title>
<g id="clust1" class="cluster">
<title>clusterdir_2052808828190f934b76e979ee65af8a</title>
<g id="a_clust1"><a xlink:href="dir_2052808828190f934b76e979ee65af8a.html" target="_top" xlink:title="engine">
<polygon fill="#ddddee" stroke="#000000" points="8,-128 8,-359 191,-359 191,-128 8,-128"/>
<text text-anchor="middle" x="99.5" y="-347" font-family="Helvetica,sans-Serif" font-size="10.00" fill="#000000">engine</text>
</a>
</g>
</g>
<g id="clust2" class="cluster">
<title>clusterdir_dafb870456d4817504c840071e25f057</title>
<g id="a_clust2"><a xlink:href="dir_dafb870456d4817504c840071e25f057.html" target="_top">
<polygon fill="#eeeeff" stroke="#000000" points="16,-136 16,-332 183,-332 183,-136 16,-136"/>
</a>
</g>
</g>
<!-- dir_dafb870456d4817504c840071e25f057 -->
<g id="node1" class="node">
<title>dir_dafb870456d4817504c840071e25f057</title>
<text text-anchor="middle" x="148" y="-303.5" font-family="Helvetica,sans-Serif" font-size="10.00" fill="#000000">ui</text>
</g>
<!-- dir_5430acbacf25f3c993fa948280e8f66e -->
<g id="node2" class="node">
<title>dir_5430acbacf25f3c993fa948280e8f66e</title>
<g id="a_node2"><a xlink:href="dir_5430acbacf25f3c993fa948280e8f66e.html" target="_top" xlink:title="basics">
<polygon fill="#ffffff" stroke="#000000" points="90,-252 36,-252 36,-216 90,-216 90,-252"/>
<text text-anchor="middle" x="63" y="-231.5" font-family="Helvetica,sans-Serif" font-size="10.00" fill="#000000">basics</text>
</a>
</g>
</g>
<!-- dir_da596e0a640cb07f660e5a92758700d0 -->
<g id="node4" class="node">
<title>dir_da596e0a640cb07f660e5a92758700d0</title>
<g id="a_node4"><a xlink:href="dir_da596e0a640cb07f660e5a92758700d0.html" target="_top" xlink:title="widgets">
<polygon fill="#ffffff" stroke="#000000" points="85.5,-180 30.5,-180 30.5,-144 85.5,-144 85.5,-180"/>
<text text-anchor="middle" x="58" y="-159.5" font-family="Helvetica,sans-Serif" font-size="10.00" fill="#000000">widgets</text>
</a>
</g>
</g>
<!-- dir_5430acbacf25f3c993fa948280e8f66e&#45;&gt;dir_da596e0a640cb07f660e5a92758700d0 -->
<g id="edge2" class="edge">
<title>dir_5430acbacf25f3c993fa948280e8f66e&#45;&gt;dir_da596e0a640cb07f660e5a92758700d0</title>
<path fill="none" stroke="#000000" d="M55.7859,-215.8314C54.5007,-208.131 53.6439,-198.9743 53.3583,-190.4166"/>
<polygon fill="#000000" stroke="#000000" points="56.8583,-190.3936 53.3027,-180.4133 49.8584,-190.4326 56.8583,-190.3936"/>
<g id="a_edge2&#45;headlabel"><a xlink:href="dir_000008_000010.html" target="_top" xlink:title="1">
<text text-anchor="middle" x="59.7174" y="-191.4724" font-family="Helvetica,sans-Serif" font-size="10.00" fill="#000000">1</text>
</a>
</g>
</g>
<!-- dir_b7878ad5ecbf2506f4125b9d34c97e45 -->
<g id="node5" class="node">
<title>dir_b7878ad5ecbf2506f4125b9d34c97e45</title>
<g id="a_node5"><a xlink:href="dir_b7878ad5ecbf2506f4125b9d34c97e45.html" target="_top" xlink:title="util">
<polygon fill="none" stroke="#000000" points="132,-36 78,-36 78,0 132,0 132,-36"/>
<text text-anchor="middle" x="105" y="-15.5" font-family="Helvetica,sans-Serif" font-size="10.00" fill="#000000">util</text>
</a>
</g>
</g>
<!-- dir_5430acbacf25f3c993fa948280e8f66e&#45;&gt;dir_b7878ad5ecbf2506f4125b9d34c97e45 -->
<g id="edge1" class="edge">
<title>dir_5430acbacf25f3c993fa948280e8f66e&#45;&gt;dir_b7878ad5ecbf2506f4125b9d34c97e45</title>
<path fill="none" stroke="#000000" d="M82.9625,-215.9656C92.9913,-206.099 104.7344,-193.2155 113,-180 131.2067,-150.8902 134.6692,-141.7459 141,-108 143.9502,-92.2743 145.6365,-87.3135 141,-72 138.0436,-62.2355 132.6748,-52.6229 126.97,-44.2762"/>
<polygon fill="#000000" stroke="#000000" points="129.7129,-42.0973 120.9905,-36.0831 124.0586,-46.2239 129.7129,-42.0973"/>
<g id="a_edge1&#45;headlabel"><a xlink:href="dir_000008_000014.html" target="_top" xlink:title="3">
<text text-anchor="middle" x="134.1253" y="-40.827" font-family="Helvetica,sans-Serif" font-size="10.00" fill="#000000">3</text>
</a>
</g>
</g>
<!-- dir_8c0f887d135e3a09c81f308091ce630b -->
<g id="node6" class="node">
<title>dir_8c0f887d135e3a09c81f308091ce630b</title>
<g id="a_node6"><a xlink:href="dir_8c0f887d135e3a09c81f308091ce630b.html" target="_top" xlink:title="basics">
<polygon fill="none" stroke="#000000" points="132,-108 78,-108 78,-72 132,-72 132,-108"/>
<text text-anchor="middle" x="105" y="-87.5" font-family="Helvetica,sans-Serif" font-size="10.00" fill="#000000">basics</text>
</a>
</g>
</g>
<!-- dir_5430acbacf25f3c993fa948280e8f66e&#45;&gt;dir_8c0f887d135e3a09c81f308091ce630b -->
<g id="edge3" class="edge">
<title>dir_5430acbacf25f3c993fa948280e8f66e&#45;&gt;dir_8c0f887d135e3a09c81f308091ce630b</title>
<path fill="none" stroke="#000000" d="M75.8492,-215.8788C82.3604,-205.785 89.7659,-192.7181 94,-180 100.6607,-159.9931 103.3626,-136.2812 104.425,-118.2198"/>
<polygon fill="#000000" stroke="#000000" points="107.9296,-118.1977 104.8871,-108.0491 100.9368,-117.8799 107.9296,-118.1977"/>
<g id="a_edge3&#45;headlabel"><a xlink:href="dir_000008_000003.html" target="_top" xlink:title="5">
<text text-anchor="middle" x="110.6029" y="-119.4174" font-family="Helvetica,sans-Serif" font-size="10.00" fill="#000000">5</text>
</a>
</g>
</g>
<!-- dir_12bf07b2862220ce91530ffb27a5906b -->
<g id="node3" class="node">
<title>dir_12bf07b2862220ce91530ffb27a5906b</title>
<g id="a_node3"><a xlink:href="dir_12bf07b2862220ce91530ffb27a5906b.html" target="_top" xlink:title="menuGroups">
<polygon fill="#ffffff" stroke="#000000" points="102.5,-324 23.5,-324 23.5,-288 102.5,-288 102.5,-324"/>
<text text-anchor="middle" x="63" y="-303.5" font-family="Helvetica,sans-Serif" font-size="10.00" fill="#000000">menuGroups</text>
</a>
</g>
</g>
<!-- dir_12bf07b2862220ce91530ffb27a5906b&#45;&gt;dir_5430acbacf25f3c993fa948280e8f66e -->
<g id="edge7" class="edge">
<title>dir_12bf07b2862220ce91530ffb27a5906b&#45;&gt;dir_5430acbacf25f3c993fa948280e8f66e</title>
<path fill="none" stroke="#000000" d="M63,-287.8314C63,-280.131 63,-270.9743 63,-262.4166"/>
<polygon fill="#000000" stroke="#000000" points="66.5001,-262.4132 63,-252.4133 59.5001,-262.4133 66.5001,-262.4132"/>
<g id="a_edge7&#45;headlabel"><a xlink:href="dir_000009_000008.html" target="_top" xlink:title="2">
<text text-anchor="middle" x="69.3393" y="-263.5079" font-family="Helvetica,sans-Serif" font-size="10.00" fill="#000000">2</text>
</a>
</g>
</g>
<!-- dir_da596e0a640cb07f660e5a92758700d0&#45;&gt;dir_5430acbacf25f3c993fa948280e8f66e -->
<g id="edge5" class="edge">
<title>dir_da596e0a640cb07f660e5a92758700d0&#45;&gt;dir_5430acbacf25f3c993fa948280e8f66e</title>
<path fill="none" stroke="#000000" d="M65.2547,-180.4133C66.5168,-188.0593 67.3584,-197.1084 67.6414,-205.5726"/>
<polygon fill="#000000" stroke="#000000" points="64.1425,-205.8483 67.6907,-215.8314 71.1425,-205.8146 64.1425,-205.8483"/>
<g id="a_edge5&#45;headlabel"><a xlink:href="dir_000010_000008.html" target="_top" xlink:title="10">
<text text-anchor="middle" x="61.2861" y="-199.7674" font-family="Helvetica,sans-Serif" font-size="10.00" fill="#000000">10</text>
</a>
</g>
</g>
<!-- dir_da596e0a640cb07f660e5a92758700d0&#45;&gt;dir_b7878ad5ecbf2506f4125b9d34c97e45 -->
<g id="edge4" class="edge">
<title>dir_da596e0a640cb07f660e5a92758700d0&#45;&gt;dir_b7878ad5ecbf2506f4125b9d34c97e45</title>
<path fill="none" stroke="#000000" d="M57.7827,-143.8348C58.1146,-125.2351 60.1954,-95.7649 69,-72 72.5444,-62.4332 78.0852,-52.8784 83.7667,-44.524"/>
<polygon fill="#000000" stroke="#000000" points="86.679,-46.4687 89.6607,-36.302 80.9898,-42.3903 86.679,-46.4687"/>
<g id="a_edge4&#45;headlabel"><a xlink:href="dir_000010_000014.html" target="_top" xlink:title="4">
<text text-anchor="middle" x="86.8924" y="-48.5444" font-family="Helvetica,sans-Serif" font-size="10.00" fill="#000000">4</text>
</a>
</g>
</g>
<!-- dir_da596e0a640cb07f660e5a92758700d0&#45;&gt;dir_8c0f887d135e3a09c81f308091ce630b -->
<g id="edge6" class="edge">
<title>dir_da596e0a640cb07f660e5a92758700d0&#45;&gt;dir_8c0f887d135e3a09c81f308091ce630b</title>
<path fill="none" stroke="#000000" d="M69.8601,-143.8314C75.1629,-135.7079 81.5237,-125.9637 87.3673,-117.0118"/>
<polygon fill="#000000" stroke="#000000" points="90.4448,-118.7003 92.9802,-108.4133 84.5831,-114.8739 90.4448,-118.7003"/>
<g id="a_edge6&#45;headlabel"><a xlink:href="dir_000010_000003.html" target="_top" xlink:title="2">
<text text-anchor="middle" x="90.8575" y="-120.7623" font-family="Helvetica,sans-Serif" font-size="10.00" fill="#000000">2</text>
</a>
</g>
</g>
<!-- dir_8c0f887d135e3a09c81f308091ce630b&#45;&gt;dir_b7878ad5ecbf2506f4125b9d34c97e45 -->
<g id="edge8" class="edge">
<title>dir_8c0f887d135e3a09c81f308091ce630b&#45;&gt;dir_b7878ad5ecbf2506f4125b9d34c97e45</title>
<path fill="none" stroke="#000000" d="M105,-71.8314C105,-64.131 105,-54.9743 105,-46.4166"/>
<polygon fill="#000000" stroke="#000000" points="108.5001,-46.4132 105,-36.4133 101.5001,-46.4133 108.5001,-46.4132"/>
<g id="a_edge8&#45;headlabel"><a xlink:href="dir_000003_000014.html" target="_top" xlink:title="9">
<text text-anchor="middle" x="111.3393" y="-47.5079" font-family="Helvetica,sans-Serif" font-size="10.00" fill="#000000">9</text>
</a>
</g>
</g>
</g>
</svg>
