<?xml version="1.0" encoding="UTF-8" standalone="no"?>
<!DOCTYPE svg PUBLIC "-//W3C//DTD SVG 1.1//EN"
 "http://www.w3.org/Graphics/SVG/1.1/DTD/svg11.dtd">
<!-- Generated by graphviz version 2.40.1 (20161225.0304)
 -->
<!-- Title: src/engine/common Pages: 1 -->
<svg width="185pt" height="188pt"
 viewBox="0.00 0.00 184.50 188.00" xmlns="http://www.w3.org/2000/svg" xmlns:xlink="http://www.w3.org/1999/xlink">
<g id="graph0" class="graph" transform="scale(1 1) rotate(0) translate(4 184)">
<title>src/engine/common</title>
<g id="clust1" class="cluster">
<title>clusterdir_2052808828190f934b76e979ee65af8a</title>
<g id="a_clust1"><a xlink:href="dir_2052808828190f934b76e979ee65af8a.html" target="_top" xlink:title="engine">
<polygon fill="#ddddee" stroke="#000000" points="8,-64 8,-135 84,-135 84,-64 8,-64"/>
<text text-anchor="middle" x="46" y="-123" font-family="Helvetica,sans-Serif" font-size="10.00" fill="#000000">engine</text>
</a>
</g>
</g>
<!-- dir_3ccf6d3192f3ffcbe7eee38747026054 -->
<g id="node1" class="node">
<title>dir_3ccf6d3192f3ffcbe7eee38747026054</title>
<g id="a_node1"><a xlink:href="dir_3ccf6d3192f3ffcbe7eee38747026054.html" target="_top" xlink:title="common">
<polygon fill="#eeeeff" stroke="#000000" points="75.5,-108 16.5,-108 16.5,-72 75.5,-72 75.5,-108"/>
<text text-anchor="middle" x="46" y="-87.5" font-family="Helvetica,sans-Serif" font-size="10.00" fill="#000000">common</text>
</a>
</g>
</g>
<!-- dir_3e7675e027e995ce76f0b1e50f5f7211 -->
<g id="node2" class="node">
<title>dir_3e7675e027e995ce76f0b1e50f5f7211</title>
<g id="a_node2"><a xlink:href="dir_3e7675e027e995ce76f0b1e50f5f7211.html" target="_top" xlink:title="map">
<polygon fill="none" stroke="#000000" points="162,-180 108,-180 108,-144 162,-144 162,-180"/>
<text text-anchor="middle" x="135" y="-159.5" font-family="Helvetica,sans-Serif" font-size="10.00" fill="#000000">map</text>
</a>
</g>
</g>
<!-- dir_3ccf6d3192f3ffcbe7eee38747026054&#45;&gt;dir_3e7675e027e995ce76f0b1e50f5f7211 -->
<g id="edge3" class="edge">
<title>dir_3ccf6d3192f3ffcbe7eee38747026054&#45;&gt;dir_3e7675e027e995ce76f0b1e50f5f7211</title>
<path fill="none" stroke="#000000" d="M51.0583,-108.0353C57.1475,-116.8659 66.3218,-127.2387 76,-135 82.7487,-140.412 90.7404,-145.2842 98.6935,-149.3516"/>
<polygon fill="#000000" stroke="#000000" points="97.4007,-152.6122 107.9353,-153.7406 100.4037,-146.289 97.4007,-152.6122"/>
<g id="a_edge3&#45;headlabel"><a xlink:href="dir_000004_000006.html" target="_top" xlink:title="1">
<text text-anchor="middle" x="92.9357" y="-151.1349" font-family="Helvetica,sans-Serif" font-size="10.00" fill="#000000">1</text>
</a>
</g>
</g>
<!-- dir_e1c1a612157aa4e0d7fb3dd5a06054d7 -->
<g id="node3" class="node">
<title>dir_e1c1a612157aa4e0d7fb3dd5a06054d7</title>
<g id="a_node3"><a xlink:href="dir_e1c1a612157aa4e0d7fb3dd5a06054d7.html" target="_top" xlink:title="GameObjects">
<polygon fill="none" stroke="#000000" points="176.5,-108 93.5,-108 93.5,-72 176.5,-72 176.5,-108"/>
<text text-anchor="middle" x="135" y="-87.5" font-family="Helvetica,sans-Serif" font-size="10.00" fill="#000000">GameObjects</text>
</a>
</g>
</g>
<!-- dir_3ccf6d3192f3ffcbe7eee38747026054&#45;&gt;dir_e1c1a612157aa4e0d7fb3dd5a06054d7 -->
<g id="edge4" class="edge">
<title>dir_3ccf6d3192f3ffcbe7eee38747026054&#45;&gt;dir_e1c1a612157aa4e0d7fb3dd5a06054d7</title>
<path fill="none" stroke="#000000" d="M75.5508,-90C78.0327,-90 80.5146,-90 82.9964,-90"/>
<polygon fill="#000000" stroke="#000000" points="83.1998,-93.5001 93.1998,-90 83.1997,-86.5001 83.1998,-93.5001"/>
<g id="a_edge4&#45;headlabel"><a xlink:href="dir_000004_000005.html" target="_top" xlink:title="1">
<text text-anchor="middle" x="79.6052" y="-93.8393" font-family="Helvetica,sans-Serif" font-size="10.00" fill="#000000">1</text>
</a>
</g>
</g>
<!-- dir_8c0f887d135e3a09c81f308091ce630b -->
<g id="node4" class="node">
<title>dir_8c0f887d135e3a09c81f308091ce630b</title>
<g id="a_node4"><a xlink:href="dir_8c0f887d135e3a09c81f308091ce630b.html" target="_top" xlink:title="basics">
<polygon fill="none" stroke="#000000" points="117,-36 63,-36 63,0 117,0 117,-36"/>
<text text-anchor="middle" x="90" y="-15.5" font-family="Helvetica,sans-Serif" font-size="10.00" fill="#000000">basics</text>
</a>
</g>
</g>
<!-- dir_3ccf6d3192f3ffcbe7eee38747026054&#45;&gt;dir_8c0f887d135e3a09c81f308091ce630b -->
<g id="edge5" class="edge">
<title>dir_3ccf6d3192f3ffcbe7eee38747026054&#45;&gt;dir_8c0f887d135e3a09c81f308091ce630b</title>
<path fill="none" stroke="#000000" d="M51.1507,-71.8314C55.3668,-63.6232 61.1958,-53.7606 67.1165,-44.7323"/>
<polygon fill="#000000" stroke="#000000" points="70.0442,-46.6511 72.7714,-36.4133 64.2551,-42.7158 70.0442,-46.6511"/>
<g id="a_edge5&#45;headlabel"><a xlink:href="dir_000004_000003.html" target="_top" xlink:title="2">
<text text-anchor="middle" x="70.3716" y="-48.72" font-family="Helvetica,sans-Serif" font-size="10.00" fill="#000000">2</text>
</a>
</g>
</g>
<!-- dir_3e7675e027e995ce76f0b1e50f5f7211&#45;&gt;dir_3ccf6d3192f3ffcbe7eee38747026054 -->
<g id="edge1" class="edge">
<title>dir_3e7675e027e995ce76f0b1e50f5f7211&#45;&gt;dir_3ccf6d3192f3ffcbe7eee38747026054</title>
<path fill="none" stroke="#000000" d="M107.9284,-144.6393C103.1268,-141.6924 98.3099,-138.4563 94,-135 87.0438,-129.4216 80.3479,-122.494 74.1824,-115.7597"/>
<polygon fill="#000000" stroke="#000000" points="76.5051,-113.1096 67.2044,-108.0353 71.3107,-117.802 76.5051,-113.1096"/>
<g id="a_edge1&#45;headlabel"><a xlink:href="dir_000006_000004.html" target="_top" xlink:title="3">
<text text-anchor="middle" x="81.0215" y="-111.3737" font-family="Helvetica,sans-Serif" font-size="10.00" fill="#000000">3</text>
</a>
</g>
</g>
<!-- dir_3e7675e027e995ce76f0b1e50f5f7211&#45;&gt;dir_e1c1a612157aa4e0d7fb3dd5a06054d7 -->
<g id="edge2" class="edge">
<title>dir_3e7675e027e995ce76f0b1e50f5f7211&#45;&gt;dir_e1c1a612157aa4e0d7fb3dd5a06054d7</title>
<path fill="none" stroke="#000000" d="M129.0476,-143.8314C128.2972,-136.131 128.0763,-126.9743 128.3849,-118.4166"/>
<polygon fill="#000000" stroke="#000000" points="131.8792,-118.6161 129.024,-108.4133 124.8935,-118.1697 131.8792,-118.6161"/>
<g id="a_edge2&#45;headlabel"><a xlink:href="dir_000006_000005.html" target="_top" xlink:title="1">
<text text-anchor="middle" x="134.4836" y="-119.8844" font-family="Helvetica,sans-Serif" font-size="10.00" fill="#000000">1</text>
</a>
</g>
</g>
<!-- dir_e1c1a612157aa4e0d7fb3dd5a06054d7&#45;&gt;dir_3ccf6d3192f3ffcbe7eee38747026054 -->
<g id="edge7" class="edge">
<title>dir_e1c1a612157aa4e0d7fb3dd5a06054d7&#45;&gt;dir_3ccf6d3192f3ffcbe7eee38747026054</title>
<path fill="none" stroke="#000000" d="M93.1998,-90C90.7179,-90 88.236,-90 85.7541,-90"/>
<polygon fill="#000000" stroke="#000000" points="85.5508,-86.5001 75.5508,-90 85.5507,-93.5001 85.5508,-86.5001"/>
<g id="a_edge7&#45;headlabel"><a xlink:href="dir_000005_000004.html" target="_top" xlink:title="1">
<text text-anchor="middle" x="89.1454" y="-81.1607" font-family="Helvetica,sans-Serif" font-size="10.00" fill="#000000">1</text>
</a>
</g>
</g>
<!-- dir_e1c1a612157aa4e0d7fb3dd5a06054d7&#45;&gt;dir_3e7675e027e995ce76f0b1e50f5f7211 -->
<g id="edge6" class="edge">
<title>dir_e1c1a612157aa4e0d7fb3dd5a06054d7&#45;&gt;dir_3e7675e027e995ce76f0b1e50f5f7211</title>
<path fill="none" stroke="#000000" d="M140.976,-108.4133C141.7071,-116.0593 141.9203,-125.1084 141.6155,-133.5726"/>
<polygon fill="#000000" stroke="#000000" points="138.1048,-133.6264 140.9524,-143.8314 145.0902,-134.078 138.1048,-133.6264"/>
<g id="a_edge6&#45;headlabel"><a xlink:href="dir_000005_000006.html" target="_top" xlink:title="1">
<text text-anchor="middle" x="135.5032" y="-127.3562" font-family="Helvetica,sans-Serif" font-size="10.00" fill="#000000">1</text>
</a>
</g>
</g>
<!-- dir_e1c1a612157aa4e0d7fb3dd5a06054d7&#45;&gt;dir_8c0f887d135e3a09c81f308091ce630b -->
<g id="edge8" class="edge">
<title>dir_e1c1a612157aa4e0d7fb3dd5a06054d7&#45;&gt;dir_8c0f887d135e3a09c81f308091ce630b</title>
<path fill="none" stroke="#000000" d="M123.6446,-71.8314C118.5674,-63.7079 112.4773,-53.9637 106.8824,-45.0118"/>
<polygon fill="#000000" stroke="#000000" points="109.7763,-43.0383 101.5083,-36.4133 103.8403,-46.7483 109.7763,-43.0383"/>
<g id="a_edge8&#45;headlabel"><a xlink:href="dir_000005_000003.html" target="_top" xlink:title="2">
<text text-anchor="middle" x="114.0891" y="-42.0817" font-family="Helvetica,sans-Serif" font-size="10.00" fill="#000000">2</text>
</a>
</g>
</g>
<!-- dir_8c0f887d135e3a09c81f308091ce630b&#45;&gt;dir_3ccf6d3192f3ffcbe7eee38747026054 -->
<g id="edge9" class="edge">
<title>dir_8c0f887d135e3a09c81f308091ce630b&#45;&gt;dir_3ccf6d3192f3ffcbe7eee38747026054</title>
<path fill="none" stroke="#000000" d="M84.7235,-36.4133C80.4755,-44.654 74.6298,-54.5245 68.7074,-63.536"/>
<polygon fill="#000000" stroke="#000000" points="65.7937,-61.5965 63.0555,-71.8314 71.5786,-65.538 65.7937,-61.5965"/>
<g id="a_edge9&#45;headlabel"><a xlink:href="dir_000003_000004.html" target="_top" xlink:title="4">
<text text-anchor="middle" x="65.4713" y="-54.5272" font-family="Helvetica,sans-Serif" font-size="10.00" fill="#000000">4</text>
</a>
</g>
</g>
</g>
</svg>
