<?xml version="1.0" encoding="UTF-8" standalone="no"?>
<!DOCTYPE svg PUBLIC "-//W3C//DTD SVG 1.1//EN"
 "http://www.w3.org/Graphics/SVG/1.1/DTD/svg11.dtd">
<!-- Generated by graphviz version 2.40.1 (20161225.0304)
 -->
<!-- Title: src/engine/map Pages: 1 -->
<svg width="180pt" height="151pt"
 viewBox="0.00 0.00 179.50 151.00" xmlns="http://www.w3.org/2000/svg" xmlns:xlink="http://www.w3.org/1999/xlink">
<g id="graph0" class="graph" transform="scale(1 1) rotate(0) translate(4 147)">
<title>src/engine/map</title>
<g id="clust1" class="cluster">
<title>clusterdir_2052808828190f934b76e979ee65af8a</title>
<g id="a_clust1"><a xlink:href="dir_2052808828190f934b76e979ee65af8a.html" target="_top" xlink:title="engine">
<polygon fill="#ddddee" stroke="#000000" points="8,-64 8,-135 78,-135 78,-64 8,-64"/>
<text text-anchor="middle" x="43" y="-123" font-family="Helvetica,sans-Serif" font-size="10.00" fill="#000000">engine</text>
</a>
</g>
</g>
<!-- dir_3e7675e027e995ce76f0b1e50f5f7211 -->
<g id="node1" class="node">
<title>dir_3e7675e027e995ce76f0b1e50f5f7211</title>
<g id="a_node1"><a xlink:href="dir_3e7675e027e995ce76f0b1e50f5f7211.html" target="_top" xlink:title="map">
<polygon fill="#eeeeff" stroke="#000000" points="70,-108 16,-108 16,-72 70,-72 70,-108"/>
<text text-anchor="middle" x="43" y="-87.5" font-family="Helvetica,sans-Serif" font-size="10.00" fill="#000000">map</text>
</a>
</g>
</g>
<!-- dir_b7878ad5ecbf2506f4125b9d34c97e45 -->
<g id="node2" class="node">
<title>dir_b7878ad5ecbf2506f4125b9d34c97e45</title>
<g id="a_node2"><a xlink:href="dir_b7878ad5ecbf2506f4125b9d34c97e45.html" target="_top" xlink:title="util">
<polygon fill="none" stroke="#000000" points="76,-36 22,-36 22,0 76,0 76,-36"/>
<text text-anchor="middle" x="49" y="-15.5" font-family="Helvetica,sans-Serif" font-size="10.00" fill="#000000">util</text>
</a>
</g>
</g>
<!-- dir_3e7675e027e995ce76f0b1e50f5f7211&#45;&gt;dir_b7878ad5ecbf2506f4125b9d34c97e45 -->
<g id="edge1" class="edge">
<title>dir_3e7675e027e995ce76f0b1e50f5f7211&#45;&gt;dir_b7878ad5ecbf2506f4125b9d34c97e45</title>
<path fill="none" stroke="#000000" d="M44.5141,-71.8314C45.1558,-64.131 45.9188,-54.9743 46.6319,-46.4166"/>
<polygon fill="#000000" stroke="#000000" points="50.1229,-46.6694 47.4656,-36.4133 43.1471,-46.088 50.1229,-46.6694"/>
<g id="a_edge1&#45;headlabel"><a xlink:href="dir_000006_000014.html" target="_top" xlink:title="2">
<text text-anchor="middle" x="52.654" y="-47.9874" font-family="Helvetica,sans-Serif" font-size="10.00" fill="#000000">2</text>
</a>
</g>
</g>
<!-- dir_3ccf6d3192f3ffcbe7eee38747026054 -->
<g id="node3" class="node">
<title>dir_3ccf6d3192f3ffcbe7eee38747026054</title>
<g id="a_node3"><a xlink:href="dir_3ccf6d3192f3ffcbe7eee38747026054.html" target="_top" xlink:title="common">
<polygon fill="none" stroke="#000000" points="159.5,-36 100.5,-36 100.5,0 159.5,0 159.5,-36"/>
<text text-anchor="middle" x="130" y="-15.5" font-family="Helvetica,sans-Serif" font-size="10.00" fill="#000000">common</text>
</a>
</g>
</g>
<!-- dir_3e7675e027e995ce76f0b1e50f5f7211&#45;&gt;dir_3ccf6d3192f3ffcbe7eee38747026054 -->
<g id="edge2" class="edge">
<title>dir_3e7675e027e995ce76f0b1e50f5f7211&#45;&gt;dir_3ccf6d3192f3ffcbe7eee38747026054</title>
<path fill="none" stroke="#000000" d="M59.0014,-71.8314C68.8528,-62.9632 81.7403,-52.1637 93.8709,-42.5718"/>
<polygon fill="#000000" stroke="#000000" points="96.3617,-45.0683 102.1014,-36.1628 92.061,-39.5452 96.3617,-45.0683"/>
<g id="a_edge2&#45;headlabel"><a xlink:href="dir_000006_000004.html" target="_top" xlink:title="3">
<text text-anchor="middle" x="95.27" y="-47.0169" font-family="Helvetica,sans-Serif" font-size="10.00" fill="#000000">3</text>
</a>
</g>
</g>
<!-- dir_e1c1a612157aa4e0d7fb3dd5a06054d7 -->
<g id="node4" class="node">
<title>dir_e1c1a612157aa4e0d7fb3dd5a06054d7</title>
<g id="a_node4"><a xlink:href="dir_e1c1a612157aa4e0d7fb3dd5a06054d7.html" target="_top" xlink:title="GameObjects">
<polygon fill="none" stroke="#000000" points="171.5,-108 88.5,-108 88.5,-72 171.5,-72 171.5,-108"/>
<text text-anchor="middle" x="130" y="-87.5" font-family="Helvetica,sans-Serif" font-size="10.00" fill="#000000">GameObjects</text>
</a>
</g>
</g>
<!-- dir_3e7675e027e995ce76f0b1e50f5f7211&#45;&gt;dir_e1c1a612157aa4e0d7fb3dd5a06054d7 -->
<g id="edge3" class="edge">
<title>dir_3e7675e027e995ce76f0b1e50f5f7211&#45;&gt;dir_e1c1a612157aa4e0d7fb3dd5a06054d7</title>
<path fill="none" stroke="#000000" d="M70.1875,-90C72.8452,-90 75.5029,-90 78.1606,-90"/>
<polygon fill="#000000" stroke="#000000" points="78.4117,-93.5001 88.4116,-90 78.4116,-86.5001 78.4117,-93.5001"/>
<g id="a_edge3&#45;headlabel"><a xlink:href="dir_000006_000005.html" target="_top" xlink:title="1">
<text text-anchor="middle" x="74.817" y="-93.8393" font-family="Helvetica,sans-Serif" font-size="10.00" fill="#000000">1</text>
</a>
</g>
</g>
<!-- dir_3ccf6d3192f3ffcbe7eee38747026054&#45;&gt;dir_3e7675e027e995ce76f0b1e50f5f7211 -->
<g id="edge4" class="edge">
<title>dir_3ccf6d3192f3ffcbe7eee38747026054&#45;&gt;dir_3e7675e027e995ce76f0b1e50f5f7211</title>
<path fill="none" stroke="#000000" d="M114.0825,-36.0931C104.0198,-45.1561 90.767,-56.2506 78.3878,-66.0136"/>
<polygon fill="#000000" stroke="#000000" points="76.1713,-63.3034 70.4213,-72.2022 80.4657,-68.8314 76.1713,-63.3034"/>
<g id="a_edge4&#45;headlabel"><a xlink:href="dir_000004_000006.html" target="_top" xlink:title="1">
<text text-anchor="middle" x="77.2681" y="-56.356" font-family="Helvetica,sans-Serif" font-size="10.00" fill="#000000">1</text>
</a>
</g>
</g>
<!-- dir_3ccf6d3192f3ffcbe7eee38747026054&#45;&gt;dir_e1c1a612157aa4e0d7fb3dd5a06054d7 -->
<g id="edge5" class="edge">
<title>dir_3ccf6d3192f3ffcbe7eee38747026054&#45;&gt;dir_e1c1a612157aa4e0d7fb3dd5a06054d7</title>
<path fill="none" stroke="#000000" d="M135.976,-36.4133C136.7071,-44.0593 136.9203,-53.1084 136.6155,-61.5726"/>
<polygon fill="#000000" stroke="#000000" points="133.1048,-61.6264 135.9524,-71.8314 140.0902,-62.078 133.1048,-61.6264"/>
<g id="a_edge5&#45;headlabel"><a xlink:href="dir_000004_000005.html" target="_top" xlink:title="1">
<text text-anchor="middle" x="130.5032" y="-55.3562" font-family="Helvetica,sans-Serif" font-size="10.00" fill="#000000">1</text>
</a>
</g>
</g>
<!-- dir_e1c1a612157aa4e0d7fb3dd5a06054d7&#45;&gt;dir_3e7675e027e995ce76f0b1e50f5f7211 -->
<g id="edge7" class="edge">
<title>dir_e1c1a612157aa4e0d7fb3dd5a06054d7&#45;&gt;dir_3e7675e027e995ce76f0b1e50f5f7211</title>
<path fill="none" stroke="#000000" d="M88.4116,-90C85.7539,-90 83.0963,-90 80.4386,-90"/>
<polygon fill="#000000" stroke="#000000" points="80.1875,-86.5001 70.1875,-90 80.1875,-93.5001 80.1875,-86.5001"/>
<g id="a_edge7&#45;headlabel"><a xlink:href="dir_000005_000006.html" target="_top" xlink:title="1">
<text text-anchor="middle" x="83.7821" y="-81.1607" font-family="Helvetica,sans-Serif" font-size="10.00" fill="#000000">1</text>
</a>
</g>
</g>
<!-- dir_e1c1a612157aa4e0d7fb3dd5a06054d7&#45;&gt;dir_b7878ad5ecbf2506f4125b9d34c97e45 -->
<g id="edge6" class="edge">
<title>dir_e1c1a612157aa4e0d7fb3dd5a06054d7&#45;&gt;dir_b7878ad5ecbf2506f4125b9d34c97e45</title>
<path fill="none" stroke="#000000" d="M109.5603,-71.8314C99.6795,-63.0485 87.6676,-52.3712 76.955,-42.8489"/>
<polygon fill="#000000" stroke="#000000" points="79.2326,-40.1906 69.4332,-36.1628 74.582,-45.4224 79.2326,-40.1906"/>
<g id="a_edge6&#45;headlabel"><a xlink:href="dir_000005_000014.html" target="_top" xlink:title="1">
<text text-anchor="middle" x="83.8055" y="-37.9566" font-family="Helvetica,sans-Serif" font-size="10.00" fill="#000000">1</text>
</a>
</g>
</g>
<!-- dir_e1c1a612157aa4e0d7fb3dd5a06054d7&#45;&gt;dir_3ccf6d3192f3ffcbe7eee38747026054 -->
<g id="edge8" class="edge">
<title>dir_e1c1a612157aa4e0d7fb3dd5a06054d7&#45;&gt;dir_3ccf6d3192f3ffcbe7eee38747026054</title>
<path fill="none" stroke="#000000" d="M124.0476,-71.8314C123.2972,-64.131 123.0763,-54.9743 123.3849,-46.4166"/>
<polygon fill="#000000" stroke="#000000" points="126.8792,-46.6161 124.024,-36.4133 119.8935,-46.1697 126.8792,-46.6161"/>
<g id="a_edge8&#45;headlabel"><a xlink:href="dir_000005_000004.html" target="_top" xlink:title="1">
<text text-anchor="middle" x="129.4836" y="-47.8844" font-family="Helvetica,sans-Serif" font-size="10.00" fill="#000000">1</text>
</a>
</g>
</g>
</g>
</svg>
