<?xml version="1.0" encoding="UTF-8" standalone="no"?>
<!DOCTYPE svg PUBLIC "-//W3C//DTD SVG 1.1//EN"
 "http://www.w3.org/Graphics/SVG/1.1/DTD/svg11.dtd">
<!-- Generated by graphviz version 2.40.1 (20161225.0304)
 -->
<!-- Title: src/engine/Engine.cxx Pages: 1 -->
<svg width="1622pt" height="476pt"
 viewBox="0.00 0.00 1622.00 476.00" xmlns="http://www.w3.org/2000/svg" xmlns:xlink="http://www.w3.org/1999/xlink">
<g id="graph0" class="graph" transform="scale(1 1) rotate(0) translate(4 472)">
<title>src/engine/Engine.cxx</title>
<!-- Node0 -->
<g id="node1" class="node">
<title>Node0</title>
<polygon fill="#bfbfbf" stroke="#000000" points="1039.0036,-448.5 1039.0036,-467.5 1162.0036,-467.5 1162.0036,-448.5 1039.0036,-448.5"/>
<text text-anchor="middle" x="1100.5036" y="-455.5" font-family="Helvetica,sans-Serif" font-size="10.00" fill="#000000">src/engine/Engine.cxx</text>
</g>
<!-- Node1 -->
<g id="node2" class="node">
<title>Node1</title>
<g id="a_node2"><a xlink:href="Engine_8hxx.html" target="_top" xlink:title="Engine.hxx">
<polygon fill="none" stroke="#000000" points="824.0036,-392.5 824.0036,-411.5 895.0036,-411.5 895.0036,-392.5 824.0036,-392.5"/>
<text text-anchor="middle" x="859.5036" y="-399.5" font-family="Helvetica,sans-Serif" font-size="10.00" fill="#000000">Engine.hxx</text>
</a>
</g>
</g>
<!-- Node0&#45;&gt;Node1 -->
<g id="edge1" class="edge">
<title>Node0&#45;&gt;Node1</title>
<path fill="none" stroke="#191970" d="M1059.3481,-448.4369C1016.568,-438.4963 949.7696,-422.9747 905.333,-412.6492"/>
<polygon fill="#191970" stroke="#191970" points="905.9105,-409.1902 895.3778,-410.3359 904.3261,-416.0085 905.9105,-409.1902"/>
</g>
<!-- Node24 -->
<g id="node25" class="node">
<title>Node24</title>
<g id="a_node25"><a xlink:href="Camera_8hxx.html" target="_top" xlink:title="basics/Camera.hxx">
<polygon fill="none" stroke="#000000" points="123.5036,-168.5 123.5036,-187.5 233.5036,-187.5 233.5036,-168.5 123.5036,-168.5"/>
<text text-anchor="middle" x="178.5036" y="-175.5" font-family="Helvetica,sans-Serif" font-size="10.00" fill="#000000">basics/Camera.hxx</text>
</a>
</g>
</g>
<!-- Node0&#45;&gt;Node24 -->
<g id="edge43" class="edge">
<title>Node0&#45;&gt;Node24</title>
<path fill="none" stroke="#191970" d="M1038.8028,-453.9266C817.9496,-438.7007 76.4965,-381.7848 12.5036,-300 -27.1411,-249.3328 70.8821,-209.6352 132.6831,-190.5065"/>
<polygon fill="#191970" stroke="#191970" points="133.7021,-193.855 142.2641,-187.6146 131.6793,-187.1536 133.7021,-193.855"/>
</g>
<!-- Node25 -->
<g id="node26" class="node">
<title>Node25</title>
<g id="a_node26"><a xlink:href="mapEdit_8hxx.html" target="_top" xlink:title="basics/mapEdit.hxx">
<polygon fill="none" stroke="#000000" points="1207.5036,-336.5 1207.5036,-355.5 1319.5036,-355.5 1319.5036,-336.5 1207.5036,-336.5"/>
<text text-anchor="middle" x="1263.5036" y="-343.5" font-family="Helvetica,sans-Serif" font-size="10.00" fill="#000000">basics/mapEdit.hxx</text>
</a>
</g>
</g>
<!-- Node0&#45;&gt;Node25 -->
<g id="edge46" class="edge">
<title>Node0&#45;&gt;Node25</title>
<path fill="none" stroke="#191970" d="M1114.4009,-448.4509C1142.67,-429.0268 1207.0789,-384.7703 1241.2519,-361.2895"/>
<polygon fill="#191970" stroke="#191970" points="1243.3817,-364.0727 1249.6415,-355.5249 1239.4175,-358.3034 1243.3817,-364.0727"/>
</g>
<!-- Node26 -->
<g id="node27" class="node">
<title>Node26</title>
<g id="a_node27"><a xlink:href="Settings_8hxx.html" target="_top" xlink:title="basics/Settings.hxx">
<polygon fill="none" stroke="#000000" points="1379.0036,-224.5 1379.0036,-243.5 1490.0036,-243.5 1490.0036,-224.5 1379.0036,-224.5"/>
<text text-anchor="middle" x="1434.5036" y="-231.5" font-family="Helvetica,sans-Serif" font-size="10.00" fill="#000000">basics/Settings.hxx</text>
</a>
</g>
</g>
<!-- Node0&#45;&gt;Node26 -->
<g id="edge48" class="edge">
<title>Node0&#45;&gt;Node26</title>
<path fill="none" stroke="#191970" d="M1133.054,-448.4159C1179.5257,-433.6813 1266.1541,-402.2343 1328.5036,-356 1368.8502,-326.0816 1404.6028,-278.3488 1422.4573,-252.346"/>
<polygon fill="#191970" stroke="#191970" points="1425.5152,-254.0712 1428.2008,-243.8224 1419.7101,-250.1595 1425.5152,-254.0712"/>
</g>
<!-- Node32 -->
<g id="node33" class="node">
<title>Node32</title>
<g id="a_node33"><a xlink:href="ResourcesManager_8hxx.html" target="_top" xlink:title="ResourcesManager.hxx">
<polygon fill="none" stroke="#000000" points="868.5036,-224.5 868.5036,-243.5 996.5036,-243.5 996.5036,-224.5 868.5036,-224.5"/>
<text text-anchor="middle" x="932.5036" y="-231.5" font-family="Helvetica,sans-Serif" font-size="10.00" fill="#000000">ResourcesManager.hxx</text>
</a>
</g>
</g>
<!-- Node0&#45;&gt;Node32 -->
<g id="edge57" class="edge">
<title>Node0&#45;&gt;Node32</title>
<path fill="none" stroke="#191970" d="M1093.2848,-448.375C1067.4904,-413.9825 979.6224,-296.8251 945.8642,-251.8141"/>
<polygon fill="#191970" stroke="#191970" points="948.4955,-249.4891 939.6955,-243.5891 942.8955,-253.6892 948.4955,-249.4891"/>
</g>
<!-- Node2 -->
<g id="node3" class="node">
<title>Node2</title>
<polygon fill="none" stroke="#bfbfbf" points="530.5036,-112.5 530.5036,-131.5 574.5036,-131.5 574.5036,-112.5 530.5036,-112.5"/>
<text text-anchor="middle" x="552.5036" y="-119.5" font-family="Helvetica,sans-Serif" font-size="10.00" fill="#000000">SDL.h</text>
</g>
<!-- Node1&#45;&gt;Node2 -->
<g id="edge2" class="edge">
<title>Node1&#45;&gt;Node2</title>
<path fill="none" stroke="#191970" d="M823.8924,-394.691C775.1162,-382.3602 693.5036,-352.4042 693.5036,-290 693.5036,-290 693.5036,-290 693.5036,-234 693.5036,-205.1421 620.1717,-159.6576 579.2773,-136.5362"/>
<polygon fill="#191970" stroke="#191970" points="580.7989,-133.3772 570.3613,-131.5586 577.3867,-139.4893 580.7989,-133.3772"/>
</g>
<!-- Node3 -->
<g id="node4" class="node">
<title>Node3</title>
<g id="a_node4"><a xlink:href="WindowManager_8hxx.html" target="_top" xlink:title="WindowManager.hxx">
<polygon fill="none" stroke="#000000" points="1139.5036,-168.5 1139.5036,-187.5 1257.5036,-187.5 1257.5036,-168.5 1139.5036,-168.5"/>
<text text-anchor="middle" x="1198.5036" y="-175.5" font-family="Helvetica,sans-Serif" font-size="10.00" fill="#000000">WindowManager.hxx</text>
</a>
</g>
</g>
<!-- Node1&#45;&gt;Node3 -->
<g id="edge3" class="edge">
<title>Node1&#45;&gt;Node3</title>
<path fill="none" stroke="#191970" d="M895.1548,-398.9765C933.0717,-394.4196 993.6448,-383.1998 1038.5036,-356 1107.6501,-314.0734 1164.1301,-233.0264 1187.2423,-196.5662"/>
<polygon fill="#191970" stroke="#191970" points="1190.3113,-198.259 1192.6242,-187.9197 1184.3685,-194.5599 1190.3113,-198.259"/>
</g>
<!-- Node7 -->
<g id="node8" class="node">
<title>Node7</title>
<g id="a_node8"><a xlink:href="Singleton_8hxx.html" target="_top" xlink:title="../util/Singleton.hxx">
<polygon fill="none" stroke="#000000" points="1057.0036,-112.5 1057.0036,-131.5 1168.0036,-131.5 1168.0036,-112.5 1057.0036,-112.5"/>
<text text-anchor="middle" x="1112.5036" y="-119.5" font-family="Helvetica,sans-Serif" font-size="10.00" fill="#000000">../util/Singleton.hxx</text>
</a>
</g>
</g>
<!-- Node1&#45;&gt;Node7 -->
<g id="edge42" class="edge">
<title>Node1&#45;&gt;Node7</title>
<path fill="none" stroke="#191970" d="M895.3061,-394.5177C943.834,-382.0382 1024.5036,-351.9731 1024.5036,-290 1024.5036,-290 1024.5036,-290 1024.5036,-234 1024.5036,-192.2321 1062.812,-156.8241 1088.8778,-137.5662"/>
<polygon fill="#191970" stroke="#191970" points="1091.0521,-140.3148 1097.1752,-131.6685 1086.9966,-134.6092 1091.0521,-140.3148"/>
</g>
<!-- Node8 -->
<g id="node9" class="node">
<title>Node8</title>
<g id="a_node9"><a xlink:href="point_8hxx.html" target="_top" xlink:title="basics/point.hxx">
<polygon fill="none" stroke="#000000" points="108.5036,-112.5 108.5036,-131.5 204.5036,-131.5 204.5036,-112.5 108.5036,-112.5"/>
<text text-anchor="middle" x="156.5036" y="-119.5" font-family="Helvetica,sans-Serif" font-size="10.00" fill="#000000">basics/point.hxx</text>
</a>
</g>
</g>
<!-- Node1&#45;&gt;Node8 -->
<g id="edge9" class="edge">
<title>Node1&#45;&gt;Node8</title>
<path fill="none" stroke="#191970" d="M823.9654,-400.6156C669.6863,-394.229 63.4442,-365.1036 12.5036,-300 -35.5595,-238.574 74.6549,-166.7382 128.7504,-136.5376"/>
<polygon fill="#191970" stroke="#191970" points="130.7513,-139.4324 137.841,-131.5593 127.3889,-133.2927 130.7513,-139.4324"/>
</g>
<!-- Node9 -->
<g id="node10" class="node">
<title>Node9</title>
<g id="a_node10"><a xlink:href="Map_8hxx.html" target="_top" xlink:title="Map.hxx">
<polygon fill="none" stroke="#000000" points="247.5036,-336.5 247.5036,-355.5 305.5036,-355.5 305.5036,-336.5 247.5036,-336.5"/>
<text text-anchor="middle" x="276.5036" y="-343.5" font-family="Helvetica,sans-Serif" font-size="10.00" fill="#000000">Map.hxx</text>
</a>
</g>
</g>
<!-- Node1&#45;&gt;Node9 -->
<g id="edge10" class="edge">
<title>Node1&#45;&gt;Node9</title>
<path fill="none" stroke="#191970" d="M823.9119,-398.5812C720.9125,-388.6876 423.0749,-360.0789 315.6887,-349.7639"/>
<polygon fill="#191970" stroke="#191970" points="315.8975,-346.268 305.6087,-348.7957 315.2282,-353.2359 315.8975,-346.268"/>
</g>
<!-- Node3&#45;&gt;Node2 -->
<g id="edge7" class="edge">
<title>Node3&#45;&gt;Node2</title>
<path fill="none" stroke="#191970" d="M1139.173,-175.3594C1010.1818,-169.335 706.68,-153.5527 584.8676,-131.773"/>
<polygon fill="#191970" stroke="#191970" points="585.1639,-128.2672 574.6885,-129.8534 583.8667,-135.146 585.1639,-128.2672"/>
</g>
<!-- Node4 -->
<g id="node5" class="node">
<title>Node4</title>
<polygon fill="none" stroke="#bfbfbf" points="1053.5036,-56.5 1053.5036,-75.5 1097.5036,-75.5 1097.5036,-56.5 1053.5036,-56.5"/>
<text text-anchor="middle" x="1075.5036" y="-63.5" font-family="Helvetica,sans-Serif" font-size="10.00" fill="#000000">string</text>
</g>
<!-- Node3&#45;&gt;Node4 -->
<g id="edge4" class="edge">
<title>Node3&#45;&gt;Node4</title>
<path fill="none" stroke="#191970" d="M1204.527,-168.0473C1212.0543,-154.1808 1222.5688,-128.8574 1210.5036,-112 1198.3383,-95.0026 1143.5009,-80.4173 1107.5679,-72.4556"/>
<polygon fill="#191970" stroke="#191970" points="1108.0514,-68.9795 1097.5386,-70.2955 1106.5775,-75.8226 1108.0514,-68.9795"/>
</g>
<!-- Node5 -->
<g id="node6" class="node">
<title>Node5</title>
<polygon fill="none" stroke="#bfbfbf" points="1262.5036,-112.5 1262.5036,-131.5 1322.5036,-131.5 1322.5036,-112.5 1262.5036,-112.5"/>
<text text-anchor="middle" x="1292.5036" y="-119.5" font-family="Helvetica,sans-Serif" font-size="10.00" fill="#000000">iostream</text>
</g>
<!-- Node3&#45;&gt;Node5 -->
<g id="edge5" class="edge">
<title>Node3&#45;&gt;Node5</title>
<path fill="none" stroke="#191970" d="M1214.8771,-168.2455C1229.4344,-159.5731 1250.9346,-146.7645 1267.6188,-136.825"/>
<polygon fill="#191970" stroke="#191970" points="1269.518,-139.7676 1276.3177,-131.6427 1265.9353,-133.7539 1269.518,-139.7676"/>
</g>
<!-- Node6 -->
<g id="node7" class="node">
<title>Node6</title>
<polygon fill="none" stroke="#bfbfbf" points="295.0036,-56.5 295.0036,-75.5 342.0036,-75.5 342.0036,-56.5 295.0036,-56.5"/>
<text text-anchor="middle" x="318.5036" y="-63.5" font-family="Helvetica,sans-Serif" font-size="10.00" fill="#000000">vector</text>
</g>
<!-- Node3&#45;&gt;Node6 -->
<g id="edge6" class="edge">
<title>Node3&#45;&gt;Node6</title>
<path fill="none" stroke="#191970" d="M1198.4678,-168.4561C1197.8386,-153.6373 1194.2276,-125.4073 1176.5036,-112 1107.3996,-59.7267 483.831,-83.4465 397.5036,-76 382.6862,-74.7219 366.3715,-72.752 352.4345,-70.8976"/>
<polygon fill="#191970" stroke="#191970" points="352.6859,-67.3995 342.3045,-69.5153 351.7394,-74.3352 352.6859,-67.3995"/>
</g>
<!-- Node3&#45;&gt;Node7 -->
<g id="edge8" class="edge">
<title>Node3&#45;&gt;Node7</title>
<path fill="none" stroke="#191970" d="M1183.5235,-168.2455C1170.3285,-159.6534 1150.8985,-147.0014 1135.6957,-137.1018"/>
<polygon fill="#191970" stroke="#191970" points="1137.6019,-134.1665 1127.312,-131.6427 1133.7821,-140.0325 1137.6019,-134.1665"/>
</g>
<!-- Node9&#45;&gt;Node6 -->
<g id="edge11" class="edge">
<title>Node9&#45;&gt;Node6</title>
<path fill="none" stroke="#191970" d="M260.1434,-336.4428C225.0857,-314.976 142.9512,-259.1937 106.5036,-188 91.0458,-157.806 78.1249,-138.3357 99.5036,-112 122.4492,-83.734 229.1789,-72.2003 284.7153,-68.0493"/>
<polygon fill="#191970" stroke="#191970" points="285.0515,-71.5344 294.779,-67.3362 284.5566,-64.5519 285.0515,-71.5344"/>
</g>
<!-- Node10 -->
<g id="node11" class="node">
<title>Node10</title>
<g id="a_node11"><a xlink:href="MapNode_8hxx.html" target="_top" xlink:title="GameObjects/MapNode.hxx">
<polygon fill="none" stroke="#000000" points="333.5036,-224.5 333.5036,-243.5 485.5036,-243.5 485.5036,-224.5 333.5036,-224.5"/>
<text text-anchor="middle" x="409.5036" y="-231.5" font-family="Helvetica,sans-Serif" font-size="10.00" fill="#000000">GameObjects/MapNode.hxx</text>
</a>
</g>
</g>
<!-- Node9&#45;&gt;Node10 -->
<g id="edge12" class="edge">
<title>Node9&#45;&gt;Node10</title>
<path fill="none" stroke="#191970" d="M287.8431,-336.4509C310.6148,-317.2747 362.1268,-273.8962 390.2675,-250.1988"/>
<polygon fill="#191970" stroke="#191970" points="392.7981,-252.6435 398.1928,-243.5249 388.2892,-247.2891 392.7981,-252.6435"/>
</g>
<!-- Node22 -->
<g id="node23" class="node">
<title>Node22</title>
<g id="a_node23"><a xlink:href="TerrainGenerator_8hxx.html" target="_top" xlink:title="map/TerrainGenerator.hxx">
<polygon fill="none" stroke="#000000" points="22.0036,-280.5 22.0036,-299.5 165.0036,-299.5 165.0036,-280.5 22.0036,-280.5"/>
<text text-anchor="middle" x="93.5036" y="-287.5" font-family="Helvetica,sans-Serif" font-size="10.00" fill="#000000">map/TerrainGenerator.hxx</text>
</a>
</g>
</g>
<!-- Node9&#45;&gt;Node22 -->
<g id="edge38" class="edge">
<title>Node9&#45;&gt;Node22</title>
<path fill="none" stroke="#191970" d="M247.1015,-337.0026C216.5716,-327.6601 168.578,-312.9736 134.368,-302.505"/>
<polygon fill="#191970" stroke="#191970" points="135.2566,-299.1167 124.6702,-299.5373 133.2083,-305.8104 135.2566,-299.1167"/>
</g>
<!-- Node10&#45;&gt;Node2 -->
<g id="edge13" class="edge">
<title>Node10&#45;&gt;Node2</title>
<path fill="none" stroke="#191970" d="M485.7181,-225.6318C533.474,-218.639 588.6909,-206.7357 603.5036,-188 617.1327,-170.7613 596.6808,-150.7675 577.7651,-137.343"/>
<polygon fill="#191970" stroke="#191970" points="579.5644,-134.3354 569.3101,-131.6707 575.6645,-140.1485 579.5644,-134.3354"/>
</g>
<!-- Node10&#45;&gt;Node4 -->
<g id="edge15" class="edge">
<title>Node10&#45;&gt;Node4</title>
<path fill="none" stroke="#191970" d="M469.8825,-224.4792C510.2366,-216.7415 558.1183,-204.4196 570.5036,-188 595.7302,-154.5563 525.6996,-140.2894 521.5036,-132 517.4892,-124.0692 515.4839,-118.5403 521.5036,-112 556.9611,-73.4763 930.3678,-67.2103 1043.3172,-66.1953"/>
<polygon fill="#191970" stroke="#191970" points="1043.4436,-69.6944 1053.4146,-66.1125 1043.3862,-62.6947 1043.4436,-69.6944"/>
</g>
<!-- Node10&#45;&gt;Node6 -->
<g id="edge17" class="edge">
<title>Node10&#45;&gt;Node6</title>
<path fill="none" stroke="#191970" d="M367.0884,-224.4524C333.586,-215.9508 290.814,-202.6229 280.5036,-188 257.6329,-155.5633 285.2877,-108.8793 304.0182,-83.7035"/>
<polygon fill="#191970" stroke="#191970" points="306.8186,-85.8037 310.1737,-75.7541 301.2839,-81.5179 306.8186,-85.8037"/>
</g>
<!-- Node10&#45;&gt;Node8 -->
<g id="edge26" class="edge">
<title>Node10&#45;&gt;Node8</title>
<path fill="none" stroke="#191970" d="M333.1738,-227.2201C250.5545,-219.0928 128.62,-204.4882 114.5036,-188 100.992,-172.2182 118.6236,-151.7316 135.0045,-137.7976"/>
<polygon fill="#191970" stroke="#191970" points="137.1991,-140.5242 142.8036,-131.533 132.8154,-135.0667 137.1991,-140.5242"/>
</g>
<!-- Node11 -->
<g id="node12" class="node">
<title>Node11</title>
<polygon fill="none" stroke="#bfbfbf" points="503.5036,-168.5 503.5036,-187.5 561.5036,-187.5 561.5036,-168.5 503.5036,-168.5"/>
<text text-anchor="middle" x="532.5036" y="-175.5" font-family="Helvetica,sans-Serif" font-size="10.00" fill="#000000">memory</text>
</g>
<!-- Node10&#45;&gt;Node11 -->
<g id="edge14" class="edge">
<title>Node10&#45;&gt;Node11</title>
<path fill="none" stroke="#191970" d="M430.648,-224.3733C450.3928,-215.3838 480.0734,-201.8706 502.3091,-191.7471"/>
<polygon fill="#191970" stroke="#191970" points="503.9842,-194.8302 511.6351,-187.5011 501.0836,-188.4594 503.9842,-194.8302"/>
</g>
<!-- Node12 -->
<g id="node13" class="node">
<title>Node12</title>
<polygon fill="none" stroke="#bfbfbf" points="289.5036,-168.5 289.5036,-187.5 353.5036,-187.5 353.5036,-168.5 289.5036,-168.5"/>
<text text-anchor="middle" x="321.5036" y="-175.5" font-family="Helvetica,sans-Serif" font-size="10.00" fill="#000000">algorithm</text>
</g>
<!-- Node10&#45;&gt;Node12 -->
<g id="edge16" class="edge">
<title>Node10&#45;&gt;Node12</title>
<path fill="none" stroke="#191970" d="M394.1752,-224.2455C380.6733,-215.6534 360.7914,-203.0014 345.235,-193.1018"/>
<polygon fill="#191970" stroke="#191970" points="346.9721,-190.0587 336.6564,-187.6427 343.2139,-195.9643 346.9721,-190.0587"/>
</g>
<!-- Node13 -->
<g id="node14" class="node">
<title>Node13</title>
<g id="a_node14"><a xlink:href="Sprite_8hxx.html" target="_top" xlink:title="../Sprite.hxx">
<polygon fill="none" stroke="#000000" points="372.0036,-168.5 372.0036,-187.5 447.0036,-187.5 447.0036,-168.5 372.0036,-168.5"/>
<text text-anchor="middle" x="409.5036" y="-175.5" font-family="Helvetica,sans-Serif" font-size="10.00" fill="#000000">../Sprite.hxx</text>
</a>
</g>
</g>
<!-- Node10&#45;&gt;Node13 -->
<g id="edge18" class="edge">
<title>Node10&#45;&gt;Node13</title>
<path fill="none" stroke="#191970" d="M409.5036,-224.2455C409.5036,-216.9382 409.5036,-206.6944 409.5036,-197.7046"/>
<polygon fill="#191970" stroke="#191970" points="413.0037,-197.6426 409.5036,-187.6427 406.0037,-197.6427 413.0037,-197.6426"/>
</g>
<!-- Node14 -->
<g id="node15" class="node">
<title>Node14</title>
<g id="a_node15"><a xlink:href="enums_8hxx.html" target="_top" xlink:title="common/enums.hxx">
<polygon fill="none" stroke="#000000" points="406.5036,-56.5 406.5036,-75.5 522.5036,-75.5 522.5036,-56.5 406.5036,-56.5"/>
<text text-anchor="middle" x="464.5036" y="-63.5" font-family="Helvetica,sans-Serif" font-size="10.00" fill="#000000">common/enums.hxx</text>
</a>
</g>
</g>
<!-- Node10&#45;&gt;Node14 -->
<g id="edge25" class="edge">
<title>Node10&#45;&gt;Node14</title>
<path fill="none" stroke="#191970" d="M423.4402,-224.4609C434.2559,-216.1969 448.5428,-203.1969 455.5036,-188 470.7661,-154.6784 469.5414,-110.8426 467.122,-85.8097"/>
<polygon fill="#191970" stroke="#191970" points="470.5844,-85.2792 465.9813,-75.7366 463.6289,-86.0669 470.5844,-85.2792"/>
</g>
<!-- Node17 -->
<g id="node18" class="node">
<title>Node17</title>
<g id="a_node18"><a xlink:href="TileManager_8hxx.html" target="_top" xlink:title="../TileManager.hxx">
<polygon fill="none" stroke="#000000" points="807.5036,-168.5 807.5036,-187.5 913.5036,-187.5 913.5036,-168.5 807.5036,-168.5"/>
<text text-anchor="middle" x="860.5036" y="-175.5" font-family="Helvetica,sans-Serif" font-size="10.00" fill="#000000">../TileManager.hxx</text>
</a>
</g>
</g>
<!-- Node10&#45;&gt;Node17 -->
<g id="edge27" class="edge">
<title>Node10&#45;&gt;Node17</title>
<path fill="none" stroke="#191970" d="M485.7544,-224.532C573.3121,-213.6601 715.3571,-196.0226 797.1081,-185.8717"/>
<polygon fill="#191970" stroke="#191970" points="797.7652,-189.3171 807.2576,-184.6115 796.9025,-182.3705 797.7652,-189.3171"/>
</g>
<!-- Node13&#45;&gt;Node2 -->
<g id="edge19" class="edge">
<title>Node13&#45;&gt;Node2</title>
<path fill="none" stroke="#191970" d="M434.0862,-168.3733C458.0196,-159.0007 494.5102,-144.7107 520.6556,-134.472"/>
<polygon fill="#191970" stroke="#191970" points="522.0866,-137.6704 530.1218,-130.7649 519.534,-131.1524 522.0866,-137.6704"/>
</g>
<!-- Node13&#45;&gt;Node6 -->
<g id="edge20" class="edge">
<title>Node13&#45;&gt;Node6</title>
<path fill="none" stroke="#191970" d="M401.745,-168.4509C386.433,-149.6054 352.1288,-107.3849 332.6751,-83.4419"/>
<polygon fill="#191970" stroke="#191970" points="335.2649,-81.079 326.2426,-75.5249 329.8321,-85.4931 335.2649,-81.079"/>
</g>
<!-- Node13&#45;&gt;Node8 -->
<g id="edge21" class="edge">
<title>Node13&#45;&gt;Node8</title>
<path fill="none" stroke="#191970" d="M371.9001,-169.6767C328.9773,-160.176 258.4438,-144.5638 209.8512,-133.8082"/>
<polygon fill="#191970" stroke="#191970" points="210.353,-130.3346 199.8329,-131.5907 208.8402,-137.1692 210.353,-130.3346"/>
</g>
<!-- Node13&#45;&gt;Node14 -->
<g id="edge22" class="edge">
<title>Node13&#45;&gt;Node14</title>
<path fill="none" stroke="#191970" d="M414.1929,-168.4509C423.285,-149.936 443.4567,-108.8591 455.3114,-84.7187"/>
<polygon fill="#191970" stroke="#191970" points="458.5599,-86.0438 459.8262,-75.5249 452.2766,-82.9582 458.5599,-86.0438"/>
</g>
<!-- Node15 -->
<g id="node16" class="node">
<title>Node15</title>
<polygon fill="none" stroke="#bfbfbf" points="388.5036,-.5 388.5036,-19.5 444.5036,-19.5 444.5036,-.5 388.5036,-.5"/>
<text text-anchor="middle" x="416.5036" y="-7.5" font-family="Helvetica,sans-Serif" font-size="10.00" fill="#000000">stddef.h</text>
</g>
<!-- Node14&#45;&gt;Node15 -->
<g id="edge23" class="edge">
<title>Node14&#45;&gt;Node15</title>
<path fill="none" stroke="#191970" d="M456.1426,-56.2455C449.3286,-48.2958 439.5355,-36.8706 431.3884,-27.3656"/>
<polygon fill="#191970" stroke="#191970" points="433.9341,-24.9575 424.7687,-19.6427 428.6193,-29.513 433.9341,-24.9575"/>
</g>
<!-- Node16 -->
<g id="node17" class="node">
<title>Node16</title>
<polygon fill="none" stroke="#bfbfbf" points="462.5036,-.5 462.5036,-19.5 562.5036,-19.5 562.5036,-.5 462.5036,-.5"/>
<text text-anchor="middle" x="512.5036" y="-7.5" font-family="Helvetica,sans-Serif" font-size="10.00" fill="#000000">betterEnums.hxx</text>
</g>
<!-- Node14&#45;&gt;Node16 -->
<g id="edge24" class="edge">
<title>Node14&#45;&gt;Node16</title>
<path fill="none" stroke="#191970" d="M472.8646,-56.2455C479.6786,-48.2958 489.4717,-36.8706 497.6188,-27.3656"/>
<polygon fill="#191970" stroke="#191970" points="500.3879,-29.513 504.2384,-19.6427 495.0731,-24.9575 500.3879,-29.513"/>
</g>
<!-- Node17&#45;&gt;Node2 -->
<g id="edge28" class="edge">
<title>Node17&#45;&gt;Node2</title>
<path fill="none" stroke="#191970" d="M807.4486,-171.5569C753.4815,-164.4744 667.3526,-151.7185 584.5589,-131.9844"/>
<polygon fill="#191970" stroke="#191970" points="585.2852,-128.5592 574.7424,-129.6075 583.6378,-135.3626 585.2852,-128.5592"/>
</g>
<!-- Node17&#45;&gt;Node4 -->
<g id="edge30" class="edge">
<title>Node17&#45;&gt;Node4</title>
<path fill="none" stroke="#191970" d="M869.3926,-168.1164C882.6977,-153.8664 909.1644,-127.557 936.5036,-112 970.5435,-92.63 1013.9604,-79.9131 1043.1361,-72.8574"/>
<polygon fill="#191970" stroke="#191970" points="1044.2526,-76.1911 1053.1969,-70.5122 1042.6634,-69.3738 1044.2526,-76.1911"/>
</g>
<!-- Node17&#45;&gt;Node7 -->
<g id="edge36" class="edge">
<title>Node17&#45;&gt;Node7</title>
<path fill="none" stroke="#191970" d="M903.5376,-168.4369C946.7561,-158.8328 1013.4177,-144.0191 1059.7854,-133.7152"/>
<polygon fill="#191970" stroke="#191970" points="1060.6445,-137.1097 1069.6471,-131.5237 1059.1259,-130.2764 1060.6445,-137.1097"/>
</g>
<!-- Node18 -->
<g id="node19" class="node">
<title>Node18</title>
<polygon fill="none" stroke="#bfbfbf" points="946.0036,-112.5 946.0036,-131.5 1039.0036,-131.5 1039.0036,-112.5 946.0036,-112.5"/>
<text text-anchor="middle" x="992.5036" y="-119.5" font-family="Helvetica,sans-Serif" font-size="10.00" fill="#000000">unordered_map</text>
</g>
<!-- Node17&#45;&gt;Node18 -->
<g id="edge29" class="edge">
<title>Node17&#45;&gt;Node18</title>
<path fill="none" stroke="#191970" d="M883.1952,-168.3733C904.5747,-159.3032 936.8093,-145.6279 960.7398,-135.4755"/>
<polygon fill="#191970" stroke="#191970" points="962.2692,-138.6287 970.1081,-131.5011 959.5353,-132.1846 962.2692,-138.6287"/>
</g>
<!-- Node19 -->
<g id="node20" class="node">
<title>Node19</title>
<g id="a_node20"><a xlink:href="tileData_8hxx.html" target="_top" xlink:title="tileData.hxx">
<polygon fill="none" stroke="#000000" points="593.0036,-112.5 593.0036,-131.5 670.0036,-131.5 670.0036,-112.5 593.0036,-112.5"/>
<text text-anchor="middle" x="631.5036" y="-119.5" font-family="Helvetica,sans-Serif" font-size="10.00" fill="#000000">tileData.hxx</text>
</a>
</g>
</g>
<!-- Node17&#45;&gt;Node19 -->
<g id="edge31" class="edge">
<title>Node17&#45;&gt;Node19</title>
<path fill="none" stroke="#191970" d="M821.3973,-168.4369C782.2521,-158.8643 721.9429,-144.1162 679.8252,-133.8166"/>
<polygon fill="#191970" stroke="#191970" points="680.6118,-130.4059 670.0666,-131.4303 678.949,-137.2056 680.6118,-130.4059"/>
</g>
<!-- Node20 -->
<g id="node21" class="node">
<title>Node20</title>
<polygon fill="none" stroke="#bfbfbf" points="831.5036,-112.5 831.5036,-131.5 889.5036,-131.5 889.5036,-112.5 831.5036,-112.5"/>
<text text-anchor="middle" x="860.5036" y="-119.5" font-family="Helvetica,sans-Serif" font-size="10.00" fill="#000000">json.hxx</text>
</g>
<!-- Node17&#45;&gt;Node20 -->
<g id="edge35" class="edge">
<title>Node17&#45;&gt;Node20</title>
<path fill="none" stroke="#191970" d="M860.5036,-168.2455C860.5036,-160.9382 860.5036,-150.6944 860.5036,-141.7046"/>
<polygon fill="#191970" stroke="#191970" points="864.0037,-141.6426 860.5036,-131.6427 857.0037,-141.6427 864.0037,-141.6426"/>
</g>
<!-- Node21 -->
<g id="node22" class="node">
<title>Node21</title>
<polygon fill="none" stroke="#bfbfbf" points="688.0036,-112.5 688.0036,-131.5 813.0036,-131.5 813.0036,-112.5 688.0036,-112.5"/>
<text text-anchor="middle" x="750.5036" y="-119.5" font-family="Helvetica,sans-Serif" font-size="10.00" fill="#000000">../common/enums.hxx</text>
</g>
<!-- Node17&#45;&gt;Node21 -->
<g id="edge37" class="edge">
<title>Node17&#45;&gt;Node21</title>
<path fill="none" stroke="#191970" d="M841.3431,-168.2455C823.9925,-159.4125 798.2135,-146.2887 778.5453,-136.2758"/>
<polygon fill="#191970" stroke="#191970" points="779.9441,-133.0605 769.4446,-131.6427 776.7683,-139.2986 779.9441,-133.0605"/>
</g>
<!-- Node19&#45;&gt;Node4 -->
<g id="edge32" class="edge">
<title>Node19&#45;&gt;Node4</title>
<path fill="none" stroke="#191970" d="M670.1776,-113.4695C672.9896,-112.9421 675.7869,-112.4454 678.5036,-112 813.3654,-89.8904 975.7118,-74.5725 1043.4181,-68.6833"/>
<polygon fill="#191970" stroke="#191970" points="1043.7903,-72.1643 1053.4533,-67.8195 1043.1899,-65.1901 1043.7903,-72.1643"/>
</g>
<!-- Node19&#45;&gt;Node6 -->
<g id="edge33" class="edge">
<title>Node19&#45;&gt;Node6</title>
<path fill="none" stroke="#191970" d="M592.7533,-113.8108C589.6263,-113.1854 586.5136,-112.5746 583.5036,-112 500.6454,-96.1821 402.7671,-79.7821 352.3274,-71.4984"/>
<polygon fill="#191970" stroke="#191970" points="352.741,-68.0195 342.3067,-69.857 351.6094,-74.9275 352.741,-68.0195"/>
</g>
<!-- Node19&#45;&gt;Node14 -->
<g id="edge34" class="edge">
<title>Node19&#45;&gt;Node14</title>
<path fill="none" stroke="#191970" d="M602.7953,-112.3733C575.1459,-103.1016 533.146,-89.0178 502.687,-78.804"/>
<polygon fill="#191970" stroke="#191970" points="503.4312,-75.3621 492.8373,-75.5011 501.2057,-81.9989 503.4312,-75.3621"/>
</g>
<!-- Node22&#45;&gt;Node6 -->
<g id="edge41" class="edge">
<title>Node22&#45;&gt;Node6</title>
<path fill="none" stroke="#191970" d="M85.3552,-280.2251C62.0851,-251.0946 -.2592,-163.6911 43.5036,-112 58.9739,-93.727 214.7794,-76.2237 284.7707,-69.2142"/>
<polygon fill="#191970" stroke="#191970" points="285.2333,-72.6856 294.8406,-68.219 284.5448,-65.7195 285.2333,-72.6856"/>
</g>
<!-- Node22&#45;&gt;Node10 -->
<g id="edge39" class="edge">
<title>Node22&#45;&gt;Node10</title>
<path fill="none" stroke="#191970" d="M147.4669,-280.4369C202.3431,-270.712 287.3606,-255.6456 345.5786,-245.3285"/>
<polygon fill="#191970" stroke="#191970" points="346.5271,-248.715 355.7629,-243.5237 345.3055,-241.8224 346.5271,-248.715"/>
</g>
<!-- Node23 -->
<g id="node24" class="node">
<title>Node23</title>
<polygon fill="none" stroke="#bfbfbf" points="74.5036,-224.5 74.5036,-243.5 112.5036,-243.5 112.5036,-224.5 74.5036,-224.5"/>
<text text-anchor="middle" x="93.5036" y="-231.5" font-family="Helvetica,sans-Serif" font-size="10.00" fill="#000000">map</text>
</g>
<!-- Node22&#45;&gt;Node23 -->
<g id="edge40" class="edge">
<title>Node22&#45;&gt;Node23</title>
<path fill="none" stroke="#191970" d="M93.5036,-280.2455C93.5036,-272.9382 93.5036,-262.6944 93.5036,-253.7046"/>
<polygon fill="#191970" stroke="#191970" points="97.0037,-253.6426 93.5036,-243.6427 90.0037,-253.6427 97.0037,-253.6426"/>
</g>
<!-- Node24&#45;&gt;Node2 -->
<g id="edge44" class="edge">
<title>Node24&#45;&gt;Node2</title>
<path fill="none" stroke="#191970" d="M233.6886,-169.737C312.9891,-157.8631 456.6364,-136.3544 520.4575,-126.7983"/>
<polygon fill="#191970" stroke="#191970" points="520.9778,-130.2595 530.3493,-125.3172 519.9412,-123.3367 520.9778,-130.2595"/>
</g>
<!-- Node24&#45;&gt;Node8 -->
<g id="edge45" class="edge">
<title>Node24&#45;&gt;Node8</title>
<path fill="none" stroke="#191970" d="M174.6715,-168.2455C171.7377,-160.7776 167.5989,-150.2427 164.0126,-141.1137"/>
<polygon fill="#191970" stroke="#191970" points="167.206,-139.6704 160.2918,-131.6427 160.6907,-142.23 167.206,-139.6704"/>
</g>
<!-- Node25&#45;&gt;Node4 -->
<g id="edge47" class="edge">
<title>Node25&#45;&gt;Node4</title>
<path fill="none" stroke="#191970" d="M1278.6578,-336.289C1303.5839,-318.9931 1350.5036,-280.2886 1350.5036,-234 1350.5036,-234 1350.5036,-234 1350.5036,-178 1350.5036,-147.4754 1354.1652,-132.45 1331.5036,-112 1299.0876,-82.7476 1169.5567,-71.4405 1108.1356,-67.6594"/>
<polygon fill="#191970" stroke="#191970" points="1108.0319,-64.1475 1097.8445,-67.0575 1107.6231,-71.1355 1108.0319,-64.1475"/>
</g>
<!-- Node26&#45;&gt;Node4 -->
<g id="edge49" class="edge">
<title>Node26&#45;&gt;Node4</title>
<path fill="none" stroke="#191970" d="M1428.6646,-224.1559C1423.1651,-214.8597 1414.7169,-200.516 1407.5036,-188 1388.1247,-154.3751 1396.3829,-134.1333 1364.5036,-112 1323.39,-83.4556 1174.369,-71.6009 1107.8975,-67.6541"/>
<polygon fill="#191970" stroke="#191970" points="1107.7794,-64.1418 1097.5964,-67.067 1107.381,-71.1305 1107.7794,-64.1418"/>
</g>
<!-- Node26&#45;&gt;Node7 -->
<g id="edge50" class="edge">
<title>Node26&#45;&gt;Node7</title>
<path fill="none" stroke="#191970" d="M1378.8742,-232.6652C1301.349,-229.653 1166.2871,-219.8536 1130.5036,-188 1117.6376,-176.547 1113.5723,-156.8879 1112.4655,-141.9966"/>
<polygon fill="#191970" stroke="#191970" points="1115.9544,-141.6218 1112.0989,-131.7533 1108.9589,-141.8721 1115.9544,-141.6218"/>
</g>
<!-- Node27 -->
<g id="node28" class="node">
<title>Node27</title>
<g id="a_node28"><a xlink:href="Meta_8hxx.html" target="_top" xlink:title="../../util/Meta.hxx">
<polygon fill="none" stroke="#000000" points="1416.5036,-168.5 1416.5036,-187.5 1514.5036,-187.5 1514.5036,-168.5 1416.5036,-168.5"/>
<text text-anchor="middle" x="1465.5036" y="-175.5" font-family="Helvetica,sans-Serif" font-size="10.00" fill="#000000">../../util/Meta.hxx</text>
</a>
</g>
</g>
<!-- Node26&#45;&gt;Node27 -->
<g id="edge51" class="edge">
<title>Node26&#45;&gt;Node27</title>
<path fill="none" stroke="#191970" d="M1439.9034,-224.2455C1444.1263,-216.617 1450.1209,-205.7881 1455.2477,-196.5267"/>
<polygon fill="#191970" stroke="#191970" points="1458.3846,-198.0867 1460.1657,-187.6427 1452.2603,-194.6965 1458.3846,-198.0867"/>
</g>
<!-- Node31 -->
<g id="node32" class="node">
<title>Node31</title>
<polygon fill="none" stroke="#bfbfbf" points="1533.0036,-168.5 1533.0036,-187.5 1586.0036,-187.5 1586.0036,-168.5 1533.0036,-168.5"/>
<text text-anchor="middle" x="1559.5036" y="-175.5" font-family="Helvetica,sans-Serif" font-size="10.00" fill="#000000">cstddef</text>
</g>
<!-- Node26&#45;&gt;Node31 -->
<g id="edge56" class="edge">
<title>Node26&#45;&gt;Node31</title>
<path fill="none" stroke="#191970" d="M1455.9919,-224.3733C1476.1476,-215.3435 1506.4916,-201.7494 1529.1216,-191.6111"/>
<polygon fill="#191970" stroke="#191970" points="1530.6007,-194.7838 1538.2957,-187.5011 1527.7387,-188.3955 1530.6007,-194.7838"/>
</g>
<!-- Node27&#45;&gt;Node5 -->
<g id="edge52" class="edge">
<title>Node27&#45;&gt;Node5</title>
<path fill="none" stroke="#191970" d="M1435.7638,-168.3733C1406.9966,-159.0613 1363.2336,-144.8953 1331.648,-134.671"/>
<polygon fill="#191970" stroke="#191970" points="1332.4472,-131.251 1321.8553,-131.5011 1330.2913,-137.9107 1332.4472,-131.251"/>
</g>
<!-- Node28 -->
<g id="node29" class="node">
<title>Node28</title>
<polygon fill="none" stroke="#bfbfbf" points="1545.0036,-112.5 1545.0036,-131.5 1614.0036,-131.5 1614.0036,-112.5 1545.0036,-112.5"/>
<text text-anchor="middle" x="1579.5036" y="-119.5" font-family="Helvetica,sans-Serif" font-size="10.00" fill="#000000">type_traits</text>
</g>
<!-- Node27&#45;&gt;Node28 -->
<g id="edge53" class="edge">
<title>Node27&#45;&gt;Node28</title>
<path fill="none" stroke="#191970" d="M1485.1009,-168.3733C1503.2367,-159.4644 1530.4171,-146.1127 1550.9623,-136.0203"/>
<polygon fill="#191970" stroke="#191970" points="1552.7297,-139.0517 1560.162,-131.5011 1549.6433,-132.7688 1552.7297,-139.0517"/>
</g>
<!-- Node29 -->
<g id="node30" class="node">
<title>Node29</title>
<polygon fill="none" stroke="#bfbfbf" points="1417.0036,-112.5 1417.0036,-131.5 1468.0036,-131.5 1468.0036,-112.5 1417.0036,-112.5"/>
<text text-anchor="middle" x="1442.5036" y="-119.5" font-family="Helvetica,sans-Serif" font-size="10.00" fill="#000000">variant</text>
</g>
<!-- Node27&#45;&gt;Node29 -->
<g id="edge54" class="edge">
<title>Node27&#45;&gt;Node29</title>
<path fill="none" stroke="#191970" d="M1461.4973,-168.2455C1458.4301,-160.7776 1454.1033,-150.2427 1450.3539,-141.1137"/>
<polygon fill="#191970" stroke="#191970" points="1453.5008,-139.5631 1446.464,-131.6427 1447.0257,-142.2226 1453.5008,-139.5631"/>
</g>
<!-- Node30 -->
<g id="node31" class="node">
<title>Node30</title>
<polygon fill="none" stroke="#bfbfbf" points="1486.0036,-112.5 1486.0036,-131.5 1527.0036,-131.5 1527.0036,-112.5 1486.0036,-112.5"/>
<text text-anchor="middle" x="1506.5036" y="-119.5" font-family="Helvetica,sans-Serif" font-size="10.00" fill="#000000">tuple</text>
</g>
<!-- Node27&#45;&gt;Node30 -->
<g id="edge55" class="edge">
<title>Node27&#45;&gt;Node30</title>
<path fill="none" stroke="#191970" d="M1472.6453,-168.2455C1478.348,-160.4564 1486.4936,-149.3308 1493.3661,-139.9439"/>
<polygon fill="#191970" stroke="#191970" points="1496.3604,-141.7789 1499.4438,-131.6427 1490.7123,-137.6437 1496.3604,-141.7789"/>
</g>
<!-- Node32&#45;&gt;Node2 -->
<g id="edge60" class="edge">
<title>Node32&#45;&gt;Node2</title>
<path fill="none" stroke="#191970" d="M900.0956,-224.463C856.3798,-211.6054 776.0861,-188.0143 707.5036,-168 655.3198,-152.7713 639.968,-149.1751 584.4828,-132.2446"/>
<polygon fill="#191970" stroke="#191970" points="585.4164,-128.8702 574.8298,-129.2888 583.3668,-135.5634 585.4164,-128.8702"/>
</g>
<!-- Node32&#45;&gt;Node5 -->
<g id="edge58" class="edge">
<title>Node32&#45;&gt;Node5</title>
<path fill="none" stroke="#191970" d="M996.7243,-228.6499C1087.7754,-220.5412 1245.7093,-204.3459 1266.5036,-188 1280.6833,-176.8536 1287.1483,-156.8602 1290.0848,-141.7901"/>
<polygon fill="#191970" stroke="#191970" points="1293.5462,-142.3093 1291.6593,-131.8838 1286.6329,-141.2105 1293.5462,-142.3093"/>
</g>
<!-- Node32&#45;&gt;Node17 -->
<g id="edge61" class="edge">
<title>Node32&#45;&gt;Node17</title>
<path fill="none" stroke="#191970" d="M919.9622,-224.2455C909.2249,-215.8943 893.5563,-203.7076 880.9989,-193.9408"/>
<polygon fill="#191970" stroke="#191970" points="882.9437,-191.0194 872.9013,-187.6427 878.6461,-196.5449 882.9437,-191.0194"/>
</g>
<!-- Node32&#45;&gt;Node18 -->
<g id="edge59" class="edge">
<title>Node32&#45;&gt;Node18</title>
<path fill="none" stroke="#191970" d="M937.6192,-224.4509C947.5822,-205.8533 969.7401,-164.4919 982.6484,-140.3964"/>
<polygon fill="#191970" stroke="#191970" points="985.7639,-141.9925 987.401,-131.5249 979.5935,-138.6869 985.7639,-141.9925"/>
</g>
</g>
</svg>
