<?xml version="1.0" encoding="UTF-8" standalone="no"?>
<!DOCTYPE svg PUBLIC "-//W3C//DTD SVG 1.1//EN"
 "http://www.w3.org/Graphics/SVG/1.1/DTD/svg11.dtd">
<!-- Generated by graphviz version 2.40.1 (20161225.0304)
 -->
<!-- Title: src/Events.hxx Pages: 1 -->
<!--zoomable 252 -->
<svg id="main" version="1.1" xmlns="http://www.w3.org/2000/svg" xmlns:xlink="http://www.w3.org/1999/xlink" xml:space="preserve" onload="init(evt)">
<style type="text/css"><![CDATA[
.edge:hover path { stroke: red; }
.edge:hover polygon { stroke: red; fill: red; }
]]></style>
<script type="text/javascript"><![CDATA[
var edges = document.getElementsByTagName('g');
if (edges && edges.length) {
  for (var i=0;i<edges.length;i++) {
    if (edges[i].id.substr(0,4)=='edge') {
      edges[i].setAttribute('class','edge');
    }
  }
}
]]></script>
        <defs>
                <circle id="rim" cx="0" cy="0" r="7"/>
                <circle id="rim2" cx="0" cy="0" r="3.5"/>
                <g id="zoomPlus">
                        <use xlink:href="#rim" fill="#404040">
                                <set attributeName="fill" to="#808080" begin="zoomplus.mouseover" end="zoomplus.mouseout"/>
                        </use>
                        <path d="M-4,0h8M0,-4v8" fill="none" stroke="white" stroke-width="1.5" pointer-events="none"/>
                </g>
                <g id="zoomMin">
                        <use xlink:href="#rim" fill="#404040">
                                <set attributeName="fill" to="#808080" begin="zoomminus.mouseover" end="zoomminus.mouseout"/>
                        </use>
                        <path d="M-4,0h8" fill="none" stroke="white" stroke-width="1.5" pointer-events="none"/>
                </g>
                <g id="dirArrow">
                        <path fill="none" stroke="white" stroke-width="1.5" d="M0,-3.0v7 M-2.5,-0.5L0,-3.0L2.5,-0.5"/>
                </g>
               <g id="resetDef">
                       <use xlink:href="#rim2" fill="#404040">
                               <set attributeName="fill" to="#808080" begin="reset.mouseover" end="reset.mouseout"/>
                       </use>
               </g>
        </defs>

<script type="text/javascript">
var viewWidth = 1249;
var viewHeight = 252;
var sectionId = 'dynsection-1';
</script>
<script xlink:href="svgpan.js"/>
<svg id="graph" class="graph">
<g id="viewport">
<title>src/Events.hxx</title>
<!-- Node9 -->
<g id="node1" class="node">
<title>Node9</title>
<polygon fill="#bfbfbf" stroke="#000000" points="407,-224.5 407,-243.5 495,-243.5 495,-224.5 407,-224.5"/>
<text text-anchor="middle" x="451" y="-231.5" font-family="Helvetica,sans-Serif" font-size="10.00" fill="#000000">src/Events.hxx</text>
</g>
<!-- Node10 -->
<g id="node2" class="node">
<title>Node10</title>
<g id="a_node2"><a xlink:href="MessageQueue_8hxx.html" target="_top" xlink:title="src/engine/MessageQueue.hxx">
<polygon fill="none" stroke="#000000" points="202.5,-112.5 202.5,-131.5 367.5,-131.5 367.5,-112.5 202.5,-112.5"/>
<text text-anchor="middle" x="285" y="-119.5" font-family="Helvetica,sans-Serif" font-size="10.00" fill="#000000">src/engine/MessageQueue.hxx</text>
</a>
</g>
</g>
<!-- Node9&#45;&gt;Node10 -->
<g id="edge1" class="edge">
<title>Node9&#45;&gt;Node10</title>
<path fill="none" stroke="#191970" d="M428.2954,-218.6813C393.4679,-195.1832 327.8761,-150.9284 299.1172,-131.5249"/>
<polygon fill="#191970" stroke="#191970" points="426.5997,-221.7593 436.8469,-224.4509 430.5148,-215.9565 426.5997,-221.7593"/>
</g>
<!-- Node15 -->
<g id="node7" class="node">
<title>Node15</title>
<g id="a_node7"><a xlink:href="GameService_8hxx.html" target="_top" xlink:title="src/GameService.hxx">
<polygon fill="none" stroke="#000000" points="556,-168.5 556,-187.5 676,-187.5 676,-168.5 556,-168.5"/>
<text text-anchor="middle" x="616" y="-175.5" font-family="Helvetica,sans-Serif" font-size="10.00" fill="#000000">src/GameService.hxx</text>
</a>
</g>
</g>
<!-- Node9&#45;&gt;Node15 -->
<g id="edge6" class="edge">
<title>Node9&#45;&gt;Node15</title>
<path fill="none" stroke="#191970" d="M489.1356,-221.057C519.3325,-210.8084 560.8163,-196.729 588.0056,-187.5011"/>
<polygon fill="#191970" stroke="#191970" points="487.7091,-217.845 479.3645,-224.3733 489.9589,-224.4736 487.7091,-217.845"/>
</g>
<!-- Node11 -->
<g id="node3" class="node">
<title>Node11</title>
<g id="a_node3"><a xlink:href="Game_8hxx.html" target="_top" xlink:title="src/Game.hxx">
<polygon fill="none" stroke="#000000" points="763,-56.5 763,-75.5 847,-75.5 847,-56.5 763,-56.5"/>
<text text-anchor="middle" x="805" y="-63.5" font-family="Helvetica,sans-Serif" font-size="10.00" fill="#000000">src/Game.hxx</text>
</a>
</g>
</g>
<!-- Node10&#45;&gt;Node11 -->
<g id="edge2" class="edge">
<title>Node10&#45;&gt;Node11</title>
<path fill="none" stroke="#191970" d="M377.6976,-111.9482C546.1294,-95.0973 590.6062,-99.7614 754,-76 756.8572,-75.5845 759.797,-75.1166 762.7541,-74.6159"/>
<polygon fill="#191970" stroke="#191970" points="377.3438,-108.466 367.7466,-112.9542 378.048,-115.4305 377.3438,-108.466"/>
</g>
<!-- Node14 -->
<g id="node6" class="node">
<title>Node14</title>
<g id="a_node6"><a xlink:href="AudioMixer_8cxx.html" target="_top" xlink:title="src/services/AudioMixer.cxx">
<polygon fill="none" stroke="#000000" points="386,-56.5 386,-75.5 538,-75.5 538,-56.5 386,-56.5"/>
<text text-anchor="middle" x="462" y="-63.5" font-family="Helvetica,sans-Serif" font-size="10.00" fill="#000000">src/services/AudioMixer.cxx</text>
</a>
</g>
</g>
<!-- Node10&#45;&gt;Node14 -->
<g id="edge5" class="edge">
<title>Node10&#45;&gt;Node14</title>
<path fill="none" stroke="#191970" d="M325.0668,-109.3235C357.527,-99.0536 402.5493,-84.8093 431.9697,-75.5011"/>
<polygon fill="#191970" stroke="#191970" points="323.9058,-106.0197 315.4274,-112.3733 326.0174,-112.6937 323.9058,-106.0197"/>
</g>
<!-- Node12 -->
<g id="node4" class="node">
<title>Node12</title>
<g id="a_node4"><a xlink:href="Game_8cxx.html" target="_top" xlink:title="src/Game.cxx">
<polygon fill="none" stroke="#000000" points="713.5,-.5 713.5,-19.5 796.5,-19.5 796.5,-.5 713.5,-.5"/>
<text text-anchor="middle" x="755" y="-7.5" font-family="Helvetica,sans-Serif" font-size="10.00" fill="#000000">src/Game.cxx</text>
</a>
</g>
</g>
<!-- Node11&#45;&gt;Node12 -->
<g id="edge3" class="edge">
<title>Node11&#45;&gt;Node12</title>
<path fill="none" stroke="#191970" d="M789.3753,-48.5004C780.8727,-38.9775 770.6782,-27.5596 763.6095,-19.6427"/>
<polygon fill="#191970" stroke="#191970" points="787.0197,-51.1172 796.2907,-56.2455 792.2413,-46.4551 787.0197,-51.1172"/>
</g>
<!-- Node13 -->
<g id="node5" class="node">
<title>Node13</title>
<g id="a_node5"><a xlink:href="main_8cxx.html" target="_top" xlink:title="src/main.cxx">
<polygon fill="none" stroke="#000000" points="814.5,-.5 814.5,-19.5 893.5,-19.5 893.5,-.5 814.5,-.5"/>
<text text-anchor="middle" x="854" y="-7.5" font-family="Helvetica,sans-Serif" font-size="10.00" fill="#000000">src/main.cxx</text>
</a>
</g>
</g>
<!-- Node11&#45;&gt;Node13 -->
<g id="edge4" class="edge">
<title>Node11&#45;&gt;Node13</title>
<path fill="none" stroke="#191970" d="M820.3122,-48.5004C828.6447,-38.9775 838.6353,-27.5596 845.5627,-19.6427"/>
<polygon fill="#191970" stroke="#191970" points="817.4862,-46.415 813.5351,-56.2455 822.7543,-51.0245 817.4862,-46.415"/>
</g>
<!-- Node15&#45;&gt;Node11 -->
<g id="edge7" class="edge">
<title>Node15&#45;&gt;Node11</title>
<path fill="none" stroke="#191970" d="M686.2868,-174.4035C750.0813,-169.4931 837.3865,-158.0888 859,-132 875.5288,-112.0488 844.2254,-88.5328 822.7615,-75.649"/>
<polygon fill="#191970" stroke="#191970" points="685.9816,-170.9164 676.2637,-175.1371 686.4926,-177.8977 685.9816,-170.9164"/>
</g>
<!-- Node16 -->
<g id="node8" class="node">
<title>Node16</title>
<g id="a_node8"><a xlink:href="Randomizer_8hxx.html" target="_top" xlink:title="src/services/Randomizer.hxx">
<polygon fill="none" stroke="#000000" points="694,-112.5 694,-131.5 850,-131.5 850,-112.5 694,-112.5"/>
<text text-anchor="middle" x="772" y="-119.5" font-family="Helvetica,sans-Serif" font-size="10.00" fill="#000000">src/services/Randomizer.hxx</text>
</a>
</g>
</g>
<!-- Node15&#45;&gt;Node16 -->
<g id="edge8" class="edge">
<title>Node15&#45;&gt;Node16</title>
<path fill="none" stroke="#191970" d="M652.4284,-164.9231C680.9461,-154.686 719.9381,-140.6889 745.5326,-131.5011"/>
<polygon fill="#191970" stroke="#191970" points="651.0468,-161.7004 642.8174,-168.3733 653.4119,-168.2887 651.0468,-161.7004"/>
</g>
<!-- Node18 -->
<g id="node10" class="node">
<title>Node18</title>
<g id="a_node10"><a xlink:href="GameClock_8hxx.html" target="_top" xlink:title="src/services/GameClock.hxx">
<polygon fill="none" stroke="#000000" points="906.5,-112.5 906.5,-131.5 1061.5,-131.5 1061.5,-112.5 906.5,-112.5"/>
<text text-anchor="middle" x="984" y="-119.5" font-family="Helvetica,sans-Serif" font-size="10.00" fill="#000000">src/services/GameClock.hxx</text>
</a>
</g>
</g>
<!-- Node15&#45;&gt;Node18 -->
<g id="edge12" class="edge">
<title>Node15&#45;&gt;Node18</title>
<path fill="none" stroke="#191970" d="M686.5441,-167.265C754.5018,-156.9236 856.3253,-141.4288 921.4562,-131.5175"/>
<polygon fill="#191970" stroke="#191970" points="685.7153,-163.8508 676.3556,-168.8154 686.7684,-170.7711 685.7153,-163.8508"/>
</g>
<!-- Node21 -->
<g id="node13" class="node">
<title>Node21</title>
<g id="a_node13"><a xlink:href="ResourceManager_8hxx.html" target="_top" xlink:title="src/services/ResourceManager.hxx">
<polygon fill="none" stroke="#000000" points="0,-112.5 0,-131.5 184,-131.5 184,-112.5 0,-112.5"/>
<text text-anchor="middle" x="92" y="-119.5" font-family="Helvetica,sans-Serif" font-size="10.00" fill="#000000">src/services/ResourceManager.hxx</text>
</a>
</g>
</g>
<!-- Node15&#45;&gt;Node21 -->
<g id="edge18" class="edge">
<title>Node15&#45;&gt;Node21</title>
<path fill="none" stroke="#191970" d="M545.8886,-170.5072C451.6568,-160.4366 284.1036,-142.5302 181.0564,-131.5175"/>
<polygon fill="#191970" stroke="#191970" points="545.5752,-173.9935 555.8905,-171.5761 546.3191,-167.0332 545.5752,-173.9935"/>
</g>
<!-- Node23 -->
<g id="node15" class="node">
<title>Node23</title>
<g id="a_node15"><a xlink:href="GameService_8cxx.html" target="_top" xlink:title="src/GameService.cxx">
<polygon fill="none" stroke="#000000" points="556.5,-112.5 556.5,-131.5 675.5,-131.5 675.5,-112.5 556.5,-112.5"/>
<text text-anchor="middle" x="616" y="-119.5" font-family="Helvetica,sans-Serif" font-size="10.00" fill="#000000">src/GameService.cxx</text>
</a>
</g>
</g>
<!-- Node15&#45;&gt;Node23 -->
<g id="edge22" class="edge">
<title>Node15&#45;&gt;Node23</title>
<path fill="none" stroke="#191970" d="M616,-158.1575C616,-149.155 616,-138.9199 616,-131.6427"/>
<polygon fill="#191970" stroke="#191970" points="612.5001,-158.2455 616,-168.2455 619.5001,-158.2456 612.5001,-158.2455"/>
</g>
<!-- Node24 -->
<g id="node16" class="node">
<title>Node24</title>
<g id="a_node16"><a xlink:href="AudioMixer_8hxx.html" target="_top" xlink:title="src/services/AudioMixer.hxx">
<polygon fill="none" stroke="#000000" points="386,-112.5 386,-131.5 538,-131.5 538,-112.5 386,-112.5"/>
<text text-anchor="middle" x="462" y="-119.5" font-family="Helvetica,sans-Serif" font-size="10.00" fill="#000000">src/services/AudioMixer.hxx</text>
</a>
</g>
</g>
<!-- Node15&#45;&gt;Node24 -->
<g id="edge23" class="edge">
<title>Node15&#45;&gt;Node24</title>
<path fill="none" stroke="#191970" d="M580.0386,-164.9231C551.8866,-154.686 513.3945,-140.6889 488.1281,-131.5011"/>
<polygon fill="#191970" stroke="#191970" points="578.9324,-168.245 589.5265,-168.3733 581.3246,-161.6665 578.9324,-168.245"/>
</g>
<!-- Node16&#45;&gt;Node11 -->
<g id="edge9" class="edge">
<title>Node16&#45;&gt;Node11</title>
<path fill="none" stroke="#191970" d="M782.8254,-103.6296C788.3299,-94.2887 794.7937,-83.3197 799.3177,-75.6427"/>
<polygon fill="#191970" stroke="#191970" points="779.8097,-101.8532 777.7482,-112.2455 785.8405,-105.4071 779.8097,-101.8532"/>
</g>
<!-- Node16&#45;&gt;Node14 -->
<g id="edge10" class="edge">
<title>Node16&#45;&gt;Node14</title>
<path fill="none" stroke="#191970" d="M709.0568,-110.6296C651.8731,-100.2997 568.4745,-85.2341 514.7203,-75.5237"/>
<polygon fill="#191970" stroke="#191970" points="708.5984,-114.1034 719.0613,-112.4369 709.8428,-107.2149 708.5984,-114.1034"/>
</g>
<!-- Node17 -->
<g id="node9" class="node">
<title>Node17</title>
<g id="a_node9"><a xlink:href="Randomizer_8cxx.html" target="_top" xlink:title="src/services/Randomizer.cxx">
<polygon fill="none" stroke="#000000" points="589.5,-56.5 589.5,-75.5 744.5,-75.5 744.5,-56.5 589.5,-56.5"/>
<text text-anchor="middle" x="667" y="-63.5" font-family="Helvetica,sans-Serif" font-size="10.00" fill="#000000">src/services/Randomizer.cxx</text>
</a>
</g>
</g>
<!-- Node16&#45;&gt;Node17 -->
<g id="edge11" class="edge">
<title>Node16&#45;&gt;Node17</title>
<path fill="none" stroke="#191970" d="M744.7375,-107.46C725.9478,-97.4388 701.4987,-84.3993 685.08,-75.6427"/>
<polygon fill="#191970" stroke="#191970" points="743.2398,-110.6278 753.7104,-112.2455 746.5339,-104.4514 743.2398,-110.6278"/>
</g>
<!-- Node18&#45;&gt;Node11 -->
<g id="edge13" class="edge">
<title>Node18&#45;&gt;Node11</title>
<path fill="none" stroke="#191970" d="M943.4805,-109.3235C910.6534,-99.0536 865.1224,-84.8093 835.3697,-75.5011"/>
<polygon fill="#191970" stroke="#191970" points="942.6399,-112.7278 953.2288,-112.3733 944.73,-106.0471 942.6399,-112.7278"/>
</g>
<!-- Node18&#45;&gt;Node14 -->
<g id="edge16" class="edge">
<title>Node18&#45;&gt;Node14</title>
<path fill="none" stroke="#191970" d="M896.311,-112.5927C796.0538,-101.8372 633.5429,-84.4031 538.3104,-74.1866"/>
<polygon fill="#191970" stroke="#191970" points="896.0987,-116.09 906.415,-113.6767 896.8454,-109.1299 896.0987,-116.09"/>
</g>
<!-- Node19 -->
<g id="node11" class="node">
<title>Node19</title>
<g id="a_node11"><a xlink:href="GameClock_8inl_8hxx.html" target="_top" xlink:title="src/services/GameClock.inl.hxx">
<polygon fill="none" stroke="#000000" points="899,-56.5 899,-75.5 1069,-75.5 1069,-56.5 899,-56.5"/>
<text text-anchor="middle" x="984" y="-63.5" font-family="Helvetica,sans-Serif" font-size="10.00" fill="#000000">src/services/GameClock.inl.hxx</text>
</a>
</g>
</g>
<!-- Node18&#45;&gt;Node19 -->
<g id="edge14" class="edge">
<title>Node18&#45;&gt;Node19</title>
<path fill="none" stroke="#191970" d="M977.5113,-102.1575C976.919,-93.155 977.3335,-82.9199 978.7549,-75.6427"/>
<polygon fill="#191970" stroke="#191970" points="974.0561,-102.739 978.7332,-112.2455 981.0053,-101.8972 974.0561,-102.739"/>
</g>
<!-- Node20 -->
<g id="node12" class="node">
<title>Node20</title>
<g id="a_node12"><a xlink:href="GameClock_8cxx.html" target="_top" xlink:title="src/services/GameClock.cxx">
<polygon fill="none" stroke="#000000" points="1087,-56.5 1087,-75.5 1241,-75.5 1241,-56.5 1087,-56.5"/>
<text text-anchor="middle" x="1164" y="-63.5" font-family="Helvetica,sans-Serif" font-size="10.00" fill="#000000">src/services/GameClock.cxx</text>
</a>
</g>
</g>
<!-- Node18&#45;&gt;Node20 -->
<g id="edge17" class="edge">
<title>Node18&#45;&gt;Node20</title>
<path fill="none" stroke="#191970" d="M1024.7459,-109.3235C1057.7563,-99.0536 1103.5417,-84.8093 1133.4607,-75.5011"/>
<polygon fill="#191970" stroke="#191970" points="1023.4519,-106.0605 1014.9431,-112.3733 1025.5314,-112.7445 1023.4519,-106.0605"/>
</g>
<!-- Node19&#45;&gt;Node18 -->
<g id="edge15" class="edge">
<title>Node19&#45;&gt;Node18</title>
<path fill="none" stroke="#191970" d="M990.4795,-85.7046C991.0821,-94.6944 990.6779,-104.9382 989.2668,-112.2455"/>
<polygon fill="#191970" stroke="#191970" points="993.9368,-85.1421 989.2451,-75.6427 986.9889,-85.9945 993.9368,-85.1421"/>
</g>
<!-- Node21&#45;&gt;Node11 -->
<g id="edge19" class="edge">
<title>Node21&#45;&gt;Node11</title>
<path fill="none" stroke="#191970" d="M194.284,-111.9266C443.744,-92.1129 509.4916,-107.6811 754,-76 756.8634,-75.629 759.8077,-75.1945 762.7682,-74.7182"/>
<polygon fill="#191970" stroke="#191970" points="193.8733,-108.4483 184.1866,-112.7399 194.4353,-115.4257 193.8733,-108.4483"/>
</g>
<!-- Node21&#45;&gt;Node14 -->
<g id="edge20" class="edge">
<title>Node21&#45;&gt;Node14</title>
<path fill="none" stroke="#191970" d="M165.4366,-110.8853C233.7261,-100.5496 334.3862,-85.3145 399.0757,-75.5237"/>
<polygon fill="#191970" stroke="#191970" points="164.5485,-107.4797 155.1849,-112.4369 165.596,-114.4009 164.5485,-107.4797"/>
</g>
<!-- Node22 -->
<g id="node14" class="node">
<title>Node22</title>
<g id="a_node14"><a xlink:href="ResourceManager_8cxx.html" target="_top" xlink:title="src/services/ResourceManager.cxx">
<polygon fill="none" stroke="#000000" points=".5,-56.5 .5,-75.5 183.5,-75.5 183.5,-56.5 .5,-56.5"/>
<text text-anchor="middle" x="92" y="-63.5" font-family="Helvetica,sans-Serif" font-size="10.00" fill="#000000">src/services/ResourceManager.cxx</text>
</a>
</g>
</g>
<!-- Node21&#45;&gt;Node22 -->
<g id="edge21" class="edge">
<title>Node21&#45;&gt;Node22</title>
<path fill="none" stroke="#191970" d="M92,-102.1575C92,-93.155 92,-82.9199 92,-75.6427"/>
<polygon fill="#191970" stroke="#191970" points="88.5001,-102.2455 92,-112.2455 95.5001,-102.2456 88.5001,-102.2455"/>
</g>
<!-- Node24&#45;&gt;Node14 -->
<g id="edge24" class="edge">
<title>Node24&#45;&gt;Node14</title>
<path fill="none" stroke="#191970" d="M462,-102.1575C462,-93.155 462,-82.9199 462,-75.6427"/>
<polygon fill="#191970" stroke="#191970" points="458.5001,-102.2455 462,-112.2455 465.5001,-102.2456 458.5001,-102.2455"/>
</g>
</g>
</svg>
        <g id="navigator" transform="translate(0 0)" fill="#404254">
                <rect fill="#f2f5e9" fill-opacity="0.5" stroke="#606060" stroke-width=".5" x="0" y="0" width="60" height="60"/>
                <use id="zoomplus" xlink:href="#zoomPlus" x="17" y="9" onmousedown="handleZoom(evt,'in')"/>
                <use id="zoomminus" xlink:href="#zoomMin" x="42" y="9" onmousedown="handleZoom(evt,'out')"/>
                <use id="reset" xlink:href="#resetDef" x="30" y="36" onmousedown="handleReset()"/>
                <g id="arrowUp" xlink:href="#dirArrow" transform="translate(30 24)" onmousedown="handlePan(0,-1)">
                  <use xlink:href="#rim" fill="#404040">
                        <set attributeName="fill" to="#808080" begin="arrowUp.mouseover" end="arrowUp.mouseout"/>
                  </use>
                  <path fill="none" stroke="white" stroke-width="1.5" d="M0,-3.0v7 M-2.5,-0.5L0,-3.0L2.5,-0.5"/>
                </g>
                <g id="arrowRight" xlink:href="#dirArrow" transform="rotate(90) translate(36 -43)" onmousedown="handlePan(1,0)">
                  <use xlink:href="#rim" fill="#404040">
                        <set attributeName="fill" to="#808080" begin="arrowRight.mouseover" end="arrowRight.mouseout"/>
                  </use>
                  <path fill="none" stroke="white" stroke-width="1.5" d="M0,-3.0v7 M-2.5,-0.5L0,-3.0L2.5,-0.5"/>
                </g>
                <g id="arrowDown" xlink:href="#dirArrow" transform="rotate(180) translate(-30 -48)" onmousedown="handlePan(0,1)">
                  <use xlink:href="#rim" fill="#404040">
                        <set attributeName="fill" to="#808080" begin="arrowDown.mouseover" end="arrowDown.mouseout"/>
                  </use>
                  <path fill="none" stroke="white" stroke-width="1.5" d="M0,-3.0v7 M-2.5,-0.5L0,-3.0L2.5,-0.5"/>
                </g>
                <g id="arrowLeft" xlink:href="#dirArrow" transform="rotate(270) translate(-36 17)" onmousedown="handlePan(-1,0)">
                  <use xlink:href="#rim" fill="#404040">
                        <set attributeName="fill" to="#808080" begin="arrowLeft.mouseover" end="arrowLeft.mouseout"/>
                  </use>
                  <path fill="none" stroke="white" stroke-width="1.5" d="M0,-3.0v7 M-2.5,-0.5L0,-3.0L2.5,-0.5"/>
                </g>
        </g>
        <svg viewBox="0 0 15 15" width="100%" height="30px" preserveAspectRatio="xMaxYMin meet">
         <g id="arrow_out" transform="scale(0.3 0.3)">
          <a xlink:href="Events_8hxx__dep__incl_org.svg" target="_base">
           <rect id="button" ry="5" rx="5" y="6" x="6" height="38" width="38"
                fill="#f2f5e9" fill-opacity="0.5" stroke="#606060" stroke-width="1.0"/>
           <path id="arrow"
             d="M 11.500037,31.436501 C 11.940474,20.09759 22.043105,11.32322 32.158766,21.979434 L 37.068811,17.246167 C 37.068811,17.246167 37.088388,32 37.088388,32 L 22.160133,31.978069 C 22.160133,31.978069 26.997745,27.140456 26.997745,27.140456 C 18.528582,18.264221 13.291696,25.230495 11.500037,31.436501 z"
             style="fill:#404040;"/>
          </a>
         </g>
        </svg>
</svg>
