<?xml version="1.0" encoding="UTF-8" standalone="no"?>
<!DOCTYPE svg PUBLIC "-//W3C//DTD SVG 1.1//EN"
 "http://www.w3.org/Graphics/SVG/1.1/DTD/svg11.dtd">
<!-- Generated by graphviz version 2.40.1 (20161225.0304)
 -->
<!-- Title: src/util/Exception.hxx Pages: 1 -->
<!--zoomable 263 -->
<svg id="main" version="1.1" xmlns="http://www.w3.org/2000/svg" xmlns:xlink="http://www.w3.org/1999/xlink" xml:space="preserve" onload="init(evt)">
<style type="text/css"><![CDATA[
.edge:hover path { stroke: red; }
.edge:hover polygon { stroke: red; fill: red; }
]]></style>
<script type="text/javascript"><![CDATA[
var edges = document.getElementsByTagName('g');
if (edges && edges.length) {
  for (var i=0;i<edges.length;i++) {
    if (edges[i].id.substr(0,4)=='edge') {
      edges[i].setAttribute('class','edge');
    }
  }
}
]]></script>
        <defs>
                <circle id="rim" cx="0" cy="0" r="7"/>
                <circle id="rim2" cx="0" cy="0" r="3.5"/>
                <g id="zoomPlus">
                        <use xlink:href="#rim" fill="#404040">
                                <set attributeName="fill" to="#808080" begin="zoomplus.mouseover" end="zoomplus.mouseout"/>
                        </use>
                        <path d="M-4,0h8M0,-4v8" fill="none" stroke="white" stroke-width="1.5" pointer-events="none"/>
                </g>
                <g id="zoomMin">
                        <use xlink:href="#rim" fill="#404040">
                                <set attributeName="fill" to="#808080" begin="zoomminus.mouseover" end="zoomminus.mouseout"/>
                        </use>
                        <path d="M-4,0h8" fill="none" stroke="white" stroke-width="1.5" pointer-events="none"/>
                </g>
                <g id="dirArrow">
                        <path fill="none" stroke="white" stroke-width="1.5" d="M0,-3.0v7 M-2.5,-0.5L0,-3.0L2.5,-0.5"/>
                </g>
               <g id="resetDef">
                       <use xlink:href="#rim2" fill="#404040">
                               <set attributeName="fill" to="#808080" begin="reset.mouseover" end="reset.mouseout"/>
                       </use>
               </g>
        </defs>

<script type="text/javascript">
var viewWidth = 3867;
var viewHeight = 263;
var sectionId = 'dynsection-1';
</script>
<script xlink:href="svgpan.js"/>
<svg id="graph" class="graph">
<g id="viewport">
<title>src/util/Exception.hxx</title>
<!-- Node3 -->
<g id="node1" class="node">
<title>Node3</title>
<polygon fill="#bfbfbf" stroke="#000000" points="1104.0647,-235.5 1104.0647,-254.5 1226.0647,-254.5 1226.0647,-235.5 1104.0647,-235.5"/>
<text text-anchor="middle" x="1165.0647" y="-242.5" font-family="Helvetica,sans-Serif" font-size="10.00" fill="#000000">src/util/Exception.hxx</text>
</g>
<!-- Node4 -->
<g id="node2" class="node">
<title>Node4</title>
<g id="a_node2"><a xlink:href="compression_8hxx.html" target="_top" xlink:title="src/engine/basics/compression.hxx">
<polygon fill="none" stroke="#000000" points="59.5647,-118 59.5647,-137 246.5647,-137 246.5647,-118 59.5647,-118"/>
<text text-anchor="middle" x="153.0647" y="-125" font-family="Helvetica,sans-Serif" font-size="10.00" fill="#000000">src/engine/basics/compression.hxx</text>
</a>
</g>
</g>
<!-- Node3&#45;&gt;Node4 -->
<g id="edge1" class="edge">
<title>Node3&#45;&gt;Node4</title>
<path fill="none" stroke="#191970" d="M1093.6107,-239.2023C997.9527,-231.2356 823.034,-215.9502 674.0647,-199 487.8288,-177.8095 441.6349,-169.3916 256.0647,-143 242.8163,-141.1158 228.6208,-139.0258 215.1327,-137.0064"/>
<polygon fill="#191970" stroke="#191970" points="1093.4912,-242.7043 1103.7465,-240.0437 1094.0703,-235.7283 1093.4912,-242.7043"/>
</g>
<!-- Node6 -->
<g id="node4" class="node">
<title>Node6</title>
<g id="a_node4"><a xlink:href="Settings_8cxx.html" target="_top" xlink:title="src/engine/basics/Settings.cxx">
<polygon fill="none" stroke="#000000" points="265.0647,-118 265.0647,-137 429.0647,-137 429.0647,-118 265.0647,-118"/>
<text text-anchor="middle" x="347.0647" y="-125" font-family="Helvetica,sans-Serif" font-size="10.00" fill="#000000">src/engine/basics/Settings.cxx</text>
</a>
</g>
</g>
<!-- Node3&#45;&gt;Node6 -->
<g id="edge3" class="edge">
<title>Node3&#45;&gt;Node6</title>
<path fill="none" stroke="#191970" d="M1093.6673,-236.0157C1022.7097,-226.9989 910.7998,-212.5414 814.0647,-199 646.7417,-175.5774 604.9071,-169.6306 438.0647,-143 426.3536,-141.1307 413.8092,-139.047 401.892,-137.029"/>
<polygon fill="#191970" stroke="#191970" points="1093.4715,-239.5188 1103.8326,-237.3058 1094.3528,-232.5745 1093.4715,-239.5188"/>
</g>
<!-- Node7 -->
<g id="node5" class="node">
<title>Node7</title>
<g id="a_node5"><a xlink:href="TerrainGenerator_8cxx.html" target="_top" xlink:title="src/engine/map/TerrainGenerator.cxx">
<polygon fill="none" stroke="#000000" points="447.0647,-118 447.0647,-137 643.0647,-137 643.0647,-118 447.0647,-118"/>
<text text-anchor="middle" x="545.0647" y="-125" font-family="Helvetica,sans-Serif" font-size="10.00" fill="#000000">src/engine/map/TerrainGenerator.cxx</text>
</a>
</g>
</g>
<!-- Node3&#45;&gt;Node7 -->
<g id="edge4" class="edge">
<title>Node3&#45;&gt;Node7</title>
<path fill="none" stroke="#191970" d="M1104.9351,-233.6045C982.9704,-210.4902 708.4869,-158.4711 595.312,-137.0227"/>
<polygon fill="#191970" stroke="#191970" points="1104.3758,-237.0607 1114.8526,-235.484 1105.6793,-230.1831 1104.3758,-237.0607"/>
</g>
<!-- Node8 -->
<g id="node6" class="node">
<title>Node8</title>
<g id="a_node6"><a xlink:href="ResourcesManager_8cxx.html" target="_top" xlink:title="src/engine/ResourcesManager.cxx">
<polygon fill="none" stroke="#000000" points="661.5647,-118 661.5647,-137 842.5647,-137 842.5647,-118 661.5647,-118"/>
<text text-anchor="middle" x="752.0647" y="-125" font-family="Helvetica,sans-Serif" font-size="10.00" fill="#000000">src/engine/ResourcesManager.cxx</text>
</a>
</g>
</g>
<!-- Node3&#45;&gt;Node8 -->
<g id="edge5" class="edge">
<title>Node3&#45;&gt;Node8</title>
<path fill="none" stroke="#191970" d="M1121.7779,-232.6847C1039.0117,-209.1375 859.941,-158.1912 785.5359,-137.0227"/>
<polygon fill="#191970" stroke="#191970" points="1121.0409,-236.1139 1131.617,-235.484 1122.9565,-229.3811 1121.0409,-236.1139"/>
</g>
<!-- Node9 -->
<g id="node7" class="node">
<title>Node9</title>
<g id="a_node7"><a xlink:href="Sprite_8cxx.html" target="_top" xlink:title="src/engine/Sprite.cxx">
<polygon fill="none" stroke="#000000" points="860.5647,-118 860.5647,-137 979.5647,-137 979.5647,-118 860.5647,-118"/>
<text text-anchor="middle" x="920.0647" y="-125" font-family="Helvetica,sans-Serif" font-size="10.00" fill="#000000">src/engine/Sprite.cxx</text>
</a>
</g>
</g>
<!-- Node3&#45;&gt;Node9 -->
<g id="edge6" class="edge">
<title>Node3&#45;&gt;Node9</title>
<path fill="none" stroke="#191970" d="M1135.9439,-231.0339C1085.5305,-206.8561 983.2546,-157.8054 940.0475,-137.0836"/>
<polygon fill="#191970" stroke="#191970" points="1134.4851,-234.2159 1145.0153,-235.3845 1137.5121,-227.9043 1134.4851,-234.2159"/>
</g>
<!-- Node10 -->
<g id="node8" class="node">
<title>Node10</title>
<g id="a_node8"><a xlink:href="TileManager_8cxx.html" target="_top" xlink:title="src/engine/TileManager.cxx">
<polygon fill="none" stroke="#000000" points="997.5647,-118 997.5647,-137 1146.5647,-137 1146.5647,-118 997.5647,-118"/>
<text text-anchor="middle" x="1072.0647" y="-125" font-family="Helvetica,sans-Serif" font-size="10.00" fill="#000000">src/engine/TileManager.cxx</text>
</a>
</g>
</g>
<!-- Node3&#45;&gt;Node10 -->
<g id="edge7" class="edge">
<title>Node3&#45;&gt;Node10</title>
<path fill="none" stroke="#191970" d="M1151.1526,-227.4229C1131.2889,-202.3263 1095.4707,-157.0721 1079.7804,-137.2484"/>
<polygon fill="#191970" stroke="#191970" points="1148.5035,-229.7155 1157.4541,-235.3845 1153.9923,-225.3712 1148.5035,-229.7155"/>
</g>
<!-- Node11 -->
<g id="node9" class="node">
<title>Node11</title>
<g id="a_node9"><a xlink:href="UIElement_8cxx.html" target="_top" xlink:title="src/engine/ui/basics\l/UIElement.cxx">
<polygon fill="none" stroke="#000000" points="1164.5647,-112.5 1164.5647,-142.5 1277.5647,-142.5 1277.5647,-112.5 1164.5647,-112.5"/>
<text text-anchor="start" x="1172.5647" y="-130.5" font-family="Helvetica,sans-Serif" font-size="10.00" fill="#000000">src/engine/ui/basics</text>
<text text-anchor="middle" x="1221.0647" y="-119.5" font-family="Helvetica,sans-Serif" font-size="10.00" fill="#000000">/UIElement.cxx</text>
</a>
</g>
</g>
<!-- Node3&#45;&gt;Node11 -->
<g id="edge8" class="edge">
<title>Node3&#45;&gt;Node11</title>
<path fill="none" stroke="#191970" d="M1174.0029,-226.2456C1185.044,-203.079 1203.6138,-164.1157 1213.8136,-142.7143"/>
<polygon fill="#191970" stroke="#191970" points="1170.7902,-224.8515 1169.6474,-235.3845 1177.1093,-227.8631 1170.7902,-224.8515"/>
</g>
<!-- Node12 -->
<g id="node10" class="node">
<title>Node12</title>
<g id="a_node10"><a xlink:href="Text_8cxx.html" target="_top" xlink:title="src/engine/ui/widgets\l/Text.cxx">
<polygon fill="none" stroke="#000000" points="1296.0647,-112.5 1296.0647,-142.5 1416.0647,-142.5 1416.0647,-112.5 1296.0647,-112.5"/>
<text text-anchor="start" x="1304.0647" y="-130.5" font-family="Helvetica,sans-Serif" font-size="10.00" fill="#000000">src/engine/ui/widgets</text>
<text text-anchor="middle" x="1356.0647" y="-119.5" font-family="Helvetica,sans-Serif" font-size="10.00" fill="#000000">/Text.cxx</text>
</a>
</g>
</g>
<!-- Node3&#45;&gt;Node12 -->
<g id="edge9" class="edge">
<title>Node3&#45;&gt;Node12</title>
<path fill="none" stroke="#191970" d="M1189.262,-230.1142C1225.8648,-207.5968 1294.9265,-165.1112 1331.6546,-142.5167"/>
<polygon fill="#191970" stroke="#191970" points="1187.3784,-227.1636 1180.695,-235.3845 1191.0463,-233.1258 1187.3784,-227.1636"/>
</g>
<!-- Node13 -->
<g id="node11" class="node">
<title>Node13</title>
<g id="a_node11"><a xlink:href="UIManager_8cxx.html" target="_top" xlink:title="src/engine/UIManager.cxx">
<polygon fill="none" stroke="#000000" points="1434.0647,-118 1434.0647,-137 1576.0647,-137 1576.0647,-118 1434.0647,-118"/>
<text text-anchor="middle" x="1505.0647" y="-125" font-family="Helvetica,sans-Serif" font-size="10.00" fill="#000000">src/engine/UIManager.cxx</text>
</a>
</g>
</g>
<!-- Node3&#45;&gt;Node13 -->
<g id="edge10" class="edge">
<title>Node3&#45;&gt;Node13</title>
<path fill="none" stroke="#191970" d="M1202.1553,-232.1819C1270.8251,-208.4504 1416.3097,-158.1727 1477.272,-137.1048"/>
<polygon fill="#191970" stroke="#191970" points="1200.9086,-228.9096 1192.6003,-235.484 1203.1951,-235.5256 1200.9086,-228.9096"/>
</g>
<!-- Node14 -->
<g id="node12" class="node">
<title>Node14</title>
<g id="a_node12"><a xlink:href="WindowManager_8cxx.html" target="_top" xlink:title="src/engine/WindowManager.cxx">
<polygon fill="none" stroke="#000000" points="1594.0647,-118 1594.0647,-137 1764.0647,-137 1764.0647,-118 1594.0647,-118"/>
<text text-anchor="middle" x="1679.0647" y="-125" font-family="Helvetica,sans-Serif" font-size="10.00" fill="#000000">src/engine/WindowManager.cxx</text>
</a>
</g>
</g>
<!-- Node3&#45;&gt;Node14 -->
<g id="edge11" class="edge">
<title>Node3&#45;&gt;Node14</title>
<path fill="none" stroke="#191970" d="M1216.4464,-233.2542C1318.3081,-209.9687 1544.0534,-158.3635 1637.408,-137.0227"/>
<polygon fill="#191970" stroke="#191970" points="1215.6606,-229.8434 1206.6921,-235.484 1217.2206,-236.6674 1215.6606,-229.8434"/>
</g>
<!-- Node15 -->
<g id="node13" class="node">
<title>Node15</title>
<g id="a_node13"><a xlink:href="Game_8hxx.html" target="_top" xlink:title="src/Game.hxx">
<polygon fill="none" stroke="#000000" points="1858.0647,-56.5 1858.0647,-75.5 1942.0647,-75.5 1942.0647,-56.5 1858.0647,-56.5"/>
<text text-anchor="middle" x="1900.0647" y="-63.5" font-family="Helvetica,sans-Serif" font-size="10.00" fill="#000000">src/Game.hxx</text>
</a>
</g>
</g>
<!-- Node3&#45;&gt;Node15 -->
<g id="edge12" class="edge">
<title>Node3&#45;&gt;Node15</title>
<path fill="none" stroke="#191970" d="M1093.4743,-241.1546C973.068,-234.4206 722.4455,-219.2595 511.0647,-199 303.5102,-179.1072 -95.5271,-261.2569 50.0647,-112 66.3905,-95.2632 1583.8814,-70.9115 1857.9043,-66.6485"/>
<polygon fill="#191970" stroke="#191970" points="1093.4872,-244.6607 1103.6662,-241.7219 1093.8762,-237.6715 1093.4872,-244.6607"/>
</g>
<!-- Node17 -->
<g id="node15" class="node">
<title>Node17</title>
<g id="a_node15"><a xlink:href="main_8cxx.html" target="_top" xlink:title="src/main.cxx">
<polygon fill="none" stroke="#000000" points="1790.5647,-.5 1790.5647,-19.5 1869.5647,-19.5 1869.5647,-.5 1790.5647,-.5"/>
<text text-anchor="middle" x="1830.0647" y="-7.5" font-family="Helvetica,sans-Serif" font-size="10.00" fill="#000000">src/main.cxx</text>
</a>
</g>
</g>
<!-- Node3&#45;&gt;Node17 -->
<g id="edge15" class="edge">
<title>Node3&#45;&gt;Node17</title>
<path fill="none" stroke="#191970" d="M1093.6405,-244.8202C849.076,-243.8583 58.29,-237.7522 21.0647,-199 7.5533,-184.9344 -19.2868,-155.8585 23.0647,-112 86.6347,-46.168 1531.378,-15.6756 1790.4672,-10.7279"/>
<polygon fill="#191970" stroke="#191970" points="1093.8239,-248.3208 1103.837,-244.8585 1093.8503,-241.3209 1093.8239,-248.3208"/>
</g>
<!-- Node18 -->
<g id="node16" class="node">
<title>Node18</title>
<g id="a_node16"><a xlink:href="AudioMixer_8cxx.html" target="_top" xlink:title="src/services/AudioMixer.cxx">
<polygon fill="none" stroke="#000000" points="3312.0647,-56.5 3312.0647,-75.5 3464.0647,-75.5 3464.0647,-56.5 3312.0647,-56.5"/>
<text text-anchor="middle" x="3388.0647" y="-63.5" font-family="Helvetica,sans-Serif" font-size="10.00" fill="#000000">src/services/AudioMixer.cxx</text>
</a>
</g>
</g>
<!-- Node3&#45;&gt;Node18 -->
<g id="edge16" class="edge">
<title>Node3&#45;&gt;Node18</title>
<path fill="none" stroke="#191970" d="M1236.6281,-244.7796C1494.3881,-243.679 2399.5046,-237.1579 3145.0647,-199 3302.4619,-190.9444 3745.1126,-258.7585 3852.0647,-143 3861.4145,-132.8803 3861.314,-122.2116 3852.0647,-112 3826.591,-83.8761 3589.5233,-72.273 3464.4789,-68.0771"/>
<polygon fill="#191970" stroke="#191970" points="1236.27,-241.281 1226.2846,-244.8223 1236.299,-248.2809 1236.27,-241.281"/>
</g>
<!-- Node19 -->
<g id="node17" class="node">
<title>Node19</title>
<g id="a_node17"><a xlink:href="LOG_8hxx.html" target="_top" xlink:title="src/util/LOG.hxx">
<polygon fill="none" stroke="#000000" points="1874.0647,-179.5 1874.0647,-198.5 1968.0647,-198.5 1968.0647,-179.5 1874.0647,-179.5"/>
<text text-anchor="middle" x="1921.0647" y="-186.5" font-family="Helvetica,sans-Serif" font-size="10.00" fill="#000000">src/util/LOG.hxx</text>
</a>
</g>
</g>
<!-- Node3&#45;&gt;Node19 -->
<g id="edge17" class="edge">
<title>Node3&#45;&gt;Node19</title>
<path fill="none" stroke="#191970" d="M1236.5117,-239.7076C1389.5235,-228.3734 1745.3889,-202.013 1873.7953,-192.5014"/>
<polygon fill="#191970" stroke="#191970" points="1236.005,-236.2355 1226.2909,-240.4647 1236.5222,-243.2164 1236.005,-236.2355"/>
</g>
<!-- Node30 -->
<g id="node28" class="node">
<title>Node30</title>
<g id="a_node28"><a xlink:href="ResourceManager_8cxx.html" target="_top" xlink:title="src/services/ResourceManager.cxx">
<polygon fill="none" stroke="#000000" points="3520.5647,-118 3520.5647,-137 3703.5647,-137 3703.5647,-118 3520.5647,-118"/>
<text text-anchor="middle" x="3612.0647" y="-125" font-family="Helvetica,sans-Serif" font-size="10.00" fill="#000000">src/services/ResourceManager.cxx</text>
</a>
</g>
</g>
<!-- Node3&#45;&gt;Node30 -->
<g id="edge48" class="edge">
<title>Node3&#45;&gt;Node30</title>
<path fill="none" stroke="#191970" d="M1236.4966,-244.5327C1522.6118,-242.1021 2613.4414,-227.4882 3506.0647,-143 3521.803,-141.5103 3538.7761,-139.3011 3554.4288,-137.0144"/>
<polygon fill="#191970" stroke="#191970" points="1236.2306,-241.0347 1226.2599,-244.6173 1236.2885,-248.0344 1236.2306,-241.0347"/>
</g>
<!-- Node31 -->
<g id="node29" class="node">
<title>Node31</title>
<g id="a_node29"><a xlink:href="Exception_8cxx.html" target="_top" xlink:title="src/util/Exception.cxx">
<polygon fill="none" stroke="#000000" points="3721.5647,-118 3721.5647,-137 3842.5647,-137 3842.5647,-118 3721.5647,-118"/>
<text text-anchor="middle" x="3782.0647" y="-125" font-family="Helvetica,sans-Serif" font-size="10.00" fill="#000000">src/util/Exception.cxx</text>
</a>
</g>
</g>
<!-- Node3&#45;&gt;Node31 -->
<g id="edge49" class="edge">
<title>Node3&#45;&gt;Node31</title>
<path fill="none" stroke="#191970" d="M1236.3194,-244.1138C1471.168,-240.9736 2242.1711,-228.9168 2879.0647,-199 3250.1568,-181.5687 3345.4088,-196.3143 3713.0647,-143 3723.3927,-141.5023 3734.4691,-139.2904 3744.6584,-137.0037"/>
<polygon fill="#191970" stroke="#191970" points="1236.1558,-240.6156 1226.2032,-244.248 1236.2487,-247.615 1236.1558,-240.6156"/>
</g>
<!-- Node5 -->
<g id="node3" class="node">
<title>Node5</title>
<g id="a_node3"><a xlink:href="Map_8cxx.html" target="_top" xlink:title="src/engine/Map.cxx">
<polygon fill="none" stroke="#000000" points="895.0647,-56.5 895.0647,-75.5 1005.0647,-75.5 1005.0647,-56.5 895.0647,-56.5"/>
<text text-anchor="middle" x="950.0647" y="-63.5" font-family="Helvetica,sans-Serif" font-size="10.00" fill="#000000">src/engine/Map.cxx</text>
</a>
</g>
</g>
<!-- Node4&#45;&gt;Node5 -->
<g id="edge2" class="edge">
<title>Node4&#45;&gt;Node5</title>
<path fill="none" stroke="#191970" d="M220.8745,-116.477C232.5881,-114.8074 244.6625,-113.2337 256.0647,-112 493.1632,-86.3473 777.4867,-72.8972 895.0502,-68.0897"/>
<polygon fill="#191970" stroke="#191970" points="220.0889,-113.0545 210.6996,-117.9627 221.1004,-119.981 220.0889,-113.0545"/>
</g>
<!-- Node16 -->
<g id="node14" class="node">
<title>Node16</title>
<g id="a_node14"><a xlink:href="Game_8cxx.html" target="_top" xlink:title="src/Game.cxx">
<polygon fill="none" stroke="#000000" points="2668.5647,-.5 2668.5647,-19.5 2751.5647,-19.5 2751.5647,-.5 2668.5647,-.5"/>
<text text-anchor="middle" x="2710.0647" y="-7.5" font-family="Helvetica,sans-Serif" font-size="10.00" fill="#000000">src/Game.cxx</text>
</a>
</g>
</g>
<!-- Node15&#45;&gt;Node16 -->
<g id="edge13" class="edge">
<title>Node15&#45;&gt;Node16</title>
<path fill="none" stroke="#191970" d="M1952.6004,-55.963C2231.1427,-21.0322 2554.8698,-12.579 2668.3332,-10.5821"/>
<polygon fill="#191970" stroke="#191970" points="1951.7751,-52.5395 1942.295,-57.2702 1952.656,-59.4839 1951.7751,-52.5395"/>
</g>
<!-- Node15&#45;&gt;Node17 -->
<g id="edge14" class="edge">
<title>Node15&#45;&gt;Node17</title>
<path fill="none" stroke="#191970" d="M1879.9747,-49.928C1867.7393,-40.1397 1852.514,-27.9595 1842.118,-19.6427"/>
<polygon fill="#191970" stroke="#191970" points="1877.8764,-52.7316 1887.8716,-56.2455 1882.2493,-47.2655 1877.8764,-52.7316"/>
</g>
<!-- Node19&#45;&gt;Node4 -->
<g id="edge18" class="edge">
<title>Node19&#45;&gt;Node4</title>
<path fill="none" stroke="#191970" d="M1863.8725,-188.356C1609.3911,-185.3466 578.3443,-171.594 256.0647,-143 240.3938,-141.6096 223.4783,-139.3741 207.9741,-137.0285"/>
<polygon fill="#191970" stroke="#191970" points="1863.9628,-191.8572 1874.0033,-188.475 1864.0451,-184.8577 1863.9628,-191.8572"/>
</g>
<!-- Node19&#45;&gt;Node5 -->
<g id="edge25" class="edge">
<title>Node19&#45;&gt;Node5</title>
<path fill="none" stroke="#191970" d="M1885.879,-175.7634C1865.0498,-167.3985 1838.4451,-155.7778 1816.0647,-143 1795.6047,-131.3187 1795.2739,-119.8621 1773.0647,-112 1701.1452,-86.5404 1177.9633,-71.5774 1005.2343,-67.29"/>
<polygon fill="#191970" stroke="#191970" points="1884.7142,-179.0664 1895.3008,-179.4843 1887.2855,-172.5557 1884.7142,-179.0664"/>
</g>
<!-- Node19&#45;&gt;Node6 -->
<g id="edge20" class="edge">
<title>Node19&#45;&gt;Node6</title>
<path fill="none" stroke="#191970" d="M1863.6454,-188.2772C1626.457,-185.1278 722.185,-171.4668 438.0647,-143 424.1914,-141.61 409.2377,-139.3746 395.5401,-137.029"/>
<polygon fill="#191970" stroke="#191970" points="1863.7318,-191.7785 1873.7771,-188.4107 1863.8241,-184.7791 1863.7318,-191.7785"/>
</g>
<!-- Node19&#45;&gt;Node7 -->
<g id="edge24" class="edge">
<title>Node19&#45;&gt;Node7</title>
<path fill="none" stroke="#191970" d="M1863.6567,-187.7417C1648.8098,-182.9043 892.2587,-164.6872 652.0647,-143 635.9876,-141.5484 618.637,-139.3229 602.6828,-137.0072"/>
<polygon fill="#191970" stroke="#191970" points="1863.696,-191.2433 1873.7719,-187.9685 1863.853,-184.2451 1863.696,-191.2433"/>
</g>
<!-- Node19&#45;&gt;Node8 -->
<g id="edge26" class="edge">
<title>Node19&#45;&gt;Node8</title>
<path fill="none" stroke="#191970" d="M1863.6017,-187.3829C1671.1517,-181.8332 1050.2312,-162.8092 851.0647,-143 836.2634,-141.5279 820.3059,-139.3101 805.6155,-137.009"/>
<polygon fill="#191970" stroke="#191970" points="1863.6874,-190.8867 1873.7839,-187.6755 1863.8885,-183.8896 1863.6874,-190.8867"/>
</g>
<!-- Node19&#45;&gt;Node9 -->
<g id="edge27" class="edge">
<title>Node19&#45;&gt;Node9</title>
<path fill="none" stroke="#191970" d="M1863.927,-187.4934C1688.4137,-182.6586 1158.6843,-166.468 988.0647,-143 977.7486,-141.5811 966.6896,-139.3662 956.551,-137.0504"/>
<polygon fill="#191970" stroke="#191970" points="1863.8965,-190.9938 1873.9885,-187.7688 1864.0881,-183.9964 1863.8965,-190.9938"/>
</g>
<!-- Node19&#45;&gt;Node10 -->
<g id="edge28" class="edge">
<title>Node19&#45;&gt;Node10</title>
<path fill="none" stroke="#191970" d="M1863.4781,-187.9908C1735.5915,-185.214 1418.4037,-175.368 1155.0647,-143 1142.8432,-141.4978 1129.7058,-139.3126 1117.5694,-137.0544"/>
<polygon fill="#191970" stroke="#191970" points="1863.738,-191.4969 1873.8095,-188.2085 1863.8855,-184.4985 1863.738,-191.4969"/>
</g>
<!-- Node19&#45;&gt;Node11 -->
<g id="edge30" class="edge">
<title>Node19&#45;&gt;Node11</title>
<path fill="none" stroke="#191970" d="M1863.8271,-187.8763C1752.2544,-185.0183 1498.1182,-175.2319 1287.0647,-143 1284.0395,-142.538 1280.9481,-142.01 1277.835,-141.4341"/>
<polygon fill="#191970" stroke="#191970" points="1863.7705,-191.3759 1873.854,-188.1242 1863.9436,-184.378 1863.7705,-191.3759"/>
</g>
<!-- Node19&#45;&gt;Node12 -->
<g id="edge33" class="edge">
<title>Node19&#45;&gt;Node12</title>
<path fill="none" stroke="#191970" d="M1863.9693,-186.095C1771.3842,-180.8492 1582.9406,-167.9475 1425.0647,-143 1422.1541,-142.5401 1419.1829,-142.0302 1416.1879,-141.4837"/>
<polygon fill="#191970" stroke="#191970" points="1863.7914,-189.5904 1873.9709,-186.6529 1864.1814,-182.6013 1863.7914,-189.5904"/>
</g>
<!-- Node19&#45;&gt;Node13 -->
<g id="edge34" class="edge">
<title>Node19&#45;&gt;Node13</title>
<path fill="none" stroke="#191970" d="M1863.9896,-182.163C1797.0246,-173.9154 1682.7256,-159.1333 1585.0647,-143 1574.317,-141.2245 1562.7972,-139.1148 1551.942,-137.0326"/>
<polygon fill="#191970" stroke="#191970" points="1863.5679,-185.6374 1873.9197,-183.3808 1864.4201,-178.6895 1863.5679,-185.6374"/>
</g>
<!-- Node19&#45;&gt;Node14 -->
<g id="edge35" class="edge">
<title>Node19&#45;&gt;Node14</title>
<path fill="none" stroke="#191970" d="M1873.7973,-176.9878C1827.8697,-165.3162 1759.0368,-147.8235 1716.6997,-137.0643"/>
<polygon fill="#191970" stroke="#191970" points="1872.9637,-180.3872 1883.5177,-179.4581 1874.6878,-173.6028 1872.9637,-180.3872"/>
</g>
<!-- Node19&#45;&gt;Node15 -->
<g id="edge40" class="edge">
<title>Node19&#45;&gt;Node15</title>
<path fill="none" stroke="#191970" d="M1904.3433,-171.9123C1897.5888,-163.836 1890.5702,-153.6406 1887.0647,-143 1879.3439,-119.5649 1889.1717,-90.5333 1895.4986,-75.7076"/>
<polygon fill="#191970" stroke="#191970" points="1901.8507,-174.3753 1911.1285,-179.4913 1907.0661,-169.7063 1901.8507,-174.3753"/>
</g>
<!-- Node19&#45;&gt;Node16 -->
<g id="edge41" class="edge">
<title>Node19&#45;&gt;Node16</title>
<path fill="none" stroke="#191970" d="M1978.5402,-188.1794C2253.4467,-184.1428 3422.1504,-165.6725 3452.0647,-143 3483.7655,-118.9734 3500.3319,-84.9607 3473.0647,-56 3448.1617,-29.5504 2907.4823,-14.6904 2751.7124,-10.9474"/>
<polygon fill="#191970" stroke="#191970" points="1978.3309,-184.682 1968.3832,-188.3279 1978.4333,-191.6812 1978.3309,-184.682"/>
</g>
<!-- Node19&#45;&gt;Node17 -->
<g id="edge42" class="edge">
<title>Node19&#45;&gt;Node17</title>
<path fill="none" stroke="#191970" d="M1904.4419,-172.1354C1896.7508,-163.7976 1887.8401,-153.3266 1881.0647,-143 1853.6611,-101.2335 1837.7502,-42.5713 1832.2571,-19.6816"/>
<polygon fill="#191970" stroke="#191970" points="1901.9118,-174.5538 1911.3327,-179.4013 1906.991,-169.7369 1901.9118,-174.5538"/>
</g>
<!-- Node19&#45;&gt;Node18 -->
<g id="edge43" class="edge">
<title>Node19&#45;&gt;Node18</title>
<path fill="none" stroke="#191970" d="M1978.5052,-188.3393C2251.9021,-185.0612 3409.2333,-169.6281 3435.0647,-143 3455.2389,-122.2035 3421.7101,-91.2526 3401.5604,-75.6841"/>
<polygon fill="#191970" stroke="#191970" points="1978.359,-184.8407 1968.4015,-188.4597 1978.4425,-191.8402 1978.359,-184.8407"/>
</g>
<!-- Node20 -->
<g id="node18" class="node">
<title>Node20</title>
<g id="a_node18"><a xlink:href="isoMath_8cxx.html" target="_top" xlink:title="src/engine/basics/isoMath.cxx">
<polygon fill="none" stroke="#000000" points="2070.0647,-118 2070.0647,-137 2232.0647,-137 2232.0647,-118 2070.0647,-118"/>
<text text-anchor="middle" x="2151.0647" y="-125" font-family="Helvetica,sans-Serif" font-size="10.00" fill="#000000">src/engine/basics/isoMath.cxx</text>
</a>
</g>
</g>
<!-- Node19&#45;&gt;Node20 -->
<g id="edge19" class="edge">
<title>Node19&#45;&gt;Node20</title>
<path fill="none" stroke="#191970" d="M1966.5384,-176.8407C2010.1865,-165.1696 2075.2268,-147.7784 2115.2958,-137.0643"/>
<polygon fill="#191970" stroke="#191970" points="1965.5063,-173.4937 1956.7498,-179.4581 1967.3146,-180.2561 1965.5063,-173.4937"/>
</g>
<!-- Node21 -->
<g id="node19" class="node">
<title>Node21</title>
<g id="a_node19"><a xlink:href="Timer_8cxx.html" target="_top" xlink:title="src/engine/basics/Timer.cxx">
<polygon fill="none" stroke="#000000" points="2250.0647,-118 2250.0647,-137 2402.0647,-137 2402.0647,-118 2250.0647,-118"/>
<text text-anchor="middle" x="2326.0647" y="-125" font-family="Helvetica,sans-Serif" font-size="10.00" fill="#000000">src/engine/basics/Timer.cxx</text>
</a>
</g>
</g>
<!-- Node19&#45;&gt;Node21 -->
<g id="edge21" class="edge">
<title>Node19&#45;&gt;Node21</title>
<path fill="none" stroke="#191970" d="M1978.6264,-181.3891C2042.7639,-172.7543 2149.4969,-157.9248 2241.0647,-143 2252.1684,-141.1902 2264.0616,-139.1104 2275.3287,-137.0742"/>
<polygon fill="#191970" stroke="#191970" points="1977.7662,-177.9731 1968.3208,-182.7725 1978.6976,-184.9108 1977.7662,-177.9731"/>
</g>
<!-- Node22 -->
<g id="node20" class="node">
<title>Node22</title>
<g id="a_node20"><a xlink:href="EventManager_8cxx.html" target="_top" xlink:title="src/engine/EventManager.cxx">
<polygon fill="none" stroke="#000000" points="2420.5647,-118 2420.5647,-137 2579.5647,-137 2579.5647,-118 2420.5647,-118"/>
<text text-anchor="middle" x="2500.0647" y="-125" font-family="Helvetica,sans-Serif" font-size="10.00" fill="#000000">src/engine/EventManager.cxx</text>
</a>
</g>
</g>
<!-- Node19&#45;&gt;Node22 -->
<g id="edge22" class="edge">
<title>Node19&#45;&gt;Node22</title>
<path fill="none" stroke="#191970" d="M1978.3347,-185.0951C2069.9698,-178.5164 2255.108,-163.8679 2411.0647,-143 2423.501,-141.3359 2436.856,-139.1983 2449.3411,-137.0455"/>
<polygon fill="#191970" stroke="#191970" points="1977.8897,-181.6178 1968.1637,-185.8196 1978.3871,-188.6001 1977.8897,-181.6178"/>
</g>
<!-- Node23 -->
<g id="node21" class="node">
<title>Node23</title>
<g id="a_node21"><a xlink:href="MapNode_8cxx.html" target="_top" xlink:title="src/engine/GameObjects\l/MapNode.cxx">
<polygon fill="none" stroke="#000000" points="2598.0647,-112.5 2598.0647,-142.5 2734.0647,-142.5 2734.0647,-112.5 2598.0647,-112.5"/>
<text text-anchor="start" x="2606.0647" y="-130.5" font-family="Helvetica,sans-Serif" font-size="10.00" fill="#000000">src/engine/GameObjects</text>
<text text-anchor="middle" x="2666.0647" y="-119.5" font-family="Helvetica,sans-Serif" font-size="10.00" fill="#000000">/MapNode.cxx</text>
</a>
</g>
</g>
<!-- Node19&#45;&gt;Node23 -->
<g id="edge23" class="edge">
<title>Node19&#45;&gt;Node23</title>
<path fill="none" stroke="#191970" d="M1978.2154,-187.5092C2093.8319,-183.9541 2363.5772,-172.9221 2588.0647,-143 2591.2123,-142.5804 2594.424,-142.1112 2597.6627,-141.6045"/>
<polygon fill="#191970" stroke="#191970" points="1978.0641,-184.0121 1968.1738,-187.811 1978.2745,-191.009 1978.0641,-184.0121"/>
</g>
<!-- Node24 -->
<g id="node22" class="node">
<title>Node24</title>
<g id="a_node22"><a xlink:href="Layout_8cxx.html" target="_top" xlink:title="src/engine/ui/basics\l/Layout.cxx">
<polygon fill="none" stroke="#000000" points="2752.5647,-112.5 2752.5647,-142.5 2865.5647,-142.5 2865.5647,-112.5 2752.5647,-112.5"/>
<text text-anchor="start" x="2760.5647" y="-130.5" font-family="Helvetica,sans-Serif" font-size="10.00" fill="#000000">src/engine/ui/basics</text>
<text text-anchor="middle" x="2809.0647" y="-119.5" font-family="Helvetica,sans-Serif" font-size="10.00" fill="#000000">/Layout.cxx</text>
</a>
</g>
</g>
<!-- Node19&#45;&gt;Node24 -->
<g id="edge29" class="edge">
<title>Node19&#45;&gt;Node24</title>
<path fill="none" stroke="#191970" d="M1978.4139,-187.0969C2139.6855,-181.5374 2595.0337,-164.3571 2743.0647,-143 2746.0935,-142.563 2749.1879,-142.0549 2752.3033,-141.4946"/>
<polygon fill="#191970" stroke="#191970" points="1978.0971,-183.6056 1968.2229,-187.4462 1978.3369,-190.6015 1978.0971,-183.6056"/>
</g>
<!-- Node25 -->
<g id="node23" class="node">
<title>Node25</title>
<g id="a_node23"><a xlink:href="Button_8cxx.html" target="_top" xlink:title="src/engine/ui/widgets\l/Button.cxx">
<polygon fill="none" stroke="#000000" points="2884.0647,-112.5 2884.0647,-142.5 3004.0647,-142.5 3004.0647,-112.5 2884.0647,-112.5"/>
<text text-anchor="start" x="2892.0647" y="-130.5" font-family="Helvetica,sans-Serif" font-size="10.00" fill="#000000">src/engine/ui/widgets</text>
<text text-anchor="middle" x="2944.0647" y="-119.5" font-family="Helvetica,sans-Serif" font-size="10.00" fill="#000000">/Button.cxx</text>
</a>
</g>
</g>
<!-- Node19&#45;&gt;Node25 -->
<g id="edge31" class="edge">
<title>Node19&#45;&gt;Node25</title>
<path fill="none" stroke="#191970" d="M1978.4928,-187.5074C2156.8024,-182.6712 2699.409,-166.3799 2874.0647,-143 2877.2723,-142.5706 2880.5505,-142.0686 2883.8517,-141.513"/>
<polygon fill="#191970" stroke="#191970" points="1978.1783,-184.0145 1968.2763,-187.7828 1978.367,-191.012 1978.1783,-184.0145"/>
</g>
<!-- Node26 -->
<g id="node24" class="node">
<title>Node26</title>
<g id="a_node24"><a xlink:href="Combobox_8cxx.html" target="_top" xlink:title="src/engine/ui/widgets\l/Combobox.cxx">
<polygon fill="none" stroke="#000000" points="3022.0647,-112.5 3022.0647,-142.5 3142.0647,-142.5 3142.0647,-112.5 3022.0647,-112.5"/>
<text text-anchor="start" x="3030.0647" y="-130.5" font-family="Helvetica,sans-Serif" font-size="10.00" fill="#000000">src/engine/ui/widgets</text>
<text text-anchor="middle" x="3082.0647" y="-119.5" font-family="Helvetica,sans-Serif" font-size="10.00" fill="#000000">/Combobox.cxx</text>
</a>
</g>
</g>
<!-- Node19&#45;&gt;Node26 -->
<g id="edge32" class="edge">
<title>Node19&#45;&gt;Node26</title>
<path fill="none" stroke="#191970" d="M1978.1387,-187.9444C2172.8325,-184.1325 2810.0094,-169.8639 3013.0647,-143 3015.9859,-142.6135 3018.9658,-142.1633 3021.9677,-141.6646"/>
<polygon fill="#191970" stroke="#191970" points="1978.048,-184.4454 1968.1179,-188.139 1978.184,-191.4441 1978.048,-184.4454"/>
</g>
<!-- Node27 -->
<g id="node25" class="node">
<title>Node27</title>
<g id="a_node25"><a xlink:href="Randomizer_8hxx.html" target="_top" xlink:title="src/services/Randomizer.hxx">
<polygon fill="none" stroke="#000000" points="1896.0647,-118 1896.0647,-137 2052.0647,-137 2052.0647,-118 1896.0647,-118"/>
<text text-anchor="middle" x="1974.0647" y="-125" font-family="Helvetica,sans-Serif" font-size="10.00" fill="#000000">src/services/Randomizer.hxx</text>
</a>
</g>
</g>
<!-- Node19&#45;&gt;Node27 -->
<g id="edge36" class="edge">
<title>Node19&#45;&gt;Node27</title>
<path fill="none" stroke="#191970" d="M1936.0818,-171.5744C1945.6673,-160.4517 1957.7377,-146.4454 1965.6667,-137.2449"/>
<polygon fill="#191970" stroke="#191970" points="1933.2228,-169.5306 1929.3459,-179.3906 1938.5254,-174.1003 1933.2228,-169.5306"/>
</g>
<!-- Node29 -->
<g id="node27" class="node">
<title>Node29</title>
<g id="a_node27"><a xlink:href="GameClock_8cxx.html" target="_top" xlink:title="src/services/GameClock.cxx">
<polygon fill="none" stroke="#000000" points="3160.0647,-118 3160.0647,-137 3314.0647,-137 3314.0647,-118 3160.0647,-118"/>
<text text-anchor="middle" x="3237.0647" y="-125" font-family="Helvetica,sans-Serif" font-size="10.00" fill="#000000">src/services/GameClock.cxx</text>
</a>
</g>
</g>
<!-- Node19&#45;&gt;Node29 -->
<g id="edge44" class="edge">
<title>Node19&#45;&gt;Node29</title>
<path fill="none" stroke="#191970" d="M1978.4604,-187.9284C2189.0906,-183.8282 2919.2914,-168.094 3151.0647,-143 3164.036,-141.5956 3177.9977,-139.3855 3190.8204,-137.0696"/>
<polygon fill="#191970" stroke="#191970" points="1978.1724,-184.4332 1968.242,-188.1261 1978.3079,-191.4319 1978.1724,-184.4332"/>
</g>
<!-- Node19&#45;&gt;Node30 -->
<g id="edge45" class="edge">
<title>Node19&#45;&gt;Node30</title>
<path fill="none" stroke="#191970" d="M1978.2995,-188.2315C2225.1983,-184.779 3200.3862,-169.6939 3506.0647,-143 3522.184,-141.5924 3539.5896,-139.3513 3555.5454,-137.0059"/>
<polygon fill="#191970" stroke="#191970" points="1978.0657,-184.7343 1968.1153,-188.3731 1978.1631,-191.7337 1978.0657,-184.7343"/>
</g>
<!-- Node19&#45;&gt;Node31 -->
<g id="edge46" class="edge">
<title>Node19&#45;&gt;Node31</title>
<path fill="none" stroke="#191970" d="M1978.3019,-188.1962C2264.9705,-184.081 3537.8343,-164.7191 3713.0647,-143 3723.787,-141.671 3735.291,-139.4242 3745.7724,-137.0475"/>
<polygon fill="#191970" stroke="#191970" points="1978.0786,-184.6989 1968.1298,-188.3418 1978.1789,-191.6982 1978.0786,-184.6989"/>
</g>
<!-- Node32 -->
<g id="node30" class="node">
<title>Node32</title>
<g id="a_node30"><a xlink:href="LOG_8cxx.html" target="_top" xlink:title="src/util/LOG.cxx">
<polygon fill="none" stroke="#000000" points="3332.5647,-118 3332.5647,-137 3425.5647,-137 3425.5647,-118 3332.5647,-118"/>
<text text-anchor="middle" x="3379.0647" y="-125" font-family="Helvetica,sans-Serif" font-size="10.00" fill="#000000">src/util/LOG.cxx</text>
</a>
</g>
</g>
<!-- Node19&#45;&gt;Node32 -->
<g id="edge47" class="edge">
<title>Node19&#45;&gt;Node32</title>
<path fill="none" stroke="#191970" d="M1978.5134,-187.9199C2225.2837,-183.1711 3188.8943,-163.4717 3323.0647,-143 3331.8403,-141.661 3341.1999,-139.411 3349.705,-137.0346"/>
<polygon fill="#191970" stroke="#191970" points="1978.2592,-184.424 1968.3282,-188.1152 1978.3935,-191.4228 1978.2592,-184.424"/>
</g>
<!-- Node27&#45;&gt;Node15 -->
<g id="edge37" class="edge">
<title>Node27&#45;&gt;Node15</title>
<path fill="none" stroke="#191970" d="M1954.6553,-111.3692C1941.0446,-100.0576 1923.2949,-85.3062 1911.7902,-75.7449"/>
<polygon fill="#191970" stroke="#191970" points="1952.5743,-114.1907 1962.5022,-117.8906 1957.0485,-108.8072 1952.5743,-114.1907"/>
</g>
<!-- Node27&#45;&gt;Node18 -->
<g id="edge38" class="edge">
<title>Node27&#45;&gt;Node18</title>
<path fill="none" stroke="#191970" d="M2030.4089,-116.2631C2040.5774,-114.5776 2051.1096,-113.054 2061.0647,-112 2306.2072,-86.0458 3067.9548,-71.3516 3312.0094,-67.2184"/>
<polygon fill="#191970" stroke="#191970" points="2029.6555,-112.8413 2020.3964,-117.991 2030.846,-119.7393 2029.6555,-112.8413"/>
</g>
<!-- Node28 -->
<g id="node26" class="node">
<title>Node28</title>
<g id="a_node26"><a xlink:href="Randomizer_8cxx.html" target="_top" xlink:title="src/services/Randomizer.cxx">
<polygon fill="none" stroke="#000000" points="1960.5647,-56.5 1960.5647,-75.5 2115.5647,-75.5 2115.5647,-56.5 1960.5647,-56.5"/>
<text text-anchor="middle" x="2038.0647" y="-63.5" font-family="Helvetica,sans-Serif" font-size="10.00" fill="#000000">src/services/Randomizer.cxx</text>
</a>
</g>
</g>
<!-- Node27&#45;&gt;Node28 -->
<g id="edge39" class="edge">
<title>Node27&#45;&gt;Node28</title>
<path fill="none" stroke="#191970" d="M1991.5212,-110.7253C2003.1999,-99.5028 2018.1614,-85.1258 2027.9237,-75.7449"/>
<polygon fill="#191970" stroke="#191970" points="1988.8501,-108.4381 1984.0647,-117.8906 1993.7003,-113.4854 1988.8501,-108.4381"/>
</g>
</g>
</svg>
        <g id="navigator" transform="translate(0 0)" fill="#404254">
                <rect fill="#f2f5e9" fill-opacity="0.5" stroke="#606060" stroke-width=".5" x="0" y="0" width="60" height="60"/>
                <use id="zoomplus" xlink:href="#zoomPlus" x="17" y="9" onmousedown="handleZoom(evt,'in')"/>
                <use id="zoomminus" xlink:href="#zoomMin" x="42" y="9" onmousedown="handleZoom(evt,'out')"/>
                <use id="reset" xlink:href="#resetDef" x="30" y="36" onmousedown="handleReset()"/>
                <g id="arrowUp" xlink:href="#dirArrow" transform="translate(30 24)" onmousedown="handlePan(0,-1)">
                  <use xlink:href="#rim" fill="#404040">
                        <set attributeName="fill" to="#808080" begin="arrowUp.mouseover" end="arrowUp.mouseout"/>
                  </use>
                  <path fill="none" stroke="white" stroke-width="1.5" d="M0,-3.0v7 M-2.5,-0.5L0,-3.0L2.5,-0.5"/>
                </g>
                <g id="arrowRight" xlink:href="#dirArrow" transform="rotate(90) translate(36 -43)" onmousedown="handlePan(1,0)">
                  <use xlink:href="#rim" fill="#404040">
                        <set attributeName="fill" to="#808080" begin="arrowRight.mouseover" end="arrowRight.mouseout"/>
                  </use>
                  <path fill="none" stroke="white" stroke-width="1.5" d="M0,-3.0v7 M-2.5,-0.5L0,-3.0L2.5,-0.5"/>
                </g>
                <g id="arrowDown" xlink:href="#dirArrow" transform="rotate(180) translate(-30 -48)" onmousedown="handlePan(0,1)">
                  <use xlink:href="#rim" fill="#404040">
                        <set attributeName="fill" to="#808080" begin="arrowDown.mouseover" end="arrowDown.mouseout"/>
                  </use>
                  <path fill="none" stroke="white" stroke-width="1.5" d="M0,-3.0v7 M-2.5,-0.5L0,-3.0L2.5,-0.5"/>
                </g>
                <g id="arrowLeft" xlink:href="#dirArrow" transform="rotate(270) translate(-36 17)" onmousedown="handlePan(-1,0)">
                  <use xlink:href="#rim" fill="#404040">
                        <set attributeName="fill" to="#808080" begin="arrowLeft.mouseover" end="arrowLeft.mouseout"/>
                  </use>
                  <path fill="none" stroke="white" stroke-width="1.5" d="M0,-3.0v7 M-2.5,-0.5L0,-3.0L2.5,-0.5"/>
                </g>
        </g>
        <svg viewBox="0 0 15 15" width="100%" height="30px" preserveAspectRatio="xMaxYMin meet">
         <g id="arrow_out" transform="scale(0.3 0.3)">
          <a xlink:href="Exception_8hxx__dep__incl_org.svg" target="_base">
           <rect id="button" ry="5" rx="5" y="6" x="6" height="38" width="38"
                fill="#f2f5e9" fill-opacity="0.5" stroke="#606060" stroke-width="1.0"/>
           <path id="arrow"
             d="M 11.500037,31.436501 C 11.940474,20.09759 22.043105,11.32322 32.158766,21.979434 L 37.068811,17.246167 C 37.068811,17.246167 37.088388,32 37.088388,32 L 22.160133,31.978069 C 22.160133,31.978069 26.997745,27.140456 26.997745,27.140456 C 18.528582,18.264221 13.291696,25.230495 11.500037,31.436501 z"
             style="fill:#404040;"/>
          </a>
         </g>
        </svg>
</svg>
