<?xml version="1.0" encoding="UTF-8" standalone="no"?>
<!DOCTYPE svg PUBLIC "-//W3C//DTD SVG 1.1//EN"
 "http://www.w3.org/Graphics/SVG/1.1/DTD/svg11.dtd">
<!-- Generated by graphviz version 2.40.1 (20161225.0304)
 -->
<!-- Title: src/util/Exception.cxx Pages: 1 -->
<svg width="991pt" height="196pt"
 viewBox="0.00 0.00 991.00 196.00" xmlns="http://www.w3.org/2000/svg" xmlns:xlink="http://www.w3.org/1999/xlink">
<g id="graph0" class="graph" transform="scale(1 1) rotate(0) translate(4 192)">
<title>src/util/Exception.cxx</title>
<!-- Node0 -->
<g id="node1" class="node">
<title>Node0</title>
<polygon fill="#bfbfbf" stroke="#000000" points="444,-168.5 444,-187.5 565,-187.5 565,-168.5 444,-168.5"/>
<text text-anchor="middle" x="504.5" y="-175.5" font-family="Helvetica,sans-Serif" font-size="10.00" fill="#000000">src/util/Exception.cxx</text>
</g>
<!-- Node1 -->
<g id="node2" class="node">
<title>Node1</title>
<g id="a_node2"><a xlink:href="Exception_8hxx.html" target="_top" xlink:title="Exception.hxx">
<polygon fill="none" stroke="#000000" points="30.5,-56.5 30.5,-75.5 116.5,-75.5 116.5,-56.5 30.5,-56.5"/>
<text text-anchor="middle" x="73.5" y="-63.5" font-family="Helvetica,sans-Serif" font-size="10.00" fill="#000000">Exception.hxx</text>
</a>
</g>
</g>
<!-- Node0&#45;&gt;Node1 -->
<g id="edge1" class="edge">
<title>Node0&#45;&gt;Node1</title>
<path fill="none" stroke="#191970" d="M467.7532,-168.4509C389.4264,-148.0969 206.1714,-100.4761 119.929,-78.0651"/>
<polygon fill="#191970" stroke="#191970" points="120.7127,-74.6525 110.1538,-75.5249 118.9521,-81.4275 120.7127,-74.6525"/>
</g>
<!-- Node4 -->
<g id="node5" class="node">
<title>Node4</title>
<g id="a_node5"><a xlink:href="LOG_8hxx.html" target="_top" xlink:title="LOG.hxx">
<polygon fill="none" stroke="#000000" points="400.5,-112.5 400.5,-131.5 458.5,-131.5 458.5,-112.5 400.5,-112.5"/>
<text text-anchor="middle" x="429.5" y="-119.5" font-family="Helvetica,sans-Serif" font-size="10.00" fill="#000000">LOG.hxx</text>
</a>
</g>
</g>
<!-- Node0&#45;&gt;Node4 -->
<g id="edge4" class="edge">
<title>Node0&#45;&gt;Node4</title>
<path fill="none" stroke="#191970" d="M491.436,-168.2455C480.1438,-159.814 463.6155,-147.4729 450.4729,-137.6598"/>
<polygon fill="#191970" stroke="#191970" points="452.5211,-134.8211 442.4143,-131.6427 448.3331,-140.4301 452.5211,-134.8211"/>
</g>
<!-- Node21 -->
<g id="node22" class="node">
<title>Node21</title>
<polygon fill="none" stroke="#bfbfbf" points="476.5,-112.5 476.5,-131.5 532.5,-131.5 532.5,-112.5 476.5,-112.5"/>
<text text-anchor="middle" x="504.5" y="-119.5" font-family="Helvetica,sans-Serif" font-size="10.00" fill="#000000">unistd.h</text>
</g>
<!-- Node0&#45;&gt;Node21 -->
<g id="edge23" class="edge">
<title>Node0&#45;&gt;Node21</title>
<path fill="none" stroke="#191970" d="M504.5,-168.2455C504.5,-160.9382 504.5,-150.6944 504.5,-141.7046"/>
<polygon fill="#191970" stroke="#191970" points="508.0001,-141.6426 504.5,-131.6427 501.0001,-141.6427 508.0001,-141.6426"/>
</g>
<!-- Node22 -->
<g id="node23" class="node">
<title>Node22</title>
<polygon fill="none" stroke="#bfbfbf" points="550.5,-112.5 550.5,-131.5 618.5,-131.5 618.5,-112.5 550.5,-112.5"/>
<text text-anchor="middle" x="584.5" y="-119.5" font-family="Helvetica,sans-Serif" font-size="10.00" fill="#000000">execinfo.h</text>
</g>
<!-- Node0&#45;&gt;Node22 -->
<g id="edge24" class="edge">
<title>Node0&#45;&gt;Node22</title>
<path fill="none" stroke="#191970" d="M518.4349,-168.2455C530.5947,-159.7337 548.4464,-147.2375 562.5285,-137.3801"/>
<polygon fill="#191970" stroke="#191970" points="564.5395,-140.2447 570.7248,-131.6427 560.5253,-134.51 564.5395,-140.2447"/>
</g>
<!-- Node23 -->
<g id="node24" class="node">
<title>Node23</title>
<polygon fill="none" stroke="#bfbfbf" points="637,-112.5 637,-131.5 692,-131.5 692,-112.5 637,-112.5"/>
<text text-anchor="middle" x="664.5" y="-119.5" font-family="Helvetica,sans-Serif" font-size="10.00" fill="#000000">signal.h</text>
</g>
<!-- Node0&#45;&gt;Node23 -->
<g id="edge25" class="edge">
<title>Node0&#45;&gt;Node23</title>
<path fill="none" stroke="#191970" d="M532.005,-168.3733C558.3802,-159.1419 598.3851,-145.1402 627.5358,-134.9375"/>
<polygon fill="#191970" stroke="#191970" points="629.0716,-138.1082 637.3539,-131.5011 626.7591,-131.5012 629.0716,-138.1082"/>
</g>
<!-- Node2 -->
<g id="node3" class="node">
<title>Node2</title>
<polygon fill="none" stroke="#bfbfbf" points="0,-.5 0,-19.5 65,-19.5 65,-.5 0,-.5"/>
<text text-anchor="middle" x="32.5" y="-7.5" font-family="Helvetica,sans-Serif" font-size="10.00" fill="#000000">stdexcept</text>
</g>
<!-- Node1&#45;&gt;Node2 -->
<g id="edge2" class="edge">
<title>Node1&#45;&gt;Node2</title>
<path fill="none" stroke="#191970" d="M66.3583,-56.2455C60.6556,-48.4564 52.51,-37.3308 45.6375,-27.9439"/>
<polygon fill="#191970" stroke="#191970" points="48.2913,-25.6437 39.5598,-19.6427 42.6432,-29.7789 48.2913,-25.6437"/>
</g>
<!-- Node3 -->
<g id="node4" class="node">
<title>Node3</title>
<polygon fill="none" stroke="#bfbfbf" points="83,-.5 83,-19.5 148,-19.5 148,-.5 83,-.5"/>
<text text-anchor="middle" x="115.5" y="-7.5" font-family="Helvetica,sans-Serif" font-size="10.00" fill="#000000">exception</text>
</g>
<!-- Node1&#45;&gt;Node3 -->
<g id="edge3" class="edge">
<title>Node1&#45;&gt;Node3</title>
<path fill="none" stroke="#191970" d="M80.8158,-56.2455C86.7179,-48.3761 95.1742,-37.101 102.2594,-27.6542"/>
<polygon fill="#191970" stroke="#191970" points="105.068,-29.7427 108.268,-19.6427 99.4679,-25.5427 105.068,-29.7427"/>
</g>
<!-- Node4&#45;&gt;Node1 -->
<g id="edge6" class="edge">
<title>Node4&#45;&gt;Node1</title>
<path fill="none" stroke="#191970" d="M400.0909,-117.9469C347.3945,-110.5989 233.1736,-94.2843 126.5661,-76.1318"/>
<polygon fill="#191970" stroke="#191970" points="127.0534,-72.6644 116.6061,-74.4266 125.872,-79.564 127.0534,-72.6644"/>
</g>
<!-- Node5 -->
<g id="node6" class="node">
<title>Node5</title>
<polygon fill="none" stroke="#bfbfbf" points="134.5,-56.5 134.5,-75.5 178.5,-75.5 178.5,-56.5 134.5,-56.5"/>
<text text-anchor="middle" x="156.5" y="-63.5" font-family="Helvetica,sans-Serif" font-size="10.00" fill="#000000">string</text>
</g>
<!-- Node4&#45;&gt;Node5 -->
<g id="edge5" class="edge">
<title>Node4&#45;&gt;Node5</title>
<path fill="none" stroke="#191970" d="M400.1521,-117.0753C355.2137,-109.3609 266.751,-93.4894 192.5,-76 191.2214,-75.6988 189.9199,-75.3828 188.607,-75.056"/>
<polygon fill="#191970" stroke="#191970" points="189.074,-71.5603 178.5135,-72.4124 187.3004,-78.3319 189.074,-71.5603"/>
</g>
<!-- Node6 -->
<g id="node7" class="node">
<title>Node6</title>
<polygon fill="none" stroke="#bfbfbf" points="369.5,-.5 369.5,-19.5 429.5,-19.5 429.5,-.5 369.5,-.5"/>
<text text-anchor="middle" x="399.5" y="-7.5" font-family="Helvetica,sans-Serif" font-size="10.00" fill="#000000">iostream</text>
</g>
<!-- Node4&#45;&gt;Node6 -->
<g id="edge7" class="edge">
<title>Node4&#45;&gt;Node6</title>
<path fill="none" stroke="#191970" d="M400.1086,-119.7755C348.9783,-115.2285 247.0398,-102.9377 225.5,-76 188.0203,-29.128 296.5417,-15.528 358.9201,-11.5935"/>
<polygon fill="#191970" stroke="#191970" points="359.4617,-15.0683 369.2456,-11.0031 359.062,-8.0797 359.4617,-15.0683"/>
</g>
<!-- Node7 -->
<g id="node8" class="node">
<title>Node7</title>
<polygon fill="none" stroke="#bfbfbf" points="234.5,-56.5 234.5,-75.5 284.5,-75.5 284.5,-56.5 234.5,-56.5"/>
<text text-anchor="middle" x="259.5" y="-63.5" font-family="Helvetica,sans-Serif" font-size="10.00" fill="#000000">chrono</text>
</g>
<!-- Node4&#45;&gt;Node7 -->
<g id="edge8" class="edge">
<title>Node4&#45;&gt;Node7</title>
<path fill="none" stroke="#191970" d="M400.276,-112.3733C370.8939,-102.6945 325.5924,-87.7716 294.3548,-77.4816"/>
<polygon fill="#191970" stroke="#191970" points="295.338,-74.1205 284.745,-74.316 293.1478,-80.7691 295.338,-74.1205"/>
</g>
<!-- Node8 -->
<g id="node9" class="node">
<title>Node8</title>
<polygon fill="none" stroke="#bfbfbf" points="302.5,-56.5 302.5,-75.5 346.5,-75.5 346.5,-56.5 302.5,-56.5"/>
<text text-anchor="middle" x="324.5" y="-63.5" font-family="Helvetica,sans-Serif" font-size="10.00" fill="#000000">ctime</text>
</g>
<!-- Node4&#45;&gt;Node8 -->
<g id="edge9" class="edge">
<title>Node4&#45;&gt;Node8</title>
<path fill="none" stroke="#191970" d="M411.2104,-112.2455C394.7238,-103.4527 370.2648,-90.4079 351.5235,-80.4125"/>
<polygon fill="#191970" stroke="#191970" points="353.0506,-77.2604 342.58,-75.6427 349.7565,-83.4368 353.0506,-77.2604"/>
</g>
<!-- Node9 -->
<g id="node10" class="node">
<title>Node9</title>
<polygon fill="none" stroke="#bfbfbf" points="365,-56.5 365,-75.5 420,-75.5 420,-56.5 365,-56.5"/>
<text text-anchor="middle" x="392.5" y="-63.5" font-family="Helvetica,sans-Serif" font-size="10.00" fill="#000000">fstream</text>
</g>
<!-- Node4&#45;&gt;Node9 -->
<g id="edge10" class="edge">
<title>Node4&#45;&gt;Node9</title>
<path fill="none" stroke="#191970" d="M423.0551,-112.2455C417.9618,-104.5367 410.7092,-93.5598 404.548,-84.2348"/>
<polygon fill="#191970" stroke="#191970" points="407.3038,-82.0566 398.8711,-75.6427 401.4635,-85.9155 407.3038,-82.0566"/>
</g>
<!-- Node10 -->
<g id="node11" class="node">
<title>Node10</title>
<polygon fill="none" stroke="#bfbfbf" points="438.5,-56.5 438.5,-75.5 494.5,-75.5 494.5,-56.5 438.5,-56.5"/>
<text text-anchor="middle" x="466.5" y="-63.5" font-family="Helvetica,sans-Serif" font-size="10.00" fill="#000000">sstream</text>
</g>
<!-- Node4&#45;&gt;Node10 -->
<g id="edge11" class="edge">
<title>Node4&#45;&gt;Node10</title>
<path fill="none" stroke="#191970" d="M435.9449,-112.2455C441.0382,-104.5367 448.2908,-93.5598 454.452,-84.2348"/>
<polygon fill="#191970" stroke="#191970" points="457.5365,-85.9155 460.1289,-75.6427 451.6962,-82.0566 457.5365,-85.9155"/>
</g>
<!-- Node11 -->
<g id="node12" class="node">
<title>Node11</title>
<polygon fill="none" stroke="#bfbfbf" points="512.5,-56.5 512.5,-75.5 556.5,-75.5 556.5,-56.5 512.5,-56.5"/>
<text text-anchor="middle" x="534.5" y="-63.5" font-family="Helvetica,sans-Serif" font-size="10.00" fill="#000000">SDL.h</text>
</g>
<!-- Node4&#45;&gt;Node11 -->
<g id="edge12" class="edge">
<title>Node4&#45;&gt;Node11</title>
<path fill="none" stroke="#191970" d="M447.7896,-112.2455C464.2762,-103.4527 488.7352,-90.4079 507.4765,-80.4125"/>
<polygon fill="#191970" stroke="#191970" points="509.2435,-83.4368 516.42,-75.6427 505.9494,-77.2604 509.2435,-83.4368"/>
</g>
<!-- Node12 -->
<g id="node13" class="node">
<title>Node12</title>
<polygon fill="none" stroke="#bfbfbf" points="574.5,-56.5 574.5,-75.5 638.5,-75.5 638.5,-56.5 574.5,-56.5"/>
<text text-anchor="middle" x="606.5" y="-63.5" font-family="Helvetica,sans-Serif" font-size="10.00" fill="#000000">algorithm</text>
</g>
<!-- Node4&#45;&gt;Node12 -->
<g id="edge13" class="edge">
<title>Node4&#45;&gt;Node12</title>
<path fill="none" stroke="#191970" d="M458.728,-112.7527C488.1817,-103.434 533.8459,-88.9866 566.6158,-78.6187"/>
<polygon fill="#191970" stroke="#191970" points="567.8612,-81.8958 576.3396,-75.5423 565.7496,-75.2218 567.8612,-81.8958"/>
</g>
<!-- Node13 -->
<g id="node14" class="node">
<title>Node13</title>
<polygon fill="none" stroke="#bfbfbf" points="656.5,-56.5 656.5,-75.5 704.5,-75.5 704.5,-56.5 656.5,-56.5"/>
<text text-anchor="middle" x="680.5" y="-63.5" font-family="Helvetica,sans-Serif" font-size="10.00" fill="#000000">mutex</text>
</g>
<!-- Node4&#45;&gt;Node13 -->
<g id="edge14" class="edge">
<title>Node4&#45;&gt;Node13</title>
<path fill="none" stroke="#191970" d="M458.5017,-114.1767C461.534,-113.416 464.5756,-112.6766 467.5,-112 543.8799,-94.3288 566.6089,-95.7096 646.4032,-76.0892"/>
<polygon fill="#191970" stroke="#191970" points="647.5688,-79.4058 656.4245,-73.5897 645.8748,-72.6138 647.5688,-79.4058"/>
</g>
<!-- Node14 -->
<g id="node15" class="node">
<title>Node14</title>
<g id="a_node15"><a xlink:href="Meta_8hxx.html" target="_top" xlink:title="Meta.hxx">
<polygon fill="none" stroke="#000000" points="722.5,-56.5 722.5,-75.5 784.5,-75.5 784.5,-56.5 722.5,-56.5"/>
<text text-anchor="middle" x="753.5" y="-63.5" font-family="Helvetica,sans-Serif" font-size="10.00" fill="#000000">Meta.hxx</text>
</a>
</g>
</g>
<!-- Node4&#45;&gt;Node14 -->
<g id="edge15" class="edge">
<title>Node4&#45;&gt;Node14</title>
<path fill="none" stroke="#191970" d="M458.882,-113.9202C461.7837,-113.227 464.6927,-112.5729 467.5,-112 572.5944,-90.5522 603.3129,-97.0111 712.0599,-76.1254"/>
<polygon fill="#191970" stroke="#191970" points="712.9809,-79.5117 722.1236,-74.1581 711.6379,-72.6417 712.9809,-79.5117"/>
</g>
<!-- Node18 -->
<g id="node19" class="node">
<title>Node18</title>
<g id="a_node19"><a xlink:href="filesystem_8hxx.html" target="_top" xlink:title="filesystem.hxx">
<polygon fill="none" stroke="#000000" points="803,-56.5 803,-75.5 892,-75.5 892,-56.5 803,-56.5"/>
<text text-anchor="middle" x="847.5" y="-63.5" font-family="Helvetica,sans-Serif" font-size="10.00" fill="#000000">filesystem.hxx</text>
</a>
</g>
</g>
<!-- Node4&#45;&gt;Node18 -->
<g id="edge20" class="edge">
<title>Node4&#45;&gt;Node18</title>
<path fill="none" stroke="#191970" d="M458.8617,-113.8161C461.7675,-113.144 464.683,-112.5232 467.5,-112 607.5992,-85.977 647.5116,-96.7703 792.5839,-76.0276"/>
<polygon fill="#191970" stroke="#191970" points="793.3616,-79.4514 802.753,-74.547 792.353,-72.5244 793.3616,-79.4514"/>
</g>
<!-- Node20 -->
<g id="node21" class="node">
<title>Node20</title>
<g id="a_node21"><a xlink:href="LOG_8inl_8hxx.html" target="_top" xlink:title="LOG.inl.hxx">
<polygon fill="none" stroke="#000000" points="910,-56.5 910,-75.5 983,-75.5 983,-56.5 910,-56.5"/>
<text text-anchor="middle" x="946.5" y="-63.5" font-family="Helvetica,sans-Serif" font-size="10.00" fill="#000000">LOG.inl.hxx</text>
</a>
</g>
</g>
<!-- Node4&#45;&gt;Node20 -->
<g id="edge22" class="edge">
<title>Node4&#45;&gt;Node20</title>
<path fill="none" stroke="#191970" d="M458.8473,-113.7356C461.7561,-113.0798 464.6762,-112.4849 467.5,-112 654.9998,-79.8063 708.3288,-104.1955 899.6344,-76.1091"/>
<polygon fill="#191970" stroke="#191970" points="900.3683,-79.5384 909.7397,-74.596 899.3316,-72.6156 900.3683,-79.5384"/>
</g>
<!-- Node14&#45;&gt;Node6 -->
<g id="edge16" class="edge">
<title>Node14&#45;&gt;Node6</title>
<path fill="none" stroke="#191970" d="M722.1236,-57.8424C719.2165,-57.1814 716.3089,-56.5554 713.5,-56 615.8583,-36.6925 499.6579,-21.7276 439.7153,-14.5911"/>
<polygon fill="#191970" stroke="#191970" points="439.884,-11.0869 429.5428,-13.3911 439.0638,-18.0387 439.884,-11.0869"/>
</g>
<!-- Node15 -->
<g id="node16" class="node">
<title>Node15</title>
<polygon fill="none" stroke="#bfbfbf" points="623,-.5 623,-19.5 692,-19.5 692,-.5 623,-.5"/>
<text text-anchor="middle" x="657.5" y="-7.5" font-family="Helvetica,sans-Serif" font-size="10.00" fill="#000000">type_traits</text>
</g>
<!-- Node14&#45;&gt;Node15 -->
<g id="edge17" class="edge">
<title>Node14&#45;&gt;Node15</title>
<path fill="none" stroke="#191970" d="M736.7781,-56.2455C721.9111,-47.5731 699.9534,-34.7645 682.9142,-24.825"/>
<polygon fill="#191970" stroke="#191970" points="684.4317,-21.6582 674.0303,-19.6427 680.9045,-27.7047 684.4317,-21.6582"/>
</g>
<!-- Node16 -->
<g id="node17" class="node">
<title>Node16</title>
<polygon fill="none" stroke="#bfbfbf" points="710,-.5 710,-19.5 761,-19.5 761,-.5 710,-.5"/>
<text text-anchor="middle" x="735.5" y="-7.5" font-family="Helvetica,sans-Serif" font-size="10.00" fill="#000000">variant</text>
</g>
<!-- Node14&#45;&gt;Node16 -->
<g id="edge18" class="edge">
<title>Node14&#45;&gt;Node16</title>
<path fill="none" stroke="#191970" d="M750.3646,-56.2455C747.99,-48.8579 744.6507,-38.4689 741.7385,-29.4087"/>
<polygon fill="#191970" stroke="#191970" points="744.9917,-28.0919 738.5994,-19.6427 738.3275,-30.234 744.9917,-28.0919"/>
</g>
<!-- Node17 -->
<g id="node18" class="node">
<title>Node17</title>
<polygon fill="none" stroke="#bfbfbf" points="779,-.5 779,-19.5 820,-19.5 820,-.5 779,-.5"/>
<text text-anchor="middle" x="799.5" y="-7.5" font-family="Helvetica,sans-Serif" font-size="10.00" fill="#000000">tuple</text>
</g>
<!-- Node14&#45;&gt;Node17 -->
<g id="edge19" class="edge">
<title>Node14&#45;&gt;Node17</title>
<path fill="none" stroke="#191970" d="M761.5126,-56.2455C767.9768,-48.3761 777.2385,-37.101 784.9983,-27.6542"/>
<polygon fill="#191970" stroke="#191970" points="787.9364,-29.5916 791.5792,-19.6427 782.5273,-25.1484 787.9364,-29.5916"/>
</g>
<!-- Node19 -->
<g id="node20" class="node">
<title>Node19</title>
<polygon fill="none" stroke="#bfbfbf" points="838.5,-.5 838.5,-19.5 892.5,-19.5 892.5,-.5 838.5,-.5"/>
<text text-anchor="middle" x="865.5" y="-7.5" font-family="Helvetica,sans-Serif" font-size="10.00" fill="#000000">ciso646</text>
</g>
<!-- Node18&#45;&gt;Node19 -->
<g id="edge21" class="edge">
<title>Node18&#45;&gt;Node19</title>
<path fill="none" stroke="#191970" d="M850.6354,-56.2455C853.01,-48.8579 856.3493,-38.4689 859.2615,-29.4087"/>
<polygon fill="#191970" stroke="#191970" points="862.6725,-30.234 862.4006,-19.6427 856.0083,-28.0919 862.6725,-30.234"/>
</g>
</g>
</svg>
