<?xml version="1.0" encoding="UTF-8" standalone="no"?>
<!DOCTYPE svg PUBLIC "-//W3C//DTD SVG 1.1//EN"
 "http://www.w3.org/Graphics/SVG/1.1/DTD/svg11.dtd">
<!-- Generated by graphviz version 2.40.1 (20161225.0304)
 -->
<!-- Title: src/GameService.hxx Pages: 1 -->
<svg width="404pt" height="196pt"
 viewBox="0.00 0.00 403.50 196.00" xmlns="http://www.w3.org/2000/svg" xmlns:xlink="http://www.w3.org/1999/xlink">
<g id="graph0" class="graph" transform="scale(1 1) rotate(0) translate(4 192)">
<title>src/GameService.hxx</title>
<!-- Node0 -->
<g id="node1" class="node">
<title>Node0</title>
<polygon fill="#bfbfbf" stroke="#000000" points="162,-168.5 162,-187.5 282,-187.5 282,-168.5 162,-168.5"/>
<text text-anchor="middle" x="222" y="-175.5" font-family="Helvetica,sans-Serif" font-size="10.00" fill="#000000">src/GameService.hxx</text>
</g>
<!-- Node1 -->
<g id="node2" class="node">
<title>Node1</title>
<g id="a_node2"><a xlink:href="Events_8hxx.html" target="_top" xlink:title="Events.hxx">
<polygon fill="none" stroke="#000000" points="130.5,-112.5 130.5,-131.5 201.5,-131.5 201.5,-112.5 130.5,-112.5"/>
<text text-anchor="middle" x="166" y="-119.5" font-family="Helvetica,sans-Serif" font-size="10.00" fill="#000000">Events.hxx</text>
</a>
</g>
</g>
<!-- Node0&#45;&gt;Node1 -->
<g id="edge1" class="edge">
<title>Node0&#45;&gt;Node1</title>
<path fill="none" stroke="#191970" d="M212.2455,-168.2455C204.1352,-160.1352 192.4075,-148.4075 182.7919,-138.7919"/>
<polygon fill="#191970" stroke="#191970" points="185.1887,-136.2389 175.6427,-131.6427 180.2389,-141.1887 185.1887,-136.2389"/>
</g>
<!-- Node10 -->
<g id="node11" class="node">
<title>Node10</title>
<g id="a_node11"><a xlink:href="GameService_8inl_8hxx.html" target="_top" xlink:title="GameService.inl.hxx">
<polygon fill="none" stroke="#000000" points="220,-112.5 220,-131.5 338,-131.5 338,-112.5 220,-112.5"/>
<text text-anchor="middle" x="279" y="-119.5" font-family="Helvetica,sans-Serif" font-size="10.00" fill="#000000">GameService.inl.hxx</text>
</a>
</g>
</g>
<!-- Node0&#45;&gt;Node10 -->
<g id="edge10" class="edge">
<title>Node0&#45;&gt;Node10</title>
<path fill="none" stroke="#191970" d="M231.9286,-168.2455C240.1838,-160.1352 252.1209,-148.4075 261.9082,-138.7919"/>
<polygon fill="#191970" stroke="#191970" points="264.5046,-141.1476 269.1851,-131.6427 259.5989,-136.1542 264.5046,-141.1476"/>
</g>
<!-- Node2 -->
<g id="node3" class="node">
<title>Node2</title>
<polygon fill="none" stroke="#bfbfbf" points="0,-56.5 0,-75.5 44,-75.5 44,-56.5 0,-56.5"/>
<text text-anchor="middle" x="22" y="-63.5" font-family="Helvetica,sans-Serif" font-size="10.00" fill="#000000">string</text>
</g>
<!-- Node1&#45;&gt;Node2 -->
<g id="edge2" class="edge">
<title>Node1&#45;&gt;Node2</title>
<path fill="none" stroke="#191970" d="M141.2455,-112.3733C117.0021,-102.9453 79.9637,-88.5414 53.6045,-78.2906"/>
<polygon fill="#191970" stroke="#191970" points="54.6625,-74.9468 44.0739,-74.5843 52.1253,-81.4708 54.6625,-74.9468"/>
</g>
<!-- Node3 -->
<g id="node4" class="node">
<title>Node3</title>
<polygon fill="none" stroke="#bfbfbf" points="62,-56.5 62,-75.5 162,-75.5 162,-56.5 62,-56.5"/>
<text text-anchor="middle" x="112" y="-63.5" font-family="Helvetica,sans-Serif" font-size="10.00" fill="#000000">betterEnums.hxx</text>
</g>
<!-- Node1&#45;&gt;Node3 -->
<g id="edge3" class="edge">
<title>Node1&#45;&gt;Node3</title>
<path fill="none" stroke="#191970" d="M156.5939,-112.2455C148.8507,-104.2155 137.688,-92.6394 128.4682,-83.0781"/>
<polygon fill="#191970" stroke="#191970" points="130.7591,-80.4117 121.2983,-75.6427 125.7202,-85.2706 130.7591,-80.4117"/>
</g>
<!-- Node4 -->
<g id="node5" class="node">
<title>Node4</title>
<g id="a_node5"><a xlink:href="Meta_8hxx.html" target="_top" xlink:title="util/Meta.hxx">
<polygon fill="none" stroke="#000000" points="180,-56.5 180,-75.5 260,-75.5 260,-56.5 180,-56.5"/>
<text text-anchor="middle" x="220" y="-63.5" font-family="Helvetica,sans-Serif" font-size="10.00" fill="#000000">util/Meta.hxx</text>
</a>
</g>
</g>
<!-- Node1&#45;&gt;Node4 -->
<g id="edge4" class="edge">
<title>Node1&#45;&gt;Node4</title>
<path fill="none" stroke="#191970" d="M175.4061,-112.2455C183.1493,-104.2155 194.312,-92.6394 203.5318,-83.0781"/>
<polygon fill="#191970" stroke="#191970" points="206.2798,-85.2706 210.7017,-75.6427 201.2409,-80.4117 206.2798,-85.2706"/>
</g>
<!-- Node9 -->
<g id="node10" class="node">
<title>Node9</title>
<g id="a_node10"><a xlink:href="UIEvents_8hxx.html" target="_top" xlink:title="events/UIEvents.hxx">
<polygon fill="none" stroke="#000000" points="278.5,-56.5 278.5,-75.5 395.5,-75.5 395.5,-56.5 278.5,-56.5"/>
<text text-anchor="middle" x="337" y="-63.5" font-family="Helvetica,sans-Serif" font-size="10.00" fill="#000000">events/UIEvents.hxx</text>
</a>
</g>
</g>
<!-- Node1&#45;&gt;Node9 -->
<g id="edge9" class="edge">
<title>Node1&#45;&gt;Node9</title>
<path fill="none" stroke="#191970" d="M195.3959,-112.3733C223.8307,-103.0613 267.0877,-88.8953 298.3081,-78.671"/>
<polygon fill="#191970" stroke="#191970" points="299.5736,-81.9396 307.9876,-75.5011 297.395,-75.2872 299.5736,-81.9396"/>
</g>
<!-- Node5 -->
<g id="node6" class="node">
<title>Node5</title>
<polygon fill="none" stroke="#bfbfbf" points="68,-.5 68,-19.5 128,-19.5 128,-.5 68,-.5"/>
<text text-anchor="middle" x="98" y="-7.5" font-family="Helvetica,sans-Serif" font-size="10.00" fill="#000000">iostream</text>
</g>
<!-- Node4&#45;&gt;Node5 -->
<g id="edge5" class="edge">
<title>Node4&#45;&gt;Node5</title>
<path fill="none" stroke="#191970" d="M199.0275,-56.3733C179.4433,-47.3838 150.0039,-33.8706 127.949,-23.7471"/>
<polygon fill="#191970" stroke="#191970" points="129.2473,-20.4919 118.6989,-19.5011 126.3271,-26.8538 129.2473,-20.4919"/>
</g>
<!-- Node6 -->
<g id="node7" class="node">
<title>Node6</title>
<polygon fill="none" stroke="#bfbfbf" points="146.5,-.5 146.5,-19.5 215.5,-19.5 215.5,-.5 146.5,-.5"/>
<text text-anchor="middle" x="181" y="-7.5" font-family="Helvetica,sans-Serif" font-size="10.00" fill="#000000">type_traits</text>
</g>
<!-- Node4&#45;&gt;Node6 -->
<g id="edge6" class="edge">
<title>Node4&#45;&gt;Node6</title>
<path fill="none" stroke="#191970" d="M213.2067,-56.2455C207.7822,-48.4564 200.0339,-37.3308 193.4967,-27.9439"/>
<polygon fill="#191970" stroke="#191970" points="196.3025,-25.8485 187.7154,-19.6427 190.5583,-29.849 196.3025,-25.8485"/>
</g>
<!-- Node7 -->
<g id="node8" class="node">
<title>Node7</title>
<polygon fill="none" stroke="#bfbfbf" points="233.5,-.5 233.5,-19.5 284.5,-19.5 284.5,-.5 233.5,-.5"/>
<text text-anchor="middle" x="259" y="-7.5" font-family="Helvetica,sans-Serif" font-size="10.00" fill="#000000">variant</text>
</g>
<!-- Node4&#45;&gt;Node7 -->
<g id="edge7" class="edge">
<title>Node4&#45;&gt;Node7</title>
<path fill="none" stroke="#191970" d="M226.7933,-56.2455C232.2178,-48.4564 239.9661,-37.3308 246.5033,-27.9439"/>
<polygon fill="#191970" stroke="#191970" points="249.4417,-29.849 252.2846,-19.6427 243.6975,-25.8485 249.4417,-29.849"/>
</g>
<!-- Node8 -->
<g id="node9" class="node">
<title>Node8</title>
<polygon fill="none" stroke="#bfbfbf" points="302.5,-.5 302.5,-19.5 343.5,-19.5 343.5,-.5 302.5,-.5"/>
<text text-anchor="middle" x="323" y="-7.5" font-family="Helvetica,sans-Serif" font-size="10.00" fill="#000000">tuple</text>
</g>
<!-- Node4&#45;&gt;Node8 -->
<g id="edge8" class="edge">
<title>Node4&#45;&gt;Node8</title>
<path fill="none" stroke="#191970" d="M237.9412,-56.2455C254.04,-47.4928 277.8879,-34.527 296.2391,-24.5496"/>
<polygon fill="#191970" stroke="#191970" points="298.1507,-27.4942 305.2644,-19.6427 294.8071,-21.3444 298.1507,-27.4942"/>
</g>
</g>
</svg>
