<?xml version="1.0" encoding="UTF-8" standalone="no"?>
<!DOCTYPE svg PUBLIC "-//W3C//DTD SVG 1.1//EN"
 "http://www.w3.org/Graphics/SVG/1.1/DTD/svg11.dtd">
<!-- Generated by graphviz version 2.40.1 (20161225.0304)
 -->
<!-- Title: src/Game.hxx Pages: 1 -->
<svg width="188pt" height="84pt"
 viewBox="0.00 0.00 188.00 84.00" xmlns="http://www.w3.org/2000/svg" xmlns:xlink="http://www.w3.org/1999/xlink">
<g id="graph0" class="graph" transform="scale(1 1) rotate(0) translate(4 80)">
<title>src/Game.hxx</title>
<!-- Node44 -->
<g id="node1" class="node">
<title>Node44</title>
<polygon fill="#bfbfbf" stroke="#000000" points="48.5,-56.5 48.5,-75.5 132.5,-75.5 132.5,-56.5 48.5,-56.5"/>
<text text-anchor="middle" x="90.5" y="-63.5" font-family="Helvetica,sans-Serif" font-size="10.00" fill="#000000">src/Game.hxx</text>
</g>
<!-- Node45 -->
<g id="node2" class="node">
<title>Node45</title>
<g id="a_node2"><a xlink:href="Game_8cxx.html" target="_top" xlink:title="src/Game.cxx">
<polygon fill="none" stroke="#000000" points="0,-.5 0,-19.5 83,-19.5 83,-.5 0,-.5"/>
<text text-anchor="middle" x="41.5" y="-7.5" font-family="Helvetica,sans-Serif" font-size="10.00" fill="#000000">src/Game.cxx</text>
</a>
</g>
</g>
<!-- Node44&#45;&gt;Node45 -->
<g id="edge1" class="edge">
<title>Node44&#45;&gt;Node45</title>
<path fill="none" stroke="#191970" d="M75.1878,-48.5004C66.8553,-38.9775 56.8647,-27.5596 49.9373,-19.6427"/>
<polygon fill="#191970" stroke="#191970" points="72.7457,-51.0245 81.9649,-56.2455 78.0138,-46.415 72.7457,-51.0245"/>
</g>
<!-- Node46 -->
<g id="node3" class="node">
<title>Node46</title>
<g id="a_node3"><a xlink:href="main_8cxx.html" target="_top" xlink:title="src/main.cxx">
<polygon fill="none" stroke="#000000" points="101,-.5 101,-19.5 180,-19.5 180,-.5 101,-.5"/>
<text text-anchor="middle" x="140.5" y="-7.5" font-family="Helvetica,sans-Serif" font-size="10.00" fill="#000000">src/main.cxx</text>
</a>
</g>
</g>
<!-- Node44&#45;&gt;Node46 -->
<g id="edge2" class="edge">
<title>Node44&#45;&gt;Node46</title>
<path fill="none" stroke="#191970" d="M106.1247,-48.5004C114.6273,-38.9775 124.8218,-27.5596 131.8905,-19.6427"/>
<polygon fill="#191970" stroke="#191970" points="103.2587,-46.4551 99.2093,-56.2455 108.4803,-51.1172 103.2587,-46.4551"/>
</g>
</g>
</svg>
