<?xml version="1.0" encoding="UTF-8" standalone="no"?>
<!DOCTYPE svg PUBLIC "-//W3C//DTD SVG 1.1//EN"
 "http://www.w3.org/Graphics/SVG/1.1/DTD/svg11.dtd">
<!-- Generated by graphviz version 2.40.1 (20161225.0304)
 -->
<!-- Title: src/Game.hxx Pages: 1 -->
<!--zoomable 308 -->
<svg id="main" version="1.1" xmlns="http://www.w3.org/2000/svg" xmlns:xlink="http://www.w3.org/1999/xlink" xml:space="preserve" onload="init(evt)">
<style type="text/css"><![CDATA[
.edge:hover path { stroke: red; }
.edge:hover polygon { stroke: red; fill: red; }
]]></style>
<script type="text/javascript"><![CDATA[
var edges = document.getElementsByTagName('g');
if (edges && edges.length) {
  for (var i=0;i<edges.length;i++) {
    if (edges[i].id.substr(0,4)=='edge') {
      edges[i].setAttribute('class','edge');
    }
  }
}
]]></script>
        <defs>
                <circle id="rim" cx="0" cy="0" r="7"/>
                <circle id="rim2" cx="0" cy="0" r="3.5"/>
                <g id="zoomPlus">
                        <use xlink:href="#rim" fill="#404040">
                                <set attributeName="fill" to="#808080" begin="zoomplus.mouseover" end="zoomplus.mouseout"/>
                        </use>
                        <path d="M-4,0h8M0,-4v8" fill="none" stroke="white" stroke-width="1.5" pointer-events="none"/>
                </g>
                <g id="zoomMin">
                        <use xlink:href="#rim" fill="#404040">
                                <set attributeName="fill" to="#808080" begin="zoomminus.mouseover" end="zoomminus.mouseout"/>
                        </use>
                        <path d="M-4,0h8" fill="none" stroke="white" stroke-width="1.5" pointer-events="none"/>
                </g>
                <g id="dirArrow">
                        <path fill="none" stroke="white" stroke-width="1.5" d="M0,-3.0v7 M-2.5,-0.5L0,-3.0L2.5,-0.5"/>
                </g>
               <g id="resetDef">
                       <use xlink:href="#rim2" fill="#404040">
                               <set attributeName="fill" to="#808080" begin="reset.mouseover" end="reset.mouseout"/>
                       </use>
               </g>
        </defs>

<script type="text/javascript">
var viewWidth = 2035;
var viewHeight = 308;
var sectionId = 'dynsection-0';
</script>
<script xlink:href="svgpan.js"/>
<svg id="graph" class="graph">
<g id="viewport">
<title>src/Game.hxx</title>
<!-- Node0 -->
<g id="node1" class="node">
<title>Node0</title>
<polygon fill="#bfbfbf" stroke="#000000" points="926.5,-280.5 926.5,-299.5 1010.5,-299.5 1010.5,-280.5 926.5,-280.5"/>
<text text-anchor="middle" x="968.5" y="-287.5" font-family="Helvetica,sans-Serif" font-size="10.00" fill="#000000">src/Game.hxx</text>
</g>
<!-- Node1 -->
<g id="node2" class="node">
<title>Node1</title>
<g id="a_node2"><a xlink:href="ScriptEngine_8hxx.html" target="_top" xlink:title="Scripting/ScriptEngine.hxx">
<polygon fill="none" stroke="#000000" points="421.5,-224.5 421.5,-243.5 565.5,-243.5 565.5,-224.5 421.5,-224.5"/>
<text text-anchor="middle" x="493.5" y="-231.5" font-family="Helvetica,sans-Serif" font-size="10.00" fill="#000000">Scripting/ScriptEngine.hxx</text>
</a>
</g>
</g>
<!-- Node0&#45;&gt;Node1 -->
<g id="edge1" class="edge">
<title>Node0&#45;&gt;Node1</title>
<path fill="none" stroke="#191970" d="M926.3469,-285.0304C847.7919,-275.7692 677.7538,-255.7226 575.7404,-243.6957"/>
<polygon fill="#191970" stroke="#191970" points="576.1226,-240.2166 565.7815,-242.5216 575.3029,-247.1685 576.1226,-240.2166"/>
</g>
<!-- Node2 -->
<g id="node3" class="node">
<title>Node2</title>
<g id="a_node3"><a xlink:href="MessageQueue_8hxx.html" target="_top" xlink:title="engine/MessageQueue.hxx">
<polygon fill="none" stroke="#000000" points="283.5,-168.5 283.5,-187.5 431.5,-187.5 431.5,-168.5 283.5,-168.5"/>
<text text-anchor="middle" x="357.5" y="-175.5" font-family="Helvetica,sans-Serif" font-size="10.00" fill="#000000">engine/MessageQueue.hxx</text>
</a>
</g>
</g>
<!-- Node0&#45;&gt;Node2 -->
<g id="edge2" class="edge">
<title>Node0&#45;&gt;Node2</title>
<path fill="none" stroke="#191970" d="M926.3206,-288.6072C859.5459,-285.4885 725.9433,-275.5162 617.5,-244 597.2603,-238.1179 594.4931,-230.6726 574.5,-224 527.661,-208.3677 473.3045,-196.855 430.7111,-189.2567"/>
<polygon fill="#191970" stroke="#191970" points="431.1577,-185.7817 420.7039,-187.5046 429.9505,-192.6768 431.1577,-185.7817"/>
</g>
<!-- Node12 -->
<g id="node13" class="node">
<title>Node12</title>
<g id="a_node13"><a xlink:href="Meta_8hxx.html" target="_top" xlink:title="util/Meta.hxx">
<polygon fill="none" stroke="#000000" points="937.5,-56.5 937.5,-75.5 1017.5,-75.5 1017.5,-56.5 937.5,-56.5"/>
<text text-anchor="middle" x="977.5" y="-63.5" font-family="Helvetica,sans-Serif" font-size="10.00" fill="#000000">util/Meta.hxx</text>
</a>
</g>
</g>
<!-- Node0&#45;&gt;Node12 -->
<g id="edge19" class="edge">
<title>Node0&#45;&gt;Node12</title>
<path fill="none" stroke="#191970" d="M926.4473,-286.7161C881.914,-281.95 810.4567,-270.5649 754.5,-244 687.0294,-211.969 601.504,-168.3708 650.5,-112 655.0153,-106.805 836.877,-83.5054 927.3892,-72.1968"/>
<polygon fill="#191970" stroke="#191970" points="927.9416,-75.6552 937.4316,-70.9445 927.0754,-68.709 927.9416,-75.6552"/>
</g>
<!-- Node19 -->
<g id="node20" class="node">
<title>Node19</title>
<g id="a_node20"><a xlink:href="GameService_8hxx.html" target="_top" xlink:title="GameService.hxx">
<polygon fill="none" stroke="#000000" points="837,-168.5 837,-187.5 940,-187.5 940,-168.5 837,-168.5"/>
<text text-anchor="middle" x="888.5" y="-175.5" font-family="Helvetica,sans-Serif" font-size="10.00" fill="#000000">GameService.hxx</text>
</a>
</g>
</g>
<!-- Node0&#45;&gt;Node19 -->
<g id="edge20" class="edge">
<title>Node0&#45;&gt;Node19</title>
<path fill="none" stroke="#191970" d="M961.6792,-280.4509C948.2772,-261.688 918.3248,-219.7548 901.1843,-195.758"/>
<polygon fill="#191970" stroke="#191970" points="903.964,-193.6279 895.3035,-187.5249 898.2678,-197.6966 903.964,-193.6279"/>
</g>
<!-- Node21 -->
<g id="node22" class="node">
<title>Node21</title>
<g id="a_node22"><a xlink:href="Randomizer_8hxx.html" target="_top" xlink:title="services/Randomizer.hxx">
<polygon fill="none" stroke="#000000" points="763,-224.5 763,-243.5 902,-243.5 902,-224.5 763,-224.5"/>
<text text-anchor="middle" x="832.5" y="-231.5" font-family="Helvetica,sans-Serif" font-size="10.00" fill="#000000">services/Randomizer.hxx</text>
</a>
</g>
</g>
<!-- Node0&#45;&gt;Node21 -->
<g id="edge23" class="edge">
<title>Node0&#45;&gt;Node21</title>
<path fill="none" stroke="#191970" d="M945.1208,-280.3733C922.9955,-271.2629 889.5866,-257.5062 864.8981,-247.3404"/>
<polygon fill="#191970" stroke="#191970" points="866.1536,-244.0723 855.5742,-243.5011 863.4883,-250.5451 866.1536,-244.0723"/>
</g>
<!-- Node24 -->
<g id="node25" class="node">
<title>Node24</title>
<g id="a_node25"><a xlink:href="LOG_8hxx.html" target="_top" xlink:title="LOG.hxx">
<polygon fill="none" stroke="#000000" points="1072.5,-168.5 1072.5,-187.5 1130.5,-187.5 1130.5,-168.5 1072.5,-168.5"/>
<text text-anchor="middle" x="1101.5" y="-175.5" font-family="Helvetica,sans-Serif" font-size="10.00" fill="#000000">LOG.hxx</text>
</a>
</g>
</g>
<!-- Node0&#45;&gt;Node24 -->
<g id="edge59" class="edge">
<title>Node0&#45;&gt;Node24</title>
<path fill="none" stroke="#191970" d="M979.8395,-280.4509C1002.6112,-261.2747 1054.1232,-217.8962 1082.2639,-194.1988"/>
<polygon fill="#191970" stroke="#191970" points="1084.7945,-196.6435 1090.1892,-187.5249 1080.2856,-191.2891 1084.7945,-196.6435"/>
</g>
<!-- Node25 -->
<g id="node26" class="node">
<title>Node25</title>
<g id="a_node26"><a xlink:href="Exception_8hxx.html" target="_top" xlink:title="Exception.hxx">
<polygon fill="none" stroke="#000000" points="975.5,-112.5 975.5,-131.5 1061.5,-131.5 1061.5,-112.5 975.5,-112.5"/>
<text text-anchor="middle" x="1018.5" y="-119.5" font-family="Helvetica,sans-Serif" font-size="10.00" fill="#000000">Exception.hxx</text>
</a>
</g>
</g>
<!-- Node0&#45;&gt;Node25 -->
<g id="edge60" class="edge">
<title>Node0&#45;&gt;Node25</title>
<path fill="none" stroke="#191970" d="M971.3315,-280.4862C979.2695,-253.8144 1001.8596,-177.9117 1012.6384,-141.695"/>
<polygon fill="#191970" stroke="#191970" points="1016.077,-142.4108 1015.575,-131.8279 1009.3678,-140.414 1016.077,-142.4108"/>
</g>
<!-- Node36 -->
<g id="node37" class="node">
<title>Node36</title>
<g id="a_node37"><a xlink:href="GameClock_8hxx.html" target="_top" xlink:title="services/GameClock.hxx">
<polygon fill="none" stroke="#000000" points="1090,-224.5 1090,-243.5 1227,-243.5 1227,-224.5 1090,-224.5"/>
<text text-anchor="middle" x="1158.5" y="-231.5" font-family="Helvetica,sans-Serif" font-size="10.00" fill="#000000">services/GameClock.hxx</text>
</a>
</g>
</g>
<!-- Node0&#45;&gt;Node36 -->
<g id="edge44" class="edge">
<title>Node0&#45;&gt;Node36</title>
<path fill="none" stroke="#191970" d="M1001.1622,-280.3733C1033.0298,-270.9807 1081.6531,-256.6496 1116.407,-246.4064"/>
<polygon fill="#191970" stroke="#191970" points="1117.6615,-249.6855 1126.264,-243.5011 1115.6825,-242.9711 1117.6615,-249.6855"/>
</g>
<!-- Node38 -->
<g id="node39" class="node">
<title>Node38</title>
<polygon fill="none" stroke="#bfbfbf" points="1379.5,-168.5 1379.5,-187.5 1427.5,-187.5 1427.5,-168.5 1379.5,-168.5"/>
<text text-anchor="middle" x="1403.5" y="-175.5" font-family="Helvetica,sans-Serif" font-size="10.00" fill="#000000">thread</text>
</g>
<!-- Node0&#45;&gt;Node38 -->
<g id="edge61" class="edge">
<title>Node0&#45;&gt;Node38</title>
<path fill="none" stroke="#191970" d="M1010.8734,-285.4681C1064.2102,-279.1414 1158.3129,-265.9066 1236.5,-244 1286.0128,-230.1274 1341.0474,-206.7337 1373.9354,-191.8461"/>
<polygon fill="#191970" stroke="#191970" points="1375.7611,-194.8599 1383.4004,-187.5189 1372.8505,-188.4937 1375.7611,-194.8599"/>
</g>
<!-- Node40 -->
<g id="node41" class="node">
<title>Node40</title>
<g id="a_node41"><a xlink:href="ResourceManager_8hxx.html" target="_top" xlink:title="services/ResourceManager.hxx">
<polygon fill="none" stroke="#000000" points="1627,-224.5 1627,-243.5 1794,-243.5 1794,-224.5 1627,-224.5"/>
<text text-anchor="middle" x="1710.5" y="-231.5" font-family="Helvetica,sans-Serif" font-size="10.00" fill="#000000">services/ResourceManager.hxx</text>
</a>
</g>
</g>
<!-- Node0&#45;&gt;Node40 -->
<g id="edge53" class="edge">
<title>Node0&#45;&gt;Node40</title>
<path fill="none" stroke="#191970" d="M1010.5191,-286.8287C1126.7298,-278.0581 1454.5462,-253.3173 1616.9416,-241.061"/>
<polygon fill="#191970" stroke="#191970" points="1617.2127,-244.5506 1626.9209,-240.3079 1616.6859,-237.5704 1617.2127,-244.5506"/>
</g>
<!-- Node43 -->
<g id="node44" class="node">
<title>Node43</title>
<g id="a_node44"><a xlink:href="Game_8inl_8hxx.html" target="_top" xlink:title="Game.inl.hxx">
<polygon fill="none" stroke="#000000" points="1812.5,-224.5 1812.5,-243.5 1894.5,-243.5 1894.5,-224.5 1812.5,-224.5"/>
<text text-anchor="middle" x="1853.5" y="-231.5" font-family="Helvetica,sans-Serif" font-size="10.00" fill="#000000">Game.inl.hxx</text>
</a>
</g>
</g>
<!-- Node0&#45;&gt;Node43 -->
<g id="edge62" class="edge">
<title>Node0&#45;&gt;Node43</title>
<path fill="none" stroke="#191970" d="M1010.6127,-288.475C1154.7464,-283.1335 1628.4922,-264.5411 1802.3477,-243.9406"/>
<polygon fill="#191970" stroke="#191970" points="1802.8776,-247.4019 1812.3755,-242.7072 1802.023,-240.4543 1802.8776,-247.4019"/>
</g>
<!-- Node3 -->
<g id="node4" class="node">
<title>Node3</title>
<polygon fill="none" stroke="#bfbfbf" points="0,-112.5 0,-131.5 107,-131.5 107,-112.5 0,-112.5"/>
<text text-anchor="middle" x="53.5" y="-119.5" font-family="Helvetica,sans-Serif" font-size="10.00" fill="#000000">condition_variable</text>
</g>
<!-- Node2&#45;&gt;Node3 -->
<g id="edge3" class="edge">
<title>Node2&#45;&gt;Node3</title>
<path fill="none" stroke="#191970" d="M305.586,-168.4369C252.9029,-158.7321 171.3432,-143.708 115.3457,-133.3926"/>
<polygon fill="#191970" stroke="#191970" points="115.6686,-129.8933 105.1999,-131.5237 114.4004,-136.7775 115.6686,-129.8933"/>
</g>
<!-- Node4 -->
<g id="node5" class="node">
<title>Node4</title>
<polygon fill="none" stroke="#bfbfbf" points="795.5,-112.5 795.5,-131.5 843.5,-131.5 843.5,-112.5 795.5,-112.5"/>
<text text-anchor="middle" x="819.5" y="-119.5" font-family="Helvetica,sans-Serif" font-size="10.00" fill="#000000">mutex</text>
</g>
<!-- Node2&#45;&gt;Node4 -->
<g id="edge4" class="edge">
<title>Node2&#45;&gt;Node4</title>
<path fill="none" stroke="#191970" d="M431.779,-174.2687C515.6474,-169.1064 656.1853,-157.5954 785.4075,-131.8849"/>
<polygon fill="#191970" stroke="#191970" points="786.3755,-135.2601 795.4828,-129.8464 784.9873,-128.3991 786.3755,-135.2601"/>
</g>
<!-- Node5 -->
<g id="node6" class="node">
<title>Node5</title>
<polygon fill="none" stroke="#bfbfbf" points="125,-112.5 125,-131.5 172,-131.5 172,-112.5 125,-112.5"/>
<text text-anchor="middle" x="148.5" y="-119.5" font-family="Helvetica,sans-Serif" font-size="10.00" fill="#000000">deque</text>
</g>
<!-- Node2&#45;&gt;Node5 -->
<g id="edge5" class="edge">
<title>Node2&#45;&gt;Node5</title>
<path fill="none" stroke="#191970" d="M318.6812,-168.4887C284.8285,-160.0656 234.1845,-147.1569 181.9877,-132.3432"/>
<polygon fill="#191970" stroke="#191970" points="182.8038,-128.9364 172.2271,-129.5556 180.8815,-135.6673 182.8038,-128.9364"/>
</g>
<!-- Node6 -->
<g id="node7" class="node">
<title>Node6</title>
<polygon fill="none" stroke="#bfbfbf" points="190,-112.5 190,-131.5 237,-131.5 237,-112.5 190,-112.5"/>
<text text-anchor="middle" x="213.5" y="-119.5" font-family="Helvetica,sans-Serif" font-size="10.00" fill="#000000">vector</text>
</g>
<!-- Node2&#45;&gt;Node6 -->
<g id="edge6" class="edge">
<title>Node2&#45;&gt;Node6</title>
<path fill="none" stroke="#191970" d="M332.7455,-168.3733C309.0725,-159.1671 273.1996,-145.2165 246.9825,-135.021"/>
<polygon fill="#191970" stroke="#191970" points="248.0416,-131.6775 237.453,-131.315 245.5044,-138.2016 248.0416,-131.6775"/>
</g>
<!-- Node7 -->
<g id="node8" class="node">
<title>Node7</title>
<polygon fill="none" stroke="#bfbfbf" points="538,-112.5 538,-131.5 603,-131.5 603,-112.5 538,-112.5"/>
<text text-anchor="middle" x="570.5" y="-119.5" font-family="Helvetica,sans-Serif" font-size="10.00" fill="#000000">functional</text>
</g>
<!-- Node2&#45;&gt;Node7 -->
<g id="edge7" class="edge">
<title>Node2&#45;&gt;Node7</title>
<path fill="none" stroke="#191970" d="M394.116,-168.3733C431.3188,-158.5922 488.8915,-143.4557 528.0634,-133.1571"/>
<polygon fill="#191970" stroke="#191970" points="529.0677,-136.512 537.8491,-130.5843 527.2878,-129.7421 529.0677,-136.512"/>
</g>
<!-- Node8 -->
<g id="node9" class="node">
<title>Node8</title>
<polygon fill="none" stroke="#bfbfbf" points="268.5,-56.5 268.5,-75.5 322.5,-75.5 322.5,-56.5 268.5,-56.5"/>
<text text-anchor="middle" x="295.5" y="-63.5" font-family="Helvetica,sans-Serif" font-size="10.00" fill="#000000">ciso646</text>
</g>
<!-- Node2&#45;&gt;Node8 -->
<g id="edge8" class="edge">
<title>Node2&#45;&gt;Node8</title>
<path fill="none" stroke="#191970" d="M329.8041,-168.4275C313.4537,-161.1781 294.1261,-149.4435 284.5,-132 276.539,-117.5737 280.777,-98.8719 286.1397,-85.0614"/>
<polygon fill="#191970" stroke="#191970" points="289.4749,-86.1701 290.2764,-75.6056 283.0617,-83.3644 289.4749,-86.1701"/>
</g>
<!-- Node9 -->
<g id="node10" class="node">
<title>Node9</title>
<g id="a_node10"><a xlink:href="Events_8hxx.html" target="_top" xlink:title="../Events.hxx">
<polygon fill="none" stroke="#000000" points="439.5,-112.5 439.5,-131.5 519.5,-131.5 519.5,-112.5 439.5,-112.5"/>
<text text-anchor="middle" x="479.5" y="-119.5" font-family="Helvetica,sans-Serif" font-size="10.00" fill="#000000">../Events.hxx</text>
</a>
</g>
</g>
<!-- Node2&#45;&gt;Node9 -->
<g id="edge9" class="edge">
<title>Node2&#45;&gt;Node9</title>
<path fill="none" stroke="#191970" d="M378.4725,-168.3733C398.0567,-159.3838 427.4961,-145.8706 449.551,-135.7471"/>
<polygon fill="#191970" stroke="#191970" points="451.1729,-138.8538 458.8011,-131.5011 448.2527,-132.4919 451.1729,-138.8538"/>
</g>
<!-- Node18 -->
<g id="node19" class="node">
<title>Node18</title>
<g id="a_node19"><a xlink:href="MessageQueue_8inl_8hxx.html" target="_top" xlink:title="MessageQueue.inl.hxx">
<polygon fill="none" stroke="#000000" points="294,-112.5 294,-131.5 421,-131.5 421,-112.5 294,-112.5"/>
<text text-anchor="middle" x="357.5" y="-119.5" font-family="Helvetica,sans-Serif" font-size="10.00" fill="#000000">MessageQueue.inl.hxx</text>
</a>
</g>
</g>
<!-- Node2&#45;&gt;Node18 -->
<g id="edge18" class="edge">
<title>Node2&#45;&gt;Node18</title>
<path fill="none" stroke="#191970" d="M357.5,-168.2455C357.5,-160.9382 357.5,-150.6944 357.5,-141.7046"/>
<polygon fill="#191970" stroke="#191970" points="361.0001,-141.6426 357.5,-131.6427 354.0001,-141.6427 361.0001,-141.6426"/>
</g>
<!-- Node10 -->
<g id="node11" class="node">
<title>Node10</title>
<polygon fill="none" stroke="#bfbfbf" points="837.5,-56.5 837.5,-75.5 881.5,-75.5 881.5,-56.5 837.5,-56.5"/>
<text text-anchor="middle" x="859.5" y="-63.5" font-family="Helvetica,sans-Serif" font-size="10.00" fill="#000000">string</text>
</g>
<!-- Node9&#45;&gt;Node10 -->
<g id="edge10" class="edge">
<title>Node9&#45;&gt;Node10</title>
<path fill="none" stroke="#191970" d="M519.5725,-113.6071C522.5894,-113.0411 525.5904,-112.4986 528.5,-112 637.5128,-93.3206 767.7182,-76.9527 827.1026,-69.812"/>
<polygon fill="#191970" stroke="#191970" points="827.8319,-73.2498 837.3457,-68.5876 827.001,-66.2993 827.8319,-73.2498"/>
</g>
<!-- Node11 -->
<g id="node12" class="node">
<title>Node11</title>
<polygon fill="none" stroke="#bfbfbf" points="370.5,-56.5 370.5,-75.5 470.5,-75.5 470.5,-56.5 370.5,-56.5"/>
<text text-anchor="middle" x="420.5" y="-63.5" font-family="Helvetica,sans-Serif" font-size="10.00" fill="#000000">betterEnums.hxx</text>
</g>
<!-- Node9&#45;&gt;Node11 -->
<g id="edge11" class="edge">
<title>Node9&#45;&gt;Node11</title>
<path fill="none" stroke="#191970" d="M469.223,-112.2455C460.6782,-104.1352 448.3222,-92.4075 438.1915,-82.7919"/>
<polygon fill="#191970" stroke="#191970" points="440.3218,-79.9884 430.6592,-75.6427 435.5028,-85.0655 440.3218,-79.9884"/>
</g>
<!-- Node9&#45;&gt;Node12 -->
<g id="edge12" class="edge">
<title>Node9&#45;&gt;Node12</title>
<path fill="none" stroke="#191970" d="M519.5518,-113.479C522.5735,-112.9426 525.5813,-112.4418 528.5,-112 688.3617,-87.8034 729.7384,-93.2318 890.5,-76 902.309,-74.7342 915.012,-73.3098 926.9637,-71.9414"/>
<polygon fill="#191970" stroke="#191970" points="927.6983,-75.38 937.2321,-70.7587 926.8972,-68.426 927.6983,-75.38"/>
</g>
<!-- Node17 -->
<g id="node18" class="node">
<title>Node17</title>
<g id="a_node18"><a xlink:href="UIEvents_8hxx.html" target="_top" xlink:title="events/UIEvents.hxx">
<polygon fill="none" stroke="#000000" points="489,-56.5 489,-75.5 606,-75.5 606,-56.5 489,-56.5"/>
<text text-anchor="middle" x="547.5" y="-63.5" font-family="Helvetica,sans-Serif" font-size="10.00" fill="#000000">events/UIEvents.hxx</text>
</a>
</g>
</g>
<!-- Node9&#45;&gt;Node17 -->
<g id="edge17" class="edge">
<title>Node9&#45;&gt;Node17</title>
<path fill="none" stroke="#191970" d="M491.3447,-112.2455C501.388,-103.9746 515.9995,-91.9416 527.8004,-82.2232"/>
<polygon fill="#191970" stroke="#191970" points="530.2967,-84.7015 535.791,-75.6427 525.8467,-79.298 530.2967,-84.7015"/>
</g>
<!-- Node13 -->
<g id="node14" class="node">
<title>Node13</title>
<polygon fill="none" stroke="#bfbfbf" points="864.5,-.5 864.5,-19.5 924.5,-19.5 924.5,-.5 864.5,-.5"/>
<text text-anchor="middle" x="894.5" y="-7.5" font-family="Helvetica,sans-Serif" font-size="10.00" fill="#000000">iostream</text>
</g>
<!-- Node12&#45;&gt;Node13 -->
<g id="edge13" class="edge">
<title>Node12&#45;&gt;Node13</title>
<path fill="none" stroke="#191970" d="M963.0425,-56.2455C950.4268,-47.7337 931.9056,-35.2375 917.2955,-25.3801"/>
<polygon fill="#191970" stroke="#191970" points="919.0391,-22.3343 908.7918,-19.6427 915.1239,-28.1371 919.0391,-22.3343"/>
</g>
<!-- Node14 -->
<g id="node15" class="node">
<title>Node14</title>
<polygon fill="none" stroke="#bfbfbf" points="943,-.5 943,-19.5 1012,-19.5 1012,-.5 943,-.5"/>
<text text-anchor="middle" x="977.5" y="-7.5" font-family="Helvetica,sans-Serif" font-size="10.00" fill="#000000">type_traits</text>
</g>
<!-- Node12&#45;&gt;Node14 -->
<g id="edge14" class="edge">
<title>Node12&#45;&gt;Node14</title>
<path fill="none" stroke="#191970" d="M977.5,-56.2455C977.5,-48.9382 977.5,-38.6944 977.5,-29.7046"/>
<polygon fill="#191970" stroke="#191970" points="981.0001,-29.6426 977.5,-19.6427 974.0001,-29.6427 981.0001,-29.6426"/>
</g>
<!-- Node15 -->
<g id="node16" class="node">
<title>Node15</title>
<polygon fill="none" stroke="#bfbfbf" points="1030,-.5 1030,-19.5 1081,-19.5 1081,-.5 1030,-.5"/>
<text text-anchor="middle" x="1055.5" y="-7.5" font-family="Helvetica,sans-Serif" font-size="10.00" fill="#000000">variant</text>
</g>
<!-- Node12&#45;&gt;Node15 -->
<g id="edge15" class="edge">
<title>Node12&#45;&gt;Node15</title>
<path fill="none" stroke="#191970" d="M991.0866,-56.2455C1002.8305,-47.814 1020.0199,-35.4729 1033.6882,-25.6598"/>
<polygon fill="#191970" stroke="#191970" points="1035.9871,-28.3179 1042.0691,-19.6427 1031.9046,-22.6316 1035.9871,-28.3179"/>
</g>
<!-- Node16 -->
<g id="node17" class="node">
<title>Node16</title>
<polygon fill="none" stroke="#bfbfbf" points="1099,-.5 1099,-19.5 1140,-19.5 1140,-.5 1099,-.5"/>
<text text-anchor="middle" x="1119.5" y="-7.5" font-family="Helvetica,sans-Serif" font-size="10.00" fill="#000000">tuple</text>
</g>
<!-- Node12&#45;&gt;Node16 -->
<g id="edge16" class="edge">
<title>Node12&#45;&gt;Node16</title>
<path fill="none" stroke="#191970" d="M1001.9107,-56.3733C1026.0986,-46.8343 1063.2025,-32.2018 1089.2475,-21.9306"/>
<polygon fill="#191970" stroke="#191970" points="1090.6193,-25.152 1098.638,-18.2273 1088.0512,-18.6401 1090.6193,-25.152"/>
</g>
<!-- Node19&#45;&gt;Node9 -->
<g id="edge21" class="edge">
<title>Node19&#45;&gt;Node9</title>
<path fill="none" stroke="#191970" d="M836.8127,-169.2314C834.0027,-168.8028 831.2179,-168.3894 828.5,-168 698.8127,-149.4214 662.8099,-153.2392 529.738,-132.0897"/>
<polygon fill="#191970" stroke="#191970" points="529.991,-128.5855 519.5623,-130.4542 528.8802,-135.4968 529.991,-128.5855"/>
</g>
<!-- Node20 -->
<g id="node21" class="node">
<title>Node20</title>
<g id="a_node21"><a xlink:href="GameService_8inl_8hxx.html" target="_top" xlink:title="GameService.inl.hxx">
<polygon fill="none" stroke="#000000" points="659.5,-112.5 659.5,-131.5 777.5,-131.5 777.5,-112.5 659.5,-112.5"/>
<text text-anchor="middle" x="718.5" y="-119.5" font-family="Helvetica,sans-Serif" font-size="10.00" fill="#000000">GameService.inl.hxx</text>
</a>
</g>
</g>
<!-- Node19&#45;&gt;Node20 -->
<g id="edge22" class="edge">
<title>Node19&#45;&gt;Node20</title>
<path fill="none" stroke="#191970" d="M859.276,-168.3733C831.0075,-159.0613 788.0035,-144.8953 756.9656,-134.671"/>
<polygon fill="#191970" stroke="#191970" points="757.9357,-131.3056 747.3427,-131.5011 755.7456,-137.9542 757.9357,-131.3056"/>
</g>
<!-- Node21&#45;&gt;Node19 -->
<g id="edge26" class="edge">
<title>Node21&#45;&gt;Node19</title>
<path fill="none" stroke="#191970" d="M842.2545,-224.2455C850.3648,-216.1352 862.0925,-204.4075 871.7081,-194.7919"/>
<polygon fill="#191970" stroke="#191970" points="874.2611,-197.1887 878.8573,-187.6427 869.3113,-192.2389 874.2611,-197.1887"/>
</g>
<!-- Node22 -->
<g id="node23" class="node">
<title>Node22</title>
<polygon fill="none" stroke="#bfbfbf" points="693.5,-168.5 693.5,-187.5 747.5,-187.5 747.5,-168.5 693.5,-168.5"/>
<text text-anchor="middle" x="720.5" y="-175.5" font-family="Helvetica,sans-Serif" font-size="10.00" fill="#000000">random</text>
</g>
<!-- Node21&#45;&gt;Node22 -->
<g id="edge24" class="edge">
<title>Node21&#45;&gt;Node22</title>
<path fill="none" stroke="#191970" d="M813.2465,-224.3733C795.4288,-215.4644 768.7253,-202.1127 748.5406,-192.0203"/>
<polygon fill="#191970" stroke="#191970" points="750.0118,-188.8428 739.5022,-187.5011 746.8813,-195.1038 750.0118,-188.8428"/>
</g>
<!-- Node23 -->
<g id="node24" class="node">
<title>Node23</title>
<polygon fill="none" stroke="#bfbfbf" points="766,-168.5 766,-187.5 819,-187.5 819,-168.5 766,-168.5"/>
<text text-anchor="middle" x="792.5" y="-175.5" font-family="Helvetica,sans-Serif" font-size="10.00" fill="#000000">iterator</text>
</g>
<!-- Node21&#45;&gt;Node23 -->
<g id="edge25" class="edge">
<title>Node21&#45;&gt;Node23</title>
<path fill="none" stroke="#191970" d="M825.5325,-224.2455C819.9689,-216.4564 812.022,-205.3308 805.3171,-195.9439"/>
<polygon fill="#191970" stroke="#191970" points="808.0481,-193.7457 799.3876,-187.6427 802.352,-197.8144 808.0481,-193.7457"/>
</g>
<!-- Node21&#45;&gt;Node24 -->
<g id="edge27" class="edge">
<title>Node21&#45;&gt;Node24</title>
<path fill="none" stroke="#191970" d="M878.4371,-224.4369C930.2715,-213.6461 1013.6968,-196.2787 1062.4926,-186.1205"/>
<polygon fill="#191970" stroke="#191970" points="1063.2789,-189.5319 1072.3556,-184.0672 1061.8521,-182.6789 1063.2789,-189.5319"/>
</g>
<!-- Node24&#45;&gt;Node4 -->
<g id="edge39" class="edge">
<title>Node24&#45;&gt;Node4</title>
<path fill="none" stroke="#191970" d="M1072.4001,-171.0198C1067.7594,-169.968 1063.0044,-168.9265 1058.5,-168 969.6061,-149.7154 946.1211,-151.5639 857.5,-132 856.226,-131.7188 854.9303,-131.4237 853.6232,-131.1185"/>
<polygon fill="#191970" stroke="#191970" points="854.0988,-127.6312 843.5521,-128.6402 852.426,-134.4284 854.0988,-127.6312"/>
</g>
<!-- Node24&#45;&gt;Node10 -->
<g id="edge28" class="edge">
<title>Node24&#45;&gt;Node10</title>
<path fill="none" stroke="#191970" d="M1072.3659,-171.1784C1067.7296,-170.1062 1062.9849,-169.0167 1058.5,-168 986.1457,-151.5972 954.8118,-176.5681 895.5,-132 880.2183,-120.517 870.6394,-100.5721 865.2397,-85.6052"/>
<polygon fill="#191970" stroke="#191970" points="868.4609,-84.1948 862.0247,-75.779 861.8079,-86.3716 868.4609,-84.1948"/>
</g>
<!-- Node24&#45;&gt;Node12 -->
<g id="edge40" class="edge">
<title>Node24&#45;&gt;Node12</title>
<path fill="none" stroke="#191970" d="M1072.368,-170.0171C1034.6211,-159.384 972.8588,-140.8846 966.5,-132 956.7073,-118.3177 961.5174,-98.9899 967.5406,-84.7851"/>
<polygon fill="#191970" stroke="#191970" points="970.8213,-86.0358 971.9495,-75.5012 964.4981,-83.0329 970.8213,-86.0358"/>
</g>
<!-- Node24&#45;&gt;Node13 -->
<g id="edge32" class="edge">
<title>Node24&#45;&gt;Node13</title>
<path fill="none" stroke="#191970" d="M1072.4279,-171.5905C1035.4064,-162.9602 974.1163,-146.956 956.5,-132 924.1854,-104.5653 906.7984,-56.1122 899.2278,-29.264"/>
<polygon fill="#191970" stroke="#191970" points="902.5877,-28.2792 896.6443,-19.5085 895.821,-30.0713 902.5877,-28.2792"/>
</g>
<!-- Node24&#45;&gt;Node25 -->
<g id="edge29" class="edge">
<title>Node24&#45;&gt;Node25</title>
<path fill="none" stroke="#191970" d="M1087.0425,-168.2455C1074.4268,-159.7337 1055.9056,-147.2375 1041.2955,-137.3801"/>
<polygon fill="#191970" stroke="#191970" points="1043.0391,-134.3343 1032.7918,-131.6427 1039.1239,-140.1371 1043.0391,-134.3343"/>
</g>
<!-- Node28 -->
<g id="node29" class="node">
<title>Node28</title>
<polygon fill="none" stroke="#bfbfbf" points="1632.5,-112.5 1632.5,-131.5 1682.5,-131.5 1682.5,-112.5 1632.5,-112.5"/>
<text text-anchor="middle" x="1657.5" y="-119.5" font-family="Helvetica,sans-Serif" font-size="10.00" fill="#000000">chrono</text>
</g>
<!-- Node24&#45;&gt;Node28 -->
<g id="edge33" class="edge">
<title>Node24&#45;&gt;Node28</title>
<path fill="none" stroke="#191970" d="M1130.527,-170.613C1135.1771,-169.6138 1139.9542,-168.6952 1144.5,-168 1352.2383,-136.2302 1411.6322,-169.2678 1622.2469,-131.862"/>
<polygon fill="#191970" stroke="#191970" points="1623.1743,-135.2511 1632.3916,-130.0269 1621.9283,-128.3629 1623.1743,-135.2511"/>
</g>
<!-- Node29 -->
<g id="node30" class="node">
<title>Node29</title>
<polygon fill="none" stroke="#bfbfbf" points="1079.5,-112.5 1079.5,-131.5 1123.5,-131.5 1123.5,-112.5 1079.5,-112.5"/>
<text text-anchor="middle" x="1101.5" y="-119.5" font-family="Helvetica,sans-Serif" font-size="10.00" fill="#000000">ctime</text>
</g>
<!-- Node24&#45;&gt;Node29 -->
<g id="edge34" class="edge">
<title>Node24&#45;&gt;Node29</title>
<path fill="none" stroke="#191970" d="M1101.5,-168.2455C1101.5,-160.9382 1101.5,-150.6944 1101.5,-141.7046"/>
<polygon fill="#191970" stroke="#191970" points="1105.0001,-141.6426 1101.5,-131.6427 1098.0001,-141.6427 1105.0001,-141.6426"/>
</g>
<!-- Node30 -->
<g id="node31" class="node">
<title>Node30</title>
<polygon fill="none" stroke="#bfbfbf" points="1142,-112.5 1142,-131.5 1197,-131.5 1197,-112.5 1142,-112.5"/>
<text text-anchor="middle" x="1169.5" y="-119.5" font-family="Helvetica,sans-Serif" font-size="10.00" fill="#000000">fstream</text>
</g>
<!-- Node24&#45;&gt;Node30 -->
<g id="edge35" class="edge">
<title>Node24&#45;&gt;Node30</title>
<path fill="none" stroke="#191970" d="M1113.3447,-168.2455C1123.388,-159.9746 1137.9995,-147.9416 1149.8004,-138.2232"/>
<polygon fill="#191970" stroke="#191970" points="1152.2967,-140.7015 1157.791,-131.6427 1147.8467,-135.298 1152.2967,-140.7015"/>
</g>
<!-- Node31 -->
<g id="node32" class="node">
<title>Node31</title>
<polygon fill="none" stroke="#bfbfbf" points="1215.5,-112.5 1215.5,-131.5 1271.5,-131.5 1271.5,-112.5 1215.5,-112.5"/>
<text text-anchor="middle" x="1243.5" y="-119.5" font-family="Helvetica,sans-Serif" font-size="10.00" fill="#000000">sstream</text>
</g>
<!-- Node24&#45;&gt;Node31 -->
<g id="edge36" class="edge">
<title>Node24&#45;&gt;Node31</title>
<path fill="none" stroke="#191970" d="M1125.9107,-168.3733C1149.1142,-159.2226 1184.2038,-145.3844 1210.0142,-135.2057"/>
<polygon fill="#191970" stroke="#191970" points="1211.3892,-138.4258 1219.4079,-131.5011 1208.8211,-131.9139 1211.3892,-138.4258"/>
</g>
<!-- Node32 -->
<g id="node33" class="node">
<title>Node32</title>
<polygon fill="none" stroke="#bfbfbf" points="1289.5,-112.5 1289.5,-131.5 1333.5,-131.5 1333.5,-112.5 1289.5,-112.5"/>
<text text-anchor="middle" x="1311.5" y="-119.5" font-family="Helvetica,sans-Serif" font-size="10.00" fill="#000000">SDL.h</text>
</g>
<!-- Node24&#45;&gt;Node32 -->
<g id="edge37" class="edge">
<title>Node24&#45;&gt;Node32</title>
<path fill="none" stroke="#191970" d="M1130.7912,-171.0494C1164.486,-162.9282 1221.6658,-148.7639 1279.5319,-132.1661"/>
<polygon fill="#191970" stroke="#191970" points="1280.5637,-135.5112 1289.1986,-129.372 1278.6199,-128.7864 1280.5637,-135.5112"/>
</g>
<!-- Node33 -->
<g id="node34" class="node">
<title>Node33</title>
<polygon fill="none" stroke="#bfbfbf" points="1351.5,-112.5 1351.5,-131.5 1415.5,-131.5 1415.5,-112.5 1351.5,-112.5"/>
<text text-anchor="middle" x="1383.5" y="-119.5" font-family="Helvetica,sans-Serif" font-size="10.00" fill="#000000">algorithm</text>
</g>
<!-- Node24&#45;&gt;Node33 -->
<g id="edge38" class="edge">
<title>Node24&#45;&gt;Node33</title>
<path fill="none" stroke="#191970" d="M1130.602,-171.0302C1135.2425,-169.9771 1139.9968,-168.9324 1144.5,-168 1229.0057,-150.5022 1253.3216,-150.5765 1341.422,-132.1334"/>
<polygon fill="#191970" stroke="#191970" points="1342.2529,-135.5352 1351.3124,-130.0419 1340.8046,-128.6866 1342.2529,-135.5352"/>
</g>
<!-- Node34 -->
<g id="node35" class="node">
<title>Node34</title>
<g id="a_node35"><a xlink:href="filesystem_8hxx.html" target="_top" xlink:title="filesystem.hxx">
<polygon fill="none" stroke="#000000" points="1434,-112.5 1434,-131.5 1523,-131.5 1523,-112.5 1434,-112.5"/>
<text text-anchor="middle" x="1478.5" y="-119.5" font-family="Helvetica,sans-Serif" font-size="10.00" fill="#000000">filesystem.hxx</text>
</a>
</g>
</g>
<!-- Node24&#45;&gt;Node34 -->
<g id="edge41" class="edge">
<title>Node24&#45;&gt;Node34</title>
<path fill="none" stroke="#191970" d="M1130.5621,-170.8238C1135.2077,-169.7974 1139.9741,-168.8151 1144.5,-168 1264.847,-146.3263 1298.8327,-151.1608 1423.7891,-132.0299"/>
<polygon fill="#191970" stroke="#191970" points="1424.3986,-135.4773 1433.7435,-130.4851 1423.3251,-128.5601 1424.3986,-135.4773"/>
</g>
<!-- Node35 -->
<g id="node36" class="node">
<title>Node35</title>
<g id="a_node36"><a xlink:href="LOG_8inl_8hxx.html" target="_top" xlink:title="LOG.inl.hxx">
<polygon fill="none" stroke="#000000" points="1541,-112.5 1541,-131.5 1614,-131.5 1614,-112.5 1541,-112.5"/>
<text text-anchor="middle" x="1577.5" y="-119.5" font-family="Helvetica,sans-Serif" font-size="10.00" fill="#000000">LOG.inl.hxx</text>
</a>
</g>
</g>
<!-- Node24&#45;&gt;Node35 -->
<g id="edge43" class="edge">
<title>Node24&#45;&gt;Node35</title>
<path fill="none" stroke="#191970" d="M1130.538,-170.6829C1135.1867,-169.6747 1139.9604,-168.735 1144.5,-168 1312.2035,-140.8487 1359.6117,-158.1495 1530.6336,-132.1312"/>
<polygon fill="#191970" stroke="#191970" points="1531.3888,-135.5561 1540.7351,-130.5664 1530.3171,-128.6386 1531.3888,-135.5561"/>
</g>
<!-- Node26 -->
<g id="node27" class="node">
<title>Node26</title>
<polygon fill="none" stroke="#bfbfbf" points="1036,-56.5 1036,-75.5 1101,-75.5 1101,-56.5 1036,-56.5"/>
<text text-anchor="middle" x="1068.5" y="-63.5" font-family="Helvetica,sans-Serif" font-size="10.00" fill="#000000">stdexcept</text>
</g>
<!-- Node25&#45;&gt;Node26 -->
<g id="edge30" class="edge">
<title>Node25&#45;&gt;Node26</title>
<path fill="none" stroke="#191970" d="M1027.2093,-112.2455C1034.3073,-104.2958 1044.5084,-92.8706 1052.995,-83.3656"/>
<polygon fill="#191970" stroke="#191970" points="1055.8411,-85.4331 1059.8905,-75.6427 1050.6195,-80.771 1055.8411,-85.4331"/>
</g>
<!-- Node27 -->
<g id="node28" class="node">
<title>Node27</title>
<polygon fill="none" stroke="#bfbfbf" points="1119,-56.5 1119,-75.5 1184,-75.5 1184,-56.5 1119,-56.5"/>
<text text-anchor="middle" x="1151.5" y="-63.5" font-family="Helvetica,sans-Serif" font-size="10.00" fill="#000000">exception</text>
</g>
<!-- Node25&#45;&gt;Node27 -->
<g id="edge31" class="edge">
<title>Node25&#45;&gt;Node27</title>
<path fill="none" stroke="#191970" d="M1041.3635,-112.3733C1062.905,-103.3032 1095.3838,-89.6279 1119.4956,-79.4755"/>
<polygon fill="#191970" stroke="#191970" points="1121.0767,-82.6075 1128.9348,-75.5011 1118.3603,-76.156 1121.0767,-82.6075"/>
</g>
<!-- Node34&#45;&gt;Node8 -->
<g id="edge42" class="edge">
<title>Node34&#45;&gt;Node8</title>
<path fill="none" stroke="#191970" d="M1433.7869,-113.1884C1430.6516,-112.7343 1427.5331,-112.3303 1424.5,-112 954.5635,-60.8194 832.2113,-119.4814 361.5,-76 352.1932,-75.1403 342.2001,-73.8298 332.8767,-72.4379"/>
<polygon fill="#191970" stroke="#191970" points="333.1272,-68.9347 322.7072,-70.8514 332.0482,-75.851 333.1272,-68.9347"/>
</g>
<!-- Node36&#45;&gt;Node4 -->
<g id="edge48" class="edge">
<title>Node36&#45;&gt;Node4</title>
<path fill="none" stroke="#191970" d="M1138.9246,-224.4974C1102.3042,-206.7401 1026.5653,-170.1152 1020.5,-168 989.9686,-157.3528 902.4364,-138.826 853.5539,-128.8422"/>
<polygon fill="#191970" stroke="#191970" points="854.2409,-125.4104 843.744,-126.8474 852.8459,-132.27 854.2409,-125.4104"/>
</g>
<!-- Node36&#45;&gt;Node7 -->
<g id="edge49" class="edge">
<title>Node36&#45;&gt;Node7</title>
<path fill="none" stroke="#191970" d="M1130.6518,-224.4949C1082.329,-208.1213 984.7396,-175.6162 949.5,-168 818.672,-139.7247 783.3523,-148.301 650.5,-132 638.4654,-130.5234 625.4153,-128.901 613.4148,-127.4007"/>
<polygon fill="#191970" stroke="#191970" points="613.5486,-123.8902 603.1912,-126.1204 612.6787,-130.8359 613.5486,-123.8902"/>
</g>
<!-- Node36&#45;&gt;Node19 -->
<g id="edge50" class="edge">
<title>Node36&#45;&gt;Node19</title>
<path fill="none" stroke="#191970" d="M1112.3921,-224.4369C1065.8925,-214.7925 994.0641,-199.8948 944.36,-189.5858"/>
<polygon fill="#191970" stroke="#191970" points="944.9201,-186.1275 934.4177,-187.5237 943.4985,-192.9817 944.9201,-186.1275"/>
</g>
<!-- Node36&#45;&gt;Node28 -->
<g id="edge47" class="edge">
<title>Node36&#45;&gt;Node28</title>
<path fill="none" stroke="#191970" d="M1158.2953,-224.0728C1158.585,-209.2666 1161.5376,-181.6788 1178.5,-168 1253.3911,-107.6064 1509.7674,-147.5036 1622.2816,-131.6619"/>
<polygon fill="#191970" stroke="#191970" points="1623.0839,-135.0773 1632.3886,-130.0105 1621.9551,-128.1689 1623.0839,-135.0773"/>
</g>
<!-- Node37 -->
<g id="node38" class="node">
<title>Node37</title>
<polygon fill="none" stroke="#bfbfbf" points="1187,-168.5 1187,-187.5 1234,-187.5 1234,-168.5 1187,-168.5"/>
<text text-anchor="middle" x="1210.5" y="-175.5" font-family="Helvetica,sans-Serif" font-size="10.00" fill="#000000">queue</text>
</g>
<!-- Node36&#45;&gt;Node37 -->
<g id="edge45" class="edge">
<title>Node36&#45;&gt;Node37</title>
<path fill="none" stroke="#191970" d="M1167.5577,-224.2455C1175.0142,-216.2155 1185.7634,-204.6394 1194.6417,-195.0781"/>
<polygon fill="#191970" stroke="#191970" points="1197.3063,-197.3522 1201.5461,-187.6427 1192.1768,-192.589 1197.3063,-197.3522"/>
</g>
<!-- Node36&#45;&gt;Node38 -->
<g id="edge46" class="edge">
<title>Node36&#45;&gt;Node38</title>
<path fill="none" stroke="#191970" d="M1208.0287,-224.4286C1248.9737,-216.2507 1308.8152,-203.6911 1369.6444,-188.076"/>
<polygon fill="#191970" stroke="#191970" points="1370.611,-191.4412 1379.4128,-185.5438 1368.8545,-184.6651 1370.611,-191.4412"/>
</g>
<!-- Node39 -->
<g id="node40" class="node">
<title>Node39</title>
<g id="a_node40"><a xlink:href="GameClock_8inl_8hxx.html" target="_top" xlink:title="GameClock.inl.hxx">
<polygon fill="none" stroke="#000000" points="1252,-168.5 1252,-187.5 1361,-187.5 1361,-168.5 1252,-168.5"/>
<text text-anchor="middle" x="1306.5" y="-175.5" font-family="Helvetica,sans-Serif" font-size="10.00" fill="#000000">GameClock.inl.hxx</text>
</a>
</g>
</g>
<!-- Node36&#45;&gt;Node39 -->
<g id="edge51" class="edge">
<title>Node36&#45;&gt;Node39</title>
<path fill="none" stroke="#191970" d="M1178.7001,-224.3733C1201.2912,-215.1419 1238.1119,-201.1402 1266.5145,-190.9375"/>
<polygon fill="#191970" stroke="#191970" points="1267.9244,-194.1508 1276.1726,-187.5011 1265.5779,-187.5558 1267.9244,-194.1508"/>
</g>
<!-- Node39&#45;&gt;Node36 -->
<g id="edge52" class="edge">
<title>Node39&#45;&gt;Node36</title>
<path fill="none" stroke="#191970" d="M1286.6072,-187.5011C1264.1459,-196.6889 1227.3521,-210.686 1198.8735,-220.9231"/>
<polygon fill="#191970" stroke="#191970" points="1197.4307,-217.7215 1189.1841,-224.3733 1199.7788,-224.316 1197.4307,-217.7215"/>
</g>
<!-- Node40&#45;&gt;Node10 -->
<g id="edge55" class="edge">
<title>Node40&#45;&gt;Node10</title>
<path fill="none" stroke="#191970" d="M1712.5572,-224.2163C1716.8529,-200.7522 1723.8761,-141.0746 1691.5,-112 1659.9266,-83.6462 970.7425,-80.048 928.5,-76 916.5074,-74.8508 903.41,-73.0836 891.8797,-71.3526"/>
<polygon fill="#191970" stroke="#191970" points="892.2259,-67.8646 881.8078,-69.792 891.1539,-74.782 892.2259,-67.8646"/>
</g>
<!-- Node40&#45;&gt;Node12 -->
<g id="edge57" class="edge">
<title>Node40&#45;&gt;Node12</title>
<path fill="none" stroke="#191970" d="M1716.0646,-224.1734C1728.2945,-201.1337 1754.1561,-143.2274 1724.5,-112 1671.0984,-55.7691 1104.4474,-85.6297 1027.5,-76 1027.3984,-75.9873 1027.2968,-75.9745 1027.195,-75.9616"/>
<polygon fill="#191970" stroke="#191970" points="1027.9359,-72.533 1017.5331,-74.5407 1026.9174,-79.4585 1027.9359,-72.533"/>
</g>
<!-- Node40&#45;&gt;Node19 -->
<g id="edge56" class="edge">
<title>Node40&#45;&gt;Node19</title>
<path fill="none" stroke="#191970" d="M1626.777,-228.2962C1461.3536,-217.0265 1096.0422,-192.1391 950.3007,-182.2103"/>
<polygon fill="#191970" stroke="#191970" points="950.4073,-178.7095 940.1925,-181.5216 949.9315,-185.6933 950.4073,-178.7095"/>
</g>
<!-- Node41 -->
<g id="node42" class="node">
<title>Node41</title>
<polygon fill="none" stroke="#bfbfbf" points="1777,-168.5 1777,-187.5 1870,-187.5 1870,-168.5 1777,-168.5"/>
<text text-anchor="middle" x="1823.5" y="-175.5" font-family="Helvetica,sans-Serif" font-size="10.00" fill="#000000">unordered_map</text>
</g>
<!-- Node40&#45;&gt;Node41 -->
<g id="edge54" class="edge">
<title>Node40&#45;&gt;Node41</title>
<path fill="none" stroke="#191970" d="M1729.9254,-224.3733C1747.9021,-215.4644 1774.8441,-202.1127 1795.209,-192.0203"/>
<polygon fill="#191970" stroke="#191970" points="1796.9222,-195.0776 1804.3281,-187.5011 1793.8139,-188.8055 1796.9222,-195.0776"/>
</g>
<!-- Node42 -->
<g id="node43" class="node">
<title>Node42</title>
<g id="a_node43"><a xlink:href="ResourceManager_8inl_8hxx.html" target="_top" xlink:title="ResourceManager.inl.hxx">
<polygon fill="none" stroke="#000000" points="1888.5,-168.5 1888.5,-187.5 2026.5,-187.5 2026.5,-168.5 1888.5,-168.5"/>
<text text-anchor="middle" x="1957.5" y="-175.5" font-family="Helvetica,sans-Serif" font-size="10.00" fill="#000000">ResourceManager.inl.hxx</text>
</a>
</g>
</g>
<!-- Node40&#45;&gt;Node42 -->
<g id="edge58" class="edge">
<title>Node40&#45;&gt;Node42</title>
<path fill="none" stroke="#191970" d="M1752.6802,-224.4369C1794.9523,-214.8529 1860.1062,-200.0812 1905.5417,-189.78"/>
<polygon fill="#191970" stroke="#191970" points="1906.5152,-193.1482 1915.4938,-187.5237 1904.9674,-186.3215 1906.5152,-193.1482"/>
</g>
</g>
</svg>
        <g id="navigator" transform="translate(0 0)" fill="#404254">
                <rect fill="#f2f5e9" fill-opacity="0.5" stroke="#606060" stroke-width=".5" x="0" y="0" width="60" height="60"/>
                <use id="zoomplus" xlink:href="#zoomPlus" x="17" y="9" onmousedown="handleZoom(evt,'in')"/>
                <use id="zoomminus" xlink:href="#zoomMin" x="42" y="9" onmousedown="handleZoom(evt,'out')"/>
                <use id="reset" xlink:href="#resetDef" x="30" y="36" onmousedown="handleReset()"/>
                <g id="arrowUp" xlink:href="#dirArrow" transform="translate(30 24)" onmousedown="handlePan(0,-1)">
                  <use xlink:href="#rim" fill="#404040">
                        <set attributeName="fill" to="#808080" begin="arrowUp.mouseover" end="arrowUp.mouseout"/>
                  </use>
                  <path fill="none" stroke="white" stroke-width="1.5" d="M0,-3.0v7 M-2.5,-0.5L0,-3.0L2.5,-0.5"/>
                </g>
                <g id="arrowRight" xlink:href="#dirArrow" transform="rotate(90) translate(36 -43)" onmousedown="handlePan(1,0)">
                  <use xlink:href="#rim" fill="#404040">
                        <set attributeName="fill" to="#808080" begin="arrowRight.mouseover" end="arrowRight.mouseout"/>
                  </use>
                  <path fill="none" stroke="white" stroke-width="1.5" d="M0,-3.0v7 M-2.5,-0.5L0,-3.0L2.5,-0.5"/>
                </g>
                <g id="arrowDown" xlink:href="#dirArrow" transform="rotate(180) translate(-30 -48)" onmousedown="handlePan(0,1)">
                  <use xlink:href="#rim" fill="#404040">
                        <set attributeName="fill" to="#808080" begin="arrowDown.mouseover" end="arrowDown.mouseout"/>
                  </use>
                  <path fill="none" stroke="white" stroke-width="1.5" d="M0,-3.0v7 M-2.5,-0.5L0,-3.0L2.5,-0.5"/>
                </g>
                <g id="arrowLeft" xlink:href="#dirArrow" transform="rotate(270) translate(-36 17)" onmousedown="handlePan(-1,0)">
                  <use xlink:href="#rim" fill="#404040">
                        <set attributeName="fill" to="#808080" begin="arrowLeft.mouseover" end="arrowLeft.mouseout"/>
                  </use>
                  <path fill="none" stroke="white" stroke-width="1.5" d="M0,-3.0v7 M-2.5,-0.5L0,-3.0L2.5,-0.5"/>
                </g>
        </g>
        <svg viewBox="0 0 15 15" width="100%" height="30px" preserveAspectRatio="xMaxYMin meet">
         <g id="arrow_out" transform="scale(0.3 0.3)">
          <a xlink:href="Game_8hxx__incl_org.svg" target="_base">
           <rect id="button" ry="5" rx="5" y="6" x="6" height="38" width="38"
                fill="#f2f5e9" fill-opacity="0.5" stroke="#606060" stroke-width="1.0"/>
           <path id="arrow"
             d="M 11.500037,31.436501 C 11.940474,20.09759 22.043105,11.32322 32.158766,21.979434 L 37.068811,17.246167 C 37.068811,17.246167 37.088388,32 37.088388,32 L 22.160133,31.978069 C 22.160133,31.978069 26.997745,27.140456 26.997745,27.140456 C 18.528582,18.264221 13.291696,25.230495 11.500037,31.436501 z"
             style="fill:#404040;"/>
          </a>
         </g>
        </svg>
</svg>
