<?xml version="1.0" encoding="UTF-8" standalone="no"?>
<!DOCTYPE svg PUBLIC "-//W3C//DTD SVG 1.1//EN"
 "http://www.w3.org/Graphics/SVG/1.1/DTD/svg11.dtd">
<!-- Generated by graphviz version 2.40.1 (20161225.0304)
 -->
<!-- Title: Graphical Class Hierarchy Pages: 1 -->
<svg width="225pt" height="66pt"
 viewBox="0.00 0.00 225.00 66.00" xmlns="http://www.w3.org/2000/svg" xmlns:xlink="http://www.w3.org/1999/xlink">
<g id="graph0" class="graph" transform="scale(1 1) rotate(0) translate(4 62)">
<title>Graphical Class Hierarchy</title>
<!-- Node64 -->
<g id="node1" class="node">
<title>Node64</title>
<g id="a_node1"><a xlink:href="structSettingsData.html" target="_top" xlink:title="SettingsData">
<polygon fill="none" stroke="#000000" points="22.5,-38.5 22.5,-57.5 102.5,-57.5 102.5,-38.5 22.5,-38.5"/>
<text text-anchor="middle" x="62.5" y="-45.5" font-family="Helvetica,sans-Serif" font-size="10.00" fill="#000000">SettingsData</text>
</a>
</g>
</g>
<!-- Node1 -->
<g id="node2" class="node">
<title>Node1</title>
<g id="a_node2"><a xlink:href="classSettings.html" target="_top" xlink:title="the settings of the client ">
<polygon fill="none" stroke="#000000" points="161,-19.5 161,-38.5 217,-38.5 217,-19.5 161,-19.5"/>
<text text-anchor="middle" x="189" y="-26.5" font-family="Helvetica,sans-Serif" font-size="10.00" fill="#000000">Settings</text>
</a>
</g>
</g>
<!-- Node64&#45;&gt;Node1 -->
<g id="edge1" class="edge">
<title>Node64&#45;&gt;Node1</title>
<path fill="none" stroke="#191970" d="M112.5487,-40.4828C128.9721,-38.0161 146.6384,-35.3626 160.847,-33.2285"/>
<polygon fill="#191970" stroke="#191970" points="111.8946,-37.0417 102.5254,-41.9883 112.9344,-43.9641 111.8946,-37.0417"/>
</g>
<!-- Node0 -->
<g id="node3" class="node">
<title>Node0</title>
<g id="a_node3"><a xlink:href="classSingleton.html" target="_top" xlink:title="Singleton\&lt; Settings \&gt;">
<polygon fill="none" stroke="#000000" points="0,-.5 0,-19.5 125,-19.5 125,-.5 0,-.5"/>
<text text-anchor="middle" x="62.5" y="-7.5" font-family="Helvetica,sans-Serif" font-size="10.00" fill="#000000">Singleton&lt; Settings &gt;</text>
</a>
</g>
</g>
<!-- Node0&#45;&gt;Node1 -->
<g id="edge2" class="edge">
<title>Node0&#45;&gt;Node1</title>
<path fill="none" stroke="#191970" d="M134.9995,-20.8893C144.1456,-22.263 153.028,-23.5971 160.8593,-24.7733"/>
<polygon fill="#191970" stroke="#191970" points="135.4178,-17.4129 125.0088,-19.3887 134.378,-24.3353 135.4178,-17.4129"/>
</g>
</g>
</svg>
