<?xml version="1.0" encoding="UTF-8" standalone="no"?>
<!DOCTYPE svg PUBLIC "-//W3C//DTD SVG 1.1//EN"
 "http://www.w3.org/Graphics/SVG/1.1/DTD/svg11.dtd">
<!-- Generated by graphviz version 2.40.1 (20161225.0304)
 -->
<!-- Title: Graphical Class Hierarchy Pages: 1 -->
<svg width="275pt" height="370pt"
 viewBox="0.00 0.00 275.00 370.00" xmlns="http://www.w3.org/2000/svg" xmlns:xlink="http://www.w3.org/1999/xlink">
<g id="graph0" class="graph" transform="scale(1 1) rotate(0) translate(4 366)">
<title>Graphical Class Hierarchy</title>
<!-- Node0 -->
<g id="node1" class="node">
<title>Node0</title>
<g id="a_node1"><a xlink:href="classUIElement.html" target="_top" xlink:title="Base class for UI Elements Provides functions and variables for derived user interface elements...">
<polygon fill="none" stroke="#000000" points="0,-171.5 0,-190.5 68,-190.5 68,-171.5 0,-171.5"/>
<text text-anchor="middle" x="34" y="-178.5" font-family="Helvetica,sans-Serif" font-size="10.00" fill="#000000">UIElement</text>
</a>
</g>
</g>
<!-- Node1 -->
<g id="node2" class="node">
<title>Node1</title>
<g id="a_node2"><a xlink:href="classBar.html" target="_top" xlink:title="Bar">
<polygon fill="none" stroke="#000000" points="126.5,-342.5 126.5,-361.5 159.5,-361.5 159.5,-342.5 126.5,-342.5"/>
<text text-anchor="middle" x="143" y="-349.5" font-family="Helvetica,sans-Serif" font-size="10.00" fill="#000000">Bar</text>
</a>
</g>
</g>
<!-- Node0&#45;&gt;Node1 -->
<g id="edge1" class="edge">
<title>Node0&#45;&gt;Node1</title>
<path fill="none" stroke="#191970" d="M38.4703,-200.6391C46.5574,-232.1984 66.3764,-294.5485 104,-333 110.1102,-339.2446 118.6905,-343.7312 126.248,-346.7707"/>
<polygon fill="#191970" stroke="#191970" points="41.8536,-199.7394 36.0892,-190.8499 35.0519,-201.3939 41.8536,-199.7394"/>
</g>
<!-- Node2 -->
<g id="node3" class="node">
<title>Node2</title>
<g id="a_node3"><a xlink:href="classButton.html" target="_top" xlink:title="A Button GUI Widget. ">
<polygon fill="none" stroke="#000000" points="118.5,-304.5 118.5,-323.5 167.5,-323.5 167.5,-304.5 118.5,-304.5"/>
<text text-anchor="middle" x="143" y="-311.5" font-family="Helvetica,sans-Serif" font-size="10.00" fill="#000000">Button</text>
</a>
</g>
</g>
<!-- Node0&#45;&gt;Node2 -->
<g id="edge2" class="edge">
<title>Node0&#45;&gt;Node2</title>
<path fill="none" stroke="#191970" d="M41.7089,-200.1859C52.4558,-224.8794 74.0469,-267.8293 104,-295 108.128,-298.7446 113.1283,-301.9119 118.1516,-304.5228"/>
<polygon fill="#191970" stroke="#191970" points="44.8743,-198.6838 37.7743,-190.8199 38.4206,-201.395 44.8743,-198.6838"/>
</g>
<!-- Node3 -->
<g id="node4" class="node">
<title>Node3</title>
<g id="a_node4"><a xlink:href="classButtonGroup.html" target="_top" xlink:title="Class to group buttons and to make sure there&#39;s only one active toggle button in the group When addin...">
<polygon fill="none" stroke="#000000" points="104,-266.5 104,-285.5 182,-285.5 182,-266.5 104,-266.5"/>
<text text-anchor="middle" x="143" y="-273.5" font-family="Helvetica,sans-Serif" font-size="10.00" fill="#000000">ButtonGroup</text>
</a>
</g>
</g>
<!-- Node0&#45;&gt;Node3 -->
<g id="edge3" class="edge">
<title>Node0&#45;&gt;Node3</title>
<path fill="none" stroke="#191970" d="M47.612,-199.3217C60.6722,-215.9599 81.6607,-240.3707 104,-257 108.7124,-260.5079 114.1737,-263.642 119.4901,-266.3044"/>
<polygon fill="#191970" stroke="#191970" points="50.0759,-196.7829 41.2138,-190.9766 44.5207,-201.0421 50.0759,-196.7829"/>
</g>
<!-- Node4 -->
<g id="node5" class="node">
<title>Node4</title>
<g id="a_node5"><a xlink:href="classCheckbox.html" target="_top" xlink:title="A Checkbox GUI Widget. ">
<polygon fill="none" stroke="#000000" points="110.5,-228.5 110.5,-247.5 175.5,-247.5 175.5,-228.5 110.5,-228.5"/>
<text text-anchor="middle" x="143" y="-235.5" font-family="Helvetica,sans-Serif" font-size="10.00" fill="#000000">Checkbox</text>
</a>
</g>
</g>
<!-- Node0&#45;&gt;Node4 -->
<g id="edge4" class="edge">
<title>Node0&#45;&gt;Node4</title>
<path fill="none" stroke="#191970" d="M60.0837,-195.5135C73.1892,-202.7151 89.3575,-211.4634 104,-219 110.027,-222.1021 116.6365,-225.3714 122.674,-228.3068"/>
<polygon fill="#191970" stroke="#191970" points="61.5943,-192.3495 51.1478,-190.5824 58.2122,-198.4783 61.5943,-192.3495"/>
</g>
<!-- Node5 -->
<g id="node6" class="node">
<title>Node5</title>
<g id="a_node6"><a xlink:href="classComboBox.html" target="_top" xlink:title="ComboBox">
<polygon fill="none" stroke="#000000" points="108,-190.5 108,-209.5 178,-209.5 178,-190.5 108,-190.5"/>
<text text-anchor="middle" x="143" y="-197.5" font-family="Helvetica,sans-Serif" font-size="10.00" fill="#000000">ComboBox</text>
</a>
</g>
</g>
<!-- Node0&#45;&gt;Node5 -->
<g id="edge5" class="edge">
<title>Node0&#45;&gt;Node5</title>
<path fill="none" stroke="#191970" d="M78.2246,-188.7089C88.0701,-190.4251 98.3798,-192.2222 107.8048,-193.8651"/>
<polygon fill="#191970" stroke="#191970" points="78.6417,-185.2289 68.1892,-186.9596 77.4396,-192.1249 78.6417,-185.2289"/>
</g>
<!-- Node6 -->
<g id="node7" class="node">
<title>Node6</title>
<g id="a_node7"><a xlink:href="classFrame.html" target="_top" xlink:title="A Frame GUI Widget. ">
<polygon fill="none" stroke="#000000" points="119.5,-152.5 119.5,-171.5 166.5,-171.5 166.5,-152.5 119.5,-152.5"/>
<text text-anchor="middle" x="143" y="-159.5" font-family="Helvetica,sans-Serif" font-size="10.00" fill="#000000">Frame</text>
</a>
</g>
</g>
<!-- Node0&#45;&gt;Node6 -->
<g id="edge6" class="edge">
<title>Node0&#45;&gt;Node6</title>
<path fill="none" stroke="#191970" d="M78.2,-173.2954C92.2555,-170.8454 107.2595,-168.23 119.2867,-166.1335"/>
<polygon fill="#191970" stroke="#191970" points="77.4396,-169.8751 68.1892,-175.0404 78.6417,-176.7711 77.4396,-169.8751"/>
</g>
<!-- Node7 -->
<g id="node8" class="node">
<title>Node7</title>
<g id="a_node8"><a xlink:href="classImage.html" target="_top" xlink:title="An Image GUI Widget. ">
<polygon fill="none" stroke="#000000" points="119.5,-114.5 119.5,-133.5 166.5,-133.5 166.5,-114.5 119.5,-114.5"/>
<text text-anchor="middle" x="143" y="-121.5" font-family="Helvetica,sans-Serif" font-size="10.00" fill="#000000">Image</text>
</a>
</g>
</g>
<!-- Node0&#45;&gt;Node7 -->
<g id="edge7" class="edge">
<title>Node0&#45;&gt;Node7</title>
<path fill="none" stroke="#191970" d="M60.0837,-166.4865C73.1892,-159.2849 89.3575,-150.5366 104,-143 110.027,-139.8979 116.6365,-136.6286 122.674,-133.6932"/>
<polygon fill="#191970" stroke="#191970" points="58.2122,-163.5217 51.1478,-171.4176 61.5943,-169.6505 58.2122,-163.5217"/>
</g>
<!-- Node8 -->
<g id="node9" class="node">
<title>Node8</title>
<g id="a_node9"><a xlink:href="classSlider.html" target="_top" xlink:title="A Slider GUI Widget. ">
<polygon fill="none" stroke="#000000" points="121,-76.5 121,-95.5 165,-95.5 165,-76.5 121,-76.5"/>
<text text-anchor="middle" x="143" y="-83.5" font-family="Helvetica,sans-Serif" font-size="10.00" fill="#000000">Slider</text>
</a>
</g>
</g>
<!-- Node0&#45;&gt;Node8 -->
<g id="edge8" class="edge">
<title>Node0&#45;&gt;Node8</title>
<path fill="none" stroke="#191970" d="M47.612,-162.6783C60.6722,-146.0401 81.6607,-121.6293 104,-105 109.0749,-101.2223 115.0183,-97.8781 120.714,-95.0896"/>
<polygon fill="#191970" stroke="#191970" points="44.5207,-160.9579 41.2138,-171.0234 50.0759,-165.2171 44.5207,-160.9579"/>
</g>
<!-- Node9 -->
<g id="node10" class="node">
<title>Node9</title>
<g id="a_node10"><a xlink:href="classText.html" target="_top" xlink:title="Text">
<polygon fill="none" stroke="#000000" points="124.5,-38.5 124.5,-57.5 161.5,-57.5 161.5,-38.5 124.5,-38.5"/>
<text text-anchor="middle" x="143" y="-45.5" font-family="Helvetica,sans-Serif" font-size="10.00" fill="#000000">Text</text>
</a>
</g>
</g>
<!-- Node0&#45;&gt;Node9 -->
<g id="edge9" class="edge">
<title>Node0&#45;&gt;Node9</title>
<path fill="none" stroke="#191970" d="M41.7089,-161.8141C52.4558,-137.1206 74.0469,-94.1707 104,-67 109.8016,-61.7373 117.3259,-57.6148 124.2157,-54.5747"/>
<polygon fill="#191970" stroke="#191970" points="38.4206,-160.605 37.7743,-171.1801 44.8743,-163.3162 38.4206,-160.605"/>
</g>
<!-- Node11 -->
<g id="node12" class="node">
<title>Node11</title>
<g id="a_node12"><a xlink:href="classTextField.html" target="_top" xlink:title="A TextField GUI Widget. ">
<polygon fill="none" stroke="#000000" points="113.5,-.5 113.5,-19.5 172.5,-19.5 172.5,-.5 113.5,-.5"/>
<text text-anchor="middle" x="143" y="-7.5" font-family="Helvetica,sans-Serif" font-size="10.00" fill="#000000">TextField</text>
</a>
</g>
</g>
<!-- Node0&#45;&gt;Node11 -->
<g id="edge11" class="edge">
<title>Node0&#45;&gt;Node11</title>
<path fill="none" stroke="#191970" d="M38.4703,-161.3609C46.5574,-129.8016 66.3764,-67.4515 104,-29 107.6872,-25.2317 112.2739,-22.1036 116.9925,-19.5473"/>
<polygon fill="#191970" stroke="#191970" points="35.0519,-160.6061 36.0892,-171.1501 41.8536,-162.2606 35.0519,-160.6061"/>
</g>
<!-- Node10 -->
<g id="node11" class="node">
<title>Node10</title>
<g id="a_node11"><a xlink:href="classTooltip.html" target="_top" xlink:title="Tooltip">
<polygon fill="none" stroke="#000000" points="218,-38.5 218,-57.5 267,-57.5 267,-38.5 218,-38.5"/>
<text text-anchor="middle" x="242.5" y="-45.5" font-family="Helvetica,sans-Serif" font-size="10.00" fill="#000000">Tooltip</text>
</a>
</g>
</g>
<!-- Node9&#45;&gt;Node10 -->
<g id="edge10" class="edge">
<title>Node9&#45;&gt;Node10</title>
<path fill="none" stroke="#191970" d="M171.7268,-48C186.3225,-48 203.8765,-48 217.8506,-48"/>
<polygon fill="#191970" stroke="#191970" points="171.7152,-44.5001 161.7152,-48 171.7152,-51.5001 171.7152,-44.5001"/>
</g>
</g>
</svg>
