<?xml version="1.0" encoding="UTF-8" standalone="no"?>
<!DOCTYPE svg PUBLIC "-//W3C//DTD SVG 1.1//EN"
 "http://www.w3.org/Graphics/SVG/1.1/DTD/svg11.dtd">
<!-- Generated by graphviz version 2.40.1 (20161225.0304)
 -->
<!-- Title: src/engine/basics/isoMath.hxx Pages: 1 -->
<svg width="794pt" height="84pt"
 viewBox="0.00 0.00 793.50 84.00" xmlns="http://www.w3.org/2000/svg" xmlns:xlink="http://www.w3.org/1999/xlink">
<g id="graph0" class="graph" transform="scale(1 1) rotate(0) translate(4 80)">
<title>src/engine/basics/isoMath.hxx</title>
<!-- Node5 -->
<g id="node1" class="node">
<title>Node5</title>
<polygon fill="#bfbfbf" stroke="#000000" points="358.5,-56.5 358.5,-75.5 521.5,-75.5 521.5,-56.5 358.5,-56.5"/>
<text text-anchor="middle" x="440" y="-63.5" font-family="Helvetica,sans-Serif" font-size="10.00" fill="#000000">src/engine/basics/isoMath.hxx</text>
</g>
<!-- Node6 -->
<g id="node2" class="node">
<title>Node6</title>
<g id="a_node2"><a xlink:href="Camera_8cxx.html" target="_top" xlink:title="src/engine/basics/Camera.cxx">
<polygon fill="none" stroke="#000000" points="0,-.5 0,-19.5 162,-19.5 162,-.5 0,-.5"/>
<text text-anchor="middle" x="81" y="-7.5" font-family="Helvetica,sans-Serif" font-size="10.00" fill="#000000">src/engine/basics/Camera.cxx</text>
</a>
</g>
</g>
<!-- Node5&#45;&gt;Node6 -->
<g id="edge1" class="edge">
<title>Node5&#45;&gt;Node6</title>
<path fill="none" stroke="#191970" d="M368.7467,-54.8853C302.4874,-44.5496 204.8199,-29.3145 142.0535,-19.5237"/>
<polygon fill="#191970" stroke="#191970" points="368.2736,-58.3537 378.6936,-56.4369 369.3526,-51.4374 368.2736,-58.3537"/>
</g>
<!-- Node7 -->
<g id="node3" class="node">
<title>Node7</title>
<g id="a_node3"><a xlink:href="isoMath_8cxx.html" target="_top" xlink:title="src/engine/basics/isoMath.cxx">
<polygon fill="none" stroke="#000000" points="180,-.5 180,-19.5 342,-19.5 342,-.5 180,-.5"/>
<text text-anchor="middle" x="261" y="-7.5" font-family="Helvetica,sans-Serif" font-size="10.00" fill="#000000">src/engine/basics/isoMath.cxx</text>
</a>
</g>
</g>
<!-- Node5&#45;&gt;Node7 -->
<g id="edge2" class="edge">
<title>Node5&#45;&gt;Node7</title>
<path fill="none" stroke="#191970" d="M399.4805,-53.3235C366.6534,-43.0536 321.1224,-28.8093 291.3697,-19.5011"/>
<polygon fill="#191970" stroke="#191970" points="398.6399,-56.7278 409.2288,-56.3733 400.73,-50.0471 398.6399,-56.7278"/>
</g>
<!-- Node8 -->
<g id="node4" class="node">
<title>Node8</title>
<g id="a_node4"><a xlink:href="EventManager_8cxx.html" target="_top" xlink:title="src/engine/EventManager.cxx">
<polygon fill="none" stroke="#000000" points="360.5,-.5 360.5,-19.5 519.5,-19.5 519.5,-.5 360.5,-.5"/>
<text text-anchor="middle" x="440" y="-7.5" font-family="Helvetica,sans-Serif" font-size="10.00" fill="#000000">src/engine/EventManager.cxx</text>
</a>
</g>
</g>
<!-- Node5&#45;&gt;Node8 -->
<g id="edge3" class="edge">
<title>Node5&#45;&gt;Node8</title>
<path fill="none" stroke="#191970" d="M440,-46.1575C440,-37.155 440,-26.9199 440,-19.6427"/>
<polygon fill="#191970" stroke="#191970" points="436.5001,-46.2455 440,-56.2455 443.5001,-46.2456 436.5001,-46.2455"/>
</g>
<!-- Node9 -->
<g id="node5" class="node">
<title>Node9</title>
<g id="a_node5"><a xlink:href="Map_8cxx.html" target="_top" xlink:title="src/engine/Map.cxx">
<polygon fill="none" stroke="#000000" points="538,-.5 538,-19.5 648,-19.5 648,-.5 538,-.5"/>
<text text-anchor="middle" x="593" y="-7.5" font-family="Helvetica,sans-Serif" font-size="10.00" fill="#000000">src/engine/Map.cxx</text>
</a>
</g>
</g>
<!-- Node5&#45;&gt;Node9 -->
<g id="edge4" class="edge">
<title>Node5&#45;&gt;Node9</title>
<path fill="none" stroke="#191970" d="M475.7279,-52.9231C503.6971,-42.686 541.9393,-28.6889 567.0416,-19.5011"/>
<polygon fill="#191970" stroke="#191970" points="474.4894,-49.6493 466.3016,-56.3733 476.8954,-56.2228 474.4894,-49.6493"/>
</g>
<!-- Node10 -->
<g id="node6" class="node">
<title>Node10</title>
<g id="a_node6"><a xlink:href="Sprite_8cxx.html" target="_top" xlink:title="src/engine/Sprite.cxx">
<polygon fill="none" stroke="#000000" points="666.5,-.5 666.5,-19.5 785.5,-19.5 785.5,-.5 666.5,-.5"/>
<text text-anchor="middle" x="726" y="-7.5" font-family="Helvetica,sans-Serif" font-size="10.00" fill="#000000">src/engine/Sprite.cxx</text>
</a>
</g>
</g>
<!-- Node5&#45;&gt;Node10 -->
<g id="edge5" class="edge">
<title>Node5&#45;&gt;Node10</title>
<path fill="none" stroke="#191970" d="M498.7268,-54.501C551.4635,-44.175 627.974,-29.1939 677.3613,-19.5237"/>
<polygon fill="#191970" stroke="#191970" points="497.9813,-51.0805 488.8402,-56.4369 499.3264,-57.95 497.9813,-51.0805"/>
</g>
</g>
</svg>
