<?xml version="1.0" encoding="UTF-8" standalone="no"?>
<!DOCTYPE svg PUBLIC "-//W3C//DTD SVG 1.1//EN"
 "http://www.w3.org/Graphics/SVG/1.1/DTD/svg11.dtd">
<!-- Generated by graphviz version 2.40.1 (20161225.0304)
 -->
<!-- Title: calculateIsoCoordinates Pages: 1 -->
<svg width="1000pt" height="47pt"
 viewBox="0.00 0.00 1000.00 47.00" xmlns="http://www.w3.org/2000/svg" xmlns:xlink="http://www.w3.org/1999/xlink">
<g id="graph0" class="graph" transform="scale(1 1) rotate(0) translate(4 43)">
<title>calculateIsoCoordinates</title>
<!-- Node1 -->
<g id="node1" class="node">
<title>Node1</title>
<polygon fill="#bfbfbf" stroke="#000000" points="0,-19.5 0,-38.5 134,-38.5 134,-19.5 0,-19.5"/>
<text text-anchor="middle" x="67" y="-26.5" font-family="Helvetica,sans-Serif" font-size="10.00" fill="#000000">calculateIsoCoordinates</text>
</g>
<!-- Node2 -->
<g id="node2" class="node">
<title>Node2</title>
<g id="a_node2"><a xlink:href="isoMath_8hxx.html#ad3c5f070c4a876bc6e8978635d02ce52" target="_top" xlink:title="converts screen space coordinates to isometric space coordinates. To convert screen coordinates in to...">
<polygon fill="none" stroke="#000000" points="322,-19.5 322,-38.5 492,-38.5 492,-19.5 322,-19.5"/>
<text text-anchor="middle" x="407" y="-26.5" font-family="Helvetica,sans-Serif" font-size="10.00" fill="#000000">convertScreenToIsoCoordinates</text>
</a>
</g>
</g>
<!-- Node1&#45;&gt;Node2 -->
<g id="edge1" class="edge">
<title>Node1&#45;&gt;Node2</title>
<path fill="none" stroke="#191970" d="M144.1787,-29C197.0889,-29 267.299,-29 321.8411,-29"/>
<polygon fill="#191970" stroke="#191970" points="144.1731,-25.5001 134.1731,-29 144.173,-32.5001 144.1731,-25.5001"/>
</g>
<!-- Node7 -->
<g id="node7" class="node">
<title>Node7</title>
<g id="a_node7"><a xlink:href="classMap.html#a8cc1c9d35ae2c3ede6bc0fcc59b9aa41" target="_top" xlink:title="Returns the node at given screencoordinates. ">
<polygon fill="none" stroke="#000000" points="170,-.5 170,-19.5 286,-19.5 286,-.5 170,-.5"/>
<text text-anchor="middle" x="228" y="-7.5" font-family="Helvetica,sans-Serif" font-size="10.00" fill="#000000">Map::findNodeInMap</text>
</a>
</g>
</g>
<!-- Node1&#45;&gt;Node7 -->
<g id="edge6" class="edge">
<title>Node1&#45;&gt;Node7</title>
<path fill="none" stroke="#191970" d="M144.3748,-19.8688C152.9566,-18.856 161.5859,-17.8377 169.8717,-16.8599"/>
<polygon fill="#191970" stroke="#191970" points="143.8665,-16.4044 134.3456,-21.0524 144.6869,-23.3562 143.8665,-16.4044"/>
</g>
<!-- Node3 -->
<g id="node3" class="node">
<title>Node3</title>
<g id="a_node3"><a xlink:href="classEventManager.html#a65ec91fd5016d4f9c4167fb8babed2df" target="_top" xlink:title="EventManager::checkEvents">
<polygon fill="none" stroke="#000000" points="528,-19.5 528,-38.5 682,-38.5 682,-19.5 528,-19.5"/>
<text text-anchor="middle" x="605" y="-26.5" font-family="Helvetica,sans-Serif" font-size="10.00" fill="#000000">EventManager::checkEvents</text>
</a>
</g>
</g>
<!-- Node2&#45;&gt;Node3 -->
<g id="edge2" class="edge">
<title>Node2&#45;&gt;Node3</title>
<path fill="none" stroke="#191970" d="M502.161,-29C510.7436,-29 519.3647,-29 527.7658,-29"/>
<polygon fill="#191970" stroke="#191970" points="502.1189,-25.5001 492.1189,-29 502.1189,-32.5001 502.1189,-25.5001"/>
</g>
<!-- Node4 -->
<g id="node4" class="node">
<title>Node4</title>
<g id="a_node4"><a xlink:href="classGame.html#a1c2ab25d5216b2f4b2fe41efd2c09114" target="_top" xlink:title="begins the game starts running the game ">
<polygon fill="none" stroke="#000000" points="718,-19.5 718,-38.5 786,-38.5 786,-19.5 718,-19.5"/>
<text text-anchor="middle" x="752" y="-26.5" font-family="Helvetica,sans-Serif" font-size="10.00" fill="#000000">Game::run</text>
</a>
</g>
</g>
<!-- Node3&#45;&gt;Node4 -->
<g id="edge3" class="edge">
<title>Node3&#45;&gt;Node4</title>
<path fill="none" stroke="#191970" d="M692.5248,-29C701.4338,-29 710.0572,-29 717.845,-29"/>
<polygon fill="#191970" stroke="#191970" points="692.3744,-25.5001 682.3744,-29 692.3743,-32.5001 692.3744,-25.5001"/>
</g>
<!-- Node5 -->
<g id="node5" class="node">
<title>Node5</title>
<g id="a_node5"><a xlink:href="main_8cxx.html#af582d708d899e67ead623eac34a22387" target="_top" xlink:title="protected_main">
<polygon fill="none" stroke="#000000" points="822,-19.5 822,-38.5 915,-38.5 915,-19.5 822,-19.5"/>
<text text-anchor="middle" x="868.5" y="-26.5" font-family="Helvetica,sans-Serif" font-size="10.00" fill="#000000">protected_main</text>
</a>
</g>
</g>
<!-- Node4&#45;&gt;Node5 -->
<g id="edge4" class="edge">
<title>Node4&#45;&gt;Node5</title>
<path fill="none" stroke="#191970" d="M796.2653,-29C804.5757,-29 813.2897,-29 821.6749,-29"/>
<polygon fill="#191970" stroke="#191970" points="796.0098,-25.5001 786.0098,-29 796.0098,-32.5001 796.0098,-25.5001"/>
</g>
<!-- Node6 -->
<g id="node6" class="node">
<title>Node6</title>
<g id="a_node6"><a xlink:href="main_8cxx.html#a3c04138a5bfe5d72780bb7e82a18e627" target="_top" xlink:title="main">
<polygon fill="none" stroke="#000000" points="951,-19.5 951,-38.5 992,-38.5 992,-19.5 951,-19.5"/>
<text text-anchor="middle" x="971.5" y="-26.5" font-family="Helvetica,sans-Serif" font-size="10.00" fill="#000000">main</text>
</a>
</g>
</g>
<!-- Node5&#45;&gt;Node6 -->
<g id="edge5" class="edge">
<title>Node5&#45;&gt;Node6</title>
<path fill="none" stroke="#191970" d="M925.2133,-29C934.4322,-29 943.4259,-29 950.9965,-29"/>
<polygon fill="#191970" stroke="#191970" points="925.1782,-25.5001 915.1782,-29 925.1781,-32.5001 925.1782,-25.5001"/>
</g>
<!-- Node7&#45;&gt;Node2 -->
<g id="edge7" class="edge">
<title>Node7&#45;&gt;Node2</title>
<path fill="none" stroke="#191970" d="M296.2057,-17.2397C304.6028,-18.131 313.2655,-19.0505 321.874,-19.9643"/>
<polygon fill="#191970" stroke="#191970" points="296.4298,-13.7439 286.1162,-16.1688 295.6908,-20.7048 296.4298,-13.7439"/>
</g>
</g>
</svg>
