<?xml version="1.0" encoding="UTF-8" standalone="no"?>
<!DOCTYPE svg PUBLIC "-//W3C//DTD SVG 1.1//EN"
 "http://www.w3.org/Graphics/SVG/1.1/DTD/svg11.dtd">
<!-- Generated by graphviz version 2.40.1 (20161225.0304)
 -->
<!-- Title: convertIsoToScreenCoordinates Pages: 1 -->
<svg width="1267pt" height="192pt"
 viewBox="0.00 0.00 1267.00 191.50" xmlns="http://www.w3.org/2000/svg" xmlns:xlink="http://www.w3.org/1999/xlink">
<g id="graph0" class="graph" transform="scale(1 1) rotate(0) translate(4 187.5)">
<title>convertIsoToScreenCoordinates</title>
<!-- Node11 -->
<g id="node1" class="node">
<title>Node11</title>
<polygon fill="#bfbfbf" stroke="#000000" points="0,-38.5 0,-57.5 170,-57.5 170,-38.5 0,-38.5"/>
<text text-anchor="middle" x="85" y="-45.5" font-family="Helvetica,sans-Serif" font-size="10.00" fill="#000000">convertIsoToScreenCoordinates</text>
</g>
<!-- Node12 -->
<g id="node2" class="node">
<title>Node12</title>
<g id="a_node2"><a xlink:href="classCamera.html#adfb240823ff20b97b69459490dbd8dc3" target="_top" xlink:title="Centers camera on given isometric coordinates Centers the camera on the given isometric coordinates...">
<polygon fill="none" stroke="#000000" points="206,-76.5 206,-95.5 369,-95.5 369,-76.5 206,-76.5"/>
<text text-anchor="middle" x="287.5" y="-83.5" font-family="Helvetica,sans-Serif" font-size="10.00" fill="#000000">Camera::centerScreenOnPoint</text>
</a>
</g>
</g>
<!-- Node11&#45;&gt;Node12 -->
<g id="edge1" class="edge">
<title>Node11&#45;&gt;Node12</title>
<path fill="none" stroke="#191970" d="M145.8466,-59.4181C174.8207,-64.8552 209.0752,-71.2832 236.6412,-76.4561"/>
<polygon fill="#191970" stroke="#191970" points="146.3119,-55.9444 135.8379,-57.54 145.0208,-62.8243 146.3119,-55.9444"/>
</g>
<!-- Node21 -->
<g id="node11" class="node">
<title>Node21</title>
<g id="a_node11"><a xlink:href="classSprite.html#abcd3ca18d49d4eef5cfd5955b9975518" target="_top" xlink:title="Sprite::Sprite">
<polygon fill="none" stroke="#000000" points="247.5,-38.5 247.5,-57.5 327.5,-57.5 327.5,-38.5 247.5,-38.5"/>
<text text-anchor="middle" x="287.5" y="-45.5" font-family="Helvetica,sans-Serif" font-size="10.00" fill="#000000">Sprite::Sprite</text>
</a>
</g>
</g>
<!-- Node11&#45;&gt;Node21 -->
<g id="edge15" class="edge">
<title>Node11&#45;&gt;Node21</title>
<path fill="none" stroke="#191970" d="M180.3593,-48C203.9474,-48 227.9632,-48 247.2627,-48"/>
<polygon fill="#191970" stroke="#191970" points="180.2914,-44.5001 170.2913,-48 180.2913,-51.5001 180.2914,-44.5001"/>
</g>
<!-- Node22 -->
<g id="node12" class="node">
<title>Node22</title>
<g id="a_node12"><a xlink:href="classSprite.html#ababb7913a4d642b0d20a2c48c2a7e77a" target="_top" xlink:title="Sprite::refresh">
<polygon fill="none" stroke="#000000" points="244.5,-.5 244.5,-19.5 330.5,-19.5 330.5,-.5 244.5,-.5"/>
<text text-anchor="middle" x="287.5" y="-7.5" font-family="Helvetica,sans-Serif" font-size="10.00" fill="#000000">Sprite::refresh</text>
</a>
</g>
</g>
<!-- Node11&#45;&gt;Node22 -->
<g id="edge16" class="edge">
<title>Node11&#45;&gt;Node22</title>
<path fill="none" stroke="#191970" d="M145.8812,-36.5754C177.5578,-30.6311 215.5383,-23.5039 244.1892,-18.1275"/>
<polygon fill="#191970" stroke="#191970" points="145.0208,-33.1757 135.8379,-38.46 146.3119,-40.0556 145.0208,-33.1757"/>
</g>
<!-- Node13 -->
<g id="node3" class="node">
<title>Node13</title>
<g id="a_node3"><a xlink:href="classCamera.html#a0a8ee04ccb4f4cc9af52a964cf225f66" target="_top" xlink:title="Increases the zoom level of the camera Increases the zoom level of the camera. ">
<polygon fill="none" stroke="#000000" points="406.5,-114.5 406.5,-133.5 563.5,-133.5 563.5,-114.5 406.5,-114.5"/>
<text text-anchor="middle" x="485" y="-121.5" font-family="Helvetica,sans-Serif" font-size="10.00" fill="#000000">Camera::increaseZoomLevel</text>
</a>
</g>
</g>
<!-- Node12&#45;&gt;Node13 -->
<g id="edge2" class="edge">
<title>Node12&#45;&gt;Node13</title>
<path fill="none" stroke="#191970" d="M347.2147,-97.4894C375.3946,-102.9114 408.629,-109.3058 435.3969,-114.4561"/>
<polygon fill="#191970" stroke="#191970" points="347.5639,-93.9925 337.0827,-95.54 346.2412,-100.8664 347.5639,-93.9925"/>
</g>
<!-- Node14 -->
<g id="node4" class="node">
<title>Node14</title>
<g id="a_node4"><a xlink:href="classCamera.html#a1f8ecd427814c5a4970223c2d13b9310" target="_top" xlink:title="Camera::setPinchDistance">
<polygon fill="none" stroke="#000000" points="607.5,-76.5 607.5,-95.5 752.5,-95.5 752.5,-76.5 607.5,-76.5"/>
<text text-anchor="middle" x="680" y="-83.5" font-family="Helvetica,sans-Serif" font-size="10.00" fill="#000000">Camera::setPinchDistance</text>
</a>
</g>
</g>
<!-- Node12&#45;&gt;Node14 -->
<g id="edge12" class="edge">
<title>Node12&#45;&gt;Node14</title>
<path fill="none" stroke="#191970" d="M379.3678,-86C448.8384,-86 542.9227,-86 607.224,-86"/>
<polygon fill="#191970" stroke="#191970" points="379.3031,-82.5001 369.3031,-86 379.3031,-89.5001 379.3031,-82.5001"/>
</g>
<!-- Node19 -->
<g id="node9" class="node">
<title>Node19</title>
<g id="a_node9"><a xlink:href="classCamera.html#aeea39f352d5873495dea6f376cf3207e" target="_top" xlink:title="Decreases the zoom level of the camera Decreases the zoom level of the camera. ">
<polygon fill="none" stroke="#000000" points="405,-38.5 405,-57.5 565,-57.5 565,-38.5 405,-38.5"/>
<text text-anchor="middle" x="485" y="-45.5" font-family="Helvetica,sans-Serif" font-size="10.00" fill="#000000">Camera::decreaseZoomLevel</text>
</a>
</g>
</g>
<!-- Node12&#45;&gt;Node19 -->
<g id="edge9" class="edge">
<title>Node12&#45;&gt;Node19</title>
<path fill="none" stroke="#191970" d="M347.2147,-74.5106C375.3946,-69.0886 408.629,-62.6942 435.3969,-57.5439"/>
<polygon fill="#191970" stroke="#191970" points="346.2412,-71.1336 337.0827,-76.46 347.5639,-78.0075 346.2412,-71.1336"/>
</g>
<!-- Node20 -->
<g id="node10" class="node">
<title>Node20</title>
<g id="a_node10"><a xlink:href="classCamera.html#af29da768f8948f3afbf0a9b43530eb1d" target="_top" xlink:title="Centers camera on the middle of the map Centers the camera on the middle of the map. ">
<polygon fill="none" stroke="#000000" points="601,-153 601,-183 759,-183 759,-153 601,-153"/>
<text text-anchor="start" x="609" y="-171" font-family="Helvetica,sans-Serif" font-size="10.00" fill="#000000">Camera::centerScreenOnMap</text>
<text text-anchor="middle" x="680" y="-160" font-family="Helvetica,sans-Serif" font-size="10.00" fill="#000000">Center</text>
</a>
</g>
</g>
<!-- Node12&#45;&gt;Node20 -->
<g id="edge13" class="edge">
<title>Node12&#45;&gt;Node20</title>
<path fill="none" stroke="#191970" d="M311.4836,-100.8456C334.5383,-114.3233 370.8254,-133.4992 405,-143 469.3171,-160.8807 545.0303,-166.7061 600.7119,-168.3005"/>
<polygon fill="#191970" stroke="#191970" points="313.13,-97.7524 302.748,-95.6396 309.5464,-103.7656 313.13,-97.7524"/>
</g>
<!-- Node13&#45;&gt;Node14 -->
<g id="edge3" class="edge">
<title>Node13&#45;&gt;Node14</title>
<path fill="none" stroke="#191970" d="M543.9588,-112.5106C571.782,-107.0886 604.5957,-100.6942 631.0248,-95.5439"/>
<polygon fill="#191970" stroke="#191970" points="543.1009,-109.1118 533.955,-114.46 544.4399,-115.9826 543.1009,-109.1118"/>
</g>
<!-- Node15 -->
<g id="node5" class="node">
<title>Node15</title>
<g id="a_node5"><a xlink:href="classEventManager.html#a65ec91fd5016d4f9c4167fb8babed2df" target="_top" xlink:title="EventManager::checkEvents">
<polygon fill="none" stroke="#000000" points="795,-95.5 795,-114.5 949,-114.5 949,-95.5 795,-95.5"/>
<text text-anchor="middle" x="872" y="-102.5" font-family="Helvetica,sans-Serif" font-size="10.00" fill="#000000">EventManager::checkEvents</text>
</a>
</g>
</g>
<!-- Node13&#45;&gt;Node15 -->
<g id="edge8" class="edge">
<title>Node13&#45;&gt;Node15</title>
<path fill="none" stroke="#191970" d="M573.8735,-119.6367C640.6684,-116.3574 731.2485,-111.9103 794.9795,-108.7814"/>
<polygon fill="#191970" stroke="#191970" points="573.598,-116.1459 563.7817,-120.1322 573.9413,-123.1375 573.598,-116.1459"/>
</g>
<!-- Node14&#45;&gt;Node15 -->
<g id="edge4" class="edge">
<title>Node14&#45;&gt;Node15</title>
<path fill="none" stroke="#191970" d="M762.7207,-94.1859C773.3799,-95.2407 784.2617,-96.3176 794.8269,-97.3631"/>
<polygon fill="#191970" stroke="#191970" points="762.8831,-90.685 752.587,-93.1831 762.1937,-97.6509 762.8831,-90.685"/>
</g>
<!-- Node16 -->
<g id="node6" class="node">
<title>Node16</title>
<g id="a_node6"><a xlink:href="classGame.html#a1c2ab25d5216b2f4b2fe41efd2c09114" target="_top" xlink:title="begins the game starts running the game ">
<polygon fill="none" stroke="#000000" points="985,-114.5 985,-133.5 1053,-133.5 1053,-114.5 985,-114.5"/>
<text text-anchor="middle" x="1019" y="-121.5" font-family="Helvetica,sans-Serif" font-size="10.00" fill="#000000">Game::run</text>
</a>
</g>
</g>
<!-- Node15&#45;&gt;Node16 -->
<g id="edge5" class="edge">
<title>Node15&#45;&gt;Node16</title>
<path fill="none" stroke="#191970" d="M956.0861,-115.8683C966.1799,-117.1729 976.0017,-118.4424 984.7683,-119.5755"/>
<polygon fill="#191970" stroke="#191970" points="956.2968,-112.3665 945.9307,-114.5557 955.3995,-119.3087 956.2968,-112.3665"/>
</g>
<!-- Node17 -->
<g id="node7" class="node">
<title>Node17</title>
<g id="a_node7"><a xlink:href="main_8cxx.html#af582d708d899e67ead623eac34a22387" target="_top" xlink:title="protected_main">
<polygon fill="none" stroke="#000000" points="1089,-114.5 1089,-133.5 1182,-133.5 1182,-114.5 1089,-114.5"/>
<text text-anchor="middle" x="1135.5" y="-121.5" font-family="Helvetica,sans-Serif" font-size="10.00" fill="#000000">protected_main</text>
</a>
</g>
</g>
<!-- Node16&#45;&gt;Node17 -->
<g id="edge6" class="edge">
<title>Node16&#45;&gt;Node17</title>
<path fill="none" stroke="#191970" d="M1063.2653,-124C1071.5757,-124 1080.2897,-124 1088.6749,-124"/>
<polygon fill="#191970" stroke="#191970" points="1063.0098,-120.5001 1053.0098,-124 1063.0098,-127.5001 1063.0098,-120.5001"/>
</g>
<!-- Node18 -->
<g id="node8" class="node">
<title>Node18</title>
<g id="a_node8"><a xlink:href="main_8cxx.html#a3c04138a5bfe5d72780bb7e82a18e627" target="_top" xlink:title="main">
<polygon fill="none" stroke="#000000" points="1218,-114.5 1218,-133.5 1259,-133.5 1259,-114.5 1218,-114.5"/>
<text text-anchor="middle" x="1238.5" y="-121.5" font-family="Helvetica,sans-Serif" font-size="10.00" fill="#000000">main</text>
</a>
</g>
</g>
<!-- Node17&#45;&gt;Node18 -->
<g id="edge7" class="edge">
<title>Node17&#45;&gt;Node18</title>
<path fill="none" stroke="#191970" d="M1192.2133,-124C1201.4322,-124 1210.4259,-124 1217.9965,-124"/>
<polygon fill="#191970" stroke="#191970" points="1192.1782,-120.5001 1182.1782,-124 1192.1781,-127.5001 1192.1782,-120.5001"/>
</g>
<!-- Node19&#45;&gt;Node14 -->
<g id="edge10" class="edge">
<title>Node19&#45;&gt;Node14</title>
<path fill="none" stroke="#191970" d="M543.9588,-59.4894C571.782,-64.9114 604.5957,-71.3058 631.0248,-76.4561"/>
<polygon fill="#191970" stroke="#191970" points="544.4399,-56.0174 533.955,-57.54 543.1009,-62.8882 544.4399,-56.0174"/>
</g>
<!-- Node19&#45;&gt;Node15 -->
<g id="edge11" class="edge">
<title>Node19&#45;&gt;Node15</title>
<path fill="none" stroke="#191970" d="M575.3441,-48.4912C629.1334,-50.2109 698.484,-54.9332 759,-67 791.0709,-73.3949 826.5983,-86.3711 849.0991,-95.3688"/>
<polygon fill="#191970" stroke="#191970" points="575.242,-44.9868 565.1446,-48.195 575.0387,-51.9839 575.242,-44.9868"/>
</g>
<!-- Node20&#45;&gt;Node16 -->
<g id="edge14" class="edge">
<title>Node20&#45;&gt;Node16</title>
<path fill="none" stroke="#191970" d="M769.2863,-156.4112C839.8907,-147.2472 934.6287,-134.9509 984.6803,-128.4545"/>
<polygon fill="#191970" stroke="#191970" points="768.5189,-152.9814 759.0526,-157.7395 769.4199,-159.9231 768.5189,-152.9814"/>
</g>
<!-- Node23 -->
<g id="node13" class="node">
<title>Node23</title>
<g id="a_node13"><a xlink:href="classSprite.html#afe62071332bb38f2e262b63c3ee37736" target="_top" xlink:title="Sprite::setTexture">
<polygon fill="none" stroke="#000000" points="434,-.5 434,-19.5 536,-19.5 536,-.5 434,-.5"/>
<text text-anchor="middle" x="485" y="-7.5" font-family="Helvetica,sans-Serif" font-size="10.00" fill="#000000">Sprite::setTexture</text>
</a>
</g>
</g>
<!-- Node22&#45;&gt;Node23 -->
<g id="edge17" class="edge">
<title>Node22&#45;&gt;Node23</title>
<path fill="none" stroke="#191970" d="M341.1351,-10C369.9416,-10 405.2724,-10 433.7122,-10"/>
<polygon fill="#191970" stroke="#191970" points="340.8422,-6.5001 330.8422,-10 340.8422,-13.5001 340.8422,-6.5001"/>
</g>
</g>
</svg>
