<?xml version="1.0" encoding="UTF-8" standalone="no"?>
<!DOCTYPE svg PUBLIC "-//W3C//DTD SVG 1.1//EN"
 "http://www.w3.org/Graphics/SVG/1.1/DTD/svg11.dtd">
<!-- Generated by graphviz version 2.40.1 (20161225.0304)
 -->
<!-- Title: isPointWithinMapBoundaries Pages: 1 -->
<svg width="1861pt" height="665pt"
 viewBox="0.00 0.00 1861.00 665.12" xmlns="http://www.w3.org/2000/svg" xmlns:xlink="http://www.w3.org/1999/xlink">
<g id="graph0" class="graph" transform="scale(1 1) rotate(0) translate(4 661.1241)">
<title>isPointWithinMapBoundaries</title>
<!-- Node63 -->
<g id="node1" class="node">
<title>Node63</title>
<polygon fill="#bfbfbf" stroke="#000000" points="0,-203.215 0,-222.215 156,-222.215 156,-203.215 0,-203.215"/>
<text text-anchor="middle" x="78" y="-210.215" font-family="Helvetica,sans-Serif" font-size="10.00" fill="#000000">isPointWithinMapBoundaries</text>
</g>
<!-- Node64 -->
<g id="node2" class="node">
<title>Node64</title>
<g id="a_node2"><a xlink:href="classCamera.html#adfb240823ff20b97b69459490dbd8dc3" target="_top" xlink:title="Centers camera on given isometric coordinates Centers the camera on the given isometric coordinates...">
<polygon fill="none" stroke="#000000" points="789,-79.215 789,-98.215 952,-98.215 952,-79.215 789,-79.215"/>
<text text-anchor="middle" x="870.5" y="-86.215" font-family="Helvetica,sans-Serif" font-size="10.00" fill="#000000">Camera::centerScreenOnPoint</text>
</a>
</g>
</g>
<!-- Node63&#45;&gt;Node64 -->
<g id="edge1" class="edge">
<title>Node63&#45;&gt;Node64</title>
<path fill="none" stroke="#191970" d="M92.1934,-195.3032C111.8684,-172.6424 149.808,-134.0179 192,-117.715 298.61,-76.521 632.8902,-81.0888 788.8552,-85.7317"/>
<polygon fill="#191970" stroke="#191970" points="89.3618,-193.2312 85.5763,-203.1267 94.7065,-197.7517 89.3618,-193.2312"/>
</g>
<!-- Node67 -->
<g id="node5" class="node">
<title>Node67</title>
<g id="a_node5"><a xlink:href="classEventManager.html#a65ec91fd5016d4f9c4167fb8babed2df" target="_top" xlink:title="EventManager::checkEvents">
<polygon fill="none" stroke="#000000" points="1377,-250.215 1377,-269.215 1531,-269.215 1531,-250.215 1377,-250.215"/>
<text text-anchor="middle" x="1454" y="-257.215" font-family="Helvetica,sans-Serif" font-size="10.00" fill="#000000">EventManager::checkEvents</text>
</a>
</g>
</g>
<!-- Node63&#45;&gt;Node67 -->
<g id="edge16" class="edge">
<title>Node63&#45;&gt;Node67</title>
<path fill="none" stroke="#191970" d="M166.6013,-212.3828C219.2981,-212.2681 287.467,-212.264 348,-212.715 784.2497,-215.965 894.3104,-209.7114 1329,-246.715 1344.4353,-248.0289 1360.9237,-249.614 1376.6939,-251.2188"/>
<polygon fill="#191970" stroke="#191970" points="166.2668,-208.8835 156.2751,-212.4071 166.2834,-215.8834 166.2668,-208.8835"/>
</g>
<!-- Node73 -->
<g id="node11" class="node">
<title>Node73</title>
<g id="a_node11"><a xlink:href="isoMath_8hxx.html#aaaee008d05e747ab820bebea19db8506" target="_top" xlink:title="isPointWithinMapBoundaries">
<polygon fill="none" stroke="#000000" points="192,-51.215 192,-70.215 348,-70.215 348,-51.215 192,-51.215"/>
<text text-anchor="middle" x="270" y="-58.215" font-family="Helvetica,sans-Serif" font-size="10.00" fill="#000000">isPointWithinMapBoundaries</text>
</a>
</g>
</g>
<!-- Node63&#45;&gt;Node73 -->
<g id="edge15" class="edge">
<title>Node63&#45;&gt;Node73</title>
<path fill="none" stroke="#191970" d="M89.4995,-194.3697C107.8299,-166.6077 146.3064,-114.0575 192,-84.715 201.6566,-78.5139 213.0112,-73.8342 224.0226,-70.334"/>
<polygon fill="#191970" stroke="#191970" points="86.3614,-192.7775 83.8772,-203.077 92.2421,-196.5746 86.3614,-192.7775"/>
</g>
<!-- Node74 -->
<g id="node12" class="node">
<title>Node74</title>
<g id="a_node12"><a xlink:href="classMap.html#aba5154a4d917900679a3c0f7ec701561" target="_top" xlink:title="Increase Height Increases the height of the node and checks the surrounding tiles. Either draw a slope sprite or elevate the tile if necessary. ">
<polygon fill="none" stroke="#000000" points="212,-330.215 212,-349.215 328,-349.215 328,-330.215 212,-330.215"/>
<text text-anchor="middle" x="270" y="-337.215" font-family="Helvetica,sans-Serif" font-size="10.00" fill="#000000">Map::increaseHeight</text>
</a>
</g>
</g>
<!-- Node63&#45;&gt;Node74 -->
<g id="edge17" class="edge">
<title>Node63&#45;&gt;Node74</title>
<path fill="none" stroke="#191970" d="M100.9811,-227.9161C140.9649,-254.3636 222.2283,-308.116 255.4013,-330.0586"/>
<polygon fill="#191970" stroke="#191970" points="102.7026,-224.8584 92.4312,-222.2606 98.8408,-230.6968 102.7026,-224.8584"/>
</g>
<!-- Node77 -->
<g id="node15" class="node">
<title>Node77</title>
<g id="a_node15"><a xlink:href="classMap.html#afb8cc864df90d273a5074872d635dc40" target="_top" xlink:title="Decrease Height Decreases the height of the node and checks the surrounding tiles. Either draw a slope sprite or lower the tile if necessary. ">
<polygon fill="none" stroke="#000000" points="811,-307.215 811,-326.215 930,-326.215 930,-307.215 811,-307.215"/>
<text text-anchor="middle" x="870.5" y="-314.215" font-family="Helvetica,sans-Serif" font-size="10.00" fill="#000000">Map::decreaseHeight</text>
</a>
</g>
</g>
<!-- Node63&#45;&gt;Node77 -->
<g id="edge53" class="edge">
<title>Node63&#45;&gt;Node77</title>
<path fill="none" stroke="#191970" d="M135.5914,-224.0632C153.5953,-227.2754 173.5696,-230.4971 192,-232.715 440.0851,-262.5697 509.3224,-214.4091 753,-269.715 789.4239,-277.9819 829.2873,-295.9953 851.96,-307.1652"/>
<polygon fill="#191970" stroke="#191970" points="135.9958,-220.5794 125.5309,-222.2336 134.7433,-227.4664 135.9958,-220.5794"/>
</g>
<!-- Node90 -->
<g id="node28" class="node">
<title>Node90</title>
<g id="a_node28"><a xlink:href="classMap.html#aa8cc2ed983007621bce12dd9d1b8ec5b" target="_top" xlink:title="Demolish a node This function gathers all tiles that should be demolished and invokes the nodes demol...">
<polygon fill="none" stroke="#000000" points="611.5,-411.215 611.5,-430.215 724.5,-430.215 724.5,-411.215 611.5,-411.215"/>
<text text-anchor="middle" x="668" y="-418.215" font-family="Helvetica,sans-Serif" font-size="10.00" fill="#000000">Map::demolishNode</text>
</a>
</g>
</g>
<!-- Node63&#45;&gt;Node90 -->
<g id="edge57" class="edge">
<title>Node63&#45;&gt;Node90</title>
<path fill="none" stroke="#191970" d="M86.9717,-231.7088C103.1201,-263.6329 140.2789,-327.6018 192,-358.715 325.183,-438.832 516.9441,-435.1216 611.2482,-427.202"/>
<polygon fill="#191970" stroke="#191970" points="90.0247,-229.9854 82.4752,-222.552 83.7414,-233.0709 90.0247,-229.9854"/>
</g>
<!-- Node91 -->
<g id="node29" class="node">
<title>Node91</title>
<g id="a_node29"><a xlink:href="classMap.html#a2dda1bb4e2785396a974c950a55aa679" target="_top" xlink:title="Get original corner point of given point within building borders. ">
<polygon fill="none" stroke="#000000" points="790,-231.215 790,-250.215 951,-250.215 951,-231.215 790,-231.215"/>
<text text-anchor="middle" x="870.5" y="-238.215" font-family="Helvetica,sans-Serif" font-size="10.00" fill="#000000">Map::getNodeOrigCornerPoint</text>
</a>
</g>
</g>
<!-- Node63&#45;&gt;Node91 -->
<g id="edge54" class="edge">
<title>Node63&#45;&gt;Node91</title>
<path fill="none" stroke="#191970" d="M166.594,-215.8451C321.8254,-221.3297 640.6454,-232.594 789.9865,-237.8704"/>
<polygon fill="#191970" stroke="#191970" points="166.2742,-212.3317 156.1568,-215.4764 166.027,-219.3274 166.2742,-212.3317"/>
</g>
<!-- Node92 -->
<g id="node30" class="node">
<title>Node92</title>
<g id="a_node30"><a xlink:href="classMap.html#a1f87a6ce8b3be8d140bcee1b1e473903" target="_top" xlink:title="Map::isClickWithinTile">
<polygon fill="none" stroke="#000000" points="207.5,-127.215 207.5,-146.215 332.5,-146.215 332.5,-127.215 207.5,-127.215"/>
<text text-anchor="middle" x="270" y="-134.215" font-family="Helvetica,sans-Serif" font-size="10.00" fill="#000000">Map::isClickWithinTile</text>
</a>
</g>
</g>
<!-- Node63&#45;&gt;Node92 -->
<g id="edge58" class="edge">
<title>Node63&#45;&gt;Node92</title>
<path fill="none" stroke="#191970" d="M106.1449,-198.6406C128.9569,-187.5356 162.1088,-172.0763 192,-160.715 206.0384,-155.3792 221.8242,-150.3473 235.5035,-146.2825"/>
<polygon fill="#191970" stroke="#191970" points="104.4761,-195.5607 97.0411,-203.1086 107.5603,-201.8447 104.4761,-195.5607"/>
</g>
<!-- Node95 -->
<g id="node33" class="node">
<title>Node95</title>
<g id="a_node33"><a xlink:href="classMap.html#ab6685363fde5a50c749adab9df96c231" target="_top" xlink:title="whether a node is a multiobject or not (bigger than 1x1 building) ">
<polygon fill="none" stroke="#000000" points="399.5,-444.215 399.5,-463.215 531.5,-463.215 531.5,-444.215 399.5,-444.215"/>
<text text-anchor="middle" x="465.5" y="-451.215" font-family="Helvetica,sans-Serif" font-size="10.00" fill="#000000">Map::isNodeMultiObject</text>
</a>
</g>
</g>
<!-- Node63&#45;&gt;Node95 -->
<g id="edge62" class="edge">
<title>Node63&#45;&gt;Node95</title>
<path fill="none" stroke="#191970" d="M81.7299,-232.1955C91.2617,-276.0598 120.9572,-382.4249 192,-429.715 257.6675,-473.427 352.7361,-470.6514 411.7459,-463.2261"/>
<polygon fill="#191970" stroke="#191970" points="85.1258,-231.3326 79.685,-222.2414 78.269,-232.7412 85.1258,-231.3326"/>
</g>
<!-- Node65 -->
<g id="node3" class="node">
<title>Node65</title>
<g id="a_node3"><a xlink:href="classCamera.html#a0a8ee04ccb4f4cc9af52a964cf225f66" target="_top" xlink:title="Increases the zoom level of the camera Increases the zoom level of the camera. ">
<polygon fill="none" stroke="#000000" points="989.5,-117.215 989.5,-136.215 1146.5,-136.215 1146.5,-117.215 989.5,-117.215"/>
<text text-anchor="middle" x="1068" y="-124.215" font-family="Helvetica,sans-Serif" font-size="10.00" fill="#000000">Camera::increaseZoomLevel</text>
</a>
</g>
</g>
<!-- Node64&#45;&gt;Node65 -->
<g id="edge2" class="edge">
<title>Node64&#45;&gt;Node65</title>
<path fill="none" stroke="#191970" d="M930.2147,-100.2044C958.3946,-105.6264 991.629,-112.0208 1018.3969,-117.1711"/>
<polygon fill="#191970" stroke="#191970" points="930.5639,-96.7075 920.0827,-98.255 929.2412,-103.5814 930.5639,-96.7075"/>
</g>
<!-- Node66 -->
<g id="node4" class="node">
<title>Node66</title>
<g id="a_node4"><a xlink:href="classCamera.html#a1f8ecd427814c5a4970223c2d13b9310" target="_top" xlink:title="Camera::setPinchDistance">
<polygon fill="none" stroke="#000000" points="1184,-79.215 1184,-98.215 1329,-98.215 1329,-79.215 1184,-79.215"/>
<text text-anchor="middle" x="1256.5" y="-86.215" font-family="Helvetica,sans-Serif" font-size="10.00" fill="#000000">Camera::setPinchDistance</text>
</a>
</g>
</g>
<!-- Node64&#45;&gt;Node66 -->
<g id="edge12" class="edge">
<title>Node64&#45;&gt;Node66</title>
<path fill="none" stroke="#191970" d="M962.6064,-88.715C1030.3652,-88.715 1121.2052,-88.715 1183.868,-88.715"/>
<polygon fill="#191970" stroke="#191970" points="962.3607,-85.2151 952.3607,-88.715 962.3606,-92.2151 962.3607,-85.2151"/>
</g>
<!-- Node71 -->
<g id="node9" class="node">
<title>Node71</title>
<g id="a_node9"><a xlink:href="classCamera.html#aeea39f352d5873495dea6f376cf3207e" target="_top" xlink:title="Decreases the zoom level of the camera Decreases the zoom level of the camera. ">
<polygon fill="none" stroke="#000000" points="988,-41.215 988,-60.215 1148,-60.215 1148,-41.215 988,-41.215"/>
<text text-anchor="middle" x="1068" y="-48.215" font-family="Helvetica,sans-Serif" font-size="10.00" fill="#000000">Camera::decreaseZoomLevel</text>
</a>
</g>
</g>
<!-- Node64&#45;&gt;Node71 -->
<g id="edge9" class="edge">
<title>Node64&#45;&gt;Node71</title>
<path fill="none" stroke="#191970" d="M930.2147,-77.2256C958.3946,-71.8036 991.629,-65.4092 1018.3969,-60.2589"/>
<polygon fill="#191970" stroke="#191970" points="929.2412,-73.8486 920.0827,-79.175 930.5639,-80.7225 929.2412,-73.8486"/>
</g>
<!-- Node72 -->
<g id="node10" class="node">
<title>Node72</title>
<g id="a_node10"><a xlink:href="classCamera.html#af29da768f8948f3afbf0a9b43530eb1d" target="_top" xlink:title="Centers camera on the middle of the map Centers the camera on the middle of the map. ">
<polygon fill="none" stroke="#000000" points="1375,-108.715 1375,-138.715 1533,-138.715 1533,-108.715 1375,-108.715"/>
<text text-anchor="start" x="1383" y="-126.715" font-family="Helvetica,sans-Serif" font-size="10.00" fill="#000000">Camera::centerScreenOnMap</text>
<text text-anchor="middle" x="1454" y="-115.715" font-family="Helvetica,sans-Serif" font-size="10.00" fill="#000000">Center</text>
</a>
</g>
</g>
<!-- Node64&#45;&gt;Node72 -->
<g id="edge13" class="edge">
<title>Node64&#45;&gt;Node72</title>
<path fill="none" stroke="#191970" d="M893.5455,-73.6706C916.4329,-59.688 953.0622,-39.8358 988,-31.715 1135.6209,2.5976 1185.1291,16.9343 1329,-30.715 1375.4757,-46.1075 1418.7185,-86.2241 1440.067,-108.4088"/>
<polygon fill="#191970" stroke="#191970" points="891.5326,-70.8012 884.9083,-79.0698 895.2431,-76.7369 891.5326,-70.8012"/>
</g>
<!-- Node65&#45;&gt;Node66 -->
<g id="edge3" class="edge">
<title>Node65&#45;&gt;Node66</title>
<path fill="none" stroke="#191970" d="M1125.5893,-115.1055C1152.3983,-109.701 1183.8954,-103.3515 1209.2755,-98.235"/>
<polygon fill="#191970" stroke="#191970" points="1124.6776,-111.7188 1115.5665,-117.126 1126.061,-118.5807 1124.6776,-111.7188"/>
</g>
<!-- Node65&#45;&gt;Node67 -->
<g id="edge8" class="edge">
<title>Node65&#45;&gt;Node67</title>
<path fill="none" stroke="#191970" d="M1156.957,-121.5206C1209.0399,-121.6914 1274.9765,-127.5927 1329,-150.715 1382.206,-173.4874 1428.9207,-227.6953 1446.5376,-249.9366"/>
<polygon fill="#191970" stroke="#191970" points="1156.7194,-118.0214 1146.7328,-121.5594 1156.746,-125.0213 1156.7194,-118.0214"/>
</g>
<!-- Node66&#45;&gt;Node67 -->
<g id="edge4" class="edge">
<title>Node66&#45;&gt;Node67</title>
<path fill="none" stroke="#191970" d="M1307.6734,-101.7036C1315.1489,-104.7054 1322.5057,-108.3394 1329,-112.715 1343.8637,-122.7295 1421.2261,-218.7233 1446.2105,-249.9518"/>
<polygon fill="#191970" stroke="#191970" points="1308.7906,-98.3854 1298.1969,-98.2313 1306.3822,-104.9581 1308.7906,-98.3854"/>
</g>
<!-- Node68 -->
<g id="node6" class="node">
<title>Node68</title>
<g id="a_node6"><a xlink:href="classGame.html#a1c2ab25d5216b2f4b2fe41efd2c09114" target="_top" xlink:title="begins the game starts running the game ">
<polygon fill="none" stroke="#000000" points="1579,-326.215 1579,-345.215 1647,-345.215 1647,-326.215 1579,-326.215"/>
<text text-anchor="middle" x="1613" y="-333.215" font-family="Helvetica,sans-Serif" font-size="10.00" fill="#000000">Game::run</text>
</a>
</g>
</g>
<!-- Node67&#45;&gt;Node68 -->
<g id="edge5" class="edge">
<title>Node67&#45;&gt;Node68</title>
<path fill="none" stroke="#191970" d="M1483.4124,-273.7738C1515.3223,-289.0263 1565.3972,-312.9615 1593.026,-326.1677"/>
<polygon fill="#191970" stroke="#191970" points="1484.6692,-270.4952 1474.1375,-269.3405 1481.6504,-276.8109 1484.6692,-270.4952"/>
</g>
<!-- Node69 -->
<g id="node7" class="node">
<title>Node69</title>
<g id="a_node7"><a xlink:href="main_8cxx.html#af582d708d899e67ead623eac34a22387" target="_top" xlink:title="protected_main">
<polygon fill="none" stroke="#000000" points="1683,-345.215 1683,-364.215 1776,-364.215 1776,-345.215 1683,-345.215"/>
<text text-anchor="middle" x="1729.5" y="-352.215" font-family="Helvetica,sans-Serif" font-size="10.00" fill="#000000">protected_main</text>
</a>
</g>
</g>
<!-- Node68&#45;&gt;Node69 -->
<g id="edge6" class="edge">
<title>Node68&#45;&gt;Node69</title>
<path fill="none" stroke="#191970" d="M1656.9884,-342.8891C1665.382,-344.258 1674.1965,-345.6955 1682.6749,-347.0783"/>
<polygon fill="#191970" stroke="#191970" points="1657.4428,-339.417 1647.0098,-341.2617 1656.316,-346.3257 1657.4428,-339.417"/>
</g>
<!-- Node70 -->
<g id="node8" class="node">
<title>Node70</title>
<g id="a_node8"><a xlink:href="main_8cxx.html#a3c04138a5bfe5d72780bb7e82a18e627" target="_top" xlink:title="main">
<polygon fill="none" stroke="#000000" points="1812,-345.215 1812,-364.215 1853,-364.215 1853,-345.215 1812,-345.215"/>
<text text-anchor="middle" x="1832.5" y="-352.215" font-family="Helvetica,sans-Serif" font-size="10.00" fill="#000000">main</text>
</a>
</g>
</g>
<!-- Node69&#45;&gt;Node70 -->
<g id="edge7" class="edge">
<title>Node69&#45;&gt;Node70</title>
<path fill="none" stroke="#191970" d="M1786.2133,-354.715C1795.4322,-354.715 1804.4259,-354.715 1811.9965,-354.715"/>
<polygon fill="#191970" stroke="#191970" points="1786.1782,-351.2151 1776.1782,-354.715 1786.1781,-358.2151 1786.1782,-351.2151"/>
</g>
<!-- Node71&#45;&gt;Node66 -->
<g id="edge10" class="edge">
<title>Node71&#45;&gt;Node66</title>
<path fill="none" stroke="#191970" d="M1125.5893,-62.3245C1152.3983,-67.729 1183.8954,-74.0785 1209.2755,-79.1949"/>
<polygon fill="#191970" stroke="#191970" points="1126.061,-58.8493 1115.5665,-60.304 1124.6776,-65.7112 1126.061,-58.8493"/>
</g>
<!-- Node71&#45;&gt;Node67 -->
<g id="edge11" class="edge">
<title>Node71&#45;&gt;Node67</title>
<path fill="none" stroke="#191970" d="M1122.8783,-39.5752C1179.6873,-31.2515 1268.4405,-27.574 1329,-69.715 1360.6714,-91.7539 1344.776,-115.855 1365,-148.715 1389.8574,-189.1034 1427.4912,-231.3467 1444.7545,-249.9441"/>
<polygon fill="#191970" stroke="#191970" points="1121.9958,-36.1706 1112.6566,-41.1735 1123.0773,-43.0865 1121.9958,-36.1706"/>
</g>
<!-- Node72&#45;&gt;Node68 -->
<g id="edge14" class="edge">
<title>Node72&#45;&gt;Node68</title>
<path fill="none" stroke="#191970" d="M1471.7299,-146.8065C1489.7675,-170.3493 1518.4789,-207.9633 1543,-240.715 1566.2062,-271.7105 1593.3011,-308.7198 1605.8941,-325.9688"/>
<polygon fill="#191970" stroke="#191970" points="1474.457,-144.611 1465.5949,-138.8045 1468.9018,-148.8701 1474.457,-144.611"/>
</g>
<!-- Node75 -->
<g id="node13" class="node">
<title>Node75</title>
<g id="a_node13"><a xlink:href="classEngine.html#a4851ae1ff696c893741167fc0194fd77" target="_top" xlink:title="Increase Height Increases the height of the given map node Calls the according function of the Map ob...">
<polygon fill="none" stroke="#000000" points="603.5,-279.215 603.5,-298.215 732.5,-298.215 732.5,-279.215 603.5,-279.215"/>
<text text-anchor="middle" x="668" y="-286.215" font-family="Helvetica,sans-Serif" font-size="10.00" fill="#000000">Engine::increaseHeight</text>
</a>
</g>
</g>
<!-- Node74&#45;&gt;Node75 -->
<g id="edge18" class="edge">
<title>Node74&#45;&gt;Node75</title>
<path fill="none" stroke="#191970" d="M333.582,-328.5059C349.9819,-325.783 367.6257,-323.0004 384,-320.715 459.0632,-310.2383 545.6606,-300.8712 603.3033,-295.0196"/>
<polygon fill="#191970" stroke="#191970" points="332.8369,-325.0819 323.554,-330.1887 333.9954,-331.9854 332.8369,-325.0819"/>
</g>
<!-- Node76 -->
<g id="node14" class="node">
<title>Node76</title>
<g id="a_node14"><a xlink:href="classMap.html#a59d21f2688713fbcfe320eb1b24405ca" target="_top" xlink:title="Update mapNode and its adjacent tiles Updates mapNode height information, draws slopes for adjacent t...">
<polygon fill="none" stroke="#000000" points="384,-330.215 384,-349.215 547,-349.215 547,-330.215 384,-330.215"/>
<text text-anchor="middle" x="465.5" y="-337.215" font-family="Helvetica,sans-Serif" font-size="10.00" fill="#000000">Map::updateNeighborsOfNode</text>
</a>
</g>
</g>
<!-- Node74&#45;&gt;Node76 -->
<g id="edge20" class="edge">
<title>Node74&#45;&gt;Node76</title>
<path fill="none" stroke="#191970" d="M338.1357,-333.2482C352.8474,-332.9586 368.5474,-332.8911 383.7198,-333.0457"/>
<polygon fill="#191970" stroke="#191970" points="338.0418,-329.7494 328.1271,-333.4842 338.2069,-336.7474 338.0418,-329.7494"/>
</g>
<!-- Node75&#45;&gt;Node67 -->
<g id="edge19" class="edge">
<title>Node75&#45;&gt;Node67</title>
<path fill="none" stroke="#191970" d="M742.7641,-286.0902C865.2636,-281.7694 1116.3803,-272.8273 1329,-264.715 1344.5176,-264.1229 1361.118,-263.4716 1376.9859,-262.8402"/>
<polygon fill="#191970" stroke="#191970" points="742.6119,-282.5933 732.7415,-286.4436 742.8586,-289.589 742.6119,-282.5933"/>
</g>
<!-- Node76&#45;&gt;Node74 -->
<g id="edge21" class="edge">
<title>Node76&#45;&gt;Node74</title>
<path fill="none" stroke="#191970" d="M373.5925,-346.4543C358.1134,-346.5112 342.4383,-346.3417 328.1271,-345.9458"/>
<polygon fill="#191970" stroke="#191970" points="373.7443,-349.9534 383.7198,-346.3843 373.6959,-342.9536 373.7443,-349.9534"/>
</g>
<!-- Node76&#45;&gt;Node77 -->
<g id="edge22" class="edge">
<title>Node76&#45;&gt;Node77</title>
<path fill="none" stroke="#191970" d="M549.1272,-329.3795C627.176,-323.2068 741.6974,-316.9148 810.8735,-315.15"/>
<polygon fill="#191970" stroke="#191970" points="548.5283,-325.9164 538.8424,-330.2098 549.0917,-332.8937 548.5283,-325.9164"/>
</g>
<!-- Node79 -->
<g id="node17" class="node">
<title>Node79</title>
<g id="a_node17"><a xlink:href="classMap.html#a481b37ba71ef0e51e836fc42805762dd" target="_top" xlink:title="Update all mapNodes Updates all mapNode and its adjacent tiles regarding height information, draws slopes for adjacent tiles and sets tiling for mapNode sprite if applicable. ">
<polygon fill="none" stroke="#000000" points="608,-497.215 608,-516.215 728,-516.215 728,-497.215 608,-497.215"/>
<text text-anchor="middle" x="668" y="-504.215" font-family="Helvetica,sans-Serif" font-size="10.00" fill="#000000">Map::updateAllNodes</text>
</a>
</g>
</g>
<!-- Node76&#45;&gt;Node79 -->
<g id="edge26" class="edge">
<title>Node76&#45;&gt;Node79</title>
<path fill="none" stroke="#191970" d="M484.0398,-355.8673C507.0428,-375.8212 547.5655,-410.6882 583,-439.715 608.4376,-460.5526 638.8178,-484.2104 655.4961,-497.0953"/>
<polygon fill="#191970" stroke="#191970" points="486.2438,-353.1458 476.3995,-349.2291 481.6527,-358.4299 486.2438,-353.1458"/>
</g>
<!-- Node88 -->
<g id="node26" class="node">
<title>Node88</title>
<g id="a_node26"><a xlink:href="classMap.html#a404c38b33d61f8c63ce2c2efb864d6dd" target="_top" xlink:title="Set the Tile ID Of Node object Also invokes all necessary texture updates (auto&#45;tiling, slopes, ...) ">
<polygon fill="none" stroke="#000000" points="1006.5,-359.215 1006.5,-378.215 1129.5,-378.215 1129.5,-359.215 1006.5,-359.215"/>
<text text-anchor="middle" x="1068" y="-366.215" font-family="Helvetica,sans-Serif" font-size="10.00" fill="#000000">Map::setTileIDOfNode</text>
</a>
</g>
</g>
<!-- Node76&#45;&gt;Node88 -->
<g id="edge52" class="edge">
<title>Node76&#45;&gt;Node88</title>
<path fill="none" stroke="#191970" d="M557.4357,-348.8208C566.0722,-349.5257 574.6974,-350.1727 583,-350.715 734.975,-360.641 914.1236,-365.5236 1006.3121,-367.5365"/>
<polygon fill="#191970" stroke="#191970" points="557.5686,-345.3197 547.3105,-347.9695 556.9821,-352.2951 557.5686,-345.3197"/>
</g>
<!-- Node76&#45;&gt;Node90 -->
<g id="edge46" class="edge">
<title>Node76&#45;&gt;Node90</title>
<path fill="none" stroke="#191970" d="M545.362,-353.8076C545.9121,-354.1065 546.4582,-354.409 547,-354.715 565.8987,-365.3897 564.0418,-377.1462 583,-387.715 604.1614,-399.5121 631.5799,-405.8892 649.4711,-411.1588"/>
<polygon fill="#191970" stroke="#191970" points="546.6659,-350.5486 536.1473,-349.2792 543.5784,-356.831 546.6659,-350.5486"/>
</g>
<!-- Node77&#45;&gt;Node76 -->
<g id="edge25" class="edge">
<title>Node77&#45;&gt;Node76</title>
<path fill="none" stroke="#191970" d="M800.9084,-325.9083C730.572,-331.8061 621.9201,-338.079 547.4578,-340.6093"/>
<polygon fill="#191970" stroke="#191970" points="801.3356,-329.3846 810.9992,-325.0414 800.7363,-322.4103 801.3356,-329.3846"/>
</g>
<!-- Node78 -->
<g id="node16" class="node">
<title>Node78</title>
<g id="a_node16"><a xlink:href="classEngine.html#a13572fdd7f6470dca48a14497f58980e" target="_top" xlink:title="Decrease Height Decreases the height of the given map node Calls the according function of the Map ob...">
<polygon fill="none" stroke="#000000" points="1190.5,-307.215 1190.5,-326.215 1322.5,-326.215 1322.5,-307.215 1190.5,-307.215"/>
<text text-anchor="middle" x="1256.5" y="-314.215" font-family="Helvetica,sans-Serif" font-size="10.00" fill="#000000">Engine::decreaseHeight</text>
</a>
</g>
</g>
<!-- Node77&#45;&gt;Node78 -->
<g id="edge23" class="edge">
<title>Node77&#45;&gt;Node78</title>
<path fill="none" stroke="#191970" d="M940.5849,-316.715C1011.6243,-316.715 1120.715,-316.715 1190.3195,-316.715"/>
<polygon fill="#191970" stroke="#191970" points="940.389,-313.2151 930.389,-316.715 940.3889,-320.2151 940.389,-313.2151"/>
</g>
<!-- Node78&#45;&gt;Node67 -->
<g id="edge24" class="edge">
<title>Node78&#45;&gt;Node67</title>
<path fill="none" stroke="#191970" d="M1299.4129,-304.33C1335.8771,-293.8062 1387.4714,-278.9157 1420.8351,-269.2866"/>
<polygon fill="#191970" stroke="#191970" points="1298.1944,-301.0388 1289.5571,-307.1745 1300.1355,-307.7643 1298.1944,-301.0388"/>
</g>
<!-- Node80 -->
<g id="node18" class="node">
<title>Node80</title>
<g id="a_node18"><a xlink:href="classMap.html#a482ac34426e8aa66abb46f60ec329402" target="_top" xlink:title="Initialize the Map with node objects Initialize the Map with node objects. ">
<polygon fill="none" stroke="#000000" points="831,-568.215 831,-587.215 910,-587.215 910,-568.215 831,-568.215"/>
<text text-anchor="middle" x="870.5" y="-575.215" font-family="Helvetica,sans-Serif" font-size="10.00" fill="#000000">Map::initMap</text>
</a>
</g>
</g>
<!-- Node79&#45;&gt;Node80 -->
<g id="edge27" class="edge">
<title>Node79&#45;&gt;Node80</title>
<path fill="none" stroke="#191970" d="M704.9452,-519.6686C744.8936,-533.6752 807.627,-555.6706 843.3,-568.1782"/>
<polygon fill="#191970" stroke="#191970" points="705.9049,-516.2963 695.3101,-516.2904 703.5888,-522.902 705.9049,-516.2963"/>
</g>
<!-- Node85 -->
<g id="node23" class="node">
<title>Node85</title>
<g id="a_node23"><a xlink:href="classMap.html#afefe996cc1f62b61ec60d0ae415953bf" target="_top" xlink:title="Map::loadMapFromFile">
<polygon fill="none" stroke="#000000" points="808,-497.215 808,-516.215 933,-516.215 933,-497.215 808,-497.215"/>
<text text-anchor="middle" x="870.5" y="-504.215" font-family="Helvetica,sans-Serif" font-size="10.00" fill="#000000">Map::loadMapFromFile</text>
</a>
</g>
</g>
<!-- Node79&#45;&gt;Node85 -->
<g id="edge35" class="edge">
<title>Node79&#45;&gt;Node85</title>
<path fill="none" stroke="#191970" d="M738.391,-506.715C760.9387,-506.715 785.744,-506.715 807.7119,-506.715"/>
<polygon fill="#191970" stroke="#191970" points="738.2084,-503.2151 728.2084,-506.715 738.2084,-510.2151 738.2084,-503.2151"/>
</g>
<!-- Node81 -->
<g id="node19" class="node">
<title>Node81</title>
<g id="a_node19"><a xlink:href="classEngine.html#a260d4834150eae6eec2bde34df6dc827" target="_top" xlink:title="Creates a new game Creates a new game. ">
<polygon fill="none" stroke="#000000" points="1015.5,-587.215 1015.5,-606.215 1120.5,-606.215 1120.5,-587.215 1015.5,-587.215"/>
<text text-anchor="middle" x="1068" y="-594.215" font-family="Helvetica,sans-Serif" font-size="10.00" fill="#000000">Engine::newGame</text>
</a>
</g>
</g>
<!-- Node80&#45;&gt;Node81 -->
<g id="edge28" class="edge">
<title>Node80&#45;&gt;Node81</title>
<path fill="none" stroke="#191970" d="M920.7664,-582.5508C949.7011,-585.3343 986.0222,-588.8285 1015.3493,-591.6499"/>
<polygon fill="#191970" stroke="#191970" points="920.7563,-579.0337 910.4671,-581.5599 920.0859,-586.0015 920.7563,-579.0337"/>
</g>
<!-- Node81&#45;&gt;Node68 -->
<g id="edge34" class="edge">
<title>Node81&#45;&gt;Node68</title>
<path fill="none" stroke="#191970" d="M1101.0618,-609.8969C1123.9363,-618.2866 1155.306,-628.3648 1184,-632.715 1343.5935,-656.9103 1427.1613,-690.1289 1543,-577.715 1577.9177,-543.8297 1605.017,-386.0385 1611.5115,-345.3218"/>
<polygon fill="#191970" stroke="#191970" points="1102.0932,-606.5456 1091.5011,-606.3072 1099.6327,-613.0989 1102.0932,-606.5456"/>
</g>
<!-- Node82 -->
<g id="node20" class="node">
<title>Node82</title>
<g id="a_node20"><a xlink:href="classEngine.html#ab5a909990be40701ebb4b57c3e716ed4" target="_top" xlink:title="Engine::saveGame">
<polygon fill="none" stroke="#000000" points="1202.5,-587.215 1202.5,-606.215 1310.5,-606.215 1310.5,-587.215 1202.5,-587.215"/>
<text text-anchor="middle" x="1256.5" y="-594.215" font-family="Helvetica,sans-Serif" font-size="10.00" fill="#000000">Engine::saveGame</text>
</a>
</g>
</g>
<!-- Node81&#45;&gt;Node82 -->
<g id="edge29" class="edge">
<title>Node81&#45;&gt;Node82</title>
<path fill="none" stroke="#191970" d="M1130.5988,-596.715C1153.8059,-596.715 1179.9096,-596.715 1202.3059,-596.715"/>
<polygon fill="#191970" stroke="#191970" points="1130.5078,-593.2151 1120.5078,-596.715 1130.5077,-600.2151 1130.5078,-593.2151"/>
</g>
<!-- Node83 -->
<g id="node21" class="node">
<title>Node83</title>
<g id="a_node21"><a xlink:href="classUIManager.html#aa78e356fc3b356d790c848319d1c387e" target="_top" xlink:title="UIManager::setCallbackFunctions">
<polygon fill="none" stroke="#000000" points="1365,-549.215 1365,-568.215 1543,-568.215 1543,-549.215 1365,-549.215"/>
<text text-anchor="middle" x="1454" y="-556.215" font-family="Helvetica,sans-Serif" font-size="10.00" fill="#000000">UIManager::setCallbackFunctions</text>
</a>
</g>
</g>
<!-- Node81&#45;&gt;Node83 -->
<g id="edge31" class="edge">
<title>Node81&#45;&gt;Node83</title>
<path fill="none" stroke="#191970" d="M1116.6259,-608.4289C1169.4867,-619.2768 1256.1614,-631.5385 1329,-615.715 1370.9535,-606.601 1415.708,-582.1236 1438.5834,-568.3935"/>
<polygon fill="#191970" stroke="#191970" points="1117.0271,-604.9363 1106.5187,-606.287 1115.5758,-611.7842 1117.0271,-604.9363"/>
</g>
<!-- Node84 -->
<g id="node22" class="node">
<title>Node84</title>
<g id="a_node22"><a xlink:href="classGame.html#a5ed7fc5be77080f7f6dd5363f7f007a1" target="_top" xlink:title="initializes and displays the main menu initializes and displays the main menu ">
<polygon fill="none" stroke="#000000" points="1402.5,-454.215 1402.5,-473.215 1505.5,-473.215 1505.5,-454.215 1402.5,-454.215"/>
<text text-anchor="middle" x="1454" y="-461.215" font-family="Helvetica,sans-Serif" font-size="10.00" fill="#000000">Game::mainMenu</text>
</a>
</g>
</g>
<!-- Node81&#45;&gt;Node84 -->
<g id="edge32" class="edge">
<title>Node81&#45;&gt;Node84</title>
<path fill="none" stroke="#191970" d="M1105.5596,-583.7735C1182.8508,-557.1421 1358.148,-496.7417 1426.2326,-473.2825"/>
<polygon fill="#191970" stroke="#191970" points="1104.0745,-580.5832 1095.7602,-587.15 1106.3549,-587.2013 1104.0745,-580.5832"/>
</g>
<!-- Node82&#45;&gt;Node83 -->
<g id="edge30" class="edge">
<title>Node82&#45;&gt;Node83</title>
<path fill="none" stroke="#191970" d="M1316.2147,-585.2256C1344.3946,-579.8036 1377.629,-573.4092 1404.3969,-568.2589"/>
<polygon fill="#191970" stroke="#191970" points="1315.2412,-581.8486 1306.0827,-587.175 1316.5639,-588.7225 1315.2412,-581.8486"/>
</g>
<!-- Node84&#45;&gt;Node69 -->
<g id="edge33" class="edge">
<title>Node84&#45;&gt;Node69</title>
<path fill="none" stroke="#191970" d="M1487.9794,-450.2712C1544.342,-427.9717 1655.8325,-383.8611 1705.106,-364.3663"/>
<polygon fill="#191970" stroke="#191970" points="1486.4598,-447.1084 1478.4488,-454.042 1489.0351,-453.6175 1486.4598,-447.1084"/>
</g>
<!-- Node86 -->
<g id="node24" class="node">
<title>Node86</title>
<g id="a_node24"><a xlink:href="classEngine.html#a83b7dbeee899b36a13d5b07c7ad87ebc" target="_top" xlink:title="Loads a saved game Loads a saved Game. ">
<polygon fill="none" stroke="#000000" points="1015,-492.215 1015,-511.215 1121,-511.215 1121,-492.215 1015,-492.215"/>
<text text-anchor="middle" x="1068" y="-499.215" font-family="Helvetica,sans-Serif" font-size="10.00" fill="#000000">Engine::loadGame</text>
</a>
</g>
</g>
<!-- Node85&#45;&gt;Node86 -->
<g id="edge36" class="edge">
<title>Node85&#45;&gt;Node86</title>
<path fill="none" stroke="#191970" d="M943.5715,-504.8651C967.1486,-504.2682 992.8243,-503.6182 1014.696,-503.0645"/>
<polygon fill="#191970" stroke="#191970" points="943.1698,-501.374 933.2616,-505.1261 943.347,-508.3718 943.1698,-501.374"/>
</g>
<!-- Node85&#45;&gt;Node88 -->
<g id="edge43" class="edge">
<title>Node85&#45;&gt;Node88</title>
<path fill="none" stroke="#191970" d="M927.1211,-493.9867C935.7546,-490.9398 944.3323,-487.2235 952,-482.715 1000.9241,-453.948 1044.5326,-400.0766 1061.0124,-378.2565"/>
<polygon fill="#191970" stroke="#191970" points="925.823,-490.7284 917.3954,-497.1491 927.9876,-497.3853 925.823,-490.7284"/>
</g>
<!-- Node86&#45;&gt;Node83 -->
<g id="edge41" class="edge">
<title>Node86&#45;&gt;Node83</title>
<path fill="none" stroke="#191970" d="M1131.4493,-511.0845C1202.6886,-521.6043 1317.6763,-538.5843 1389.3876,-549.1738"/>
<polygon fill="#191970" stroke="#191970" points="1131.6704,-507.5792 1121.2664,-509.5808 1130.6478,-514.5041 1131.6704,-507.5792"/>
</g>
<!-- Node86&#45;&gt;Node84 -->
<g id="edge42" class="edge">
<title>Node86&#45;&gt;Node84</title>
<path fill="none" stroke="#191970" d="M1099.7003,-488.3068C1122.6441,-479.3563 1154.6507,-468.3997 1184,-463.715 1259.2197,-451.7084 1347.736,-454.9446 1402.3604,-458.9101"/>
<polygon fill="#191970" stroke="#191970" points="1098.1365,-485.1624 1090.1478,-492.1217 1100.7327,-491.6632 1098.1365,-485.1624"/>
</g>
<!-- Node87 -->
<g id="node25" class="node">
<title>Node87</title>
<g id="a_node25"><a xlink:href="classEngine.html#a0ba57971ffb5173ecc425461f65a4cd8" target="_top" xlink:title="Quits the game Sets m_running to false and quitting the game. ">
<polygon fill="none" stroke="#000000" points="1204.5,-473.215 1204.5,-492.215 1308.5,-492.215 1308.5,-473.215 1204.5,-473.215"/>
<text text-anchor="middle" x="1256.5" y="-480.215" font-family="Helvetica,sans-Serif" font-size="10.00" fill="#000000">Engine::quitGame</text>
</a>
</g>
</g>
<!-- Node86&#45;&gt;Node87 -->
<g id="edge37" class="edge">
<title>Node86&#45;&gt;Node87</title>
<path fill="none" stroke="#191970" d="M1130.9934,-495.3655C1154.7647,-492.9695 1181.5275,-490.2719 1204.2142,-487.9852"/>
<polygon fill="#191970" stroke="#191970" points="1130.6079,-491.8866 1121.0094,-496.3719 1131.31,-498.8513 1130.6079,-491.8866"/>
</g>
<!-- Node87&#45;&gt;Node67 -->
<g id="edge38" class="edge">
<title>Node87&#45;&gt;Node67</title>
<path fill="none" stroke="#191970" d="M1277.4019,-466.7209C1292.4472,-454.7716 1312.8516,-437.646 1329,-420.715 1379.5566,-367.7083 1430.0817,-295.1577 1447.5711,-269.3264"/>
<polygon fill="#191970" stroke="#191970" points="1274.9496,-464.1959 1269.2354,-473.1177 1279.2661,-469.7066 1274.9496,-464.1959"/>
</g>
<!-- Node87&#45;&gt;Node83 -->
<g id="edge39" class="edge">
<title>Node87&#45;&gt;Node83</title>
<path fill="none" stroke="#191970" d="M1296.816,-495.4691C1307.3457,-498.9616 1318.6444,-502.8531 1329,-506.715 1365.7779,-520.4305 1407.7662,-538.3803 1432.516,-549.2033"/>
<polygon fill="#191970" stroke="#191970" points="1297.6048,-492.0445 1287.0121,-492.257 1295.4253,-498.6966 1297.6048,-492.0445"/>
</g>
<!-- Node87&#45;&gt;Node84 -->
<g id="edge40" class="edge">
<title>Node87&#45;&gt;Node84</title>
<path fill="none" stroke="#191970" d="M1318.7214,-476.7291C1345.5912,-474.1442 1376.6612,-471.1552 1402.2438,-468.6941"/>
<polygon fill="#191970" stroke="#191970" points="1318.268,-473.2565 1308.6491,-477.6981 1318.9384,-480.2243 1318.268,-473.2565"/>
</g>
<!-- Node89 -->
<g id="node27" class="node">
<title>Node89</title>
<g id="a_node27"><a xlink:href="classEngine.html#a7a1521fd7fc731f961ebaf3f723127d9" target="_top" xlink:title="Engine::setTileIDOfNode">
<polygon fill="none" stroke="#000000" points="1188.5,-354.215 1188.5,-373.215 1324.5,-373.215 1324.5,-354.215 1188.5,-354.215"/>
<text text-anchor="middle" x="1256.5" y="-361.215" font-family="Helvetica,sans-Serif" font-size="10.00" fill="#000000">Engine::setTileIDOfNode</text>
</a>
</g>
</g>
<!-- Node88&#45;&gt;Node89 -->
<g id="edge44" class="edge">
<title>Node88&#45;&gt;Node89</title>
<path fill="none" stroke="#191970" d="M1140.0209,-366.8046C1155.9205,-366.3829 1172.7152,-365.9374 1188.4513,-365.52"/>
<polygon fill="#191970" stroke="#191970" points="1139.6256,-363.3138 1129.722,-367.0778 1139.8113,-370.3113 1139.6256,-363.3138"/>
</g>
<!-- Node89&#45;&gt;Node67 -->
<g id="edge45" class="edge">
<title>Node89&#45;&gt;Node67</title>
<path fill="none" stroke="#191970" d="M1294.2016,-350.6097C1305.5663,-346.2729 1317.9516,-341.1535 1329,-335.715 1371.1554,-314.9644 1417.6621,-284.5153 1440.2162,-269.2216"/>
<polygon fill="#191970" stroke="#191970" points="1292.6871,-347.4387 1284.5364,-354.2076 1295.1292,-353.999 1292.6871,-347.4387"/>
</g>
<!-- Node90&#45;&gt;Node67 -->
<g id="edge47" class="edge">
<title>Node90&#45;&gt;Node67</title>
<path fill="none" stroke="#191970" d="M733.3357,-431.6907C856.2281,-449.2398 1127.5395,-473.111 1329,-382.715 1385.9443,-357.1639 1431.8451,-293.6607 1447.8736,-269.3727"/>
<polygon fill="#191970" stroke="#191970" points="733.729,-428.211 723.328,-430.2283 732.7168,-435.1375 733.729,-428.211"/>
</g>
<!-- Node90&#45;&gt;Node74 -->
<g id="edge48" class="edge">
<title>Node90&#45;&gt;Node74</title>
<path fill="none" stroke="#191970" d="M610.766,-409.0669C531.5738,-392.9499 390.08,-364.1534 316.826,-349.2449"/>
<polygon fill="#191970" stroke="#191970" points="610.547,-412.594 621.0441,-411.1587 611.943,-405.7346 610.547,-412.594"/>
</g>
<!-- Node90&#45;&gt;Node76 -->
<g id="edge50" class="edge">
<title>Node90&#45;&gt;Node76</title>
<path fill="none" stroke="#191970" d="M601.6481,-414.2567C595.1762,-411.8224 588.8491,-408.9758 583,-405.715 564.0418,-395.1462 565.8987,-383.3897 547,-372.715 526.5798,-361.1808 500.0861,-354.7161 482.9405,-349.3167"/>
<polygon fill="#191970" stroke="#191970" points="600.6002,-417.5974 611.1948,-417.5284 602.8696,-410.9755 600.6002,-417.5974"/>
</g>
<!-- Node90&#45;&gt;Node77 -->
<g id="edge49" class="edge">
<title>Node90&#45;&gt;Node77</title>
<path fill="none" stroke="#191970" d="M695.7889,-406.4432C737.7328,-384.9016 816.104,-344.6517 851.8574,-326.2895"/>
<polygon fill="#191970" stroke="#191970" points="693.9842,-403.4354 686.6877,-411.1173 697.1822,-409.6622 693.9842,-403.4354"/>
</g>
<!-- Node90&#45;&gt;Node88 -->
<g id="edge51" class="edge">
<title>Node90&#45;&gt;Node88</title>
<path fill="none" stroke="#191970" d="M735.2554,-411.9718C810.9949,-402.1257 933.0437,-386.2593 1006.3864,-376.7248"/>
<polygon fill="#191970" stroke="#191970" points="734.3508,-408.5599 724.8854,-413.3199 735.2532,-415.5014 734.3508,-408.5599"/>
</g>
<!-- Node91&#45;&gt;Node67 -->
<g id="edge55" class="edge">
<title>Node91&#45;&gt;Node67</title>
<path fill="none" stroke="#191970" d="M961.1263,-243.666C1075.2015,-247.3805 1269.1908,-253.6972 1376.6281,-257.1956"/>
<polygon fill="#191970" stroke="#191970" points="961.1292,-240.1643 951.0206,-243.3369 960.9013,-247.1606 961.1292,-240.1643"/>
</g>
<!-- Node91&#45;&gt;Node88 -->
<g id="edge56" class="edge">
<title>Node91&#45;&gt;Node88</title>
<path fill="none" stroke="#191970" d="M893.9031,-255.8826C935.0557,-282.5536 1019.2368,-337.1115 1053.2526,-359.1572"/>
<polygon fill="#191970" stroke="#191970" points="895.6399,-252.8374 885.3446,-250.3358 891.8328,-258.7116 895.6399,-252.8374"/>
</g>
<!-- Node93 -->
<g id="node31" class="node">
<title>Node93</title>
<g id="a_node31"><a xlink:href="classMap.html#a8cc1c9d35ae2c3ede6bc0fcc59b9aa41" target="_top" xlink:title="Returns the node at given screencoordinates. ">
<polygon fill="none" stroke="#000000" points="407.5,-127.215 407.5,-146.215 523.5,-146.215 523.5,-127.215 407.5,-127.215"/>
<text text-anchor="middle" x="465.5" y="-134.215" font-family="Helvetica,sans-Serif" font-size="10.00" fill="#000000">Map::findNodeInMap</text>
</a>
</g>
</g>
<!-- Node92&#45;&gt;Node93 -->
<g id="edge59" class="edge">
<title>Node92&#45;&gt;Node93</title>
<path fill="none" stroke="#191970" d="M342.9195,-136.715C364.1223,-136.715 386.9942,-136.715 407.1735,-136.715"/>
<polygon fill="#191970" stroke="#191970" points="342.6641,-133.2151 332.6641,-136.715 342.6641,-140.2151 342.6641,-133.2151"/>
</g>
<!-- Node94 -->
<g id="node32" class="node">
<title>Node94</title>
<g id="a_node32"><a xlink:href="isoMath_8hxx.html#ad3c5f070c4a876bc6e8978635d02ce52" target="_top" xlink:title="converts screen space coordinates to isometric space coordinates. To convert screen coordinates in to...">
<polygon fill="none" stroke="#000000" points="583,-127.215 583,-146.215 753,-146.215 753,-127.215 583,-127.215"/>
<text text-anchor="middle" x="668" y="-134.215" font-family="Helvetica,sans-Serif" font-size="10.00" fill="#000000">convertScreenToIsoCoordinates</text>
</a>
</g>
</g>
<!-- Node93&#45;&gt;Node94 -->
<g id="edge60" class="edge">
<title>Node93&#45;&gt;Node94</title>
<path fill="none" stroke="#191970" d="M533.6926,-136.715C549.4512,-136.715 566.4099,-136.715 582.7935,-136.715"/>
<polygon fill="#191970" stroke="#191970" points="533.5284,-133.2151 523.5284,-136.715 533.5283,-140.2151 533.5284,-133.2151"/>
</g>
<!-- Node94&#45;&gt;Node67 -->
<g id="edge61" class="edge">
<title>Node94&#45;&gt;Node67</title>
<path fill="none" stroke="#191970" d="M763.392,-139.124C920.37,-143.9398 1226.022,-157.1384 1329,-188.715 1373.6204,-202.3972 1419.7513,-233.975 1441.3771,-250.0035"/>
<polygon fill="#191970" stroke="#191970" points="763.3718,-135.6219 753.2708,-138.8188 763.1608,-142.6187 763.3718,-135.6219"/>
</g>
<!-- Node95&#45;&gt;Node88 -->
<g id="edge64" class="edge">
<title>Node95&#45;&gt;Node88</title>
<path fill="none" stroke="#191970" d="M542.1248,-453.4049C638.966,-451.4412 810.1409,-442.7141 952,-407.715 984.1798,-399.7757 1020.2157,-387.0302 1043.4584,-378.2843"/>
<polygon fill="#191970" stroke="#191970" points="541.774,-449.9106 531.84,-453.5935 541.9025,-456.9095 541.774,-449.9106"/>
</g>
<!-- Node95&#45;&gt;Node90 -->
<g id="edge63" class="edge">
<title>Node95&#45;&gt;Node90</title>
<path fill="none" stroke="#191970" d="M533.9834,-442.5547C559.0814,-438.4647 587.1902,-433.884 611.1584,-429.9781"/>
<polygon fill="#191970" stroke="#191970" points="533.1065,-439.1514 523.7997,-444.2143 534.2325,-446.0602 533.1065,-439.1514"/>
</g>
</g>
</svg>
