<?xml version="1.0" encoding="UTF-8" standalone="no"?>
<!DOCTYPE svg PUBLIC "-//W3C//DTD SVG 1.1//EN"
 "http://www.w3.org/Graphics/SVG/1.1/DTD/svg11.dtd">
<!-- Generated by graphviz version 2.40.1 (20161225.0304)
 -->
<!-- Title: src/engine/ui/basics/Layout.hxx Pages: 1 -->
<!--zoomable 218 -->
<svg id="main" version="1.1" xmlns="http://www.w3.org/2000/svg" xmlns:xlink="http://www.w3.org/1999/xlink" xml:space="preserve" onload="init(evt)">
<style type="text/css"><![CDATA[
.edge:hover path { stroke: red; }
.edge:hover polygon { stroke: red; fill: red; }
]]></style>
<script type="text/javascript"><![CDATA[
var edges = document.getElementsByTagName('g');
if (edges && edges.length) {
  for (var i=0;i<edges.length;i++) {
    if (edges[i].id.substr(0,4)=='edge') {
      edges[i].setAttribute('class','edge');
    }
  }
}
]]></script>
        <defs>
                <circle id="rim" cx="0" cy="0" r="7"/>
                <circle id="rim2" cx="0" cy="0" r="3.5"/>
                <g id="zoomPlus">
                        <use xlink:href="#rim" fill="#404040">
                                <set attributeName="fill" to="#808080" begin="zoomplus.mouseover" end="zoomplus.mouseout"/>
                        </use>
                        <path d="M-4,0h8M0,-4v8" fill="none" stroke="white" stroke-width="1.5" pointer-events="none"/>
                </g>
                <g id="zoomMin">
                        <use xlink:href="#rim" fill="#404040">
                                <set attributeName="fill" to="#808080" begin="zoomminus.mouseover" end="zoomminus.mouseout"/>
                        </use>
                        <path d="M-4,0h8" fill="none" stroke="white" stroke-width="1.5" pointer-events="none"/>
                </g>
                <g id="dirArrow">
                        <path fill="none" stroke="white" stroke-width="1.5" d="M0,-3.0v7 M-2.5,-0.5L0,-3.0L2.5,-0.5"/>
                </g>
               <g id="resetDef">
                       <use xlink:href="#rim2" fill="#404040">
                               <set attributeName="fill" to="#808080" begin="reset.mouseover" end="reset.mouseout"/>
                       </use>
               </g>
        </defs>

<script type="text/javascript">
var viewWidth = 823;
var viewHeight = 218;
var sectionId = 'dynsection-1';
</script>
<script xlink:href="svgpan.js"/>
<svg id="graph" class="graph">
<g id="viewport">
<title>src/engine/ui/basics/Layout.hxx</title>
<!-- Node23 -->
<g id="node1" class="node">
<title>Node23</title>
<polygon fill="#bfbfbf" stroke="#000000" points="532.5,-179.5 532.5,-209.5 645.5,-209.5 645.5,-179.5 532.5,-179.5"/>
<text text-anchor="start" x="540.5" y="-197.5" font-family="Helvetica,sans-Serif" font-size="10.00" fill="#000000">src/engine/ui/basics</text>
<text text-anchor="middle" x="589" y="-186.5" font-family="Helvetica,sans-Serif" font-size="10.00" fill="#000000">/Layout.hxx</text>
</g>
<!-- Node24 -->
<g id="node2" class="node">
<title>Node24</title>
<g id="a_node2"><a xlink:href="UIManager_8hxx.html" target="_top" xlink:title="src/engine/UIManager.hxx">
<polygon fill="none" stroke="#000000" points="467.5,-123.5 467.5,-142.5 610.5,-142.5 610.5,-123.5 467.5,-123.5"/>
<text text-anchor="middle" x="539" y="-130.5" font-family="Helvetica,sans-Serif" font-size="10.00" fill="#000000">src/engine/UIManager.hxx</text>
</a>
</g>
</g>
<!-- Node23&#45;&gt;Node24 -->
<g id="edge1" class="edge">
<title>Node23&#45;&gt;Node24</title>
<path fill="none" stroke="#191970" d="M570.1962,-171.3713C562.1764,-161.5069 553.2486,-150.5258 547.0056,-142.8469"/>
<polygon fill="#191970" stroke="#191970" points="567.6164,-173.7464 576.6404,-179.2977 573.0478,-169.3306 567.6164,-173.7464"/>
</g>
<!-- Node30 -->
<g id="node8" class="node">
<title>Node30</title>
<g id="a_node8"><a xlink:href="Layout_8cxx.html" target="_top" xlink:title="src/engine/ui/basics\l/Layout.cxx">
<polygon fill="none" stroke="#000000" points="701.5,-56.5 701.5,-86.5 814.5,-86.5 814.5,-56.5 701.5,-56.5"/>
<text text-anchor="start" x="709.5" y="-74.5" font-family="Helvetica,sans-Serif" font-size="10.00" fill="#000000">src/engine/ui/basics</text>
<text text-anchor="middle" x="758" y="-63.5" font-family="Helvetica,sans-Serif" font-size="10.00" fill="#000000">/Layout.cxx</text>
</a>
</g>
</g>
<!-- Node23&#45;&gt;Node30 -->
<g id="edge10" class="edge">
<title>Node23&#45;&gt;Node30</title>
<path fill="none" stroke="#191970" d="M617.8685,-173.4892C651.853,-148.7549 707.4438,-108.2954 737.3724,-86.513"/>
<polygon fill="#191970" stroke="#191970" points="615.7484,-170.7033 609.7227,-179.4178 619.8676,-176.363 615.7484,-170.7033"/>
</g>
<!-- Node25 -->
<g id="node3" class="node">
<title>Node25</title>
<g id="a_node3"><a xlink:href="EventManager_8hxx.html" target="_top" xlink:title="src/engine/EventManager.hxx">
<polygon fill="none" stroke="#000000" points="185,-62 185,-81 345,-81 345,-62 185,-62"/>
<text text-anchor="middle" x="265" y="-69" font-family="Helvetica,sans-Serif" font-size="10.00" fill="#000000">src/engine/EventManager.hxx</text>
</a>
</g>
</g>
<!-- Node24&#45;&gt;Node25 -->
<g id="edge2" class="edge">
<title>Node24&#45;&gt;Node25</title>
<path fill="none" stroke="#191970" d="M486.4605,-121.2074C434.4633,-109.5365 355.8484,-91.8912 307.6116,-81.0643"/>
<polygon fill="#191970" stroke="#191970" points="485.9644,-124.683 496.4881,-123.4581 487.4974,-117.853 485.9644,-124.683"/>
</g>
<!-- Node28 -->
<g id="node6" class="node">
<title>Node28</title>
<g id="a_node6"><a xlink:href="Game_8cxx.html" target="_top" xlink:title="src/Game.cxx">
<polygon fill="none" stroke="#000000" points="347.5,-.5 347.5,-19.5 430.5,-19.5 430.5,-.5 347.5,-.5"/>
<text text-anchor="middle" x="389" y="-7.5" font-family="Helvetica,sans-Serif" font-size="10.00" fill="#000000">src/Game.cxx</text>
</a>
</g>
</g>
<!-- Node24&#45;&gt;Node28 -->
<g id="edge9" class="edge">
<title>Node24&#45;&gt;Node28</title>
<path fill="none" stroke="#191970" d="M484.0436,-121.0757C450.182,-112.5872 411.1694,-100.354 400,-87 383.7989,-67.6302 385.3972,-35.4724 387.4357,-19.5446"/>
<polygon fill="#191970" stroke="#191970" points="483.3444,-124.5077 493.889,-123.4775 485.0035,-117.7072 483.3444,-124.5077"/>
</g>
<!-- Node29 -->
<g id="node7" class="node">
<title>Node29</title>
<g id="a_node7"><a xlink:href="ButtonGroup_8cxx.html" target="_top" xlink:title="src/engine/ui/basics\l/ButtonGroup.cxx">
<polygon fill="none" stroke="#000000" points="409.5,-56.5 409.5,-86.5 522.5,-86.5 522.5,-56.5 409.5,-56.5"/>
<text text-anchor="start" x="417.5" y="-74.5" font-family="Helvetica,sans-Serif" font-size="10.00" fill="#000000">src/engine/ui/basics</text>
<text text-anchor="middle" x="466" y="-63.5" font-family="Helvetica,sans-Serif" font-size="10.00" fill="#000000">/ButtonGroup.cxx</text>
</a>
</g>
</g>
<!-- Node24&#45;&gt;Node29 -->
<g id="edge6" class="edge">
<title>Node24&#45;&gt;Node29</title>
<path fill="none" stroke="#191970" d="M519.7276,-116.7637C508.6106,-107.398 494.7268,-95.7014 483.8578,-86.5446"/>
<polygon fill="#191970" stroke="#191970" points="517.6909,-119.6243 527.5938,-123.3906 522.201,-114.2709 517.6909,-119.6243"/>
</g>
<!-- Node24&#45;&gt;Node30 -->
<g id="edge7" class="edge">
<title>Node24&#45;&gt;Node30</title>
<path fill="none" stroke="#191970" d="M583.147,-120.6025C618.1433,-110.7748 667.1842,-97.0031 704.4266,-86.5446"/>
<polygon fill="#191970" stroke="#191970" points="581.9,-117.3173 573.2188,-123.3906 583.7926,-124.0566 581.9,-117.3173"/>
</g>
<!-- Node31 -->
<g id="node9" class="node">
<title>Node31</title>
<g id="a_node9"><a xlink:href="UIManager_8cxx.html" target="_top" xlink:title="src/engine/UIManager.cxx">
<polygon fill="none" stroke="#000000" points="541,-62 541,-81 683,-81 683,-62 541,-62"/>
<text text-anchor="middle" x="612" y="-69" font-family="Helvetica,sans-Serif" font-size="10.00" fill="#000000">src/engine/UIManager.cxx</text>
</a>
</g>
</g>
<!-- Node24&#45;&gt;Node31 -->
<g id="edge8" class="edge">
<title>Node24&#45;&gt;Node31</title>
<path fill="none" stroke="#191970" d="M558.1471,-116.8692C571.5739,-105.5576 589.0837,-90.8062 600.4329,-81.2449"/>
<polygon fill="#191970" stroke="#191970" points="555.799,-114.2709 550.4063,-123.3906 560.3091,-119.6243 555.799,-114.2709"/>
</g>
<!-- Node26 -->
<g id="node4" class="node">
<title>Node26</title>
<g id="a_node4"><a xlink:href="Timer_8cxx.html" target="_top" xlink:title="src/engine/basics/Timer.cxx">
<polygon fill="none" stroke="#000000" points="0,-.5 0,-19.5 152,-19.5 152,-.5 0,-.5"/>
<text text-anchor="middle" x="76" y="-7.5" font-family="Helvetica,sans-Serif" font-size="10.00" fill="#000000">src/engine/basics/Timer.cxx</text>
</a>
</g>
</g>
<!-- Node25&#45;&gt;Node26 -->
<g id="edge3" class="edge">
<title>Node25&#45;&gt;Node26</title>
<path fill="none" stroke="#191970" d="M225.8194,-58.7507C189.9587,-47.0818 137.6946,-30.0752 105.3239,-19.5419"/>
<polygon fill="#191970" stroke="#191970" points="224.8765,-62.1245 235.4688,-61.8906 227.0425,-55.4681 224.8765,-62.1245"/>
</g>
<!-- Node27 -->
<g id="node5" class="node">
<title>Node27</title>
<g id="a_node5"><a xlink:href="EventManager_8cxx.html" target="_top" xlink:title="src/engine/EventManager.cxx">
<polygon fill="none" stroke="#000000" points="170.5,-.5 170.5,-19.5 329.5,-19.5 329.5,-.5 170.5,-.5"/>
<text text-anchor="middle" x="250" y="-7.5" font-family="Helvetica,sans-Serif" font-size="10.00" fill="#000000">src/engine/EventManager.cxx</text>
</a>
</g>
</g>
<!-- Node25&#45;&gt;Node27 -->
<g id="edge4" class="edge">
<title>Node25&#45;&gt;Node27</title>
<path fill="none" stroke="#191970" d="M260.2642,-52.0832C257.6392,-41.3205 254.4888,-28.4042 252.3768,-19.7449"/>
<polygon fill="#191970" stroke="#191970" points="256.8863,-53.0048 262.6563,-61.8906 263.6869,-51.346 256.8863,-53.0048"/>
</g>
<!-- Node25&#45;&gt;Node28 -->
<g id="edge5" class="edge">
<title>Node25&#45;&gt;Node28</title>
<path fill="none" stroke="#191970" d="M293.4669,-57.3813C316.8518,-45.7832 349.34,-29.6701 369.7611,-19.5419"/>
<polygon fill="#191970" stroke="#191970" points="291.7785,-54.3118 284.375,-61.8906 294.8888,-60.5829 291.7785,-54.3118"/>
</g>
</g>
</svg>
        <g id="navigator" transform="translate(0 0)" fill="#404254">
                <rect fill="#f2f5e9" fill-opacity="0.5" stroke="#606060" stroke-width=".5" x="0" y="0" width="60" height="60"/>
                <use id="zoomplus" xlink:href="#zoomPlus" x="17" y="9" onmousedown="handleZoom(evt,'in')"/>
                <use id="zoomminus" xlink:href="#zoomMin" x="42" y="9" onmousedown="handleZoom(evt,'out')"/>
                <use id="reset" xlink:href="#resetDef" x="30" y="36" onmousedown="handleReset()"/>
                <g id="arrowUp" xlink:href="#dirArrow" transform="translate(30 24)" onmousedown="handlePan(0,-1)">
                  <use xlink:href="#rim" fill="#404040">
                        <set attributeName="fill" to="#808080" begin="arrowUp.mouseover" end="arrowUp.mouseout"/>
                  </use>
                  <path fill="none" stroke="white" stroke-width="1.5" d="M0,-3.0v7 M-2.5,-0.5L0,-3.0L2.5,-0.5"/>
                </g>
                <g id="arrowRight" xlink:href="#dirArrow" transform="rotate(90) translate(36 -43)" onmousedown="handlePan(1,0)">
                  <use xlink:href="#rim" fill="#404040">
                        <set attributeName="fill" to="#808080" begin="arrowRight.mouseover" end="arrowRight.mouseout"/>
                  </use>
                  <path fill="none" stroke="white" stroke-width="1.5" d="M0,-3.0v7 M-2.5,-0.5L0,-3.0L2.5,-0.5"/>
                </g>
                <g id="arrowDown" xlink:href="#dirArrow" transform="rotate(180) translate(-30 -48)" onmousedown="handlePan(0,1)">
                  <use xlink:href="#rim" fill="#404040">
                        <set attributeName="fill" to="#808080" begin="arrowDown.mouseover" end="arrowDown.mouseout"/>
                  </use>
                  <path fill="none" stroke="white" stroke-width="1.5" d="M0,-3.0v7 M-2.5,-0.5L0,-3.0L2.5,-0.5"/>
                </g>
                <g id="arrowLeft" xlink:href="#dirArrow" transform="rotate(270) translate(-36 17)" onmousedown="handlePan(-1,0)">
                  <use xlink:href="#rim" fill="#404040">
                        <set attributeName="fill" to="#808080" begin="arrowLeft.mouseover" end="arrowLeft.mouseout"/>
                  </use>
                  <path fill="none" stroke="white" stroke-width="1.5" d="M0,-3.0v7 M-2.5,-0.5L0,-3.0L2.5,-0.5"/>
                </g>
        </g>
        <svg viewBox="0 0 15 15" width="100%" height="30px" preserveAspectRatio="xMaxYMin meet">
         <g id="arrow_out" transform="scale(0.3 0.3)">
          <a xlink:href="Layout_8hxx__dep__incl_org.svg" target="_base">
           <rect id="button" ry="5" rx="5" y="6" x="6" height="38" width="38"
                fill="#f2f5e9" fill-opacity="0.5" stroke="#606060" stroke-width="1.0"/>
           <path id="arrow"
             d="M 11.500037,31.436501 C 11.940474,20.09759 22.043105,11.32322 32.158766,21.979434 L 37.068811,17.246167 C 37.068811,17.246167 37.088388,32 37.088388,32 L 22.160133,31.978069 C 22.160133,31.978069 26.997745,27.140456 26.997745,27.140456 C 18.528582,18.264221 13.291696,25.230495 11.500037,31.436501 z"
             style="fill:#404040;"/>
          </a>
         </g>
        </svg>
</svg>
