<?xml version="1.0" encoding="UTF-8" standalone="no"?>
<!DOCTYPE svg PUBLIC "-//W3C//DTD SVG 1.1//EN"
 "http://www.w3.org/Graphics/SVG/1.1/DTD/svg11.dtd">
<!-- Generated by graphviz version 2.40.1 (20161225.0304)
 -->
<!-- Title: src/util/LOG.inl.hxx Pages: 1 -->
<svg width="3773pt" height="263pt"
 viewBox="0.00 0.00 3772.50 263.00" xmlns="http://www.w3.org/2000/svg" xmlns:xlink="http://www.w3.org/1999/xlink">
<g id="graph0" class="graph" transform="scale(1 1) rotate(0) translate(4 259)">
<title>src/util/LOG.inl.hxx</title>
<!-- Node1 -->
<g id="node1" class="node">
<title>Node1</title>
<polygon fill="#bfbfbf" stroke="#000000" points="2076.5,-235.5 2076.5,-254.5 2185.5,-254.5 2185.5,-235.5 2076.5,-235.5"/>
<text text-anchor="middle" x="2131" y="-242.5" font-family="Helvetica,sans-Serif" font-size="10.00" fill="#000000">src/util/LOG.inl.hxx</text>
</g>
<!-- Node2 -->
<g id="node2" class="node">
<title>Node2</title>
<g id="a_node2"><a xlink:href="LOG_8hxx.html" target="_top" xlink:title="src/util/LOG.hxx">
<polygon fill="none" stroke="#000000" points="2084,-179.5 2084,-198.5 2178,-198.5 2178,-179.5 2084,-179.5"/>
<text text-anchor="middle" x="2131" y="-186.5" font-family="Helvetica,sans-Serif" font-size="10.00" fill="#000000">src/util/LOG.hxx</text>
</a>
</g>
</g>
<!-- Node1&#45;&gt;Node2 -->
<g id="edge1" class="edge">
<title>Node1&#45;&gt;Node2</title>
<path fill="none" stroke="#191970" d="M2131,-225.1575C2131,-216.155 2131,-205.9199 2131,-198.6427"/>
<polygon fill="#191970" stroke="#191970" points="2127.5001,-225.2455 2131,-235.2455 2134.5001,-225.2456 2127.5001,-225.2455"/>
</g>
<!-- Node3 -->
<g id="node3" class="node">
<title>Node3</title>
<g id="a_node3"><a xlink:href="compression_8hxx.html" target="_top" xlink:title="src/engine/basics/compression.hxx">
<polygon fill="none" stroke="#000000" points="21.5,-118 21.5,-137 208.5,-137 208.5,-118 21.5,-118"/>
<text text-anchor="middle" x="115" y="-125" font-family="Helvetica,sans-Serif" font-size="10.00" fill="#000000">src/engine/basics/compression.hxx</text>
</a>
</g>
</g>
<!-- Node2&#45;&gt;Node3 -->
<g id="edge2" class="edge">
<title>Node2&#45;&gt;Node3</title>
<path fill="none" stroke="#191970" d="M2073.6393,-188.5913C1796.2394,-186.4665 591.941,-175.5033 218,-143 202.2366,-141.6298 185.2159,-139.3855 169.6391,-137.0247"/>
<polygon fill="#191970" stroke="#191970" points="2073.8504,-192.0929 2083.8767,-188.6689 2073.9035,-185.0931 2073.8504,-192.0929"/>
</g>
<!-- Node4 -->
<g id="node4" class="node">
<title>Node4</title>
<g id="a_node4"><a xlink:href="Map_8cxx.html" target="_top" xlink:title="src/engine/Map.cxx">
<polygon fill="none" stroke="#000000" points="0,-56.5 0,-75.5 110,-75.5 110,-56.5 0,-56.5"/>
<text text-anchor="middle" x="55" y="-63.5" font-family="Helvetica,sans-Serif" font-size="10.00" fill="#000000">src/engine/Map.cxx</text>
</a>
</g>
</g>
<!-- Node2&#45;&gt;Node4 -->
<g id="edge10" class="edge">
<title>Node2&#45;&gt;Node4</title>
<path fill="none" stroke="#191970" d="M2073.205,-188.8494C1737.2234,-187.8403 49.0746,-180.8882 12,-143 -7.918,-122.645 23.8068,-91.2206 42.6455,-75.5573"/>
<polygon fill="#191970" stroke="#191970" points="2073.6576,-192.3507 2083.6679,-188.8802 2073.6783,-185.3507 2073.6576,-192.3507"/>
</g>
<!-- Node5 -->
<g id="node5" class="node">
<title>Node5</title>
<g id="a_node5"><a xlink:href="isoMath_8cxx.html" target="_top" xlink:title="src/engine/basics/isoMath.cxx">
<polygon fill="none" stroke="#000000" points="227,-118 227,-137 389,-137 389,-118 227,-118"/>
<text text-anchor="middle" x="308" y="-125" font-family="Helvetica,sans-Serif" font-size="10.00" fill="#000000">src/engine/basics/isoMath.cxx</text>
</a>
</g>
</g>
<!-- Node2&#45;&gt;Node5 -->
<g id="edge4" class="edge">
<title>Node2&#45;&gt;Node5</title>
<path fill="none" stroke="#191970" d="M2073.5848,-188.5884C1812.3171,-186.5446 734.0207,-176.2202 398,-143 384.273,-141.6429 369.4817,-139.4181 355.9348,-137.072"/>
<polygon fill="#191970" stroke="#191970" points="2073.5883,-192.0884 2083.615,-188.6659 2073.6424,-185.0886 2073.5883,-192.0884"/>
</g>
<!-- Node6 -->
<g id="node6" class="node">
<title>Node6</title>
<g id="a_node6"><a xlink:href="Settings_8cxx.html" target="_top" xlink:title="src/engine/basics/Settings.cxx">
<polygon fill="none" stroke="#000000" points="407,-118 407,-137 571,-137 571,-118 407,-118"/>
<text text-anchor="middle" x="489" y="-125" font-family="Helvetica,sans-Serif" font-size="10.00" fill="#000000">src/engine/basics/Settings.cxx</text>
</a>
</g>
</g>
<!-- Node2&#45;&gt;Node6 -->
<g id="edge5" class="edge">
<title>Node2&#45;&gt;Node6</title>
<path fill="none" stroke="#191970" d="M2073.7681,-188.3696C1830.1406,-185.5213 878.2942,-172.6822 580,-143 566.1258,-141.6194 551.1717,-139.3871 537.4742,-137.0413"/>
<polygon fill="#191970" stroke="#191970" points="2073.7839,-191.8699 2083.8238,-188.4861 2073.8651,-184.8703 2073.7839,-191.8699"/>
</g>
<!-- Node7 -->
<g id="node7" class="node">
<title>Node7</title>
<g id="a_node7"><a xlink:href="Timer_8cxx.html" target="_top" xlink:title="src/engine/basics/Timer.cxx">
<polygon fill="none" stroke="#000000" points="589,-118 589,-137 741,-137 741,-118 589,-118"/>
<text text-anchor="middle" x="665" y="-125" font-family="Helvetica,sans-Serif" font-size="10.00" fill="#000000">src/engine/basics/Timer.cxx</text>
</a>
</g>
</g>
<!-- Node2&#45;&gt;Node7 -->
<g id="edge6" class="edge">
<title>Node2&#45;&gt;Node7</title>
<path fill="none" stroke="#191970" d="M2073.8242,-188.2179C1847.3741,-184.9466 1012.9544,-171.1998 750,-143 737.0242,-141.6084 723.0509,-139.3726 710.2567,-137.0269"/>
<polygon fill="#191970" stroke="#191970" points="2073.7811,-191.7176 2083.8303,-188.3614 2073.8815,-184.7183 2073.7811,-191.7176"/>
</g>
<!-- Node8 -->
<g id="node8" class="node">
<title>Node8</title>
<g id="a_node8"><a xlink:href="EventManager_8cxx.html" target="_top" xlink:title="src/engine/EventManager.cxx">
<polygon fill="none" stroke="#000000" points="759.5,-118 759.5,-137 918.5,-137 918.5,-118 759.5,-118"/>
<text text-anchor="middle" x="839" y="-125" font-family="Helvetica,sans-Serif" font-size="10.00" fill="#000000">src/engine/EventManager.cxx</text>
</a>
</g>
</g>
<!-- Node2&#45;&gt;Node8 -->
<g id="edge7" class="edge">
<title>Node2&#45;&gt;Node8</title>
<path fill="none" stroke="#191970" d="M2073.8199,-187.8327C1866.4652,-183.4406 1154.3708,-166.9307 928,-143 914.5865,-141.582 900.1412,-139.3675 886.8711,-137.0516"/>
<polygon fill="#191970" stroke="#191970" points="2073.8136,-191.3332 2083.8851,-188.0447 2073.9611,-184.3348 2073.8136,-191.3332"/>
</g>
<!-- Node9 -->
<g id="node9" class="node">
<title>Node9</title>
<g id="a_node9"><a xlink:href="MapNode_8cxx.html" target="_top" xlink:title="src/engine/GameObjects\l/MapNode.cxx">
<polygon fill="none" stroke="#000000" points="937,-112.5 937,-142.5 1073,-142.5 1073,-112.5 937,-112.5"/>
<text text-anchor="start" x="945" y="-130.5" font-family="Helvetica,sans-Serif" font-size="10.00" fill="#000000">src/engine/GameObjects</text>
<text text-anchor="middle" x="1005" y="-119.5" font-family="Helvetica,sans-Serif" font-size="10.00" fill="#000000">/MapNode.cxx</text>
</a>
</g>
</g>
<!-- Node2&#45;&gt;Node9 -->
<g id="edge8" class="edge">
<title>Node2&#45;&gt;Node9</title>
<path fill="none" stroke="#191970" d="M2073.6568,-187.6568C1883.7603,-183.0247 1276.455,-166.6907 1082,-143 1079.1574,-142.6537 1076.263,-142.2599 1073.3445,-141.8287"/>
<polygon fill="#191970" stroke="#191970" points="2073.6274,-191.157 2083.7094,-187.9005 2073.7972,-184.1591 2073.6274,-191.157"/>
</g>
<!-- Node10 -->
<g id="node10" class="node">
<title>Node10</title>
<g id="a_node10"><a xlink:href="TerrainGenerator_8cxx.html" target="_top" xlink:title="src/engine/map/TerrainGenerator.cxx">
<polygon fill="none" stroke="#000000" points="1091,-118 1091,-137 1287,-137 1287,-118 1091,-118"/>
<text text-anchor="middle" x="1189" y="-125" font-family="Helvetica,sans-Serif" font-size="10.00" fill="#000000">src/engine/map/TerrainGenerator.cxx</text>
</a>
</g>
</g>
<!-- Node2&#45;&gt;Node10 -->
<g id="edge9" class="edge">
<title>Node2&#45;&gt;Node10</title>
<path fill="none" stroke="#191970" d="M2073.6541,-187.5958C1938.1115,-183.8943 1587.4553,-172.0802 1296,-143 1280.4043,-141.4439 1263.5988,-139.2539 1248.0319,-137.0091"/>
<polygon fill="#191970" stroke="#191970" points="2073.7143,-191.0986 2083.8048,-187.8688 2073.9025,-184.1011 2073.7143,-191.0986"/>
</g>
<!-- Node11 -->
<g id="node11" class="node">
<title>Node11</title>
<g id="a_node11"><a xlink:href="ResourcesManager_8cxx.html" target="_top" xlink:title="src/engine/ResourcesManager.cxx">
<polygon fill="none" stroke="#000000" points="1305.5,-118 1305.5,-137 1486.5,-137 1486.5,-118 1305.5,-118"/>
<text text-anchor="middle" x="1396" y="-125" font-family="Helvetica,sans-Serif" font-size="10.00" fill="#000000">src/engine/ResourcesManager.cxx</text>
</a>
</g>
</g>
<!-- Node2&#45;&gt;Node11 -->
<g id="edge11" class="edge">
<title>Node2&#45;&gt;Node11</title>
<path fill="none" stroke="#191970" d="M2073.7729,-186.4579C1962.1785,-181.1478 1707.7864,-167.3101 1495,-143 1480.8268,-141.3808 1465.5758,-139.2085 1451.3918,-137.0037"/>
<polygon fill="#191970" stroke="#191970" points="2073.6476,-189.9558 2083.8012,-186.9304 2073.977,-182.9636 2073.6476,-189.9558"/>
</g>
<!-- Node12 -->
<g id="node12" class="node">
<title>Node12</title>
<g id="a_node12"><a xlink:href="Sprite_8cxx.html" target="_top" xlink:title="src/engine/Sprite.cxx">
<polygon fill="none" stroke="#000000" points="1504.5,-118 1504.5,-137 1623.5,-137 1623.5,-118 1504.5,-118"/>
<text text-anchor="middle" x="1564" y="-125" font-family="Helvetica,sans-Serif" font-size="10.00" fill="#000000">src/engine/Sprite.cxx</text>
</a>
</g>
</g>
<!-- Node2&#45;&gt;Node12 -->
<g id="edge12" class="edge">
<title>Node2&#45;&gt;Node12</title>
<path fill="none" stroke="#191970" d="M2073.9138,-186.1974C1980.886,-181.0799 1790.9971,-168.3357 1632,-143 1622.0753,-141.4185 1611.4381,-139.2332 1601.5937,-137.0019"/>
<polygon fill="#191970" stroke="#191970" points="2073.7862,-189.6955 2083.9608,-186.741 2074.1645,-182.7057 2073.7862,-189.6955"/>
</g>
<!-- Node13 -->
<g id="node13" class="node">
<title>Node13</title>
<g id="a_node13"><a xlink:href="TileManager_8cxx.html" target="_top" xlink:title="src/engine/TileManager.cxx">
<polygon fill="none" stroke="#000000" points="1641.5,-118 1641.5,-137 1790.5,-137 1790.5,-118 1641.5,-118"/>
<text text-anchor="middle" x="1716" y="-125" font-family="Helvetica,sans-Serif" font-size="10.00" fill="#000000">src/engine/TileManager.cxx</text>
</a>
</g>
</g>
<!-- Node2&#45;&gt;Node13 -->
<g id="edge13" class="edge">
<title>Node2&#45;&gt;Node13</title>
<path fill="none" stroke="#191970" d="M2073.6554,-181.8854C2007.3784,-173.4701 1895.0896,-158.6202 1799,-143 1788.0036,-141.2124 1776.2212,-139.1202 1765.0885,-137.0616"/>
<polygon fill="#191970" stroke="#191970" points="2073.5276,-185.397 2083.8879,-183.1799 2074.4062,-178.4524 2073.5276,-185.397"/>
</g>
<!-- Node14 -->
<g id="node14" class="node">
<title>Node14</title>
<g id="a_node14"><a xlink:href="Layout_8cxx.html" target="_top" xlink:title="src/engine/ui/basics\l/Layout.cxx">
<polygon fill="none" stroke="#000000" points="1808.5,-112.5 1808.5,-142.5 1921.5,-142.5 1921.5,-112.5 1808.5,-112.5"/>
<text text-anchor="start" x="1816.5" y="-130.5" font-family="Helvetica,sans-Serif" font-size="10.00" fill="#000000">src/engine/ui/basics</text>
<text text-anchor="middle" x="1865" y="-119.5" font-family="Helvetica,sans-Serif" font-size="10.00" fill="#000000">/Layout.cxx</text>
</a>
</g>
</g>
<!-- Node2&#45;&gt;Node14 -->
<g id="edge14" class="edge">
<title>Node2&#45;&gt;Node14</title>
<path fill="none" stroke="#191970" d="M2078.6888,-177.1655C2038.105,-167.9509 1980.4531,-154.7885 1930,-143 1927.2888,-142.3665 1924.5146,-141.7156 1921.7131,-141.056"/>
<polygon fill="#191970" stroke="#191970" points="2078.0976,-180.6202 2088.6242,-179.4199 2079.6466,-173.7937 2078.0976,-180.6202"/>
</g>
<!-- Node15 -->
<g id="node15" class="node">
<title>Node15</title>
<g id="a_node15"><a xlink:href="UIElement_8cxx.html" target="_top" xlink:title="src/engine/ui/basics\l/UIElement.cxx">
<polygon fill="none" stroke="#000000" points="1939.5,-112.5 1939.5,-142.5 2052.5,-142.5 2052.5,-112.5 1939.5,-112.5"/>
<text text-anchor="start" x="1947.5" y="-130.5" font-family="Helvetica,sans-Serif" font-size="10.00" fill="#000000">src/engine/ui/basics</text>
<text text-anchor="middle" x="1996" y="-119.5" font-family="Helvetica,sans-Serif" font-size="10.00" fill="#000000">/UIElement.cxx</text>
</a>
</g>
</g>
<!-- Node2&#45;&gt;Node15 -->
<g id="edge15" class="edge">
<title>Node2&#45;&gt;Node15</title>
<path fill="none" stroke="#191970" d="M2100.6745,-175.185C2079.3749,-165.4819 2050.8985,-152.5093 2029.0247,-142.5446"/>
<polygon fill="#191970" stroke="#191970" points="2099.355,-178.43 2109.9063,-179.3906 2102.257,-172.0598 2099.355,-178.43"/>
</g>
<!-- Node16 -->
<g id="node16" class="node">
<title>Node16</title>
<g id="a_node16"><a xlink:href="Button_8cxx.html" target="_top" xlink:title="src/engine/ui/widgets\l/Button.cxx">
<polygon fill="none" stroke="#000000" points="2071,-112.5 2071,-142.5 2191,-142.5 2191,-112.5 2071,-112.5"/>
<text text-anchor="start" x="2079" y="-130.5" font-family="Helvetica,sans-Serif" font-size="10.00" fill="#000000">src/engine/ui/widgets</text>
<text text-anchor="middle" x="2131" y="-119.5" font-family="Helvetica,sans-Serif" font-size="10.00" fill="#000000">/Button.cxx</text>
</a>
</g>
</g>
<!-- Node2&#45;&gt;Node16 -->
<g id="edge16" class="edge">
<title>Node2&#45;&gt;Node16</title>
<path fill="none" stroke="#191970" d="M2131,-169.3693C2131,-160.681 2131,-150.6241 2131,-142.5446"/>
<polygon fill="#191970" stroke="#191970" points="2127.5001,-169.3906 2131,-179.3906 2134.5001,-169.3907 2127.5001,-169.3906"/>
</g>
<!-- Node17 -->
<g id="node17" class="node">
<title>Node17</title>
<g id="a_node17"><a xlink:href="Combobox_8cxx.html" target="_top" xlink:title="src/engine/ui/widgets\l/Combobox.cxx">
<polygon fill="none" stroke="#000000" points="2209,-112.5 2209,-142.5 2329,-142.5 2329,-112.5 2209,-112.5"/>
<text text-anchor="start" x="2217" y="-130.5" font-family="Helvetica,sans-Serif" font-size="10.00" fill="#000000">src/engine/ui/widgets</text>
<text text-anchor="middle" x="2269" y="-119.5" font-family="Helvetica,sans-Serif" font-size="10.00" fill="#000000">/Combobox.cxx</text>
</a>
</g>
</g>
<!-- Node2&#45;&gt;Node17 -->
<g id="edge17" class="edge">
<title>Node2&#45;&gt;Node17</title>
<path fill="none" stroke="#191970" d="M2161.7057,-175.316C2183.51,-165.5988 2212.7808,-152.5542 2235.2414,-142.5446"/>
<polygon fill="#191970" stroke="#191970" points="2160.2718,-172.1231 2152.5625,-179.3906 2163.1213,-178.5169 2160.2718,-172.1231"/>
</g>
<!-- Node18 -->
<g id="node18" class="node">
<title>Node18</title>
<g id="a_node18"><a xlink:href="Text_8cxx.html" target="_top" xlink:title="src/engine/ui/widgets\l/Text.cxx">
<polygon fill="none" stroke="#000000" points="2347,-112.5 2347,-142.5 2467,-142.5 2467,-112.5 2347,-112.5"/>
<text text-anchor="start" x="2355" y="-130.5" font-family="Helvetica,sans-Serif" font-size="10.00" fill="#000000">src/engine/ui/widgets</text>
<text text-anchor="middle" x="2407" y="-119.5" font-family="Helvetica,sans-Serif" font-size="10.00" fill="#000000">/Text.cxx</text>
</a>
</g>
</g>
<!-- Node2&#45;&gt;Node18 -->
<g id="edge18" class="edge">
<title>Node2&#45;&gt;Node18</title>
<path fill="none" stroke="#191970" d="M2184.1851,-177.2164C2226.0013,-167.9431 2285.7233,-154.6802 2338,-143 2340.8757,-142.3575 2343.8187,-141.6992 2346.7911,-141.0338"/>
<polygon fill="#191970" stroke="#191970" points="2183.2262,-173.8439 2174.221,-179.4257 2184.7416,-180.6779 2183.2262,-173.8439"/>
</g>
<!-- Node19 -->
<g id="node19" class="node">
<title>Node19</title>
<g id="a_node19"><a xlink:href="UIManager_8cxx.html" target="_top" xlink:title="src/engine/UIManager.cxx">
<polygon fill="none" stroke="#000000" points="2485,-118 2485,-137 2627,-137 2627,-118 2485,-118"/>
<text text-anchor="middle" x="2556" y="-125" font-family="Helvetica,sans-Serif" font-size="10.00" fill="#000000">src/engine/UIManager.cxx</text>
</a>
</g>
</g>
<!-- Node2&#45;&gt;Node19 -->
<g id="edge19" class="edge">
<title>Node2&#45;&gt;Node19</title>
<path fill="none" stroke="#191970" d="M2188.1588,-182.4231C2256.7145,-174.2939 2375.0327,-159.4977 2476,-143 2486.7508,-141.2434 2498.2718,-139.1412 2509.1272,-137.0602"/>
<polygon fill="#191970" stroke="#191970" points="2187.5242,-178.9736 2178.0034,-183.6216 2188.3448,-185.9253 2187.5242,-178.9736"/>
</g>
<!-- Node20 -->
<g id="node20" class="node">
<title>Node20</title>
<g id="a_node20"><a xlink:href="WindowManager_8cxx.html" target="_top" xlink:title="src/engine/WindowManager.cxx">
<polygon fill="none" stroke="#000000" points="2645,-118 2645,-137 2815,-137 2815,-118 2645,-118"/>
<text text-anchor="middle" x="2730" y="-125" font-family="Helvetica,sans-Serif" font-size="10.00" fill="#000000">src/engine/WindowManager.cxx</text>
</a>
</g>
</g>
<!-- Node2&#45;&gt;Node20 -->
<g id="edge20" class="edge">
<title>Node2&#45;&gt;Node20</title>
<path fill="none" stroke="#191970" d="M2188.2452,-185.1455C2282.0319,-178.5255 2474.1817,-163.6836 2636,-143 2649.1251,-141.3224 2663.2267,-139.1796 2676.4127,-137.0262"/>
<polygon fill="#191970" stroke="#191970" points="2187.8501,-181.6645 2178.1193,-185.8552 2188.3395,-188.6473 2187.8501,-181.6645"/>
</g>
<!-- Node21 -->
<g id="node21" class="node">
<title>Node21</title>
<g id="a_node21"><a xlink:href="Randomizer_8hxx.html" target="_top" xlink:title="src/services/Randomizer.hxx">
<polygon fill="none" stroke="#000000" points="2909,-118 2909,-137 3065,-137 3065,-118 2909,-118"/>
<text text-anchor="middle" x="2987" y="-125" font-family="Helvetica,sans-Serif" font-size="10.00" fill="#000000">src/services/Randomizer.hxx</text>
</a>
</g>
</g>
<!-- Node2&#45;&gt;Node21 -->
<g id="edge21" class="edge">
<title>Node2&#45;&gt;Node21</title>
<path fill="none" stroke="#191970" d="M2188.3954,-187.6371C2315.8664,-184.1523 2632.0729,-172.9774 2895,-143 2908.5182,-141.4587 2923.0703,-139.2601 2936.5224,-137.0014"/>
<polygon fill="#191970" stroke="#191970" points="2188.0003,-184.1463 2178.0977,-187.913 2188.1879,-191.1438 2188.0003,-184.1463"/>
</g>
<!-- Node22 -->
<g id="node22" class="node">
<title>Node22</title>
<g id="a_node22"><a xlink:href="Game_8hxx.html" target="_top" xlink:title="src/Game.hxx">
<polygon fill="none" stroke="#000000" points="3083,-56.5 3083,-75.5 3167,-75.5 3167,-56.5 3083,-56.5"/>
<text text-anchor="middle" x="3125" y="-63.5" font-family="Helvetica,sans-Serif" font-size="10.00" fill="#000000">src/Game.hxx</text>
</a>
</g>
</g>
<!-- Node2&#45;&gt;Node22 -->
<g id="edge27" class="edge">
<title>Node2&#45;&gt;Node22</title>
<path fill="none" stroke="#191970" d="M2188.3282,-187.6277C2386.9132,-182.6893 3035.423,-164.948 3074,-143 3100.4796,-127.9346 3115.7465,-92.8171 3121.8585,-75.7109"/>
<polygon fill="#191970" stroke="#191970" points="2188.0171,-184.1342 2178.1068,-187.8804 2188.1902,-191.1321 2188.0171,-184.1342"/>
</g>
<!-- Node23 -->
<g id="node23" class="node">
<title>Node23</title>
<g id="a_node23"><a xlink:href="Game_8cxx.html" target="_top" xlink:title="src/Game.cxx">
<polygon fill="none" stroke="#000000" points="2862.5,-.5 2862.5,-19.5 2945.5,-19.5 2945.5,-.5 2862.5,-.5"/>
<text text-anchor="middle" x="2904" y="-7.5" font-family="Helvetica,sans-Serif" font-size="10.00" fill="#000000">src/Game.cxx</text>
</a>
</g>
</g>
<!-- Node2&#45;&gt;Node23 -->
<g id="edge28" class="edge">
<title>Node2&#45;&gt;Node23</title>
<path fill="none" stroke="#191970" d="M2188.5246,-187.2999C2350.893,-182.2238 2802.3966,-166.0849 2824,-143 2833.4142,-132.9402 2831.8082,-123.3516 2824,-112 2796.4404,-71.9337 2700.3317,-94.5309 2730,-56 2746.0128,-35.2038 2815.9444,-21.8921 2862.1302,-15.1976"/>
<polygon fill="#191970" stroke="#191970" points="2188.1422,-183.81 2178.2554,-187.6182 2188.3591,-190.8066 2188.1422,-183.81"/>
</g>
<!-- Node24 -->
<g id="node24" class="node">
<title>Node24</title>
<g id="a_node24"><a xlink:href="main_8cxx.html" target="_top" xlink:title="src/main.cxx">
<polygon fill="none" stroke="#000000" points="3120.5,-.5 3120.5,-19.5 3199.5,-19.5 3199.5,-.5 3120.5,-.5"/>
<text text-anchor="middle" x="3160" y="-7.5" font-family="Helvetica,sans-Serif" font-size="10.00" fill="#000000">src/main.cxx</text>
</a>
</g>
</g>
<!-- Node2&#45;&gt;Node24 -->
<g id="edge29" class="edge">
<title>Node2&#45;&gt;Node24</title>
<path fill="none" stroke="#191970" d="M2188.2471,-188.5559C2383.9256,-186.727 3018.7435,-178.1205 3103,-143 3123.3241,-134.5283 3167.14,-96.1579 3176,-76 3184.3497,-57.0032 3173.6561,-32.9317 3166.1571,-19.7421"/>
<polygon fill="#191970" stroke="#191970" points="2188.1386,-185.0567 2178.1709,-188.6477 2188.2024,-192.0564 2188.1386,-185.0567"/>
</g>
<!-- Node25 -->
<g id="node25" class="node">
<title>Node25</title>
<g id="a_node25"><a xlink:href="AudioMixer_8cxx.html" target="_top" xlink:title="src/services/AudioMixer.cxx">
<polygon fill="none" stroke="#000000" points="2739,-56.5 2739,-75.5 2891,-75.5 2891,-56.5 2739,-56.5"/>
<text text-anchor="middle" x="2815" y="-63.5" font-family="Helvetica,sans-Serif" font-size="10.00" fill="#000000">src/services/AudioMixer.cxx</text>
</a>
</g>
</g>
<!-- Node2&#45;&gt;Node25 -->
<g id="edge30" class="edge">
<title>Node2&#45;&gt;Node25</title>
<path fill="none" stroke="#191970" d="M2188.1067,-187.4924C2355.4217,-182.7998 2834.1943,-167.2964 2857,-143 2876.2796,-122.4602 2845.7604,-91.395 2827.3488,-75.7434"/>
<polygon fill="#191970" stroke="#191970" points="2187.9129,-183.9963 2178.014,-187.7729 2188.1074,-190.9936 2187.9129,-183.9963"/>
</g>
<!-- Node27 -->
<g id="node27" class="node">
<title>Node27</title>
<g id="a_node27"><a xlink:href="GameClock_8cxx.html" target="_top" xlink:title="src/services/GameClock.cxx">
<polygon fill="none" stroke="#000000" points="3159,-118 3159,-137 3313,-137 3313,-118 3159,-118"/>
<text text-anchor="middle" x="3236" y="-125" font-family="Helvetica,sans-Serif" font-size="10.00" fill="#000000">src/services/GameClock.cxx</text>
</a>
</g>
</g>
<!-- Node2&#45;&gt;Node27 -->
<g id="edge31" class="edge">
<title>Node2&#45;&gt;Node27</title>
<path fill="none" stroke="#191970" d="M2188.2636,-187.3338C2373.817,-181.7882 2957.3449,-163.1603 3145,-143 3158.5443,-141.5449 3173.1266,-139.3473 3186.5644,-137.0606"/>
<polygon fill="#191970" stroke="#191970" points="2188.0631,-183.8381 2178.1717,-187.6342 2188.2715,-190.835 2188.0631,-183.8381"/>
</g>
<!-- Node28 -->
<g id="node28" class="node">
<title>Node28</title>
<g id="a_node28"><a xlink:href="ResourceManager_8cxx.html" target="_top" xlink:title="src/services/ResourceManager.cxx">
<polygon fill="none" stroke="#000000" points="3331.5,-118 3331.5,-137 3514.5,-137 3514.5,-118 3331.5,-118"/>
<text text-anchor="middle" x="3423" y="-125" font-family="Helvetica,sans-Serif" font-size="10.00" fill="#000000">src/services/ResourceManager.cxx</text>
</a>
</g>
</g>
<!-- Node2&#45;&gt;Node28 -->
<g id="edge32" class="edge">
<title>Node2&#45;&gt;Node28</title>
<path fill="none" stroke="#191970" d="M2188.2915,-187.6521C2394.4189,-182.6674 3097.914,-164.4521 3322,-143 3337.187,-141.5461 3353.5685,-139.3198 3368.628,-137.0042"/>
<polygon fill="#191970" stroke="#191970" points="2188.1948,-184.1533 2178.282,-187.8932 2188.3634,-191.1513 2188.1948,-184.1533"/>
</g>
<!-- Node29 -->
<g id="node29" class="node">
<title>Node29</title>
<g id="a_node29"><a xlink:href="Exception_8cxx.html" target="_top" xlink:title="src/util/Exception.cxx">
<polygon fill="none" stroke="#000000" points="3532.5,-118 3532.5,-137 3653.5,-137 3653.5,-118 3532.5,-118"/>
<text text-anchor="middle" x="3593" y="-125" font-family="Helvetica,sans-Serif" font-size="10.00" fill="#000000">src/util/Exception.cxx</text>
</a>
</g>
</g>
<!-- Node2&#45;&gt;Node29 -->
<g id="edge33" class="edge">
<title>Node2&#45;&gt;Node29</title>
<path fill="none" stroke="#191970" d="M2188.3267,-188.5438C2416.3245,-186.5069 3259.2427,-176.8034 3524,-143 3534.5956,-141.6472 3545.9585,-139.4237 3556.3436,-137.0776"/>
<polygon fill="#191970" stroke="#191970" points="2188.223,-185.0445 2178.2542,-188.6323 2188.2846,-192.0442 2188.223,-185.0445"/>
</g>
<!-- Node30 -->
<g id="node30" class="node">
<title>Node30</title>
<g id="a_node30"><a xlink:href="LOG_8cxx.html" target="_top" xlink:title="src/util/LOG.cxx">
<polygon fill="none" stroke="#000000" points="3671.5,-118 3671.5,-137 3764.5,-137 3764.5,-118 3671.5,-118"/>
<text text-anchor="middle" x="3718" y="-125" font-family="Helvetica,sans-Serif" font-size="10.00" fill="#000000">src/util/LOG.cxx</text>
</a>
</g>
</g>
<!-- Node2&#45;&gt;Node30 -->
<g id="edge34" class="edge">
<title>Node2&#45;&gt;Node30</title>
<path fill="none" stroke="#191970" d="M2188.5573,-188.1054C2449.542,-183.936 3515.4583,-165.6543 3663,-143 3671.629,-141.6751 3680.8245,-139.4295 3689.1775,-137.0527"/>
<polygon fill="#191970" stroke="#191970" points="2188.116,-184.6118 2178.173,-188.2706 2188.2274,-191.611 2188.116,-184.6118"/>
</g>
<!-- Node3&#45;&gt;Node4 -->
<g id="edge3" class="edge">
<title>Node3&#45;&gt;Node4</title>
<path fill="none" stroke="#191970" d="M98.6345,-110.7253C87.6857,-99.5028 73.6593,-85.1258 64.5072,-75.7449"/>
<polygon fill="#191970" stroke="#191970" points="96.1365,-113.1769 105.625,-117.8906 101.147,-108.2886 96.1365,-113.1769"/>
</g>
<!-- Node21&#45;&gt;Node22 -->
<g id="edge22" class="edge">
<title>Node21&#45;&gt;Node22</title>
<path fill="none" stroke="#191970" d="M3017.9894,-113.6895C3044.0622,-102.0701 3080.6602,-85.7601 3103.5889,-75.5419"/>
<polygon fill="#191970" stroke="#191970" points="3016.2718,-110.6231 3008.5625,-117.8906 3019.1213,-117.0169 3016.2718,-110.6231"/>
</g>
<!-- Node21&#45;&gt;Node25 -->
<g id="edge25" class="edge">
<title>Node21&#45;&gt;Node25</title>
<path fill="none" stroke="#191970" d="M2950.5035,-114.4504C2917.8968,-102.7916 2870.8935,-85.9852 2841.6863,-75.5419"/>
<polygon fill="#191970" stroke="#191970" points="2949.5304,-117.8194 2960.125,-117.8906 2951.8872,-111.2281 2949.5304,-117.8194"/>
</g>
<!-- Node26 -->
<g id="node26" class="node">
<title>Node26</title>
<g id="a_node26"><a xlink:href="Randomizer_8cxx.html" target="_top" xlink:title="src/services/Randomizer.cxx">
<polygon fill="none" stroke="#000000" points="2909.5,-56.5 2909.5,-75.5 3064.5,-75.5 3064.5,-56.5 2909.5,-56.5"/>
<text text-anchor="middle" x="2987" y="-63.5" font-family="Helvetica,sans-Serif" font-size="10.00" fill="#000000">src/services/Randomizer.cxx</text>
</a>
</g>
</g>
<!-- Node21&#45;&gt;Node26 -->
<g id="edge26" class="edge">
<title>Node21&#45;&gt;Node26</title>
<path fill="none" stroke="#191970" d="M2987,-107.7462C2987,-97.0519 2987,-84.314 2987,-75.7449"/>
<polygon fill="#191970" stroke="#191970" points="2983.5001,-107.8906 2987,-117.8906 2990.5001,-107.8907 2983.5001,-107.8906"/>
</g>
<!-- Node22&#45;&gt;Node23 -->
<g id="edge23" class="edge">
<title>Node22&#45;&gt;Node23</title>
<path fill="none" stroke="#191970" d="M3077.3137,-53.9166C3036.664,-43.6162 2979.0333,-29.013 2941.5845,-19.5237"/>
<polygon fill="#191970" stroke="#191970" points="3076.7065,-57.3733 3087.2599,-56.4369 3078.4259,-50.5877 3076.7065,-57.3733"/>
</g>
<!-- Node22&#45;&gt;Node24 -->
<g id="edge24" class="edge">
<title>Node22&#45;&gt;Node24</title>
<path fill="none" stroke="#191970" d="M3136.4815,-47.6296C3142.3196,-38.2887 3149.1752,-27.3197 3153.9733,-19.6427"/>
<polygon fill="#191970" stroke="#191970" points="3133.4286,-45.9105 3131.0965,-56.2455 3139.3646,-49.6206 3133.4286,-45.9105"/>
</g>
</g>
</svg>
