<?xml version="1.0" encoding="UTF-8" standalone="no"?>
<!DOCTYPE svg PUBLIC "-//W3C//DTD SVG 1.1//EN"
 "http://www.w3.org/Graphics/SVG/1.1/DTD/svg11.dtd">
<!-- Generated by graphviz version 2.40.1 (20161225.0304)
 -->
<!-- Title: src/engine/Map.hxx Pages: 1 -->
<svg width="1066pt" height="196pt"
 viewBox="0.00 0.00 1065.50 196.00" xmlns="http://www.w3.org/2000/svg" xmlns:xlink="http://www.w3.org/1999/xlink">
<g id="graph0" class="graph" transform="scale(1 1) rotate(0) translate(4 192)">
<title>src/engine/Map.hxx</title>
<!-- Node20 -->
<g id="node1" class="node">
<title>Node20</title>
<polygon fill="#bfbfbf" stroke="#000000" points="839,-168.5 839,-187.5 950,-187.5 950,-168.5 839,-168.5"/>
<text text-anchor="middle" x="894.5" y="-175.5" font-family="Helvetica,sans-Serif" font-size="10.00" fill="#000000">src/engine/Map.hxx</text>
</g>
<!-- Node21 -->
<g id="node2" class="node">
<title>Node21</title>
<g id="a_node2"><a xlink:href="Engine_8hxx.html" target="_top" xlink:title="src/engine/Engine.hxx">
<polygon fill="none" stroke="#000000" points="408.5,-112.5 408.5,-131.5 532.5,-131.5 532.5,-112.5 408.5,-112.5"/>
<text text-anchor="middle" x="470.5" y="-119.5" font-family="Helvetica,sans-Serif" font-size="10.00" fill="#000000">src/engine/Engine.hxx</text>
</a>
</g>
</g>
<!-- Node20&#45;&gt;Node21 -->
<g id="edge1" class="edge">
<title>Node20&#45;&gt;Node21</title>
<path fill="none" stroke="#191970" d="M828.5735,-169.2927C747.744,-158.6171 611.7786,-140.6594 532.6926,-130.2141"/>
<polygon fill="#191970" stroke="#191970" points="828.2612,-172.7818 838.6334,-170.6214 829.1778,-165.8421 828.2612,-172.7818"/>
</g>
<!-- Node26 -->
<g id="node7" class="node">
<title>Node26</title>
<g id="a_node7"><a xlink:href="EventManager_8cxx.html" target="_top" xlink:title="src/engine/EventManager.cxx">
<polygon fill="none" stroke="#000000" points="556,-.5 556,-19.5 715,-19.5 715,-.5 556,-.5"/>
<text text-anchor="middle" x="635.5" y="-7.5" font-family="Helvetica,sans-Serif" font-size="10.00" fill="#000000">src/engine/EventManager.cxx</text>
</a>
</g>
</g>
<!-- Node20&#45;&gt;Node26 -->
<g id="edge11" class="edge">
<title>Node20&#45;&gt;Node26</title>
<path fill="none" stroke="#191970" d="M902.676,-158.763C912.472,-132.3361 924.7388,-84.8087 900.5,-56 877.1264,-28.2196 784.3733,-17.2158 715.1499,-12.8576"/>
<polygon fill="#191970" stroke="#191970" points="899.2953,-157.7941 898.8695,-168.3804 905.8041,-160.3702 899.2953,-157.7941"/>
</g>
<!-- Node29 -->
<g id="node10" class="node">
<title>Node29</title>
<g id="a_node10"><a xlink:href="UIManager_8cxx.html" target="_top" xlink:title="src/engine/UIManager.cxx">
<polygon fill="none" stroke="#000000" points="749.5,-56.5 749.5,-75.5 891.5,-75.5 891.5,-56.5 749.5,-56.5"/>
<text text-anchor="middle" x="820.5" y="-63.5" font-family="Helvetica,sans-Serif" font-size="10.00" fill="#000000">src/engine/UIManager.cxx</text>
</a>
</g>
</g>
<!-- Node20&#45;&gt;Node29 -->
<g id="edge13" class="edge">
<title>Node20&#45;&gt;Node29</title>
<path fill="none" stroke="#191970" d="M882.5363,-159.8927C866.6376,-135.8299 839.1224,-94.1853 826.7932,-75.5249"/>
<polygon fill="#191970" stroke="#191970" points="879.758,-162.037 888.1908,-168.4509 885.5984,-158.1782 879.758,-162.037"/>
</g>
<!-- Node30 -->
<g id="node11" class="node">
<title>Node30</title>
<g id="a_node11"><a xlink:href="Map_8cxx.html" target="_top" xlink:title="src/engine/Map.cxx">
<polygon fill="none" stroke="#000000" points="947.5,-112.5 947.5,-131.5 1057.5,-131.5 1057.5,-112.5 947.5,-112.5"/>
<text text-anchor="middle" x="1002.5" y="-119.5" font-family="Helvetica,sans-Serif" font-size="10.00" fill="#000000">src/engine/Map.cxx</text>
</a>
</g>
</g>
<!-- Node20&#45;&gt;Node30 -->
<g id="edge12" class="edge">
<title>Node20&#45;&gt;Node30</title>
<path fill="none" stroke="#191970" d="M922.2771,-163.5971C941.6382,-153.558 966.9385,-140.4393 983.9034,-131.6427"/>
<polygon fill="#191970" stroke="#191970" points="920.5786,-160.5352 913.3122,-168.2455 923.8008,-166.7495 920.5786,-160.5352"/>
</g>
<!-- Node22 -->
<g id="node3" class="node">
<title>Node22</title>
<g id="a_node3"><a xlink:href="Camera_8cxx.html" target="_top" xlink:title="src/engine/basics/Camera.cxx">
<polygon fill="none" stroke="#000000" points="389.5,-56.5 389.5,-75.5 551.5,-75.5 551.5,-56.5 389.5,-56.5"/>
<text text-anchor="middle" x="470.5" y="-63.5" font-family="Helvetica,sans-Serif" font-size="10.00" fill="#000000">src/engine/basics/Camera.cxx</text>
</a>
</g>
</g>
<!-- Node21&#45;&gt;Node22 -->
<g id="edge2" class="edge">
<title>Node21&#45;&gt;Node22</title>
<path fill="none" stroke="#191970" d="M470.5,-102.1575C470.5,-93.155 470.5,-82.9199 470.5,-75.6427"/>
<polygon fill="#191970" stroke="#191970" points="467.0001,-102.2455 470.5,-112.2455 474.0001,-102.2456 467.0001,-102.2455"/>
</g>
<!-- Node23 -->
<g id="node4" class="node">
<title>Node23</title>
<g id="a_node4"><a xlink:href="isoMath_8cxx.html" target="_top" xlink:title="src/engine/basics/isoMath.cxx">
<polygon fill="none" stroke="#000000" points="569.5,-56.5 569.5,-75.5 731.5,-75.5 731.5,-56.5 569.5,-56.5"/>
<text text-anchor="middle" x="650.5" y="-63.5" font-family="Helvetica,sans-Serif" font-size="10.00" fill="#000000">src/engine/basics/isoMath.cxx</text>
</a>
</g>
</g>
<!-- Node21&#45;&gt;Node23 -->
<g id="edge3" class="edge">
<title>Node21&#45;&gt;Node23</title>
<path fill="none" stroke="#191970" d="M511.2459,-109.3235C544.2563,-99.0536 590.0417,-84.8093 619.9607,-75.5011"/>
<polygon fill="#191970" stroke="#191970" points="509.9519,-106.0605 501.4431,-112.3733 512.0314,-112.7445 509.9519,-106.0605"/>
</g>
<!-- Node24 -->
<g id="node5" class="node">
<title>Node24</title>
<g id="a_node5"><a xlink:href="EventManager_8hxx.html" target="_top" xlink:title="src/engine/EventManager.hxx">
<polygon fill="none" stroke="#000000" points="69.5,-56.5 69.5,-75.5 229.5,-75.5 229.5,-56.5 69.5,-56.5"/>
<text text-anchor="middle" x="149.5" y="-63.5" font-family="Helvetica,sans-Serif" font-size="10.00" fill="#000000">src/engine/EventManager.hxx</text>
</a>
</g>
</g>
<!-- Node21&#45;&gt;Node24 -->
<g id="edge4" class="edge">
<title>Node21&#45;&gt;Node24</title>
<path fill="none" stroke="#191970" d="M405.6907,-110.6937C346.4683,-100.3621 259.8679,-85.2542 204.091,-75.5237"/>
<polygon fill="#191970" stroke="#191970" points="405.2301,-114.1661 415.6829,-112.4369 406.4332,-107.2703 405.2301,-114.1661"/>
</g>
<!-- Node27 -->
<g id="node8" class="node">
<title>Node27</title>
<g id="a_node8"><a xlink:href="Game_8cxx.html" target="_top" xlink:title="src/Game.cxx">
<polygon fill="none" stroke="#000000" points="0,-.5 0,-19.5 83,-19.5 83,-.5 0,-.5"/>
<text text-anchor="middle" x="41.5" y="-7.5" font-family="Helvetica,sans-Serif" font-size="10.00" fill="#000000">src/Game.cxx</text>
</a>
</g>
</g>
<!-- Node21&#45;&gt;Node27 -->
<g id="edge10" class="edge">
<title>Node21&#45;&gt;Node27</title>
<path fill="none" stroke="#191970" d="M398.3078,-118.2259C287.5403,-111.7961 85.7439,-97.3107 60.5,-76 43.9176,-62.0013 41.3101,-34.5485 41.1882,-19.847"/>
<polygon fill="#191970" stroke="#191970" points="398.2237,-121.7267 408.4075,-118.8045 398.6241,-114.7382 398.2237,-121.7267"/>
</g>
<!-- Node28 -->
<g id="node9" class="node">
<title>Node28</title>
<g id="a_node9"><a xlink:href="Engine_8cxx.html" target="_top" xlink:title="src/engine/Engine.cxx">
<polygon fill="none" stroke="#000000" points="248,-56.5 248,-75.5 371,-75.5 371,-56.5 248,-56.5"/>
<text text-anchor="middle" x="309.5" y="-63.5" font-family="Helvetica,sans-Serif" font-size="10.00" fill="#000000">src/engine/Engine.cxx</text>
</a>
</g>
</g>
<!-- Node21&#45;&gt;Node28 -->
<g id="edge8" class="edge">
<title>Node21&#45;&gt;Node28</title>
<path fill="none" stroke="#191970" d="M433.2889,-109.057C403.8241,-98.8084 363.3459,-84.729 336.8157,-75.5011"/>
<polygon fill="#191970" stroke="#191970" points="432.2283,-112.3937 442.8231,-112.3733 434.528,-105.7822 432.2283,-112.3937"/>
</g>
<!-- Node21&#45;&gt;Node29 -->
<g id="edge9" class="edge">
<title>Node21&#45;&gt;Node29</title>
<path fill="none" stroke="#191970" d="M540.3653,-110.8215C604.9561,-100.487 699.9099,-85.2944 760.9771,-75.5237"/>
<polygon fill="#191970" stroke="#191970" points="539.5909,-107.4009 530.2695,-112.4369 540.6969,-114.3129 539.5909,-107.4009"/>
</g>
<!-- Node25 -->
<g id="node6" class="node">
<title>Node25</title>
<g id="a_node6"><a xlink:href="Timer_8cxx.html" target="_top" xlink:title="src/engine/basics/Timer.cxx">
<polygon fill="none" stroke="#000000" points="101.5,-.5 101.5,-19.5 253.5,-19.5 253.5,-.5 101.5,-.5"/>
<text text-anchor="middle" x="177.5" y="-7.5" font-family="Helvetica,sans-Serif" font-size="10.00" fill="#000000">src/engine/basics/Timer.cxx</text>
</a>
</g>
</g>
<!-- Node24&#45;&gt;Node25 -->
<g id="edge5" class="edge">
<title>Node24&#45;&gt;Node25</title>
<path fill="none" stroke="#191970" d="M158.9781,-47.0437C163.5835,-37.8331 168.9201,-27.1598 172.6787,-19.6427"/>
<polygon fill="#191970" stroke="#191970" points="155.7189,-45.736 154.3772,-56.2455 161.9799,-48.8665 155.7189,-45.736"/>
</g>
<!-- Node24&#45;&gt;Node26 -->
<g id="edge6" class="edge">
<title>Node24&#45;&gt;Node26</title>
<path fill="none" stroke="#191970" d="M239.7555,-55.6002C330.5363,-45.1398 469.1544,-29.1674 555.9355,-19.1679"/>
<polygon fill="#191970" stroke="#191970" points="239.2866,-52.131 229.753,-56.7527 240.088,-59.085 239.2866,-52.131"/>
</g>
<!-- Node24&#45;&gt;Node27 -->
<g id="edge7" class="edge">
<title>Node24&#45;&gt;Node27</title>
<path fill="none" stroke="#191970" d="M121.7229,-51.5971C102.3618,-41.558 77.0615,-28.4393 60.0966,-19.6427"/>
<polygon fill="#191970" stroke="#191970" points="120.1992,-54.7495 130.6878,-56.2455 123.4214,-48.5352 120.1992,-54.7495"/>
</g>
</g>
</svg>
