<?xml version="1.0" encoding="UTF-8" standalone="no"?>
<!DOCTYPE svg PUBLIC "-//W3C//DTD SVG 1.1//EN"
 "http://www.w3.org/Graphics/SVG/1.1/DTD/svg11.dtd">
<!-- Generated by graphviz version 2.40.1 (20161225.0304)
 -->
<!-- Title: src/engine/Map.hxx Pages: 1 -->
<!--zoomable 364 -->
<svg id="main" version="1.1" xmlns="http://www.w3.org/2000/svg" xmlns:xlink="http://www.w3.org/1999/xlink" xml:space="preserve" onload="init(evt)">
<style type="text/css"><![CDATA[
.edge:hover path { stroke: red; }
.edge:hover polygon { stroke: red; fill: red; }
]]></style>
<script type="text/javascript"><![CDATA[
var edges = document.getElementsByTagName('g');
if (edges && edges.length) {
  for (var i=0;i<edges.length;i++) {
    if (edges[i].id.substr(0,4)=='edge') {
      edges[i].setAttribute('class','edge');
    }
  }
}
]]></script>
        <defs>
                <circle id="rim" cx="0" cy="0" r="7"/>
                <circle id="rim2" cx="0" cy="0" r="3.5"/>
                <g id="zoomPlus">
                        <use xlink:href="#rim" fill="#404040">
                                <set attributeName="fill" to="#808080" begin="zoomplus.mouseover" end="zoomplus.mouseout"/>
                        </use>
                        <path d="M-4,0h8M0,-4v8" fill="none" stroke="white" stroke-width="1.5" pointer-events="none"/>
                </g>
                <g id="zoomMin">
                        <use xlink:href="#rim" fill="#404040">
                                <set attributeName="fill" to="#808080" begin="zoomminus.mouseover" end="zoomminus.mouseout"/>
                        </use>
                        <path d="M-4,0h8" fill="none" stroke="white" stroke-width="1.5" pointer-events="none"/>
                </g>
                <g id="dirArrow">
                        <path fill="none" stroke="white" stroke-width="1.5" d="M0,-3.0v7 M-2.5,-0.5L0,-3.0L2.5,-0.5"/>
                </g>
               <g id="resetDef">
                       <use xlink:href="#rim2" fill="#404040">
                               <set attributeName="fill" to="#808080" begin="reset.mouseover" end="reset.mouseout"/>
                       </use>
               </g>
        </defs>

<script type="text/javascript">
var viewWidth = 1019;
var viewHeight = 364;
var sectionId = 'dynsection-0';
</script>
<script xlink:href="svgpan.js"/>
<svg id="graph" class="graph">
<g id="viewport">
<title>src/engine/Map.hxx</title>
<!-- Node0 -->
<g id="node1" class="node">
<title>Node0</title>
<polygon fill="#bfbfbf" stroke="#000000" points="855.9847,-336.5 855.9847,-355.5 966.9847,-355.5 966.9847,-336.5 855.9847,-336.5"/>
<text text-anchor="middle" x="911.4847" y="-343.5" font-family="Helvetica,sans-Serif" font-size="10.00" fill="#000000">src/engine/Map.hxx</text>
</g>
<!-- Node1 -->
<g id="node2" class="node">
<title>Node1</title>
<polygon fill="none" stroke="#bfbfbf" points="855.9847,-56.5 855.9847,-75.5 902.9847,-75.5 902.9847,-56.5 855.9847,-56.5"/>
<text text-anchor="middle" x="879.4847" y="-63.5" font-family="Helvetica,sans-Serif" font-size="10.00" fill="#000000">vector</text>
</g>
<!-- Node0&#45;&gt;Node1 -->
<g id="edge1" class="edge">
<title>Node0&#45;&gt;Node1</title>
<path fill="none" stroke="#191970" d="M938.8026,-336.397C956.1961,-328.9733 977.9269,-317.0569 991.4847,-300 1010.5567,-276.0059 1011.4847,-264.6506 1011.4847,-234 1011.4847,-234 1011.4847,-234 1011.4847,-178 1011.4847,-126.1892 951.6269,-93.3688 912.5278,-77.457"/>
<polygon fill="#191970" stroke="#191970" points="913.672,-74.1466 903.0837,-73.7747 911.1291,-80.6684 913.672,-74.1466"/>
</g>
<!-- Node2 -->
<g id="node3" class="node">
<title>Node2</title>
<g id="a_node3"><a xlink:href="MapNode_8hxx.html" target="_top" xlink:title="GameObjects/MapNode.hxx">
<polygon fill="none" stroke="#000000" points="599.4847,-224.5 599.4847,-243.5 751.4847,-243.5 751.4847,-224.5 599.4847,-224.5"/>
<text text-anchor="middle" x="675.4847" y="-231.5" font-family="Helvetica,sans-Serif" font-size="10.00" fill="#000000">GameObjects/MapNode.hxx</text>
</a>
</g>
</g>
<!-- Node0&#45;&gt;Node2 -->
<g id="edge2" class="edge">
<title>Node0&#45;&gt;Node2</title>
<path fill="none" stroke="#191970" d="M891.3635,-336.4509C849.5632,-316.6135 753.1874,-270.8758 704.6041,-247.8194"/>
<polygon fill="#191970" stroke="#191970" points="706.0899,-244.6504 695.555,-243.5249 703.0887,-250.9744 706.0899,-244.6504"/>
</g>
<!-- Node18 -->
<g id="node19" class="node">
<title>Node18</title>
<g id="a_node19"><a xlink:href="TerrainGenerator_8hxx.html" target="_top" xlink:title="map/TerrainGenerator.hxx">
<polygon fill="none" stroke="#000000" points="839.9847,-280.5 839.9847,-299.5 982.9847,-299.5 982.9847,-280.5 839.9847,-280.5"/>
<text text-anchor="middle" x="911.4847" y="-287.5" font-family="Helvetica,sans-Serif" font-size="10.00" fill="#000000">map/TerrainGenerator.hxx</text>
</a>
</g>
</g>
<!-- Node0&#45;&gt;Node18 -->
<g id="edge28" class="edge">
<title>Node0&#45;&gt;Node18</title>
<path fill="none" stroke="#191970" d="M911.4847,-336.2455C911.4847,-328.9382 911.4847,-318.6944 911.4847,-309.7046"/>
<polygon fill="#191970" stroke="#191970" points="914.9848,-309.6426 911.4847,-299.6427 907.9848,-309.6427 914.9848,-309.6426"/>
</g>
<!-- Node2&#45;&gt;Node1 -->
<g id="edge7" class="edge">
<title>Node2&#45;&gt;Node1</title>
<path fill="none" stroke="#191970" d="M747.3438,-224.4309C792.5183,-216.9022 845.0732,-204.8516 860.4847,-188 886.0543,-160.0412 885.3731,-112.533 882.5009,-85.7982"/>
<polygon fill="#191970" stroke="#191970" points="885.953,-85.2016 881.2059,-75.7298 879.0102,-86.0946 885.953,-85.2016"/>
</g>
<!-- Node3 -->
<g id="node4" class="node">
<title>Node3</title>
<polygon fill="none" stroke="#bfbfbf" points="203.4847,-112.5 203.4847,-131.5 247.4847,-131.5 247.4847,-112.5 203.4847,-112.5"/>
<text text-anchor="middle" x="225.4847" y="-119.5" font-family="Helvetica,sans-Serif" font-size="10.00" fill="#000000">SDL.h</text>
</g>
<!-- Node2&#45;&gt;Node3 -->
<g id="edge3" class="edge">
<title>Node2&#45;&gt;Node3</title>
<path fill="none" stroke="#191970" d="M627.06,-224.4625C583.3664,-215.6615 517.4072,-201.8903 460.4847,-188 372.1769,-166.4511 348.1544,-159.3538 257.3919,-132.1983"/>
<polygon fill="#191970" stroke="#191970" points="258.3828,-128.8415 247.7991,-129.3281 256.3762,-135.5478 258.3828,-128.8415"/>
</g>
<!-- Node4 -->
<g id="node5" class="node">
<title>Node4</title>
<polygon fill="none" stroke="#bfbfbf" points="646.4847,-168.5 646.4847,-187.5 704.4847,-187.5 704.4847,-168.5 646.4847,-168.5"/>
<text text-anchor="middle" x="675.4847" y="-175.5" font-family="Helvetica,sans-Serif" font-size="10.00" fill="#000000">memory</text>
</g>
<!-- Node2&#45;&gt;Node4 -->
<g id="edge4" class="edge">
<title>Node2&#45;&gt;Node4</title>
<path fill="none" stroke="#191970" d="M675.4847,-224.2455C675.4847,-216.9382 675.4847,-206.6944 675.4847,-197.7046"/>
<polygon fill="#191970" stroke="#191970" points="678.9848,-197.6426 675.4847,-187.6427 671.9848,-197.6427 678.9848,-197.6426"/>
</g>
<!-- Node5 -->
<g id="node6" class="node">
<title>Node5</title>
<polygon fill="none" stroke="#bfbfbf" points="781.4847,-56.5 781.4847,-75.5 825.4847,-75.5 825.4847,-56.5 781.4847,-56.5"/>
<text text-anchor="middle" x="803.4847" y="-63.5" font-family="Helvetica,sans-Serif" font-size="10.00" fill="#000000">string</text>
</g>
<!-- Node2&#45;&gt;Node5 -->
<g id="edge5" class="edge">
<title>Node2&#45;&gt;Node5</title>
<path fill="none" stroke="#191970" d="M690.9295,-224.2773C722.4451,-204.0696 792.2301,-157.3123 804.4847,-132 811.4984,-117.5131 810.515,-99.0557 808.1985,-85.3454"/>
<polygon fill="#191970" stroke="#191970" points="811.6237,-84.625 806.1822,-75.5343 804.767,-86.0342 811.6237,-84.625"/>
</g>
<!-- Node6 -->
<g id="node7" class="node">
<title>Node6</title>
<polygon fill="none" stroke="#bfbfbf" points="787.4847,-168.5 787.4847,-187.5 851.4847,-187.5 851.4847,-168.5 787.4847,-168.5"/>
<text text-anchor="middle" x="819.4847" y="-175.5" font-family="Helvetica,sans-Serif" font-size="10.00" fill="#000000">algorithm</text>
</g>
<!-- Node2&#45;&gt;Node6 -->
<g id="edge6" class="edge">
<title>Node2&#45;&gt;Node6</title>
<path fill="none" stroke="#191970" d="M700.2392,-224.3733C723.7696,-215.2226 759.3534,-201.3844 785.5273,-191.2057"/>
<polygon fill="#191970" stroke="#191970" points="787.0018,-194.3877 795.0533,-187.5011 784.4646,-187.8636 787.0018,-194.3877"/>
</g>
<!-- Node7 -->
<g id="node8" class="node">
<title>Node7</title>
<g id="a_node8"><a xlink:href="Sprite_8hxx.html" target="_top" xlink:title="../Sprite.hxx">
<polygon fill="none" stroke="#000000" points="137.9847,-168.5 137.9847,-187.5 212.9847,-187.5 212.9847,-168.5 137.9847,-168.5"/>
<text text-anchor="middle" x="175.4847" y="-175.5" font-family="Helvetica,sans-Serif" font-size="10.00" fill="#000000">../Sprite.hxx</text>
</a>
</g>
</g>
<!-- Node2&#45;&gt;Node7 -->
<g id="edge8" class="edge">
<title>Node2&#45;&gt;Node7</title>
<path fill="none" stroke="#191970" d="M599.2735,-225.4643C494.8507,-213.769 310.3644,-193.1065 223.395,-183.366"/>
<polygon fill="#191970" stroke="#191970" points="223.6118,-179.8684 213.2844,-182.2336 222.8327,-186.8249 223.6118,-179.8684"/>
</g>
<!-- Node8 -->
<g id="node9" class="node">
<title>Node8</title>
<g id="a_node9"><a xlink:href="point_8hxx.html" target="_top" xlink:title="basics/point.hxx">
<polygon fill="none" stroke="#000000" points="13.4847,-112.5 13.4847,-131.5 109.4847,-131.5 109.4847,-112.5 13.4847,-112.5"/>
<text text-anchor="middle" x="61.4847" y="-119.5" font-family="Helvetica,sans-Serif" font-size="10.00" fill="#000000">basics/point.hxx</text>
</a>
</g>
</g>
<!-- Node2&#45;&gt;Node8 -->
<g id="edge16" class="edge">
<title>Node2&#45;&gt;Node8</title>
<path fill="none" stroke="#191970" d="M599.453,-230.4762C459.1989,-223.5557 170.2101,-207.181 128.4847,-188 105.6662,-177.5104 86.081,-155.7999 74.0812,-140.139"/>
<polygon fill="#191970" stroke="#191970" points="76.6625,-137.7404 67.9253,-131.7477 71.0183,-141.881 76.6625,-137.7404"/>
</g>
<!-- Node9 -->
<g id="node10" class="node">
<title>Node9</title>
<g id="a_node10"><a xlink:href="enums_8hxx.html" target="_top" xlink:title="common/enums.hxx">
<polygon fill="none" stroke="#000000" points="79.4847,-56.5 79.4847,-75.5 195.4847,-75.5 195.4847,-56.5 79.4847,-56.5"/>
<text text-anchor="middle" x="137.4847" y="-63.5" font-family="Helvetica,sans-Serif" font-size="10.00" fill="#000000">common/enums.hxx</text>
</a>
</g>
</g>
<!-- Node2&#45;&gt;Node9 -->
<g id="edge15" class="edge">
<title>Node2&#45;&gt;Node9</title>
<path fill="none" stroke="#191970" d="M599.2616,-232.2641C464.2652,-228.4731 188.7765,-217.3146 97.4847,-188 51.5467,-173.2489 28.2235,-174.0045 4.4847,-132 -13.2446,-100.6288 28.0479,-83.8387 69.1892,-75.0597"/>
<polygon fill="#191970" stroke="#191970" points="69.925,-78.482 79.0506,-73.0994 68.5601,-71.6164 69.925,-78.482"/>
</g>
<!-- Node12 -->
<g id="node13" class="node">
<title>Node12</title>
<g id="a_node13"><a xlink:href="TileManager_8hxx.html" target="_top" xlink:title="../TileManager.hxx">
<polygon fill="none" stroke="#000000" points="469.4847,-168.5 469.4847,-187.5 575.4847,-187.5 575.4847,-168.5 469.4847,-168.5"/>
<text text-anchor="middle" x="522.4847" y="-175.5" font-family="Helvetica,sans-Serif" font-size="10.00" fill="#000000">../TileManager.hxx</text>
</a>
</g>
</g>
<!-- Node2&#45;&gt;Node12 -->
<g id="edge17" class="edge">
<title>Node2&#45;&gt;Node12</title>
<path fill="none" stroke="#191970" d="M649.1831,-224.3733C624.0719,-215.1822 586.0409,-201.2624 558.1975,-191.0713"/>
<polygon fill="#191970" stroke="#191970" points="559.0369,-187.6516 548.4432,-187.5011 556.6309,-194.2251 559.0369,-187.6516"/>
</g>
<!-- Node7&#45;&gt;Node1 -->
<g id="edge10" class="edge">
<title>Node7&#45;&gt;Node1</title>
<path fill="none" stroke="#191970" d="M175.0771,-168.0362C175.0738,-153.1822 177.5201,-125.5329 194.4847,-112 250.1631,-67.5848 763.9328,-85.7575 834.4847,-76 838.1909,-75.4874 842.0442,-74.8286 845.8672,-74.094"/>
<polygon fill="#191970" stroke="#191970" points="846.7212,-77.4912 855.7945,-72.0209 845.2902,-70.639 846.7212,-77.4912"/>
</g>
<!-- Node7&#45;&gt;Node3 -->
<g id="edge9" class="edge">
<title>Node7&#45;&gt;Node3</title>
<path fill="none" stroke="#191970" d="M184.1941,-168.2455C191.292,-160.2958 201.4932,-148.8706 209.9798,-139.3656"/>
<polygon fill="#191970" stroke="#191970" points="212.8258,-141.4331 216.8752,-131.6427 207.6042,-136.771 212.8258,-141.4331"/>
</g>
<!-- Node7&#45;&gt;Node8 -->
<g id="edge11" class="edge">
<title>Node7&#45;&gt;Node8</title>
<path fill="none" stroke="#191970" d="M155.8874,-168.3733C137.7516,-159.4644 110.5712,-146.1127 90.0261,-136.0203"/>
<polygon fill="#191970" stroke="#191970" points="91.345,-132.7688 80.8263,-131.5011 88.2587,-139.0517 91.345,-132.7688"/>
</g>
<!-- Node7&#45;&gt;Node9 -->
<g id="edge12" class="edge">
<title>Node7&#45;&gt;Node9</title>
<path fill="none" stroke="#191970" d="M172.2449,-168.4509C165.9911,-150.0186 152.1505,-109.2254 143.9458,-85.043"/>
<polygon fill="#191970" stroke="#191970" points="147.2439,-83.8701 140.7164,-75.5249 140.615,-86.1192 147.2439,-83.8701"/>
</g>
<!-- Node10 -->
<g id="node11" class="node">
<title>Node10</title>
<polygon fill="none" stroke="#bfbfbf" points="61.4847,-.5 61.4847,-19.5 117.4847,-19.5 117.4847,-.5 61.4847,-.5"/>
<text text-anchor="middle" x="89.4847" y="-7.5" font-family="Helvetica,sans-Serif" font-size="10.00" fill="#000000">stddef.h</text>
</g>
<!-- Node9&#45;&gt;Node10 -->
<g id="edge13" class="edge">
<title>Node9&#45;&gt;Node10</title>
<path fill="none" stroke="#191970" d="M129.1238,-56.2455C122.3097,-48.2958 112.5166,-36.8706 104.3695,-27.3656"/>
<polygon fill="#191970" stroke="#191970" points="106.9152,-24.9575 97.7499,-19.6427 101.6004,-29.513 106.9152,-24.9575"/>
</g>
<!-- Node11 -->
<g id="node12" class="node">
<title>Node11</title>
<polygon fill="none" stroke="#bfbfbf" points="135.4847,-.5 135.4847,-19.5 235.4847,-19.5 235.4847,-.5 135.4847,-.5"/>
<text text-anchor="middle" x="185.4847" y="-7.5" font-family="Helvetica,sans-Serif" font-size="10.00" fill="#000000">betterEnums.hxx</text>
</g>
<!-- Node9&#45;&gt;Node11 -->
<g id="edge14" class="edge">
<title>Node9&#45;&gt;Node11</title>
<path fill="none" stroke="#191970" d="M145.8457,-56.2455C152.6597,-48.2958 162.4528,-36.8706 170.6,-27.3656"/>
<polygon fill="#191970" stroke="#191970" points="173.369,-29.513 177.2196,-19.6427 168.0542,-24.9575 173.369,-29.513"/>
</g>
<!-- Node12&#45;&gt;Node3 -->
<g id="edge18" class="edge">
<title>Node12&#45;&gt;Node3</title>
<path fill="none" stroke="#191970" d="M469.2892,-171.0509C417.48,-163.7797 336.3951,-151.069 257.7968,-132.0626"/>
<polygon fill="#191970" stroke="#191970" points="258.2742,-128.5759 247.728,-129.5893 256.6043,-135.3738 258.2742,-128.5759"/>
</g>
<!-- Node12&#45;&gt;Node5 -->
<g id="edge20" class="edge">
<title>Node12&#45;&gt;Node5</title>
<path fill="none" stroke="#191970" d="M575.5387,-171.6508C647.291,-162.6129 768.1232,-145.6235 783.4847,-132 796.4761,-120.4784 801.1666,-100.8285 802.792,-85.9579"/>
<polygon fill="#191970" stroke="#191970" points="806.301,-85.9562 803.5241,-75.7318 799.3188,-85.4563 806.301,-85.9562"/>
</g>
<!-- Node13 -->
<g id="node14" class="node">
<title>Node13</title>
<polygon fill="none" stroke="#bfbfbf" points="265.9847,-112.5 265.9847,-131.5 358.9847,-131.5 358.9847,-112.5 265.9847,-112.5"/>
<text text-anchor="middle" x="312.4847" y="-119.5" font-family="Helvetica,sans-Serif" font-size="10.00" fill="#000000">unordered_map</text>
</g>
<!-- Node12&#45;&gt;Node13 -->
<g id="edge19" class="edge">
<title>Node12&#45;&gt;Node13</title>
<path fill="none" stroke="#191970" d="M486.3845,-168.3733C450.86,-158.9001 396.4968,-144.4032 358.0228,-134.1435"/>
<polygon fill="#191970" stroke="#191970" points="358.6781,-130.696 348.1139,-131.5011 356.8745,-137.4596 358.6781,-130.696"/>
</g>
<!-- Node14 -->
<g id="node15" class="node">
<title>Node14</title>
<g id="a_node15"><a xlink:href="tileData_8hxx.html" target="_top" xlink:title="tileData.hxx">
<polygon fill="none" stroke="#000000" points="697.9847,-112.5 697.9847,-131.5 774.9847,-131.5 774.9847,-112.5 697.9847,-112.5"/>
<text text-anchor="middle" x="736.4847" y="-119.5" font-family="Helvetica,sans-Serif" font-size="10.00" fill="#000000">tileData.hxx</text>
</a>
</g>
</g>
<!-- Node12&#45;&gt;Node14 -->
<g id="edge21" class="edge">
<title>Node12&#45;&gt;Node14</title>
<path fill="none" stroke="#191970" d="M559.2727,-168.3733C595.5508,-158.8799 651.1083,-144.3415 690.3293,-134.0781"/>
<polygon fill="#191970" stroke="#191970" points="691.3887,-137.4188 700.1769,-131.5011 689.6165,-130.6468 691.3887,-137.4188"/>
</g>
<!-- Node15 -->
<g id="node16" class="node">
<title>Node15</title>
<polygon fill="none" stroke="#bfbfbf" points="377.4847,-112.5 377.4847,-131.5 435.4847,-131.5 435.4847,-112.5 377.4847,-112.5"/>
<text text-anchor="middle" x="406.4847" y="-119.5" font-family="Helvetica,sans-Serif" font-size="10.00" fill="#000000">json.hxx</text>
</g>
<!-- Node12&#45;&gt;Node15 -->
<g id="edge25" class="edge">
<title>Node12&#45;&gt;Node15</title>
<path fill="none" stroke="#191970" d="M502.5436,-168.3733C484.0061,-159.4241 456.1819,-145.9917 435.2434,-135.8835"/>
<polygon fill="#191970" stroke="#191970" points="436.6928,-132.6967 426.1656,-131.5011 433.6495,-139.0006 436.6928,-132.6967"/>
</g>
<!-- Node16 -->
<g id="node17" class="node">
<title>Node16</title>
<g id="a_node17"><a xlink:href="Singleton_8hxx.html" target="_top" xlink:title="Singleton.hxx">
<polygon fill="none" stroke="#000000" points="453.9847,-112.5 453.9847,-131.5 536.9847,-131.5 536.9847,-112.5 453.9847,-112.5"/>
<text text-anchor="middle" x="495.4847" y="-119.5" font-family="Helvetica,sans-Serif" font-size="10.00" fill="#000000">Singleton.hxx</text>
</a>
</g>
</g>
<!-- Node12&#45;&gt;Node16 -->
<g id="edge26" class="edge">
<title>Node12&#45;&gt;Node16</title>
<path fill="none" stroke="#191970" d="M517.7817,-168.2455C514.1424,-160.6973 508.9923,-150.0158 504.5585,-140.8197"/>
<polygon fill="#191970" stroke="#191970" points="507.6296,-139.1303 500.1339,-131.6427 501.3242,-142.1704 507.6296,-139.1303"/>
</g>
<!-- Node17 -->
<g id="node18" class="node">
<title>Node17</title>
<polygon fill="none" stroke="#bfbfbf" points="554.9847,-112.5 554.9847,-131.5 679.9847,-131.5 679.9847,-112.5 554.9847,-112.5"/>
<text text-anchor="middle" x="617.4847" y="-119.5" font-family="Helvetica,sans-Serif" font-size="10.00" fill="#000000">../common/enums.hxx</text>
</g>
<!-- Node12&#45;&gt;Node17 -->
<g id="edge27" class="edge">
<title>Node12&#45;&gt;Node17</title>
<path fill="none" stroke="#191970" d="M539.0325,-168.2455C553.7446,-159.5731 575.4735,-146.7645 592.3352,-136.825"/>
<polygon fill="#191970" stroke="#191970" points="594.2893,-139.736 601.1266,-131.6427 590.7346,-133.7057 594.2893,-139.736"/>
</g>
<!-- Node14&#45;&gt;Node1 -->
<g id="edge23" class="edge">
<title>Node14&#45;&gt;Node1</title>
<path fill="none" stroke="#191970" d="M761.0673,-112.3733C784.5759,-103.1671 820.1997,-89.2165 846.2347,-79.021"/>
<polygon fill="#191970" stroke="#191970" points="847.6629,-82.2206 855.6981,-75.315 845.1104,-75.7025 847.6629,-82.2206"/>
</g>
<!-- Node14&#45;&gt;Node5 -->
<g id="edge22" class="edge">
<title>Node14&#45;&gt;Node5</title>
<path fill="none" stroke="#191970" d="M748.1552,-112.2455C758.0508,-103.9746 772.4474,-91.9416 784.0748,-82.2232"/>
<polygon fill="#191970" stroke="#191970" points="786.5197,-84.7413 791.948,-75.6427 782.0305,-79.3703 786.5197,-84.7413"/>
</g>
<!-- Node14&#45;&gt;Node9 -->
<g id="edge24" class="edge">
<title>Node14&#45;&gt;Node9</title>
<path fill="none" stroke="#191970" d="M697.7843,-113.5143C694.6461,-112.9554 691.5173,-112.4408 688.4847,-112 515.6509,-86.8779 310.1722,-74.2299 205.7502,-69.0144"/>
<polygon fill="#191970" stroke="#191970" points="205.8196,-65.5137 195.6597,-68.5179 205.4755,-72.5052 205.8196,-65.5137"/>
</g>
<!-- Node18&#45;&gt;Node1 -->
<g id="edge31" class="edge">
<title>Node18&#45;&gt;Node1</title>
<path fill="none" stroke="#191970" d="M911.7148,-280.2009C912.1387,-253.073 911.9162,-174.8405 897.4847,-112 895.3793,-102.8321 891.7736,-93.0757 888.3397,-84.918"/>
<polygon fill="#191970" stroke="#191970" points="891.4626,-83.3263 884.208,-75.6048 885.064,-86.165 891.4626,-83.3263"/>
</g>
<!-- Node18&#45;&gt;Node2 -->
<g id="edge29" class="edge">
<title>Node18&#45;&gt;Node2</title>
<path fill="none" stroke="#191970" d="M871.183,-280.4369C830.8783,-270.8731 768.8026,-256.1432 725.403,-245.845"/>
<polygon fill="#191970" stroke="#191970" points="726.1581,-242.4271 715.6202,-243.5237 724.5419,-249.238 726.1581,-242.4271"/>
</g>
<!-- Node19 -->
<g id="node20" class="node">
<title>Node19</title>
<polygon fill="none" stroke="#bfbfbf" points="945.4847,-224.5 945.4847,-243.5 983.4847,-243.5 983.4847,-224.5 945.4847,-224.5"/>
<text text-anchor="middle" x="964.4847" y="-231.5" font-family="Helvetica,sans-Serif" font-size="10.00" fill="#000000">map</text>
</g>
<!-- Node18&#45;&gt;Node19 -->
<g id="edge30" class="edge">
<title>Node18&#45;&gt;Node19</title>
<path fill="none" stroke="#191970" d="M920.7166,-280.2455C928.3165,-272.2155 939.2725,-260.6394 948.3215,-251.0781"/>
<polygon fill="#191970" stroke="#191970" points="951.0268,-253.3115 955.3586,-243.6427 945.9427,-248.4998 951.0268,-253.3115"/>
</g>
</g>
</svg>
        <g id="navigator" transform="translate(0 0)" fill="#404254">
                <rect fill="#f2f5e9" fill-opacity="0.5" stroke="#606060" stroke-width=".5" x="0" y="0" width="60" height="60"/>
                <use id="zoomplus" xlink:href="#zoomPlus" x="17" y="9" onmousedown="handleZoom(evt,'in')"/>
                <use id="zoomminus" xlink:href="#zoomMin" x="42" y="9" onmousedown="handleZoom(evt,'out')"/>
                <use id="reset" xlink:href="#resetDef" x="30" y="36" onmousedown="handleReset()"/>
                <g id="arrowUp" xlink:href="#dirArrow" transform="translate(30 24)" onmousedown="handlePan(0,-1)">
                  <use xlink:href="#rim" fill="#404040">
                        <set attributeName="fill" to="#808080" begin="arrowUp.mouseover" end="arrowUp.mouseout"/>
                  </use>
                  <path fill="none" stroke="white" stroke-width="1.5" d="M0,-3.0v7 M-2.5,-0.5L0,-3.0L2.5,-0.5"/>
                </g>
                <g id="arrowRight" xlink:href="#dirArrow" transform="rotate(90) translate(36 -43)" onmousedown="handlePan(1,0)">
                  <use xlink:href="#rim" fill="#404040">
                        <set attributeName="fill" to="#808080" begin="arrowRight.mouseover" end="arrowRight.mouseout"/>
                  </use>
                  <path fill="none" stroke="white" stroke-width="1.5" d="M0,-3.0v7 M-2.5,-0.5L0,-3.0L2.5,-0.5"/>
                </g>
                <g id="arrowDown" xlink:href="#dirArrow" transform="rotate(180) translate(-30 -48)" onmousedown="handlePan(0,1)">
                  <use xlink:href="#rim" fill="#404040">
                        <set attributeName="fill" to="#808080" begin="arrowDown.mouseover" end="arrowDown.mouseout"/>
                  </use>
                  <path fill="none" stroke="white" stroke-width="1.5" d="M0,-3.0v7 M-2.5,-0.5L0,-3.0L2.5,-0.5"/>
                </g>
                <g id="arrowLeft" xlink:href="#dirArrow" transform="rotate(270) translate(-36 17)" onmousedown="handlePan(-1,0)">
                  <use xlink:href="#rim" fill="#404040">
                        <set attributeName="fill" to="#808080" begin="arrowLeft.mouseover" end="arrowLeft.mouseout"/>
                  </use>
                  <path fill="none" stroke="white" stroke-width="1.5" d="M0,-3.0v7 M-2.5,-0.5L0,-3.0L2.5,-0.5"/>
                </g>
        </g>
        <svg viewBox="0 0 15 15" width="100%" height="30px" preserveAspectRatio="xMaxYMin meet">
         <g id="arrow_out" transform="scale(0.3 0.3)">
          <a xlink:href="Map_8hxx__incl_org.svg" target="_base">
           <rect id="button" ry="5" rx="5" y="6" x="6" height="38" width="38"
                fill="#f2f5e9" fill-opacity="0.5" stroke="#606060" stroke-width="1.0"/>
           <path id="arrow"
             d="M 11.500037,31.436501 C 11.940474,20.09759 22.043105,11.32322 32.158766,21.979434 L 37.068811,17.246167 C 37.068811,17.246167 37.088388,32 37.088388,32 L 22.160133,31.978069 C 22.160133,31.978069 26.997745,27.140456 26.997745,27.140456 C 18.528582,18.264221 13.291696,25.230495 11.500037,31.436501 z"
             style="fill:#404040;"/>
          </a>
         </g>
        </svg>
</svg>
