<?xml version="1.0" encoding="UTF-8" standalone="no"?>
<!DOCTYPE svg PUBLIC "-//W3C//DTD SVG 1.1//EN"
 "http://www.w3.org/Graphics/SVG/1.1/DTD/svg11.dtd">
<!-- Generated by graphviz version 2.40.1 (20161225.0304)
 -->
<!-- Title: src/engine/map/MapLayers.hxx Pages: 1 -->
<svg width="934pt" height="95pt"
 viewBox="0.00 0.00 933.50 95.00" xmlns="http://www.w3.org/2000/svg" xmlns:xlink="http://www.w3.org/1999/xlink">
<g id="graph0" class="graph" transform="scale(1 1) rotate(0) translate(4 91)">
<title>src/engine/map/MapLayers.hxx</title>
<!-- Node4 -->
<g id="node1" class="node">
<title>Node4</title>
<polygon fill="#bfbfbf" stroke="#000000" points="409.5,-67.5 409.5,-86.5 577.5,-86.5 577.5,-67.5 409.5,-67.5"/>
<text text-anchor="middle" x="493.5" y="-74.5" font-family="Helvetica,sans-Serif" font-size="10.00" fill="#000000">src/engine/map/MapLayers.hxx</text>
</g>
<!-- Node5 -->
<g id="node2" class="node">
<title>Node5</title>
<g id="a_node2"><a xlink:href="EventManager_8cxx.html" target="_top" xlink:title="src/engine/EventManager.cxx">
<polygon fill="none" stroke="#000000" points="0,-6 0,-25 159,-25 159,-6 0,-6"/>
<text text-anchor="middle" x="79.5" y="-13" font-family="Helvetica,sans-Serif" font-size="10.00" fill="#000000">src/engine/EventManager.cxx</text>
</a>
</g>
</g>
<!-- Node4&#45;&gt;Node5 -->
<g id="edge1" class="edge">
<title>Node4&#45;&gt;Node5</title>
<path fill="none" stroke="#191970" d="M411.1344,-66.0791C345.3718,-57.1821 250.9172,-44.006 168.5,-31 156.8808,-29.1664 144.4308,-27.0768 132.6341,-25.0386"/>
<polygon fill="#191970" stroke="#191970" points="411.0579,-69.6005 421.4363,-67.4696 411.9943,-62.6634 411.0579,-69.6005"/>
</g>
<!-- Node6 -->
<g id="node3" class="node">
<title>Node6</title>
<g id="a_node3"><a xlink:href="MapNode_8cxx.html" target="_top" xlink:title="src/engine/GameObjects\l/MapNode.cxx">
<polygon fill="none" stroke="#000000" points="177.5,-.5 177.5,-30.5 313.5,-30.5 313.5,-.5 177.5,-.5"/>
<text text-anchor="start" x="185.5" y="-18.5" font-family="Helvetica,sans-Serif" font-size="10.00" fill="#000000">src/engine/GameObjects</text>
<text text-anchor="middle" x="245.5" y="-7.5" font-family="Helvetica,sans-Serif" font-size="10.00" fill="#000000">/MapNode.cxx</text>
</a>
</g>
</g>
<!-- Node4&#45;&gt;Node6 -->
<g id="edge2" class="edge">
<title>Node4&#45;&gt;Node6</title>
<path fill="none" stroke="#191970" d="M445.3115,-65.05C405.6181,-55.2067 349.1059,-41.1926 306.304,-30.5784"/>
<polygon fill="#191970" stroke="#191970" points="444.4736,-68.4482 455.0221,-67.4581 446.1585,-61.654 444.4736,-68.4482"/>
</g>
<!-- Node7 -->
<g id="node4" class="node">
<title>Node7</title>
<g id="a_node4"><a xlink:href="MapLayers_8cxx.html" target="_top" xlink:title="src/engine/map/MapLayers.cxx">
<polygon fill="none" stroke="#000000" points="332,-6 332,-25 499,-25 499,-6 332,-6"/>
<text text-anchor="middle" x="415.5" y="-13" font-family="Helvetica,sans-Serif" font-size="10.00" fill="#000000">src/engine/map/MapLayers.cxx</text>
</a>
</g>
</g>
<!-- Node4&#45;&gt;Node7 -->
<g id="edge3" class="edge">
<title>Node4&#45;&gt;Node7</title>
<path fill="none" stroke="#191970" d="M473.3964,-61.1491C458.9035,-49.722 439.8194,-34.6749 427.6019,-25.0419"/>
<polygon fill="#191970" stroke="#191970" points="471.2927,-63.9475 481.3125,-67.3906 475.6268,-58.4506 471.2927,-63.9475"/>
</g>
<!-- Node8 -->
<g id="node5" class="node">
<title>Node8</title>
<g id="a_node5"><a xlink:href="Map_8cxx.html" target="_top" xlink:title="src/engine/Map.cxx">
<polygon fill="none" stroke="#000000" points="517.5,-6 517.5,-25 627.5,-25 627.5,-6 517.5,-6"/>
<text text-anchor="middle" x="572.5" y="-13" font-family="Helvetica,sans-Serif" font-size="10.00" fill="#000000">src/engine/Map.cxx</text>
</a>
</g>
</g>
<!-- Node4&#45;&gt;Node8 -->
<g id="edge4" class="edge">
<title>Node4&#45;&gt;Node8</title>
<path fill="none" stroke="#191970" d="M513.8613,-61.1491C528.54,-49.722 547.8688,-34.6749 560.2429,-25.0419"/>
<polygon fill="#191970" stroke="#191970" points="511.5846,-58.4859 505.8438,-67.3906 515.8846,-64.0095 511.5846,-58.4859"/>
</g>
<!-- Node9 -->
<g id="node6" class="node">
<title>Node9</title>
<g id="a_node6"><a xlink:href="Sprite_8cxx.html" target="_top" xlink:title="src/engine/Sprite.cxx">
<polygon fill="none" stroke="#000000" points="646,-6 646,-25 765,-25 765,-6 646,-6"/>
<text text-anchor="middle" x="705.5" y="-13" font-family="Helvetica,sans-Serif" font-size="10.00" fill="#000000">src/engine/Sprite.cxx</text>
</a>
</g>
</g>
<!-- Node4&#45;&gt;Node9 -->
<g id="edge5" class="edge">
<title>Node4&#45;&gt;Node9</title>
<path fill="none" stroke="#191970" d="M536.4213,-64.5488C576.6695,-52.873 635.9873,-35.6652 672.6076,-25.0419"/>
<polygon fill="#191970" stroke="#191970" points="535.2539,-61.2431 526.625,-67.3906 537.2042,-67.9659 535.2539,-61.2431"/>
</g>
<!-- Node10 -->
<g id="node7" class="node">
<title>Node10</title>
<g id="a_node7"><a xlink:href="UIManager_8cxx.html" target="_top" xlink:title="src/engine/UIManager.cxx">
<polygon fill="none" stroke="#000000" points="783.5,-6 783.5,-25 925.5,-25 925.5,-6 783.5,-6"/>
<text text-anchor="middle" x="854.5" y="-13" font-family="Helvetica,sans-Serif" font-size="10.00" fill="#000000">src/engine/UIManager.cxx</text>
</a>
</g>
</g>
<!-- Node4&#45;&gt;Node10 -->
<g id="edge6" class="edge">
<title>Node4&#45;&gt;Node10</title>
<path fill="none" stroke="#191970" d="M564.9477,-65.8922C621.7996,-56.9117 703.3442,-43.7146 774.5,-31 784.8057,-29.1585 795.838,-27.0865 806.3157,-25.0711"/>
<polygon fill="#191970" stroke="#191970" points="564.315,-62.4486 554.982,-67.4632 565.405,-69.3632 564.315,-62.4486"/>
</g>
</g>
</svg>
