<?xml version="1.0" encoding="UTF-8" standalone="no"?>
<!DOCTYPE svg PUBLIC "-//W3C//DTD SVG 1.1//EN"
 "http://www.w3.org/Graphics/SVG/1.1/DTD/svg11.dtd">
<!-- Generated by graphviz version 2.40.1 (20161225.0304)
 -->
<!-- Title: src/engine/map/MapLayers.cxx Pages: 1 -->
<svg width="190pt" height="196pt"
 viewBox="0.00 0.00 189.50 196.00" xmlns="http://www.w3.org/2000/svg" xmlns:xlink="http://www.w3.org/1999/xlink">
<g id="graph0" class="graph" transform="scale(1 1) rotate(0) translate(4 192)">
<title>src/engine/map/MapLayers.cxx</title>
<!-- Node0 -->
<g id="node1" class="node">
<title>Node0</title>
<polygon fill="#bfbfbf" stroke="#000000" points="0,-168.5 0,-187.5 167,-187.5 167,-168.5 0,-168.5"/>
<text text-anchor="middle" x="83.5" y="-175.5" font-family="Helvetica,sans-Serif" font-size="10.00" fill="#000000">src/engine/map/MapLayers.cxx</text>
</g>
<!-- Node1 -->
<g id="node2" class="node">
<title>Node1</title>
<g id="a_node2"><a xlink:href="MapLayers_8hxx.html" target="_top" xlink:title="MapLayers.hxx">
<polygon fill="none" stroke="#000000" points="38.5,-112.5 38.5,-131.5 128.5,-131.5 128.5,-112.5 38.5,-112.5"/>
<text text-anchor="middle" x="83.5" y="-119.5" font-family="Helvetica,sans-Serif" font-size="10.00" fill="#000000">MapLayers.hxx</text>
</a>
</g>
</g>
<!-- Node0&#45;&gt;Node1 -->
<g id="edge1" class="edge">
<title>Node0&#45;&gt;Node1</title>
<path fill="none" stroke="#191970" d="M83.5,-168.2455C83.5,-160.9382 83.5,-150.6944 83.5,-141.7046"/>
<polygon fill="#191970" stroke="#191970" points="87.0001,-141.6426 83.5,-131.6427 80.0001,-141.6427 87.0001,-141.6426"/>
</g>
<!-- Node2 -->
<g id="node3" class="node">
<title>Node2</title>
<g id="a_node3"><a xlink:href="enums_8hxx.html" target="_top" xlink:title="../common/enums.hxx">
<polygon fill="none" stroke="#000000" points="21,-56.5 21,-75.5 146,-75.5 146,-56.5 21,-56.5"/>
<text text-anchor="middle" x="83.5" y="-63.5" font-family="Helvetica,sans-Serif" font-size="10.00" fill="#000000">../common/enums.hxx</text>
</a>
</g>
</g>
<!-- Node1&#45;&gt;Node2 -->
<g id="edge2" class="edge">
<title>Node1&#45;&gt;Node2</title>
<path fill="none" stroke="#191970" d="M83.5,-112.2455C83.5,-104.9382 83.5,-94.6944 83.5,-85.7046"/>
<polygon fill="#191970" stroke="#191970" points="87.0001,-85.6426 83.5,-75.6427 80.0001,-85.6427 87.0001,-85.6426"/>
</g>
<!-- Node3 -->
<g id="node4" class="node">
<title>Node3</title>
<polygon fill="none" stroke="#bfbfbf" points="7.5,-.5 7.5,-19.5 63.5,-19.5 63.5,-.5 7.5,-.5"/>
<text text-anchor="middle" x="35.5" y="-7.5" font-family="Helvetica,sans-Serif" font-size="10.00" fill="#000000">stddef.h</text>
</g>
<!-- Node2&#45;&gt;Node3 -->
<g id="edge3" class="edge">
<title>Node2&#45;&gt;Node3</title>
<path fill="none" stroke="#191970" d="M75.139,-56.2455C68.325,-48.2958 58.5319,-36.8706 50.3848,-27.3656"/>
<polygon fill="#191970" stroke="#191970" points="52.9305,-24.9575 43.7651,-19.6427 47.6157,-29.513 52.9305,-24.9575"/>
</g>
<!-- Node4 -->
<g id="node5" class="node">
<title>Node4</title>
<polygon fill="none" stroke="#bfbfbf" points="81.5,-.5 81.5,-19.5 181.5,-19.5 181.5,-.5 81.5,-.5"/>
<text text-anchor="middle" x="131.5" y="-7.5" font-family="Helvetica,sans-Serif" font-size="10.00" fill="#000000">betterEnums.hxx</text>
</g>
<!-- Node2&#45;&gt;Node4 -->
<g id="edge4" class="edge">
<title>Node2&#45;&gt;Node4</title>
<path fill="none" stroke="#191970" d="M91.861,-56.2455C98.675,-48.2958 108.4681,-36.8706 116.6152,-27.3656"/>
<polygon fill="#191970" stroke="#191970" points="119.3843,-29.513 123.2349,-19.6427 114.0695,-24.9575 119.3843,-29.513"/>
</g>
</g>
</svg>
