<?xml version="1.0" encoding="UTF-8" standalone="no"?>
<!DOCTYPE svg PUBLIC "-//W3C//DTD SVG 1.1//EN"
 "http://www.w3.org/Graphics/SVG/1.1/DTD/svg11.dtd">
<!-- Generated by graphviz version 2.40.1 (20161225.0304)
 -->
<!-- Title: src/engine/GameObjects/MapNode.hxx Pages: 1 -->
<!--zoomable 330 -->
<svg id="main" version="1.1" xmlns="http://www.w3.org/2000/svg" xmlns:xlink="http://www.w3.org/1999/xlink" xml:space="preserve" onload="init(evt)">
<style type="text/css"><![CDATA[
.edge:hover path { stroke: red; }
.edge:hover polygon { stroke: red; fill: red; }
]]></style>
<script type="text/javascript"><![CDATA[
var edges = document.getElementsByTagName('g');
if (edges && edges.length) {
  for (var i=0;i<edges.length;i++) {
    if (edges[i].id.substr(0,4)=='edge') {
      edges[i].setAttribute('class','edge');
    }
  }
}
]]></script>
        <defs>
                <circle id="rim" cx="0" cy="0" r="7"/>
                <circle id="rim2" cx="0" cy="0" r="3.5"/>
                <g id="zoomPlus">
                        <use xlink:href="#rim" fill="#404040">
                                <set attributeName="fill" to="#808080" begin="zoomplus.mouseover" end="zoomplus.mouseout"/>
                        </use>
                        <path d="M-4,0h8M0,-4v8" fill="none" stroke="white" stroke-width="1.5" pointer-events="none"/>
                </g>
                <g id="zoomMin">
                        <use xlink:href="#rim" fill="#404040">
                                <set attributeName="fill" to="#808080" begin="zoomminus.mouseover" end="zoomminus.mouseout"/>
                        </use>
                        <path d="M-4,0h8" fill="none" stroke="white" stroke-width="1.5" pointer-events="none"/>
                </g>
                <g id="dirArrow">
                        <path fill="none" stroke="white" stroke-width="1.5" d="M0,-3.0v7 M-2.5,-0.5L0,-3.0L2.5,-0.5"/>
                </g>
               <g id="resetDef">
                       <use xlink:href="#rim2" fill="#404040">
                               <set attributeName="fill" to="#808080" begin="reset.mouseover" end="reset.mouseout"/>
                       </use>
               </g>
        </defs>

<script type="text/javascript">
var viewWidth = 1780;
var viewHeight = 330;
var sectionId = 'dynsection-1';
</script>
<script xlink:href="svgpan.js"/>
<svg id="graph" class="graph">
<g id="viewport">
<title>src/engine/GameObjects/MapNode.hxx</title>
<!-- Node17 -->
<g id="node1" class="node">
<title>Node17</title>
<polygon fill="#bfbfbf" stroke="#000000" points="1099.265,-291.5 1099.265,-321.5 1235.265,-321.5 1235.265,-291.5 1099.265,-291.5"/>
<text text-anchor="start" x="1107.265" y="-309.5" font-family="Helvetica,sans-Serif" font-size="10.00" fill="#000000">src/engine/GameObjects</text>
<text text-anchor="middle" x="1167.265" y="-298.5" font-family="Helvetica,sans-Serif" font-size="10.00" fill="#000000">/MapNode.hxx</text>
</g>
<!-- Node18 -->
<g id="node2" class="node">
<title>Node18</title>
<g id="a_node2"><a xlink:href="Map_8hxx.html" target="_top" xlink:title="src/engine/Map.hxx">
<polygon fill="none" stroke="#000000" points="826.765,-168.5 826.765,-187.5 937.765,-187.5 937.765,-168.5 826.765,-168.5"/>
<text text-anchor="middle" x="882.265" y="-175.5" font-family="Helvetica,sans-Serif" font-size="10.00" fill="#000000">src/engine/Map.hxx</text>
</a>
</g>
</g>
<!-- Node17&#45;&gt;Node18 -->
<g id="edge1" class="edge">
<title>Node17&#45;&gt;Node18</title>
<path fill="none" stroke="#191970" d="M1090.9235,-288.8078C1060.6833,-280.4497 1026.0869,-269.1596 996.265,-255 955.9199,-235.8439 913.6879,-203.5876 893.8531,-187.5912"/>
<polygon fill="#191970" stroke="#191970" points="1090.0102,-292.1864 1100.5771,-291.4183 1091.8376,-285.4291 1090.0102,-292.1864"/>
</g>
<!-- Node29 -->
<g id="node13" class="node">
<title>Node29</title>
<g id="a_node13"><a xlink:href="TerrainGenerator_8hxx.html" target="_top" xlink:title="src/engine/map/TerrainGenerator.hxx">
<polygon fill="none" stroke="#000000" points="1005.765,-230 1005.765,-249 1202.765,-249 1202.765,-230 1005.765,-230"/>
<text text-anchor="middle" x="1104.265" y="-237" font-family="Helvetica,sans-Serif" font-size="10.00" fill="#000000">src/engine/map/TerrainGenerator.hxx</text>
</a>
</g>
</g>
<!-- Node17&#45;&gt;Node29 -->
<g id="edge15" class="edge">
<title>Node17&#45;&gt;Node29</title>
<path fill="none" stroke="#191970" d="M1145.9811,-283.8648C1134.8229,-271.998 1121.7467,-258.0916 1113.2496,-249.055"/>
<polygon fill="#191970" stroke="#191970" points="1143.5692,-286.409 1152.9694,-291.2967 1148.6689,-281.6138 1143.5692,-286.409"/>
</g>
<!-- Node30 -->
<g id="node14" class="node">
<title>Node30</title>
<g id="a_node14"><a xlink:href="JsonSerialization_8hxx.html" target="_top" xlink:title="src/engine/common/JsonSerialization.hxx">
<polygon fill="none" stroke="#000000" points="1132.265,-168.5 1132.265,-187.5 1350.265,-187.5 1350.265,-168.5 1132.265,-168.5"/>
<text text-anchor="middle" x="1241.265" y="-175.5" font-family="Helvetica,sans-Serif" font-size="10.00" fill="#000000">src/engine/common/JsonSerialization.hxx</text>
</a>
</g>
</g>
<!-- Node17&#45;&gt;Node30 -->
<g id="edge24" class="edge">
<title>Node17&#45;&gt;Node30</title>
<path fill="none" stroke="#191970" d="M1189.9928,-284.0569C1197.7945,-275.4904 1206.1042,-265.2972 1212.265,-255 1225.6864,-232.5674 1234.7385,-202.8593 1238.8096,-187.7405"/>
<polygon fill="#191970" stroke="#191970" points="1187.3609,-281.7463 1183.0469,-291.4231 1192.4539,-286.5486 1187.3609,-281.7463"/>
</g>
<!-- Node35 -->
<g id="node19" class="node">
<title>Node35</title>
<g id="a_node19"><a xlink:href="MapNode_8cxx.html" target="_top" xlink:title="src/engine/GameObjects\l/MapNode.cxx">
<polygon fill="none" stroke="#000000" points="1259.265,-224.5 1259.265,-254.5 1395.265,-254.5 1395.265,-224.5 1259.265,-224.5"/>
<text text-anchor="start" x="1267.265" y="-242.5" font-family="Helvetica,sans-Serif" font-size="10.00" fill="#000000">src/engine/GameObjects</text>
<text text-anchor="middle" x="1327.265" y="-231.5" font-family="Helvetica,sans-Serif" font-size="10.00" fill="#000000">/MapNode.cxx</text>
</a>
</g>
</g>
<!-- Node17&#45;&gt;Node35 -->
<g id="edge25" class="edge">
<title>Node17&#45;&gt;Node35</title>
<path fill="none" stroke="#191970" d="M1212.4241,-287.5897C1237.3503,-277.1518 1267.8849,-264.3654 1291.2013,-254.6017"/>
<polygon fill="#191970" stroke="#191970" points="1211.0442,-284.3729 1203.1722,-291.4639 1213.748,-290.8297 1211.0442,-284.3729"/>
</g>
<!-- Node19 -->
<g id="node3" class="node">
<title>Node19</title>
<g id="a_node3"><a xlink:href="Engine_8hxx.html" target="_top" xlink:title="src/engine/Engine.hxx">
<polygon fill="none" stroke="#000000" points="356.265,-112.5 356.265,-131.5 480.265,-131.5 480.265,-112.5 356.265,-112.5"/>
<text text-anchor="middle" x="418.265" y="-119.5" font-family="Helvetica,sans-Serif" font-size="10.00" fill="#000000">src/engine/Engine.hxx</text>
</a>
</g>
</g>
<!-- Node18&#45;&gt;Node19 -->
<g id="edge2" class="edge">
<title>Node18&#45;&gt;Node19</title>
<path fill="none" stroke="#191970" d="M816.7356,-170.0913C727.3049,-159.2979 568.1532,-140.09 480.4828,-129.509"/>
<polygon fill="#191970" stroke="#191970" points="816.4093,-173.5772 826.7567,-171.3007 817.2481,-166.6276 816.4093,-173.5772"/>
</g>
<!-- Node24 -->
<g id="node8" class="node">
<title>Node24</title>
<g id="a_node8"><a xlink:href="EventManager_8cxx.html" target="_top" xlink:title="src/engine/EventManager.cxx">
<polygon fill="none" stroke="#000000" points="649.765,-.5 649.765,-19.5 808.765,-19.5 808.765,-.5 649.765,-.5"/>
<text text-anchor="middle" x="729.265" y="-7.5" font-family="Helvetica,sans-Serif" font-size="10.00" fill="#000000">src/engine/EventManager.cxx</text>
</a>
</g>
</g>
<!-- Node18&#45;&gt;Node24 -->
<g id="edge12" class="edge">
<title>Node18&#45;&gt;Node24</title>
<path fill="none" stroke="#191970" d="M881.8009,-158.0826C880.135,-131.5551 873.3872,-84.6526 847.265,-56 830.3035,-37.3954 804.909,-26.231 782.0183,-19.5732"/>
<polygon fill="#191970" stroke="#191970" points="878.3183,-158.5586 882.253,-168.3957 885.3116,-158.252 878.3183,-158.5586"/>
</g>
<!-- Node27 -->
<g id="node11" class="node">
<title>Node27</title>
<g id="a_node11"><a xlink:href="UIManager_8cxx.html" target="_top" xlink:title="src/engine/UIManager.cxx">
<polygon fill="none" stroke="#000000" points="696.265,-56.5 696.265,-75.5 838.265,-75.5 838.265,-56.5 696.265,-56.5"/>
<text text-anchor="middle" x="767.265" y="-63.5" font-family="Helvetica,sans-Serif" font-size="10.00" fill="#000000">src/engine/UIManager.cxx</text>
</a>
</g>
</g>
<!-- Node18&#45;&gt;Node27 -->
<g id="edge14" class="edge">
<title>Node18&#45;&gt;Node27</title>
<path fill="none" stroke="#191970" d="M865.2856,-161.4635C840.869,-137.6838 796.6292,-94.5982 777.045,-75.5249"/>
<polygon fill="#191970" stroke="#191970" points="862.8543,-163.9813 872.4602,-168.4509 867.7382,-158.9665 862.8543,-163.9813"/>
</g>
<!-- Node28 -->
<g id="node12" class="node">
<title>Node28</title>
<g id="a_node12"><a xlink:href="Map_8cxx.html" target="_top" xlink:title="src/engine/Map.cxx">
<polygon fill="none" stroke="#000000" points="894.265,-112.5 894.265,-131.5 1004.265,-131.5 1004.265,-112.5 894.265,-112.5"/>
<text text-anchor="middle" x="949.265" y="-119.5" font-family="Helvetica,sans-Serif" font-size="10.00" fill="#000000">src/engine/Map.cxx</text>
</a>
</g>
</g>
<!-- Node18&#45;&gt;Node28 -->
<g id="edge13" class="edge">
<title>Node18&#45;&gt;Node28</title>
<path fill="none" stroke="#191970" d="M901.8326,-161.645C913.4848,-151.9058 927.8735,-139.8795 937.7283,-131.6427"/>
<polygon fill="#191970" stroke="#191970" points="899.3638,-159.1469 893.9355,-168.2455 903.853,-164.5179 899.3638,-159.1469"/>
</g>
<!-- Node20 -->
<g id="node4" class="node">
<title>Node20</title>
<g id="a_node4"><a xlink:href="Camera_8cxx.html" target="_top" xlink:title="src/engine/basics/Camera.cxx">
<polygon fill="none" stroke="#000000" points="516.265,-56.5 516.265,-75.5 678.265,-75.5 678.265,-56.5 516.265,-56.5"/>
<text text-anchor="middle" x="597.265" y="-63.5" font-family="Helvetica,sans-Serif" font-size="10.00" fill="#000000">src/engine/basics/Camera.cxx</text>
</a>
</g>
</g>
<!-- Node19&#45;&gt;Node20 -->
<g id="edge3" class="edge">
<title>Node19&#45;&gt;Node20</title>
<path fill="none" stroke="#191970" d="M458.7845,-109.3235C491.6116,-99.0536 537.1426,-84.8093 566.8954,-75.5011"/>
<polygon fill="#191970" stroke="#191970" points="457.535,-106.0471 449.0362,-112.3733 459.6251,-112.7278 457.535,-106.0471"/>
</g>
<!-- Node21 -->
<g id="node5" class="node">
<title>Node21</title>
<g id="a_node5"><a xlink:href="isoMath_8cxx.html" target="_top" xlink:title="src/engine/basics/isoMath.cxx">
<polygon fill="none" stroke="#000000" points="158.265,-56.5 158.265,-75.5 320.265,-75.5 320.265,-56.5 158.265,-56.5"/>
<text text-anchor="middle" x="239.265" y="-63.5" font-family="Helvetica,sans-Serif" font-size="10.00" fill="#000000">src/engine/basics/isoMath.cxx</text>
</a>
</g>
</g>
<!-- Node19&#45;&gt;Node21 -->
<g id="edge4" class="edge">
<title>Node19&#45;&gt;Node21</title>
<path fill="none" stroke="#191970" d="M377.7455,-109.3235C344.9185,-99.0536 299.3875,-84.8093 269.6347,-75.5011"/>
<polygon fill="#191970" stroke="#191970" points="376.9049,-112.7278 387.4938,-112.3733 378.995,-106.0471 376.9049,-112.7278"/>
</g>
<!-- Node22 -->
<g id="node6" class="node">
<title>Node22</title>
<g id="a_node6"><a xlink:href="EventManager_8hxx.html" target="_top" xlink:title="src/engine/EventManager.hxx">
<polygon fill="none" stroke="#000000" points="338.265,-56.5 338.265,-75.5 498.265,-75.5 498.265,-56.5 338.265,-56.5"/>
<text text-anchor="middle" x="418.265" y="-63.5" font-family="Helvetica,sans-Serif" font-size="10.00" fill="#000000">src/engine/EventManager.hxx</text>
</a>
</g>
</g>
<!-- Node19&#45;&gt;Node22 -->
<g id="edge5" class="edge">
<title>Node19&#45;&gt;Node22</title>
<path fill="none" stroke="#191970" d="M418.265,-102.1575C418.265,-93.155 418.265,-82.9199 418.265,-75.6427"/>
<polygon fill="#191970" stroke="#191970" points="414.7651,-102.2455 418.265,-112.2455 421.7651,-102.2456 414.7651,-102.2455"/>
</g>
<!-- Node25 -->
<g id="node9" class="node">
<title>Node25</title>
<g id="a_node9"><a xlink:href="Game_8cxx.html" target="_top" xlink:title="src/Game.cxx">
<polygon fill="none" stroke="#000000" points="93.765,-.5 93.765,-19.5 176.765,-19.5 176.765,-.5 93.765,-.5"/>
<text text-anchor="middle" x="135.265" y="-7.5" font-family="Helvetica,sans-Serif" font-size="10.00" fill="#000000">src/Game.cxx</text>
</a>
</g>
</g>
<!-- Node19&#45;&gt;Node25 -->
<g id="edge11" class="edge">
<title>Node19&#45;&gt;Node25</title>
<path fill="none" stroke="#191970" d="M346.0226,-119.0575C234.1268,-113.7492 29.3989,-100.7493 7.265,-76 -21.4025,-43.9449 46.2332,-25.1704 93.7057,-16.3009"/>
<polygon fill="#191970" stroke="#191970" points="346.0705,-122.5634 356.2224,-119.5323 346.396,-115.571 346.0705,-122.5634"/>
</g>
<!-- Node26 -->
<g id="node10" class="node">
<title>Node26</title>
<g id="a_node10"><a xlink:href="Engine_8cxx.html" target="_top" xlink:title="src/engine/Engine.cxx">
<polygon fill="none" stroke="#000000" points="16.765,-56.5 16.765,-75.5 139.765,-75.5 139.765,-56.5 16.765,-56.5"/>
<text text-anchor="middle" x="78.265" y="-63.5" font-family="Helvetica,sans-Serif" font-size="10.00" fill="#000000">src/engine/Engine.cxx</text>
</a>
</g>
</g>
<!-- Node19&#45;&gt;Node26 -->
<g id="edge9" class="edge">
<title>Node19&#45;&gt;Node26</title>
<path fill="none" stroke="#191970" d="M350.0081,-110.7577C287.271,-100.4245 195.2877,-85.2743 136.0873,-75.5237"/>
<polygon fill="#191970" stroke="#191970" points="349.7674,-114.2651 360.2033,-112.4369 350.905,-107.3582 349.7674,-114.2651"/>
</g>
<!-- Node19&#45;&gt;Node27 -->
<g id="edge10" class="edge">
<title>Node19&#45;&gt;Node27</title>
<path fill="none" stroke="#191970" d="M487.9308,-110.8215C552.337,-100.487 647.0195,-85.2944 707.9122,-75.5237"/>
<polygon fill="#191970" stroke="#191970" points="487.1829,-107.3967 477.8637,-112.4369 488.292,-114.3083 487.1829,-107.3967"/>
</g>
<!-- Node23 -->
<g id="node7" class="node">
<title>Node23</title>
<g id="a_node7"><a xlink:href="Timer_8cxx.html" target="_top" xlink:title="src/engine/basics/Timer.cxx">
<polygon fill="none" stroke="#000000" points="342.265,-.5 342.265,-19.5 494.265,-19.5 494.265,-.5 342.265,-.5"/>
<text text-anchor="middle" x="418.265" y="-7.5" font-family="Helvetica,sans-Serif" font-size="10.00" fill="#000000">src/engine/basics/Timer.cxx</text>
</a>
</g>
</g>
<!-- Node22&#45;&gt;Node23 -->
<g id="edge6" class="edge">
<title>Node22&#45;&gt;Node23</title>
<path fill="none" stroke="#191970" d="M418.265,-46.1575C418.265,-37.155 418.265,-26.9199 418.265,-19.6427"/>
<polygon fill="#191970" stroke="#191970" points="414.7651,-46.2455 418.265,-56.2455 421.7651,-46.2456 414.7651,-46.2455"/>
</g>
<!-- Node22&#45;&gt;Node24 -->
<g id="edge7" class="edge">
<title>Node22&#45;&gt;Node24</title>
<path fill="none" stroke="#191970" d="M481.4113,-54.6296C538.7794,-44.2997 622.447,-29.2341 676.3746,-19.5237"/>
<polygon fill="#191970" stroke="#191970" points="480.5959,-51.2201 471.3745,-56.4369 481.8365,-58.1093 480.5959,-51.2201"/>
</g>
<!-- Node22&#45;&gt;Node25 -->
<g id="edge8" class="edge">
<title>Node22&#45;&gt;Node25</title>
<path fill="none" stroke="#191970" d="M360.0655,-54.4835C305.5272,-43.6915 225.3508,-27.8262 176.9418,-18.247"/>
<polygon fill="#191970" stroke="#191970" points="359.4479,-57.9291 369.9372,-56.4369 360.8068,-51.0622 359.4479,-57.9291"/>
</g>
<!-- Node29&#45;&gt;Node18 -->
<g id="edge16" class="edge">
<title>Node29&#45;&gt;Node18</title>
<path fill="none" stroke="#191970" d="M1059.8538,-227.1969C1017.6993,-215.5189 955.2191,-198.2103 916.709,-187.5419"/>
<polygon fill="#191970" stroke="#191970" points="1059.0061,-230.5938 1069.5775,-229.8906 1060.8749,-223.8479 1059.0061,-230.5938"/>
</g>
<!-- Node29&#45;&gt;Node30 -->
<g id="edge17" class="edge">
<title>Node29&#45;&gt;Node30</title>
<path fill="none" stroke="#191970" d="M1135.0298,-225.6895C1160.9137,-214.0701 1197.2466,-197.7601 1220.0091,-187.5419"/>
<polygon fill="#191970" stroke="#191970" points="1133.3608,-222.6022 1125.6713,-229.8906 1136.2276,-228.9883 1133.3608,-222.6022"/>
</g>
<!-- Node32 -->
<g id="node16" class="node">
<title>Node32</title>
<g id="a_node16"><a xlink:href="TerrainGenerator_8cxx.html" target="_top" xlink:title="src/engine/map/TerrainGenerator.cxx">
<polygon fill="none" stroke="#000000" points="1022.265,-112.5 1022.265,-131.5 1218.265,-131.5 1218.265,-112.5 1022.265,-112.5"/>
<text text-anchor="middle" x="1120.265" y="-119.5" font-family="Helvetica,sans-Serif" font-size="10.00" fill="#000000">src/engine/map/TerrainGenerator.cxx</text>
</a>
</g>
</g>
<!-- Node29&#45;&gt;Node32 -->
<g id="edge23" class="edge">
<title>Node29&#45;&gt;Node32</title>
<path fill="none" stroke="#191970" d="M1106.9327,-219.9095C1110.3965,-194.4723 1116.3089,-151.0527 1118.9376,-131.7484"/>
<polygon fill="#191970" stroke="#191970" points="1103.4557,-219.5037 1105.5744,-229.8845 1110.3917,-220.4482 1103.4557,-219.5037"/>
</g>
<!-- Node30&#45;&gt;Node28 -->
<g id="edge20" class="edge">
<title>Node30&#45;&gt;Node28</title>
<path fill="none" stroke="#191970" d="M1181.3062,-166.501C1127.4632,-156.175 1049.3475,-141.1939 998.9242,-131.5237"/>
<polygon fill="#191970" stroke="#191970" points="1180.92,-169.9907 1191.4002,-168.4369 1182.2384,-163.116 1180.92,-169.9907"/>
</g>
<!-- Node31 -->
<g id="node15" class="node">
<title>Node31</title>
<g id="a_node15"><a xlink:href="Settings_8cxx.html" target="_top" xlink:title="src/engine/basics/Settings.cxx">
<polygon fill="none" stroke="#000000" points="1236.265,-112.5 1236.265,-131.5 1400.265,-131.5 1400.265,-112.5 1236.265,-112.5"/>
<text text-anchor="middle" x="1318.265" y="-119.5" font-family="Helvetica,sans-Serif" font-size="10.00" fill="#000000">src/engine/basics/Settings.cxx</text>
</a>
</g>
</g>
<!-- Node30&#45;&gt;Node31 -->
<g id="edge18" class="edge">
<title>Node30&#45;&gt;Node31</title>
<path fill="none" stroke="#191970" d="M1262.9767,-162.2097C1276.5003,-152.3743 1293.4608,-140.0394 1305.0064,-131.6427"/>
<polygon fill="#191970" stroke="#191970" points="1260.7062,-159.5332 1254.6774,-168.2455 1264.8234,-165.1944 1260.7062,-159.5332"/>
</g>
<!-- Node30&#45;&gt;Node32 -->
<g id="edge19" class="edge">
<title>Node30&#45;&gt;Node32</title>
<path fill="none" stroke="#191970" d="M1211.2546,-164.1109C1189.3125,-153.9559 1160.1262,-140.4482 1140.7942,-131.5011"/>
<polygon fill="#191970" stroke="#191970" points="1209.9191,-167.3494 1220.4644,-168.3733 1212.8592,-160.9968 1209.9191,-167.3494"/>
</g>
<!-- Node33 -->
<g id="node17" class="node">
<title>Node33</title>
<g id="a_node17"><a xlink:href="AudioMixer_8cxx.html" target="_top" xlink:title="src/services/AudioMixer.cxx">
<polygon fill="none" stroke="#000000" points="1418.265,-112.5 1418.265,-131.5 1570.265,-131.5 1570.265,-112.5 1418.265,-112.5"/>
<text text-anchor="middle" x="1494.265" y="-119.5" font-family="Helvetica,sans-Serif" font-size="10.00" fill="#000000">src/services/AudioMixer.cxx</text>
</a>
</g>
</g>
<!-- Node30&#45;&gt;Node33 -->
<g id="edge21" class="edge">
<title>Node30&#45;&gt;Node33</title>
<path fill="none" stroke="#191970" d="M1294.3839,-166.2425C1340.9914,-155.9262 1407.9131,-141.1135 1451.2384,-131.5237"/>
<polygon fill="#191970" stroke="#191970" points="1293.4771,-162.8584 1284.4698,-168.4369 1294.9899,-169.693 1293.4771,-162.8584"/>
</g>
<!-- Node34 -->
<g id="node18" class="node">
<title>Node34</title>
<g id="a_node18"><a xlink:href="ResourceManager_8cxx.html" target="_top" xlink:title="src/services/ResourceManager.cxx">
<polygon fill="none" stroke="#000000" points="1588.765,-112.5 1588.765,-131.5 1771.765,-131.5 1771.765,-112.5 1588.765,-112.5"/>
<text text-anchor="middle" x="1680.265" y="-119.5" font-family="Helvetica,sans-Serif" font-size="10.00" fill="#000000">src/services/ResourceManager.cxx</text>
</a>
</g>
</g>
<!-- Node30&#45;&gt;Node34 -->
<g id="edge22" class="edge">
<title>Node30&#45;&gt;Node34</title>
<path fill="none" stroke="#191970" d="M1326.4078,-167.139C1407.4563,-156.8002 1528.2225,-141.3949 1605.6063,-131.5237"/>
<polygon fill="#191970" stroke="#191970" points="1325.7097,-163.6996 1316.233,-168.4369 1326.5955,-170.6433 1325.7097,-163.6996"/>
</g>
</g>
</svg>
        <g id="navigator" transform="translate(0 0)" fill="#404254">
                <rect fill="#f2f5e9" fill-opacity="0.5" stroke="#606060" stroke-width=".5" x="0" y="0" width="60" height="60"/>
                <use id="zoomplus" xlink:href="#zoomPlus" x="17" y="9" onmousedown="handleZoom(evt,'in')"/>
                <use id="zoomminus" xlink:href="#zoomMin" x="42" y="9" onmousedown="handleZoom(evt,'out')"/>
                <use id="reset" xlink:href="#resetDef" x="30" y="36" onmousedown="handleReset()"/>
                <g id="arrowUp" xlink:href="#dirArrow" transform="translate(30 24)" onmousedown="handlePan(0,-1)">
                  <use xlink:href="#rim" fill="#404040">
                        <set attributeName="fill" to="#808080" begin="arrowUp.mouseover" end="arrowUp.mouseout"/>
                  </use>
                  <path fill="none" stroke="white" stroke-width="1.5" d="M0,-3.0v7 M-2.5,-0.5L0,-3.0L2.5,-0.5"/>
                </g>
                <g id="arrowRight" xlink:href="#dirArrow" transform="rotate(90) translate(36 -43)" onmousedown="handlePan(1,0)">
                  <use xlink:href="#rim" fill="#404040">
                        <set attributeName="fill" to="#808080" begin="arrowRight.mouseover" end="arrowRight.mouseout"/>
                  </use>
                  <path fill="none" stroke="white" stroke-width="1.5" d="M0,-3.0v7 M-2.5,-0.5L0,-3.0L2.5,-0.5"/>
                </g>
                <g id="arrowDown" xlink:href="#dirArrow" transform="rotate(180) translate(-30 -48)" onmousedown="handlePan(0,1)">
                  <use xlink:href="#rim" fill="#404040">
                        <set attributeName="fill" to="#808080" begin="arrowDown.mouseover" end="arrowDown.mouseout"/>
                  </use>
                  <path fill="none" stroke="white" stroke-width="1.5" d="M0,-3.0v7 M-2.5,-0.5L0,-3.0L2.5,-0.5"/>
                </g>
                <g id="arrowLeft" xlink:href="#dirArrow" transform="rotate(270) translate(-36 17)" onmousedown="handlePan(-1,0)">
                  <use xlink:href="#rim" fill="#404040">
                        <set attributeName="fill" to="#808080" begin="arrowLeft.mouseover" end="arrowLeft.mouseout"/>
                  </use>
                  <path fill="none" stroke="white" stroke-width="1.5" d="M0,-3.0v7 M-2.5,-0.5L0,-3.0L2.5,-0.5"/>
                </g>
        </g>
        <svg viewBox="0 0 15 15" width="100%" height="30px" preserveAspectRatio="xMaxYMin meet">
         <g id="arrow_out" transform="scale(0.3 0.3)">
          <a xlink:href="MapNode_8hxx__dep__incl_org.svg" target="_base">
           <rect id="button" ry="5" rx="5" y="6" x="6" height="38" width="38"
                fill="#f2f5e9" fill-opacity="0.5" stroke="#606060" stroke-width="1.0"/>
           <path id="arrow"
             d="M 11.500037,31.436501 C 11.940474,20.09759 22.043105,11.32322 32.158766,21.979434 L 37.068811,17.246167 C 37.068811,17.246167 37.088388,32 37.088388,32 L 22.160133,31.978069 C 22.160133,31.978069 26.997745,27.140456 26.997745,27.140456 C 18.528582,18.264221 13.291696,25.230495 11.500037,31.436501 z"
             style="fill:#404040;"/>
          </a>
         </g>
        </svg>
</svg>
