<?xml version="1.0" encoding="UTF-8" standalone="no"?>
<!DOCTYPE svg PUBLIC "-//W3C//DTD SVG 1.1//EN"
 "http://www.w3.org/Graphics/SVG/1.1/DTD/svg11.dtd">
<!-- Generated by graphviz version 2.40.1 (20161225.0304)
 -->
<!-- Title: src/engine/GameObjects/MapNode.hxx Pages: 1 -->
<svg width="971pt" height="263pt"
 viewBox="0.00 0.00 970.68 263.00" xmlns="http://www.w3.org/2000/svg" xmlns:xlink="http://www.w3.org/1999/xlink">
<g id="graph0" class="graph" transform="scale(1 1) rotate(0) translate(4 259)">
<title>src/engine/GameObjects/MapNode.hxx</title>
<!-- Node0 -->
<g id="node1" class="node">
<title>Node0</title>
<polygon fill="#bfbfbf" stroke="#000000" points="185.6981,-224.5 185.6981,-254.5 321.6981,-254.5 321.6981,-224.5 185.6981,-224.5"/>
<text text-anchor="start" x="193.6981" y="-242.5" font-family="Helvetica,sans-Serif" font-size="10.00" fill="#000000">src/engine/GameObjects</text>
<text text-anchor="middle" x="253.6981" y="-231.5" font-family="Helvetica,sans-Serif" font-size="10.00" fill="#000000">/MapNode.hxx</text>
</g>
<!-- Node1 -->
<g id="node2" class="node">
<title>Node1</title>
<polygon fill="none" stroke="#bfbfbf" points="335.6981,-112.5 335.6981,-131.5 379.6981,-131.5 379.6981,-112.5 335.6981,-112.5"/>
<text text-anchor="middle" x="357.6981" y="-119.5" font-family="Helvetica,sans-Serif" font-size="10.00" fill="#000000">SDL.h</text>
</g>
<!-- Node0&#45;&gt;Node1 -->
<g id="edge1" class="edge">
<title>Node0&#45;&gt;Node1</title>
<path fill="none" stroke="#191970" d="M286.9717,-224.4539C302.9792,-215.7737 321.3303,-203.4897 333.6981,-188 344.3832,-174.6179 350.5679,-156.0531 353.9742,-142.0207"/>
<polygon fill="#191970" stroke="#191970" points="357.4646,-142.4363 356.1431,-131.9242 350.6208,-140.9661 357.4646,-142.4363"/>
</g>
<!-- Node2 -->
<g id="node3" class="node">
<title>Node2</title>
<polygon fill="none" stroke="#bfbfbf" points="19.6981,-168.5 19.6981,-187.5 77.6981,-187.5 77.6981,-168.5 19.6981,-168.5"/>
<text text-anchor="middle" x="48.6981" y="-175.5" font-family="Helvetica,sans-Serif" font-size="10.00" fill="#000000">memory</text>
</g>
<!-- Node0&#45;&gt;Node2 -->
<g id="edge2" class="edge">
<title>Node0&#45;&gt;Node2</title>
<path fill="none" stroke="#191970" d="M203.5495,-224.4554C167.7778,-213.7239 120.3778,-199.5039 87.4848,-189.636"/>
<polygon fill="#191970" stroke="#191970" points="88.3553,-186.2431 77.7713,-186.7219 86.3438,-192.9479 88.3553,-186.2431"/>
</g>
<!-- Node3 -->
<g id="node4" class="node">
<title>Node3</title>
<polygon fill="none" stroke="#bfbfbf" points="802.6981,-56.5 802.6981,-75.5 846.6981,-75.5 846.6981,-56.5 802.6981,-56.5"/>
<text text-anchor="middle" x="824.6981" y="-63.5" font-family="Helvetica,sans-Serif" font-size="10.00" fill="#000000">string</text>
</g>
<!-- Node0&#45;&gt;Node3 -->
<g id="edge3" class="edge">
<title>Node0&#45;&gt;Node3</title>
<path fill="none" stroke="#191970" d="M321.9474,-234.102C490.3519,-220.088 915.0239,-180.2569 955.6981,-132 985.9735,-96.0805 904.6009,-77.6576 856.7603,-70.1662"/>
<polygon fill="#191970" stroke="#191970" points="857.2341,-66.6983 846.8283,-68.6912 856.2057,-73.6223 857.2341,-66.6983"/>
</g>
<!-- Node4 -->
<g id="node5" class="node">
<title>Node4</title>
<polygon fill="none" stroke="#bfbfbf" points="133.6981,-168.5 133.6981,-187.5 197.6981,-187.5 197.6981,-168.5 133.6981,-168.5"/>
<text text-anchor="middle" x="165.6981" y="-175.5" font-family="Helvetica,sans-Serif" font-size="10.00" fill="#000000">algorithm</text>
</g>
<!-- Node0&#45;&gt;Node4 -->
<g id="edge4" class="edge">
<title>Node0&#45;&gt;Node4</title>
<path fill="none" stroke="#191970" d="M231.9453,-224.2977C218.5013,-214.9022 201.297,-202.8787 187.7904,-193.4395"/>
<polygon fill="#191970" stroke="#191970" points="189.7269,-190.5228 179.5253,-187.6633 185.717,-196.2605 189.7269,-190.5228"/>
</g>
<!-- Node5 -->
<g id="node6" class="node">
<title>Node5</title>
<polygon fill="none" stroke="#bfbfbf" points="190.1981,-56.5 190.1981,-75.5 237.1981,-75.5 237.1981,-56.5 190.1981,-56.5"/>
<text text-anchor="middle" x="213.6981" y="-63.5" font-family="Helvetica,sans-Serif" font-size="10.00" fill="#000000">vector</text>
</g>
<!-- Node0&#45;&gt;Node5 -->
<g id="edge5" class="edge">
<title>Node0&#45;&gt;Node5</title>
<path fill="none" stroke="#191970" d="M185.6738,-234.4838C121.63,-228.1788 32.3835,-214.7629 10.6981,-188 -40.6386,-124.643 109.392,-86.2327 179.6065,-72.1404"/>
<polygon fill="#191970" stroke="#191970" points="180.6056,-75.5116 189.7508,-70.1622 179.2658,-68.641 180.6056,-75.5116"/>
</g>
<!-- Node6 -->
<g id="node7" class="node">
<title>Node6</title>
<g id="a_node7"><a xlink:href="Sprite_8hxx.html" target="_top" xlink:title="../Sprite.hxx">
<polygon fill="none" stroke="#000000" points="216.1981,-168.5 216.1981,-187.5 291.1981,-187.5 291.1981,-168.5 216.1981,-168.5"/>
<text text-anchor="middle" x="253.6981" y="-175.5" font-family="Helvetica,sans-Serif" font-size="10.00" fill="#000000">../Sprite.hxx</text>
</a>
</g>
</g>
<!-- Node0&#45;&gt;Node6 -->
<g id="edge6" class="edge">
<title>Node0&#45;&gt;Node6</title>
<path fill="none" stroke="#191970" d="M253.6981,-224.2977C253.6981,-216.3834 253.6981,-206.6043 253.6981,-198.0759"/>
<polygon fill="#191970" stroke="#191970" points="257.1982,-197.8469 253.6981,-187.8469 250.1982,-197.847 257.1982,-197.8469"/>
</g>
<!-- Node7 -->
<g id="node8" class="node">
<title>Node7</title>
<g id="a_node8"><a xlink:href="point_8hxx.html" target="_top" xlink:title="basics/point.hxx">
<polygon fill="none" stroke="#000000" points="72.6981,-112.5 72.6981,-131.5 168.6981,-131.5 168.6981,-112.5 72.6981,-112.5"/>
<text text-anchor="middle" x="120.6981" y="-119.5" font-family="Helvetica,sans-Serif" font-size="10.00" fill="#000000">basics/point.hxx</text>
</a>
</g>
</g>
<!-- Node0&#45;&gt;Node7 -->
<g id="edge14" class="edge">
<title>Node0&#45;&gt;Node7</title>
<path fill="none" stroke="#191970" d="M185.4562,-227.6559C162.51,-220.1618 139.1046,-207.9364 124.6981,-188 115.1487,-174.7849 114.9643,-155.9179 116.6927,-141.7381"/>
<polygon fill="#191970" stroke="#191970" points="120.1958,-142.0009 118.3466,-131.5687 113.2866,-140.8772 120.1958,-142.0009"/>
</g>
<!-- Node8 -->
<g id="node9" class="node">
<title>Node8</title>
<g id="a_node9"><a xlink:href="enums_8hxx.html" target="_top" xlink:title="common/enums.hxx">
<polygon fill="none" stroke="#000000" points="255.6981,-56.5 255.6981,-75.5 371.6981,-75.5 371.6981,-56.5 255.6981,-56.5"/>
<text text-anchor="middle" x="313.6981" y="-63.5" font-family="Helvetica,sans-Serif" font-size="10.00" fill="#000000">common/enums.hxx</text>
</a>
</g>
</g>
<!-- Node0&#45;&gt;Node8 -->
<g id="edge13" class="edge">
<title>Node0&#45;&gt;Node8</title>
<path fill="none" stroke="#191970" d="M272.4285,-224.3465C282.5886,-215.0036 294.3386,-202.1286 300.6981,-188 315.7857,-154.4808 316.4395,-110.7138 315.2632,-85.7467"/>
<polygon fill="#191970" stroke="#191970" points="318.7527,-85.4664 314.6393,-75.7027 311.7661,-85.9005 318.7527,-85.4664"/>
</g>
<!-- Node11 -->
<g id="node12" class="node">
<title>Node11</title>
<g id="a_node12"><a xlink:href="TileManager_8hxx.html" target="_top" xlink:title="../TileManager.hxx">
<polygon fill="none" stroke="#000000" points="514.6981,-168.5 514.6981,-187.5 620.6981,-187.5 620.6981,-168.5 514.6981,-168.5"/>
<text text-anchor="middle" x="567.6981" y="-175.5" font-family="Helvetica,sans-Serif" font-size="10.00" fill="#000000">../TileManager.hxx</text>
</a>
</g>
</g>
<!-- Node0&#45;&gt;Node11 -->
<g id="edge15" class="edge">
<title>Node0&#45;&gt;Node11</title>
<path fill="none" stroke="#191970" d="M321.8315,-226.1554C377.75,-215.2032 456.0946,-199.8587 509.2052,-189.4564"/>
<polygon fill="#191970" stroke="#191970" points="510.0059,-192.8662 519.1467,-187.5093 508.6604,-185.9967 510.0059,-192.8662"/>
</g>
<!-- Node6&#45;&gt;Node1 -->
<g id="edge7" class="edge">
<title>Node6&#45;&gt;Node1</title>
<path fill="none" stroke="#191970" d="M271.8136,-168.2455C288.1432,-159.4527 312.3692,-146.4079 330.9321,-136.4125"/>
<polygon fill="#191970" stroke="#191970" points="332.645,-139.4654 339.7903,-131.6427 329.3262,-133.3021 332.645,-139.4654"/>
</g>
<!-- Node6&#45;&gt;Node5 -->
<g id="edge8" class="edge">
<title>Node6&#45;&gt;Node5</title>
<path fill="none" stroke="#191970" d="M250.2878,-168.4509C243.7048,-150.0186 229.1358,-109.2254 220.4992,-85.043"/>
<polygon fill="#191970" stroke="#191970" points="223.7594,-83.7651 217.0999,-75.5249 217.1672,-86.1195 223.7594,-83.7651"/>
</g>
<!-- Node6&#45;&gt;Node7 -->
<g id="edge9" class="edge">
<title>Node6&#45;&gt;Node7</title>
<path fill="none" stroke="#191970" d="M230.8346,-168.3733C209.2932,-159.3032 176.8144,-145.6279 152.7026,-135.4755"/>
<polygon fill="#191970" stroke="#191970" points="153.8379,-132.156 143.2633,-131.5011 151.1215,-138.6075 153.8379,-132.156"/>
</g>
<!-- Node6&#45;&gt;Node8 -->
<g id="edge10" class="edge">
<title>Node6&#45;&gt;Node8</title>
<path fill="none" stroke="#191970" d="M258.8137,-168.4509C268.7767,-149.8533 290.9346,-108.4919 303.8429,-84.3964"/>
<polygon fill="#191970" stroke="#191970" points="306.9584,-85.9925 308.5955,-75.5249 300.7881,-82.6869 306.9584,-85.9925"/>
</g>
<!-- Node9 -->
<g id="node10" class="node">
<title>Node9</title>
<polygon fill="none" stroke="#bfbfbf" points="237.6981,-.5 237.6981,-19.5 293.6981,-19.5 293.6981,-.5 237.6981,-.5"/>
<text text-anchor="middle" x="265.6981" y="-7.5" font-family="Helvetica,sans-Serif" font-size="10.00" fill="#000000">stddef.h</text>
</g>
<!-- Node8&#45;&gt;Node9 -->
<g id="edge11" class="edge">
<title>Node8&#45;&gt;Node9</title>
<path fill="none" stroke="#191970" d="M305.3372,-56.2455C298.5231,-48.2958 288.7301,-36.8706 280.5829,-27.3656"/>
<polygon fill="#191970" stroke="#191970" points="283.1287,-24.9575 273.9633,-19.6427 277.8138,-29.513 283.1287,-24.9575"/>
</g>
<!-- Node10 -->
<g id="node11" class="node">
<title>Node10</title>
<polygon fill="none" stroke="#bfbfbf" points="311.6981,-.5 311.6981,-19.5 411.6981,-19.5 411.6981,-.5 311.6981,-.5"/>
<text text-anchor="middle" x="361.6981" y="-7.5" font-family="Helvetica,sans-Serif" font-size="10.00" fill="#000000">betterEnums.hxx</text>
</g>
<!-- Node8&#45;&gt;Node10 -->
<g id="edge12" class="edge">
<title>Node8&#45;&gt;Node10</title>
<path fill="none" stroke="#191970" d="M322.0591,-56.2455C328.8732,-48.2958 338.6662,-36.8706 346.8134,-27.3656"/>
<polygon fill="#191970" stroke="#191970" points="349.5825,-29.513 353.433,-19.6427 344.2676,-24.9575 349.5825,-29.513"/>
</g>
<!-- Node11&#45;&gt;Node1 -->
<g id="edge16" class="edge">
<title>Node11&#45;&gt;Node1</title>
<path fill="none" stroke="#191970" d="M528.3059,-168.4203C492.1351,-159.4819 437.1197,-145.528 389.6981,-132 389.6002,-131.9721 389.5021,-131.944 389.4038,-131.9159"/>
<polygon fill="#191970" stroke="#191970" points="390.6175,-128.6253 380.035,-129.1365 388.6266,-135.3362 390.6175,-128.6253"/>
</g>
<!-- Node11&#45;&gt;Node3 -->
<g id="edge18" class="edge">
<title>Node11&#45;&gt;Node3</title>
<path fill="none" stroke="#191970" d="M620.7485,-174.1357C682.4413,-168.5761 779.2215,-156.21 805.6981,-132 818.4603,-120.3304 822.8603,-100.7002 824.2769,-85.8745"/>
<polygon fill="#191970" stroke="#191970" points="827.7829,-85.8711 824.8678,-75.6852 820.7947,-85.4658 827.7829,-85.8711"/>
</g>
<!-- Node12 -->
<g id="node13" class="node">
<title>Node12</title>
<polygon fill="none" stroke="#bfbfbf" points="853.1981,-112.5 853.1981,-131.5 946.1981,-131.5 946.1981,-112.5 853.1981,-112.5"/>
<text text-anchor="middle" x="899.6981" y="-119.5" font-family="Helvetica,sans-Serif" font-size="10.00" fill="#000000">unordered_map</text>
</g>
<!-- Node11&#45;&gt;Node12 -->
<g id="edge17" class="edge">
<title>Node11&#45;&gt;Node12</title>
<path fill="none" stroke="#191970" d="M621.0397,-169.0026C681.8978,-158.7374 781.0061,-142.0203 843.1649,-131.5357"/>
<polygon fill="#191970" stroke="#191970" points="843.911,-134.9594 853.1895,-129.8448 842.7466,-128.0569 843.911,-134.9594"/>
</g>
<!-- Node13 -->
<g id="node14" class="node">
<title>Node13</title>
<g id="a_node14"><a xlink:href="tileData_8hxx.html" target="_top" xlink:title="tileData.hxx">
<polygon fill="none" stroke="#000000" points="398.1981,-112.5 398.1981,-131.5 475.1981,-131.5 475.1981,-112.5 398.1981,-112.5"/>
<text text-anchor="middle" x="436.6981" y="-119.5" font-family="Helvetica,sans-Serif" font-size="10.00" fill="#000000">tileData.hxx</text>
</a>
</g>
</g>
<!-- Node11&#45;&gt;Node13 -->
<g id="edge19" class="edge">
<title>Node11&#45;&gt;Node13</title>
<path fill="none" stroke="#191970" d="M545.1784,-168.3733C523.9609,-159.3032 491.9705,-145.6279 468.2213,-135.4755"/>
<polygon fill="#191970" stroke="#191970" points="469.4948,-132.2136 458.924,-131.5011 466.7433,-138.6502 469.4948,-132.2136"/>
</g>
<!-- Node14 -->
<g id="node15" class="node">
<title>Node14</title>
<polygon fill="none" stroke="#bfbfbf" points="493.6981,-112.5 493.6981,-131.5 551.6981,-131.5 551.6981,-112.5 493.6981,-112.5"/>
<text text-anchor="middle" x="522.6981" y="-119.5" font-family="Helvetica,sans-Serif" font-size="10.00" fill="#000000">json.hxx</text>
</g>
<!-- Node11&#45;&gt;Node14 -->
<g id="edge23" class="edge">
<title>Node11&#45;&gt;Node14</title>
<path fill="none" stroke="#191970" d="M559.8597,-168.2455C553.5361,-160.3761 544.4757,-149.101 536.8846,-139.6542"/>
<polygon fill="#191970" stroke="#191970" points="539.439,-137.2454 530.4467,-131.6427 533.9824,-141.6302 539.439,-137.2454"/>
</g>
<!-- Node15 -->
<g id="node16" class="node">
<title>Node15</title>
<g id="a_node16"><a xlink:href="Singleton_8hxx.html" target="_top" xlink:title="Singleton.hxx">
<polygon fill="none" stroke="#000000" points="570.1981,-112.5 570.1981,-131.5 653.1981,-131.5 653.1981,-112.5 570.1981,-112.5"/>
<text text-anchor="middle" x="611.6981" y="-119.5" font-family="Helvetica,sans-Serif" font-size="10.00" fill="#000000">Singleton.hxx</text>
</a>
</g>
</g>
<!-- Node11&#45;&gt;Node15 -->
<g id="edge24" class="edge">
<title>Node11&#45;&gt;Node15</title>
<path fill="none" stroke="#191970" d="M575.3624,-168.2455C581.5455,-160.3761 590.4045,-149.101 597.827,-139.6542"/>
<polygon fill="#191970" stroke="#191970" points="600.6956,-141.6683 604.1218,-131.6427 595.1914,-137.3435 600.6956,-141.6683"/>
</g>
<!-- Node16 -->
<g id="node17" class="node">
<title>Node16</title>
<polygon fill="none" stroke="#bfbfbf" points="671.1981,-112.5 671.1981,-131.5 796.1981,-131.5 796.1981,-112.5 671.1981,-112.5"/>
<text text-anchor="middle" x="733.6981" y="-119.5" font-family="Helvetica,sans-Serif" font-size="10.00" fill="#000000">../common/enums.hxx</text>
</g>
<!-- Node11&#45;&gt;Node16 -->
<g id="edge25" class="edge">
<title>Node11&#45;&gt;Node16</title>
<path fill="none" stroke="#191970" d="M596.2346,-168.3733C623.7183,-159.1016 665.4667,-145.0178 695.7434,-134.804"/>
<polygon fill="#191970" stroke="#191970" points="697.1775,-138.0141 705.5341,-131.5011 694.9399,-131.3813 697.1775,-138.0141"/>
</g>
<!-- Node13&#45;&gt;Node3 -->
<g id="edge20" class="edge">
<title>Node13&#45;&gt;Node3</title>
<path fill="none" stroke="#191970" d="M475.4258,-113.6859C478.5578,-113.0885 481.6779,-112.5183 484.6981,-112 597.1243,-92.7086 731.6077,-76.5383 792.2363,-69.6148"/>
<polygon fill="#191970" stroke="#191970" points="792.7957,-73.0739 802.3375,-68.469 792.0067,-66.1185 792.7957,-73.0739"/>
</g>
<!-- Node13&#45;&gt;Node5 -->
<g id="edge21" class="edge">
<title>Node13&#45;&gt;Node5</title>
<path fill="none" stroke="#191970" d="M397.9608,-113.2994C361.4799,-104.9548 305.1037,-91.6735 247.1373,-76.0094"/>
<polygon fill="#191970" stroke="#191970" points="248.0129,-72.6204 237.4447,-73.3716 246.1747,-79.3748 248.0129,-72.6204"/>
</g>
<!-- Node13&#45;&gt;Node8 -->
<g id="edge22" class="edge">
<title>Node13&#45;&gt;Node8</title>
<path fill="none" stroke="#191970" d="M415.5537,-112.3733C395.809,-103.3838 366.1283,-89.8706 343.8927,-79.7471"/>
<polygon fill="#191970" stroke="#191970" points="345.1181,-76.4594 334.5667,-75.5011 342.2175,-82.8302 345.1181,-76.4594"/>
</g>
</g>
</svg>
