<?xml version="1.0" encoding="UTF-8" standalone="no"?>
<!DOCTYPE svg PUBLIC "-//W3C//DTD SVG 1.1//EN"
 "http://www.w3.org/Graphics/SVG/1.1/DTD/svg11.dtd">
<!-- Generated by graphviz version 2.40.1 (20161225.0304)
 -->
<!-- Title: src/engine/basics/point.hxx Pages: 1 -->
<!--zoomable 442 -->
<svg id="main" version="1.1" xmlns="http://www.w3.org/2000/svg" xmlns:xlink="http://www.w3.org/1999/xlink" xml:space="preserve" onload="init(evt)">
<style type="text/css"><![CDATA[
.edge:hover path { stroke: red; }
.edge:hover polygon { stroke: red; fill: red; }
]]></style>
<script type="text/javascript"><![CDATA[
var edges = document.getElementsByTagName('g');
if (edges && edges.length) {
  for (var i=0;i<edges.length;i++) {
    if (edges[i].id.substr(0,4)=='edge') {
      edges[i].setAttribute('class','edge');
    }
  }
}
]]></script>
        <defs>
                <circle id="rim" cx="0" cy="0" r="7"/>
                <circle id="rim2" cx="0" cy="0" r="3.5"/>
                <g id="zoomPlus">
                        <use xlink:href="#rim" fill="#404040">
                                <set attributeName="fill" to="#808080" begin="zoomplus.mouseover" end="zoomplus.mouseout"/>
                        </use>
                        <path d="M-4,0h8M0,-4v8" fill="none" stroke="white" stroke-width="1.5" pointer-events="none"/>
                </g>
                <g id="zoomMin">
                        <use xlink:href="#rim" fill="#404040">
                                <set attributeName="fill" to="#808080" begin="zoomminus.mouseover" end="zoomminus.mouseout"/>
                        </use>
                        <path d="M-4,0h8" fill="none" stroke="white" stroke-width="1.5" pointer-events="none"/>
                </g>
                <g id="dirArrow">
                        <path fill="none" stroke="white" stroke-width="1.5" d="M0,-3.0v7 M-2.5,-0.5L0,-3.0L2.5,-0.5"/>
                </g>
               <g id="resetDef">
                       <use xlink:href="#rim2" fill="#404040">
                               <set attributeName="fill" to="#808080" begin="reset.mouseover" end="reset.mouseout"/>
                       </use>
               </g>
        </defs>

<script type="text/javascript">
var viewWidth = 1782;
var viewHeight = 442;
var sectionId = 'dynsection-0';
</script>
<script xlink:href="svgpan.js"/>
<svg id="graph" class="graph">
<g id="viewport">
<title>src/engine/basics/point.hxx</title>
<!-- Node1 -->
<g id="node1" class="node">
<title>Node1</title>
<polygon fill="#bfbfbf" stroke="#000000" points="417.5,-414.5 417.5,-433.5 566.5,-433.5 566.5,-414.5 417.5,-414.5"/>
<text text-anchor="middle" x="492" y="-421.5" font-family="Helvetica,sans-Serif" font-size="10.00" fill="#000000">src/engine/basics/point.hxx</text>
</g>
<!-- Node2 -->
<g id="node2" class="node">
<title>Node2</title>
<g id="a_node2"><a xlink:href="Camera_8hxx.html" target="_top" xlink:title="src/engine/basics/Camera.hxx">
<polygon fill="none" stroke="#000000" points="441.5,-112.5 441.5,-131.5 604.5,-131.5 604.5,-112.5 441.5,-112.5"/>
<text text-anchor="middle" x="523" y="-119.5" font-family="Helvetica,sans-Serif" font-size="10.00" fill="#000000">src/engine/basics/Camera.hxx</text>
</a>
</g>
</g>
<!-- Node1&#45;&gt;Node2 -->
<g id="edge1" class="edge">
<title>Node1&#45;&gt;Node2</title>
<path fill="none" stroke="#191970" d="M492,-404.2236C492,-380.872 492,-340.8601 492,-306.5 492,-306.5 492,-306.5 492,-239.5 492,-198.1492 510.1716,-151.2405 518.6896,-131.5235"/>
<polygon fill="#191970" stroke="#191970" points="488.5001,-404.251 492,-414.2511 495.5001,-404.2511 488.5001,-404.251"/>
</g>
<!-- Node4 -->
<g id="node4" class="node">
<title>Node4</title>
<g id="a_node4"><a xlink:href="isoMath_8cxx.html" target="_top" xlink:title="src/engine/basics/isoMath.cxx">
<polygon fill="none" stroke="#000000" points="204,-56.5 204,-75.5 366,-75.5 366,-56.5 204,-56.5"/>
<text text-anchor="middle" x="285" y="-63.5" font-family="Helvetica,sans-Serif" font-size="10.00" fill="#000000">src/engine/basics/isoMath.cxx</text>
</a>
</g>
</g>
<!-- Node1&#45;&gt;Node4 -->
<g id="edge46" class="edge">
<title>Node1&#45;&gt;Node4</title>
<path fill="none" stroke="#191970" d="M441.2655,-412.0046C365.6031,-392.6179 232,-351.9504 232,-306.5 232,-306.5 232,-306.5 232,-178 232,-147.4754 237.4923,-139.3733 251,-112 257.7676,-98.2855 268.6968,-84.4249 276.3316,-75.5569"/>
<polygon fill="#191970" stroke="#191970" points="440.5363,-415.4303 451.089,-414.4856 442.2505,-408.6434 440.5363,-415.4303"/>
</g>
<!-- Node10 -->
<g id="node10" class="node">
<title>Node10</title>
<g id="a_node10"><a xlink:href="isoMath_8hxx.html" target="_top" xlink:title="src/engine/basics/isoMath.hxx">
<polygon fill="none" stroke="#000000" points="260.5,-112.5 260.5,-131.5 423.5,-131.5 423.5,-112.5 260.5,-112.5"/>
<text text-anchor="middle" x="342" y="-119.5" font-family="Helvetica,sans-Serif" font-size="10.00" fill="#000000">src/engine/basics/isoMath.hxx</text>
</a>
</g>
</g>
<!-- Node1&#45;&gt;Node10 -->
<g id="edge9" class="edge">
<title>Node1&#45;&gt;Node10</title>
<path fill="none" stroke="#191970" d="M472.1706,-407.5343C449.356,-386.6216 415,-348.2057 415,-306.5 415,-306.5 415,-306.5 415,-239.5 415,-193.3899 373.9375,-150.3512 353.4063,-131.7137"/>
<polygon fill="#191970" stroke="#191970" points="470.1563,-410.4249 479.9688,-414.4208 474.7898,-405.1779 470.1563,-410.4249"/>
</g>
<!-- Node11 -->
<g id="node11" class="node">
<title>Node11</title>
<g id="a_node11"><a xlink:href="Engine_8hxx.html" target="_top" xlink:title="src/engine/Engine.hxx">
<polygon fill="none" stroke="#000000" points="806,-112.5 806,-131.5 930,-131.5 930,-112.5 806,-112.5"/>
<text text-anchor="middle" x="868" y="-119.5" font-family="Helvetica,sans-Serif" font-size="10.00" fill="#000000">src/engine/Engine.hxx</text>
</a>
</g>
</g>
<!-- Node1&#45;&gt;Node11 -->
<g id="edge15" class="edge">
<title>Node1&#45;&gt;Node11</title>
<path fill="none" stroke="#191970" d="M576.7487,-420.7131C715.5298,-412.995 976,-387.694 976,-306.5 976,-306.5 976,-306.5 976,-239.5 976,-187.5488 918.0643,-148.6661 887.0596,-131.5774"/>
<polygon fill="#191970" stroke="#191970" points="576.3622,-417.2287 566.5643,-421.2601 576.7377,-424.2187 576.3622,-417.2287"/>
</g>
<!-- Node15 -->
<g id="node15" class="node">
<title>Node15</title>
<g id="a_node15"><a xlink:href="Sprite_8hxx.html" target="_top" xlink:title="src/engine/Sprite.hxx">
<polygon fill="none" stroke="#000000" points="75.5,-358.5 75.5,-377.5 194.5,-377.5 194.5,-358.5 75.5,-358.5"/>
<text text-anchor="middle" x="135" y="-365.5" font-family="Helvetica,sans-Serif" font-size="10.00" fill="#000000">src/engine/Sprite.hxx</text>
</a>
</g>
</g>
<!-- Node1&#45;&gt;Node15 -->
<g id="edge25" class="edge">
<title>Node1&#45;&gt;Node15</title>
<path fill="none" stroke="#191970" d="M421.0821,-412.8756C354.7731,-402.4742 256.8719,-387.1172 194.5245,-377.3372"/>
<polygon fill="#191970" stroke="#191970" points="420.6135,-416.3448 431.0351,-414.4369 421.6984,-409.4294 420.6135,-416.3448"/>
</g>
<!-- Node16 -->
<g id="node16" class="node">
<title>Node16</title>
<g id="a_node16"><a xlink:href="MapNode_8hxx.html" target="_top" xlink:title="src/engine/GameObjects\l/MapNode.hxx">
<polygon fill="none" stroke="#000000" points="578,-291.5 578,-321.5 714,-321.5 714,-291.5 578,-291.5"/>
<text text-anchor="start" x="586" y="-309.5" font-family="Helvetica,sans-Serif" font-size="10.00" fill="#000000">src/engine/GameObjects</text>
<text text-anchor="middle" x="646" y="-298.5" font-family="Helvetica,sans-Serif" font-size="10.00" fill="#000000">/MapNode.hxx</text>
</a>
</g>
</g>
<!-- Node1&#45;&gt;Node16 -->
<g id="edge45" class="edge">
<title>Node1&#45;&gt;Node16</title>
<path fill="none" stroke="#191970" d="M512.648,-408.2459C542.4336,-385.5198 597.0818,-343.824 626.3186,-321.5167"/>
<polygon fill="#191970" stroke="#191970" points="510.4296,-405.536 504.6025,-414.3845 514.6757,-411.1011 510.4296,-405.536"/>
</g>
<!-- Node19 -->
<g id="node19" class="node">
<title>Node19</title>
<g id="a_node19"><a xlink:href="JsonSerialization_8hxx.html" target="_top" xlink:title="src/engine/common/JsonSerialization.hxx">
<polygon fill="none" stroke="#000000" points="1038,-168.5 1038,-187.5 1256,-187.5 1256,-168.5 1038,-168.5"/>
<text text-anchor="middle" x="1147" y="-175.5" font-family="Helvetica,sans-Serif" font-size="10.00" fill="#000000">src/engine/common/JsonSerialization.hxx</text>
</a>
</g>
</g>
<!-- Node1&#45;&gt;Node19 -->
<g id="edge47" class="edge">
<title>Node1&#45;&gt;Node19</title>
<path fill="none" stroke="#191970" d="M576.8917,-419.814C709.5798,-412.7259 954.6768,-397.2371 990,-378 1073.7357,-332.3975 1127.9379,-221.3664 1142.8318,-187.7825"/>
<polygon fill="#191970" stroke="#191970" points="576.5568,-416.3267 566.7559,-420.3507 576.927,-423.3169 576.5568,-416.3267"/>
</g>
<!-- Node3 -->
<g id="node3" class="node">
<title>Node3</title>
<g id="a_node3"><a xlink:href="Camera_8cxx.html" target="_top" xlink:title="src/engine/basics/Camera.cxx">
<polygon fill="none" stroke="#000000" points="460,-56.5 460,-75.5 622,-75.5 622,-56.5 460,-56.5"/>
<text text-anchor="middle" x="541" y="-63.5" font-family="Helvetica,sans-Serif" font-size="10.00" fill="#000000">src/engine/basics/Camera.cxx</text>
</a>
</g>
</g>
<!-- Node2&#45;&gt;Node3 -->
<g id="edge2" class="edge">
<title>Node2&#45;&gt;Node3</title>
<path fill="none" stroke="#191970" d="M529.2827,-102.4538C532.1992,-93.3803 535.5358,-82.9998 537.9006,-75.6427"/>
<polygon fill="#191970" stroke="#191970" points="525.8634,-101.6542 526.1354,-112.2455 532.5276,-103.7963 525.8634,-101.6542"/>
</g>
<!-- Node2&#45;&gt;Node4 -->
<g id="edge3" class="edge">
<title>Node2&#45;&gt;Node4</title>
<path fill="none" stroke="#191970" d="M472.478,-110.1125C428.6588,-99.8021 366.0614,-85.0733 325.4756,-75.5237"/>
<polygon fill="#191970" stroke="#191970" points="471.8209,-113.5534 482.3568,-112.4369 473.4243,-106.7395 471.8209,-113.5534"/>
</g>
<!-- Node5 -->
<g id="node5" class="node">
<title>Node5</title>
<g id="a_node5"><a xlink:href="Engine_8cxx.html" target="_top" xlink:title="src/engine/Engine.cxx">
<polygon fill="none" stroke="#000000" points="806.5,-56.5 806.5,-75.5 929.5,-75.5 929.5,-56.5 806.5,-56.5"/>
<text text-anchor="middle" x="868" y="-63.5" font-family="Helvetica,sans-Serif" font-size="10.00" fill="#000000">src/engine/Engine.cxx</text>
</a>
</g>
</g>
<!-- Node2&#45;&gt;Node5 -->
<g id="edge4" class="edge">
<title>Node2&#45;&gt;Node5</title>
<path fill="none" stroke="#191970" d="M591.8673,-110.8215C655.5353,-100.487 749.1326,-85.2944 809.3274,-75.5237"/>
<polygon fill="#191970" stroke="#191970" points="591.2256,-107.3798 581.9156,-112.4369 592.3472,-114.2894 591.2256,-107.3798"/>
</g>
<!-- Node6 -->
<g id="node6" class="node">
<title>Node6</title>
<g id="a_node6"><a xlink:href="EventManager_8cxx.html" target="_top" xlink:title="src/engine/EventManager.cxx">
<polygon fill="none" stroke="#000000" points="314.5,-.5 314.5,-19.5 473.5,-19.5 473.5,-.5 314.5,-.5"/>
<text text-anchor="middle" x="394" y="-7.5" font-family="Helvetica,sans-Serif" font-size="10.00" fill="#000000">src/engine/EventManager.cxx</text>
</a>
</g>
</g>
<!-- Node2&#45;&gt;Node6 -->
<g id="edge5" class="edge">
<title>Node2&#45;&gt;Node6</title>
<path fill="none" stroke="#191970" d="M472.4646,-109.1632C453.2747,-102.1042 432.5582,-91.5232 418,-76 402.9872,-59.992 397.2209,-33.8659 395.1203,-19.7643"/>
<polygon fill="#191970" stroke="#191970" points="471.4286,-112.508 482.0233,-112.4463 473.7026,-105.8876 471.4286,-112.508"/>
</g>
<!-- Node7 -->
<g id="node7" class="node">
<title>Node7</title>
<g id="a_node7"><a xlink:href="Map_8cxx.html" target="_top" xlink:title="src/engine/Map.cxx">
<polygon fill="none" stroke="#000000" points="640,-56.5 640,-75.5 750,-75.5 750,-56.5 640,-56.5"/>
<text text-anchor="middle" x="695" y="-63.5" font-family="Helvetica,sans-Serif" font-size="10.00" fill="#000000">src/engine/Map.cxx</text>
</a>
</g>
</g>
<!-- Node2&#45;&gt;Node7 -->
<g id="edge6" class="edge">
<title>Node2&#45;&gt;Node7</title>
<path fill="none" stroke="#191970" d="M562.3435,-109.1905C593.8551,-98.9309 637.3519,-84.7691 665.818,-75.5011"/>
<polygon fill="#191970" stroke="#191970" points="560.993,-105.9493 552.5679,-112.3733 563.1601,-112.6054 560.993,-105.9493"/>
</g>
<!-- Node8 -->
<g id="node8" class="node">
<title>Node8</title>
<g id="a_node8"><a xlink:href="Sprite_8cxx.html" target="_top" xlink:title="src/engine/Sprite.cxx">
<polygon fill="none" stroke="#000000" points="66.5,-56.5 66.5,-75.5 185.5,-75.5 185.5,-56.5 66.5,-56.5"/>
<text text-anchor="middle" x="126" y="-63.5" font-family="Helvetica,sans-Serif" font-size="10.00" fill="#000000">src/engine/Sprite.cxx</text>
</a>
</g>
</g>
<!-- Node2&#45;&gt;Node8 -->
<g id="edge7" class="edge">
<title>Node2&#45;&gt;Node8</title>
<path fill="none" stroke="#191970" d="M444.5309,-111.0982C378.0739,-101.8406 280.2805,-88.1597 195,-76 192.0042,-75.5728 188.9355,-75.1338 185.8367,-74.6891"/>
<polygon fill="#191970" stroke="#191970" points="444.1246,-114.5754 454.5118,-112.4882 445.0902,-107.6423 444.1246,-114.5754"/>
</g>
<!-- Node9 -->
<g id="node9" class="node">
<title>Node9</title>
<g id="a_node9"><a xlink:href="Game_8cxx.html" target="_top" xlink:title="src/Game.cxx">
<polygon fill="none" stroke="#000000" points="1040.5,-.5 1040.5,-19.5 1123.5,-19.5 1123.5,-.5 1040.5,-.5"/>
<text text-anchor="middle" x="1082" y="-7.5" font-family="Helvetica,sans-Serif" font-size="10.00" fill="#000000">src/Game.cxx</text>
</a>
</g>
</g>
<!-- Node2&#45;&gt;Node9 -->
<g id="edge8" class="edge">
<title>Node2&#45;&gt;Node9</title>
<path fill="none" stroke="#191970" d="M489.6893,-108.1684C463.0955,-95.2434 433.0282,-75.1219 451,-56 495.22,-8.9502 966.9582,-28.2298 1031,-20 1034.0427,-19.609 1037.1768,-19.1455 1040.3243,-18.6355"/>
<polygon fill="#191970" stroke="#191970" points="488.3223,-111.3925 498.8666,-112.4265 491.2686,-105.0427 488.3223,-111.3925"/>
</g>
<!-- Node10&#45;&gt;Node3 -->
<g id="edge10" class="edge">
<title>Node10&#45;&gt;Node3</title>
<path fill="none" stroke="#191970" d="M386.1062,-109.5882C422.6677,-99.2996 473.8748,-84.8895 507.2371,-75.5011"/>
<polygon fill="#191970" stroke="#191970" points="384.8873,-106.2952 376.2093,-112.3733 386.7836,-113.0335 384.8873,-106.2952"/>
</g>
<!-- Node10&#45;&gt;Node4 -->
<g id="edge11" class="edge">
<title>Node10&#45;&gt;Node4</title>
<path fill="none" stroke="#191970" d="M324.7729,-105.0751C314.9659,-95.4402 303.036,-83.7196 294.8149,-75.6427"/>
<polygon fill="#191970" stroke="#191970" points="322.4851,-107.734 332.0714,-112.2455 327.3909,-102.7406 322.4851,-107.734"/>
</g>
<!-- Node10&#45;&gt;Node6 -->
<g id="edge12" class="edge">
<title>Node10&#45;&gt;Node6</title>
<path fill="none" stroke="#191970" d="M249.8582,-113.0807C171.4656,-104.5378 69.5946,-90.7904 57,-76 51.2371,-69.2323 51.1551,-62.697 57,-56 73.6961,-36.87 220.084,-22.6808 314.3535,-15.4288"/>
<polygon fill="#191970" stroke="#191970" points="249.9481,-116.6105 260.265,-114.1995 250.6964,-109.6506 249.9481,-116.6105"/>
</g>
<!-- Node10&#45;&gt;Node7 -->
<g id="edge13" class="edge">
<title>Node10&#45;&gt;Node7</title>
<path fill="none" stroke="#191970" d="M412.3211,-110.8443C479.2348,-100.229 578.5525,-84.4733 639.904,-74.7404"/>
<polygon fill="#191970" stroke="#191970" points="411.6099,-107.4132 402.2818,-112.4369 412.7067,-114.3268 411.6099,-107.4132"/>
</g>
<!-- Node10&#45;&gt;Node8 -->
<g id="edge14" class="edge">
<title>Node10&#45;&gt;Node8</title>
<path fill="none" stroke="#191970" d="M295.14,-109.8511C255.3927,-99.5462 199.169,-84.9697 162.6472,-75.5011"/>
<polygon fill="#191970" stroke="#191970" points="294.3099,-113.2516 304.8683,-112.3733 296.0667,-106.4756 294.3099,-113.2516"/>
</g>
<!-- Node11&#45;&gt;Node3 -->
<g id="edge16" class="edge">
<title>Node11&#45;&gt;Node3</title>
<path fill="none" stroke="#191970" d="M801.9794,-110.6937C741.6499,-100.3621 653.4308,-85.2542 596.6114,-75.5237"/>
<polygon fill="#191970" stroke="#191970" points="801.7109,-114.1986 812.1582,-112.4369 802.8926,-107.2991 801.7109,-114.1986"/>
</g>
<!-- Node11&#45;&gt;Node4 -->
<g id="edge17" class="edge">
<title>Node11&#45;&gt;Node4</title>
<path fill="none" stroke="#191970" d="M795.6259,-115.0481C686.4196,-104.5583 480.1819,-84.7482 366.0675,-73.7869"/>
<polygon fill="#191970" stroke="#191970" points="795.5961,-118.5613 805.885,-116.0336 796.2655,-111.5934 795.5961,-118.5613"/>
</g>
<!-- Node11&#45;&gt;Node5 -->
<g id="edge22" class="edge">
<title>Node11&#45;&gt;Node5</title>
<path fill="none" stroke="#191970" d="M868,-102.1575C868,-93.155 868,-82.9199 868,-75.6427"/>
<polygon fill="#191970" stroke="#191970" points="864.5001,-102.2455 868,-112.2455 871.5001,-102.2456 864.5001,-102.2455"/>
</g>
<!-- Node11&#45;&gt;Node9 -->
<g id="edge24" class="edge">
<title>Node11&#45;&gt;Node9</title>
<path fill="none" stroke="#191970" d="M940.0215,-110.9903C1011.5014,-99.7167 1111.2594,-82.8983 1117,-76 1131.7674,-58.2546 1109.0778,-33.2781 1093.8804,-19.7054"/>
<polygon fill="#191970" stroke="#191970" points="939.4717,-107.5337 930.1358,-112.5427 940.5577,-114.4489 939.4717,-107.5337"/>
</g>
<!-- Node12 -->
<g id="node12" class="node">
<title>Node12</title>
<g id="a_node12"><a xlink:href="EventManager_8hxx.html" target="_top" xlink:title="src/engine/EventManager.hxx">
<polygon fill="none" stroke="#000000" points="948,-56.5 948,-75.5 1108,-75.5 1108,-56.5 948,-56.5"/>
<text text-anchor="middle" x="1028" y="-63.5" font-family="Helvetica,sans-Serif" font-size="10.00" fill="#000000">src/engine/EventManager.hxx</text>
</a>
</g>
</g>
<!-- Node11&#45;&gt;Node12 -->
<g id="edge18" class="edge">
<title>Node11&#45;&gt;Node12</title>
<path fill="none" stroke="#191970" d="M904.9799,-109.057C934.2618,-98.8084 974.4885,-84.729 1000.8539,-75.5011"/>
<polygon fill="#191970" stroke="#191970" points="903.7873,-105.7662 895.505,-112.3733 906.0998,-112.3732 903.7873,-105.7662"/>
</g>
<!-- Node14 -->
<g id="node14" class="node">
<title>Node14</title>
<g id="a_node14"><a xlink:href="UIManager_8cxx.html" target="_top" xlink:title="src/engine/UIManager.cxx">
<polygon fill="none" stroke="#000000" points="1164,-56.5 1164,-75.5 1306,-75.5 1306,-56.5 1164,-56.5"/>
<text text-anchor="middle" x="1235" y="-63.5" font-family="Helvetica,sans-Serif" font-size="10.00" fill="#000000">src/engine/UIManager.cxx</text>
</a>
</g>
</g>
<!-- Node11&#45;&gt;Node14 -->
<g id="edge23" class="edge">
<title>Node11&#45;&gt;Node14</title>
<path fill="none" stroke="#191970" d="M940.4164,-110.9501C1008.1071,-100.6213 1108.1332,-85.3584 1172.438,-75.5462"/>
<polygon fill="#191970" stroke="#191970" points="939.6141,-107.5319 930.2565,-112.5004 940.6701,-114.4518 939.6141,-107.5319"/>
</g>
<!-- Node12&#45;&gt;Node6 -->
<g id="edge20" class="edge">
<title>Node12&#45;&gt;Node6</title>
<path fill="none" stroke="#191970" d="M937.9912,-55.9231C766.5208,-39.169 578.2018,-24.0987 473.9453,-16.0511"/>
<polygon fill="#191970" stroke="#191970" points="937.6635,-59.4076 947.9575,-56.9006 938.3469,-52.4411 937.6635,-59.4076"/>
</g>
<!-- Node12&#45;&gt;Node9 -->
<g id="edge21" class="edge">
<title>Node12&#45;&gt;Node9</title>
<path fill="none" stroke="#191970" d="M1044.5969,-48.7884C1053.8347,-39.2085 1064.9904,-27.6396 1072.7017,-19.6427"/>
<polygon fill="#191970" stroke="#191970" points="1041.828,-46.6176 1037.4061,-56.2455 1046.8669,-51.4766 1041.828,-46.6176"/>
</g>
<!-- Node13 -->
<g id="node13" class="node">
<title>Node13</title>
<g id="a_node13"><a xlink:href="Timer_8cxx.html" target="_top" xlink:title="src/engine/basics/Timer.cxx">
<polygon fill="none" stroke="#000000" points="870,-.5 870,-19.5 1022,-19.5 1022,-.5 870,-.5"/>
<text text-anchor="middle" x="946" y="-7.5" font-family="Helvetica,sans-Serif" font-size="10.00" fill="#000000">src/engine/basics/Timer.cxx</text>
</a>
</g>
</g>
<!-- Node12&#45;&gt;Node13 -->
<g id="edge19" class="edge">
<title>Node12&#45;&gt;Node13</title>
<path fill="none" stroke="#191970" d="M1005.289,-50.49C990.8212,-40.6096 972.532,-28.1194 960.1196,-19.6427"/>
<polygon fill="#191970" stroke="#191970" points="1003.4848,-53.4962 1013.7167,-56.2455 1007.4325,-47.7156 1003.4848,-53.4962"/>
</g>
<!-- Node15&#45;&gt;Node6 -->
<g id="edge43" class="edge">
<title>Node15&#45;&gt;Node6</title>
<path fill="none" stroke="#191970" d="M102.3526,-354.2391C62.4002,-334.9534 0,-295.8173 0,-239.5 0,-239.5 0,-239.5 0,-122 0,-85.4662 17.522,-74.5433 49,-56 92.6034,-30.3138 226.8437,-18.5476 314.4472,-13.4822"/>
<polygon fill="#191970" stroke="#191970" points="100.9421,-357.4432 111.4848,-358.4933 103.8981,-351.0979 100.9421,-357.4432"/>
</g>
<!-- Node15&#45;&gt;Node8 -->
<g id="edge44" class="edge">
<title>Node15&#45;&gt;Node8</title>
<path fill="none" stroke="#191970" d="M133.753,-348.2281C132.2721,-323.0045 130,-278.0279 130,-239.5 130,-239.5 130,-239.5 130,-178 130,-140.0592 127.6791,-94.9347 126.5731,-75.5843"/>
<polygon fill="#191970" stroke="#191970" points="130.2668,-348.5637 134.3667,-358.3331 137.254,-348.1393 130.2668,-348.5637"/>
</g>
<!-- Node15&#45;&gt;Node16 -->
<g id="edge26" class="edge">
<title>Node15&#45;&gt;Node16</title>
<path fill="none" stroke="#191970" d="M204.7309,-359.6077C302.8655,-347.797 480.5755,-326.4092 577.848,-314.7022"/>
<polygon fill="#191970" stroke="#191970" points="204.1284,-356.1549 194.6183,-360.8248 204.9649,-363.1047 204.1284,-356.1549"/>
</g>
<!-- Node17 -->
<g id="node17" class="node">
<title>Node17</title>
<g id="a_node17"><a xlink:href="Map_8hxx.html" target="_top" xlink:title="src/engine/Map.hxx">
<polygon fill="none" stroke="#000000" points="724.5,-168.5 724.5,-187.5 835.5,-187.5 835.5,-168.5 724.5,-168.5"/>
<text text-anchor="middle" x="780" y="-175.5" font-family="Helvetica,sans-Serif" font-size="10.00" fill="#000000">src/engine/Map.hxx</text>
</a>
</g>
</g>
<!-- Node16&#45;&gt;Node17 -->
<g id="edge27" class="edge">
<title>Node16&#45;&gt;Node17</title>
<path fill="none" stroke="#191970" d="M659.3191,-282.3052C669.8382,-264.6923 685.7526,-241.0388 704,-224 720.5709,-208.5267 743.1704,-195.6561 759.4112,-187.5011"/>
<polygon fill="#191970" stroke="#191970" points="656.0404,-280.9822 654.0498,-291.3884 662.0953,-284.4949 656.0404,-280.9822"/>
</g>
<!-- Node18 -->
<g id="node18" class="node">
<title>Node18</title>
<g id="a_node18"><a xlink:href="TerrainGenerator_8hxx.html" target="_top" xlink:title="src/engine/map/TerrainGenerator.hxx">
<polygon fill="none" stroke="#000000" points="712.5,-230 712.5,-249 909.5,-249 909.5,-230 712.5,-230"/>
<text text-anchor="middle" x="811" y="-237" font-family="Helvetica,sans-Serif" font-size="10.00" fill="#000000">src/engine/map/TerrainGenerator.hxx</text>
</a>
</g>
</g>
<!-- Node16&#45;&gt;Node18 -->
<g id="edge32" class="edge">
<title>Node16&#45;&gt;Node18</title>
<path fill="none" stroke="#191970" d="M692.3308,-287.6869C723.26,-275.1278 762.6455,-259.1349 787.3486,-249.1039"/>
<polygon fill="#191970" stroke="#191970" points="690.9777,-284.4587 683.0292,-291.4639 693.6113,-290.9444 690.9777,-284.4587"/>
</g>
<!-- Node16&#45;&gt;Node19 -->
<g id="edge41" class="edge">
<title>Node16&#45;&gt;Node19</title>
<path fill="none" stroke="#191970" d="M724.1967,-294.7198C779.133,-285.7227 854.1006,-271.992 919,-255 994.3784,-235.2643 1080.9357,-203.4176 1122.3779,-187.5803"/>
<polygon fill="#191970" stroke="#191970" points="723.4897,-291.2887 714.179,-296.3444 724.6103,-298.1984 723.4897,-291.2887"/>
</g>
<!-- Node24 -->
<g id="node24" class="node">
<title>Node24</title>
<g id="a_node24"><a xlink:href="MapNode_8cxx.html" target="_top" xlink:title="src/engine/GameObjects\l/MapNode.cxx">
<polygon fill="none" stroke="#000000" points="520,-224.5 520,-254.5 656,-254.5 656,-224.5 520,-224.5"/>
<text text-anchor="start" x="528" y="-242.5" font-family="Helvetica,sans-Serif" font-size="10.00" fill="#000000">src/engine/GameObjects</text>
<text text-anchor="middle" x="588" y="-231.5" font-family="Helvetica,sans-Serif" font-size="10.00" fill="#000000">/MapNode.cxx</text>
</a>
</g>
</g>
<!-- Node16&#45;&gt;Node24 -->
<g id="edge42" class="edge">
<title>Node16&#45;&gt;Node24</title>
<path fill="none" stroke="#191970" d="M626.2094,-283.6385C617.9222,-274.0653 608.5153,-263.1987 601.109,-254.6432"/>
<polygon fill="#191970" stroke="#191970" points="623.6476,-286.0268 632.8389,-291.2967 628.9401,-281.4453 623.6476,-286.0268"/>
</g>
<!-- Node17&#45;&gt;Node6 -->
<g id="edge29" class="edge">
<title>Node17&#45;&gt;Node6</title>
<path fill="none" stroke="#191970" d="M783.0598,-158.1141C786.0069,-130.8855 786.5957,-82.3785 759,-56 738.7433,-36.6368 574.7197,-22.2035 473.5673,-15.041"/>
<polygon fill="#191970" stroke="#191970" points="779.5471,-157.9862 781.7277,-168.3542 786.4886,-158.8893 779.5471,-157.9862"/>
</g>
<!-- Node17&#45;&gt;Node7 -->
<g id="edge30" class="edge">
<title>Node17&#45;&gt;Node7</title>
<path fill="none" stroke="#191970" d="M766.4995,-160.2111C748.2759,-136.1989 716.4533,-94.2679 702.2287,-75.5249"/>
<polygon fill="#191970" stroke="#191970" points="763.9195,-162.6011 772.7529,-168.4509 769.4955,-158.3693 763.9195,-162.6011"/>
</g>
<!-- Node17&#45;&gt;Node11 -->
<g id="edge28" class="edge">
<title>Node17&#45;&gt;Node11</title>
<path fill="none" stroke="#191970" d="M803.9345,-162.769C819.5283,-152.8456 839.401,-140.1994 852.8472,-131.6427"/>
<polygon fill="#191970" stroke="#191970" points="801.886,-159.9239 795.3284,-168.2455 805.6441,-165.8296 801.886,-159.9239"/>
</g>
<!-- Node17&#45;&gt;Node14 -->
<g id="edge31" class="edge">
<title>Node17&#45;&gt;Node14</title>
<path fill="none" stroke="#191970" d="M831.5215,-165.9256C863.0856,-157.8372 904.0061,-146.1008 939,-132 956.7021,-124.8669 958.9474,-118.1927 977,-112 1038.3267,-90.9626 1111.3205,-79.0927 1163.9907,-72.7027"/>
<polygon fill="#191970" stroke="#191970" points="830.4623,-162.5831 821.6215,-168.4219 832.1738,-169.3706 830.4623,-162.5831"/>
</g>
<!-- Node18&#45;&gt;Node17 -->
<g id="edge33" class="edge">
<title>Node18&#45;&gt;Node17</title>
<path fill="none" stroke="#191970" d="M801.5503,-220.753C796.0598,-209.8606 789.3679,-196.5846 784.912,-187.7449"/>
<polygon fill="#191970" stroke="#191970" points="798.5296,-222.5363 806.1563,-229.8906 804.7804,-219.3855 798.5296,-222.5363"/>
</g>
<!-- Node18&#45;&gt;Node19 -->
<g id="edge34" class="edge">
<title>Node18&#45;&gt;Node19</title>
<path fill="none" stroke="#191970" d="M873.0673,-228.1395C936.8886,-216.4579 1035.1621,-198.4703 1095.0228,-187.5137"/>
<polygon fill="#191970" stroke="#191970" points="872.3377,-224.7148 863.1313,-229.9581 873.5981,-231.6004 872.3377,-224.7148"/>
</g>
<!-- Node21 -->
<g id="node21" class="node">
<title>Node21</title>
<g id="a_node21"><a xlink:href="TerrainGenerator_8cxx.html" target="_top" xlink:title="src/engine/map/TerrainGenerator.cxx">
<polygon fill="none" stroke="#000000" points="986,-112.5 986,-131.5 1182,-131.5 1182,-112.5 986,-112.5"/>
<text text-anchor="middle" x="1084" y="-119.5" font-family="Helvetica,sans-Serif" font-size="10.00" fill="#000000">src/engine/map/TerrainGenerator.cxx</text>
</a>
</g>
</g>
<!-- Node18&#45;&gt;Node21 -->
<g id="edge40" class="edge">
<title>Node18&#45;&gt;Node21</title>
<path fill="none" stroke="#191970" d="M842.7511,-225.8342C898.6749,-201.7645 1013.3882,-152.3915 1061.7334,-131.5836"/>
<polygon fill="#191970" stroke="#191970" points="841.1424,-222.7161 833.3407,-229.8845 843.9098,-229.1459 841.1424,-222.7161"/>
</g>
<!-- Node19&#45;&gt;Node7 -->
<g id="edge37" class="edge">
<title>Node19&#45;&gt;Node7</title>
<path fill="none" stroke="#191970" d="M1169.5447,-162.0947C1186.72,-148.09 1205.2,-127.5602 1191,-112 1161.4418,-79.6104 841.6556,-80.1187 798,-76 782.4387,-74.5319 765.5583,-72.9067 750.0527,-71.4007"/>
<polygon fill="#191970" stroke="#191970" points="1167.1524,-159.5194 1161.3669,-168.3952 1171.4247,-165.0646 1167.1524,-159.5194"/>
</g>
<!-- Node20 -->
<g id="node20" class="node">
<title>Node20</title>
<g id="a_node20"><a xlink:href="Settings_8cxx.html" target="_top" xlink:title="src/engine/basics/Settings.cxx">
<polygon fill="none" stroke="#000000" points="1610,-112.5 1610,-131.5 1774,-131.5 1774,-112.5 1610,-112.5"/>
<text text-anchor="middle" x="1692" y="-119.5" font-family="Helvetica,sans-Serif" font-size="10.00" fill="#000000">src/engine/basics/Settings.cxx</text>
</a>
</g>
</g>
<!-- Node19&#45;&gt;Node20 -->
<g id="edge35" class="edge">
<title>Node19&#45;&gt;Node20</title>
<path fill="none" stroke="#191970" d="M1253.2775,-167.4886C1345.3017,-158.3256 1481.9669,-144.5704 1601,-132 1603.845,-131.6996 1606.7399,-131.3919 1609.6635,-131.0796"/>
<polygon fill="#191970" stroke="#191970" points="1252.724,-164.0263 1243.1197,-168.4995 1253.4172,-170.9919 1252.724,-164.0263"/>
</g>
<!-- Node19&#45;&gt;Node21 -->
<g id="edge36" class="edge">
<title>Node19&#45;&gt;Node21</title>
<path fill="none" stroke="#191970" d="M1128.2808,-161.3607C1117.3818,-151.6727 1104.0245,-139.7995 1094.848,-131.6427"/>
<polygon fill="#191970" stroke="#191970" points="1126.2268,-164.2178 1136.0262,-168.2455 1130.8774,-158.9859 1126.2268,-164.2178"/>
</g>
<!-- Node22 -->
<g id="node22" class="node">
<title>Node22</title>
<g id="a_node22"><a xlink:href="AudioMixer_8cxx.html" target="_top" xlink:title="src/services/AudioMixer.cxx">
<polygon fill="none" stroke="#000000" points="1238,-112.5 1238,-131.5 1390,-131.5 1390,-112.5 1238,-112.5"/>
<text text-anchor="middle" x="1314" y="-119.5" font-family="Helvetica,sans-Serif" font-size="10.00" fill="#000000">src/services/AudioMixer.cxx</text>
</a>
</g>
</g>
<!-- Node19&#45;&gt;Node22 -->
<g id="edge38" class="edge">
<title>Node19&#45;&gt;Node22</title>
<path fill="none" stroke="#191970" d="M1185.1998,-165.1905C1215.7954,-154.9309 1258.0278,-140.7691 1285.6663,-131.5011"/>
<polygon fill="#191970" stroke="#191970" points="1184.0767,-161.8755 1175.7083,-168.3733 1186.3022,-168.5123 1184.0767,-161.8755"/>
</g>
<!-- Node23 -->
<g id="node23" class="node">
<title>Node23</title>
<g id="a_node23"><a xlink:href="ResourceManager_8cxx.html" target="_top" xlink:title="src/services/ResourceManager.cxx">
<polygon fill="none" stroke="#000000" points="1408.5,-112.5 1408.5,-131.5 1591.5,-131.5 1591.5,-112.5 1408.5,-112.5"/>
<text text-anchor="middle" x="1500" y="-119.5" font-family="Helvetica,sans-Serif" font-size="10.00" fill="#000000">src/services/ResourceManager.cxx</text>
</a>
</g>
</g>
<!-- Node19&#45;&gt;Node23 -->
<g id="edge39" class="edge">
<title>Node19&#45;&gt;Node23</title>
<path fill="none" stroke="#191970" d="M1217.4642,-166.8215C1282.6086,-156.487 1378.3762,-141.2944 1439.9669,-131.5237"/>
<polygon fill="#191970" stroke="#191970" points="1216.6099,-163.4132 1207.2818,-168.4369 1217.7067,-170.3268 1216.6099,-163.4132"/>
</g>
</g>
</svg>
        <g id="navigator" transform="translate(0 0)" fill="#404254">
                <rect fill="#f2f5e9" fill-opacity="0.5" stroke="#606060" stroke-width=".5" x="0" y="0" width="60" height="60"/>
                <use id="zoomplus" xlink:href="#zoomPlus" x="17" y="9" onmousedown="handleZoom(evt,'in')"/>
                <use id="zoomminus" xlink:href="#zoomMin" x="42" y="9" onmousedown="handleZoom(evt,'out')"/>
                <use id="reset" xlink:href="#resetDef" x="30" y="36" onmousedown="handleReset()"/>
                <g id="arrowUp" xlink:href="#dirArrow" transform="translate(30 24)" onmousedown="handlePan(0,-1)">
                  <use xlink:href="#rim" fill="#404040">
                        <set attributeName="fill" to="#808080" begin="arrowUp.mouseover" end="arrowUp.mouseout"/>
                  </use>
                  <path fill="none" stroke="white" stroke-width="1.5" d="M0,-3.0v7 M-2.5,-0.5L0,-3.0L2.5,-0.5"/>
                </g>
                <g id="arrowRight" xlink:href="#dirArrow" transform="rotate(90) translate(36 -43)" onmousedown="handlePan(1,0)">
                  <use xlink:href="#rim" fill="#404040">
                        <set attributeName="fill" to="#808080" begin="arrowRight.mouseover" end="arrowRight.mouseout"/>
                  </use>
                  <path fill="none" stroke="white" stroke-width="1.5" d="M0,-3.0v7 M-2.5,-0.5L0,-3.0L2.5,-0.5"/>
                </g>
                <g id="arrowDown" xlink:href="#dirArrow" transform="rotate(180) translate(-30 -48)" onmousedown="handlePan(0,1)">
                  <use xlink:href="#rim" fill="#404040">
                        <set attributeName="fill" to="#808080" begin="arrowDown.mouseover" end="arrowDown.mouseout"/>
                  </use>
                  <path fill="none" stroke="white" stroke-width="1.5" d="M0,-3.0v7 M-2.5,-0.5L0,-3.0L2.5,-0.5"/>
                </g>
                <g id="arrowLeft" xlink:href="#dirArrow" transform="rotate(270) translate(-36 17)" onmousedown="handlePan(-1,0)">
                  <use xlink:href="#rim" fill="#404040">
                        <set attributeName="fill" to="#808080" begin="arrowLeft.mouseover" end="arrowLeft.mouseout"/>
                  </use>
                  <path fill="none" stroke="white" stroke-width="1.5" d="M0,-3.0v7 M-2.5,-0.5L0,-3.0L2.5,-0.5"/>
                </g>
        </g>
        <svg viewBox="0 0 15 15" width="100%" height="30px" preserveAspectRatio="xMaxYMin meet">
         <g id="arrow_out" transform="scale(0.3 0.3)">
          <a xlink:href="point_8hxx__dep__incl_org.svg" target="_base">
           <rect id="button" ry="5" rx="5" y="6" x="6" height="38" width="38"
                fill="#f2f5e9" fill-opacity="0.5" stroke="#606060" stroke-width="1.0"/>
           <path id="arrow"
             d="M 11.500037,31.436501 C 11.940474,20.09759 22.043105,11.32322 32.158766,21.979434 L 37.068811,17.246167 C 37.068811,17.246167 37.088388,32 37.088388,32 L 22.160133,31.978069 C 22.160133,31.978069 26.997745,27.140456 26.997745,27.140456 C 18.528582,18.264221 13.291696,25.230495 11.500037,31.436501 z"
             style="fill:#404040;"/>
          </a>
         </g>
        </svg>
</svg>
