<?xml version="1.0" encoding="UTF-8" standalone="no"?>
<!DOCTYPE svg PUBLIC "-//W3C//DTD SVG 1.1//EN"
 "http://www.w3.org/Graphics/SVG/1.1/DTD/svg11.dtd">
<!-- Generated by graphviz version 2.40.1 (20161225.0304)
 -->
<!-- Title: src/services/Randomizer.hxx Pages: 1 -->
<svg width="484pt" height="140pt"
 viewBox="0.00 0.00 484.00 140.00" xmlns="http://www.w3.org/2000/svg" xmlns:xlink="http://www.w3.org/1999/xlink">
<g id="graph0" class="graph" transform="scale(1 1) rotate(0) translate(4 136)">
<title>src/services/Randomizer.hxx</title>
<!-- Node28 -->
<g id="node1" class="node">
<title>Node28</title>
<polygon fill="#bfbfbf" stroke="#000000" points="148.5,-112.5 148.5,-131.5 304.5,-131.5 304.5,-112.5 148.5,-112.5"/>
<text text-anchor="middle" x="226.5" y="-119.5" font-family="Helvetica,sans-Serif" font-size="10.00" fill="#000000">src/services/Randomizer.hxx</text>
</g>
<!-- Node29 -->
<g id="node2" class="node">
<title>Node29</title>
<g id="a_node2"><a xlink:href="Game_8hxx.html" target="_top" xlink:title="src/Game.hxx">
<polygon fill="none" stroke="#000000" points="48.5,-56.5 48.5,-75.5 132.5,-75.5 132.5,-56.5 48.5,-56.5"/>
<text text-anchor="middle" x="90.5" y="-63.5" font-family="Helvetica,sans-Serif" font-size="10.00" fill="#000000">src/Game.hxx</text>
</a>
</g>
</g>
<!-- Node28&#45;&gt;Node29 -->
<g id="edge1" class="edge">
<title>Node28&#45;&gt;Node29</title>
<path fill="none" stroke="#191970" d="M193.7601,-108.5189C168.9917,-98.3201 135.595,-84.5685 113.5742,-75.5011"/>
<polygon fill="#191970" stroke="#191970" points="192.5413,-111.8021 203.1208,-112.3733 195.2066,-105.3293 192.5413,-111.8021"/>
</g>
<!-- Node32 -->
<g id="node5" class="node">
<title>Node32</title>
<g id="a_node5"><a xlink:href="AudioMixer_8cxx.html" target="_top" xlink:title="src/services/AudioMixer.cxx">
<polygon fill="none" stroke="#000000" points="150.5,-56.5 150.5,-75.5 302.5,-75.5 302.5,-56.5 150.5,-56.5"/>
<text text-anchor="middle" x="226.5" y="-63.5" font-family="Helvetica,sans-Serif" font-size="10.00" fill="#000000">src/services/AudioMixer.cxx</text>
</a>
</g>
</g>
<!-- Node28&#45;&gt;Node32 -->
<g id="edge4" class="edge">
<title>Node28&#45;&gt;Node32</title>
<path fill="none" stroke="#191970" d="M226.5,-102.1575C226.5,-93.155 226.5,-82.9199 226.5,-75.6427"/>
<polygon fill="#191970" stroke="#191970" points="223.0001,-102.2455 226.5,-112.2455 230.0001,-102.2456 223.0001,-102.2455"/>
</g>
<!-- Node33 -->
<g id="node6" class="node">
<title>Node33</title>
<g id="a_node6"><a xlink:href="Randomizer_8cxx.html" target="_top" xlink:title="src/services/Randomizer.cxx">
<polygon fill="none" stroke="#000000" points="321,-56.5 321,-75.5 476,-75.5 476,-56.5 321,-56.5"/>
<text text-anchor="middle" x="398.5" y="-63.5" font-family="Helvetica,sans-Serif" font-size="10.00" fill="#000000">src/services/Randomizer.cxx</text>
</a>
</g>
</g>
<!-- Node28&#45;&gt;Node33 -->
<g id="edge5" class="edge">
<title>Node28&#45;&gt;Node33</title>
<path fill="none" stroke="#191970" d="M265.8435,-109.1905C297.3551,-98.9309 340.8519,-84.7691 369.318,-75.5011"/>
<polygon fill="#191970" stroke="#191970" points="264.493,-105.9493 256.0679,-112.3733 266.6601,-112.6054 264.493,-105.9493"/>
</g>
<!-- Node30 -->
<g id="node3" class="node">
<title>Node30</title>
<g id="a_node3"><a xlink:href="Game_8cxx.html" target="_top" xlink:title="src/Game.cxx">
<polygon fill="none" stroke="#000000" points="0,-.5 0,-19.5 83,-19.5 83,-.5 0,-.5"/>
<text text-anchor="middle" x="41.5" y="-7.5" font-family="Helvetica,sans-Serif" font-size="10.00" fill="#000000">src/Game.cxx</text>
</a>
</g>
</g>
<!-- Node29&#45;&gt;Node30 -->
<g id="edge2" class="edge">
<title>Node29&#45;&gt;Node30</title>
<path fill="none" stroke="#191970" d="M75.1878,-48.5004C66.8553,-38.9775 56.8647,-27.5596 49.9373,-19.6427"/>
<polygon fill="#191970" stroke="#191970" points="72.7457,-51.0245 81.9649,-56.2455 78.0138,-46.415 72.7457,-51.0245"/>
</g>
<!-- Node31 -->
<g id="node4" class="node">
<title>Node31</title>
<g id="a_node4"><a xlink:href="main_8cxx.html" target="_top" xlink:title="src/main.cxx">
<polygon fill="none" stroke="#000000" points="101,-.5 101,-19.5 180,-19.5 180,-.5 101,-.5"/>
<text text-anchor="middle" x="140.5" y="-7.5" font-family="Helvetica,sans-Serif" font-size="10.00" fill="#000000">src/main.cxx</text>
</a>
</g>
</g>
<!-- Node29&#45;&gt;Node31 -->
<g id="edge3" class="edge">
<title>Node29&#45;&gt;Node31</title>
<path fill="none" stroke="#191970" d="M106.1247,-48.5004C114.6273,-38.9775 124.8218,-27.5596 131.8905,-19.6427"/>
<polygon fill="#191970" stroke="#191970" points="103.2587,-46.4551 99.2093,-56.2455 108.4803,-51.1172 103.2587,-46.4551"/>
</g>
</g>
</svg>
