<?xml version="1.0" encoding="UTF-8" standalone="no"?>
<!DOCTYPE svg PUBLIC "-//W3C//DTD SVG 1.1//EN"
 "http://www.w3.org/Graphics/SVG/1.1/DTD/svg11.dtd">
<!-- Generated by graphviz version 2.40.1 (20161225.0304)
 -->
<!-- Title: src/services/Randomizer.cxx Pages: 1 -->
<!--zoomable 308 -->
<svg id="main" version="1.1" xmlns="http://www.w3.org/2000/svg" xmlns:xlink="http://www.w3.org/1999/xlink" xml:space="preserve" onload="init(evt)">
<style type="text/css"><![CDATA[
.edge:hover path { stroke: red; }
.edge:hover polygon { stroke: red; fill: red; }
]]></style>
<script type="text/javascript"><![CDATA[
var edges = document.getElementsByTagName('g');
if (edges && edges.length) {
  for (var i=0;i<edges.length;i++) {
    if (edges[i].id.substr(0,4)=='edge') {
      edges[i].setAttribute('class','edge');
    }
  }
}
]]></script>
        <defs>
                <circle id="rim" cx="0" cy="0" r="7"/>
                <circle id="rim2" cx="0" cy="0" r="3.5"/>
                <g id="zoomPlus">
                        <use xlink:href="#rim" fill="#404040">
                                <set attributeName="fill" to="#808080" begin="zoomplus.mouseover" end="zoomplus.mouseout"/>
                        </use>
                        <path d="M-4,0h8M0,-4v8" fill="none" stroke="white" stroke-width="1.5" pointer-events="none"/>
                </g>
                <g id="zoomMin">
                        <use xlink:href="#rim" fill="#404040">
                                <set attributeName="fill" to="#808080" begin="zoomminus.mouseover" end="zoomminus.mouseout"/>
                        </use>
                        <path d="M-4,0h8" fill="none" stroke="white" stroke-width="1.5" pointer-events="none"/>
                </g>
                <g id="dirArrow">
                        <path fill="none" stroke="white" stroke-width="1.5" d="M0,-3.0v7 M-2.5,-0.5L0,-3.0L2.5,-0.5"/>
                </g>
               <g id="resetDef">
                       <use xlink:href="#rim2" fill="#404040">
                               <set attributeName="fill" to="#808080" begin="reset.mouseover" end="reset.mouseout"/>
                       </use>
               </g>
        </defs>

<script type="text/javascript">
var viewWidth = 1234;
var viewHeight = 308;
var sectionId = 'dynsection-0';
</script>
<script xlink:href="svgpan.js"/>
<svg id="graph" class="graph">
<g id="viewport">
<title>src/services/Randomizer.cxx</title>
<!-- Node0 -->
<g id="node1" class="node">
<title>Node0</title>
<polygon fill="#bfbfbf" stroke="#000000" points="516,-280.5 516,-299.5 671,-299.5 671,-280.5 516,-280.5"/>
<text text-anchor="middle" x="593.5" y="-287.5" font-family="Helvetica,sans-Serif" font-size="10.00" fill="#000000">src/services/Randomizer.cxx</text>
</g>
<!-- Node1 -->
<g id="node2" class="node">
<title>Node1</title>
<g id="a_node2"><a xlink:href="Randomizer_8hxx.html" target="_top" xlink:title="Randomizer.hxx">
<polygon fill="none" stroke="#000000" points="546,-224.5 546,-243.5 641,-243.5 641,-224.5 546,-224.5"/>
<text text-anchor="middle" x="593.5" y="-231.5" font-family="Helvetica,sans-Serif" font-size="10.00" fill="#000000">Randomizer.hxx</text>
</a>
</g>
</g>
<!-- Node0&#45;&gt;Node1 -->
<g id="edge1" class="edge">
<title>Node0&#45;&gt;Node1</title>
<path fill="none" stroke="#191970" d="M593.5,-280.2455C593.5,-272.9382 593.5,-262.6944 593.5,-253.7046"/>
<polygon fill="#191970" stroke="#191970" points="597.0001,-253.6426 593.5,-243.6427 590.0001,-253.6427 597.0001,-253.6426"/>
</g>
<!-- Node2 -->
<g id="node3" class="node">
<title>Node2</title>
<polygon fill="none" stroke="#bfbfbf" points="467.5,-168.5 467.5,-187.5 521.5,-187.5 521.5,-168.5 467.5,-168.5"/>
<text text-anchor="middle" x="494.5" y="-175.5" font-family="Helvetica,sans-Serif" font-size="10.00" fill="#000000">random</text>
</g>
<!-- Node1&#45;&gt;Node2 -->
<g id="edge2" class="edge">
<title>Node1&#45;&gt;Node2</title>
<path fill="none" stroke="#191970" d="M576.2555,-224.2455C560.9239,-215.5731 538.2801,-202.7645 520.7084,-192.825"/>
<polygon fill="#191970" stroke="#191970" points="521.9741,-189.5198 511.5469,-187.6427 518.5276,-195.6126 521.9741,-189.5198"/>
</g>
<!-- Node3 -->
<g id="node4" class="node">
<title>Node3</title>
<polygon fill="none" stroke="#bfbfbf" points="540,-168.5 540,-187.5 593,-187.5 593,-168.5 540,-168.5"/>
<text text-anchor="middle" x="566.5" y="-175.5" font-family="Helvetica,sans-Serif" font-size="10.00" fill="#000000">iterator</text>
</g>
<!-- Node1&#45;&gt;Node3 -->
<g id="edge3" class="edge">
<title>Node1&#45;&gt;Node3</title>
<path fill="none" stroke="#191970" d="M588.797,-224.2455C585.1576,-216.6973 580.0076,-206.0158 575.5738,-196.8197"/>
<polygon fill="#191970" stroke="#191970" points="578.6449,-195.1303 571.1491,-187.6427 572.3395,-198.1704 578.6449,-195.1303"/>
</g>
<!-- Node4 -->
<g id="node5" class="node">
<title>Node4</title>
<g id="a_node5"><a xlink:href="GameService_8hxx.html" target="_top" xlink:title="../GameService.hxx">
<polygon fill="none" stroke="#000000" points="700.5,-168.5 700.5,-187.5 812.5,-187.5 812.5,-168.5 700.5,-168.5"/>
<text text-anchor="middle" x="756.5" y="-175.5" font-family="Helvetica,sans-Serif" font-size="10.00" fill="#000000">../GameService.hxx</text>
</a>
</g>
</g>
<!-- Node1&#45;&gt;Node4 -->
<g id="edge4" class="edge">
<title>Node1&#45;&gt;Node4</title>
<path fill="none" stroke="#191970" d="M621.5207,-224.3733C648.5078,-215.1016 689.5017,-201.0178 719.2311,-190.804"/>
<polygon fill="#191970" stroke="#191970" points="720.5248,-194.0605 728.8449,-187.5011 718.2503,-187.4403 720.5248,-194.0605"/>
</g>
<!-- Node15 -->
<g id="node16" class="node">
<title>Node15</title>
<g id="a_node16"><a xlink:href="LOG_8hxx.html" target="_top" xlink:title="LOG.hxx">
<polygon fill="none" stroke="#000000" points="540.5,-112.5 540.5,-131.5 598.5,-131.5 598.5,-112.5 540.5,-112.5"/>
<text text-anchor="middle" x="569.5" y="-119.5" font-family="Helvetica,sans-Serif" font-size="10.00" fill="#000000">LOG.hxx</text>
</a>
</g>
</g>
<!-- Node1&#45;&gt;Node15 -->
<g id="edge15" class="edge">
<title>Node1&#45;&gt;Node15</title>
<path fill="none" stroke="#191970" d="M597.1364,-224.3711C601.5181,-211.3099 607.5789,-187.3834 601.5,-168 598.2504,-157.6383 591.7506,-147.5669 585.4529,-139.5026"/>
<polygon fill="#191970" stroke="#191970" points="587.9619,-137.047 578.8618,-131.6212 582.5921,-141.5376 587.9619,-137.047"/>
</g>
<!-- Node5 -->
<g id="node6" class="node">
<title>Node5</title>
<g id="a_node6"><a xlink:href="Events_8hxx.html" target="_top" xlink:title="Events.hxx">
<polygon fill="none" stroke="#000000" points="914,-112.5 914,-131.5 985,-131.5 985,-112.5 914,-112.5"/>
<text text-anchor="middle" x="949.5" y="-119.5" font-family="Helvetica,sans-Serif" font-size="10.00" fill="#000000">Events.hxx</text>
</a>
</g>
</g>
<!-- Node4&#45;&gt;Node5 -->
<g id="edge5" class="edge">
<title>Node4&#45;&gt;Node5</title>
<path fill="none" stroke="#191970" d="M789.6779,-168.3733C822.0487,-158.9807 871.4398,-144.6496 906.7424,-134.4064"/>
<polygon fill="#191970" stroke="#191970" points="908.1265,-137.6492 916.7551,-131.5011 906.1758,-130.9264 908.1265,-137.6492"/>
</g>
<!-- Node14 -->
<g id="node15" class="node">
<title>Node14</title>
<g id="a_node15"><a xlink:href="GameService_8inl_8hxx.html" target="_top" xlink:title="GameService.inl.hxx">
<polygon fill="none" stroke="#000000" points="697.5,-112.5 697.5,-131.5 815.5,-131.5 815.5,-112.5 697.5,-112.5"/>
<text text-anchor="middle" x="756.5" y="-119.5" font-family="Helvetica,sans-Serif" font-size="10.00" fill="#000000">GameService.inl.hxx</text>
</a>
</g>
</g>
<!-- Node4&#45;&gt;Node14 -->
<g id="edge14" class="edge">
<title>Node4&#45;&gt;Node14</title>
<path fill="none" stroke="#191970" d="M756.5,-168.2455C756.5,-160.9382 756.5,-150.6944 756.5,-141.7046"/>
<polygon fill="#191970" stroke="#191970" points="760.0001,-141.6426 756.5,-131.6427 753.0001,-141.6427 760.0001,-141.6426"/>
</g>
<!-- Node6 -->
<g id="node7" class="node">
<title>Node6</title>
<polygon fill="none" stroke="#bfbfbf" points="927.5,-56.5 927.5,-75.5 971.5,-75.5 971.5,-56.5 927.5,-56.5"/>
<text text-anchor="middle" x="949.5" y="-63.5" font-family="Helvetica,sans-Serif" font-size="10.00" fill="#000000">string</text>
</g>
<!-- Node5&#45;&gt;Node6 -->
<g id="edge6" class="edge">
<title>Node5&#45;&gt;Node6</title>
<path fill="none" stroke="#191970" d="M949.5,-112.2455C949.5,-104.9382 949.5,-94.6944 949.5,-85.7046"/>
<polygon fill="#191970" stroke="#191970" points="953.0001,-85.6426 949.5,-75.6427 946.0001,-85.6427 953.0001,-85.6426"/>
</g>
<!-- Node7 -->
<g id="node8" class="node">
<title>Node7</title>
<polygon fill="none" stroke="#bfbfbf" points="1125.5,-56.5 1125.5,-75.5 1225.5,-75.5 1225.5,-56.5 1125.5,-56.5"/>
<text text-anchor="middle" x="1175.5" y="-63.5" font-family="Helvetica,sans-Serif" font-size="10.00" fill="#000000">betterEnums.hxx</text>
</g>
<!-- Node5&#45;&gt;Node7 -->
<g id="edge7" class="edge">
<title>Node5&#45;&gt;Node7</title>
<path fill="none" stroke="#191970" d="M985.0611,-113.1884C1023.3828,-103.6927 1084.5993,-88.5241 1127.2462,-77.9567"/>
<polygon fill="#191970" stroke="#191970" points="1128.2591,-81.3116 1137.1237,-75.5092 1126.5754,-74.5171 1128.2591,-81.3116"/>
</g>
<!-- Node8 -->
<g id="node9" class="node">
<title>Node8</title>
<g id="a_node9"><a xlink:href="Meta_8hxx.html" target="_top" xlink:title="util/Meta.hxx">
<polygon fill="none" stroke="#000000" points="829.5,-56.5 829.5,-75.5 909.5,-75.5 909.5,-56.5 829.5,-56.5"/>
<text text-anchor="middle" x="869.5" y="-63.5" font-family="Helvetica,sans-Serif" font-size="10.00" fill="#000000">util/Meta.hxx</text>
</a>
</g>
</g>
<!-- Node5&#45;&gt;Node8 -->
<g id="edge8" class="edge">
<title>Node5&#45;&gt;Node8</title>
<path fill="none" stroke="#191970" d="M935.5651,-112.2455C923.4053,-103.7337 905.5536,-91.2375 891.4715,-81.3801"/>
<polygon fill="#191970" stroke="#191970" points="893.4747,-78.51 883.2752,-75.6427 889.4605,-84.2447 893.4747,-78.51"/>
</g>
<!-- Node13 -->
<g id="node14" class="node">
<title>Node13</title>
<g id="a_node14"><a xlink:href="UIEvents_8hxx.html" target="_top" xlink:title="events/UIEvents.hxx">
<polygon fill="none" stroke="#000000" points="990,-56.5 990,-75.5 1107,-75.5 1107,-56.5 990,-56.5"/>
<text text-anchor="middle" x="1048.5" y="-63.5" font-family="Helvetica,sans-Serif" font-size="10.00" fill="#000000">events/UIEvents.hxx</text>
</a>
</g>
</g>
<!-- Node5&#45;&gt;Node13 -->
<g id="edge13" class="edge">
<title>Node5&#45;&gt;Node13</title>
<path fill="none" stroke="#191970" d="M966.7445,-112.2455C982.0761,-103.5731 1004.7199,-90.7645 1022.2916,-80.825"/>
<polygon fill="#191970" stroke="#191970" points="1024.4724,-83.6126 1031.4531,-75.6427 1021.0259,-77.5198 1024.4724,-83.6126"/>
</g>
<!-- Node9 -->
<g id="node10" class="node">
<title>Node9</title>
<polygon fill="none" stroke="#bfbfbf" points="756.5,-.5 756.5,-19.5 816.5,-19.5 816.5,-.5 756.5,-.5"/>
<text text-anchor="middle" x="786.5" y="-7.5" font-family="Helvetica,sans-Serif" font-size="10.00" fill="#000000">iostream</text>
</g>
<!-- Node8&#45;&gt;Node9 -->
<g id="edge9" class="edge">
<title>Node8&#45;&gt;Node9</title>
<path fill="none" stroke="#191970" d="M855.0425,-56.2455C842.4268,-47.7337 823.9056,-35.2375 809.2955,-25.3801"/>
<polygon fill="#191970" stroke="#191970" points="811.0391,-22.3343 800.7918,-19.6427 807.1239,-28.1371 811.0391,-22.3343"/>
</g>
<!-- Node10 -->
<g id="node11" class="node">
<title>Node10</title>
<polygon fill="none" stroke="#bfbfbf" points="835,-.5 835,-19.5 904,-19.5 904,-.5 835,-.5"/>
<text text-anchor="middle" x="869.5" y="-7.5" font-family="Helvetica,sans-Serif" font-size="10.00" fill="#000000">type_traits</text>
</g>
<!-- Node8&#45;&gt;Node10 -->
<g id="edge10" class="edge">
<title>Node8&#45;&gt;Node10</title>
<path fill="none" stroke="#191970" d="M869.5,-56.2455C869.5,-48.9382 869.5,-38.6944 869.5,-29.7046"/>
<polygon fill="#191970" stroke="#191970" points="873.0001,-29.6426 869.5,-19.6427 866.0001,-29.6427 873.0001,-29.6426"/>
</g>
<!-- Node11 -->
<g id="node12" class="node">
<title>Node11</title>
<polygon fill="none" stroke="#bfbfbf" points="922,-.5 922,-19.5 973,-19.5 973,-.5 922,-.5"/>
<text text-anchor="middle" x="947.5" y="-7.5" font-family="Helvetica,sans-Serif" font-size="10.00" fill="#000000">variant</text>
</g>
<!-- Node8&#45;&gt;Node11 -->
<g id="edge11" class="edge">
<title>Node8&#45;&gt;Node11</title>
<path fill="none" stroke="#191970" d="M883.0866,-56.2455C894.8305,-47.814 912.0199,-35.4729 925.6882,-25.6598"/>
<polygon fill="#191970" stroke="#191970" points="927.9871,-28.3179 934.0691,-19.6427 923.9046,-22.6316 927.9871,-28.3179"/>
</g>
<!-- Node12 -->
<g id="node13" class="node">
<title>Node12</title>
<polygon fill="none" stroke="#bfbfbf" points="991,-.5 991,-19.5 1032,-19.5 1032,-.5 991,-.5"/>
<text text-anchor="middle" x="1011.5" y="-7.5" font-family="Helvetica,sans-Serif" font-size="10.00" fill="#000000">tuple</text>
</g>
<!-- Node8&#45;&gt;Node12 -->
<g id="edge12" class="edge">
<title>Node8&#45;&gt;Node12</title>
<path fill="none" stroke="#191970" d="M893.9107,-56.3733C918.0986,-46.8343 955.2025,-32.2018 981.2475,-21.9306"/>
<polygon fill="#191970" stroke="#191970" points="982.6193,-25.152 990.638,-18.2273 980.0512,-18.6401 982.6193,-25.152"/>
</g>
<!-- Node15&#45;&gt;Node6 -->
<g id="edge16" class="edge">
<title>Node15&#45;&gt;Node6</title>
<path fill="none" stroke="#191970" d="M598.7696,-119.9415C657.5542,-115.4247 794.1862,-102.9999 917.311,-75.9304"/>
<polygon fill="#191970" stroke="#191970" points="918.2884,-79.2984 927.2826,-73.6989 916.7596,-72.4673 918.2884,-79.2984"/>
</g>
<!-- Node15&#45;&gt;Node8 -->
<g id="edge28" class="edge">
<title>Node15&#45;&gt;Node8</title>
<path fill="none" stroke="#191970" d="M598.5378,-116.5796C649.5889,-107.0501 755.9908,-87.1884 819.2075,-75.3879"/>
<polygon fill="#191970" stroke="#191970" points="820.1589,-78.7709 829.3468,-73.4953 818.8743,-71.8897 820.1589,-78.7709"/>
</g>
<!-- Node15&#45;&gt;Node9 -->
<g id="edge20" class="edge">
<title>Node15&#45;&gt;Node9</title>
<path fill="none" stroke="#191970" d="M598.7574,-119.9458C651.422,-115.5912 758.9069,-103.4869 782.5,-76 793.2244,-63.5057 793.1867,-44.2926 791.0802,-29.8123"/>
<polygon fill="#191970" stroke="#191970" points="794.4953,-29.0337 789.2101,-19.8513 787.6155,-30.3254 794.4953,-29.0337"/>
</g>
<!-- Node16 -->
<g id="node17" class="node">
<title>Node16</title>
<g id="a_node17"><a xlink:href="Exception_8hxx.html" target="_top" xlink:title="Exception.hxx">
<polygon fill="none" stroke="#000000" points="91.5,-56.5 91.5,-75.5 177.5,-75.5 177.5,-56.5 91.5,-56.5"/>
<text text-anchor="middle" x="134.5" y="-63.5" font-family="Helvetica,sans-Serif" font-size="10.00" fill="#000000">Exception.hxx</text>
</a>
</g>
</g>
<!-- Node15&#45;&gt;Node16 -->
<g id="edge17" class="edge">
<title>Node15&#45;&gt;Node16</title>
<path fill="none" stroke="#191970" d="M540.0929,-119.1818C477.283,-113.0098 325.1999,-97.2532 187.479,-76.0637"/>
<polygon fill="#191970" stroke="#191970" points="188.0079,-72.604 177.5894,-74.5288 186.9342,-79.5212 188.0079,-72.604"/>
</g>
<!-- Node19 -->
<g id="node20" class="node">
<title>Node19</title>
<polygon fill="none" stroke="#bfbfbf" points="303.5,-56.5 303.5,-75.5 353.5,-75.5 353.5,-56.5 303.5,-56.5"/>
<text text-anchor="middle" x="328.5" y="-63.5" font-family="Helvetica,sans-Serif" font-size="10.00" fill="#000000">chrono</text>
</g>
<!-- Node15&#45;&gt;Node19 -->
<g id="edge21" class="edge">
<title>Node15&#45;&gt;Node19</title>
<path fill="none" stroke="#191970" d="M540.2136,-116.1406C501.8612,-108.3269 432.3331,-93.6812 363.7991,-76.2139"/>
<polygon fill="#191970" stroke="#191970" points="364.2552,-72.7173 353.6986,-73.6167 362.5119,-79.4968 364.2552,-72.7173"/>
</g>
<!-- Node20 -->
<g id="node21" class="node">
<title>Node20</title>
<polygon fill="none" stroke="#bfbfbf" points="371.5,-56.5 371.5,-75.5 415.5,-75.5 415.5,-56.5 371.5,-56.5"/>
<text text-anchor="middle" x="393.5" y="-63.5" font-family="Helvetica,sans-Serif" font-size="10.00" fill="#000000">ctime</text>
</g>
<!-- Node15&#45;&gt;Node20 -->
<g id="edge22" class="edge">
<title>Node15&#45;&gt;Node20</title>
<path fill="none" stroke="#191970" d="M540.3252,-112.7902C512.9797,-104.1478 470.7097,-90.7631 425.2549,-76.2318"/>
<polygon fill="#191970" stroke="#191970" points="426.1022,-72.8282 415.5112,-73.1149 423.9693,-79.4954 426.1022,-72.8282"/>
</g>
<!-- Node21 -->
<g id="node22" class="node">
<title>Node21</title>
<polygon fill="none" stroke="#bfbfbf" points="434,-56.5 434,-75.5 489,-75.5 489,-56.5 434,-56.5"/>
<text text-anchor="middle" x="461.5" y="-63.5" font-family="Helvetica,sans-Serif" font-size="10.00" fill="#000000">fstream</text>
</g>
<!-- Node15&#45;&gt;Node21 -->
<g id="edge23" class="edge">
<title>Node15&#45;&gt;Node21</title>
<path fill="none" stroke="#191970" d="M550.6878,-112.2455C533.6527,-103.4125 508.3425,-90.2887 489.0319,-80.2758"/>
<polygon fill="#191970" stroke="#191970" points="490.5853,-77.1388 480.0966,-75.6427 487.363,-83.353 490.5853,-77.1388"/>
</g>
<!-- Node22 -->
<g id="node23" class="node">
<title>Node22</title>
<polygon fill="none" stroke="#bfbfbf" points="507.5,-56.5 507.5,-75.5 563.5,-75.5 563.5,-56.5 507.5,-56.5"/>
<text text-anchor="middle" x="535.5" y="-63.5" font-family="Helvetica,sans-Serif" font-size="10.00" fill="#000000">sstream</text>
</g>
<!-- Node15&#45;&gt;Node22 -->
<g id="edge24" class="edge">
<title>Node15&#45;&gt;Node22</title>
<path fill="none" stroke="#191970" d="M563.5777,-112.2455C558.8973,-104.5367 552.2327,-93.5598 546.5711,-84.2348"/>
<polygon fill="#191970" stroke="#191970" points="549.5361,-82.3741 541.3545,-75.6427 543.5525,-86.007 549.5361,-82.3741"/>
</g>
<!-- Node23 -->
<g id="node24" class="node">
<title>Node23</title>
<polygon fill="none" stroke="#bfbfbf" points="581.5,-56.5 581.5,-75.5 625.5,-75.5 625.5,-56.5 581.5,-56.5"/>
<text text-anchor="middle" x="603.5" y="-63.5" font-family="Helvetica,sans-Serif" font-size="10.00" fill="#000000">SDL.h</text>
</g>
<!-- Node15&#45;&gt;Node23 -->
<g id="edge25" class="edge">
<title>Node15&#45;&gt;Node23</title>
<path fill="none" stroke="#191970" d="M575.4223,-112.2455C580.1027,-104.5367 586.7673,-93.5598 592.4289,-84.2348"/>
<polygon fill="#191970" stroke="#191970" points="595.4475,-86.007 597.6455,-75.6427 589.4639,-82.3741 595.4475,-86.007"/>
</g>
<!-- Node24 -->
<g id="node25" class="node">
<title>Node24</title>
<polygon fill="none" stroke="#bfbfbf" points="643.5,-56.5 643.5,-75.5 707.5,-75.5 707.5,-56.5 643.5,-56.5"/>
<text text-anchor="middle" x="675.5" y="-63.5" font-family="Helvetica,sans-Serif" font-size="10.00" fill="#000000">algorithm</text>
</g>
<!-- Node15&#45;&gt;Node24 -->
<g id="edge26" class="edge">
<title>Node15&#45;&gt;Node24</title>
<path fill="none" stroke="#191970" d="M587.9638,-112.2455C604.6074,-103.4527 629.2993,-90.4079 648.2192,-80.4125"/>
<polygon fill="#191970" stroke="#191970" points="650.0408,-83.4086 657.2478,-75.6427 646.7709,-77.2193 650.0408,-83.4086"/>
</g>
<!-- Node25 -->
<g id="node26" class="node">
<title>Node25</title>
<polygon fill="none" stroke="#bfbfbf" points="725.5,-56.5 725.5,-75.5 773.5,-75.5 773.5,-56.5 725.5,-56.5"/>
<text text-anchor="middle" x="749.5" y="-63.5" font-family="Helvetica,sans-Serif" font-size="10.00" fill="#000000">mutex</text>
</g>
<!-- Node15&#45;&gt;Node25 -->
<g id="edge27" class="edge">
<title>Node15&#45;&gt;Node25</title>
<path fill="none" stroke="#191970" d="M598.8207,-112.878C630.7799,-102.9352 681.847,-87.0476 715.529,-76.5688"/>
<polygon fill="#191970" stroke="#191970" points="716.8747,-79.8156 725.3835,-73.5029 714.7952,-73.1316 716.8747,-79.8156"/>
</g>
<!-- Node26 -->
<g id="node27" class="node">
<title>Node26</title>
<g id="a_node27"><a xlink:href="filesystem_8hxx.html" target="_top" xlink:title="filesystem.hxx">
<polygon fill="none" stroke="#000000" points="196,-56.5 196,-75.5 285,-75.5 285,-56.5 196,-56.5"/>
<text text-anchor="middle" x="240.5" y="-63.5" font-family="Helvetica,sans-Serif" font-size="10.00" fill="#000000">filesystem.hxx</text>
</a>
</g>
</g>
<!-- Node15&#45;&gt;Node26 -->
<g id="edge29" class="edge">
<title>Node15&#45;&gt;Node26</title>
<path fill="none" stroke="#191970" d="M540.1679,-117.2652C491.576,-109.3844 391.0639,-92.9266 295.4126,-76.1375"/>
<polygon fill="#191970" stroke="#191970" points="295.7335,-72.6403 285.2782,-74.3542 294.5203,-79.5344 295.7335,-72.6403"/>
</g>
<!-- Node28 -->
<g id="node29" class="node">
<title>Node28</title>
<g id="a_node29"><a xlink:href="LOG_8inl_8hxx.html" target="_top" xlink:title="LOG.inl.hxx">
<polygon fill="none" stroke="#000000" points="0,-56.5 0,-75.5 73,-75.5 73,-56.5 0,-56.5"/>
<text text-anchor="middle" x="36.5" y="-63.5" font-family="Helvetica,sans-Serif" font-size="10.00" fill="#000000">LOG.inl.hxx</text>
</a>
</g>
</g>
<!-- Node15&#45;&gt;Node28 -->
<g id="edge31" class="edge">
<title>Node15&#45;&gt;Node28</title>
<path fill="none" stroke="#191970" d="M540.2561,-120.4637C465.7234,-116.2881 262.4748,-103.2725 82.9673,-75.8931"/>
<polygon fill="#191970" stroke="#191970" points="83.5011,-72.4342 73.0842,-74.3673 82.433,-79.3522 83.5011,-72.4342"/>
</g>
<!-- Node17 -->
<g id="node18" class="node">
<title>Node17</title>
<polygon fill="none" stroke="#bfbfbf" points="116,-.5 116,-19.5 181,-19.5 181,-.5 116,-.5"/>
<text text-anchor="middle" x="148.5" y="-7.5" font-family="Helvetica,sans-Serif" font-size="10.00" fill="#000000">stdexcept</text>
</g>
<!-- Node16&#45;&gt;Node17 -->
<g id="edge18" class="edge">
<title>Node16&#45;&gt;Node17</title>
<path fill="none" stroke="#191970" d="M136.9386,-56.2455C138.7855,-48.8579 141.3828,-38.4689 143.6478,-29.4087"/>
<polygon fill="#191970" stroke="#191970" points="147.0594,-30.193 146.0893,-19.6427 140.2684,-28.4952 147.0594,-30.193"/>
</g>
<!-- Node18 -->
<g id="node19" class="node">
<title>Node18</title>
<polygon fill="none" stroke="#bfbfbf" points="33,-.5 33,-19.5 98,-19.5 98,-.5 33,-.5"/>
<text text-anchor="middle" x="65.5" y="-7.5" font-family="Helvetica,sans-Serif" font-size="10.00" fill="#000000">exception</text>
</g>
<!-- Node16&#45;&gt;Node18 -->
<g id="edge19" class="edge">
<title>Node16&#45;&gt;Node18</title>
<path fill="none" stroke="#191970" d="M122.4811,-56.2455C112.2902,-47.9746 97.4638,-35.9416 85.4893,-26.2232"/>
<polygon fill="#191970" stroke="#191970" points="87.3514,-23.2268 77.3812,-19.6427 82.9402,-28.662 87.3514,-23.2268"/>
</g>
<!-- Node27 -->
<g id="node28" class="node">
<title>Node27</title>
<polygon fill="none" stroke="#bfbfbf" points="213.5,-.5 213.5,-19.5 267.5,-19.5 267.5,-.5 213.5,-.5"/>
<text text-anchor="middle" x="240.5" y="-7.5" font-family="Helvetica,sans-Serif" font-size="10.00" fill="#000000">ciso646</text>
</g>
<!-- Node26&#45;&gt;Node27 -->
<g id="edge30" class="edge">
<title>Node26&#45;&gt;Node27</title>
<path fill="none" stroke="#191970" d="M240.5,-56.2455C240.5,-48.9382 240.5,-38.6944 240.5,-29.7046"/>
<polygon fill="#191970" stroke="#191970" points="244.0001,-29.6426 240.5,-19.6427 237.0001,-29.6427 244.0001,-29.6426"/>
</g>
</g>
</svg>
        <g id="navigator" transform="translate(0 0)" fill="#404254">
                <rect fill="#f2f5e9" fill-opacity="0.5" stroke="#606060" stroke-width=".5" x="0" y="0" width="60" height="60"/>
                <use id="zoomplus" xlink:href="#zoomPlus" x="17" y="9" onmousedown="handleZoom(evt,'in')"/>
                <use id="zoomminus" xlink:href="#zoomMin" x="42" y="9" onmousedown="handleZoom(evt,'out')"/>
                <use id="reset" xlink:href="#resetDef" x="30" y="36" onmousedown="handleReset()"/>
                <g id="arrowUp" xlink:href="#dirArrow" transform="translate(30 24)" onmousedown="handlePan(0,-1)">
                  <use xlink:href="#rim" fill="#404040">
                        <set attributeName="fill" to="#808080" begin="arrowUp.mouseover" end="arrowUp.mouseout"/>
                  </use>
                  <path fill="none" stroke="white" stroke-width="1.5" d="M0,-3.0v7 M-2.5,-0.5L0,-3.0L2.5,-0.5"/>
                </g>
                <g id="arrowRight" xlink:href="#dirArrow" transform="rotate(90) translate(36 -43)" onmousedown="handlePan(1,0)">
                  <use xlink:href="#rim" fill="#404040">
                        <set attributeName="fill" to="#808080" begin="arrowRight.mouseover" end="arrowRight.mouseout"/>
                  </use>
                  <path fill="none" stroke="white" stroke-width="1.5" d="M0,-3.0v7 M-2.5,-0.5L0,-3.0L2.5,-0.5"/>
                </g>
                <g id="arrowDown" xlink:href="#dirArrow" transform="rotate(180) translate(-30 -48)" onmousedown="handlePan(0,1)">
                  <use xlink:href="#rim" fill="#404040">
                        <set attributeName="fill" to="#808080" begin="arrowDown.mouseover" end="arrowDown.mouseout"/>
                  </use>
                  <path fill="none" stroke="white" stroke-width="1.5" d="M0,-3.0v7 M-2.5,-0.5L0,-3.0L2.5,-0.5"/>
                </g>
                <g id="arrowLeft" xlink:href="#dirArrow" transform="rotate(270) translate(-36 17)" onmousedown="handlePan(-1,0)">
                  <use xlink:href="#rim" fill="#404040">
                        <set attributeName="fill" to="#808080" begin="arrowLeft.mouseover" end="arrowLeft.mouseout"/>
                  </use>
                  <path fill="none" stroke="white" stroke-width="1.5" d="M0,-3.0v7 M-2.5,-0.5L0,-3.0L2.5,-0.5"/>
                </g>
        </g>
        <svg viewBox="0 0 15 15" width="100%" height="30px" preserveAspectRatio="xMaxYMin meet">
         <g id="arrow_out" transform="scale(0.3 0.3)">
          <a xlink:href="Randomizer_8cxx__incl_org.svg" target="_base">
           <rect id="button" ry="5" rx="5" y="6" x="6" height="38" width="38"
                fill="#f2f5e9" fill-opacity="0.5" stroke="#606060" stroke-width="1.0"/>
           <path id="arrow"
             d="M 11.500037,31.436501 C 11.940474,20.09759 22.043105,11.32322 32.158766,21.979434 L 37.068811,17.246167 C 37.068811,17.246167 37.088388,32 37.088388,32 L 22.160133,31.978069 C 22.160133,31.978069 26.997745,27.140456 26.997745,27.140456 C 18.528582,18.264221 13.291696,25.230495 11.500037,31.436501 z"
             style="fill:#404040;"/>
          </a>
         </g>
        </svg>
</svg>
