<?xml version="1.0" encoding="UTF-8" standalone="no"?>
<!DOCTYPE svg PUBLIC "-//W3C//DTD SVG 1.1//EN"
 "http://www.w3.org/Graphics/SVG/1.1/DTD/svg11.dtd">
<!-- Generated by graphviz version 2.40.1 (20161225.0304)
 -->
<!-- Title: src/services/ResourceManager.hxx Pages: 1 -->
<svg width="560pt" height="252pt"
 viewBox="0.00 0.00 559.50 252.00" xmlns="http://www.w3.org/2000/svg" xmlns:xlink="http://www.w3.org/1999/xlink">
<g id="graph0" class="graph" transform="scale(1 1) rotate(0) translate(4 248)">
<title>src/services/ResourceManager.hxx</title>
<!-- Node0 -->
<g id="node1" class="node">
<title>Node0</title>
<polygon fill="#bfbfbf" stroke="#000000" points="159.5,-224.5 159.5,-243.5 343.5,-243.5 343.5,-224.5 159.5,-224.5"/>
<text text-anchor="middle" x="251.5" y="-231.5" font-family="Helvetica,sans-Serif" font-size="10.00" fill="#000000">src/services/ResourceManager.hxx</text>
</g>
<!-- Node1 -->
<g id="node2" class="node">
<title>Node1</title>
<polygon fill="none" stroke="#bfbfbf" points="0,-168.5 0,-187.5 93,-187.5 93,-168.5 0,-168.5"/>
<text text-anchor="middle" x="46.5" y="-175.5" font-family="Helvetica,sans-Serif" font-size="10.00" fill="#000000">unordered_map</text>
</g>
<!-- Node0&#45;&gt;Node1 -->
<g id="edge1" class="edge">
<title>Node0&#45;&gt;Node1</title>
<path fill="none" stroke="#191970" d="M216.2592,-224.3733C181.5806,-214.9001 128.5117,-200.4032 90.9538,-190.1435"/>
<polygon fill="#191970" stroke="#191970" points="91.8498,-186.7601 81.2809,-187.5011 90.0051,-193.5126 91.8498,-186.7601"/>
</g>
<!-- Node2 -->
<g id="node3" class="node">
<title>Node2</title>
<polygon fill="none" stroke="#bfbfbf" points="51.5,-56.5 51.5,-75.5 95.5,-75.5 95.5,-56.5 51.5,-56.5"/>
<text text-anchor="middle" x="73.5" y="-63.5" font-family="Helvetica,sans-Serif" font-size="10.00" fill="#000000">string</text>
</g>
<!-- Node0&#45;&gt;Node2 -->
<g id="edge2" class="edge">
<title>Node0&#45;&gt;Node2</title>
<path fill="none" stroke="#191970" d="M236.1246,-224.4242C222.5163,-215.6511 202.4052,-201.9436 186.5,-188 147.8554,-154.1215 108.3164,-108.3686 87.8124,-83.6362"/>
<polygon fill="#191970" stroke="#191970" points="90.4402,-81.3213 81.3864,-75.8186 85.0326,-85.7663 90.4402,-81.3213"/>
</g>
<!-- Node3 -->
<g id="node4" class="node">
<title>Node3</title>
<g id="a_node4"><a xlink:href="GameService_8hxx.html" target="_top" xlink:title="../GameService.hxx">
<polygon fill="none" stroke="#000000" points="195.5,-168.5 195.5,-187.5 307.5,-187.5 307.5,-168.5 195.5,-168.5"/>
<text text-anchor="middle" x="251.5" y="-175.5" font-family="Helvetica,sans-Serif" font-size="10.00" fill="#000000">../GameService.hxx</text>
</a>
</g>
</g>
<!-- Node0&#45;&gt;Node3 -->
<g id="edge3" class="edge">
<title>Node0&#45;&gt;Node3</title>
<path fill="none" stroke="#191970" d="M251.5,-224.2455C251.5,-216.9382 251.5,-206.6944 251.5,-197.7046"/>
<polygon fill="#191970" stroke="#191970" points="255.0001,-197.6426 251.5,-187.6427 248.0001,-197.6427 255.0001,-197.6426"/>
</g>
<!-- Node6 -->
<g id="node7" class="node">
<title>Node6</title>
<g id="a_node7"><a xlink:href="Meta_8hxx.html" target="_top" xlink:title="util/Meta.hxx">
<polygon fill="none" stroke="#000000" points="367.5,-56.5 367.5,-75.5 447.5,-75.5 447.5,-56.5 367.5,-56.5"/>
<text text-anchor="middle" x="407.5" y="-63.5" font-family="Helvetica,sans-Serif" font-size="10.00" fill="#000000">util/Meta.hxx</text>
</a>
</g>
</g>
<!-- Node0&#45;&gt;Node6 -->
<g id="edge14" class="edge">
<title>Node0&#45;&gt;Node6</title>
<path fill="none" stroke="#191970" d="M266.9375,-224.4944C280.5867,-215.7675 300.7228,-202.0883 316.5,-188 341.3878,-165.7765 346.5109,-158.7155 366.5,-132 377.9451,-116.7036 389.2751,-98.1322 397.1145,-84.5909"/>
<polygon fill="#191970" stroke="#191970" points="400.2487,-86.16 402.1576,-75.7386 394.1664,-82.695 400.2487,-86.16"/>
</g>
<!-- Node13 -->
<g id="node14" class="node">
<title>Node13</title>
<g id="a_node14"><a xlink:href="ResourceManager_8inl_8hxx.html" target="_top" xlink:title="ResourceManager.inl.hxx">
<polygon fill="none" stroke="#000000" points="413.5,-168.5 413.5,-187.5 551.5,-187.5 551.5,-168.5 413.5,-168.5"/>
<text text-anchor="middle" x="482.5" y="-175.5" font-family="Helvetica,sans-Serif" font-size="10.00" fill="#000000">ResourceManager.inl.hxx</text>
</a>
</g>
</g>
<!-- Node0&#45;&gt;Node13 -->
<g id="edge15" class="edge">
<title>Node0&#45;&gt;Node13</title>
<path fill="none" stroke="#191970" d="M290.9478,-224.4369C330.3156,-214.8932 390.9034,-200.2052 433.3708,-189.9101"/>
<polygon fill="#191970" stroke="#191970" points="434.321,-193.2812 443.2149,-187.5237 432.6717,-186.4783 434.321,-193.2812"/>
</g>
<!-- Node4 -->
<g id="node5" class="node">
<title>Node4</title>
<g id="a_node5"><a xlink:href="Events_8hxx.html" target="_top" xlink:title="Events.hxx">
<polygon fill="none" stroke="#000000" points="150,-112.5 150,-131.5 221,-131.5 221,-112.5 150,-112.5"/>
<text text-anchor="middle" x="185.5" y="-119.5" font-family="Helvetica,sans-Serif" font-size="10.00" fill="#000000">Events.hxx</text>
</a>
</g>
</g>
<!-- Node3&#45;&gt;Node4 -->
<g id="edge4" class="edge">
<title>Node3&#45;&gt;Node4</title>
<path fill="none" stroke="#191970" d="M240.0037,-168.2455C230.2558,-159.9746 216.0741,-147.9416 204.6202,-138.2232"/>
<polygon fill="#191970" stroke="#191970" points="206.7541,-135.4437 196.8646,-131.6427 202.2253,-140.7813 206.7541,-135.4437"/>
</g>
<!-- Node12 -->
<g id="node13" class="node">
<title>Node12</title>
<g id="a_node13"><a xlink:href="GameService_8inl_8hxx.html" target="_top" xlink:title="GameService.inl.hxx">
<polygon fill="none" stroke="#000000" points="239.5,-112.5 239.5,-131.5 357.5,-131.5 357.5,-112.5 239.5,-112.5"/>
<text text-anchor="middle" x="298.5" y="-119.5" font-family="Helvetica,sans-Serif" font-size="10.00" fill="#000000">GameService.inl.hxx</text>
</a>
</g>
</g>
<!-- Node3&#45;&gt;Node12 -->
<g id="edge13" class="edge">
<title>Node3&#45;&gt;Node12</title>
<path fill="none" stroke="#191970" d="M259.6868,-168.2455C266.3589,-160.2958 275.9479,-148.8706 283.9253,-139.3656"/>
<polygon fill="#191970" stroke="#191970" points="286.6592,-141.5525 290.407,-131.6427 281.2974,-137.0524 286.6592,-141.5525"/>
</g>
<!-- Node4&#45;&gt;Node2 -->
<g id="edge5" class="edge">
<title>Node4&#45;&gt;Node2</title>
<path fill="none" stroke="#191970" d="M166.2465,-112.3733C148.4288,-103.4644 121.7253,-90.1127 101.5406,-80.0203"/>
<polygon fill="#191970" stroke="#191970" points="103.0118,-76.8428 92.5022,-75.5011 99.8813,-83.1038 103.0118,-76.8428"/>
</g>
<!-- Node5 -->
<g id="node6" class="node">
<title>Node5</title>
<polygon fill="none" stroke="#bfbfbf" points="113.5,-56.5 113.5,-75.5 213.5,-75.5 213.5,-56.5 113.5,-56.5"/>
<text text-anchor="middle" x="163.5" y="-63.5" font-family="Helvetica,sans-Serif" font-size="10.00" fill="#000000">betterEnums.hxx</text>
</g>
<!-- Node4&#45;&gt;Node5 -->
<g id="edge6" class="edge">
<title>Node4&#45;&gt;Node5</title>
<path fill="none" stroke="#191970" d="M181.6679,-112.2455C178.7341,-104.7776 174.5953,-94.2427 171.009,-85.1137"/>
<polygon fill="#191970" stroke="#191970" points="174.2024,-83.6704 167.2882,-75.6427 167.6871,-86.23 174.2024,-83.6704"/>
</g>
<!-- Node4&#45;&gt;Node6 -->
<g id="edge7" class="edge">
<title>Node4&#45;&gt;Node6</title>
<path fill="none" stroke="#191970" d="M221.1681,-113.0026C258.7607,-103.5198 318.1801,-88.5311 359.7855,-78.0361"/>
<polygon fill="#191970" stroke="#191970" points="360.8512,-81.377 369.6914,-75.5373 359.139,-74.5896 360.8512,-81.377"/>
</g>
<!-- Node11 -->
<g id="node12" class="node">
<title>Node11</title>
<g id="a_node12"><a xlink:href="UIEvents_8hxx.html" target="_top" xlink:title="events/UIEvents.hxx">
<polygon fill="none" stroke="#000000" points="232,-56.5 232,-75.5 349,-75.5 349,-56.5 232,-56.5"/>
<text text-anchor="middle" x="290.5" y="-63.5" font-family="Helvetica,sans-Serif" font-size="10.00" fill="#000000">events/UIEvents.hxx</text>
</a>
</g>
</g>
<!-- Node4&#45;&gt;Node11 -->
<g id="edge12" class="edge">
<title>Node4&#45;&gt;Node11</title>
<path fill="none" stroke="#191970" d="M203.7896,-112.2455C220.2762,-103.4527 244.7352,-90.4079 263.4765,-80.4125"/>
<polygon fill="#191970" stroke="#191970" points="265.2435,-83.4368 272.42,-75.6427 261.9494,-77.2604 265.2435,-83.4368"/>
</g>
<!-- Node7 -->
<g id="node8" class="node">
<title>Node7</title>
<polygon fill="none" stroke="#bfbfbf" points="255.5,-.5 255.5,-19.5 315.5,-19.5 315.5,-.5 255.5,-.5"/>
<text text-anchor="middle" x="285.5" y="-7.5" font-family="Helvetica,sans-Serif" font-size="10.00" fill="#000000">iostream</text>
</g>
<!-- Node6&#45;&gt;Node7 -->
<g id="edge8" class="edge">
<title>Node6&#45;&gt;Node7</title>
<path fill="none" stroke="#191970" d="M386.5275,-56.3733C366.9433,-47.3838 337.5039,-33.8706 315.449,-23.7471"/>
<polygon fill="#191970" stroke="#191970" points="316.7473,-20.4919 306.1989,-19.5011 313.8271,-26.8538 316.7473,-20.4919"/>
</g>
<!-- Node8 -->
<g id="node9" class="node">
<title>Node8</title>
<polygon fill="none" stroke="#bfbfbf" points="334,-.5 334,-19.5 403,-19.5 403,-.5 334,-.5"/>
<text text-anchor="middle" x="368.5" y="-7.5" font-family="Helvetica,sans-Serif" font-size="10.00" fill="#000000">type_traits</text>
</g>
<!-- Node6&#45;&gt;Node8 -->
<g id="edge9" class="edge">
<title>Node6&#45;&gt;Node8</title>
<path fill="none" stroke="#191970" d="M400.7067,-56.2455C395.2822,-48.4564 387.5339,-37.3308 380.9967,-27.9439"/>
<polygon fill="#191970" stroke="#191970" points="383.8025,-25.8485 375.2154,-19.6427 378.0583,-29.849 383.8025,-25.8485"/>
</g>
<!-- Node9 -->
<g id="node10" class="node">
<title>Node9</title>
<polygon fill="none" stroke="#bfbfbf" points="421,-.5 421,-19.5 472,-19.5 472,-.5 421,-.5"/>
<text text-anchor="middle" x="446.5" y="-7.5" font-family="Helvetica,sans-Serif" font-size="10.00" fill="#000000">variant</text>
</g>
<!-- Node6&#45;&gt;Node9 -->
<g id="edge10" class="edge">
<title>Node6&#45;&gt;Node9</title>
<path fill="none" stroke="#191970" d="M414.2933,-56.2455C419.7178,-48.4564 427.4661,-37.3308 434.0033,-27.9439"/>
<polygon fill="#191970" stroke="#191970" points="436.9417,-29.849 439.7846,-19.6427 431.1975,-25.8485 436.9417,-29.849"/>
</g>
<!-- Node10 -->
<g id="node11" class="node">
<title>Node10</title>
<polygon fill="none" stroke="#bfbfbf" points="490,-.5 490,-19.5 531,-19.5 531,-.5 490,-.5"/>
<text text-anchor="middle" x="510.5" y="-7.5" font-family="Helvetica,sans-Serif" font-size="10.00" fill="#000000">tuple</text>
</g>
<!-- Node6&#45;&gt;Node10 -->
<g id="edge11" class="edge">
<title>Node6&#45;&gt;Node10</title>
<path fill="none" stroke="#191970" d="M425.4412,-56.2455C441.54,-47.4928 465.3879,-34.527 483.7391,-24.5496"/>
<polygon fill="#191970" stroke="#191970" points="485.6507,-27.4942 492.7644,-19.6427 482.3071,-21.3444 485.6507,-27.4942"/>
</g>
</g>
</svg>
