<?xml version="1.0" encoding="UTF-8" standalone="no"?>
<!DOCTYPE svg PUBLIC "-//W3C//DTD SVG 1.1//EN"
 "http://www.w3.org/Graphics/SVG/1.1/DTD/svg11.dtd">
<!-- Generated by graphviz version 2.40.1 (20161225.0304)
 -->
<!-- Title: src/services/ResourceManager.cxx Pages: 1 -->
<svg width="2127pt" height="420pt"
 viewBox="0.00 0.00 2126.50 420.00" xmlns="http://www.w3.org/2000/svg" xmlns:xlink="http://www.w3.org/1999/xlink">
<g id="graph0" class="graph" transform="scale(1 1) rotate(0) translate(4 416)">
<title>src/services/ResourceManager.cxx</title>
<!-- Node0 -->
<g id="node1" class="node">
<title>Node0</title>
<polygon fill="#bfbfbf" stroke="#000000" points="715.5,-392.5 715.5,-411.5 898.5,-411.5 898.5,-392.5 715.5,-392.5"/>
<text text-anchor="middle" x="807" y="-399.5" font-family="Helvetica,sans-Serif" font-size="10.00" fill="#000000">src/services/ResourceManager.cxx</text>
</g>
<!-- Node1 -->
<g id="node2" class="node">
<title>Node1</title>
<g id="a_node2"><a xlink:href="ResourceManager_8hxx.html" target="_top" xlink:title="ResourceManager.hxx">
<polygon fill="none" stroke="#000000" points="254.5,-280.5 254.5,-299.5 377.5,-299.5 377.5,-280.5 254.5,-280.5"/>
<text text-anchor="middle" x="316" y="-287.5" font-family="Helvetica,sans-Serif" font-size="10.00" fill="#000000">ResourceManager.hxx</text>
</a>
</g>
</g>
<!-- Node0&#45;&gt;Node1 -->
<g id="edge1" class="edge">
<title>Node0&#45;&gt;Node1</title>
<path fill="none" stroke="#191970" d="M765.1376,-392.4509C675.5446,-372.0142 465.4432,-324.0889 367.701,-301.7933"/>
<polygon fill="#191970" stroke="#191970" points="368.2844,-298.3365 357.7564,-299.5249 366.7276,-305.1612 368.2844,-298.3365"/>
</g>
<!-- Node15 -->
<g id="node16" class="node">
<title>Node15</title>
<g id="a_node16"><a xlink:href="Exception_8hxx.html" target="_top" xlink:title="../util/Exception.hxx">
<polygon fill="none" stroke="#000000" points="439.5,-168.5 439.5,-187.5 552.5,-187.5 552.5,-168.5 439.5,-168.5"/>
<text text-anchor="middle" x="496" y="-175.5" font-family="Helvetica,sans-Serif" font-size="10.00" fill="#000000">../util/Exception.hxx</text>
</a>
</g>
</g>
<!-- Node0&#45;&gt;Node15 -->
<g id="edge17" class="edge">
<title>Node0&#45;&gt;Node15</title>
<path fill="none" stroke="#191970" d="M793.6367,-392.375C745.0889,-357.4081 577.7606,-236.8886 517.6866,-193.6199"/>
<polygon fill="#191970" stroke="#191970" points="519.4734,-190.5936 509.3135,-187.5891 515.3823,-196.2736 519.4734,-190.5936"/>
</g>
<!-- Node18 -->
<g id="node19" class="node">
<title>Node18</title>
<g id="a_node19"><a xlink:href="LOG_8hxx.html" target="_top" xlink:title="../util/LOG.hxx">
<polygon fill="none" stroke="#000000" points="764,-224.5 764,-243.5 850,-243.5 850,-224.5 764,-224.5"/>
<text text-anchor="middle" x="807" y="-231.5" font-family="Helvetica,sans-Serif" font-size="10.00" fill="#000000">../util/LOG.hxx</text>
</a>
</g>
</g>
<!-- Node0&#45;&gt;Node18 -->
<g id="edge20" class="edge">
<title>Node0&#45;&gt;Node18</title>
<path fill="none" stroke="#191970" d="M807,-392.4862C807,-365.9293 807,-290.5651 807,-254.1655"/>
<polygon fill="#191970" stroke="#191970" points="810.5001,-253.8278 807,-243.8279 803.5001,-253.8279 810.5001,-253.8278"/>
</g>
<!-- Node21 -->
<g id="node22" class="node">
<title>Node21</title>
<polygon fill="none" stroke="#bfbfbf" points="1078.5,-168.5 1078.5,-187.5 1133.5,-187.5 1133.5,-168.5 1078.5,-168.5"/>
<text text-anchor="middle" x="1106" y="-175.5" font-family="Helvetica,sans-Serif" font-size="10.00" fill="#000000">fstream</text>
</g>
<!-- Node0&#45;&gt;Node21 -->
<g id="edge73" class="edge">
<title>Node0&#45;&gt;Node21</title>
<path fill="none" stroke="#191970" d="M819.8477,-392.375C866.5223,-357.4081 1027.3942,-236.8886 1085.1502,-193.6199"/>
<polygon fill="#191970" stroke="#191970" points="1087.2955,-196.386 1093.2002,-187.5891 1083.0985,-190.7838 1087.2955,-196.386"/>
</g>
<!-- Node29 -->
<g id="node30" class="node">
<title>Node29</title>
<g id="a_node30"><a xlink:href="JsonSerialization_8hxx.html" target="_top" xlink:title="common/JsonSerialization.hxx">
<polygon fill="none" stroke="#000000" points="1454,-336.5 1454,-355.5 1618,-355.5 1618,-336.5 1454,-336.5"/>
<text text-anchor="middle" x="1536" y="-343.5" font-family="Helvetica,sans-Serif" font-size="10.00" fill="#000000">common/JsonSerialization.hxx</text>
</a>
</g>
</g>
<!-- Node0&#45;&gt;Node29 -->
<g id="edge35" class="edge">
<title>Node0&#45;&gt;Node29</title>
<path fill="none" stroke="#191970" d="M898.5902,-394.9643C1038.3067,-384.2316 1303.1971,-363.8834 1443.4715,-353.1078"/>
<polygon fill="#191970" stroke="#191970" points="1444.0621,-356.5728 1453.7646,-352.3171 1443.5259,-349.5934 1444.0621,-356.5728"/>
</g>
<!-- Node2 -->
<g id="node3" class="node">
<title>Node2</title>
<polygon fill="none" stroke="#bfbfbf" points="1170.5,-112.5 1170.5,-131.5 1263.5,-131.5 1263.5,-112.5 1170.5,-112.5"/>
<text text-anchor="middle" x="1217" y="-119.5" font-family="Helvetica,sans-Serif" font-size="10.00" fill="#000000">unordered_map</text>
</g>
<!-- Node1&#45;&gt;Node2 -->
<g id="edge2" class="edge">
<title>Node1&#45;&gt;Node2</title>
<path fill="none" stroke="#191970" d="M377.7033,-288.4889C586.6771,-282.7374 1258.2295,-258.8385 1321,-188 1342.0655,-164.2269 1303.6744,-145.8219 1267.7302,-134.559"/>
<polygon fill="#191970" stroke="#191970" points="1268.2915,-131.0742 1257.7084,-131.5731 1266.2927,-137.7828 1268.2915,-131.0742"/>
</g>
<!-- Node3 -->
<g id="node4" class="node">
<title>Node3</title>
<polygon fill="none" stroke="#bfbfbf" points="948,-56.5 948,-75.5 992,-75.5 992,-56.5 948,-56.5"/>
<text text-anchor="middle" x="970" y="-63.5" font-family="Helvetica,sans-Serif" font-size="10.00" fill="#000000">string</text>
</g>
<!-- Node1&#45;&gt;Node3 -->
<g id="edge3" class="edge">
<title>Node1&#45;&gt;Node3</title>
<path fill="none" stroke="#191970" d="M318.4054,-280.491C326.7343,-249.7633 357.4913,-152.7723 423,-112 466.7511,-84.7695 827.0605,-70.7155 937.7678,-67.0112"/>
<polygon fill="#191970" stroke="#191970" points="938.0966,-70.5023 947.9762,-66.6754 937.8665,-63.5061 938.0966,-70.5023"/>
</g>
<!-- Node4 -->
<g id="node5" class="node">
<title>Node4</title>
<g id="a_node5"><a xlink:href="GameService_8hxx.html" target="_top" xlink:title="../GameService.hxx">
<polygon fill="none" stroke="#000000" points="156,-224.5 156,-243.5 268,-243.5 268,-224.5 156,-224.5"/>
<text text-anchor="middle" x="212" y="-231.5" font-family="Helvetica,sans-Serif" font-size="10.00" fill="#000000">../GameService.hxx</text>
</a>
</g>
</g>
<!-- Node1&#45;&gt;Node4 -->
<g id="edge4" class="edge">
<title>Node1&#45;&gt;Node4</title>
<path fill="none" stroke="#191970" d="M297.8846,-280.2455C281.555,-271.4527 257.329,-258.4079 238.7661,-248.4125"/>
<polygon fill="#191970" stroke="#191970" points="240.3719,-245.3021 229.9078,-243.6427 237.0532,-251.4654 240.3719,-245.3021"/>
</g>
<!-- Node7 -->
<g id="node8" class="node">
<title>Node7</title>
<g id="a_node8"><a xlink:href="Meta_8hxx.html" target="_top" xlink:title="util/Meta.hxx">
<polygon fill="none" stroke="#000000" points="215,-112.5 215,-131.5 295,-131.5 295,-112.5 215,-112.5"/>
<text text-anchor="middle" x="255" y="-119.5" font-family="Helvetica,sans-Serif" font-size="10.00" fill="#000000">util/Meta.hxx</text>
</a>
</g>
</g>
<!-- Node1&#45;&gt;Node7 -->
<g id="edge15" class="edge">
<title>Node1&#45;&gt;Node7</title>
<path fill="none" stroke="#191970" d="M313.5587,-280.3251C308.1661,-259.4439 294.4067,-208.7456 278,-168 274.3012,-158.8142 269.4905,-148.9539 265.2255,-140.7276"/>
<polygon fill="#191970" stroke="#191970" points="268.1892,-138.8463 260.4052,-131.6589 262.0081,-142.1317 268.1892,-138.8463"/>
</g>
<!-- Node14 -->
<g id="node15" class="node">
<title>Node14</title>
<g id="a_node15"><a xlink:href="ResourceManager_8inl_8hxx.html" target="_top" xlink:title="ResourceManager.inl.hxx">
<polygon fill="none" stroke="#000000" points="0,-224.5 0,-243.5 138,-243.5 138,-224.5 0,-224.5"/>
<text text-anchor="middle" x="69" y="-231.5" font-family="Helvetica,sans-Serif" font-size="10.00" fill="#000000">ResourceManager.inl.hxx</text>
</a>
</g>
</g>
<!-- Node1&#45;&gt;Node14 -->
<g id="edge16" class="edge">
<title>Node1&#45;&gt;Node14</title>
<path fill="none" stroke="#191970" d="M273.8198,-280.4369C231.5477,-270.8529 166.3938,-256.0812 120.9583,-245.78"/>
<polygon fill="#191970" stroke="#191970" points="121.5326,-242.3215 111.0062,-243.5237 119.9848,-249.1482 121.5326,-242.3215"/>
</g>
<!-- Node5 -->
<g id="node6" class="node">
<title>Node5</title>
<g id="a_node6"><a xlink:href="Events_8hxx.html" target="_top" xlink:title="Events.hxx">
<polygon fill="none" stroke="#000000" points="61.5,-168.5 61.5,-187.5 132.5,-187.5 132.5,-168.5 61.5,-168.5"/>
<text text-anchor="middle" x="97" y="-175.5" font-family="Helvetica,sans-Serif" font-size="10.00" fill="#000000">Events.hxx</text>
</a>
</g>
</g>
<!-- Node4&#45;&gt;Node5 -->
<g id="edge5" class="edge">
<title>Node4&#45;&gt;Node5</title>
<path fill="none" stroke="#191970" d="M192.2308,-224.3733C173.8531,-215.4241 146.2688,-201.9917 125.5107,-191.8835"/>
<polygon fill="#191970" stroke="#191970" points="127.0343,-188.7325 116.5112,-187.5011 123.9696,-195.026 127.0343,-188.7325"/>
</g>
<!-- Node13 -->
<g id="node14" class="node">
<title>Node13</title>
<g id="a_node14"><a xlink:href="GameService_8inl_8hxx.html" target="_top" xlink:title="GameService.inl.hxx">
<polygon fill="none" stroke="#000000" points="151,-168.5 151,-187.5 269,-187.5 269,-168.5 151,-168.5"/>
<text text-anchor="middle" x="210" y="-175.5" font-family="Helvetica,sans-Serif" font-size="10.00" fill="#000000">GameService.inl.hxx</text>
</a>
</g>
</g>
<!-- Node4&#45;&gt;Node13 -->
<g id="edge14" class="edge">
<title>Node4&#45;&gt;Node13</title>
<path fill="none" stroke="#191970" d="M211.6516,-224.2455C211.3907,-216.9382 211.0248,-206.6944 210.7037,-197.7046"/>
<polygon fill="#191970" stroke="#191970" points="214.1992,-197.5113 210.3444,-187.6427 207.2036,-197.7613 214.1992,-197.5113"/>
</g>
<!-- Node5&#45;&gt;Node3 -->
<g id="edge6" class="edge">
<title>Node5&#45;&gt;Node3</title>
<path fill="none" stroke="#191970" d="M132.5578,-170.1014C191.7012,-156.9632 303.8716,-132.0435 304,-132 323.9602,-125.2297 326.6019,-117.307 347,-112 460.3859,-82.5003 826.1341,-70.0293 937.5115,-66.8557"/>
<polygon fill="#191970" stroke="#191970" points="937.8747,-70.347 947.7731,-66.5693 937.6793,-63.3497 937.8747,-70.347"/>
</g>
<!-- Node6 -->
<g id="node7" class="node">
<title>Node6</title>
<polygon fill="none" stroke="#bfbfbf" points="806,-.5 806,-19.5 906,-19.5 906,-.5 806,-.5"/>
<text text-anchor="middle" x="856" y="-7.5" font-family="Helvetica,sans-Serif" font-size="10.00" fill="#000000">betterEnums.hxx</text>
</g>
<!-- Node5&#45;&gt;Node6 -->
<g id="edge7" class="edge">
<title>Node5&#45;&gt;Node6</title>
<path fill="none" stroke="#191970" d="M87.8066,-168.3631C76.5085,-155.2928 59.9949,-131.356 70,-112 89.7622,-73.7678 108.4376,-70.3854 149,-56 209.1218,-34.6779 636.0507,-17.7064 795.8363,-12.0355"/>
<polygon fill="#191970" stroke="#191970" points="796.0976,-15.5286 805.9681,-11.6784 795.8509,-8.5329 796.0976,-15.5286"/>
</g>
<!-- Node5&#45;&gt;Node7 -->
<g id="edge8" class="edge">
<title>Node5&#45;&gt;Node7</title>
<path fill="none" stroke="#191970" d="M124.1612,-168.3733C150.2067,-159.1419 189.7116,-145.1402 218.4979,-134.9375"/>
<polygon fill="#191970" stroke="#191970" points="219.937,-138.1408 228.1933,-131.5011 217.5985,-131.5429 219.937,-138.1408"/>
</g>
<!-- Node12 -->
<g id="node13" class="node">
<title>Node12</title>
<g id="a_node13"><a xlink:href="UIEvents_8hxx.html" target="_top" xlink:title="events/UIEvents.hxx">
<polygon fill="none" stroke="#000000" points="79.5,-112.5 79.5,-131.5 196.5,-131.5 196.5,-112.5 79.5,-112.5"/>
<text text-anchor="middle" x="138" y="-119.5" font-family="Helvetica,sans-Serif" font-size="10.00" fill="#000000">events/UIEvents.hxx</text>
</a>
</g>
</g>
<!-- Node5&#45;&gt;Node12 -->
<g id="edge13" class="edge">
<title>Node5&#45;&gt;Node12</title>
<path fill="none" stroke="#191970" d="M104.1417,-168.2455C109.8444,-160.4564 117.99,-149.3308 124.8625,-139.9439"/>
<polygon fill="#191970" stroke="#191970" points="127.8568,-141.7789 130.9402,-131.6427 122.2087,-137.6437 127.8568,-141.7789"/>
</g>
<!-- Node8 -->
<g id="node9" class="node">
<title>Node8</title>
<polygon fill="none" stroke="#bfbfbf" points="373,-56.5 373,-75.5 433,-75.5 433,-56.5 373,-56.5"/>
<text text-anchor="middle" x="403" y="-63.5" font-family="Helvetica,sans-Serif" font-size="10.00" fill="#000000">iostream</text>
</g>
<!-- Node7&#45;&gt;Node8 -->
<g id="edge9" class="edge">
<title>Node7&#45;&gt;Node8</title>
<path fill="none" stroke="#191970" d="M280.4421,-112.3733C304.7326,-103.1822 341.5208,-89.2624 368.4543,-79.0713"/>
<polygon fill="#191970" stroke="#191970" points="369.7757,-82.3136 377.8899,-75.5011 367.2984,-75.7666 369.7757,-82.3136"/>
</g>
<!-- Node9 -->
<g id="node10" class="node">
<title>Node9</title>
<polygon fill="none" stroke="#bfbfbf" points="216.5,-56.5 216.5,-75.5 285.5,-75.5 285.5,-56.5 216.5,-56.5"/>
<text text-anchor="middle" x="251" y="-63.5" font-family="Helvetica,sans-Serif" font-size="10.00" fill="#000000">type_traits</text>
</g>
<!-- Node7&#45;&gt;Node9 -->
<g id="edge10" class="edge">
<title>Node7&#45;&gt;Node9</title>
<path fill="none" stroke="#191970" d="M254.3033,-112.2455C253.7813,-104.9382 253.0496,-94.6944 252.4075,-85.7046"/>
<polygon fill="#191970" stroke="#191970" points="255.8924,-85.3679 251.6888,-75.6427 248.9102,-85.8667 255.8924,-85.3679"/>
</g>
<!-- Node10 -->
<g id="node11" class="node">
<title>Node10</title>
<polygon fill="none" stroke="#bfbfbf" points="303.5,-56.5 303.5,-75.5 354.5,-75.5 354.5,-56.5 303.5,-56.5"/>
<text text-anchor="middle" x="329" y="-63.5" font-family="Helvetica,sans-Serif" font-size="10.00" fill="#000000">variant</text>
</g>
<!-- Node7&#45;&gt;Node10 -->
<g id="edge11" class="edge">
<title>Node7&#45;&gt;Node10</title>
<path fill="none" stroke="#191970" d="M267.8898,-112.2455C278.9254,-103.8943 295.0292,-91.7076 307.9353,-81.9408"/>
<polygon fill="#191970" stroke="#191970" points="310.3959,-84.4681 316.2579,-75.6427 306.1717,-78.8862 310.3959,-84.4681"/>
</g>
<!-- Node11 -->
<g id="node12" class="node">
<title>Node11</title>
<polygon fill="none" stroke="#bfbfbf" points="157.5,-56.5 157.5,-75.5 198.5,-75.5 198.5,-56.5 157.5,-56.5"/>
<text text-anchor="middle" x="178" y="-63.5" font-family="Helvetica,sans-Serif" font-size="10.00" fill="#000000">tuple</text>
</g>
<!-- Node7&#45;&gt;Node11 -->
<g id="edge12" class="edge">
<title>Node7&#45;&gt;Node11</title>
<path fill="none" stroke="#191970" d="M241.5876,-112.2455C229.9943,-103.814 213.0252,-91.4729 199.5322,-81.6598"/>
<polygon fill="#191970" stroke="#191970" points="201.4047,-78.6938 191.2587,-75.6427 197.2874,-84.355 201.4047,-78.6938"/>
</g>
<!-- Node16 -->
<g id="node17" class="node">
<title>Node16</title>
<polygon fill="none" stroke="#bfbfbf" points="514.5,-112.5 514.5,-131.5 579.5,-131.5 579.5,-112.5 514.5,-112.5"/>
<text text-anchor="middle" x="547" y="-119.5" font-family="Helvetica,sans-Serif" font-size="10.00" fill="#000000">stdexcept</text>
</g>
<!-- Node15&#45;&gt;Node16 -->
<g id="edge18" class="edge">
<title>Node15&#45;&gt;Node16</title>
<path fill="none" stroke="#191970" d="M504.8835,-168.2455C512.1966,-160.2155 522.7391,-148.6394 531.4467,-139.0781"/>
<polygon fill="#191970" stroke="#191970" points="534.0727,-141.3928 538.2183,-131.6427 528.8972,-136.6795 534.0727,-141.3928"/>
</g>
<!-- Node17 -->
<g id="node18" class="node">
<title>Node17</title>
<polygon fill="none" stroke="#bfbfbf" points="431.5,-112.5 431.5,-131.5 496.5,-131.5 496.5,-112.5 431.5,-112.5"/>
<text text-anchor="middle" x="464" y="-119.5" font-family="Helvetica,sans-Serif" font-size="10.00" fill="#000000">exception</text>
</g>
<!-- Node15&#45;&gt;Node17 -->
<g id="edge19" class="edge">
<title>Node15&#45;&gt;Node17</title>
<path fill="none" stroke="#191970" d="M490.426,-168.2455C486.0669,-160.617 479.8789,-149.7881 474.5867,-140.5267"/>
<polygon fill="#191970" stroke="#191970" points="477.5104,-138.5886 469.5101,-131.6427 471.4327,-142.0616 477.5104,-138.5886"/>
</g>
<!-- Node18&#45;&gt;Node3 -->
<g id="edge21" class="edge">
<title>Node18&#45;&gt;Node3</title>
<path fill="none" stroke="#191970" d="M763.737,-230.5682C709.4447,-225.2594 620.9932,-212.9502 601,-188 582.6203,-165.0635 608.6705,-125.4973 627,-112 675.879,-76.007 861.2877,-68.1748 937.2466,-66.4722"/>
<polygon fill="#191970" stroke="#191970" points="937.7028,-69.9638 947.6302,-66.2629 937.5617,-62.9652 937.7028,-69.9638"/>
</g>
<!-- Node18&#45;&gt;Node7 -->
<g id="edge31" class="edge">
<title>Node18&#45;&gt;Node7</title>
<path fill="none" stroke="#191970" d="M763.9138,-230.9348C673.2023,-224.1934 465.277,-207.1468 397,-188 353.9163,-175.9181 307.5339,-152.0893 279.9043,-136.6131"/>
<polygon fill="#191970" stroke="#191970" points="281.3725,-133.4217 270.9496,-131.5203 277.9118,-139.5065 281.3725,-133.4217"/>
</g>
<!-- Node18&#45;&gt;Node8 -->
<g id="edge23" class="edge">
<title>Node18&#45;&gt;Node8</title>
<path fill="none" stroke="#191970" d="M763.7001,-231.4758C670.1014,-225.6283 455.3658,-209.9579 431,-188 402.3256,-162.1592 399.9626,-113.4438 401.2034,-86.0371"/>
<polygon fill="#191970" stroke="#191970" points="404.7178,-85.9352 401.8896,-75.7248 397.7333,-85.4704 404.7178,-85.9352"/>
</g>
<!-- Node18&#45;&gt;Node15 -->
<g id="edge22" class="edge">
<title>Node18&#45;&gt;Node15</title>
<path fill="none" stroke="#191970" d="M763.7568,-226.2134C710.5557,-216.6338 619.817,-200.295 558.9005,-189.3261"/>
<polygon fill="#191970" stroke="#191970" points="559.4777,-185.8739 549.0157,-187.5462 558.2372,-192.7631 559.4777,-185.8739"/>
</g>
<!-- Node19 -->
<g id="node20" class="node">
<title>Node19</title>
<polygon fill="none" stroke="#bfbfbf" points="717,-168.5 717,-187.5 767,-187.5 767,-168.5 717,-168.5"/>
<text text-anchor="middle" x="742" y="-175.5" font-family="Helvetica,sans-Serif" font-size="10.00" fill="#000000">chrono</text>
</g>
<!-- Node18&#45;&gt;Node19 -->
<g id="edge24" class="edge">
<title>Node18&#45;&gt;Node19</title>
<path fill="none" stroke="#191970" d="M795.6779,-224.2455C786.0777,-215.9746 772.1108,-203.9416 760.8305,-194.2232"/>
<polygon fill="#191970" stroke="#191970" points="763.053,-191.5182 753.1924,-187.6427 758.484,-196.8214 763.053,-191.5182"/>
</g>
<!-- Node20 -->
<g id="node21" class="node">
<title>Node20</title>
<polygon fill="none" stroke="#bfbfbf" points="785,-168.5 785,-187.5 829,-187.5 829,-168.5 785,-168.5"/>
<text text-anchor="middle" x="807" y="-175.5" font-family="Helvetica,sans-Serif" font-size="10.00" fill="#000000">ctime</text>
</g>
<!-- Node18&#45;&gt;Node20 -->
<g id="edge25" class="edge">
<title>Node18&#45;&gt;Node20</title>
<path fill="none" stroke="#191970" d="M807,-224.2455C807,-216.9382 807,-206.6944 807,-197.7046"/>
<polygon fill="#191970" stroke="#191970" points="810.5001,-197.6426 807,-187.6427 803.5001,-197.6427 810.5001,-197.6426"/>
</g>
<!-- Node18&#45;&gt;Node21 -->
<g id="edge26" class="edge">
<title>Node18&#45;&gt;Node21</title>
<path fill="none" stroke="#191970" d="M850.0765,-227.7895C900.3357,-220.2512 986.1032,-206.4837 1068.1726,-188.2666"/>
<polygon fill="#191970" stroke="#191970" points="1069.1704,-191.6297 1078.1602,-186.023 1067.6362,-184.7999 1069.1704,-191.6297"/>
</g>
<!-- Node22 -->
<g id="node23" class="node">
<title>Node22</title>
<polygon fill="none" stroke="#bfbfbf" points="847,-168.5 847,-187.5 903,-187.5 903,-168.5 847,-168.5"/>
<text text-anchor="middle" x="875" y="-175.5" font-family="Helvetica,sans-Serif" font-size="10.00" fill="#000000">sstream</text>
</g>
<!-- Node18&#45;&gt;Node22 -->
<g id="edge27" class="edge">
<title>Node18&#45;&gt;Node22</title>
<path fill="none" stroke="#191970" d="M818.8447,-224.2455C828.888,-215.9746 843.4995,-203.9416 855.3004,-194.2232"/>
<polygon fill="#191970" stroke="#191970" points="857.7967,-196.7015 863.291,-187.6427 853.3467,-191.298 857.7967,-196.7015"/>
</g>
<!-- Node23 -->
<g id="node24" class="node">
<title>Node23</title>
<polygon fill="none" stroke="#bfbfbf" points="1674,-112.5 1674,-131.5 1718,-131.5 1718,-112.5 1674,-112.5"/>
<text text-anchor="middle" x="1696" y="-119.5" font-family="Helvetica,sans-Serif" font-size="10.00" fill="#000000">SDL.h</text>
</g>
<!-- Node18&#45;&gt;Node23 -->
<g id="edge28" class="edge">
<title>Node18&#45;&gt;Node23</title>
<path fill="none" stroke="#191970" d="M850.1922,-232.8909C984.2319,-229.1859 1391.8379,-215.8667 1521,-188 1574.2999,-176.5006 1632.9733,-151.6892 1667.0371,-135.9779"/>
<polygon fill="#191970" stroke="#191970" points="1668.7991,-139.0178 1676.3764,-131.6127 1665.8351,-132.6763 1668.7991,-139.0178"/>
</g>
<!-- Node24 -->
<g id="node25" class="node">
<title>Node24</title>
<polygon fill="none" stroke="#bfbfbf" points="1152,-168.5 1152,-187.5 1216,-187.5 1216,-168.5 1152,-168.5"/>
<text text-anchor="middle" x="1184" y="-175.5" font-family="Helvetica,sans-Serif" font-size="10.00" fill="#000000">algorithm</text>
</g>
<!-- Node18&#45;&gt;Node24 -->
<g id="edge29" class="edge">
<title>Node18&#45;&gt;Node24</title>
<path fill="none" stroke="#191970" d="M850.1926,-229.53C912.4976,-222.766 1031.3651,-208.6818 1141.8596,-188.0611"/>
<polygon fill="#191970" stroke="#191970" points="1142.6628,-191.4714 1151.8394,-186.1762 1141.3636,-184.593 1142.6628,-191.4714"/>
</g>
<!-- Node25 -->
<g id="node26" class="node">
<title>Node25</title>
<polygon fill="none" stroke="#bfbfbf" points="921,-168.5 921,-187.5 969,-187.5 969,-168.5 921,-168.5"/>
<text text-anchor="middle" x="945" y="-175.5" font-family="Helvetica,sans-Serif" font-size="10.00" fill="#000000">mutex</text>
</g>
<!-- Node18&#45;&gt;Node25 -->
<g id="edge30" class="edge">
<title>Node18&#45;&gt;Node25</title>
<path fill="none" stroke="#191970" d="M830.723,-224.3733C853.1737,-215.2629 887.0739,-201.5062 912.1255,-191.3404"/>
<polygon fill="#191970" stroke="#191970" points="913.6365,-194.5045 921.5865,-187.5011 911.0043,-188.0182 913.6365,-194.5045"/>
</g>
<!-- Node26 -->
<g id="node27" class="node">
<title>Node26</title>
<g id="a_node27"><a xlink:href="filesystem_8hxx.html" target="_top" xlink:title="filesystem.hxx">
<polygon fill="none" stroke="#000000" points="609.5,-168.5 609.5,-187.5 698.5,-187.5 698.5,-168.5 609.5,-168.5"/>
<text text-anchor="middle" x="654" y="-175.5" font-family="Helvetica,sans-Serif" font-size="10.00" fill="#000000">filesystem.hxx</text>
</a>
</g>
</g>
<!-- Node18&#45;&gt;Node26 -->
<g id="edge32" class="edge">
<title>Node18&#45;&gt;Node26</title>
<path fill="none" stroke="#191970" d="M780.6984,-224.3733C755.5872,-215.1822 717.5562,-201.2624 689.7128,-191.0713"/>
<polygon fill="#191970" stroke="#191970" points="690.5522,-187.6516 679.9584,-187.5011 688.1462,-194.2251 690.5522,-187.6516"/>
</g>
<!-- Node28 -->
<g id="node29" class="node">
<title>Node28</title>
<g id="a_node29"><a xlink:href="LOG_8inl_8hxx.html" target="_top" xlink:title="LOG.inl.hxx">
<polygon fill="none" stroke="#000000" points="987.5,-168.5 987.5,-187.5 1060.5,-187.5 1060.5,-168.5 987.5,-168.5"/>
<text text-anchor="middle" x="1024" y="-175.5" font-family="Helvetica,sans-Serif" font-size="10.00" fill="#000000">LOG.inl.hxx</text>
</a>
</g>
</g>
<!-- Node18&#45;&gt;Node28 -->
<g id="edge34" class="edge">
<title>Node18&#45;&gt;Node28</title>
<path fill="none" stroke="#191970" d="M844.3036,-224.3733C881.1685,-214.8598 937.666,-200.2797 977.4506,-190.0127"/>
<polygon fill="#191970" stroke="#191970" points="978.375,-193.3889 987.1831,-187.5011 976.6258,-186.611 978.375,-193.3889"/>
</g>
<!-- Node27 -->
<g id="node28" class="node">
<title>Node27</title>
<polygon fill="none" stroke="#bfbfbf" points="636,-112.5 636,-131.5 690,-131.5 690,-112.5 636,-112.5"/>
<text text-anchor="middle" x="663" y="-119.5" font-family="Helvetica,sans-Serif" font-size="10.00" fill="#000000">ciso646</text>
</g>
<!-- Node26&#45;&gt;Node27 -->
<g id="edge33" class="edge">
<title>Node26&#45;&gt;Node27</title>
<path fill="none" stroke="#191970" d="M655.5677,-168.2455C656.7421,-160.9382 658.3884,-150.6944 659.8332,-141.7046"/>
<polygon fill="#191970" stroke="#191970" points="663.3191,-142.0714 661.4503,-131.6427 656.4078,-140.9606 663.3191,-142.0714"/>
</g>
<!-- Node30 -->
<g id="node31" class="node">
<title>Node30</title>
<polygon fill="none" stroke="#bfbfbf" points="1282,-112.5 1282,-131.5 1340,-131.5 1340,-112.5 1282,-112.5"/>
<text text-anchor="middle" x="1311" y="-119.5" font-family="Helvetica,sans-Serif" font-size="10.00" fill="#000000">json.hxx</text>
</g>
<!-- Node29&#45;&gt;Node30 -->
<g id="edge36" class="edge">
<title>Node29&#45;&gt;Node30</title>
<path fill="none" stroke="#191970" d="M1526.332,-336.375C1491.4975,-301.6953 1372.1344,-182.8627 1327.7762,-138.7017"/>
<polygon fill="#191970" stroke="#191970" points="1330.1881,-136.1641 1320.632,-131.5891 1325.2494,-141.1249 1330.1881,-136.1641"/>
</g>
<!-- Node31 -->
<g id="node32" class="node">
<title>Node31</title>
<g id="a_node32"><a xlink:href="point_8hxx.html" target="_top" xlink:title="point.hxx">
<polygon fill="none" stroke="#000000" points="1774,-112.5 1774,-131.5 1836,-131.5 1836,-112.5 1774,-112.5"/>
<text text-anchor="middle" x="1805" y="-119.5" font-family="Helvetica,sans-Serif" font-size="10.00" fill="#000000">point.hxx</text>
</a>
</g>
</g>
<!-- Node29&#45;&gt;Node31 -->
<g id="edge37" class="edge">
<title>Node29&#45;&gt;Node31</title>
<path fill="none" stroke="#191970" d="M1618.2456,-337.9152C1708.6683,-324.1386 1849.8765,-287.1049 1916,-188 1936.3183,-157.5472 1885.5584,-139.0911 1846.1266,-129.7171"/>
<polygon fill="#191970" stroke="#191970" points="1846.665,-126.2509 1836.141,-127.4736 1845.1305,-133.0806 1846.665,-126.2509"/>
</g>
<!-- Node32 -->
<g id="node33" class="node">
<title>Node32</title>
<g id="a_node33"><a xlink:href="MapNode_8hxx.html" target="_top" xlink:title="GameObjects/MapNode.hxx">
<polygon fill="none" stroke="#000000" points="1613,-224.5 1613,-243.5 1765,-243.5 1765,-224.5 1613,-224.5"/>
<text text-anchor="middle" x="1689" y="-231.5" font-family="Helvetica,sans-Serif" font-size="10.00" fill="#000000">GameObjects/MapNode.hxx</text>
</a>
</g>
</g>
<!-- Node29&#45;&gt;Node32 -->
<g id="edge38" class="edge">
<title>Node29&#45;&gt;Node32</title>
<path fill="none" stroke="#191970" d="M1549.0447,-336.4509C1575.4666,-317.1094 1635.523,-273.1465 1667.7024,-249.5904"/>
<polygon fill="#191970" stroke="#191970" points="1669.9866,-252.2559 1675.9883,-243.5249 1665.8518,-246.6075 1669.9866,-252.2559"/>
</g>
<!-- Node42 -->
<g id="node43" class="node">
<title>Node42</title>
<g id="a_node43"><a xlink:href="TerrainGenerator_8hxx.html" target="_top" xlink:title="TerrainGenerator.hxx">
<polygon fill="none" stroke="#000000" points="1999.5,-280.5 1999.5,-299.5 2118.5,-299.5 2118.5,-280.5 1999.5,-280.5"/>
<text text-anchor="middle" x="2059" y="-287.5" font-family="Helvetica,sans-Serif" font-size="10.00" fill="#000000">TerrainGenerator.hxx</text>
</a>
</g>
</g>
<!-- Node29&#45;&gt;Node42 -->
<g id="edge64" class="edge">
<title>Node29&#45;&gt;Node42</title>
<path fill="none" stroke="#191970" d="M1618.0196,-338.3973C1708.1037,-329.8605 1856.9983,-315.2016 1985,-300 1986.3034,-299.8452 1987.6195,-299.687 1988.9452,-299.5259"/>
<polygon fill="#191970" stroke="#191970" points="1989.7559,-302.9521 1999.2466,-298.2429 1988.8906,-296.0058 1989.7559,-302.9521"/>
</g>
<!-- Node44 -->
<g id="node45" class="node">
<title>Node44</title>
<g id="a_node45"><a xlink:href="Settings_8hxx.html" target="_top" xlink:title="Settings.hxx">
<polygon fill="none" stroke="#000000" points="1234.5,-168.5 1234.5,-187.5 1311.5,-187.5 1311.5,-168.5 1234.5,-168.5"/>
<text text-anchor="middle" x="1273" y="-175.5" font-family="Helvetica,sans-Serif" font-size="10.00" fill="#000000">Settings.hxx</text>
</a>
</g>
</g>
<!-- Node29&#45;&gt;Node44 -->
<g id="edge68" class="edge">
<title>Node29&#45;&gt;Node44</title>
<path fill="none" stroke="#191970" d="M1457.7167,-336.4325C1426.565,-329.8424 1391.6347,-318.729 1364,-300 1324.6269,-273.3155 1295.6324,-223.8394 1281.8877,-196.816"/>
<polygon fill="#191970" stroke="#191970" points="1284.9336,-195.0786 1277.3767,-187.6527 1278.6533,-198.1703 1284.9336,-195.0786"/>
</g>
<!-- Node32&#45;&gt;Node3 -->
<g id="edge41" class="edge">
<title>Node32&#45;&gt;Node3</title>
<path fill="none" stroke="#191970" d="M1678.3933,-224.4965C1648.7097,-198.12 1564.7692,-125.085 1531,-112 1433.4226,-74.1903 1106.465,-67.4484 1002.2231,-66.2547"/>
<polygon fill="#191970" stroke="#191970" points="1002.0489,-62.7527 992.0128,-66.1476 1001.9755,-69.7524 1002.0489,-62.7527"/>
</g>
<!-- Node32&#45;&gt;Node23 -->
<g id="edge39" class="edge">
<title>Node32&#45;&gt;Node23</title>
<path fill="none" stroke="#191970" d="M1684.2779,-224.1533C1678.6931,-211.2488 1670.669,-187.9156 1675,-168 1677.0425,-158.6079 1681.1789,-148.8357 1685.2447,-140.7264"/>
<polygon fill="#191970" stroke="#191970" points="1688.3909,-142.2651 1690.0235,-131.7968 1682.2191,-138.9622 1688.3909,-142.2651"/>
</g>
<!-- Node32&#45;&gt;Node24 -->
<g id="edge42" class="edge">
<title>Node32&#45;&gt;Node24</title>
<path fill="none" stroke="#191970" d="M1612.7957,-229.5873C1520.6926,-223.5278 1361.2265,-210.7096 1226,-188 1225.8984,-187.9829 1225.7966,-187.9658 1225.6947,-187.9485"/>
<polygon fill="#191970" stroke="#191970" points="1226.4931,-184.5379 1216.0128,-186.0916 1225.1745,-191.4126 1226.4931,-184.5379"/>
</g>
<!-- Node32&#45;&gt;Node31 -->
<g id="edge52" class="edge">
<title>Node32&#45;&gt;Node31</title>
<path fill="none" stroke="#191970" d="M1696.5635,-224.0724C1706.9909,-210.6726 1726.6917,-186.3636 1746,-168 1757.5497,-157.0154 1771.5842,-145.9915 1783.0671,-137.4903"/>
<polygon fill="#191970" stroke="#191970" points="1785.2407,-140.2373 1791.2674,-131.5235 1781.1221,-134.5771 1785.2407,-140.2373"/>
</g>
<!-- Node33 -->
<g id="node34" class="node">
<title>Node33</title>
<polygon fill="none" stroke="#bfbfbf" points="1755,-168.5 1755,-187.5 1813,-187.5 1813,-168.5 1755,-168.5"/>
<text text-anchor="middle" x="1784" y="-175.5" font-family="Helvetica,sans-Serif" font-size="10.00" fill="#000000">memory</text>
</g>
<!-- Node32&#45;&gt;Node33 -->
<g id="edge40" class="edge">
<title>Node32&#45;&gt;Node33</title>
<path fill="none" stroke="#191970" d="M1705.5477,-224.2455C1720.2599,-215.5731 1741.9888,-202.7645 1758.8505,-192.825"/>
<polygon fill="#191970" stroke="#191970" points="1760.8046,-195.736 1767.6419,-187.6427 1757.2498,-189.7057 1760.8046,-195.736"/>
</g>
<!-- Node34 -->
<g id="node35" class="node">
<title>Node34</title>
<polygon fill="none" stroke="#bfbfbf" points="1897.5,-56.5 1897.5,-75.5 1944.5,-75.5 1944.5,-56.5 1897.5,-56.5"/>
<text text-anchor="middle" x="1921" y="-63.5" font-family="Helvetica,sans-Serif" font-size="10.00" fill="#000000">vector</text>
</g>
<!-- Node32&#45;&gt;Node34 -->
<g id="edge43" class="edge">
<title>Node32&#45;&gt;Node34</title>
<path fill="none" stroke="#191970" d="M1765.2204,-228.4978C1823.3499,-222.561 1896.6313,-210.7214 1916,-188 1940.3065,-159.486 1933.4326,-112.1893 1926.8473,-85.6385"/>
<polygon fill="#191970" stroke="#191970" points="1930.1321,-84.3788 1924.1345,-75.6451 1923.3766,-86.2127 1930.1321,-84.3788"/>
</g>
<!-- Node35 -->
<g id="node36" class="node">
<title>Node35</title>
<g id="a_node36"><a xlink:href="Sprite_8hxx.html" target="_top" xlink:title="../Sprite.hxx">
<polygon fill="none" stroke="#000000" points="1831.5,-168.5 1831.5,-187.5 1906.5,-187.5 1906.5,-168.5 1831.5,-168.5"/>
<text text-anchor="middle" x="1869" y="-175.5" font-family="Helvetica,sans-Serif" font-size="10.00" fill="#000000">../Sprite.hxx</text>
</a>
</g>
</g>
<!-- Node32&#45;&gt;Node35 -->
<g id="edge44" class="edge">
<title>Node32&#45;&gt;Node35</title>
<path fill="none" stroke="#191970" d="M1719.9431,-224.3733C1750.0039,-215.021 1795.8026,-200.7725 1828.6978,-190.5385"/>
<polygon fill="#191970" stroke="#191970" points="1829.9519,-193.8139 1838.4607,-187.5011 1827.8723,-187.1299 1829.9519,-193.8139"/>
</g>
<!-- Node36 -->
<g id="node37" class="node">
<title>Node36</title>
<g id="a_node37"><a xlink:href="enums_8hxx.html" target="_top" xlink:title="common/enums.hxx">
<polygon fill="none" stroke="#000000" points="1623,-56.5 1623,-75.5 1739,-75.5 1739,-56.5 1623,-56.5"/>
<text text-anchor="middle" x="1681" y="-63.5" font-family="Helvetica,sans-Serif" font-size="10.00" fill="#000000">common/enums.hxx</text>
</a>
</g>
</g>
<!-- Node32&#45;&gt;Node36 -->
<g id="edge51" class="edge">
<title>Node32&#45;&gt;Node36</title>
<path fill="none" stroke="#191970" d="M1693.7832,-224.272C1705.8099,-199.2439 1735.7442,-133.1104 1727,-112 1722.1688,-100.3363 1712.7863,-90.0881 1703.7482,-82.243"/>
<polygon fill="#191970" stroke="#191970" points="1705.667,-79.2942 1695.6852,-75.7423 1701.2734,-84.7436 1705.667,-79.2942"/>
</g>
<!-- Node38 -->
<g id="node39" class="node">
<title>Node38</title>
<g id="a_node39"><a xlink:href="TileManager_8hxx.html" target="_top" xlink:title="../TileManager.hxx">
<polygon fill="none" stroke="#000000" points="1406,-168.5 1406,-187.5 1512,-187.5 1512,-168.5 1406,-168.5"/>
<text text-anchor="middle" x="1459" y="-175.5" font-family="Helvetica,sans-Serif" font-size="10.00" fill="#000000">../TileManager.hxx</text>
</a>
</g>
</g>
<!-- Node32&#45;&gt;Node38 -->
<g id="edge53" class="edge">
<title>Node32&#45;&gt;Node38</title>
<path fill="none" stroke="#191970" d="M1649.7229,-224.4369C1610.5256,-214.8932 1550.2,-200.2052 1507.9165,-189.9101"/>
<polygon fill="#191970" stroke="#191970" points="1508.6592,-186.4888 1498.1151,-187.5237 1507.0032,-193.2901 1508.6592,-186.4888"/>
</g>
<!-- Node35&#45;&gt;Node23 -->
<g id="edge45" class="edge">
<title>Node35&#45;&gt;Node23</title>
<path fill="none" stroke="#191970" d="M1839.2602,-168.3733C1808.2265,-158.3276 1759.7409,-142.6329 1727.9188,-132.3321"/>
<polygon fill="#191970" stroke="#191970" points="1728.8076,-128.941 1718.2157,-129.1912 1726.6518,-135.6008 1728.8076,-128.941"/>
</g>
<!-- Node35&#45;&gt;Node31 -->
<g id="edge47" class="edge">
<title>Node35&#45;&gt;Node31</title>
<path fill="none" stroke="#191970" d="M1857.8521,-168.2455C1848.4913,-160.0549 1834.9142,-148.1749 1823.8651,-138.5069"/>
<polygon fill="#191970" stroke="#191970" points="1825.8508,-135.5937 1816.0202,-131.6427 1821.2412,-140.8618 1825.8508,-135.5937"/>
</g>
<!-- Node35&#45;&gt;Node34 -->
<g id="edge46" class="edge">
<title>Node35&#45;&gt;Node34</title>
<path fill="none" stroke="#191970" d="M1873.4335,-168.4509C1882.0297,-149.936 1901.1011,-108.8591 1912.3092,-84.7187"/>
<polygon fill="#191970" stroke="#191970" points="1915.5411,-86.0689 1916.5777,-75.5249 1909.192,-83.1211 1915.5411,-86.0689"/>
</g>
<!-- Node35&#45;&gt;Node36 -->
<g id="edge48" class="edge">
<title>Node35&#45;&gt;Node36</title>
<path fill="none" stroke="#191970" d="M1868.2218,-168.4263C1866.5367,-154.0818 1861.2704,-127.089 1845,-112 1830.1087,-98.19 1783.9825,-85.9565 1744.4274,-77.5836"/>
<polygon fill="#191970" stroke="#191970" points="1745.037,-74.1357 1734.5355,-75.5395 1743.6203,-80.9909 1745.037,-74.1357"/>
</g>
<!-- Node36&#45;&gt;Node6 -->
<g id="edge50" class="edge">
<title>Node36&#45;&gt;Node6</title>
<path fill="none" stroke="#191970" d="M1622.9876,-62.0622C1472.3135,-51.8346 1069.6522,-24.5025 916.3774,-14.0983"/>
<polygon fill="#191970" stroke="#191970" points="916.4271,-10.5938 906.213,-13.4084 915.953,-17.5777 916.4271,-10.5938"/>
</g>
<!-- Node37 -->
<g id="node38" class="node">
<title>Node37</title>
<polygon fill="none" stroke="#bfbfbf" points="1653,-.5 1653,-19.5 1709,-19.5 1709,-.5 1653,-.5"/>
<text text-anchor="middle" x="1681" y="-7.5" font-family="Helvetica,sans-Serif" font-size="10.00" fill="#000000">stddef.h</text>
</g>
<!-- Node36&#45;&gt;Node37 -->
<g id="edge49" class="edge">
<title>Node36&#45;&gt;Node37</title>
<path fill="none" stroke="#191970" d="M1681,-56.2455C1681,-48.9382 1681,-38.6944 1681,-29.7046"/>
<polygon fill="#191970" stroke="#191970" points="1684.5001,-29.6426 1681,-19.6427 1677.5001,-29.6427 1684.5001,-29.6426"/>
</g>
<!-- Node38&#45;&gt;Node2 -->
<g id="edge55" class="edge">
<title>Node38&#45;&gt;Node2</title>
<path fill="none" stroke="#191970" d="M1417.6737,-168.4369C1376.2573,-158.8529 1312.4223,-144.0812 1267.9065,-133.78"/>
<polygon fill="#191970" stroke="#191970" points="1268.6875,-130.3683 1258.1559,-131.5237 1267.1093,-137.1881 1268.6875,-130.3683"/>
</g>
<!-- Node38&#45;&gt;Node3 -->
<g id="edge56" class="edge">
<title>Node38&#45;&gt;Node3</title>
<path fill="none" stroke="#191970" d="M1444.8261,-168.4709C1419.9112,-151.8969 1369.0117,-118.8679 1349,-112 1285.0076,-90.0381 1082.0591,-73.8505 1002.4712,-68.194"/>
<polygon fill="#191970" stroke="#191970" points="1002.3073,-64.674 992.087,-67.4663 1001.8178,-71.6569 1002.3073,-64.674"/>
</g>
<!-- Node38&#45;&gt;Node23 -->
<g id="edge54" class="edge">
<title>Node38&#45;&gt;Node23</title>
<path fill="none" stroke="#191970" d="M1507.5923,-168.47C1547.3217,-160.3808 1605.1195,-147.9377 1663.8996,-132.1292"/>
<polygon fill="#191970" stroke="#191970" points="1664.9916,-135.4595 1673.7227,-129.4579 1663.1546,-128.7048 1664.9916,-135.4595"/>
</g>
<!-- Node38&#45;&gt;Node30 -->
<g id="edge61" class="edge">
<title>Node38&#45;&gt;Node30</title>
<path fill="none" stroke="#191970" d="M1433.5579,-168.3733C1409.2674,-159.1822 1372.4792,-145.2624 1345.5457,-135.0713"/>
<polygon fill="#191970" stroke="#191970" points="1346.7016,-131.7666 1336.1101,-131.5011 1344.2243,-138.3136 1346.7016,-131.7666"/>
</g>
<!-- Node39 -->
<g id="node40" class="node">
<title>Node39</title>
<g id="a_node40"><a xlink:href="tileData_8hxx.html" target="_top" xlink:title="tileData.hxx">
<polygon fill="none" stroke="#000000" points="1578.5,-112.5 1578.5,-131.5 1655.5,-131.5 1655.5,-112.5 1578.5,-112.5"/>
<text text-anchor="middle" x="1617" y="-119.5" font-family="Helvetica,sans-Serif" font-size="10.00" fill="#000000">tileData.hxx</text>
</a>
</g>
</g>
<!-- Node38&#45;&gt;Node39 -->
<g id="edge57" class="edge">
<title>Node38&#45;&gt;Node39</title>
<path fill="none" stroke="#191970" d="M1486.1612,-168.3733C1512.2067,-159.1419 1551.7116,-145.1402 1580.4979,-134.9375"/>
<polygon fill="#191970" stroke="#191970" points="1581.937,-138.1408 1590.1933,-131.5011 1579.5985,-131.5429 1581.937,-138.1408"/>
</g>
<!-- Node40 -->
<g id="node41" class="node">
<title>Node40</title>
<g id="a_node41"><a xlink:href="Singleton_8hxx.html" target="_top" xlink:title="Singleton.hxx">
<polygon fill="none" stroke="#000000" points="1069.5,-112.5 1069.5,-131.5 1152.5,-131.5 1152.5,-112.5 1069.5,-112.5"/>
<text text-anchor="middle" x="1111" y="-119.5" font-family="Helvetica,sans-Serif" font-size="10.00" fill="#000000">Singleton.hxx</text>
</a>
</g>
</g>
<!-- Node38&#45;&gt;Node40 -->
<g id="edge62" class="edge">
<title>Node38&#45;&gt;Node40</title>
<path fill="none" stroke="#191970" d="M1405.7805,-170.4118C1348.3576,-162.0774 1253.9815,-147.9561 1162.6885,-132.0658"/>
<polygon fill="#191970" stroke="#191970" points="1163.1769,-128.5982 1152.7233,-130.3219 1161.9703,-135.4934 1163.1769,-128.5982"/>
</g>
<!-- Node41 -->
<g id="node42" class="node">
<title>Node41</title>
<polygon fill="none" stroke="#bfbfbf" points="1396.5,-112.5 1396.5,-131.5 1521.5,-131.5 1521.5,-112.5 1396.5,-112.5"/>
<text text-anchor="middle" x="1459" y="-119.5" font-family="Helvetica,sans-Serif" font-size="10.00" fill="#000000">../common/enums.hxx</text>
</g>
<!-- Node38&#45;&gt;Node41 -->
<g id="edge63" class="edge">
<title>Node38&#45;&gt;Node41</title>
<path fill="none" stroke="#191970" d="M1459,-168.2455C1459,-160.9382 1459,-150.6944 1459,-141.7046"/>
<polygon fill="#191970" stroke="#191970" points="1462.5001,-141.6426 1459,-131.6427 1455.5001,-141.6427 1462.5001,-141.6426"/>
</g>
<!-- Node39&#45;&gt;Node3 -->
<g id="edge58" class="edge">
<title>Node39&#45;&gt;Node3</title>
<path fill="none" stroke="#191970" d="M1578.2915,-114.1914C1573.4912,-113.3723 1568.6412,-112.6157 1564,-112 1350.6821,-83.7019 1091.7826,-71.018 1002.2682,-67.2588"/>
<polygon fill="#191970" stroke="#191970" points="1002.3416,-63.759 992.2059,-66.8442 1002.0533,-70.7531 1002.3416,-63.759"/>
</g>
<!-- Node39&#45;&gt;Node34 -->
<g id="edge59" class="edge">
<title>Node39&#45;&gt;Node34</title>
<path fill="none" stroke="#191970" d="M1655.7541,-113.8305C1658.8802,-113.2007 1661.9917,-112.5835 1665,-112 1744.5018,-96.5789 1838.2508,-80.1889 1887.2682,-71.7557"/>
<polygon fill="#191970" stroke="#191970" points="1888.0488,-75.173 1897.3124,-70.0314 1886.8643,-68.2739 1888.0488,-75.173"/>
</g>
<!-- Node39&#45;&gt;Node36 -->
<g id="edge60" class="edge">
<title>Node39&#45;&gt;Node36</title>
<path fill="none" stroke="#191970" d="M1628.1479,-112.2455C1637.5087,-104.0549 1651.0858,-92.1749 1662.1349,-82.5069"/>
<polygon fill="#191970" stroke="#191970" points="1664.7588,-84.8618 1669.9798,-75.6427 1660.1492,-79.5937 1664.7588,-84.8618"/>
</g>
<!-- Node42&#45;&gt;Node32 -->
<g id="edge65" class="edge">
<title>Node42&#45;&gt;Node32</title>
<path fill="none" stroke="#191970" d="M1999.1419,-280.9404C1934.4217,-271.1449 1831.2344,-255.5274 1761.8501,-245.026"/>
<polygon fill="#191970" stroke="#191970" points="1762.2781,-241.551 1751.8669,-243.515 1761.2305,-248.4721 1762.2781,-241.551"/>
</g>
<!-- Node42&#45;&gt;Node34 -->
<g id="edge67" class="edge">
<title>Node42&#45;&gt;Node34</title>
<path fill="none" stroke="#191970" d="M2052.9289,-280.1673C2047.2146,-270.8792 2038.4459,-256.541 2031,-244 2011.0742,-210.4393 2007.3856,-201.2834 1987,-168 1968.8352,-138.3426 1946.6898,-104.5745 1933.2272,-84.2943"/>
<polygon fill="#191970" stroke="#191970" points="1935.9897,-82.1281 1927.5345,-75.7438 1930.1629,-86.0074 1935.9897,-82.1281"/>
</g>
<!-- Node43 -->
<g id="node44" class="node">
<title>Node43</title>
<polygon fill="none" stroke="#bfbfbf" points="2040,-224.5 2040,-243.5 2078,-243.5 2078,-224.5 2040,-224.5"/>
<text text-anchor="middle" x="2059" y="-231.5" font-family="Helvetica,sans-Serif" font-size="10.00" fill="#000000">map</text>
</g>
<!-- Node42&#45;&gt;Node43 -->
<g id="edge66" class="edge">
<title>Node42&#45;&gt;Node43</title>
<path fill="none" stroke="#191970" d="M2059,-280.2455C2059,-272.9382 2059,-262.6944 2059,-253.7046"/>
<polygon fill="#191970" stroke="#191970" points="2062.5001,-253.6426 2059,-243.6427 2055.5001,-253.6427 2062.5001,-253.6426"/>
</g>
<!-- Node44&#45;&gt;Node3 -->
<g id="edge69" class="edge">
<title>Node44&#45;&gt;Node3</title>
<path fill="none" stroke="#191970" d="M1234.262,-169.7445C1231.1323,-169.134 1228.0156,-168.5447 1225,-168 1173.0099,-158.6091 1029.9174,-166.6087 990,-132 976.8801,-120.625 972.2067,-100.9555 970.6203,-86.0405"/>
<polygon fill="#191970" stroke="#191970" points="974.0928,-85.5164 969.9202,-75.7779 967.109,-85.9929 974.0928,-85.5164"/>
</g>
<!-- Node44&#45;&gt;Node7 -->
<g id="edge71" class="edge">
<title>Node44&#45;&gt;Node7</title>
<path fill="none" stroke="#191970" d="M1234.317,-169.385C1231.175,-168.8551 1228.0405,-168.3824 1225,-168 870.9862,-123.4708 779.3182,-150.6009 423,-132 383.5064,-129.9383 338.8116,-127.2613 305.4557,-125.196"/>
<polygon fill="#191970" stroke="#191970" points="305.2433,-121.6761 295.0453,-124.5485 304.8087,-128.6626 305.2433,-121.6761"/>
</g>
<!-- Node44&#45;&gt;Node40 -->
<g id="edge70" class="edge">
<title>Node44&#45;&gt;Node40</title>
<path fill="none" stroke="#191970" d="M1245.1512,-168.3733C1218.3297,-159.1016 1177.5873,-145.0178 1148.0402,-134.804"/>
<polygon fill="#191970" stroke="#191970" points="1149.0802,-131.4603 1138.4854,-131.5011 1146.7931,-138.0762 1149.0802,-131.4603"/>
</g>
<!-- Node45 -->
<g id="node46" class="node">
<title>Node45</title>
<polygon fill="none" stroke="#bfbfbf" points="998.5,-112.5 998.5,-131.5 1051.5,-131.5 1051.5,-112.5 998.5,-112.5"/>
<text text-anchor="middle" x="1025" y="-119.5" font-family="Helvetica,sans-Serif" font-size="10.00" fill="#000000">cstddef</text>
</g>
<!-- Node44&#45;&gt;Node45 -->
<g id="edge72" class="edge">
<title>Node44&#45;&gt;Node45</title>
<path fill="none" stroke="#191970" d="M1234.138,-169.8467C1186.0605,-159.7151 1106.0205,-142.6915 1061.4336,-131.9796"/>
<polygon fill="#191970" stroke="#191970" points="1062.2367,-128.573 1051.6915,-129.5976 1060.574,-135.3726 1062.2367,-128.573"/>
</g>
</g>
</svg>
