<?xml version="1.0" encoding="UTF-8" standalone="no"?>
<!DOCTYPE svg PUBLIC "-//W3C//DTD SVG 1.1//EN"
 "http://www.w3.org/Graphics/SVG/1.1/DTD/svg11.dtd">
<!-- Generated by graphviz version 2.40.1 (20161225.0304)
 -->
<!-- Title: src/Scripting/ScriptEngine.cxx Pages: 1 -->
<svg width="750pt" height="84pt"
 viewBox="0.00 0.00 750.00 84.00" xmlns="http://www.w3.org/2000/svg" xmlns:xlink="http://www.w3.org/1999/xlink">
<g id="graph0" class="graph" transform="scale(1 1) rotate(0) translate(4 80)">
<title>src/Scripting/ScriptEngine.cxx</title>
<!-- Node0 -->
<g id="node1" class="node">
<title>Node0</title>
<polygon fill="#bfbfbf" stroke="#000000" points="393.5,-56.5 393.5,-75.5 554.5,-75.5 554.5,-56.5 393.5,-56.5"/>
<text text-anchor="middle" x="474" y="-63.5" font-family="Helvetica,sans-Serif" font-size="10.00" fill="#000000">src/Scripting/ScriptEngine.cxx</text>
</g>
<!-- Node1 -->
<g id="node2" class="node">
<title>Node1</title>
<g id="a_node2"><a xlink:href="ScriptEngine_8hxx.html" target="_top" xlink:title="ScriptEngine.hxx">
<polygon fill="none" stroke="#000000" points="0,-.5 0,-19.5 98,-19.5 98,-.5 0,-.5"/>
<text text-anchor="middle" x="49" y="-7.5" font-family="Helvetica,sans-Serif" font-size="10.00" fill="#000000">ScriptEngine.hxx</text>
</a>
</g>
</g>
<!-- Node0&#45;&gt;Node1 -->
<g id="edge1" class="edge">
<title>Node0&#45;&gt;Node1</title>
<path fill="none" stroke="#191970" d="M393.3104,-56.9682C321.1805,-48.646 212.3484,-35.4795 108.0955,-20.1096"/>
<polygon fill="#191970" stroke="#191970" points="108.4275,-16.6206 98.0222,-18.6154 107.4004,-23.5449 108.4275,-16.6206"/>
</g>
<!-- Node2 -->
<g id="node3" class="node">
<title>Node2</title>
<polygon fill="none" stroke="#bfbfbf" points="116,-.5 116,-19.5 196,-19.5 196,-.5 116,-.5"/>
<text text-anchor="middle" x="156" y="-7.5" font-family="Helvetica,sans-Serif" font-size="10.00" fill="#000000">angelscript.h</text>
</g>
<!-- Node0&#45;&gt;Node2 -->
<g id="edge2" class="edge">
<title>Node0&#45;&gt;Node2</title>
<path fill="none" stroke="#191970" d="M415.1311,-56.489C362.806,-47.9088 283.9721,-34.6739 206.0781,-20.1595"/>
<polygon fill="#191970" stroke="#191970" points="206.5641,-16.6898 196.0909,-18.2904 205.2764,-23.5703 206.5641,-16.6898"/>
</g>
<!-- Node3 -->
<g id="node4" class="node">
<title>Node3</title>
<polygon fill="none" stroke="#bfbfbf" points="214,-.5 214,-19.5 382,-19.5 382,-.5 214,-.5"/>
<text text-anchor="middle" x="298" y="-7.5" font-family="Helvetica,sans-Serif" font-size="10.00" fill="#000000">scriptstdstring/scriptstdstring.h</text>
</g>
<!-- Node0&#45;&gt;Node3 -->
<g id="edge3" class="edge">
<title>Node0&#45;&gt;Node3</title>
<path fill="none" stroke="#191970" d="M443.7445,-56.3733C414.3517,-47.021 369.5708,-32.7725 337.4066,-22.5385"/>
<polygon fill="#191970" stroke="#191970" points="338.4512,-19.198 327.8607,-19.5011 336.3287,-25.8685 338.4512,-19.198"/>
</g>
<!-- Node4 -->
<g id="node5" class="node">
<title>Node4</title>
<polygon fill="none" stroke="#bfbfbf" points="399.5,-.5 399.5,-19.5 548.5,-19.5 548.5,-.5 399.5,-.5"/>
<text text-anchor="middle" x="474" y="-7.5" font-family="Helvetica,sans-Serif" font-size="10.00" fill="#000000">scriptbuilder/scriptbuilder.h</text>
</g>
<!-- Node0&#45;&gt;Node4 -->
<g id="edge4" class="edge">
<title>Node0&#45;&gt;Node4</title>
<path fill="none" stroke="#191970" d="M474,-56.2455C474,-48.9382 474,-38.6944 474,-29.7046"/>
<polygon fill="#191970" stroke="#191970" points="477.5001,-29.6426 474,-19.6427 470.5001,-29.6427 477.5001,-29.6426"/>
</g>
<!-- Node5 -->
<g id="node6" class="node">
<title>Node5</title>
<polygon fill="none" stroke="#bfbfbf" points="566,-.5 566,-19.5 618,-19.5 618,-.5 566,-.5"/>
<text text-anchor="middle" x="592" y="-7.5" font-family="Helvetica,sans-Serif" font-size="10.00" fill="#000000">cassert</text>
</g>
<!-- Node0&#45;&gt;Node5 -->
<g id="edge5" class="edge">
<title>Node0&#45;&gt;Node5</title>
<path fill="none" stroke="#191970" d="M494.2849,-56.3733C513.1421,-47.4241 541.446,-33.9917 562.7455,-23.8835"/>
<polygon fill="#191970" stroke="#191970" points="564.4461,-26.9506 571.9798,-19.5011 561.4449,-20.6266 564.4461,-26.9506"/>
</g>
<!-- Node6 -->
<g id="node7" class="node">
<title>Node6</title>
<polygon fill="none" stroke="#bfbfbf" points="636,-.5 636,-19.5 680,-19.5 680,-.5 636,-.5"/>
<text text-anchor="middle" x="658" y="-7.5" font-family="Helvetica,sans-Serif" font-size="10.00" fill="#000000">string</text>
</g>
<!-- Node0&#45;&gt;Node6 -->
<g id="edge6" class="edge">
<title>Node0&#45;&gt;Node6</title>
<path fill="none" stroke="#191970" d="M506.2936,-56.4947C535.3,-47.9119 579.2916,-34.7846 625.9816,-20.2798"/>
<polygon fill="#191970" stroke="#191970" points="627.1592,-23.5789 635.6659,-17.2634 625.0774,-16.8956 627.1592,-23.5789"/>
</g>
<!-- Node7 -->
<g id="node8" class="node">
<title>Node7</title>
<polygon fill="none" stroke="#bfbfbf" points="698,-.5 698,-19.5 742,-19.5 742,-.5 698,-.5"/>
<text text-anchor="middle" x="720" y="-7.5" font-family="Helvetica,sans-Serif" font-size="10.00" fill="#000000">SDL.h</text>
</g>
<!-- Node0&#45;&gt;Node7 -->
<g id="edge7" class="edge">
<title>Node0&#45;&gt;Node7</title>
<path fill="none" stroke="#191970" d="M525.6089,-56.4823C567.158,-48.4754 627.2102,-36.1308 687.9736,-20.0884"/>
<polygon fill="#191970" stroke="#191970" points="688.9715,-23.4447 697.7292,-17.482 687.1646,-16.6818 688.9715,-23.4447"/>
</g>
</g>
</svg>
