<?xml version="1.0" encoding="UTF-8" standalone="no"?>
<!DOCTYPE svg PUBLIC "-//W3C//DTD SVG 1.1//EN"
 "http://www.w3.org/Graphics/SVG/1.1/DTD/svg11.dtd">
<!-- Generated by graphviz version 2.40.1 (20161225.0304)
 -->
<!-- Title: src/engine/basics/Settings.cxx Pages: 1 -->
<svg width="1887pt" height="420pt"
 viewBox="0.00 0.00 1887.41 420.00" xmlns="http://www.w3.org/2000/svg" xmlns:xlink="http://www.w3.org/1999/xlink">
<g id="graph0" class="graph" transform="scale(1 1) rotate(0) translate(4 416)">
<title>src/engine/basics/Settings.cxx</title>
<!-- Node0 -->
<g id="node1" class="node">
<title>Node0</title>
<polygon fill="#bfbfbf" stroke="#000000" points="839.5,-392.5 839.5,-411.5 1003.5,-411.5 1003.5,-392.5 839.5,-392.5"/>
<text text-anchor="middle" x="921.5" y="-399.5" font-family="Helvetica,sans-Serif" font-size="10.00" fill="#000000">src/engine/basics/Settings.cxx</text>
</g>
<!-- Node1 -->
<g id="node2" class="node">
<title>Node1</title>
<g id="a_node2"><a xlink:href="Settings_8hxx.html" target="_top" xlink:title="Settings.hxx">
<polygon fill="none" stroke="#000000" points="897,-224.5 897,-243.5 974,-243.5 974,-224.5 897,-224.5"/>
<text text-anchor="middle" x="935.5" y="-231.5" font-family="Helvetica,sans-Serif" font-size="10.00" fill="#000000">Settings.hxx</text>
</a>
</g>
</g>
<!-- Node0&#45;&gt;Node1 -->
<g id="edge1" class="edge">
<title>Node0&#45;&gt;Node1</title>
<path fill="none" stroke="#191970" d="M917.089,-392.3802C913.1581,-383.2426 907.6974,-369.0061 905.5,-356 899.2646,-319.0933 914.8693,-276.8458 925.8355,-253.0017"/>
<polygon fill="#191970" stroke="#191970" points="929.1284,-254.2305 930.3134,-243.7022 922.8215,-251.1936 929.1284,-254.2305"/>
</g>
<!-- Node10 -->
<g id="node11" class="node">
<title>Node10</title>
<g id="a_node11"><a xlink:href="LOG_8hxx.html" target="_top" xlink:title="LOG.hxx">
<polygon fill="none" stroke="#000000" points="540.5,-224.5 540.5,-243.5 598.5,-243.5 598.5,-224.5 540.5,-224.5"/>
<text text-anchor="middle" x="569.5" y="-231.5" font-family="Helvetica,sans-Serif" font-size="10.00" fill="#000000">LOG.hxx</text>
</a>
</g>
</g>
<!-- Node0&#45;&gt;Node10 -->
<g id="edge10" class="edge">
<title>Node0&#45;&gt;Node10</title>
<path fill="none" stroke="#191970" d="M901.5664,-392.4862C842.5326,-364.311 668.3928,-281.1988 598.7603,-247.9651"/>
<polygon fill="#191970" stroke="#191970" points="600.1837,-244.7663 589.6513,-243.6177 597.1685,-251.0837 600.1837,-244.7663"/>
</g>
<!-- Node11 -->
<g id="node12" class="node">
<title>Node11</title>
<g id="a_node12"><a xlink:href="Exception_8hxx.html" target="_top" xlink:title="Exception.hxx">
<polygon fill="none" stroke="#000000" points="30.5,-168.5 30.5,-187.5 116.5,-187.5 116.5,-168.5 30.5,-168.5"/>
<text text-anchor="middle" x="73.5" y="-175.5" font-family="Helvetica,sans-Serif" font-size="10.00" fill="#000000">Exception.hxx</text>
</a>
</g>
</g>
<!-- Node0&#45;&gt;Node11 -->
<g id="edge27" class="edge">
<title>Node0&#45;&gt;Node11</title>
<path fill="none" stroke="#191970" d="M885.3338,-392.4467C749.6695,-356.6108 271.0952,-230.195 119.7467,-190.2161"/>
<polygon fill="#191970" stroke="#191970" points="120.4027,-186.7694 109.8404,-187.5994 118.6149,-193.5373 120.4027,-186.7694"/>
</g>
<!-- Node24 -->
<g id="node25" class="node">
<title>Node24</title>
<g id="a_node25"><a xlink:href="Constants_8hxx.html" target="_top" xlink:title="Constants.hxx">
<polygon fill="none" stroke="#000000" points="914.5,-336.5 914.5,-355.5 1000.5,-355.5 1000.5,-336.5 914.5,-336.5"/>
<text text-anchor="middle" x="957.5" y="-343.5" font-family="Helvetica,sans-Serif" font-size="10.00" fill="#000000">Constants.hxx</text>
</a>
</g>
</g>
<!-- Node0&#45;&gt;Node24 -->
<g id="edge28" class="edge">
<title>Node0&#45;&gt;Node24</title>
<path fill="none" stroke="#191970" d="M927.7707,-392.2455C932.7264,-384.5367 939.783,-373.5598 945.7776,-364.2348"/>
<polygon fill="#191970" stroke="#191970" points="948.8376,-365.9471 951.3011,-355.6427 942.9494,-362.1618 948.8376,-365.9471"/>
</g>
<!-- Node25 -->
<g id="node26" class="node">
<title>Node25</title>
<g id="a_node26"><a xlink:href="JsonSerialization_8hxx.html" target="_top" xlink:title="JsonSerialization.hxx">
<polygon fill="none" stroke="#000000" points="1019,-336.5 1019,-355.5 1138,-355.5 1138,-336.5 1019,-336.5"/>
<text text-anchor="middle" x="1078.5" y="-343.5" font-family="Helvetica,sans-Serif" font-size="10.00" fill="#000000">JsonSerialization.hxx</text>
</a>
</g>
</g>
<!-- Node0&#45;&gt;Node25 -->
<g id="edge29" class="edge">
<title>Node0&#45;&gt;Node25</title>
<path fill="none" stroke="#191970" d="M948.4893,-392.3733C974.3699,-383.1419 1013.6248,-369.1402 1042.2289,-358.9375"/>
<polygon fill="#191970" stroke="#191970" points="1043.62,-362.1573 1051.8629,-355.5011 1041.2683,-355.5642 1043.62,-362.1573"/>
</g>
<!-- Node41 -->
<g id="node42" class="node">
<title>Node41</title>
<polygon fill="none" stroke="#bfbfbf" points="1156.5,-336.5 1156.5,-355.5 1212.5,-355.5 1212.5,-336.5 1156.5,-336.5"/>
<text text-anchor="middle" x="1184.5" y="-343.5" font-family="Helvetica,sans-Serif" font-size="10.00" fill="#000000">iomanip</text>
</g>
<!-- Node0&#45;&gt;Node41 -->
<g id="edge63" class="edge">
<title>Node0&#45;&gt;Node41</title>
<path fill="none" stroke="#191970" d="M973.3149,-392.4185C1017.0109,-384.1203 1081.4127,-371.3818 1146.275,-356.1873"/>
<polygon fill="#191970" stroke="#191970" points="1147.3371,-359.5328 1156.265,-353.8281 1145.7282,-352.7202 1147.3371,-359.5328"/>
</g>
<!-- Node2 -->
<g id="node3" class="node">
<title>Node2</title>
<polygon fill="none" stroke="#bfbfbf" points="939.5,-56.5 939.5,-75.5 983.5,-75.5 983.5,-56.5 939.5,-56.5"/>
<text text-anchor="middle" x="961.5" y="-63.5" font-family="Helvetica,sans-Serif" font-size="10.00" fill="#000000">string</text>
</g>
<!-- Node1&#45;&gt;Node2 -->
<g id="edge2" class="edge">
<title>Node1&#45;&gt;Node2</title>
<path fill="none" stroke="#191970" d="M935.8003,-224.4146C936.589,-203.7073 939.2627,-153.3269 947.5,-112 949.27,-103.1199 952.0534,-93.5067 954.6738,-85.3758"/>
<polygon fill="#191970" stroke="#191970" points="958.0485,-86.3214 957.9255,-75.7273 951.4151,-84.0858 958.0485,-86.3214"/>
</g>
<!-- Node3 -->
<g id="node4" class="node">
<title>Node3</title>
<g id="a_node4"><a xlink:href="Singleton_8hxx.html" target="_top" xlink:title="../../util/Singleton.hxx">
<polygon fill="none" stroke="#000000" points="1027.5,-112.5 1027.5,-131.5 1147.5,-131.5 1147.5,-112.5 1027.5,-112.5"/>
<text text-anchor="middle" x="1087.5" y="-119.5" font-family="Helvetica,sans-Serif" font-size="10.00" fill="#000000">../../util/Singleton.hxx</text>
</a>
</g>
</g>
<!-- Node1&#45;&gt;Node3 -->
<g id="edge3" class="edge">
<title>Node1&#45;&gt;Node3</title>
<path fill="none" stroke="#191970" d="M937.6556,-224.0988C941.2514,-209.8268 949.7882,-183.4904 966.5,-168 983.7233,-152.0355 1007.0466,-141.4396 1028.6203,-134.4895"/>
<polygon fill="#191970" stroke="#191970" points="1029.8173,-137.7843 1038.3813,-131.5466 1027.7966,-131.0823 1029.8173,-137.7843"/>
</g>
<!-- Node4 -->
<g id="node5" class="node">
<title>Node4</title>
<g id="a_node5"><a xlink:href="Meta_8hxx.html" target="_top" xlink:title="../../util/Meta.hxx">
<polygon fill="none" stroke="#000000" points="753.5,-168.5 753.5,-187.5 851.5,-187.5 851.5,-168.5 753.5,-168.5"/>
<text text-anchor="middle" x="802.5" y="-175.5" font-family="Helvetica,sans-Serif" font-size="10.00" fill="#000000">../../util/Meta.hxx</text>
</a>
</g>
</g>
<!-- Node1&#45;&gt;Node4 -->
<g id="edge4" class="edge">
<title>Node1&#45;&gt;Node4</title>
<path fill="none" stroke="#191970" d="M912.6365,-224.3733C891.095,-215.3032 858.6162,-201.6279 834.5044,-191.4755"/>
<polygon fill="#191970" stroke="#191970" points="835.6397,-188.156 825.0652,-187.5011 832.9233,-194.6075 835.6397,-188.156"/>
</g>
<!-- Node9 -->
<g id="node10" class="node">
<title>Node9</title>
<polygon fill="none" stroke="#bfbfbf" points="975,-168.5 975,-187.5 1028,-187.5 1028,-168.5 975,-168.5"/>
<text text-anchor="middle" x="1001.5" y="-175.5" font-family="Helvetica,sans-Serif" font-size="10.00" fill="#000000">cstddef</text>
</g>
<!-- Node1&#45;&gt;Node9 -->
<g id="edge9" class="edge">
<title>Node1&#45;&gt;Node9</title>
<path fill="none" stroke="#191970" d="M946.9963,-224.2455C956.7442,-215.9746 970.9259,-203.9416 982.3798,-194.2232"/>
<polygon fill="#191970" stroke="#191970" points="984.7747,-196.7813 990.1354,-187.6427 980.2459,-191.4437 984.7747,-196.7813"/>
</g>
<!-- Node5 -->
<g id="node6" class="node">
<title>Node5</title>
<polygon fill="none" stroke="#bfbfbf" points="619.5,-112.5 619.5,-131.5 679.5,-131.5 679.5,-112.5 619.5,-112.5"/>
<text text-anchor="middle" x="649.5" y="-119.5" font-family="Helvetica,sans-Serif" font-size="10.00" fill="#000000">iostream</text>
</g>
<!-- Node4&#45;&gt;Node5 -->
<g id="edge5" class="edge">
<title>Node4&#45;&gt;Node5</title>
<path fill="none" stroke="#191970" d="M776.1984,-168.3733C751.0872,-159.1822 713.0562,-145.2624 685.2128,-135.0713"/>
<polygon fill="#191970" stroke="#191970" points="686.0522,-131.6516 675.4584,-131.5011 683.6462,-138.2251 686.0522,-131.6516"/>
</g>
<!-- Node6 -->
<g id="node7" class="node">
<title>Node6</title>
<polygon fill="none" stroke="#bfbfbf" points="826,-112.5 826,-131.5 895,-131.5 895,-112.5 826,-112.5"/>
<text text-anchor="middle" x="860.5" y="-119.5" font-family="Helvetica,sans-Serif" font-size="10.00" fill="#000000">type_traits</text>
</g>
<!-- Node4&#45;&gt;Node6 -->
<g id="edge6" class="edge">
<title>Node4&#45;&gt;Node6</title>
<path fill="none" stroke="#191970" d="M812.6028,-168.2455C821.0028,-160.1352 833.1494,-148.4075 843.1084,-138.7919"/>
<polygon fill="#191970" stroke="#191970" points="845.75,-141.1066 850.5129,-131.6427 840.8878,-136.0707 845.75,-141.1066"/>
</g>
<!-- Node7 -->
<g id="node8" class="node">
<title>Node7</title>
<polygon fill="none" stroke="#bfbfbf" points="698,-112.5 698,-131.5 749,-131.5 749,-112.5 698,-112.5"/>
<text text-anchor="middle" x="723.5" y="-119.5" font-family="Helvetica,sans-Serif" font-size="10.00" fill="#000000">variant</text>
</g>
<!-- Node4&#45;&gt;Node7 -->
<g id="edge7" class="edge">
<title>Node4&#45;&gt;Node7</title>
<path fill="none" stroke="#191970" d="M788.7393,-168.2455C776.8448,-159.814 759.435,-147.4729 745.5915,-137.6598"/>
<polygon fill="#191970" stroke="#191970" points="747.2854,-134.5704 737.1031,-131.6427 743.2372,-140.2811 747.2854,-134.5704"/>
</g>
<!-- Node8 -->
<g id="node9" class="node">
<title>Node8</title>
<polygon fill="none" stroke="#bfbfbf" points="767,-112.5 767,-131.5 808,-131.5 808,-112.5 767,-112.5"/>
<text text-anchor="middle" x="787.5" y="-119.5" font-family="Helvetica,sans-Serif" font-size="10.00" fill="#000000">tuple</text>
</g>
<!-- Node4&#45;&gt;Node8 -->
<g id="edge8" class="edge">
<title>Node4&#45;&gt;Node8</title>
<path fill="none" stroke="#191970" d="M799.8872,-168.2455C797.9084,-160.8579 795.1256,-150.4689 792.6988,-141.4087"/>
<polygon fill="#191970" stroke="#191970" points="796.0511,-140.3966 790.0829,-131.6427 789.2895,-142.2078 796.0511,-140.3966"/>
</g>
<!-- Node10&#45;&gt;Node2 -->
<g id="edge11" class="edge">
<title>Node10&#45;&gt;Node2</title>
<path fill="none" stroke="#191970" d="M598.531,-228.288C634.5735,-220.5384 692.8594,-205.6196 705.5,-188 740.7665,-138.8425 654.6614,-195.9608 610.5,-132 605.4496,-124.6853 604.6372,-118.6813 610.5,-112 631.3975,-88.1851 846.375,-72.8895 929.2055,-67.8407"/>
<polygon fill="#191970" stroke="#191970" points="929.5354,-71.3273 939.3084,-67.236 929.1172,-64.3398 929.5354,-71.3273"/>
</g>
<!-- Node10&#45;&gt;Node4 -->
<g id="edge23" class="edge">
<title>Node10&#45;&gt;Node4</title>
<path fill="none" stroke="#191970" d="M598.5385,-227.0208C637.1803,-217.7335 706.0754,-201.175 753.0002,-189.8969"/>
<polygon fill="#191970" stroke="#191970" points="754.0489,-193.2446 762.9541,-187.5046 752.4131,-186.4385 754.0489,-193.2446"/>
</g>
<!-- Node10&#45;&gt;Node5 -->
<g id="edge15" class="edge">
<title>Node10&#45;&gt;Node5</title>
<path fill="none" stroke="#191970" d="M546.7775,-224.4444C521.4146,-212.3884 485.9661,-190.4985 502.5,-168 515.2922,-150.5931 570.4869,-136.8359 609.4683,-129.0547"/>
<polygon fill="#191970" stroke="#191970" points="610.3366,-132.4517 619.4884,-127.1136 609.0052,-125.5794 610.3366,-132.4517"/>
</g>
<!-- Node10&#45;&gt;Node11 -->
<g id="edge12" class="edge">
<title>Node10&#45;&gt;Node11</title>
<path fill="none" stroke="#191970" d="M540.2995,-231.8566C470.5867,-226.5518 288.7907,-211.6118 126.733,-188.073"/>
<polygon fill="#191970" stroke="#191970" points="126.9834,-184.5723 116.5811,-186.5832 125.9669,-191.4982 126.9834,-184.5723"/>
</g>
<!-- Node14 -->
<g id="node15" class="node">
<title>Node14</title>
<polygon fill="none" stroke="#bfbfbf" points="511.5,-168.5 511.5,-187.5 561.5,-187.5 561.5,-168.5 511.5,-168.5"/>
<text text-anchor="middle" x="536.5" y="-175.5" font-family="Helvetica,sans-Serif" font-size="10.00" fill="#000000">chrono</text>
</g>
<!-- Node10&#45;&gt;Node14 -->
<g id="edge16" class="edge">
<title>Node10&#45;&gt;Node14</title>
<path fill="none" stroke="#191970" d="M563.7518,-224.2455C559.2565,-216.617 552.8752,-205.7881 547.4175,-196.5267"/>
<polygon fill="#191970" stroke="#191970" points="550.2747,-194.4811 542.1823,-187.6427 544.2439,-198.035 550.2747,-194.4811"/>
</g>
<!-- Node15 -->
<g id="node16" class="node">
<title>Node15</title>
<polygon fill="none" stroke="#bfbfbf" points="579.5,-168.5 579.5,-187.5 623.5,-187.5 623.5,-168.5 579.5,-168.5"/>
<text text-anchor="middle" x="601.5" y="-175.5" font-family="Helvetica,sans-Serif" font-size="10.00" fill="#000000">ctime</text>
</g>
<!-- Node10&#45;&gt;Node15 -->
<g id="edge17" class="edge">
<title>Node10&#45;&gt;Node15</title>
<path fill="none" stroke="#191970" d="M575.074,-224.2455C579.4331,-216.617 585.6211,-205.7881 590.9133,-196.5267"/>
<polygon fill="#191970" stroke="#191970" points="594.0673,-198.0616 595.9899,-187.6427 587.9896,-194.5886 594.0673,-198.0616"/>
</g>
<!-- Node16 -->
<g id="node17" class="node">
<title>Node16</title>
<polygon fill="none" stroke="#bfbfbf" points="642,-168.5 642,-187.5 697,-187.5 697,-168.5 642,-168.5"/>
<text text-anchor="middle" x="669.5" y="-175.5" font-family="Helvetica,sans-Serif" font-size="10.00" fill="#000000">fstream</text>
</g>
<!-- Node10&#45;&gt;Node16 -->
<g id="edge18" class="edge">
<title>Node10&#45;&gt;Node16</title>
<path fill="none" stroke="#191970" d="M586.9187,-224.2455C602.5485,-215.4928 625.7019,-202.527 643.5185,-192.5496"/>
<polygon fill="#191970" stroke="#191970" points="645.266,-195.5825 652.2809,-187.6427 641.8457,-189.475 645.266,-195.5825"/>
</g>
<!-- Node17 -->
<g id="node18" class="node">
<title>Node17</title>
<polygon fill="none" stroke="#bfbfbf" points="134.5,-168.5 134.5,-187.5 190.5,-187.5 190.5,-168.5 134.5,-168.5"/>
<text text-anchor="middle" x="162.5" y="-175.5" font-family="Helvetica,sans-Serif" font-size="10.00" fill="#000000">sstream</text>
</g>
<!-- Node10&#45;&gt;Node17 -->
<g id="edge19" class="edge">
<title>Node10&#45;&gt;Node17</title>
<path fill="none" stroke="#191970" d="M540.496,-231.7879C479.3542,-226.8278 332.6622,-213.366 200.5735,-187.9832"/>
<polygon fill="#191970" stroke="#191970" points="201.1709,-184.5338 190.6859,-186.0551 199.8311,-191.4044 201.1709,-184.5338"/>
</g>
<!-- Node18 -->
<g id="node19" class="node">
<title>Node18</title>
<polygon fill="none" stroke="#bfbfbf" points="1629.5,-112.5 1629.5,-131.5 1673.5,-131.5 1673.5,-112.5 1629.5,-112.5"/>
<text text-anchor="middle" x="1651.5" y="-119.5" font-family="Helvetica,sans-Serif" font-size="10.00" fill="#000000">SDL.h</text>
</g>
<!-- Node10&#45;&gt;Node18 -->
<g id="edge20" class="edge">
<title>Node10&#45;&gt;Node18</title>
<path fill="none" stroke="#191970" d="M598.8737,-233.1256C737.8149,-228.8895 1325.6119,-209.8122 1404.5,-188 1422.8951,-182.9138 1424.5202,-174.401 1442.5,-168 1515.5678,-141.9873 1540.4685,-151.5829 1619.3439,-132.044"/>
<polygon fill="#191970" stroke="#191970" points="1620.417,-135.3822 1629.2372,-129.5124 1618.6817,-128.6007 1620.417,-135.3822"/>
</g>
<!-- Node19 -->
<g id="node20" class="node">
<title>Node19</title>
<polygon fill="none" stroke="#bfbfbf" points="1084.5,-168.5 1084.5,-187.5 1148.5,-187.5 1148.5,-168.5 1084.5,-168.5"/>
<text text-anchor="middle" x="1116.5" y="-175.5" font-family="Helvetica,sans-Serif" font-size="10.00" fill="#000000">algorithm</text>
</g>
<!-- Node10&#45;&gt;Node19 -->
<g id="edge21" class="edge">
<title>Node10&#45;&gt;Node19</title>
<path fill="none" stroke="#191970" d="M598.5562,-231.4285C672.1032,-224.8579 871.5881,-206.6509 1037.5,-188 1049.4007,-186.6622 1062.293,-185.0848 1074.1433,-183.583"/>
<polygon fill="#191970" stroke="#191970" points="1074.7632,-187.0323 1084.2377,-182.2908 1073.8742,-180.089 1074.7632,-187.0323"/>
</g>
<!-- Node20 -->
<g id="node21" class="node">
<title>Node20</title>
<polygon fill="none" stroke="#bfbfbf" points="208.5,-168.5 208.5,-187.5 256.5,-187.5 256.5,-168.5 208.5,-168.5"/>
<text text-anchor="middle" x="232.5" y="-175.5" font-family="Helvetica,sans-Serif" font-size="10.00" fill="#000000">mutex</text>
</g>
<!-- Node10&#45;&gt;Node20 -->
<g id="edge22" class="edge">
<title>Node10&#45;&gt;Node20</title>
<path fill="none" stroke="#191970" d="M540.3186,-231.0013C487.5022,-225.271 372.4509,-211.4013 266.4432,-187.9478"/>
<polygon fill="#191970" stroke="#191970" points="267.0677,-184.5009 256.5436,-185.7232 265.5329,-191.3306 267.0677,-184.5009"/>
</g>
<!-- Node21 -->
<g id="node22" class="node">
<title>Node21</title>
<g id="a_node22"><a xlink:href="filesystem_8hxx.html" target="_top" xlink:title="filesystem.hxx">
<polygon fill="none" stroke="#000000" points="275,-168.5 275,-187.5 364,-187.5 364,-168.5 275,-168.5"/>
<text text-anchor="middle" x="319.5" y="-175.5" font-family="Helvetica,sans-Serif" font-size="10.00" fill="#000000">filesystem.hxx</text>
</a>
</g>
</g>
<!-- Node10&#45;&gt;Node21 -->
<g id="edge24" class="edge">
<title>Node10&#45;&gt;Node21</title>
<path fill="none" stroke="#191970" d="M540.3325,-227.4665C499.1558,-218.2429 423.3054,-201.2524 372.1344,-189.7901"/>
<polygon fill="#191970" stroke="#191970" points="372.77,-186.3458 362.2468,-187.5753 371.2399,-193.1766 372.77,-186.3458"/>
</g>
<!-- Node23 -->
<g id="node24" class="node">
<title>Node23</title>
<g id="a_node24"><a xlink:href="LOG_8inl_8hxx.html" target="_top" xlink:title="LOG.inl.hxx">
<polygon fill="none" stroke="#000000" points="382,-168.5 382,-187.5 455,-187.5 455,-168.5 382,-168.5"/>
<text text-anchor="middle" x="418.5" y="-175.5" font-family="Helvetica,sans-Serif" font-size="10.00" fill="#000000">LOG.inl.hxx</text>
</a>
</g>
</g>
<!-- Node10&#45;&gt;Node23 -->
<g id="edge26" class="edge">
<title>Node10&#45;&gt;Node23</title>
<path fill="none" stroke="#191970" d="M543.5422,-224.3733C518.7593,-215.1822 481.2254,-201.2624 453.746,-191.0713"/>
<polygon fill="#191970" stroke="#191970" points="454.7121,-187.6968 444.1191,-187.5011 452.2781,-194.26 454.7121,-187.6968"/>
</g>
<!-- Node12 -->
<g id="node13" class="node">
<title>Node12</title>
<polygon fill="none" stroke="#bfbfbf" points="83,-112.5 83,-131.5 148,-131.5 148,-112.5 83,-112.5"/>
<text text-anchor="middle" x="115.5" y="-119.5" font-family="Helvetica,sans-Serif" font-size="10.00" fill="#000000">stdexcept</text>
</g>
<!-- Node11&#45;&gt;Node12 -->
<g id="edge13" class="edge">
<title>Node11&#45;&gt;Node12</title>
<path fill="none" stroke="#191970" d="M80.8158,-168.2455C86.7179,-160.3761 95.1742,-149.101 102.2594,-139.6542"/>
<polygon fill="#191970" stroke="#191970" points="105.068,-141.7427 108.268,-131.6427 99.4679,-137.5427 105.068,-141.7427"/>
</g>
<!-- Node13 -->
<g id="node14" class="node">
<title>Node13</title>
<polygon fill="none" stroke="#bfbfbf" points="0,-112.5 0,-131.5 65,-131.5 65,-112.5 0,-112.5"/>
<text text-anchor="middle" x="32.5" y="-119.5" font-family="Helvetica,sans-Serif" font-size="10.00" fill="#000000">exception</text>
</g>
<!-- Node11&#45;&gt;Node13 -->
<g id="edge14" class="edge">
<title>Node11&#45;&gt;Node13</title>
<path fill="none" stroke="#191970" d="M66.3583,-168.2455C60.6556,-160.4564 52.51,-149.3308 45.6375,-139.9439"/>
<polygon fill="#191970" stroke="#191970" points="48.2913,-137.6437 39.5598,-131.6427 42.6432,-141.7789 48.2913,-137.6437"/>
</g>
<!-- Node22 -->
<g id="node23" class="node">
<title>Node22</title>
<polygon fill="none" stroke="#bfbfbf" points="292.5,-112.5 292.5,-131.5 346.5,-131.5 346.5,-112.5 292.5,-112.5"/>
<text text-anchor="middle" x="319.5" y="-119.5" font-family="Helvetica,sans-Serif" font-size="10.00" fill="#000000">ciso646</text>
</g>
<!-- Node21&#45;&gt;Node22 -->
<g id="edge25" class="edge">
<title>Node21&#45;&gt;Node22</title>
<path fill="none" stroke="#191970" d="M319.5,-168.2455C319.5,-160.9382 319.5,-150.6944 319.5,-141.7046"/>
<polygon fill="#191970" stroke="#191970" points="323.0001,-141.6426 319.5,-131.6427 316.0001,-141.6427 323.0001,-141.6426"/>
</g>
<!-- Node25&#45;&gt;Node1 -->
<g id="edge62" class="edge">
<title>Node25&#45;&gt;Node1</title>
<path fill="none" stroke="#191970" d="M1066.3079,-336.4509C1041.7185,-317.1921 985.9609,-273.5218 955.7926,-249.8935"/>
<polygon fill="#191970" stroke="#191970" points="957.6921,-246.9355 947.6612,-243.5249 953.3759,-252.4464 957.6921,-246.9355"/>
</g>
<!-- Node26 -->
<g id="node27" class="node">
<title>Node26</title>
<polygon fill="none" stroke="#bfbfbf" points="1165.5,-112.5 1165.5,-131.5 1223.5,-131.5 1223.5,-112.5 1165.5,-112.5"/>
<text text-anchor="middle" x="1194.5" y="-119.5" font-family="Helvetica,sans-Serif" font-size="10.00" fill="#000000">json.hxx</text>
</g>
<!-- Node25&#45;&gt;Node26 -->
<g id="edge30" class="edge">
<title>Node25&#45;&gt;Node26</title>
<path fill="none" stroke="#191970" d="M1074.8363,-336.4195C1064.5742,-307.8317 1038.6253,-221.7879 1075.5,-168 1080.338,-160.943 1122.688,-145.6469 1155.5049,-134.6284"/>
<polygon fill="#191970" stroke="#191970" points="1156.947,-137.8373 1165.3312,-131.36 1154.7377,-131.1951 1156.947,-137.8373"/>
</g>
<!-- Node27 -->
<g id="node28" class="node">
<title>Node27</title>
<g id="a_node28"><a xlink:href="point_8hxx.html" target="_top" xlink:title="point.hxx">
<polygon fill="none" stroke="#000000" points="1805.5,-112.5 1805.5,-131.5 1867.5,-131.5 1867.5,-112.5 1805.5,-112.5"/>
<text text-anchor="middle" x="1836.5" y="-119.5" font-family="Helvetica,sans-Serif" font-size="10.00" fill="#000000">point.hxx</text>
</a>
</g>
</g>
<!-- Node25&#45;&gt;Node27 -->
<g id="edge31" class="edge">
<title>Node25&#45;&gt;Node27</title>
<path fill="none" stroke="#191970" d="M1138.3142,-337.1384C1141.4189,-336.7388 1144.495,-336.3566 1147.5,-336 1319.9182,-315.5416 1367.7263,-340.7676 1536.5,-300 1666.3828,-268.6266 1724.5621,-285.8986 1815.5,-188 1827.2383,-175.3632 1832.4153,-156.1673 1834.6985,-141.7296"/>
<polygon fill="#191970" stroke="#191970" points="1838.1717,-142.1614 1835.9412,-131.804 1831.2259,-141.2917 1838.1717,-142.1614"/>
</g>
<!-- Node28 -->
<g id="node29" class="node">
<title>Node28</title>
<g id="a_node29"><a xlink:href="MapNode_8hxx.html" target="_top" xlink:title="GameObjects/MapNode.hxx">
<polygon fill="none" stroke="#000000" points="1335.5,-224.5 1335.5,-243.5 1487.5,-243.5 1487.5,-224.5 1335.5,-224.5"/>
<text text-anchor="middle" x="1411.5" y="-231.5" font-family="Helvetica,sans-Serif" font-size="10.00" fill="#000000">GameObjects/MapNode.hxx</text>
</a>
</g>
</g>
<!-- Node25&#45;&gt;Node28 -->
<g id="edge32" class="edge">
<title>Node25&#45;&gt;Node28</title>
<path fill="none" stroke="#191970" d="M1106.8914,-336.4509C1166.7325,-316.3242 1305.8429,-269.5363 1373.3677,-246.8253"/>
<polygon fill="#191970" stroke="#191970" points="1374.818,-250.0302 1383.1805,-243.5249 1372.5864,-243.3954 1374.818,-250.0302"/>
</g>
<!-- Node39 -->
<g id="node40" class="node">
<title>Node39</title>
<g id="a_node40"><a xlink:href="TerrainGenerator_8hxx.html" target="_top" xlink:title="TerrainGenerator.hxx">
<polygon fill="none" stroke="#000000" points="1408,-280.5 1408,-299.5 1527,-299.5 1527,-280.5 1408,-280.5"/>
<text text-anchor="middle" x="1467.5" y="-287.5" font-family="Helvetica,sans-Serif" font-size="10.00" fill="#000000">TerrainGenerator.hxx</text>
</a>
</g>
</g>
<!-- Node25&#45;&gt;Node39 -->
<g id="edge58" class="edge">
<title>Node25&#45;&gt;Node39</title>
<path fill="none" stroke="#191970" d="M1138.3385,-337.3234C1141.4369,-336.8755 1144.505,-336.4323 1147.5,-336 1233.7135,-323.556 1333.0034,-309.2939 1397.829,-299.9916"/>
<polygon fill="#191970" stroke="#191970" points="1398.5285,-303.4272 1407.93,-298.5423 1397.5342,-296.4981 1398.5285,-303.4272"/>
</g>
<!-- Node28&#45;&gt;Node2 -->
<g id="edge35" class="edge">
<title>Node28&#45;&gt;Node2</title>
<path fill="none" stroke="#191970" d="M1335.4965,-224.7004C1291.9955,-217.7855 1236.9946,-206.3036 1190.5,-188 1174.542,-181.7178 1173.3847,-174.4653 1157.5,-168 1091.9954,-141.3387 1059.995,-173.1825 1002.5,-132 986.2836,-120.3845 975.1213,-100.1662 968.5851,-85.1594"/>
<polygon fill="#191970" stroke="#191970" points="971.7842,-83.734 964.7939,-75.7725 965.2936,-86.3555 971.7842,-83.734"/>
</g>
<!-- Node28&#45;&gt;Node18 -->
<g id="edge33" class="edge">
<title>Node28&#45;&gt;Node18</title>
<path fill="none" stroke="#191970" d="M1434.6204,-224.4896C1456.4011,-215.4292 1489.8718,-201.245 1518.5,-188 1555.3793,-170.9376 1597.2715,-149.8622 1624.0186,-136.186"/>
<polygon fill="#191970" stroke="#191970" points="1625.849,-139.1807 1633.1502,-131.5032 1622.6549,-132.9519 1625.849,-139.1807"/>
</g>
<!-- Node28&#45;&gt;Node19 -->
<g id="edge36" class="edge">
<title>Node28&#45;&gt;Node19</title>
<path fill="none" stroke="#191970" d="M1357.0028,-224.4399C1306.493,-215.459 1229.3027,-201.4283 1162.5,-188 1161.2381,-187.7463 1159.9573,-187.486 1158.6647,-187.2209"/>
<polygon fill="#191970" stroke="#191970" points="1159.1488,-183.7464 1148.6437,-185.1223 1157.714,-190.5978 1159.1488,-183.7464"/>
</g>
<!-- Node28&#45;&gt;Node27 -->
<g id="edge46" class="edge">
<title>Node28&#45;&gt;Node27</title>
<path fill="none" stroke="#191970" d="M1487.539,-224.9914C1597.9762,-211.8804 1789.8832,-188.9833 1791.5,-188 1809.2141,-177.2264 1821.5854,-156.5275 1828.8129,-141.17"/>
<polygon fill="#191970" stroke="#191970" points="1832.2065,-142.1441 1832.9973,-131.5789 1825.7905,-139.345 1832.2065,-142.1441"/>
</g>
<!-- Node29 -->
<g id="node30" class="node">
<title>Node29</title>
<polygon fill="none" stroke="#bfbfbf" points="1451.5,-168.5 1451.5,-187.5 1509.5,-187.5 1509.5,-168.5 1451.5,-168.5"/>
<text text-anchor="middle" x="1480.5" y="-175.5" font-family="Helvetica,sans-Serif" font-size="10.00" fill="#000000">memory</text>
</g>
<!-- Node28&#45;&gt;Node29 -->
<g id="edge34" class="edge">
<title>Node28&#45;&gt;Node29</title>
<path fill="none" stroke="#191970" d="M1423.5189,-224.2455C1433.7098,-215.9746 1448.5362,-203.9416 1460.5107,-194.2232"/>
<polygon fill="#191970" stroke="#191970" points="1463.0598,-196.662 1468.6188,-187.6427 1458.6486,-191.2268 1463.0598,-196.662"/>
</g>
<!-- Node30 -->
<g id="node31" class="node">
<title>Node30</title>
<polygon fill="none" stroke="#bfbfbf" points="1735,-56.5 1735,-75.5 1782,-75.5 1782,-56.5 1735,-56.5"/>
<text text-anchor="middle" x="1758.5" y="-63.5" font-family="Helvetica,sans-Serif" font-size="10.00" fill="#000000">vector</text>
</g>
<!-- Node28&#45;&gt;Node30 -->
<g id="edge37" class="edge">
<title>Node28&#45;&gt;Node30</title>
<path fill="none" stroke="#191970" d="M1487.5184,-224.8147C1585.5259,-212.8027 1744.0197,-192.7284 1748.5,-188 1774.4508,-160.612 1769.2168,-112.5349 1763.5708,-85.6374"/>
<polygon fill="#191970" stroke="#191970" points="1766.9659,-84.7842 1761.2941,-75.8354 1760.1474,-86.368 1766.9659,-84.7842"/>
</g>
<!-- Node31 -->
<g id="node32" class="node">
<title>Node31</title>
<g id="a_node32"><a xlink:href="Sprite_8hxx.html" target="_top" xlink:title="../Sprite.hxx">
<polygon fill="none" stroke="#000000" points="1664,-168.5 1664,-187.5 1739,-187.5 1739,-168.5 1664,-168.5"/>
<text text-anchor="middle" x="1701.5" y="-175.5" font-family="Helvetica,sans-Serif" font-size="10.00" fill="#000000">../Sprite.hxx</text>
</a>
</g>
</g>
<!-- Node28&#45;&gt;Node31 -->
<g id="edge38" class="edge">
<title>Node28&#45;&gt;Node31</title>
<path fill="none" stroke="#191970" d="M1461.0233,-224.4369C1514.9753,-214.0186 1600.6738,-197.4699 1653.8693,-187.1977"/>
<polygon fill="#191970" stroke="#191970" points="1654.5773,-190.6257 1663.7323,-185.2931 1653.25,-183.7527 1654.5773,-190.6257"/>
</g>
<!-- Node32 -->
<g id="node33" class="node">
<title>Node32</title>
<g id="a_node33"><a xlink:href="enums_8hxx.html" target="_top" xlink:title="common/enums.hxx">
<polygon fill="none" stroke="#000000" points="1514.5,-56.5 1514.5,-75.5 1630.5,-75.5 1630.5,-56.5 1514.5,-56.5"/>
<text text-anchor="middle" x="1572.5" y="-63.5" font-family="Helvetica,sans-Serif" font-size="10.00" fill="#000000">common/enums.hxx</text>
</a>
</g>
</g>
<!-- Node28&#45;&gt;Node32 -->
<g id="edge45" class="edge">
<title>Node28&#45;&gt;Node32</title>
<path fill="none" stroke="#191970" d="M1382.4033,-224.4592C1340.344,-210.8629 1259.9784,-185.6126 1190.5,-168 1112.5708,-148.2452 964.0556,-171.1525 1018.5,-112 1050.7804,-76.9282 1363.1608,-68.5922 1504.1089,-66.614"/>
<polygon fill="#191970" stroke="#191970" points="1504.409,-70.1104 1514.3614,-66.4771 1504.3155,-63.1111 1504.409,-70.1104"/>
</g>
<!-- Node35 -->
<g id="node36" class="node">
<title>Node35</title>
<g id="a_node36"><a xlink:href="TileManager_8hxx.html" target="_top" xlink:title="../TileManager.hxx">
<polygon fill="none" stroke="#000000" points="1289.5,-168.5 1289.5,-187.5 1395.5,-187.5 1395.5,-168.5 1289.5,-168.5"/>
<text text-anchor="middle" x="1342.5" y="-175.5" font-family="Helvetica,sans-Serif" font-size="10.00" fill="#000000">../TileManager.hxx</text>
</a>
</g>
</g>
<!-- Node28&#45;&gt;Node35 -->
<g id="edge47" class="edge">
<title>Node28&#45;&gt;Node35</title>
<path fill="none" stroke="#191970" d="M1399.4811,-224.2455C1389.2902,-215.9746 1374.4638,-203.9416 1362.4893,-194.2232"/>
<polygon fill="#191970" stroke="#191970" points="1364.3514,-191.2268 1354.3812,-187.6427 1359.9402,-196.662 1364.3514,-191.2268"/>
</g>
<!-- Node31&#45;&gt;Node18 -->
<g id="edge39" class="edge">
<title>Node31&#45;&gt;Node18</title>
<path fill="none" stroke="#191970" d="M1692.7907,-168.2455C1685.6927,-160.2958 1675.4916,-148.8706 1667.005,-139.3656"/>
<polygon fill="#191970" stroke="#191970" points="1669.3805,-136.771 1660.1095,-131.6427 1664.1589,-141.4331 1669.3805,-136.771"/>
</g>
<!-- Node31&#45;&gt;Node27 -->
<g id="edge41" class="edge">
<title>Node31&#45;&gt;Node27</title>
<path fill="none" stroke="#191970" d="M1724.7073,-168.3733C1746.6699,-159.2629 1779.8332,-145.5062 1804.3401,-135.3404"/>
<polygon fill="#191970" stroke="#191970" points="1805.6997,-138.5657 1813.5955,-131.5011 1803.0176,-132.0999 1805.6997,-138.5657"/>
</g>
<!-- Node31&#45;&gt;Node30 -->
<g id="edge40" class="edge">
<title>Node31&#45;&gt;Node30</title>
<path fill="none" stroke="#191970" d="M1706.3598,-168.4509C1715.7826,-149.936 1736.6878,-108.8591 1748.9735,-84.7187"/>
<polygon fill="#191970" stroke="#191970" points="1752.2361,-86.0246 1753.6525,-75.5249 1745.9975,-82.8496 1752.2361,-86.0246"/>
</g>
<!-- Node31&#45;&gt;Node32 -->
<g id="edge42" class="edge">
<title>Node31&#45;&gt;Node32</title>
<path fill="none" stroke="#191970" d="M1701.2444,-168.2412C1700.3678,-154.1466 1696.7729,-128.029 1682.5,-112 1668.4277,-96.1962 1648.0532,-85.6789 1628.654,-78.7461"/>
<polygon fill="#191970" stroke="#191970" points="1629.5334,-75.3505 1618.9401,-75.531 1627.3338,-81.9959 1629.5334,-75.3505"/>
</g>
<!-- Node33 -->
<g id="node34" class="node">
<title>Node33</title>
<polygon fill="none" stroke="#bfbfbf" points="1496.5,-.5 1496.5,-19.5 1552.5,-19.5 1552.5,-.5 1496.5,-.5"/>
<text text-anchor="middle" x="1524.5" y="-7.5" font-family="Helvetica,sans-Serif" font-size="10.00" fill="#000000">stddef.h</text>
</g>
<!-- Node32&#45;&gt;Node33 -->
<g id="edge43" class="edge">
<title>Node32&#45;&gt;Node33</title>
<path fill="none" stroke="#191970" d="M1564.139,-56.2455C1557.325,-48.2958 1547.5319,-36.8706 1539.3848,-27.3656"/>
<polygon fill="#191970" stroke="#191970" points="1541.9305,-24.9575 1532.7651,-19.6427 1536.6157,-29.513 1541.9305,-24.9575"/>
</g>
<!-- Node34 -->
<g id="node35" class="node">
<title>Node34</title>
<polygon fill="none" stroke="#bfbfbf" points="1570.5,-.5 1570.5,-19.5 1670.5,-19.5 1670.5,-.5 1570.5,-.5"/>
<text text-anchor="middle" x="1620.5" y="-7.5" font-family="Helvetica,sans-Serif" font-size="10.00" fill="#000000">betterEnums.hxx</text>
</g>
<!-- Node32&#45;&gt;Node34 -->
<g id="edge44" class="edge">
<title>Node32&#45;&gt;Node34</title>
<path fill="none" stroke="#191970" d="M1580.861,-56.2455C1587.675,-48.2958 1597.4681,-36.8706 1605.6152,-27.3656"/>
<polygon fill="#191970" stroke="#191970" points="1608.3843,-29.513 1612.2349,-19.6427 1603.0695,-24.9575 1608.3843,-29.513"/>
</g>
<!-- Node35&#45;&gt;Node2 -->
<g id="edge50" class="edge">
<title>Node35&#45;&gt;Node2</title>
<path fill="none" stroke="#191970" d="M1327.8962,-168.3043C1302.7887,-151.7956 1252.2391,-119.3012 1232.5,-112 1149.9732,-81.4745 1045.7416,-71.058 993.8831,-67.6189"/>
<polygon fill="#191970" stroke="#191970" points="993.8354,-64.1094 983.6386,-66.9862 993.4038,-71.0961 993.8354,-64.1094"/>
</g>
<!-- Node35&#45;&gt;Node3 -->
<g id="edge56" class="edge">
<title>Node35&#45;&gt;Node3</title>
<path fill="none" stroke="#191970" d="M1298.9537,-168.4369C1255.2207,-158.8328 1187.7655,-144.0191 1140.8458,-133.7152"/>
<polygon fill="#191970" stroke="#191970" points="1141.3847,-130.2502 1130.8667,-131.5237 1139.8832,-137.0872 1141.3847,-130.2502"/>
</g>
<!-- Node35&#45;&gt;Node18 -->
<g id="edge48" class="edge">
<title>Node35&#45;&gt;Node18</title>
<path fill="none" stroke="#191970" d="M1395.8001,-169.6169C1463.9513,-158.8369 1577.3782,-140.6713 1619.3998,-131.8389"/>
<polygon fill="#191970" stroke="#191970" points="1620.2797,-135.2283 1629.2616,-129.609 1618.7359,-128.4007 1620.2797,-135.2283"/>
</g>
<!-- Node35&#45;&gt;Node26 -->
<g id="edge55" class="edge">
<title>Node35&#45;&gt;Node26</title>
<path fill="none" stroke="#191970" d="M1317.0579,-168.3733C1292.7674,-159.1822 1255.9792,-145.2624 1229.0457,-135.0713"/>
<polygon fill="#191970" stroke="#191970" points="1230.2016,-131.7666 1219.6101,-131.5011 1227.7243,-138.3136 1230.2016,-131.7666"/>
</g>
<!-- Node36 -->
<g id="node37" class="node">
<title>Node36</title>
<polygon fill="none" stroke="#bfbfbf" points="1423,-112.5 1423,-131.5 1516,-131.5 1516,-112.5 1423,-112.5"/>
<text text-anchor="middle" x="1469.5" y="-119.5" font-family="Helvetica,sans-Serif" font-size="10.00" fill="#000000">unordered_map</text>
</g>
<!-- Node35&#45;&gt;Node36 -->
<g id="edge49" class="edge">
<title>Node35&#45;&gt;Node36</title>
<path fill="none" stroke="#191970" d="M1364.3321,-168.3733C1384.8103,-159.3435 1415.6399,-145.7494 1438.6319,-135.6111"/>
<polygon fill="#191970" stroke="#191970" points="1440.215,-138.7383 1447.9528,-131.5011 1437.3907,-132.3333 1440.215,-138.7383"/>
</g>
<!-- Node37 -->
<g id="node38" class="node">
<title>Node37</title>
<g id="a_node38"><a xlink:href="tileData_8hxx.html" target="_top" xlink:title="tileData.hxx">
<polygon fill="none" stroke="#000000" points="1534,-112.5 1534,-131.5 1611,-131.5 1611,-112.5 1534,-112.5"/>
<text text-anchor="middle" x="1572.5" y="-119.5" font-family="Helvetica,sans-Serif" font-size="10.00" fill="#000000">tileData.hxx</text>
</a>
</g>
</g>
<!-- Node35&#45;&gt;Node37 -->
<g id="edge51" class="edge">
<title>Node35&#45;&gt;Node37</title>
<path fill="none" stroke="#191970" d="M1381.7771,-168.4369C1421.0932,-158.8643 1481.6658,-144.1162 1523.9674,-133.8166"/>
<polygon fill="#191970" stroke="#191970" points="1524.8804,-137.1967 1533.7686,-131.4303 1523.2244,-130.3954 1524.8804,-137.1967"/>
</g>
<!-- Node38 -->
<g id="node39" class="node">
<title>Node38</title>
<polygon fill="none" stroke="#bfbfbf" points="1280,-112.5 1280,-131.5 1405,-131.5 1405,-112.5 1280,-112.5"/>
<text text-anchor="middle" x="1342.5" y="-119.5" font-family="Helvetica,sans-Serif" font-size="10.00" fill="#000000">../common/enums.hxx</text>
</g>
<!-- Node35&#45;&gt;Node38 -->
<g id="edge57" class="edge">
<title>Node35&#45;&gt;Node38</title>
<path fill="none" stroke="#191970" d="M1342.5,-168.2455C1342.5,-160.9382 1342.5,-150.6944 1342.5,-141.7046"/>
<polygon fill="#191970" stroke="#191970" points="1346.0001,-141.6426 1342.5,-131.6427 1339.0001,-141.6427 1346.0001,-141.6426"/>
</g>
<!-- Node37&#45;&gt;Node2 -->
<g id="edge52" class="edge">
<title>Node37&#45;&gt;Node2</title>
<path fill="none" stroke="#191970" d="M1533.8423,-113.3644C1531.0265,-112.8616 1528.2239,-112.3992 1525.5,-112 1324.618,-82.5616 1080.5177,-70.6752 993.8886,-67.1869"/>
<polygon fill="#191970" stroke="#191970" points="993.7829,-63.6801 983.6531,-66.7847 993.508,-70.6748 993.7829,-63.6801"/>
</g>
<!-- Node37&#45;&gt;Node30 -->
<g id="edge53" class="edge">
<title>Node37&#45;&gt;Node30</title>
<path fill="none" stroke="#191970" d="M1604.4745,-112.3733C1638.0789,-102.2558 1690.7157,-86.4082 1724.9138,-76.112"/>
<polygon fill="#191970" stroke="#191970" points="1726.3272,-79.3417 1734.8936,-73.1073 1724.3091,-72.6389 1726.3272,-79.3417"/>
</g>
<!-- Node37&#45;&gt;Node32 -->
<g id="edge54" class="edge">
<title>Node37&#45;&gt;Node32</title>
<path fill="none" stroke="#191970" d="M1572.5,-112.2455C1572.5,-104.9382 1572.5,-94.6944 1572.5,-85.7046"/>
<polygon fill="#191970" stroke="#191970" points="1576.0001,-85.6426 1572.5,-75.6427 1569.0001,-85.6427 1576.0001,-85.6426"/>
</g>
<!-- Node39&#45;&gt;Node28 -->
<g id="edge59" class="edge">
<title>Node39&#45;&gt;Node28</title>
<path fill="none" stroke="#191970" d="M1457.7455,-280.2455C1449.6352,-272.1352 1437.9075,-260.4075 1428.2919,-250.7919"/>
<polygon fill="#191970" stroke="#191970" points="1430.6887,-248.2389 1421.1427,-243.6427 1425.7389,-253.1887 1430.6887,-248.2389"/>
</g>
<!-- Node39&#45;&gt;Node30 -->
<g id="edge61" class="edge">
<title>Node39&#45;&gt;Node30</title>
<path fill="none" stroke="#191970" d="M1527.0599,-281.0695C1599.056,-268.411 1722.1584,-240.6908 1815.5,-188 1847.5493,-169.9083 1861.6932,-165.6932 1876.5,-132 1892.9193,-94.6375 1832.6072,-77.5822 1792.2162,-70.4842"/>
<polygon fill="#191970" stroke="#191970" points="1792.6175,-67.0035 1782.1848,-68.8501 1791.4919,-73.9124 1792.6175,-67.0035"/>
</g>
<!-- Node40 -->
<g id="node41" class="node">
<title>Node40</title>
<polygon fill="none" stroke="#bfbfbf" points="1505.5,-224.5 1505.5,-243.5 1543.5,-243.5 1543.5,-224.5 1505.5,-224.5"/>
<text text-anchor="middle" x="1524.5" y="-231.5" font-family="Helvetica,sans-Serif" font-size="10.00" fill="#000000">map</text>
</g>
<!-- Node39&#45;&gt;Node40 -->
<g id="edge60" class="edge">
<title>Node39&#45;&gt;Node40</title>
<path fill="none" stroke="#191970" d="M1477.4286,-280.2455C1485.6838,-272.1352 1497.6209,-260.4075 1507.4082,-250.7919"/>
<polygon fill="#191970" stroke="#191970" points="1510.0046,-253.1476 1514.6851,-243.6427 1505.0989,-248.1542 1510.0046,-253.1476"/>
</g>
</g>
</svg>
