<?xml version="1.0" encoding="UTF-8" standalone="no"?>
<!DOCTYPE svg PUBLIC "-//W3C//DTD SVG 1.1//EN"
 "http://www.w3.org/Graphics/SVG/1.1/DTD/svg11.dtd">
<!-- Generated by graphviz version 2.40.1 (20161225.0304)
 -->
<!-- Title: src/engine/basics/signal.hxx Pages: 1 -->
<!--zoomable 486 -->
<svg id="main" version="1.1" xmlns="http://www.w3.org/2000/svg" xmlns:xlink="http://www.w3.org/1999/xlink" xml:space="preserve" onload="init(evt)">
<style type="text/css"><![CDATA[
.edge:hover path { stroke: red; }
.edge:hover polygon { stroke: red; fill: red; }
]]></style>
<script type="text/javascript"><![CDATA[
var edges = document.getElementsByTagName('g');
if (edges && edges.length) {
  for (var i=0;i<edges.length;i++) {
    if (edges[i].id.substr(0,4)=='edge') {
      edges[i].setAttribute('class','edge');
    }
  }
}
]]></script>
        <defs>
                <circle id="rim" cx="0" cy="0" r="7"/>
                <circle id="rim2" cx="0" cy="0" r="3.5"/>
                <g id="zoomPlus">
                        <use xlink:href="#rim" fill="#404040">
                                <set attributeName="fill" to="#808080" begin="zoomplus.mouseover" end="zoomplus.mouseout"/>
                        </use>
                        <path d="M-4,0h8M0,-4v8" fill="none" stroke="white" stroke-width="1.5" pointer-events="none"/>
                </g>
                <g id="zoomMin">
                        <use xlink:href="#rim" fill="#404040">
                                <set attributeName="fill" to="#808080" begin="zoomminus.mouseover" end="zoomminus.mouseout"/>
                        </use>
                        <path d="M-4,0h8" fill="none" stroke="white" stroke-width="1.5" pointer-events="none"/>
                </g>
                <g id="dirArrow">
                        <path fill="none" stroke="white" stroke-width="1.5" d="M0,-3.0v7 M-2.5,-0.5L0,-3.0L2.5,-0.5"/>
                </g>
               <g id="resetDef">
                       <use xlink:href="#rim2" fill="#404040">
                               <set attributeName="fill" to="#808080" begin="reset.mouseover" end="reset.mouseout"/>
                       </use>
               </g>
        </defs>

<script type="text/javascript">
var viewWidth = 1810;
var viewHeight = 486;
var sectionId = 'dynsection-1';
</script>
<script xlink:href="svgpan.js"/>
<svg id="graph" class="graph">
<g id="viewport">
<title>src/engine/basics/signal.hxx</title>
<!-- Node6 -->
<g id="node1" class="node">
<title>Node6</title>
<polygon fill="#bfbfbf" stroke="#000000" points="463,-458.5 463,-477.5 617,-477.5 617,-458.5 463,-458.5"/>
<text text-anchor="middle" x="540" y="-465.5" font-family="Helvetica,sans-Serif" font-size="10.00" fill="#000000">src/engine/basics/signal.hxx</text>
</g>
<!-- Node7 -->
<g id="node2" class="node">
<title>Node7</title>
<g id="a_node2"><a xlink:href="Timer_8hxx.html" target="_top" xlink:title="src/engine/basics/Timer.hxx">
<polygon fill="none" stroke="#000000" points="0,-330 0,-349 152,-349 152,-330 0,-330"/>
<text text-anchor="middle" x="76" y="-337" font-family="Helvetica,sans-Serif" font-size="10.00" fill="#000000">src/engine/basics/Timer.hxx</text>
</a>
</g>
</g>
<!-- Node6&#45;&gt;Node7 -->
<g id="edge1" class="edge">
<title>Node6&#45;&gt;Node7</title>
<path fill="none" stroke="#191970" d="M495.6565,-455.7195C403.5492,-430.2114 193.2155,-371.9616 110.4081,-349.029"/>
<polygon fill="#191970" stroke="#191970" points="494.9322,-459.1506 505.5037,-458.4466 496.8006,-452.4045 494.9322,-459.1506"/>
</g>
<!-- Node18 -->
<g id="node13" class="node">
<title>Node18</title>
<g id="a_node13"><a xlink:href="UIElement_8hxx.html" target="_top" xlink:title="src/engine/ui/basics\l/UIElement.hxx">
<polygon fill="none" stroke="#000000" points="903.5,-391.5 903.5,-421.5 1016.5,-421.5 1016.5,-391.5 903.5,-391.5"/>
<text text-anchor="start" x="911.5" y="-409.5" font-family="Helvetica,sans-Serif" font-size="10.00" fill="#000000">src/engine/ui/basics</text>
<text text-anchor="middle" x="960" y="-398.5" font-family="Helvetica,sans-Serif" font-size="10.00" fill="#000000">/UIElement.hxx</text>
</a>
</g>
</g>
<!-- Node6&#45;&gt;Node18 -->
<g id="edge14" class="edge">
<title>Node6&#45;&gt;Node18</title>
<path fill="none" stroke="#191970" d="M615.2565,-456.9803C697.9886,-444.8659 829.0184,-425.6794 903.4413,-414.7818"/>
<polygon fill="#191970" stroke="#191970" points="614.5515,-453.5461 605.1642,-458.4581 615.5658,-460.4723 614.5515,-453.5461"/>
</g>
<!-- Node8 -->
<g id="node3" class="node">
<title>Node8</title>
<g id="a_node3"><a xlink:href="Timer_8cxx.html" target="_top" xlink:title="src/engine/basics/Timer.cxx">
<polygon fill="none" stroke="#000000" points="404,-.5 404,-19.5 556,-19.5 556,-.5 404,-.5"/>
<text text-anchor="middle" x="480" y="-7.5" font-family="Helvetica,sans-Serif" font-size="10.00" fill="#000000">src/engine/basics/Timer.cxx</text>
</a>
</g>
</g>
<!-- Node7&#45;&gt;Node8 -->
<g id="edge2" class="edge">
<title>Node7&#45;&gt;Node8</title>
<path fill="none" stroke="#191970" d="M84.1563,-320.7235C94.4981,-295.1667 111,-247.7655 111,-205.5 111,-205.5 111,-205.5 111,-138.5 111,-75.5823 304.7467,-36.3761 411.4587,-19.5537"/>
<polygon fill="#191970" stroke="#191970" points="80.9177,-319.396 80.2917,-329.9723 87.3766,-322.0948 80.9177,-319.396"/>
</g>
<!-- Node9 -->
<g id="node4" class="node">
<title>Node9</title>
<g id="a_node4"><a xlink:href="Tooltip_8hxx.html" target="_top" xlink:title="src/engine/ui/widgets\l/Tooltip.hxx">
<polygon fill="none" stroke="#000000" points="384,-257.5 384,-287.5 504,-287.5 504,-257.5 384,-257.5"/>
<text text-anchor="start" x="392" y="-275.5" font-family="Helvetica,sans-Serif" font-size="10.00" fill="#000000">src/engine/ui/widgets</text>
<text text-anchor="middle" x="444" y="-264.5" font-family="Helvetica,sans-Serif" font-size="10.00" fill="#000000">/Tooltip.hxx</text>
</a>
</g>
</g>
<!-- Node7&#45;&gt;Node9 -->
<g id="edge3" class="edge">
<title>Node7&#45;&gt;Node9</title>
<path fill="none" stroke="#191970" d="M146.8184,-328.3344C207.5207,-318.5173 297.2186,-303.4247 375,-288 377.8904,-287.4268 380.8452,-286.8249 383.8271,-286.2046"/>
<polygon fill="#191970" stroke="#191970" points="145.8979,-324.9375 136.5823,-329.9843 147.0119,-331.8483 145.8979,-324.9375"/>
</g>
<!-- Node10 -->
<g id="node5" class="node">
<title>Node10</title>
<g id="a_node5"><a xlink:href="UIManager_8hxx.html" target="_top" xlink:title="src/engine/UIManager.hxx">
<polygon fill="none" stroke="#000000" points="950.5,-129 950.5,-148 1093.5,-148 1093.5,-129 950.5,-129"/>
<text text-anchor="middle" x="1022" y="-136" font-family="Helvetica,sans-Serif" font-size="10.00" fill="#000000">src/engine/UIManager.hxx</text>
</a>
</g>
</g>
<!-- Node9&#45;&gt;Node10 -->
<g id="edge4" class="edge">
<title>Node9&#45;&gt;Node10</title>
<path fill="none" stroke="#191970" d="M513.8958,-255.9445C566.9782,-243.1438 632.8676,-226.6781 645,-221 666.3385,-211.0134 666.1987,-198.9312 688,-190 734.2162,-171.0668 866.6818,-154.539 950.2379,-145.5909"/>
<polygon fill="#191970" stroke="#191970" points="513.0534,-252.5473 504.1491,-258.2886 514.6903,-259.3532 513.0534,-252.5473"/>
</g>
<!-- Node17 -->
<g id="node12" class="node">
<title>Node17</title>
<g id="a_node12"><a xlink:href="Tooltip_8cxx.html" target="_top" xlink:title="src/engine/ui/widgets\l/Tooltip.cxx">
<polygon fill="none" stroke="#000000" points="516,-190.5 516,-220.5 636,-220.5 636,-190.5 516,-190.5"/>
<text text-anchor="start" x="524" y="-208.5" font-family="Helvetica,sans-Serif" font-size="10.00" fill="#000000">src/engine/ui/widgets</text>
<text text-anchor="middle" x="576" y="-197.5" font-family="Helvetica,sans-Serif" font-size="10.00" fill="#000000">/Tooltip.cxx</text>
</a>
</g>
</g>
<!-- Node9&#45;&gt;Node17 -->
<g id="edge13" class="edge">
<title>Node9&#45;&gt;Node17</title>
<path fill="none" stroke="#191970" d="M482.589,-252.9132C502.8187,-242.645 527.2267,-230.2561 546.0188,-220.7177"/>
<polygon fill="#191970" stroke="#191970" points="480.9563,-249.8168 473.6234,-257.4639 484.1246,-256.0587 480.9563,-249.8168"/>
</g>
<!-- Node11 -->
<g id="node6" class="node">
<title>Node11</title>
<g id="a_node6"><a xlink:href="EventManager_8hxx.html" target="_top" xlink:title="src/engine/EventManager.hxx">
<polygon fill="none" stroke="#000000" points="942,-62 942,-81 1102,-81 1102,-62 942,-62"/>
<text text-anchor="middle" x="1022" y="-69" font-family="Helvetica,sans-Serif" font-size="10.00" fill="#000000">src/engine/EventManager.hxx</text>
</a>
</g>
</g>
<!-- Node10&#45;&gt;Node11 -->
<g id="edge5" class="edge">
<title>Node10&#45;&gt;Node11</title>
<path fill="none" stroke="#191970" d="M1022,-118.6079C1022,-106.214 1022,-90.8263 1022,-81.0817"/>
<polygon fill="#191970" stroke="#191970" points="1018.5001,-118.9005 1022,-128.9005 1025.5001,-118.9006 1018.5001,-118.9005"/>
</g>
<!-- Node13 -->
<g id="node8" class="node">
<title>Node13</title>
<g id="a_node8"><a xlink:href="Game_8cxx.html" target="_top" xlink:title="src/Game.cxx">
<polygon fill="none" stroke="#000000" points="1111.5,-.5 1111.5,-19.5 1194.5,-19.5 1194.5,-.5 1111.5,-.5"/>
<text text-anchor="middle" x="1153" y="-7.5" font-family="Helvetica,sans-Serif" font-size="10.00" fill="#000000">src/Game.cxx</text>
</a>
</g>
</g>
<!-- Node10&#45;&gt;Node13 -->
<g id="edge12" class="edge">
<title>Node10&#45;&gt;Node13</title>
<path fill="none" stroke="#191970" d="M1055.3811,-124.6118C1073.4805,-115.8382 1095.2929,-103.1085 1111,-87 1130.7731,-66.7216 1143.9849,-35.2625 1149.7318,-19.5745"/>
<polygon fill="#191970" stroke="#191970" points="1053.8954,-121.4427 1046.3067,-128.8362 1056.8496,-127.7888 1053.8954,-121.4427"/>
</g>
<!-- Node14 -->
<g id="node9" class="node">
<title>Node14</title>
<g id="a_node9"><a xlink:href="ButtonGroup_8cxx.html" target="_top" xlink:title="src/engine/ui/basics\l/ButtonGroup.cxx">
<polygon fill="none" stroke="#000000" points="557.5,-56.5 557.5,-86.5 670.5,-86.5 670.5,-56.5 557.5,-56.5"/>
<text text-anchor="start" x="565.5" y="-74.5" font-family="Helvetica,sans-Serif" font-size="10.00" fill="#000000">src/engine/ui/basics</text>
<text text-anchor="middle" x="614" y="-63.5" font-family="Helvetica,sans-Serif" font-size="10.00" fill="#000000">/ButtonGroup.cxx</text>
</a>
</g>
</g>
<!-- Node10&#45;&gt;Node14 -->
<g id="edge9" class="edge">
<title>Node10&#45;&gt;Node14</title>
<path fill="none" stroke="#191970" d="M954.0725,-127.3452C874.6537,-114.3034 744.6573,-92.956 670.5105,-80.7799"/>
<polygon fill="#191970" stroke="#191970" points="953.5418,-130.8049 963.9768,-128.9717 954.6762,-123.8974 953.5418,-130.8049"/>
</g>
<!-- Node15 -->
<g id="node10" class="node">
<title>Node15</title>
<g id="a_node10"><a xlink:href="Layout_8cxx.html" target="_top" xlink:title="src/engine/ui/basics\l/Layout.cxx">
<polygon fill="none" stroke="#000000" points="1341.5,-56.5 1341.5,-86.5 1454.5,-86.5 1454.5,-56.5 1341.5,-56.5"/>
<text text-anchor="start" x="1349.5" y="-74.5" font-family="Helvetica,sans-Serif" font-size="10.00" fill="#000000">src/engine/ui/basics</text>
<text text-anchor="middle" x="1398" y="-63.5" font-family="Helvetica,sans-Serif" font-size="10.00" fill="#000000">/Layout.cxx</text>
</a>
</g>
</g>
<!-- Node10&#45;&gt;Node15 -->
<g id="edge10" class="edge">
<title>Node10&#45;&gt;Node15</title>
<path fill="none" stroke="#191970" d="M1085.7182,-127.146C1157.3821,-114.3761 1272.6927,-93.8287 1341.3317,-81.5978"/>
<polygon fill="#191970" stroke="#191970" points="1084.7032,-123.7716 1075.4723,-128.9717 1085.9313,-130.6631 1084.7032,-123.7716"/>
</g>
<!-- Node16 -->
<g id="node11" class="node">
<title>Node16</title>
<g id="a_node11"><a xlink:href="UIManager_8cxx.html" target="_top" xlink:title="src/engine/UIManager.cxx">
<polygon fill="none" stroke="#000000" points="782,-62 782,-81 924,-81 924,-62 782,-62"/>
<text text-anchor="middle" x="853" y="-69" font-family="Helvetica,sans-Serif" font-size="10.00" fill="#000000">src/engine/UIManager.cxx</text>
</a>
</g>
</g>
<!-- Node10&#45;&gt;Node16 -->
<g id="edge11" class="edge">
<title>Node10&#45;&gt;Node16</title>
<path fill="none" stroke="#191970" d="M988.1511,-125.0806C955.3005,-112.057 906.2631,-92.6162 877.1687,-81.0817"/>
<polygon fill="#191970" stroke="#191970" points="987.2004,-128.4687 997.7864,-128.9005 989.7802,-121.9614 987.2004,-128.4687"/>
</g>
<!-- Node11&#45;&gt;Node8 -->
<g id="edge6" class="edge">
<title>Node11&#45;&gt;Node8</title>
<path fill="none" stroke="#191970" d="M960.8153,-60.2541C951.5135,-58.7156 942.0141,-57.241 933,-56 801.045,-37.8333 646.5426,-23.6527 556.3413,-16.0813"/>
<polygon fill="#191970" stroke="#191970" points="960.3554,-63.726 970.7988,-61.9407 961.5215,-56.8238 960.3554,-63.726"/>
</g>
<!-- Node12 -->
<g id="node7" class="node">
<title>Node12</title>
<g id="a_node7"><a xlink:href="EventManager_8cxx.html" target="_top" xlink:title="src/engine/EventManager.cxx">
<polygon fill="none" stroke="#000000" points="934.5,-.5 934.5,-19.5 1093.5,-19.5 1093.5,-.5 934.5,-.5"/>
<text text-anchor="middle" x="1014" y="-7.5" font-family="Helvetica,sans-Serif" font-size="10.00" fill="#000000">src/engine/EventManager.cxx</text>
</a>
</g>
</g>
<!-- Node11&#45;&gt;Node12 -->
<g id="edge7" class="edge">
<title>Node11&#45;&gt;Node12</title>
<path fill="none" stroke="#191970" d="M1019.4304,-51.7462C1018.0393,-41.0519 1016.3823,-28.314 1015.2676,-19.7449"/>
<polygon fill="#191970" stroke="#191970" points="1015.9892,-52.4257 1020.75,-61.8906 1022.9307,-51.5227 1015.9892,-52.4257"/>
</g>
<!-- Node11&#45;&gt;Node13 -->
<g id="edge8" class="edge">
<title>Node11&#45;&gt;Node13</title>
<path fill="none" stroke="#191970" d="M1051.7451,-57.5357C1076.4736,-45.9265 1111.0052,-29.7151 1132.675,-19.5419"/>
<polygon fill="#191970" stroke="#191970" points="1050.0335,-54.4727 1042.4688,-61.8906 1053.0083,-60.8092 1050.0335,-54.4727"/>
</g>
<!-- Node18&#45;&gt;Node9 -->
<g id="edge47" class="edge">
<title>Node18&#45;&gt;Node9</title>
<path fill="none" stroke="#191970" d="M893.2977,-403.7154C820.0403,-399.1107 699.6896,-386.9563 601,-355 550.1757,-338.5428 496.1283,-306.4986 466.5714,-287.5543"/>
<polygon fill="#191970" stroke="#191970" points="893.1233,-407.2111 903.3149,-404.3163 893.5425,-400.2237 893.1233,-407.2111"/>
</g>
<!-- Node18&#45;&gt;Node10 -->
<g id="edge15" class="edge">
<title>Node18&#45;&gt;Node10</title>
<path fill="none" stroke="#191970" d="M975.1551,-382.8817C989.5237,-359.5732 1010.8179,-322.517 1024,-288 1034.9225,-259.3996 1036.4199,-251.405 1040,-221 1041.6112,-207.3168 1042.3054,-203.5835 1040,-190 1037.4326,-174.8727 1030.9064,-158.2677 1026.4599,-148.1129"/>
<polygon fill="#191970" stroke="#191970" points="972.1642,-381.0635 969.8344,-391.399 978.101,-384.7722 972.1642,-381.0635"/>
</g>
<!-- Node19 -->
<g id="node14" class="node">
<title>Node19</title>
<g id="a_node14"><a xlink:href="Layout_8hxx.html" target="_top" xlink:title="src/engine/ui/basics\l/Layout.hxx">
<polygon fill="none" stroke="#000000" points="1569.5,-190.5 1569.5,-220.5 1682.5,-220.5 1682.5,-190.5 1569.5,-190.5"/>
<text text-anchor="start" x="1577.5" y="-208.5" font-family="Helvetica,sans-Serif" font-size="10.00" fill="#000000">src/engine/ui/basics</text>
<text text-anchor="middle" x="1626" y="-197.5" font-family="Helvetica,sans-Serif" font-size="10.00" fill="#000000">/Layout.hxx</text>
</a>
</g>
</g>
<!-- Node18&#45;&gt;Node19 -->
<g id="edge16" class="edge">
<title>Node18&#45;&gt;Node19</title>
<path fill="none" stroke="#191970" d="M1026.8069,-405.4274C1180.4444,-402.3469 1548.9506,-391.2254 1591,-355 1630.5837,-320.8989 1630.0712,-251.3809 1627.6566,-220.6676"/>
<polygon fill="#191970" stroke="#191970" points="1026.4931,-401.9328 1016.5633,-405.6273 1026.6297,-408.9315 1026.4931,-401.9328"/>
</g>
<!-- Node20 -->
<g id="node15" class="node">
<title>Node20</title>
<g id="a_node15"><a xlink:href="ButtonGroup_8hxx.html" target="_top" xlink:title="src/engine/ui/basics\l/ButtonGroup.hxx">
<polygon fill="none" stroke="#000000" points="208.5,-190.5 208.5,-220.5 321.5,-220.5 321.5,-190.5 208.5,-190.5"/>
<text text-anchor="start" x="216.5" y="-208.5" font-family="Helvetica,sans-Serif" font-size="10.00" fill="#000000">src/engine/ui/basics</text>
<text text-anchor="middle" x="265" y="-197.5" font-family="Helvetica,sans-Serif" font-size="10.00" fill="#000000">/ButtonGroup.hxx</text>
</a>
</g>
</g>
<!-- Node18&#45;&gt;Node20 -->
<g id="edge19" class="edge">
<title>Node18&#45;&gt;Node20</title>
<path fill="none" stroke="#191970" d="M893.3314,-402.1686C770.2124,-393.8259 511.7397,-374.6124 424,-355 337.8416,-335.7411 287.8195,-360.191 237,-288 222.3728,-267.2216 239.0024,-238.185 252.1637,-220.6777"/>
<polygon fill="#191970" stroke="#191970" points="893.1745,-405.6659 903.3872,-402.8462 893.6452,-398.6817 893.1745,-405.6659"/>
</g>
<!-- Node21 -->
<g id="node16" class="node">
<title>Node21</title>
<g id="a_node16"><a xlink:href="IMenuGroup_8hxx.html" target="_top" xlink:title="src/engine/ui/menuGroups\l/IMenuGroup.hxx">
<polygon fill="none" stroke="#000000" points="166,-123.5 166,-153.5 310,-153.5 310,-123.5 166,-123.5"/>
<text text-anchor="start" x="174" y="-141.5" font-family="Helvetica,sans-Serif" font-size="10.00" fill="#000000">src/engine/ui/menuGroups</text>
<text text-anchor="middle" x="238" y="-130.5" font-family="Helvetica,sans-Serif" font-size="10.00" fill="#000000">/IMenuGroup.hxx</text>
</a>
</g>
</g>
<!-- Node18&#45;&gt;Node21 -->
<g id="edge52" class="edge">
<title>Node18&#45;&gt;Node21</title>
<path fill="none" stroke="#191970" d="M892.8759,-404.954C729.6371,-400.7076 321.4042,-386.9865 269,-355 211.6477,-319.9932 212.6284,-286.7954 199,-221 196.2055,-207.5086 194.6127,-203.0606 199,-190 203.6427,-176.1789 213.6272,-163.1144 222.3311,-153.6021"/>
<polygon fill="#191970" stroke="#191970" points="893.1811,-408.4629 903.2675,-405.2201 893.3604,-401.4652 893.1811,-408.4629"/>
</g>
<!-- Node22 -->
<g id="node17" class="node">
<title>Node22</title>
<g id="a_node17"><a xlink:href="Button_8hxx.html" target="_top" xlink:title="src/engine/ui/widgets\l/Button.hxx">
<polygon fill="none" stroke="#000000" points="246,-257.5 246,-287.5 366,-287.5 366,-257.5 246,-257.5"/>
<text text-anchor="start" x="254" y="-275.5" font-family="Helvetica,sans-Serif" font-size="10.00" fill="#000000">src/engine/ui/widgets</text>
<text text-anchor="middle" x="306" y="-264.5" font-family="Helvetica,sans-Serif" font-size="10.00" fill="#000000">/Button.hxx</text>
</a>
</g>
</g>
<!-- Node18&#45;&gt;Node22 -->
<g id="edge23" class="edge">
<title>Node18&#45;&gt;Node22</title>
<path fill="none" stroke="#191970" d="M893.2543,-403.5645C807.2789,-398.6532 653.7055,-386.0407 526,-355 457.427,-338.3323 381.065,-306.5159 338.7573,-287.637"/>
<polygon fill="#191970" stroke="#191970" points="893.2196,-407.0678 903.3978,-404.1259 893.6065,-400.0785 893.2196,-407.0678"/>
</g>
<!-- Node24 -->
<g id="node19" class="node">
<title>Node24</title>
<g id="a_node19"><a xlink:href="Text_8hxx.html" target="_top" xlink:title="src/engine/ui/widgets\l/Text.hxx">
<polygon fill="none" stroke="#000000" points="610,-324.5 610,-354.5 730,-354.5 730,-324.5 610,-324.5"/>
<text text-anchor="start" x="618" y="-342.5" font-family="Helvetica,sans-Serif" font-size="10.00" fill="#000000">src/engine/ui/widgets</text>
<text text-anchor="middle" x="670" y="-331.5" font-family="Helvetica,sans-Serif" font-size="10.00" fill="#000000">/Text.hxx</text>
</a>
</g>
</g>
<!-- Node18&#45;&gt;Node24 -->
<g id="edge27" class="edge">
<title>Node18&#45;&gt;Node24</title>
<path fill="none" stroke="#191970" d="M893.486,-391.133C844.2888,-379.7667 777.8383,-364.4144 730.2072,-353.4099"/>
<polygon fill="#191970" stroke="#191970" points="892.8654,-394.5817 903.3966,-393.4227 894.4412,-387.7614 892.8654,-394.5817"/>
</g>
<!-- Node25 -->
<g id="node20" class="node">
<title>Node25</title>
<g id="a_node20"><a xlink:href="TextField_8hxx.html" target="_top" xlink:title="src/engine/ui/widgets\l/TextField.hxx">
<polygon fill="none" stroke="#000000" points="736,-257.5 736,-287.5 856,-287.5 856,-257.5 736,-257.5"/>
<text text-anchor="start" x="744" y="-275.5" font-family="Helvetica,sans-Serif" font-size="10.00" fill="#000000">src/engine/ui/widgets</text>
<text text-anchor="middle" x="796" y="-264.5" font-family="Helvetica,sans-Serif" font-size="10.00" fill="#000000">/TextField.hxx</text>
</a>
</g>
</g>
<!-- Node18&#45;&gt;Node25 -->
<g id="edge43" class="edge">
<title>Node18&#45;&gt;Node25</title>
<path fill="none" stroke="#191970" d="M901.5887,-387.6034C882.7522,-379.5904 862.705,-368.8404 847,-355 825.5238,-336.0736 810.0807,-305.9031 802.1286,-287.7681"/>
<polygon fill="#191970" stroke="#191970" points="900.4235,-390.9079 911.0054,-391.4321 903.0601,-384.4233 900.4235,-390.9079"/>
</g>
<!-- Node26 -->
<g id="node21" class="node">
<title>Node26</title>
<g id="a_node21"><a xlink:href="Combobox_8hxx.html" target="_top" xlink:title="src/engine/ui/widgets\l/Combobox.hxx">
<polygon fill="none" stroke="#000000" points="1431,-190.5 1431,-220.5 1551,-220.5 1551,-190.5 1431,-190.5"/>
<text text-anchor="start" x="1439" y="-208.5" font-family="Helvetica,sans-Serif" font-size="10.00" fill="#000000">src/engine/ui/widgets</text>
<text text-anchor="middle" x="1491" y="-197.5" font-family="Helvetica,sans-Serif" font-size="10.00" fill="#000000">/Combobox.hxx</text>
</a>
</g>
</g>
<!-- Node18&#45;&gt;Node26 -->
<g id="edge42" class="edge">
<title>Node18&#45;&gt;Node26</title>
<path fill="none" stroke="#191970" d="M1026.6922,-405.8345C1177.1809,-403.6403 1532.8765,-394.3072 1569,-355 1598.4723,-322.9302 1589.6374,-295.356 1569,-257 1560.3118,-240.8524 1544.0961,-228.9259 1528.6912,-220.6402"/>
<polygon fill="#191970" stroke="#191970" points="1026.6003,-402.3353 1016.6502,-405.9747 1026.6981,-409.3347 1026.6003,-402.3353"/>
</g>
<!-- Node30 -->
<g id="node25" class="node">
<title>Node30</title>
<g id="a_node25"><a xlink:href="Checkbox_8hxx.html" target="_top" xlink:title="src/engine/ui/widgets\l/Checkbox.hxx">
<polygon fill="none" stroke="#000000" points="1032,-324.5 1032,-354.5 1152,-354.5 1152,-324.5 1032,-324.5"/>
<text text-anchor="start" x="1040" y="-342.5" font-family="Helvetica,sans-Serif" font-size="10.00" fill="#000000">src/engine/ui/widgets</text>
<text text-anchor="middle" x="1092" y="-331.5" font-family="Helvetica,sans-Serif" font-size="10.00" fill="#000000">/Checkbox.hxx</text>
</a>
</g>
</g>
<!-- Node18&#45;&gt;Node30 -->
<g id="edge39" class="edge">
<title>Node18&#45;&gt;Node30</title>
<path fill="none" stroke="#191970" d="M998.589,-386.9132C1018.8187,-376.645 1043.2267,-364.2561 1062.0188,-354.7177"/>
<polygon fill="#191970" stroke="#191970" points="996.9563,-383.8168 989.6234,-391.4639 1000.1246,-390.0587 996.9563,-383.8168"/>
</g>
<!-- Node32 -->
<g id="node27" class="node">
<title>Node32</title>
<g id="a_node27"><a xlink:href="Frame_8hxx.html" target="_top" xlink:title="src/engine/ui/widgets\l/Frame.hxx">
<polygon fill="none" stroke="#000000" points="1302,-324.5 1302,-354.5 1422,-354.5 1422,-324.5 1302,-324.5"/>
<text text-anchor="start" x="1310" y="-342.5" font-family="Helvetica,sans-Serif" font-size="10.00" fill="#000000">src/engine/ui/widgets</text>
<text text-anchor="middle" x="1362" y="-331.5" font-family="Helvetica,sans-Serif" font-size="10.00" fill="#000000">/Frame.hxx</text>
</a>
</g>
</g>
<!-- Node18&#45;&gt;Node32 -->
<g id="edge44" class="edge">
<title>Node18&#45;&gt;Node32</title>
<path fill="none" stroke="#191970" d="M1026.6097,-397.4464C1093.7957,-388.0143 1200.3993,-372.2278 1292,-355 1295.1805,-354.4018 1298.437,-353.7653 1301.7213,-353.1043"/>
<polygon fill="#191970" stroke="#191970" points="1026.001,-393.9973 1016.5818,-398.848 1026.9701,-400.9299 1026.001,-393.9973"/>
</g>
<!-- Node34 -->
<g id="node29" class="node">
<title>Node34</title>
<g id="a_node29"><a xlink:href="Slider_8hxx.html" target="_top" xlink:title="src/engine/ui/widgets\l/Slider.hxx">
<polygon fill="none" stroke="#000000" points="856,-324.5 856,-354.5 976,-354.5 976,-324.5 856,-324.5"/>
<text text-anchor="start" x="864" y="-342.5" font-family="Helvetica,sans-Serif" font-size="10.00" fill="#000000">src/engine/ui/widgets</text>
<text text-anchor="middle" x="916" y="-331.5" font-family="Helvetica,sans-Serif" font-size="10.00" fill="#000000">/Slider.hxx</text>
</a>
</g>
</g>
<!-- Node18&#45;&gt;Node34 -->
<g id="edge48" class="edge">
<title>Node18&#45;&gt;Node34</title>
<path fill="none" stroke="#191970" d="M944.4184,-382.7735C938.2728,-373.4154 931.3948,-362.9421 925.9448,-354.6432"/>
<polygon fill="#191970" stroke="#191970" points="941.6008,-384.8592 950.0157,-391.2967 947.4519,-381.0167 941.6008,-384.8592"/>
</g>
<!-- Node36 -->
<g id="node31" class="node">
<title>Node36</title>
<g id="a_node31"><a xlink:href="UIElement_8cxx.html" target="_top" xlink:title="src/engine/ui/basics\l/UIElement.cxx">
<polygon fill="none" stroke="#000000" points="1170.5,-324.5 1170.5,-354.5 1283.5,-354.5 1283.5,-324.5 1170.5,-324.5"/>
<text text-anchor="start" x="1178.5" y="-342.5" font-family="Helvetica,sans-Serif" font-size="10.00" fill="#000000">src/engine/ui/basics</text>
<text text-anchor="middle" x="1227" y="-331.5" font-family="Helvetica,sans-Serif" font-size="10.00" fill="#000000">/UIElement.cxx</text>
</a>
</g>
</g>
<!-- Node18&#45;&gt;Node36 -->
<g id="edge51" class="edge">
<title>Node18&#45;&gt;Node36</title>
<path fill="none" stroke="#191970" d="M1026.4349,-389.8291C1070.7382,-378.7118 1128.3529,-364.2541 1170.4578,-353.6885"/>
<polygon fill="#191970" stroke="#191970" points="1025.4712,-386.4623 1016.6238,-392.291 1027.175,-393.2518 1025.4712,-386.4623"/>
</g>
<!-- Node37 -->
<g id="node32" class="node">
<title>Node37</title>
<g id="a_node32"><a xlink:href="Bar_8hxx.html" target="_top" xlink:title="src/engine/ui/widgets\l/Bar.hxx">
<polygon fill="none" stroke="#000000" points="1440,-324.5 1440,-354.5 1560,-354.5 1560,-324.5 1440,-324.5"/>
<text text-anchor="start" x="1448" y="-342.5" font-family="Helvetica,sans-Serif" font-size="10.00" fill="#000000">src/engine/ui/widgets</text>
<text text-anchor="middle" x="1500" y="-331.5" font-family="Helvetica,sans-Serif" font-size="10.00" fill="#000000">/Bar.hxx</text>
</a>
</g>
</g>
<!-- Node18&#45;&gt;Node37 -->
<g id="edge53" class="edge">
<title>Node18&#45;&gt;Node37</title>
<path fill="none" stroke="#191970" d="M1027.0756,-401.5456C1118.7214,-394.2352 1288.0208,-378.7991 1431,-355 1433.9067,-354.5162 1436.8748,-353.9869 1439.8672,-353.4248"/>
<polygon fill="#191970" stroke="#191970" points="1026.525,-398.0781 1016.8316,-402.3546 1027.0761,-405.0564 1026.525,-398.0781"/>
</g>
<!-- Node39 -->
<g id="node34" class="node">
<title>Node39</title>
<g id="a_node34"><a xlink:href="Image_8hxx.html" target="_top" xlink:title="src/engine/ui/widgets\l/Image.hxx">
<polygon fill="none" stroke="#000000" points="1654,-324.5 1654,-354.5 1774,-354.5 1774,-324.5 1654,-324.5"/>
<text text-anchor="start" x="1662" y="-342.5" font-family="Helvetica,sans-Serif" font-size="10.00" fill="#000000">src/engine/ui/widgets</text>
<text text-anchor="middle" x="1714" y="-331.5" font-family="Helvetica,sans-Serif" font-size="10.00" fill="#000000">/Image.hxx</text>
</a>
</g>
</g>
<!-- Node18&#45;&gt;Node39 -->
<g id="edge55" class="edge">
<title>Node18&#45;&gt;Node39</title>
<path fill="none" stroke="#191970" d="M1027.0105,-404.3336C1149.3287,-399.734 1416.7589,-386.6947 1640,-355 1644.5485,-354.3542 1649.2365,-353.5953 1653.9408,-352.7662"/>
<polygon fill="#191970" stroke="#191970" points="1026.5539,-400.848 1016.6899,-404.7145 1026.8122,-407.8432 1026.5539,-400.848"/>
</g>
<!-- Node19&#45;&gt;Node10 -->
<g id="edge17" class="edge">
<title>Node19&#45;&gt;Node10</title>
<path fill="none" stroke="#191970" d="M1559.1988,-190.0141C1386.8034,-162.1936 1195.3014,-148.3032 1093.7582,-142.275"/>
<polygon fill="#191970" stroke="#191970" points="1558.7829,-193.4925 1569.2163,-191.6501 1559.9112,-186.584 1558.7829,-193.4925"/>
</g>
<!-- Node19&#45;&gt;Node15 -->
<g id="edge18" class="edge">
<title>Node19&#45;&gt;Node15</title>
<path fill="none" stroke="#191970" d="M1612.4143,-181.7236C1600.7227,-163.2513 1582.2455,-138.282 1560,-123 1528.499,-101.3598 1487.4133,-88.4348 1454.5009,-80.9454"/>
<polygon fill="#191970" stroke="#191970" points="1609.5456,-183.7416 1617.7446,-190.4518 1615.5197,-180.0932 1609.5456,-183.7416"/>
</g>
<!-- Node20&#45;&gt;Node10 -->
<g id="edge20" class="edge">
<title>Node20&#45;&gt;Node10</title>
<path fill="none" stroke="#191970" d="M331.718,-190.0554C563.0192,-155.1727 826.3345,-143.8251 950.4602,-140.1523"/>
<polygon fill="#191970" stroke="#191970" points="331.129,-186.6047 321.7714,-191.5731 332.185,-193.5246 331.129,-186.6047"/>
</g>
<!-- Node20&#45;&gt;Node14 -->
<g id="edge21" class="edge">
<title>Node20&#45;&gt;Node14</title>
<path fill="none" stroke="#191970" d="M313.8181,-186.7561C383.6527,-159.9428 510.6942,-111.1647 574.7875,-86.5558"/>
<polygon fill="#191970" stroke="#191970" points="312.4373,-183.5371 304.3563,-190.389 314.9464,-190.0719 312.4373,-183.5371"/>
</g>
<!-- Node20&#45;&gt;Node21 -->
<g id="edge22" class="edge">
<title>Node20&#45;&gt;Node21</title>
<path fill="none" stroke="#191970" d="M255.0874,-180.9021C251.4072,-171.7696 247.3434,-161.6854 244.1025,-153.6432"/>
<polygon fill="#191970" stroke="#191970" points="251.8891,-182.3297 258.8733,-190.2967 258.3818,-179.7132 251.8891,-182.3297"/>
</g>
<!-- Node22&#45;&gt;Node10 -->
<g id="edge25" class="edge">
<title>Node22&#45;&gt;Node10</title>
<path fill="none" stroke="#191970" d="M376.1403,-256.605C405.8262,-248.3099 440.1431,-236.5837 469,-221 488.1781,-210.6432 486.8572,-198.3265 507,-190 585.3694,-157.6042 828.1379,-144.9832 950.2781,-140.5879"/>
<polygon fill="#191970" stroke="#191970" points="374.998,-253.2884 366.265,-259.2872 376.8328,-260.0436 374.998,-253.2884"/>
</g>
<!-- Node22&#45;&gt;Node20 -->
<g id="edge24" class="edge">
<title>Node22&#45;&gt;Node20</title>
<path fill="none" stroke="#191970" d="M291.3035,-248.4837C285.6222,-239.1996 279.2928,-228.8565 274.2667,-220.6432"/>
<polygon fill="#191970" stroke="#191970" points="288.4914,-250.5939 296.6965,-257.2967 294.4622,-246.9401 288.4914,-250.5939"/>
</g>
<!-- Node23 -->
<g id="node18" class="node">
<title>Node23</title>
<g id="a_node18"><a xlink:href="Button_8cxx.html" target="_top" xlink:title="src/engine/ui/widgets\l/Button.cxx">
<polygon fill="none" stroke="#000000" points="340,-190.5 340,-220.5 460,-220.5 460,-190.5 340,-190.5"/>
<text text-anchor="start" x="348" y="-208.5" font-family="Helvetica,sans-Serif" font-size="10.00" fill="#000000">src/engine/ui/widgets</text>
<text text-anchor="middle" x="400" y="-197.5" font-family="Helvetica,sans-Serif" font-size="10.00" fill="#000000">/Button.cxx</text>
</a>
</g>
</g>
<!-- Node22&#45;&gt;Node23 -->
<g id="edge26" class="edge">
<title>Node22&#45;&gt;Node23</title>
<path fill="none" stroke="#191970" d="M335.6775,-251.3469C349.6643,-241.3776 366.0308,-229.7121 378.7544,-220.6432"/>
<polygon fill="#191970" stroke="#191970" points="333.4418,-248.6423 327.3301,-257.2967 337.5047,-254.3426 333.4418,-248.6423"/>
</g>
<!-- Node24&#45;&gt;Node9 -->
<g id="edge36" class="edge">
<title>Node24&#45;&gt;Node9</title>
<path fill="none" stroke="#191970" d="M609.4469,-321.5484C573.6742,-310.9432 528.89,-297.6665 494.94,-287.6017"/>
<polygon fill="#191970" stroke="#191970" points="608.6988,-324.9771 619.2812,-324.4639 610.6885,-318.2658 608.6988,-324.9771"/>
</g>
<!-- Node24&#45;&gt;Node10 -->
<g id="edge35" class="edge">
<title>Node24&#45;&gt;Node10</title>
<path fill="none" stroke="#191970" d="M671.5206,-314.404C674.9995,-280.6179 686.4329,-221.1571 724,-190 757.5929,-162.139 873.2325,-148.7451 950.1868,-142.7781"/>
<polygon fill="#191970" stroke="#191970" points="668.0308,-314.1363 670.6476,-324.4029 675.0042,-314.7453 668.0308,-314.1363"/>
</g>
<!-- Node24&#45;&gt;Node22 -->
<g id="edge28" class="edge">
<title>Node24&#45;&gt;Node22</title>
<path fill="none" stroke="#191970" d="M599.8533,-328.2303C539.9716,-318.3764 451.6333,-303.2873 375,-288 372.1103,-287.4235 369.156,-286.8189 366.1745,-286.1965"/>
<polygon fill="#191970" stroke="#191970" points="599.5178,-331.7219 609.9525,-329.8869 600.651,-324.8143 599.5178,-331.7219"/>
</g>
<!-- Node24&#45;&gt;Node25 -->
<g id="edge29" class="edge">
<title>Node24&#45;&gt;Node25</title>
<path fill="none" stroke="#191970" d="M707.3578,-319.6352C726.5645,-309.422 749.6053,-297.1702 767.3816,-287.7177"/>
<polygon fill="#191970" stroke="#191970" points="705.463,-316.6786 698.2769,-324.4639 708.7495,-322.8591 705.463,-316.6786"/>
</g>
<!-- Node28 -->
<g id="node23" class="node">
<title>Node28</title>
<g id="a_node23"><a xlink:href="TextField_8cxx.html" target="_top" xlink:title="src/engine/ui/widgets\l/TextField.cxx">
<polygon fill="none" stroke="#000000" points="733,-190.5 733,-220.5 853,-220.5 853,-190.5 733,-190.5"/>
<text text-anchor="start" x="741" y="-208.5" font-family="Helvetica,sans-Serif" font-size="10.00" fill="#000000">src/engine/ui/widgets</text>
<text text-anchor="middle" x="793" y="-197.5" font-family="Helvetica,sans-Serif" font-size="10.00" fill="#000000">/TextField.cxx</text>
</a>
</g>
</g>
<!-- Node24&#45;&gt;Node28 -->
<g id="edge38" class="edge">
<title>Node24&#45;&gt;Node28</title>
<path fill="none" stroke="#191970" d="M683.8057,-315.5956C694.4073,-298.3143 710.064,-274.9482 727,-257 739.967,-243.258 756.7841,-230.1922 770.1971,-220.6596"/>
<polygon fill="#191970" stroke="#191970" points="680.6079,-314.1224 678.46,-324.4973 686.6089,-317.7263 680.6079,-314.1224"/>
</g>
<!-- Node29 -->
<g id="node24" class="node">
<title>Node29</title>
<g id="a_node24"><a xlink:href="Text_8cxx.html" target="_top" xlink:title="src/engine/ui/widgets\l/Text.cxx">
<polygon fill="none" stroke="#000000" points="522,-257.5 522,-287.5 642,-287.5 642,-257.5 522,-257.5"/>
<text text-anchor="start" x="530" y="-275.5" font-family="Helvetica,sans-Serif" font-size="10.00" fill="#000000">src/engine/ui/widgets</text>
<text text-anchor="middle" x="582" y="-264.5" font-family="Helvetica,sans-Serif" font-size="10.00" fill="#000000">/Text.cxx</text>
</a>
</g>
</g>
<!-- Node24&#45;&gt;Node29 -->
<g id="edge37" class="edge">
<title>Node24&#45;&gt;Node29</title>
<path fill="none" stroke="#191970" d="M641.8457,-318.0643C628.834,-308.1577 613.6886,-296.6265 601.8895,-287.6432"/>
<polygon fill="#191970" stroke="#191970" points="639.9548,-321.0237 650.0314,-324.2967 644.1952,-315.4542 639.9548,-321.0237"/>
</g>
<!-- Node25&#45;&gt;Node10 -->
<g id="edge33" class="edge">
<title>Node25&#45;&gt;Node10</title>
<path fill="none" stroke="#191970" d="M830.2349,-252.2014C879.7059,-222.8691 969.2504,-169.7763 1005.8019,-148.1042"/>
<polygon fill="#191970" stroke="#191970" points="828.3024,-249.2782 821.4858,-257.389 831.8725,-255.2994 828.3024,-249.2782"/>
</g>
<!-- Node25&#45;&gt;Node26 -->
<g id="edge30" class="edge">
<title>Node25&#45;&gt;Node26</title>
<path fill="none" stroke="#191970" d="M866.2209,-256.9485C1078.8656,-225.1094 1320.4197,-212.2596 1430.6833,-207.6755"/>
<polygon fill="#191970" stroke="#191970" points="865.4804,-253.5207 856.1174,-258.479 866.5289,-260.4417 865.4804,-253.5207"/>
</g>
<!-- Node25&#45;&gt;Node28 -->
<g id="edge34" class="edge">
<title>Node25&#45;&gt;Node28</title>
<path fill="none" stroke="#191970" d="M794.8593,-247.0249C794.461,-238.128 794.0267,-228.4287 793.6781,-220.6432"/>
<polygon fill="#191970" stroke="#191970" points="791.3754,-247.4633 795.3193,-257.2967 798.3683,-247.1501 791.3754,-247.4633"/>
</g>
<!-- Node26&#45;&gt;Node10 -->
<g id="edge31" class="edge">
<title>Node26&#45;&gt;Node10</title>
<path fill="none" stroke="#191970" d="M1420.8532,-190.6665C1419.5592,-190.4386 1418.2739,-190.2161 1417,-190 1304.499,-170.9129 1172.9277,-155.0361 1093.6041,-146.1605"/>
<polygon fill="#191970" stroke="#191970" points="1420.4308,-194.1473 1430.898,-192.5081 1421.6932,-187.262 1420.4308,-194.1473"/>
</g>
<!-- Node27 -->
<g id="node22" class="node">
<title>Node27</title>
<g id="a_node22"><a xlink:href="Combobox_8cxx.html" target="_top" xlink:title="src/engine/ui/widgets\l/Combobox.cxx">
<polygon fill="none" stroke="#000000" points="1431,-123.5 1431,-153.5 1551,-153.5 1551,-123.5 1431,-123.5"/>
<text text-anchor="start" x="1439" y="-141.5" font-family="Helvetica,sans-Serif" font-size="10.00" fill="#000000">src/engine/ui/widgets</text>
<text text-anchor="middle" x="1491" y="-130.5" font-family="Helvetica,sans-Serif" font-size="10.00" fill="#000000">/Combobox.cxx</text>
</a>
</g>
</g>
<!-- Node26&#45;&gt;Node27 -->
<g id="edge32" class="edge">
<title>Node26&#45;&gt;Node27</title>
<path fill="none" stroke="#191970" d="M1491,-180.0249C1491,-171.128 1491,-161.4287 1491,-153.6432"/>
<polygon fill="#191970" stroke="#191970" points="1487.5001,-180.2966 1491,-190.2967 1494.5001,-180.2967 1487.5001,-180.2966"/>
</g>
<!-- Node30&#45;&gt;Node10 -->
<g id="edge40" class="edge">
<title>Node30&#45;&gt;Node10</title>
<path fill="none" stroke="#191970" d="M1153.8093,-321.2153C1181.2714,-311.7225 1209.1737,-299.6889 1217,-288 1224.6654,-276.5514 1223.7545,-269.0085 1217,-257 1182.7219,-196.0583 1103.0177,-162.8211 1056.8197,-148.0548"/>
<polygon fill="#191970" stroke="#191970" points="1152.5117,-317.9589 1144.1477,-324.4623 1154.7417,-324.5943 1152.5117,-317.9589"/>
</g>
<!-- Node31 -->
<g id="node26" class="node">
<title>Node31</title>
<g id="a_node26"><a xlink:href="Checkbox_8cxx.html" target="_top" xlink:title="src/engine/ui/widgets\l/Checkbox.cxx">
<polygon fill="none" stroke="#000000" points="1088,-257.5 1088,-287.5 1208,-287.5 1208,-257.5 1088,-257.5"/>
<text text-anchor="start" x="1096" y="-275.5" font-family="Helvetica,sans-Serif" font-size="10.00" fill="#000000">src/engine/ui/widgets</text>
<text text-anchor="middle" x="1148" y="-264.5" font-family="Helvetica,sans-Serif" font-size="10.00" fill="#000000">/Checkbox.cxx</text>
</a>
</g>
</g>
<!-- Node30&#45;&gt;Node31 -->
<g id="edge41" class="edge">
<title>Node30&#45;&gt;Node31</title>
<path fill="none" stroke="#191970" d="M1111.3485,-316.3509C1119.2911,-306.8482 1128.2636,-296.1132 1135.343,-287.6432"/>
<polygon fill="#191970" stroke="#191970" points="1108.4349,-314.3792 1104.7073,-324.2967 1113.8059,-318.8684 1108.4349,-314.3792"/>
</g>
<!-- Node32&#45;&gt;Node10 -->
<g id="edge45" class="edge">
<title>Node32&#45;&gt;Node10</title>
<path fill="none" stroke="#191970" d="M1381.9733,-316.2975C1394.5024,-298.7965 1406.029,-274.839 1393,-257 1355.3634,-205.4687 1171.5437,-165.5072 1077.5638,-148.0679"/>
<polygon fill="#191970" stroke="#191970" points="1379.1371,-314.2446 1375.8453,-324.3151 1384.6987,-318.4954 1379.1371,-314.2446"/>
</g>
<!-- Node33 -->
<g id="node28" class="node">
<title>Node33</title>
<g id="a_node28"><a xlink:href="Frame_8cxx.html" target="_top" xlink:title="src/engine/ui/widgets\l/Frame.cxx">
<polygon fill="none" stroke="#000000" points="1264,-257.5 1264,-287.5 1384,-287.5 1384,-257.5 1264,-257.5"/>
<text text-anchor="start" x="1272" y="-275.5" font-family="Helvetica,sans-Serif" font-size="10.00" fill="#000000">src/engine/ui/widgets</text>
<text text-anchor="middle" x="1324" y="-264.5" font-family="Helvetica,sans-Serif" font-size="10.00" fill="#000000">/Frame.cxx</text>
</a>
</g>
</g>
<!-- Node32&#45;&gt;Node33 -->
<g id="edge46" class="edge">
<title>Node32&#45;&gt;Node33</title>
<path fill="none" stroke="#191970" d="M1348.3788,-315.4837C1343.1132,-306.1996 1337.247,-295.8565 1332.5887,-287.6432"/>
<polygon fill="#191970" stroke="#191970" points="1345.3993,-317.325 1353.3772,-324.2967 1351.4882,-313.8716 1345.3993,-317.325"/>
</g>
<!-- Node34&#45;&gt;Node10 -->
<g id="edge49" class="edge">
<title>Node34&#45;&gt;Node10</title>
<path fill="none" stroke="#191970" d="M966.8796,-319.5456C980.6836,-311.7268 994.2233,-301.3564 1003,-288 1032.5983,-242.9574 1026.8648,-173.6007 1023.496,-148.2265"/>
<polygon fill="#191970" stroke="#191970" points="965.0327,-316.5626 957.8176,-324.321 968.2961,-322.7553 965.0327,-316.5626"/>
</g>
<!-- Node35 -->
<g id="node30" class="node">
<title>Node35</title>
<g id="a_node30"><a xlink:href="Slider_8cxx.html" target="_top" xlink:title="src/engine/ui/widgets\l/Slider.cxx">
<polygon fill="none" stroke="#000000" points="874,-257.5 874,-287.5 994,-287.5 994,-257.5 874,-257.5"/>
<text text-anchor="start" x="882" y="-275.5" font-family="Helvetica,sans-Serif" font-size="10.00" fill="#000000">src/engine/ui/widgets</text>
<text text-anchor="middle" x="934" y="-264.5" font-family="Helvetica,sans-Serif" font-size="10.00" fill="#000000">/Slider.cxx</text>
</a>
</g>
</g>
<!-- Node34&#45;&gt;Node35 -->
<g id="edge50" class="edge">
<title>Node34&#45;&gt;Node35</title>
<path fill="none" stroke="#191970" d="M922.6868,-314.6103C925.1195,-305.5553 927.7941,-295.5998 929.9317,-287.6432"/>
<polygon fill="#191970" stroke="#191970" points="919.299,-313.731 920.0845,-324.2967 926.0593,-315.5472 919.299,-313.731"/>
</g>
<!-- Node38 -->
<g id="node33" class="node">
<title>Node38</title>
<g id="a_node33"><a xlink:href="Bar_8cxx.html" target="_top" xlink:title="src/engine/ui/widgets\l/Bar.cxx">
<polygon fill="none" stroke="#000000" points="1440,-257.5 1440,-287.5 1560,-287.5 1560,-257.5 1440,-257.5"/>
<text text-anchor="start" x="1448" y="-275.5" font-family="Helvetica,sans-Serif" font-size="10.00" fill="#000000">src/engine/ui/widgets</text>
<text text-anchor="middle" x="1500" y="-264.5" font-family="Helvetica,sans-Serif" font-size="10.00" fill="#000000">/Bar.cxx</text>
</a>
</g>
</g>
<!-- Node37&#45;&gt;Node38 -->
<g id="edge54" class="edge">
<title>Node37&#45;&gt;Node38</title>
<path fill="none" stroke="#191970" d="M1500,-314.0249C1500,-305.128 1500,-295.4287 1500,-287.6432"/>
<polygon fill="#191970" stroke="#191970" points="1496.5001,-314.2966 1500,-324.2967 1503.5001,-314.2967 1496.5001,-314.2966"/>
</g>
<!-- Node39&#45;&gt;Node13 -->
<g id="edge57" class="edge">
<title>Node39&#45;&gt;Node13</title>
<path fill="none" stroke="#191970" d="M1751.1991,-318.9272C1762.9672,-310.7288 1774.9826,-300.291 1783,-288 1803.5568,-256.4854 1802,-243.1265 1802,-205.5 1802,-205.5 1802,-205.5 1802,-138.5 1802,-76.3315 1337.8263,-27.4102 1194.5851,-13.7935"/>
<polygon fill="#191970" stroke="#191970" points="1749.1653,-316.0756 1742.7346,-324.4956 1753.0125,-321.9237 1749.1653,-316.0756"/>
</g>
<!-- Node40 -->
<g id="node35" class="node">
<title>Node40</title>
<g id="a_node35"><a xlink:href="Image_8cxx.html" target="_top" xlink:title="src/engine/ui/widgets\l/Image.cxx">
<polygon fill="none" stroke="#000000" points="1654,-257.5 1654,-287.5 1774,-287.5 1774,-257.5 1654,-257.5"/>
<text text-anchor="start" x="1662" y="-275.5" font-family="Helvetica,sans-Serif" font-size="10.00" fill="#000000">src/engine/ui/widgets</text>
<text text-anchor="middle" x="1714" y="-264.5" font-family="Helvetica,sans-Serif" font-size="10.00" fill="#000000">/Image.cxx</text>
</a>
</g>
</g>
<!-- Node39&#45;&gt;Node40 -->
<g id="edge56" class="edge">
<title>Node39&#45;&gt;Node40</title>
<path fill="none" stroke="#191970" d="M1714,-314.0249C1714,-305.128 1714,-295.4287 1714,-287.6432"/>
<polygon fill="#191970" stroke="#191970" points="1710.5001,-314.2966 1714,-324.2967 1717.5001,-314.2967 1710.5001,-314.2966"/>
</g>
</g>
</svg>
        <g id="navigator" transform="translate(0 0)" fill="#404254">
                <rect fill="#f2f5e9" fill-opacity="0.5" stroke="#606060" stroke-width=".5" x="0" y="0" width="60" height="60"/>
                <use id="zoomplus" xlink:href="#zoomPlus" x="17" y="9" onmousedown="handleZoom(evt,'in')"/>
                <use id="zoomminus" xlink:href="#zoomMin" x="42" y="9" onmousedown="handleZoom(evt,'out')"/>
                <use id="reset" xlink:href="#resetDef" x="30" y="36" onmousedown="handleReset()"/>
                <g id="arrowUp" xlink:href="#dirArrow" transform="translate(30 24)" onmousedown="handlePan(0,-1)">
                  <use xlink:href="#rim" fill="#404040">
                        <set attributeName="fill" to="#808080" begin="arrowUp.mouseover" end="arrowUp.mouseout"/>
                  </use>
                  <path fill="none" stroke="white" stroke-width="1.5" d="M0,-3.0v7 M-2.5,-0.5L0,-3.0L2.5,-0.5"/>
                </g>
                <g id="arrowRight" xlink:href="#dirArrow" transform="rotate(90) translate(36 -43)" onmousedown="handlePan(1,0)">
                  <use xlink:href="#rim" fill="#404040">
                        <set attributeName="fill" to="#808080" begin="arrowRight.mouseover" end="arrowRight.mouseout"/>
                  </use>
                  <path fill="none" stroke="white" stroke-width="1.5" d="M0,-3.0v7 M-2.5,-0.5L0,-3.0L2.5,-0.5"/>
                </g>
                <g id="arrowDown" xlink:href="#dirArrow" transform="rotate(180) translate(-30 -48)" onmousedown="handlePan(0,1)">
                  <use xlink:href="#rim" fill="#404040">
                        <set attributeName="fill" to="#808080" begin="arrowDown.mouseover" end="arrowDown.mouseout"/>
                  </use>
                  <path fill="none" stroke="white" stroke-width="1.5" d="M0,-3.0v7 M-2.5,-0.5L0,-3.0L2.5,-0.5"/>
                </g>
                <g id="arrowLeft" xlink:href="#dirArrow" transform="rotate(270) translate(-36 17)" onmousedown="handlePan(-1,0)">
                  <use xlink:href="#rim" fill="#404040">
                        <set attributeName="fill" to="#808080" begin="arrowLeft.mouseover" end="arrowLeft.mouseout"/>
                  </use>
                  <path fill="none" stroke="white" stroke-width="1.5" d="M0,-3.0v7 M-2.5,-0.5L0,-3.0L2.5,-0.5"/>
                </g>
        </g>
        <svg viewBox="0 0 15 15" width="100%" height="30px" preserveAspectRatio="xMaxYMin meet">
         <g id="arrow_out" transform="scale(0.3 0.3)">
          <a xlink:href="signal_8hxx__dep__incl_org.svg" target="_base">
           <rect id="button" ry="5" rx="5" y="6" x="6" height="38" width="38"
                fill="#f2f5e9" fill-opacity="0.5" stroke="#606060" stroke-width="1.0"/>
           <path id="arrow"
             d="M 11.500037,31.436501 C 11.940474,20.09759 22.043105,11.32322 32.158766,21.979434 L 37.068811,17.246167 C 37.068811,17.246167 37.088388,32 37.088388,32 L 22.160133,31.978069 C 22.160133,31.978069 26.997745,27.140456 26.997745,27.140456 C 18.528582,18.264221 13.291696,25.230495 11.500037,31.436501 z"
             style="fill:#404040;"/>
          </a>
         </g>
        </svg>
</svg>
