<?xml version="1.0" encoding="UTF-8" standalone="no"?>
<!DOCTYPE svg PUBLIC "-//W3C//DTD SVG 1.1//EN"
 "http://www.w3.org/Graphics/SVG/1.1/DTD/svg11.dtd">
<!-- Generated by graphviz version 2.40.1 (20161225.0304)
 -->
<!-- Title: src/engine/ui/widgets/Slider.hxx Pages: 1 -->
<svg width="822pt" height="229pt"
 viewBox="0.00 0.00 822.00 229.00" xmlns="http://www.w3.org/2000/svg" xmlns:xlink="http://www.w3.org/1999/xlink">
<g id="graph0" class="graph" transform="scale(1 1) rotate(0) translate(4 225)">
<title>src/engine/ui/widgets/Slider.hxx</title>
<!-- Node23 -->
<g id="node1" class="node">
<title>Node23</title>
<polygon fill="#bfbfbf" stroke="#000000" points="481,-190.5 481,-220.5 601,-220.5 601,-190.5 481,-190.5"/>
<text text-anchor="start" x="489" y="-208.5" font-family="Helvetica,sans-Serif" font-size="10.00" fill="#000000">src/engine/ui/widgets</text>
<text text-anchor="middle" x="541" y="-197.5" font-family="Helvetica,sans-Serif" font-size="10.00" fill="#000000">/Slider.hxx</text>
</g>
<!-- Node24 -->
<g id="node2" class="node">
<title>Node24</title>
<g id="a_node2"><a xlink:href="UIManager_8hxx.html" target="_top" xlink:title="src/engine/UIManager.hxx">
<polygon fill="none" stroke="#000000" points="394.5,-129 394.5,-148 537.5,-148 537.5,-129 394.5,-129"/>
<text text-anchor="middle" x="466" y="-136" font-family="Helvetica,sans-Serif" font-size="10.00" fill="#000000">src/engine/UIManager.hxx</text>
</a>
</g>
</g>
<!-- Node23&#45;&gt;Node24 -->
<g id="edge1" class="edge">
<title>Node23&#45;&gt;Node24</title>
<path fill="none" stroke="#191970" d="M516.4186,-183.5406C502.9734,-171.5296 487.0041,-157.2637 476.6959,-148.055"/>
<polygon fill="#191970" stroke="#191970" points="514.1919,-186.2447 523.9813,-190.2967 518.8555,-181.0243 514.1919,-186.2447"/>
</g>
<!-- Node32 -->
<g id="node10" class="node">
<title>Node32</title>
<g id="a_node10"><a xlink:href="Slider_8cxx.html" target="_top" xlink:title="src/engine/ui/widgets\l/Slider.cxx">
<polygon fill="none" stroke="#000000" points="556,-123.5 556,-153.5 676,-153.5 676,-123.5 556,-123.5"/>
<text text-anchor="start" x="564" y="-141.5" font-family="Helvetica,sans-Serif" font-size="10.00" fill="#000000">src/engine/ui/widgets</text>
<text text-anchor="middle" x="616" y="-130.5" font-family="Helvetica,sans-Serif" font-size="10.00" fill="#000000">/Slider.cxx</text>
</a>
</g>
</g>
<!-- Node23&#45;&gt;Node32 -->
<g id="edge10" class="edge">
<title>Node23&#45;&gt;Node32</title>
<path fill="none" stroke="#191970" d="M565.6308,-183.4965C576.5754,-173.7193 589.1843,-162.4554 599.0487,-153.6432"/>
<polygon fill="#191970" stroke="#191970" points="563.1445,-181.0243 558.0187,-190.2967 567.8081,-186.2447 563.1445,-181.0243"/>
</g>
<!-- Node25 -->
<g id="node3" class="node">
<title>Node25</title>
<g id="a_node3"><a xlink:href="EventManager_8hxx.html" target="_top" xlink:title="src/engine/EventManager.hxx">
<polygon fill="none" stroke="#000000" points="185,-62 185,-81 345,-81 345,-62 185,-62"/>
<text text-anchor="middle" x="265" y="-69" font-family="Helvetica,sans-Serif" font-size="10.00" fill="#000000">src/engine/EventManager.hxx</text>
</a>
</g>
</g>
<!-- Node24&#45;&gt;Node25 -->
<g id="edge2" class="edge">
<title>Node24&#45;&gt;Node25</title>
<path fill="none" stroke="#191970" d="M427.2477,-125.5826C388.1833,-112.5611 328.7959,-92.7653 293.745,-81.0817"/>
<polygon fill="#191970" stroke="#191970" points="426.6079,-129.0586 437.2016,-128.9005 428.8216,-122.4178 426.6079,-129.0586"/>
</g>
<!-- Node28 -->
<g id="node6" class="node">
<title>Node28</title>
<g id="a_node6"><a xlink:href="Game_8cxx.html" target="_top" xlink:title="src/Game.cxx">
<polygon fill="none" stroke="#000000" points="347.5,-.5 347.5,-19.5 430.5,-19.5 430.5,-.5 347.5,-.5"/>
<text text-anchor="middle" x="389" y="-7.5" font-family="Helvetica,sans-Serif" font-size="10.00" fill="#000000">src/Game.cxx</text>
</a>
</g>
</g>
<!-- Node24&#45;&gt;Node28 -->
<g id="edge9" class="edge">
<title>Node24&#45;&gt;Node28</title>
<path fill="none" stroke="#191970" d="M438.8326,-123.6411C425.2823,-114.796 409.9204,-102.3059 401,-87 388.465,-65.4921 387.7498,-35.1235 388.3391,-19.7424"/>
<polygon fill="#191970" stroke="#191970" points="437.0411,-126.6484 447.3895,-128.9202 440.7166,-120.6909 437.0411,-126.6484"/>
</g>
<!-- Node29 -->
<g id="node7" class="node">
<title>Node29</title>
<g id="a_node7"><a xlink:href="ButtonGroup_8cxx.html" target="_top" xlink:title="src/engine/ui/basics\l/ButtonGroup.cxx">
<polygon fill="none" stroke="#000000" points="409.5,-56.5 409.5,-86.5 522.5,-86.5 522.5,-56.5 409.5,-56.5"/>
<text text-anchor="start" x="417.5" y="-74.5" font-family="Helvetica,sans-Serif" font-size="10.00" fill="#000000">src/engine/ui/basics</text>
<text text-anchor="middle" x="466" y="-63.5" font-family="Helvetica,sans-Serif" font-size="10.00" fill="#000000">/ButtonGroup.cxx</text>
</a>
</g>
</g>
<!-- Node24&#45;&gt;Node29 -->
<g id="edge6" class="edge">
<title>Node24&#45;&gt;Node29</title>
<path fill="none" stroke="#191970" d="M466,-118.7758C466,-108.4641 466,-96.0437 466,-86.5218"/>
<polygon fill="#191970" stroke="#191970" points="462.5001,-118.9005 466,-128.9005 469.5001,-118.9006 462.5001,-118.9005"/>
</g>
<!-- Node30 -->
<g id="node8" class="node">
<title>Node30</title>
<g id="a_node8"><a xlink:href="Layout_8cxx.html" target="_top" xlink:title="src/engine/ui/basics\l/Layout.cxx">
<polygon fill="none" stroke="#000000" points="540.5,-56.5 540.5,-86.5 653.5,-86.5 653.5,-56.5 540.5,-56.5"/>
<text text-anchor="start" x="548.5" y="-74.5" font-family="Helvetica,sans-Serif" font-size="10.00" fill="#000000">src/engine/ui/basics</text>
<text text-anchor="middle" x="597" y="-63.5" font-family="Helvetica,sans-Serif" font-size="10.00" fill="#000000">/Layout.cxx</text>
</a>
</g>
</g>
<!-- Node24&#45;&gt;Node30 -->
<g id="edge7" class="edge">
<title>Node24&#45;&gt;Node30</title>
<path fill="none" stroke="#191970" d="M493.7965,-124.2834C515.4883,-113.1892 545.5456,-97.8164 567.6291,-86.5218"/>
<polygon fill="#191970" stroke="#191970" points="492.0785,-121.2309 484.7691,-128.9005 495.266,-127.4631 492.0785,-121.2309"/>
</g>
<!-- Node31 -->
<g id="node9" class="node">
<title>Node31</title>
<g id="a_node9"><a xlink:href="UIManager_8cxx.html" target="_top" xlink:title="src/engine/UIManager.cxx">
<polygon fill="none" stroke="#000000" points="672,-62 672,-81 814,-81 814,-62 672,-62"/>
<text text-anchor="middle" x="743" y="-69" font-family="Helvetica,sans-Serif" font-size="10.00" fill="#000000">src/engine/UIManager.cxx</text>
</a>
</g>
</g>
<!-- Node24&#45;&gt;Node31 -->
<g id="edge8" class="edge">
<title>Node24&#45;&gt;Node31</title>
<path fill="none" stroke="#191970" d="M515.3655,-126.5596C569.0356,-113.578 653.7527,-93.0869 703.2942,-81.1039"/>
<polygon fill="#191970" stroke="#191970" points="514.29,-123.2187 505.3932,-128.9717 515.9358,-130.0225 514.29,-123.2187"/>
</g>
<!-- Node26 -->
<g id="node4" class="node">
<title>Node26</title>
<g id="a_node4"><a xlink:href="Timer_8cxx.html" target="_top" xlink:title="src/engine/basics/Timer.cxx">
<polygon fill="none" stroke="#000000" points="0,-.5 0,-19.5 152,-19.5 152,-.5 0,-.5"/>
<text text-anchor="middle" x="76" y="-7.5" font-family="Helvetica,sans-Serif" font-size="10.00" fill="#000000">src/engine/basics/Timer.cxx</text>
</a>
</g>
</g>
<!-- Node25&#45;&gt;Node26 -->
<g id="edge3" class="edge">
<title>Node25&#45;&gt;Node26</title>
<path fill="none" stroke="#191970" d="M225.8194,-58.7507C189.9587,-47.0818 137.6946,-30.0752 105.3239,-19.5419"/>
<polygon fill="#191970" stroke="#191970" points="224.8765,-62.1245 235.4688,-61.8906 227.0425,-55.4681 224.8765,-62.1245"/>
</g>
<!-- Node27 -->
<g id="node5" class="node">
<title>Node27</title>
<g id="a_node5"><a xlink:href="EventManager_8cxx.html" target="_top" xlink:title="src/engine/EventManager.cxx">
<polygon fill="none" stroke="#000000" points="170.5,-.5 170.5,-19.5 329.5,-19.5 329.5,-.5 170.5,-.5"/>
<text text-anchor="middle" x="250" y="-7.5" font-family="Helvetica,sans-Serif" font-size="10.00" fill="#000000">src/engine/EventManager.cxx</text>
</a>
</g>
</g>
<!-- Node25&#45;&gt;Node27 -->
<g id="edge4" class="edge">
<title>Node25&#45;&gt;Node27</title>
<path fill="none" stroke="#191970" d="M260.2642,-52.0832C257.6392,-41.3205 254.4888,-28.4042 252.3768,-19.7449"/>
<polygon fill="#191970" stroke="#191970" points="256.8863,-53.0048 262.6563,-61.8906 263.6869,-51.346 256.8863,-53.0048"/>
</g>
<!-- Node25&#45;&gt;Node28 -->
<g id="edge5" class="edge">
<title>Node25&#45;&gt;Node28</title>
<path fill="none" stroke="#191970" d="M293.4669,-57.3813C316.8518,-45.7832 349.34,-29.6701 369.7611,-19.5419"/>
<polygon fill="#191970" stroke="#191970" points="291.7785,-54.3118 284.375,-61.8906 294.8888,-60.5829 291.7785,-54.3118"/>
</g>
</g>
</svg>
