<?xml version="1.0" encoding="UTF-8" standalone="no"?>
<!DOCTYPE svg PUBLIC "-//W3C//DTD SVG 1.1//EN"
 "http://www.w3.org/Graphics/SVG/1.1/DTD/svg11.dtd">
<!-- Generated by graphviz version 2.40.1 (20161225.0304)
 -->
<!-- Title: src/engine/audio/Soundtrack.hxx Pages: 1 -->
<svg width="627pt" height="252pt"
 viewBox="0.00 0.00 627.00 252.00" xmlns="http://www.w3.org/2000/svg" xmlns:xlink="http://www.w3.org/1999/xlink">
<g id="graph0" class="graph" transform="scale(1 1) rotate(0) translate(4 248)">
<title>src/engine/audio/Soundtrack.hxx</title>
<!-- Node9 -->
<g id="node1" class="node">
<title>Node9</title>
<polygon fill="#bfbfbf" stroke="#000000" points="295.5,-224.5 295.5,-243.5 471.5,-243.5 471.5,-224.5 295.5,-224.5"/>
<text text-anchor="middle" x="383.5" y="-231.5" font-family="Helvetica,sans-Serif" font-size="10.00" fill="#000000">src/engine/audio/Soundtrack.hxx</text>
</g>
<!-- Node10 -->
<g id="node2" class="node">
<title>Node10</title>
<g id="a_node2"><a xlink:href="AudioConfig_8hxx.html" target="_top" xlink:title="src/engine/audio/AudioConfig.hxx">
<polygon fill="none" stroke="#000000" points="131,-168.5 131,-187.5 310,-187.5 310,-168.5 131,-168.5"/>
<text text-anchor="middle" x="220.5" y="-175.5" font-family="Helvetica,sans-Serif" font-size="10.00" fill="#000000">src/engine/audio/AudioConfig.hxx</text>
</a>
</g>
</g>
<!-- Node9&#45;&gt;Node10 -->
<g id="edge1" class="edge">
<title>Node9&#45;&gt;Node10</title>
<path fill="none" stroke="#191970" d="M345.8267,-221.057C315.9958,-210.8084 275.0148,-196.729 248.1551,-187.5011"/>
<polygon fill="#191970" stroke="#191970" points="344.8846,-224.4341 355.4793,-224.3733 347.1591,-217.8139 344.8846,-224.4341"/>
</g>
<!-- Node12 -->
<g id="node4" class="node">
<title>Node12</title>
<g id="a_node4"><a xlink:href="AudioEvents_8hxx.html" target="_top" xlink:title="src/events/AudioEvents.hxx">
<polygon fill="none" stroke="#000000" points="235.5,-112.5 235.5,-131.5 387.5,-131.5 387.5,-112.5 235.5,-112.5"/>
<text text-anchor="middle" x="311.5" y="-119.5" font-family="Helvetica,sans-Serif" font-size="10.00" fill="#000000">src/events/AudioEvents.hxx</text>
</a>
</g>
</g>
<!-- Node9&#45;&gt;Node12 -->
<g id="edge8" class="edge">
<title>Node9&#45;&gt;Node12</title>
<path fill="none" stroke="#191970" d="M371.8596,-215.8927C356.3907,-191.8299 329.6191,-150.1853 317.6231,-131.5249"/>
<polygon fill="#191970" stroke="#191970" points="369.0096,-217.9318 377.3613,-224.4509 374.8978,-214.1465 369.0096,-217.9318"/>
</g>
<!-- Node13 -->
<g id="node5" class="node">
<title>Node13</title>
<g id="a_node5"><a xlink:href="AudioMixer_8hxx.html" target="_top" xlink:title="src/services/AudioMixer.hxx">
<polygon fill="none" stroke="#000000" points="235.5,-56.5 235.5,-75.5 387.5,-75.5 387.5,-56.5 235.5,-56.5"/>
<text text-anchor="middle" x="311.5" y="-63.5" font-family="Helvetica,sans-Serif" font-size="10.00" fill="#000000">src/services/AudioMixer.hxx</text>
</a>
</g>
</g>
<!-- Node9&#45;&gt;Node13 -->
<g id="edge9" class="edge">
<title>Node9&#45;&gt;Node13</title>
<path fill="none" stroke="#191970" d="M392.1753,-215.0445C402.3823,-189.6789 415.6661,-144.1649 396.5,-112 385.7637,-93.9821 365.2465,-82.5925 347.0598,-75.6541"/>
<polygon fill="#191970" stroke="#191970" points="388.9339,-213.7229 388.2245,-224.294 395.3713,-216.4726 388.9339,-213.7229"/>
</g>
<!-- Node15 -->
<g id="node7" class="node">
<title>Node15</title>
<g id="a_node7"><a xlink:href="Soundtrack_8cxx.html" target="_top" xlink:title="src/engine/audio/Soundtrack.cxx">
<polygon fill="none" stroke="#000000" points="444,-168.5 444,-187.5 619,-187.5 619,-168.5 444,-168.5"/>
<text text-anchor="middle" x="531.5" y="-175.5" font-family="Helvetica,sans-Serif" font-size="10.00" fill="#000000">src/engine/audio/Soundtrack.cxx</text>
</a>
</g>
</g>
<!-- Node9&#45;&gt;Node15 -->
<g id="edge7" class="edge">
<title>Node9&#45;&gt;Node15</title>
<path fill="none" stroke="#191970" d="M418.4153,-220.7888C445.4383,-210.5639 482.214,-196.6488 506.3899,-187.5011"/>
<polygon fill="#191970" stroke="#191970" points="417.0563,-217.5608 408.9421,-224.3733 419.5336,-224.1078 417.0563,-217.5608"/>
</g>
<!-- Node11 -->
<g id="node3" class="node">
<title>Node11</title>
<g id="a_node3"><a xlink:href="AudioConfig_8cxx.html" target="_top" xlink:title="src/engine/audio/AudioConfig.cxx">
<polygon fill="none" stroke="#000000" points="0,-112.5 0,-131.5 179,-131.5 179,-112.5 0,-112.5"/>
<text text-anchor="middle" x="89.5" y="-119.5" font-family="Helvetica,sans-Serif" font-size="10.00" fill="#000000">src/engine/audio/AudioConfig.cxx</text>
</a>
</g>
</g>
<!-- Node10&#45;&gt;Node11 -->
<g id="edge2" class="edge">
<title>Node10&#45;&gt;Node11</title>
<path fill="none" stroke="#191970" d="M188.6466,-164.3833C164.8215,-154.1985 132.8432,-140.5284 111.7258,-131.5011"/>
<polygon fill="#191970" stroke="#191970" points="187.4094,-167.6608 197.9803,-168.3733 190.161,-161.2242 187.4094,-167.6608"/>
</g>
<!-- Node10&#45;&gt;Node12 -->
<g id="edge3" class="edge">
<title>Node10&#45;&gt;Node12</title>
<path fill="none" stroke="#191970" d="M245.2504,-162.769C261.3758,-152.8456 281.926,-140.1994 295.8307,-131.6427"/>
<polygon fill="#191970" stroke="#191970" points="243.0332,-160.0237 236.351,-168.2455 246.7019,-165.9853 243.0332,-160.0237"/>
</g>
<!-- Node10&#45;&gt;Node13 -->
<g id="edge6" class="edge">
<title>Node10&#45;&gt;Node13</title>
<path fill="none" stroke="#191970" d="M217.6287,-158.0472C216.6665,-144.0472 217.6074,-125.4932 226.5,-112 238.3188,-94.0668 259.5688,-82.5668 277.8641,-75.5501"/>
<polygon fill="#191970" stroke="#191970" points="214.1611,-158.5383 218.6929,-168.1149 221.1223,-157.8024 214.1611,-158.5383"/>
</g>
<!-- Node12&#45;&gt;Node13 -->
<g id="edge4" class="edge">
<title>Node12&#45;&gt;Node13</title>
<path fill="none" stroke="#191970" d="M311.5,-102.1575C311.5,-93.155 311.5,-82.9199 311.5,-75.6427"/>
<polygon fill="#191970" stroke="#191970" points="308.0001,-102.2455 311.5,-112.2455 315.0001,-102.2456 308.0001,-102.2455"/>
</g>
<!-- Node14 -->
<g id="node6" class="node">
<title>Node14</title>
<g id="a_node6"><a xlink:href="AudioMixer_8cxx.html" target="_top" xlink:title="src/services/AudioMixer.cxx">
<polygon fill="none" stroke="#000000" points="235.5,-.5 235.5,-19.5 387.5,-19.5 387.5,-.5 235.5,-.5"/>
<text text-anchor="middle" x="311.5" y="-7.5" font-family="Helvetica,sans-Serif" font-size="10.00" fill="#000000">src/services/AudioMixer.cxx</text>
</a>
</g>
</g>
<!-- Node13&#45;&gt;Node14 -->
<g id="edge5" class="edge">
<title>Node13&#45;&gt;Node14</title>
<path fill="none" stroke="#191970" d="M311.5,-46.1575C311.5,-37.155 311.5,-26.9199 311.5,-19.6427"/>
<polygon fill="#191970" stroke="#191970" points="308.0001,-46.2455 311.5,-56.2455 315.0001,-46.2456 308.0001,-46.2455"/>
</g>
</g>
</svg>
