<?xml version="1.0" encoding="UTF-8" standalone="no"?>
<!DOCTYPE svg PUBLIC "-//W3C//DTD SVG 1.1//EN"
 "http://www.w3.org/Graphics/SVG/1.1/DTD/svg11.dtd">
<!-- Generated by graphviz version 2.40.1 (20161225.0304)
 -->
<!-- Title: src/engine/audio/Soundtrack.cxx Pages: 1 -->
<svg width="604pt" height="196pt"
 viewBox="0.00 0.00 604.00 196.00" xmlns="http://www.w3.org/2000/svg" xmlns:xlink="http://www.w3.org/1999/xlink">
<g id="graph0" class="graph" transform="scale(1 1) rotate(0) translate(4 192)">
<title>src/engine/audio/Soundtrack.cxx</title>
<!-- Node0 -->
<g id="node1" class="node">
<title>Node0</title>
<polygon fill="#bfbfbf" stroke="#000000" points="279.5,-168.5 279.5,-187.5 454.5,-187.5 454.5,-168.5 279.5,-168.5"/>
<text text-anchor="middle" x="367" y="-175.5" font-family="Helvetica,sans-Serif" font-size="10.00" fill="#000000">src/engine/audio/Soundtrack.cxx</text>
</g>
<!-- Node1 -->
<g id="node2" class="node">
<title>Node1</title>
<g id="a_node2"><a xlink:href="Soundtrack_8hxx.html" target="_top" xlink:title="Soundtrack.hxx">
<polygon fill="none" stroke="#000000" points="130,-112.5 130,-131.5 222,-131.5 222,-112.5 130,-112.5"/>
<text text-anchor="middle" x="176" y="-119.5" font-family="Helvetica,sans-Serif" font-size="10.00" fill="#000000">Soundtrack.hxx</text>
</a>
</g>
</g>
<!-- Node0&#45;&gt;Node1 -->
<g id="edge1" class="edge">
<title>Node0&#45;&gt;Node1</title>
<path fill="none" stroke="#191970" d="M334.1659,-168.3733C302.1305,-158.9807 253.2513,-144.6496 218.3145,-134.4064"/>
<polygon fill="#191970" stroke="#191970" points="218.9864,-130.9561 208.4056,-131.5011 217.0169,-137.6733 218.9864,-130.9561"/>
</g>
<!-- Node10 -->
<g id="node11" class="node">
<title>Node10</title>
<polygon fill="none" stroke="#bfbfbf" points="378.5,-112.5 378.5,-131.5 491.5,-131.5 491.5,-112.5 378.5,-112.5"/>
<text text-anchor="middle" x="435" y="-119.5" font-family="Helvetica,sans-Serif" font-size="10.00" fill="#000000">../util/Exception.hxx</text>
</g>
<!-- Node0&#45;&gt;Node10 -->
<g id="edge10" class="edge">
<title>Node0&#45;&gt;Node10</title>
<path fill="none" stroke="#191970" d="M378.8447,-168.2455C388.888,-159.9746 403.4995,-147.9416 415.3004,-138.2232"/>
<polygon fill="#191970" stroke="#191970" points="417.7967,-140.7015 423.291,-131.6427 413.3467,-135.298 417.7967,-140.7015"/>
</g>
<!-- Node11 -->
<g id="node12" class="node">
<title>Node11</title>
<polygon fill="none" stroke="#bfbfbf" points="510,-112.5 510,-131.5 596,-131.5 596,-112.5 510,-112.5"/>
<text text-anchor="middle" x="553" y="-119.5" font-family="Helvetica,sans-Serif" font-size="10.00" fill="#000000">../util/LOG.hxx</text>
</g>
<!-- Node0&#45;&gt;Node11 -->
<g id="edge11" class="edge">
<title>Node0&#45;&gt;Node11</title>
<path fill="none" stroke="#191970" d="M398.9745,-168.3733C430.1713,-158.9807 477.771,-144.6496 511.7932,-134.4064"/>
<polygon fill="#191970" stroke="#191970" points="512.8763,-137.7355 521.4427,-131.5011 510.8582,-131.0327 512.8763,-137.7355"/>
</g>
<!-- Node12 -->
<g id="node13" class="node">
<title>Node12</title>
<g id="a_node13"><a xlink:href="Settings_8hxx.html" target="_top" xlink:title="../basics/Settings.hxx">
<polygon fill="none" stroke="#000000" points="240,-112.5 240,-131.5 360,-131.5 360,-112.5 240,-112.5"/>
<text text-anchor="middle" x="300" y="-119.5" font-family="Helvetica,sans-Serif" font-size="10.00" fill="#000000">../basics/Settings.hxx</text>
</a>
</g>
</g>
<!-- Node0&#45;&gt;Node12 -->
<g id="edge12" class="edge">
<title>Node0&#45;&gt;Node12</title>
<path fill="none" stroke="#191970" d="M355.3295,-168.2455C345.4339,-159.9746 331.0373,-147.9416 319.4099,-138.2232"/>
<polygon fill="#191970" stroke="#191970" points="321.4542,-135.3703 311.5368,-131.6427 316.965,-140.7413 321.4542,-135.3703"/>
</g>
<!-- Node2 -->
<g id="node3" class="node">
<title>Node2</title>
<polygon fill="none" stroke="#bfbfbf" points="0,-56.5 0,-75.5 58,-75.5 58,-56.5 0,-56.5"/>
<text text-anchor="middle" x="29" y="-63.5" font-family="Helvetica,sans-Serif" font-size="10.00" fill="#000000">memory</text>
</g>
<!-- Node1&#45;&gt;Node2 -->
<g id="edge2" class="edge">
<title>Node1&#45;&gt;Node2</title>
<path fill="none" stroke="#191970" d="M150.7298,-112.3733C126.6034,-103.1822 90.0638,-89.2624 63.3123,-79.0713"/>
<polygon fill="#191970" stroke="#191970" points="64.5313,-75.7904 53.9404,-75.5011 62.0393,-82.3318 64.5313,-75.7904"/>
</g>
<!-- Node3 -->
<g id="node4" class="node">
<title>Node3</title>
<polygon fill="none" stroke="#bfbfbf" points="76.5,-56.5 76.5,-75.5 153.5,-75.5 153.5,-56.5 76.5,-56.5"/>
<text text-anchor="middle" x="115" y="-63.5" font-family="Helvetica,sans-Serif" font-size="10.00" fill="#000000">SDL_mixer.h</text>
</g>
<!-- Node1&#45;&gt;Node3 -->
<g id="edge3" class="edge">
<title>Node1&#45;&gt;Node3</title>
<path fill="none" stroke="#191970" d="M165.3746,-112.2455C156.4527,-104.0549 143.512,-92.1749 132.9808,-82.5069"/>
<polygon fill="#191970" stroke="#191970" points="135.2371,-79.8271 125.5036,-75.6427 130.5032,-84.9837 135.2371,-79.8271"/>
</g>
<!-- Node4 -->
<g id="node5" class="node">
<title>Node4</title>
<polygon fill="none" stroke="#bfbfbf" points="172,-56.5 172,-75.5 216,-75.5 216,-56.5 172,-56.5"/>
<text text-anchor="middle" x="194" y="-63.5" font-family="Helvetica,sans-Serif" font-size="10.00" fill="#000000">string</text>
</g>
<!-- Node1&#45;&gt;Node4 -->
<g id="edge4" class="edge">
<title>Node1&#45;&gt;Node4</title>
<path fill="none" stroke="#191970" d="M179.1354,-112.2455C181.51,-104.8579 184.8493,-94.4689 187.7615,-85.4087"/>
<polygon fill="#191970" stroke="#191970" points="191.1725,-86.234 190.9006,-75.6427 184.5083,-84.0919 191.1725,-86.234"/>
</g>
<!-- Node5 -->
<g id="node6" class="node">
<title>Node5</title>
<g id="a_node6"><a xlink:href="Meta_8hxx.html" target="_top" xlink:title="../../util/Meta.hxx">
<polygon fill="none" stroke="#000000" points="234,-56.5 234,-75.5 332,-75.5 332,-56.5 234,-56.5"/>
<text text-anchor="middle" x="283" y="-63.5" font-family="Helvetica,sans-Serif" font-size="10.00" fill="#000000">../../util/Meta.hxx</text>
</a>
</g>
</g>
<!-- Node1&#45;&gt;Node5 -->
<g id="edge5" class="edge">
<title>Node1&#45;&gt;Node5</title>
<path fill="none" stroke="#191970" d="M194.638,-112.2455C211.4386,-103.4527 236.3634,-90.4079 255.4618,-80.4125"/>
<polygon fill="#191970" stroke="#191970" points="257.3386,-83.3807 264.5756,-75.6427 254.0927,-77.1787 257.3386,-83.3807"/>
</g>
<!-- Node6 -->
<g id="node7" class="node">
<title>Node6</title>
<polygon fill="none" stroke="#bfbfbf" points="131,-.5 131,-19.5 191,-19.5 191,-.5 131,-.5"/>
<text text-anchor="middle" x="161" y="-7.5" font-family="Helvetica,sans-Serif" font-size="10.00" fill="#000000">iostream</text>
</g>
<!-- Node5&#45;&gt;Node6 -->
<g id="edge6" class="edge">
<title>Node5&#45;&gt;Node6</title>
<path fill="none" stroke="#191970" d="M262.0275,-56.3733C242.4433,-47.3838 213.0039,-33.8706 190.949,-23.7471"/>
<polygon fill="#191970" stroke="#191970" points="192.2473,-20.4919 181.6989,-19.5011 189.3271,-26.8538 192.2473,-20.4919"/>
</g>
<!-- Node7 -->
<g id="node8" class="node">
<title>Node7</title>
<polygon fill="none" stroke="#bfbfbf" points="209.5,-.5 209.5,-19.5 278.5,-19.5 278.5,-.5 209.5,-.5"/>
<text text-anchor="middle" x="244" y="-7.5" font-family="Helvetica,sans-Serif" font-size="10.00" fill="#000000">type_traits</text>
</g>
<!-- Node5&#45;&gt;Node7 -->
<g id="edge7" class="edge">
<title>Node5&#45;&gt;Node7</title>
<path fill="none" stroke="#191970" d="M276.2067,-56.2455C270.7822,-48.4564 263.0339,-37.3308 256.4967,-27.9439"/>
<polygon fill="#191970" stroke="#191970" points="259.3025,-25.8485 250.7154,-19.6427 253.5583,-29.849 259.3025,-25.8485"/>
</g>
<!-- Node8 -->
<g id="node9" class="node">
<title>Node8</title>
<polygon fill="none" stroke="#bfbfbf" points="296.5,-.5 296.5,-19.5 347.5,-19.5 347.5,-.5 296.5,-.5"/>
<text text-anchor="middle" x="322" y="-7.5" font-family="Helvetica,sans-Serif" font-size="10.00" fill="#000000">variant</text>
</g>
<!-- Node5&#45;&gt;Node8 -->
<g id="edge8" class="edge">
<title>Node5&#45;&gt;Node8</title>
<path fill="none" stroke="#191970" d="M289.7933,-56.2455C295.2178,-48.4564 302.9661,-37.3308 309.5033,-27.9439"/>
<polygon fill="#191970" stroke="#191970" points="312.4417,-29.849 315.2846,-19.6427 306.6975,-25.8485 312.4417,-29.849"/>
</g>
<!-- Node9 -->
<g id="node10" class="node">
<title>Node9</title>
<polygon fill="none" stroke="#bfbfbf" points="365.5,-.5 365.5,-19.5 406.5,-19.5 406.5,-.5 365.5,-.5"/>
<text text-anchor="middle" x="386" y="-7.5" font-family="Helvetica,sans-Serif" font-size="10.00" fill="#000000">tuple</text>
</g>
<!-- Node5&#45;&gt;Node9 -->
<g id="edge9" class="edge">
<title>Node5&#45;&gt;Node9</title>
<path fill="none" stroke="#191970" d="M300.9412,-56.2455C317.04,-47.4928 340.8879,-34.527 359.2391,-24.5496"/>
<polygon fill="#191970" stroke="#191970" points="361.1507,-27.4942 368.2644,-19.6427 357.8071,-21.3444 361.1507,-27.4942"/>
</g>
<!-- Node12&#45;&gt;Node4 -->
<g id="edge13" class="edge">
<title>Node12&#45;&gt;Node4</title>
<path fill="none" stroke="#191970" d="M281.5362,-112.2455C264.8926,-103.4527 240.2007,-90.4079 221.2808,-80.4125"/>
<polygon fill="#191970" stroke="#191970" points="222.7291,-77.2193 212.2522,-75.6427 219.4592,-83.4086 222.7291,-77.2193"/>
</g>
<!-- Node12&#45;&gt;Node5 -->
<g id="edge15" class="edge">
<title>Node12&#45;&gt;Node5</title>
<path fill="none" stroke="#191970" d="M297.0388,-112.2455C294.7962,-104.8579 291.6423,-94.4689 288.8919,-85.4087"/>
<polygon fill="#191970" stroke="#191970" points="292.1812,-84.1948 285.9272,-75.6427 285.483,-86.2282 292.1812,-84.1948"/>
</g>
<!-- Node13 -->
<g id="node14" class="node">
<title>Node13</title>
<g id="a_node14"><a xlink:href="Singleton_8hxx.html" target="_top" xlink:title="../../util/Singleton.hxx">
<polygon fill="none" stroke="#000000" points="350,-56.5 350,-75.5 470,-75.5 470,-56.5 350,-56.5"/>
<text text-anchor="middle" x="410" y="-63.5" font-family="Helvetica,sans-Serif" font-size="10.00" fill="#000000">../../util/Singleton.hxx</text>
</a>
</g>
</g>
<!-- Node12&#45;&gt;Node13 -->
<g id="edge14" class="edge">
<title>Node12&#45;&gt;Node13</title>
<path fill="none" stroke="#191970" d="M319.1605,-112.2455C336.5111,-103.4125 362.2901,-90.2887 381.9583,-80.2758"/>
<polygon fill="#191970" stroke="#191970" points="383.7353,-83.2986 391.059,-75.6427 380.5595,-77.0605 383.7353,-83.2986"/>
</g>
<!-- Node14 -->
<g id="node15" class="node">
<title>Node14</title>
<polygon fill="none" stroke="#bfbfbf" points="488.5,-56.5 488.5,-75.5 541.5,-75.5 541.5,-56.5 488.5,-56.5"/>
<text text-anchor="middle" x="515" y="-63.5" font-family="Helvetica,sans-Serif" font-size="10.00" fill="#000000">cstddef</text>
</g>
<!-- Node12&#45;&gt;Node14 -->
<g id="edge16" class="edge">
<title>Node12&#45;&gt;Node14</title>
<path fill="none" stroke="#191970" d="M338.1173,-112.4325C372.3393,-103.7918 424.1981,-90.5734 478.4792,-76.1037"/>
<polygon fill="#191970" stroke="#191970" points="479.5222,-79.4478 488.2794,-73.4845 477.7148,-72.6852 479.5222,-79.4478"/>
</g>
</g>
</svg>
