<?xml version="1.0" encoding="UTF-8" standalone="no"?>
<!DOCTYPE svg PUBLIC "-//W3C//DTD SVG 1.1//EN"
 "http://www.w3.org/Graphics/SVG/1.1/DTD/svg11.dtd">
<!-- Generated by graphviz version 2.40.1 (20161225.0304)
 -->
<!-- Title: src/engine/audio/Soundtrack.hxx Pages: 1 -->
<svg width="415pt" height="140pt"
 viewBox="0.00 0.00 414.50 140.00" xmlns="http://www.w3.org/2000/svg" xmlns:xlink="http://www.w3.org/1999/xlink">
<g id="graph0" class="graph" transform="scale(1 1) rotate(0) translate(4 136)">
<title>src/engine/audio/Soundtrack.hxx</title>
<!-- Node0 -->
<g id="node1" class="node">
<title>Node0</title>
<polygon fill="#bfbfbf" stroke="#000000" points="66,-112.5 66,-131.5 242,-131.5 242,-112.5 66,-112.5"/>
<text text-anchor="middle" x="154" y="-119.5" font-family="Helvetica,sans-Serif" font-size="10.00" fill="#000000">src/engine/audio/Soundtrack.hxx</text>
</g>
<!-- Node1 -->
<g id="node2" class="node">
<title>Node1</title>
<polygon fill="none" stroke="#bfbfbf" points="0,-56.5 0,-75.5 58,-75.5 58,-56.5 0,-56.5"/>
<text text-anchor="middle" x="29" y="-63.5" font-family="Helvetica,sans-Serif" font-size="10.00" fill="#000000">memory</text>
</g>
<!-- Node0&#45;&gt;Node1 -->
<g id="edge1" class="edge">
<title>Node0&#45;&gt;Node1</title>
<path fill="none" stroke="#191970" d="M132.5117,-112.3733C112.356,-103.3435 82.012,-89.7494 59.382,-79.6111"/>
<polygon fill="#191970" stroke="#191970" points="60.7649,-76.3955 50.2079,-75.5011 57.9029,-82.7838 60.7649,-76.3955"/>
</g>
<!-- Node2 -->
<g id="node3" class="node">
<title>Node2</title>
<polygon fill="none" stroke="#bfbfbf" points="76.5,-56.5 76.5,-75.5 153.5,-75.5 153.5,-56.5 76.5,-56.5"/>
<text text-anchor="middle" x="115" y="-63.5" font-family="Helvetica,sans-Serif" font-size="10.00" fill="#000000">SDL_mixer.h</text>
</g>
<!-- Node0&#45;&gt;Node2 -->
<g id="edge2" class="edge">
<title>Node0&#45;&gt;Node2</title>
<path fill="none" stroke="#191970" d="M147.2067,-112.2455C141.7822,-104.4564 134.0339,-93.3308 127.4967,-83.9439"/>
<polygon fill="#191970" stroke="#191970" points="130.3025,-81.8485 121.7154,-75.6427 124.5583,-85.849 130.3025,-81.8485"/>
</g>
<!-- Node3 -->
<g id="node4" class="node">
<title>Node3</title>
<polygon fill="none" stroke="#bfbfbf" points="172,-56.5 172,-75.5 216,-75.5 216,-56.5 172,-56.5"/>
<text text-anchor="middle" x="194" y="-63.5" font-family="Helvetica,sans-Serif" font-size="10.00" fill="#000000">string</text>
</g>
<!-- Node0&#45;&gt;Node3 -->
<g id="edge3" class="edge">
<title>Node0&#45;&gt;Node3</title>
<path fill="none" stroke="#191970" d="M160.9675,-112.2455C166.5311,-104.4564 174.478,-93.3308 181.1829,-83.9439"/>
<polygon fill="#191970" stroke="#191970" points="184.148,-85.8144 187.1124,-75.6427 178.4519,-81.7457 184.148,-85.8144"/>
</g>
<!-- Node4 -->
<g id="node5" class="node">
<title>Node4</title>
<g id="a_node5"><a xlink:href="Meta_8hxx.html" target="_top" xlink:title="../../util/Meta.hxx">
<polygon fill="none" stroke="#000000" points="234,-56.5 234,-75.5 332,-75.5 332,-56.5 234,-56.5"/>
<text text-anchor="middle" x="283" y="-63.5" font-family="Helvetica,sans-Serif" font-size="10.00" fill="#000000">../../util/Meta.hxx</text>
</a>
</g>
</g>
<!-- Node0&#45;&gt;Node4 -->
<g id="edge4" class="edge">
<title>Node0&#45;&gt;Node4</title>
<path fill="none" stroke="#191970" d="M176.1759,-112.3733C196.9766,-103.3435 228.2917,-89.7494 251.6458,-79.6111"/>
<polygon fill="#191970" stroke="#191970" points="253.3343,-82.6938 261.1135,-75.5011 250.5468,-76.2727 253.3343,-82.6938"/>
</g>
<!-- Node5 -->
<g id="node6" class="node">
<title>Node5</title>
<polygon fill="none" stroke="#bfbfbf" points="131,-.5 131,-19.5 191,-19.5 191,-.5 131,-.5"/>
<text text-anchor="middle" x="161" y="-7.5" font-family="Helvetica,sans-Serif" font-size="10.00" fill="#000000">iostream</text>
</g>
<!-- Node4&#45;&gt;Node5 -->
<g id="edge5" class="edge">
<title>Node4&#45;&gt;Node5</title>
<path fill="none" stroke="#191970" d="M262.0275,-56.3733C242.4433,-47.3838 213.0039,-33.8706 190.949,-23.7471"/>
<polygon fill="#191970" stroke="#191970" points="192.2473,-20.4919 181.6989,-19.5011 189.3271,-26.8538 192.2473,-20.4919"/>
</g>
<!-- Node6 -->
<g id="node7" class="node">
<title>Node6</title>
<polygon fill="none" stroke="#bfbfbf" points="209.5,-.5 209.5,-19.5 278.5,-19.5 278.5,-.5 209.5,-.5"/>
<text text-anchor="middle" x="244" y="-7.5" font-family="Helvetica,sans-Serif" font-size="10.00" fill="#000000">type_traits</text>
</g>
<!-- Node4&#45;&gt;Node6 -->
<g id="edge6" class="edge">
<title>Node4&#45;&gt;Node6</title>
<path fill="none" stroke="#191970" d="M276.2067,-56.2455C270.7822,-48.4564 263.0339,-37.3308 256.4967,-27.9439"/>
<polygon fill="#191970" stroke="#191970" points="259.3025,-25.8485 250.7154,-19.6427 253.5583,-29.849 259.3025,-25.8485"/>
</g>
<!-- Node7 -->
<g id="node8" class="node">
<title>Node7</title>
<polygon fill="none" stroke="#bfbfbf" points="296.5,-.5 296.5,-19.5 347.5,-19.5 347.5,-.5 296.5,-.5"/>
<text text-anchor="middle" x="322" y="-7.5" font-family="Helvetica,sans-Serif" font-size="10.00" fill="#000000">variant</text>
</g>
<!-- Node4&#45;&gt;Node7 -->
<g id="edge7" class="edge">
<title>Node4&#45;&gt;Node7</title>
<path fill="none" stroke="#191970" d="M289.7933,-56.2455C295.2178,-48.4564 302.9661,-37.3308 309.5033,-27.9439"/>
<polygon fill="#191970" stroke="#191970" points="312.4417,-29.849 315.2846,-19.6427 306.6975,-25.8485 312.4417,-29.849"/>
</g>
<!-- Node8 -->
<g id="node9" class="node">
<title>Node8</title>
<polygon fill="none" stroke="#bfbfbf" points="365.5,-.5 365.5,-19.5 406.5,-19.5 406.5,-.5 365.5,-.5"/>
<text text-anchor="middle" x="386" y="-7.5" font-family="Helvetica,sans-Serif" font-size="10.00" fill="#000000">tuple</text>
</g>
<!-- Node4&#45;&gt;Node8 -->
<g id="edge8" class="edge">
<title>Node4&#45;&gt;Node8</title>
<path fill="none" stroke="#191970" d="M300.9412,-56.2455C317.04,-47.4928 340.8879,-34.527 359.2391,-24.5496"/>
<polygon fill="#191970" stroke="#191970" points="361.1507,-27.4942 368.2644,-19.6427 357.8071,-21.3444 361.1507,-27.4942"/>
</g>
</g>
</svg>
