<?xml version="1.0" encoding="UTF-8" standalone="no"?>
<!DOCTYPE svg PUBLIC "-//W3C//DTD SVG 1.1//EN"
 "http://www.w3.org/Graphics/SVG/1.1/DTD/svg11.dtd">
<!-- Generated by graphviz version 2.40.1 (20161225.0304)
 -->
<!-- Title: src/engine/Sprite.hxx Pages: 1 -->
<svg width="1420pt" height="386pt"
 viewBox="0.00 0.00 1419.50 386.00" xmlns="http://www.w3.org/2000/svg" xmlns:xlink="http://www.w3.org/1999/xlink">
<g id="graph0" class="graph" transform="scale(1 1) rotate(0) translate(4 382)">
<title>src/engine/Sprite.hxx</title>
<!-- Node7 -->
<g id="node1" class="node">
<title>Node7</title>
<polygon fill="#bfbfbf" stroke="#000000" points="1204.5,-358.5 1204.5,-377.5 1323.5,-377.5 1323.5,-358.5 1204.5,-358.5"/>
<text text-anchor="middle" x="1264" y="-365.5" font-family="Helvetica,sans-Serif" font-size="10.00" fill="#000000">src/engine/Sprite.hxx</text>
</g>
<!-- Node8 -->
<g id="node2" class="node">
<title>Node8</title>
<g id="a_node2"><a xlink:href="MapNode_8hxx.html" target="_top" xlink:title="src/engine/GameObjects\l/MapNode.hxx">
<polygon fill="none" stroke="#000000" points="727,-291.5 727,-321.5 863,-321.5 863,-291.5 727,-291.5"/>
<text text-anchor="start" x="735" y="-309.5" font-family="Helvetica,sans-Serif" font-size="10.00" fill="#000000">src/engine/GameObjects</text>
<text text-anchor="middle" x="795" y="-298.5" font-family="Helvetica,sans-Serif" font-size="10.00" fill="#000000">/MapNode.hxx</text>
</a>
</g>
</g>
<!-- Node7&#45;&gt;Node8 -->
<g id="edge1" class="edge">
<title>Node7&#45;&gt;Node8</title>
<path fill="none" stroke="#191970" d="M1194.1057,-358.8348C1104.9182,-347.1396 951.6428,-327.0406 863.251,-315.4498"/>
<polygon fill="#191970" stroke="#191970" points="1193.7542,-362.3186 1204.1244,-360.1485 1194.6644,-355.378 1193.7542,-362.3186"/>
</g>
<!-- Node15 -->
<g id="node9" class="node">
<title>Node15</title>
<g id="a_node9"><a xlink:href="EventManager_8cxx.html" target="_top" xlink:title="src/engine/EventManager.cxx">
<polygon fill="none" stroke="#000000" points="1146.5,-.5 1146.5,-19.5 1305.5,-19.5 1305.5,-.5 1146.5,-.5"/>
<text text-anchor="middle" x="1226" y="-7.5" font-family="Helvetica,sans-Serif" font-size="10.00" fill="#000000">src/engine/EventManager.cxx</text>
</a>
</g>
</g>
<!-- Node7&#45;&gt;Node15 -->
<g id="edge27" class="edge">
<title>Node7&#45;&gt;Node15</title>
<path fill="none" stroke="#191970" d="M1264,-348.2188C1264,-322.9855 1264,-277.9988 1264,-239.5 1264,-239.5 1264,-239.5 1264,-122 1264,-82.1657 1242.1774,-38.3859 1231.607,-19.5166"/>
<polygon fill="#191970" stroke="#191970" points="1260.5001,-348.3281 1264,-358.3281 1267.5001,-348.3282 1260.5001,-348.3281"/>
</g>
<!-- Node27 -->
<g id="node21" class="node">
<title>Node27</title>
<g id="a_node21"><a xlink:href="Sprite_8cxx.html" target="_top" xlink:title="src/engine/Sprite.cxx">
<polygon fill="none" stroke="#000000" points="1292.5,-297 1292.5,-316 1411.5,-316 1411.5,-297 1292.5,-297"/>
<text text-anchor="middle" x="1352" y="-304" font-family="Helvetica,sans-Serif" font-size="10.00" fill="#000000">src/engine/Sprite.cxx</text>
</a>
</g>
</g>
<!-- Node7&#45;&gt;Node27 -->
<g id="edge28" class="edge">
<title>Node7&#45;&gt;Node27</title>
<path fill="none" stroke="#191970" d="M1286.2239,-352.4685C1302.6288,-341.0037 1324.4339,-325.765 1338.3466,-316.0419"/>
<polygon fill="#191970" stroke="#191970" points="1283.9418,-349.7934 1277.75,-358.3906 1287.9517,-355.5311 1283.9418,-349.7934"/>
</g>
<!-- Node9 -->
<g id="node3" class="node">
<title>Node9</title>
<g id="a_node3"><a xlink:href="Map_8hxx.html" target="_top" xlink:title="src/engine/Map.hxx">
<polygon fill="none" stroke="#000000" points="881.5,-168.5 881.5,-187.5 992.5,-187.5 992.5,-168.5 881.5,-168.5"/>
<text text-anchor="middle" x="937" y="-175.5" font-family="Helvetica,sans-Serif" font-size="10.00" fill="#000000">src/engine/Map.hxx</text>
</a>
</g>
</g>
<!-- Node8&#45;&gt;Node9 -->
<g id="edge2" class="edge">
<title>Node8&#45;&gt;Node9</title>
<path fill="none" stroke="#191970" d="M854.0948,-287.3655C871.5163,-279.4971 889.5063,-268.8928 903,-255 921.9375,-235.5023 931.3048,-203.6894 935.0116,-187.7496"/>
<polygon fill="#191970" stroke="#191970" points="852.3296,-284.3135 844.5069,-291.4589 855.0781,-290.7513 852.3296,-284.3135"/>
</g>
<!-- Node20 -->
<g id="node14" class="node">
<title>Node20</title>
<g id="a_node14"><a xlink:href="TerrainGenerator_8hxx.html" target="_top" xlink:title="src/engine/map/TerrainGenerator.hxx">
<polygon fill="none" stroke="#000000" points="696.5,-230 696.5,-249 893.5,-249 893.5,-230 696.5,-230"/>
<text text-anchor="middle" x="795" y="-237" font-family="Helvetica,sans-Serif" font-size="10.00" fill="#000000">src/engine/map/TerrainGenerator.hxx</text>
</a>
</g>
</g>
<!-- Node8&#45;&gt;Node20 -->
<g id="edge16" class="edge">
<title>Node8&#45;&gt;Node20</title>
<path fill="none" stroke="#191970" d="M795,-281.1199C795,-269.9072 795,-257.4031 795,-249.055"/>
<polygon fill="#191970" stroke="#191970" points="791.5001,-281.2966 795,-291.2967 798.5001,-281.2967 791.5001,-281.2966"/>
</g>
<!-- Node21 -->
<g id="node15" class="node">
<title>Node21</title>
<g id="a_node15"><a xlink:href="JsonSerialization_8hxx.html" target="_top" xlink:title="src/engine/common/JsonSerialization.hxx">
<polygon fill="none" stroke="#000000" points="543,-168.5 543,-187.5 761,-187.5 761,-168.5 543,-168.5"/>
<text text-anchor="middle" x="652" y="-175.5" font-family="Helvetica,sans-Serif" font-size="10.00" fill="#000000">src/engine/common/JsonSerialization.hxx</text>
</a>
</g>
</g>
<!-- Node8&#45;&gt;Node21 -->
<g id="edge25" class="edge">
<title>Node8&#45;&gt;Node21</title>
<path fill="none" stroke="#191970" d="M736.2324,-287.3835C718.7421,-279.4998 700.63,-268.8822 687,-255 667.8648,-235.5108 658.0592,-203.6941 654.1274,-187.7515"/>
<polygon fill="#191970" stroke="#191970" points="735.2814,-290.7828 745.8529,-291.4854 738.0269,-284.3437 735.2814,-290.7828"/>
</g>
<!-- Node26 -->
<g id="node20" class="node">
<title>Node26</title>
<g id="a_node20"><a xlink:href="MapNode_8cxx.html" target="_top" xlink:title="src/engine/GameObjects\l/MapNode.cxx">
<polygon fill="none" stroke="#000000" points="504,-224.5 504,-254.5 640,-254.5 640,-224.5 504,-224.5"/>
<text text-anchor="start" x="512" y="-242.5" font-family="Helvetica,sans-Serif" font-size="10.00" fill="#000000">src/engine/GameObjects</text>
<text text-anchor="middle" x="572" y="-231.5" font-family="Helvetica,sans-Serif" font-size="10.00" fill="#000000">/MapNode.cxx</text>
</a>
</g>
</g>
<!-- Node8&#45;&gt;Node26 -->
<g id="edge26" class="edge">
<title>Node8&#45;&gt;Node26</title>
<path fill="none" stroke="#191970" d="M735.2507,-288.5484C699.9529,-277.9432 655.7632,-264.6665 622.2638,-254.6017"/>
<polygon fill="#191970" stroke="#191970" points="734.3702,-291.9384 744.9544,-291.4639 736.3845,-285.2344 734.3702,-291.9384"/>
</g>
<!-- Node10 -->
<g id="node4" class="node">
<title>Node10</title>
<g id="a_node4"><a xlink:href="Engine_8hxx.html" target="_top" xlink:title="src/engine/Engine.hxx">
<polygon fill="none" stroke="#000000" points="896,-112.5 896,-131.5 1020,-131.5 1020,-112.5 896,-112.5"/>
<text text-anchor="middle" x="958" y="-119.5" font-family="Helvetica,sans-Serif" font-size="10.00" fill="#000000">src/engine/Engine.hxx</text>
</a>
</g>
</g>
<!-- Node9&#45;&gt;Node10 -->
<g id="edge3" class="edge">
<title>Node9&#45;&gt;Node10</title>
<path fill="none" stroke="#191970" d="M944.219,-158.7493C947.6476,-149.6064 951.5951,-139.0798 954.384,-131.6427"/>
<polygon fill="#191970" stroke="#191970" points="940.8921,-157.6533 940.6579,-168.2455 947.4464,-160.1112 940.8921,-157.6533"/>
</g>
<!-- Node9&#45;&gt;Node15 -->
<g id="edge13" class="edge">
<title>Node9&#45;&gt;Node15</title>
<path fill="none" stroke="#191970" d="M1002.6903,-170.0333C1063.9189,-159.1724 1153.5834,-133.923 1207,-76 1221.5502,-60.2223 1225.0325,-34.0026 1225.8177,-19.8252"/>
<polygon fill="#191970" stroke="#191970" points="1002.0161,-166.5975 992.7401,-171.7166 1003.1838,-173.4995 1002.0161,-166.5975"/>
</g>
<!-- Node18 -->
<g id="node12" class="node">
<title>Node18</title>
<g id="a_node12"><a xlink:href="UIManager_8cxx.html" target="_top" xlink:title="src/engine/UIManager.cxx">
<polygon fill="none" stroke="#000000" points="1056,-56.5 1056,-75.5 1198,-75.5 1198,-56.5 1056,-56.5"/>
<text text-anchor="middle" x="1127" y="-63.5" font-family="Helvetica,sans-Serif" font-size="10.00" fill="#000000">src/engine/UIManager.cxx</text>
</a>
</g>
</g>
<!-- Node9&#45;&gt;Node18 -->
<g id="edge15" class="edge">
<title>Node9&#45;&gt;Node18</title>
<path fill="none" stroke="#191970" d="M967.7309,-163.8598C985.8639,-155.2157 1009.0885,-143.6176 1029,-132 1060.5368,-113.5994 1095.5968,-88.8788 1114.0337,-75.5229"/>
<polygon fill="#191970" stroke="#191970" points="965.7853,-160.9076 958.2343,-168.3394 968.7718,-167.2386 965.7853,-160.9076"/>
</g>
<!-- Node19 -->
<g id="node13" class="node">
<title>Node19</title>
<g id="a_node13"><a xlink:href="Map_8cxx.html" target="_top" xlink:title="src/engine/Map.cxx">
<polygon fill="none" stroke="#000000" points="768,-112.5 768,-131.5 878,-131.5 878,-112.5 768,-112.5"/>
<text text-anchor="middle" x="823" y="-119.5" font-family="Helvetica,sans-Serif" font-size="10.00" fill="#000000">src/engine/Map.cxx</text>
</a>
</g>
</g>
<!-- Node9&#45;&gt;Node19 -->
<g id="edge14" class="edge">
<title>Node9&#45;&gt;Node19</title>
<path fill="none" stroke="#191970" d="M908.1679,-163.8368C887.5605,-153.7139 860.3918,-140.3679 842.3416,-131.5011"/>
<polygon fill="#191970" stroke="#191970" points="906.884,-167.1056 917.4027,-168.3733 909.9703,-160.8227 906.884,-167.1056"/>
</g>
<!-- Node11 -->
<g id="node5" class="node">
<title>Node11</title>
<g id="a_node5"><a xlink:href="Camera_8cxx.html" target="_top" xlink:title="src/engine/basics/Camera.cxx">
<polygon fill="none" stroke="#000000" points="480,-56.5 480,-75.5 642,-75.5 642,-56.5 480,-56.5"/>
<text text-anchor="middle" x="561" y="-63.5" font-family="Helvetica,sans-Serif" font-size="10.00" fill="#000000">src/engine/basics/Camera.cxx</text>
</a>
</g>
</g>
<!-- Node10&#45;&gt;Node11 -->
<g id="edge4" class="edge">
<title>Node10&#45;&gt;Node11</title>
<path fill="none" stroke="#191970" d="M885.9045,-111.8304C812.6713,-101.5002 700.1311,-85.6255 628.5705,-75.5314"/>
<polygon fill="#191970" stroke="#191970" points="885.5779,-115.3189 895.9688,-113.25 886.5557,-108.3875 885.5779,-115.3189"/>
</g>
<!-- Node12 -->
<g id="node6" class="node">
<title>Node12</title>
<g id="a_node6"><a xlink:href="isoMath_8cxx.html" target="_top" xlink:title="src/engine/basics/isoMath.cxx">
<polygon fill="none" stroke="#000000" points="660,-56.5 660,-75.5 822,-75.5 822,-56.5 660,-56.5"/>
<text text-anchor="middle" x="741" y="-63.5" font-family="Helvetica,sans-Serif" font-size="10.00" fill="#000000">src/engine/basics/isoMath.cxx</text>
</a>
</g>
</g>
<!-- Node10&#45;&gt;Node12 -->
<g id="edge5" class="edge">
<title>Node10&#45;&gt;Node12</title>
<path fill="none" stroke="#191970" d="M910.9231,-109.8511C870.9917,-99.5462 814.5077,-84.9697 777.8169,-75.5011"/>
<polygon fill="#191970" stroke="#191970" points="910.139,-113.2634 920.6964,-112.3733 911.8882,-106.4854 910.139,-113.2634"/>
</g>
<!-- Node13 -->
<g id="node7" class="node">
<title>Node13</title>
<g id="a_node7"><a xlink:href="EventManager_8hxx.html" target="_top" xlink:title="src/engine/EventManager.hxx">
<polygon fill="none" stroke="#000000" points="878,-56.5 878,-75.5 1038,-75.5 1038,-56.5 878,-56.5"/>
<text text-anchor="middle" x="958" y="-63.5" font-family="Helvetica,sans-Serif" font-size="10.00" fill="#000000">src/engine/EventManager.hxx</text>
</a>
</g>
</g>
<!-- Node10&#45;&gt;Node13 -->
<g id="edge6" class="edge">
<title>Node10&#45;&gt;Node13</title>
<path fill="none" stroke="#191970" d="M958,-102.1575C958,-93.155 958,-82.9199 958,-75.6427"/>
<polygon fill="#191970" stroke="#191970" points="954.5001,-102.2455 958,-112.2455 961.5001,-102.2456 954.5001,-102.2455"/>
</g>
<!-- Node16 -->
<g id="node10" class="node">
<title>Node16</title>
<g id="a_node10"><a xlink:href="Game_8cxx.html" target="_top" xlink:title="src/Game.cxx">
<polygon fill="none" stroke="#000000" points="808.5,-.5 808.5,-19.5 891.5,-19.5 891.5,-.5 808.5,-.5"/>
<text text-anchor="middle" x="850" y="-7.5" font-family="Helvetica,sans-Serif" font-size="10.00" fill="#000000">src/Game.cxx</text>
</a>
</g>
</g>
<!-- Node10&#45;&gt;Node16 -->
<g id="edge12" class="edge">
<title>Node10&#45;&gt;Node16</title>
<path fill="none" stroke="#191970" d="M915.791,-108.5165C899.1111,-101.2705 881.0804,-90.7258 869,-76 855.3875,-59.4065 851.5243,-33.5182 850.4302,-19.6095"/>
<polygon fill="#191970" stroke="#191970" points="914.818,-111.8985 925.4005,-112.4083 917.4457,-105.4104 914.818,-111.8985"/>
</g>
<!-- Node17 -->
<g id="node11" class="node">
<title>Node17</title>
<g id="a_node11"><a xlink:href="Engine_8cxx.html" target="_top" xlink:title="src/engine/Engine.cxx">
<polygon fill="none" stroke="#000000" points="338.5,-56.5 338.5,-75.5 461.5,-75.5 461.5,-56.5 338.5,-56.5"/>
<text text-anchor="middle" x="400" y="-63.5" font-family="Helvetica,sans-Serif" font-size="10.00" fill="#000000">src/engine/Engine.cxx</text>
</a>
</g>
</g>
<!-- Node10&#45;&gt;Node17 -->
<g id="edge10" class="edge">
<title>Node10&#45;&gt;Node17</title>
<path fill="none" stroke="#191970" d="M885.6377,-111.8973C700.9041,-91.2502 652.1524,-96.5806 471,-76 467.9079,-75.6487 464.7426,-75.2707 461.5479,-74.8744"/>
<polygon fill="#191970" stroke="#191970" points="885.3566,-115.3877 895.686,-113.0308 886.1414,-108.4318 885.3566,-115.3877"/>
</g>
<!-- Node10&#45;&gt;Node18 -->
<g id="edge11" class="edge">
<title>Node10&#45;&gt;Node18</title>
<path fill="none" stroke="#191970" d="M996.6573,-109.1905C1027.6193,-98.9309 1070.3574,-84.7691 1098.327,-75.5011"/>
<polygon fill="#191970" stroke="#191970" points="995.4437,-105.9054 987.0521,-112.3733 997.6455,-112.5501 995.4437,-105.9054"/>
</g>
<!-- Node14 -->
<g id="node8" class="node">
<title>Node14</title>
<g id="a_node8"><a xlink:href="Timer_8cxx.html" target="_top" xlink:title="src/engine/basics/Timer.cxx">
<polygon fill="none" stroke="#000000" points="910,-.5 910,-19.5 1062,-19.5 1062,-.5 910,-.5"/>
<text text-anchor="middle" x="986" y="-7.5" font-family="Helvetica,sans-Serif" font-size="10.00" fill="#000000">src/engine/basics/Timer.cxx</text>
</a>
</g>
</g>
<!-- Node13&#45;&gt;Node14 -->
<g id="edge7" class="edge">
<title>Node13&#45;&gt;Node14</title>
<path fill="none" stroke="#191970" d="M967.4781,-47.0437C972.0835,-37.8331 977.4201,-27.1598 981.1787,-19.6427"/>
<polygon fill="#191970" stroke="#191970" points="964.2189,-45.736 962.8772,-56.2455 970.4799,-48.8665 964.2189,-45.736"/>
</g>
<!-- Node13&#45;&gt;Node15 -->
<g id="edge8" class="edge">
<title>Node13&#45;&gt;Node15</title>
<path fill="none" stroke="#191970" d="M1013.6483,-54.372C1063.0441,-44.0505 1134.3359,-29.1537 1180.4224,-19.5237"/>
<polygon fill="#191970" stroke="#191970" points="1012.839,-50.9654 1003.7663,-56.4369 1014.2708,-57.8174 1012.839,-50.9654"/>
</g>
<!-- Node13&#45;&gt;Node16 -->
<g id="edge9" class="edge">
<title>Node13&#45;&gt;Node16</title>
<path fill="none" stroke="#191970" d="M930.2229,-51.5971C910.8618,-41.558 885.5615,-28.4393 868.5966,-19.6427"/>
<polygon fill="#191970" stroke="#191970" points="928.6992,-54.7495 939.1878,-56.2455 931.9214,-48.5352 928.6992,-54.7495"/>
</g>
<!-- Node20&#45;&gt;Node9 -->
<g id="edge17" class="edge">
<title>Node20&#45;&gt;Node9</title>
<path fill="none" stroke="#191970" d="M826.5337,-225.8428C853.3841,-214.2139 891.2711,-197.8051 914.9683,-187.5419"/>
<polygon fill="#191970" stroke="#191970" points="824.9728,-222.7046 817.1875,-229.8906 827.7549,-229.128 824.9728,-222.7046"/>
</g>
<!-- Node20&#45;&gt;Node21 -->
<g id="edge18" class="edge">
<title>Node20&#45;&gt;Node21</title>
<path fill="none" stroke="#191970" d="M763.2442,-225.8428C736.2048,-214.2139 698.0509,-197.8051 674.1869,-187.5419"/>
<polygon fill="#191970" stroke="#191970" points="762.087,-229.155 772.6563,-229.8906 764.8526,-222.7245 762.087,-229.155"/>
</g>
<!-- Node23 -->
<g id="node17" class="node">
<title>Node23</title>
<g id="a_node17"><a xlink:href="TerrainGenerator_8cxx.html" target="_top" xlink:title="src/engine/map/TerrainGenerator.cxx">
<polygon fill="none" stroke="#000000" points="554,-112.5 554,-131.5 750,-131.5 750,-112.5 554,-112.5"/>
<text text-anchor="middle" x="652" y="-119.5" font-family="Helvetica,sans-Serif" font-size="10.00" fill="#000000">src/engine/map/TerrainGenerator.cxx</text>
</a>
</g>
</g>
<!-- Node20&#45;&gt;Node23 -->
<g id="edge24" class="edge">
<title>Node20&#45;&gt;Node23</title>
<path fill="none" stroke="#191970" d="M792.6264,-219.5574C789.7655,-203.7306 783.5222,-182.0088 770,-168 752.0572,-149.4115 725.7267,-138.196 702.488,-131.5013"/>
<polygon fill="#191970" stroke="#191970" points="789.2246,-220.4742 794.1675,-229.8453 796.1474,-219.4371 789.2246,-220.4742"/>
</g>
<!-- Node21&#45;&gt;Node19 -->
<g id="edge21" class="edge">
<title>Node21&#45;&gt;Node19</title>
<path fill="none" stroke="#191970" d="M691.1148,-165.1905C722.4432,-154.9309 765.6871,-140.7691 793.9876,-131.5011"/>
<polygon fill="#191970" stroke="#191970" points="689.81,-161.9348 681.3959,-168.3733 691.9886,-168.5872 689.81,-161.9348"/>
</g>
<!-- Node22 -->
<g id="node16" class="node">
<title>Node22</title>
<g id="a_node16"><a xlink:href="Settings_8cxx.html" target="_top" xlink:title="src/engine/basics/Settings.cxx">
<polygon fill="none" stroke="#000000" points="372,-112.5 372,-131.5 536,-131.5 536,-112.5 372,-112.5"/>
<text text-anchor="middle" x="454" y="-119.5" font-family="Helvetica,sans-Serif" font-size="10.00" fill="#000000">src/engine/basics/Settings.cxx</text>
</a>
</g>
</g>
<!-- Node21&#45;&gt;Node22 -->
<g id="edge19" class="edge">
<title>Node21&#45;&gt;Node22</title>
<path fill="none" stroke="#191970" d="M608.1155,-165.5882C571.7377,-155.2996 520.7879,-140.8895 487.5933,-131.5011"/>
<polygon fill="#191970" stroke="#191970" points="607.3875,-169.0195 617.9626,-168.3733 609.2926,-162.2838 607.3875,-169.0195"/>
</g>
<!-- Node21&#45;&gt;Node23 -->
<g id="edge20" class="edge">
<title>Node21&#45;&gt;Node23</title>
<path fill="none" stroke="#191970" d="M652,-158.1575C652,-149.155 652,-138.9199 652,-131.6427"/>
<polygon fill="#191970" stroke="#191970" points="648.5001,-158.2455 652,-168.2455 655.5001,-158.2456 648.5001,-158.2455"/>
</g>
<!-- Node24 -->
<g id="node18" class="node">
<title>Node24</title>
<g id="a_node18"><a xlink:href="AudioMixer_8cxx.html" target="_top" xlink:title="src/services/AudioMixer.cxx">
<polygon fill="none" stroke="#000000" points="0,-112.5 0,-131.5 152,-131.5 152,-112.5 0,-112.5"/>
<text text-anchor="middle" x="76" y="-119.5" font-family="Helvetica,sans-Serif" font-size="10.00" fill="#000000">src/services/AudioMixer.cxx</text>
</a>
</g>
</g>
<!-- Node21&#45;&gt;Node24 -->
<g id="edge22" class="edge">
<title>Node21&#45;&gt;Node24</title>
<path fill="none" stroke="#191970" d="M532.6347,-167.6137C433.159,-158.7669 287.7658,-145.393 161,-132 158.1925,-131.7034 155.3335,-131.3957 152.4461,-131.0802"/>
<polygon fill="#191970" stroke="#191970" points="532.4482,-171.1109 542.7186,-168.509 533.0673,-164.1383 532.4482,-171.1109"/>
</g>
<!-- Node25 -->
<g id="node19" class="node">
<title>Node25</title>
<g id="a_node19"><a xlink:href="ResourceManager_8cxx.html" target="_top" xlink:title="src/services/ResourceManager.cxx">
<polygon fill="none" stroke="#000000" points="170.5,-112.5 170.5,-131.5 353.5,-131.5 353.5,-112.5 170.5,-112.5"/>
<text text-anchor="middle" x="262" y="-119.5" font-family="Helvetica,sans-Serif" font-size="10.00" fill="#000000">src/services/ResourceManager.cxx</text>
</a>
</g>
</g>
<!-- Node21&#45;&gt;Node25 -->
<g id="edge23" class="edge">
<title>Node21&#45;&gt;Node25</title>
<path fill="none" stroke="#191970" d="M575.479,-167.0124C503.4851,-156.6748 396.7919,-141.3547 328.3256,-131.5237"/>
<polygon fill="#191970" stroke="#191970" points="575.0038,-170.4799 585.3997,-168.4369 575.9988,-163.551 575.0038,-170.4799"/>
</g>
</g>
</svg>
