<?xml version="1.0" encoding="UTF-8" standalone="no"?>
<!DOCTYPE svg PUBLIC "-//W3C//DTD SVG 1.1//EN"
 "http://www.w3.org/Graphics/SVG/1.1/DTD/svg11.dtd">
<!-- Generated by graphviz version 2.40.1 (20161225.0304)
 -->
<!-- Title: StrongType::get Pages: 1 -->
<!--zoomable 340 -->
<svg id="main" version="1.1" xmlns="http://www.w3.org/2000/svg" xmlns:xlink="http://www.w3.org/1999/xlink" xml:space="preserve" onload="init(evt)">
<style type="text/css"><![CDATA[
.edge:hover path { stroke: red; }
.edge:hover polygon { stroke: red; fill: red; }
]]></style>
<script type="text/javascript"><![CDATA[
var edges = document.getElementsByTagName('g');
if (edges && edges.length) {
  for (var i=0;i<edges.length;i++) {
    if (edges[i].id.substr(0,4)=='edge') {
      edges[i].setAttribute('class','edge');
    }
  }
}
]]></script>
        <defs>
                <circle id="rim" cx="0" cy="0" r="7"/>
                <circle id="rim2" cx="0" cy="0" r="3.5"/>
                <g id="zoomPlus">
                        <use xlink:href="#rim" fill="#404040">
                                <set attributeName="fill" to="#808080" begin="zoomplus.mouseover" end="zoomplus.mouseout"/>
                        </use>
                        <path d="M-4,0h8M0,-4v8" fill="none" stroke="white" stroke-width="1.5" pointer-events="none"/>
                </g>
                <g id="zoomMin">
                        <use xlink:href="#rim" fill="#404040">
                                <set attributeName="fill" to="#808080" begin="zoomminus.mouseover" end="zoomminus.mouseout"/>
                        </use>
                        <path d="M-4,0h8" fill="none" stroke="white" stroke-width="1.5" pointer-events="none"/>
                </g>
                <g id="dirArrow">
                        <path fill="none" stroke="white" stroke-width="1.5" d="M0,-3.0v7 M-2.5,-0.5L0,-3.0L2.5,-0.5"/>
                </g>
               <g id="resetDef">
                       <use xlink:href="#rim2" fill="#404040">
                               <set attributeName="fill" to="#808080" begin="reset.mouseover" end="reset.mouseout"/>
                       </use>
               </g>
        </defs>

<script type="text/javascript">
var viewWidth = 912;
var viewHeight = 340;
var sectionId = 'dynsection-2';
</script>
<script xlink:href="svgpan.js"/>
<svg id="graph" class="graph">
<g id="viewport">
<title>StrongType::get</title>
<!-- Node9 -->
<g id="node1" class="node">
<title>Node9</title>
<polygon fill="#bfbfbf" stroke="#000000" points="0,-167.5 0,-186.5 92,-186.5 92,-167.5 0,-167.5"/>
<text text-anchor="middle" x="46" y="-174.5" font-family="Helvetica,sans-Serif" font-size="10.00" fill="#000000">StrongType::get</text>
</g>
<!-- Node10 -->
<g id="node2" class="node">
<title>Node10</title>
<g id="a_node2"><a xlink:href="JsonSerialization_8hxx.html#a6dcce644b59e7427558a898572efa868" target="_top" xlink:title="to_json">
<polygon fill="none" stroke="#000000" points="193,-300.5 193,-319.5 245,-319.5 245,-300.5 193,-300.5"/>
<text text-anchor="middle" x="219" y="-307.5" font-family="Helvetica,sans-Serif" font-size="10.00" fill="#000000">to_json</text>
</a>
</g>
</g>
<!-- Node9&#45;&gt;Node10 -->
<g id="edge1" class="edge">
<title>Node9&#45;&gt;Node10</title>
<path fill="none" stroke="#191970" d="M54.1798,-195.9534C66.345,-221.7558 91.7319,-267.4175 128,-291 147.3486,-303.581 173.4756,-308.0352 192.771,-309.5161"/>
<polygon fill="#191970" stroke="#191970" points="57.358,-194.4871 50.0397,-186.8259 50.9831,-197.3787 57.358,-194.4871"/>
</g>
<!-- Node11 -->
<g id="node3" class="node">
<title>Node11</title>
<g id="a_node3"><a xlink:href="classResourcesManager.html#ac221a499e20ca7aedd00028842c7a101" target="_top" xlink:title="ResourcesManager::loadUITexture">
<polygon fill="none" stroke="#000000" points="128,-262.5 128,-281.5 310,-281.5 310,-262.5 128,-262.5"/>
<text text-anchor="middle" x="219" y="-269.5" font-family="Helvetica,sans-Serif" font-size="10.00" fill="#000000">ResourcesManager::loadUITexture</text>
</a>
</g>
</g>
<!-- Node9&#45;&gt;Node11 -->
<g id="edge2" class="edge">
<title>Node9&#45;&gt;Node11</title>
<path fill="none" stroke="#191970" d="M59.868,-194.5229C74.7819,-212.1147 100.1355,-238.6123 128,-253 135.457,-256.8504 143.6393,-259.9205 151.9445,-262.3685"/>
<polygon fill="#191970" stroke="#191970" points="62.4794,-192.1881 53.4201,-186.6944 57.0762,-196.6384 62.4794,-192.1881"/>
</g>
<!-- Node13 -->
<g id="node5" class="node">
<title>Node13</title>
<g id="a_node5"><a xlink:href="classTileManager.html#a1575d9a9530e13fe0286b8fece9e47ea" target="_top" xlink:title="TileManager::init">
<polygon fill="none" stroke="#000000" points="170,-224.5 170,-243.5 268,-243.5 268,-224.5 170,-224.5"/>
<text text-anchor="middle" x="219" y="-231.5" font-family="Helvetica,sans-Serif" font-size="10.00" fill="#000000">TileManager::init</text>
</a>
</g>
</g>
<!-- Node9&#45;&gt;Node13 -->
<g id="edge4" class="edge">
<title>Node9&#45;&gt;Node13</title>
<path fill="none" stroke="#191970" d="M72.5689,-191.1966C88.32,-199.131 108.8816,-208.6666 128,-215 141.3289,-219.4155 156.1082,-223.0242 169.8127,-225.8645"/>
<polygon fill="#191970" stroke="#191970" points="73.9335,-187.9628 63.4392,-186.5062 70.7346,-194.1891 73.9335,-187.9628"/>
</g>
<!-- Node16 -->
<g id="node8" class="node">
<title>Node16</title>
<g id="a_node8"><a xlink:href="classText.html#a3bf5a064fd37d06b8d3dc5a700556897" target="_top" xlink:title="Draws a text string to the screen Draws a text string to the screen. This could either be a standalon...">
<polygon fill="none" stroke="#000000" points="154,-186.5 154,-205.5 284,-205.5 284,-186.5 154,-186.5"/>
<text text-anchor="middle" x="219" y="-193.5" font-family="Helvetica,sans-Serif" font-size="10.00" fill="#000000">Text::createTextTexture</text>
</a>
</g>
</g>
<!-- Node9&#45;&gt;Node16 -->
<g id="edge8" class="edge">
<title>Node9&#45;&gt;Node16</title>
<path fill="none" stroke="#191970" d="M102.3809,-183.1921C118.8604,-185.002 137.0065,-186.9949 153.9755,-188.8586"/>
<polygon fill="#191970" stroke="#191970" points="102.6832,-179.7044 92.3608,-182.0917 101.9189,-186.6625 102.6832,-179.7044"/>
</g>
<!-- Node25 -->
<g id="node17" class="node">
<title>Node25</title>
<g id="a_node17"><a xlink:href="UIManager_8cxx.html#a93ebc51d97942bf4e32123b5c61c4141" target="_top" xlink:title="BETTER_ENUM">
<polygon fill="none" stroke="#000000" points="174.5,-148.5 174.5,-167.5 263.5,-167.5 263.5,-148.5 174.5,-148.5"/>
<text text-anchor="middle" x="219" y="-155.5" font-family="Helvetica,sans-Serif" font-size="10.00" fill="#000000">BETTER_ENUM</text>
</a>
</g>
</g>
<!-- Node9&#45;&gt;Node25 -->
<g id="edge18" class="edge">
<title>Node9&#45;&gt;Node25</title>
<path fill="none" stroke="#191970" d="M102.4623,-170.7989C125.7663,-168.2395 152.3913,-165.3154 174.3041,-162.9088"/>
<polygon fill="#191970" stroke="#191970" points="101.9189,-167.3375 92.3608,-171.9083 102.6832,-174.2956 101.9189,-167.3375"/>
</g>
<!-- Node26 -->
<g id="node18" class="node">
<title>Node26</title>
<g id="a_node18"><a xlink:href="classAudioMixer.html#add40bb51b99554f0408efe1630bf983d" target="_top" xlink:title="AudioMixer::AudioMixer">
<polygon fill="none" stroke="#000000" points="153,-110.5 153,-129.5 285,-129.5 285,-110.5 153,-110.5"/>
<text text-anchor="middle" x="219" y="-117.5" font-family="Helvetica,sans-Serif" font-size="10.00" fill="#000000">AudioMixer::AudioMixer</text>
</a>
</g>
</g>
<!-- Node9&#45;&gt;Node26 -->
<g id="edge19" class="edge">
<title>Node9&#45;&gt;Node26</title>
<path fill="none" stroke="#191970" d="M72.5689,-162.8034C88.32,-154.869 108.8816,-145.3334 128,-139 139.184,-135.2951 151.3892,-132.1581 163.1238,-129.5665"/>
<polygon fill="#191970" stroke="#191970" points="70.7346,-159.8109 63.4392,-167.4938 73.9335,-166.0372 70.7346,-159.8109"/>
</g>
<!-- Node27 -->
<g id="node19" class="node">
<title>Node27</title>
<g id="a_node19"><a xlink:href="classResourceManager.html#a9825fcd46b3af5c1f1bf22eb8dd23936" target="_top" xlink:title="Creates the ResourceManager. ">
<polygon fill="none" stroke="#000000" points="142.5,-61 142.5,-91 295.5,-91 295.5,-61 142.5,-61"/>
<text text-anchor="start" x="150.5" y="-79" font-family="Helvetica,sans-Serif" font-size="10.00" fill="#000000">ResourceManager::Resource</text>
<text text-anchor="middle" x="219" y="-68" font-family="Helvetica,sans-Serif" font-size="10.00" fill="#000000">Manager</text>
</a>
</g>
</g>
<!-- Node9&#45;&gt;Node27 -->
<g id="edge20" class="edge">
<title>Node9&#45;&gt;Node27</title>
<path fill="none" stroke="#191970" d="M60.2977,-159.5515C75.3934,-142.241 100.7427,-116.1671 128,-101 134.872,-97.1761 142.3663,-93.9073 150.0078,-91.1198"/>
<polygon fill="#191970" stroke="#191970" points="57.5562,-157.3726 53.7474,-167.2592 62.8902,-161.9057 57.5562,-157.3726"/>
</g>
<!-- Node28 -->
<g id="node20" class="node">
<title>Node28</title>
<g id="a_node20"><a xlink:href="structstd_1_1hash_3_01StrongType_3_01WeakType_00_01Tag_01_4_01_4.html#af5cc4d4b0c32432b42d02c69bd7eb786" target="_top" xlink:title="std::hash\&lt; StrongType\l\&lt; WeakType, Tag \&gt; \&gt;::\loperator()">
<polygon fill="none" stroke="#000000" points="155,-.5 155,-41.5 283,-41.5 283,-.5 155,-.5"/>
<text text-anchor="start" x="163" y="-29.5" font-family="Helvetica,sans-Serif" font-size="10.00" fill="#000000">std::hash&lt; StrongType</text>
<text text-anchor="start" x="163" y="-18.5" font-family="Helvetica,sans-Serif" font-size="10.00" fill="#000000">&lt; WeakType, Tag &gt; &gt;::</text>
<text text-anchor="middle" x="219" y="-7.5" font-family="Helvetica,sans-Serif" font-size="10.00" fill="#000000">operator()</text>
</a>
</g>
</g>
<!-- Node9&#45;&gt;Node28 -->
<g id="edge21" class="edge">
<title>Node9&#45;&gt;Node28</title>
<path fill="none" stroke="#191970" d="M53.5473,-157.8585C65.3579,-130.312 90.7757,-79.6614 128,-51 135.9084,-44.9108 145.1085,-40.028 154.5604,-36.1206"/>
<polygon fill="#191970" stroke="#191970" points="50.2754,-156.612 49.6907,-167.1907 56.7447,-159.2855 50.2754,-156.612"/>
</g>
<!-- Node12 -->
<g id="node4" class="node">
<title>Node12</title>
<g id="a_node4"><a xlink:href="classResourcesManager.html#a7fe5ff24c1df6a60214bea3ca474d155" target="_top" xlink:title="ResourcesManager::Resources\lManager">
<polygon fill="none" stroke="#000000" points="346,-301 346,-331 510,-331 510,-301 346,-301"/>
<text text-anchor="start" x="354" y="-319" font-family="Helvetica,sans-Serif" font-size="10.00" fill="#000000">ResourcesManager::Resources</text>
<text text-anchor="middle" x="428" y="-308" font-family="Helvetica,sans-Serif" font-size="10.00" fill="#000000">Manager</text>
</a>
</g>
</g>
<!-- Node11&#45;&gt;Node12 -->
<g id="edge3" class="edge">
<title>Node11&#45;&gt;Node12</title>
<path fill="none" stroke="#191970" d="M274.8647,-283.637C286.479,-286.0639 298.6396,-288.6106 310,-291 325.2669,-294.211 341.6414,-297.6704 357.1859,-300.9616"/>
<polygon fill="#191970" stroke="#191970" points="275.3371,-280.1602 264.8328,-281.542 273.9061,-287.0124 275.3371,-280.1602"/>
</g>
<!-- Node14 -->
<g id="node6" class="node">
<title>Node14</title>
<g id="a_node6"><a xlink:href="classTileManager.html#ac6f5d9eb4db57f9ad597223658574394" target="_top" xlink:title="TileManager::TileManager">
<polygon fill="none" stroke="#000000" points="356.5,-262.5 356.5,-281.5 499.5,-281.5 499.5,-262.5 356.5,-262.5"/>
<text text-anchor="middle" x="428" y="-269.5" font-family="Helvetica,sans-Serif" font-size="10.00" fill="#000000">TileManager::TileManager</text>
</a>
</g>
</g>
<!-- Node13&#45;&gt;Node14 -->
<g id="edge5" class="edge">
<title>Node13&#45;&gt;Node14</title>
<path fill="none" stroke="#191970" d="M278.1421,-244.7531C308.8365,-250.3339 346.009,-257.0925 375.6523,-262.4822"/>
<polygon fill="#191970" stroke="#191970" points="278.466,-241.2547 268.0012,-242.9093 277.2138,-248.1418 278.466,-241.2547"/>
</g>
<!-- Node15 -->
<g id="node7" class="node">
<title>Node15</title>
<g id="a_node7"><a xlink:href="classTileManager.html#af094937b10637c493557e22b42cf25ed" target="_top" xlink:title="TileManager::getAllTileData">
<polygon fill="none" stroke="#000000" points="546,-262.5 546,-281.5 698,-281.5 698,-262.5 546,-262.5"/>
<text text-anchor="middle" x="622" y="-269.5" font-family="Helvetica,sans-Serif" font-size="10.00" fill="#000000">TileManager::getAllTileData</text>
</a>
</g>
</g>
<!-- Node13&#45;&gt;Node15 -->
<g id="edge7" class="edge">
<title>Node13&#45;&gt;Node15</title>
<path fill="none" stroke="#191970" d="M278.2886,-236.0841C337.207,-238.5752 430.0697,-243.6359 510,-253 530.5677,-255.4096 553.105,-259.0389 572.5362,-262.482"/>
<polygon fill="#191970" stroke="#191970" points="278.1887,-232.5771 268.0532,-235.6628 277.9008,-239.5712 278.1887,-232.5771"/>
</g>
<!-- Node14&#45;&gt;Node15 -->
<g id="edge6" class="edge">
<title>Node14&#45;&gt;Node15</title>
<path fill="none" stroke="#191970" d="M510.0001,-272C521.8459,-272 533.9976,-272 545.7252,-272"/>
<polygon fill="#191970" stroke="#191970" points="509.6873,-268.5001 499.6873,-272 509.6872,-275.5001 509.6873,-268.5001"/>
</g>
<!-- Node17 -->
<g id="node9" class="node">
<title>Node17</title>
<g id="a_node9"><a xlink:href="classText.html#a14b9f0937696af5fd95317eb8313bf92" target="_top" xlink:title="sets the text for this text widget. ">
<polygon fill="none" stroke="#000000" points="389,-186.5 389,-205.5 467,-205.5 467,-186.5 389,-186.5"/>
<text text-anchor="middle" x="428" y="-193.5" font-family="Helvetica,sans-Serif" font-size="10.00" fill="#000000">Text::setText</text>
</a>
</g>
</g>
<!-- Node16&#45;&gt;Node17 -->
<g id="edge9" class="edge">
<title>Node16&#45;&gt;Node17</title>
<path fill="none" stroke="#191970" d="M294.4762,-196C326.3899,-196 362.2261,-196 388.7318,-196"/>
<polygon fill="#191970" stroke="#191970" points="294.2692,-192.5001 284.2692,-196 294.2692,-199.5001 294.2692,-192.5001"/>
</g>
<!-- Node24 -->
<g id="node16" class="node">
<title>Node24</title>
<g id="a_node16"><a xlink:href="classText.html#af6db01e16738de0391ad928c54334f0e" target="_top" xlink:title="gets the Font size of this element gets the font size of the element ">
<polygon fill="none" stroke="#000000" points="378,-148.5 378,-167.5 478,-167.5 478,-148.5 378,-148.5"/>
<text text-anchor="middle" x="428" y="-155.5" font-family="Helvetica,sans-Serif" font-size="10.00" fill="#000000">Text::getFontSize</text>
</a>
</g>
</g>
<!-- Node16&#45;&gt;Node24 -->
<g id="edge17" class="edge">
<title>Node16&#45;&gt;Node24</title>
<path fill="none" stroke="#191970" d="M281.6403,-184.6108C312.3403,-179.029 348.8148,-172.3973 377.6718,-167.1506"/>
<polygon fill="#191970" stroke="#191970" points="280.6823,-181.2276 271.4698,-186.46 281.9346,-188.1147 280.6823,-181.2276"/>
</g>
<!-- Node18 -->
<g id="node10" class="node">
<title>Node18</title>
<g id="a_node10"><a xlink:href="classText.html#a398a47abd355749d9e99bf74aa6a4a8d" target="_top" xlink:title="Sets the Font size of this element. ">
<polygon fill="none" stroke="#000000" points="572.5,-224.5 572.5,-243.5 671.5,-243.5 671.5,-224.5 572.5,-224.5"/>
<text text-anchor="middle" x="622" y="-231.5" font-family="Helvetica,sans-Serif" font-size="10.00" fill="#000000">Text::setFontSize</text>
</a>
</g>
</g>
<!-- Node17&#45;&gt;Node18 -->
<g id="edge10" class="edge">
<title>Node17&#45;&gt;Node18</title>
<path fill="none" stroke="#191970" d="M477.3031,-205.6573C506.689,-211.4133 543.8506,-218.6924 573.1552,-224.4325"/>
<polygon fill="#191970" stroke="#191970" points="477.7451,-202.1775 467.2588,-203.6899 476.3995,-209.0469 477.7451,-202.1775"/>
</g>
<!-- Node19 -->
<g id="node11" class="node">
<title>Node19</title>
<g id="a_node11"><a xlink:href="classText.html#ab3e26143fccc52699bcc5149cae852bc" target="_top" xlink:title="default Constructor ">
<polygon fill="none" stroke="#000000" points="749,-205.5 749,-224.5 812,-224.5 812,-205.5 749,-205.5"/>
<text text-anchor="middle" x="780.5" y="-212.5" font-family="Helvetica,sans-Serif" font-size="10.00" fill="#000000">Text::Text</text>
</a>
</g>
</g>
<!-- Node17&#45;&gt;Node19 -->
<g id="edge12" class="edge">
<title>Node17&#45;&gt;Node19</title>
<path fill="none" stroke="#191970" d="M477.4651,-198.6662C551.1139,-202.6359 687.5063,-209.9876 748.9927,-213.3017"/>
<polygon fill="#191970" stroke="#191970" points="477.2444,-195.1493 467.0705,-198.1059 476.8676,-202.1392 477.2444,-195.1493"/>
</g>
<!-- Node20 -->
<g id="node12" class="node">
<title>Node20</title>
<g id="a_node12"><a xlink:href="classTextField.html#abe03b4b6ebf469645940cfa018bcdca2" target="_top" xlink:title="TextField::addText">
<polygon fill="none" stroke="#000000" points="570,-148.5 570,-167.5 674,-167.5 674,-148.5 570,-148.5"/>
<text text-anchor="middle" x="622" y="-155.5" font-family="Helvetica,sans-Serif" font-size="10.00" fill="#000000">TextField::addText</text>
</a>
</g>
</g>
<!-- Node17&#45;&gt;Node20 -->
<g id="edge13" class="edge">
<title>Node17&#45;&gt;Node20</title>
<path fill="none" stroke="#191970" d="M477.3031,-186.3427C506.689,-180.5867 543.8506,-173.3076 573.1552,-167.5675"/>
<polygon fill="#191970" stroke="#191970" points="476.3995,-182.9531 467.2588,-188.3101 477.7451,-189.8225 476.3995,-182.9531"/>
</g>
<!-- Node21 -->
<g id="node13" class="node">
<title>Node21</title>
<g id="a_node13"><a xlink:href="classGame.html#a5ed7fc5be77080f7f6dd5363f7f007a1" target="_top" xlink:title="initializes and displays the main menu initializes and displays the main menu ">
<polygon fill="none" stroke="#000000" points="570.5,-110.5 570.5,-129.5 673.5,-129.5 673.5,-110.5 570.5,-110.5"/>
<text text-anchor="middle" x="622" y="-117.5" font-family="Helvetica,sans-Serif" font-size="10.00" fill="#000000">Game::mainMenu</text>
</a>
</g>
</g>
<!-- Node17&#45;&gt;Node21 -->
<g id="edge14" class="edge">
<title>Node17&#45;&gt;Node21</title>
<path fill="none" stroke="#191970" d="M477.0725,-189.527C488.3701,-186.7311 499.9957,-182.7288 510,-177 530.1887,-165.4393 525.912,-150.7348 546,-139 553.3984,-134.678 561.7582,-131.3326 570.158,-128.7448"/>
<polygon fill="#191970" stroke="#191970" points="476.2897,-186.1155 467.2778,-191.6865 477.7969,-192.9513 476.2897,-186.1155"/>
</g>
<!-- Node18&#45;&gt;Node19 -->
<g id="edge11" class="edge">
<title>Node18&#45;&gt;Node19</title>
<path fill="none" stroke="#191970" d="M681.6815,-226.8458C704.5332,-224.1064 729.7004,-221.0895 748.9174,-218.7859"/>
<polygon fill="#191970" stroke="#191970" points="681.2278,-223.375 671.7155,-228.0404 682.061,-230.3252 681.2278,-223.375"/>
</g>
<!-- Node22 -->
<g id="node14" class="node">
<title>Node22</title>
<g id="a_node14"><a xlink:href="main_8cxx.html#af582d708d899e67ead623eac34a22387" target="_top" xlink:title="protected_main">
<polygon fill="none" stroke="#000000" points="734,-110.5 734,-129.5 827,-129.5 827,-110.5 734,-110.5"/>
<text text-anchor="middle" x="780.5" y="-117.5" font-family="Helvetica,sans-Serif" font-size="10.00" fill="#000000">protected_main</text>
</a>
</g>
</g>
<!-- Node21&#45;&gt;Node22 -->
<g id="edge15" class="edge">
<title>Node21&#45;&gt;Node22</title>
<path fill="none" stroke="#191970" d="M684.0525,-120C700.6231,-120 718.2476,-120 733.8354,-120"/>
<polygon fill="#191970" stroke="#191970" points="683.8989,-116.5001 673.8988,-120 683.8988,-123.5001 683.8989,-116.5001"/>
</g>
<!-- Node23 -->
<g id="node15" class="node">
<title>Node23</title>
<g id="a_node15"><a xlink:href="main_8cxx.html#a3c04138a5bfe5d72780bb7e82a18e627" target="_top" xlink:title="main">
<polygon fill="none" stroke="#000000" points="863,-110.5 863,-129.5 904,-129.5 904,-110.5 863,-110.5"/>
<text text-anchor="middle" x="883.5" y="-117.5" font-family="Helvetica,sans-Serif" font-size="10.00" fill="#000000">main</text>
</a>
</g>
</g>
<!-- Node22&#45;&gt;Node23 -->
<g id="edge16" class="edge">
<title>Node22&#45;&gt;Node23</title>
<path fill="none" stroke="#191970" d="M837.2133,-120C846.4322,-120 855.4259,-120 862.9965,-120"/>
<polygon fill="#191970" stroke="#191970" points="837.1782,-116.5001 827.1782,-120 837.1781,-123.5001 837.1782,-116.5001"/>
</g>
</g>
</svg>
        <g id="navigator" transform="translate(0 0)" fill="#404254">
                <rect fill="#f2f5e9" fill-opacity="0.5" stroke="#606060" stroke-width=".5" x="0" y="0" width="60" height="60"/>
                <use id="zoomplus" xlink:href="#zoomPlus" x="17" y="9" onmousedown="handleZoom(evt,'in')"/>
                <use id="zoomminus" xlink:href="#zoomMin" x="42" y="9" onmousedown="handleZoom(evt,'out')"/>
                <use id="reset" xlink:href="#resetDef" x="30" y="36" onmousedown="handleReset()"/>
                <g id="arrowUp" xlink:href="#dirArrow" transform="translate(30 24)" onmousedown="handlePan(0,-1)">
                  <use xlink:href="#rim" fill="#404040">
                        <set attributeName="fill" to="#808080" begin="arrowUp.mouseover" end="arrowUp.mouseout"/>
                  </use>
                  <path fill="none" stroke="white" stroke-width="1.5" d="M0,-3.0v7 M-2.5,-0.5L0,-3.0L2.5,-0.5"/>
                </g>
                <g id="arrowRight" xlink:href="#dirArrow" transform="rotate(90) translate(36 -43)" onmousedown="handlePan(1,0)">
                  <use xlink:href="#rim" fill="#404040">
                        <set attributeName="fill" to="#808080" begin="arrowRight.mouseover" end="arrowRight.mouseout"/>
                  </use>
                  <path fill="none" stroke="white" stroke-width="1.5" d="M0,-3.0v7 M-2.5,-0.5L0,-3.0L2.5,-0.5"/>
                </g>
                <g id="arrowDown" xlink:href="#dirArrow" transform="rotate(180) translate(-30 -48)" onmousedown="handlePan(0,1)">
                  <use xlink:href="#rim" fill="#404040">
                        <set attributeName="fill" to="#808080" begin="arrowDown.mouseover" end="arrowDown.mouseout"/>
                  </use>
                  <path fill="none" stroke="white" stroke-width="1.5" d="M0,-3.0v7 M-2.5,-0.5L0,-3.0L2.5,-0.5"/>
                </g>
                <g id="arrowLeft" xlink:href="#dirArrow" transform="rotate(270) translate(-36 17)" onmousedown="handlePan(-1,0)">
                  <use xlink:href="#rim" fill="#404040">
                        <set attributeName="fill" to="#808080" begin="arrowLeft.mouseover" end="arrowLeft.mouseout"/>
                  </use>
                  <path fill="none" stroke="white" stroke-width="1.5" d="M0,-3.0v7 M-2.5,-0.5L0,-3.0L2.5,-0.5"/>
                </g>
        </g>
        <svg viewBox="0 0 15 15" width="100%" height="30px" preserveAspectRatio="xMaxYMin meet">
         <g id="arrow_out" transform="scale(0.3 0.3)">
          <a xlink:href="structStrongType_acc66e6d6b9c95193a97a839560499933_icgraph_org.svg" target="_base">
           <rect id="button" ry="5" rx="5" y="6" x="6" height="38" width="38"
                fill="#f2f5e9" fill-opacity="0.5" stroke="#606060" stroke-width="1.0"/>
           <path id="arrow"
             d="M 11.500037,31.436501 C 11.940474,20.09759 22.043105,11.32322 32.158766,21.979434 L 37.068811,17.246167 C 37.068811,17.246167 37.088388,32 37.088388,32 L 22.160133,31.978069 C 22.160133,31.978069 26.997745,27.140456 26.997745,27.140456 C 18.528582,18.264221 13.291696,25.230495 11.500037,31.436501 z"
             style="fill:#404040;"/>
          </a>
         </g>
        </svg>
</svg>
