<?xml version="1.0" encoding="UTF-8" standalone="no"?>
<!DOCTYPE svg PUBLIC "-//W3C//DTD SVG 1.1//EN"
 "http://www.w3.org/Graphics/SVG/1.1/DTD/svg11.dtd">
<!-- Generated by graphviz version 2.40.1 (20161225.0304)
 -->
<!-- Title: LayoutGroup Pages: 1 -->
<svg width="183pt" height="342pt"
 viewBox="0.00 0.00 183.00 342.00" xmlns="http://www.w3.org/2000/svg" xmlns:xlink="http://www.w3.org/1999/xlink">
<g id="graph0" class="graph" transform="scale(1 1) rotate(0) translate(4 338)">
<title>LayoutGroup</title>
<!-- Node1 -->
<g id="node1" class="node">
<title>Node1</title>
<polygon fill="#bfbfbf" stroke="#000000" points="12.5,-.5 12.5,-57.5 95.5,-57.5 95.5,-.5 12.5,-.5"/>
<text text-anchor="middle" x="54" y="-45.5" font-family="Helvetica,sans-Serif" font-size="10.00" fill="#000000">LayoutGroup</text>
<polyline fill="none" stroke="#000000" points="12.5,-38.5 95.5,-38.5 "/>
<text text-anchor="start" x="20.5" y="-26.5" font-family="Helvetica,sans-Serif" font-size="10.00" fill="#000000">+ uiElements</text>
<polyline fill="none" stroke="#000000" points="12.5,-19.5 95.5,-19.5 "/>
<text text-anchor="middle" x="54" y="-7.5" font-family="Helvetica,sans-Serif" font-size="10.00" fill="#000000"> </text>
</g>
<!-- Node2 -->
<g id="node2" class="node">
<title>Node2</title>
<g id="a_node2"><a xlink:href="structLayoutData.html" target="_top" xlink:title="{LayoutData\n|+ alignmentOffset\l+ padding\l+ paddingToParent\l+ groupHeight\l+ groupWidth\l|}">
<polygon fill="none" stroke="#000000" points="0,-105.5 0,-206.5 108,-206.5 108,-105.5 0,-105.5"/>
<text text-anchor="middle" x="54" y="-194.5" font-family="Helvetica,sans-Serif" font-size="10.00" fill="#000000">LayoutData</text>
<polyline fill="none" stroke="#000000" points="0,-187.5 108,-187.5 "/>
<text text-anchor="start" x="8" y="-175.5" font-family="Helvetica,sans-Serif" font-size="10.00" fill="#000000">+ alignmentOffset</text>
<text text-anchor="start" x="8" y="-164.5" font-family="Helvetica,sans-Serif" font-size="10.00" fill="#000000">+ padding</text>
<text text-anchor="start" x="8" y="-153.5" font-family="Helvetica,sans-Serif" font-size="10.00" fill="#000000">+ paddingToParent</text>
<text text-anchor="start" x="8" y="-142.5" font-family="Helvetica,sans-Serif" font-size="10.00" fill="#000000">+ groupHeight</text>
<text text-anchor="start" x="8" y="-131.5" font-family="Helvetica,sans-Serif" font-size="10.00" fill="#000000">+ groupWidth</text>
<polyline fill="none" stroke="#000000" points="0,-124.5 108,-124.5 "/>
<text text-anchor="middle" x="54" y="-112.5" font-family="Helvetica,sans-Serif" font-size="10.00" fill="#000000"> </text>
</a>
</g>
</g>
<!-- Node2&#45;&gt;Node1 -->
<g id="edge1" class="edge">
<title>Node2&#45;&gt;Node1</title>
<path fill="none" stroke="#404040" d="M54,-105.4413C54,-93.681 54,-81.3021 54,-70.0123"/>
<polygon fill="none" stroke="#404040" points="54.0001,-69.8195 50,-63.8195 54,-57.8195 58,-63.8195 54.0001,-69.8195"/>
<text text-anchor="middle" x="75.5" y="-79" font-family="Helvetica,sans-Serif" font-size="10.00" fill="#000000"> +layout</text>
</g>
<!-- Node3 -->
<g id="node3" class="node">
<title>Node3</title>
<polygon fill="none" stroke="#bfbfbf" points="32,-276.5 32,-333.5 76,-333.5 76,-276.5 32,-276.5"/>
<text text-anchor="middle" x="54" y="-321.5" font-family="Helvetica,sans-Serif" font-size="10.00" fill="#000000">string</text>
<polyline fill="none" stroke="#bfbfbf" points="32,-314.5 76,-314.5 "/>
<text text-anchor="middle" x="54" y="-302.5" font-family="Helvetica,sans-Serif" font-size="10.00" fill="#000000"> </text>
<polyline fill="none" stroke="#bfbfbf" points="32,-295.5 76,-295.5 "/>
<text text-anchor="middle" x="54" y="-283.5" font-family="Helvetica,sans-Serif" font-size="10.00" fill="#000000"> </text>
</g>
<!-- Node3&#45;&gt;Node2 -->
<g id="edge2" class="edge">
<title>Node3&#45;&gt;Node2</title>
<path fill="none" stroke="#404040" d="M54,-276.2713C54,-259.9541 54,-238.854 54,-218.8935"/>
<polygon fill="none" stroke="#404040" points="54.0001,-218.6655 50,-212.6655 54,-206.6655 58,-212.6655 54.0001,-218.6655"/>
<text text-anchor="middle" x="114.5" y="-250" font-family="Helvetica,sans-Serif" font-size="10.00" fill="#000000"> +layoutType</text>
<text text-anchor="middle" x="114.5" y="-239" font-family="Helvetica,sans-Serif" font-size="10.00" fill="#000000">+layoutParentElementID</text>
<text text-anchor="middle" x="114.5" y="-228" font-family="Helvetica,sans-Serif" font-size="10.00" fill="#000000">+alignment</text>
</g>
</g>
</svg>
