<?xml version="1.0" encoding="UTF-8" standalone="no"?>
<!DOCTYPE svg PUBLIC "-//W3C//DTD SVG 1.1//EN"
 "http://www.w3.org/Graphics/SVG/1.1/DTD/svg11.dtd">
<!-- Generated by graphviz version 2.40.1 (20161225.0304)
 -->
<!-- Title: Signal::Lib::CollectorLast&lt; Result &gt; Pages: 1 -->
<svg width="160pt" height="204pt"
 viewBox="0.00 0.00 160.00 204.00" xmlns="http://www.w3.org/2000/svg" xmlns:xlink="http://www.w3.org/1999/xlink">
<g id="graph0" class="graph" transform="scale(1 1) rotate(0) translate(4 200)">
<title>Signal::Lib::CollectorLast&lt; Result &gt;</title>
<!-- Node0 -->
<g id="node1" class="node">
<title>Node0</title>
<polygon fill="#bfbfbf" stroke="#000000" points="7.5,-105.5 7.5,-195.5 144.5,-195.5 144.5,-105.5 7.5,-105.5"/>
<text text-anchor="start" x="15.5" y="-183.5" font-family="Helvetica,sans-Serif" font-size="10.00" fill="#000000">Signal::Lib::CollectorLast</text>
<text text-anchor="middle" x="76" y="-172.5" font-family="Helvetica,sans-Serif" font-size="10.00" fill="#000000">&lt; Result &gt;</text>
<polyline fill="none" stroke="#000000" points="7.5,-165.5 144.5,-165.5 "/>
<text text-anchor="start" x="15.5" y="-153.5" font-family="Helvetica,sans-Serif" font-size="10.00" fill="#000000">&#45; last_</text>
<polyline fill="none" stroke="#000000" points="7.5,-146.5 144.5,-146.5 "/>
<text text-anchor="start" x="15.5" y="-134.5" font-family="Helvetica,sans-Serif" font-size="10.00" fill="#000000">+ CollectorLast()</text>
<text text-anchor="start" x="15.5" y="-123.5" font-family="Helvetica,sans-Serif" font-size="10.00" fill="#000000">+ operator()()</text>
<text text-anchor="start" x="15.5" y="-112.5" font-family="Helvetica,sans-Serif" font-size="10.00" fill="#000000">+ result()</text>
</g>
<!-- Node1 -->
<g id="node2" class="node">
<title>Node1</title>
<g id="a_node2"><a xlink:href="structSignal_1_1Lib_1_1CollectorDefault.html" target="_top" xlink:title="CollectorDefault implements the default signal handler collection behaviour. ">
<polygon fill="none" stroke="#000000" points="0,-.5 0,-68.5 152,-68.5 152,-.5 0,-.5"/>
<text text-anchor="start" x="8" y="-56.5" font-family="Helvetica,sans-Serif" font-size="10.00" fill="#000000">Signal::Lib::CollectorDefault</text>
<text text-anchor="middle" x="76" y="-45.5" font-family="Helvetica,sans-Serif" font-size="10.00" fill="#000000">&lt; Result &gt;</text>
<polyline fill="none" stroke="#000000" points="0,-38.5 152,-38.5 "/>
<text text-anchor="middle" x="76" y="-26.5" font-family="Helvetica,sans-Serif" font-size="10.00" fill="#000000"> </text>
<polyline fill="none" stroke="#000000" points="0,-19.5 152,-19.5 "/>
<text text-anchor="middle" x="76" y="-7.5" font-family="Helvetica,sans-Serif" font-size="10.00" fill="#000000"> </text>
</a>
</g>
</g>
<!-- Node0&#45;&gt;Node1 -->
<g id="edge1" class="edge">
<title>Node0&#45;&gt;Node1</title>
<path fill="none" stroke="#191970" d="M76,-95.1681C76,-86.1024 76,-76.9497 76,-68.5982"/>
<polygon fill="none" stroke="#191970" points="72.5001,-95.3192 76,-105.3192 79.5001,-95.3192 72.5001,-95.3192"/>
</g>
</g>
</svg>
