<?xml version="1.0" encoding="UTF-8" standalone="no"?>
<!DOCTYPE svg PUBLIC "-//W3C//DTD SVG 1.1//EN"
 "http://www.w3.org/Graphics/SVG/1.1/DTD/svg11.dtd">
<!-- Generated by graphviz version 2.40.1 (20161225.0304)
 -->
<!-- Title: LayoutData Pages: 1 -->
<svg width="183pt" height="237pt"
 viewBox="0.00 0.00 183.00 237.00" xmlns="http://www.w3.org/2000/svg" xmlns:xlink="http://www.w3.org/1999/xlink">
<g id="graph0" class="graph" transform="scale(1 1) rotate(0) translate(4 233)">
<title>LayoutData</title>
<!-- Node1 -->
<g id="node1" class="node">
<title>Node1</title>
<polygon fill="#bfbfbf" stroke="#000000" points="0,-.5 0,-101.5 108,-101.5 108,-.5 0,-.5"/>
<text text-anchor="middle" x="54" y="-89.5" font-family="Helvetica,sans-Serif" font-size="10.00" fill="#000000">LayoutData</text>
<polyline fill="none" stroke="#000000" points="0,-82.5 108,-82.5 "/>
<text text-anchor="start" x="8" y="-70.5" font-family="Helvetica,sans-Serif" font-size="10.00" fill="#000000">+ alignmentOffset</text>
<text text-anchor="start" x="8" y="-59.5" font-family="Helvetica,sans-Serif" font-size="10.00" fill="#000000">+ padding</text>
<text text-anchor="start" x="8" y="-48.5" font-family="Helvetica,sans-Serif" font-size="10.00" fill="#000000">+ paddingToParent</text>
<text text-anchor="start" x="8" y="-37.5" font-family="Helvetica,sans-Serif" font-size="10.00" fill="#000000">+ groupHeight</text>
<text text-anchor="start" x="8" y="-26.5" font-family="Helvetica,sans-Serif" font-size="10.00" fill="#000000">+ groupWidth</text>
<polyline fill="none" stroke="#000000" points="0,-19.5 108,-19.5 "/>
<text text-anchor="middle" x="54" y="-7.5" font-family="Helvetica,sans-Serif" font-size="10.00" fill="#000000"> </text>
</g>
<!-- Node2 -->
<g id="node2" class="node">
<title>Node2</title>
<polygon fill="none" stroke="#bfbfbf" points="32,-171.5 32,-228.5 76,-228.5 76,-171.5 32,-171.5"/>
<text text-anchor="middle" x="54" y="-216.5" font-family="Helvetica,sans-Serif" font-size="10.00" fill="#000000">string</text>
<polyline fill="none" stroke="#bfbfbf" points="32,-209.5 76,-209.5 "/>
<text text-anchor="middle" x="54" y="-197.5" font-family="Helvetica,sans-Serif" font-size="10.00" fill="#000000"> </text>
<polyline fill="none" stroke="#bfbfbf" points="32,-190.5 76,-190.5 "/>
<text text-anchor="middle" x="54" y="-178.5" font-family="Helvetica,sans-Serif" font-size="10.00" fill="#000000"> </text>
</g>
<!-- Node2&#45;&gt;Node1 -->
<g id="edge1" class="edge">
<title>Node2&#45;&gt;Node1</title>
<path fill="none" stroke="#404040" d="M54,-171.2713C54,-154.9541 54,-133.854 54,-113.8935"/>
<polygon fill="none" stroke="#404040" points="54.0001,-113.6655 50,-107.6655 54,-101.6655 58,-107.6655 54.0001,-113.6655"/>
<text text-anchor="middle" x="114.5" y="-145" font-family="Helvetica,sans-Serif" font-size="10.00" fill="#000000"> +layoutType</text>
<text text-anchor="middle" x="114.5" y="-134" font-family="Helvetica,sans-Serif" font-size="10.00" fill="#000000">+layoutParentElementID</text>
<text text-anchor="middle" x="114.5" y="-123" font-family="Helvetica,sans-Serif" font-size="10.00" fill="#000000">+alignment</text>
</g>
</g>
</svg>
