<?xml version="1.0" encoding="UTF-8" standalone="no"?>
<!DOCTYPE svg PUBLIC "-//W3C//DTD SVG 1.1//EN"
 "http://www.w3.org/Graphics/SVG/1.1/DTD/svg11.dtd">
<!-- Generated by graphviz version 2.40.1 (20161225.0304)
 -->
<!-- Title: Transition&lt; Model &gt; Pages: 1 -->
<svg width="230pt" height="320pt"
 viewBox="0.00 0.00 230.00 320.00" xmlns="http://www.w3.org/2000/svg" xmlns:xlink="http://www.w3.org/1999/xlink">
<g id="graph0" class="graph" transform="scale(1 1) rotate(0) translate(4 316)">
<title>Transition&lt; Model &gt;</title>
<!-- Node1 -->
<g id="node1" class="node">
<title>Node1</title>
<polygon fill="#bfbfbf" stroke="#000000" points="13,-.5 13,-79.5 129,-79.5 129,-.5 13,-.5"/>
<text text-anchor="middle" x="71" y="-67.5" font-family="Helvetica,sans-Serif" font-size="10.00" fill="#000000">Transition&lt; Model &gt;</text>
<polyline fill="none" stroke="#000000" points="13,-60.5 129,-60.5 "/>
<text text-anchor="middle" x="71" y="-48.5" font-family="Helvetica,sans-Serif" font-size="10.00" fill="#000000"> </text>
<polyline fill="none" stroke="#000000" points="13,-41.5 129,-41.5 "/>
<text text-anchor="start" x="21" y="-29.5" font-family="Helvetica,sans-Serif" font-size="10.00" fill="#000000">+ getType()</text>
<text text-anchor="start" x="21" y="-18.5" font-family="Helvetica,sans-Serif" font-size="10.00" fill="#000000">+ Transition()</text>
<text text-anchor="start" x="21" y="-7.5" font-family="Helvetica,sans-Serif" font-size="10.00" fill="#000000">+ operator==()</text>
</g>
<!-- Node2 -->
<g id="node2" class="node">
<title>Node2</title>
<g id="a_node2"><a xlink:href="structVariantType.html" target="_top" xlink:title="{VariantType\&lt; typename\l Model::OperationTypes \&gt;\n||}">
<polygon fill="none" stroke="#000000" points="0,-127.5 0,-195.5 142,-195.5 142,-127.5 0,-127.5"/>
<text text-anchor="start" x="8" y="-183.5" font-family="Helvetica,sans-Serif" font-size="10.00" fill="#000000">VariantType&lt; typename</text>
<text text-anchor="middle" x="71" y="-172.5" font-family="Helvetica,sans-Serif" font-size="10.00" fill="#000000"> Model::OperationTypes &gt;</text>
<polyline fill="none" stroke="#000000" points="0,-165.5 142,-165.5 "/>
<text text-anchor="middle" x="71" y="-153.5" font-family="Helvetica,sans-Serif" font-size="10.00" fill="#000000"> </text>
<polyline fill="none" stroke="#000000" points="0,-146.5 142,-146.5 "/>
<text text-anchor="middle" x="71" y="-134.5" font-family="Helvetica,sans-Serif" font-size="10.00" fill="#000000"> </text>
</a>
</g>
</g>
<!-- Node2&#45;&gt;Node1 -->
<g id="edge1" class="edge">
<title>Node2&#45;&gt;Node1</title>
<path fill="none" stroke="#404040" d="M71,-127.3321C71,-116.3926 71,-104.0204 71,-92.1017"/>
<polygon fill="none" stroke="#404040" points="71.0001,-91.9243 67,-85.9243 71,-79.9243 75,-85.9243 71.0001,-91.9243"/>
<text text-anchor="middle" x="88" y="-101" font-family="Helvetica,sans-Serif" font-size="10.00" fill="#000000"> +data</text>
</g>
<!-- Node3 -->
<g id="node3" class="node">
<title>Node3</title>
<g id="a_node3"><a xlink:href="structVariantType.html" target="_top" xlink:title="VariantType::type returns std::variant&lt;All fields inside the TypeList&gt; ">
<polygon fill="none" stroke="#000000" points="14.5,-254.5 14.5,-311.5 127.5,-311.5 127.5,-254.5 14.5,-254.5"/>
<text text-anchor="middle" x="71" y="-299.5" font-family="Helvetica,sans-Serif" font-size="10.00" fill="#000000">VariantType&lt; List &gt;</text>
<polyline fill="none" stroke="#000000" points="14.5,-292.5 127.5,-292.5 "/>
<text text-anchor="middle" x="71" y="-280.5" font-family="Helvetica,sans-Serif" font-size="10.00" fill="#000000"> </text>
<polyline fill="none" stroke="#000000" points="14.5,-273.5 127.5,-273.5 "/>
<text text-anchor="middle" x="71" y="-261.5" font-family="Helvetica,sans-Serif" font-size="10.00" fill="#000000"> </text>
</a>
</g>
</g>
<!-- Node3&#45;&gt;Node2 -->
<g id="edge2" class="edge">
<title>Node3&#45;&gt;Node2</title>
<path fill="none" stroke="#ffa500" d="M71,-243.8733C71,-228.3628 71,-210.6896 71,-195.7007"/>
<polygon fill="#ffa500" stroke="#ffa500" points="67.5001,-244.2062 71,-254.2062 74.5001,-244.2062 67.5001,-244.2062"/>
<text text-anchor="start" x="71" y="-228" font-family="Helvetica,sans-Serif" font-size="10.00" fill="#000000"> &lt; typename Model::Operation</text>
<text text-anchor="middle" x="146.5" y="-217" font-family="Helvetica,sans-Serif" font-size="10.00" fill="#000000">Types &gt;</text>
</g>
</g>
</svg>
