<?xml version="1.0" encoding="UTF-8" standalone="no"?>
<!DOCTYPE svg PUBLIC "-//W3C//DTD SVG 1.1//EN"
 "http://www.w3.org/Graphics/SVG/1.1/DTD/svg11.dtd">
<!-- Generated by graphviz version 2.40.1 (20161225.0304)
 -->
<!-- Title: GameStatesData Pages: 1 -->
<svg width="164pt" height="215pt"
 viewBox="0.00 0.00 164.00 215.00" xmlns="http://www.w3.org/2000/svg" xmlns:xlink="http://www.w3.org/1999/xlink">
<g id="graph0" class="graph" transform="scale(1 1) rotate(0) translate(4 211)">
<title>GameStatesData</title>
<!-- Node0 -->
<g id="node1" class="node">
<title>Node0</title>
<polygon fill="#bfbfbf" stroke="#000000" points="21.5,-105.5 21.5,-206.5 134.5,-206.5 134.5,-105.5 21.5,-105.5"/>
<text text-anchor="middle" x="78" y="-194.5" font-family="Helvetica,sans-Serif" font-size="10.00" fill="#000000">GameStatesData</text>
<polyline fill="none" stroke="#000000" points="21.5,-187.5 134.5,-187.5 "/>
<text text-anchor="start" x="29.5" y="-175.5" font-family="Helvetica,sans-Serif" font-size="10.00" fill="#000000">+ drawUI</text>
<text text-anchor="start" x="29.5" y="-164.5" font-family="Helvetica,sans-Serif" font-size="10.00" fill="#000000">+ rectangularRoads</text>
<text text-anchor="start" x="29.5" y="-153.5" font-family="Helvetica,sans-Serif" font-size="10.00" fill="#000000">+ layerEditMode</text>
<text text-anchor="start" x="29.5" y="-142.5" font-family="Helvetica,sans-Serif" font-size="10.00" fill="#000000">+ placementMode</text>
<text text-anchor="start" x="29.5" y="-131.5" font-family="Helvetica,sans-Serif" font-size="10.00" fill="#000000">+ demolishMode</text>
<polyline fill="none" stroke="#000000" points="21.5,-124.5 134.5,-124.5 "/>
<text text-anchor="middle" x="78" y="-112.5" font-family="Helvetica,sans-Serif" font-size="10.00" fill="#000000"> </text>
</g>
<!-- Node1 -->
<g id="node2" class="node">
<title>Node1</title>
<g id="a_node2"><a xlink:href="classGameStates.html" target="_top" xlink:title="{GameStates\n|+ Singleton\&lt; GameStates \&gt;\l|&#45; GameStates()\l&#45; ~GameStates()\l}">
<polygon fill="none" stroke="#000000" points="0,-.5 0,-68.5 156,-68.5 156,-.5 0,-.5"/>
<text text-anchor="middle" x="78" y="-56.5" font-family="Helvetica,sans-Serif" font-size="10.00" fill="#000000">GameStates</text>
<polyline fill="none" stroke="#000000" points="0,-49.5 156,-49.5 "/>
<text text-anchor="start" x="8" y="-37.5" font-family="Helvetica,sans-Serif" font-size="10.00" fill="#000000">+ Singleton&lt; GameStates &gt;</text>
<polyline fill="none" stroke="#000000" points="0,-30.5 156,-30.5 "/>
<text text-anchor="start" x="8" y="-18.5" font-family="Helvetica,sans-Serif" font-size="10.00" fill="#000000">&#45; GameStates()</text>
<text text-anchor="start" x="8" y="-7.5" font-family="Helvetica,sans-Serif" font-size="10.00" fill="#000000">&#45; ~GameStates()</text>
</a>
</g>
</g>
<!-- Node0&#45;&gt;Node1 -->
<g id="edge1" class="edge">
<title>Node0&#45;&gt;Node1</title>
<path fill="none" stroke="#191970" d="M78,-94.9589C78,-85.8735 78,-76.7967 78,-68.5415"/>
<polygon fill="none" stroke="#191970" points="74.5001,-95.177 78,-105.1771 81.5001,-95.1771 74.5001,-95.177"/>
</g>
</g>
</svg>
