<?xml version="1.0" encoding="UTF-8" standalone="no"?>
<!DOCTYPE svg PUBLIC "-//W3C//DTD SVG 1.1//EN"
 "http://www.w3.org/Graphics/SVG/1.1/DTD/svg11.dtd">
<!-- Generated by graphviz version 2.40.1 (20161225.0304)
 -->
<!-- Title: TupleType&lt; List &gt; Pages: 1 -->
<svg width="138pt" height="171pt"
 viewBox="0.00 0.00 137.50 171.00" xmlns="http://www.w3.org/2000/svg" xmlns:xlink="http://www.w3.org/1999/xlink">
<g id="graph0" class="graph" transform="scale(1 1) rotate(0) translate(4 167)">
<title>TupleType&lt; List &gt;</title>
<!-- Node0 -->
<g id="node1" class="node">
<title>Node0</title>
<polygon fill="#bfbfbf" stroke="#000000" points="11.5,-105.5 11.5,-162.5 115.5,-162.5 115.5,-105.5 11.5,-105.5"/>
<text text-anchor="middle" x="63.5" y="-150.5" font-family="Helvetica,sans-Serif" font-size="10.00" fill="#000000">TupleType&lt; List &gt;</text>
<polyline fill="none" stroke="#000000" points="11.5,-143.5 115.5,-143.5 "/>
<text text-anchor="middle" x="63.5" y="-131.5" font-family="Helvetica,sans-Serif" font-size="10.00" fill="#000000"> </text>
<polyline fill="none" stroke="#000000" points="11.5,-124.5 115.5,-124.5 "/>
<text text-anchor="middle" x="63.5" y="-112.5" font-family="Helvetica,sans-Serif" font-size="10.00" fill="#000000"> </text>
</g>
<!-- Node1 -->
<g id="node2" class="node">
<title>Node1</title>
<g id="a_node2"><a xlink:href="structTupleType.html" target="_top" xlink:title="{TupleType\&lt; TypeList \&gt;\n||}">
<polygon fill="none" stroke="#000000" points="0,-.5 0,-57.5 127,-57.5 127,-.5 0,-.5"/>
<text text-anchor="middle" x="63.5" y="-45.5" font-family="Helvetica,sans-Serif" font-size="10.00" fill="#000000">TupleType&lt; TypeList &gt;</text>
<polyline fill="none" stroke="#000000" points="0,-38.5 127,-38.5 "/>
<text text-anchor="middle" x="63.5" y="-26.5" font-family="Helvetica,sans-Serif" font-size="10.00" fill="#000000"> </text>
<polyline fill="none" stroke="#000000" points="0,-19.5 127,-19.5 "/>
<text text-anchor="middle" x="63.5" y="-7.5" font-family="Helvetica,sans-Serif" font-size="10.00" fill="#000000"> </text>
</a>
</g>
</g>
<!-- Node0&#45;&gt;Node1 -->
<g id="edge1" class="edge">
<title>Node0&#45;&gt;Node1</title>
<path fill="none" stroke="#ffa500" d="M63.5,-95.192C63.5,-82.7605 63.5,-69.2278 63.5,-57.657"/>
<polygon fill="#ffa500" stroke="#ffa500" points="60.0001,-95.3083 63.5,-105.3083 67.0001,-95.3083 60.0001,-95.3083"/>
<text text-anchor="middle" x="96.5" y="-79" font-family="Helvetica,sans-Serif" font-size="10.00" fill="#000000"> &lt; TypeList &gt;</text>
</g>
</g>
</svg>
