<?xml version="1.0" encoding="UTF-8" standalone="no"?>
<!DOCTYPE svg PUBLIC "-//W3C//DTD SVG 1.1//EN"
 "http://www.w3.org/Graphics/SVG/1.1/DTD/svg11.dtd">
<!-- Generated by graphviz version 2.40.1 (20161225.0304)
 -->
<!-- Title: Game::GameVisitor Pages: 1 -->
<svg width="121pt" height="171pt"
 viewBox="0.00 0.00 121.00 171.00" xmlns="http://www.w3.org/2000/svg" xmlns:xlink="http://www.w3.org/1999/xlink">
<g id="graph0" class="graph" transform="scale(1 1) rotate(0) translate(4 167)">
<title>Game::GameVisitor</title>
<!-- Node0 -->
<g id="node1" class="node">
<title>Node0</title>
<polygon fill="#bfbfbf" stroke="#000000" points="0,-.5 0,-57.5 113,-57.5 113,-.5 0,-.5"/>
<text text-anchor="middle" x="56.5" y="-45.5" font-family="Helvetica,sans-Serif" font-size="10.00" fill="#000000">Game::GameVisitor</text>
<polyline fill="none" stroke="#000000" points="0,-38.5 113,-38.5 "/>
<text text-anchor="middle" x="56.5" y="-26.5" font-family="Helvetica,sans-Serif" font-size="10.00" fill="#000000"> </text>
<polyline fill="none" stroke="#000000" points="0,-19.5 113,-19.5 "/>
<text text-anchor="start" x="8" y="-7.5" font-family="Helvetica,sans-Serif" font-size="10.00" fill="#000000">+ operator()()</text>
</g>
<!-- Node1 -->
<g id="node2" class="node">
<title>Node1</title>
<g id="a_node2"><a xlink:href="classGameService.html" target="_top" xlink:title="{GameService\n|&#45; m_Services\l|+ GameService()\l# GetService()\l}">
<polygon fill="none" stroke="#000000" points="6,-94.5 6,-162.5 107,-162.5 107,-94.5 6,-94.5"/>
<text text-anchor="middle" x="56.5" y="-150.5" font-family="Helvetica,sans-Serif" font-size="10.00" fill="#000000">GameService</text>
<polyline fill="none" stroke="#000000" points="6,-143.5 107,-143.5 "/>
<text text-anchor="start" x="14" y="-131.5" font-family="Helvetica,sans-Serif" font-size="10.00" fill="#000000">&#45; m_Services</text>
<polyline fill="none" stroke="#000000" points="6,-124.5 107,-124.5 "/>
<text text-anchor="start" x="14" y="-112.5" font-family="Helvetica,sans-Serif" font-size="10.00" fill="#000000">+ GameService()</text>
<text text-anchor="start" x="14" y="-101.5" font-family="Helvetica,sans-Serif" font-size="10.00" fill="#000000"># GetService()</text>
</a>
</g>
</g>
<!-- Node1&#45;&gt;Node0 -->
<g id="edge1" class="edge">
<title>Node1&#45;&gt;Node0</title>
<path fill="none" stroke="#191970" d="M56.5,-84.2499C56.5,-75.2373 56.5,-65.981 56.5,-57.6836"/>
<polygon fill="none" stroke="#191970" points="53.0001,-84.2577 56.5,-94.2577 60.0001,-84.2578 53.0001,-84.2577"/>
</g>
</g>
</svg>
