<?xml version="1.0" encoding="UTF-8" standalone="no"?>
<!DOCTYPE svg PUBLIC "-//W3C//DTD SVG 1.1//EN"
 "http://www.w3.org/Graphics/SVG/1.1/DTD/svg11.dtd">
<!-- Generated by graphviz version 2.40.1 (20161225.0304)
 -->
<!-- Title: src/engine/map/TerrainGenerator.cxx Pages: 1 -->
<!--zoomable 420 -->
<svg id="main" version="1.1" xmlns="http://www.w3.org/2000/svg" xmlns:xlink="http://www.w3.org/1999/xlink" xml:space="preserve" onload="init(evt)">
<style type="text/css"><![CDATA[
.edge:hover path { stroke: red; }
.edge:hover polygon { stroke: red; fill: red; }
]]></style>
<script type="text/javascript"><![CDATA[
var edges = document.getElementsByTagName('g');
if (edges && edges.length) {
  for (var i=0;i<edges.length;i++) {
    if (edges[i].id.substr(0,4)=='edge') {
      edges[i].setAttribute('class','edge');
    }
  }
}
]]></script>
        <defs>
                <circle id="rim" cx="0" cy="0" r="7"/>
                <circle id="rim2" cx="0" cy="0" r="3.5"/>
                <g id="zoomPlus">
                        <use xlink:href="#rim" fill="#404040">
                                <set attributeName="fill" to="#808080" begin="zoomplus.mouseover" end="zoomplus.mouseout"/>
                        </use>
                        <path d="M-4,0h8M0,-4v8" fill="none" stroke="white" stroke-width="1.5" pointer-events="none"/>
                </g>
                <g id="zoomMin">
                        <use xlink:href="#rim" fill="#404040">
                                <set attributeName="fill" to="#808080" begin="zoomminus.mouseover" end="zoomminus.mouseout"/>
                        </use>
                        <path d="M-4,0h8" fill="none" stroke="white" stroke-width="1.5" pointer-events="none"/>
                </g>
                <g id="dirArrow">
                        <path fill="none" stroke="white" stroke-width="1.5" d="M0,-3.0v7 M-2.5,-0.5L0,-3.0L2.5,-0.5"/>
                </g>
               <g id="resetDef">
                       <use xlink:href="#rim2" fill="#404040">
                               <set attributeName="fill" to="#808080" begin="reset.mouseover" end="reset.mouseout"/>
                       </use>
               </g>
        </defs>

<script type="text/javascript">
var viewWidth = 2035;
var viewHeight = 420;
var sectionId = 'dynsection-0';
</script>
<script xlink:href="svgpan.js"/>
<svg id="graph" class="graph">
<g id="viewport">
<title>src/engine/map/TerrainGenerator.cxx</title>
<!-- Node0 -->
<g id="node1" class="node">
<title>Node0</title>
<polygon fill="#bfbfbf" stroke="#000000" points="1541.5,-392.5 1541.5,-411.5 1737.5,-411.5 1737.5,-392.5 1541.5,-392.5"/>
<text text-anchor="middle" x="1639.5" y="-399.5" font-family="Helvetica,sans-Serif" font-size="10.00" fill="#000000">src/engine/map/TerrainGenerator.cxx</text>
</g>
<!-- Node1 -->
<g id="node2" class="node">
<title>Node1</title>
<g id="a_node2"><a xlink:href="TerrainGenerator_8hxx.html" target="_top" xlink:title="TerrainGenerator.hxx">
<polygon fill="none" stroke="#000000" points="1492,-280.5 1492,-299.5 1611,-299.5 1611,-280.5 1492,-280.5"/>
<text text-anchor="middle" x="1551.5" y="-287.5" font-family="Helvetica,sans-Serif" font-size="10.00" fill="#000000">TerrainGenerator.hxx</text>
</a>
</g>
</g>
<!-- Node0&#45;&gt;Node1 -->
<g id="edge1" class="edge">
<title>Node0&#45;&gt;Node1</title>
<path fill="none" stroke="#191970" d="M1617.4934,-392.4109C1602.1996,-384.675 1582.485,-372.3844 1570.5,-356 1560.6126,-342.4831 1555.8553,-323.9314 1553.5751,-309.9383"/>
<polygon fill="#191970" stroke="#191970" points="1557.0241,-309.3232 1552.2269,-299.8767 1550.0861,-310.253 1557.0241,-309.3232"/>
</g>
<!-- Node16 -->
<g id="node17" class="node">
<title>Node16</title>
<polygon fill="none" stroke="#bfbfbf" points="1794.5,-112.5 1794.5,-131.5 1852.5,-131.5 1852.5,-112.5 1794.5,-112.5"/>
<text text-anchor="middle" x="1823.5" y="-119.5" font-family="Helvetica,sans-Serif" font-size="10.00" fill="#000000">json.hxx</text>
</g>
<!-- Node0&#45;&gt;Node16 -->
<g id="edge63" class="edge">
<title>Node0&#45;&gt;Node16</title>
<path fill="none" stroke="#191970" d="M1709.9298,-392.47C1768.5611,-380.1071 1842.5,-352.1881 1842.5,-290 1842.5,-290 1842.5,-290 1842.5,-234 1842.5,-201.2688 1834.5148,-163.9052 1828.8978,-141.6716"/>
<polygon fill="#191970" stroke="#191970" points="1832.2289,-140.5763 1826.3035,-131.7934 1825.4585,-142.3545 1832.2289,-140.5763"/>
</g>
<!-- Node20 -->
<g id="node21" class="node">
<title>Node20</title>
<g id="a_node21"><a xlink:href="Constants_8hxx.html" target="_top" xlink:title="Constants.hxx">
<polygon fill="none" stroke="#000000" points="1870.5,-336.5 1870.5,-355.5 1956.5,-355.5 1956.5,-336.5 1870.5,-336.5"/>
<text text-anchor="middle" x="1913.5" y="-343.5" font-family="Helvetica,sans-Serif" font-size="10.00" fill="#000000">Constants.hxx</text>
</a>
</g>
</g>
<!-- Node0&#45;&gt;Node20 -->
<g id="edge30" class="edge">
<title>Node0&#45;&gt;Node20</title>
<path fill="none" stroke="#191970" d="M1686.291,-392.4369C1734.4804,-382.5879 1809.4759,-367.2604 1859.9915,-356.936"/>
<polygon fill="#191970" stroke="#191970" points="1860.9701,-360.3085 1870.0667,-354.8769 1859.5684,-353.4502 1860.9701,-360.3085"/>
</g>
<!-- Node21 -->
<g id="node22" class="node">
<title>Node21</title>
<g id="a_node22"><a xlink:href="LOG_8hxx.html" target="_top" xlink:title="LOG.hxx">
<polygon fill="none" stroke="#000000" points="512.5,-224.5 512.5,-243.5 570.5,-243.5 570.5,-224.5 512.5,-224.5"/>
<text text-anchor="middle" x="541.5" y="-231.5" font-family="Helvetica,sans-Serif" font-size="10.00" fill="#000000">LOG.hxx</text>
</a>
</g>
</g>
<!-- Node0&#45;&gt;Node21 -->
<g id="edge31" class="edge">
<title>Node0&#45;&gt;Node21</title>
<path fill="none" stroke="#191970" d="M1577.3208,-392.4862C1376.0051,-361.6838 745.5562,-265.2217 581.0708,-240.0546"/>
<polygon fill="#191970" stroke="#191970" points="581.3342,-236.5542 570.9198,-238.5014 580.2754,-243.4737 581.3342,-236.5542"/>
</g>
<!-- Node22 -->
<g id="node23" class="node">
<title>Node22</title>
<g id="a_node23"><a xlink:href="Exception_8hxx.html" target="_top" xlink:title="Exception.hxx">
<polygon fill="none" stroke="#000000" points="58.5,-168.5 58.5,-187.5 144.5,-187.5 144.5,-168.5 58.5,-168.5"/>
<text text-anchor="middle" x="101.5" y="-175.5" font-family="Helvetica,sans-Serif" font-size="10.00" fill="#000000">Exception.hxx</text>
</a>
</g>
</g>
<!-- Node0&#45;&gt;Node22 -->
<g id="edge52" class="edge">
<title>Node0&#45;&gt;Node22</title>
<path fill="none" stroke="#191970" d="M1544.2271,-392.4835C1460.4344,-383.8527 1335.2209,-370.3211 1226.5,-356 904.1188,-313.5349 824.6384,-295.0202 503.5,-244 351.1078,-219.789 310.3062,-215.4939 154.5477,-188.1468"/>
<polygon fill="#191970" stroke="#191970" points="155.0663,-184.6844 144.611,-186.3984 153.8532,-191.5784 155.0663,-184.6844"/>
</g>
<!-- Node38 -->
<g id="node39" class="node">
<title>Node38</title>
<g id="a_node39"><a xlink:href="JsonSerialization_8hxx.html" target="_top" xlink:title="JsonSerialization.hxx">
<polygon fill="none" stroke="#000000" points="1580,-336.5 1580,-355.5 1699,-355.5 1699,-336.5 1580,-336.5"/>
<text text-anchor="middle" x="1639.5" y="-343.5" font-family="Helvetica,sans-Serif" font-size="10.00" fill="#000000">JsonSerialization.hxx</text>
</a>
</g>
</g>
<!-- Node0&#45;&gt;Node38 -->
<g id="edge53" class="edge">
<title>Node0&#45;&gt;Node38</title>
<path fill="none" stroke="#191970" d="M1639.5,-392.2455C1639.5,-384.9382 1639.5,-374.6944 1639.5,-365.7046"/>
<polygon fill="#191970" stroke="#191970" points="1643.0001,-365.6426 1639.5,-355.6427 1636.0001,-365.6427 1643.0001,-365.6426"/>
</g>
<!-- Node41 -->
<g id="node42" class="node">
<title>Node41</title>
<polygon fill="none" stroke="#bfbfbf" points="1974.5,-336.5 1974.5,-355.5 2026.5,-355.5 2026.5,-336.5 1974.5,-336.5"/>
<text text-anchor="middle" x="2000.5" y="-343.5" font-family="Helvetica,sans-Serif" font-size="10.00" fill="#000000">noise.h</text>
</g>
<!-- Node0&#45;&gt;Node41 -->
<g id="edge64" class="edge">
<title>Node0&#45;&gt;Node41</title>
<path fill="none" stroke="#191970" d="M1731.43,-392.4633C1794.5653,-385.1118 1880.3923,-373.5442 1964.2719,-356.0361"/>
<polygon fill="#191970" stroke="#191970" points="1965.1666,-359.4243 1974.2245,-353.9284 1963.7163,-352.5762 1965.1666,-359.4243"/>
</g>
<!-- Node2 -->
<g id="node3" class="node">
<title>Node2</title>
<g id="a_node3"><a xlink:href="MapNode_8hxx.html" target="_top" xlink:title="../GameObjects/MapNode.hxx">
<polygon fill="none" stroke="#000000" points="1445,-224.5 1445,-243.5 1606,-243.5 1606,-224.5 1445,-224.5"/>
<text text-anchor="middle" x="1525.5" y="-231.5" font-family="Helvetica,sans-Serif" font-size="10.00" fill="#000000">../GameObjects/MapNode.hxx</text>
</a>
</g>
</g>
<!-- Node1&#45;&gt;Node2 -->
<g id="edge2" class="edge">
<title>Node1&#45;&gt;Node2</title>
<path fill="none" stroke="#191970" d="M1546.9711,-280.2455C1543.4666,-272.6973 1538.5073,-262.0158 1534.2377,-252.8197"/>
<polygon fill="#191970" stroke="#191970" points="1537.3627,-251.2389 1529.977,-243.6427 1531.0136,-254.1867 1537.3627,-251.2389"/>
</g>
<!-- Node7 -->
<g id="node8" class="node">
<title>Node7</title>
<polygon fill="none" stroke="#bfbfbf" points="1629,-56.5 1629,-75.5 1676,-75.5 1676,-56.5 1629,-56.5"/>
<text text-anchor="middle" x="1652.5" y="-63.5" font-family="Helvetica,sans-Serif" font-size="10.00" fill="#000000">vector</text>
</g>
<!-- Node1&#45;&gt;Node7 -->
<g id="edge29" class="edge">
<title>Node1&#45;&gt;Node7</title>
<path fill="none" stroke="#191970" d="M1572.0579,-280.4501C1612.7317,-260.1188 1701.6087,-208.1104 1725.5,-132 1728.1622,-123.5191 1729.7947,-119.7825 1725.5,-112 1716.8691,-96.3598 1700.4389,-85.3092 1685.3484,-77.9661"/>
<polygon fill="#191970" stroke="#191970" points="1686.7638,-74.765 1676.2073,-73.8651 1683.8986,-81.1518 1686.7638,-74.765"/>
</g>
<!-- Node19 -->
<g id="node20" class="node">
<title>Node19</title>
<polygon fill="none" stroke="#bfbfbf" points="1388.5,-224.5 1388.5,-243.5 1426.5,-243.5 1426.5,-224.5 1388.5,-224.5"/>
<text text-anchor="middle" x="1407.5" y="-231.5" font-family="Helvetica,sans-Serif" font-size="10.00" fill="#000000">map</text>
</g>
<!-- Node1&#45;&gt;Node19 -->
<g id="edge28" class="edge">
<title>Node1&#45;&gt;Node19</title>
<path fill="none" stroke="#191970" d="M1526.7455,-280.3733C1501.6464,-270.6125 1462.8333,-255.5185 1436.3544,-245.2212"/>
<polygon fill="#191970" stroke="#191970" points="1437.453,-241.8931 1426.8644,-241.5306 1434.9159,-248.4171 1437.453,-241.8931"/>
</g>
<!-- Node3 -->
<g id="node4" class="node">
<title>Node3</title>
<polygon fill="none" stroke="#bfbfbf" points="1466.5,-112.5 1466.5,-131.5 1510.5,-131.5 1510.5,-112.5 1466.5,-112.5"/>
<text text-anchor="middle" x="1488.5" y="-119.5" font-family="Helvetica,sans-Serif" font-size="10.00" fill="#000000">SDL.h</text>
</g>
<!-- Node2&#45;&gt;Node3 -->
<g id="edge3" class="edge">
<title>Node2&#45;&gt;Node3</title>
<path fill="none" stroke="#191970" d="M1504.3784,-224.4622C1490.2497,-216.8191 1472.7828,-204.6199 1464.5,-188 1456.7232,-172.3954 1465.1232,-153.6302 1474.054,-140.1046"/>
<polygon fill="#191970" stroke="#191970" points="1477.1185,-141.8389 1480.1295,-131.6809 1471.4411,-137.7442 1477.1185,-141.8389"/>
</g>
<!-- Node4 -->
<g id="node5" class="node">
<title>Node4</title>
<polygon fill="none" stroke="#bfbfbf" points="1566.5,-168.5 1566.5,-187.5 1624.5,-187.5 1624.5,-168.5 1566.5,-168.5"/>
<text text-anchor="middle" x="1595.5" y="-175.5" font-family="Helvetica,sans-Serif" font-size="10.00" fill="#000000">memory</text>
</g>
<!-- Node2&#45;&gt;Node4 -->
<g id="edge4" class="edge">
<title>Node2&#45;&gt;Node4</title>
<path fill="none" stroke="#191970" d="M1537.6931,-224.2455C1548.1321,-215.8943 1563.3655,-203.7076 1575.574,-193.9408"/>
<polygon fill="#191970" stroke="#191970" points="1577.8244,-196.6227 1583.4467,-187.6427 1573.4515,-191.1566 1577.8244,-196.6227"/>
</g>
<!-- Node5 -->
<g id="node6" class="node">
<title>Node5</title>
<polygon fill="none" stroke="#bfbfbf" points="888.5,-56.5 888.5,-75.5 932.5,-75.5 932.5,-56.5 888.5,-56.5"/>
<text text-anchor="middle" x="910.5" y="-63.5" font-family="Helvetica,sans-Serif" font-size="10.00" fill="#000000">string</text>
</g>
<!-- Node2&#45;&gt;Node5 -->
<g id="edge5" class="edge">
<title>Node2&#45;&gt;Node5</title>
<path fill="none" stroke="#191970" d="M1444.8325,-224.9172C1328.8381,-211.833 1128.3206,-189.1153 1124.5,-188 1105.0377,-182.3185 1102.4158,-175.2976 1083.5,-168 1029.9595,-147.3444 1006.6236,-164.7506 959.5,-132 942.0043,-119.8406 928.2498,-99.4163 919.8233,-84.5027"/>
<polygon fill="#191970" stroke="#191970" points="922.8808,-82.7983 915.0695,-75.6404 916.7122,-86.1071 922.8808,-82.7983"/>
</g>
<!-- Node6 -->
<g id="node7" class="node">
<title>Node6</title>
<polygon fill="none" stroke="#bfbfbf" points="1010.5,-168.5 1010.5,-187.5 1074.5,-187.5 1074.5,-168.5 1010.5,-168.5"/>
<text text-anchor="middle" x="1042.5" y="-175.5" font-family="Helvetica,sans-Serif" font-size="10.00" fill="#000000">algorithm</text>
</g>
<!-- Node2&#45;&gt;Node6 -->
<g id="edge6" class="edge">
<title>Node2&#45;&gt;Node6</title>
<path fill="none" stroke="#191970" d="M1444.55,-224.9774C1441.4948,-224.6458 1438.4699,-224.3191 1435.5,-224 1281.337,-207.4387 1241.6011,-212.5061 1088.5,-188 1087.229,-187.7966 1085.9403,-187.5803 1084.6408,-187.3536"/>
<polygon fill="#191970" stroke="#191970" points="1085.0613,-183.8711 1074.5847,-185.4493 1083.7588,-190.7488 1085.0613,-183.8711"/>
</g>
<!-- Node2&#45;&gt;Node7 -->
<g id="edge7" class="edge">
<title>Node2&#45;&gt;Node7</title>
<path fill="none" stroke="#191970" d="M1574.7212,-224.3894C1621.2661,-212.1718 1687.2062,-185.8219 1709.5,-132 1717.8649,-111.8054 1698.6655,-93.3972 1680.332,-81.1835"/>
<polygon fill="#191970" stroke="#191970" points="1681.8657,-78.0156 1671.526,-75.7045 1678.1678,-83.9591 1681.8657,-78.0156"/>
</g>
<!-- Node8 -->
<g id="node9" class="node">
<title>Node8</title>
<g id="a_node9"><a xlink:href="Sprite_8hxx.html" target="_top" xlink:title="../Sprite.hxx">
<polygon fill="none" stroke="#000000" points="1474,-168.5 1474,-187.5 1549,-187.5 1549,-168.5 1474,-168.5"/>
<text text-anchor="middle" x="1511.5" y="-175.5" font-family="Helvetica,sans-Serif" font-size="10.00" fill="#000000">../Sprite.hxx</text>
</a>
</g>
</g>
<!-- Node2&#45;&gt;Node8 -->
<g id="edge8" class="edge">
<title>Node2&#45;&gt;Node8</title>
<path fill="none" stroke="#191970" d="M1523.0614,-224.2455C1521.2145,-216.8579 1518.6172,-206.4689 1516.3522,-197.4087"/>
<polygon fill="#191970" stroke="#191970" points="1519.7316,-196.4952 1513.9107,-187.6427 1512.9406,-198.193 1519.7316,-196.4952"/>
</g>
<!-- Node9 -->
<g id="node10" class="node">
<title>Node9</title>
<g id="a_node10"><a xlink:href="point_8hxx.html" target="_top" xlink:title="basics/point.hxx">
<polygon fill="none" stroke="#000000" points="1604.5,-112.5 1604.5,-131.5 1700.5,-131.5 1700.5,-112.5 1604.5,-112.5"/>
<text text-anchor="middle" x="1652.5" y="-119.5" font-family="Helvetica,sans-Serif" font-size="10.00" fill="#000000">basics/point.hxx</text>
</a>
</g>
</g>
<!-- Node2&#45;&gt;Node9 -->
<g id="edge16" class="edge">
<title>Node2&#45;&gt;Node9</title>
<path fill="none" stroke="#191970" d="M1570.5656,-224.4405C1592.3472,-217.6638 1617.2292,-206.3942 1633.5,-188 1644.7206,-175.3151 1649.339,-156.3899 1651.2274,-142.0534"/>
<polygon fill="#191970" stroke="#191970" points="1654.7453,-142.0384 1652.2304,-131.7464 1647.7782,-141.3603 1654.7453,-142.0384"/>
</g>
<!-- Node10 -->
<g id="node11" class="node">
<title>Node10</title>
<g id="a_node11"><a xlink:href="enums_8hxx.html" target="_top" xlink:title="common/enums.hxx">
<polygon fill="none" stroke="#000000" points="1351.5,-56.5 1351.5,-75.5 1467.5,-75.5 1467.5,-56.5 1351.5,-56.5"/>
<text text-anchor="middle" x="1409.5" y="-63.5" font-family="Helvetica,sans-Serif" font-size="10.00" fill="#000000">common/enums.hxx</text>
</a>
</g>
</g>
<!-- Node2&#45;&gt;Node10 -->
<g id="edge15" class="edge">
<title>Node2&#45;&gt;Node10</title>
<path fill="none" stroke="#191970" d="M1460.4423,-224.4846C1401.9747,-215.7248 1313.8224,-202.0024 1237.5,-188 1222.4322,-185.2356 977.17,-143.8815 967.5,-132 961.889,-125.1059 961.5488,-118.6027 967.5,-112 992.0305,-84.7841 1223.534,-72.63 1341.3369,-68.1706"/>
<polygon fill="#191970" stroke="#191970" points="1341.476,-71.6679 1351.3396,-67.8001 1341.2169,-64.6727 1341.476,-71.6679"/>
</g>
<!-- Node13 -->
<g id="node14" class="node">
<title>Node13</title>
<g id="a_node14"><a xlink:href="TileManager_8hxx.html" target="_top" xlink:title="../TileManager.hxx">
<polygon fill="none" stroke="#000000" points="1246.5,-168.5 1246.5,-187.5 1352.5,-187.5 1352.5,-168.5 1246.5,-168.5"/>
<text text-anchor="middle" x="1299.5" y="-175.5" font-family="Helvetica,sans-Serif" font-size="10.00" fill="#000000">../TileManager.hxx</text>
</a>
</g>
</g>
<!-- Node2&#45;&gt;Node13 -->
<g id="edge17" class="edge">
<title>Node2&#45;&gt;Node13</title>
<path fill="none" stroke="#191970" d="M1486.906,-224.4369C1448.4716,-214.9133 1389.364,-200.2672 1347.829,-189.9753"/>
<polygon fill="#191970" stroke="#191970" points="1348.4831,-186.5316 1337.9348,-187.5237 1346.7994,-193.3261 1348.4831,-186.5316"/>
</g>
<!-- Node8&#45;&gt;Node3 -->
<g id="edge9" class="edge">
<title>Node8&#45;&gt;Node3</title>
<path fill="none" stroke="#191970" d="M1507.4937,-168.2455C1504.4265,-160.7776 1500.0997,-150.2427 1496.3503,-141.1137"/>
<polygon fill="#191970" stroke="#191970" points="1499.4972,-139.5631 1492.4604,-131.6427 1493.0221,-142.2226 1499.4972,-139.5631"/>
</g>
<!-- Node8&#45;&gt;Node7 -->
<g id="edge10" class="edge">
<title>Node8&#45;&gt;Node7</title>
<path fill="none" stroke="#191970" d="M1523.5216,-168.4509C1547.7671,-149.1921 1602.7448,-105.5218 1632.4912,-81.8935"/>
<polygon fill="#191970" stroke="#191970" points="1634.8555,-84.4854 1640.5088,-75.5249 1630.5016,-79.0041 1634.8555,-84.4854"/>
</g>
<!-- Node8&#45;&gt;Node9 -->
<g id="edge11" class="edge">
<title>Node8&#45;&gt;Node9</title>
<path fill="none" stroke="#191970" d="M1535.7388,-168.3733C1558.7789,-159.2226 1593.6214,-145.3844 1619.2501,-135.2057"/>
<polygon fill="#191970" stroke="#191970" points="1620.5756,-138.4452 1628.5775,-131.5011 1617.9918,-131.9395 1620.5756,-138.4452"/>
</g>
<!-- Node8&#45;&gt;Node10 -->
<g id="edge12" class="edge">
<title>Node8&#45;&gt;Node10</title>
<path fill="none" stroke="#191970" d="M1516.4463,-168.1154C1522.5703,-154.3298 1530.8854,-129.1019 1519.5,-112 1508.9502,-96.1532 1491.7836,-85.7555 1474.116,-78.9369"/>
<polygon fill="#191970" stroke="#191970" points="1474.8828,-75.4975 1464.288,-75.5052 1472.5751,-82.1062 1474.8828,-75.4975"/>
</g>
<!-- Node11 -->
<g id="node12" class="node">
<title>Node11</title>
<polygon fill="none" stroke="#bfbfbf" points="1333.5,-.5 1333.5,-19.5 1389.5,-19.5 1389.5,-.5 1333.5,-.5"/>
<text text-anchor="middle" x="1361.5" y="-7.5" font-family="Helvetica,sans-Serif" font-size="10.00" fill="#000000">stddef.h</text>
</g>
<!-- Node10&#45;&gt;Node11 -->
<g id="edge13" class="edge">
<title>Node10&#45;&gt;Node11</title>
<path fill="none" stroke="#191970" d="M1401.139,-56.2455C1394.325,-48.2958 1384.5319,-36.8706 1376.3848,-27.3656"/>
<polygon fill="#191970" stroke="#191970" points="1378.9305,-24.9575 1369.7651,-19.6427 1373.6157,-29.513 1378.9305,-24.9575"/>
</g>
<!-- Node12 -->
<g id="node13" class="node">
<title>Node12</title>
<polygon fill="none" stroke="#bfbfbf" points="1407.5,-.5 1407.5,-19.5 1507.5,-19.5 1507.5,-.5 1407.5,-.5"/>
<text text-anchor="middle" x="1457.5" y="-7.5" font-family="Helvetica,sans-Serif" font-size="10.00" fill="#000000">betterEnums.hxx</text>
</g>
<!-- Node10&#45;&gt;Node12 -->
<g id="edge14" class="edge">
<title>Node10&#45;&gt;Node12</title>
<path fill="none" stroke="#191970" d="M1417.861,-56.2455C1424.675,-48.2958 1434.4681,-36.8706 1442.6152,-27.3656"/>
<polygon fill="#191970" stroke="#191970" points="1445.3843,-29.513 1449.2349,-19.6427 1440.0695,-24.9575 1445.3843,-29.513"/>
</g>
<!-- Node13&#45;&gt;Node3 -->
<g id="edge18" class="edge">
<title>Node13&#45;&gt;Node3</title>
<path fill="none" stroke="#191970" d="M1332.6303,-168.4793C1364.4401,-159.2941 1413.8203,-144.92 1456.5,-132 1456.601,-131.9694 1456.7021,-131.9388 1456.8034,-131.9081"/>
<polygon fill="#191970" stroke="#191970" points="1457.9492,-135.2176 1466.482,-128.9373 1455.8952,-128.5258 1457.9492,-135.2176"/>
</g>
<!-- Node13&#45;&gt;Node5 -->
<g id="edge20" class="edge">
<title>Node13&#45;&gt;Node5</title>
<path fill="none" stroke="#191970" d="M1246.3427,-168.8097C1207.228,-161.2007 1153.1464,-148.8954 1107.5,-132 1089.2316,-125.2382 1086.6003,-119.1997 1068.5,-112 1025.9816,-95.0876 974.8194,-81.3316 942.4727,-73.4025"/>
<polygon fill="#191970" stroke="#191970" points="943.2084,-69.9796 932.6664,-71.0362 941.5664,-76.7843 943.2084,-69.9796"/>
</g>
<!-- Node14 -->
<g id="node15" class="node">
<title>Node14</title>
<polygon fill="none" stroke="#bfbfbf" points="1117,-112.5 1117,-131.5 1210,-131.5 1210,-112.5 1117,-112.5"/>
<text text-anchor="middle" x="1163.5" y="-119.5" font-family="Helvetica,sans-Serif" font-size="10.00" fill="#000000">unordered_map</text>
</g>
<!-- Node13&#45;&gt;Node14 -->
<g id="edge19" class="edge">
<title>Node13&#45;&gt;Node14</title>
<path fill="none" stroke="#191970" d="M1276.1208,-168.3733C1253.9955,-159.2629 1220.5866,-145.5062 1195.8981,-135.3404"/>
<polygon fill="#191970" stroke="#191970" points="1197.1536,-132.0723 1186.5742,-131.5011 1194.4883,-138.5451 1197.1536,-132.0723"/>
</g>
<!-- Node15 -->
<g id="node16" class="node">
<title>Node15</title>
<g id="a_node16"><a xlink:href="tileData_8hxx.html" target="_top" xlink:title="tileData.hxx">
<polygon fill="none" stroke="#000000" points="1371,-112.5 1371,-131.5 1448,-131.5 1448,-112.5 1371,-112.5"/>
<text text-anchor="middle" x="1409.5" y="-119.5" font-family="Helvetica,sans-Serif" font-size="10.00" fill="#000000">tileData.hxx</text>
</a>
</g>
</g>
<!-- Node13&#45;&gt;Node15 -->
<g id="edge21" class="edge">
<title>Node13&#45;&gt;Node15</title>
<path fill="none" stroke="#191970" d="M1318.6605,-168.2455C1336.0111,-159.4125 1361.7901,-146.2887 1381.4583,-136.2758"/>
<polygon fill="#191970" stroke="#191970" points="1383.2353,-139.2986 1390.559,-131.6427 1380.0595,-133.0605 1383.2353,-139.2986"/>
</g>
<!-- Node13&#45;&gt;Node16 -->
<g id="edge25" class="edge">
<title>Node13&#45;&gt;Node16</title>
<path fill="none" stroke="#191970" d="M1352.6276,-172.3222C1457.9763,-161.0636 1691.1786,-136.1412 1784.135,-126.2069"/>
<polygon fill="#191970" stroke="#191970" points="1784.6708,-129.6697 1794.2423,-125.1268 1783.9269,-122.7093 1784.6708,-129.6697"/>
</g>
<!-- Node17 -->
<g id="node18" class="node">
<title>Node17</title>
<g id="a_node18"><a xlink:href="Singleton_8hxx.html" target="_top" xlink:title="Singleton.hxx">
<polygon fill="none" stroke="#000000" points="977,-112.5 977,-131.5 1060,-131.5 1060,-112.5 977,-112.5"/>
<text text-anchor="middle" x="1018.5" y="-119.5" font-family="Helvetica,sans-Serif" font-size="10.00" fill="#000000">Singleton.hxx</text>
</a>
</g>
</g>
<!-- Node13&#45;&gt;Node17 -->
<g id="edge26" class="edge">
<title>Node13&#45;&gt;Node17</title>
<path fill="none" stroke="#191970" d="M1251.5137,-168.4369C1201.1081,-158.3917 1122.1052,-142.6473 1070.3085,-132.3248"/>
<polygon fill="#191970" stroke="#191970" points="1070.8197,-128.8579 1060.3285,-130.3359 1069.4515,-135.723 1070.8197,-128.8579"/>
</g>
<!-- Node18 -->
<g id="node19" class="node">
<title>Node18</title>
<polygon fill="none" stroke="#bfbfbf" points="1228,-112.5 1228,-131.5 1353,-131.5 1353,-112.5 1228,-112.5"/>
<text text-anchor="middle" x="1290.5" y="-119.5" font-family="Helvetica,sans-Serif" font-size="10.00" fill="#000000">../common/enums.hxx</text>
</g>
<!-- Node13&#45;&gt;Node18 -->
<g id="edge27" class="edge">
<title>Node13&#45;&gt;Node18</title>
<path fill="none" stroke="#191970" d="M1297.9323,-168.2455C1296.7579,-160.9382 1295.1116,-150.6944 1293.6668,-141.7046"/>
<polygon fill="#191970" stroke="#191970" points="1297.0922,-140.9606 1292.0497,-131.6427 1290.1809,-142.0714 1297.0922,-140.9606"/>
</g>
<!-- Node15&#45;&gt;Node5 -->
<g id="edge22" class="edge">
<title>Node15&#45;&gt;Node5</title>
<path fill="none" stroke="#191970" d="M1370.7903,-113.5759C1367.6542,-113.0032 1364.5284,-112.4686 1361.5,-112 1205.4494,-87.8532 1016.9861,-73.301 942.7646,-68.1359"/>
<polygon fill="#191970" stroke="#191970" points="942.8766,-64.6354 932.6603,-67.4419 942.3969,-71.619 942.8766,-64.6354"/>
</g>
<!-- Node15&#45;&gt;Node7 -->
<g id="edge23" class="edge">
<title>Node15&#45;&gt;Node7</title>
<path fill="none" stroke="#191970" d="M1448.0041,-113.1266C1495.1833,-102.2541 1574.3443,-84.0112 1619.0769,-73.7024"/>
<polygon fill="#191970" stroke="#191970" points="1619.9135,-77.1015 1628.8721,-71.4451 1618.3415,-70.2803 1619.9135,-77.1015"/>
</g>
<!-- Node15&#45;&gt;Node10 -->
<g id="edge24" class="edge">
<title>Node15&#45;&gt;Node10</title>
<path fill="none" stroke="#191970" d="M1409.5,-112.2455C1409.5,-104.9382 1409.5,-94.6944 1409.5,-85.7046"/>
<polygon fill="#191970" stroke="#191970" points="1413.0001,-85.6426 1409.5,-75.6427 1406.0001,-85.6427 1413.0001,-85.6426"/>
</g>
<!-- Node21&#45;&gt;Node3 -->
<g id="edge41" class="edge">
<title>Node21&#45;&gt;Node3</title>
<path fill="none" stroke="#191970" d="M570.7993,-233.0875C708.0588,-228.7143 1284.0658,-209.2352 1361.5,-188 1400.8104,-177.2197 1441.8893,-153.1547 1466.3288,-137.257"/>
<polygon fill="#191970" stroke="#191970" points="1468.4445,-140.0536 1474.8424,-131.6086 1464.5745,-134.2206 1468.4445,-140.0536"/>
</g>
<!-- Node21&#45;&gt;Node5 -->
<g id="edge32" class="edge">
<title>Node21&#45;&gt;Node5</title>
<path fill="none" stroke="#191970" d="M512.3611,-232.1333C459.338,-228.0638 350.426,-216.3776 327.5,-188 321.914,-181.0856 322.973,-175.6498 327.5,-168 353.8383,-123.4931 380.074,-127.2198 429.5,-112 513.9351,-85.9998 785.0498,-71.644 878.4906,-67.3723"/>
<polygon fill="#191970" stroke="#191970" points="878.6488,-70.8688 888.4815,-66.9233 878.3345,-63.8759 878.6488,-70.8688"/>
</g>
<!-- Node21&#45;&gt;Node6 -->
<g id="edge42" class="edge">
<title>Node21&#45;&gt;Node6</title>
<path fill="none" stroke="#191970" d="M570.6791,-232.435C643.58,-228.2309 839.391,-215.1273 1000.5,-188 1000.6016,-187.9829 1000.7034,-187.9657 1000.8053,-187.9483"/>
<polygon fill="#191970" stroke="#191970" points="1001.3265,-191.4123 1010.4867,-186.0887 1000.006,-184.538 1001.3265,-191.4123"/>
</g>
<!-- Node21&#45;&gt;Node22 -->
<g id="edge33" class="edge">
<title>Node21&#45;&gt;Node22</title>
<path fill="none" stroke="#191970" d="M512.1983,-231.2536C448.8741,-225.1628 294.3592,-209.4646 154.6226,-188.0831"/>
<polygon fill="#191970" stroke="#191970" points="155.0056,-184.6008 144.5886,-186.5339 153.9374,-191.5189 155.0056,-184.6008"/>
</g>
<!-- Node25 -->
<g id="node26" class="node">
<title>Node25</title>
<polygon fill="none" stroke="#bfbfbf" points="438.5,-112.5 438.5,-131.5 498.5,-131.5 498.5,-112.5 438.5,-112.5"/>
<text text-anchor="middle" x="468.5" y="-119.5" font-family="Helvetica,sans-Serif" font-size="10.00" fill="#000000">iostream</text>
</g>
<!-- Node21&#45;&gt;Node25 -->
<g id="edge36" class="edge">
<title>Node21&#45;&gt;Node25</title>
<path fill="none" stroke="#191970" d="M512.1086,-231.7755C460.9783,-227.2285 359.0398,-214.9377 337.5,-188 309.8664,-153.4415 380.0891,-135.3906 428.0646,-127.3589"/>
<polygon fill="#191970" stroke="#191970" points="428.8894,-130.7719 438.2185,-125.7501 427.7939,-123.8582 428.8894,-130.7719"/>
</g>
<!-- Node26 -->
<g id="node27" class="node">
<title>Node26</title>
<polygon fill="none" stroke="#bfbfbf" points="346.5,-168.5 346.5,-187.5 396.5,-187.5 396.5,-168.5 346.5,-168.5"/>
<text text-anchor="middle" x="371.5" y="-175.5" font-family="Helvetica,sans-Serif" font-size="10.00" fill="#000000">chrono</text>
</g>
<!-- Node21&#45;&gt;Node26 -->
<g id="edge37" class="edge">
<title>Node21&#45;&gt;Node26</title>
<path fill="none" stroke="#191970" d="M512.276,-224.3733C482.8939,-214.6945 437.5924,-199.7716 406.3548,-189.4816"/>
<polygon fill="#191970" stroke="#191970" points="407.338,-186.1205 396.745,-186.316 405.1478,-192.7691 407.338,-186.1205"/>
</g>
<!-- Node27 -->
<g id="node28" class="node">
<title>Node27</title>
<polygon fill="none" stroke="#bfbfbf" points="414.5,-168.5 414.5,-187.5 458.5,-187.5 458.5,-168.5 414.5,-168.5"/>
<text text-anchor="middle" x="436.5" y="-175.5" font-family="Helvetica,sans-Serif" font-size="10.00" fill="#000000">ctime</text>
</g>
<!-- Node21&#45;&gt;Node27 -->
<g id="edge38" class="edge">
<title>Node21&#45;&gt;Node27</title>
<path fill="none" stroke="#191970" d="M523.2104,-224.2455C506.7238,-215.4527 482.2648,-202.4079 463.5235,-192.4125"/>
<polygon fill="#191970" stroke="#191970" points="465.0506,-189.2604 454.58,-187.6427 461.7565,-195.4368 465.0506,-189.2604"/>
</g>
<!-- Node28 -->
<g id="node29" class="node">
<title>Node28</title>
<polygon fill="none" stroke="#bfbfbf" points="477,-168.5 477,-187.5 532,-187.5 532,-168.5 477,-168.5"/>
<text text-anchor="middle" x="504.5" y="-175.5" font-family="Helvetica,sans-Serif" font-size="10.00" fill="#000000">fstream</text>
</g>
<!-- Node21&#45;&gt;Node28 -->
<g id="edge39" class="edge">
<title>Node21&#45;&gt;Node28</title>
<path fill="none" stroke="#191970" d="M535.0551,-224.2455C529.9618,-216.5367 522.7092,-205.5598 516.548,-196.2348"/>
<polygon fill="#191970" stroke="#191970" points="519.3038,-194.0566 510.8711,-187.6427 513.4635,-197.9155 519.3038,-194.0566"/>
</g>
<!-- Node29 -->
<g id="node30" class="node">
<title>Node29</title>
<polygon fill="none" stroke="#bfbfbf" points="550.5,-168.5 550.5,-187.5 606.5,-187.5 606.5,-168.5 550.5,-168.5"/>
<text text-anchor="middle" x="578.5" y="-175.5" font-family="Helvetica,sans-Serif" font-size="10.00" fill="#000000">sstream</text>
</g>
<!-- Node21&#45;&gt;Node29 -->
<g id="edge40" class="edge">
<title>Node21&#45;&gt;Node29</title>
<path fill="none" stroke="#191970" d="M547.9449,-224.2455C553.0382,-216.5367 560.2908,-205.5598 566.452,-196.2348"/>
<polygon fill="#191970" stroke="#191970" points="569.5365,-197.9155 572.1289,-187.6427 563.6962,-194.0566 569.5365,-197.9155"/>
</g>
<!-- Node30 -->
<g id="node31" class="node">
<title>Node30</title>
<polygon fill="none" stroke="#bfbfbf" points="624.5,-168.5 624.5,-187.5 672.5,-187.5 672.5,-168.5 624.5,-168.5"/>
<text text-anchor="middle" x="648.5" y="-175.5" font-family="Helvetica,sans-Serif" font-size="10.00" fill="#000000">mutex</text>
</g>
<!-- Node21&#45;&gt;Node30 -->
<g id="edge43" class="edge">
<title>Node21&#45;&gt;Node30</title>
<path fill="none" stroke="#191970" d="M560.138,-224.2455C576.9386,-215.4527 601.8634,-202.4079 620.9618,-192.4125"/>
<polygon fill="#191970" stroke="#191970" points="622.8386,-195.3807 630.0756,-187.6427 619.5927,-189.1787 622.8386,-195.3807"/>
</g>
<!-- Node31 -->
<g id="node32" class="node">
<title>Node31</title>
<g id="a_node32"><a xlink:href="Meta_8hxx.html" target="_top" xlink:title="Meta.hxx">
<polygon fill="none" stroke="#000000" points="782.5,-168.5 782.5,-187.5 844.5,-187.5 844.5,-168.5 782.5,-168.5"/>
<text text-anchor="middle" x="813.5" y="-175.5" font-family="Helvetica,sans-Serif" font-size="10.00" fill="#000000">Meta.hxx</text>
</a>
</g>
</g>
<!-- Node21&#45;&gt;Node31 -->
<g id="edge44" class="edge">
<title>Node21&#45;&gt;Node31</title>
<path fill="none" stroke="#191970" d="M570.756,-228.5887C612.881,-220.7072 693.2883,-205.3292 772.0933,-188.0135"/>
<polygon fill="#191970" stroke="#191970" points="773.1837,-191.3571 782.1928,-185.7815 771.6731,-184.522 773.1837,-191.3571"/>
</g>
<!-- Node35 -->
<g id="node36" class="node">
<title>Node35</title>
<g id="a_node36"><a xlink:href="filesystem_8hxx.html" target="_top" xlink:title="filesystem.hxx">
<polygon fill="none" stroke="#000000" points="163,-168.5 163,-187.5 252,-187.5 252,-168.5 163,-168.5"/>
<text text-anchor="middle" x="207.5" y="-175.5" font-family="Helvetica,sans-Serif" font-size="10.00" fill="#000000">filesystem.hxx</text>
</a>
</g>
</g>
<!-- Node21&#45;&gt;Node35 -->
<g id="edge49" class="edge">
<title>Node21&#45;&gt;Node35</title>
<path fill="none" stroke="#191970" d="M512.1931,-229.1191C461.9191,-220.7414 356.002,-203.0705 266.5,-188 265.2034,-187.7817 263.8908,-187.5605 262.5669,-187.3373"/>
<polygon fill="#191970" stroke="#191970" points="262.7193,-183.8135 252.2761,-185.5996 261.5538,-190.7158 262.7193,-183.8135"/>
</g>
<!-- Node37 -->
<g id="node38" class="node">
<title>Node37</title>
<g id="a_node38"><a xlink:href="LOG_8inl_8hxx.html" target="_top" xlink:title="LOG.inl.hxx">
<polygon fill="none" stroke="#000000" points="691,-168.5 691,-187.5 764,-187.5 764,-168.5 691,-168.5"/>
<text text-anchor="middle" x="727.5" y="-175.5" font-family="Helvetica,sans-Serif" font-size="10.00" fill="#000000">LOG.inl.hxx</text>
</a>
</g>
</g>
<!-- Node21&#45;&gt;Node37 -->
<g id="edge51" class="edge">
<title>Node21&#45;&gt;Node37</title>
<path fill="none" stroke="#191970" d="M570.5625,-225.25C601.5293,-215.9267 650.827,-201.0843 685.9023,-190.5241"/>
<polygon fill="#191970" stroke="#191970" points="687.2759,-193.7657 695.8423,-187.5314 685.2578,-187.0629 687.2759,-193.7657"/>
</g>
<!-- Node23 -->
<g id="node24" class="node">
<title>Node23</title>
<polygon fill="none" stroke="#bfbfbf" points="0,-112.5 0,-131.5 65,-131.5 65,-112.5 0,-112.5"/>
<text text-anchor="middle" x="32.5" y="-119.5" font-family="Helvetica,sans-Serif" font-size="10.00" fill="#000000">stdexcept</text>
</g>
<!-- Node22&#45;&gt;Node23 -->
<g id="edge34" class="edge">
<title>Node22&#45;&gt;Node23</title>
<path fill="none" stroke="#191970" d="M89.4811,-168.2455C79.2902,-159.9746 64.4638,-147.9416 52.4893,-138.2232"/>
<polygon fill="#191970" stroke="#191970" points="54.3514,-135.2268 44.3812,-131.6427 49.9402,-140.662 54.3514,-135.2268"/>
</g>
<!-- Node24 -->
<g id="node25" class="node">
<title>Node24</title>
<polygon fill="none" stroke="#bfbfbf" points="83,-112.5 83,-131.5 148,-131.5 148,-112.5 83,-112.5"/>
<text text-anchor="middle" x="115.5" y="-119.5" font-family="Helvetica,sans-Serif" font-size="10.00" fill="#000000">exception</text>
</g>
<!-- Node22&#45;&gt;Node24 -->
<g id="edge35" class="edge">
<title>Node22&#45;&gt;Node24</title>
<path fill="none" stroke="#191970" d="M103.9386,-168.2455C105.7855,-160.8579 108.3828,-150.4689 110.6478,-141.4087"/>
<polygon fill="#191970" stroke="#191970" points="114.0594,-142.193 113.0893,-131.6427 107.2684,-140.4952 114.0594,-142.193"/>
</g>
<!-- Node31&#45;&gt;Node25 -->
<g id="edge45" class="edge">
<title>Node31&#45;&gt;Node25</title>
<path fill="none" stroke="#191970" d="M782.2243,-170.0679C778.9496,-169.3284 775.6628,-168.6237 772.5,-168 678.6329,-149.4892 567.1842,-134.3494 508.7879,-126.9344"/>
<polygon fill="#191970" stroke="#191970" points="509.2175,-123.4609 498.8583,-125.6833 508.3423,-130.406 509.2175,-123.4609"/>
</g>
<!-- Node32 -->
<g id="node33" class="node">
<title>Node32</title>
<polygon fill="none" stroke="#bfbfbf" points="647,-112.5 647,-131.5 716,-131.5 716,-112.5 647,-112.5"/>
<text text-anchor="middle" x="681.5" y="-119.5" font-family="Helvetica,sans-Serif" font-size="10.00" fill="#000000">type_traits</text>
</g>
<!-- Node31&#45;&gt;Node32 -->
<g id="edge46" class="edge">
<title>Node31&#45;&gt;Node32</title>
<path fill="none" stroke="#191970" d="M790.8084,-168.3733C769.4289,-159.3032 737.1943,-145.6279 713.2638,-135.4755"/>
<polygon fill="#191970" stroke="#191970" points="714.4683,-132.1846 703.8955,-131.5011 711.7344,-138.6287 714.4683,-132.1846"/>
</g>
<!-- Node33 -->
<g id="node34" class="node">
<title>Node33</title>
<polygon fill="none" stroke="#bfbfbf" points="734,-112.5 734,-131.5 785,-131.5 785,-112.5 734,-112.5"/>
<text text-anchor="middle" x="759.5" y="-119.5" font-family="Helvetica,sans-Serif" font-size="10.00" fill="#000000">variant</text>
</g>
<!-- Node31&#45;&gt;Node33 -->
<g id="edge47" class="edge">
<title>Node31&#45;&gt;Node33</title>
<path fill="none" stroke="#191970" d="M804.0939,-168.2455C796.3507,-160.2155 785.188,-148.6394 775.9682,-139.0781"/>
<polygon fill="#191970" stroke="#191970" points="778.2591,-136.4117 768.7983,-131.6427 773.2202,-141.2706 778.2591,-136.4117"/>
</g>
<!-- Node34 -->
<g id="node35" class="node">
<title>Node34</title>
<polygon fill="none" stroke="#bfbfbf" points="803,-112.5 803,-131.5 844,-131.5 844,-112.5 803,-112.5"/>
<text text-anchor="middle" x="823.5" y="-119.5" font-family="Helvetica,sans-Serif" font-size="10.00" fill="#000000">tuple</text>
</g>
<!-- Node31&#45;&gt;Node34 -->
<g id="edge48" class="edge">
<title>Node31&#45;&gt;Node34</title>
<path fill="none" stroke="#191970" d="M815.2419,-168.2455C816.5467,-160.9382 818.376,-150.6944 819.9813,-141.7046"/>
<polygon fill="#191970" stroke="#191970" points="823.4656,-142.1022 821.7781,-131.6427 816.5746,-140.8717 823.4656,-142.1022"/>
</g>
<!-- Node36 -->
<g id="node37" class="node">
<title>Node36</title>
<polygon fill="none" stroke="#bfbfbf" points="180.5,-112.5 180.5,-131.5 234.5,-131.5 234.5,-112.5 180.5,-112.5"/>
<text text-anchor="middle" x="207.5" y="-119.5" font-family="Helvetica,sans-Serif" font-size="10.00" fill="#000000">ciso646</text>
</g>
<!-- Node35&#45;&gt;Node36 -->
<g id="edge50" class="edge">
<title>Node35&#45;&gt;Node36</title>
<path fill="none" stroke="#191970" d="M207.5,-168.2455C207.5,-160.9382 207.5,-150.6944 207.5,-141.7046"/>
<polygon fill="#191970" stroke="#191970" points="211.0001,-141.6426 207.5,-131.6427 204.0001,-141.6427 211.0001,-141.6426"/>
</g>
<!-- Node38&#45;&gt;Node1 -->
<g id="edge57" class="edge">
<title>Node38&#45;&gt;Node1</title>
<path fill="none" stroke="#191970" d="M1624.1716,-336.2455C1610.6697,-327.6534 1590.7878,-315.0014 1575.2314,-305.1018"/>
<polygon fill="#191970" stroke="#191970" points="1576.9685,-302.0587 1566.6528,-299.6427 1573.2103,-307.9643 1576.9685,-302.0587"/>
</g>
<!-- Node38&#45;&gt;Node2 -->
<g id="edge56" class="edge">
<title>Node38&#45;&gt;Node2</title>
<path fill="none" stroke="#191970" d="M1638.951,-336.3431C1637.6796,-322.3753 1633.4653,-296.4141 1619.5,-280 1606.6853,-264.9383 1587.7751,-254.3688 1570.2691,-247.1942"/>
<polygon fill="#191970" stroke="#191970" points="1571.3263,-243.8514 1560.7357,-243.5507 1568.8272,-250.3901 1571.3263,-243.8514"/>
</g>
<!-- Node38&#45;&gt;Node9 -->
<g id="edge55" class="edge">
<title>Node38&#45;&gt;Node9</title>
<path fill="none" stroke="#191970" d="M1640.6486,-336.4013C1643.5289,-311.7886 1651.0062,-244.3979 1653.5,-188 1653.8927,-179.1198 1653.5966,-176.8884 1653.5,-168 1653.4057,-159.3235 1653.2114,-149.7282 1653.0189,-141.5559"/>
<polygon fill="#191970" stroke="#191970" points="1656.5168,-141.4229 1652.7671,-131.5138 1649.519,-141.5984 1656.5168,-141.4229"/>
</g>
<!-- Node38&#45;&gt;Node16 -->
<g id="edge54" class="edge">
<title>Node38&#45;&gt;Node16</title>
<path fill="none" stroke="#191970" d="M1647.4063,-336.375C1675.7162,-301.9107 1772.2958,-184.3356 1809.0978,-139.5331"/>
<polygon fill="#191970" stroke="#191970" points="1811.9803,-141.538 1815.6232,-131.5891 1806.5712,-137.0948 1811.9803,-141.538"/>
</g>
<!-- Node39 -->
<g id="node40" class="node">
<title>Node39</title>
<g id="a_node40"><a xlink:href="Settings_8hxx.html" target="_top" xlink:title="Settings.hxx">
<polygon fill="none" stroke="#000000" points="872,-224.5 872,-243.5 949,-243.5 949,-224.5 872,-224.5"/>
<text text-anchor="middle" x="910.5" y="-231.5" font-family="Helvetica,sans-Serif" font-size="10.00" fill="#000000">Settings.hxx</text>
</a>
</g>
</g>
<!-- Node38&#45;&gt;Node39 -->
<g id="edge58" class="edge">
<title>Node38&#45;&gt;Node39</title>
<path fill="none" stroke="#191970" d="M1579.8429,-336.8346C1439.1315,-315.2164 1088.6667,-261.3727 959.3992,-241.5126"/>
<polygon fill="#191970" stroke="#191970" points="959.8078,-238.0344 949.3923,-239.9752 958.7448,-244.9532 959.8078,-238.0344"/>
</g>
<!-- Node39&#45;&gt;Node5 -->
<g id="edge59" class="edge">
<title>Node39&#45;&gt;Node5</title>
<path fill="none" stroke="#191970" d="M907.713,-224.4802C902.0596,-203.9004 890.287,-153.753 896.5,-112 897.8327,-103.0439 900.5494,-93.419 903.2381,-85.3"/>
<polygon fill="#191970" stroke="#191970" points="906.6067,-86.272 906.6376,-75.6772 900.0064,-83.9402 906.6067,-86.272"/>
</g>
<!-- Node39&#45;&gt;Node17 -->
<g id="edge60" class="edge">
<title>Node39&#45;&gt;Node17</title>
<path fill="none" stroke="#191970" d="M910.9302,-224.3905C912.0243,-210.4818 915.8875,-184.5935 929.5,-168 941.5804,-153.2742 959.6111,-142.7295 976.291,-135.4835"/>
<polygon fill="#191970" stroke="#191970" points="977.9457,-138.5896 985.9005,-131.5917 975.318,-132.1015 977.9457,-138.5896"/>
</g>
<!-- Node39&#45;&gt;Node31 -->
<g id="edge61" class="edge">
<title>Node39&#45;&gt;Node31</title>
<path fill="none" stroke="#191970" d="M893.6039,-224.2455C878.582,-215.5731 856.3957,-202.7645 839.179,-192.825"/>
<polygon fill="#191970" stroke="#191970" points="840.6128,-189.6114 830.2025,-187.6427 837.1129,-195.6737 840.6128,-189.6114"/>
</g>
<!-- Node40 -->
<g id="node41" class="node">
<title>Node40</title>
<polygon fill="none" stroke="#bfbfbf" points="939,-168.5 939,-187.5 992,-187.5 992,-168.5 939,-168.5"/>
<text text-anchor="middle" x="965.5" y="-175.5" font-family="Helvetica,sans-Serif" font-size="10.00" fill="#000000">cstddef</text>
</g>
<!-- Node39&#45;&gt;Node40 -->
<g id="edge62" class="edge">
<title>Node39&#45;&gt;Node40</title>
<path fill="none" stroke="#191970" d="M920.0803,-224.2455C928.0458,-216.1352 939.5641,-204.4075 949.0079,-194.7919"/>
<polygon fill="#191970" stroke="#191970" points="951.5195,-197.2297 956.0295,-187.6427 946.5253,-192.3247 951.5195,-197.2297"/>
</g>
</g>
</svg>
        <g id="navigator" transform="translate(0 0)" fill="#404254">
                <rect fill="#f2f5e9" fill-opacity="0.5" stroke="#606060" stroke-width=".5" x="0" y="0" width="60" height="60"/>
                <use id="zoomplus" xlink:href="#zoomPlus" x="17" y="9" onmousedown="handleZoom(evt,'in')"/>
                <use id="zoomminus" xlink:href="#zoomMin" x="42" y="9" onmousedown="handleZoom(evt,'out')"/>
                <use id="reset" xlink:href="#resetDef" x="30" y="36" onmousedown="handleReset()"/>
                <g id="arrowUp" xlink:href="#dirArrow" transform="translate(30 24)" onmousedown="handlePan(0,-1)">
                  <use xlink:href="#rim" fill="#404040">
                        <set attributeName="fill" to="#808080" begin="arrowUp.mouseover" end="arrowUp.mouseout"/>
                  </use>
                  <path fill="none" stroke="white" stroke-width="1.5" d="M0,-3.0v7 M-2.5,-0.5L0,-3.0L2.5,-0.5"/>
                </g>
                <g id="arrowRight" xlink:href="#dirArrow" transform="rotate(90) translate(36 -43)" onmousedown="handlePan(1,0)">
                  <use xlink:href="#rim" fill="#404040">
                        <set attributeName="fill" to="#808080" begin="arrowRight.mouseover" end="arrowRight.mouseout"/>
                  </use>
                  <path fill="none" stroke="white" stroke-width="1.5" d="M0,-3.0v7 M-2.5,-0.5L0,-3.0L2.5,-0.5"/>
                </g>
                <g id="arrowDown" xlink:href="#dirArrow" transform="rotate(180) translate(-30 -48)" onmousedown="handlePan(0,1)">
                  <use xlink:href="#rim" fill="#404040">
                        <set attributeName="fill" to="#808080" begin="arrowDown.mouseover" end="arrowDown.mouseout"/>
                  </use>
                  <path fill="none" stroke="white" stroke-width="1.5" d="M0,-3.0v7 M-2.5,-0.5L0,-3.0L2.5,-0.5"/>
                </g>
                <g id="arrowLeft" xlink:href="#dirArrow" transform="rotate(270) translate(-36 17)" onmousedown="handlePan(-1,0)">
                  <use xlink:href="#rim" fill="#404040">
                        <set attributeName="fill" to="#808080" begin="arrowLeft.mouseover" end="arrowLeft.mouseout"/>
                  </use>
                  <path fill="none" stroke="white" stroke-width="1.5" d="M0,-3.0v7 M-2.5,-0.5L0,-3.0L2.5,-0.5"/>
                </g>
        </g>
        <svg viewBox="0 0 15 15" width="100%" height="30px" preserveAspectRatio="xMaxYMin meet">
         <g id="arrow_out" transform="scale(0.3 0.3)">
          <a xlink:href="TerrainGenerator_8cxx__incl_org.svg" target="_base">
           <rect id="button" ry="5" rx="5" y="6" x="6" height="38" width="38"
                fill="#f2f5e9" fill-opacity="0.5" stroke="#606060" stroke-width="1.0"/>
           <path id="arrow"
             d="M 11.500037,31.436501 C 11.940474,20.09759 22.043105,11.32322 32.158766,21.979434 L 37.068811,17.246167 C 37.068811,17.246167 37.088388,32 37.088388,32 L 22.160133,31.978069 C 22.160133,31.978069 26.997745,27.140456 26.997745,27.140456 C 18.528582,18.264221 13.291696,25.230495 11.500037,31.436501 z"
             style="fill:#404040;"/>
          </a>
         </g>
        </svg>
</svg>
