<?xml version="1.0" encoding="UTF-8" standalone="no"?>
<!DOCTYPE svg PUBLIC "-//W3C//DTD SVG 1.1//EN"
 "http://www.w3.org/Graphics/SVG/1.1/DTD/svg11.dtd">
<!-- Generated by graphviz version 2.40.1 (20161225.0304)
 -->
<!-- Title: src/engine/map/TerrainGenerator.hxx Pages: 1 -->
<svg width="858pt" height="308pt"
 viewBox="0.00 0.00 858.12 308.00" xmlns="http://www.w3.org/2000/svg" xmlns:xlink="http://www.w3.org/1999/xlink">
<g id="graph0" class="graph" transform="scale(1 1) rotate(0) translate(4 304)">
<title>src/engine/map/TerrainGenerator.hxx</title>
<!-- Node0 -->
<g id="node1" class="node">
<title>Node0</title>
<polygon fill="#bfbfbf" stroke="#000000" points="137.616,-280.5 137.616,-299.5 334.616,-299.5 334.616,-280.5 137.616,-280.5"/>
<text text-anchor="middle" x="236.116" y="-287.5" font-family="Helvetica,sans-Serif" font-size="10.00" fill="#000000">src/engine/map/TerrainGenerator.hxx</text>
</g>
<!-- Node1 -->
<g id="node2" class="node">
<title>Node1</title>
<g id="a_node2"><a xlink:href="MapNode_8hxx.html" target="_top" xlink:title="../GameObjects/MapNode.hxx">
<polygon fill="none" stroke="#000000" points="155.616,-224.5 155.616,-243.5 316.616,-243.5 316.616,-224.5 155.616,-224.5"/>
<text text-anchor="middle" x="236.116" y="-231.5" font-family="Helvetica,sans-Serif" font-size="10.00" fill="#000000">../GameObjects/MapNode.hxx</text>
</a>
</g>
</g>
<!-- Node0&#45;&gt;Node1 -->
<g id="edge1" class="edge">
<title>Node0&#45;&gt;Node1</title>
<path fill="none" stroke="#191970" d="M236.116,-280.2455C236.116,-272.9382 236.116,-262.6944 236.116,-253.7046"/>
<polygon fill="#191970" stroke="#191970" points="239.6161,-253.6426 236.116,-243.6427 232.6161,-253.6427 239.6161,-253.6426"/>
</g>
<!-- Node6 -->
<g id="node7" class="node">
<title>Node6</title>
<polygon fill="none" stroke="#bfbfbf" points="48.616,-56.5 48.616,-75.5 95.616,-75.5 95.616,-56.5 48.616,-56.5"/>
<text text-anchor="middle" x="72.116" y="-63.5" font-family="Helvetica,sans-Serif" font-size="10.00" fill="#000000">vector</text>
</g>
<!-- Node0&#45;&gt;Node6 -->
<g id="edge28" class="edge">
<title>Node0&#45;&gt;Node6</title>
<path fill="none" stroke="#191970" d="M199.2522,-280.4778C153.8252,-266.9926 76.9236,-238.2068 30.116,-188 6.0508,-162.1872 -9.101,-143.3439 7.116,-112 14.1706,-98.365 27.3355,-87.9036 39.9823,-80.4282"/>
<polygon fill="#191970" stroke="#191970" points="41.8997,-83.3692 49.0048,-75.5099 38.5494,-77.2231 41.8997,-83.3692"/>
</g>
<!-- Node18 -->
<g id="node19" class="node">
<title>Node18</title>
<polygon fill="none" stroke="#bfbfbf" points="335.116,-224.5 335.116,-243.5 373.116,-243.5 373.116,-224.5 335.116,-224.5"/>
<text text-anchor="middle" x="354.116" y="-231.5" font-family="Helvetica,sans-Serif" font-size="10.00" fill="#000000">map</text>
</g>
<!-- Node0&#45;&gt;Node18 -->
<g id="edge27" class="edge">
<title>Node0&#45;&gt;Node18</title>
<path fill="none" stroke="#191970" d="M256.4009,-280.3733C275.4866,-271.3156 304.2495,-257.6655 325.6329,-247.5174"/>
<polygon fill="#191970" stroke="#191970" points="327.3435,-250.5798 334.8771,-243.1303 324.3422,-244.2558 327.3435,-250.5798"/>
</g>
<!-- Node2 -->
<g id="node3" class="node">
<title>Node2</title>
<polygon fill="none" stroke="#bfbfbf" points="214.116,-112.5 214.116,-131.5 258.116,-131.5 258.116,-112.5 214.116,-112.5"/>
<text text-anchor="middle" x="236.116" y="-119.5" font-family="Helvetica,sans-Serif" font-size="10.00" fill="#000000">SDL.h</text>
</g>
<!-- Node1&#45;&gt;Node2 -->
<g id="edge2" class="edge">
<title>Node1&#45;&gt;Node2</title>
<path fill="none" stroke="#191970" d="M240.4283,-224.2282C245.5701,-211.4048 253.1158,-188.1591 250.116,-168 248.7833,-159.0439 246.0665,-149.419 243.3779,-141.3"/>
<polygon fill="#191970" stroke="#191970" points="246.6096,-139.9402 239.9784,-131.6772 240.0093,-142.272 246.6096,-139.9402"/>
</g>
<!-- Node3 -->
<g id="node4" class="node">
<title>Node3</title>
<polygon fill="none" stroke="#bfbfbf" points="465.116,-168.5 465.116,-187.5 523.116,-187.5 523.116,-168.5 465.116,-168.5"/>
<text text-anchor="middle" x="494.116" y="-175.5" font-family="Helvetica,sans-Serif" font-size="10.00" fill="#000000">memory</text>
</g>
<!-- Node1&#45;&gt;Node3 -->
<g id="edge3" class="edge">
<title>Node1&#45;&gt;Node3</title>
<path fill="none" stroke="#191970" d="M285.2072,-224.4839C327.7153,-216.0751 391.071,-203.1402 455.2246,-188.1255"/>
<polygon fill="#191970" stroke="#191970" points="456.1772,-191.497 465.1082,-185.7971 454.572,-184.6835 456.1772,-191.497"/>
</g>
<!-- Node4 -->
<g id="node5" class="node">
<title>Node4</title>
<polygon fill="none" stroke="#bfbfbf" points="806.116,-56.5 806.116,-75.5 850.116,-75.5 850.116,-56.5 806.116,-56.5"/>
<text text-anchor="middle" x="828.116" y="-63.5" font-family="Helvetica,sans-Serif" font-size="10.00" fill="#000000">string</text>
</g>
<!-- Node1&#45;&gt;Node4 -->
<g id="edge4" class="edge">
<title>Node1&#45;&gt;Node4</title>
<path fill="none" stroke="#191970" d="M317.0687,-225.0026C320.1232,-224.664 323.1471,-224.3289 326.116,-224 470.9995,-207.9512 510.0304,-220.5648 652.116,-188 724.7356,-171.3562 759.4295,-186.6031 810.116,-132 821.5924,-119.6368 825.875,-100.6763 827.4136,-86.2446"/>
<polygon fill="#191970" stroke="#191970" points="830.9341,-86.0751 828.1442,-75.8542 823.9513,-85.584 830.9341,-86.0751"/>
</g>
<!-- Node5 -->
<g id="node6" class="node">
<title>Node5</title>
<polygon fill="none" stroke="#bfbfbf" points="83.116,-168.5 83.116,-187.5 147.116,-187.5 147.116,-168.5 83.116,-168.5"/>
<text text-anchor="middle" x="115.116" y="-175.5" font-family="Helvetica,sans-Serif" font-size="10.00" fill="#000000">algorithm</text>
</g>
<!-- Node1&#45;&gt;Node5 -->
<g id="edge5" class="edge">
<title>Node1&#45;&gt;Node5</title>
<path fill="none" stroke="#191970" d="M215.3153,-224.3733C195.8917,-215.3838 166.6936,-201.8706 144.8195,-191.7471"/>
<polygon fill="#191970" stroke="#191970" points="146.1905,-188.5249 135.6452,-187.5011 143.2504,-194.8776 146.1905,-188.5249"/>
</g>
<!-- Node1&#45;&gt;Node6 -->
<g id="edge6" class="edge">
<title>Node1&#45;&gt;Node6</title>
<path fill="none" stroke="#191970" d="M162.315,-224.4662C130.043,-217.8373 92.8512,-206.685 63.116,-188 29.2895,-166.7441 -2.1133,-148.0444 15.116,-112 21.2608,-99.1449 32.9459,-88.7306 44.1444,-81.0832"/>
<polygon fill="#191970" stroke="#191970" points="46.3201,-83.8488 52.906,-75.5495 42.5821,-77.9304 46.3201,-83.8488"/>
</g>
<!-- Node7 -->
<g id="node8" class="node">
<title>Node7</title>
<g id="a_node8"><a xlink:href="Sprite_8hxx.html" target="_top" xlink:title="../Sprite.hxx">
<polygon fill="none" stroke="#000000" points="165.616,-168.5 165.616,-187.5 240.616,-187.5 240.616,-168.5 165.616,-168.5"/>
<text text-anchor="middle" x="203.116" y="-175.5" font-family="Helvetica,sans-Serif" font-size="10.00" fill="#000000">../Sprite.hxx</text>
</a>
</g>
</g>
<!-- Node1&#45;&gt;Node7 -->
<g id="edge7" class="edge">
<title>Node1&#45;&gt;Node7</title>
<path fill="none" stroke="#191970" d="M230.3678,-224.2455C225.8725,-216.617 219.4911,-205.7881 214.0335,-196.5267"/>
<polygon fill="#191970" stroke="#191970" points="216.8906,-194.4811 208.7983,-187.6427 210.8599,-198.035 216.8906,-194.4811"/>
</g>
<!-- Node8 -->
<g id="node9" class="node">
<title>Node8</title>
<g id="a_node9"><a xlink:href="point_8hxx.html" target="_top" xlink:title="basics/point.hxx">
<polygon fill="none" stroke="#000000" points="24.116,-112.5 24.116,-131.5 120.116,-131.5 120.116,-112.5 24.116,-112.5"/>
<text text-anchor="middle" x="72.116" y="-119.5" font-family="Helvetica,sans-Serif" font-size="10.00" fill="#000000">basics/point.hxx</text>
</a>
</g>
</g>
<!-- Node1&#45;&gt;Node8 -->
<g id="edge15" class="edge">
<title>Node1&#45;&gt;Node8</title>
<path fill="none" stroke="#191970" d="M175.9451,-224.4974C135.3273,-216.7333 86.8794,-204.3706 74.116,-188 64.0058,-175.0324 64.5972,-155.8764 67.072,-141.5378"/>
<polygon fill="#191970" stroke="#191970" points="70.5082,-142.2062 69.1855,-131.6942 63.6642,-140.7366 70.5082,-142.2062"/>
</g>
<!-- Node9 -->
<g id="node10" class="node">
<title>Node9</title>
<g id="a_node10"><a xlink:href="enums_8hxx.html" target="_top" xlink:title="common/enums.hxx">
<polygon fill="none" stroke="#000000" points="672.116,-56.5 672.116,-75.5 788.116,-75.5 788.116,-56.5 672.116,-56.5"/>
<text text-anchor="middle" x="730.116" y="-63.5" font-family="Helvetica,sans-Serif" font-size="10.00" fill="#000000">common/enums.hxx</text>
</a>
</g>
</g>
<!-- Node1&#45;&gt;Node9 -->
<g id="edge14" class="edge">
<title>Node1&#45;&gt;Node9</title>
<path fill="none" stroke="#191970" d="M316.8662,-225.0542C464.2082,-207.9038 764.3304,-168.8247 794.116,-132 809.4459,-113.0472 783.7058,-93.2179 760.4433,-80.3035"/>
<polygon fill="#191970" stroke="#191970" points="761.8908,-77.1101 751.4123,-75.5444 758.6273,-83.3029 761.8908,-77.1101"/>
</g>
<!-- Node12 -->
<g id="node13" class="node">
<title>Node12</title>
<g id="a_node13"><a xlink:href="TileManager_8hxx.html" target="_top" xlink:title="../TileManager.hxx">
<polygon fill="none" stroke="#000000" points="341.116,-168.5 341.116,-187.5 447.116,-187.5 447.116,-168.5 341.116,-168.5"/>
<text text-anchor="middle" x="394.116" y="-175.5" font-family="Helvetica,sans-Serif" font-size="10.00" fill="#000000">../TileManager.hxx</text>
</a>
</g>
</g>
<!-- Node1&#45;&gt;Node12 -->
<g id="edge16" class="edge">
<title>Node1&#45;&gt;Node12</title>
<path fill="none" stroke="#191970" d="M263.2772,-224.3733C289.3227,-215.1419 328.8276,-201.1402 357.6138,-190.9375"/>
<polygon fill="#191970" stroke="#191970" points="359.053,-194.1408 367.3093,-187.5011 356.7145,-187.5429 359.053,-194.1408"/>
</g>
<!-- Node7&#45;&gt;Node2 -->
<g id="edge8" class="edge">
<title>Node7&#45;&gt;Node2</title>
<path fill="none" stroke="#191970" d="M208.8642,-168.2455C213.3595,-160.617 219.7408,-149.7881 225.1984,-140.5267"/>
<polygon fill="#191970" stroke="#191970" points="228.3721,-142.035 230.4337,-131.6427 222.3413,-138.4811 228.3721,-142.035"/>
</g>
<!-- Node7&#45;&gt;Node6 -->
<g id="edge9" class="edge">
<title>Node7&#45;&gt;Node6</title>
<path fill="none" stroke="#191970" d="M192.7209,-168.4355C178.5309,-155.4472 152.2174,-131.6031 129.116,-112 117.1809,-101.8723 103.5449,-90.8488 92.6031,-82.1325"/>
<polygon fill="#191970" stroke="#191970" points="94.4996,-79.1695 84.4896,-75.698 90.15,-84.6541 94.4996,-79.1695"/>
</g>
<!-- Node7&#45;&gt;Node8 -->
<g id="edge10" class="edge">
<title>Node7&#45;&gt;Node8</title>
<path fill="none" stroke="#191970" d="M180.5963,-168.3733C159.3788,-159.3032 127.3884,-145.6279 103.6391,-135.4755"/>
<polygon fill="#191970" stroke="#191970" points="104.9127,-132.2136 94.3418,-131.5011 102.1611,-138.6502 104.9127,-132.2136"/>
</g>
<!-- Node7&#45;&gt;Node9 -->
<g id="edge11" class="edge">
<title>Node7&#45;&gt;Node9</title>
<path fill="none" stroke="#191970" d="M199.9297,-168.4461C195.8231,-154.1275 190.7903,-127.168 205.116,-112 235.845,-79.4643 526.2597,-69.7917 661.4717,-67.0394"/>
<polygon fill="#191970" stroke="#191970" points="661.7867,-70.534 671.716,-66.8382 661.6491,-63.5354 661.7867,-70.534"/>
</g>
<!-- Node10 -->
<g id="node11" class="node">
<title>Node10</title>
<polygon fill="none" stroke="#bfbfbf" points="654.116,-.5 654.116,-19.5 710.116,-19.5 710.116,-.5 654.116,-.5"/>
<text text-anchor="middle" x="682.116" y="-7.5" font-family="Helvetica,sans-Serif" font-size="10.00" fill="#000000">stddef.h</text>
</g>
<!-- Node9&#45;&gt;Node10 -->
<g id="edge12" class="edge">
<title>Node9&#45;&gt;Node10</title>
<path fill="none" stroke="#191970" d="M721.755,-56.2455C714.941,-48.2958 705.1479,-36.8706 697.0008,-27.3656"/>
<polygon fill="#191970" stroke="#191970" points="699.5465,-24.9575 690.3811,-19.6427 694.2317,-29.513 699.5465,-24.9575"/>
</g>
<!-- Node11 -->
<g id="node12" class="node">
<title>Node11</title>
<polygon fill="none" stroke="#bfbfbf" points="728.116,-.5 728.116,-19.5 828.116,-19.5 828.116,-.5 728.116,-.5"/>
<text text-anchor="middle" x="778.116" y="-7.5" font-family="Helvetica,sans-Serif" font-size="10.00" fill="#000000">betterEnums.hxx</text>
</g>
<!-- Node9&#45;&gt;Node11 -->
<g id="edge13" class="edge">
<title>Node9&#45;&gt;Node11</title>
<path fill="none" stroke="#191970" d="M738.477,-56.2455C745.291,-48.2958 755.0841,-36.8706 763.2312,-27.3656"/>
<polygon fill="#191970" stroke="#191970" points="766.0003,-29.513 769.8508,-19.6427 760.6855,-24.9575 766.0003,-29.513"/>
</g>
<!-- Node12&#45;&gt;Node2 -->
<g id="edge17" class="edge">
<title>Node12&#45;&gt;Node2</title>
<path fill="none" stroke="#191970" d="M366.9548,-168.3733C339.4886,-158.6384 297.0547,-143.5985 268.0072,-133.3032"/>
<polygon fill="#191970" stroke="#191970" points="268.9323,-129.9178 258.3375,-129.876 266.5938,-136.5157 268.9323,-129.9178"/>
</g>
<!-- Node12&#45;&gt;Node4 -->
<g id="edge19" class="edge">
<title>Node12&#45;&gt;Node4</title>
<path fill="none" stroke="#191970" d="M447.1881,-169.2474C450.2062,-168.8097 453.1982,-168.3904 456.116,-168 530.9847,-157.9825 731.7993,-174.6885 794.116,-132 809.8605,-121.2146 818.7661,-100.8274 823.4769,-85.553"/>
<polygon fill="#191970" stroke="#191970" points="826.9518,-86.1132 826.2035,-75.5448 820.1979,-84.2731 826.9518,-86.1132"/>
</g>
<!-- Node13 -->
<g id="node14" class="node">
<title>Node13</title>
<polygon fill="none" stroke="#bfbfbf" points="596.616,-112.5 596.616,-131.5 689.616,-131.5 689.616,-112.5 596.616,-112.5"/>
<text text-anchor="middle" x="643.116" y="-119.5" font-family="Helvetica,sans-Serif" font-size="10.00" fill="#000000">unordered_map</text>
</g>
<!-- Node12&#45;&gt;Node13 -->
<g id="edge18" class="edge">
<title>Node12&#45;&gt;Node13</title>
<path fill="none" stroke="#191970" d="M436.6377,-168.4369C479.2521,-158.8529 544.9336,-144.0812 590.737,-133.78"/>
<polygon fill="#191970" stroke="#191970" points="591.7814,-137.1326 600.7697,-131.5237 590.2454,-130.3032 591.7814,-137.1326"/>
</g>
<!-- Node14 -->
<g id="node15" class="node">
<title>Node14</title>
<g id="a_node15"><a xlink:href="tileData_8hxx.html" target="_top" xlink:title="tileData.hxx">
<polygon fill="none" stroke="#000000" points="707.616,-112.5 707.616,-131.5 784.616,-131.5 784.616,-112.5 707.616,-112.5"/>
<text text-anchor="middle" x="746.116" y="-119.5" font-family="Helvetica,sans-Serif" font-size="10.00" fill="#000000">tileData.hxx</text>
</a>
</g>
</g>
<!-- Node12&#45;&gt;Node14 -->
<g id="edge20" class="edge">
<title>Node12&#45;&gt;Node14</title>
<path fill="none" stroke="#191970" d="M447.2088,-169.3907C450.2216,-168.9165 453.2068,-168.4501 456.116,-168 560.8501,-151.7963 589.9798,-151.3807 697.4739,-132.2196"/>
<polygon fill="#191970" stroke="#191970" points="698.2012,-135.645 707.4251,-130.4325 696.9639,-128.7552 698.2012,-135.645"/>
</g>
<!-- Node15 -->
<g id="node16" class="node">
<title>Node15</title>
<polygon fill="none" stroke="#bfbfbf" points="276.116,-112.5 276.116,-131.5 334.116,-131.5 334.116,-112.5 276.116,-112.5"/>
<text text-anchor="middle" x="305.116" y="-119.5" font-family="Helvetica,sans-Serif" font-size="10.00" fill="#000000">json.hxx</text>
</g>
<!-- Node12&#45;&gt;Node15 -->
<g id="edge24" class="edge">
<title>Node12&#45;&gt;Node15</title>
<path fill="none" stroke="#191970" d="M378.6134,-168.2455C364.958,-159.6534 344.8503,-147.0014 329.1171,-137.1018"/>
<polygon fill="#191970" stroke="#191970" points="330.7689,-134.006 320.441,-131.6427 327.0409,-139.9307 330.7689,-134.006"/>
</g>
<!-- Node16 -->
<g id="node17" class="node">
<title>Node16</title>
<g id="a_node17"><a xlink:href="Singleton_8hxx.html" target="_top" xlink:title="Singleton.hxx">
<polygon fill="none" stroke="#000000" points="352.616,-112.5 352.616,-131.5 435.616,-131.5 435.616,-112.5 352.616,-112.5"/>
<text text-anchor="middle" x="394.116" y="-119.5" font-family="Helvetica,sans-Serif" font-size="10.00" fill="#000000">Singleton.hxx</text>
</a>
</g>
</g>
<!-- Node12&#45;&gt;Node16 -->
<g id="edge25" class="edge">
<title>Node12&#45;&gt;Node16</title>
<path fill="none" stroke="#191970" d="M394.116,-168.2455C394.116,-160.9382 394.116,-150.6944 394.116,-141.7046"/>
<polygon fill="#191970" stroke="#191970" points="397.6161,-141.6426 394.116,-131.6427 390.6161,-141.6427 397.6161,-141.6426"/>
</g>
<!-- Node17 -->
<g id="node18" class="node">
<title>Node17</title>
<polygon fill="none" stroke="#bfbfbf" points="453.616,-112.5 453.616,-131.5 578.616,-131.5 578.616,-112.5 453.616,-112.5"/>
<text text-anchor="middle" x="516.116" y="-119.5" font-family="Helvetica,sans-Serif" font-size="10.00" fill="#000000">../common/enums.hxx</text>
</g>
<!-- Node12&#45;&gt;Node17 -->
<g id="edge26" class="edge">
<title>Node12&#45;&gt;Node17</title>
<path fill="none" stroke="#191970" d="M415.0885,-168.3733C434.6727,-159.3838 464.1121,-145.8706 486.1669,-135.7471"/>
<polygon fill="#191970" stroke="#191970" points="487.7889,-138.8538 495.4171,-131.5011 484.8687,-132.4919 487.7889,-138.8538"/>
</g>
<!-- Node14&#45;&gt;Node4 -->
<g id="edge21" class="edge">
<title>Node14&#45;&gt;Node4</title>
<path fill="none" stroke="#191970" d="M760.3993,-112.2455C772.863,-103.7337 791.1611,-91.2375 805.5952,-81.3801"/>
<polygon fill="#191970" stroke="#191970" points="807.7122,-84.1726 813.9964,-75.6427 803.7645,-78.392 807.7122,-84.1726"/>
</g>
<!-- Node14&#45;&gt;Node6 -->
<g id="edge22" class="edge">
<title>Node14&#45;&gt;Node6</title>
<path fill="none" stroke="#191970" d="M707.462,-113.3391C704.6453,-112.8423 701.8415,-112.3881 699.116,-112 474.1145,-79.9626 200.3218,-69.6094 105.9672,-66.8609"/>
<polygon fill="#191970" stroke="#191970" points="105.9654,-63.3595 95.8707,-66.5762 105.768,-70.3568 105.9654,-63.3595"/>
</g>
<!-- Node14&#45;&gt;Node9 -->
<g id="edge23" class="edge">
<title>Node14&#45;&gt;Node9</title>
<path fill="none" stroke="#191970" d="M743.329,-112.2455C741.2183,-104.8579 738.25,-94.4689 735.6613,-85.4087"/>
<polygon fill="#191970" stroke="#191970" points="738.9837,-84.2964 732.871,-75.6427 732.253,-86.2195 738.9837,-84.2964"/>
</g>
</g>
</svg>
