<?xml version="1.0" encoding="UTF-8" standalone="no"?>
<!DOCTYPE svg PUBLIC "-//W3C//DTD SVG 1.1//EN"
 "http://www.w3.org/Graphics/SVG/1.1/DTD/svg11.dtd">
<!-- Generated by graphviz version 2.40.1 (20161225.0304)
 -->
<!-- Title: src/engine/map/TerrainGenerator.hxx Pages: 1 -->
<!--zoomable 252 -->
<svg id="main" version="1.1" xmlns="http://www.w3.org/2000/svg" xmlns:xlink="http://www.w3.org/1999/xlink" xml:space="preserve" onload="init(evt)">
<style type="text/css"><![CDATA[
.edge:hover path { stroke: red; }
.edge:hover polygon { stroke: red; fill: red; }
]]></style>
<script type="text/javascript"><![CDATA[
var edges = document.getElementsByTagName('g');
if (edges && edges.length) {
  for (var i=0;i<edges.length;i++) {
    if (edges[i].id.substr(0,4)=='edge') {
      edges[i].setAttribute('class','edge');
    }
  }
}
]]></script>
        <defs>
                <circle id="rim" cx="0" cy="0" r="7"/>
                <circle id="rim2" cx="0" cy="0" r="3.5"/>
                <g id="zoomPlus">
                        <use xlink:href="#rim" fill="#404040">
                                <set attributeName="fill" to="#808080" begin="zoomplus.mouseover" end="zoomplus.mouseout"/>
                        </use>
                        <path d="M-4,0h8M0,-4v8" fill="none" stroke="white" stroke-width="1.5" pointer-events="none"/>
                </g>
                <g id="zoomMin">
                        <use xlink:href="#rim" fill="#404040">
                                <set attributeName="fill" to="#808080" begin="zoomminus.mouseover" end="zoomminus.mouseout"/>
                        </use>
                        <path d="M-4,0h8" fill="none" stroke="white" stroke-width="1.5" pointer-events="none"/>
                </g>
                <g id="dirArrow">
                        <path fill="none" stroke="white" stroke-width="1.5" d="M0,-3.0v7 M-2.5,-0.5L0,-3.0L2.5,-0.5"/>
                </g>
               <g id="resetDef">
                       <use xlink:href="#rim2" fill="#404040">
                               <set attributeName="fill" to="#808080" begin="reset.mouseover" end="reset.mouseout"/>
                       </use>
               </g>
        </defs>

<script type="text/javascript">
var viewWidth = 1536;
var viewHeight = 252;
var sectionId = 'dynsection-1';
</script>
<script xlink:href="svgpan.js"/>
<svg id="graph" class="graph">
<g id="viewport">
<title>src/engine/map/TerrainGenerator.hxx</title>
<!-- Node19 -->
<g id="node1" class="node">
<title>Node19</title>
<polygon fill="#bfbfbf" stroke="#000000" points="963,-224.5 963,-243.5 1160,-243.5 1160,-224.5 963,-224.5"/>
<text text-anchor="middle" x="1061.5" y="-231.5" font-family="Helvetica,sans-Serif" font-size="10.00" fill="#000000">src/engine/map/TerrainGenerator.hxx</text>
</g>
<!-- Node20 -->
<g id="node2" class="node">
<title>Node20</title>
<g id="a_node2"><a xlink:href="Map_8hxx.html" target="_top" xlink:title="src/engine/Map.hxx">
<polygon fill="none" stroke="#000000" points="566,-168.5 566,-187.5 677,-187.5 677,-168.5 566,-168.5"/>
<text text-anchor="middle" x="621.5" y="-175.5" font-family="Helvetica,sans-Serif" font-size="10.00" fill="#000000">src/engine/Map.hxx</text>
</a>
</g>
</g>
<!-- Node19&#45;&gt;Node20 -->
<g id="edge1" class="edge">
<title>Node19&#45;&gt;Node20</title>
<path fill="none" stroke="#191970" d="M976.37,-223.1653C888.0825,-211.9287 752.6107,-194.6868 677.1492,-185.0826"/>
<polygon fill="#191970" stroke="#191970" points="975.9993,-226.6462 986.3612,-224.4369 976.8832,-219.7023 975.9993,-226.6462"/>
</g>
<!-- Node31 -->
<g id="node13" class="node">
<title>Node31</title>
<g id="a_node13"><a xlink:href="JsonSerialization_8hxx.html" target="_top" xlink:title="src/engine/common/JsonSerialization.hxx">
<polygon fill="none" stroke="#000000" points="952.5,-168.5 952.5,-187.5 1170.5,-187.5 1170.5,-168.5 952.5,-168.5"/>
<text text-anchor="middle" x="1061.5" y="-175.5" font-family="Helvetica,sans-Serif" font-size="10.00" fill="#000000">src/engine/common/JsonSerialization.hxx</text>
</a>
</g>
</g>
<!-- Node19&#45;&gt;Node31 -->
<g id="edge15" class="edge">
<title>Node19&#45;&gt;Node31</title>
<path fill="none" stroke="#191970" d="M1061.5,-214.1575C1061.5,-205.155 1061.5,-194.9199 1061.5,-187.6427"/>
<polygon fill="#191970" stroke="#191970" points="1058.0001,-214.2455 1061.5,-224.2455 1065.0001,-214.2456 1058.0001,-214.2455"/>
</g>
<!-- Node33 -->
<g id="node15" class="node">
<title>Node33</title>
<g id="a_node15"><a xlink:href="TerrainGenerator_8cxx.html" target="_top" xlink:title="src/engine/map/TerrainGenerator.cxx">
<polygon fill="none" stroke="#000000" points="1331.5,-112.5 1331.5,-131.5 1527.5,-131.5 1527.5,-112.5 1331.5,-112.5"/>
<text text-anchor="middle" x="1429.5" y="-119.5" font-family="Helvetica,sans-Serif" font-size="10.00" fill="#000000">src/engine/map/TerrainGenerator.cxx</text>
</a>
</g>
</g>
<!-- Node19&#45;&gt;Node33 -->
<g id="edge21" class="edge">
<title>Node19&#45;&gt;Node33</title>
<path fill="none" stroke="#191970" d="M1102.8137,-221.4263C1177.1511,-198.8018 1331.8721,-151.7128 1398.2039,-131.5249"/>
<polygon fill="#191970" stroke="#191970" points="1101.4231,-218.1909 1092.8755,-224.4509 1103.4613,-224.8876 1101.4231,-218.1909"/>
</g>
<!-- Node21 -->
<g id="node3" class="node">
<title>Node21</title>
<g id="a_node3"><a xlink:href="Engine_8hxx.html" target="_top" xlink:title="src/engine/Engine.hxx">
<polygon fill="none" stroke="#000000" points="469.5,-112.5 469.5,-131.5 593.5,-131.5 593.5,-112.5 469.5,-112.5"/>
<text text-anchor="middle" x="531.5" y="-119.5" font-family="Helvetica,sans-Serif" font-size="10.00" fill="#000000">src/engine/Engine.hxx</text>
</a>
</g>
</g>
<!-- Node20&#45;&gt;Node21 -->
<g id="edge2" class="edge">
<title>Node20&#45;&gt;Node21</title>
<path fill="none" stroke="#191970" d="M597.0216,-162.769C581.0734,-152.8456 560.749,-140.1994 546.9972,-131.6427"/>
<polygon fill="#191970" stroke="#191970" points="595.4835,-165.9342 605.8232,-168.2455 599.1817,-159.9908 595.4835,-165.9342"/>
</g>
<!-- Node26 -->
<g id="node8" class="node">
<title>Node26</title>
<g id="a_node8"><a xlink:href="EventManager_8cxx.html" target="_top" xlink:title="src/engine/EventManager.cxx">
<polygon fill="none" stroke="#000000" points="0,-.5 0,-19.5 159,-19.5 159,-.5 0,-.5"/>
<text text-anchor="middle" x="79.5" y="-7.5" font-family="Helvetica,sans-Serif" font-size="10.00" fill="#000000">src/engine/EventManager.cxx</text>
</a>
</g>
</g>
<!-- Node20&#45;&gt;Node26 -->
<g id="edge12" class="edge">
<title>Node20&#45;&gt;Node26</title>
<path fill="none" stroke="#191970" d="M555.9112,-172.4583C464.4453,-162.7481 295.1238,-137.4811 164.5,-76 133.7341,-61.5193 103.7517,-34.2698 88.9889,-19.7262"/>
<polygon fill="#191970" stroke="#191970" points="555.5566,-175.9402 565.8633,-173.4858 556.2756,-168.9772 555.5566,-175.9402"/>
</g>
<!-- Node29 -->
<g id="node11" class="node">
<title>Node29</title>
<g id="a_node11"><a xlink:href="UIManager_8cxx.html" target="_top" xlink:title="src/engine/UIManager.cxx">
<polygon fill="none" stroke="#000000" points="891.5,-56.5 891.5,-75.5 1033.5,-75.5 1033.5,-56.5 891.5,-56.5"/>
<text text-anchor="middle" x="962.5" y="-63.5" font-family="Helvetica,sans-Serif" font-size="10.00" fill="#000000">src/engine/UIManager.cxx</text>
</a>
</g>
</g>
<!-- Node20&#45;&gt;Node29 -->
<g id="edge14" class="edge">
<title>Node20&#45;&gt;Node29</title>
<path fill="none" stroke="#191970" d="M621.7622,-157.9472C623.0932,-143.0256 627.4557,-123.3533 640.5,-112 645.2188,-107.8929 797.768,-87.4211 891.175,-75.2147"/>
<polygon fill="#191970" stroke="#191970" points="618.2525,-158.0509 621.2416,-168.2153 625.2435,-158.4053 618.2525,-158.0509"/>
</g>
<!-- Node30 -->
<g id="node12" class="node">
<title>Node30</title>
<g id="a_node12"><a xlink:href="Map_8cxx.html" target="_top" xlink:title="src/engine/Map.cxx">
<polygon fill="none" stroke="#000000" points="649.5,-112.5 649.5,-131.5 759.5,-131.5 759.5,-112.5 649.5,-112.5"/>
<text text-anchor="middle" x="704.5" y="-119.5" font-family="Helvetica,sans-Serif" font-size="10.00" fill="#000000">src/engine/Map.cxx</text>
</a>
</g>
</g>
<!-- Node20&#45;&gt;Node30 -->
<g id="edge13" class="edge">
<title>Node20&#45;&gt;Node30</title>
<path fill="none" stroke="#191970" d="M644.488,-162.49C659.1322,-152.6096 677.6444,-140.1194 690.2082,-131.6427"/>
<polygon fill="#191970" stroke="#191970" points="642.2896,-159.7511 635.9575,-168.2455 646.2047,-165.5539 642.2896,-159.7511"/>
</g>
<!-- Node22 -->
<g id="node4" class="node">
<title>Node22</title>
<g id="a_node4"><a xlink:href="Camera_8cxx.html" target="_top" xlink:title="src/engine/basics/Camera.cxx">
<polygon fill="none" stroke="#000000" points="531.5,-56.5 531.5,-75.5 693.5,-75.5 693.5,-56.5 531.5,-56.5"/>
<text text-anchor="middle" x="612.5" y="-63.5" font-family="Helvetica,sans-Serif" font-size="10.00" fill="#000000">src/engine/basics/Camera.cxx</text>
</a>
</g>
</g>
<!-- Node21&#45;&gt;Node22 -->
<g id="edge3" class="edge">
<title>Node21&#45;&gt;Node22</title>
<path fill="none" stroke="#191970" d="M553.934,-106.49C568.2254,-96.6096 586.2916,-84.1194 598.5526,-75.6427"/>
<polygon fill="#191970" stroke="#191970" points="551.8443,-103.6797 545.6091,-112.2455 555.8251,-109.4376 551.8443,-103.6797"/>
</g>
<!-- Node23 -->
<g id="node5" class="node">
<title>Node23</title>
<g id="a_node5"><a xlink:href="isoMath_8cxx.html" target="_top" xlink:title="src/engine/basics/isoMath.cxx">
<polygon fill="none" stroke="#000000" points="711.5,-56.5 711.5,-75.5 873.5,-75.5 873.5,-56.5 711.5,-56.5"/>
<text text-anchor="middle" x="792.5" y="-63.5" font-family="Helvetica,sans-Serif" font-size="10.00" fill="#000000">src/engine/basics/isoMath.cxx</text>
</a>
</g>
</g>
<!-- Node21&#45;&gt;Node23 -->
<g id="edge4" class="edge">
<title>Node21&#45;&gt;Node23</title>
<path fill="none" stroke="#191970" d="M585.9964,-110.3073C634.0902,-99.9883 703.3238,-85.1336 748.1129,-75.5237"/>
<polygon fill="#191970" stroke="#191970" points="585.1141,-106.9168 576.0709,-112.4369 586.5827,-113.7611 585.1141,-106.9168"/>
</g>
<!-- Node24 -->
<g id="node6" class="node">
<title>Node24</title>
<g id="a_node6"><a xlink:href="EventManager_8hxx.html" target="_top" xlink:title="src/engine/EventManager.hxx">
<polygon fill="none" stroke="#000000" points="173.5,-56.5 173.5,-75.5 333.5,-75.5 333.5,-56.5 173.5,-56.5"/>
<text text-anchor="middle" x="253.5" y="-63.5" font-family="Helvetica,sans-Serif" font-size="10.00" fill="#000000">src/engine/EventManager.hxx</text>
</a>
</g>
</g>
<!-- Node21&#45;&gt;Node24 -->
<g id="edge5" class="edge">
<title>Node21&#45;&gt;Node24</title>
<path fill="none" stroke="#191970" d="M474.0959,-110.4366C422.8453,-100.1127 348.6842,-85.1738 300.7782,-75.5237"/>
<polygon fill="#191970" stroke="#191970" points="473.5317,-113.8932 484.026,-112.4369 474.9141,-107.031 473.5317,-113.8932"/>
</g>
<!-- Node27 -->
<g id="node9" class="node">
<title>Node27</title>
<g id="a_node9"><a xlink:href="Game_8cxx.html" target="_top" xlink:title="src/Game.cxx">
<polygon fill="none" stroke="#000000" points="348,-.5 348,-19.5 431,-19.5 431,-.5 348,-.5"/>
<text text-anchor="middle" x="389.5" y="-7.5" font-family="Helvetica,sans-Serif" font-size="10.00" fill="#000000">src/Game.cxx</text>
</a>
</g>
</g>
<!-- Node21&#45;&gt;Node27 -->
<g id="edge11" class="edge">
<title>Node21&#45;&gt;Node27</title>
<path fill="none" stroke="#191970" d="M467.1828,-110.3226C431.1252,-102.3245 391.2726,-90.5431 380.5,-76 368.1099,-59.2732 377.5928,-33.4391 384.3153,-19.5743"/>
<polygon fill="#191970" stroke="#191970" points="466.7131,-113.8014 477.2249,-112.4773 468.1817,-106.9572 466.7131,-113.8014"/>
</g>
<!-- Node28 -->
<g id="node10" class="node">
<title>Node28</title>
<g id="a_node10"><a xlink:href="Engine_8cxx.html" target="_top" xlink:title="src/engine/Engine.cxx">
<polygon fill="none" stroke="#000000" points="390,-56.5 390,-75.5 513,-75.5 513,-56.5 390,-56.5"/>
<text text-anchor="middle" x="451.5" y="-63.5" font-family="Helvetica,sans-Serif" font-size="10.00" fill="#000000">src/engine/Engine.cxx</text>
</a>
</g>
</g>
<!-- Node21&#45;&gt;Node28 -->
<g id="edge9" class="edge">
<title>Node21&#45;&gt;Node28</title>
<path fill="none" stroke="#191970" d="M509.3429,-106.49C495.228,-96.6096 477.3849,-84.1194 465.2752,-75.6427"/>
<polygon fill="#191970" stroke="#191970" points="507.3656,-109.3782 517.5651,-112.2455 511.3799,-103.6436 507.3656,-109.3782"/>
</g>
<!-- Node21&#45;&gt;Node29 -->
<g id="edge10" class="edge">
<title>Node21&#45;&gt;Node29</title>
<path fill="none" stroke="#191970" d="M603.6817,-112.4989C604.9645,-112.3312 606.2381,-112.1648 607.5,-112 705.9444,-99.1453 819.7645,-84.4212 891.4358,-75.1665"/>
<polygon fill="#191970" stroke="#191970" points="603.1732,-109.0355 593.7122,-113.8041 604.0819,-115.9763 603.1732,-109.0355"/>
</g>
<!-- Node25 -->
<g id="node7" class="node">
<title>Node25</title>
<g id="a_node7"><a xlink:href="Timer_8cxx.html" target="_top" xlink:title="src/engine/basics/Timer.cxx">
<polygon fill="none" stroke="#000000" points="177.5,-.5 177.5,-19.5 329.5,-19.5 329.5,-.5 177.5,-.5"/>
<text text-anchor="middle" x="253.5" y="-7.5" font-family="Helvetica,sans-Serif" font-size="10.00" fill="#000000">src/engine/basics/Timer.cxx</text>
</a>
</g>
</g>
<!-- Node24&#45;&gt;Node25 -->
<g id="edge6" class="edge">
<title>Node24&#45;&gt;Node25</title>
<path fill="none" stroke="#191970" d="M253.5,-46.1575C253.5,-37.155 253.5,-26.9199 253.5,-19.6427"/>
<polygon fill="#191970" stroke="#191970" points="250.0001,-46.2455 253.5,-56.2455 257.0001,-46.2456 250.0001,-46.2455"/>
</g>
<!-- Node24&#45;&gt;Node26 -->
<g id="edge7" class="edge">
<title>Node24&#45;&gt;Node26</title>
<path fill="none" stroke="#191970" d="M213.699,-53.1905C181.821,-42.9309 137.8184,-28.7691 109.0213,-19.5011"/>
<polygon fill="#191970" stroke="#191970" points="212.9969,-56.6413 223.5883,-56.3733 215.1415,-49.9779 212.9969,-56.6413"/>
</g>
<!-- Node24&#45;&gt;Node27 -->
<g id="edge8" class="edge">
<title>Node24&#45;&gt;Node27</title>
<path fill="none" stroke="#191970" d="M286.2399,-52.5189C311.0083,-42.3201 344.405,-28.5685 366.4258,-19.5011"/>
<polygon fill="#191970" stroke="#191970" points="284.7934,-49.3293 276.8792,-56.3733 287.4587,-55.8021 284.7934,-49.3293"/>
</g>
<!-- Node31&#45;&gt;Node30 -->
<g id="edge18" class="edge">
<title>Node31&#45;&gt;Node30</title>
<path fill="none" stroke="#191970" d="M990.3513,-166.8394C922.4695,-156.1913 821.6334,-140.3739 759.6434,-130.6499"/>
<polygon fill="#191970" stroke="#191970" points="990.1135,-170.3448 1000.5351,-168.4369 991.1984,-163.4294 990.1135,-170.3448"/>
</g>
<!-- Node32 -->
<g id="node14" class="node">
<title>Node32</title>
<g id="a_node14"><a xlink:href="Settings_8cxx.html" target="_top" xlink:title="src/engine/basics/Settings.cxx">
<polygon fill="none" stroke="#000000" points="979.5,-112.5 979.5,-131.5 1143.5,-131.5 1143.5,-112.5 979.5,-112.5"/>
<text text-anchor="middle" x="1061.5" y="-119.5" font-family="Helvetica,sans-Serif" font-size="10.00" fill="#000000">src/engine/basics/Settings.cxx</text>
</a>
</g>
</g>
<!-- Node31&#45;&gt;Node32 -->
<g id="edge16" class="edge">
<title>Node31&#45;&gt;Node32</title>
<path fill="none" stroke="#191970" d="M1061.5,-158.1575C1061.5,-149.155 1061.5,-138.9199 1061.5,-131.6427"/>
<polygon fill="#191970" stroke="#191970" points="1058.0001,-158.2455 1061.5,-168.2455 1065.0001,-158.2456 1058.0001,-158.2455"/>
</g>
<!-- Node31&#45;&gt;Node33 -->
<g id="edge17" class="edge">
<title>Node31&#45;&gt;Node33</title>
<path fill="none" stroke="#191970" d="M1134.5396,-166.8853C1202.46,-156.5496 1302.576,-141.3145 1366.9159,-131.5237"/>
<polygon fill="#191970" stroke="#191970" points="1133.7029,-163.4722 1124.3433,-168.4369 1134.7561,-170.3926 1133.7029,-163.4722"/>
</g>
<!-- Node34 -->
<g id="node16" class="node">
<title>Node34</title>
<g id="a_node16"><a xlink:href="AudioMixer_8cxx.html" target="_top" xlink:title="src/services/AudioMixer.cxx">
<polygon fill="none" stroke="#000000" points="1161.5,-112.5 1161.5,-131.5 1313.5,-131.5 1313.5,-112.5 1161.5,-112.5"/>
<text text-anchor="middle" x="1237.5" y="-119.5" font-family="Helvetica,sans-Serif" font-size="10.00" fill="#000000">src/services/AudioMixer.cxx</text>
</a>
</g>
</g>
<!-- Node31&#45;&gt;Node34 -->
<g id="edge19" class="edge">
<title>Node31&#45;&gt;Node34</title>
<path fill="none" stroke="#191970" d="M1101.3404,-165.3235C1133.6173,-155.0536 1178.3852,-140.8093 1207.6393,-131.5011"/>
<polygon fill="#191970" stroke="#191970" points="1100.2235,-162.0059 1091.7555,-168.3733 1102.346,-168.6764 1100.2235,-162.0059"/>
</g>
<!-- Node35 -->
<g id="node17" class="node">
<title>Node35</title>
<g id="a_node17"><a xlink:href="ResourceManager_8cxx.html" target="_top" xlink:title="src/services/ResourceManager.cxx">
<polygon fill="none" stroke="#000000" points="778,-112.5 778,-131.5 961,-131.5 961,-112.5 778,-112.5"/>
<text text-anchor="middle" x="869.5" y="-119.5" font-family="Helvetica,sans-Serif" font-size="10.00" fill="#000000">src/services/ResourceManager.cxx</text>
</a>
</g>
</g>
<!-- Node31&#45;&gt;Node35 -->
<g id="edge20" class="edge">
<title>Node31&#45;&gt;Node35</title>
<path fill="none" stroke="#191970" d="M1018.4923,-165.4561C983.2479,-155.1765 934.1264,-140.8494 902.0753,-131.5011"/>
<polygon fill="#191970" stroke="#191970" points="1017.914,-168.9332 1028.494,-168.3733 1019.874,-162.2132 1017.914,-168.9332"/>
</g>
</g>
</svg>
        <g id="navigator" transform="translate(0 0)" fill="#404254">
                <rect fill="#f2f5e9" fill-opacity="0.5" stroke="#606060" stroke-width=".5" x="0" y="0" width="60" height="60"/>
                <use id="zoomplus" xlink:href="#zoomPlus" x="17" y="9" onmousedown="handleZoom(evt,'in')"/>
                <use id="zoomminus" xlink:href="#zoomMin" x="42" y="9" onmousedown="handleZoom(evt,'out')"/>
                <use id="reset" xlink:href="#resetDef" x="30" y="36" onmousedown="handleReset()"/>
                <g id="arrowUp" xlink:href="#dirArrow" transform="translate(30 24)" onmousedown="handlePan(0,-1)">
                  <use xlink:href="#rim" fill="#404040">
                        <set attributeName="fill" to="#808080" begin="arrowUp.mouseover" end="arrowUp.mouseout"/>
                  </use>
                  <path fill="none" stroke="white" stroke-width="1.5" d="M0,-3.0v7 M-2.5,-0.5L0,-3.0L2.5,-0.5"/>
                </g>
                <g id="arrowRight" xlink:href="#dirArrow" transform="rotate(90) translate(36 -43)" onmousedown="handlePan(1,0)">
                  <use xlink:href="#rim" fill="#404040">
                        <set attributeName="fill" to="#808080" begin="arrowRight.mouseover" end="arrowRight.mouseout"/>
                  </use>
                  <path fill="none" stroke="white" stroke-width="1.5" d="M0,-3.0v7 M-2.5,-0.5L0,-3.0L2.5,-0.5"/>
                </g>
                <g id="arrowDown" xlink:href="#dirArrow" transform="rotate(180) translate(-30 -48)" onmousedown="handlePan(0,1)">
                  <use xlink:href="#rim" fill="#404040">
                        <set attributeName="fill" to="#808080" begin="arrowDown.mouseover" end="arrowDown.mouseout"/>
                  </use>
                  <path fill="none" stroke="white" stroke-width="1.5" d="M0,-3.0v7 M-2.5,-0.5L0,-3.0L2.5,-0.5"/>
                </g>
                <g id="arrowLeft" xlink:href="#dirArrow" transform="rotate(270) translate(-36 17)" onmousedown="handlePan(-1,0)">
                  <use xlink:href="#rim" fill="#404040">
                        <set attributeName="fill" to="#808080" begin="arrowLeft.mouseover" end="arrowLeft.mouseout"/>
                  </use>
                  <path fill="none" stroke="white" stroke-width="1.5" d="M0,-3.0v7 M-2.5,-0.5L0,-3.0L2.5,-0.5"/>
                </g>
        </g>
        <svg viewBox="0 0 15 15" width="100%" height="30px" preserveAspectRatio="xMaxYMin meet">
         <g id="arrow_out" transform="scale(0.3 0.3)">
          <a xlink:href="TerrainGenerator_8hxx__dep__incl_org.svg" target="_base">
           <rect id="button" ry="5" rx="5" y="6" x="6" height="38" width="38"
                fill="#f2f5e9" fill-opacity="0.5" stroke="#606060" stroke-width="1.0"/>
           <path id="arrow"
             d="M 11.500037,31.436501 C 11.940474,20.09759 22.043105,11.32322 32.158766,21.979434 L 37.068811,17.246167 C 37.068811,17.246167 37.088388,32 37.088388,32 L 22.160133,31.978069 C 22.160133,31.978069 26.997745,27.140456 26.997745,27.140456 C 18.528582,18.264221 13.291696,25.230495 11.500037,31.436501 z"
             style="fill:#404040;"/>
          </a>
         </g>
        </svg>
</svg>
