<?xml version="1.0" encoding="UTF-8" standalone="no"?>
<!DOCTYPE svg PUBLIC "-//W3C//DTD SVG 1.1//EN"
 "http://www.w3.org/Graphics/SVG/1.1/DTD/svg11.dtd">
<!-- Generated by graphviz version 2.40.1 (20161225.0304)
 -->
<!-- Title: src/engine/ui/widgets/Text.cxx Pages: 1 -->
<!--zoomable 431 -->
<svg id="main" version="1.1" xmlns="http://www.w3.org/2000/svg" xmlns:xlink="http://www.w3.org/1999/xlink" xml:space="preserve" onload="init(evt)">
<style type="text/css"><![CDATA[
.edge:hover path { stroke: red; }
.edge:hover polygon { stroke: red; fill: red; }
]]></style>
<script type="text/javascript"><![CDATA[
var edges = document.getElementsByTagName('g');
if (edges && edges.length) {
  for (var i=0;i<edges.length;i++) {
    if (edges[i].id.substr(0,4)=='edge') {
      edges[i].setAttribute('class','edge');
    }
  }
}
]]></script>
        <defs>
                <circle id="rim" cx="0" cy="0" r="7"/>
                <circle id="rim2" cx="0" cy="0" r="3.5"/>
                <g id="zoomPlus">
                        <use xlink:href="#rim" fill="#404040">
                                <set attributeName="fill" to="#808080" begin="zoomplus.mouseover" end="zoomplus.mouseout"/>
                        </use>
                        <path d="M-4,0h8M0,-4v8" fill="none" stroke="white" stroke-width="1.5" pointer-events="none"/>
                </g>
                <g id="zoomMin">
                        <use xlink:href="#rim" fill="#404040">
                                <set attributeName="fill" to="#808080" begin="zoomminus.mouseover" end="zoomminus.mouseout"/>
                        </use>
                        <path d="M-4,0h8" fill="none" stroke="white" stroke-width="1.5" pointer-events="none"/>
                </g>
                <g id="dirArrow">
                        <path fill="none" stroke="white" stroke-width="1.5" d="M0,-3.0v7 M-2.5,-0.5L0,-3.0L2.5,-0.5"/>
                </g>
               <g id="resetDef">
                       <use xlink:href="#rim2" fill="#404040">
                               <set attributeName="fill" to="#808080" begin="reset.mouseover" end="reset.mouseout"/>
                       </use>
               </g>
        </defs>

<script type="text/javascript">
var viewWidth = 2050;
var viewHeight = 431;
var sectionId = 'dynsection-0';
</script>
<script xlink:href="svgpan.js"/>
<svg id="graph" class="graph">
<g id="viewport">
<title>src/engine/ui/widgets/Text.cxx</title>
<!-- Node0 -->
<g id="node1" class="node">
<title>Node0</title>
<polygon fill="#bfbfbf" stroke="#000000" points="1737.5,-392.5 1737.5,-422.5 1857.5,-422.5 1857.5,-392.5 1737.5,-392.5"/>
<text text-anchor="start" x="1745.5" y="-410.5" font-family="Helvetica,sans-Serif" font-size="10.00" fill="#000000">src/engine/ui/widgets</text>
<text text-anchor="middle" x="1797.5" y="-399.5" font-family="Helvetica,sans-Serif" font-size="10.00" fill="#000000">/Text.cxx</text>
</g>
<!-- Node1 -->
<g id="node2" class="node">
<title>Node1</title>
<g id="a_node2"><a xlink:href="Text_8hxx.html" target="_top" xlink:title="Text.hxx">
<polygon fill="none" stroke="#000000" points="1051.5,-336.5 1051.5,-355.5 1109.5,-355.5 1109.5,-336.5 1051.5,-336.5"/>
<text text-anchor="middle" x="1080.5" y="-343.5" font-family="Helvetica,sans-Serif" font-size="10.00" fill="#000000">Text.hxx</text>
</a>
</g>
</g>
<!-- Node0&#45;&gt;Node1 -->
<g id="edge1" class="edge">
<title>Node0&#45;&gt;Node1</title>
<path fill="none" stroke="#191970" d="M1737.2949,-402.336C1594.4644,-390.0848 1238.224,-359.5286 1119.6125,-349.3548"/>
<polygon fill="#191970" stroke="#191970" points="1119.7974,-345.8579 1109.5348,-348.4904 1119.1991,-352.8323 1119.7974,-345.8579"/>
</g>
<!-- Node24 -->
<g id="node25" class="node">
<title>Node24</title>
<g id="a_node25"><a xlink:href="LOG_8hxx.html" target="_top" xlink:title="LOG.hxx">
<polygon fill="none" stroke="#000000" points="1371.5,-224.5 1371.5,-243.5 1429.5,-243.5 1429.5,-224.5 1371.5,-224.5"/>
<text text-anchor="middle" x="1400.5" y="-231.5" font-family="Helvetica,sans-Serif" font-size="10.00" fill="#000000">LOG.hxx</text>
</a>
</g>
</g>
<!-- Node0&#45;&gt;Node24 -->
<g id="edge37" class="edge">
<title>Node0&#45;&gt;Node24</title>
<path fill="none" stroke="#191970" d="M1762.9633,-392.4065C1686.75,-359.0992 1505.1357,-279.7287 1431.9069,-247.7257"/>
<polygon fill="#191970" stroke="#191970" points="1432.8804,-244.3315 1422.3156,-243.534 1430.0772,-250.7457 1432.8804,-244.3315"/>
</g>
<!-- Node25 -->
<g id="node26" class="node">
<title>Node25</title>
<g id="a_node26"><a xlink:href="Exception_8hxx.html" target="_top" xlink:title="Exception.hxx">
<polygon fill="none" stroke="#000000" points="1884.5,-168.5 1884.5,-187.5 1970.5,-187.5 1970.5,-168.5 1884.5,-168.5"/>
<text text-anchor="middle" x="1927.5" y="-175.5" font-family="Helvetica,sans-Serif" font-size="10.00" fill="#000000">Exception.hxx</text>
</a>
</g>
</g>
<!-- Node0&#45;&gt;Node25 -->
<g id="edge58" class="edge">
<title>Node0&#45;&gt;Node25</title>
<path fill="none" stroke="#191970" d="M1806.0297,-392.4419C1828.9264,-352.0202 1891.7028,-241.1958 1916.8635,-196.7775"/>
<polygon fill="#191970" stroke="#191970" points="1920.0098,-198.3242 1921.8932,-187.8981 1913.9191,-194.8741 1920.0098,-198.3242"/>
</g>
<!-- Node40 -->
<g id="node41" class="node">
<title>Node40</title>
<g id="a_node41"><a xlink:href="Settings_8hxx.html" target="_top" xlink:title="Settings.hxx">
<polygon fill="none" stroke="#000000" points="1759,-224.5 1759,-243.5 1836,-243.5 1836,-224.5 1759,-224.5"/>
<text text-anchor="middle" x="1797.5" y="-231.5" font-family="Helvetica,sans-Serif" font-size="10.00" fill="#000000">Settings.hxx</text>
</a>
</g>
</g>
<!-- Node0&#45;&gt;Node40 -->
<g id="edge59" class="edge">
<title>Node0&#45;&gt;Node40</title>
<path fill="none" stroke="#191970" d="M1797.5,-392.4065C1797.5,-361.1485 1797.5,-289.3214 1797.5,-254.1492"/>
<polygon fill="#191970" stroke="#191970" points="1801.0001,-253.738 1797.5,-243.738 1794.0001,-253.738 1801.0001,-253.738"/>
</g>
<!-- Node42 -->
<g id="node43" class="node">
<title>Node42</title>
<polygon fill="none" stroke="#bfbfbf" points="1892.5,-336.5 1892.5,-355.5 1952.5,-355.5 1952.5,-336.5 1892.5,-336.5"/>
<text text-anchor="middle" x="1922.5" y="-343.5" font-family="Helvetica,sans-Serif" font-size="10.00" fill="#000000">SDL_ttf.h</text>
</g>
<!-- Node0&#45;&gt;Node42 -->
<g id="edge64" class="edge">
<title>Node0&#45;&gt;Node42</title>
<path fill="none" stroke="#191970" d="M1828.0784,-392.4554C1848.2032,-382.554 1874.3639,-369.683 1894.0438,-360.0004"/>
<polygon fill="#191970" stroke="#191970" points="1895.7018,-363.0855 1903.1294,-355.5303 1892.6115,-356.8045 1895.7018,-363.0855"/>
</g>
<!-- Node2 -->
<g id="node3" class="node">
<title>Node2</title>
<polygon fill="none" stroke="#bfbfbf" points="854.5,-56.5 854.5,-75.5 898.5,-75.5 898.5,-56.5 854.5,-56.5"/>
<text text-anchor="middle" x="876.5" y="-63.5" font-family="Helvetica,sans-Serif" font-size="10.00" fill="#000000">string</text>
</g>
<!-- Node1&#45;&gt;Node2 -->
<g id="edge2" class="edge">
<title>Node1&#45;&gt;Node2</title>
<path fill="none" stroke="#191970" d="M1082.044,-336.2968C1086.0241,-308.0839 1094.1645,-224.5021 1061.5,-168 1028.8717,-111.5605 952.3644,-84.3225 908.6419,-72.9443"/>
<polygon fill="#191970" stroke="#191970" points="909.3461,-69.5131 898.798,-70.5067 907.6635,-76.3078 909.3461,-69.5131"/>
</g>
<!-- Node3 -->
<g id="node4" class="node">
<title>Node3</title>
<g id="a_node4"><a xlink:href="UIElement_8hxx.html" target="_top" xlink:title="../basics/UIElement.hxx">
<polygon fill="none" stroke="#000000" points="665,-280.5 665,-299.5 796,-299.5 796,-280.5 665,-280.5"/>
<text text-anchor="middle" x="730.5" y="-287.5" font-family="Helvetica,sans-Serif" font-size="10.00" fill="#000000">../basics/UIElement.hxx</text>
</a>
</g>
</g>
<!-- Node1&#45;&gt;Node3 -->
<g id="edge3" class="edge">
<title>Node1&#45;&gt;Node3</title>
<path fill="none" stroke="#191970" d="M1051.2612,-341.3218C996.3861,-332.5418 876.6028,-313.3764 799.95,-301.112"/>
<polygon fill="#191970" stroke="#191970" points="800.3234,-297.6273 789.8959,-299.5034 799.2174,-304.5394 800.3234,-297.6273"/>
</g>
<!-- Node3&#45;&gt;Node2 -->
<g id="edge4" class="edge">
<title>Node3&#45;&gt;Node2</title>
<path fill="none" stroke="#191970" d="M732.1228,-280.3065C737.4063,-251.4031 756.5607,-164.5687 803.5,-112 815.2037,-98.8926 831.5093,-88.1389 845.7419,-80.334"/>
<polygon fill="#191970" stroke="#191970" points="847.4866,-83.3714 854.7262,-75.6358 844.2428,-77.1683 847.4866,-83.3714"/>
</g>
<!-- Node4 -->
<g id="node5" class="node">
<title>Node4</title>
<g id="a_node5"><a xlink:href="mapEdit_8hxx.html" target="_top" xlink:title="../../basics/mapEdit.hxx">
<polygon fill="none" stroke="#000000" points="758.5,-224.5 758.5,-243.5 888.5,-243.5 888.5,-224.5 758.5,-224.5"/>
<text text-anchor="middle" x="823.5" y="-231.5" font-family="Helvetica,sans-Serif" font-size="10.00" fill="#000000">../../basics/mapEdit.hxx</text>
</a>
</g>
</g>
<!-- Node3&#45;&gt;Node4 -->
<g id="edge5" class="edge">
<title>Node3&#45;&gt;Node4</title>
<path fill="none" stroke="#191970" d="M746.6994,-280.2455C761.1018,-271.5731 782.3732,-258.7645 798.8799,-248.825"/>
<polygon fill="#191970" stroke="#191970" points="800.725,-251.7996 807.4863,-243.6427 797.114,-245.8028 800.725,-251.7996"/>
</g>
<!-- Node5 -->
<g id="node6" class="node">
<title>Node5</title>
<g id="a_node6"><a xlink:href="ResourcesManager_8hxx.html" target="_top" xlink:title="../../ResourcesManager.hxx">
<polygon fill="none" stroke="#000000" points="270.5,-224.5 270.5,-243.5 416.5,-243.5 416.5,-224.5 270.5,-224.5"/>
<text text-anchor="middle" x="343.5" y="-231.5" font-family="Helvetica,sans-Serif" font-size="10.00" fill="#000000">../../ResourcesManager.hxx</text>
</a>
</g>
</g>
<!-- Node3&#45;&gt;Node5 -->
<g id="edge7" class="edge">
<title>Node3&#45;&gt;Node5</title>
<path fill="none" stroke="#191970" d="M664.8507,-280.5004C597.0221,-270.6854 491.2565,-255.3808 419.7624,-245.0354"/>
<polygon fill="#191970" stroke="#191970" points="419.8695,-241.5145 409.4713,-243.5462 418.867,-248.4424 419.8695,-241.5145"/>
</g>
<!-- Node8 -->
<g id="node9" class="node">
<title>Node8</title>
<polygon fill="none" stroke="#bfbfbf" points="464.5,-112.5 464.5,-131.5 508.5,-131.5 508.5,-112.5 464.5,-112.5"/>
<text text-anchor="middle" x="486.5" y="-119.5" font-family="Helvetica,sans-Serif" font-size="10.00" fill="#000000">SDL.h</text>
</g>
<!-- Node3&#45;&gt;Node8 -->
<g id="edge36" class="edge">
<title>Node3&#45;&gt;Node8</title>
<path fill="none" stroke="#191970" d="M672.2268,-280.4503C638.8024,-273.4338 596.8024,-261.9338 562.5,-244 528.1073,-226.019 514.2783,-221.9639 495.5,-188 487.7187,-173.9262 485.7355,-155.6672 485.5473,-141.9229"/>
<polygon fill="#191970" stroke="#191970" points="489.0517,-141.6889 485.7235,-131.6304 482.0527,-141.569 489.0517,-141.6889"/>
</g>
<!-- Node18 -->
<g id="node19" class="node">
<title>Node18</title>
<g id="a_node19"><a xlink:href="WindowManager_8hxx.html" target="_top" xlink:title="../../WindowManager.hxx">
<polygon fill="none" stroke="#000000" points="916.5,-168.5 916.5,-187.5 1052.5,-187.5 1052.5,-168.5 916.5,-168.5"/>
<text text-anchor="middle" x="984.5" y="-175.5" font-family="Helvetica,sans-Serif" font-size="10.00" fill="#000000">../../WindowManager.hxx</text>
</a>
</g>
</g>
<!-- Node3&#45;&gt;Node18 -->
<g id="edge24" class="edge">
<title>Node3&#45;&gt;Node18</title>
<path fill="none" stroke="#191970" d="M785.0374,-280.4541C818.6227,-273.264 861.9106,-261.5835 897.5,-244 923.8431,-230.9848 950.1767,-209.5384 966.857,-194.6397"/>
<polygon fill="#191970" stroke="#191970" points="969.6243,-196.8525 974.6488,-187.5248 964.9041,-191.6833 969.6243,-196.8525"/>
</g>
<!-- Node19 -->
<g id="node20" class="node">
<title>Node19</title>
<g id="a_node20"><a xlink:href="signal_8hxx.html" target="_top" xlink:title="../../basics/signal.hxx">
<polygon fill="none" stroke="#000000" points="572,-224.5 572,-243.5 691,-243.5 691,-224.5 572,-224.5"/>
<text text-anchor="middle" x="631.5" y="-231.5" font-family="Helvetica,sans-Serif" font-size="10.00" fill="#000000">../../basics/signal.hxx</text>
</a>
</g>
</g>
<!-- Node3&#45;&gt;Node19 -->
<g id="edge30" class="edge">
<title>Node3&#45;&gt;Node19</title>
<path fill="none" stroke="#191970" d="M713.2555,-280.2455C697.9239,-271.5731 675.2801,-258.7645 657.7084,-248.825"/>
<polygon fill="#191970" stroke="#191970" points="658.9741,-245.5198 648.5469,-243.6427 655.5276,-251.6126 658.9741,-245.5198"/>
</g>
<!-- Node4&#45;&gt;Node2 -->
<g id="edge6" class="edge">
<title>Node4&#45;&gt;Node2</title>
<path fill="none" stroke="#191970" d="M811.87,-224.135C798.5787,-211.5882 779.6185,-189.0205 787.5,-168 801.0482,-131.8659 833.8325,-100.1213 855.6021,-82.0015"/>
<polygon fill="#191970" stroke="#191970" points="858.0377,-84.5334 863.6183,-75.5274 853.6395,-79.0875 858.0377,-84.5334"/>
</g>
<!-- Node6 -->
<g id="node7" class="node">
<title>Node6</title>
<polygon fill="none" stroke="#bfbfbf" points="1068.5,-112.5 1068.5,-131.5 1128.5,-131.5 1128.5,-112.5 1068.5,-112.5"/>
<text text-anchor="middle" x="1098.5" y="-119.5" font-family="Helvetica,sans-Serif" font-size="10.00" fill="#000000">iostream</text>
</g>
<!-- Node5&#45;&gt;Node6 -->
<g id="edge8" class="edge">
<title>Node5&#45;&gt;Node6</title>
<path fill="none" stroke="#191970" d="M361.3444,-224.3132C389.9639,-209.2986 448.3212,-180.8051 501.5,-168 504.8979,-167.1818 924.3476,-135.2413 1058.0498,-125.0743"/>
<polygon fill="#191970" stroke="#191970" points="1058.5638,-128.5454 1068.2696,-124.2973 1058.033,-121.5656 1058.5638,-128.5454"/>
</g>
<!-- Node7 -->
<g id="node8" class="node">
<title>Node7</title>
<polygon fill="none" stroke="#bfbfbf" points="0,-112.5 0,-131.5 93,-131.5 93,-112.5 0,-112.5"/>
<text text-anchor="middle" x="46.5" y="-119.5" font-family="Helvetica,sans-Serif" font-size="10.00" fill="#000000">unordered_map</text>
</g>
<!-- Node5&#45;&gt;Node7 -->
<g id="edge9" class="edge">
<title>Node5&#45;&gt;Node7</title>
<path fill="none" stroke="#191970" d="M318.1779,-224.4509C265.0253,-204.4069 141.7526,-157.9202 81.2551,-135.1063"/>
<polygon fill="#191970" stroke="#191970" points="82.3498,-131.7786 71.758,-131.5249 79.8798,-138.3283 82.3498,-131.7786"/>
</g>
<!-- Node5&#45;&gt;Node8 -->
<g id="edge10" class="edge">
<title>Node5&#45;&gt;Node8</title>
<path fill="none" stroke="#191970" d="M348.6691,-224.3454C356.5473,-210.3806 372.7479,-184.4231 392.5,-168 410.9399,-152.668 435.3535,-140.9176 454.6788,-133.1314"/>
<polygon fill="#191970" stroke="#191970" points="456.1992,-136.296 464.2623,-129.4231 453.6731,-129.7677 456.1992,-136.296"/>
</g>
<!-- Node9 -->
<g id="node10" class="node">
<title>Node9</title>
<g id="a_node10"><a xlink:href="TileManager_8hxx.html" target="_top" xlink:title="TileManager.hxx">
<polygon fill="none" stroke="#000000" points="243,-168.5 243,-187.5 340,-187.5 340,-168.5 243,-168.5"/>
<text text-anchor="middle" x="291.5" y="-175.5" font-family="Helvetica,sans-Serif" font-size="10.00" fill="#000000">TileManager.hxx</text>
</a>
</g>
</g>
<!-- Node5&#45;&gt;Node9 -->
<g id="edge11" class="edge">
<title>Node5&#45;&gt;Node9</title>
<path fill="none" stroke="#191970" d="M334.4423,-224.2455C326.9858,-216.2155 316.2366,-204.6394 307.3583,-195.0781"/>
<polygon fill="#191970" stroke="#191970" points="309.8232,-192.589 300.4539,-187.6427 304.6937,-197.3522 309.8232,-192.589"/>
</g>
<!-- Node9&#45;&gt;Node2 -->
<g id="edge14" class="edge">
<title>Node9&#45;&gt;Node2</title>
<path fill="none" stroke="#191970" d="M320.4379,-168.4671C346.0278,-159.7744 384.2039,-146.1613 416.5,-132 434.34,-124.1775 436.8412,-117.5953 455.5,-112 528.4413,-90.1268 758.9767,-73.5339 844.3182,-67.9969"/>
<polygon fill="#191970" stroke="#191970" points="844.6923,-71.4802 854.4479,-67.3476 844.2444,-64.4946 844.6923,-71.4802"/>
</g>
<!-- Node9&#45;&gt;Node7 -->
<g id="edge13" class="edge">
<title>Node9&#45;&gt;Node7</title>
<path fill="none" stroke="#191970" d="M249.6614,-168.4369C207.7315,-158.8529 143.1052,-144.0812 98.0376,-133.78"/>
<polygon fill="#191970" stroke="#191970" points="98.6946,-130.34 88.1661,-131.5237 97.1347,-137.164 98.6946,-130.34"/>
</g>
<!-- Node9&#45;&gt;Node8 -->
<g id="edge12" class="edge">
<title>Node9&#45;&gt;Node8</title>
<path fill="none" stroke="#191970" d="M325.0217,-168.3733C361.2959,-157.956 418.7234,-141.464 454.4236,-131.2117"/>
<polygon fill="#191970" stroke="#191970" points="455.674,-134.4941 464.3194,-128.3698 453.7418,-127.7661 455.674,-134.4941"/>
</g>
<!-- Node10 -->
<g id="node11" class="node">
<title>Node10</title>
<g id="a_node11"><a xlink:href="tileData_8hxx.html" target="_top" xlink:title="tileData.hxx">
<polygon fill="none" stroke="#000000" points="331,-112.5 331,-131.5 408,-131.5 408,-112.5 331,-112.5"/>
<text text-anchor="middle" x="369.5" y="-119.5" font-family="Helvetica,sans-Serif" font-size="10.00" fill="#000000">tileData.hxx</text>
</a>
</g>
</g>
<!-- Node9&#45;&gt;Node10 -->
<g id="edge15" class="edge">
<title>Node9&#45;&gt;Node10</title>
<path fill="none" stroke="#191970" d="M305.0866,-168.2455C316.8305,-159.814 334.0199,-147.4729 347.6882,-137.6598"/>
<polygon fill="#191970" stroke="#191970" points="349.9871,-140.3179 356.0691,-131.6427 345.9046,-134.6316 349.9871,-140.3179"/>
</g>
<!-- Node15 -->
<g id="node16" class="node">
<title>Node15</title>
<polygon fill="none" stroke="#bfbfbf" points="111.5,-112.5 111.5,-131.5 169.5,-131.5 169.5,-112.5 111.5,-112.5"/>
<text text-anchor="middle" x="140.5" y="-119.5" font-family="Helvetica,sans-Serif" font-size="10.00" fill="#000000">json.hxx</text>
</g>
<!-- Node9&#45;&gt;Node15 -->
<g id="edge21" class="edge">
<title>Node9&#45;&gt;Node15</title>
<path fill="none" stroke="#191970" d="M265.5422,-168.3733C240.7593,-159.1822 203.2254,-145.2624 175.746,-135.0713"/>
<polygon fill="#191970" stroke="#191970" points="176.7121,-131.6968 166.1191,-131.5011 174.2781,-138.26 176.7121,-131.6968"/>
</g>
<!-- Node16 -->
<g id="node17" class="node">
<title>Node16</title>
<g id="a_node17"><a xlink:href="Singleton_8hxx.html" target="_top" xlink:title="Singleton.hxx">
<polygon fill="none" stroke="#000000" points="873,-112.5 873,-131.5 956,-131.5 956,-112.5 873,-112.5"/>
<text text-anchor="middle" x="914.5" y="-119.5" font-family="Helvetica,sans-Serif" font-size="10.00" fill="#000000">Singleton.hxx</text>
</a>
</g>
</g>
<!-- Node9&#45;&gt;Node16 -->
<g id="edge22" class="edge">
<title>Node9&#45;&gt;Node16</title>
<path fill="none" stroke="#191970" d="M340.0371,-173.0872C356.6685,-171.4323 375.3948,-169.6004 392.5,-168 564.7143,-151.887 769.0443,-134.3357 862.8018,-126.3696"/>
<polygon fill="#191970" stroke="#191970" points="863.2042,-129.8482 872.8723,-125.5147 862.612,-122.8732 863.2042,-129.8482"/>
</g>
<!-- Node17 -->
<g id="node18" class="node">
<title>Node17</title>
<polygon fill="none" stroke="#bfbfbf" points="188,-112.5 188,-131.5 313,-131.5 313,-112.5 188,-112.5"/>
<text text-anchor="middle" x="250.5" y="-119.5" font-family="Helvetica,sans-Serif" font-size="10.00" fill="#000000">../common/enums.hxx</text>
</g>
<!-- Node9&#45;&gt;Node17 -->
<g id="edge23" class="edge">
<title>Node9&#45;&gt;Node17</title>
<path fill="none" stroke="#191970" d="M284.3583,-168.2455C278.6556,-160.4564 270.51,-149.3308 263.6375,-139.9439"/>
<polygon fill="#191970" stroke="#191970" points="266.2913,-137.6437 257.5598,-131.6427 260.6432,-141.7789 266.2913,-137.6437"/>
</g>
<!-- Node10&#45;&gt;Node2 -->
<g id="edge16" class="edge">
<title>Node10&#45;&gt;Node2</title>
<path fill="none" stroke="#191970" d="M408.2233,-114.2981C413.021,-113.4607 417.8664,-112.6706 422.5,-112 579.8083,-89.2328 769.4006,-73.8978 844.0516,-68.3295"/>
<polygon fill="#191970" stroke="#191970" points="844.4991,-71.8061 854.2141,-67.5791 843.9835,-64.8251 844.4991,-71.8061"/>
</g>
<!-- Node11 -->
<g id="node12" class="node">
<title>Node11</title>
<polygon fill="none" stroke="#bfbfbf" points="513,-56.5 513,-75.5 560,-75.5 560,-56.5 513,-56.5"/>
<text text-anchor="middle" x="536.5" y="-63.5" font-family="Helvetica,sans-Serif" font-size="10.00" fill="#000000">vector</text>
</g>
<!-- Node10&#45;&gt;Node11 -->
<g id="edge17" class="edge">
<title>Node10&#45;&gt;Node11</title>
<path fill="none" stroke="#191970" d="M398.2083,-112.3733C427.282,-102.624 472.2229,-87.554 502.9284,-77.2575"/>
<polygon fill="#191970" stroke="#191970" points="504.384,-80.461 512.7524,-73.9633 502.1585,-73.8242 504.384,-80.461"/>
</g>
<!-- Node12 -->
<g id="node13" class="node">
<title>Node12</title>
<g id="a_node13"><a xlink:href="enums_8hxx.html" target="_top" xlink:title="enums.hxx">
<polygon fill="none" stroke="#000000" points="334,-56.5 334,-75.5 405,-75.5 405,-56.5 334,-56.5"/>
<text text-anchor="middle" x="369.5" y="-63.5" font-family="Helvetica,sans-Serif" font-size="10.00" fill="#000000">enums.hxx</text>
</a>
</g>
</g>
<!-- Node10&#45;&gt;Node12 -->
<g id="edge18" class="edge">
<title>Node10&#45;&gt;Node12</title>
<path fill="none" stroke="#191970" d="M369.5,-112.2455C369.5,-104.9382 369.5,-94.6944 369.5,-85.7046"/>
<polygon fill="#191970" stroke="#191970" points="373.0001,-85.6426 369.5,-75.6427 366.0001,-85.6427 373.0001,-85.6426"/>
</g>
<!-- Node13 -->
<g id="node14" class="node">
<title>Node13</title>
<polygon fill="none" stroke="#bfbfbf" points="293.5,-.5 293.5,-19.5 349.5,-19.5 349.5,-.5 293.5,-.5"/>
<text text-anchor="middle" x="321.5" y="-7.5" font-family="Helvetica,sans-Serif" font-size="10.00" fill="#000000">stddef.h</text>
</g>
<!-- Node12&#45;&gt;Node13 -->
<g id="edge19" class="edge">
<title>Node12&#45;&gt;Node13</title>
<path fill="none" stroke="#191970" d="M361.139,-56.2455C354.325,-48.2958 344.5319,-36.8706 336.3848,-27.3656"/>
<polygon fill="#191970" stroke="#191970" points="338.9305,-24.9575 329.7651,-19.6427 333.6157,-29.513 338.9305,-24.9575"/>
</g>
<!-- Node14 -->
<g id="node15" class="node">
<title>Node14</title>
<polygon fill="none" stroke="#bfbfbf" points="367.5,-.5 367.5,-19.5 467.5,-19.5 467.5,-.5 367.5,-.5"/>
<text text-anchor="middle" x="417.5" y="-7.5" font-family="Helvetica,sans-Serif" font-size="10.00" fill="#000000">betterEnums.hxx</text>
</g>
<!-- Node12&#45;&gt;Node14 -->
<g id="edge20" class="edge">
<title>Node12&#45;&gt;Node14</title>
<path fill="none" stroke="#191970" d="M377.861,-56.2455C384.675,-48.2958 394.4681,-36.8706 402.6152,-27.3656"/>
<polygon fill="#191970" stroke="#191970" points="405.3843,-29.513 409.2349,-19.6427 400.0695,-24.9575 405.3843,-29.513"/>
</g>
<!-- Node18&#45;&gt;Node2 -->
<g id="edge25" class="edge">
<title>Node18&#45;&gt;Node2</title>
<path fill="none" stroke="#191970" d="M984.0698,-168.3905C982.9757,-154.4818 979.1125,-128.5935 965.5,-112 950.8453,-94.1361 927.4341,-82.4253 908.3004,-75.292"/>
<polygon fill="#191970" stroke="#191970" points="909.3484,-71.9509 898.7536,-71.9706 907.0483,-78.5622 909.3484,-71.9509"/>
</g>
<!-- Node18&#45;&gt;Node6 -->
<g id="edge26" class="edge">
<title>Node18&#45;&gt;Node6</title>
<path fill="none" stroke="#191970" d="M1004.0973,-168.3733C1022.2331,-159.4644 1049.4135,-146.1127 1069.9587,-136.0203"/>
<polygon fill="#191970" stroke="#191970" points="1071.7261,-139.0517 1079.1584,-131.5011 1068.6397,-132.7688 1071.7261,-139.0517"/>
</g>
<!-- Node18&#45;&gt;Node8 -->
<g id="edge28" class="edge">
<title>Node18&#45;&gt;Node8</title>
<path fill="none" stroke="#191970" d="M916.494,-169.647C911.7588,-169.0837 907.0586,-168.53 902.5,-168 759.6544,-151.3927 589.0424,-132.9704 518.9712,-125.4652"/>
<polygon fill="#191970" stroke="#191970" points="518.9238,-121.9402 508.6081,-124.3563 518.179,-128.9005 518.9238,-121.9402"/>
</g>
<!-- Node18&#45;&gt;Node11 -->
<g id="edge27" class="edge">
<title>Node18&#45;&gt;Node11</title>
<path fill="none" stroke="#191970" d="M946.3038,-168.4509C860.0625,-146.8906 651.4438,-94.7359 569.9286,-74.3571"/>
<polygon fill="#191970" stroke="#191970" points="570.7367,-70.9515 560.1864,-71.9216 569.0389,-77.7425 570.7367,-70.9515"/>
</g>
<!-- Node18&#45;&gt;Node16 -->
<g id="edge29" class="edge">
<title>Node18&#45;&gt;Node16</title>
<path fill="none" stroke="#191970" d="M972.3069,-168.2455C961.8679,-159.8943 946.6345,-147.7076 934.426,-137.9408"/>
<polygon fill="#191970" stroke="#191970" points="936.5485,-135.1566 926.5533,-131.6427 932.1756,-140.6227 936.5485,-135.1566"/>
</g>
<!-- Node19&#45;&gt;Node11 -->
<g id="edge34" class="edge">
<title>Node19&#45;&gt;Node11</title>
<path fill="none" stroke="#191970" d="M588.7606,-224.4972C555.0013,-216.0233 511.8993,-202.7109 501.5,-188 496.3689,-180.7416 499.6547,-176.6952 501.5,-168 505.1347,-150.8723 511.5083,-148.452 517.5,-132 523.1105,-116.5948 528.1753,-98.698 531.6621,-85.4304"/>
<polygon fill="#191970" stroke="#191970" points="535.107,-86.0864 534.1972,-75.5307 528.3258,-84.3498 535.107,-86.0864"/>
</g>
<!-- Node20 -->
<g id="node21" class="node">
<title>Node20</title>
<polygon fill="none" stroke="#bfbfbf" points="510.5,-168.5 510.5,-187.5 568.5,-187.5 568.5,-168.5 510.5,-168.5"/>
<text text-anchor="middle" x="539.5" y="-175.5" font-family="Helvetica,sans-Serif" font-size="10.00" fill="#000000">memory</text>
</g>
<!-- Node19&#45;&gt;Node20 -->
<g id="edge31" class="edge">
<title>Node19&#45;&gt;Node20</title>
<path fill="none" stroke="#191970" d="M615.4748,-224.2455C601.3592,-215.6534 580.5737,-203.0014 564.3101,-193.1018"/>
<polygon fill="#191970" stroke="#191970" points="565.7034,-189.8525 555.3415,-187.6427 562.0637,-195.8319 565.7034,-189.8525"/>
</g>
<!-- Node21 -->
<g id="node22" class="node">
<title>Node21</title>
<polygon fill="none" stroke="#bfbfbf" points="587,-168.5 587,-187.5 652,-187.5 652,-168.5 587,-168.5"/>
<text text-anchor="middle" x="619.5" y="-175.5" font-family="Helvetica,sans-Serif" font-size="10.00" fill="#000000">functional</text>
</g>
<!-- Node19&#45;&gt;Node21 -->
<g id="edge32" class="edge">
<title>Node19&#45;&gt;Node21</title>
<path fill="none" stroke="#191970" d="M629.4098,-224.2455C627.8439,-216.9382 625.6488,-206.6944 623.7224,-197.7046"/>
<polygon fill="#191970" stroke="#191970" points="627.084,-196.6873 621.5663,-187.6427 620.2393,-198.1541 627.084,-196.6873"/>
</g>
<!-- Node22 -->
<g id="node23" class="node">
<title>Node22</title>
<polygon fill="none" stroke="#bfbfbf" points="670.5,-168.5 670.5,-187.5 702.5,-187.5 702.5,-168.5 670.5,-168.5"/>
<text text-anchor="middle" x="686.5" y="-175.5" font-family="Helvetica,sans-Serif" font-size="10.00" fill="#000000">list</text>
</g>
<!-- Node19&#45;&gt;Node22 -->
<g id="edge33" class="edge">
<title>Node19&#45;&gt;Node22</title>
<path fill="none" stroke="#191970" d="M641.0803,-224.2455C649.0458,-216.1352 660.5641,-204.4075 670.0079,-194.7919"/>
<polygon fill="#191970" stroke="#191970" points="672.5195,-197.2297 677.0295,-187.6427 667.5253,-192.3247 672.5195,-197.2297"/>
</g>
<!-- Node23 -->
<g id="node24" class="node">
<title>Node23</title>
<polygon fill="none" stroke="#bfbfbf" points="796.5,-168.5 796.5,-187.5 860.5,-187.5 860.5,-168.5 796.5,-168.5"/>
<text text-anchor="middle" x="828.5" y="-175.5" font-family="Helvetica,sans-Serif" font-size="10.00" fill="#000000">algorithm</text>
</g>
<!-- Node19&#45;&gt;Node23 -->
<g id="edge35" class="edge">
<title>Node19&#45;&gt;Node23</title>
<path fill="none" stroke="#191970" d="M665.3655,-224.3733C698.9513,-214.826 750.4868,-200.1763 786.6243,-189.9037"/>
<polygon fill="#191970" stroke="#191970" points="787.719,-193.2313 796.3809,-187.1303 785.805,-186.4981 787.719,-193.2313"/>
</g>
<!-- Node24&#45;&gt;Node2 -->
<g id="edge38" class="edge">
<title>Node24&#45;&gt;Node2</title>
<path fill="none" stroke="#191970" d="M1371.1906,-231.135C1317.6748,-225.4016 1206.8497,-211.0533 1176.5,-188 1146.2673,-165.0356 1168.0522,-134.5376 1137.5,-112 1101.61,-85.5249 970.4053,-72.7684 908.8245,-68.1354"/>
<polygon fill="#191970" stroke="#191970" points="908.7482,-64.6208 898.521,-67.3876 908.2414,-71.6024 908.7482,-64.6208"/>
</g>
<!-- Node24&#45;&gt;Node6 -->
<g id="edge42" class="edge">
<title>Node24&#45;&gt;Node6</title>
<path fill="none" stroke="#191970" d="M1371.2283,-231.6681C1311.893,-226.483 1179.9008,-212.4834 1142.5,-188 1125.4619,-176.8465 1113.4262,-156.5565 1106.2988,-141.4067"/>
<polygon fill="#191970" stroke="#191970" points="1109.3614,-139.6745 1102.1475,-131.915 1102.948,-142.4796 1109.3614,-139.6745"/>
</g>
<!-- Node24&#45;&gt;Node8 -->
<g id="edge47" class="edge">
<title>Node24&#45;&gt;Node8</title>
<path fill="none" stroke="#191970" d="M1371.1981,-232.7636C1278.9383,-228.6366 995.3623,-214.1004 907.5,-188 889.2049,-182.5653 887.7215,-173.6766 869.5,-168 804.1576,-147.6436 599.0204,-130.4704 518.9592,-124.3731"/>
<polygon fill="#191970" stroke="#191970" points="518.7545,-120.8479 508.5199,-123.5871 518.2288,-127.8282 518.7545,-120.8479"/>
</g>
<!-- Node24&#45;&gt;Node23 -->
<g id="edge48" class="edge">
<title>Node24&#45;&gt;Node23</title>
<path fill="none" stroke="#191970" d="M1371.2647,-232.7462C1291.3307,-229.0377 1062.5568,-216.5462 874.5,-188 873.2274,-187.8068 871.9372,-187.5996 870.6366,-187.3807"/>
<polygon fill="#191970" stroke="#191970" points="871.0446,-183.8968 860.5743,-185.5161 869.7692,-190.7796 871.0446,-183.8968"/>
</g>
<!-- Node24&#45;&gt;Node25 -->
<g id="edge39" class="edge">
<title>Node24&#45;&gt;Node25</title>
<path fill="none" stroke="#191970" d="M1429.6567,-230.9897C1499.8727,-223.7274 1683.9146,-204.6158 1837.5,-188 1849.4667,-186.7054 1862.3255,-185.2907 1874.4726,-183.9435"/>
<polygon fill="#191970" stroke="#191970" points="1874.9213,-187.4153 1884.4734,-182.8319 1874.148,-180.4581 1874.9213,-187.4153"/>
</g>
<!-- Node28 -->
<g id="node29" class="node">
<title>Node28</title>
<polygon fill="none" stroke="#bfbfbf" points="1276.5,-168.5 1276.5,-187.5 1326.5,-187.5 1326.5,-168.5 1276.5,-168.5"/>
<text text-anchor="middle" x="1301.5" y="-175.5" font-family="Helvetica,sans-Serif" font-size="10.00" fill="#000000">chrono</text>
</g>
<!-- Node24&#45;&gt;Node28 -->
<g id="edge43" class="edge">
<title>Node24&#45;&gt;Node28</title>
<path fill="none" stroke="#191970" d="M1383.2555,-224.2455C1367.9239,-215.5731 1345.2801,-202.7645 1327.7084,-192.825"/>
<polygon fill="#191970" stroke="#191970" points="1328.9741,-189.5198 1318.5469,-187.6427 1325.5276,-195.6126 1328.9741,-189.5198"/>
</g>
<!-- Node29 -->
<g id="node30" class="node">
<title>Node29</title>
<polygon fill="none" stroke="#bfbfbf" points="1344.5,-168.5 1344.5,-187.5 1388.5,-187.5 1388.5,-168.5 1344.5,-168.5"/>
<text text-anchor="middle" x="1366.5" y="-175.5" font-family="Helvetica,sans-Serif" font-size="10.00" fill="#000000">ctime</text>
</g>
<!-- Node24&#45;&gt;Node29 -->
<g id="edge44" class="edge">
<title>Node24&#45;&gt;Node29</title>
<path fill="none" stroke="#191970" d="M1394.5777,-224.2455C1389.8973,-216.5367 1383.2327,-205.5598 1377.5711,-196.2348"/>
<polygon fill="#191970" stroke="#191970" points="1380.5361,-194.3741 1372.3545,-187.6427 1374.5525,-198.007 1380.5361,-194.3741"/>
</g>
<!-- Node30 -->
<g id="node31" class="node">
<title>Node30</title>
<polygon fill="none" stroke="#bfbfbf" points="1407,-168.5 1407,-187.5 1462,-187.5 1462,-168.5 1407,-168.5"/>
<text text-anchor="middle" x="1434.5" y="-175.5" font-family="Helvetica,sans-Serif" font-size="10.00" fill="#000000">fstream</text>
</g>
<!-- Node24&#45;&gt;Node30 -->
<g id="edge45" class="edge">
<title>Node24&#45;&gt;Node30</title>
<path fill="none" stroke="#191970" d="M1406.4223,-224.2455C1411.1027,-216.5367 1417.7673,-205.5598 1423.4289,-196.2348"/>
<polygon fill="#191970" stroke="#191970" points="1426.4475,-198.007 1428.6455,-187.6427 1420.4639,-194.3741 1426.4475,-198.007"/>
</g>
<!-- Node31 -->
<g id="node32" class="node">
<title>Node31</title>
<polygon fill="none" stroke="#bfbfbf" points="1480.5,-168.5 1480.5,-187.5 1536.5,-187.5 1536.5,-168.5 1480.5,-168.5"/>
<text text-anchor="middle" x="1508.5" y="-175.5" font-family="Helvetica,sans-Serif" font-size="10.00" fill="#000000">sstream</text>
</g>
<!-- Node24&#45;&gt;Node31 -->
<g id="edge46" class="edge">
<title>Node24&#45;&gt;Node31</title>
<path fill="none" stroke="#191970" d="M1419.3122,-224.2455C1436.3473,-215.4125 1461.6575,-202.2887 1480.9681,-192.2758"/>
<polygon fill="#191970" stroke="#191970" points="1482.637,-195.353 1489.9034,-187.6427 1479.4147,-189.1388 1482.637,-195.353"/>
</g>
<!-- Node32 -->
<g id="node33" class="node">
<title>Node32</title>
<polygon fill="none" stroke="#bfbfbf" points="1554.5,-168.5 1554.5,-187.5 1602.5,-187.5 1602.5,-168.5 1554.5,-168.5"/>
<text text-anchor="middle" x="1578.5" y="-175.5" font-family="Helvetica,sans-Serif" font-size="10.00" fill="#000000">mutex</text>
</g>
<!-- Node24&#45;&gt;Node32 -->
<g id="edge49" class="edge">
<title>Node24&#45;&gt;Node32</title>
<path fill="none" stroke="#191970" d="M1429.8931,-224.7527C1461.4819,-214.8147 1511.6119,-199.0435 1544.7811,-188.6082"/>
<polygon fill="#191970" stroke="#191970" points="1546.0026,-191.8931 1554.4912,-185.5533 1543.9018,-185.2158 1546.0026,-191.8931"/>
</g>
<!-- Node33 -->
<g id="node34" class="node">
<title>Node33</title>
<g id="a_node34"><a xlink:href="Meta_8hxx.html" target="_top" xlink:title="Meta.hxx">
<polygon fill="none" stroke="#000000" points="1766.5,-168.5 1766.5,-187.5 1828.5,-187.5 1828.5,-168.5 1766.5,-168.5"/>
<text text-anchor="middle" x="1797.5" y="-175.5" font-family="Helvetica,sans-Serif" font-size="10.00" fill="#000000">Meta.hxx</text>
</a>
</g>
</g>
<!-- Node24&#45;&gt;Node33 -->
<g id="edge50" class="edge">
<title>Node24&#45;&gt;Node33</title>
<path fill="none" stroke="#191970" d="M1429.6924,-229.8822C1499.3553,-220.0557 1675.5051,-195.2083 1756.0985,-183.84"/>
<polygon fill="#191970" stroke="#191970" points="1756.9447,-187.2554 1766.3578,-182.3929 1755.9669,-180.324 1756.9447,-187.2554"/>
</g>
<!-- Node37 -->
<g id="node38" class="node">
<title>Node37</title>
<g id="a_node38"><a xlink:href="filesystem_8hxx.html" target="_top" xlink:title="filesystem.hxx">
<polygon fill="none" stroke="#000000" points="1621,-168.5 1621,-187.5 1710,-187.5 1710,-168.5 1621,-168.5"/>
<text text-anchor="middle" x="1665.5" y="-175.5" font-family="Helvetica,sans-Serif" font-size="10.00" fill="#000000">filesystem.hxx</text>
</a>
</g>
</g>
<!-- Node24&#45;&gt;Node37 -->
<g id="edge55" class="edge">
<title>Node24&#45;&gt;Node37</title>
<path fill="none" stroke="#191970" d="M1429.6177,-227.8468C1473.1594,-218.6456 1555.9886,-201.142 1610.9865,-189.5198"/>
<polygon fill="#191970" stroke="#191970" points="1611.8559,-192.9135 1620.9162,-187.4215 1610.4086,-186.0647 1611.8559,-192.9135"/>
</g>
<!-- Node39 -->
<g id="node40" class="node">
<title>Node39</title>
<g id="a_node40"><a xlink:href="LOG_8inl_8hxx.html" target="_top" xlink:title="LOG.inl.hxx">
<polygon fill="none" stroke="#000000" points="1185,-168.5 1185,-187.5 1258,-187.5 1258,-168.5 1185,-168.5"/>
<text text-anchor="middle" x="1221.5" y="-175.5" font-family="Helvetica,sans-Serif" font-size="10.00" fill="#000000">LOG.inl.hxx</text>
</a>
</g>
</g>
<!-- Node24&#45;&gt;Node39 -->
<g id="edge57" class="edge">
<title>Node24&#45;&gt;Node39</title>
<path fill="none" stroke="#191970" d="M1371.3422,-224.878C1341.6255,-215.5812 1295.2959,-201.087 1262.0199,-190.6766"/>
<polygon fill="#191970" stroke="#191970" points="1262.7337,-187.2327 1252.1448,-187.5872 1260.6436,-193.9134 1262.7337,-187.2327"/>
</g>
<!-- Node26 -->
<g id="node27" class="node">
<title>Node26</title>
<polygon fill="none" stroke="#bfbfbf" points="1973,-112.5 1973,-131.5 2038,-131.5 2038,-112.5 1973,-112.5"/>
<text text-anchor="middle" x="2005.5" y="-119.5" font-family="Helvetica,sans-Serif" font-size="10.00" fill="#000000">stdexcept</text>
</g>
<!-- Node25&#45;&gt;Node26 -->
<g id="edge40" class="edge">
<title>Node25&#45;&gt;Node26</title>
<path fill="none" stroke="#191970" d="M1941.0866,-168.2455C1952.8305,-159.814 1970.0199,-147.4729 1983.6882,-137.6598"/>
<polygon fill="#191970" stroke="#191970" points="1985.9871,-140.3179 1992.0691,-131.6427 1981.9046,-134.6316 1985.9871,-140.3179"/>
</g>
<!-- Node27 -->
<g id="node28" class="node">
<title>Node27</title>
<polygon fill="none" stroke="#bfbfbf" points="1890,-112.5 1890,-131.5 1955,-131.5 1955,-112.5 1890,-112.5"/>
<text text-anchor="middle" x="1922.5" y="-119.5" font-family="Helvetica,sans-Serif" font-size="10.00" fill="#000000">exception</text>
</g>
<!-- Node25&#45;&gt;Node27 -->
<g id="edge41" class="edge">
<title>Node25&#45;&gt;Node27</title>
<path fill="none" stroke="#191970" d="M1926.6291,-168.2455C1925.9766,-160.9382 1925.062,-150.6944 1924.2593,-141.7046"/>
<polygon fill="#191970" stroke="#191970" points="1927.7365,-141.2918 1923.361,-131.6427 1920.7642,-141.9143 1927.7365,-141.2918"/>
</g>
<!-- Node33&#45;&gt;Node6 -->
<g id="edge51" class="edge">
<title>Node33&#45;&gt;Node6</title>
<path fill="none" stroke="#191970" d="M1766.1387,-170.4074C1761.5831,-169.4865 1756.9351,-168.6451 1752.5,-168 1521.8717,-134.4533 1241.794,-125.1425 1138.9038,-122.7591"/>
<polygon fill="#191970" stroke="#191970" points="1138.7313,-119.2545 1128.656,-122.5313 1138.5757,-126.2528 1138.7313,-119.2545"/>
</g>
<!-- Node34 -->
<g id="node35" class="node">
<title>Node34</title>
<polygon fill="none" stroke="#bfbfbf" points="1631,-112.5 1631,-131.5 1700,-131.5 1700,-112.5 1631,-112.5"/>
<text text-anchor="middle" x="1665.5" y="-119.5" font-family="Helvetica,sans-Serif" font-size="10.00" fill="#000000">type_traits</text>
</g>
<!-- Node33&#45;&gt;Node34 -->
<g id="edge52" class="edge">
<title>Node33&#45;&gt;Node34</title>
<path fill="none" stroke="#191970" d="M1774.8084,-168.3733C1753.4289,-159.3032 1721.1943,-145.6279 1697.2638,-135.4755"/>
<polygon fill="#191970" stroke="#191970" points="1698.4683,-132.1846 1687.8955,-131.5011 1695.7344,-138.6287 1698.4683,-132.1846"/>
</g>
<!-- Node35 -->
<g id="node36" class="node">
<title>Node35</title>
<polygon fill="none" stroke="#bfbfbf" points="1718,-112.5 1718,-131.5 1769,-131.5 1769,-112.5 1718,-112.5"/>
<text text-anchor="middle" x="1743.5" y="-119.5" font-family="Helvetica,sans-Serif" font-size="10.00" fill="#000000">variant</text>
</g>
<!-- Node33&#45;&gt;Node35 -->
<g id="edge53" class="edge">
<title>Node33&#45;&gt;Node35</title>
<path fill="none" stroke="#191970" d="M1788.0939,-168.2455C1780.3507,-160.2155 1769.188,-148.6394 1759.9682,-139.0781"/>
<polygon fill="#191970" stroke="#191970" points="1762.2591,-136.4117 1752.7983,-131.6427 1757.2202,-141.2706 1762.2591,-136.4117"/>
</g>
<!-- Node36 -->
<g id="node37" class="node">
<title>Node36</title>
<polygon fill="none" stroke="#bfbfbf" points="1787,-112.5 1787,-131.5 1828,-131.5 1828,-112.5 1787,-112.5"/>
<text text-anchor="middle" x="1807.5" y="-119.5" font-family="Helvetica,sans-Serif" font-size="10.00" fill="#000000">tuple</text>
</g>
<!-- Node33&#45;&gt;Node36 -->
<g id="edge54" class="edge">
<title>Node33&#45;&gt;Node36</title>
<path fill="none" stroke="#191970" d="M1799.2419,-168.2455C1800.5467,-160.9382 1802.376,-150.6944 1803.9813,-141.7046"/>
<polygon fill="#191970" stroke="#191970" points="1807.4656,-142.1022 1805.7781,-131.6427 1800.5746,-140.8717 1807.4656,-142.1022"/>
</g>
<!-- Node38 -->
<g id="node39" class="node">
<title>Node38</title>
<polygon fill="none" stroke="#bfbfbf" points="1558.5,-112.5 1558.5,-131.5 1612.5,-131.5 1612.5,-112.5 1558.5,-112.5"/>
<text text-anchor="middle" x="1585.5" y="-119.5" font-family="Helvetica,sans-Serif" font-size="10.00" fill="#000000">ciso646</text>
</g>
<!-- Node37&#45;&gt;Node38 -->
<g id="edge56" class="edge">
<title>Node37&#45;&gt;Node38</title>
<path fill="none" stroke="#191970" d="M1651.5651,-168.2455C1639.4053,-159.7337 1621.5536,-147.2375 1607.4715,-137.3801"/>
<polygon fill="#191970" stroke="#191970" points="1609.4747,-134.51 1599.2752,-131.6427 1605.4605,-140.2447 1609.4747,-134.51"/>
</g>
<!-- Node40&#45;&gt;Node2 -->
<g id="edge60" class="edge">
<title>Node40&#45;&gt;Node2</title>
<path fill="none" stroke="#191970" d="M1809.9212,-224.18C1819.5016,-215.7529 1832.0135,-202.6707 1837.5,-188 1849.3317,-156.3622 1860.8065,-136.4488 1837.5,-112 1804.7927,-77.6897 1074.27,-68.0565 909.3706,-66.3157"/>
<polygon fill="#191970" stroke="#191970" points="908.9506,-62.8113 898.9151,-66.208 908.8785,-69.8109 908.9506,-62.8113"/>
</g>
<!-- Node40&#45;&gt;Node16 -->
<g id="edge61" class="edge">
<title>Node40&#45;&gt;Node16</title>
<path fill="none" stroke="#191970" d="M1789.6585,-224.1358C1776.8561,-208.878 1749.8309,-180.0574 1719.5,-168 1583.005,-113.7393 1206.1054,-141.0532 1059.5,-132 1028.5696,-130.09 993.9454,-127.7111 966.2897,-125.7529"/>
<polygon fill="#191970" stroke="#191970" points="966.277,-122.2432 956.0538,-125.0248 965.7802,-129.2256 966.277,-122.2432"/>
</g>
<!-- Node40&#45;&gt;Node33 -->
<g id="edge62" class="edge">
<title>Node40&#45;&gt;Node33</title>
<path fill="none" stroke="#191970" d="M1797.5,-224.2455C1797.5,-216.9382 1797.5,-206.6944 1797.5,-197.7046"/>
<polygon fill="#191970" stroke="#191970" points="1801.0001,-197.6426 1797.5,-187.6427 1794.0001,-197.6427 1801.0001,-197.6426"/>
</g>
<!-- Node41 -->
<g id="node42" class="node">
<title>Node41</title>
<polygon fill="none" stroke="#bfbfbf" points="1989,-168.5 1989,-187.5 2042,-187.5 2042,-168.5 1989,-168.5"/>
<text text-anchor="middle" x="2015.5" y="-175.5" font-family="Helvetica,sans-Serif" font-size="10.00" fill="#000000">cstddef</text>
</g>
<!-- Node40&#45;&gt;Node41 -->
<g id="edge63" class="edge">
<title>Node40&#45;&gt;Node41</title>
<path fill="none" stroke="#191970" d="M1836.267,-224.4805C1871.0698,-215.8723 1923.8029,-202.6767 1978.8463,-188.1304"/>
<polygon fill="#191970" stroke="#191970" points="1980.0133,-191.442 1988.7826,-185.4963 1978.2196,-184.6757 1980.0133,-191.442"/>
</g>
</g>
</svg>
        <g id="navigator" transform="translate(0 0)" fill="#404254">
                <rect fill="#f2f5e9" fill-opacity="0.5" stroke="#606060" stroke-width=".5" x="0" y="0" width="60" height="60"/>
                <use id="zoomplus" xlink:href="#zoomPlus" x="17" y="9" onmousedown="handleZoom(evt,'in')"/>
                <use id="zoomminus" xlink:href="#zoomMin" x="42" y="9" onmousedown="handleZoom(evt,'out')"/>
                <use id="reset" xlink:href="#resetDef" x="30" y="36" onmousedown="handleReset()"/>
                <g id="arrowUp" xlink:href="#dirArrow" transform="translate(30 24)" onmousedown="handlePan(0,-1)">
                  <use xlink:href="#rim" fill="#404040">
                        <set attributeName="fill" to="#808080" begin="arrowUp.mouseover" end="arrowUp.mouseout"/>
                  </use>
                  <path fill="none" stroke="white" stroke-width="1.5" d="M0,-3.0v7 M-2.5,-0.5L0,-3.0L2.5,-0.5"/>
                </g>
                <g id="arrowRight" xlink:href="#dirArrow" transform="rotate(90) translate(36 -43)" onmousedown="handlePan(1,0)">
                  <use xlink:href="#rim" fill="#404040">
                        <set attributeName="fill" to="#808080" begin="arrowRight.mouseover" end="arrowRight.mouseout"/>
                  </use>
                  <path fill="none" stroke="white" stroke-width="1.5" d="M0,-3.0v7 M-2.5,-0.5L0,-3.0L2.5,-0.5"/>
                </g>
                <g id="arrowDown" xlink:href="#dirArrow" transform="rotate(180) translate(-30 -48)" onmousedown="handlePan(0,1)">
                  <use xlink:href="#rim" fill="#404040">
                        <set attributeName="fill" to="#808080" begin="arrowDown.mouseover" end="arrowDown.mouseout"/>
                  </use>
                  <path fill="none" stroke="white" stroke-width="1.5" d="M0,-3.0v7 M-2.5,-0.5L0,-3.0L2.5,-0.5"/>
                </g>
                <g id="arrowLeft" xlink:href="#dirArrow" transform="rotate(270) translate(-36 17)" onmousedown="handlePan(-1,0)">
                  <use xlink:href="#rim" fill="#404040">
                        <set attributeName="fill" to="#808080" begin="arrowLeft.mouseover" end="arrowLeft.mouseout"/>
                  </use>
                  <path fill="none" stroke="white" stroke-width="1.5" d="M0,-3.0v7 M-2.5,-0.5L0,-3.0L2.5,-0.5"/>
                </g>
        </g>
        <svg viewBox="0 0 15 15" width="100%" height="30px" preserveAspectRatio="xMaxYMin meet">
         <g id="arrow_out" transform="scale(0.3 0.3)">
          <a xlink:href="Text_8cxx__incl_org.svg" target="_base">
           <rect id="button" ry="5" rx="5" y="6" x="6" height="38" width="38"
                fill="#f2f5e9" fill-opacity="0.5" stroke="#606060" stroke-width="1.0"/>
           <path id="arrow"
             d="M 11.500037,31.436501 C 11.940474,20.09759 22.043105,11.32322 32.158766,21.979434 L 37.068811,17.246167 C 37.068811,17.246167 37.088388,32 37.088388,32 L 22.160133,31.978069 C 22.160133,31.978069 26.997745,27.140456 26.997745,27.140456 C 18.528582,18.264221 13.291696,25.230495 11.500037,31.436501 z"
             style="fill:#404040;"/>
          </a>
         </g>
        </svg>
</svg>
