<?xml version="1.0" encoding="UTF-8" standalone="no"?>
<!DOCTYPE svg PUBLIC "-//W3C//DTD SVG 1.1//EN"
 "http://www.w3.org/Graphics/SVG/1.1/DTD/svg11.dtd">
<!-- Generated by graphviz version 2.40.1 (20161225.0304)
 -->
<!-- Title: src/engine/ui/widgets/TextField.hxx Pages: 1 -->
<!--zoomable 431 -->
<svg id="main" version="1.1" xmlns="http://www.w3.org/2000/svg" xmlns:xlink="http://www.w3.org/1999/xlink" xml:space="preserve" onload="init(evt)">
<style type="text/css"><![CDATA[
.edge:hover path { stroke: red; }
.edge:hover polygon { stroke: red; fill: red; }
]]></style>
<script type="text/javascript"><![CDATA[
var edges = document.getElementsByTagName('g');
if (edges && edges.length) {
  for (var i=0;i<edges.length;i++) {
    if (edges[i].id.substr(0,4)=='edge') {
      edges[i].setAttribute('class','edge');
    }
  }
}
]]></script>
        <defs>
                <circle id="rim" cx="0" cy="0" r="7"/>
                <circle id="rim2" cx="0" cy="0" r="3.5"/>
                <g id="zoomPlus">
                        <use xlink:href="#rim" fill="#404040">
                                <set attributeName="fill" to="#808080" begin="zoomplus.mouseover" end="zoomplus.mouseout"/>
                        </use>
                        <path d="M-4,0h8M0,-4v8" fill="none" stroke="white" stroke-width="1.5" pointer-events="none"/>
                </g>
                <g id="zoomMin">
                        <use xlink:href="#rim" fill="#404040">
                                <set attributeName="fill" to="#808080" begin="zoomminus.mouseover" end="zoomminus.mouseout"/>
                        </use>
                        <path d="M-4,0h8" fill="none" stroke="white" stroke-width="1.5" pointer-events="none"/>
                </g>
                <g id="dirArrow">
                        <path fill="none" stroke="white" stroke-width="1.5" d="M0,-3.0v7 M-2.5,-0.5L0,-3.0L2.5,-0.5"/>
                </g>
               <g id="resetDef">
                       <use xlink:href="#rim2" fill="#404040">
                               <set attributeName="fill" to="#808080" begin="reset.mouseover" end="reset.mouseout"/>
                       </use>
               </g>
        </defs>

<script type="text/javascript">
var viewWidth = 1261;
var viewHeight = 431;
var sectionId = 'dynsection-0';
</script>
<script xlink:href="svgpan.js"/>
<svg id="graph" class="graph">
<g id="viewport">
<title>src/engine/ui/widgets/TextField.hxx</title>
<!-- Node0 -->
<g id="node1" class="node">
<title>Node0</title>
<polygon fill="#bfbfbf" stroke="#000000" points="138,-392.5 138,-422.5 258,-422.5 258,-392.5 138,-392.5"/>
<text text-anchor="start" x="146" y="-410.5" font-family="Helvetica,sans-Serif" font-size="10.00" fill="#000000">src/engine/ui/widgets</text>
<text text-anchor="middle" x="198" y="-399.5" font-family="Helvetica,sans-Serif" font-size="10.00" fill="#000000">/TextField.hxx</text>
</g>
<!-- Node1 -->
<g id="node2" class="node">
<title>Node1</title>
<g id="a_node2"><a xlink:href="UIElement_8hxx.html" target="_top" xlink:title="../basics/UIElement.hxx">
<polygon fill="none" stroke="#000000" points="161.5,-280.5 161.5,-299.5 292.5,-299.5 292.5,-280.5 161.5,-280.5"/>
<text text-anchor="middle" x="227" y="-287.5" font-family="Helvetica,sans-Serif" font-size="10.00" fill="#000000">../basics/UIElement.hxx</text>
</a>
</g>
</g>
<!-- Node0&#45;&gt;Node1 -->
<g id="edge1" class="edge">
<title>Node0&#45;&gt;Node1</title>
<path fill="none" stroke="#191970" d="M201.7912,-392.1389C207.0398,-370.873 216.518,-332.4702 222.2377,-309.2956"/>
<polygon fill="#191970" stroke="#191970" points="225.6424,-310.1068 224.6406,-299.5595 218.8463,-308.4295 225.6424,-310.1068"/>
</g>
<!-- Node23 -->
<g id="node24" class="node">
<title>Node23</title>
<g id="a_node24"><a xlink:href="Text_8hxx.html" target="_top" xlink:title="Text.hxx">
<polygon fill="none" stroke="#000000" points="141,-336.5 141,-355.5 199,-355.5 199,-336.5 141,-336.5"/>
<text text-anchor="middle" x="170" y="-343.5" font-family="Helvetica,sans-Serif" font-size="10.00" fill="#000000">Text.hxx</text>
</a>
</g>
</g>
<!-- Node0&#45;&gt;Node23 -->
<g id="edge35" class="edge">
<title>Node0&#45;&gt;Node23</title>
<path fill="none" stroke="#191970" d="M191.0786,-392.2977C187.3539,-384.1166 182.722,-373.943 178.7496,-365.2179"/>
<polygon fill="#191970" stroke="#191970" points="181.8122,-363.4978 174.4832,-355.8469 175.4414,-366.3983 181.8122,-363.4978"/>
</g>
<!-- Node2 -->
<g id="node3" class="node">
<title>Node2</title>
<polygon fill="none" stroke="#bfbfbf" points="128,-56.5 128,-75.5 172,-75.5 172,-56.5 128,-56.5"/>
<text text-anchor="middle" x="150" y="-63.5" font-family="Helvetica,sans-Serif" font-size="10.00" fill="#000000">string</text>
</g>
<!-- Node1&#45;&gt;Node2 -->
<g id="edge2" class="edge">
<title>Node1&#45;&gt;Node2</title>
<path fill="none" stroke="#191970" d="M216.1069,-280.3385C198.192,-263.6329 163.1821,-227.3411 150,-188 138.3872,-153.3425 142.4308,-109.9718 146.2998,-85.384"/>
<polygon fill="#191970" stroke="#191970" points="149.7525,-85.9577 148.0083,-75.5074 142.855,-84.7645 149.7525,-85.9577"/>
</g>
<!-- Node3 -->
<g id="node4" class="node">
<title>Node3</title>
<g id="a_node4"><a xlink:href="mapEdit_8hxx.html" target="_top" xlink:title="../../basics/mapEdit.hxx">
<polygon fill="none" stroke="#000000" points="28,-224.5 28,-243.5 158,-243.5 158,-224.5 28,-224.5"/>
<text text-anchor="middle" x="93" y="-231.5" font-family="Helvetica,sans-Serif" font-size="10.00" fill="#000000">../../basics/mapEdit.hxx</text>
</a>
</g>
</g>
<!-- Node1&#45;&gt;Node3 -->
<g id="edge3" class="edge">
<title>Node1&#45;&gt;Node3</title>
<path fill="none" stroke="#191970" d="M203.9646,-280.3733C182.2612,-271.3032 149.5382,-257.6279 125.245,-247.4755"/>
<polygon fill="#191970" stroke="#191970" points="126.3111,-244.1278 115.7348,-243.5011 123.6119,-250.5865 126.3111,-244.1278"/>
</g>
<!-- Node4 -->
<g id="node5" class="node">
<title>Node4</title>
<g id="a_node5"><a xlink:href="ResourcesManager_8hxx.html" target="_top" xlink:title="../../ResourcesManager.hxx">
<polygon fill="none" stroke="#000000" points="389,-224.5 389,-243.5 535,-243.5 535,-224.5 389,-224.5"/>
<text text-anchor="middle" x="462" y="-231.5" font-family="Helvetica,sans-Serif" font-size="10.00" fill="#000000">../../ResourcesManager.hxx</text>
</a>
</g>
</g>
<!-- Node1&#45;&gt;Node4 -->
<g id="edge5" class="edge">
<title>Node1&#45;&gt;Node4</title>
<path fill="none" stroke="#191970" d="M267.1309,-280.4369C307.2649,-270.8731 369.0775,-256.1432 412.2933,-245.845"/>
<polygon fill="#191970" stroke="#191970" points="413.1183,-249.2465 422.0346,-243.5237 411.4956,-242.4372 413.1183,-249.2465"/>
</g>
<!-- Node7 -->
<g id="node8" class="node">
<title>Node7</title>
<polygon fill="none" stroke="#bfbfbf" points="313,-112.5 313,-131.5 357,-131.5 357,-112.5 313,-112.5"/>
<text text-anchor="middle" x="335" y="-119.5" font-family="Helvetica,sans-Serif" font-size="10.00" fill="#000000">SDL.h</text>
</g>
<!-- Node1&#45;&gt;Node7 -->
<g id="edge34" class="edge">
<title>Node1&#45;&gt;Node7</title>
<path fill="none" stroke="#191970" d="M235.3724,-280.3543C250.3559,-262.7977 282.2221,-224.0956 304,-188 313.172,-172.7979 321.5986,-154.4435 327.3436,-140.9535"/>
<polygon fill="#191970" stroke="#191970" points="330.5758,-142.2961 331.1821,-131.7186 324.112,-139.6093 330.5758,-142.2961"/>
</g>
<!-- Node17 -->
<g id="node18" class="node">
<title>Node17</title>
<g id="a_node18"><a xlink:href="WindowManager_8hxx.html" target="_top" xlink:title="../../WindowManager.hxx">
<polygon fill="none" stroke="#000000" points="159,-168.5 159,-187.5 295,-187.5 295,-168.5 159,-168.5"/>
<text text-anchor="middle" x="227" y="-175.5" font-family="Helvetica,sans-Serif" font-size="10.00" fill="#000000">../../WindowManager.hxx</text>
</a>
</g>
</g>
<!-- Node1&#45;&gt;Node17 -->
<g id="edge22" class="edge">
<title>Node1&#45;&gt;Node17</title>
<path fill="none" stroke="#191970" d="M227,-280.4509C227,-262.184 227,-221.9553 227,-197.6976"/>
<polygon fill="#191970" stroke="#191970" points="230.5001,-197.5249 227,-187.5249 223.5001,-197.5249 230.5001,-197.5249"/>
</g>
<!-- Node18 -->
<g id="node19" class="node">
<title>Node18</title>
<g id="a_node19"><a xlink:href="signal_8hxx.html" target="_top" xlink:title="../../basics/signal.hxx">
<polygon fill="none" stroke="#000000" points="968.5,-224.5 968.5,-243.5 1087.5,-243.5 1087.5,-224.5 968.5,-224.5"/>
<text text-anchor="middle" x="1028" y="-231.5" font-family="Helvetica,sans-Serif" font-size="10.00" fill="#000000">../../basics/signal.hxx</text>
</a>
</g>
</g>
<!-- Node1&#45;&gt;Node18 -->
<g id="edge28" class="edge">
<title>Node1&#45;&gt;Node18</title>
<path fill="none" stroke="#191970" d="M292.5492,-285.4173C441.6604,-274.9925 805.1428,-249.5805 958.2193,-238.8786"/>
<polygon fill="#191970" stroke="#191970" points="958.7011,-242.3535 968.4326,-238.1645 958.2129,-235.3705 958.7011,-242.3535"/>
</g>
<!-- Node3&#45;&gt;Node2 -->
<g id="edge4" class="edge">
<title>Node3&#45;&gt;Node2</title>
<path fill="none" stroke="#191970" d="M93.5031,-224.4124C94.9029,-203.2772 99.945,-151.4264 117,-112 121.3558,-101.9306 128.1872,-91.8966 134.5072,-83.7816"/>
<polygon fill="#191970" stroke="#191970" points="137.3992,-85.7741 141.0229,-75.8182 131.9816,-81.3413 137.3992,-85.7741"/>
</g>
<!-- Node5 -->
<g id="node6" class="node">
<title>Node5</title>
<polygon fill="none" stroke="#bfbfbf" points="235,-112.5 235,-131.5 295,-131.5 295,-112.5 235,-112.5"/>
<text text-anchor="middle" x="265" y="-119.5" font-family="Helvetica,sans-Serif" font-size="10.00" fill="#000000">iostream</text>
</g>
<!-- Node4&#45;&gt;Node5 -->
<g id="edge6" class="edge">
<title>Node4&#45;&gt;Node5</title>
<path fill="none" stroke="#191970" d="M445.2039,-224.4509C410.6747,-204.8201 331.533,-159.8259 290.5875,-136.5472"/>
<polygon fill="#191970" stroke="#191970" points="292.1767,-133.4247 281.7536,-131.5249 288.717,-139.51 292.1767,-133.4247"/>
</g>
<!-- Node6 -->
<g id="node7" class="node">
<title>Node6</title>
<polygon fill="none" stroke="#bfbfbf" points="829.5,-112.5 829.5,-131.5 922.5,-131.5 922.5,-112.5 829.5,-112.5"/>
<text text-anchor="middle" x="876" y="-119.5" font-family="Helvetica,sans-Serif" font-size="10.00" fill="#000000">unordered_map</text>
</g>
<!-- Node4&#45;&gt;Node6 -->
<g id="edge7" class="edge">
<title>Node4&#45;&gt;Node6</title>
<path fill="none" stroke="#191970" d="M497.2974,-224.4509C572.3819,-204.1382 747.8471,-156.6694 830.8965,-134.2019"/>
<polygon fill="#191970" stroke="#191970" points="832.053,-137.5149 840.7919,-131.5249 830.2249,-130.7578 832.053,-137.5149"/>
</g>
<!-- Node4&#45;&gt;Node7 -->
<g id="edge8" class="edge">
<title>Node4&#45;&gt;Node7</title>
<path fill="none" stroke="#191970" d="M451.1721,-224.4509C429.4276,-205.2747 380.2395,-161.8962 353.3683,-138.1988"/>
<polygon fill="#191970" stroke="#191970" points="355.6157,-135.5141 345.8005,-131.5249 350.9857,-140.7642 355.6157,-135.5141"/>
</g>
<!-- Node8 -->
<g id="node9" class="node">
<title>Node8</title>
<g id="a_node9"><a xlink:href="TileManager_8hxx.html" target="_top" xlink:title="TileManager.hxx">
<polygon fill="none" stroke="#000000" points="466.5,-168.5 466.5,-187.5 563.5,-187.5 563.5,-168.5 466.5,-168.5"/>
<text text-anchor="middle" x="515" y="-175.5" font-family="Helvetica,sans-Serif" font-size="10.00" fill="#000000">TileManager.hxx</text>
</a>
</g>
</g>
<!-- Node4&#45;&gt;Node8 -->
<g id="edge9" class="edge">
<title>Node4&#45;&gt;Node8</title>
<path fill="none" stroke="#191970" d="M471.2319,-224.2455C478.8317,-216.2155 489.7877,-204.6394 498.8368,-195.0781"/>
<polygon fill="#191970" stroke="#191970" points="501.5421,-197.3115 505.8739,-187.6427 496.458,-192.4998 501.5421,-197.3115"/>
</g>
<!-- Node8&#45;&gt;Node2 -->
<g id="edge12" class="edge">
<title>Node8&#45;&gt;Node2</title>
<path fill="none" stroke="#191970" d="M511.1812,-168.4735C504.7088,-153.6785 490.0952,-125.4805 468,-112 420.4407,-82.9836 253.4991,-71.2428 182.4276,-67.4841"/>
<polygon fill="#191970" stroke="#191970" points="182.4343,-63.98 172.2693,-66.967 182.0784,-70.9709 182.4343,-63.98"/>
</g>
<!-- Node8&#45;&gt;Node6 -->
<g id="edge11" class="edge">
<title>Node8&#45;&gt;Node6</title>
<path fill="none" stroke="#191970" d="M563.5653,-171.168C621.9722,-162.8472 723.2375,-148.0897 819.3291,-132.2443"/>
<polygon fill="#191970" stroke="#191970" points="819.9154,-135.695 829.2092,-130.6081 818.7717,-128.789 819.9154,-135.695"/>
</g>
<!-- Node8&#45;&gt;Node7 -->
<g id="edge10" class="edge">
<title>Node8&#45;&gt;Node7</title>
<path fill="none" stroke="#191970" d="M484.383,-168.499C454.451,-159.207 407.5875,-144.6493 367,-132 366.8993,-131.9686 366.7984,-131.9372 366.6973,-131.9057"/>
<polygon fill="#191970" stroke="#191970" points="367.6211,-128.5276 357.0325,-128.89 365.5361,-135.2098 367.6211,-128.5276"/>
</g>
<!-- Node9 -->
<g id="node10" class="node">
<title>Node9</title>
<g id="a_node10"><a xlink:href="tileData_8hxx.html" target="_top" xlink:title="tileData.hxx">
<polygon fill="none" stroke="#000000" points="734.5,-112.5 734.5,-131.5 811.5,-131.5 811.5,-112.5 734.5,-112.5"/>
<text text-anchor="middle" x="773" y="-119.5" font-family="Helvetica,sans-Serif" font-size="10.00" fill="#000000">tileData.hxx</text>
</a>
</g>
</g>
<!-- Node8&#45;&gt;Node9 -->
<g id="edge13" class="edge">
<title>Node8&#45;&gt;Node9</title>
<path fill="none" stroke="#191970" d="M559.0586,-168.4369C604.9151,-158.4835 676.5502,-142.9349 724.1208,-132.6094"/>
<polygon fill="#191970" stroke="#191970" points="725.1539,-135.9668 734.1839,-130.4252 723.669,-129.1261 725.1539,-135.9668"/>
</g>
<!-- Node14 -->
<g id="node15" class="node">
<title>Node14</title>
<polygon fill="none" stroke="#bfbfbf" points="515,-112.5 515,-131.5 573,-131.5 573,-112.5 515,-112.5"/>
<text text-anchor="middle" x="544" y="-119.5" font-family="Helvetica,sans-Serif" font-size="10.00" fill="#000000">json.hxx</text>
</g>
<!-- Node8&#45;&gt;Node14 -->
<g id="edge19" class="edge">
<title>Node8&#45;&gt;Node14</title>
<path fill="none" stroke="#191970" d="M520.0514,-168.2455C524.0019,-160.617 529.6097,-149.7881 534.4058,-140.5267"/>
<polygon fill="#191970" stroke="#191970" points="537.5159,-142.1321 539.0065,-131.6427 531.2999,-138.9131 537.5159,-142.1321"/>
</g>
<!-- Node15 -->
<g id="node16" class="node">
<title>Node15</title>
<g id="a_node16"><a xlink:href="Singleton_8hxx.html" target="_top" xlink:title="Singleton.hxx">
<polygon fill="none" stroke="#000000" points="375.5,-112.5 375.5,-131.5 458.5,-131.5 458.5,-112.5 375.5,-112.5"/>
<text text-anchor="middle" x="417" y="-119.5" font-family="Helvetica,sans-Serif" font-size="10.00" fill="#000000">Singleton.hxx</text>
</a>
</g>
</g>
<!-- Node8&#45;&gt;Node15 -->
<g id="edge20" class="edge">
<title>Node8&#45;&gt;Node15</title>
<path fill="none" stroke="#191970" d="M497.9297,-168.2455C482.753,-159.5731 460.3379,-146.7645 442.9437,-136.825"/>
<polygon fill="#191970" stroke="#191970" points="444.2936,-133.5653 433.8747,-131.6427 440.8206,-139.643 444.2936,-133.5653"/>
</g>
<!-- Node16 -->
<g id="node17" class="node">
<title>Node16</title>
<polygon fill="none" stroke="#bfbfbf" points="591.5,-112.5 591.5,-131.5 716.5,-131.5 716.5,-112.5 591.5,-112.5"/>
<text text-anchor="middle" x="654" y="-119.5" font-family="Helvetica,sans-Serif" font-size="10.00" fill="#000000">../common/enums.hxx</text>
</g>
<!-- Node8&#45;&gt;Node16 -->
<g id="edge21" class="edge">
<title>Node8&#45;&gt;Node16</title>
<path fill="none" stroke="#191970" d="M538.895,-168.3733C561.5082,-159.2629 595.6542,-145.5062 620.8873,-135.3404"/>
<polygon fill="#191970" stroke="#191970" points="622.4493,-138.4845 630.4169,-131.5011 619.8334,-131.9917 622.4493,-138.4845"/>
</g>
<!-- Node9&#45;&gt;Node2 -->
<g id="edge14" class="edge">
<title>Node9&#45;&gt;Node2</title>
<path fill="none" stroke="#191970" d="M734.3431,-113.3591C731.5271,-112.8576 728.7242,-112.3969 726,-112 520.1611,-82.0126 269.8848,-70.4247 182.1967,-67.1034"/>
<polygon fill="#191970" stroke="#191970" points="182.2104,-63.6016 172.0881,-66.7302 181.9521,-70.5969 182.2104,-63.6016"/>
</g>
<!-- Node10 -->
<g id="node11" class="node">
<title>Node10</title>
<polygon fill="none" stroke="#bfbfbf" points="787.5,-56.5 787.5,-75.5 834.5,-75.5 834.5,-56.5 787.5,-56.5"/>
<text text-anchor="middle" x="811" y="-63.5" font-family="Helvetica,sans-Serif" font-size="10.00" fill="#000000">vector</text>
</g>
<!-- Node9&#45;&gt;Node10 -->
<g id="edge15" class="edge">
<title>Node9&#45;&gt;Node10</title>
<path fill="none" stroke="#191970" d="M779.6191,-112.2455C784.9046,-104.4564 792.4541,-93.3308 798.8238,-83.9439"/>
<polygon fill="#191970" stroke="#191970" points="801.7379,-85.8827 804.4568,-75.6427 795.9455,-81.9522 801.7379,-85.8827"/>
</g>
<!-- Node11 -->
<g id="node12" class="node">
<title>Node11</title>
<g id="a_node12"><a xlink:href="enums_8hxx.html" target="_top" xlink:title="enums.hxx">
<polygon fill="none" stroke="#000000" points="698.5,-56.5 698.5,-75.5 769.5,-75.5 769.5,-56.5 698.5,-56.5"/>
<text text-anchor="middle" x="734" y="-63.5" font-family="Helvetica,sans-Serif" font-size="10.00" fill="#000000">enums.hxx</text>
</a>
</g>
</g>
<!-- Node9&#45;&gt;Node11 -->
<g id="edge16" class="edge">
<title>Node9&#45;&gt;Node11</title>
<path fill="none" stroke="#191970" d="M766.2067,-112.2455C760.7822,-104.4564 753.0339,-93.3308 746.4967,-83.9439"/>
<polygon fill="#191970" stroke="#191970" points="749.3025,-81.8485 740.7154,-75.6427 743.5583,-85.849 749.3025,-81.8485"/>
</g>
<!-- Node12 -->
<g id="node13" class="node">
<title>Node12</title>
<polygon fill="none" stroke="#bfbfbf" points="658,-.5 658,-19.5 714,-19.5 714,-.5 658,-.5"/>
<text text-anchor="middle" x="686" y="-7.5" font-family="Helvetica,sans-Serif" font-size="10.00" fill="#000000">stddef.h</text>
</g>
<!-- Node11&#45;&gt;Node12 -->
<g id="edge17" class="edge">
<title>Node11&#45;&gt;Node12</title>
<path fill="none" stroke="#191970" d="M725.639,-56.2455C718.825,-48.2958 709.0319,-36.8706 700.8848,-27.3656"/>
<polygon fill="#191970" stroke="#191970" points="703.4305,-24.9575 694.2651,-19.6427 698.1157,-29.513 703.4305,-24.9575"/>
</g>
<!-- Node13 -->
<g id="node14" class="node">
<title>Node13</title>
<polygon fill="none" stroke="#bfbfbf" points="732,-.5 732,-19.5 832,-19.5 832,-.5 732,-.5"/>
<text text-anchor="middle" x="782" y="-7.5" font-family="Helvetica,sans-Serif" font-size="10.00" fill="#000000">betterEnums.hxx</text>
</g>
<!-- Node11&#45;&gt;Node13 -->
<g id="edge18" class="edge">
<title>Node11&#45;&gt;Node13</title>
<path fill="none" stroke="#191970" d="M742.361,-56.2455C749.175,-48.2958 758.9681,-36.8706 767.1152,-27.3656"/>
<polygon fill="#191970" stroke="#191970" points="769.8843,-29.513 773.7349,-19.6427 764.5695,-24.9575 769.8843,-29.513"/>
</g>
<!-- Node17&#45;&gt;Node2 -->
<g id="edge23" class="edge">
<title>Node17&#45;&gt;Node2</title>
<path fill="none" stroke="#191970" d="M219.5341,-168.2515C212.5289,-159.0228 201.8364,-144.7248 193,-132 181.9527,-116.0914 169.9683,-97.5852 161.4647,-84.2243"/>
<polygon fill="#191970" stroke="#191970" points="164.2575,-82.0925 155.9511,-75.5157 158.3432,-85.8369 164.2575,-82.0925"/>
</g>
<!-- Node17&#45;&gt;Node5 -->
<g id="edge24" class="edge">
<title>Node17&#45;&gt;Node5</title>
<path fill="none" stroke="#191970" d="M233.6191,-168.2455C238.9046,-160.4564 246.4541,-149.3308 252.8238,-139.9439"/>
<polygon fill="#191970" stroke="#191970" points="255.7379,-141.8827 258.4568,-131.6427 249.9455,-137.9522 255.7379,-141.8827"/>
</g>
<!-- Node17&#45;&gt;Node7 -->
<g id="edge26" class="edge">
<title>Node17&#45;&gt;Node7</title>
<path fill="none" stroke="#191970" d="M245.8122,-168.2455C262.8473,-159.4125 288.1575,-146.2887 307.4681,-136.2758"/>
<polygon fill="#191970" stroke="#191970" points="309.137,-139.353 316.4034,-131.6427 305.9147,-133.1388 309.137,-139.353"/>
</g>
<!-- Node17&#45;&gt;Node10 -->
<g id="edge25" class="edge">
<title>Node17&#45;&gt;Node10</title>
<path fill="none" stroke="#191970" d="M223.2229,-168.459C218.2609,-154.1572 211.7393,-127.2193 226,-112 266.4161,-68.8673 683.0546,-85.7499 777.3296,-75.4961"/>
<polygon fill="#191970" stroke="#191970" points="777.9853,-78.9381 787.3929,-74.0651 776.9997,-72.0078 777.9853,-78.9381"/>
</g>
<!-- Node17&#45;&gt;Node15 -->
<g id="edge27" class="edge">
<title>Node17&#45;&gt;Node15</title>
<path fill="none" stroke="#191970" d="M259.6622,-168.3733C291.5298,-158.9807 340.1531,-144.6496 374.907,-134.4064"/>
<polygon fill="#191970" stroke="#191970" points="376.1615,-137.6855 384.764,-131.5011 374.1825,-130.9711 376.1615,-137.6855"/>
</g>
<!-- Node18&#45;&gt;Node10 -->
<g id="edge32" class="edge">
<title>Node18&#45;&gt;Node10</title>
<path fill="none" stroke="#191970" d="M1012.3986,-224.4007C999.738,-216.0103 982.0702,-202.8664 970,-188 946.1963,-158.6818 960.0094,-137.3307 932,-112 907.4258,-89.776 871.0255,-77.8933 844.5705,-71.8115"/>
<polygon fill="#191970" stroke="#191970" points="845.1224,-68.3505 834.612,-69.6856 843.6609,-75.1963 845.1224,-68.3505"/>
</g>
<!-- Node19 -->
<g id="node20" class="node">
<title>Node19</title>
<polygon fill="none" stroke="#bfbfbf" points="1111,-168.5 1111,-187.5 1169,-187.5 1169,-168.5 1111,-168.5"/>
<text text-anchor="middle" x="1140" y="-175.5" font-family="Helvetica,sans-Serif" font-size="10.00" fill="#000000">memory</text>
</g>
<!-- Node18&#45;&gt;Node19 -->
<g id="edge29" class="edge">
<title>Node18&#45;&gt;Node19</title>
<path fill="none" stroke="#191970" d="M1047.2535,-224.3733C1065.0712,-215.4644 1091.7747,-202.1127 1111.9594,-192.0203"/>
<polygon fill="#191970" stroke="#191970" points="1113.6187,-195.1038 1120.9978,-187.5011 1110.4882,-188.8428 1113.6187,-195.1038"/>
</g>
<!-- Node20 -->
<g id="node21" class="node">
<title>Node20</title>
<polygon fill="none" stroke="#bfbfbf" points="1187.5,-168.5 1187.5,-187.5 1252.5,-187.5 1252.5,-168.5 1187.5,-168.5"/>
<text text-anchor="middle" x="1220" y="-175.5" font-family="Helvetica,sans-Serif" font-size="10.00" fill="#000000">functional</text>
</g>
<!-- Node18&#45;&gt;Node20 -->
<g id="edge30" class="edge">
<title>Node18&#45;&gt;Node20</title>
<path fill="none" stroke="#191970" d="M1061.006,-224.3733C1093.2091,-214.9807 1142.3442,-200.6496 1177.4639,-190.4064"/>
<polygon fill="#191970" stroke="#191970" points="1178.8047,-193.6612 1187.4247,-187.5011 1176.8447,-186.9412 1178.8047,-193.6612"/>
</g>
<!-- Node21 -->
<g id="node22" class="node">
<title>Node21</title>
<polygon fill="none" stroke="#bfbfbf" points="979,-168.5 979,-187.5 1011,-187.5 1011,-168.5 979,-168.5"/>
<text text-anchor="middle" x="995" y="-175.5" font-family="Helvetica,sans-Serif" font-size="10.00" fill="#000000">list</text>
</g>
<!-- Node18&#45;&gt;Node21 -->
<g id="edge31" class="edge">
<title>Node18&#45;&gt;Node21</title>
<path fill="none" stroke="#191970" d="M1022.2518,-224.2455C1017.7565,-216.617 1011.3752,-205.7881 1005.9175,-196.5267"/>
<polygon fill="#191970" stroke="#191970" points="1008.7747,-194.4811 1000.6823,-187.6427 1002.7439,-198.035 1008.7747,-194.4811"/>
</g>
<!-- Node22 -->
<g id="node23" class="node">
<title>Node22</title>
<polygon fill="none" stroke="#bfbfbf" points="1029,-168.5 1029,-187.5 1093,-187.5 1093,-168.5 1029,-168.5"/>
<text text-anchor="middle" x="1061" y="-175.5" font-family="Helvetica,sans-Serif" font-size="10.00" fill="#000000">algorithm</text>
</g>
<!-- Node18&#45;&gt;Node22 -->
<g id="edge33" class="edge">
<title>Node18&#45;&gt;Node22</title>
<path fill="none" stroke="#191970" d="M1033.7482,-224.2455C1038.2435,-216.617 1044.6248,-205.7881 1050.0825,-196.5267"/>
<polygon fill="#191970" stroke="#191970" points="1053.2561,-198.035 1055.3177,-187.6427 1047.2253,-194.4811 1053.2561,-198.035"/>
</g>
<!-- Node23&#45;&gt;Node1 -->
<g id="edge37" class="edge">
<title>Node23&#45;&gt;Node1</title>
<path fill="none" stroke="#191970" d="M179.9286,-336.2455C188.1838,-328.1352 200.1209,-316.4075 209.9082,-306.7919"/>
<polygon fill="#191970" stroke="#191970" points="212.5046,-309.1476 217.1851,-299.6427 207.5989,-304.1542 212.5046,-309.1476"/>
</g>
<!-- Node23&#45;&gt;Node2 -->
<g id="edge36" class="edge">
<title>Node23&#45;&gt;Node2</title>
<path fill="none" stroke="#191970" d="M140.776,-340.6418C92.1704,-329.8569 0,-300.6223 0,-234 0,-234 0,-234 0,-178 0,-119.5062 74.1416,-87.9013 118.1745,-74.2891"/>
<polygon fill="#191970" stroke="#191970" points="119.265,-77.6166 127.867,-71.4314 117.2854,-70.9023 119.265,-77.6166"/>
</g>
</g>
</svg>
        <g id="navigator" transform="translate(0 0)" fill="#404254">
                <rect fill="#f2f5e9" fill-opacity="0.5" stroke="#606060" stroke-width=".5" x="0" y="0" width="60" height="60"/>
                <use id="zoomplus" xlink:href="#zoomPlus" x="17" y="9" onmousedown="handleZoom(evt,'in')"/>
                <use id="zoomminus" xlink:href="#zoomMin" x="42" y="9" onmousedown="handleZoom(evt,'out')"/>
                <use id="reset" xlink:href="#resetDef" x="30" y="36" onmousedown="handleReset()"/>
                <g id="arrowUp" xlink:href="#dirArrow" transform="translate(30 24)" onmousedown="handlePan(0,-1)">
                  <use xlink:href="#rim" fill="#404040">
                        <set attributeName="fill" to="#808080" begin="arrowUp.mouseover" end="arrowUp.mouseout"/>
                  </use>
                  <path fill="none" stroke="white" stroke-width="1.5" d="M0,-3.0v7 M-2.5,-0.5L0,-3.0L2.5,-0.5"/>
                </g>
                <g id="arrowRight" xlink:href="#dirArrow" transform="rotate(90) translate(36 -43)" onmousedown="handlePan(1,0)">
                  <use xlink:href="#rim" fill="#404040">
                        <set attributeName="fill" to="#808080" begin="arrowRight.mouseover" end="arrowRight.mouseout"/>
                  </use>
                  <path fill="none" stroke="white" stroke-width="1.5" d="M0,-3.0v7 M-2.5,-0.5L0,-3.0L2.5,-0.5"/>
                </g>
                <g id="arrowDown" xlink:href="#dirArrow" transform="rotate(180) translate(-30 -48)" onmousedown="handlePan(0,1)">
                  <use xlink:href="#rim" fill="#404040">
                        <set attributeName="fill" to="#808080" begin="arrowDown.mouseover" end="arrowDown.mouseout"/>
                  </use>
                  <path fill="none" stroke="white" stroke-width="1.5" d="M0,-3.0v7 M-2.5,-0.5L0,-3.0L2.5,-0.5"/>
                </g>
                <g id="arrowLeft" xlink:href="#dirArrow" transform="rotate(270) translate(-36 17)" onmousedown="handlePan(-1,0)">
                  <use xlink:href="#rim" fill="#404040">
                        <set attributeName="fill" to="#808080" begin="arrowLeft.mouseover" end="arrowLeft.mouseout"/>
                  </use>
                  <path fill="none" stroke="white" stroke-width="1.5" d="M0,-3.0v7 M-2.5,-0.5L0,-3.0L2.5,-0.5"/>
                </g>
        </g>
        <svg viewBox="0 0 15 15" width="100%" height="30px" preserveAspectRatio="xMaxYMin meet">
         <g id="arrow_out" transform="scale(0.3 0.3)">
          <a xlink:href="TextField_8hxx__incl_org.svg" target="_base">
           <rect id="button" ry="5" rx="5" y="6" x="6" height="38" width="38"
                fill="#f2f5e9" fill-opacity="0.5" stroke="#606060" stroke-width="1.0"/>
           <path id="arrow"
             d="M 11.500037,31.436501 C 11.940474,20.09759 22.043105,11.32322 32.158766,21.979434 L 37.068811,17.246167 C 37.068811,17.246167 37.088388,32 37.088388,32 L 22.160133,31.978069 C 22.160133,31.978069 26.997745,27.140456 26.997745,27.140456 C 18.528582,18.264221 13.291696,25.230495 11.500037,31.436501 z"
             style="fill:#404040;"/>
          </a>
         </g>
        </svg>
</svg>
