<?xml version="1.0" encoding="UTF-8" standalone="no"?>
<!DOCTYPE svg PUBLIC "-//W3C//DTD SVG 1.1//EN"
 "http://www.w3.org/Graphics/SVG/1.1/DTD/svg11.dtd">
<!-- Generated by graphviz version 2.40.1 (20161225.0304)
 -->
<!-- Title: src/engine/TileManager.hxx Pages: 1 -->
<svg width="619pt" height="196pt"
 viewBox="0.00 0.00 618.50 196.00" xmlns="http://www.w3.org/2000/svg" xmlns:xlink="http://www.w3.org/1999/xlink">
<g id="graph0" class="graph" transform="scale(1 1) rotate(0) translate(4 192)">
<title>src/engine/TileManager.hxx</title>
<!-- Node0 -->
<g id="node1" class="node">
<title>Node0</title>
<polygon fill="#bfbfbf" stroke="#000000" points="176,-168.5 176,-187.5 326,-187.5 326,-168.5 176,-168.5"/>
<text text-anchor="middle" x="251" y="-175.5" font-family="Helvetica,sans-Serif" font-size="10.00" fill="#000000">src/engine/TileManager.hxx</text>
</g>
<!-- Node1 -->
<g id="node2" class="node">
<title>Node1</title>
<polygon fill="none" stroke="#bfbfbf" points="0,-112.5 0,-131.5 44,-131.5 44,-112.5 0,-112.5"/>
<text text-anchor="middle" x="22" y="-119.5" font-family="Helvetica,sans-Serif" font-size="10.00" fill="#000000">SDL.h</text>
</g>
<!-- Node0&#45;&gt;Node1 -->
<g id="edge1" class="edge">
<title>Node0&#45;&gt;Node1</title>
<path fill="none" stroke="#191970" d="M205.113,-168.4811C167.01,-160.3207 111.2112,-147.7815 54.1892,-132.174"/>
<polygon fill="#191970" stroke="#191970" points="54.8548,-128.7268 44.2837,-129.4348 52.989,-135.4736 54.8548,-128.7268"/>
</g>
<!-- Node2 -->
<g id="node3" class="node">
<title>Node2</title>
<polygon fill="none" stroke="#bfbfbf" points="62.5,-112.5 62.5,-131.5 155.5,-131.5 155.5,-112.5 62.5,-112.5"/>
<text text-anchor="middle" x="109" y="-119.5" font-family="Helvetica,sans-Serif" font-size="10.00" fill="#000000">unordered_map</text>
</g>
<!-- Node0&#45;&gt;Node2 -->
<g id="edge2" class="edge">
<title>Node0&#45;&gt;Node2</title>
<path fill="none" stroke="#191970" d="M226.5893,-168.3733C203.3858,-159.2226 168.2962,-145.3844 142.4858,-135.2057"/>
<polygon fill="#191970" stroke="#191970" points="143.6789,-131.9139 133.0921,-131.5011 141.1108,-138.4258 143.6789,-131.9139"/>
</g>
<!-- Node3 -->
<g id="node4" class="node">
<title>Node3</title>
<polygon fill="none" stroke="#bfbfbf" points="163,-56.5 163,-75.5 207,-75.5 207,-56.5 163,-56.5"/>
<text text-anchor="middle" x="185" y="-63.5" font-family="Helvetica,sans-Serif" font-size="10.00" fill="#000000">string</text>
</g>
<!-- Node0&#45;&gt;Node3 -->
<g id="edge3" class="edge">
<title>Node0&#45;&gt;Node3</title>
<path fill="none" stroke="#191970" d="M237.2409,-168.1864C226.4096,-159.7631 211.7308,-146.6828 203,-132 194.5586,-117.8039 189.9767,-99.5556 187.5521,-85.8464"/>
<polygon fill="#191970" stroke="#191970" points="190.955,-84.9439 185.9856,-75.5869 184.0352,-86.0006 190.955,-84.9439"/>
</g>
<!-- Node4 -->
<g id="node5" class="node">
<title>Node4</title>
<g id="a_node5"><a xlink:href="tileData_8hxx.html" target="_top" xlink:title="tileData.hxx">
<polygon fill="none" stroke="#000000" points="212.5,-112.5 212.5,-131.5 289.5,-131.5 289.5,-112.5 212.5,-112.5"/>
<text text-anchor="middle" x="251" y="-119.5" font-family="Helvetica,sans-Serif" font-size="10.00" fill="#000000">tileData.hxx</text>
</a>
</g>
</g>
<!-- Node0&#45;&gt;Node4 -->
<g id="edge4" class="edge">
<title>Node0&#45;&gt;Node4</title>
<path fill="none" stroke="#191970" d="M251,-168.2455C251,-160.9382 251,-150.6944 251,-141.7046"/>
<polygon fill="#191970" stroke="#191970" points="254.5001,-141.6426 251,-131.6427 247.5001,-141.6427 254.5001,-141.6426"/>
</g>
<!-- Node9 -->
<g id="node10" class="node">
<title>Node9</title>
<polygon fill="none" stroke="#bfbfbf" points="308,-112.5 308,-131.5 366,-131.5 366,-112.5 308,-112.5"/>
<text text-anchor="middle" x="337" y="-119.5" font-family="Helvetica,sans-Serif" font-size="10.00" fill="#000000">json.hxx</text>
</g>
<!-- Node0&#45;&gt;Node9 -->
<g id="edge10" class="edge">
<title>Node0&#45;&gt;Node9</title>
<path fill="none" stroke="#191970" d="M265.9801,-168.2455C279.1751,-159.6534 298.6051,-147.0014 313.8079,-137.1018"/>
<polygon fill="#191970" stroke="#191970" points="315.7215,-140.0325 322.1916,-131.6427 311.9017,-134.1665 315.7215,-140.0325"/>
</g>
<!-- Node10 -->
<g id="node11" class="node">
<title>Node10</title>
<g id="a_node11"><a xlink:href="Singleton_8hxx.html" target="_top" xlink:title="Singleton.hxx">
<polygon fill="none" stroke="#000000" points="384.5,-112.5 384.5,-131.5 467.5,-131.5 467.5,-112.5 384.5,-112.5"/>
<text text-anchor="middle" x="426" y="-119.5" font-family="Helvetica,sans-Serif" font-size="10.00" fill="#000000">Singleton.hxx</text>
</a>
</g>
</g>
<!-- Node0&#45;&gt;Node10 -->
<g id="edge11" class="edge">
<title>Node0&#45;&gt;Node10</title>
<path fill="none" stroke="#191970" d="M281.0836,-168.3733C310.1834,-159.0613 354.4523,-144.8953 386.403,-134.671"/>
<polygon fill="#191970" stroke="#191970" points="387.8515,-137.8824 396.309,-131.5011 385.718,-131.2155 387.8515,-137.8824"/>
</g>
<!-- Node11 -->
<g id="node12" class="node">
<title>Node11</title>
<polygon fill="none" stroke="#bfbfbf" points="485.5,-112.5 485.5,-131.5 610.5,-131.5 610.5,-112.5 485.5,-112.5"/>
<text text-anchor="middle" x="548" y="-119.5" font-family="Helvetica,sans-Serif" font-size="10.00" fill="#000000">../common/enums.hxx</text>
</g>
<!-- Node0&#45;&gt;Node11 -->
<g id="edge12" class="edge">
<title>Node0&#45;&gt;Node11</title>
<path fill="none" stroke="#191970" d="M301.7187,-168.4369C353.1886,-158.7321 432.8702,-143.708 487.5784,-133.3926"/>
<polygon fill="#191970" stroke="#191970" points="488.3122,-136.816 497.4905,-131.5237 487.0152,-129.9372 488.3122,-136.816"/>
</g>
<!-- Node4&#45;&gt;Node3 -->
<g id="edge5" class="edge">
<title>Node4&#45;&gt;Node3</title>
<path fill="none" stroke="#191970" d="M239.5037,-112.2455C229.7558,-103.9746 215.5741,-91.9416 204.1202,-82.2232"/>
<polygon fill="#191970" stroke="#191970" points="206.2541,-79.4437 196.3646,-75.6427 201.7253,-84.7813 206.2541,-79.4437"/>
</g>
<!-- Node5 -->
<g id="node6" class="node">
<title>Node5</title>
<polygon fill="none" stroke="#bfbfbf" points="226.5,-56.5 226.5,-75.5 273.5,-75.5 273.5,-56.5 226.5,-56.5"/>
<text text-anchor="middle" x="250" y="-63.5" font-family="Helvetica,sans-Serif" font-size="10.00" fill="#000000">vector</text>
</g>
<!-- Node4&#45;&gt;Node5 -->
<g id="edge6" class="edge">
<title>Node4&#45;&gt;Node5</title>
<path fill="none" stroke="#191970" d="M250.8258,-112.2455C250.6953,-104.9382 250.5124,-94.6944 250.3519,-85.7046"/>
<polygon fill="#191970" stroke="#191970" points="253.8503,-85.5786 250.1722,-75.6427 246.8514,-85.7036 253.8503,-85.5786"/>
</g>
<!-- Node6 -->
<g id="node7" class="node">
<title>Node6</title>
<g id="a_node7"><a xlink:href="enums_8hxx.html" target="_top" xlink:title="enums.hxx">
<polygon fill="none" stroke="#000000" points="291.5,-56.5 291.5,-75.5 362.5,-75.5 362.5,-56.5 291.5,-56.5"/>
<text text-anchor="middle" x="327" y="-63.5" font-family="Helvetica,sans-Serif" font-size="10.00" fill="#000000">enums.hxx</text>
</a>
</g>
</g>
<!-- Node4&#45;&gt;Node6 -->
<g id="edge7" class="edge">
<title>Node4&#45;&gt;Node6</title>
<path fill="none" stroke="#191970" d="M264.2382,-112.2455C275.681,-103.814 292.4296,-91.4729 305.7475,-81.6598"/>
<polygon fill="#191970" stroke="#191970" points="307.9391,-84.3924 313.9135,-75.6427 303.7867,-78.757 307.9391,-84.3924"/>
</g>
<!-- Node7 -->
<g id="node8" class="node">
<title>Node7</title>
<polygon fill="none" stroke="#bfbfbf" points="251,-.5 251,-19.5 307,-19.5 307,-.5 251,-.5"/>
<text text-anchor="middle" x="279" y="-7.5" font-family="Helvetica,sans-Serif" font-size="10.00" fill="#000000">stddef.h</text>
</g>
<!-- Node6&#45;&gt;Node7 -->
<g id="edge8" class="edge">
<title>Node6&#45;&gt;Node7</title>
<path fill="none" stroke="#191970" d="M318.639,-56.2455C311.825,-48.2958 302.0319,-36.8706 293.8848,-27.3656"/>
<polygon fill="#191970" stroke="#191970" points="296.4305,-24.9575 287.2651,-19.6427 291.1157,-29.513 296.4305,-24.9575"/>
</g>
<!-- Node8 -->
<g id="node9" class="node">
<title>Node8</title>
<polygon fill="none" stroke="#bfbfbf" points="325,-.5 325,-19.5 425,-19.5 425,-.5 325,-.5"/>
<text text-anchor="middle" x="375" y="-7.5" font-family="Helvetica,sans-Serif" font-size="10.00" fill="#000000">betterEnums.hxx</text>
</g>
<!-- Node6&#45;&gt;Node8 -->
<g id="edge9" class="edge">
<title>Node6&#45;&gt;Node8</title>
<path fill="none" stroke="#191970" d="M335.361,-56.2455C342.175,-48.2958 351.9681,-36.8706 360.1152,-27.3656"/>
<polygon fill="#191970" stroke="#191970" points="362.8843,-29.513 366.7349,-19.6427 357.5695,-24.9575 362.8843,-29.513"/>
</g>
</g>
</svg>
