<?xml version="1.0" encoding="UTF-8" standalone="no"?>
<!DOCTYPE svg PUBLIC "-//W3C//DTD SVG 1.1//EN"
 "http://www.w3.org/Graphics/SVG/1.1/DTD/svg11.dtd">
<!-- Generated by graphviz version 2.40.1 (20161225.0304)
 -->
<!-- Title: src/engine/basics/Timer.hxx Pages: 1 -->
<svg width="485pt" height="140pt"
 viewBox="0.00 0.00 485.00 140.00" xmlns="http://www.w3.org/2000/svg" xmlns:xlink="http://www.w3.org/1999/xlink">
<g id="graph0" class="graph" transform="scale(1 1) rotate(0) translate(4 136)">
<title>src/engine/basics/Timer.hxx</title>
<!-- Node0 -->
<g id="node1" class="node">
<title>Node0</title>
<polygon fill="#bfbfbf" stroke="#000000" points="78,-112.5 78,-131.5 230,-131.5 230,-112.5 78,-112.5"/>
<text text-anchor="middle" x="154" y="-119.5" font-family="Helvetica,sans-Serif" font-size="10.00" fill="#000000">src/engine/basics/Timer.hxx</text>
</g>
<!-- Node1 -->
<g id="node2" class="node">
<title>Node1</title>
<polygon fill="none" stroke="#bfbfbf" points="0,-56.5 0,-75.5 44,-75.5 44,-56.5 0,-56.5"/>
<text text-anchor="middle" x="22" y="-63.5" font-family="Helvetica,sans-Serif" font-size="10.00" fill="#000000">ctime</text>
</g>
<!-- Node0&#45;&gt;Node1 -->
<g id="edge1" class="edge">
<title>Node0&#45;&gt;Node1</title>
<path fill="none" stroke="#191970" d="M131.3084,-112.3733C109.9289,-103.3032 77.6943,-89.6279 53.7638,-79.4755"/>
<polygon fill="#191970" stroke="#191970" points="54.9683,-76.1846 44.3955,-75.5011 52.2344,-82.6287 54.9683,-76.1846"/>
</g>
<!-- Node2 -->
<g id="node3" class="node">
<title>Node2</title>
<polygon fill="none" stroke="#bfbfbf" points="62,-56.5 62,-75.5 112,-75.5 112,-56.5 62,-56.5"/>
<text text-anchor="middle" x="87" y="-63.5" font-family="Helvetica,sans-Serif" font-size="10.00" fill="#000000">chrono</text>
</g>
<!-- Node0&#45;&gt;Node2 -->
<g id="edge2" class="edge">
<title>Node0&#45;&gt;Node2</title>
<path fill="none" stroke="#191970" d="M142.3295,-112.2455C132.4339,-103.9746 118.0373,-91.9416 106.4099,-82.2232"/>
<polygon fill="#191970" stroke="#191970" points="108.4542,-79.3703 98.5368,-75.6427 103.965,-84.7413 108.4542,-79.3703"/>
</g>
<!-- Node3 -->
<g id="node4" class="node">
<title>Node3</title>
<polygon fill="none" stroke="#bfbfbf" points="130,-56.5 130,-75.5 178,-75.5 178,-56.5 130,-56.5"/>
<text text-anchor="middle" x="154" y="-63.5" font-family="Helvetica,sans-Serif" font-size="10.00" fill="#000000">thread</text>
</g>
<!-- Node0&#45;&gt;Node3 -->
<g id="edge3" class="edge">
<title>Node0&#45;&gt;Node3</title>
<path fill="none" stroke="#191970" d="M154,-112.2455C154,-104.9382 154,-94.6944 154,-85.7046"/>
<polygon fill="#191970" stroke="#191970" points="157.5001,-85.6426 154,-75.6427 150.5001,-85.6427 157.5001,-85.6426"/>
</g>
<!-- Node4 -->
<g id="node5" class="node">
<title>Node4</title>
<polygon fill="none" stroke="#bfbfbf" points="196,-56.5 196,-75.5 240,-75.5 240,-56.5 196,-56.5"/>
<text text-anchor="middle" x="218" y="-63.5" font-family="Helvetica,sans-Serif" font-size="10.00" fill="#000000">SDL.h</text>
</g>
<!-- Node0&#45;&gt;Node4 -->
<g id="edge4" class="edge">
<title>Node0&#45;&gt;Node4</title>
<path fill="none" stroke="#191970" d="M165.1479,-112.2455C174.5087,-104.0549 188.0858,-92.1749 199.1349,-82.5069"/>
<polygon fill="#191970" stroke="#191970" points="201.7588,-84.8618 206.9798,-75.6427 197.1492,-79.5937 201.7588,-84.8618"/>
</g>
<!-- Node5 -->
<g id="node6" class="node">
<title>Node5</title>
<g id="a_node6"><a xlink:href="signal_8hxx.html" target="_top" xlink:title="../basics/signal.hxx">
<polygon fill="none" stroke="#000000" points="258,-56.5 258,-75.5 368,-75.5 368,-56.5 258,-56.5"/>
<text text-anchor="middle" x="313" y="-63.5" font-family="Helvetica,sans-Serif" font-size="10.00" fill="#000000">../basics/signal.hxx</text>
</a>
</g>
</g>
<!-- Node0&#45;&gt;Node5 -->
<g id="edge5" class="edge">
<title>Node0&#45;&gt;Node5</title>
<path fill="none" stroke="#191970" d="M181.3331,-112.3733C207.5434,-103.1419 247.2984,-89.1402 276.2668,-78.9375"/>
<polygon fill="#191970" stroke="#191970" points="277.7542,-82.1244 286.0236,-75.5011 275.4288,-75.5219 277.7542,-82.1244"/>
</g>
<!-- Node6 -->
<g id="node7" class="node">
<title>Node6</title>
<polygon fill="none" stroke="#bfbfbf" points="137,-.5 137,-19.5 195,-19.5 195,-.5 137,-.5"/>
<text text-anchor="middle" x="166" y="-7.5" font-family="Helvetica,sans-Serif" font-size="10.00" fill="#000000">memory</text>
</g>
<!-- Node5&#45;&gt;Node6 -->
<g id="edge6" class="edge">
<title>Node5&#45;&gt;Node6</title>
<path fill="none" stroke="#191970" d="M287.7298,-56.3733C263.6034,-47.1822 227.0638,-33.2624 200.3123,-23.0713"/>
<polygon fill="#191970" stroke="#191970" points="201.5313,-19.7904 190.9404,-19.5011 199.0393,-26.3318 201.5313,-19.7904"/>
</g>
<!-- Node7 -->
<g id="node8" class="node">
<title>Node7</title>
<polygon fill="none" stroke="#bfbfbf" points="213.5,-.5 213.5,-19.5 278.5,-19.5 278.5,-.5 213.5,-.5"/>
<text text-anchor="middle" x="246" y="-7.5" font-family="Helvetica,sans-Serif" font-size="10.00" fill="#000000">functional</text>
</g>
<!-- Node5&#45;&gt;Node7 -->
<g id="edge7" class="edge">
<title>Node5&#45;&gt;Node7</title>
<path fill="none" stroke="#191970" d="M301.3295,-56.2455C291.4339,-47.9746 277.0373,-35.9416 265.4099,-26.2232"/>
<polygon fill="#191970" stroke="#191970" points="267.4542,-23.3703 257.5368,-19.6427 262.965,-28.7413 267.4542,-23.3703"/>
</g>
<!-- Node8 -->
<g id="node9" class="node">
<title>Node8</title>
<polygon fill="none" stroke="#bfbfbf" points="297,-.5 297,-19.5 329,-19.5 329,-.5 297,-.5"/>
<text text-anchor="middle" x="313" y="-7.5" font-family="Helvetica,sans-Serif" font-size="10.00" fill="#000000">list</text>
</g>
<!-- Node5&#45;&gt;Node8 -->
<g id="edge8" class="edge">
<title>Node5&#45;&gt;Node8</title>
<path fill="none" stroke="#191970" d="M313,-56.2455C313,-48.9382 313,-38.6944 313,-29.7046"/>
<polygon fill="#191970" stroke="#191970" points="316.5001,-29.6426 313,-19.6427 309.5001,-29.6427 316.5001,-29.6426"/>
</g>
<!-- Node9 -->
<g id="node10" class="node">
<title>Node9</title>
<polygon fill="none" stroke="#bfbfbf" points="347.5,-.5 347.5,-19.5 394.5,-19.5 394.5,-.5 347.5,-.5"/>
<text text-anchor="middle" x="371" y="-7.5" font-family="Helvetica,sans-Serif" font-size="10.00" fill="#000000">vector</text>
</g>
<!-- Node5&#45;&gt;Node9 -->
<g id="edge9" class="edge">
<title>Node5&#45;&gt;Node9</title>
<path fill="none" stroke="#191970" d="M323.1028,-56.2455C331.5028,-48.1352 343.6494,-36.4075 353.6084,-26.7919"/>
<polygon fill="#191970" stroke="#191970" points="356.25,-29.1066 361.0129,-19.6427 351.3878,-24.0707 356.25,-29.1066"/>
</g>
<!-- Node10 -->
<g id="node11" class="node">
<title>Node10</title>
<polygon fill="none" stroke="#bfbfbf" points="413,-.5 413,-19.5 477,-19.5 477,-.5 413,-.5"/>
<text text-anchor="middle" x="445" y="-7.5" font-family="Helvetica,sans-Serif" font-size="10.00" fill="#000000">algorithm</text>
</g>
<!-- Node5&#45;&gt;Node10 -->
<g id="edge10" class="edge">
<title>Node5&#45;&gt;Node10</title>
<path fill="none" stroke="#191970" d="M335.6916,-56.3733C357.0711,-47.3032 389.3057,-33.6279 413.2362,-23.4755"/>
<polygon fill="#191970" stroke="#191970" points="414.7656,-26.6287 422.6045,-19.5011 412.0317,-20.1846 414.7656,-26.6287"/>
</g>
</g>
</svg>
