<?xml version="1.0" encoding="UTF-8" standalone="no"?>
<!DOCTYPE svg PUBLIC "-//W3C//DTD SVG 1.1//EN"
 "http://www.w3.org/Graphics/SVG/1.1/DTD/svg11.dtd">
<!-- Generated by graphviz version 2.40.1 (20161225.0304)
 -->
<!-- Title: src/engine/basics/Timer.hxx Pages: 1 -->
<!--zoomable 285 -->
<svg id="main" version="1.1" xmlns="http://www.w3.org/2000/svg" xmlns:xlink="http://www.w3.org/1999/xlink" xml:space="preserve" onload="init(evt)">
<style type="text/css"><![CDATA[
.edge:hover path { stroke: red; }
.edge:hover polygon { stroke: red; fill: red; }
]]></style>
<script type="text/javascript"><![CDATA[
var edges = document.getElementsByTagName('g');
if (edges && edges.length) {
  for (var i=0;i<edges.length;i++) {
    if (edges[i].id.substr(0,4)=='edge') {
      edges[i].setAttribute('class','edge');
    }
  }
}
]]></script>
        <defs>
                <circle id="rim" cx="0" cy="0" r="7"/>
                <circle id="rim2" cx="0" cy="0" r="3.5"/>
                <g id="zoomPlus">
                        <use xlink:href="#rim" fill="#404040">
                                <set attributeName="fill" to="#808080" begin="zoomplus.mouseover" end="zoomplus.mouseout"/>
                        </use>
                        <path d="M-4,0h8M0,-4v8" fill="none" stroke="white" stroke-width="1.5" pointer-events="none"/>
                </g>
                <g id="zoomMin">
                        <use xlink:href="#rim" fill="#404040">
                                <set attributeName="fill" to="#808080" begin="zoomminus.mouseover" end="zoomminus.mouseout"/>
                        </use>
                        <path d="M-4,0h8" fill="none" stroke="white" stroke-width="1.5" pointer-events="none"/>
                </g>
                <g id="dirArrow">
                        <path fill="none" stroke="white" stroke-width="1.5" d="M0,-3.0v7 M-2.5,-0.5L0,-3.0L2.5,-0.5"/>
                </g>
               <g id="resetDef">
                       <use xlink:href="#rim2" fill="#404040">
                               <set attributeName="fill" to="#808080" begin="reset.mouseover" end="reset.mouseout"/>
                       </use>
               </g>
        </defs>

<script type="text/javascript">
var viewWidth = 799;
var viewHeight = 285;
var sectionId = 'dynsection-1';
</script>
<script xlink:href="svgpan.js"/>
<svg id="graph" class="graph">
<g id="viewport">
<title>src/engine/basics/Timer.hxx</title>
<!-- Node11 -->
<g id="node1" class="node">
<title>Node11</title>
<polygon fill="#bfbfbf" stroke="#000000" points="141,-257.5 141,-276.5 293,-276.5 293,-257.5 141,-257.5"/>
<text text-anchor="middle" x="217" y="-264.5" font-family="Helvetica,sans-Serif" font-size="10.00" fill="#000000">src/engine/basics/Timer.hxx</text>
</g>
<!-- Node12 -->
<g id="node2" class="node">
<title>Node12</title>
<g id="a_node2"><a xlink:href="Timer_8cxx.html" target="_top" xlink:title="src/engine/basics/Timer.cxx">
<polygon fill="none" stroke="#000000" points="0,-.5 0,-19.5 152,-19.5 152,-.5 0,-.5"/>
<text text-anchor="middle" x="76" y="-7.5" font-family="Helvetica,sans-Serif" font-size="10.00" fill="#000000">src/engine/basics/Timer.cxx</text>
</a>
</g>
</g>
<!-- Node11&#45;&gt;Node12 -->
<g id="edge1" class="edge">
<title>Node11&#45;&gt;Node12</title>
<path fill="none" stroke="#191970" d="M206.7465,-248.311C178.8566,-197.4762 102.3088,-57.9529 81.3605,-19.7706"/>
<polygon fill="#191970" stroke="#191970" points="203.7662,-250.1554 211.6448,-257.2391 209.9033,-246.7884 203.7662,-250.1554"/>
</g>
<!-- Node13 -->
<g id="node3" class="node">
<title>Node13</title>
<g id="a_node3"><a xlink:href="Tooltip_8hxx.html" target="_top" xlink:title="src/engine/ui/widgets\l/Tooltip.hxx">
<polygon fill="none" stroke="#000000" points="340,-190.5 340,-220.5 460,-220.5 460,-190.5 340,-190.5"/>
<text text-anchor="start" x="348" y="-208.5" font-family="Helvetica,sans-Serif" font-size="10.00" fill="#000000">src/engine/ui/widgets</text>
<text text-anchor="middle" x="400" y="-197.5" font-family="Helvetica,sans-Serif" font-size="10.00" fill="#000000">/Tooltip.hxx</text>
</a>
</g>
</g>
<!-- Node11&#45;&gt;Node13 -->
<g id="edge2" class="edge">
<title>Node11&#45;&gt;Node13</title>
<path fill="none" stroke="#191970" d="M255.4064,-254.0929C284.5375,-244.303 324.6471,-230.8235 355.2332,-220.5446"/>
<polygon fill="#191970" stroke="#191970" points="253.9578,-250.8873 245.5938,-257.3906 256.1878,-257.5226 253.9578,-250.8873"/>
</g>
<!-- Node14 -->
<g id="node4" class="node">
<title>Node14</title>
<g id="a_node4"><a xlink:href="UIManager_8hxx.html" target="_top" xlink:title="src/engine/UIManager.hxx">
<polygon fill="none" stroke="#000000" points="328.5,-129 328.5,-148 471.5,-148 471.5,-129 328.5,-129"/>
<text text-anchor="middle" x="400" y="-136" font-family="Helvetica,sans-Serif" font-size="10.00" fill="#000000">src/engine/UIManager.hxx</text>
</a>
</g>
</g>
<!-- Node13&#45;&gt;Node14 -->
<g id="edge3" class="edge">
<title>Node13&#45;&gt;Node14</title>
<path fill="none" stroke="#191970" d="M400,-180.1199C400,-168.9072 400,-156.4031 400,-148.055"/>
<polygon fill="#191970" stroke="#191970" points="396.5001,-180.2966 400,-190.2967 403.5001,-180.2967 396.5001,-180.2966"/>
</g>
<!-- Node21 -->
<g id="node11" class="node">
<title>Node21</title>
<g id="a_node11"><a xlink:href="Tooltip_8cxx.html" target="_top" xlink:title="src/engine/ui/widgets\l/Tooltip.cxx">
<polygon fill="none" stroke="#000000" points="490,-123.5 490,-153.5 610,-153.5 610,-123.5 490,-123.5"/>
<text text-anchor="start" x="498" y="-141.5" font-family="Helvetica,sans-Serif" font-size="10.00" fill="#000000">src/engine/ui/widgets</text>
<text text-anchor="middle" x="550" y="-130.5" font-family="Helvetica,sans-Serif" font-size="10.00" fill="#000000">/Tooltip.cxx</text>
</a>
</g>
</g>
<!-- Node13&#45;&gt;Node21 -->
<g id="edge12" class="edge">
<title>Node13&#45;&gt;Node21</title>
<path fill="none" stroke="#191970" d="M442.9555,-186.3132C466.2089,-175.9267 494.5237,-163.2794 516.1903,-153.6017"/>
<polygon fill="#191970" stroke="#191970" points="441.3661,-183.1898 433.6629,-190.4639 444.2209,-189.5812 441.3661,-183.1898"/>
</g>
<!-- Node15 -->
<g id="node5" class="node">
<title>Node15</title>
<g id="a_node5"><a xlink:href="EventManager_8hxx.html" target="_top" xlink:title="src/engine/EventManager.hxx">
<polygon fill="none" stroke="#000000" points="170,-62 170,-81 330,-81 330,-62 170,-62"/>
<text text-anchor="middle" x="250" y="-69" font-family="Helvetica,sans-Serif" font-size="10.00" fill="#000000">src/engine/EventManager.hxx</text>
</a>
</g>
</g>
<!-- Node14&#45;&gt;Node15 -->
<g id="edge4" class="edge">
<title>Node14&#45;&gt;Node15</title>
<path fill="none" stroke="#191970" d="M369.1993,-124.7424C340.0501,-111.7224 297.0524,-92.5167 271.4515,-81.0817"/>
<polygon fill="#191970" stroke="#191970" points="367.9506,-128.0179 378.5087,-128.9005 370.8055,-121.6265 367.9506,-128.0179"/>
</g>
<!-- Node17 -->
<g id="node7" class="node">
<title>Node17</title>
<g id="a_node7"><a xlink:href="Game_8cxx.html" target="_top" xlink:title="src/Game.cxx">
<polygon fill="none" stroke="#000000" points="347.5,-.5 347.5,-19.5 430.5,-19.5 430.5,-.5 347.5,-.5"/>
<text text-anchor="middle" x="389" y="-7.5" font-family="Helvetica,sans-Serif" font-size="10.00" fill="#000000">src/Game.cxx</text>
</a>
</g>
</g>
<!-- Node14&#45;&gt;Node17 -->
<g id="edge11" class="edge">
<title>Node14&#45;&gt;Node17</title>
<path fill="none" stroke="#191970" d="M389.346,-119.7704C384.5483,-110.2759 379.4241,-98.3726 377,-87 371.8667,-62.9175 380.0975,-34.159 385.2848,-19.5453"/>
<polygon fill="#191970" stroke="#191970" points="386.3011,-121.4988 394.1006,-128.6695 392.4752,-118.2001 386.3011,-121.4988"/>
</g>
<!-- Node18 -->
<g id="node8" class="node">
<title>Node18</title>
<g id="a_node8"><a xlink:href="ButtonGroup_8cxx.html" target="_top" xlink:title="src/engine/ui/basics\l/ButtonGroup.cxx">
<polygon fill="none" stroke="#000000" points="386.5,-56.5 386.5,-86.5 499.5,-86.5 499.5,-56.5 386.5,-56.5"/>
<text text-anchor="start" x="394.5" y="-74.5" font-family="Helvetica,sans-Serif" font-size="10.00" fill="#000000">src/engine/ui/basics</text>
<text text-anchor="middle" x="443" y="-63.5" font-family="Helvetica,sans-Serif" font-size="10.00" fill="#000000">/ButtonGroup.cxx</text>
</a>
</g>
</g>
<!-- Node14&#45;&gt;Node18 -->
<g id="edge8" class="edge">
<title>Node14&#45;&gt;Node18</title>
<path fill="none" stroke="#191970" d="M411.6147,-120.4026C418.4235,-109.7936 426.923,-96.5502 433.3592,-86.5218"/>
<polygon fill="#191970" stroke="#191970" points="408.6166,-118.5942 406.1609,-128.9005 414.5077,-122.3751 408.6166,-118.5942"/>
</g>
<!-- Node19 -->
<g id="node9" class="node">
<title>Node19</title>
<g id="a_node9"><a xlink:href="Layout_8cxx.html" target="_top" xlink:title="src/engine/ui/basics\l/Layout.cxx">
<polygon fill="none" stroke="#000000" points="517.5,-56.5 517.5,-86.5 630.5,-86.5 630.5,-56.5 517.5,-56.5"/>
<text text-anchor="start" x="525.5" y="-74.5" font-family="Helvetica,sans-Serif" font-size="10.00" fill="#000000">src/engine/ui/basics</text>
<text text-anchor="middle" x="574" y="-63.5" font-family="Helvetica,sans-Serif" font-size="10.00" fill="#000000">/Layout.cxx</text>
</a>
</g>
</g>
<!-- Node14&#45;&gt;Node19 -->
<g id="edge9" class="edge">
<title>Node14&#45;&gt;Node19</title>
<path fill="none" stroke="#191970" d="M434.6195,-125.1695C463.5765,-114.0194 504.8668,-98.1203 534.9883,-86.5218"/>
<polygon fill="#191970" stroke="#191970" points="433.0043,-122.0409 424.93,-128.9005 435.5197,-128.5733 433.0043,-122.0409"/>
</g>
<!-- Node20 -->
<g id="node10" class="node">
<title>Node20</title>
<g id="a_node10"><a xlink:href="UIManager_8cxx.html" target="_top" xlink:title="src/engine/UIManager.cxx">
<polygon fill="none" stroke="#000000" points="649,-62 649,-81 791,-81 791,-62 649,-62"/>
<text text-anchor="middle" x="720" y="-69" font-family="Helvetica,sans-Serif" font-size="10.00" fill="#000000">src/engine/UIManager.cxx</text>
</a>
</g>
</g>
<!-- Node14&#45;&gt;Node20 -->
<g id="edge10" class="edge">
<title>Node14&#45;&gt;Node20</title>
<path fill="none" stroke="#191970" d="M455.5041,-126.8788C517.5082,-113.8967 616.7241,-93.1234 674.3899,-81.0496"/>
<polygon fill="#191970" stroke="#191970" points="454.5788,-123.4966 445.5084,-128.9717 456.0134,-130.348 454.5788,-123.4966"/>
</g>
<!-- Node15&#45;&gt;Node12 -->
<g id="edge5" class="edge">
<title>Node15&#45;&gt;Node12</title>
<path fill="none" stroke="#191970" d="M213.0791,-58.4504C180.0932,-46.7916 132.5434,-29.9852 102.9966,-19.5419"/>
<polygon fill="#191970" stroke="#191970" points="212.2177,-61.8581 222.8125,-61.8906 214.5505,-55.2582 212.2177,-61.8581"/>
</g>
<!-- Node16 -->
<g id="node6" class="node">
<title>Node16</title>
<g id="a_node6"><a xlink:href="EventManager_8cxx.html" target="_top" xlink:title="src/engine/EventManager.cxx">
<polygon fill="none" stroke="#000000" points="170.5,-.5 170.5,-19.5 329.5,-19.5 329.5,-.5 170.5,-.5"/>
<text text-anchor="middle" x="250" y="-7.5" font-family="Helvetica,sans-Serif" font-size="10.00" fill="#000000">src/engine/EventManager.cxx</text>
</a>
</g>
</g>
<!-- Node15&#45;&gt;Node16 -->
<g id="edge6" class="edge">
<title>Node15&#45;&gt;Node16</title>
<path fill="none" stroke="#191970" d="M250,-51.7462C250,-41.0519 250,-28.314 250,-19.7449"/>
<polygon fill="#191970" stroke="#191970" points="246.5001,-51.8906 250,-61.8906 253.5001,-51.8907 246.5001,-51.8906"/>
</g>
<!-- Node15&#45;&gt;Node17 -->
<g id="edge7" class="edge">
<title>Node15&#45;&gt;Node17</title>
<path fill="none" stroke="#191970" d="M280.8675,-57.8428C307.1506,-46.2139 344.2372,-29.8051 367.4338,-19.5419"/>
<polygon fill="#191970" stroke="#191970" points="279.4475,-54.6437 271.7188,-61.8906 282.2798,-61.0452 279.4475,-54.6437"/>
</g>
</g>
</svg>
        <g id="navigator" transform="translate(0 0)" fill="#404254">
                <rect fill="#f2f5e9" fill-opacity="0.5" stroke="#606060" stroke-width=".5" x="0" y="0" width="60" height="60"/>
                <use id="zoomplus" xlink:href="#zoomPlus" x="17" y="9" onmousedown="handleZoom(evt,'in')"/>
                <use id="zoomminus" xlink:href="#zoomMin" x="42" y="9" onmousedown="handleZoom(evt,'out')"/>
                <use id="reset" xlink:href="#resetDef" x="30" y="36" onmousedown="handleReset()"/>
                <g id="arrowUp" xlink:href="#dirArrow" transform="translate(30 24)" onmousedown="handlePan(0,-1)">
                  <use xlink:href="#rim" fill="#404040">
                        <set attributeName="fill" to="#808080" begin="arrowUp.mouseover" end="arrowUp.mouseout"/>
                  </use>
                  <path fill="none" stroke="white" stroke-width="1.5" d="M0,-3.0v7 M-2.5,-0.5L0,-3.0L2.5,-0.5"/>
                </g>
                <g id="arrowRight" xlink:href="#dirArrow" transform="rotate(90) translate(36 -43)" onmousedown="handlePan(1,0)">
                  <use xlink:href="#rim" fill="#404040">
                        <set attributeName="fill" to="#808080" begin="arrowRight.mouseover" end="arrowRight.mouseout"/>
                  </use>
                  <path fill="none" stroke="white" stroke-width="1.5" d="M0,-3.0v7 M-2.5,-0.5L0,-3.0L2.5,-0.5"/>
                </g>
                <g id="arrowDown" xlink:href="#dirArrow" transform="rotate(180) translate(-30 -48)" onmousedown="handlePan(0,1)">
                  <use xlink:href="#rim" fill="#404040">
                        <set attributeName="fill" to="#808080" begin="arrowDown.mouseover" end="arrowDown.mouseout"/>
                  </use>
                  <path fill="none" stroke="white" stroke-width="1.5" d="M0,-3.0v7 M-2.5,-0.5L0,-3.0L2.5,-0.5"/>
                </g>
                <g id="arrowLeft" xlink:href="#dirArrow" transform="rotate(270) translate(-36 17)" onmousedown="handlePan(-1,0)">
                  <use xlink:href="#rim" fill="#404040">
                        <set attributeName="fill" to="#808080" begin="arrowLeft.mouseover" end="arrowLeft.mouseout"/>
                  </use>
                  <path fill="none" stroke="white" stroke-width="1.5" d="M0,-3.0v7 M-2.5,-0.5L0,-3.0L2.5,-0.5"/>
                </g>
        </g>
        <svg viewBox="0 0 15 15" width="100%" height="30px" preserveAspectRatio="xMaxYMin meet">
         <g id="arrow_out" transform="scale(0.3 0.3)">
          <a xlink:href="Timer_8hxx__dep__incl_org.svg" target="_base">
           <rect id="button" ry="5" rx="5" y="6" x="6" height="38" width="38"
                fill="#f2f5e9" fill-opacity="0.5" stroke="#606060" stroke-width="1.0"/>
           <path id="arrow"
             d="M 11.500037,31.436501 C 11.940474,20.09759 22.043105,11.32322 32.158766,21.979434 L 37.068811,17.246167 C 37.068811,17.246167 37.088388,32 37.088388,32 L 22.160133,31.978069 C 22.160133,31.978069 26.997745,27.140456 26.997745,27.140456 C 18.528582,18.264221 13.291696,25.230495 11.500037,31.436501 z"
             style="fill:#404040;"/>
          </a>
         </g>
        </svg>
</svg>
