<?xml version="1.0" encoding="UTF-8" standalone="no"?>
<!DOCTYPE svg PUBLIC "-//W3C//DTD SVG 1.1//EN"
 "http://www.w3.org/Graphics/SVG/1.1/DTD/svg11.dtd">
<!-- Generated by graphviz version 2.40.1 (20161225.0304)
 -->
<!-- Title: src/engine/ui/basics/UIElement.hxx Pages: 1 -->
<!--zoomable 319 -->
<svg id="main" version="1.1" xmlns="http://www.w3.org/2000/svg" xmlns:xlink="http://www.w3.org/1999/xlink" xml:space="preserve" onload="init(evt)">
<style type="text/css"><![CDATA[
.edge:hover path { stroke: red; }
.edge:hover polygon { stroke: red; fill: red; }
]]></style>
<script type="text/javascript"><![CDATA[
var edges = document.getElementsByTagName('g');
if (edges && edges.length) {
  for (var i=0;i<edges.length;i++) {
    if (edges[i].id.substr(0,4)=='edge') {
      edges[i].setAttribute('class','edge');
    }
  }
}
]]></script>
        <defs>
                <circle id="rim" cx="0" cy="0" r="7"/>
                <circle id="rim2" cx="0" cy="0" r="3.5"/>
                <g id="zoomPlus">
                        <use xlink:href="#rim" fill="#404040">
                                <set attributeName="fill" to="#808080" begin="zoomplus.mouseover" end="zoomplus.mouseout"/>
                        </use>
                        <path d="M-4,0h8M0,-4v8" fill="none" stroke="white" stroke-width="1.5" pointer-events="none"/>
                </g>
                <g id="zoomMin">
                        <use xlink:href="#rim" fill="#404040">
                                <set attributeName="fill" to="#808080" begin="zoomminus.mouseover" end="zoomminus.mouseout"/>
                        </use>
                        <path d="M-4,0h8" fill="none" stroke="white" stroke-width="1.5" pointer-events="none"/>
                </g>
                <g id="dirArrow">
                        <path fill="none" stroke="white" stroke-width="1.5" d="M0,-3.0v7 M-2.5,-0.5L0,-3.0L2.5,-0.5"/>
                </g>
               <g id="resetDef">
                       <use xlink:href="#rim2" fill="#404040">
                               <set attributeName="fill" to="#808080" begin="reset.mouseover" end="reset.mouseout"/>
                       </use>
               </g>
        </defs>

<script type="text/javascript">
var viewWidth = 1006;
var viewHeight = 319;
var sectionId = 'dynsection-0';
</script>
<script xlink:href="svgpan.js"/>
<svg id="graph" class="graph">
<g id="viewport">
<title>src/engine/ui/basics/UIElement.hxx</title>
<!-- Node0 -->
<g id="node1" class="node">
<title>Node0</title>
<polygon fill="#bfbfbf" stroke="#000000" points="382.4158,-280.5 382.4158,-310.5 495.4158,-310.5 495.4158,-280.5 382.4158,-280.5"/>
<text text-anchor="start" x="390.4158" y="-298.5" font-family="Helvetica,sans-Serif" font-size="10.00" fill="#000000">src/engine/ui/basics</text>
<text text-anchor="middle" x="438.9158" y="-287.5" font-family="Helvetica,sans-Serif" font-size="10.00" fill="#000000">/UIElement.hxx</text>
</g>
<!-- Node1 -->
<g id="node2" class="node">
<title>Node1</title>
<polygon fill="none" stroke="#bfbfbf" points="134.9158,-56.5 134.9158,-75.5 178.9158,-75.5 178.9158,-56.5 134.9158,-56.5"/>
<text text-anchor="middle" x="156.9158" y="-63.5" font-family="Helvetica,sans-Serif" font-size="10.00" fill="#000000">string</text>
</g>
<!-- Node0&#45;&gt;Node1 -->
<g id="edge1" class="edge">
<title>Node0&#45;&gt;Node1</title>
<path fill="none" stroke="#191970" d="M382.2293,-292.8C292.8555,-287.6758 124.0902,-274.2281 72.9158,-244 17.7421,-211.4096 -22.7724,-163.8253 14.9158,-112 27.9417,-94.0881 86.8787,-79.5881 124.6106,-71.9291"/>
<polygon fill="#191970" stroke="#191970" points="125.5006,-75.3211 134.6348,-69.9531 124.1467,-68.4533 125.5006,-75.3211"/>
</g>
<!-- Node2 -->
<g id="node3" class="node">
<title>Node2</title>
<g id="a_node3"><a xlink:href="mapEdit_8hxx.html" target="_top" xlink:title="../../basics/mapEdit.hxx">
<polygon fill="none" stroke="#000000" points="81.9158,-224.5 81.9158,-243.5 211.9158,-243.5 211.9158,-224.5 81.9158,-224.5"/>
<text text-anchor="middle" x="146.9158" y="-231.5" font-family="Helvetica,sans-Serif" font-size="10.00" fill="#000000">../../basics/mapEdit.hxx</text>
</a>
</g>
</g>
<!-- Node0&#45;&gt;Node2 -->
<g id="edge2" class="edge">
<title>Node0&#45;&gt;Node2</title>
<path fill="none" stroke="#191970" d="M382.2691,-283.5693C330.3373,-272.6316 253.8986,-256.5323 202.3521,-245.6758"/>
<polygon fill="#191970" stroke="#191970" points="202.896,-242.2136 192.3893,-243.5775 201.4533,-249.0633 202.896,-242.2136"/>
</g>
<!-- Node3 -->
<g id="node4" class="node">
<title>Node3</title>
<g id="a_node4"><a xlink:href="ResourcesManager_8hxx.html" target="_top" xlink:title="../../ResourcesManager.hxx">
<polygon fill="none" stroke="#000000" points="315.9158,-224.5 315.9158,-243.5 461.9158,-243.5 461.9158,-224.5 315.9158,-224.5"/>
<text text-anchor="middle" x="388.9158" y="-231.5" font-family="Helvetica,sans-Serif" font-size="10.00" fill="#000000">../../ResourcesManager.hxx</text>
</a>
</g>
</g>
<!-- Node0&#45;&gt;Node3 -->
<g id="edge4" class="edge">
<title>Node0&#45;&gt;Node3</title>
<path fill="none" stroke="#191970" d="M426.5563,-280.2977C419.5435,-271.672 410.7298,-260.8312 403.3944,-251.8087"/>
<polygon fill="#191970" stroke="#191970" points="405.9455,-249.3982 396.9215,-243.8469 400.5141,-253.8141 405.9455,-249.3982"/>
</g>
<!-- Node6 -->
<g id="node7" class="node">
<title>Node6</title>
<polygon fill="none" stroke="#bfbfbf" points="601.9158,-112.5 601.9158,-131.5 645.9158,-131.5 645.9158,-112.5 601.9158,-112.5"/>
<text text-anchor="middle" x="623.9158" y="-119.5" font-family="Helvetica,sans-Serif" font-size="10.00" fill="#000000">SDL.h</text>
</g>
<!-- Node0&#45;&gt;Node6 -->
<g id="edge33" class="edge">
<title>Node0&#45;&gt;Node6</title>
<path fill="none" stroke="#191970" d="M449.2064,-280.3514C466.9842,-254.9435 505.5393,-203.0822 546.9158,-168 561.5713,-155.574 579.9876,-144.4399 595.1346,-136.2391"/>
<polygon fill="#191970" stroke="#191970" points="596.8641,-139.284 604.0804,-131.5266 593.6016,-133.0907 596.8641,-139.284"/>
</g>
<!-- Node16 -->
<g id="node17" class="node">
<title>Node16</title>
<g id="a_node17"><a xlink:href="WindowManager_8hxx.html" target="_top" xlink:title="../../WindowManager.hxx">
<polygon fill="none" stroke="#000000" points="555.9158,-168.5 555.9158,-187.5 691.9158,-187.5 691.9158,-168.5 555.9158,-168.5"/>
<text text-anchor="middle" x="623.9158" y="-175.5" font-family="Helvetica,sans-Serif" font-size="10.00" fill="#000000">../../WindowManager.hxx</text>
</a>
</g>
</g>
<!-- Node0&#45;&gt;Node16 -->
<g id="edge21" class="edge">
<title>Node0&#45;&gt;Node16</title>
<path fill="none" stroke="#191970" d="M462.7226,-280.3795C498.1977,-257.848 564.5543,-215.7026 600.0587,-193.1525"/>
<polygon fill="#191970" stroke="#191970" points="602.2289,-195.9205 608.7937,-187.6046 598.4759,-190.0116 602.2289,-195.9205"/>
</g>
<!-- Node17 -->
<g id="node18" class="node">
<title>Node17</title>
<g id="a_node18"><a xlink:href="signal_8hxx.html" target="_top" xlink:title="../../basics/signal.hxx">
<polygon fill="none" stroke="#000000" points="792.4158,-224.5 792.4158,-243.5 911.4158,-243.5 911.4158,-224.5 792.4158,-224.5"/>
<text text-anchor="middle" x="851.9158" y="-231.5" font-family="Helvetica,sans-Serif" font-size="10.00" fill="#000000">../../basics/signal.hxx</text>
</a>
</g>
</g>
<!-- Node0&#45;&gt;Node17 -->
<g id="edge27" class="edge">
<title>Node0&#45;&gt;Node17</title>
<path fill="none" stroke="#191970" d="M495.4758,-287.0776C570.1555,-275.957 701.5998,-256.3836 782.2984,-244.3668"/>
<polygon fill="#191970" stroke="#191970" points="782.9905,-247.8024 792.366,-242.8676 781.9595,-240.8787 782.9905,-247.8024"/>
</g>
<!-- Node2&#45;&gt;Node1 -->
<g id="edge3" class="edge">
<title>Node2&#45;&gt;Node1</title>
<path fill="none" stroke="#191970" d="M123.5127,-224.4563C79.6428,-205.1686 -7.6339,-159.3388 25.9158,-112 37.5866,-95.5326 90.0486,-80.9248 124.9383,-72.7908"/>
<polygon fill="#191970" stroke="#191970" points="125.723,-76.2018 134.7006,-70.5757 124.174,-69.3753 125.723,-76.2018"/>
</g>
<!-- Node4 -->
<g id="node5" class="node">
<title>Node4</title>
<polygon fill="none" stroke="#bfbfbf" points="663.9158,-112.5 663.9158,-131.5 723.9158,-131.5 723.9158,-112.5 663.9158,-112.5"/>
<text text-anchor="middle" x="693.9158" y="-119.5" font-family="Helvetica,sans-Serif" font-size="10.00" fill="#000000">iostream</text>
</g>
<!-- Node3&#45;&gt;Node4 -->
<g id="edge5" class="edge">
<title>Node3&#45;&gt;Node4</title>
<path fill="none" stroke="#191970" d="M410.135,-224.3986C440.2333,-210.9494 497.1994,-186.1187 546.9158,-168 582.8069,-154.9199 624.4153,-142.1141 654.1846,-133.3493"/>
<polygon fill="#191970" stroke="#191970" points="655.1854,-136.7033 663.8011,-130.5373 653.2207,-129.9847 655.1854,-136.7033"/>
</g>
<!-- Node5 -->
<g id="node6" class="node">
<title>Node5</title>
<polygon fill="none" stroke="#bfbfbf" points="35.4158,-112.5 35.4158,-131.5 128.4158,-131.5 128.4158,-112.5 35.4158,-112.5"/>
<text text-anchor="middle" x="81.9158" y="-119.5" font-family="Helvetica,sans-Serif" font-size="10.00" fill="#000000">unordered_map</text>
</g>
<!-- Node3&#45;&gt;Node5 -->
<g id="edge6" class="edge">
<title>Node3&#45;&gt;Node5</title>
<path fill="none" stroke="#191970" d="M362.7412,-224.4509C307.6856,-204.3655 179.8498,-157.7284 117.4551,-134.9655"/>
<polygon fill="#191970" stroke="#191970" points="118.6182,-131.6642 108.0242,-131.5249 116.219,-138.2402 118.6182,-131.6642"/>
</g>
<!-- Node3&#45;&gt;Node6 -->
<g id="edge7" class="edge">
<title>Node3&#45;&gt;Node6</title>
<path fill="none" stroke="#191970" d="M399.0845,-224.3654C414.5442,-210.1877 445.399,-183.6923 475.9158,-168 523.922,-143.3143 540.376,-148.0506 591.9158,-132 592.0166,-131.9686 592.1175,-131.9372 592.2185,-131.9057"/>
<polygon fill="#191970" stroke="#191970" points="593.3794,-135.21 601.8837,-128.8913 591.2951,-128.5275 593.3794,-135.21"/>
</g>
<!-- Node7 -->
<g id="node8" class="node">
<title>Node7</title>
<g id="a_node8"><a xlink:href="TileManager_8hxx.html" target="_top" xlink:title="TileManager.hxx">
<polygon fill="none" stroke="#000000" points="313.4158,-168.5 313.4158,-187.5 410.4158,-187.5 410.4158,-168.5 313.4158,-168.5"/>
<text text-anchor="middle" x="361.9158" y="-175.5" font-family="Helvetica,sans-Serif" font-size="10.00" fill="#000000">TileManager.hxx</text>
</a>
</g>
</g>
<!-- Node3&#45;&gt;Node7 -->
<g id="edge8" class="edge">
<title>Node3&#45;&gt;Node7</title>
<path fill="none" stroke="#191970" d="M384.2128,-224.2455C380.5735,-216.6973 375.4234,-206.0158 370.9896,-196.8197"/>
<polygon fill="#191970" stroke="#191970" points="374.0607,-195.1303 366.565,-187.6427 367.7553,-198.1704 374.0607,-195.1303"/>
</g>
<!-- Node7&#45;&gt;Node1 -->
<g id="edge11" class="edge">
<title>Node7&#45;&gt;Node1</title>
<path fill="none" stroke="#191970" d="M313.3964,-171.5757C265.0822,-164.2282 195.3854,-150.7462 175.9158,-132 163.4586,-120.0056 159.018,-100.4185 157.5089,-85.6914"/>
<polygon fill="#191970" stroke="#191970" points="160.9928,-85.3309 156.8421,-75.583 154.008,-85.7917 160.9928,-85.3309"/>
</g>
<!-- Node7&#45;&gt;Node5 -->
<g id="edge10" class="edge">
<title>Node7&#45;&gt;Node5</title>
<path fill="none" stroke="#191970" d="M314.1003,-168.4369C265.4849,-158.7138 190.1722,-143.6513 138.5874,-133.3343"/>
<polygon fill="#191970" stroke="#191970" points="139.094,-129.8664 128.6017,-131.3372 137.7211,-136.7305 139.094,-129.8664"/>
</g>
<!-- Node7&#45;&gt;Node6 -->
<g id="edge9" class="edge">
<title>Node7&#45;&gt;Node6</title>
<path fill="none" stroke="#191970" d="M410.7116,-169.783C457.5008,-161.5415 529.9731,-147.8258 591.9158,-132 592.0145,-131.9748 592.1134,-131.9494 592.2123,-131.924"/>
<polygon fill="#191970" stroke="#191970" points="592.932,-135.357 601.6222,-129.2964 591.0493,-128.6149 592.932,-135.357"/>
</g>
<!-- Node8 -->
<g id="node9" class="node">
<title>Node8</title>
<g id="a_node9"><a xlink:href="tileData_8hxx.html" target="_top" xlink:title="tileData.hxx">
<polygon fill="none" stroke="#000000" points="405.4158,-112.5 405.4158,-131.5 482.4158,-131.5 482.4158,-112.5 405.4158,-112.5"/>
<text text-anchor="middle" x="443.9158" y="-119.5" font-family="Helvetica,sans-Serif" font-size="10.00" fill="#000000">tileData.hxx</text>
</a>
</g>
</g>
<!-- Node7&#45;&gt;Node8 -->
<g id="edge12" class="edge">
<title>Node7&#45;&gt;Node8</title>
<path fill="none" stroke="#191970" d="M376.1991,-168.2455C388.6629,-159.7337 406.9609,-147.2375 421.395,-137.3801"/>
<polygon fill="#191970" stroke="#191970" points="423.5121,-140.1726 429.7962,-131.6427 419.5643,-134.392 423.5121,-140.1726"/>
</g>
<!-- Node13 -->
<g id="node14" class="node">
<title>Node13</title>
<polygon fill="none" stroke="#bfbfbf" points="328.9158,-112.5 328.9158,-131.5 386.9158,-131.5 386.9158,-112.5 328.9158,-112.5"/>
<text text-anchor="middle" x="357.9158" y="-119.5" font-family="Helvetica,sans-Serif" font-size="10.00" fill="#000000">json.hxx</text>
</g>
<!-- Node7&#45;&gt;Node13 -->
<g id="edge18" class="edge">
<title>Node7&#45;&gt;Node13</title>
<path fill="none" stroke="#191970" d="M361.2191,-168.2455C360.6971,-160.9382 359.9654,-150.6944 359.3233,-141.7046"/>
<polygon fill="#191970" stroke="#191970" points="362.8083,-141.3679 358.6046,-131.6427 355.8261,-141.8667 362.8083,-141.3679"/>
</g>
<!-- Node14 -->
<g id="node15" class="node">
<title>Node14</title>
<g id="a_node15"><a xlink:href="Singleton_8hxx.html" target="_top" xlink:title="Singleton.hxx">
<polygon fill="none" stroke="#000000" points="500.4158,-112.5 500.4158,-131.5 583.4158,-131.5 583.4158,-112.5 500.4158,-112.5"/>
<text text-anchor="middle" x="541.9158" y="-119.5" font-family="Helvetica,sans-Serif" font-size="10.00" fill="#000000">Singleton.hxx</text>
</a>
</g>
</g>
<!-- Node7&#45;&gt;Node14 -->
<g id="edge19" class="edge">
<title>Node7&#45;&gt;Node14</title>
<path fill="none" stroke="#191970" d="M392.8589,-168.3733C422.9198,-159.021 468.7184,-144.7725 501.6136,-134.5385"/>
<polygon fill="#191970" stroke="#191970" points="502.8677,-137.8139 511.3765,-131.5011 500.7882,-131.1299 502.8677,-137.8139"/>
</g>
<!-- Node15 -->
<g id="node16" class="node">
<title>Node15</title>
<polygon fill="none" stroke="#bfbfbf" points="185.4158,-112.5 185.4158,-131.5 310.4158,-131.5 310.4158,-112.5 185.4158,-112.5"/>
<text text-anchor="middle" x="247.9158" y="-119.5" font-family="Helvetica,sans-Serif" font-size="10.00" fill="#000000">../common/enums.hxx</text>
</g>
<!-- Node7&#45;&gt;Node15 -->
<g id="edge20" class="edge">
<title>Node7&#45;&gt;Node15</title>
<path fill="none" stroke="#191970" d="M342.3185,-168.3733C324.1827,-159.4644 297.0023,-146.1127 276.4572,-136.0203"/>
<polygon fill="#191970" stroke="#191970" points="277.7761,-132.7688 267.2574,-131.5011 274.6898,-139.0517 277.7761,-132.7688"/>
</g>
<!-- Node8&#45;&gt;Node1 -->
<g id="edge13" class="edge">
<title>Node8&#45;&gt;Node1</title>
<path fill="none" stroke="#191970" d="M405.414,-113.9249C402.2021,-113.2677 399.004,-112.6188 395.9158,-112 321.9248,-97.173 234.8553,-80.6465 188.9636,-72.0074"/>
<polygon fill="#191970" stroke="#191970" points="189.4891,-68.545 179.0146,-70.1367 188.1956,-75.4244 189.4891,-68.545"/>
</g>
<!-- Node9 -->
<g id="node10" class="node">
<title>Node9</title>
<polygon fill="none" stroke="#bfbfbf" points="766.4158,-56.5 766.4158,-75.5 813.4158,-75.5 813.4158,-56.5 766.4158,-56.5"/>
<text text-anchor="middle" x="789.9158" y="-63.5" font-family="Helvetica,sans-Serif" font-size="10.00" fill="#000000">vector</text>
</g>
<!-- Node8&#45;&gt;Node9 -->
<g id="edge14" class="edge">
<title>Node8&#45;&gt;Node9</title>
<path fill="none" stroke="#191970" d="M482.6098,-113.5847C485.4171,-113.0302 488.2079,-112.496 490.9158,-112 586.7689,-94.4443 700.7421,-78.1728 756.2182,-70.5459"/>
<polygon fill="#191970" stroke="#191970" points="756.7616,-74.0042 766.1949,-69.1809 755.8127,-67.0688 756.7616,-74.0042"/>
</g>
<!-- Node10 -->
<g id="node11" class="node">
<title>Node10</title>
<g id="a_node11"><a xlink:href="enums_8hxx.html" target="_top" xlink:title="enums.hxx">
<polygon fill="none" stroke="#000000" points="408.4158,-56.5 408.4158,-75.5 479.4158,-75.5 479.4158,-56.5 408.4158,-56.5"/>
<text text-anchor="middle" x="443.9158" y="-63.5" font-family="Helvetica,sans-Serif" font-size="10.00" fill="#000000">enums.hxx</text>
</a>
</g>
</g>
<!-- Node8&#45;&gt;Node10 -->
<g id="edge15" class="edge">
<title>Node8&#45;&gt;Node10</title>
<path fill="none" stroke="#191970" d="M443.9158,-112.2455C443.9158,-104.9382 443.9158,-94.6944 443.9158,-85.7046"/>
<polygon fill="#191970" stroke="#191970" points="447.4159,-85.6426 443.9158,-75.6427 440.4159,-85.6427 447.4159,-85.6426"/>
</g>
<!-- Node11 -->
<g id="node12" class="node">
<title>Node11</title>
<polygon fill="none" stroke="#bfbfbf" points="367.9158,-.5 367.9158,-19.5 423.9158,-19.5 423.9158,-.5 367.9158,-.5"/>
<text text-anchor="middle" x="395.9158" y="-7.5" font-family="Helvetica,sans-Serif" font-size="10.00" fill="#000000">stddef.h</text>
</g>
<!-- Node10&#45;&gt;Node11 -->
<g id="edge16" class="edge">
<title>Node10&#45;&gt;Node11</title>
<path fill="none" stroke="#191970" d="M435.5549,-56.2455C428.7408,-48.2958 418.9477,-36.8706 410.8006,-27.3656"/>
<polygon fill="#191970" stroke="#191970" points="413.3463,-24.9575 404.181,-19.6427 408.0315,-29.513 413.3463,-24.9575"/>
</g>
<!-- Node12 -->
<g id="node13" class="node">
<title>Node12</title>
<polygon fill="none" stroke="#bfbfbf" points="441.9158,-.5 441.9158,-19.5 541.9158,-19.5 541.9158,-.5 441.9158,-.5"/>
<text text-anchor="middle" x="491.9158" y="-7.5" font-family="Helvetica,sans-Serif" font-size="10.00" fill="#000000">betterEnums.hxx</text>
</g>
<!-- Node10&#45;&gt;Node12 -->
<g id="edge17" class="edge">
<title>Node10&#45;&gt;Node12</title>
<path fill="none" stroke="#191970" d="M452.2768,-56.2455C459.0908,-48.2958 468.8839,-36.8706 477.0311,-27.3656"/>
<polygon fill="#191970" stroke="#191970" points="479.8001,-29.513 483.6507,-19.6427 474.4853,-24.9575 479.8001,-29.513"/>
</g>
<!-- Node16&#45;&gt;Node1 -->
<g id="edge22" class="edge">
<title>Node16&#45;&gt;Node1</title>
<path fill="none" stroke="#191970" d="M667.0453,-168.4895C707.1206,-157.7665 757.2276,-138.3308 732.9158,-112 714.3345,-91.8756 308.1178,-72.604 189.2899,-67.3811"/>
<polygon fill="#191970" stroke="#191970" points="189.1648,-63.8724 179.0218,-66.9334 188.8598,-70.8657 189.1648,-63.8724"/>
</g>
<!-- Node16&#45;&gt;Node4 -->
<g id="edge23" class="edge">
<title>Node16&#45;&gt;Node4</title>
<path fill="none" stroke="#191970" d="M636.1089,-168.2455C646.5479,-159.8943 661.7813,-147.7076 673.9898,-137.9408"/>
<polygon fill="#191970" stroke="#191970" points="676.2402,-140.6227 681.8625,-131.6427 671.8673,-135.1566 676.2402,-140.6227"/>
</g>
<!-- Node16&#45;&gt;Node6 -->
<g id="edge25" class="edge">
<title>Node16&#45;&gt;Node6</title>
<path fill="none" stroke="#191970" d="M623.9158,-168.2455C623.9158,-160.9382 623.9158,-150.6944 623.9158,-141.7046"/>
<polygon fill="#191970" stroke="#191970" points="627.4159,-141.6426 623.9158,-131.6427 620.4159,-141.6427 627.4159,-141.6426"/>
</g>
<!-- Node16&#45;&gt;Node9 -->
<g id="edge24" class="edge">
<title>Node16&#45;&gt;Node9</title>
<path fill="none" stroke="#191970" d="M667.097,-168.4248C703.4024,-159.5987 751.6048,-145.8119 765.9158,-132 778.4996,-119.8552 784.5164,-100.5999 787.3748,-86.015"/>
<polygon fill="#191970" stroke="#191970" points="790.8583,-86.3981 789.0014,-75.9672 783.9482,-85.2794 790.8583,-86.3981"/>
</g>
<!-- Node16&#45;&gt;Node14 -->
<g id="edge26" class="edge">
<title>Node16&#45;&gt;Node14</title>
<path fill="none" stroke="#191970" d="M609.6325,-168.2455C597.1688,-159.7337 578.8707,-147.2375 564.4367,-137.3801"/>
<polygon fill="#191970" stroke="#191970" points="566.2674,-134.392 556.0355,-131.6427 562.3196,-140.1726 566.2674,-134.392"/>
</g>
<!-- Node17&#45;&gt;Node9 -->
<g id="edge31" class="edge">
<title>Node17&#45;&gt;Node9</title>
<path fill="none" stroke="#191970" d="M911.636,-227.7895C959.3011,-220.116 1014.7637,-203.4285 992.9158,-168 955.7689,-107.7625 870.9692,-81.8574 823.5648,-71.7498"/>
<polygon fill="#191970" stroke="#191970" points="823.982,-68.2636 813.4876,-69.7196 822.5994,-75.1257 823.982,-68.2636"/>
</g>
<!-- Node18 -->
<g id="node19" class="node">
<title>Node18</title>
<polygon fill="none" stroke="#bfbfbf" points="709.9158,-168.5 709.9158,-187.5 767.9158,-187.5 767.9158,-168.5 709.9158,-168.5"/>
<text text-anchor="middle" x="738.9158" y="-175.5" font-family="Helvetica,sans-Serif" font-size="10.00" fill="#000000">memory</text>
</g>
<!-- Node17&#45;&gt;Node18 -->
<g id="edge28" class="edge">
<title>Node17&#45;&gt;Node18</title>
<path fill="none" stroke="#191970" d="M832.4904,-224.3733C814.5137,-215.4644 787.5717,-202.1127 767.2068,-192.0203"/>
<polygon fill="#191970" stroke="#191970" points="768.602,-188.8055 758.0877,-187.5011 765.4937,-195.0776 768.602,-188.8055"/>
</g>
<!-- Node19 -->
<g id="node20" class="node">
<title>Node19</title>
<polygon fill="none" stroke="#bfbfbf" points="786.4158,-168.5 786.4158,-187.5 851.4158,-187.5 851.4158,-168.5 786.4158,-168.5"/>
<text text-anchor="middle" x="818.9158" y="-175.5" font-family="Helvetica,sans-Serif" font-size="10.00" fill="#000000">functional</text>
</g>
<!-- Node17&#45;&gt;Node19 -->
<g id="edge29" class="edge">
<title>Node17&#45;&gt;Node19</title>
<path fill="none" stroke="#191970" d="M846.1677,-224.2455C841.6723,-216.617 835.291,-205.7881 829.8334,-196.5267"/>
<polygon fill="#191970" stroke="#191970" points="832.6905,-194.4811 824.5981,-187.6427 826.6597,-198.035 832.6905,-194.4811"/>
</g>
<!-- Node20 -->
<g id="node21" class="node">
<title>Node20</title>
<polygon fill="none" stroke="#bfbfbf" points="869.9158,-168.5 869.9158,-187.5 901.9158,-187.5 901.9158,-168.5 869.9158,-168.5"/>
<text text-anchor="middle" x="885.9158" y="-175.5" font-family="Helvetica,sans-Serif" font-size="10.00" fill="#000000">list</text>
</g>
<!-- Node17&#45;&gt;Node20 -->
<g id="edge30" class="edge">
<title>Node17&#45;&gt;Node20</title>
<path fill="none" stroke="#191970" d="M857.8382,-224.2455C862.5185,-216.5367 869.1831,-205.5598 874.8447,-196.2348"/>
<polygon fill="#191970" stroke="#191970" points="877.8633,-198.007 880.0614,-187.6427 871.8798,-194.3741 877.8633,-198.007"/>
</g>
<!-- Node21 -->
<g id="node22" class="node">
<title>Node21</title>
<polygon fill="none" stroke="#bfbfbf" points="919.9158,-168.5 919.9158,-187.5 983.9158,-187.5 983.9158,-168.5 919.9158,-168.5"/>
<text text-anchor="middle" x="951.9158" y="-175.5" font-family="Helvetica,sans-Serif" font-size="10.00" fill="#000000">algorithm</text>
</g>
<!-- Node17&#45;&gt;Node21 -->
<g id="edge32" class="edge">
<title>Node17&#45;&gt;Node21</title>
<path fill="none" stroke="#191970" d="M869.3345,-224.2455C884.9644,-215.4928 908.1177,-202.527 925.9344,-192.5496"/>
<polygon fill="#191970" stroke="#191970" points="927.6818,-195.5825 934.6968,-187.6427 924.2616,-189.475 927.6818,-195.5825"/>
</g>
</g>
</svg>
        <g id="navigator" transform="translate(0 0)" fill="#404254">
                <rect fill="#f2f5e9" fill-opacity="0.5" stroke="#606060" stroke-width=".5" x="0" y="0" width="60" height="60"/>
                <use id="zoomplus" xlink:href="#zoomPlus" x="17" y="9" onmousedown="handleZoom(evt,'in')"/>
                <use id="zoomminus" xlink:href="#zoomMin" x="42" y="9" onmousedown="handleZoom(evt,'out')"/>
                <use id="reset" xlink:href="#resetDef" x="30" y="36" onmousedown="handleReset()"/>
                <g id="arrowUp" xlink:href="#dirArrow" transform="translate(30 24)" onmousedown="handlePan(0,-1)">
                  <use xlink:href="#rim" fill="#404040">
                        <set attributeName="fill" to="#808080" begin="arrowUp.mouseover" end="arrowUp.mouseout"/>
                  </use>
                  <path fill="none" stroke="white" stroke-width="1.5" d="M0,-3.0v7 M-2.5,-0.5L0,-3.0L2.5,-0.5"/>
                </g>
                <g id="arrowRight" xlink:href="#dirArrow" transform="rotate(90) translate(36 -43)" onmousedown="handlePan(1,0)">
                  <use xlink:href="#rim" fill="#404040">
                        <set attributeName="fill" to="#808080" begin="arrowRight.mouseover" end="arrowRight.mouseout"/>
                  </use>
                  <path fill="none" stroke="white" stroke-width="1.5" d="M0,-3.0v7 M-2.5,-0.5L0,-3.0L2.5,-0.5"/>
                </g>
                <g id="arrowDown" xlink:href="#dirArrow" transform="rotate(180) translate(-30 -48)" onmousedown="handlePan(0,1)">
                  <use xlink:href="#rim" fill="#404040">
                        <set attributeName="fill" to="#808080" begin="arrowDown.mouseover" end="arrowDown.mouseout"/>
                  </use>
                  <path fill="none" stroke="white" stroke-width="1.5" d="M0,-3.0v7 M-2.5,-0.5L0,-3.0L2.5,-0.5"/>
                </g>
                <g id="arrowLeft" xlink:href="#dirArrow" transform="rotate(270) translate(-36 17)" onmousedown="handlePan(-1,0)">
                  <use xlink:href="#rim" fill="#404040">
                        <set attributeName="fill" to="#808080" begin="arrowLeft.mouseover" end="arrowLeft.mouseout"/>
                  </use>
                  <path fill="none" stroke="white" stroke-width="1.5" d="M0,-3.0v7 M-2.5,-0.5L0,-3.0L2.5,-0.5"/>
                </g>
        </g>
        <svg viewBox="0 0 15 15" width="100%" height="30px" preserveAspectRatio="xMaxYMin meet">
         <g id="arrow_out" transform="scale(0.3 0.3)">
          <a xlink:href="UIElement_8hxx__incl_org.svg" target="_base">
           <rect id="button" ry="5" rx="5" y="6" x="6" height="38" width="38"
                fill="#f2f5e9" fill-opacity="0.5" stroke="#606060" stroke-width="1.0"/>
           <path id="arrow"
             d="M 11.500037,31.436501 C 11.940474,20.09759 22.043105,11.32322 32.158766,21.979434 L 37.068811,17.246167 C 37.068811,17.246167 37.088388,32 37.088388,32 L 22.160133,31.978069 C 22.160133,31.978069 26.997745,27.140456 26.997745,27.140456 C 18.528582,18.264221 13.291696,25.230495 11.500037,31.436501 z"
             style="fill:#404040;"/>
          </a>
         </g>
        </svg>
</svg>
