<?xml version="1.0" encoding="UTF-8" standalone="no"?>
<!DOCTYPE svg PUBLIC "-//W3C//DTD SVG 1.1//EN"
 "http://www.w3.org/Graphics/SVG/1.1/DTD/svg11.dtd">
<!-- Generated by graphviz version 2.40.1 (20161225.0304)
 -->
<!-- Title: src/engine/ui/basics/UIElement.hxx Pages: 1 -->
<!--zoomable 430 -->
<svg id="main" version="1.1" xmlns="http://www.w3.org/2000/svg" xmlns:xlink="http://www.w3.org/1999/xlink" xml:space="preserve" onload="init(evt)">
<style type="text/css"><![CDATA[
.edge:hover path { stroke: red; }
.edge:hover polygon { stroke: red; fill: red; }
]]></style>
<script type="text/javascript"><![CDATA[
var edges = document.getElementsByTagName('g');
if (edges && edges.length) {
  for (var i=0;i<edges.length;i++) {
    if (edges[i].id.substr(0,4)=='edge') {
      edges[i].setAttribute('class','edge');
    }
  }
}
]]></script>
        <defs>
                <circle id="rim" cx="0" cy="0" r="7"/>
                <circle id="rim2" cx="0" cy="0" r="3.5"/>
                <g id="zoomPlus">
                        <use xlink:href="#rim" fill="#404040">
                                <set attributeName="fill" to="#808080" begin="zoomplus.mouseover" end="zoomplus.mouseout"/>
                        </use>
                        <path d="M-4,0h8M0,-4v8" fill="none" stroke="white" stroke-width="1.5" pointer-events="none"/>
                </g>
                <g id="zoomMin">
                        <use xlink:href="#rim" fill="#404040">
                                <set attributeName="fill" to="#808080" begin="zoomminus.mouseover" end="zoomminus.mouseout"/>
                        </use>
                        <path d="M-4,0h8" fill="none" stroke="white" stroke-width="1.5" pointer-events="none"/>
                </g>
                <g id="dirArrow">
                        <path fill="none" stroke="white" stroke-width="1.5" d="M0,-3.0v7 M-2.5,-0.5L0,-3.0L2.5,-0.5"/>
                </g>
               <g id="resetDef">
                       <use xlink:href="#rim2" fill="#404040">
                               <set attributeName="fill" to="#808080" begin="reset.mouseover" end="reset.mouseout"/>
                       </use>
               </g>
        </defs>

<script type="text/javascript">
var viewWidth = 1820;
var viewHeight = 430;
var sectionId = 'dynsection-1';
</script>
<script xlink:href="svgpan.js"/>
<svg id="graph" class="graph">
<g id="viewport">
<title>src/engine/ui/basics/UIElement.hxx</title>
<!-- Node22 -->
<g id="node1" class="node">
<title>Node22</title>
<polygon fill="#bfbfbf" stroke="#000000" points="849.5,-391.5 849.5,-421.5 962.5,-421.5 962.5,-391.5 849.5,-391.5"/>
<text text-anchor="start" x="857.5" y="-409.5" font-family="Helvetica,sans-Serif" font-size="10.00" fill="#000000">src/engine/ui/basics</text>
<text text-anchor="middle" x="906" y="-398.5" font-family="Helvetica,sans-Serif" font-size="10.00" fill="#000000">/UIElement.hxx</text>
</g>
<!-- Node23 -->
<g id="node2" class="node">
<title>Node23</title>
<g id="a_node2"><a xlink:href="UIManager_8hxx.html" target="_top" xlink:title="src/engine/UIManager.hxx">
<polygon fill="none" stroke="#000000" points="708.5,-129 708.5,-148 851.5,-148 851.5,-129 708.5,-129"/>
<text text-anchor="middle" x="780" y="-136" font-family="Helvetica,sans-Serif" font-size="10.00" fill="#000000">src/engine/UIManager.hxx</text>
</a>
</g>
</g>
<!-- Node22&#45;&gt;Node23 -->
<g id="edge1" class="edge">
<title>Node22&#45;&gt;Node23</title>
<path fill="none" stroke="#191970" d="M908.2911,-381.393C910.8981,-337.6152 909.9889,-246.5921 865,-190 849.4312,-170.4157 824.2295,-156.4948 805.302,-148.1046"/>
<polygon fill="#191970" stroke="#191970" points="904.7938,-381.2326 907.5772,-391.4553 911.7762,-381.7281 904.7938,-381.2326"/>
</g>
<!-- Node31 -->
<g id="node10" class="node">
<title>Node31</title>
<g id="a_node10"><a xlink:href="Layout_8hxx.html" target="_top" xlink:title="src/engine/ui/basics\l/Layout.hxx">
<polygon fill="none" stroke="#000000" points="67.5,-190.5 67.5,-220.5 180.5,-220.5 180.5,-190.5 67.5,-190.5"/>
<text text-anchor="start" x="75.5" y="-208.5" font-family="Helvetica,sans-Serif" font-size="10.00" fill="#000000">src/engine/ui/basics</text>
<text text-anchor="middle" x="124" y="-197.5" font-family="Helvetica,sans-Serif" font-size="10.00" fill="#000000">/Layout.hxx</text>
</a>
</g>
</g>
<!-- Node22&#45;&gt;Node31 -->
<g id="edge10" class="edge">
<title>Node22&#45;&gt;Node31</title>
<path fill="none" stroke="#191970" d="M839.1351,-403.2623C690.5748,-395.7277 342.2376,-376.0518 293,-355 222.0432,-324.662 160.2152,-252.4854 135.4853,-220.828"/>
<polygon fill="#191970" stroke="#191970" points="839.3158,-406.7757 849.4794,-403.7836 839.6683,-399.7846 839.3158,-406.7757"/>
</g>
<!-- Node32 -->
<g id="node11" class="node">
<title>Node32</title>
<g id="a_node11"><a xlink:href="ButtonGroup_8hxx.html" target="_top" xlink:title="src/engine/ui/basics\l/ButtonGroup.hxx">
<polygon fill="none" stroke="#000000" points="198.5,-190.5 198.5,-220.5 311.5,-220.5 311.5,-190.5 198.5,-190.5"/>
<text text-anchor="start" x="206.5" y="-208.5" font-family="Helvetica,sans-Serif" font-size="10.00" fill="#000000">src/engine/ui/basics</text>
<text text-anchor="middle" x="255" y="-197.5" font-family="Helvetica,sans-Serif" font-size="10.00" fill="#000000">/ButtonGroup.hxx</text>
</a>
</g>
</g>
<!-- Node22&#45;&gt;Node32 -->
<g id="edge13" class="edge">
<title>Node22&#45;&gt;Node32</title>
<path fill="none" stroke="#191970" d="M839.2847,-404.7241C746.6662,-401.0278 574.4426,-389.6861 432,-355 351.8873,-335.4918 307.235,-354.873 259,-288 244.8231,-268.3452 247.6209,-238.6869 251.1599,-220.7985"/>
<polygon fill="#191970" stroke="#191970" points="839.2333,-408.2246 849.3594,-405.1084 839.5001,-401.2297 839.2333,-408.2246"/>
</g>
<!-- Node33 -->
<g id="node12" class="node">
<title>Node33</title>
<g id="a_node12"><a xlink:href="IMenuGroup_8hxx.html" target="_top" xlink:title="src/engine/ui/menuGroups\l/IMenuGroup.hxx">
<polygon fill="none" stroke="#000000" points="0,-123.5 0,-153.5 144,-153.5 144,-123.5 0,-123.5"/>
<text text-anchor="start" x="8" y="-141.5" font-family="Helvetica,sans-Serif" font-size="10.00" fill="#000000">src/engine/ui/menuGroups</text>
<text text-anchor="middle" x="72" y="-130.5" font-family="Helvetica,sans-Serif" font-size="10.00" fill="#000000">/IMenuGroup.hxx</text>
</a>
</g>
</g>
<!-- Node22&#45;&gt;Node33 -->
<g id="edge48" class="edge">
<title>Node22&#45;&gt;Node33</title>
<path fill="none" stroke="#191970" d="M839.3486,-403.4858C681.2075,-396.0326 292.3794,-375.8271 237,-355 143.9827,-320.018 102.4829,-309.8663 58,-221 47.1403,-199.305 56.4069,-170.8071 64.1626,-153.6143"/>
<polygon fill="#191970" stroke="#191970" points="839.2725,-406.986 849.4254,-403.9582 839.6003,-399.9937 839.2725,-406.986"/>
</g>
<!-- Node34 -->
<g id="node13" class="node">
<title>Node34</title>
<g id="a_node13"><a xlink:href="Button_8hxx.html" target="_top" xlink:title="src/engine/ui/widgets\l/Button.hxx">
<polygon fill="none" stroke="#000000" points="268,-257.5 268,-287.5 388,-287.5 388,-257.5 268,-257.5"/>
<text text-anchor="start" x="276" y="-275.5" font-family="Helvetica,sans-Serif" font-size="10.00" fill="#000000">src/engine/ui/widgets</text>
<text text-anchor="middle" x="328" y="-264.5" font-family="Helvetica,sans-Serif" font-size="10.00" fill="#000000">/Button.hxx</text>
</a>
</g>
</g>
<!-- Node22&#45;&gt;Node34 -->
<g id="edge17" class="edge">
<title>Node22&#45;&gt;Node34</title>
<path fill="none" stroke="#191970" d="M839.1667,-402.9177C761.8804,-397.5408 631.3851,-384.6411 523,-355 461.6588,-338.2245 394.1714,-306.446 356.8581,-287.603"/>
<polygon fill="#191970" stroke="#191970" points="839.0353,-406.4167 849.2481,-403.5973 839.5062,-399.4325 839.0353,-406.4167"/>
</g>
<!-- Node36 -->
<g id="node15" class="node">
<title>Node36</title>
<g id="a_node15"><a xlink:href="Text_8hxx.html" target="_top" xlink:title="src/engine/ui/widgets\l/Text.hxx">
<polygon fill="none" stroke="#000000" points="532,-324.5 532,-354.5 652,-354.5 652,-324.5 532,-324.5"/>
<text text-anchor="start" x="540" y="-342.5" font-family="Helvetica,sans-Serif" font-size="10.00" fill="#000000">src/engine/ui/widgets</text>
<text text-anchor="middle" x="592" y="-331.5" font-family="Helvetica,sans-Serif" font-size="10.00" fill="#000000">/Text.hxx</text>
</a>
</g>
</g>
<!-- Node22&#45;&gt;Node36 -->
<g id="edge21" class="edge">
<title>Node22&#45;&gt;Node36</title>
<path fill="none" stroke="#191970" d="M839.0656,-392.2178C783.6596,-380.3955 705.6401,-363.748 652.1839,-352.3418"/>
<polygon fill="#191970" stroke="#191970" points="838.6267,-395.7029 849.137,-394.3668 840.0875,-388.857 838.6267,-395.7029"/>
</g>
<!-- Node37 -->
<g id="node16" class="node">
<title>Node37</title>
<g id="a_node16"><a xlink:href="TextField_8hxx.html" target="_top" xlink:title="src/engine/ui/widgets\l/TextField.hxx">
<polygon fill="none" stroke="#000000" points="620,-257.5 620,-287.5 740,-287.5 740,-257.5 620,-257.5"/>
<text text-anchor="start" x="628" y="-275.5" font-family="Helvetica,sans-Serif" font-size="10.00" fill="#000000">src/engine/ui/widgets</text>
<text text-anchor="middle" x="680" y="-264.5" font-family="Helvetica,sans-Serif" font-size="10.00" fill="#000000">/TextField.hxx</text>
</a>
</g>
</g>
<!-- Node22&#45;&gt;Node37 -->
<g id="edge39" class="edge">
<title>Node22&#45;&gt;Node37</title>
<path fill="none" stroke="#191970" d="M871.853,-386.2536C826.1503,-359.1555 746.1333,-311.7118 705.3926,-287.5558"/>
<polygon fill="#191970" stroke="#191970" points="870.1275,-389.2994 880.5142,-391.389 873.6976,-383.2782 870.1275,-389.2994"/>
</g>
<!-- Node38 -->
<g id="node17" class="node">
<title>Node38</title>
<g id="a_node17"><a xlink:href="Combobox_8hxx.html" target="_top" xlink:title="src/engine/ui/widgets\l/Combobox.hxx">
<polygon fill="none" stroke="#000000" points="1324,-190.5 1324,-220.5 1444,-220.5 1444,-190.5 1324,-190.5"/>
<text text-anchor="start" x="1332" y="-208.5" font-family="Helvetica,sans-Serif" font-size="10.00" fill="#000000">src/engine/ui/widgets</text>
<text text-anchor="middle" x="1384" y="-197.5" font-family="Helvetica,sans-Serif" font-size="10.00" fill="#000000">/Combobox.hxx</text>
</a>
</g>
</g>
<!-- Node22&#45;&gt;Node38 -->
<g id="edge38" class="edge">
<title>Node22&#45;&gt;Node38</title>
<path fill="none" stroke="#191970" d="M972.785,-403.2852C1079.9438,-397.3784 1285.0452,-382.7795 1352,-355 1372.4517,-346.5146 1372.7108,-336.4811 1391,-324 1417.3193,-306.0389 1437.1021,-315.6146 1453,-288 1459.8742,-276.0596 1459.1759,-269.3161 1453,-257 1445.0935,-241.2327 1429.8158,-229.0591 1415.6421,-220.5161"/>
<polygon fill="#191970" stroke="#191970" points="972.5246,-399.794 962.7285,-403.8298 972.9032,-406.7838 972.5246,-399.794"/>
</g>
<!-- Node41 -->
<g id="node20" class="node">
<title>Node41</title>
<g id="a_node20"><a xlink:href="Tooltip_8hxx.html" target="_top" xlink:title="src/engine/ui/widgets\l/Tooltip.hxx">
<polygon fill="none" stroke="#000000" points="758,-257.5 758,-287.5 878,-287.5 878,-257.5 758,-257.5"/>
<text text-anchor="start" x="766" y="-275.5" font-family="Helvetica,sans-Serif" font-size="10.00" fill="#000000">src/engine/ui/widgets</text>
<text text-anchor="middle" x="818" y="-264.5" font-family="Helvetica,sans-Serif" font-size="10.00" fill="#000000">/Tooltip.hxx</text>
</a>
</g>
</g>
<!-- Node22&#45;&gt;Node41 -->
<g id="edge43" class="edge">
<title>Node22&#45;&gt;Node41</title>
<path fill="none" stroke="#191970" d="M890.4281,-382.7882C872.4091,-355.3502 843.2672,-310.9751 828.0224,-287.7614"/>
<polygon fill="#191970" stroke="#191970" points="887.6615,-384.9515 896.0763,-391.389 893.5126,-381.109 887.6615,-384.9515"/>
</g>
<!-- Node44 -->
<g id="node23" class="node">
<title>Node44</title>
<g id="a_node23"><a xlink:href="Checkbox_8hxx.html" target="_top" xlink:title="src/engine/ui/widgets\l/Checkbox.hxx">
<polygon fill="none" stroke="#000000" points="1072,-324.5 1072,-354.5 1192,-354.5 1192,-324.5 1072,-324.5"/>
<text text-anchor="start" x="1080" y="-342.5" font-family="Helvetica,sans-Serif" font-size="10.00" fill="#000000">src/engine/ui/widgets</text>
<text text-anchor="middle" x="1132" y="-331.5" font-family="Helvetica,sans-Serif" font-size="10.00" fill="#000000">/Checkbox.hxx</text>
</a>
</g>
</g>
<!-- Node22&#45;&gt;Node44 -->
<g id="edge35" class="edge">
<title>Node22&#45;&gt;Node44</title>
<path fill="none" stroke="#191970" d="M966.5531,-388.5484C1002.3258,-377.9432 1047.11,-364.6665 1081.06,-354.6017"/>
<polygon fill="#191970" stroke="#191970" points="965.3115,-385.2658 956.7188,-391.4639 967.3012,-391.9771 965.3115,-385.2658"/>
</g>
<!-- Node46 -->
<g id="node25" class="node">
<title>Node46</title>
<g id="a_node25"><a xlink:href="Frame_8hxx.html" target="_top" xlink:title="src/engine/ui/widgets\l/Frame.hxx">
<polygon fill="none" stroke="#000000" points="1223,-324.5 1223,-354.5 1343,-354.5 1343,-324.5 1223,-324.5"/>
<text text-anchor="start" x="1231" y="-342.5" font-family="Helvetica,sans-Serif" font-size="10.00" fill="#000000">src/engine/ui/widgets</text>
<text text-anchor="middle" x="1283" y="-331.5" font-family="Helvetica,sans-Serif" font-size="10.00" fill="#000000">/Frame.hxx</text>
</a>
</g>
</g>
<!-- Node22&#45;&gt;Node46 -->
<g id="edge40" class="edge">
<title>Node22&#45;&gt;Node46</title>
<path fill="none" stroke="#191970" d="M972.6645,-395.1357C1032.4862,-384.8727 1122.6663,-369.2404 1201,-355 1207.9847,-353.7302 1215.2998,-352.3787 1222.5629,-351.0232"/>
<polygon fill="#191970" stroke="#191970" points="971.8602,-391.7224 962.5953,-396.8616 973.0428,-398.6218 971.8602,-391.7224"/>
</g>
<!-- Node48 -->
<g id="node27" class="node">
<title>Node48</title>
<g id="a_node27"><a xlink:href="Slider_8hxx.html" target="_top" xlink:title="src/engine/ui/widgets\l/Slider.hxx">
<polygon fill="none" stroke="#000000" points="934,-324.5 934,-354.5 1054,-354.5 1054,-324.5 934,-324.5"/>
<text text-anchor="start" x="942" y="-342.5" font-family="Helvetica,sans-Serif" font-size="10.00" fill="#000000">src/engine/ui/widgets</text>
<text text-anchor="middle" x="994" y="-331.5" font-family="Helvetica,sans-Serif" font-size="10.00" fill="#000000">/Slider.hxx</text>
</a>
</g>
</g>
<!-- Node22&#45;&gt;Node48 -->
<g id="edge44" class="edge">
<title>Node22&#45;&gt;Node48</title>
<path fill="none" stroke="#191970" d="M934.1543,-385.0643C947.166,-375.1577 962.3114,-363.6265 974.1105,-354.6432"/>
<polygon fill="#191970" stroke="#191970" points="931.8048,-382.4542 925.9686,-391.2967 936.0452,-388.0237 931.8048,-382.4542"/>
</g>
<!-- Node50 -->
<g id="node29" class="node">
<title>Node50</title>
<g id="a_node29"><a xlink:href="UIElement_8cxx.html" target="_top" xlink:title="src/engine/ui/basics\l/UIElement.cxx">
<polygon fill="none" stroke="#000000" points="1399.5,-324.5 1399.5,-354.5 1512.5,-354.5 1512.5,-324.5 1399.5,-324.5"/>
<text text-anchor="start" x="1407.5" y="-342.5" font-family="Helvetica,sans-Serif" font-size="10.00" fill="#000000">src/engine/ui/basics</text>
<text text-anchor="middle" x="1456" y="-331.5" font-family="Helvetica,sans-Serif" font-size="10.00" fill="#000000">/UIElement.cxx</text>
</a>
</g>
</g>
<!-- Node22&#45;&gt;Node50 -->
<g id="edge47" class="edge">
<title>Node22&#45;&gt;Node50</title>
<path fill="none" stroke="#191970" d="M972.7815,-400.2192C1085.1454,-389.5002 1307.344,-367.6134 1385,-355 1389.6078,-354.2516 1394.3668,-353.3957 1399.137,-352.4791"/>
<polygon fill="#191970" stroke="#191970" points="972.21,-396.7577 962.5868,-401.1898 972.8736,-403.7262 972.21,-396.7577"/>
</g>
<!-- Node51 -->
<g id="node30" class="node">
<title>Node51</title>
<g id="a_node30"><a xlink:href="Bar_8hxx.html" target="_top" xlink:title="src/engine/ui/widgets\l/Bar.hxx">
<polygon fill="none" stroke="#000000" points="1531,-324.5 1531,-354.5 1651,-354.5 1651,-324.5 1531,-324.5"/>
<text text-anchor="start" x="1539" y="-342.5" font-family="Helvetica,sans-Serif" font-size="10.00" fill="#000000">src/engine/ui/widgets</text>
<text text-anchor="middle" x="1591" y="-331.5" font-family="Helvetica,sans-Serif" font-size="10.00" fill="#000000">/Bar.hxx</text>
</a>
</g>
</g>
<!-- Node22&#45;&gt;Node51 -->
<g id="edge49" class="edge">
<title>Node22&#45;&gt;Node51</title>
<path fill="none" stroke="#191970" d="M973.0519,-403.9166C1086.5974,-398.8679 1323.7262,-385.4104 1522,-355 1524.9126,-354.5533 1527.8855,-354.0541 1530.8819,-353.5162"/>
<polygon fill="#191970" stroke="#191970" points="972.6217,-400.432 962.784,-404.3651 972.9273,-407.4253 972.6217,-400.432"/>
</g>
<!-- Node53 -->
<g id="node32" class="node">
<title>Node53</title>
<g id="a_node32"><a xlink:href="Image_8hxx.html" target="_top" xlink:title="src/engine/ui/widgets\l/Image.hxx">
<polygon fill="none" stroke="#000000" points="1669,-324.5 1669,-354.5 1789,-354.5 1789,-324.5 1669,-324.5"/>
<text text-anchor="start" x="1677" y="-342.5" font-family="Helvetica,sans-Serif" font-size="10.00" fill="#000000">src/engine/ui/widgets</text>
<text text-anchor="middle" x="1729" y="-331.5" font-family="Helvetica,sans-Serif" font-size="10.00" fill="#000000">/Image.hxx</text>
</a>
</g>
</g>
<!-- Node22&#45;&gt;Node53 -->
<g id="edge51" class="edge">
<title>Node22&#45;&gt;Node53</title>
<path fill="none" stroke="#191970" d="M972.9396,-405.3542C1104.9966,-402.3392 1408.1176,-391.6738 1660,-355 1662.9159,-354.5754 1665.8915,-354.0943 1668.89,-353.5708"/>
<polygon fill="#191970" stroke="#191970" points="972.5119,-401.8627 962.5916,-405.5827 972.6664,-408.861 972.5119,-401.8627"/>
</g>
<!-- Node24 -->
<g id="node3" class="node">
<title>Node24</title>
<g id="a_node3"><a xlink:href="EventManager_8hxx.html" target="_top" xlink:title="src/engine/EventManager.hxx">
<polygon fill="none" stroke="#000000" points="692,-62 692,-81 852,-81 852,-62 692,-62"/>
<text text-anchor="middle" x="772" y="-69" font-family="Helvetica,sans-Serif" font-size="10.00" fill="#000000">src/engine/EventManager.hxx</text>
</a>
</g>
</g>
<!-- Node23&#45;&gt;Node24 -->
<g id="edge2" class="edge">
<title>Node23&#45;&gt;Node24</title>
<path fill="none" stroke="#191970" d="M777.6248,-118.6079C776.145,-106.214 774.3076,-90.8263 773.1441,-81.0817"/>
<polygon fill="#191970" stroke="#191970" points="774.1928,-119.3861 778.8538,-128.9005 781.1434,-118.5561 774.1928,-119.3861"/>
</g>
<!-- Node27 -->
<g id="node6" class="node">
<title>Node27</title>
<g id="a_node6"><a xlink:href="Game_8cxx.html" target="_top" xlink:title="src/Game.cxx">
<polygon fill="none" stroke="#000000" points="866.5,-.5 866.5,-19.5 949.5,-19.5 949.5,-.5 866.5,-.5"/>
<text text-anchor="middle" x="908" y="-7.5" font-family="Helvetica,sans-Serif" font-size="10.00" fill="#000000">src/Game.cxx</text>
</a>
</g>
</g>
<!-- Node23&#45;&gt;Node27 -->
<g id="edge9" class="edge">
<title>Node23&#45;&gt;Node27</title>
<path fill="none" stroke="#191970" d="M809.6554,-123.9652C826.1023,-114.9064 846.1654,-102.1086 861,-87 881.1896,-66.4374 896.6369,-35.6552 903.729,-19.9668"/>
<polygon fill="#191970" stroke="#191970" points="807.643,-121.0711 800.4565,-128.856 810.9292,-127.2519 807.643,-121.0711"/>
</g>
<!-- Node28 -->
<g id="node7" class="node">
<title>Node28</title>
<g id="a_node7"><a xlink:href="ButtonGroup_8cxx.html" target="_top" xlink:title="src/engine/ui/basics\l/ButtonGroup.cxx">
<polygon fill="none" stroke="#000000" points="493.5,-56.5 493.5,-86.5 606.5,-86.5 606.5,-56.5 493.5,-56.5"/>
<text text-anchor="start" x="501.5" y="-74.5" font-family="Helvetica,sans-Serif" font-size="10.00" fill="#000000">src/engine/ui/basics</text>
<text text-anchor="middle" x="550" y="-63.5" font-family="Helvetica,sans-Serif" font-size="10.00" fill="#000000">/ButtonGroup.cxx</text>
</a>
</g>
</g>
<!-- Node23&#45;&gt;Node28 -->
<g id="edge6" class="edge">
<title>Node23&#45;&gt;Node28</title>
<path fill="none" stroke="#191970" d="M737.2131,-126.036C698.8322,-114.8555 642.4262,-98.4242 601.5672,-86.5218"/>
<polygon fill="#191970" stroke="#191970" points="736.4668,-129.464 747.0466,-128.9005 738.4246,-122.7433 736.4668,-129.464"/>
</g>
<!-- Node29 -->
<g id="node8" class="node">
<title>Node29</title>
<g id="a_node8"><a xlink:href="Layout_8cxx.html" target="_top" xlink:title="src/engine/ui/basics\l/Layout.cxx">
<polygon fill="none" stroke="#000000" points="229.5,-56.5 229.5,-86.5 342.5,-86.5 342.5,-56.5 229.5,-56.5"/>
<text text-anchor="start" x="237.5" y="-74.5" font-family="Helvetica,sans-Serif" font-size="10.00" fill="#000000">src/engine/ui/basics</text>
<text text-anchor="middle" x="286" y="-63.5" font-family="Helvetica,sans-Serif" font-size="10.00" fill="#000000">/Layout.cxx</text>
</a>
</g>
</g>
<!-- Node23&#45;&gt;Node29 -->
<g id="edge7" class="edge">
<title>Node23&#45;&gt;Node29</title>
<path fill="none" stroke="#191970" d="M699.6604,-127.6037C599.3463,-113.9984 430.2914,-91.0699 342.5924,-79.1755"/>
<polygon fill="#191970" stroke="#191970" points="699.3668,-131.0959 709.7465,-128.9717 700.3076,-124.1594 699.3668,-131.0959"/>
</g>
<!-- Node30 -->
<g id="node9" class="node">
<title>Node30</title>
<g id="a_node9"><a xlink:href="UIManager_8cxx.html" target="_top" xlink:title="src/engine/UIManager.cxx">
<polygon fill="none" stroke="#000000" points="908,-62 908,-81 1050,-81 1050,-62 908,-62"/>
<text text-anchor="middle" x="979" y="-69" font-family="Helvetica,sans-Serif" font-size="10.00" fill="#000000">src/engine/UIManager.cxx</text>
</a>
</g>
</g>
<!-- Node23&#45;&gt;Node30 -->
<g id="edge8" class="edge">
<title>Node23&#45;&gt;Node30</title>
<path fill="none" stroke="#191970" d="M818.3667,-125.5826C857.0424,-112.5611 915.8389,-92.7653 950.541,-81.0817"/>
<polygon fill="#191970" stroke="#191970" points="816.8723,-122.3926 808.5118,-128.9005 819.1059,-129.0267 816.8723,-122.3926"/>
</g>
<!-- Node25 -->
<g id="node4" class="node">
<title>Node25</title>
<g id="a_node4"><a xlink:href="Timer_8cxx.html" target="_top" xlink:title="src/engine/basics/Timer.cxx">
<polygon fill="none" stroke="#000000" points="696,-.5 696,-19.5 848,-19.5 848,-.5 696,-.5"/>
<text text-anchor="middle" x="772" y="-7.5" font-family="Helvetica,sans-Serif" font-size="10.00" fill="#000000">src/engine/basics/Timer.cxx</text>
</a>
</g>
</g>
<!-- Node24&#45;&gt;Node25 -->
<g id="edge3" class="edge">
<title>Node24&#45;&gt;Node25</title>
<path fill="none" stroke="#191970" d="M772,-51.7462C772,-41.0519 772,-28.314 772,-19.7449"/>
<polygon fill="#191970" stroke="#191970" points="768.5001,-51.8906 772,-61.8906 775.5001,-51.8907 768.5001,-51.8906"/>
</g>
<!-- Node26 -->
<g id="node5" class="node">
<title>Node26</title>
<g id="a_node5"><a xlink:href="EventManager_8cxx.html" target="_top" xlink:title="src/engine/EventManager.cxx">
<polygon fill="none" stroke="#000000" points="518.5,-.5 518.5,-19.5 677.5,-19.5 677.5,-.5 518.5,-.5"/>
<text text-anchor="middle" x="598" y="-7.5" font-family="Helvetica,sans-Serif" font-size="10.00" fill="#000000">src/engine/EventManager.cxx</text>
</a>
</g>
</g>
<!-- Node24&#45;&gt;Node26 -->
<g id="edge4" class="edge">
<title>Node24&#45;&gt;Node26</title>
<path fill="none" stroke="#191970" d="M735.0791,-58.4504C702.0932,-46.7916 654.5434,-29.9852 624.9966,-19.5419"/>
<polygon fill="#191970" stroke="#191970" points="734.2177,-61.8581 744.8125,-61.8906 736.5505,-55.2582 734.2177,-61.8581"/>
</g>
<!-- Node24&#45;&gt;Node27 -->
<g id="edge5" class="edge">
<title>Node24&#45;&gt;Node27</title>
<path fill="none" stroke="#191970" d="M802.5402,-57.6895C828.2352,-46.0701 864.3028,-29.7601 886.8992,-19.5419"/>
<polygon fill="#191970" stroke="#191970" points="800.9195,-54.5811 793.25,-61.8906 803.8038,-60.9593 800.9195,-54.5811"/>
</g>
<!-- Node31&#45;&gt;Node23 -->
<g id="edge11" class="edge">
<title>Node31&#45;&gt;Node23</title>
<path fill="none" stroke="#191970" d="M190.6002,-189.8773C382.3461,-159.4644 598.4128,-146.4524 708.1664,-141.348"/>
<polygon fill="#191970" stroke="#191970" points="189.94,-186.4384 180.6213,-191.4795 191.0498,-193.3499 189.94,-186.4384"/>
</g>
<!-- Node31&#45;&gt;Node29 -->
<g id="edge12" class="edge">
<title>Node31&#45;&gt;Node29</title>
<path fill="none" stroke="#191970" d="M150.1131,-183.9003C183.0214,-156.6798 238.7532,-110.5807 267.5497,-86.7614"/>
<polygon fill="#191970" stroke="#191970" points="147.7433,-181.3183 142.2686,-190.389 152.2049,-186.7122 147.7433,-181.3183"/>
</g>
<!-- Node32&#45;&gt;Node23 -->
<g id="edge14" class="edge">
<title>Node32&#45;&gt;Node23</title>
<path fill="none" stroke="#191970" d="M322.0811,-190.6664C323.3973,-190.4368 324.7047,-190.2143 326,-190 460.2181,-167.7963 618.358,-152.2291 708.1318,-144.3715"/>
<polygon fill="#191970" stroke="#191970" points="321.0669,-187.2944 311.8678,-192.5505 322.3369,-194.1782 321.0669,-187.2944"/>
</g>
<!-- Node32&#45;&gt;Node28 -->
<g id="edge15" class="edge">
<title>Node32&#45;&gt;Node28</title>
<path fill="none" stroke="#191970" d="M297.7228,-186.0937C357.0471,-159.1464 463.1216,-110.9634 516.8548,-86.5558"/>
<polygon fill="#191970" stroke="#191970" points="295.924,-183.0666 288.2668,-190.389 298.8191,-189.4399 295.924,-183.0666"/>
</g>
<!-- Node32&#45;&gt;Node33 -->
<g id="edge16" class="edge">
<title>Node32&#45;&gt;Node33</title>
<path fill="none" stroke="#191970" d="M204.4763,-187.0023C175.7645,-176.4903 140.2685,-163.4945 113.2479,-153.6017"/>
<polygon fill="#191970" stroke="#191970" points="203.3375,-190.3125 213.9312,-190.4639 205.7441,-183.7392 203.3375,-190.3125"/>
</g>
<!-- Node34&#45;&gt;Node23 -->
<g id="edge19" class="edge">
<title>Node34&#45;&gt;Node23</title>
<path fill="none" stroke="#191970" d="M330.5752,-247.2698C333.9024,-228.4622 341.5274,-203.7447 359,-190 385.8755,-168.8586 595.396,-151.2836 708.3629,-143.2299"/>
<polygon fill="#191970" stroke="#191970" points="327.0972,-246.8643 329.1021,-257.2677 334.0225,-247.8848 327.0972,-246.8643"/>
</g>
<!-- Node34&#45;&gt;Node32 -->
<g id="edge18" class="edge">
<title>Node34&#45;&gt;Node32</title>
<path fill="none" stroke="#191970" d="M304.026,-250.4965C293.3733,-240.7193 281.1007,-229.4554 271.4993,-220.6432"/>
<polygon fill="#191970" stroke="#191970" points="301.7011,-253.1134 311.4352,-257.2967 306.4344,-247.9562 301.7011,-253.1134"/>
</g>
<!-- Node35 -->
<g id="node14" class="node">
<title>Node35</title>
<g id="a_node14"><a xlink:href="Button_8cxx.html" target="_top" xlink:title="src/engine/ui/widgets\l/Button.cxx">
<polygon fill="none" stroke="#000000" points="368,-190.5 368,-220.5 488,-220.5 488,-190.5 368,-190.5"/>
<text text-anchor="start" x="376" y="-208.5" font-family="Helvetica,sans-Serif" font-size="10.00" fill="#000000">src/engine/ui/widgets</text>
<text text-anchor="middle" x="428" y="-197.5" font-family="Helvetica,sans-Serif" font-size="10.00" fill="#000000">/Button.cxx</text>
</a>
</g>
</g>
<!-- Node34&#45;&gt;Node35 -->
<g id="edge20" class="edge">
<title>Node34&#45;&gt;Node35</title>
<path fill="none" stroke="#191970" d="M359.1513,-251.6286C374.1225,-241.5979 391.7349,-229.7976 405.3983,-220.6432"/>
<polygon fill="#191970" stroke="#191970" points="357.0511,-248.8228 350.6915,-257.2967 360.9474,-254.6382 357.0511,-248.8228"/>
</g>
<!-- Node36&#45;&gt;Node23 -->
<g id="edge29" class="edge">
<title>Node36&#45;&gt;Node23</title>
<path fill="none" stroke="#191970" d="M577.3212,-315.6093C555.5363,-278.6727 518.8624,-209.8824 535,-190 556.5362,-163.4662 644.0564,-150.098 708.3724,-143.7328"/>
<polygon fill="#191970" stroke="#191970" points="574.3611,-317.4788 582.4977,-324.2645 580.3686,-313.8858 574.3611,-317.4788"/>
</g>
<!-- Node36&#45;&gt;Node34 -->
<g id="edge22" class="edge">
<title>Node36&#45;&gt;Node34</title>
<path fill="none" stroke="#191970" d="M522.8674,-321.955C480.8213,-311.2842 427.672,-297.7955 387.5052,-287.6017"/>
<polygon fill="#191970" stroke="#191970" points="522.1995,-325.3964 532.7532,-324.4639 523.9215,-318.6115 522.1995,-325.3964"/>
</g>
<!-- Node36&#45;&gt;Node37 -->
<g id="edge23" class="edge">
<title>Node36&#45;&gt;Node37</title>
<path fill="none" stroke="#191970" d="M620.1543,-318.0643C633.166,-308.1577 648.3114,-296.6265 660.1105,-287.6432"/>
<polygon fill="#191970" stroke="#191970" points="617.8048,-315.4542 611.9686,-324.2967 622.0452,-321.0237 617.8048,-315.4542"/>
</g>
<!-- Node40 -->
<g id="node19" class="node">
<title>Node40</title>
<g id="a_node19"><a xlink:href="TextField_8cxx.html" target="_top" xlink:title="src/engine/ui/widgets\l/TextField.cxx">
<polygon fill="none" stroke="#000000" points="544,-190.5 544,-220.5 664,-220.5 664,-190.5 544,-190.5"/>
<text text-anchor="start" x="552" y="-208.5" font-family="Helvetica,sans-Serif" font-size="10.00" fill="#000000">src/engine/ui/widgets</text>
<text text-anchor="middle" x="604" y="-197.5" font-family="Helvetica,sans-Serif" font-size="10.00" fill="#000000">/TextField.cxx</text>
</a>
</g>
</g>
<!-- Node36&#45;&gt;Node40 -->
<g id="edge34" class="edge">
<title>Node36&#45;&gt;Node40</title>
<path fill="none" stroke="#191970" d="M594.253,-314.3415C596.7182,-286.8131 600.5906,-243.5714 602.6333,-220.7614"/>
<polygon fill="#191970" stroke="#191970" points="590.7592,-314.1166 593.3532,-324.389 597.7313,-314.741 590.7592,-314.1166"/>
</g>
<!-- Node36&#45;&gt;Node41 -->
<g id="edge30" class="edge">
<title>Node36&#45;&gt;Node41</title>
<path fill="none" stroke="#191970" d="M652.5531,-321.5484C688.3258,-310.9432 733.11,-297.6665 767.06,-287.6017"/>
<polygon fill="#191970" stroke="#191970" points="651.3115,-318.2658 642.7188,-324.4639 653.3012,-324.9771 651.3115,-318.2658"/>
</g>
<!-- Node43 -->
<g id="node22" class="node">
<title>Node43</title>
<g id="a_node22"><a xlink:href="Text_8cxx.html" target="_top" xlink:title="src/engine/ui/widgets\l/Text.cxx">
<polygon fill="none" stroke="#000000" points="406,-257.5 406,-287.5 526,-287.5 526,-257.5 406,-257.5"/>
<text text-anchor="start" x="414" y="-275.5" font-family="Helvetica,sans-Serif" font-size="10.00" fill="#000000">src/engine/ui/widgets</text>
<text text-anchor="middle" x="466" y="-264.5" font-family="Helvetica,sans-Serif" font-size="10.00" fill="#000000">/Text.cxx</text>
</a>
</g>
</g>
<!-- Node36&#45;&gt;Node43 -->
<g id="edge33" class="edge">
<title>Node36&#45;&gt;Node43</title>
<path fill="none" stroke="#191970" d="M554.6422,-319.6352C535.4355,-309.422 512.3947,-297.1702 494.6184,-287.7177"/>
<polygon fill="#191970" stroke="#191970" points="553.2505,-322.8591 563.7231,-324.4639 556.537,-316.6786 553.2505,-322.8591"/>
</g>
<!-- Node37&#45;&gt;Node23 -->
<g id="edge27" class="edge">
<title>Node37&#45;&gt;Node23</title>
<path fill="none" stroke="#191970" d="M685.487,-247.2546C690.1662,-229.9036 698.2103,-207.0166 711,-190 724.6512,-171.8373 746.4168,-157.087 761.8483,-148.1"/>
<polygon fill="#191970" stroke="#191970" points="682.0204,-246.6909 682.996,-257.2407 688.8123,-248.3851 682.0204,-246.6909"/>
</g>
<!-- Node37&#45;&gt;Node38 -->
<g id="edge24" class="edge">
<title>Node37&#45;&gt;Node38</title>
<path fill="none" stroke="#191970" d="M750.0638,-256.9736C966.2656,-224.7158 1212.2177,-212.0298 1323.7042,-207.5769"/>
<polygon fill="#191970" stroke="#191970" points="749.4824,-253.5216 740.1168,-258.4749 750.5272,-260.4433 749.4824,-253.5216"/>
</g>
<!-- Node37&#45;&gt;Node40 -->
<g id="edge28" class="edge">
<title>Node37&#45;&gt;Node40</title>
<path fill="none" stroke="#191970" d="M655.0408,-250.4965C643.9503,-240.7193 631.1733,-229.4554 621.1773,-220.6432"/>
<polygon fill="#191970" stroke="#191970" points="652.9386,-253.3091 662.7544,-257.2967 657.5677,-248.0582 652.9386,-253.3091"/>
</g>
<!-- Node38&#45;&gt;Node23 -->
<g id="edge25" class="edge">
<title>Node38&#45;&gt;Node23</title>
<path fill="none" stroke="#191970" d="M1313.8626,-190.6085C1312.5657,-190.3983 1311.2773,-190.1952 1310,-190 1147.1045,-165.1024 954.0999,-149.9085 851.8903,-142.976"/>
<polygon fill="#191970" stroke="#191970" points="1313.4758,-194.0933 1323.9248,-192.3418 1314.6642,-187.1949 1313.4758,-194.0933"/>
</g>
<!-- Node39 -->
<g id="node18" class="node">
<title>Node39</title>
<g id="a_node18"><a xlink:href="Combobox_8cxx.html" target="_top" xlink:title="src/engine/ui/widgets\l/Combobox.cxx">
<polygon fill="none" stroke="#000000" points="1324,-123.5 1324,-153.5 1444,-153.5 1444,-123.5 1324,-123.5"/>
<text text-anchor="start" x="1332" y="-141.5" font-family="Helvetica,sans-Serif" font-size="10.00" fill="#000000">src/engine/ui/widgets</text>
<text text-anchor="middle" x="1384" y="-130.5" font-family="Helvetica,sans-Serif" font-size="10.00" fill="#000000">/Combobox.cxx</text>
</a>
</g>
</g>
<!-- Node38&#45;&gt;Node39 -->
<g id="edge26" class="edge">
<title>Node38&#45;&gt;Node39</title>
<path fill="none" stroke="#191970" d="M1384,-180.0249C1384,-171.128 1384,-161.4287 1384,-153.6432"/>
<polygon fill="#191970" stroke="#191970" points="1380.5001,-180.2966 1384,-190.2967 1387.5001,-180.2967 1380.5001,-180.2966"/>
</g>
<!-- Node41&#45;&gt;Node23 -->
<g id="edge31" class="edge">
<title>Node41&#45;&gt;Node23</title>
<path fill="none" stroke="#191970" d="M836.915,-249.3162C848.2312,-232.4713 858.6952,-209.3343 849,-190 839.2173,-170.4914 818.1503,-156.4841 801.8521,-148.0484"/>
<polygon fill="#191970" stroke="#191970" points="834.0264,-247.3381 831.0219,-257.4981 839.7065,-251.4293 834.0264,-247.3381"/>
</g>
<!-- Node42 -->
<g id="node21" class="node">
<title>Node42</title>
<g id="a_node21"><a xlink:href="Tooltip_8cxx.html" target="_top" xlink:title="src/engine/ui/widgets\l/Tooltip.cxx">
<polygon fill="none" stroke="#000000" points="720,-190.5 720,-220.5 840,-220.5 840,-190.5 720,-190.5"/>
<text text-anchor="start" x="728" y="-208.5" font-family="Helvetica,sans-Serif" font-size="10.00" fill="#000000">src/engine/ui/widgets</text>
<text text-anchor="middle" x="780" y="-197.5" font-family="Helvetica,sans-Serif" font-size="10.00" fill="#000000">/Tooltip.cxx</text>
</a>
</g>
</g>
<!-- Node41&#45;&gt;Node42 -->
<g id="edge32" class="edge">
<title>Node41&#45;&gt;Node42</title>
<path fill="none" stroke="#191970" d="M804.3788,-248.4837C799.1132,-239.1996 793.247,-228.8565 788.5887,-220.6432"/>
<polygon fill="#191970" stroke="#191970" points="801.3993,-250.325 809.3772,-257.2967 807.4882,-246.8716 801.3993,-250.325"/>
</g>
<!-- Node44&#45;&gt;Node23 -->
<g id="edge36" class="edge">
<title>Node44&#45;&gt;Node23</title>
<path fill="none" stroke="#191970" d="M1127.9683,-314.3807C1123.9132,-296.4155 1116.0157,-272.7264 1101,-257 1034.6441,-187.5033 923.9917,-158.5204 851.5095,-146.5995"/>
<polygon fill="#191970" stroke="#191970" points="1124.5382,-315.0771 1129.9366,-324.1934 1131.4015,-313.7004 1124.5382,-315.0771"/>
</g>
<!-- Node45 -->
<g id="node24" class="node">
<title>Node45</title>
<g id="a_node24"><a xlink:href="Checkbox_8cxx.html" target="_top" xlink:title="src/engine/ui/widgets\l/Checkbox.cxx">
<polygon fill="none" stroke="#000000" points="1148,-257.5 1148,-287.5 1268,-287.5 1268,-257.5 1148,-257.5"/>
<text text-anchor="start" x="1156" y="-275.5" font-family="Helvetica,sans-Serif" font-size="10.00" fill="#000000">src/engine/ui/widgets</text>
<text text-anchor="middle" x="1208" y="-264.5" font-family="Helvetica,sans-Serif" font-size="10.00" fill="#000000">/Checkbox.cxx</text>
</a>
</g>
</g>
<!-- Node44&#45;&gt;Node45 -->
<g id="edge37" class="edge">
<title>Node44&#45;&gt;Node45</title>
<path fill="none" stroke="#191970" d="M1156.9592,-317.4965C1168.0497,-307.7193 1180.8267,-296.4554 1190.8227,-287.6432"/>
<polygon fill="#191970" stroke="#191970" points="1154.4323,-315.0582 1149.2456,-324.2967 1159.0614,-320.3091 1154.4323,-315.0582"/>
</g>
<!-- Node46&#45;&gt;Node23 -->
<g id="edge41" class="edge">
<title>Node46&#45;&gt;Node23</title>
<path fill="none" stroke="#191970" d="M1288.165,-314.1961C1290.2945,-296.295 1289.8082,-272.7655 1277,-257 1223.9343,-191.6816 976.4857,-158.0895 851.9656,-145.0774"/>
<polygon fill="#191970" stroke="#191970" points="1284.681,-313.8262 1286.6353,-324.2393 1291.6012,-314.8803 1284.681,-313.8262"/>
</g>
<!-- Node47 -->
<g id="node26" class="node">
<title>Node47</title>
<g id="a_node26"><a xlink:href="Frame_8cxx.html" target="_top" xlink:title="src/engine/ui/widgets\l/Frame.cxx">
<polygon fill="none" stroke="#000000" points="1324,-257.5 1324,-287.5 1444,-287.5 1444,-257.5 1324,-257.5"/>
<text text-anchor="start" x="1332" y="-275.5" font-family="Helvetica,sans-Serif" font-size="10.00" fill="#000000">src/engine/ui/widgets</text>
<text text-anchor="middle" x="1384" y="-264.5" font-family="Helvetica,sans-Serif" font-size="10.00" fill="#000000">/Frame.cxx</text>
</a>
</g>
</g>
<!-- Node46&#45;&gt;Node47 -->
<g id="edge42" class="edge">
<title>Node46&#45;&gt;Node47</title>
<path fill="none" stroke="#191970" d="M1314.2119,-318.7951C1329.3457,-308.7558 1347.1992,-296.9124 1361.0598,-287.7177"/>
<polygon fill="#191970" stroke="#191970" points="1312.0648,-316.0193 1305.6664,-324.4639 1315.9344,-321.8525 1312.0648,-316.0193"/>
</g>
<!-- Node48&#45;&gt;Node23 -->
<g id="edge45" class="edge">
<title>Node48&#45;&gt;Node23</title>
<path fill="none" stroke="#191970" d="M978.8198,-315.7277C973.5626,-307.1286 967.7914,-297.2562 963,-288 941.1346,-245.7599 954.6425,-222.5917 920,-190 896.7993,-168.1727 863.574,-155.4313 835.313,-148.0837"/>
<polygon fill="#191970" stroke="#191970" points="976.0011,-317.823 984.252,-324.4693 981.9467,-314.1283 976.0011,-317.823"/>
</g>
<!-- Node49 -->
<g id="node28" class="node">
<title>Node49</title>
<g id="a_node28"><a xlink:href="Slider_8cxx.html" target="_top" xlink:title="src/engine/ui/widgets\l/Slider.cxx">
<polygon fill="none" stroke="#000000" points="972,-257.5 972,-287.5 1092,-287.5 1092,-257.5 972,-257.5"/>
<text text-anchor="start" x="980" y="-275.5" font-family="Helvetica,sans-Serif" font-size="10.00" fill="#000000">src/engine/ui/widgets</text>
<text text-anchor="middle" x="1032" y="-264.5" font-family="Helvetica,sans-Serif" font-size="10.00" fill="#000000">/Slider.cxx</text>
</a>
</g>
</g>
<!-- Node48&#45;&gt;Node49 -->
<g id="edge46" class="edge">
<title>Node48&#45;&gt;Node49</title>
<path fill="none" stroke="#191970" d="M1007.6212,-315.4837C1012.8868,-306.1996 1018.753,-295.8565 1023.4113,-287.6432"/>
<polygon fill="#191970" stroke="#191970" points="1004.5118,-313.8716 1002.6228,-324.2967 1010.6007,-317.325 1004.5118,-313.8716"/>
</g>
<!-- Node52 -->
<g id="node31" class="node">
<title>Node52</title>
<g id="a_node31"><a xlink:href="Bar_8cxx.html" target="_top" xlink:title="src/engine/ui/widgets\l/Bar.cxx">
<polygon fill="none" stroke="#000000" points="1516,-257.5 1516,-287.5 1636,-287.5 1636,-257.5 1516,-257.5"/>
<text text-anchor="start" x="1524" y="-275.5" font-family="Helvetica,sans-Serif" font-size="10.00" fill="#000000">src/engine/ui/widgets</text>
<text text-anchor="middle" x="1576" y="-264.5" font-family="Helvetica,sans-Serif" font-size="10.00" fill="#000000">/Bar.cxx</text>
</a>
</g>
</g>
<!-- Node51&#45;&gt;Node52 -->
<g id="edge50" class="edge">
<title>Node51&#45;&gt;Node52</title>
<path fill="none" stroke="#191970" d="M1585.3622,-314.3179C1583.3526,-305.3414 1581.1525,-295.5143 1579.3903,-287.6432"/>
<polygon fill="#191970" stroke="#191970" points="1581.996,-315.3029 1587.5963,-324.2967 1588.8269,-313.7735 1581.996,-315.3029"/>
</g>
<!-- Node53&#45;&gt;Node27 -->
<g id="edge53" class="edge">
<title>Node53&#45;&gt;Node27</title>
<path fill="none" stroke="#191970" d="M1704.6012,-317.1765C1696.6591,-308.7379 1688.4857,-298.5963 1683,-288 1665.7016,-254.5856 1664,-243.1265 1664,-205.5 1664,-205.5 1664,-205.5 1664,-138.5 1664,-65.4436 1108.2098,-23.1979 949.7227,-12.6364"/>
<polygon fill="#191970" stroke="#191970" points="1702.2292,-319.7557 1711.7461,-324.4117 1707.2099,-314.8371 1702.2292,-319.7557"/>
</g>
<!-- Node54 -->
<g id="node33" class="node">
<title>Node54</title>
<g id="a_node33"><a xlink:href="Image_8cxx.html" target="_top" xlink:title="src/engine/ui/widgets\l/Image.cxx">
<polygon fill="none" stroke="#000000" points="1692,-257.5 1692,-287.5 1812,-287.5 1812,-257.5 1692,-257.5"/>
<text text-anchor="start" x="1700" y="-275.5" font-family="Helvetica,sans-Serif" font-size="10.00" fill="#000000">src/engine/ui/widgets</text>
<text text-anchor="middle" x="1752" y="-264.5" font-family="Helvetica,sans-Serif" font-size="10.00" fill="#000000">/Image.cxx</text>
</a>
</g>
</g>
<!-- Node53&#45;&gt;Node54 -->
<g id="edge52" class="edge">
<title>Node53&#45;&gt;Node54</title>
<path fill="none" stroke="#191970" d="M1737.5442,-314.6103C1740.6527,-305.5553 1744.0702,-295.5998 1746.8016,-287.6432"/>
<polygon fill="#191970" stroke="#191970" points="1734.1556,-313.702 1734.2191,-324.2967 1740.7764,-315.9749 1734.1556,-313.702"/>
</g>
</g>
</svg>
        <g id="navigator" transform="translate(0 0)" fill="#404254">
                <rect fill="#f2f5e9" fill-opacity="0.5" stroke="#606060" stroke-width=".5" x="0" y="0" width="60" height="60"/>
                <use id="zoomplus" xlink:href="#zoomPlus" x="17" y="9" onmousedown="handleZoom(evt,'in')"/>
                <use id="zoomminus" xlink:href="#zoomMin" x="42" y="9" onmousedown="handleZoom(evt,'out')"/>
                <use id="reset" xlink:href="#resetDef" x="30" y="36" onmousedown="handleReset()"/>
                <g id="arrowUp" xlink:href="#dirArrow" transform="translate(30 24)" onmousedown="handlePan(0,-1)">
                  <use xlink:href="#rim" fill="#404040">
                        <set attributeName="fill" to="#808080" begin="arrowUp.mouseover" end="arrowUp.mouseout"/>
                  </use>
                  <path fill="none" stroke="white" stroke-width="1.5" d="M0,-3.0v7 M-2.5,-0.5L0,-3.0L2.5,-0.5"/>
                </g>
                <g id="arrowRight" xlink:href="#dirArrow" transform="rotate(90) translate(36 -43)" onmousedown="handlePan(1,0)">
                  <use xlink:href="#rim" fill="#404040">
                        <set attributeName="fill" to="#808080" begin="arrowRight.mouseover" end="arrowRight.mouseout"/>
                  </use>
                  <path fill="none" stroke="white" stroke-width="1.5" d="M0,-3.0v7 M-2.5,-0.5L0,-3.0L2.5,-0.5"/>
                </g>
                <g id="arrowDown" xlink:href="#dirArrow" transform="rotate(180) translate(-30 -48)" onmousedown="handlePan(0,1)">
                  <use xlink:href="#rim" fill="#404040">
                        <set attributeName="fill" to="#808080" begin="arrowDown.mouseover" end="arrowDown.mouseout"/>
                  </use>
                  <path fill="none" stroke="white" stroke-width="1.5" d="M0,-3.0v7 M-2.5,-0.5L0,-3.0L2.5,-0.5"/>
                </g>
                <g id="arrowLeft" xlink:href="#dirArrow" transform="rotate(270) translate(-36 17)" onmousedown="handlePan(-1,0)">
                  <use xlink:href="#rim" fill="#404040">
                        <set attributeName="fill" to="#808080" begin="arrowLeft.mouseover" end="arrowLeft.mouseout"/>
                  </use>
                  <path fill="none" stroke="white" stroke-width="1.5" d="M0,-3.0v7 M-2.5,-0.5L0,-3.0L2.5,-0.5"/>
                </g>
        </g>
        <svg viewBox="0 0 15 15" width="100%" height="30px" preserveAspectRatio="xMaxYMin meet">
         <g id="arrow_out" transform="scale(0.3 0.3)">
          <a xlink:href="UIElement_8hxx__dep__incl_org.svg" target="_base">
           <rect id="button" ry="5" rx="5" y="6" x="6" height="38" width="38"
                fill="#f2f5e9" fill-opacity="0.5" stroke="#606060" stroke-width="1.0"/>
           <path id="arrow"
             d="M 11.500037,31.436501 C 11.940474,20.09759 22.043105,11.32322 32.158766,21.979434 L 37.068811,17.246167 C 37.068811,17.246167 37.088388,32 37.088388,32 L 22.160133,31.978069 C 22.160133,31.978069 26.997745,27.140456 26.997745,27.140456 C 18.528582,18.264221 13.291696,25.230495 11.500037,31.436501 z"
             style="fill:#404040;"/>
          </a>
         </g>
        </svg>
</svg>
