<?xml version="1.0" encoding="UTF-8" standalone="no"?>
<!DOCTYPE svg PUBLIC "-//W3C//DTD SVG 1.1//EN"
 "http://www.w3.org/Graphics/SVG/1.1/DTD/svg11.dtd">
<!-- Generated by graphviz version 2.40.1 (20161225.0304)
 -->
<!-- Title: src/engine/UIManager.hxx Pages: 1 -->
<!--zoomable 532 -->
<svg id="main" version="1.1" xmlns="http://www.w3.org/2000/svg" xmlns:xlink="http://www.w3.org/1999/xlink" xml:space="preserve" onload="init(evt)">
<style type="text/css"><![CDATA[
.edge:hover path { stroke: red; }
.edge:hover polygon { stroke: red; fill: red; }
]]></style>
<script type="text/javascript"><![CDATA[
var edges = document.getElementsByTagName('g');
if (edges && edges.length) {
  for (var i=0;i<edges.length;i++) {
    if (edges[i].id.substr(0,4)=='edge') {
      edges[i].setAttribute('class','edge');
    }
  }
}
]]></script>
        <defs>
                <circle id="rim" cx="0" cy="0" r="7"/>
                <circle id="rim2" cx="0" cy="0" r="3.5"/>
                <g id="zoomPlus">
                        <use xlink:href="#rim" fill="#404040">
                                <set attributeName="fill" to="#808080" begin="zoomplus.mouseover" end="zoomplus.mouseout"/>
                        </use>
                        <path d="M-4,0h8M0,-4v8" fill="none" stroke="white" stroke-width="1.5" pointer-events="none"/>
                </g>
                <g id="zoomMin">
                        <use xlink:href="#rim" fill="#404040">
                                <set attributeName="fill" to="#808080" begin="zoomminus.mouseover" end="zoomminus.mouseout"/>
                        </use>
                        <path d="M-4,0h8" fill="none" stroke="white" stroke-width="1.5" pointer-events="none"/>
                </g>
                <g id="dirArrow">
                        <path fill="none" stroke="white" stroke-width="1.5" d="M0,-3.0v7 M-2.5,-0.5L0,-3.0L2.5,-0.5"/>
                </g>
               <g id="resetDef">
                       <use xlink:href="#rim2" fill="#404040">
                               <set attributeName="fill" to="#808080" begin="reset.mouseover" end="reset.mouseout"/>
                       </use>
               </g>
        </defs>

<script type="text/javascript">
var viewWidth = 1356;
var viewHeight = 532;
var sectionId = 'dynsection-0';
</script>
<script xlink:href="svgpan.js"/>
<svg id="graph" class="graph">
<g id="viewport">
<title>src/engine/UIManager.hxx</title>
<!-- Node0 -->
<g id="node1" class="node">
<title>Node0</title>
<polygon fill="#bfbfbf" stroke="#000000" points="524.5,-504.5 524.5,-523.5 667.5,-523.5 667.5,-504.5 524.5,-504.5"/>
<text text-anchor="middle" x="596" y="-511.5" font-family="Helvetica,sans-Serif" font-size="10.00" fill="#000000">src/engine/UIManager.hxx</text>
</g>
<!-- Node1 -->
<g id="node2" class="node">
<title>Node1</title>
<polygon fill="none" stroke="#bfbfbf" points="434,-112.5 434,-131.5 478,-131.5 478,-112.5 434,-112.5"/>
<text text-anchor="middle" x="456" y="-119.5" font-family="Helvetica,sans-Serif" font-size="10.00" fill="#000000">SDL.h</text>
</g>
<!-- Node0&#45;&gt;Node1 -->
<g id="edge1" class="edge">
<title>Node0&#45;&gt;Node1</title>
<path fill="none" stroke="#191970" d="M524.0742,-509.7854C403.1051,-500.7072 172,-473.9485 172,-402 172,-402 172,-402 172,-234 172,-191.5631 203.4964,-187.8586 241,-168 272.4018,-151.3724 371.8394,-134.6009 423.7482,-126.6888"/>
<polygon fill="#191970" stroke="#191970" points="424.394,-130.1311 433.7622,-125.1826 423.3528,-123.2089 424.394,-130.1311"/>
</g>
<!-- Node2 -->
<g id="node3" class="node">
<title>Node2</title>
<polygon fill="none" stroke="#bfbfbf" points="224.5,-56.5 224.5,-75.5 271.5,-75.5 271.5,-56.5 224.5,-56.5"/>
<text text-anchor="middle" x="248" y="-63.5" font-family="Helvetica,sans-Serif" font-size="10.00" fill="#000000">vector</text>
</g>
<!-- Node0&#45;&gt;Node2 -->
<g id="edge2" class="edge">
<title>Node0&#45;&gt;Node2</title>
<path fill="none" stroke="#191970" d="M524.4223,-510.0897C413.0829,-503.4702 203.7431,-488.7257 132,-468 68.9855,-449.7959 0,-467.5913 0,-402 0,-402 0,-402 0,-178 0,-131.4914 146.7001,-90.2717 214.4428,-73.7168"/>
<polygon fill="#191970" stroke="#191970" points="215.3166,-77.1066 224.2207,-71.3649 213.6795,-70.3007 215.3166,-77.1066"/>
</g>
<!-- Node3 -->
<g id="node4" class="node">
<title>Node3</title>
<g id="a_node4"><a xlink:href="UIElement_8hxx.html" target="_top" xlink:title="ui/basics/UIElement.hxx">
<polygon fill="none" stroke="#000000" points="557,-280.5 557,-299.5 691,-299.5 691,-280.5 557,-280.5"/>
<text text-anchor="middle" x="624" y="-287.5" font-family="Helvetica,sans-Serif" font-size="10.00" fill="#000000">ui/basics/UIElement.hxx</text>
</a>
</g>
</g>
<!-- Node0&#45;&gt;Node3 -->
<g id="edge3" class="edge">
<title>Node0&#45;&gt;Node3</title>
<path fill="none" stroke="#191970" d="M524.4462,-507.7238C470.9342,-501.3735 404.1669,-489.3561 387,-468 381.431,-461.0719 384.7768,-456.6064 387,-448 401.5647,-391.6167 407.8199,-370.1358 455,-336 481.6759,-316.6994 516.0206,-305.4964 546.7742,-298.9939"/>
<polygon fill="#191970" stroke="#191970" points="547.4896,-302.4203 556.6187,-297.0435 546.1291,-295.5537 547.4896,-302.4203"/>
</g>
<!-- Node15 -->
<g id="node16" class="node">
<title>Node15</title>
<g id="a_node16"><a xlink:href="Singleton_8hxx.html" target="_top" xlink:title="Singleton.hxx">
<polygon fill="none" stroke="#000000" points="1042.5,-112.5 1042.5,-131.5 1125.5,-131.5 1125.5,-112.5 1042.5,-112.5"/>
<text text-anchor="middle" x="1084" y="-119.5" font-family="Helvetica,sans-Serif" font-size="10.00" fill="#000000">Singleton.hxx</text>
</a>
</g>
</g>
<!-- Node0&#45;&gt;Node15 -->
<g id="edge73" class="edge">
<title>Node0&#45;&gt;Node15</title>
<path fill="none" stroke="#191970" d="M667.7719,-510.6829C854.4893,-501.1012 1341,-469.6449 1341,-402 1341,-402 1341,-402 1341,-346 1341,-231.5301 1194.3166,-162.1715 1122.583,-135.0966"/>
<polygon fill="#191970" stroke="#191970" points="1123.575,-131.7321 1112.9816,-131.5565 1121.1534,-138.2999 1123.575,-131.7321"/>
</g>
<!-- Node23 -->
<g id="node24" class="node">
<title>Node23</title>
<g id="a_node24"><a xlink:href="Layout_8hxx.html" target="_top" xlink:title="ui/basics/Layout.hxx">
<polygon fill="none" stroke="#000000" points="28,-336.5 28,-355.5 144,-355.5 144,-336.5 28,-336.5"/>
<text text-anchor="middle" x="86" y="-343.5" font-family="Helvetica,sans-Serif" font-size="10.00" fill="#000000">ui/basics/Layout.hxx</text>
</a>
</g>
</g>
<!-- Node0&#45;&gt;Node23 -->
<g id="edge37" class="edge">
<title>Node0&#45;&gt;Node23</title>
<path fill="none" stroke="#191970" d="M524.2483,-509.9875C407.9206,-502.9614 188.0717,-487.3234 158,-468 120.7375,-444.056 100.2699,-393.423 91.4083,-365.5018"/>
<polygon fill="#191970" stroke="#191970" points="94.696,-364.2792 88.4807,-355.6989 87.9887,-366.2823 94.696,-364.2792"/>
</g>
<!-- Node24 -->
<g id="node25" class="node">
<title>Node24</title>
<g id="a_node25"><a xlink:href="ButtonGroup_8hxx.html" target="_top" xlink:title="ui/basics/ButtonGroup.hxx">
<polygon fill="none" stroke="#000000" points="574.5,-448.5 574.5,-467.5 719.5,-467.5 719.5,-448.5 574.5,-448.5"/>
<text text-anchor="middle" x="647" y="-455.5" font-family="Helvetica,sans-Serif" font-size="10.00" fill="#000000">ui/basics/ButtonGroup.hxx</text>
</a>
</g>
</g>
<!-- Node0&#45;&gt;Node24 -->
<g id="edge41" class="edge">
<title>Node0&#45;&gt;Node24</title>
<path fill="none" stroke="#191970" d="M604.8835,-504.2455C612.1966,-496.2155 622.7391,-484.6394 631.4467,-475.0781"/>
<polygon fill="#191970" stroke="#191970" points="634.0727,-477.3928 638.2183,-467.6427 628.8972,-472.6795 634.0727,-477.3928"/>
</g>
<!-- Node25 -->
<g id="node26" class="node">
<title>Node25</title>
<g id="a_node26"><a xlink:href="Button_8hxx.html" target="_top" xlink:title="../widgets/Button.hxx">
<polygon fill="none" stroke="#000000" points="614,-392.5 614,-411.5 734,-411.5 734,-392.5 614,-392.5"/>
<text text-anchor="middle" x="674" y="-399.5" font-family="Helvetica,sans-Serif" font-size="10.00" fill="#000000">../widgets/Button.hxx</text>
</a>
</g>
</g>
<!-- Node0&#45;&gt;Node25 -->
<g id="edge48" class="edge">
<title>Node0&#45;&gt;Node25</title>
<path fill="none" stroke="#191970" d="M640.4016,-504.4639C674.8264,-496.0647 718.4047,-482.8756 729,-468 742.0401,-449.6918 720.6684,-430.0675 700.8804,-417.021"/>
<polygon fill="#191970" stroke="#191970" points="702.6549,-414.0028 692.3163,-411.6867 698.954,-419.9445 702.6549,-414.0028"/>
</g>
<!-- Node26 -->
<g id="node27" class="node">
<title>Node26</title>
<g id="a_node27"><a xlink:href="Text_8hxx.html" target="_top" xlink:title="Text.hxx">
<polygon fill="none" stroke="#000000" points="864,-336.5 864,-355.5 922,-355.5 922,-336.5 864,-336.5"/>
<text text-anchor="middle" x="893" y="-343.5" font-family="Helvetica,sans-Serif" font-size="10.00" fill="#000000">Text.hxx</text>
</a>
</g>
</g>
<!-- Node0&#45;&gt;Node26 -->
<g id="edge59" class="edge">
<title>Node0&#45;&gt;Node26</title>
<path fill="none" stroke="#191970" d="M667.8476,-511.0336C779.1908,-505.69 982.9763,-492.6396 1005,-468 1040.2565,-428.5559 966.9733,-382.7877 922.962,-360.1629"/>
<polygon fill="#191970" stroke="#191970" points="924.3091,-356.923 913.8012,-355.568 921.1706,-363.18 924.3091,-356.923"/>
</g>
<!-- Node27 -->
<g id="node28" class="node">
<title>Node27</title>
<g id="a_node28"><a xlink:href="Checkbox_8hxx.html" target="_top" xlink:title="ui/widgets/Checkbox.hxx">
<polygon fill="none" stroke="#000000" points="200.5,-392.5 200.5,-411.5 339.5,-411.5 339.5,-392.5 200.5,-392.5"/>
<text text-anchor="middle" x="270" y="-399.5" font-family="Helvetica,sans-Serif" font-size="10.00" fill="#000000">ui/widgets/Checkbox.hxx</text>
</a>
</g>
</g>
<!-- Node0&#45;&gt;Node27 -->
<g id="edge49" class="edge">
<title>Node0&#45;&gt;Node27</title>
<path fill="none" stroke="#191970" d="M524.4663,-509.3812C474.805,-504.0598 408.1099,-492.6135 354,-468 327.8358,-456.0984 302.5641,-434.4172 286.6938,-419.1599"/>
<polygon fill="#191970" stroke="#191970" points="288.8707,-416.3905 279.2968,-411.8527 283.9512,-421.3704 288.8707,-416.3905"/>
</g>
<!-- Node28 -->
<g id="node29" class="node">
<title>Node28</title>
<g id="a_node29"><a xlink:href="Combobox_8hxx.html" target="_top" xlink:title="ui/widgets/Combobox.hxx">
<polygon fill="none" stroke="#000000" points="852.5,-448.5 852.5,-467.5 995.5,-467.5 995.5,-448.5 852.5,-448.5"/>
<text text-anchor="middle" x="924" y="-455.5" font-family="Helvetica,sans-Serif" font-size="10.00" fill="#000000">ui/widgets/Combobox.hxx</text>
</a>
</g>
</g>
<!-- Node0&#45;&gt;Node28 -->
<g id="edge51" class="edge">
<title>Node0&#45;&gt;Node28</title>
<path fill="none" stroke="#191970" d="M652.0125,-504.4369C709.0906,-494.6918 797.5842,-479.5832 858.0224,-469.2645"/>
<polygon fill="#191970" stroke="#191970" points="858.9502,-472.6568 868.2185,-467.5237 857.7721,-465.7566 858.9502,-472.6568"/>
</g>
<!-- Node29 -->
<g id="node30" class="node">
<title>Node29</title>
<g id="a_node30"><a xlink:href="TextField_8hxx.html" target="_top" xlink:title="TextField.hxx">
<polygon fill="none" stroke="#000000" points="835,-392.5 835,-411.5 915,-411.5 915,-392.5 835,-392.5"/>
<text text-anchor="middle" x="875" y="-399.5" font-family="Helvetica,sans-Serif" font-size="10.00" fill="#000000">TextField.hxx</text>
</a>
</g>
</g>
<!-- Node0&#45;&gt;Node29 -->
<g id="edge60" class="edge">
<title>Node0&#45;&gt;Node29</title>
<path fill="none" stroke="#191970" d="M667.9074,-506.6913C708.3999,-500.4372 758.9271,-488.9525 800,-468 823.726,-455.8967 845.9746,-434.5654 859.981,-419.4321"/>
<polygon fill="#191970" stroke="#191970" points="862.7933,-421.5388 866.8714,-411.7603 857.5854,-416.8614 862.7933,-421.5388"/>
</g>
<!-- Node30 -->
<g id="node31" class="node">
<title>Node30</title>
<g id="a_node31"><a xlink:href="Frame_8hxx.html" target="_top" xlink:title="ui/widgets/Frame.hxx">
<polygon fill="none" stroke="#000000" points="396.5,-448.5 396.5,-467.5 517.5,-467.5 517.5,-448.5 396.5,-448.5"/>
<text text-anchor="middle" x="457" y="-455.5" font-family="Helvetica,sans-Serif" font-size="10.00" fill="#000000">ui/widgets/Frame.hxx</text>
</a>
</g>
</g>
<!-- Node0&#45;&gt;Node30 -->
<g id="edge57" class="edge">
<title>Node0&#45;&gt;Node30</title>
<path fill="none" stroke="#191970" d="M572.105,-504.3733C549.4918,-495.2629 515.3458,-481.5062 490.1127,-471.3404"/>
<polygon fill="#191970" stroke="#191970" points="491.1666,-467.9917 480.5831,-467.5011 488.5507,-474.4845 491.1666,-467.9917"/>
</g>
<!-- Node31 -->
<g id="node32" class="node">
<title>Node31</title>
<g id="a_node32"><a xlink:href="Tooltip_8hxx.html" target="_top" xlink:title="ui/widgets/Tooltip.hxx">
<polygon fill="none" stroke="#000000" points="434.5,-392.5 434.5,-411.5 557.5,-411.5 557.5,-392.5 434.5,-392.5"/>
<text text-anchor="middle" x="496" y="-399.5" font-family="Helvetica,sans-Serif" font-size="10.00" fill="#000000">ui/widgets/Tooltip.hxx</text>
</a>
</g>
</g>
<!-- Node0&#45;&gt;Node31 -->
<g id="edge61" class="edge">
<title>Node0&#45;&gt;Node31</title>
<path fill="none" stroke="#191970" d="M587.4741,-504.4509C570.5738,-485.5227 532.6197,-443.014 511.2928,-419.1279"/>
<polygon fill="#191970" stroke="#191970" points="513.7753,-416.6532 504.5044,-411.5249 508.5538,-421.3154 513.7753,-416.6532"/>
</g>
<!-- Node36 -->
<g id="node37" class="node">
<title>Node36</title>
<g id="a_node37"><a xlink:href="Slider_8hxx.html" target="_top" xlink:title="ui/widgets/Slider.hxx">
<polygon fill="none" stroke="#000000" points="690,-336.5 690,-355.5 808,-355.5 808,-336.5 690,-336.5"/>
<text text-anchor="middle" x="749" y="-343.5" font-family="Helvetica,sans-Serif" font-size="10.00" fill="#000000">ui/widgets/Slider.hxx</text>
</a>
</g>
</g>
<!-- Node0&#45;&gt;Node36 -->
<g id="edge70" class="edge">
<title>Node0&#45;&gt;Node36</title>
<path fill="none" stroke="#191970" d="M647.8643,-504.4463C685.5768,-496.3462 732.0317,-483.5746 744,-468 766.7171,-438.4378 760.5803,-391.9126 754.5134,-365.6848"/>
<polygon fill="#191970" stroke="#191970" points="757.8558,-364.6265 752.0019,-355.7957 751.0712,-366.3496 757.8558,-364.6265"/>
</g>
<!-- Node3&#45;&gt;Node1 -->
<g id="edge36" class="edge">
<title>Node3&#45;&gt;Node1</title>
<path fill="none" stroke="#191970" d="M621.2756,-280.419C614.4256,-257.91 594.4498,-201.0676 559,-168 553.3634,-162.7421 515.7037,-146.5535 487.5406,-134.8674"/>
<polygon fill="#191970" stroke="#191970" points="488.622,-131.5274 478.0431,-130.9469 485.9511,-137.9978 488.622,-131.5274"/>
</g>
<!-- Node4 -->
<g id="node5" class="node">
<title>Node4</title>
<polygon fill="none" stroke="#bfbfbf" points="867,-56.5 867,-75.5 911,-75.5 911,-56.5 867,-56.5"/>
<text text-anchor="middle" x="889" y="-63.5" font-family="Helvetica,sans-Serif" font-size="10.00" fill="#000000">string</text>
</g>
<!-- Node3&#45;&gt;Node4 -->
<g id="edge4" class="edge">
<title>Node3&#45;&gt;Node4</title>
<path fill="none" stroke="#191970" d="M656.8713,-280.4862C696.3833,-267.0804 760.8772,-238.4475 789,-188 805.7237,-158.0005 755.7876,-140.4699 775,-112 793.1276,-85.1376 829.8577,-73.9581 856.7449,-69.3077"/>
<polygon fill="#191970" stroke="#191970" points="857.5001,-72.7334 866.8654,-67.7795 856.4549,-65.8119 857.5001,-72.7334"/>
</g>
<!-- Node5 -->
<g id="node6" class="node">
<title>Node5</title>
<g id="a_node6"><a xlink:href="mapEdit_8hxx.html" target="_top" xlink:title="../../basics/mapEdit.hxx">
<polygon fill="none" stroke="#000000" points="1054,-224.5 1054,-243.5 1184,-243.5 1184,-224.5 1054,-224.5"/>
<text text-anchor="middle" x="1119" y="-231.5" font-family="Helvetica,sans-Serif" font-size="10.00" fill="#000000">../../basics/mapEdit.hxx</text>
</a>
</g>
</g>
<!-- Node3&#45;&gt;Node5 -->
<g id="edge5" class="edge">
<title>Node3&#45;&gt;Node5</title>
<path fill="none" stroke="#191970" d="M691.0153,-282.4185C782.8824,-272.0254 947.4508,-253.4076 1043.5437,-242.5365"/>
<polygon fill="#191970" stroke="#191970" points="1044.225,-245.9818 1053.7682,-241.3798 1043.4381,-239.0262 1044.225,-245.9818"/>
</g>
<!-- Node6 -->
<g id="node7" class="node">
<title>Node6</title>
<g id="a_node7"><a xlink:href="ResourcesManager_8hxx.html" target="_top" xlink:title="../../ResourcesManager.hxx">
<polygon fill="none" stroke="#000000" points="836,-224.5 836,-243.5 982,-243.5 982,-224.5 836,-224.5"/>
<text text-anchor="middle" x="909" y="-231.5" font-family="Helvetica,sans-Serif" font-size="10.00" fill="#000000">../../ResourcesManager.hxx</text>
</a>
</g>
</g>
<!-- Node3&#45;&gt;Node6 -->
<g id="edge7" class="edge">
<title>Node3&#45;&gt;Node6</title>
<path fill="none" stroke="#191970" d="M672.6694,-280.4369C721.9573,-270.7522 798.2048,-255.7703 850.6926,-245.4569"/>
<polygon fill="#191970" stroke="#191970" points="851.3938,-248.8861 860.5313,-243.5237 850.0441,-242.0175 851.3938,-248.8861"/>
</g>
<!-- Node17 -->
<g id="node18" class="node">
<title>Node17</title>
<g id="a_node18"><a xlink:href="WindowManager_8hxx.html" target="_top" xlink:title="../../WindowManager.hxx">
<polygon fill="none" stroke="#000000" points="644,-168.5 644,-187.5 780,-187.5 780,-168.5 644,-168.5"/>
<text text-anchor="middle" x="712" y="-175.5" font-family="Helvetica,sans-Serif" font-size="10.00" fill="#000000">../../WindowManager.hxx</text>
</a>
</g>
</g>
<!-- Node3&#45;&gt;Node17 -->
<g id="edge24" class="edge">
<title>Node3&#45;&gt;Node17</title>
<path fill="none" stroke="#191970" d="M631.5028,-280.4509C646.3101,-261.6054 679.4833,-219.3849 698.2957,-195.4419"/>
<polygon fill="#191970" stroke="#191970" points="701.09,-197.5505 704.5162,-187.5249 695.5858,-193.2257 701.09,-197.5505"/>
</g>
<!-- Node18 -->
<g id="node19" class="node">
<title>Node18</title>
<g id="a_node19"><a xlink:href="signal_8hxx.html" target="_top" xlink:title="../../basics/signal.hxx">
<polygon fill="none" stroke="#000000" points="434.5,-224.5 434.5,-243.5 553.5,-243.5 553.5,-224.5 434.5,-224.5"/>
<text text-anchor="middle" x="494" y="-231.5" font-family="Helvetica,sans-Serif" font-size="10.00" fill="#000000">../../basics/signal.hxx</text>
</a>
</g>
</g>
<!-- Node3&#45;&gt;Node18 -->
<g id="edge30" class="edge">
<title>Node3&#45;&gt;Node18</title>
<path fill="none" stroke="#191970" d="M601.6522,-280.3733C580.5967,-271.3032 548.8505,-257.6279 525.2825,-247.4755"/>
<polygon fill="#191970" stroke="#191970" points="526.625,-244.243 516.0562,-243.5011 523.8556,-250.6719 526.625,-244.243"/>
</g>
<!-- Node5&#45;&gt;Node4 -->
<g id="edge6" class="edge">
<title>Node5&#45;&gt;Node4</title>
<path fill="none" stroke="#191970" d="M1143.1802,-224.4521C1190.1048,-204.6076 1285.5731,-156.9993 1246,-112 1224.6757,-87.7517 1005.0682,-72.6728 921.2594,-67.7636"/>
<polygon fill="#191970" stroke="#191970" points="921.2339,-64.2564 911.0495,-67.1767 920.8321,-71.2449 921.2339,-64.2564"/>
</g>
<!-- Node6&#45;&gt;Node1 -->
<g id="edge10" class="edge">
<title>Node6&#45;&gt;Node1</title>
<path fill="none" stroke="#191970" d="M835.9378,-227.1428C780.0142,-220.6058 701.4542,-208.6181 635,-188 614.8695,-181.7543 611.5677,-175.8327 592,-168 556.9644,-153.9757 515.7996,-140.4498 488.0107,-131.7384"/>
<polygon fill="#191970" stroke="#191970" points="489.0022,-128.3815 478.414,-128.7548 486.924,-135.0659 489.0022,-128.3815"/>
</g>
<!-- Node7 -->
<g id="node8" class="node">
<title>Node7</title>
<polygon fill="none" stroke="#bfbfbf" points="572,-112.5 572,-131.5 632,-131.5 632,-112.5 572,-112.5"/>
<text text-anchor="middle" x="602" y="-119.5" font-family="Helvetica,sans-Serif" font-size="10.00" fill="#000000">iostream</text>
</g>
<!-- Node6&#45;&gt;Node7 -->
<g id="edge8" class="edge">
<title>Node6&#45;&gt;Node7</title>
<path fill="none" stroke="#191970" d="M894.4613,-224.3475C872.4831,-210.1469 829.0996,-183.6227 789,-168 726.3247,-143.5818 707.2947,-148.157 642,-132 641.9001,-131.9753 641.8001,-131.9505 641.6999,-131.9257"/>
<polygon fill="#191970" stroke="#191970" points="642.6858,-128.5643 632.137,-129.5507 640.9985,-135.358 642.6858,-128.5643"/>
</g>
<!-- Node8 -->
<g id="node9" class="node">
<title>Node8</title>
<polygon fill="none" stroke="#bfbfbf" points="1143.5,-112.5 1143.5,-131.5 1236.5,-131.5 1236.5,-112.5 1143.5,-112.5"/>
<text text-anchor="middle" x="1190" y="-119.5" font-family="Helvetica,sans-Serif" font-size="10.00" fill="#000000">unordered_map</text>
</g>
<!-- Node6&#45;&gt;Node8 -->
<g id="edge9" class="edge">
<title>Node6&#45;&gt;Node8</title>
<path fill="none" stroke="#191970" d="M932.9579,-224.4509C983.1434,-204.4482 1099.3982,-158.1117 1156.7624,-135.2477"/>
<polygon fill="#191970" stroke="#191970" points="1158.1093,-138.4787 1166.1027,-131.5249 1155.5175,-131.9762 1158.1093,-138.4787"/>
</g>
<!-- Node9 -->
<g id="node10" class="node">
<title>Node9</title>
<g id="a_node10"><a xlink:href="TileManager_8hxx.html" target="_top" xlink:title="TileManager.hxx">
<polygon fill="none" stroke="#000000" points="874.5,-168.5 874.5,-187.5 971.5,-187.5 971.5,-168.5 874.5,-168.5"/>
<text text-anchor="middle" x="923" y="-175.5" font-family="Helvetica,sans-Serif" font-size="10.00" fill="#000000">TileManager.hxx</text>
</a>
</g>
</g>
<!-- Node6&#45;&gt;Node9 -->
<g id="edge11" class="edge">
<title>Node6&#45;&gt;Node9</title>
<path fill="none" stroke="#191970" d="M911.4386,-224.2455C913.2855,-216.8579 915.8828,-206.4689 918.1478,-197.4087"/>
<polygon fill="#191970" stroke="#191970" points="921.5594,-198.193 920.5893,-187.6427 914.7684,-196.4952 921.5594,-198.193"/>
</g>
<!-- Node9&#45;&gt;Node1 -->
<g id="edge12" class="edge">
<title>Node9&#45;&gt;Node1</title>
<path fill="none" stroke="#191970" d="M874.3444,-172.1655C778.654,-160.6908 568.3191,-135.4687 488.0197,-125.8396"/>
<polygon fill="#191970" stroke="#191970" points="488.358,-122.3552 478.0124,-124.6396 487.5245,-129.3054 488.358,-122.3552"/>
</g>
<!-- Node9&#45;&gt;Node4 -->
<g id="edge14" class="edge">
<title>Node9&#45;&gt;Node4</title>
<path fill="none" stroke="#191970" d="M948.2144,-168.4087C974.7366,-156.799 1010.6283,-135.8185 995,-112 978.8223,-87.3441 946.2726,-75.8365 921.4873,-70.5069"/>
<polygon fill="#191970" stroke="#191970" points="921.8901,-67.0206 911.4108,-68.5808 920.5758,-73.8961 921.8901,-67.0206"/>
</g>
<!-- Node9&#45;&gt;Node8 -->
<g id="edge13" class="edge">
<title>Node9&#45;&gt;Node8</title>
<path fill="none" stroke="#191970" d="M968.5956,-168.4369C1014.5785,-158.7925 1085.6088,-143.8948 1134.7606,-133.5858"/>
<polygon fill="#191970" stroke="#191970" points="1135.5239,-137.0019 1144.5925,-131.5237 1134.087,-130.151 1135.5239,-137.0019"/>
</g>
<!-- Node10 -->
<g id="node11" class="node">
<title>Node10</title>
<g id="a_node11"><a xlink:href="tileData_8hxx.html" target="_top" xlink:title="tileData.hxx">
<polygon fill="none" stroke="#000000" points="650.5,-112.5 650.5,-131.5 727.5,-131.5 727.5,-112.5 650.5,-112.5"/>
<text text-anchor="middle" x="689" y="-119.5" font-family="Helvetica,sans-Serif" font-size="10.00" fill="#000000">tileData.hxx</text>
</a>
</g>
</g>
<!-- Node9&#45;&gt;Node10 -->
<g id="edge15" class="edge">
<title>Node9&#45;&gt;Node10</title>
<path fill="none" stroke="#191970" d="M883.0398,-168.4369C842.7983,-158.8064 780.6685,-143.9377 737.5985,-133.6304"/>
<polygon fill="#191970" stroke="#191970" points="738.1686,-130.1681 727.6286,-131.2444 736.5393,-136.9758 738.1686,-130.1681"/>
</g>
<!-- Node14 -->
<g id="node15" class="node">
<title>Node14</title>
<polygon fill="none" stroke="#bfbfbf" points="784,-112.5 784,-131.5 842,-131.5 842,-112.5 784,-112.5"/>
<text text-anchor="middle" x="813" y="-119.5" font-family="Helvetica,sans-Serif" font-size="10.00" fill="#000000">json.hxx</text>
</g>
<!-- Node9&#45;&gt;Node14 -->
<g id="edge21" class="edge">
<title>Node9&#45;&gt;Node14</title>
<path fill="none" stroke="#191970" d="M903.8395,-168.2455C886.4889,-159.4125 860.7099,-146.2887 841.0417,-136.2758"/>
<polygon fill="#191970" stroke="#191970" points="842.4405,-133.0605 831.941,-131.6427 839.2647,-139.2986 842.4405,-133.0605"/>
</g>
<!-- Node9&#45;&gt;Node15 -->
<g id="edge22" class="edge">
<title>Node9&#45;&gt;Node15</title>
<path fill="none" stroke="#191970" d="M950.6769,-168.3733C977.3328,-159.1016 1017.8238,-145.0178 1047.1884,-134.804"/>
<polygon fill="#191970" stroke="#191970" points="1048.3891,-138.0921 1056.6843,-131.5011 1046.0895,-131.4807 1048.3891,-138.0921"/>
</g>
<!-- Node16 -->
<g id="node17" class="node">
<title>Node16</title>
<polygon fill="none" stroke="#bfbfbf" points="860.5,-112.5 860.5,-131.5 985.5,-131.5 985.5,-112.5 860.5,-112.5"/>
<text text-anchor="middle" x="923" y="-119.5" font-family="Helvetica,sans-Serif" font-size="10.00" fill="#000000">../common/enums.hxx</text>
</g>
<!-- Node9&#45;&gt;Node16 -->
<g id="edge23" class="edge">
<title>Node9&#45;&gt;Node16</title>
<path fill="none" stroke="#191970" d="M923,-168.2455C923,-160.9382 923,-150.6944 923,-141.7046"/>
<polygon fill="#191970" stroke="#191970" points="926.5001,-141.6426 923,-131.6427 919.5001,-141.6427 926.5001,-141.6426"/>
</g>
<!-- Node10&#45;&gt;Node2 -->
<g id="edge17" class="edge">
<title>Node10&#45;&gt;Node2</title>
<path fill="none" stroke="#191970" d="M650.2824,-113.6257C647.1481,-113.0419 644.0248,-112.4911 641,-112 508.7326,-90.5249 349.8575,-75.069 281.7176,-68.9279"/>
<polygon fill="#191970" stroke="#191970" points="281.8502,-65.4259 271.5786,-68.0227 281.2277,-72.3981 281.8502,-65.4259"/>
</g>
<!-- Node10&#45;&gt;Node4 -->
<g id="edge16" class="edge">
<title>Node10&#45;&gt;Node4</title>
<path fill="none" stroke="#191970" d="M723.3812,-112.3733C760.9494,-101.8542 820.6397,-85.1409 857.169,-74.9127"/>
<polygon fill="#191970" stroke="#191970" points="858.1344,-78.2771 866.8203,-72.2103 856.2469,-71.5363 858.1344,-78.2771"/>
</g>
<!-- Node11 -->
<g id="node12" class="node">
<title>Node11</title>
<g id="a_node12"><a xlink:href="enums_8hxx.html" target="_top" xlink:title="enums.hxx">
<polygon fill="none" stroke="#000000" points="653.5,-56.5 653.5,-75.5 724.5,-75.5 724.5,-56.5 653.5,-56.5"/>
<text text-anchor="middle" x="689" y="-63.5" font-family="Helvetica,sans-Serif" font-size="10.00" fill="#000000">enums.hxx</text>
</a>
</g>
</g>
<!-- Node10&#45;&gt;Node11 -->
<g id="edge18" class="edge">
<title>Node10&#45;&gt;Node11</title>
<path fill="none" stroke="#191970" d="M689,-112.2455C689,-104.9382 689,-94.6944 689,-85.7046"/>
<polygon fill="#191970" stroke="#191970" points="692.5001,-85.6426 689,-75.6427 685.5001,-85.6427 692.5001,-85.6426"/>
</g>
<!-- Node12 -->
<g id="node13" class="node">
<title>Node12</title>
<polygon fill="none" stroke="#bfbfbf" points="613,-.5 613,-19.5 669,-19.5 669,-.5 613,-.5"/>
<text text-anchor="middle" x="641" y="-7.5" font-family="Helvetica,sans-Serif" font-size="10.00" fill="#000000">stddef.h</text>
</g>
<!-- Node11&#45;&gt;Node12 -->
<g id="edge19" class="edge">
<title>Node11&#45;&gt;Node12</title>
<path fill="none" stroke="#191970" d="M680.639,-56.2455C673.825,-48.2958 664.0319,-36.8706 655.8848,-27.3656"/>
<polygon fill="#191970" stroke="#191970" points="658.4305,-24.9575 649.2651,-19.6427 653.1157,-29.513 658.4305,-24.9575"/>
</g>
<!-- Node13 -->
<g id="node14" class="node">
<title>Node13</title>
<polygon fill="none" stroke="#bfbfbf" points="687,-.5 687,-19.5 787,-19.5 787,-.5 687,-.5"/>
<text text-anchor="middle" x="737" y="-7.5" font-family="Helvetica,sans-Serif" font-size="10.00" fill="#000000">betterEnums.hxx</text>
</g>
<!-- Node11&#45;&gt;Node13 -->
<g id="edge20" class="edge">
<title>Node11&#45;&gt;Node13</title>
<path fill="none" stroke="#191970" d="M697.361,-56.2455C704.175,-48.2958 713.9681,-36.8706 722.1152,-27.3656"/>
<polygon fill="#191970" stroke="#191970" points="724.8843,-29.513 728.7349,-19.6427 719.5695,-24.9575 724.8843,-29.513"/>
</g>
<!-- Node17&#45;&gt;Node1 -->
<g id="edge28" class="edge">
<title>Node17&#45;&gt;Node1</title>
<path fill="none" stroke="#191970" d="M661.55,-168.4175C616.8236,-159.6925 549.8213,-146.06 492,-132 490.7236,-131.6896 489.424,-131.3658 488.1126,-131.0326"/>
<polygon fill="#191970" stroke="#191970" points="488.5884,-127.538 478.0256,-128.3617 486.7966,-134.3048 488.5884,-127.538"/>
</g>
<!-- Node17&#45;&gt;Node2 -->
<g id="edge27" class="edge">
<title>Node17&#45;&gt;Node2</title>
<path fill="none" stroke="#191970" d="M677.695,-168.4621C645.0513,-159.3239 594.587,-145.035 551,-132 522.4484,-123.4614 515.9001,-119.2722 487,-112 414.5796,-93.7767 328.2439,-78.7911 281.722,-71.2581"/>
<polygon fill="#191970" stroke="#191970" points="282.0287,-67.7626 271.6007,-69.6354 280.9205,-74.6744 282.0287,-67.7626"/>
</g>
<!-- Node17&#45;&gt;Node4 -->
<g id="edge25" class="edge">
<title>Node17&#45;&gt;Node4</title>
<path fill="none" stroke="#191970" d="M643.9883,-170.2032C592.4224,-161.5876 534.8421,-144.4101 563,-112 582.1099,-90.0043 777.6058,-73.8642 856.3736,-68.2065"/>
<polygon fill="#191970" stroke="#191970" points="856.9544,-71.6743 866.6828,-67.4783 856.461,-64.6917 856.9544,-71.6743"/>
</g>
<!-- Node17&#45;&gt;Node7 -->
<g id="edge26" class="edge">
<title>Node17&#45;&gt;Node7</title>
<path fill="none" stroke="#191970" d="M692.8395,-168.2455C675.4889,-159.4125 649.7099,-146.2887 630.0417,-136.2758"/>
<polygon fill="#191970" stroke="#191970" points="631.4405,-133.0605 620.941,-131.6427 628.2647,-139.2986 631.4405,-133.0605"/>
</g>
<!-- Node17&#45;&gt;Node15 -->
<g id="edge29" class="edge">
<title>Node17&#45;&gt;Node15</title>
<path fill="none" stroke="#191970" d="M775.5264,-168.4369C848.0644,-157.5172 965.3393,-139.8629 1032.454,-129.7596"/>
<polygon fill="#191970" stroke="#191970" points="1033.013,-133.215 1042.3806,-128.2653 1031.971,-126.293 1033.013,-133.215"/>
</g>
<!-- Node18&#45;&gt;Node2 -->
<g id="edge34" class="edge">
<title>Node18&#45;&gt;Node2</title>
<path fill="none" stroke="#191970" d="M438.9318,-224.4614C373.6831,-212.9211 272.9814,-194.2595 267,-188 240.8247,-160.6075 241.7367,-112.8836 244.8097,-85.961"/>
<polygon fill="#191970" stroke="#191970" points="248.3099,-86.196 246.1864,-75.8161 241.3734,-85.2546 248.3099,-86.196"/>
</g>
<!-- Node19 -->
<g id="node20" class="node">
<title>Node19</title>
<polygon fill="none" stroke="#bfbfbf" points="492,-168.5 492,-187.5 550,-187.5 550,-168.5 492,-168.5"/>
<text text-anchor="middle" x="521" y="-175.5" font-family="Helvetica,sans-Serif" font-size="10.00" fill="#000000">memory</text>
</g>
<!-- Node18&#45;&gt;Node19 -->
<g id="edge31" class="edge">
<title>Node18&#45;&gt;Node19</title>
<path fill="none" stroke="#191970" d="M498.703,-224.2455C502.3424,-216.6973 507.4924,-206.0158 511.9262,-196.8197"/>
<polygon fill="#191970" stroke="#191970" points="515.1605,-198.1704 516.3509,-187.6427 508.8551,-195.1303 515.1605,-198.1704"/>
</g>
<!-- Node20 -->
<g id="node21" class="node">
<title>Node20</title>
<polygon fill="none" stroke="#bfbfbf" points="358.5,-168.5 358.5,-187.5 423.5,-187.5 423.5,-168.5 358.5,-168.5"/>
<text text-anchor="middle" x="391" y="-175.5" font-family="Helvetica,sans-Serif" font-size="10.00" fill="#000000">functional</text>
</g>
<!-- Node18&#45;&gt;Node20 -->
<g id="edge32" class="edge">
<title>Node18&#45;&gt;Node20</title>
<path fill="none" stroke="#191970" d="M476.0588,-224.2455C459.96,-215.4928 436.1121,-202.527 417.7609,-192.5496"/>
<polygon fill="#191970" stroke="#191970" points="419.1929,-189.3444 408.7356,-187.6427 415.8493,-195.4942 419.1929,-189.3444"/>
</g>
<!-- Node21 -->
<g id="node22" class="node">
<title>Node21</title>
<polygon fill="none" stroke="#bfbfbf" points="442,-168.5 442,-187.5 474,-187.5 474,-168.5 442,-168.5"/>
<text text-anchor="middle" x="458" y="-175.5" font-family="Helvetica,sans-Serif" font-size="10.00" fill="#000000">list</text>
</g>
<!-- Node18&#45;&gt;Node21 -->
<g id="edge33" class="edge">
<title>Node18&#45;&gt;Node21</title>
<path fill="none" stroke="#191970" d="M487.7293,-224.2455C482.7736,-216.5367 475.717,-205.5598 469.7224,-196.2348"/>
<polygon fill="#191970" stroke="#191970" points="472.5506,-194.1618 464.1989,-187.6427 466.6624,-197.9471 472.5506,-194.1618"/>
</g>
<!-- Node22 -->
<g id="node23" class="node">
<title>Node22</title>
<polygon fill="none" stroke="#bfbfbf" points="276,-168.5 276,-187.5 340,-187.5 340,-168.5 276,-168.5"/>
<text text-anchor="middle" x="308" y="-175.5" font-family="Helvetica,sans-Serif" font-size="10.00" fill="#000000">algorithm</text>
</g>
<!-- Node18&#45;&gt;Node22 -->
<g id="edge35" class="edge">
<title>Node18&#45;&gt;Node22</title>
<path fill="none" stroke="#191970" d="M462.0255,-224.3733C430.8287,-214.9807 383.229,-200.6496 349.2068,-190.4064"/>
<polygon fill="#191970" stroke="#191970" points="350.1418,-187.0327 339.5573,-187.5011 348.1237,-193.7355 350.1418,-187.0327"/>
</g>
<!-- Node23&#45;&gt;Node2 -->
<g id="edge40" class="edge">
<title>Node23&#45;&gt;Node2</title>
<path fill="none" stroke="#191970" d="M86.2866,-336.4127C86.8396,-317.0567 88,-271.9227 88,-234 88,-234 88,-234 88,-178 88,-146.307 91.9783,-133.7818 115,-112 142.1871,-86.2771 184.4604,-74.8676 214.0303,-69.8522"/>
<polygon fill="#191970" stroke="#191970" points="214.9437,-73.2531 224.2983,-68.279 213.8835,-66.3339 214.9437,-73.2531"/>
</g>
<!-- Node23&#45;&gt;Node3 -->
<g id="edge38" class="edge">
<title>Node23&#45;&gt;Node3</title>
<path fill="none" stroke="#191970" d="M144.0866,-339.9538C241.4773,-329.8165 437.7135,-309.3904 546.6656,-298.0497"/>
<polygon fill="#191970" stroke="#191970" points="547.3468,-301.4978 556.9307,-296.9812 546.622,-294.5354 547.3468,-301.4978"/>
</g>
<!-- Node23&#45;&gt;Node4 -->
<g id="edge39" class="edge">
<title>Node23&#45;&gt;Node4</title>
<path fill="none" stroke="#191970" d="M92.5308,-336.2931C104.5599,-317.4432 129,-274.1986 129,-234 129,-234 129,-234 129,-178 129,-171.265 176.5169,-150.2609 425,-112 585.9027,-87.2245 780.354,-72.987 856.3437,-68.0205"/>
<polygon fill="#191970" stroke="#191970" points="856.9234,-71.4905 866.6777,-67.3548 856.4734,-64.5049 856.9234,-71.4905"/>
</g>
<!-- Node24&#45;&gt;Node3 -->
<g id="edge42" class="edge">
<title>Node24&#45;&gt;Node3</title>
<path fill="none" stroke="#191970" d="M633.972,-448.3141C623.9208,-439.9649 610.7875,-426.922 605,-412 591.5031,-377.2005 605.1568,-333.2986 615.271,-308.7764"/>
<polygon fill="#191970" stroke="#191970" points="618.5113,-310.1019 619.2995,-299.5364 612.0946,-307.3043 618.5113,-310.1019"/>
</g>
<!-- Node24&#45;&gt;Node25 -->
<g id="edge43" class="edge">
<title>Node24&#45;&gt;Node25</title>
<path fill="none" stroke="#191970" d="M651.703,-448.2455C655.3424,-440.6973 660.4924,-430.0158 664.9262,-420.8197"/>
<polygon fill="#191970" stroke="#191970" points="668.1605,-422.1704 669.3509,-411.6427 661.8551,-419.1303 668.1605,-422.1704"/>
</g>
<!-- Node25&#45;&gt;Node3 -->
<g id="edge44" class="edge">
<title>Node25&#45;&gt;Node3</title>
<path fill="none" stroke="#191970" d="M667.9381,-392.3766C662.3319,-383.2364 653.9866,-368.9983 648,-356 640.9167,-340.6206 634.4556,-322.5044 630.0263,-309.1467"/>
<polygon fill="#191970" stroke="#191970" points="633.345,-308.0343 626.9365,-299.5974 626.685,-310.1893 633.345,-308.0343"/>
</g>
<!-- Node25&#45;&gt;Node26 -->
<g id="edge45" class="edge">
<title>Node25&#45;&gt;Node26</title>
<path fill="none" stroke="#191970" d="M711.6474,-392.3733C751.4451,-382.1967 813.9145,-366.2228 854.1586,-355.932"/>
<polygon fill="#191970" stroke="#191970" points="855.0628,-359.3135 863.884,-353.4452 853.3286,-352.5317 855.0628,-359.3135"/>
</g>
<!-- Node26&#45;&gt;Node3 -->
<g id="edge47" class="edge">
<title>Node26&#45;&gt;Node3</title>
<path fill="none" stroke="#191970" d="M863.8804,-339.113C859.2422,-338.0492 854.4932,-336.9795 850,-336 793.4431,-323.6703 728.6915,-310.5967 683.0366,-301.5513"/>
<polygon fill="#191970" stroke="#191970" points="683.5064,-298.0765 673.0174,-299.5701 682.1485,-304.9435 683.5064,-298.0765"/>
</g>
<!-- Node26&#45;&gt;Node4 -->
<g id="edge46" class="edge">
<title>Node26&#45;&gt;Node4</title>
<path fill="none" stroke="#191970" d="M922.0244,-344.3136C1007.0534,-339.1304 1251.3443,-322.417 1279,-300 1345.2225,-246.3218 1373.9659,-175.4165 1317,-112 1290.6418,-82.6571 1016.6872,-70.427 921.4289,-67.0404"/>
<polygon fill="#191970" stroke="#191970" points="921.3509,-63.5357 911.2359,-66.6877 921.1088,-70.5315 921.3509,-63.5357"/>
</g>
<!-- Node27&#45;&gt;Node3 -->
<g id="edge50" class="edge">
<title>Node27&#45;&gt;Node3</title>
<path fill="none" stroke="#191970" d="M279.2637,-392.0737C293.7045,-377.2686 323.143,-349.6823 354,-336 387.6456,-321.0812 479.329,-307.3848 546.5563,-298.8876"/>
<polygon fill="#191970" stroke="#191970" points="547.2157,-302.3325 556.7051,-297.6206 546.3485,-295.3864 547.2157,-302.3325"/>
</g>
<!-- Node28&#45;&gt;Node3 -->
<g id="edge53" class="edge">
<title>Node28&#45;&gt;Node3</title>
<path fill="none" stroke="#191970" d="M897.0394,-448.4626C841.7099,-428.6058 717.4704,-382.4755 681,-356 662.7368,-342.7419 646.4165,-322.5466 635.9685,-307.9879"/>
<polygon fill="#191970" stroke="#191970" points="638.8361,-305.981 630.2572,-299.7639 633.0865,-309.9739 638.8361,-305.981"/>
</g>
<!-- Node28&#45;&gt;Node19 -->
<g id="edge52" class="edge">
<title>Node28&#45;&gt;Node19</title>
<path fill="none" stroke="#191970" d="M928.1719,-448.3945C937.0532,-426.3167 955.1302,-371.159 931,-336 887.0533,-271.9674 653.638,-209.84 559.9545,-187.0959"/>
<polygon fill="#191970" stroke="#191970" points="560.5665,-183.6433 550.0251,-184.7061 558.9284,-190.449 560.5665,-183.6433"/>
</g>
<!-- Node28&#45;&gt;Node29 -->
<g id="edge54" class="edge">
<title>Node28&#45;&gt;Node29</title>
<path fill="none" stroke="#191970" d="M915.4649,-448.2455C908.5088,-440.2958 898.5117,-428.8706 890.1949,-419.3656"/>
<polygon fill="#191970" stroke="#191970" points="892.6564,-416.8637 883.4373,-411.6427 887.3884,-421.4732 892.6564,-416.8637"/>
</g>
<!-- Node29&#45;&gt;Node3 -->
<g id="edge55" class="edge">
<title>Node29&#45;&gt;Node3</title>
<path fill="none" stroke="#191970" d="M869.225,-392.2333C860.0657,-377.6366 840.7849,-350.3189 817,-336 782.203,-315.0516 738.5154,-303.6419 701.5095,-297.428"/>
<polygon fill="#191970" stroke="#191970" points="701.6857,-293.9125 691.2621,-295.8096 700.5937,-300.8268 701.6857,-293.9125"/>
</g>
<!-- Node29&#45;&gt;Node26 -->
<g id="edge56" class="edge">
<title>Node29&#45;&gt;Node26</title>
<path fill="none" stroke="#191970" d="M878.1354,-392.2455C880.51,-384.8579 883.8493,-374.4689 886.7615,-365.4087"/>
<polygon fill="#191970" stroke="#191970" points="890.1725,-366.234 889.9006,-355.6427 883.5083,-364.0919 890.1725,-366.234"/>
</g>
<!-- Node30&#45;&gt;Node3 -->
<g id="edge58" class="edge">
<title>Node30&#45;&gt;Node3</title>
<path fill="none" stroke="#191970" d="M446.1541,-448.295C432.8205,-435.1475 413.3128,-411.1235 425,-392 455.5243,-342.054 519.1224,-315.5591 566.2473,-302.2169"/>
<polygon fill="#191970" stroke="#191970" points="567.2982,-305.5584 576.0354,-299.5657 565.4681,-298.8019 567.2982,-305.5584"/>
</g>
<!-- Node31&#45;&gt;Node3 -->
<g id="edge62" class="edge">
<title>Node31&#45;&gt;Node3</title>
<path fill="none" stroke="#191970" d="M506.9132,-392.4509C528.8289,-373.2747 578.4043,-329.8962 605.4871,-306.1988"/>
<polygon fill="#191970" stroke="#191970" points="607.8934,-308.744 613.1144,-299.5249 603.2838,-303.4759 607.8934,-308.744"/>
</g>
<!-- Node31&#45;&gt;Node26 -->
<g id="edge63" class="edge">
<title>Node31&#45;&gt;Node26</title>
<path fill="none" stroke="#191970" d="M557.5957,-393.3114C640.2519,-381.6521 784.6571,-361.2826 853.854,-351.5218"/>
<polygon fill="#191970" stroke="#191970" points="854.4845,-354.9677 863.8975,-350.1051 853.5067,-348.0363 854.4845,-354.9677"/>
</g>
<!-- Node32 -->
<g id="node33" class="node">
<title>Node32</title>
<g id="a_node33"><a xlink:href="Timer_8hxx.html" target="_top" xlink:title="../../basics/Timer.hxx">
<polygon fill="none" stroke="#000000" points="271.5,-280.5 271.5,-299.5 388.5,-299.5 388.5,-280.5 271.5,-280.5"/>
<text text-anchor="middle" x="330" y="-287.5" font-family="Helvetica,sans-Serif" font-size="10.00" fill="#000000">../../basics/Timer.hxx</text>
</a>
</g>
</g>
<!-- Node31&#45;&gt;Node32 -->
<g id="edge64" class="edge">
<title>Node31&#45;&gt;Node32</title>
<path fill="none" stroke="#191970" d="M481.8469,-392.4509C453.0575,-373.0268 387.4632,-328.7703 352.6612,-305.2895"/>
<polygon fill="#191970" stroke="#191970" points="354.3645,-302.2166 344.1172,-299.5249 350.4493,-308.0193 354.3645,-302.2166"/>
</g>
<!-- Node32&#45;&gt;Node1 -->
<g id="edge68" class="edge">
<title>Node32&#45;&gt;Node1</title>
<path fill="none" stroke="#191970" d="M282.744,-280.4668C262.5882,-273.8095 240.989,-262.6342 229,-244 224.1905,-236.5247 226.3893,-232.4969 229,-224 237.8341,-195.2485 242.2893,-185.1486 267,-168 292.213,-150.5028 376.8932,-134.6638 423.8911,-126.9481"/>
<polygon fill="#191970" stroke="#191970" points="424.5505,-130.3871 433.8658,-125.3397 423.4361,-123.4763 424.5505,-130.3871"/>
</g>
<!-- Node32&#45;&gt;Node18 -->
<g id="edge69" class="edge">
<title>Node32&#45;&gt;Node18</title>
<path fill="none" stroke="#191970" d="M358.1926,-280.3733C385.3453,-271.1016 426.5907,-257.0178 456.5025,-246.804"/>
<polygon fill="#191970" stroke="#191970" points="457.8428,-250.0449 466.1753,-243.5011 455.5808,-243.4204 457.8428,-250.0449"/>
</g>
<!-- Node33 -->
<g id="node34" class="node">
<title>Node33</title>
<polygon fill="none" stroke="#bfbfbf" points="372,-224.5 372,-243.5 416,-243.5 416,-224.5 372,-224.5"/>
<text text-anchor="middle" x="394" y="-231.5" font-family="Helvetica,sans-Serif" font-size="10.00" fill="#000000">ctime</text>
</g>
<!-- Node32&#45;&gt;Node33 -->
<g id="edge65" class="edge">
<title>Node32&#45;&gt;Node33</title>
<path fill="none" stroke="#191970" d="M341.1479,-280.2455C350.5087,-272.0549 364.0858,-260.1749 375.1349,-250.5069"/>
<polygon fill="#191970" stroke="#191970" points="377.7588,-252.8618 382.9798,-243.6427 373.1492,-247.5937 377.7588,-252.8618"/>
</g>
<!-- Node34 -->
<g id="node35" class="node">
<title>Node34</title>
<polygon fill="none" stroke="#bfbfbf" points="238,-224.5 238,-243.5 288,-243.5 288,-224.5 238,-224.5"/>
<text text-anchor="middle" x="263" y="-231.5" font-family="Helvetica,sans-Serif" font-size="10.00" fill="#000000">chrono</text>
</g>
<!-- Node32&#45;&gt;Node34 -->
<g id="edge66" class="edge">
<title>Node32&#45;&gt;Node34</title>
<path fill="none" stroke="#191970" d="M318.3295,-280.2455C308.4339,-271.9746 294.0373,-259.9416 282.4099,-250.2232"/>
<polygon fill="#191970" stroke="#191970" points="284.4542,-247.3703 274.5368,-243.6427 279.965,-252.7413 284.4542,-247.3703"/>
</g>
<!-- Node35 -->
<g id="node36" class="node">
<title>Node35</title>
<polygon fill="none" stroke="#bfbfbf" points="306,-224.5 306,-243.5 354,-243.5 354,-224.5 306,-224.5"/>
<text text-anchor="middle" x="330" y="-231.5" font-family="Helvetica,sans-Serif" font-size="10.00" fill="#000000">thread</text>
</g>
<!-- Node32&#45;&gt;Node35 -->
<g id="edge67" class="edge">
<title>Node32&#45;&gt;Node35</title>
<path fill="none" stroke="#191970" d="M330,-280.2455C330,-272.9382 330,-262.6944 330,-253.7046"/>
<polygon fill="#191970" stroke="#191970" points="333.5001,-253.6426 330,-243.6427 326.5001,-253.6427 333.5001,-253.6426"/>
</g>
<!-- Node36&#45;&gt;Node3 -->
<g id="edge72" class="edge">
<title>Node36&#45;&gt;Node3</title>
<path fill="none" stroke="#191970" d="M727.5117,-336.3733C707.356,-327.3435 677.012,-313.7494 654.382,-303.6111"/>
<polygon fill="#191970" stroke="#191970" points="655.7649,-300.3955 645.2079,-299.5011 652.9029,-306.7838 655.7649,-300.3955"/>
</g>
<!-- Node36&#45;&gt;Node4 -->
<g id="edge71" class="edge">
<title>Node36&#45;&gt;Node4</title>
<path fill="none" stroke="#191970" d="M808.3307,-337.2389C913.7991,-320.8757 1128.8681,-283.715 1193,-244 1243.1072,-212.9701 1251.7174,-189.643 1264,-132 1265.8525,-123.3063 1269.8903,-118.657 1264,-112 1241.3902,-86.4472 1007.805,-72.0439 921.1337,-67.5464"/>
<polygon fill="#191970" stroke="#191970" points="921.2463,-64.0477 911.0814,-67.0352 920.8908,-71.0386 921.2463,-64.0477"/>
</g>
</g>
</svg>
        <g id="navigator" transform="translate(0 0)" fill="#404254">
                <rect fill="#f2f5e9" fill-opacity="0.5" stroke="#606060" stroke-width=".5" x="0" y="0" width="60" height="60"/>
                <use id="zoomplus" xlink:href="#zoomPlus" x="17" y="9" onmousedown="handleZoom(evt,'in')"/>
                <use id="zoomminus" xlink:href="#zoomMin" x="42" y="9" onmousedown="handleZoom(evt,'out')"/>
                <use id="reset" xlink:href="#resetDef" x="30" y="36" onmousedown="handleReset()"/>
                <g id="arrowUp" xlink:href="#dirArrow" transform="translate(30 24)" onmousedown="handlePan(0,-1)">
                  <use xlink:href="#rim" fill="#404040">
                        <set attributeName="fill" to="#808080" begin="arrowUp.mouseover" end="arrowUp.mouseout"/>
                  </use>
                  <path fill="none" stroke="white" stroke-width="1.5" d="M0,-3.0v7 M-2.5,-0.5L0,-3.0L2.5,-0.5"/>
                </g>
                <g id="arrowRight" xlink:href="#dirArrow" transform="rotate(90) translate(36 -43)" onmousedown="handlePan(1,0)">
                  <use xlink:href="#rim" fill="#404040">
                        <set attributeName="fill" to="#808080" begin="arrowRight.mouseover" end="arrowRight.mouseout"/>
                  </use>
                  <path fill="none" stroke="white" stroke-width="1.5" d="M0,-3.0v7 M-2.5,-0.5L0,-3.0L2.5,-0.5"/>
                </g>
                <g id="arrowDown" xlink:href="#dirArrow" transform="rotate(180) translate(-30 -48)" onmousedown="handlePan(0,1)">
                  <use xlink:href="#rim" fill="#404040">
                        <set attributeName="fill" to="#808080" begin="arrowDown.mouseover" end="arrowDown.mouseout"/>
                  </use>
                  <path fill="none" stroke="white" stroke-width="1.5" d="M0,-3.0v7 M-2.5,-0.5L0,-3.0L2.5,-0.5"/>
                </g>
                <g id="arrowLeft" xlink:href="#dirArrow" transform="rotate(270) translate(-36 17)" onmousedown="handlePan(-1,0)">
                  <use xlink:href="#rim" fill="#404040">
                        <set attributeName="fill" to="#808080" begin="arrowLeft.mouseover" end="arrowLeft.mouseout"/>
                  </use>
                  <path fill="none" stroke="white" stroke-width="1.5" d="M0,-3.0v7 M-2.5,-0.5L0,-3.0L2.5,-0.5"/>
                </g>
        </g>
        <svg viewBox="0 0 15 15" width="100%" height="30px" preserveAspectRatio="xMaxYMin meet">
         <g id="arrow_out" transform="scale(0.3 0.3)">
          <a xlink:href="UIManager_8hxx__incl_org.svg" target="_base">
           <rect id="button" ry="5" rx="5" y="6" x="6" height="38" width="38"
                fill="#f2f5e9" fill-opacity="0.5" stroke="#606060" stroke-width="1.0"/>
           <path id="arrow"
             d="M 11.500037,31.436501 C 11.940474,20.09759 22.043105,11.32322 32.158766,21.979434 L 37.068811,17.246167 C 37.068811,17.246167 37.088388,32 37.088388,32 L 22.160133,31.978069 C 22.160133,31.978069 26.997745,27.140456 26.997745,27.140456 C 18.528582,18.264221 13.291696,25.230495 11.500037,31.436501 z"
             style="fill:#404040;"/>
          </a>
         </g>
        </svg>
</svg>
