<?xml version="1.0" encoding="UTF-8" standalone="no"?>
<!DOCTYPE svg PUBLIC "-//W3C//DTD SVG 1.1//EN"
 "http://www.w3.org/Graphics/SVG/1.1/DTD/svg11.dtd">
<!-- Generated by graphviz version 2.40.1 (20161225.0304)
 -->
<!-- Title: src/engine/basics/utils.hxx Pages: 1 -->
<svg width="314pt" height="84pt"
 viewBox="0.00 0.00 313.50 84.00" xmlns="http://www.w3.org/2000/svg" xmlns:xlink="http://www.w3.org/1999/xlink">
<g id="graph0" class="graph" transform="scale(1 1) rotate(0) translate(4 80)">
<title>src/engine/basics/utils.hxx</title>
<!-- Node3 -->
<g id="node1" class="node">
<title>Node3</title>
<polygon fill="#bfbfbf" stroke="#000000" points="80.5,-56.5 80.5,-75.5 226.5,-75.5 226.5,-56.5 80.5,-56.5"/>
<text text-anchor="middle" x="153.5" y="-63.5" font-family="Helvetica,sans-Serif" font-size="10.00" fill="#000000">src/engine/basics/utils.hxx</text>
</g>
<!-- Node4 -->
<g id="node2" class="node">
<title>Node4</title>
<g id="a_node2"><a xlink:href="utils_8cxx.html" target="_top" xlink:title="src/engine/basics/utils.cxx">
<polygon fill="none" stroke="#000000" points="0,-.5 0,-19.5 145,-19.5 145,-.5 0,-.5"/>
<text text-anchor="middle" x="72.5" y="-7.5" font-family="Helvetica,sans-Serif" font-size="10.00" fill="#000000">src/engine/basics/utils.cxx</text>
</a>
</g>
</g>
<!-- Node3&#45;&gt;Node4 -->
<g id="edge1" class="edge">
<title>Node3&#45;&gt;Node4</title>
<path fill="none" stroke="#191970" d="M131.066,-50.49C116.7746,-40.6096 98.7084,-28.1194 86.4474,-19.6427"/>
<polygon fill="#191970" stroke="#191970" points="129.1749,-53.4376 139.3909,-56.2455 133.1557,-47.6797 129.1749,-53.4376"/>
</g>
<!-- Node5 -->
<g id="node3" class="node">
<title>Node5</title>
<g id="a_node3"><a xlink:href="UIManager_8cxx.html" target="_top" xlink:title="src/engine/UIManager.cxx">
<polygon fill="none" stroke="#000000" points="163.5,-.5 163.5,-19.5 305.5,-19.5 305.5,-.5 163.5,-.5"/>
<text text-anchor="middle" x="234.5" y="-7.5" font-family="Helvetica,sans-Serif" font-size="10.00" fill="#000000">src/engine/UIManager.cxx</text>
</a>
</g>
</g>
<!-- Node3&#45;&gt;Node5 -->
<g id="edge2" class="edge">
<title>Node3&#45;&gt;Node5</title>
<path fill="none" stroke="#191970" d="M175.934,-50.49C190.2254,-40.6096 208.2916,-28.1194 220.5526,-19.6427"/>
<polygon fill="#191970" stroke="#191970" points="173.8443,-47.6797 167.6091,-56.2455 177.8251,-53.4376 173.8443,-47.6797"/>
</g>
</g>
</svg>
