<?xml version="1.0" encoding="UTF-8" standalone="no"?>
<!DOCTYPE svg PUBLIC "-//W3C//DTD SVG 1.1//EN"
 "http://www.w3.org/Graphics/SVG/1.1/DTD/svg11.dtd">
<!-- Generated by graphviz version 2.40.1 (20161225.0304)
 -->
<!-- Title: src/engine/WindowManager.cxx Pages: 1 -->
<svg width="1244pt" height="196pt"
 viewBox="0.00 0.00 1244.43 196.00" xmlns="http://www.w3.org/2000/svg" xmlns:xlink="http://www.w3.org/1999/xlink">
<g id="graph0" class="graph" transform="scale(1 1) rotate(0) translate(4 192)">
<title>src/engine/WindowManager.cxx</title>
<!-- Node0 -->
<g id="node1" class="node">
<title>Node0</title>
<polygon fill="#bfbfbf" stroke="#000000" points="483.4347,-168.5 483.4347,-187.5 653.4347,-187.5 653.4347,-168.5 483.4347,-168.5"/>
<text text-anchor="middle" x="568.4347" y="-175.5" font-family="Helvetica,sans-Serif" font-size="10.00" fill="#000000">src/engine/WindowManager.cxx</text>
</g>
<!-- Node1 -->
<g id="node2" class="node">
<title>Node1</title>
<g id="a_node2"><a xlink:href="WindowManager_8hxx.html" target="_top" xlink:title="WindowManager.hxx">
<polygon fill="none" stroke="#000000" points="93.4347,-112.5 93.4347,-131.5 211.4347,-131.5 211.4347,-112.5 93.4347,-112.5"/>
<text text-anchor="middle" x="152.4347" y="-119.5" font-family="Helvetica,sans-Serif" font-size="10.00" fill="#000000">WindowManager.hxx</text>
</a>
</g>
</g>
<!-- Node0&#45;&gt;Node1 -->
<g id="edge1" class="edge">
<title>Node0&#45;&gt;Node1</title>
<path fill="none" stroke="#191970" d="M497.3944,-168.4369C420.3298,-158.0628 298.1113,-141.6103 221.7346,-131.3288"/>
<polygon fill="#191970" stroke="#191970" points="222.1102,-127.8479 211.7326,-129.9824 221.1763,-134.7853 222.1102,-127.8479"/>
</g>
<!-- Node7 -->
<g id="node8" class="node">
<title>Node7</title>
<g id="a_node8"><a xlink:href="LOG_8hxx.html" target="_top" xlink:title="LOG.hxx">
<polygon fill="none" stroke="#000000" points="645.4347,-112.5 645.4347,-131.5 703.4347,-131.5 703.4347,-112.5 645.4347,-112.5"/>
<text text-anchor="middle" x="674.4347" y="-119.5" font-family="Helvetica,sans-Serif" font-size="10.00" fill="#000000">LOG.hxx</text>
</a>
</g>
</g>
<!-- Node0&#45;&gt;Node7 -->
<g id="edge7" class="edge">
<title>Node0&#45;&gt;Node7</title>
<path fill="none" stroke="#191970" d="M586.8985,-168.2455C603.5422,-159.4527 628.234,-146.4079 647.1539,-136.4125"/>
<polygon fill="#191970" stroke="#191970" points="648.9755,-139.4086 656.1825,-131.6427 645.7056,-133.2193 648.9755,-139.4086"/>
</g>
<!-- Node8 -->
<g id="node9" class="node">
<title>Node8</title>
<g id="a_node9"><a xlink:href="Exception_8hxx.html" target="_top" xlink:title="Exception.hxx">
<polygon fill="none" stroke="#000000" points="525.4347,-56.5 525.4347,-75.5 611.4347,-75.5 611.4347,-56.5 525.4347,-56.5"/>
<text text-anchor="middle" x="568.4347" y="-63.5" font-family="Helvetica,sans-Serif" font-size="10.00" fill="#000000">Exception.hxx</text>
</a>
</g>
</g>
<!-- Node0&#45;&gt;Node8 -->
<g id="edge28" class="edge">
<title>Node0&#45;&gt;Node8</title>
<path fill="none" stroke="#191970" d="M568.4347,-168.4509C568.4347,-150.184 568.4347,-109.9553 568.4347,-85.6976"/>
<polygon fill="#191970" stroke="#191970" points="571.9348,-85.5249 568.4347,-75.5249 564.9348,-85.5249 571.9348,-85.5249"/>
</g>
<!-- Node24 -->
<g id="node25" class="node">
<title>Node24</title>
<g id="a_node25"><a xlink:href="Settings_8hxx.html" target="_top" xlink:title="basics/Settings.hxx">
<polygon fill="none" stroke="#000000" points="244.9347,-112.5 244.9347,-131.5 355.9347,-131.5 355.9347,-112.5 244.9347,-112.5"/>
<text text-anchor="middle" x="300.4347" y="-119.5" font-family="Helvetica,sans-Serif" font-size="10.00" fill="#000000">basics/Settings.hxx</text>
</a>
</g>
</g>
<!-- Node0&#45;&gt;Node24 -->
<g id="edge29" class="edge">
<title>Node0&#45;&gt;Node24</title>
<path fill="none" stroke="#191970" d="M522.6684,-168.4369C476.5132,-158.7925 405.2169,-143.8948 355.881,-133.5858"/>
<polygon fill="#191970" stroke="#191970" points="356.5168,-130.1431 346.0123,-131.5237 355.085,-136.9951 356.5168,-130.1431"/>
</g>
<!-- Node26 -->
<g id="node27" class="node">
<title>Node26</title>
<polygon fill="none" stroke="#bfbfbf" points="721.4347,-112.5 721.4347,-131.5 801.4347,-131.5 801.4347,-112.5 721.4347,-112.5"/>
<text text-anchor="middle" x="761.4347" y="-119.5" font-family="Helvetica,sans-Serif" font-size="10.00" fill="#000000">SDL_image.h</text>
</g>
<!-- Node0&#45;&gt;Node26 -->
<g id="edge34" class="edge">
<title>Node0&#45;&gt;Node26</title>
<path fill="none" stroke="#191970" d="M601.6126,-168.3733C633.9834,-158.9807 683.3745,-144.6496 718.6771,-134.4064"/>
<polygon fill="#191970" stroke="#191970" points="720.0612,-137.6492 728.6898,-131.5011 718.1105,-130.9264 720.0612,-137.6492"/>
</g>
<!-- Node2 -->
<g id="node3" class="node">
<title>Node2</title>
<polygon fill="none" stroke="#bfbfbf" points="211.4347,-56.5 211.4347,-75.5 255.4347,-75.5 255.4347,-56.5 211.4347,-56.5"/>
<text text-anchor="middle" x="233.4347" y="-63.5" font-family="Helvetica,sans-Serif" font-size="10.00" fill="#000000">string</text>
</g>
<!-- Node1&#45;&gt;Node2 -->
<g id="edge2" class="edge">
<title>Node1&#45;&gt;Node2</title>
<path fill="none" stroke="#191970" d="M166.5438,-112.2455C178.8556,-103.7337 196.9305,-91.2375 211.1885,-81.3801"/>
<polygon fill="#191970" stroke="#191970" points="213.2521,-84.2085 219.4873,-75.6427 209.2713,-78.4506 213.2521,-84.2085"/>
</g>
<!-- Node3 -->
<g id="node4" class="node">
<title>Node3</title>
<polygon fill="none" stroke="#bfbfbf" points="242.4347,-.5 242.4347,-19.5 302.4347,-19.5 302.4347,-.5 242.4347,-.5"/>
<text text-anchor="middle" x="272.4347" y="-7.5" font-family="Helvetica,sans-Serif" font-size="10.00" fill="#000000">iostream</text>
</g>
<!-- Node1&#45;&gt;Node3 -->
<g id="edge3" class="edge">
<title>Node1&#45;&gt;Node3</title>
<path fill="none" stroke="#191970" d="M93.0754,-115.1692C41.5197,-106.8521 -20.7891,-89.5451 7.4347,-56 35.6852,-22.4232 165.288,-13.3543 232.1984,-10.9054"/>
<polygon fill="#191970" stroke="#191970" points="232.4958,-14.3976 242.3737,-10.5665 232.2627,-7.4015 232.4958,-14.3976"/>
</g>
<!-- Node4 -->
<g id="node5" class="node">
<title>Node4</title>
<polygon fill="none" stroke="#bfbfbf" points="16.9347,-56.5 16.9347,-75.5 63.9347,-75.5 63.9347,-56.5 16.9347,-56.5"/>
<text text-anchor="middle" x="40.4347" y="-63.5" font-family="Helvetica,sans-Serif" font-size="10.00" fill="#000000">vector</text>
</g>
<!-- Node1&#45;&gt;Node4 -->
<g id="edge4" class="edge">
<title>Node1&#45;&gt;Node4</title>
<path fill="none" stroke="#191970" d="M133.1812,-112.3733C115.3636,-103.4644 88.66,-90.1127 68.4753,-80.0203"/>
<polygon fill="#191970" stroke="#191970" points="69.9465,-76.8428 59.437,-75.5011 66.816,-83.1038 69.9465,-76.8428"/>
</g>
<!-- Node5 -->
<g id="node6" class="node">
<title>Node5</title>
<polygon fill="none" stroke="#bfbfbf" points="345.4347,-56.5 345.4347,-75.5 389.4347,-75.5 389.4347,-56.5 345.4347,-56.5"/>
<text text-anchor="middle" x="367.4347" y="-63.5" font-family="Helvetica,sans-Serif" font-size="10.00" fill="#000000">SDL.h</text>
</g>
<!-- Node1&#45;&gt;Node5 -->
<g id="edge5" class="edge">
<title>Node1&#45;&gt;Node5</title>
<path fill="none" stroke="#191970" d="M193.3125,-112.426C230.5154,-103.5465 286.8754,-89.6786 335.4347,-76 335.5328,-75.9724 335.6309,-75.9447 335.7293,-75.9169"/>
<polygon fill="#191970" stroke="#191970" points="336.4998,-79.3387 345.1033,-73.1556 334.5218,-72.624 336.4998,-79.3387"/>
</g>
<!-- Node6 -->
<g id="node7" class="node">
<title>Node6</title>
<g id="a_node7"><a xlink:href="Singleton_8hxx.html" target="_top" xlink:title="../util/Singleton.hxx">
<polygon fill="none" stroke="#000000" points="81.9347,-56.5 81.9347,-75.5 192.9347,-75.5 192.9347,-56.5 81.9347,-56.5"/>
<text text-anchor="middle" x="137.4347" y="-63.5" font-family="Helvetica,sans-Serif" font-size="10.00" fill="#000000">../util/Singleton.hxx</text>
</a>
</g>
</g>
<!-- Node1&#45;&gt;Node6 -->
<g id="edge6" class="edge">
<title>Node1&#45;&gt;Node6</title>
<path fill="none" stroke="#191970" d="M149.8219,-112.2455C147.8431,-104.8579 145.0603,-94.4689 142.6335,-85.4087"/>
<polygon fill="#191970" stroke="#191970" points="145.9858,-84.3966 140.0176,-75.6427 139.2242,-86.2078 145.9858,-84.3966"/>
</g>
<!-- Node7&#45;&gt;Node2 -->
<g id="edge8" class="edge">
<title>Node7&#45;&gt;Node2</title>
<path fill="none" stroke="#191970" d="M645.2825,-120.7352C579.1852,-117.4431 412.8808,-106.7718 265.7505,-75.9111"/>
<polygon fill="#191970" stroke="#191970" points="266.151,-72.4178 255.6405,-73.7517 264.6888,-79.2634 266.151,-72.4178"/>
</g>
<!-- Node7&#45;&gt;Node3 -->
<g id="edge12" class="edge">
<title>Node7&#45;&gt;Node3</title>
<path fill="none" stroke="#191970" d="M645.1394,-119.1363C599.4944,-114.0582 509.0989,-101.5161 436.4347,-76 418.4274,-69.6767 415.8825,-63.7345 398.4347,-56 369.8673,-43.3363 336.6292,-31.3098 311.4659,-22.7318"/>
<polygon fill="#191970" stroke="#191970" points="312.496,-19.3856 301.9018,-19.5047 310.258,-26.0182 312.496,-19.3856"/>
</g>
<!-- Node7&#45;&gt;Node5 -->
<g id="edge17" class="edge">
<title>Node7&#45;&gt;Node5</title>
<path fill="none" stroke="#191970" d="M645.3672,-118.0677C595.5458,-111.1048 490.7649,-95.4868 403.4347,-76 402.1883,-75.7219 400.9207,-75.4274 399.6425,-75.1207"/>
<polygon fill="#191970" stroke="#191970" points="400.3695,-71.6939 389.8134,-72.5998 398.6304,-78.4745 400.3695,-71.6939"/>
</g>
<!-- Node7&#45;&gt;Node8 -->
<g id="edge9" class="edge">
<title>Node7&#45;&gt;Node8</title>
<path fill="none" stroke="#191970" d="M655.9709,-112.2455C639.3273,-103.4527 614.6354,-90.4079 595.7155,-80.4125"/>
<polygon fill="#191970" stroke="#191970" points="597.1638,-77.2193 586.6869,-75.6427 593.8939,-83.4086 597.1638,-77.2193"/>
</g>
<!-- Node11 -->
<g id="node12" class="node">
<title>Node11</title>
<polygon fill="none" stroke="#bfbfbf" points="828.4347,-56.5 828.4347,-75.5 878.4347,-75.5 878.4347,-56.5 828.4347,-56.5"/>
<text text-anchor="middle" x="853.4347" y="-63.5" font-family="Helvetica,sans-Serif" font-size="10.00" fill="#000000">chrono</text>
</g>
<!-- Node7&#45;&gt;Node11 -->
<g id="edge13" class="edge">
<title>Node7&#45;&gt;Node11</title>
<path fill="none" stroke="#191970" d="M703.5925,-112.878C735.015,-103.0475 785.0124,-87.4059 818.5104,-76.926"/>
<polygon fill="#191970" stroke="#191970" points="819.8391,-80.1777 828.3379,-73.8515 817.749,-73.497 819.8391,-80.1777"/>
</g>
<!-- Node12 -->
<g id="node13" class="node">
<title>Node12</title>
<polygon fill="none" stroke="#bfbfbf" points="896.4347,-56.5 896.4347,-75.5 940.4347,-75.5 940.4347,-56.5 896.4347,-56.5"/>
<text text-anchor="middle" x="918.4347" y="-63.5" font-family="Helvetica,sans-Serif" font-size="10.00" fill="#000000">ctime</text>
</g>
<!-- Node7&#45;&gt;Node12 -->
<g id="edge14" class="edge">
<title>Node7&#45;&gt;Node12</title>
<path fill="none" stroke="#191970" d="M703.4403,-114.1932C706.4718,-113.4293 709.5122,-112.6846 712.4347,-112 786.7282,-94.5965 808.9269,-96.0683 886.4358,-76.0535"/>
<polygon fill="#191970" stroke="#191970" points="887.3831,-79.4235 896.1696,-73.5034 885.609,-72.652 887.3831,-79.4235"/>
</g>
<!-- Node13 -->
<g id="node14" class="node">
<title>Node13</title>
<polygon fill="none" stroke="#bfbfbf" points="958.9347,-56.5 958.9347,-75.5 1013.9347,-75.5 1013.9347,-56.5 958.9347,-56.5"/>
<text text-anchor="middle" x="986.4347" y="-63.5" font-family="Helvetica,sans-Serif" font-size="10.00" fill="#000000">fstream</text>
</g>
<!-- Node7&#45;&gt;Node13 -->
<g id="edge15" class="edge">
<title>Node7&#45;&gt;Node13</title>
<path fill="none" stroke="#191970" d="M703.82,-113.9362C706.721,-113.2398 709.629,-112.5805 712.4347,-112 813.6078,-91.0658 843.3857,-97.5052 948.5609,-75.9752"/>
<polygon fill="#191970" stroke="#191970" points="949.5606,-79.3421 958.6361,-73.8753 948.1323,-72.4894 949.5606,-79.3421"/>
</g>
<!-- Node14 -->
<g id="node15" class="node">
<title>Node14</title>
<polygon fill="none" stroke="#bfbfbf" points="1032.4347,-56.5 1032.4347,-75.5 1088.4347,-75.5 1088.4347,-56.5 1032.4347,-56.5"/>
<text text-anchor="middle" x="1060.4347" y="-63.5" font-family="Helvetica,sans-Serif" font-size="10.00" fill="#000000">sstream</text>
</g>
<!-- Node7&#45;&gt;Node14 -->
<g id="edge16" class="edge">
<title>Node7&#45;&gt;Node14</title>
<path fill="none" stroke="#191970" d="M703.7993,-113.8316C706.7045,-113.1563 709.6191,-112.5307 712.4347,-112 845.9678,-86.8332 884.9657,-101.4977 1022.2003,-75.9873"/>
<polygon fill="#191970" stroke="#191970" points="1023.0813,-79.3827 1032.2537,-74.0801 1021.7765,-72.5054 1023.0813,-79.3827"/>
</g>
<!-- Node15 -->
<g id="node16" class="node">
<title>Node15</title>
<polygon fill="none" stroke="#bfbfbf" points="1106.4347,-56.5 1106.4347,-75.5 1170.4347,-75.5 1170.4347,-56.5 1106.4347,-56.5"/>
<text text-anchor="middle" x="1138.4347" y="-63.5" font-family="Helvetica,sans-Serif" font-size="10.00" fill="#000000">algorithm</text>
</g>
<!-- Node7&#45;&gt;Node15 -->
<g id="edge18" class="edge">
<title>Node7&#45;&gt;Node15</title>
<path fill="none" stroke="#191970" d="M703.7874,-113.7666C706.6951,-113.1045 709.6134,-112.4996 712.4347,-112 878.4365,-82.6016 926.1388,-103.6027 1096.2506,-75.973"/>
<polygon fill="#191970" stroke="#191970" points="1097.0044,-79.3959 1106.2977,-74.3082 1095.8601,-72.49 1097.0044,-79.3959"/>
</g>
<!-- Node16 -->
<g id="node17" class="node">
<title>Node16</title>
<polygon fill="none" stroke="#bfbfbf" points="1188.4347,-56.5 1188.4347,-75.5 1236.4347,-75.5 1236.4347,-56.5 1188.4347,-56.5"/>
<text text-anchor="middle" x="1212.4347" y="-63.5" font-family="Helvetica,sans-Serif" font-size="10.00" fill="#000000">mutex</text>
</g>
<!-- Node7&#45;&gt;Node16 -->
<g id="edge19" class="edge">
<title>Node7&#45;&gt;Node16</title>
<path fill="none" stroke="#191970" d="M703.7791,-113.7184C706.6884,-113.066 709.6095,-112.4766 712.4347,-112 914.4981,-77.9112 973.0164,-113.272 1178.5353,-75.773"/>
<polygon fill="#191970" stroke="#191970" points="1179.2429,-79.2015 1188.4342,-73.9317 1177.9627,-72.3195 1179.2429,-79.2015"/>
</g>
<!-- Node17 -->
<g id="node18" class="node">
<title>Node17</title>
<g id="a_node18"><a xlink:href="Meta_8hxx.html" target="_top" xlink:title="Meta.hxx">
<polygon fill="none" stroke="#000000" points="445.4347,-56.5 445.4347,-75.5 507.4347,-75.5 507.4347,-56.5 445.4347,-56.5"/>
<text text-anchor="middle" x="476.4347" y="-63.5" font-family="Helvetica,sans-Serif" font-size="10.00" fill="#000000">Meta.hxx</text>
</a>
</g>
</g>
<!-- Node7&#45;&gt;Node17 -->
<g id="edge20" class="edge">
<title>Node7&#45;&gt;Node17</title>
<path fill="none" stroke="#191970" d="M645.2191,-113.737C611.4473,-104.1854 555.6315,-88.3991 517.5029,-77.6152"/>
<polygon fill="#191970" stroke="#191970" points="518.3084,-74.2058 507.7333,-74.8521 516.4033,-80.9416 518.3084,-74.2058"/>
</g>
<!-- Node21 -->
<g id="node22" class="node">
<title>Node21</title>
<g id="a_node22"><a xlink:href="filesystem_8hxx.html" target="_top" xlink:title="filesystem.hxx">
<polygon fill="none" stroke="#000000" points="629.9347,-56.5 629.9347,-75.5 718.9347,-75.5 718.9347,-56.5 629.9347,-56.5"/>
<text text-anchor="middle" x="674.4347" y="-63.5" font-family="Helvetica,sans-Serif" font-size="10.00" fill="#000000">filesystem.hxx</text>
</a>
</g>
</g>
<!-- Node7&#45;&gt;Node21 -->
<g id="edge25" class="edge">
<title>Node7&#45;&gt;Node21</title>
<path fill="none" stroke="#191970" d="M674.4347,-112.2455C674.4347,-104.9382 674.4347,-94.6944 674.4347,-85.7046"/>
<polygon fill="#191970" stroke="#191970" points="677.9348,-85.6426 674.4347,-75.6427 670.9348,-85.6427 677.9348,-85.6426"/>
</g>
<!-- Node23 -->
<g id="node24" class="node">
<title>Node23</title>
<g id="a_node24"><a xlink:href="LOG_8inl_8hxx.html" target="_top" xlink:title="LOG.inl.hxx">
<polygon fill="none" stroke="#000000" points="736.9347,-56.5 736.9347,-75.5 809.9347,-75.5 809.9347,-56.5 736.9347,-56.5"/>
<text text-anchor="middle" x="773.4347" y="-63.5" font-family="Helvetica,sans-Serif" font-size="10.00" fill="#000000">LOG.inl.hxx</text>
</a>
</g>
</g>
<!-- Node7&#45;&gt;Node23 -->
<g id="edge27" class="edge">
<title>Node7&#45;&gt;Node23</title>
<path fill="none" stroke="#191970" d="M691.6792,-112.2455C707.0108,-103.5731 729.6546,-90.7645 747.2263,-80.825"/>
<polygon fill="#191970" stroke="#191970" points="749.4071,-83.6126 756.3878,-75.6427 745.9606,-77.5198 749.4071,-83.6126"/>
</g>
<!-- Node9 -->
<g id="node10" class="node">
<title>Node9</title>
<polygon fill="none" stroke="#bfbfbf" points="535.9347,-.5 535.9347,-19.5 600.9347,-19.5 600.9347,-.5 535.9347,-.5"/>
<text text-anchor="middle" x="568.4347" y="-7.5" font-family="Helvetica,sans-Serif" font-size="10.00" fill="#000000">stdexcept</text>
</g>
<!-- Node8&#45;&gt;Node9 -->
<g id="edge10" class="edge">
<title>Node8&#45;&gt;Node9</title>
<path fill="none" stroke="#191970" d="M568.4347,-56.2455C568.4347,-48.9382 568.4347,-38.6944 568.4347,-29.7046"/>
<polygon fill="#191970" stroke="#191970" points="571.9348,-29.6426 568.4347,-19.6427 564.9348,-29.6427 571.9348,-29.6426"/>
</g>
<!-- Node10 -->
<g id="node11" class="node">
<title>Node10</title>
<polygon fill="none" stroke="#bfbfbf" points="618.9347,-.5 618.9347,-19.5 683.9347,-19.5 683.9347,-.5 618.9347,-.5"/>
<text text-anchor="middle" x="651.4347" y="-7.5" font-family="Helvetica,sans-Serif" font-size="10.00" fill="#000000">exception</text>
</g>
<!-- Node8&#45;&gt;Node10 -->
<g id="edge11" class="edge">
<title>Node8&#45;&gt;Node10</title>
<path fill="none" stroke="#191970" d="M582.8922,-56.2455C595.5079,-47.7337 614.0291,-35.2375 628.6392,-25.3801"/>
<polygon fill="#191970" stroke="#191970" points="630.8108,-28.1371 637.1429,-19.6427 626.8957,-22.3343 630.8108,-28.1371"/>
</g>
<!-- Node17&#45;&gt;Node3 -->
<g id="edge21" class="edge">
<title>Node17&#45;&gt;Node3</title>
<path fill="none" stroke="#191970" d="M445.0068,-57.3727C409.4057,-47.5999 351.3071,-31.6512 312.4837,-20.9938"/>
<polygon fill="#191970" stroke="#191970" points="313.1371,-17.5438 302.5673,-18.2717 311.2841,-24.2941 313.1371,-17.5438"/>
</g>
<!-- Node18 -->
<g id="node19" class="node">
<title>Node18</title>
<polygon fill="none" stroke="#bfbfbf" points="448.9347,-.5 448.9347,-19.5 517.9347,-19.5 517.9347,-.5 448.9347,-.5"/>
<text text-anchor="middle" x="483.4347" y="-7.5" font-family="Helvetica,sans-Serif" font-size="10.00" fill="#000000">type_traits</text>
</g>
<!-- Node17&#45;&gt;Node18 -->
<g id="edge22" class="edge">
<title>Node17&#45;&gt;Node18</title>
<path fill="none" stroke="#191970" d="M477.654,-56.2455C478.5674,-48.9382 479.8479,-38.6944 480.9716,-29.7046"/>
<polygon fill="#191970" stroke="#191970" points="484.4619,-29.9996 482.2294,-19.6427 477.516,-29.1313 484.4619,-29.9996"/>
</g>
<!-- Node19 -->
<g id="node20" class="node">
<title>Node19</title>
<polygon fill="none" stroke="#bfbfbf" points="320.9347,-.5 320.9347,-19.5 371.9347,-19.5 371.9347,-.5 320.9347,-.5"/>
<text text-anchor="middle" x="346.4347" y="-7.5" font-family="Helvetica,sans-Serif" font-size="10.00" fill="#000000">variant</text>
</g>
<!-- Node17&#45;&gt;Node19 -->
<g id="edge23" class="edge">
<title>Node17&#45;&gt;Node19</title>
<path fill="none" stroke="#191970" d="M454.0869,-56.3733C433.0314,-47.3032 401.2852,-33.6279 377.7172,-23.4755"/>
<polygon fill="#191970" stroke="#191970" points="379.0597,-20.243 368.4909,-19.5011 376.2903,-26.6719 379.0597,-20.243"/>
</g>
<!-- Node20 -->
<g id="node21" class="node">
<title>Node20</title>
<polygon fill="none" stroke="#bfbfbf" points="389.9347,-.5 389.9347,-19.5 430.9347,-19.5 430.9347,-.5 389.9347,-.5"/>
<text text-anchor="middle" x="410.4347" y="-7.5" font-family="Helvetica,sans-Serif" font-size="10.00" fill="#000000">tuple</text>
</g>
<!-- Node17&#45;&gt;Node20 -->
<g id="edge24" class="edge">
<title>Node17&#45;&gt;Node20</title>
<path fill="none" stroke="#191970" d="M464.9384,-56.2455C455.1905,-47.9746 441.0088,-35.9416 429.5549,-26.2232"/>
<polygon fill="#191970" stroke="#191970" points="431.6888,-23.4437 421.7993,-19.6427 427.16,-28.7813 431.6888,-23.4437"/>
</g>
<!-- Node22 -->
<g id="node23" class="node">
<title>Node22</title>
<polygon fill="none" stroke="#bfbfbf" points="702.4347,-.5 702.4347,-19.5 756.4347,-19.5 756.4347,-.5 702.4347,-.5"/>
<text text-anchor="middle" x="729.4347" y="-7.5" font-family="Helvetica,sans-Serif" font-size="10.00" fill="#000000">ciso646</text>
</g>
<!-- Node21&#45;&gt;Node22 -->
<g id="edge26" class="edge">
<title>Node21&#45;&gt;Node22</title>
<path fill="none" stroke="#191970" d="M684.015,-56.2455C691.9805,-48.1352 703.4988,-36.4075 712.9426,-26.7919"/>
<polygon fill="#191970" stroke="#191970" points="715.4542,-29.2297 719.9642,-19.6427 710.46,-24.3247 715.4542,-29.2297"/>
</g>
<!-- Node24&#45;&gt;Node2 -->
<g id="edge30" class="edge">
<title>Node24&#45;&gt;Node2</title>
<path fill="none" stroke="#191970" d="M288.7642,-112.2455C278.8686,-103.9746 264.472,-91.9416 252.8446,-82.2232"/>
<polygon fill="#191970" stroke="#191970" points="254.8889,-79.3703 244.9715,-75.6427 250.3997,-84.7413 254.8889,-79.3703"/>
</g>
<!-- Node24&#45;&gt;Node6 -->
<g id="edge31" class="edge">
<title>Node24&#45;&gt;Node6</title>
<path fill="none" stroke="#191970" d="M272.414,-112.3733C245.4269,-103.1016 204.433,-89.0178 174.7036,-78.804"/>
<polygon fill="#191970" stroke="#191970" points="175.6844,-75.4403 165.0898,-75.5011 173.41,-82.0605 175.6844,-75.4403"/>
</g>
<!-- Node24&#45;&gt;Node17 -->
<g id="edge32" class="edge">
<title>Node24&#45;&gt;Node17</title>
<path fill="none" stroke="#191970" d="M330.6902,-112.3733C360.083,-103.021 404.8639,-88.7725 437.0281,-78.5385"/>
<polygon fill="#191970" stroke="#191970" points="438.106,-81.8685 446.574,-75.5011 435.9835,-75.198 438.106,-81.8685"/>
</g>
<!-- Node25 -->
<g id="node26" class="node">
<title>Node25</title>
<polygon fill="none" stroke="#bfbfbf" points="273.9347,-56.5 273.9347,-75.5 326.9347,-75.5 326.9347,-56.5 273.9347,-56.5"/>
<text text-anchor="middle" x="300.4347" y="-63.5" font-family="Helvetica,sans-Serif" font-size="10.00" fill="#000000">cstddef</text>
</g>
<!-- Node24&#45;&gt;Node25 -->
<g id="edge33" class="edge">
<title>Node24&#45;&gt;Node25</title>
<path fill="none" stroke="#191970" d="M300.4347,-112.2455C300.4347,-104.9382 300.4347,-94.6944 300.4347,-85.7046"/>
<polygon fill="#191970" stroke="#191970" points="303.9348,-85.6426 300.4347,-75.6427 296.9348,-85.6427 303.9348,-85.6426"/>
</g>
</g>
</svg>
